<svg version="1.1" xmlns="http://www.w3.org/2000/svg" xmlns:xlink="http://www.w3.org/1999/xlink" width="986" height="556"><defs><clipPath id="DGaJZwgfTQyP"><path fill="none" stroke="none" d=" M 0 0 L 986 0 L 986 556 L 0 556 L 0 0 Z"/></clipPath></defs><g transform="scale(1,1)" clip-path="url(#DGaJZwgfTQyP)"><g><rect fill="rgb(255,255,255)" stroke="none" x="0" y="0" width="986" height="556" fill-opacity="1"/><path fill="none" stroke="rgb(0,0,0)" paint-order="fill stroke markers" d=" M 245.0000000000002 477 L 617 476" stroke-opacity="0.6980392156862745" stroke-linecap="round" stroke-linejoin="round" stroke-miterlimit="10" stroke-width="2.5"/><path fill="none" stroke="rgb(0,0,0)" paint-order="fill stroke markers" d=" M 617 476 L 705 116.00000000000003" stroke-opacity="0.6980392156862745" stroke-linecap="round" stroke-linejoin="round" stroke-miterlimit="10" stroke-width="2.5"/><path fill="none" stroke="rgb(0,0,0)" paint-order="fill stroke markers" d=" M 333.0000000000001 117.00000000000003 L 705 116.00000000000003" stroke-opacity="0.6980392156862745" stroke-linecap="round" stroke-linejoin="round" stroke-miterlimit="10" stroke-width="2.5"/><path fill="none" stroke="rgb(0,0,0)" paint-order="fill stroke markers" d=" M 333.0000000000001 117.00000000000003 L 245.0000000000002 477" stroke-opacity="0.6980392156862745" stroke-linecap="round" stroke-linejoin="round" stroke-miterlimit="10" stroke-width="2.5"/><path fill="none" stroke="rgb(0,0,0)" paint-order="fill stroke markers" d=" M 271.55890515111207 368.3499334727238 L 705 116.00000000000003" stroke-opacity="0.6980392156862745" stroke-linecap="round" stroke-linejoin="round" stroke-miterlimit="10" stroke-width="2.5"/><path fill="none" stroke="rgb(0,0,0)" paint-order="fill stroke markers" d=" M 245.0000000000002 477 L 678.4410948488882 224.6500665272762" stroke-opacity="0.6980392156862745" stroke-linecap="round" stroke-linejoin="round" stroke-miterlimit="10" stroke-width="2.5"/><path fill="rgb(21,101,192)" stroke="none" paint-order="stroke fill markers" d=" M 250.0000000000002 477 C 250.0000000000002 479.76142374915395 247.76142374915418 482 245.0000000000002 482 C 242.23857625084622 482 240.0000000000002 479.76142374915395 240.0000000000002 477 C 240.0000000000002 474.23857625084605 242.23857625084622 472 245.0000000000002 472 C 247.76142374915418 472 250.0000000000002 474.23857625084605 250.0000000000002 477 Z" fill-opacity="1"/><path fill="none" stroke="rgb(0,0,0)" paint-order="fill stroke markers" d=" M 250.0000000000002 477 C 250.0000000000002 479.76142374915395 247.76142374915418 482 245.0000000000002 482 C 242.23857625084622 482 240.0000000000002 479.76142374915395 240.0000000000002 477 C 240.0000000000002 474.23857625084605 242.23857625084622 472 245.0000000000002 472 C 247.76142374915418 472 250.0000000000002 474.23857625084605 250.0000000000002 477 Z" stroke-opacity="1" stroke-linecap="round" stroke-linejoin="round" stroke-miterlimit="10"/><text fill="rgb(21,101,192)" stroke="none" font-family="geogebra-sans-serif, sans-serif" font-size="24px" font-style="normal" font-weight="normal" text-decoration="normal" x="224" y="513" text-anchor="start" dominant-baseline="alphabetic" fill-opacity="1">A</text><text fill="none" stroke="rgb(255,255,255)" font-family="geogebra-sans-serif, sans-serif" font-size="24px" font-style="normal" font-weight="normal" text-decoration="normal" x="224" y="513" text-anchor="start" dominant-baseline="alphabetic" stroke-opacity="1" stroke-linejoin="bevel" stroke-miterlimit="10" stroke-width="3">A</text><text fill="rgb(21,101,192)" stroke="none" font-family="geogebra-sans-serif, sans-serif" font-size="24px" font-style="normal" font-weight="normal" text-decoration="normal" x="224" y="513" text-anchor="start" dominant-baseline="alphabetic" fill-opacity="1">A</text><path fill="rgb(21,101,192)" stroke="none" paint-order="stroke fill markers" d=" M 622 476 C 622 478.76142374915395 619.761423749154 481 617 481 C 614.238576250846 481 612 478.76142374915395 612 476 C 612 473.23857625084605 614.238576250846 471 617 471 C 619.761423749154 471 622 473.23857625084605 622 476 Z" fill-opacity="1"/><path fill="none" stroke="rgb(0,0,0)" paint-order="fill stroke markers" d=" M 622 476 C 622 478.76142374915395 619.761423749154 481 617 481 C 614.238576250846 481 612 478.76142374915395 612 476 C 612 473.23857625084605 614.238576250846 471 617 471 C 619.761423749154 471 622 473.23857625084605 622 476 Z" stroke-opacity="1" stroke-linecap="round" stroke-linejoin="round" stroke-miterlimit="10"/><text fill="rgb(21,101,192)" stroke="none" font-family="geogebra-sans-serif, sans-serif" font-size="24px" font-style="normal" font-weight="normal" text-decoration="normal" x="629" y="503" text-anchor="start" dominant-baseline="alphabetic" fill-opacity="1">B</text><text fill="none" stroke="rgb(255,255,255)" font-family="geogebra-sans-serif, sans-serif" font-size="24px" font-style="normal" font-weight="normal" text-decoration="normal" x="629" y="503" text-anchor="start" dominant-baseline="alphabetic" stroke-opacity="1" stroke-linejoin="bevel" stroke-miterlimit="10" stroke-width="3">B</text><text fill="rgb(21,101,192)" stroke="none" font-family="geogebra-sans-serif, sans-serif" font-size="24px" font-style="normal" font-weight="normal" text-decoration="normal" x="629" y="503" text-anchor="start" dominant-baseline="alphabetic" fill-opacity="1">B</text><path fill="rgb(21,101,192)" stroke="none" paint-order="stroke fill markers" d=" M 710 116.00000000000003 C 710 118.76142374915399 707.761423749154 121.00000000000003 705 121.00000000000003 C 702.238576250846 121.00000000000003 700 118.76142374915399 700 116.00000000000003 C 700 113.23857625084607 702.238576250846 111.00000000000003 705 111.00000000000003 C 707.761423749154 111.00000000000003 710 113.23857625084607 710 116.00000000000003 Z" fill-opacity="1"/><path fill="none" stroke="rgb(0,0,0)" paint-order="fill stroke markers" d=" M 710 116.00000000000003 C 710 118.76142374915399 707.761423749154 121.00000000000003 705 121.00000000000003 C 702.238576250846 121.00000000000003 700 118.76142374915399 700 116.00000000000003 C 700 113.23857625084607 702.238576250846 111.00000000000003 705 111.00000000000003 C 707.761423749154 111.00000000000003 710 113.23857625084607 710 116.00000000000003 Z" stroke-opacity="1" stroke-linecap="round" stroke-linejoin="round" stroke-miterlimit="10"/><text fill="rgb(21,101,192)" stroke="none" font-family="geogebra-sans-serif, sans-serif" font-size="24px" font-style="normal" font-weight="normal" text-decoration="normal" x="709" y="106" text-anchor="start" dominant-baseline="alphabetic" fill-opacity="1">C</text><text fill="none" stroke="rgb(255,255,255)" font-family="geogebra-sans-serif, sans-serif" font-size="24px" font-style="normal" font-weight="normal" text-decoration="normal" x="709" y="106" text-anchor="start" dominant-baseline="alphabetic" stroke-opacity="1" stroke-linejoin="bevel" stroke-miterlimit="10" stroke-width="3">C</text><text fill="rgb(21,101,192)" stroke="none" font-family="geogebra-sans-serif, sans-serif" font-size="24px" font-style="normal" font-weight="normal" text-decoration="normal" x="709" y="106" text-anchor="start" dominant-baseline="alphabetic" fill-opacity="1">C</text><path fill="rgb(21,101,192)" stroke="none" paint-order="stroke fill markers" d=" M 338.0000000000001 117.00000000000003 C 338.0000000000001 119.76142374915399 335.76142374915406 122.00000000000003 333.0000000000001 122.00000000000003 C 330.23857625084617 122.00000000000003 328.0000000000001 119.76142374915399 328.0000000000001 117.00000000000003 C 328.0000000000001 114.23857625084607 330.23857625084617 112.00000000000003 333.0000000000001 112.00000000000003 C 335.76142374915406 112.00000000000003 338.0000000000001 114.23857625084607 338.0000000000001 117.00000000000003 Z" fill-opacity="1"/><path fill="none" stroke="rgb(0,0,0)" paint-order="fill stroke markers" d=" M 338.0000000000001 117.00000000000003 C 338.0000000000001 119.76142374915399 335.76142374915406 122.00000000000003 333.0000000000001 122.00000000000003 C 330.23857625084617 122.00000000000003 328.0000000000001 119.76142374915399 328.0000000000001 117.00000000000003 C 328.0000000000001 114.23857625084607 330.23857625084617 112.00000000000003 333.0000000000001 112.00000000000003 C 335.76142374915406 112.00000000000003 338.0000000000001 114.23857625084607 338.0000000000001 117.00000000000003 Z" stroke-opacity="1" stroke-linecap="round" stroke-linejoin="round" stroke-miterlimit="10"/><text fill="rgb(21,101,192)" stroke="none" font-family="geogebra-sans-serif, sans-serif" font-size="24px" font-style="normal" font-weight="normal" text-decoration="normal" x="311" y="105" text-anchor="start" dominant-baseline="alphabetic" fill-opacity="1">D</text><text fill="none" stroke="rgb(255,255,255)" font-family="geogebra-sans-serif, sans-serif" font-size="24px" font-style="normal" font-weight="normal" text-decoration="normal" x="311" y="105" text-anchor="start" dominant-baseline="alphabetic" stroke-opacity="1" stroke-linejoin="bevel" stroke-miterlimit="10" stroke-width="3">D</text><text fill="rgb(21,101,192)" stroke="none" font-family="geogebra-sans-serif, sans-serif" font-size="24px" font-style="normal" font-weight="normal" text-decoration="normal" x="311" y="105" text-anchor="start" dominant-baseline="alphabetic" fill-opacity="1">D</text><path fill="rgb(46,125,50)" stroke="none" paint-order="stroke fill markers" d=" M 276.55890515111207 368.3499334727238 C 276.55890515111207 371.11135722187777 274.320328900266 373.3499334727238 271.55890515111207 373.3499334727238 C 268.7974814019581 373.3499334727238 266.55890515111207 371.11135722187777 266.55890515111207 368.3499334727238 C 266.55890515111207 365.58850972356987 268.7974814019581 363.3499334727238 271.55890515111207 363.3499334727238 C 274.320328900266 363.3499334727238 276.55890515111207 365.58850972356987 276.55890515111207 368.3499334727238 Z" fill-opacity="1"/><path fill="none" stroke="rgb(0,0,0)" paint-order="fill stroke markers" d=" M 276.55890515111207 368.3499334727238 C 276.55890515111207 371.11135722187777 274.320328900266 373.3499334727238 271.55890515111207 373.3499334727238 C 268.7974814019581 373.3499334727238 266.55890515111207 371.11135722187777 266.55890515111207 368.3499334727238 C 266.55890515111207 365.58850972356987 268.7974814019581 363.3499334727238 271.55890515111207 363.3499334727238 C 274.320328900266 363.3499334727238 276.55890515111207 365.58850972356987 276.55890515111207 368.3499334727238 Z" stroke-opacity="1" stroke-linecap="round" stroke-linejoin="round" stroke-miterlimit="10"/><text fill="rgb(46,125,50)" stroke="none" font-family="geogebra-sans-serif, sans-serif" font-size="24px" font-style="normal" font-weight="normal" text-decoration="normal" x="234" y="370" text-anchor="start" dominant-baseline="alphabetic" fill-opacity="1">P</text><text fill="none" stroke="rgb(255,255,255)" font-family="geogebra-sans-serif, sans-serif" font-size="24px" font-style="normal" font-weight="normal" text-decoration="normal" x="234" y="370" text-anchor="start" dominant-baseline="alphabetic" stroke-opacity="1" stroke-linejoin="bevel" stroke-miterlimit="10" stroke-width="3">P</text><text fill="rgb(46,125,50)" stroke="none" font-family="geogebra-sans-serif, sans-serif" font-size="24px" font-style="normal" font-weight="normal" text-decoration="normal" x="234" y="370" text-anchor="start" dominant-baseline="alphabetic" fill-opacity="1">P</text><path fill="rgb(46,125,50)" stroke="none" paint-order="stroke fill markers" d=" M 683.4410948488882 224.6500665272762 C 683.4410948488882 227.4114902764302 681.2025185980422 229.6500665272762 678.4410948488882 229.6500665272762 C 675.6796710997342 229.6500665272762 673.4410948488882 227.4114902764302 673.4410948488882 224.6500665272762 C 673.4410948488882 221.88864277812223 675.6796710997342 219.6500665272762 678.4410948488882 219.6500665272762 C 681.2025185980422 219.6500665272762 683.4410948488882 221.88864277812223 683.4410948488882 224.6500665272762 Z" fill-opacity="1"/><path fill="none" stroke="rgb(0,0,0)" paint-order="fill stroke markers" d=" M 683.4410948488882 224.6500665272762 C 683.4410948488882 227.4114902764302 681.2025185980422 229.6500665272762 678.4410948488882 229.6500665272762 C 675.6796710997342 229.6500665272762 673.4410948488882 227.4114902764302 673.4410948488882 224.6500665272762 C 673.4410948488882 221.88864277812223 675.6796710997342 219.6500665272762 678.4410948488882 219.6500665272762 C 681.2025185980422 219.6500665272762 683.4410948488882 221.88864277812223 683.4410948488882 224.6500665272762 Z" stroke-opacity="1" stroke-linecap="round" stroke-linejoin="round" stroke-miterlimit="10"/><text fill="rgb(46,125,50)" stroke="none" font-family="geogebra-sans-serif, sans-serif" font-size="24px" font-style="normal" font-weight="normal" text-decoration="normal" x="683" y="250" text-anchor="start" dominant-baseline="alphabetic" fill-opacity="1">Q</text><text fill="none" stroke="rgb(255,255,255)" font-family="geogebra-sans-serif, sans-serif" font-size="24px" font-style="normal" font-weight="normal" text-decoration="normal" x="683" y="250" text-anchor="start" dominant-baseline="alphabetic" stroke-opacity="1" stroke-linejoin="bevel" stroke-miterlimit="10" stroke-width="3">Q</text><text fill="rgb(46,125,50)" stroke="none" font-family="geogebra-sans-serif, sans-serif" font-size="24px" font-style="normal" font-weight="normal" text-decoration="normal" x="683" y="250" text-anchor="start" dominant-baseline="alphabetic" fill-opacity="1">Q</text></g></g></svg>