<?xml version="1.0" encoding="UTF-8"?>
<svg xmlns="http://www.w3.org/2000/svg" xmlns:xlink="http://www.w3.org/1999/xlink" width="1366pt" height="565pt" viewBox="0 0 1366 565" version="1.1">
<g id="surface1">
<path style=" stroke:none;fill-rule:evenodd;fill:rgb(0%,0%,100%);fill-opacity:0.75686;" d="M 311 341 L 328 330 L 316 314 L 300 325 Z M 311 341 "/>
<path style=" stroke:none;fill-rule:evenodd;fill:rgb(100%,100%,100%);fill-opacity:0.29804;" d="M 311 341 L 326 331 L 316 316 L 301 327 Z M 311 341 "/>
<path style=" stroke:none;fill-rule:evenodd;fill:rgb(0%,0%,100%);fill-opacity:0.68235;" d="M 488 220 L 466 225 L 472 246 L 493 241 Z M 488 220 "/>
<path style=" stroke:none;fill-rule:evenodd;fill:rgb(100%,100%,100%);fill-opacity:0.29804;" d="M 488 220 L 468 225 L 473 244 L 492 239 Z M 488 220 "/>
<path style="fill:none;stroke-width:3;stroke-linecap:round;stroke-linejoin:round;stroke:rgb(0%,0%,100%);stroke-opacity:1;stroke-miterlimit:10;" d="M 136.03125 100.910156 L 488.648438 344.210938 " transform="matrix(1,0,0,-1,0,565)"/>
<path style="fill:none;stroke-width:3;stroke-linecap:round;stroke-linejoin:round;stroke:rgb(0%,0%,100%);stroke-opacity:1;stroke-miterlimit:10;" d="M 548.351562 100.039062 L 136.03125 100.910156 " transform="matrix(1,0,0,-1,0,565)"/>
<path style="fill:none;stroke-width:3;stroke-linecap:round;stroke-linejoin:round;stroke:rgb(0%,0%,100%);stroke-opacity:1;stroke-miterlimit:10;" d="M 548.351562 100.039062 L 488.648438 344.210938 " transform="matrix(1,0,0,-1,0,565)"/>
<path style="fill:none;stroke-width:3;stroke-linecap:round;stroke-linejoin:round;stroke:rgb(0%,0%,100%);stroke-opacity:1;stroke-dasharray:0,6.04;stroke-miterlimit:10;" d="M 75.71875 565.5 L 466.941406 -1.5 " transform="matrix(1,0,0,-1,0,565)"/>
<path style="fill:none;stroke-width:3;stroke-linecap:round;stroke-linejoin:round;stroke:rgb(0%,0%,100%);stroke-opacity:1;stroke-dasharray:0,6;stroke-miterlimit:10;" d="M 495.210938 289.769531 C 495.210938 163.160156 392.570312 60.519531 265.96875 60.519531 C 139.359375 60.519531 36.730469 163.160156 36.730469 289.769531 C 36.730469 416.371094 139.359375 519.011719 265.96875 519.011719 C 392.570312 519.011719 495.210938 416.371094 495.210938 289.769531 Z M 495.210938 289.769531 " transform="matrix(1,0,0,-1,0,565)"/>
<path style="fill:none;stroke-width:3;stroke-linecap:round;stroke-linejoin:round;stroke:rgb(0%,0%,100%);stroke-opacity:1;stroke-miterlimit:10;" d="M 396.648438 100.359375 L 488.648438 344.210938 " transform="matrix(1,0,0,-1,0,565)"/>
<path style="fill:none;stroke-width:3;stroke-linecap:round;stroke-linejoin:round;stroke:rgb(0%,0%,100%);stroke-opacity:1;stroke-dasharray:0,6.02;stroke-miterlimit:10;" d="M 676.578125 390.171875 L -148.230469 188.488281 " transform="matrix(1,0,0,-1,0,565)"/>
<path style="fill-rule:nonzero;fill:rgb(100%,0%,0%);fill-opacity:1;stroke-width:1;stroke-linecap:square;stroke-linejoin:miter;stroke:rgb(0%,0%,0%);stroke-opacity:1;stroke-miterlimit:10;" d="M 493.648438 344.210938 C 493.648438 341.449219 491.410156 339.210938 488.648438 339.210938 C 485.890625 339.210938 483.648438 341.449219 483.648438 344.210938 C 483.648438 346.96875 485.890625 349.210938 488.648438 349.210938 C 491.410156 349.210938 493.648438 346.96875 493.648438 344.210938 Z M 493.648438 344.210938 " transform="matrix(1,0,0,-1,0,565)"/>
<path style="fill-rule:nonzero;fill:rgb(100%,0%,0%);fill-opacity:1;stroke-width:1;stroke-linecap:square;stroke-linejoin:miter;stroke:rgb(0%,0%,0%);stroke-opacity:1;stroke-miterlimit:10;" d="M 141.03125 100.910156 C 141.03125 98.148438 138.789062 95.910156 136.03125 95.910156 C 133.261719 95.910156 131.03125 98.148438 131.03125 100.910156 C 131.03125 103.671875 133.261719 105.910156 136.03125 105.910156 C 138.789062 105.910156 141.03125 103.671875 141.03125 100.910156 Z M 141.03125 100.910156 " transform="matrix(1,0,0,-1,0,565)"/>
<path style="fill-rule:nonzero;fill:rgb(100%,0%,0%);fill-opacity:1;stroke-width:1;stroke-linecap:square;stroke-linejoin:miter;stroke:rgb(0%,0%,0%);stroke-opacity:1;stroke-miterlimit:10;" d="M 553.351562 100.039062 C 553.351562 97.28125 551.109375 95.039062 548.351562 95.039062 C 545.589844 95.039062 543.351562 97.28125 543.351562 100.039062 C 543.351562 102.808594 545.589844 105.039062 548.351562 105.039062 C 551.109375 105.039062 553.351562 102.808594 553.351562 100.039062 Z M 553.351562 100.039062 " transform="matrix(1,0,0,-1,0,565)"/>
<path style="fill-rule:nonzero;fill:rgb(69.802856%,0%,0%);fill-opacity:1;stroke-width:1;stroke-linecap:square;stroke-linejoin:miter;stroke:rgb(0%,0%,0%);stroke-opacity:1;stroke-miterlimit:10;" d="M 317.339844 222.558594 C 317.339844 219.800781 315.101562 217.558594 312.339844 217.558594 C 309.578125 217.558594 307.339844 219.800781 307.339844 222.558594 C 307.339844 225.320312 309.578125 227.558594 312.339844 227.558594 C 315.101562 227.558594 317.339844 225.320312 317.339844 222.558594 Z M 317.339844 222.558594 " transform="matrix(1,0,0,-1,0,565)"/>
<path style="fill-rule:nonzero;fill:rgb(69.802856%,0%,0%);fill-opacity:1;stroke-width:1;stroke-linecap:square;stroke-linejoin:miter;stroke:rgb(0%,0%,0%);stroke-opacity:1;stroke-miterlimit:10;" d="M 270.96875 289.769531 C 270.96875 287 268.730469 284.769531 265.96875 284.769531 C 263.210938 284.769531 260.96875 287 260.96875 289.769531 C 260.96875 292.53125 263.210938 294.769531 265.96875 294.769531 C 268.730469 294.769531 270.96875 292.53125 270.96875 289.769531 Z M 270.96875 289.769531 " transform="matrix(1,0,0,-1,0,565)"/>
<path style="fill-rule:nonzero;fill:rgb(69.802856%,0%,0%);fill-opacity:1;stroke-width:1;stroke-linecap:square;stroke-linejoin:miter;stroke:rgb(0%,0%,0%);stroke-opacity:1;stroke-miterlimit:10;" d="M 401.648438 100.359375 C 401.648438 97.601562 399.410156 95.359375 396.648438 95.359375 C 393.890625 95.359375 391.648438 97.601562 391.648438 100.359375 C 391.648438 103.121094 393.890625 105.359375 396.648438 105.359375 C 399.410156 105.359375 401.648438 103.121094 401.648438 100.359375 Z M 401.648438 100.359375 " transform="matrix(1,0,0,-1,0,565)"/>
<path style=" stroke:none;fill-rule:nonzero;fill:rgb(0%,0%,0%);fill-opacity:1;" d="M 503.25 183.050781 L 499.230469 193.921875 L 507.28125 193.921875 Z M 501.578125 180.121094 L 504.941406 180.121094 L 513.28125 202 L 510.199219 202 L 508.199219 196.390625 L 498.339844 196.390625 L 496.359375 202 L 493.230469 202 Z M 501.578125 180.121094 "/>
<path style=" stroke:none;fill-rule:nonzero;fill:rgb(0%,0%,0%);fill-opacity:1;" d="M 111.910156 487.558594 L 111.910156 495.558594 L 116.660156 495.558594 C 116.660156 495.558594 119.03125 495.558594 120.191406 494.578125 C 120.191406 494.578125 121.339844 493.589844 121.339844 491.550781 C 121.339844 491.550781 121.339844 489.5 120.191406 488.53125 C 120.191406 488.53125 119.03125 487.558594 116.660156 487.558594 Z M 111.910156 478.558594 L 111.910156 485.160156 L 116.28125 485.160156 C 116.28125 485.160156 118.449219 485.160156 119.519531 484.339844 C 119.519531 484.339844 120.578125 483.53125 120.578125 481.859375 C 120.578125 481.859375 120.578125 480.199219 119.519531 479.390625 C 119.519531 479.390625 118.449219 478.558594 116.28125 478.558594 Z M 108.941406 476.121094 L 116.5 476.121094 C 116.5 476.121094 119.890625 476.121094 121.71875 477.53125 C 121.71875 477.53125 123.550781 478.941406 123.550781 481.53125 C 123.550781 481.53125 123.550781 483.550781 122.609375 484.730469 C 122.609375 484.730469 121.671875 485.921875 119.859375 486.199219 C 119.859375 486.199219 122.050781 486.671875 123.25 488.171875 C 123.25 488.171875 124.449219 489.660156 124.449219 491.871094 C 124.449219 491.871094 124.449219 494.808594 122.449219 496.410156 C 122.449219 496.410156 120.46875 498 116.800781 498 L 108.941406 498 Z M 108.941406 476.121094 "/>
<path style=" stroke:none;fill-rule:nonzero;fill:rgb(0%,0%,0%);fill-opacity:1;" d="M 581.328125 469.808594 L 581.328125 472.941406 C 581.328125 472.941406 579.828125 471.550781 578.128906 470.859375 C 578.128906 470.859375 576.441406 470.171875 574.550781 470.171875 C 574.550781 470.171875 570.800781 470.171875 568.800781 472.46875 C 568.800781 472.46875 566.808594 474.75 566.808594 479.089844 C 566.808594 479.089844 566.808594 483.410156 568.800781 485.699219 C 568.800781 485.699219 570.800781 488 574.550781 488 C 574.550781 488 576.441406 488 578.128906 487.308594 C 578.128906 487.308594 579.828125 486.609375 581.328125 485.21875 L 581.328125 488.308594 C 581.328125 488.308594 579.769531 489.371094 578.03125 489.910156 C 578.03125 489.910156 576.300781 490.421875 574.359375 490.421875 C 574.359375 490.421875 569.390625 490.421875 566.53125 487.390625 C 566.53125 487.390625 563.691406 484.339844 563.691406 479.089844 C 563.691406 479.089844 563.691406 473.808594 566.53125 470.78125 C 566.53125 470.78125 569.390625 467.730469 574.359375 467.730469 C 574.359375 467.730469 576.328125 467.730469 578.058594 468.269531 C 578.058594 468.269531 579.800781 468.78125 581.328125 469.808594 Z M 581.328125 469.808594 "/>
<path style=" stroke:none;fill-rule:nonzero;fill:rgb(0%,0%,0%);fill-opacity:1;" d="M 227.828125 249.140625 C 227.828125 249.140625 224.589844 249.140625 222.699219 251.550781 C 222.699219 251.550781 220.808594 253.941406 220.808594 258.089844 C 220.808594 258.089844 220.808594 262.21875 222.699219 264.621094 C 222.699219 264.621094 224.589844 267.019531 227.828125 267.019531 C 227.828125 267.019531 231.050781 267.019531 232.921875 264.621094 C 232.921875 264.621094 234.808594 262.21875 234.808594 258.089844 C 234.808594 258.089844 234.808594 253.941406 232.921875 251.550781 C 232.921875 251.550781 231.050781 249.140625 227.828125 249.140625 Z M 227.828125 246.730469 C 227.828125 246.730469 232.421875 246.730469 235.171875 249.828125 C 235.171875 249.828125 237.921875 252.910156 237.921875 258.089844 C 237.921875 258.089844 237.921875 263.25 235.171875 266.339844 C 235.171875 266.339844 232.421875 269.421875 227.828125 269.421875 C 227.828125 269.421875 223.199219 269.421875 220.441406 266.339844 C 220.441406 266.339844 217.691406 263.269531 217.691406 258.089844 C 217.691406 258.089844 217.691406 252.910156 220.441406 249.828125 C 220.441406 249.828125 223.199219 246.730469 227.828125 246.730469 Z M 227.828125 246.730469 "/>
<path style=" stroke:none;fill-rule:nonzero;fill:rgb(0%,0%,0%);fill-opacity:1;" d="M 387.910156 486.558594 L 387.910156 503.558594 L 391.480469 503.558594 C 391.480469 503.558594 396 503.558594 398.089844 501.519531 C 398.089844 501.519531 400.199219 499.46875 400.199219 495.050781 C 400.199219 495.050781 400.199219 490.640625 398.089844 488.609375 C 398.089844 488.609375 396 486.558594 391.480469 486.558594 Z M 384.941406 484.121094 L 391.03125 484.121094 C 391.03125 484.121094 397.378906 484.121094 400.339844 486.78125 C 400.339844 486.78125 403.328125 489.421875 403.328125 495.050781 C 403.328125 495.050781 403.328125 500.699219 400.339844 503.359375 C 400.339844 503.359375 397.359375 506 391.03125 506 L 384.941406 506 Z M 384.941406 484.121094 "/>
</g>
</svg>
