<svg version="1.1" xmlns="http://www.w3.org/2000/svg" xmlns:xlink="http://www.w3.org/1999/xlink" width="1310" height="605"><defs><clipPath id="cfVGubFVORqT"><path fill="none" stroke="none" d=" M 0 0 L 1310 0 L 1310 605 L 0 605 L 0 0 Z"/></clipPath></defs><g transform="scale(1,1)" clip-path="url(#cfVGubFVORqT)"><g><rect fill="rgb(255,255,255)" stroke="none" x="0" y="0" width="1310" height="605" fill-opacity="1"/><path fill="rgb(0,0,0)" stroke="none" paint-order="stroke fill markers" fill-rule="evenodd" d=" M 516.7978042947507 119.774865941902 L 499.4614947175077 131.99993732173184 L 511.6865660973372 149.33624689897675 L 529.0228756745805 137.11117551914492 L 516.7978042947507 119.774865941902" fill-opacity="0.09803921568627451"/><path fill="none" stroke="rgb(0,0,0)" paint-order="fill stroke markers" d=" M 516.7978042947507 119.774865941902 L 499.4614947175077 131.99993732173184 L 511.6865660973372 149.33624689897675 L 529.0228756745805 137.11117551914492 L 516.7978042947507 119.774865941902" stroke-opacity="0.6" stroke-linecap="round" stroke-linejoin="round" stroke-miterlimit="10" stroke-width="2.5"/><path fill="none" stroke="rgb(211,47,47)" paint-order="fill stroke markers" d=" M 619.1428051750916 47.60408844417512 L 62.1323002634183 440.3920201271069" stroke-opacity="0.6980392156862745" stroke-linecap="round" stroke-linejoin="round" stroke-miterlimit="10" stroke-width="6.5"/><path fill="none" stroke="rgb(211,47,47)" paint-order="fill stroke markers" d=" M 619.1428051750916 47.60408844417512 L 1174.8140784892898 442.2843360764706" stroke-opacity="0.6980392156862745" stroke-linecap="round" stroke-linejoin="round" stroke-miterlimit="10" stroke-width="6.5"/><path fill="none" stroke="rgb(0,0,0)" paint-order="fill stroke markers" d=" M 743.7052738014552 441.55115783720555 L 516.7978042947507 119.774865941902" stroke-opacity="0.6980392156862745" stroke-linecap="round" stroke-linejoin="round" stroke-miterlimit="10" stroke-width="2.5"/><path fill="none" stroke="rgb(211,47,47)" paint-order="fill stroke markers" d=" M 62.1323002634183 440.3920201271069 L 743.7052738014552 441.55115783720555" stroke-opacity="0.6980392156862745" stroke-linecap="round" stroke-linejoin="round" stroke-miterlimit="10" stroke-width="6.5"/><path fill="none" stroke="rgb(0,0,0)" paint-order="fill stroke markers" d=" M 743.7052738014552 441.55115783720555 L 1174.8140784892898 442.2843360764706" stroke-opacity="0.6980392156862745" stroke-linecap="round" stroke-linejoin="round" stroke-miterlimit="10" stroke-width="2.5"/><path fill="rgb(21,101,192)" stroke="none" paint-order="stroke fill markers" d=" M 67.1323002634183 440.3920201271069 C 67.1323002634183 443.15344387626084 64.89372401257226 445.3920201271069 62.1323002634183 445.3920201271069 C 59.37087651426433 445.3920201271069 57.1323002634183 443.15344387626084 57.1323002634183 440.3920201271069 C 57.1323002634183 437.63059637795294 59.37087651426433 435.3920201271069 62.1323002634183 435.3920201271069 C 64.89372401257226 435.3920201271069 67.1323002634183 437.63059637795294 67.1323002634183 440.3920201271069 Z" fill-opacity="1"/><path fill="none" stroke="rgb(0,0,0)" paint-order="fill stroke markers" d=" M 67.1323002634183 440.3920201271069 C 67.1323002634183 443.15344387626084 64.89372401257226 445.3920201271069 62.1323002634183 445.3920201271069 C 59.37087651426433 445.3920201271069 57.1323002634183 443.15344387626084 57.1323002634183 440.3920201271069 C 57.1323002634183 437.63059637795294 59.37087651426433 435.3920201271069 62.1323002634183 435.3920201271069 C 64.89372401257226 435.3920201271069 67.1323002634183 437.63059637795294 67.1323002634183 440.3920201271069 Z" stroke-opacity="1" stroke-linecap="round" stroke-linejoin="round" stroke-miterlimit="10"/><text fill="rgb(21,101,192)" stroke="none" font-family="geogebra-sans-serif, sans-serif" font-size="24px" font-style="normal" font-weight="normal" text-decoration="normal" x="32" y="466" text-anchor="start" dominant-baseline="alphabetic" fill-opacity="1">B</text><text fill="none" stroke="rgb(255,255,255)" font-family="geogebra-sans-serif, sans-serif" font-size="24px" font-style="normal" font-weight="normal" text-decoration="normal" x="32" y="466" text-anchor="start" dominant-baseline="alphabetic" stroke-opacity="1" stroke-linejoin="bevel" stroke-miterlimit="10" stroke-width="3">B</text><text fill="rgb(21,101,192)" stroke="none" font-family="geogebra-sans-serif, sans-serif" font-size="24px" font-style="normal" font-weight="normal" text-decoration="normal" x="32" y="466" text-anchor="start" dominant-baseline="alphabetic" fill-opacity="1">B</text><path fill="rgb(21,101,192)" stroke="none" paint-order="stroke fill markers" d=" M 1179.8140784892898 442.2843360764706 C 1179.8140784892898 445.04575982562454 1177.5755022384437 447.2843360764706 1174.8140784892898 447.2843360764706 C 1172.052654740136 447.2843360764706 1169.8140784892898 445.04575982562454 1169.8140784892898 442.2843360764706 C 1169.8140784892898 439.52291232731665 1172.052654740136 437.2843360764706 1174.8140784892898 437.2843360764706 C 1177.5755022384437 437.2843360764706 1179.8140784892898 439.52291232731665 1179.8140784892898 442.2843360764706 Z" fill-opacity="1"/><path fill="none" stroke="rgb(0,0,0)" paint-order="fill stroke markers" d=" M 1179.8140784892898 442.2843360764706 C 1179.8140784892898 445.04575982562454 1177.5755022384437 447.2843360764706 1174.8140784892898 447.2843360764706 C 1172.052654740136 447.2843360764706 1169.8140784892898 445.04575982562454 1169.8140784892898 442.2843360764706 C 1169.8140784892898 439.52291232731665 1172.052654740136 437.2843360764706 1174.8140784892898 437.2843360764706 C 1177.5755022384437 437.2843360764706 1179.8140784892898 439.52291232731665 1179.8140784892898 442.2843360764706 Z" stroke-opacity="1" stroke-linecap="round" stroke-linejoin="round" stroke-miterlimit="10"/><text fill="rgb(21,101,192)" stroke="none" font-family="geogebra-sans-serif, sans-serif" font-size="24px" font-style="normal" font-weight="normal" text-decoration="normal" x="1189" y="457" text-anchor="start" dominant-baseline="alphabetic" fill-opacity="1">C</text><text fill="none" stroke="rgb(255,255,255)" font-family="geogebra-sans-serif, sans-serif" font-size="24px" font-style="normal" font-weight="normal" text-decoration="normal" x="1189" y="457" text-anchor="start" dominant-baseline="alphabetic" stroke-opacity="1" stroke-linejoin="bevel" stroke-miterlimit="10" stroke-width="3">C</text><text fill="rgb(21,101,192)" stroke="none" font-family="geogebra-sans-serif, sans-serif" font-size="24px" font-style="normal" font-weight="normal" text-decoration="normal" x="1189" y="457" text-anchor="start" dominant-baseline="alphabetic" fill-opacity="1">C</text><path fill="rgb(21,101,192)" stroke="none" paint-order="stroke fill markers" d=" M 624.1428051750916 47.60408844417512 C 624.1428051750916 50.36551219332908 621.9042289242456 52.60408844417512 619.1428051750916 52.60408844417512 C 616.3813814259375 52.60408844417512 614.1428051750916 50.36551219332908 614.1428051750916 47.60408844417512 C 614.1428051750916 44.84266469502115 616.3813814259375 42.60408844417512 619.1428051750916 42.60408844417512 C 621.9042289242456 42.60408844417512 624.1428051750916 44.84266469502115 624.1428051750916 47.60408844417512 Z" fill-opacity="1"/><path fill="none" stroke="rgb(0,0,0)" paint-order="fill stroke markers" d=" M 624.1428051750916 47.60408844417512 C 624.1428051750916 50.36551219332908 621.9042289242456 52.60408844417512 619.1428051750916 52.60408844417512 C 616.3813814259375 52.60408844417512 614.1428051750916 50.36551219332908 614.1428051750916 47.60408844417512 C 614.1428051750916 44.84266469502115 616.3813814259375 42.60408844417512 619.1428051750916 42.60408844417512 C 621.9042289242456 42.60408844417512 624.1428051750916 44.84266469502115 624.1428051750916 47.60408844417512 Z" stroke-opacity="1" stroke-linecap="round" stroke-linejoin="round" stroke-miterlimit="10"/><text fill="rgb(21,101,192)" stroke="none" font-family="geogebra-sans-serif, sans-serif" font-size="24px" font-style="normal" font-weight="normal" text-decoration="normal" x="623" y="38" text-anchor="start" dominant-baseline="alphabetic" fill-opacity="1">A</text><text fill="none" stroke="rgb(255,255,255)" font-family="geogebra-sans-serif, sans-serif" font-size="24px" font-style="normal" font-weight="normal" text-decoration="normal" x="623" y="38" text-anchor="start" dominant-baseline="alphabetic" stroke-opacity="1" stroke-linejoin="bevel" stroke-miterlimit="10" stroke-width="3">A</text><text fill="rgb(21,101,192)" stroke="none" font-family="geogebra-sans-serif, sans-serif" font-size="24px" font-style="normal" font-weight="normal" text-decoration="normal" x="623" y="38" text-anchor="start" dominant-baseline="alphabetic" fill-opacity="1">A</text><path fill="rgb(46,125,50)" stroke="none" paint-order="stroke fill markers" d=" M 748.7052738014552 441.55115783720555 C 748.7052738014552 444.3125815863595 746.4666975506092 446.55115783720555 743.7052738014552 446.55115783720555 C 740.9438500523012 446.55115783720555 738.7052738014552 444.3125815863595 738.7052738014552 441.55115783720555 C 738.7052738014552 438.7897340880516 740.9438500523012 436.55115783720555 743.7052738014552 436.55115783720555 C 746.4666975506092 436.55115783720555 748.7052738014552 438.7897340880516 748.7052738014552 441.55115783720555 Z" fill-opacity="1"/><path fill="none" stroke="rgb(0,0,0)" paint-order="fill stroke markers" d=" M 748.7052738014552 441.55115783720555 C 748.7052738014552 444.3125815863595 746.4666975506092 446.55115783720555 743.7052738014552 446.55115783720555 C 740.9438500523012 446.55115783720555 738.7052738014552 444.3125815863595 738.7052738014552 441.55115783720555 C 738.7052738014552 438.7897340880516 740.9438500523012 436.55115783720555 743.7052738014552 436.55115783720555 C 746.4666975506092 436.55115783720555 748.7052738014552 438.7897340880516 748.7052738014552 441.55115783720555 Z" stroke-opacity="1" stroke-linecap="round" stroke-linejoin="round" stroke-miterlimit="10"/><text fill="rgb(46,125,50)" stroke="none" font-family="geogebra-sans-serif, sans-serif" font-size="24px" font-style="normal" font-weight="normal" text-decoration="normal" x="738" y="473" text-anchor="start" dominant-baseline="alphabetic" fill-opacity="1">N</text><text fill="none" stroke="rgb(255,255,255)" font-family="geogebra-sans-serif, sans-serif" font-size="24px" font-style="normal" font-weight="normal" text-decoration="normal" x="738" y="473" text-anchor="start" dominant-baseline="alphabetic" stroke-opacity="1" stroke-linejoin="bevel" stroke-miterlimit="10" stroke-width="3">N</text><text fill="rgb(46,125,50)" stroke="none" font-family="geogebra-sans-serif, sans-serif" font-size="24px" font-style="normal" font-weight="normal" text-decoration="normal" x="738" y="473" text-anchor="start" dominant-baseline="alphabetic" fill-opacity="1">N</text><path fill="rgb(46,125,50)" stroke="none" paint-order="stroke fill markers" d=" M 521.7978042947507 119.774865941902 C 521.7978042947507 122.53628969105596 519.5592280439047 124.774865941902 516.7978042947507 124.774865941902 C 514.0363805455967 124.774865941902 511.7978042947507 122.53628969105596 511.7978042947507 119.774865941902 C 511.7978042947507 117.01344219274803 514.0363805455967 114.774865941902 516.7978042947507 114.774865941902 C 519.5592280439047 114.774865941902 521.7978042947507 117.01344219274803 521.7978042947507 119.774865941902 Z" fill-opacity="1"/><path fill="none" stroke="rgb(0,0,0)" paint-order="fill stroke markers" d=" M 521.7978042947507 119.774865941902 C 521.7978042947507 122.53628969105596 519.5592280439047 124.774865941902 516.7978042947507 124.774865941902 C 514.0363805455967 124.774865941902 511.7978042947507 122.53628969105596 511.7978042947507 119.774865941902 C 511.7978042947507 117.01344219274803 514.0363805455967 114.774865941902 516.7978042947507 114.774865941902 C 519.5592280439047 114.774865941902 521.7978042947507 117.01344219274803 521.7978042947507 119.774865941902 Z" stroke-opacity="1" stroke-linecap="round" stroke-linejoin="round" stroke-miterlimit="10"/><text fill="rgb(46,125,50)" stroke="none" font-family="geogebra-sans-serif, sans-serif" font-size="24px" font-style="normal" font-weight="normal" text-decoration="normal" x="487" y="105" text-anchor="start" dominant-baseline="alphabetic" fill-opacity="1">M</text><text fill="none" stroke="rgb(255,255,255)" font-family="geogebra-sans-serif, sans-serif" font-size="24px" font-style="normal" font-weight="normal" text-decoration="normal" x="487" y="105" text-anchor="start" dominant-baseline="alphabetic" stroke-opacity="1" stroke-linejoin="bevel" stroke-miterlimit="10" stroke-width="3">M</text><text fill="rgb(46,125,50)" stroke="none" font-family="geogebra-sans-serif, sans-serif" font-size="24px" font-style="normal" font-weight="normal" text-decoration="normal" x="487" y="105" text-anchor="start" dominant-baseline="alphabetic" fill-opacity="1">M</text></g></g></svg>