<svg version="1.1" xmlns="http://www.w3.org/2000/svg" xmlns:xlink="http://www.w3.org/1999/xlink" width="1310" height="704"><defs><clipPath id="iQRCFTGaXUtr"><path fill="none" stroke="none" d=" M 0 0 L 1310 0 L 1310 704 L 0 704 L 0 0 Z"/></clipPath></defs><g transform="scale(1,1)" clip-path="url(#iQRCFTGaXUtr)"><g><rect fill="rgb(255,255,255)" stroke="none" x="0" y="0" width="1310" height="704" fill-opacity="1"/><path fill="none" stroke="rgb(0,0,0)" paint-order="fill stroke markers" d=" M 712.2354695172373 364.740474477724 C 712.2354695172373 539.820894732238 570.3047459584295 681.7516182910458 395.2243257039154 681.7516182910458 C 220.14390544940122 681.7516182910458 78.21318189059343 539.820894732238 78.21318189059343 364.740474477724 C 78.21318189059343 189.6600542232099 220.14390544940122 47.7293306644022 395.2243257039154 47.7293306644022 C 570.3047459584295 47.7293306644022 712.2354695172373 189.6600542232099 712.2354695172373 364.740474477724 Z" stroke-opacity="0.6980392156862745" stroke-linecap="round" stroke-linejoin="round" stroke-miterlimit="10" stroke-width="2.5"/><path fill="rgb(0,0,0)" stroke="none" paint-order="stroke fill markers" fill-rule="evenodd" d=" M 606.6966531603491 215.61621671716372 L 589.3603435831062 227.84128809699354 L 601.5854149629356 245.17759767423846 L 618.921724540179 232.95252629440665 L 606.6966531603491 215.61621671716372" fill-opacity="0.09803921568627451"/><path fill="none" stroke="rgb(0,0,0)" paint-order="fill stroke markers" d=" M 606.6966531603491 215.61621671716372 L 589.3603435831062 227.84128809699354 L 601.5854149629356 245.17759767423846 L 618.921724540179 232.95252629440665 L 606.6966531603491 215.61621671716372" stroke-opacity="0.6" stroke-linecap="round" stroke-linejoin="round" stroke-miterlimit="10" stroke-width="2.5"/><path fill="rgb(0,0,0)" stroke="none" paint-order="stroke fill markers" fill-rule="evenodd" d=" M 653.9875299424901 365.18054795432016 L 654.0236067669085 343.96737519627476 L 632.8104340088618 343.9312983718549 L 632.7743571844447 365.1444711299017 L 653.9875299424901 365.18054795432016" fill-opacity="0.09803921568627451"/><path fill="none" stroke="rgb(0,0,0)" paint-order="fill stroke markers" d=" M 653.9875299424901 365.18054795432016 L 654.0236067669085 343.96737519627476 L 632.8104340088618 343.9312983718549 L 632.7743571844447 365.1444711299017 L 653.9875299424901 365.18054795432016" stroke-opacity="0.6" stroke-linecap="round" stroke-linejoin="round" stroke-miterlimit="10" stroke-width="2.5"/><path fill="none" stroke="rgb(0,0,0)" paint-order="fill stroke markers" d=" M 653.4028029832288 709 L 654.6170886975145 -5" stroke-opacity="0.6980392156862745" stroke-linecap="round" stroke-linejoin="round" stroke-miterlimit="10" stroke-width="2.5"/><path fill="none" stroke="rgb(0,0,0)" paint-order="fill stroke markers" d=" M 954.616834292832 709 L 451.12438531992586 -5" stroke-opacity="0.6980392156862745" stroke-linecap="round" stroke-linejoin="round" stroke-miterlimit="10" stroke-width="2.5"/><path fill="none" stroke="rgb(0,0,0)" paint-order="fill stroke markers" d=" M 395.2243257039154 364.740474477724 L 912.7507341810649 365.6206214309164" stroke-opacity="0.6980392156862745" stroke-linecap="round" stroke-linejoin="round" stroke-miterlimit="10" stroke-width="2.5"/><path fill="none" stroke="rgb(0,0,0)" paint-order="fill stroke markers" d=" M 654.2989791512052 182.04841322984896 L 395.2243257039154 364.740474477724" stroke-opacity="0.6980392156862745" stroke-linecap="round" stroke-linejoin="round" stroke-miterlimit="10" stroke-width="2.5"/><path fill="none" stroke="rgb(0,0,0)" paint-order="fill stroke markers" d=" M 654.2989791512052 182.04841322984896 L 912.7507341810649 365.6206214309164" stroke-opacity="0.6980392156862745" stroke-linecap="round" stroke-linejoin="round" stroke-miterlimit="10" stroke-width="2.5"/><path fill="none" stroke="rgb(0,0,0)" paint-order="fill stroke markers" d=" M 395.2243257039154 364.740474477724 L 501.158295250254 65.95282513795291" stroke-opacity="0.6980392156862745" stroke-linejoin="round" stroke-miterlimit="10" stroke-width="2.5" stroke-dasharray="10.5,8"/><path fill="none" stroke="rgb(0,0,0)" paint-order="fill stroke markers" d=" M 395.2243257039154 364.740474477724 L 653.676080733775 548.3126826787915" stroke-opacity="0.6980392156862745" stroke-linejoin="round" stroke-miterlimit="10" stroke-width="2.5" stroke-dasharray="10.5,8"/><path fill="rgb(21,101,192)" stroke="none" paint-order="stroke fill markers" d=" M 400.2243257039154 364.740474477724 C 400.2243257039154 367.5018982268779 397.98574945306933 369.740474477724 395.2243257039154 369.740474477724 C 392.46290195476143 369.740474477724 390.2243257039154 367.5018982268779 390.2243257039154 364.740474477724 C 390.2243257039154 361.97905072857003 392.46290195476143 359.740474477724 395.2243257039154 359.740474477724 C 397.98574945306933 359.740474477724 400.2243257039154 361.97905072857003 400.2243257039154 364.740474477724 Z" fill-opacity="1"/><path fill="none" stroke="rgb(0,0,0)" paint-order="fill stroke markers" d=" M 400.2243257039154 364.740474477724 C 400.2243257039154 367.5018982268779 397.98574945306933 369.740474477724 395.2243257039154 369.740474477724 C 392.46290195476143 369.740474477724 390.2243257039154 367.5018982268779 390.2243257039154 364.740474477724 C 390.2243257039154 361.97905072857003 392.46290195476143 359.740474477724 395.2243257039154 359.740474477724 C 397.98574945306933 359.740474477724 400.2243257039154 361.97905072857003 400.2243257039154 364.740474477724 Z" stroke-opacity="1" stroke-linecap="round" stroke-linejoin="round" stroke-miterlimit="10"/><text fill="rgb(21,101,192)" stroke="none" font-family="geogebra-sans-serif, sans-serif" font-size="24px" font-style="normal" font-weight="normal" text-decoration="normal" x="365" y="391" text-anchor="start" dominant-baseline="alphabetic" fill-opacity="1">B</text><text fill="none" stroke="rgb(255,255,255)" font-family="geogebra-sans-serif, sans-serif" font-size="24px" font-style="normal" font-weight="normal" text-decoration="normal" x="365" y="391" text-anchor="start" dominant-baseline="alphabetic" stroke-opacity="1" stroke-linejoin="bevel" stroke-miterlimit="10" stroke-width="3">B</text><text fill="rgb(21,101,192)" stroke="none" font-family="geogebra-sans-serif, sans-serif" font-size="24px" font-style="normal" font-weight="normal" text-decoration="normal" x="365" y="391" text-anchor="start" dominant-baseline="alphabetic" fill-opacity="1">B</text><path fill="rgb(21,101,192)" stroke="none" paint-order="stroke fill markers" d=" M 917.7507341810649 365.6206214309164 C 917.7507341810649 368.38204518007035 915.5121579302189 370.6206214309164 912.7507341810649 370.6206214309164 C 909.9893104319109 370.6206214309164 907.7507341810649 368.38204518007035 907.7507341810649 365.6206214309164 C 907.7507341810649 362.85919768176245 909.9893104319109 360.6206214309164 912.7507341810649 360.6206214309164 C 915.5121579302189 360.6206214309164 917.7507341810649 362.85919768176245 917.7507341810649 365.6206214309164 Z" fill-opacity="1"/><path fill="none" stroke="rgb(0,0,0)" paint-order="fill stroke markers" d=" M 917.7507341810649 365.6206214309164 C 917.7507341810649 368.38204518007035 915.5121579302189 370.6206214309164 912.7507341810649 370.6206214309164 C 909.9893104319109 370.6206214309164 907.7507341810649 368.38204518007035 907.7507341810649 365.6206214309164 C 907.7507341810649 362.85919768176245 909.9893104319109 360.6206214309164 912.7507341810649 360.6206214309164 C 915.5121579302189 360.6206214309164 917.7507341810649 362.85919768176245 917.7507341810649 365.6206214309164 Z" stroke-opacity="1" stroke-linecap="round" stroke-linejoin="round" stroke-miterlimit="10"/><text fill="rgb(21,101,192)" stroke="none" font-family="geogebra-sans-serif, sans-serif" font-size="24px" font-style="normal" font-weight="normal" text-decoration="normal" x="927" y="381" text-anchor="start" dominant-baseline="alphabetic" fill-opacity="1">C</text><text fill="none" stroke="rgb(255,255,255)" font-family="geogebra-sans-serif, sans-serif" font-size="24px" font-style="normal" font-weight="normal" text-decoration="normal" x="927" y="381" text-anchor="start" dominant-baseline="alphabetic" stroke-opacity="1" stroke-linejoin="bevel" stroke-miterlimit="10" stroke-width="3">C</text><text fill="rgb(21,101,192)" stroke="none" font-family="geogebra-sans-serif, sans-serif" font-size="24px" font-style="normal" font-weight="normal" text-decoration="normal" x="927" y="381" text-anchor="start" dominant-baseline="alphabetic" fill-opacity="1">C</text><path fill="rgb(21,101,192)" stroke="none" paint-order="stroke fill markers" d=" M 659.2989791512052 182.04841322984896 C 659.2989791512052 184.80983697900294 657.0604029003592 187.04841322984896 654.2989791512052 187.04841322984896 C 651.5375554020512 187.04841322984896 649.2989791512052 184.80983697900294 649.2989791512052 182.04841322984896 C 649.2989791512052 179.28698948069498 651.5375554020512 177.04841322984896 654.2989791512052 177.04841322984896 C 657.0604029003592 177.04841322984896 659.2989791512052 179.28698948069498 659.2989791512052 182.04841322984896 Z" fill-opacity="1"/><path fill="none" stroke="rgb(0,0,0)" paint-order="fill stroke markers" d=" M 659.2989791512052 182.04841322984896 C 659.2989791512052 184.80983697900294 657.0604029003592 187.04841322984896 654.2989791512052 187.04841322984896 C 651.5375554020512 187.04841322984896 649.2989791512052 184.80983697900294 649.2989791512052 182.04841322984896 C 649.2989791512052 179.28698948069498 651.5375554020512 177.04841322984896 654.2989791512052 177.04841322984896 C 657.0604029003592 177.04841322984896 659.2989791512052 179.28698948069498 659.2989791512052 182.04841322984896 Z" stroke-opacity="1" stroke-linecap="round" stroke-linejoin="round" stroke-miterlimit="10"/><text fill="rgb(21,101,192)" stroke="none" font-family="geogebra-sans-serif, sans-serif" font-size="24px" font-style="normal" font-weight="normal" text-decoration="normal" x="658" y="172" text-anchor="start" dominant-baseline="alphabetic" fill-opacity="1">A</text><text fill="none" stroke="rgb(255,255,255)" font-family="geogebra-sans-serif, sans-serif" font-size="24px" font-style="normal" font-weight="normal" text-decoration="normal" x="658" y="172" text-anchor="start" dominant-baseline="alphabetic" stroke-opacity="1" stroke-linejoin="bevel" stroke-miterlimit="10" stroke-width="3">A</text><text fill="rgb(21,101,192)" stroke="none" font-family="geogebra-sans-serif, sans-serif" font-size="24px" font-style="normal" font-weight="normal" text-decoration="normal" x="658" y="172" text-anchor="start" dominant-baseline="alphabetic" fill-opacity="1">A</text><path fill="rgb(46,125,50)" stroke="none" paint-order="stroke fill markers" d=" M 717.2350110704441 365.27960829637453 C 717.2350110704441 368.0410320455285 714.9964348195981 370.27960829637453 712.2350110704441 370.27960829637453 C 709.4735873212901 370.27960829637453 707.2350110704441 368.0410320455285 707.2350110704441 365.27960829637453 C 707.2350110704441 362.5181845472206 709.4735873212901 360.27960829637453 712.2350110704441 360.27960829637453 C 714.9964348195981 360.27960829637453 717.2350110704441 362.5181845472206 717.2350110704441 365.27960829637453 Z" fill-opacity="1"/><path fill="none" stroke="rgb(0,0,0)" paint-order="fill stroke markers" d=" M 717.2350110704441 365.27960829637453 C 717.2350110704441 368.0410320455285 714.9964348195981 370.27960829637453 712.2350110704441 370.27960829637453 C 709.4735873212901 370.27960829637453 707.2350110704441 368.0410320455285 707.2350110704441 365.27960829637453 C 707.2350110704441 362.5181845472206 709.4735873212901 360.27960829637453 712.2350110704441 360.27960829637453 C 714.9964348195981 360.27960829637453 717.2350110704441 362.5181845472206 717.2350110704441 365.27960829637453 Z" stroke-opacity="1" stroke-linecap="round" stroke-linejoin="round" stroke-miterlimit="10"/><text fill="rgb(46,125,50)" stroke="none" font-family="geogebra-sans-serif, sans-serif" font-size="24px" font-style="normal" font-weight="normal" text-decoration="normal" x="686" y="392" text-anchor="start" dominant-baseline="alphabetic" fill-opacity="1">N</text><text fill="none" stroke="rgb(255,255,255)" font-family="geogebra-sans-serif, sans-serif" font-size="24px" font-style="normal" font-weight="normal" text-decoration="normal" x="686" y="392" text-anchor="start" dominant-baseline="alphabetic" stroke-opacity="1" stroke-linejoin="bevel" stroke-miterlimit="10" stroke-width="3">N</text><text fill="rgb(46,125,50)" stroke="none" font-family="geogebra-sans-serif, sans-serif" font-size="24px" font-style="normal" font-weight="normal" text-decoration="normal" x="686" y="392" text-anchor="start" dominant-baseline="alphabetic" fill-opacity="1">N</text><path fill="rgb(46,125,50)" stroke="none" paint-order="stroke fill markers" d=" M 611.6966531603491 215.61621671716372 C 611.6966531603491 218.3776404663177 609.4580769095031 220.61621671716372 606.6966531603491 220.61621671716372 C 603.9352294111951 220.61621671716372 601.6966531603491 218.3776404663177 601.6966531603491 215.61621671716372 C 601.6966531603491 212.85479296800975 603.9352294111951 210.61621671716372 606.6966531603491 210.61621671716372 C 609.4580769095031 210.61621671716372 611.6966531603491 212.85479296800975 611.6966531603491 215.61621671716372 Z" fill-opacity="1"/><path fill="none" stroke="rgb(0,0,0)" paint-order="fill stroke markers" d=" M 611.6966531603491 215.61621671716372 C 611.6966531603491 218.3776404663177 609.4580769095031 220.61621671716372 606.6966531603491 220.61621671716372 C 603.9352294111951 220.61621671716372 601.6966531603491 218.3776404663177 601.6966531603491 215.61621671716372 C 601.6966531603491 212.85479296800975 603.9352294111951 210.61621671716372 606.6966531603491 210.61621671716372 C 609.4580769095031 210.61621671716372 611.6966531603491 212.85479296800975 611.6966531603491 215.61621671716372 Z" stroke-opacity="1" stroke-linecap="round" stroke-linejoin="round" stroke-miterlimit="10"/><text fill="rgb(46,125,50)" stroke="none" font-family="geogebra-sans-serif, sans-serif" font-size="24px" font-style="normal" font-weight="normal" text-decoration="normal" x="557" y="224" text-anchor="start" dominant-baseline="alphabetic" fill-opacity="1">M</text><text fill="none" stroke="rgb(255,255,255)" font-family="geogebra-sans-serif, sans-serif" font-size="24px" font-style="normal" font-weight="normal" text-decoration="normal" x="557" y="224" text-anchor="start" dominant-baseline="alphabetic" stroke-opacity="1" stroke-linejoin="bevel" stroke-miterlimit="10" stroke-width="3">M</text><text fill="rgb(46,125,50)" stroke="none" font-family="geogebra-sans-serif, sans-serif" font-size="24px" font-style="normal" font-weight="normal" text-decoration="normal" x="557" y="224" text-anchor="start" dominant-baseline="alphabetic" fill-opacity="1">M</text><path fill="rgb(211,47,47)" stroke="none" paint-order="stroke fill markers" d=" M 506.158295250254 65.95282513795291 C 506.158295250254 68.71424888710688 503.91971899940796 70.95282513795291 501.158295250254 70.95282513795291 C 498.39687150110007 70.95282513795291 496.158295250254 68.71424888710688 496.158295250254 65.95282513795291 C 496.158295250254 63.191401388798944 498.39687150110007 60.952825137952914 501.158295250254 60.952825137952914 C 503.91971899940796 60.952825137952914 506.158295250254 63.191401388798944 506.158295250254 65.95282513795291 Z" fill-opacity="1"/><path fill="none" stroke="rgb(0,0,0)" paint-order="fill stroke markers" d=" M 506.158295250254 65.95282513795291 C 506.158295250254 68.71424888710688 503.91971899940796 70.95282513795291 501.158295250254 70.95282513795291 C 498.39687150110007 70.95282513795291 496.158295250254 68.71424888710688 496.158295250254 65.95282513795291 C 496.158295250254 63.191401388798944 498.39687150110007 60.952825137952914 501.158295250254 60.952825137952914 C 503.91971899940796 60.952825137952914 506.158295250254 63.191401388798944 506.158295250254 65.95282513795291 Z" stroke-opacity="1" stroke-linecap="round" stroke-linejoin="round" stroke-miterlimit="10"/><g transform="scale(27,27)"><g transform="translate(18.88888888888889,1.9446949)"><path fill="rgb(211,47,47)" stroke="none" paint-order="stroke fill markers" d=" M 0.756 -0.578 L 0.616 -0.021 Q 0.611 -0.002 0.606 -0.001 L 0.605 0 L 0.6 0 Q 0.59 0 0.584 -0.012 Q 0.583 -0.015 0.581 -0.019 L 0.332 -0.608 L 0.323 -0.626 L 0.191 -0.098 Q 0.187 -0.083 0.187 -0.075 Q 0.187 -0.041 0.23 -0.033 Q 0.24 -0.031 0.253 -0.031 Q 0.273 -0.031 0.273 -0.02 Q 0.273 0 0.255 0 L 0.155 -0.003 L 0.152 -0.003 L 0.053 0 L 0.052000000000000005 0 Q 0.039 0 0.039 -0.011 Q 0.039 -0.031 0.056 -0.031 Q 0.135 -0.034 0.156 -0.081 Q 0.16 -0.091 0.164 -0.106 L 0.298 -0.643 Q 0.298 -0.652 0.23 -0.652 Q 0.20400000000000001 -0.652 0.202 -0.663 Q 0.202 -0.681 0.217 -0.683 L 0.231 -0.683 L 0.365 -0.683 Q 0.386 -0.683 0.391 -0.676 Q 0.393 -0.673 0.397 -0.664 L 0.618 -0.14200000000000002 L 0.73 -0.587 Q 0.733 -0.596 0.733 -0.608 Q 0.733 -0.651 0.665 -0.652 Q 0.647 -0.652 0.647 -0.663 Q 0.647 -0.683 0.665 -0.683 L 0.766 -0.68 L 0.767 -0.68 L 0.867 -0.683 L 0.868 -0.683 Q 0.881 -0.683 0.881 -0.672 Q 0.881 -0.652 0.864 -0.652 Q 0.786 -0.649 0.764 -0.603 L 0.764 -0.603 Q 0.76 -0.593 0.756 -0.578 Z"/></g><g transform="translate(19.80138838888889,1.2777785) scale(0.5,0.5)"><path fill="rgb(211,47,47)" stroke="none" paint-order="stroke fill markers" d=" M 0.255 -0.47900000000000004 L 0.076 -0.059000000000000004 Q 0.07 -0.045 0.063 -0.045 Q 0.045 -0.045 0.033 -0.056 Q 0.029 -0.059000000000000004 0.029 -0.063 Q 0.029 -0.065 0.032 -0.077 L 0.153 -0.513 Q 0.166 -0.554 0.197 -0.558 Q 0.202 -0.559 0.20600000000000002 -0.559 Q 0.24 -0.559 0.256 -0.53 Q 0.262 -0.519 0.262 -0.507 Q 0.262 -0.494 0.255 -0.47900000000000004 Z"/></g></g><path fill="rgb(211,47,47)" stroke="none" paint-order="stroke fill markers" d=" M 658.676080733775 548.3126826787915 C 658.676080733775 551.0741064279455 656.4375044829291 553.3126826787915 653.676080733775 553.3126826787915 C 650.914656984621 553.3126826787915 648.676080733775 551.0741064279455 648.676080733775 548.3126826787915 C 648.676080733775 545.5512589296375 650.914656984621 543.3126826787915 653.676080733775 543.3126826787915 C 656.4375044829291 543.3126826787915 658.676080733775 545.5512589296375 658.676080733775 548.3126826787915 Z" fill-opacity="1"/><path fill="none" stroke="rgb(0,0,0)" paint-order="fill stroke markers" d=" M 658.676080733775 548.3126826787915 C 658.676080733775 551.0741064279455 656.4375044829291 553.3126826787915 653.676080733775 553.3126826787915 C 650.914656984621 553.3126826787915 648.676080733775 551.0741064279455 648.676080733775 548.3126826787915 C 648.676080733775 545.5512589296375 650.914656984621 543.3126826787915 653.676080733775 543.3126826787915 C 656.4375044829291 543.3126826787915 658.676080733775 545.5512589296375 658.676080733775 548.3126826787915 Z" stroke-opacity="1" stroke-linecap="round" stroke-linejoin="round" stroke-miterlimit="10"/><g transform="scale(27,27)"><g transform="translate(24.48148148148148,21.01876897407407)"><path fill="rgb(211,47,47)" stroke="none" paint-order="stroke fill markers" d=" M 0.179 -0.115 L 0.527 -0.6990000000000001 Q 0.537 -0.715 0.553 -0.716 Q 0.5680000000000001 -0.716 0.5700000000000001 -0.706 Q 0.5710000000000001 -0.7030000000000001 0.5720000000000001 -0.6920000000000001 L 0.633 -0.067 Q 0.636 -0.042 0.645 -0.037 L 0.646 -0.037 L 0.646 -0.037 L 0.646 -0.037 L 0.646 -0.037 L 0.646 -0.036000000000000004 Q 0.658 -0.031 0.6980000000000001 -0.031 Q 0.72 -0.031 0.721 -0.02 Q 0.721 0 0.7030000000000001 0 L 0.591 -0.003 L 0.59 -0.003 L 0.466 0 L 0.465 0 Q 0.451 0 0.451 -0.011 Q 0.459 -0.03 0.47500000000000003 -0.031 Q 0.547 -0.031 0.547 -0.064 Q 0.547 -0.063 0.531 -0.231 L 0.28 -0.231 L 0.20400000000000001 -0.10300000000000001 Q 0.19 -0.078 0.19 -0.066 Q 0.19 -0.035 0.23700000000000002 -0.031 Q 0.253 -0.031 0.253 -0.019 Q 0.253 0 0.234 0 L 0.138 -0.003 L 0.134 -0.003 L 0.05 0 L 0.048 0 Q 0.035 0 0.035 -0.011 Q 0.035 -0.029 0.05 -0.03 L 0.05 -0.031 L 0.056 -0.031 Q 0.11900000000000001 -0.035 0.159 -0.085 Q 0.169 -0.098 0.179 -0.115 M 0.299 -0.262 L 0.528 -0.262 L 0.496 -0.592 L 0.299 -0.262 Z"/></g><g transform="translate(25.23148348148148,20.351852574074073) scale(0.5,0.5)"><path fill="rgb(211,47,47)" stroke="none" paint-order="stroke fill markers" d=" M 0.255 -0.47900000000000004 L 0.076 -0.059000000000000004 Q 0.07 -0.045 0.063 -0.045 Q 0.045 -0.045 0.033 -0.056 Q 0.029 -0.059000000000000004 0.029 -0.063 Q 0.029 -0.065 0.032 -0.077 L 0.153 -0.513 Q 0.166 -0.554 0.197 -0.558 Q 0.202 -0.559 0.20600000000000002 -0.559 Q 0.24 -0.559 0.256 -0.53 Q 0.262 -0.519 0.262 -0.507 Q 0.262 -0.494 0.255 -0.47900000000000004 Z"/></g></g><path fill="rgb(211,47,47)" stroke="none" paint-order="stroke fill markers" d=" M 658.9875299424901 365.18054795432016 C 658.9875299424901 367.9419717034741 656.7489536916441 370.18054795432016 653.9875299424901 370.18054795432016 C 651.2261061933361 370.18054795432016 648.9875299424901 367.9419717034741 648.9875299424901 365.18054795432016 C 648.9875299424901 362.4191242051662 651.2261061933361 360.18054795432016 653.9875299424901 360.18054795432016 C 656.7489536916441 360.18054795432016 658.9875299424901 362.4191242051662 658.9875299424901 365.18054795432016 Z" fill-opacity="1"/><path fill="none" stroke="rgb(0,0,0)" paint-order="fill stroke markers" d=" M 658.9875299424901 365.18054795432016 C 658.9875299424901 367.9419717034741 656.7489536916441 370.18054795432016 653.9875299424901 370.18054795432016 C 651.2261061933361 370.18054795432016 648.9875299424901 367.9419717034741 648.9875299424901 365.18054795432016 C 648.9875299424901 362.4191242051662 651.2261061933361 360.18054795432016 653.9875299424901 360.18054795432016 C 656.7489536916441 360.18054795432016 658.9875299424901 362.4191242051662 658.9875299424901 365.18054795432016 Z" stroke-opacity="1" stroke-linecap="round" stroke-linejoin="round" stroke-miterlimit="10"/><text fill="rgb(211,47,47)" stroke="none" font-family="geogebra-sans-serif, sans-serif" font-size="24px" font-style="normal" font-weight="normal" text-decoration="normal" x="623" y="390" text-anchor="start" dominant-baseline="alphabetic" fill-opacity="1">D</text><text fill="none" stroke="rgb(255,255,255)" font-family="geogebra-sans-serif, sans-serif" font-size="24px" font-style="normal" font-weight="normal" text-decoration="normal" x="623" y="390" text-anchor="start" dominant-baseline="alphabetic" stroke-opacity="1" stroke-linejoin="bevel" stroke-miterlimit="10" stroke-width="3">D</text><text fill="rgb(211,47,47)" stroke="none" font-family="geogebra-sans-serif, sans-serif" font-size="24px" font-style="normal" font-weight="normal" text-decoration="normal" x="623" y="390" text-anchor="start" dominant-baseline="alphabetic" fill-opacity="1">D</text></g></g></svg>