<svg version="1.1" xmlns="http://www.w3.org/2000/svg" xmlns:xlink="http://www.w3.org/1999/xlink" width="1310" height="704"><defs><clipPath id="QNczUGWvGVJF"><path fill="none" stroke="none" d=" M 0 0 L 1310 0 L 1310 704 L 0 704 L 0 0 Z"/></clipPath></defs><g transform="scale(1,1)" clip-path="url(#QNczUGWvGVJF)"><g><rect fill="rgb(255,255,255)" stroke="none" x="0" y="0" width="1310" height="704" fill-opacity="1"/><path fill="rgb(0,0,0)" stroke="none" paint-order="stroke fill markers" fill-rule="evenodd" d=" M 653.9875299424896 365.18054795432033 L 654.023606766908 343.96737519627493 L 632.8104340088612 343.93129837185506 L 632.7743571844442 365.1444711299019 L 653.9875299424896 365.18054795432033" fill-opacity="0.09803921568627451"/><path fill="none" stroke="rgb(0,0,0)" paint-order="fill stroke markers" d=" M 653.9875299424896 365.18054795432033 L 654.023606766908 343.96737519627493 L 632.8104340088612 343.93129837185506 L 632.7743571844442 365.1444711299019 L 653.9875299424896 365.18054795432033" stroke-opacity="0.6" stroke-linecap="round" stroke-linejoin="round" stroke-miterlimit="10" stroke-width="2.5"/><path fill="none" stroke="rgb(0,0,0)" paint-order="fill stroke markers" d=" M 653.4028029832282 709 L 654.617088697514 -5" stroke-opacity="0.6980392156862745" stroke-linecap="round" stroke-linejoin="round" stroke-miterlimit="10" stroke-width="2.5"/><path fill="none" stroke="rgb(0,0,0)" paint-order="fill stroke markers" d=" M 395.2243257039151 364.74047447772415 L 912.7507341810641 365.6206214309166" stroke-opacity="0.6980392156862745" stroke-linecap="round" stroke-linejoin="round" stroke-miterlimit="10" stroke-width="2.5"/><path fill="rgb(21,101,192)" stroke="none" paint-order="stroke fill markers" d=" M 400.2243257039151 364.74047447772415 C 400.2243257039151 367.5018982268781 397.98574945306905 369.74047447772415 395.2243257039151 369.74047447772415 C 392.46290195476115 369.74047447772415 390.2243257039151 367.5018982268781 390.2243257039151 364.74047447772415 C 390.2243257039151 361.9790507285702 392.46290195476115 359.74047447772415 395.2243257039151 359.74047447772415 C 397.98574945306905 359.74047447772415 400.2243257039151 361.9790507285702 400.2243257039151 364.74047447772415 Z" fill-opacity="1"/><path fill="none" stroke="rgb(0,0,0)" paint-order="fill stroke markers" d=" M 400.2243257039151 364.74047447772415 C 400.2243257039151 367.5018982268781 397.98574945306905 369.74047447772415 395.2243257039151 369.74047447772415 C 392.46290195476115 369.74047447772415 390.2243257039151 367.5018982268781 390.2243257039151 364.74047447772415 C 390.2243257039151 361.9790507285702 392.46290195476115 359.74047447772415 395.2243257039151 359.74047447772415 C 397.98574945306905 359.74047447772415 400.2243257039151 361.9790507285702 400.2243257039151 364.74047447772415 Z" stroke-opacity="1" stroke-linecap="round" stroke-linejoin="round" stroke-miterlimit="10"/><text fill="rgb(21,101,192)" stroke="none" font-family="geogebra-sans-serif, sans-serif" font-size="24px" font-style="normal" font-weight="normal" text-decoration="normal" x="365" y="391" text-anchor="start" dominant-baseline="alphabetic" fill-opacity="1">B</text><text fill="none" stroke="rgb(255,255,255)" font-family="geogebra-sans-serif, sans-serif" font-size="24px" font-style="normal" font-weight="normal" text-decoration="normal" x="365" y="391" text-anchor="start" dominant-baseline="alphabetic" stroke-opacity="1" stroke-linejoin="bevel" stroke-miterlimit="10" stroke-width="3">B</text><text fill="rgb(21,101,192)" stroke="none" font-family="geogebra-sans-serif, sans-serif" font-size="24px" font-style="normal" font-weight="normal" text-decoration="normal" x="365" y="391" text-anchor="start" dominant-baseline="alphabetic" fill-opacity="1">B</text><path fill="rgb(21,101,192)" stroke="none" paint-order="stroke fill markers" d=" M 917.7507341810641 365.6206214309166 C 917.7507341810641 368.3820451800705 915.5121579302181 370.6206214309166 912.7507341810641 370.6206214309166 C 909.9893104319101 370.6206214309166 907.7507341810641 368.3820451800705 907.7507341810641 365.6206214309166 C 907.7507341810641 362.8591976817626 909.9893104319101 360.6206214309166 912.7507341810641 360.6206214309166 C 915.5121579302181 360.6206214309166 917.7507341810641 362.8591976817626 917.7507341810641 365.6206214309166 Z" fill-opacity="1"/><path fill="none" stroke="rgb(0,0,0)" paint-order="fill stroke markers" d=" M 917.7507341810641 365.6206214309166 C 917.7507341810641 368.3820451800705 915.5121579302181 370.6206214309166 912.7507341810641 370.6206214309166 C 909.9893104319101 370.6206214309166 907.7507341810641 368.3820451800705 907.7507341810641 365.6206214309166 C 907.7507341810641 362.8591976817626 909.9893104319101 360.6206214309166 912.7507341810641 360.6206214309166 C 915.5121579302181 360.6206214309166 917.7507341810641 362.8591976817626 917.7507341810641 365.6206214309166 Z" stroke-opacity="1" stroke-linecap="round" stroke-linejoin="round" stroke-miterlimit="10"/><text fill="rgb(21,101,192)" stroke="none" font-family="geogebra-sans-serif, sans-serif" font-size="24px" font-style="normal" font-weight="normal" text-decoration="normal" x="927" y="381" text-anchor="start" dominant-baseline="alphabetic" fill-opacity="1">C</text><text fill="none" stroke="rgb(255,255,255)" font-family="geogebra-sans-serif, sans-serif" font-size="24px" font-style="normal" font-weight="normal" text-decoration="normal" x="927" y="381" text-anchor="start" dominant-baseline="alphabetic" stroke-opacity="1" stroke-linejoin="bevel" stroke-miterlimit="10" stroke-width="3">C</text><text fill="rgb(21,101,192)" stroke="none" font-family="geogebra-sans-serif, sans-serif" font-size="24px" font-style="normal" font-weight="normal" text-decoration="normal" x="927" y="381" text-anchor="start" dominant-baseline="alphabetic" fill-opacity="1">C</text><path fill="rgb(21,101,192)" stroke="none" paint-order="stroke fill markers" d=" M 659.2989791512047 182.048413229849 C 659.2989791512047 184.80983697900297 657.0604029003587 187.048413229849 654.2989791512047 187.048413229849 C 651.5375554020507 187.048413229849 649.2989791512047 184.80983697900297 649.2989791512047 182.048413229849 C 649.2989791512047 179.286989480695 651.5375554020507 177.048413229849 654.2989791512047 177.048413229849 C 657.0604029003587 177.048413229849 659.2989791512047 179.286989480695 659.2989791512047 182.048413229849 Z" fill-opacity="1"/><path fill="none" stroke="rgb(0,0,0)" paint-order="fill stroke markers" d=" M 659.2989791512047 182.048413229849 C 659.2989791512047 184.80983697900297 657.0604029003587 187.048413229849 654.2989791512047 187.048413229849 C 651.5375554020507 187.048413229849 649.2989791512047 184.80983697900297 649.2989791512047 182.048413229849 C 649.2989791512047 179.286989480695 651.5375554020507 177.048413229849 654.2989791512047 177.048413229849 C 657.0604029003587 177.048413229849 659.2989791512047 179.286989480695 659.2989791512047 182.048413229849 Z" stroke-opacity="1" stroke-linecap="round" stroke-linejoin="round" stroke-miterlimit="10"/><text fill="rgb(21,101,192)" stroke="none" font-family="geogebra-sans-serif, sans-serif" font-size="24px" font-style="normal" font-weight="normal" text-decoration="normal" x="658" y="172" text-anchor="start" dominant-baseline="alphabetic" fill-opacity="1">A</text><text fill="none" stroke="rgb(255,255,255)" font-family="geogebra-sans-serif, sans-serif" font-size="24px" font-style="normal" font-weight="normal" text-decoration="normal" x="658" y="172" text-anchor="start" dominant-baseline="alphabetic" stroke-opacity="1" stroke-linejoin="bevel" stroke-miterlimit="10" stroke-width="3">A</text><text fill="rgb(21,101,192)" stroke="none" font-family="geogebra-sans-serif, sans-serif" font-size="24px" font-style="normal" font-weight="normal" text-decoration="normal" x="658" y="172" text-anchor="start" dominant-baseline="alphabetic" fill-opacity="1">A</text><path fill="rgb(211,47,47)" stroke="none" paint-order="stroke fill markers" d=" M 658.9875299424896 365.18054795432033 C 658.9875299424896 367.9419717034743 656.7489536916436 370.18054795432033 653.9875299424896 370.18054795432033 C 651.2261061933356 370.18054795432033 648.9875299424896 367.9419717034743 648.9875299424896 365.18054795432033 C 648.9875299424896 362.4191242051664 651.2261061933356 360.18054795432033 653.9875299424896 360.18054795432033 C 656.7489536916436 360.18054795432033 658.9875299424896 362.4191242051664 658.9875299424896 365.18054795432033 Z" fill-opacity="1"/><path fill="none" stroke="rgb(0,0,0)" paint-order="fill stroke markers" d=" M 658.9875299424896 365.18054795432033 C 658.9875299424896 367.9419717034743 656.7489536916436 370.18054795432033 653.9875299424896 370.18054795432033 C 651.2261061933356 370.18054795432033 648.9875299424896 367.9419717034743 648.9875299424896 365.18054795432033 C 648.9875299424896 362.4191242051664 651.2261061933356 360.18054795432033 653.9875299424896 360.18054795432033 C 656.7489536916436 360.18054795432033 658.9875299424896 362.4191242051664 658.9875299424896 365.18054795432033 Z" stroke-opacity="1" stroke-linecap="round" stroke-linejoin="round" stroke-miterlimit="10"/><text fill="rgb(211,47,47)" stroke="none" font-family="geogebra-sans-serif, sans-serif" font-size="24px" font-style="normal" font-weight="normal" text-decoration="normal" x="623" y="390" text-anchor="start" dominant-baseline="alphabetic" fill-opacity="1">D</text><text fill="none" stroke="rgb(255,255,255)" font-family="geogebra-sans-serif, sans-serif" font-size="24px" font-style="normal" font-weight="normal" text-decoration="normal" x="623" y="390" text-anchor="start" dominant-baseline="alphabetic" stroke-opacity="1" stroke-linejoin="bevel" stroke-miterlimit="10" stroke-width="3">D</text><text fill="rgb(211,47,47)" stroke="none" font-family="geogebra-sans-serif, sans-serif" font-size="24px" font-style="normal" font-weight="normal" text-decoration="normal" x="623" y="390" text-anchor="start" dominant-baseline="alphabetic" fill-opacity="1">D</text></g></g></svg>