<svg version="1.1" xmlns="http://www.w3.org/2000/svg" xmlns:xlink="http://www.w3.org/1999/xlink" width="1310" height="704"><defs><clipPath id="sQBphvxJJGPZ"><path fill="none" stroke="none" d=" M 0 0 L 1310 0 L 1310 704 L 0 704 L 0 0 Z"/></clipPath></defs><g transform="scale(1,1)" clip-path="url(#sQBphvxJJGPZ)"><g><rect fill="rgb(255,255,255)" stroke="none" x="0" y="0" width="1310" height="704" fill-opacity="1"/><path fill="none" stroke="rgb(0,0,0)" paint-order="fill stroke markers" d=" M 712.2354695172367 364.74047447772415 C 712.2354695172367 539.8208947322382 570.304745958429 681.7516182910462 395.224325703915 681.7516182910462 C 220.143905449401 681.7516182910462 78.21318189059332 539.8208947322382 78.21318189059332 364.74047447772415 C 78.21318189059332 189.66005422320995 220.143905449401 47.72933066440214 395.224325703915 47.72933066440214 C 570.304745958429 47.72933066440214 712.2354695172367 189.66005422320995 712.2354695172367 364.74047447772415 Z" stroke-opacity="0.6980392156862745" stroke-linecap="round" stroke-linejoin="round" stroke-miterlimit="10" stroke-width="2.5"/><path fill="rgb(0,0,0)" stroke="none" paint-order="stroke fill markers" fill-rule="evenodd" d=" M 653.9875299424895 365.18054795432033 L 654.0236067669078 343.96737519627493 L 632.8104340088611 343.93129837185506 L 632.774357184444 365.1444711299019 L 653.9875299424895 365.18054795432033" fill-opacity="0.09803921568627451"/><path fill="none" stroke="rgb(0,0,0)" paint-order="fill stroke markers" d=" M 653.9875299424895 365.18054795432033 L 654.0236067669078 343.96737519627493 L 632.8104340088611 343.93129837185506 L 632.774357184444 365.1444711299019 L 653.9875299424895 365.18054795432033" stroke-opacity="0.6" stroke-linecap="round" stroke-linejoin="round" stroke-miterlimit="10" stroke-width="2.5"/><path fill="none" stroke="rgb(0,0,0)" paint-order="fill stroke markers" d=" M 653.4028029832281 709 L 654.6170886975139 -5" stroke-opacity="0.6980392156862745" stroke-linecap="round" stroke-linejoin="round" stroke-miterlimit="10" stroke-width="2.5"/><path fill="none" stroke="rgb(0,0,0)" paint-order="fill stroke markers" d=" M 395.224325703915 364.74047447772415 L 912.750734181064 365.6206214309166" stroke-opacity="0.6980392156862745" stroke-linecap="round" stroke-linejoin="round" stroke-miterlimit="10" stroke-width="2.5"/><path fill="none" stroke="rgb(0,0,0)" paint-order="fill stroke markers" d=" M 654.2989791512045 182.048413229849 L 395.224325703915 364.74047447772415" stroke-opacity="0.6980392156862745" stroke-linecap="round" stroke-linejoin="round" stroke-miterlimit="10" stroke-width="2.5"/><path fill="none" stroke="rgb(0,0,0)" paint-order="fill stroke markers" d=" M 654.2989791512045 182.048413229849 L 912.750734181064 365.6206214309166" stroke-opacity="0.6980392156862745" stroke-linecap="round" stroke-linejoin="round" stroke-miterlimit="10" stroke-width="2.5"/><path fill="rgb(21,101,192)" stroke="none" paint-order="stroke fill markers" d=" M 400.224325703915 364.74047447772415 C 400.224325703915 367.5018982268781 397.98574945306893 369.74047447772415 395.224325703915 369.74047447772415 C 392.46290195476104 369.74047447772415 390.224325703915 367.5018982268781 390.224325703915 364.74047447772415 C 390.224325703915 361.9790507285702 392.46290195476104 359.74047447772415 395.224325703915 359.74047447772415 C 397.98574945306893 359.74047447772415 400.224325703915 361.9790507285702 400.224325703915 364.74047447772415 Z" fill-opacity="1"/><path fill="none" stroke="rgb(0,0,0)" paint-order="fill stroke markers" d=" M 400.224325703915 364.74047447772415 C 400.224325703915 367.5018982268781 397.98574945306893 369.74047447772415 395.224325703915 369.74047447772415 C 392.46290195476104 369.74047447772415 390.224325703915 367.5018982268781 390.224325703915 364.74047447772415 C 390.224325703915 361.9790507285702 392.46290195476104 359.74047447772415 395.224325703915 359.74047447772415 C 397.98574945306893 359.74047447772415 400.224325703915 361.9790507285702 400.224325703915 364.74047447772415 Z" stroke-opacity="1" stroke-linecap="round" stroke-linejoin="round" stroke-miterlimit="10"/><text fill="rgb(21,101,192)" stroke="none" font-family="geogebra-sans-serif, sans-serif" font-size="24px" font-style="normal" font-weight="normal" text-decoration="normal" x="365" y="391" text-anchor="start" dominant-baseline="alphabetic" fill-opacity="1">B</text><text fill="none" stroke="rgb(255,255,255)" font-family="geogebra-sans-serif, sans-serif" font-size="24px" font-style="normal" font-weight="normal" text-decoration="normal" x="365" y="391" text-anchor="start" dominant-baseline="alphabetic" stroke-opacity="1" stroke-linejoin="bevel" stroke-miterlimit="10" stroke-width="3">B</text><text fill="rgb(21,101,192)" stroke="none" font-family="geogebra-sans-serif, sans-serif" font-size="24px" font-style="normal" font-weight="normal" text-decoration="normal" x="365" y="391" text-anchor="start" dominant-baseline="alphabetic" fill-opacity="1">B</text><path fill="rgb(21,101,192)" stroke="none" paint-order="stroke fill markers" d=" M 917.750734181064 365.6206214309166 C 917.750734181064 368.3820451800705 915.512157930218 370.6206214309166 912.750734181064 370.6206214309166 C 909.98931043191 370.6206214309166 907.750734181064 368.3820451800705 907.750734181064 365.6206214309166 C 907.750734181064 362.8591976817626 909.98931043191 360.6206214309166 912.750734181064 360.6206214309166 C 915.512157930218 360.6206214309166 917.750734181064 362.8591976817626 917.750734181064 365.6206214309166 Z" fill-opacity="1"/><path fill="none" stroke="rgb(0,0,0)" paint-order="fill stroke markers" d=" M 917.750734181064 365.6206214309166 C 917.750734181064 368.3820451800705 915.512157930218 370.6206214309166 912.750734181064 370.6206214309166 C 909.98931043191 370.6206214309166 907.750734181064 368.3820451800705 907.750734181064 365.6206214309166 C 907.750734181064 362.8591976817626 909.98931043191 360.6206214309166 912.750734181064 360.6206214309166 C 915.512157930218 360.6206214309166 917.750734181064 362.8591976817626 917.750734181064 365.6206214309166 Z" stroke-opacity="1" stroke-linecap="round" stroke-linejoin="round" stroke-miterlimit="10"/><text fill="rgb(21,101,192)" stroke="none" font-family="geogebra-sans-serif, sans-serif" font-size="24px" font-style="normal" font-weight="normal" text-decoration="normal" x="927" y="381" text-anchor="start" dominant-baseline="alphabetic" fill-opacity="1">C</text><text fill="none" stroke="rgb(255,255,255)" font-family="geogebra-sans-serif, sans-serif" font-size="24px" font-style="normal" font-weight="normal" text-decoration="normal" x="927" y="381" text-anchor="start" dominant-baseline="alphabetic" stroke-opacity="1" stroke-linejoin="bevel" stroke-miterlimit="10" stroke-width="3">C</text><text fill="rgb(21,101,192)" stroke="none" font-family="geogebra-sans-serif, sans-serif" font-size="24px" font-style="normal" font-weight="normal" text-decoration="normal" x="927" y="381" text-anchor="start" dominant-baseline="alphabetic" fill-opacity="1">C</text><path fill="rgb(21,101,192)" stroke="none" paint-order="stroke fill markers" d=" M 659.2989791512045 182.048413229849 C 659.2989791512045 184.80983697900297 657.0604029003586 187.048413229849 654.2989791512045 187.048413229849 C 651.5375554020505 187.048413229849 649.2989791512045 184.80983697900297 649.2989791512045 182.048413229849 C 649.2989791512045 179.286989480695 651.5375554020505 177.048413229849 654.2989791512045 177.048413229849 C 657.0604029003586 177.048413229849 659.2989791512045 179.286989480695 659.2989791512045 182.048413229849 Z" fill-opacity="1"/><path fill="none" stroke="rgb(0,0,0)" paint-order="fill stroke markers" d=" M 659.2989791512045 182.048413229849 C 659.2989791512045 184.80983697900297 657.0604029003586 187.048413229849 654.2989791512045 187.048413229849 C 651.5375554020505 187.048413229849 649.2989791512045 184.80983697900297 649.2989791512045 182.048413229849 C 649.2989791512045 179.286989480695 651.5375554020505 177.048413229849 654.2989791512045 177.048413229849 C 657.0604029003586 177.048413229849 659.2989791512045 179.286989480695 659.2989791512045 182.048413229849 Z" stroke-opacity="1" stroke-linecap="round" stroke-linejoin="round" stroke-miterlimit="10"/><text fill="rgb(21,101,192)" stroke="none" font-family="geogebra-sans-serif, sans-serif" font-size="24px" font-style="normal" font-weight="normal" text-decoration="normal" x="658" y="172" text-anchor="start" dominant-baseline="alphabetic" fill-opacity="1">A</text><text fill="none" stroke="rgb(255,255,255)" font-family="geogebra-sans-serif, sans-serif" font-size="24px" font-style="normal" font-weight="normal" text-decoration="normal" x="658" y="172" text-anchor="start" dominant-baseline="alphabetic" stroke-opacity="1" stroke-linejoin="bevel" stroke-miterlimit="10" stroke-width="3">A</text><text fill="rgb(21,101,192)" stroke="none" font-family="geogebra-sans-serif, sans-serif" font-size="24px" font-style="normal" font-weight="normal" text-decoration="normal" x="658" y="172" text-anchor="start" dominant-baseline="alphabetic" fill-opacity="1">A</text><path fill="rgb(46,125,50)" stroke="none" paint-order="stroke fill markers" d=" M 717.2350110704434 365.2796082963747 C 717.2350110704434 368.04103204552865 714.9964348195974 370.2796082963747 712.2350110704434 370.2796082963747 C 709.4735873212894 370.2796082963747 707.2350110704434 368.04103204552865 707.2350110704434 365.2796082963747 C 707.2350110704434 362.51818454722076 709.4735873212894 360.2796082963747 712.2350110704434 360.2796082963747 C 714.9964348195974 360.2796082963747 717.2350110704434 362.51818454722076 717.2350110704434 365.2796082963747 Z" fill-opacity="1"/><path fill="none" stroke="rgb(0,0,0)" paint-order="fill stroke markers" d=" M 717.2350110704434 365.2796082963747 C 717.2350110704434 368.04103204552865 714.9964348195974 370.2796082963747 712.2350110704434 370.2796082963747 C 709.4735873212894 370.2796082963747 707.2350110704434 368.04103204552865 707.2350110704434 365.2796082963747 C 707.2350110704434 362.51818454722076 709.4735873212894 360.2796082963747 712.2350110704434 360.2796082963747 C 714.9964348195974 360.2796082963747 717.2350110704434 362.51818454722076 717.2350110704434 365.2796082963747 Z" stroke-opacity="1" stroke-linecap="round" stroke-linejoin="round" stroke-miterlimit="10"/><text fill="rgb(46,125,50)" stroke="none" font-family="geogebra-sans-serif, sans-serif" font-size="24px" font-style="normal" font-weight="normal" text-decoration="normal" x="686" y="392" text-anchor="start" dominant-baseline="alphabetic" fill-opacity="1">N</text><text fill="none" stroke="rgb(255,255,255)" font-family="geogebra-sans-serif, sans-serif" font-size="24px" font-style="normal" font-weight="normal" text-decoration="normal" x="686" y="392" text-anchor="start" dominant-baseline="alphabetic" stroke-opacity="1" stroke-linejoin="bevel" stroke-miterlimit="10" stroke-width="3">N</text><text fill="rgb(46,125,50)" stroke="none" font-family="geogebra-sans-serif, sans-serif" font-size="24px" font-style="normal" font-weight="normal" text-decoration="normal" x="686" y="392" text-anchor="start" dominant-baseline="alphabetic" fill-opacity="1">N</text><path fill="rgb(211,47,47)" stroke="none" paint-order="stroke fill markers" d=" M 658.9875299424895 365.18054795432033 C 658.9875299424895 367.9419717034743 656.7489536916435 370.18054795432033 653.9875299424895 370.18054795432033 C 651.2261061933355 370.18054795432033 648.9875299424895 367.9419717034743 648.9875299424895 365.18054795432033 C 648.9875299424895 362.4191242051664 651.2261061933355 360.18054795432033 653.9875299424895 360.18054795432033 C 656.7489536916435 360.18054795432033 658.9875299424895 362.4191242051664 658.9875299424895 365.18054795432033 Z" fill-opacity="1"/><path fill="none" stroke="rgb(0,0,0)" paint-order="fill stroke markers" d=" M 658.9875299424895 365.18054795432033 C 658.9875299424895 367.9419717034743 656.7489536916435 370.18054795432033 653.9875299424895 370.18054795432033 C 651.2261061933355 370.18054795432033 648.9875299424895 367.9419717034743 648.9875299424895 365.18054795432033 C 648.9875299424895 362.4191242051664 651.2261061933355 360.18054795432033 653.9875299424895 360.18054795432033 C 656.7489536916435 360.18054795432033 658.9875299424895 362.4191242051664 658.9875299424895 365.18054795432033 Z" stroke-opacity="1" stroke-linecap="round" stroke-linejoin="round" stroke-miterlimit="10"/><text fill="rgb(211,47,47)" stroke="none" font-family="geogebra-sans-serif, sans-serif" font-size="24px" font-style="normal" font-weight="normal" text-decoration="normal" x="623" y="390" text-anchor="start" dominant-baseline="alphabetic" fill-opacity="1">D</text><text fill="none" stroke="rgb(255,255,255)" font-family="geogebra-sans-serif, sans-serif" font-size="24px" font-style="normal" font-weight="normal" text-decoration="normal" x="623" y="390" text-anchor="start" dominant-baseline="alphabetic" stroke-opacity="1" stroke-linejoin="bevel" stroke-miterlimit="10" stroke-width="3">D</text><text fill="rgb(211,47,47)" stroke="none" font-family="geogebra-sans-serif, sans-serif" font-size="24px" font-style="normal" font-weight="normal" text-decoration="normal" x="623" y="390" text-anchor="start" dominant-baseline="alphabetic" fill-opacity="1">D</text></g></g></svg>