<svg version="1.1" xmlns="http://www.w3.org/2000/svg" xmlns:xlink="http://www.w3.org/1999/xlink" width="1310" height="704"><defs><clipPath id="gPJmCyNkwqyX"><path fill="none" stroke="none" d=" M 0 0 L 1310 0 L 1310 704 L 0 704 L 0 0 Z"/></clipPath></defs><g transform="scale(1,1)" clip-path="url(#gPJmCyNkwqyX)"><g><rect fill="rgb(255,255,255)" stroke="none" x="0" y="0" width="1310" height="704" fill-opacity="1"/><path fill="none" stroke="rgb(0,0,0)" paint-order="fill stroke markers" d=" M 712.2354695172369 364.74047447772415 C 712.2354695172369 539.8208947322382 570.3047459584291 681.7516182910462 395.2243257039151 681.7516182910462 C 220.14390544940102 681.7516182910462 78.21318189059332 539.8208947322382 78.21318189059332 364.74047447772415 C 78.21318189059332 189.66005422320995 220.14390544940102 47.72933066440214 395.2243257039151 47.72933066440214 C 570.3047459584291 47.72933066440214 712.2354695172369 189.66005422320995 712.2354695172369 364.74047447772415 Z" stroke-opacity="0.6980392156862745" stroke-linecap="round" stroke-linejoin="round" stroke-miterlimit="10" stroke-width="2.5"/><path fill="rgb(0,0,0)" stroke="none" paint-order="stroke fill markers" fill-rule="evenodd" d=" M 606.6966531603487 215.6162167171638 L 589.3603435831058 227.84128809699365 L 601.5854149629351 245.17759767423857 L 618.9217245401785 232.95252629440677 L 606.6966531603487 215.6162167171638" fill-opacity="0.09803921568627451"/><path fill="none" stroke="rgb(0,0,0)" paint-order="fill stroke markers" d=" M 606.6966531603487 215.6162167171638 L 589.3603435831058 227.84128809699365 L 601.5854149629351 245.17759767423857 L 618.9217245401785 232.95252629440677 L 606.6966531603487 215.6162167171638" stroke-opacity="0.6" stroke-linecap="round" stroke-linejoin="round" stroke-miterlimit="10" stroke-width="2.5"/><path fill="rgb(0,0,0)" stroke="none" paint-order="stroke fill markers" fill-rule="evenodd" d=" M 653.9875299424897 365.18054795432033 L 654.0236067669081 343.96737519627493 L 632.8104340088613 343.93129837185506 L 632.7743571844443 365.1444711299019 L 653.9875299424897 365.18054795432033" fill-opacity="0.09803921568627451"/><path fill="none" stroke="rgb(0,0,0)" paint-order="fill stroke markers" d=" M 653.9875299424897 365.18054795432033 L 654.0236067669081 343.96737519627493 L 632.8104340088613 343.93129837185506 L 632.7743571844443 365.1444711299019 L 653.9875299424897 365.18054795432033" stroke-opacity="0.6" stroke-linecap="round" stroke-linejoin="round" stroke-miterlimit="10" stroke-width="2.5"/><path fill="none" stroke="rgb(0,0,0)" paint-order="fill stroke markers" d=" M 653.4028029832283 709 L 654.6170886975141 -5" stroke-opacity="0.6980392156862745" stroke-linecap="round" stroke-linejoin="round" stroke-miterlimit="10" stroke-width="2.5"/><path fill="none" stroke="rgb(0,0,0)" paint-order="fill stroke markers" d=" M 954.6168342928313 709 L 451.1243853199256 -5" stroke-opacity="0.6980392156862745" stroke-linecap="round" stroke-linejoin="round" stroke-miterlimit="10" stroke-width="2.5"/><path fill="none" stroke="rgb(0,0,0)" paint-order="fill stroke markers" d=" M 395.2243257039151 364.74047447772415 L 912.7507341810643 365.6206214309166" stroke-opacity="0.6980392156862745" stroke-linecap="round" stroke-linejoin="round" stroke-miterlimit="10" stroke-width="2.5"/><path fill="none" stroke="rgb(0,0,0)" paint-order="fill stroke markers" d=" M 654.2989791512048 182.048413229849 L 395.2243257039151 364.74047447772415" stroke-opacity="0.6980392156862745" stroke-linecap="round" stroke-linejoin="round" stroke-miterlimit="10" stroke-width="2.5"/><path fill="none" stroke="rgb(0,0,0)" paint-order="fill stroke markers" d=" M 654.2989791512048 182.048413229849 L 912.7507341810643 365.6206214309166" stroke-opacity="0.6980392156862745" stroke-linecap="round" stroke-linejoin="round" stroke-miterlimit="10" stroke-width="2.5"/><path fill="rgb(21,101,192)" stroke="none" paint-order="stroke fill markers" d=" M 400.2243257039151 364.74047447772415 C 400.2243257039151 367.5018982268781 397.98574945306905 369.74047447772415 395.2243257039151 369.74047447772415 C 392.46290195476115 369.74047447772415 390.2243257039151 367.5018982268781 390.2243257039151 364.74047447772415 C 390.2243257039151 361.9790507285702 392.46290195476115 359.74047447772415 395.2243257039151 359.74047447772415 C 397.98574945306905 359.74047447772415 400.2243257039151 361.9790507285702 400.2243257039151 364.74047447772415 Z" fill-opacity="1"/><path fill="none" stroke="rgb(0,0,0)" paint-order="fill stroke markers" d=" M 400.2243257039151 364.74047447772415 C 400.2243257039151 367.5018982268781 397.98574945306905 369.74047447772415 395.2243257039151 369.74047447772415 C 392.46290195476115 369.74047447772415 390.2243257039151 367.5018982268781 390.2243257039151 364.74047447772415 C 390.2243257039151 361.9790507285702 392.46290195476115 359.74047447772415 395.2243257039151 359.74047447772415 C 397.98574945306905 359.74047447772415 400.2243257039151 361.9790507285702 400.2243257039151 364.74047447772415 Z" stroke-opacity="1" stroke-linecap="round" stroke-linejoin="round" stroke-miterlimit="10"/><text fill="rgb(21,101,192)" stroke="none" font-family="geogebra-sans-serif, sans-serif" font-size="24px" font-style="normal" font-weight="normal" text-decoration="normal" x="365" y="391" text-anchor="start" dominant-baseline="alphabetic" fill-opacity="1">B</text><text fill="none" stroke="rgb(255,255,255)" font-family="geogebra-sans-serif, sans-serif" font-size="24px" font-style="normal" font-weight="normal" text-decoration="normal" x="365" y="391" text-anchor="start" dominant-baseline="alphabetic" stroke-opacity="1" stroke-linejoin="bevel" stroke-miterlimit="10" stroke-width="3">B</text><text fill="rgb(21,101,192)" stroke="none" font-family="geogebra-sans-serif, sans-serif" font-size="24px" font-style="normal" font-weight="normal" text-decoration="normal" x="365" y="391" text-anchor="start" dominant-baseline="alphabetic" fill-opacity="1">B</text><path fill="rgb(21,101,192)" stroke="none" paint-order="stroke fill markers" d=" M 917.7507341810643 365.6206214309166 C 917.7507341810643 368.3820451800705 915.5121579302183 370.6206214309166 912.7507341810643 370.6206214309166 C 909.9893104319103 370.6206214309166 907.7507341810643 368.3820451800705 907.7507341810643 365.6206214309166 C 907.7507341810643 362.8591976817626 909.9893104319103 360.6206214309166 912.7507341810643 360.6206214309166 C 915.5121579302183 360.6206214309166 917.7507341810643 362.8591976817626 917.7507341810643 365.6206214309166 Z" fill-opacity="1"/><path fill="none" stroke="rgb(0,0,0)" paint-order="fill stroke markers" d=" M 917.7507341810643 365.6206214309166 C 917.7507341810643 368.3820451800705 915.5121579302183 370.6206214309166 912.7507341810643 370.6206214309166 C 909.9893104319103 370.6206214309166 907.7507341810643 368.3820451800705 907.7507341810643 365.6206214309166 C 907.7507341810643 362.8591976817626 909.9893104319103 360.6206214309166 912.7507341810643 360.6206214309166 C 915.5121579302183 360.6206214309166 917.7507341810643 362.8591976817626 917.7507341810643 365.6206214309166 Z" stroke-opacity="1" stroke-linecap="round" stroke-linejoin="round" stroke-miterlimit="10"/><text fill="rgb(21,101,192)" stroke="none" font-family="geogebra-sans-serif, sans-serif" font-size="24px" font-style="normal" font-weight="normal" text-decoration="normal" x="927" y="381" text-anchor="start" dominant-baseline="alphabetic" fill-opacity="1">C</text><text fill="none" stroke="rgb(255,255,255)" font-family="geogebra-sans-serif, sans-serif" font-size="24px" font-style="normal" font-weight="normal" text-decoration="normal" x="927" y="381" text-anchor="start" dominant-baseline="alphabetic" stroke-opacity="1" stroke-linejoin="bevel" stroke-miterlimit="10" stroke-width="3">C</text><text fill="rgb(21,101,192)" stroke="none" font-family="geogebra-sans-serif, sans-serif" font-size="24px" font-style="normal" font-weight="normal" text-decoration="normal" x="927" y="381" text-anchor="start" dominant-baseline="alphabetic" fill-opacity="1">C</text><path fill="rgb(21,101,192)" stroke="none" paint-order="stroke fill markers" d=" M 659.2989791512048 182.048413229849 C 659.2989791512048 184.80983697900297 657.0604029003588 187.048413229849 654.2989791512048 187.048413229849 C 651.5375554020508 187.048413229849 649.2989791512048 184.80983697900297 649.2989791512048 182.048413229849 C 649.2989791512048 179.286989480695 651.5375554020508 177.048413229849 654.2989791512048 177.048413229849 C 657.0604029003588 177.048413229849 659.2989791512048 179.286989480695 659.2989791512048 182.048413229849 Z" fill-opacity="1"/><path fill="none" stroke="rgb(0,0,0)" paint-order="fill stroke markers" d=" M 659.2989791512048 182.048413229849 C 659.2989791512048 184.80983697900297 657.0604029003588 187.048413229849 654.2989791512048 187.048413229849 C 651.5375554020508 187.048413229849 649.2989791512048 184.80983697900297 649.2989791512048 182.048413229849 C 649.2989791512048 179.286989480695 651.5375554020508 177.048413229849 654.2989791512048 177.048413229849 C 657.0604029003588 177.048413229849 659.2989791512048 179.286989480695 659.2989791512048 182.048413229849 Z" stroke-opacity="1" stroke-linecap="round" stroke-linejoin="round" stroke-miterlimit="10"/><text fill="rgb(21,101,192)" stroke="none" font-family="geogebra-sans-serif, sans-serif" font-size="24px" font-style="normal" font-weight="normal" text-decoration="normal" x="658" y="172" text-anchor="start" dominant-baseline="alphabetic" fill-opacity="1">A</text><text fill="none" stroke="rgb(255,255,255)" font-family="geogebra-sans-serif, sans-serif" font-size="24px" font-style="normal" font-weight="normal" text-decoration="normal" x="658" y="172" text-anchor="start" dominant-baseline="alphabetic" stroke-opacity="1" stroke-linejoin="bevel" stroke-miterlimit="10" stroke-width="3">A</text><text fill="rgb(21,101,192)" stroke="none" font-family="geogebra-sans-serif, sans-serif" font-size="24px" font-style="normal" font-weight="normal" text-decoration="normal" x="658" y="172" text-anchor="start" dominant-baseline="alphabetic" fill-opacity="1">A</text><path fill="rgb(46,125,50)" stroke="none" paint-order="stroke fill markers" d=" M 717.2350110704436 365.2796082963747 C 717.2350110704436 368.04103204552865 714.9964348195977 370.2796082963747 712.2350110704436 370.2796082963747 C 709.4735873212896 370.2796082963747 707.2350110704436 368.04103204552865 707.2350110704436 365.2796082963747 C 707.2350110704436 362.51818454722076 709.4735873212896 360.2796082963747 712.2350110704436 360.2796082963747 C 714.9964348195977 360.2796082963747 717.2350110704436 362.51818454722076 717.2350110704436 365.2796082963747 Z" fill-opacity="1"/><path fill="none" stroke="rgb(0,0,0)" paint-order="fill stroke markers" d=" M 717.2350110704436 365.2796082963747 C 717.2350110704436 368.04103204552865 714.9964348195977 370.2796082963747 712.2350110704436 370.2796082963747 C 709.4735873212896 370.2796082963747 707.2350110704436 368.04103204552865 707.2350110704436 365.2796082963747 C 707.2350110704436 362.51818454722076 709.4735873212896 360.2796082963747 712.2350110704436 360.2796082963747 C 714.9964348195977 360.2796082963747 717.2350110704436 362.51818454722076 717.2350110704436 365.2796082963747 Z" stroke-opacity="1" stroke-linecap="round" stroke-linejoin="round" stroke-miterlimit="10"/><text fill="rgb(46,125,50)" stroke="none" font-family="geogebra-sans-serif, sans-serif" font-size="24px" font-style="normal" font-weight="normal" text-decoration="normal" x="686" y="392" text-anchor="start" dominant-baseline="alphabetic" fill-opacity="1">N</text><text fill="none" stroke="rgb(255,255,255)" font-family="geogebra-sans-serif, sans-serif" font-size="24px" font-style="normal" font-weight="normal" text-decoration="normal" x="686" y="392" text-anchor="start" dominant-baseline="alphabetic" stroke-opacity="1" stroke-linejoin="bevel" stroke-miterlimit="10" stroke-width="3">N</text><text fill="rgb(46,125,50)" stroke="none" font-family="geogebra-sans-serif, sans-serif" font-size="24px" font-style="normal" font-weight="normal" text-decoration="normal" x="686" y="392" text-anchor="start" dominant-baseline="alphabetic" fill-opacity="1">N</text><path fill="rgb(46,125,50)" stroke="none" paint-order="stroke fill markers" d=" M 611.6966531603487 215.6162167171638 C 611.6966531603487 218.37764046631779 609.4580769095027 220.6162167171638 606.6966531603487 220.6162167171638 C 603.9352294111947 220.6162167171638 601.6966531603487 218.37764046631779 601.6966531603487 215.6162167171638 C 601.6966531603487 212.85479296800983 603.9352294111947 210.6162167171638 606.6966531603487 210.6162167171638 C 609.4580769095027 210.6162167171638 611.6966531603487 212.85479296800983 611.6966531603487 215.6162167171638 Z" fill-opacity="1"/><path fill="none" stroke="rgb(0,0,0)" paint-order="fill stroke markers" d=" M 611.6966531603487 215.6162167171638 C 611.6966531603487 218.37764046631779 609.4580769095027 220.6162167171638 606.6966531603487 220.6162167171638 C 603.9352294111947 220.6162167171638 601.6966531603487 218.37764046631779 601.6966531603487 215.6162167171638 C 601.6966531603487 212.85479296800983 603.9352294111947 210.6162167171638 606.6966531603487 210.6162167171638 C 609.4580769095027 210.6162167171638 611.6966531603487 212.85479296800983 611.6966531603487 215.6162167171638 Z" stroke-opacity="1" stroke-linecap="round" stroke-linejoin="round" stroke-miterlimit="10"/><text fill="rgb(46,125,50)" stroke="none" font-family="geogebra-sans-serif, sans-serif" font-size="24px" font-style="normal" font-weight="normal" text-decoration="normal" x="557" y="224" text-anchor="start" dominant-baseline="alphabetic" fill-opacity="1">M</text><text fill="none" stroke="rgb(255,255,255)" font-family="geogebra-sans-serif, sans-serif" font-size="24px" font-style="normal" font-weight="normal" text-decoration="normal" x="557" y="224" text-anchor="start" dominant-baseline="alphabetic" stroke-opacity="1" stroke-linejoin="bevel" stroke-miterlimit="10" stroke-width="3">M</text><text fill="rgb(46,125,50)" stroke="none" font-family="geogebra-sans-serif, sans-serif" font-size="24px" font-style="normal" font-weight="normal" text-decoration="normal" x="557" y="224" text-anchor="start" dominant-baseline="alphabetic" fill-opacity="1">M</text><path fill="rgb(211,47,47)" stroke="none" paint-order="stroke fill markers" d=" M 658.9875299424897 365.18054795432033 C 658.9875299424897 367.9419717034743 656.7489536916437 370.18054795432033 653.9875299424897 370.18054795432033 C 651.2261061933357 370.18054795432033 648.9875299424897 367.9419717034743 648.9875299424897 365.18054795432033 C 648.9875299424897 362.4191242051664 651.2261061933357 360.18054795432033 653.9875299424897 360.18054795432033 C 656.7489536916437 360.18054795432033 658.9875299424897 362.4191242051664 658.9875299424897 365.18054795432033 Z" fill-opacity="1"/><path fill="none" stroke="rgb(0,0,0)" paint-order="fill stroke markers" d=" M 658.9875299424897 365.18054795432033 C 658.9875299424897 367.9419717034743 656.7489536916437 370.18054795432033 653.9875299424897 370.18054795432033 C 651.2261061933357 370.18054795432033 648.9875299424897 367.9419717034743 648.9875299424897 365.18054795432033 C 648.9875299424897 362.4191242051664 651.2261061933357 360.18054795432033 653.9875299424897 360.18054795432033 C 656.7489536916437 360.18054795432033 658.9875299424897 362.4191242051664 658.9875299424897 365.18054795432033 Z" stroke-opacity="1" stroke-linecap="round" stroke-linejoin="round" stroke-miterlimit="10"/><text fill="rgb(211,47,47)" stroke="none" font-family="geogebra-sans-serif, sans-serif" font-size="24px" font-style="normal" font-weight="normal" text-decoration="normal" x="623" y="390" text-anchor="start" dominant-baseline="alphabetic" fill-opacity="1">D</text><text fill="none" stroke="rgb(255,255,255)" font-family="geogebra-sans-serif, sans-serif" font-size="24px" font-style="normal" font-weight="normal" text-decoration="normal" x="623" y="390" text-anchor="start" dominant-baseline="alphabetic" stroke-opacity="1" stroke-linejoin="bevel" stroke-miterlimit="10" stroke-width="3">D</text><text fill="rgb(211,47,47)" stroke="none" font-family="geogebra-sans-serif, sans-serif" font-size="24px" font-style="normal" font-weight="normal" text-decoration="normal" x="623" y="390" text-anchor="start" dominant-baseline="alphabetic" fill-opacity="1">D</text></g></g></svg>