<svg version="1.1" xmlns="http://www.w3.org/2000/svg" xmlns:xlink="http://www.w3.org/1999/xlink" width="1310" height="704"><defs><clipPath id="lvMSvGSBpHyc"><path fill="none" stroke="none" d=" M 0 0 L 1310 0 L 1310 704 L 0 704 L 0 0 Z"/></clipPath></defs><g transform="scale(1,1)" clip-path="url(#lvMSvGSBpHyc)"><g><rect fill="rgb(255,255,255)" stroke="none" x="0" y="0" width="1310" height="704" fill-opacity="1"/><path fill="none" stroke="rgb(0,0,0)" paint-order="fill stroke markers" d=" M 712.2354695172372 364.74047447772415 C 712.2354695172372 539.8208947322382 570.3047459584294 681.7516182910462 395.22432570391527 681.7516182910462 C 220.1439054494011 681.7516182910462 78.21318189059332 539.8208947322382 78.21318189059332 364.74047447772415 C 78.21318189059332 189.66005422320995 220.1439054494011 47.72933066440214 395.22432570391527 47.72933066440214 C 570.3047459584294 47.72933066440214 712.2354695172372 189.66005422320995 712.2354695172372 364.74047447772415 Z" stroke-opacity="0.6980392156862745" stroke-linecap="round" stroke-linejoin="round" stroke-miterlimit="10" stroke-width="2.5"/><path fill="rgb(0,0,0)" stroke="none" paint-order="stroke fill markers" fill-rule="evenodd" d=" M 606.6966531603489 215.6162167171638 L 589.360343583106 227.84128809699362 L 601.5854149629354 245.17759767423857 L 618.9217245401787 232.95252629440677 L 606.6966531603489 215.6162167171638" fill-opacity="0.09803921568627451"/><path fill="none" stroke="rgb(0,0,0)" paint-order="fill stroke markers" d=" M 606.6966531603489 215.6162167171638 L 589.360343583106 227.84128809699362 L 601.5854149629354 245.17759767423857 L 618.9217245401787 232.95252629440677 L 606.6966531603489 215.6162167171638" stroke-opacity="0.6" stroke-linecap="round" stroke-linejoin="round" stroke-miterlimit="10" stroke-width="2.5"/><path fill="rgb(0,0,0)" stroke="none" paint-order="stroke fill markers" fill-rule="evenodd" d=" M 653.98752994249 365.18054795432033 L 654.0236067669084 343.96737519627493 L 632.8104340088616 343.93129837185506 L 632.7743571844446 365.1444711299019 L 653.98752994249 365.18054795432033" fill-opacity="0.09803921568627451"/><path fill="none" stroke="rgb(0,0,0)" paint-order="fill stroke markers" d=" M 653.98752994249 365.18054795432033 L 654.0236067669084 343.96737519627493 L 632.8104340088616 343.93129837185506 L 632.7743571844446 365.1444711299019 L 653.98752994249 365.18054795432033" stroke-opacity="0.6" stroke-linecap="round" stroke-linejoin="round" stroke-miterlimit="10" stroke-width="2.5"/><path fill="none" stroke="rgb(0,0,0)" paint-order="fill stroke markers" d=" M 653.4028029832286 709 L 654.6170886975144 -5" stroke-opacity="0.6980392156862745" stroke-linecap="round" stroke-linejoin="round" stroke-miterlimit="10" stroke-width="2.5"/><path fill="none" stroke="rgb(0,0,0)" paint-order="fill stroke markers" d=" M 954.6168342928318 709 L 451.12438531992586 -5" stroke-opacity="0.6980392156862745" stroke-linecap="round" stroke-linejoin="round" stroke-miterlimit="10" stroke-width="2.5"/><path fill="none" stroke="rgb(0,0,0)" paint-order="fill stroke markers" d=" M 395.22432570391527 364.74047447772415 L 912.7507341810648 365.6206214309166" stroke-opacity="0.6980392156862745" stroke-linecap="round" stroke-linejoin="round" stroke-miterlimit="10" stroke-width="2.5"/><path fill="none" stroke="rgb(0,0,0)" paint-order="fill stroke markers" d=" M 654.2989791512051 182.048413229849 L 395.22432570391527 364.74047447772415" stroke-opacity="0.6980392156862745" stroke-linecap="round" stroke-linejoin="round" stroke-miterlimit="10" stroke-width="2.5"/><path fill="none" stroke="rgb(0,0,0)" paint-order="fill stroke markers" d=" M 654.2989791512051 182.048413229849 L 912.7507341810648 365.6206214309166" stroke-opacity="0.6980392156862745" stroke-linecap="round" stroke-linejoin="round" stroke-miterlimit="10" stroke-width="2.5"/><path fill="none" stroke="rgb(0,0,0)" paint-order="fill stroke markers" d=" M 395.22432570391527 364.74047447772415 L 501.1582952502539 65.95282513795289" stroke-opacity="0.6980392156862745" stroke-linejoin="round" stroke-miterlimit="10" stroke-width="2.5" stroke-dasharray="10.5,8"/><path fill="none" stroke="rgb(0,0,0)" paint-order="fill stroke markers" d=" M 395.22432570391527 364.74047447772415 L 653.6760807337749 548.3126826787918" stroke-opacity="0.6980392156862745" stroke-linejoin="round" stroke-miterlimit="10" stroke-width="2.5" stroke-dasharray="10.5,8"/><path fill="rgb(21,101,192)" stroke="none" paint-order="stroke fill markers" d=" M 400.22432570391527 364.74047447772415 C 400.22432570391527 367.5018982268781 397.9857494530692 369.74047447772415 395.22432570391527 369.74047447772415 C 392.4629019547613 369.74047447772415 390.22432570391527 367.5018982268781 390.22432570391527 364.74047447772415 C 390.22432570391527 361.9790507285702 392.4629019547613 359.74047447772415 395.22432570391527 359.74047447772415 C 397.9857494530692 359.74047447772415 400.22432570391527 361.9790507285702 400.22432570391527 364.74047447772415 Z" fill-opacity="1"/><path fill="none" stroke="rgb(0,0,0)" paint-order="fill stroke markers" d=" M 400.22432570391527 364.74047447772415 C 400.22432570391527 367.5018982268781 397.9857494530692 369.74047447772415 395.22432570391527 369.74047447772415 C 392.4629019547613 369.74047447772415 390.22432570391527 367.5018982268781 390.22432570391527 364.74047447772415 C 390.22432570391527 361.9790507285702 392.4629019547613 359.74047447772415 395.22432570391527 359.74047447772415 C 397.9857494530692 359.74047447772415 400.22432570391527 361.9790507285702 400.22432570391527 364.74047447772415 Z" stroke-opacity="1" stroke-linecap="round" stroke-linejoin="round" stroke-miterlimit="10"/><text fill="rgb(21,101,192)" stroke="none" font-family="geogebra-sans-serif, sans-serif" font-size="24px" font-style="normal" font-weight="normal" text-decoration="normal" x="365" y="391" text-anchor="start" dominant-baseline="alphabetic" fill-opacity="1">B</text><text fill="none" stroke="rgb(255,255,255)" font-family="geogebra-sans-serif, sans-serif" font-size="24px" font-style="normal" font-weight="normal" text-decoration="normal" x="365" y="391" text-anchor="start" dominant-baseline="alphabetic" stroke-opacity="1" stroke-linejoin="bevel" stroke-miterlimit="10" stroke-width="3">B</text><text fill="rgb(21,101,192)" stroke="none" font-family="geogebra-sans-serif, sans-serif" font-size="24px" font-style="normal" font-weight="normal" text-decoration="normal" x="365" y="391" text-anchor="start" dominant-baseline="alphabetic" fill-opacity="1">B</text><path fill="rgb(21,101,192)" stroke="none" paint-order="stroke fill markers" d=" M 917.7507341810648 365.6206214309166 C 917.7507341810648 368.3820451800705 915.5121579302188 370.6206214309166 912.7507341810648 370.6206214309166 C 909.9893104319108 370.6206214309166 907.7507341810648 368.3820451800705 907.7507341810648 365.6206214309166 C 907.7507341810648 362.8591976817626 909.9893104319108 360.6206214309166 912.7507341810648 360.6206214309166 C 915.5121579302188 360.6206214309166 917.7507341810648 362.8591976817626 917.7507341810648 365.6206214309166 Z" fill-opacity="1"/><path fill="none" stroke="rgb(0,0,0)" paint-order="fill stroke markers" d=" M 917.7507341810648 365.6206214309166 C 917.7507341810648 368.3820451800705 915.5121579302188 370.6206214309166 912.7507341810648 370.6206214309166 C 909.9893104319108 370.6206214309166 907.7507341810648 368.3820451800705 907.7507341810648 365.6206214309166 C 907.7507341810648 362.8591976817626 909.9893104319108 360.6206214309166 912.7507341810648 360.6206214309166 C 915.5121579302188 360.6206214309166 917.7507341810648 362.8591976817626 917.7507341810648 365.6206214309166 Z" stroke-opacity="1" stroke-linecap="round" stroke-linejoin="round" stroke-miterlimit="10"/><text fill="rgb(21,101,192)" stroke="none" font-family="geogebra-sans-serif, sans-serif" font-size="24px" font-style="normal" font-weight="normal" text-decoration="normal" x="927" y="381" text-anchor="start" dominant-baseline="alphabetic" fill-opacity="1">C</text><text fill="none" stroke="rgb(255,255,255)" font-family="geogebra-sans-serif, sans-serif" font-size="24px" font-style="normal" font-weight="normal" text-decoration="normal" x="927" y="381" text-anchor="start" dominant-baseline="alphabetic" stroke-opacity="1" stroke-linejoin="bevel" stroke-miterlimit="10" stroke-width="3">C</text><text fill="rgb(21,101,192)" stroke="none" font-family="geogebra-sans-serif, sans-serif" font-size="24px" font-style="normal" font-weight="normal" text-decoration="normal" x="927" y="381" text-anchor="start" dominant-baseline="alphabetic" fill-opacity="1">C</text><path fill="rgb(21,101,192)" stroke="none" paint-order="stroke fill markers" d=" M 659.2989791512051 182.048413229849 C 659.2989791512051 184.80983697900297 657.0604029003591 187.048413229849 654.2989791512051 187.048413229849 C 651.5375554020511 187.048413229849 649.2989791512051 184.80983697900297 649.2989791512051 182.048413229849 C 649.2989791512051 179.286989480695 651.5375554020511 177.048413229849 654.2989791512051 177.048413229849 C 657.0604029003591 177.048413229849 659.2989791512051 179.286989480695 659.2989791512051 182.048413229849 Z" fill-opacity="1"/><path fill="none" stroke="rgb(0,0,0)" paint-order="fill stroke markers" d=" M 659.2989791512051 182.048413229849 C 659.2989791512051 184.80983697900297 657.0604029003591 187.048413229849 654.2989791512051 187.048413229849 C 651.5375554020511 187.048413229849 649.2989791512051 184.80983697900297 649.2989791512051 182.048413229849 C 649.2989791512051 179.286989480695 651.5375554020511 177.048413229849 654.2989791512051 177.048413229849 C 657.0604029003591 177.048413229849 659.2989791512051 179.286989480695 659.2989791512051 182.048413229849 Z" stroke-opacity="1" stroke-linecap="round" stroke-linejoin="round" stroke-miterlimit="10"/><text fill="rgb(21,101,192)" stroke="none" font-family="geogebra-sans-serif, sans-serif" font-size="24px" font-style="normal" font-weight="normal" text-decoration="normal" x="658" y="172" text-anchor="start" dominant-baseline="alphabetic" fill-opacity="1">A</text><text fill="none" stroke="rgb(255,255,255)" font-family="geogebra-sans-serif, sans-serif" font-size="24px" font-style="normal" font-weight="normal" text-decoration="normal" x="658" y="172" text-anchor="start" dominant-baseline="alphabetic" stroke-opacity="1" stroke-linejoin="bevel" stroke-miterlimit="10" stroke-width="3">A</text><text fill="rgb(21,101,192)" stroke="none" font-family="geogebra-sans-serif, sans-serif" font-size="24px" font-style="normal" font-weight="normal" text-decoration="normal" x="658" y="172" text-anchor="start" dominant-baseline="alphabetic" fill-opacity="1">A</text><path fill="rgb(46,125,50)" stroke="none" paint-order="stroke fill markers" d=" M 717.235011070444 365.2796082963747 C 717.235011070444 368.04103204552865 714.996434819598 370.2796082963747 712.235011070444 370.2796082963747 C 709.47358732129 370.2796082963747 707.235011070444 368.04103204552865 707.235011070444 365.2796082963747 C 707.235011070444 362.51818454722076 709.47358732129 360.2796082963747 712.235011070444 360.2796082963747 C 714.996434819598 360.2796082963747 717.235011070444 362.51818454722076 717.235011070444 365.2796082963747 Z" fill-opacity="1"/><path fill="none" stroke="rgb(0,0,0)" paint-order="fill stroke markers" d=" M 717.235011070444 365.2796082963747 C 717.235011070444 368.04103204552865 714.996434819598 370.2796082963747 712.235011070444 370.2796082963747 C 709.47358732129 370.2796082963747 707.235011070444 368.04103204552865 707.235011070444 365.2796082963747 C 707.235011070444 362.51818454722076 709.47358732129 360.2796082963747 712.235011070444 360.2796082963747 C 714.996434819598 360.2796082963747 717.235011070444 362.51818454722076 717.235011070444 365.2796082963747 Z" stroke-opacity="1" stroke-linecap="round" stroke-linejoin="round" stroke-miterlimit="10"/><text fill="rgb(46,125,50)" stroke="none" font-family="geogebra-sans-serif, sans-serif" font-size="24px" font-style="normal" font-weight="normal" text-decoration="normal" x="686" y="392" text-anchor="start" dominant-baseline="alphabetic" fill-opacity="1">N</text><text fill="none" stroke="rgb(255,255,255)" font-family="geogebra-sans-serif, sans-serif" font-size="24px" font-style="normal" font-weight="normal" text-decoration="normal" x="686" y="392" text-anchor="start" dominant-baseline="alphabetic" stroke-opacity="1" stroke-linejoin="bevel" stroke-miterlimit="10" stroke-width="3">N</text><text fill="rgb(46,125,50)" stroke="none" font-family="geogebra-sans-serif, sans-serif" font-size="24px" font-style="normal" font-weight="normal" text-decoration="normal" x="686" y="392" text-anchor="start" dominant-baseline="alphabetic" fill-opacity="1">N</text><path fill="rgb(46,125,50)" stroke="none" paint-order="stroke fill markers" d=" M 611.6966531603489 215.6162167171638 C 611.6966531603489 218.37764046631779 609.4580769095029 220.6162167171638 606.6966531603489 220.6162167171638 C 603.9352294111949 220.6162167171638 601.6966531603489 218.37764046631779 601.6966531603489 215.6162167171638 C 601.6966531603489 212.85479296800983 603.9352294111949 210.6162167171638 606.6966531603489 210.6162167171638 C 609.4580769095029 210.6162167171638 611.6966531603489 212.85479296800983 611.6966531603489 215.6162167171638 Z" fill-opacity="1"/><path fill="none" stroke="rgb(0,0,0)" paint-order="fill stroke markers" d=" M 611.6966531603489 215.6162167171638 C 611.6966531603489 218.37764046631779 609.4580769095029 220.6162167171638 606.6966531603489 220.6162167171638 C 603.9352294111949 220.6162167171638 601.6966531603489 218.37764046631779 601.6966531603489 215.6162167171638 C 601.6966531603489 212.85479296800983 603.9352294111949 210.6162167171638 606.6966531603489 210.6162167171638 C 609.4580769095029 210.6162167171638 611.6966531603489 212.85479296800983 611.6966531603489 215.6162167171638 Z" stroke-opacity="1" stroke-linecap="round" stroke-linejoin="round" stroke-miterlimit="10"/><text fill="rgb(46,125,50)" stroke="none" font-family="geogebra-sans-serif, sans-serif" font-size="24px" font-style="normal" font-weight="normal" text-decoration="normal" x="557" y="224" text-anchor="start" dominant-baseline="alphabetic" fill-opacity="1">M</text><text fill="none" stroke="rgb(255,255,255)" font-family="geogebra-sans-serif, sans-serif" font-size="24px" font-style="normal" font-weight="normal" text-decoration="normal" x="557" y="224" text-anchor="start" dominant-baseline="alphabetic" stroke-opacity="1" stroke-linejoin="bevel" stroke-miterlimit="10" stroke-width="3">M</text><text fill="rgb(46,125,50)" stroke="none" font-family="geogebra-sans-serif, sans-serif" font-size="24px" font-style="normal" font-weight="normal" text-decoration="normal" x="557" y="224" text-anchor="start" dominant-baseline="alphabetic" fill-opacity="1">M</text><path fill="rgb(211,47,47)" stroke="none" paint-order="stroke fill markers" d=" M 506.1582952502539 65.95282513795289 C 506.1582952502539 68.71424888710685 503.91971899940785 70.95282513795289 501.1582952502539 70.95282513795289 C 498.39687150109995 70.95282513795289 496.1582952502539 68.71424888710685 496.1582952502539 65.95282513795289 C 496.1582952502539 63.191401388798916 498.39687150109995 60.952825137952885 501.1582952502539 60.952825137952885 C 503.91971899940785 60.952825137952885 506.1582952502539 63.191401388798916 506.1582952502539 65.95282513795289 Z" fill-opacity="1"/><path fill="none" stroke="rgb(0,0,0)" paint-order="fill stroke markers" d=" M 506.1582952502539 65.95282513795289 C 506.1582952502539 68.71424888710685 503.91971899940785 70.95282513795289 501.1582952502539 70.95282513795289 C 498.39687150109995 70.95282513795289 496.1582952502539 68.71424888710685 496.1582952502539 65.95282513795289 C 496.1582952502539 63.191401388798916 498.39687150109995 60.952825137952885 501.1582952502539 60.952825137952885 C 503.91971899940785 60.952825137952885 506.1582952502539 63.191401388798916 506.1582952502539 65.95282513795289 Z" stroke-opacity="1" stroke-linecap="round" stroke-linejoin="round" stroke-miterlimit="10"/><g transform="scale(27,27)"><g transform="translate(18.88888888888889,1.9446949)"><path fill="rgb(211,47,47)" stroke="none" paint-order="stroke fill markers" d=" M 0.756 -0.578 L 0.616 -0.021 Q 0.611 -0.002 0.606 -0.001 L 0.605 0 L 0.6 0 Q 0.59 0 0.584 -0.012 Q 0.583 -0.015 0.581 -0.019 L 0.332 -0.608 L 0.323 -0.626 L 0.191 -0.098 Q 0.187 -0.083 0.187 -0.075 Q 0.187 -0.041 0.23 -0.033 Q 0.24 -0.031 0.253 -0.031 Q 0.273 -0.031 0.273 -0.02 Q 0.273 0 0.255 0 L 0.155 -0.003 L 0.152 -0.003 L 0.053 0 L 0.052000000000000005 0 Q 0.039 0 0.039 -0.011 Q 0.039 -0.031 0.056 -0.031 Q 0.135 -0.034 0.156 -0.081 Q 0.16 -0.091 0.164 -0.106 L 0.298 -0.643 Q 0.298 -0.652 0.23 -0.652 Q 0.20400000000000001 -0.652 0.202 -0.663 Q 0.202 -0.681 0.217 -0.683 L 0.231 -0.683 L 0.365 -0.683 Q 0.386 -0.683 0.391 -0.676 Q 0.393 -0.673 0.397 -0.664 L 0.618 -0.14200000000000002 L 0.73 -0.587 Q 0.733 -0.596 0.733 -0.608 Q 0.733 -0.651 0.665 -0.652 Q 0.647 -0.652 0.647 -0.663 Q 0.647 -0.683 0.665 -0.683 L 0.766 -0.68 L 0.767 -0.68 L 0.867 -0.683 L 0.868 -0.683 Q 0.881 -0.683 0.881 -0.672 Q 0.881 -0.652 0.864 -0.652 Q 0.786 -0.649 0.764 -0.603 L 0.764 -0.603 Q 0.76 -0.593 0.756 -0.578 Z"/></g><g transform="translate(19.80138838888889,1.2777785) scale(0.5,0.5)"><path fill="rgb(211,47,47)" stroke="none" paint-order="stroke fill markers" d=" M 0.255 -0.47900000000000004 L 0.076 -0.059000000000000004 Q 0.07 -0.045 0.063 -0.045 Q 0.045 -0.045 0.033 -0.056 Q 0.029 -0.059000000000000004 0.029 -0.063 Q 0.029 -0.065 0.032 -0.077 L 0.153 -0.513 Q 0.166 -0.554 0.197 -0.558 Q 0.202 -0.559 0.20600000000000002 -0.559 Q 0.24 -0.559 0.256 -0.53 Q 0.262 -0.519 0.262 -0.507 Q 0.262 -0.494 0.255 -0.47900000000000004 Z"/></g></g><path fill="rgb(211,47,47)" stroke="none" paint-order="stroke fill markers" d=" M 658.6760807337749 548.3126826787918 C 658.6760807337749 551.0741064279458 656.437504482929 553.3126826787918 653.6760807337749 553.3126826787918 C 650.9146569846209 553.3126826787918 648.6760807337749 551.0741064279458 648.6760807337749 548.3126826787918 C 648.6760807337749 545.5512589296378 650.9146569846209 543.3126826787918 653.6760807337749 543.3126826787918 C 656.437504482929 543.3126826787918 658.6760807337749 545.5512589296378 658.6760807337749 548.3126826787918 Z" fill-opacity="1"/><path fill="none" stroke="rgb(0,0,0)" paint-order="fill stroke markers" d=" M 658.6760807337749 548.3126826787918 C 658.6760807337749 551.0741064279458 656.437504482929 553.3126826787918 653.6760807337749 553.3126826787918 C 650.9146569846209 553.3126826787918 648.6760807337749 551.0741064279458 648.6760807337749 548.3126826787918 C 648.6760807337749 545.5512589296378 650.9146569846209 543.3126826787918 653.6760807337749 543.3126826787918 C 656.437504482929 543.3126826787918 658.6760807337749 545.5512589296378 658.6760807337749 548.3126826787918 Z" stroke-opacity="1" stroke-linecap="round" stroke-linejoin="round" stroke-miterlimit="10"/><g transform="scale(27,27)"><g transform="translate(24.48148148148148,21.01876897407407)"><path fill="rgb(211,47,47)" stroke="none" paint-order="stroke fill markers" d=" M 0.179 -0.115 L 0.527 -0.6990000000000001 Q 0.537 -0.715 0.553 -0.716 Q 0.5680000000000001 -0.716 0.5700000000000001 -0.706 Q 0.5710000000000001 -0.7030000000000001 0.5720000000000001 -0.6920000000000001 L 0.633 -0.067 Q 0.636 -0.042 0.645 -0.037 L 0.646 -0.037 L 0.646 -0.037 L 0.646 -0.037 L 0.646 -0.037 L 0.646 -0.036000000000000004 Q 0.658 -0.031 0.6980000000000001 -0.031 Q 0.72 -0.031 0.721 -0.02 Q 0.721 0 0.7030000000000001 0 L 0.591 -0.003 L 0.59 -0.003 L 0.466 0 L 0.465 0 Q 0.451 0 0.451 -0.011 Q 0.459 -0.03 0.47500000000000003 -0.031 Q 0.547 -0.031 0.547 -0.064 Q 0.547 -0.063 0.531 -0.231 L 0.28 -0.231 L 0.20400000000000001 -0.10300000000000001 Q 0.19 -0.078 0.19 -0.066 Q 0.19 -0.035 0.23700000000000002 -0.031 Q 0.253 -0.031 0.253 -0.019 Q 0.253 0 0.234 0 L 0.138 -0.003 L 0.134 -0.003 L 0.05 0 L 0.048 0 Q 0.035 0 0.035 -0.011 Q 0.035 -0.029 0.05 -0.03 L 0.05 -0.031 L 0.056 -0.031 Q 0.11900000000000001 -0.035 0.159 -0.085 Q 0.169 -0.098 0.179 -0.115 M 0.299 -0.262 L 0.528 -0.262 L 0.496 -0.592 L 0.299 -0.262 Z"/></g><g transform="translate(25.23148348148148,20.351852574074073) scale(0.5,0.5)"><path fill="rgb(211,47,47)" stroke="none" paint-order="stroke fill markers" d=" M 0.255 -0.47900000000000004 L 0.076 -0.059000000000000004 Q 0.07 -0.045 0.063 -0.045 Q 0.045 -0.045 0.033 -0.056 Q 0.029 -0.059000000000000004 0.029 -0.063 Q 0.029 -0.065 0.032 -0.077 L 0.153 -0.513 Q 0.166 -0.554 0.197 -0.558 Q 0.202 -0.559 0.20600000000000002 -0.559 Q 0.24 -0.559 0.256 -0.53 Q 0.262 -0.519 0.262 -0.507 Q 0.262 -0.494 0.255 -0.47900000000000004 Z"/></g></g><path fill="rgb(211,47,47)" stroke="none" paint-order="stroke fill markers" d=" M 658.98752994249 365.18054795432033 C 658.98752994249 367.9419717034743 656.748953691644 370.18054795432033 653.98752994249 370.18054795432033 C 651.226106193336 370.18054795432033 648.98752994249 367.9419717034743 648.98752994249 365.18054795432033 C 648.98752994249 362.4191242051664 651.226106193336 360.18054795432033 653.98752994249 360.18054795432033 C 656.748953691644 360.18054795432033 658.98752994249 362.4191242051664 658.98752994249 365.18054795432033 Z" fill-opacity="1"/><path fill="none" stroke="rgb(0,0,0)" paint-order="fill stroke markers" d=" M 658.98752994249 365.18054795432033 C 658.98752994249 367.9419717034743 656.748953691644 370.18054795432033 653.98752994249 370.18054795432033 C 651.226106193336 370.18054795432033 648.98752994249 367.9419717034743 648.98752994249 365.18054795432033 C 648.98752994249 362.4191242051664 651.226106193336 360.18054795432033 653.98752994249 360.18054795432033 C 656.748953691644 360.18054795432033 658.98752994249 362.4191242051664 658.98752994249 365.18054795432033 Z" stroke-opacity="1" stroke-linecap="round" stroke-linejoin="round" stroke-miterlimit="10"/><text fill="rgb(211,47,47)" stroke="none" font-family="geogebra-sans-serif, sans-serif" font-size="24px" font-style="normal" font-weight="normal" text-decoration="normal" x="623" y="390" text-anchor="start" dominant-baseline="alphabetic" fill-opacity="1">D</text><text fill="none" stroke="rgb(255,255,255)" font-family="geogebra-sans-serif, sans-serif" font-size="24px" font-style="normal" font-weight="normal" text-decoration="normal" x="623" y="390" text-anchor="start" dominant-baseline="alphabetic" stroke-opacity="1" stroke-linejoin="bevel" stroke-miterlimit="10" stroke-width="3">D</text><text fill="rgb(211,47,47)" stroke="none" font-family="geogebra-sans-serif, sans-serif" font-size="24px" font-style="normal" font-weight="normal" text-decoration="normal" x="623" y="390" text-anchor="start" dominant-baseline="alphabetic" fill-opacity="1">D</text></g></g></svg>