<svg version="1.1" xmlns="http://www.w3.org/2000/svg" xmlns:xlink="http://www.w3.org/1999/xlink" width="1310" height="605"><defs><clipPath id="WGDMxhkRMeai"><path fill="none" stroke="none" d=" M 0 0 L 1310 0 L 1310 605 L 0 605 L 0 0 Z"/></clipPath></defs><g transform="scale(1,1)" clip-path="url(#WGDMxhkRMeai)"><g><rect fill="rgb(255,255,255)" stroke="none" x="0" y="0" width="1310" height="605" fill-opacity="1"/><path fill="none" stroke="rgb(0,0,0)" paint-order="fill stroke markers" d=" M 501 100.00000000000034 L 1017 98.00000000000034" stroke-opacity="0.6980392156862745" stroke-linecap="round" stroke-linejoin="round" stroke-miterlimit="10" stroke-width="2.5"/><path fill="none" stroke="rgb(0,0,0)" paint-order="fill stroke markers" d=" M 1017 98.00000000000034 L 859 501.0000000000001" stroke-opacity="0.6980392156862745" stroke-linecap="round" stroke-linejoin="round" stroke-miterlimit="10" stroke-width="2.5"/><path fill="none" stroke="rgb(0,0,0)" paint-order="fill stroke markers" d=" M 342.9999999999999 503.0000000000001 L 501 100.00000000000034" stroke-opacity="0.6980392156862745" stroke-linecap="round" stroke-linejoin="round" stroke-miterlimit="10" stroke-width="2.5"/><path fill="none" stroke="rgb(0,0,0)" paint-order="fill stroke markers" d=" M 342.9999999999999 503.0000000000001 L 859 501.0000000000001" stroke-opacity="0.6980392156862745" stroke-linecap="round" stroke-linejoin="round" stroke-miterlimit="10" stroke-width="2.5"/><path fill="none" stroke="rgb(0,0,0)" paint-order="fill stroke markers" d=" M 342.9999999999999 503.0000000000001 L 1017 98.00000000000034" stroke-opacity="0.6980392156862745" stroke-linecap="round" stroke-linejoin="round" stroke-miterlimit="10" stroke-width="2.5"/><path fill="none" stroke="rgb(0,0,0)" paint-order="fill stroke markers" d=" M 501 100.00000000000034 L 859 501.0000000000001" stroke-opacity="0.6980392156862745" stroke-linecap="round" stroke-linejoin="round" stroke-miterlimit="10" stroke-width="2.5"/><path fill="none" stroke="rgb(0,0,0)" paint-order="fill stroke markers" d=" M 501 100.00000000000034 L 524.7647301026464 502.2954855422379" stroke-opacity="0.6980392156862745" stroke-linecap="round" stroke-linejoin="round" stroke-miterlimit="10" stroke-width="2.5"/><path fill="none" stroke="rgb(0,0,0)" paint-order="fill stroke markers" d=" M 524.7647301026464 502.2954855422379 L 1017 98.00000000000034" stroke-opacity="0.6980392156862745" stroke-linecap="round" stroke-linejoin="round" stroke-miterlimit="10" stroke-width="2.5"/><path fill="rgb(21,101,192)" stroke="none" paint-order="stroke fill markers" d=" M 506 100.00000000000034 C 506 102.7614237491543 503.76142374915395 105.00000000000034 501 105.00000000000034 C 498.23857625084605 105.00000000000034 496 102.7614237491543 496 100.00000000000034 C 496 97.23857625084638 498.23857625084605 95.00000000000034 501 95.00000000000034 C 503.76142374915395 95.00000000000034 506 97.23857625084638 506 100.00000000000034 Z" fill-opacity="1"/><path fill="none" stroke="rgb(0,0,0)" paint-order="fill stroke markers" d=" M 506 100.00000000000034 C 506 102.7614237491543 503.76142374915395 105.00000000000034 501 105.00000000000034 C 498.23857625084605 105.00000000000034 496 102.7614237491543 496 100.00000000000034 C 496 97.23857625084638 498.23857625084605 95.00000000000034 501 95.00000000000034 C 503.76142374915395 95.00000000000034 506 97.23857625084638 506 100.00000000000034 Z" stroke-opacity="1" stroke-linecap="round" stroke-linejoin="round" stroke-miterlimit="10"/><text fill="rgb(21,101,192)" stroke="none" font-family="geogebra-sans-serif, sans-serif" font-size="24px" font-style="normal" font-weight="normal" text-decoration="normal" x="486" y="88" text-anchor="start" dominant-baseline="alphabetic" fill-opacity="1">A</text><text fill="none" stroke="rgb(255,255,255)" font-family="geogebra-sans-serif, sans-serif" font-size="24px" font-style="normal" font-weight="normal" text-decoration="normal" x="486" y="88" text-anchor="start" dominant-baseline="alphabetic" stroke-opacity="1" stroke-linejoin="bevel" stroke-miterlimit="10" stroke-width="3">A</text><text fill="rgb(21,101,192)" stroke="none" font-family="geogebra-sans-serif, sans-serif" font-size="24px" font-style="normal" font-weight="normal" text-decoration="normal" x="486" y="88" text-anchor="start" dominant-baseline="alphabetic" fill-opacity="1">A</text><path fill="rgb(21,101,192)" stroke="none" paint-order="stroke fill markers" d=" M 1022 98.00000000000034 C 1022 100.7614237491543 1019.761423749154 103.00000000000034 1017 103.00000000000034 C 1014.238576250846 103.00000000000034 1012 100.7614237491543 1012 98.00000000000034 C 1012 95.23857625084638 1014.238576250846 93.00000000000034 1017 93.00000000000034 C 1019.761423749154 93.00000000000034 1022 95.23857625084638 1022 98.00000000000034 Z" fill-opacity="1"/><path fill="none" stroke="rgb(0,0,0)" paint-order="fill stroke markers" d=" M 1022 98.00000000000034 C 1022 100.7614237491543 1019.761423749154 103.00000000000034 1017 103.00000000000034 C 1014.238576250846 103.00000000000034 1012 100.7614237491543 1012 98.00000000000034 C 1012 95.23857625084638 1014.238576250846 93.00000000000034 1017 93.00000000000034 C 1019.761423749154 93.00000000000034 1022 95.23857625084638 1022 98.00000000000034 Z" stroke-opacity="1" stroke-linecap="round" stroke-linejoin="round" stroke-miterlimit="10"/><text fill="rgb(21,101,192)" stroke="none" font-family="geogebra-sans-serif, sans-serif" font-size="24px" font-style="normal" font-weight="normal" text-decoration="normal" x="1021" y="88" text-anchor="start" dominant-baseline="alphabetic" fill-opacity="1">B</text><text fill="none" stroke="rgb(255,255,255)" font-family="geogebra-sans-serif, sans-serif" font-size="24px" font-style="normal" font-weight="normal" text-decoration="normal" x="1021" y="88" text-anchor="start" dominant-baseline="alphabetic" stroke-opacity="1" stroke-linejoin="bevel" stroke-miterlimit="10" stroke-width="3">B</text><text fill="rgb(21,101,192)" stroke="none" font-family="geogebra-sans-serif, sans-serif" font-size="24px" font-style="normal" font-weight="normal" text-decoration="normal" x="1021" y="88" text-anchor="start" dominant-baseline="alphabetic" fill-opacity="1">B</text><path fill="rgb(21,101,192)" stroke="none" paint-order="stroke fill markers" d=" M 864 501.0000000000001 C 864 503.76142374915406 861.761423749154 506.0000000000001 859 506.0000000000001 C 856.238576250846 506.0000000000001 854 503.76142374915406 854 501.0000000000001 C 854 498.23857625084617 856.238576250846 496.0000000000001 859 496.0000000000001 C 861.761423749154 496.0000000000001 864 498.23857625084617 864 501.0000000000001 Z" fill-opacity="1"/><path fill="none" stroke="rgb(0,0,0)" paint-order="fill stroke markers" d=" M 864 501.0000000000001 C 864 503.76142374915406 861.761423749154 506.0000000000001 859 506.0000000000001 C 856.238576250846 506.0000000000001 854 503.76142374915406 854 501.0000000000001 C 854 498.23857625084617 856.238576250846 496.0000000000001 859 496.0000000000001 C 861.761423749154 496.0000000000001 864 498.23857625084617 864 501.0000000000001 Z" stroke-opacity="1" stroke-linecap="round" stroke-linejoin="round" stroke-miterlimit="10"/><text fill="rgb(21,101,192)" stroke="none" font-family="geogebra-sans-serif, sans-serif" font-size="24px" font-style="normal" font-weight="normal" text-decoration="normal" x="875" y="533" text-anchor="start" dominant-baseline="alphabetic" fill-opacity="1">C</text><text fill="none" stroke="rgb(255,255,255)" font-family="geogebra-sans-serif, sans-serif" font-size="24px" font-style="normal" font-weight="normal" text-decoration="normal" x="875" y="533" text-anchor="start" dominant-baseline="alphabetic" stroke-opacity="1" stroke-linejoin="bevel" stroke-miterlimit="10" stroke-width="3">C</text><text fill="rgb(21,101,192)" stroke="none" font-family="geogebra-sans-serif, sans-serif" font-size="24px" font-style="normal" font-weight="normal" text-decoration="normal" x="875" y="533" text-anchor="start" dominant-baseline="alphabetic" fill-opacity="1">C</text><path fill="rgb(21,101,192)" stroke="none" paint-order="stroke fill markers" d=" M 347.9999999999999 503.0000000000001 C 347.9999999999999 505.76142374915406 345.76142374915383 508.0000000000001 342.9999999999999 508.0000000000001 C 340.23857625084594 508.0000000000001 337.9999999999999 505.76142374915406 337.9999999999999 503.0000000000001 C 337.9999999999999 500.23857625084617 340.23857625084594 498.0000000000001 342.9999999999999 498.0000000000001 C 345.76142374915383 498.0000000000001 347.9999999999999 500.23857625084617 347.9999999999999 503.0000000000001 Z" fill-opacity="1"/><path fill="none" stroke="rgb(0,0,0)" paint-order="fill stroke markers" d=" M 347.9999999999999 503.0000000000001 C 347.9999999999999 505.76142374915406 345.76142374915383 508.0000000000001 342.9999999999999 508.0000000000001 C 340.23857625084594 508.0000000000001 337.9999999999999 505.76142374915406 337.9999999999999 503.0000000000001 C 337.9999999999999 500.23857625084617 340.23857625084594 498.0000000000001 342.9999999999999 498.0000000000001 C 345.76142374915383 498.0000000000001 347.9999999999999 500.23857625084617 347.9999999999999 503.0000000000001 Z" stroke-opacity="1" stroke-linecap="round" stroke-linejoin="round" stroke-miterlimit="10"/><text fill="rgb(21,101,192)" stroke="none" font-family="geogebra-sans-serif, sans-serif" font-size="24px" font-style="normal" font-weight="normal" text-decoration="normal" x="310" y="538" text-anchor="start" dominant-baseline="alphabetic" fill-opacity="1">D</text><text fill="none" stroke="rgb(255,255,255)" font-family="geogebra-sans-serif, sans-serif" font-size="24px" font-style="normal" font-weight="normal" text-decoration="normal" x="310" y="538" text-anchor="start" dominant-baseline="alphabetic" stroke-opacity="1" stroke-linejoin="bevel" stroke-miterlimit="10" stroke-width="3">D</text><text fill="rgb(21,101,192)" stroke="none" font-family="geogebra-sans-serif, sans-serif" font-size="24px" font-style="normal" font-weight="normal" text-decoration="normal" x="310" y="538" text-anchor="start" dominant-baseline="alphabetic" fill-opacity="1">D</text><path fill="rgb(211,47,47)" stroke="none" paint-order="stroke fill markers" d=" M 685 300.5000000000002 C 685 303.2614237491542 682.761423749154 305.5000000000002 680 305.5000000000002 C 677.238576250846 305.5000000000002 675 303.2614237491542 675 300.5000000000002 C 675 297.7385762508463 677.238576250846 295.5000000000002 680 295.5000000000002 C 682.761423749154 295.5000000000002 685 297.7385762508463 685 300.5000000000002 Z" fill-opacity="1"/><path fill="none" stroke="rgb(0,0,0)" paint-order="fill stroke markers" d=" M 685 300.5000000000002 C 685 303.2614237491542 682.761423749154 305.5000000000002 680 305.5000000000002 C 677.238576250846 305.5000000000002 675 303.2614237491542 675 300.5000000000002 C 675 297.7385762508463 677.238576250846 295.5000000000002 680 295.5000000000002 C 682.761423749154 295.5000000000002 685 297.7385762508463 685 300.5000000000002 Z" stroke-opacity="1" stroke-linecap="round" stroke-linejoin="round" stroke-miterlimit="10"/><text fill="rgb(211,47,47)" stroke="none" font-family="geogebra-sans-serif, sans-serif" font-size="24px" font-style="normal" font-weight="normal" text-decoration="normal" x="682" y="291" text-anchor="start" dominant-baseline="alphabetic" fill-opacity="1">O</text><text fill="none" stroke="rgb(255,255,255)" font-family="geogebra-sans-serif, sans-serif" font-size="24px" font-style="normal" font-weight="normal" text-decoration="normal" x="682" y="291" text-anchor="start" dominant-baseline="alphabetic" stroke-opacity="1" stroke-linejoin="bevel" stroke-miterlimit="10" stroke-width="3">O</text><text fill="rgb(211,47,47)" stroke="none" font-family="geogebra-sans-serif, sans-serif" font-size="24px" font-style="normal" font-weight="normal" text-decoration="normal" x="682" y="291" text-anchor="start" dominant-baseline="alphabetic" fill-opacity="1">O</text><path fill="rgb(46,125,50)" stroke="none" paint-order="stroke fill markers" d=" M 529.7647301026464 502.2954855422379 C 529.7647301026464 505.05690929139183 527.5261538518004 507.2954855422379 524.7647301026464 507.2954855422379 C 522.0033063534923 507.2954855422379 519.7647301026464 505.05690929139183 519.7647301026464 502.2954855422379 C 519.7647301026464 499.53406179308394 522.0033063534923 497.2954855422379 524.7647301026464 497.2954855422379 C 527.5261538518004 497.2954855422379 529.7647301026464 499.53406179308394 529.7647301026464 502.2954855422379 Z" fill-opacity="1"/><path fill="none" stroke="rgb(0,0,0)" paint-order="fill stroke markers" d=" M 529.7647301026464 502.2954855422379 C 529.7647301026464 505.05690929139183 527.5261538518004 507.2954855422379 524.7647301026464 507.2954855422379 C 522.0033063534923 507.2954855422379 519.7647301026464 505.05690929139183 519.7647301026464 502.2954855422379 C 519.7647301026464 499.53406179308394 522.0033063534923 497.2954855422379 524.7647301026464 497.2954855422379 C 527.5261538518004 497.2954855422379 529.7647301026464 499.53406179308394 529.7647301026464 502.2954855422379 Z" stroke-opacity="1" stroke-linecap="round" stroke-linejoin="round" stroke-miterlimit="10"/><text fill="rgb(46,125,50)" stroke="none" font-family="geogebra-sans-serif, sans-serif" font-size="24px" font-style="normal" font-weight="normal" text-decoration="normal" x="527" y="534" text-anchor="start" dominant-baseline="alphabetic" fill-opacity="1">M</text><text fill="none" stroke="rgb(255,255,255)" font-family="geogebra-sans-serif, sans-serif" font-size="24px" font-style="normal" font-weight="normal" text-decoration="normal" x="527" y="534" text-anchor="start" dominant-baseline="alphabetic" stroke-opacity="1" stroke-linejoin="bevel" stroke-miterlimit="10" stroke-width="3">M</text><text fill="rgb(46,125,50)" stroke="none" font-family="geogebra-sans-serif, sans-serif" font-size="24px" font-style="normal" font-weight="normal" text-decoration="normal" x="527" y="534" text-anchor="start" dominant-baseline="alphabetic" fill-opacity="1">M</text><path fill="rgb(0,0,0)" stroke="none" paint-order="stroke fill markers" d=" M 523.5741194760038 397.4992308786625 C 523.5741194760038 400.26065462781645 521.3355432251578 402.4992308786625 518.5741194760038 402.4992308786625 C 515.8126957268498 402.4992308786625 513.5741194760038 400.26065462781645 513.5741194760038 397.4992308786625 C 513.5741194760038 394.73780712950855 515.8126957268498 392.4992308786625 518.5741194760038 392.4992308786625 C 521.3355432251578 392.4992308786625 523.5741194760038 394.73780712950855 523.5741194760038 397.4992308786625 Z" fill-opacity="1"/><path fill="none" stroke="rgb(0,0,0)" paint-order="fill stroke markers" d=" M 523.5741194760038 397.4992308786625 C 523.5741194760038 400.26065462781645 521.3355432251578 402.4992308786625 518.5741194760038 402.4992308786625 C 515.8126957268498 402.4992308786625 513.5741194760038 400.26065462781645 513.5741194760038 397.4992308786625 C 513.5741194760038 394.73780712950855 515.8126957268498 392.4992308786625 518.5741194760038 392.4992308786625 C 521.3355432251578 392.4992308786625 523.5741194760038 394.73780712950855 523.5741194760038 397.4992308786625 Z" stroke-opacity="1" stroke-linecap="round" stroke-linejoin="round" stroke-miterlimit="10"/><text fill="rgb(0,0,0)" stroke="none" font-family="geogebra-sans-serif, sans-serif" font-size="24px" font-style="normal" font-weight="normal" text-decoration="normal" x="523" y="387" text-anchor="start" dominant-baseline="alphabetic" fill-opacity="1">E</text><text fill="none" stroke="rgb(255,255,255)" font-family="geogebra-sans-serif, sans-serif" font-size="24px" font-style="normal" font-weight="normal" text-decoration="normal" x="523" y="387" text-anchor="start" dominant-baseline="alphabetic" stroke-opacity="1" stroke-linejoin="bevel" stroke-miterlimit="10" stroke-width="3">E</text><text fill="rgb(0,0,0)" stroke="none" font-family="geogebra-sans-serif, sans-serif" font-size="24px" font-style="normal" font-weight="normal" text-decoration="normal" x="523" y="387" text-anchor="start" dominant-baseline="alphabetic" fill-opacity="1">E</text><path fill="rgb(0,0,0)" stroke="none" paint-order="stroke fill markers" d=" M 723.2669219218601 343.36322818621784 C 723.2669219218601 346.1246519353718 721.0283456710141 348.36322818621784 718.2669219218601 348.36322818621784 C 715.5054981727061 348.36322818621784 713.2669219218601 346.1246519353718 713.2669219218601 343.36322818621784 C 713.2669219218601 340.6018044370639 715.5054981727061 338.36322818621784 718.2669219218601 338.36322818621784 C 721.0283456710141 338.36322818621784 723.2669219218601 340.6018044370639 723.2669219218601 343.36322818621784 Z" fill-opacity="1"/><path fill="none" stroke="rgb(0,0,0)" paint-order="fill stroke markers" d=" M 723.2669219218601 343.36322818621784 C 723.2669219218601 346.1246519353718 721.0283456710141 348.36322818621784 718.2669219218601 348.36322818621784 C 715.5054981727061 348.36322818621784 713.2669219218601 346.1246519353718 713.2669219218601 343.36322818621784 C 713.2669219218601 340.6018044370639 715.5054981727061 338.36322818621784 718.2669219218601 338.36322818621784 C 721.0283456710141 338.36322818621784 723.2669219218601 340.6018044370639 723.2669219218601 343.36322818621784 Z" stroke-opacity="1" stroke-linecap="round" stroke-linejoin="round" stroke-miterlimit="10"/><text fill="rgb(0,0,0)" stroke="none" font-family="geogebra-sans-serif, sans-serif" font-size="24px" font-style="normal" font-weight="normal" text-decoration="normal" x="722" y="333" text-anchor="start" dominant-baseline="alphabetic" fill-opacity="1">F</text><text fill="none" stroke="rgb(255,255,255)" font-family="geogebra-sans-serif, sans-serif" font-size="24px" font-style="normal" font-weight="normal" text-decoration="normal" x="722" y="333" text-anchor="start" dominant-baseline="alphabetic" stroke-opacity="1" stroke-linejoin="bevel" stroke-miterlimit="10" stroke-width="3">F</text><text fill="rgb(0,0,0)" stroke="none" font-family="geogebra-sans-serif, sans-serif" font-size="24px" font-style="normal" font-weight="normal" text-decoration="normal" x="722" y="333" text-anchor="start" dominant-baseline="alphabetic" fill-opacity="1">F</text></g></g></svg>