<?xml version="1.0" encoding="UTF-8"?>
<svg xmlns="http://www.w3.org/2000/svg" xmlns:xlink="http://www.w3.org/1999/xlink" width="1366pt" height="565pt" viewBox="0 0 1366 565" version="1.1">
<g id="surface1">
<path style="fill:none;stroke-width:3;stroke-linecap:round;stroke-linejoin:round;stroke:rgb(0%,0%,100%);stroke-opacity:1;stroke-miterlimit:10;" d="M 703.070312 89.128906 L 74.578125 89.128906 " transform="matrix(1,0,0,-1,0,565)"/>
<path style="fill:none;stroke-width:3;stroke-linecap:round;stroke-linejoin:round;stroke:rgb(0%,0%,100%);stroke-opacity:1;stroke-miterlimit:10;" d="M 74.578125 89.128906 L 169.390625 486.460938 " transform="matrix(1,0,0,-1,0,565)"/>
<path style="fill:none;stroke-width:3;stroke-linecap:round;stroke-linejoin:round;stroke:rgb(0%,0%,100%);stroke-opacity:1;stroke-miterlimit:10;" d="M 703.070312 89.128906 L 411.121094 486.460938 " transform="matrix(1,0,0,-1,0,565)"/>
<path style="fill:none;stroke-width:3;stroke-linecap:round;stroke-linejoin:round;stroke:rgb(0%,0%,100%);stroke-opacity:1;stroke-miterlimit:10;" d="M 411.121094 486.460938 L 169.390625 486.460938 " transform="matrix(1,0,0,-1,0,565)"/>
<path style="fill:none;stroke-width:3;stroke-linecap:round;stroke-linejoin:round;stroke:rgb(0%,0%,100%);stroke-opacity:1;stroke-miterlimit:10;" d="M 513.511719 347.109375 L 136.140625 347.109375 " transform="matrix(1,0,0,-1,0,565)"/>
<path style="fill-rule:nonzero;fill:rgb(100%,0%,0%);fill-opacity:1;stroke-width:1;stroke-linecap:square;stroke-linejoin:miter;stroke:rgb(0%,0%,0%);stroke-opacity:1;stroke-miterlimit:10;" d="M 174.390625 486.460938 C 174.390625 483.699219 172.148438 481.460938 169.390625 481.460938 C 166.628906 481.460938 164.390625 483.699219 164.390625 486.460938 C 164.390625 489.21875 166.628906 491.460938 169.390625 491.460938 C 172.148438 491.460938 174.390625 489.21875 174.390625 486.460938 Z M 174.390625 486.460938 " transform="matrix(1,0,0,-1,0,565)"/>
<path style="fill-rule:nonzero;fill:rgb(100%,0%,0%);fill-opacity:1;stroke-width:1;stroke-linecap:square;stroke-linejoin:miter;stroke:rgb(0%,0%,0%);stroke-opacity:1;stroke-miterlimit:10;" d="M 79.578125 89.128906 C 79.578125 86.371094 77.339844 84.128906 74.578125 84.128906 C 71.820312 84.128906 69.578125 86.371094 69.578125 89.128906 C 69.578125 91.890625 71.820312 94.128906 74.578125 94.128906 C 77.339844 94.128906 79.578125 91.890625 79.578125 89.128906 Z M 79.578125 89.128906 " transform="matrix(1,0,0,-1,0,565)"/>
<path style="fill-rule:nonzero;fill:rgb(100%,0%,0%);fill-opacity:1;stroke-width:1;stroke-linecap:square;stroke-linejoin:miter;stroke:rgb(0%,0%,0%);stroke-opacity:1;stroke-miterlimit:10;" d="M 708.070312 89.128906 C 708.070312 86.371094 705.828125 84.128906 703.070312 84.128906 C 700.308594 84.128906 698.070312 86.371094 698.070312 89.128906 C 698.070312 91.890625 700.308594 94.128906 703.070312 94.128906 C 705.828125 94.128906 708.070312 91.890625 708.070312 89.128906 Z M 708.070312 89.128906 " transform="matrix(1,0,0,-1,0,565)"/>
<path style="fill-rule:nonzero;fill:rgb(100%,0%,0%);fill-opacity:1;stroke-width:1;stroke-linecap:square;stroke-linejoin:miter;stroke:rgb(0%,0%,0%);stroke-opacity:1;stroke-miterlimit:10;" d="M 416.121094 486.460938 C 416.121094 483.699219 413.878906 481.460938 411.121094 481.460938 C 408.359375 481.460938 406.121094 483.699219 406.121094 486.460938 C 406.121094 489.21875 408.359375 491.460938 411.121094 491.460938 C 413.878906 491.460938 416.121094 489.21875 416.121094 486.460938 Z M 416.121094 486.460938 " transform="matrix(1,0,0,-1,0,565)"/>
<path style="fill-rule:nonzero;fill:rgb(100%,0%,0%);fill-opacity:1;stroke-width:1;stroke-linecap:square;stroke-linejoin:miter;stroke:rgb(0%,0%,0%);stroke-opacity:1;stroke-miterlimit:10;" d="M 141.140625 347.109375 C 141.140625 344.351562 138.898438 342.109375 136.140625 342.109375 C 133.378906 342.109375 131.140625 344.351562 131.140625 347.109375 C 131.140625 349.871094 133.378906 352.109375 136.140625 352.109375 C 138.898438 352.109375 141.140625 349.871094 141.140625 347.109375 Z M 141.140625 347.109375 " transform="matrix(1,0,0,-1,0,565)"/>
<path style="fill-rule:nonzero;fill:rgb(69.802856%,0%,0%);fill-opacity:1;stroke-width:1;stroke-linecap:square;stroke-linejoin:miter;stroke:rgb(0%,0%,0%);stroke-opacity:1;stroke-miterlimit:10;" d="M 518.511719 347.109375 C 518.511719 344.351562 516.269531 342.109375 513.511719 342.109375 C 510.75 342.109375 508.511719 344.351562 508.511719 347.109375 C 508.511719 349.871094 510.75 352.109375 513.511719 352.109375 C 516.269531 352.109375 518.511719 349.871094 518.511719 347.109375 Z M 518.511719 347.109375 " transform="matrix(1,0,0,-1,0,565)"/>
<path style=" stroke:none;fill-rule:nonzero;fill:rgb(0%,0%,0%);fill-opacity:1;" d="M 152.25 46.050781 L 148.230469 56.921875 L 156.28125 56.921875 Z M 150.578125 43.121094 L 153.941406 43.121094 L 162.28125 65 L 159.199219 65 L 157.199219 59.390625 L 147.339844 59.390625 L 145.359375 65 L 142.230469 65 Z M 150.578125 43.121094 "/>
<path style=" stroke:none;fill-rule:nonzero;fill:rgb(0%,0%,0%);fill-opacity:1;" d="M 45.910156 495.558594 L 45.910156 503.558594 L 50.660156 503.558594 C 50.660156 503.558594 53.03125 503.558594 54.191406 502.578125 C 54.191406 502.578125 55.339844 501.589844 55.339844 499.550781 C 55.339844 499.550781 55.339844 497.5 54.191406 496.53125 C 54.191406 496.53125 53.03125 495.558594 50.660156 495.558594 Z M 45.910156 486.558594 L 45.910156 493.160156 L 50.28125 493.160156 C 50.28125 493.160156 52.449219 493.160156 53.519531 492.339844 C 53.519531 492.339844 54.578125 491.53125 54.578125 489.859375 C 54.578125 489.859375 54.578125 488.199219 53.519531 487.390625 C 53.519531 487.390625 52.449219 486.558594 50.28125 486.558594 Z M 42.941406 484.121094 L 50.5 484.121094 C 50.5 484.121094 53.890625 484.121094 55.71875 485.53125 C 55.71875 485.53125 57.550781 486.941406 57.550781 489.53125 C 57.550781 489.53125 57.550781 491.550781 56.609375 492.730469 C 56.609375 492.730469 55.671875 493.921875 53.859375 494.199219 C 53.859375 494.199219 56.050781 494.671875 57.25 496.171875 C 57.25 496.171875 58.449219 497.660156 58.449219 499.871094 C 58.449219 499.871094 58.449219 502.808594 56.449219 504.410156 C 56.449219 504.410156 54.46875 506 50.800781 506 L 42.941406 506 Z M 42.941406 484.121094 "/>
<path style=" stroke:none;fill-rule:nonzero;fill:rgb(0%,0%,0%);fill-opacity:1;" d="M 738.328125 478.808594 L 738.328125 481.941406 C 738.328125 481.941406 736.828125 480.550781 735.128906 479.859375 C 735.128906 479.859375 733.441406 479.171875 731.550781 479.171875 C 731.550781 479.171875 727.800781 479.171875 725.800781 481.46875 C 725.800781 481.46875 723.808594 483.75 723.808594 488.089844 C 723.808594 488.089844 723.808594 492.410156 725.800781 494.699219 C 725.800781 494.699219 727.800781 497 731.550781 497 C 731.550781 497 733.441406 497 735.128906 496.308594 C 735.128906 496.308594 736.828125 495.609375 738.328125 494.21875 L 738.328125 497.308594 C 738.328125 497.308594 736.769531 498.371094 735.03125 498.910156 C 735.03125 498.910156 733.300781 499.421875 731.359375 499.421875 C 731.359375 499.421875 726.390625 499.421875 723.53125 496.390625 C 723.53125 496.390625 720.691406 493.339844 720.691406 488.089844 C 720.691406 488.089844 720.691406 482.808594 723.53125 479.78125 C 723.53125 479.78125 726.390625 476.730469 731.359375 476.730469 C 731.359375 476.730469 733.328125 476.730469 735.058594 477.269531 C 735.058594 477.269531 736.800781 477.78125 738.328125 478.808594 Z M 738.328125 478.808594 "/>
<path style=" stroke:none;fill-rule:nonzero;fill:rgb(0%,0%,0%);fill-opacity:1;" d="M 426.910156 47.558594 L 426.910156 64.558594 L 430.480469 64.558594 C 430.480469 64.558594 435 64.558594 437.089844 62.519531 C 437.089844 62.519531 439.199219 60.46875 439.199219 56.050781 C 439.199219 56.050781 439.199219 51.640625 437.089844 49.609375 C 437.089844 49.609375 435 47.558594 430.480469 47.558594 Z M 423.941406 45.121094 L 430.03125 45.121094 C 430.03125 45.121094 436.378906 45.121094 439.339844 47.78125 C 439.339844 47.78125 442.328125 50.421875 442.328125 56.050781 C 442.328125 56.050781 442.328125 61.699219 439.339844 64.359375 C 439.339844 64.359375 436.359375 67 430.03125 67 L 423.941406 67 Z M 423.941406 45.121094 "/>
<path style=" stroke:none;fill-rule:nonzero;fill:rgb(0%,0%,0%);fill-opacity:1;" d="M 97.941406 201.121094 L 111.769531 201.121094 L 111.769531 203.621094 L 100.910156 203.621094 L 100.910156 210.089844 L 111.308594 210.089844 L 111.308594 212.578125 L 100.910156 212.578125 L 100.910156 220.519531 L 112.03125 220.519531 L 112.03125 223 L 97.941406 223 Z M 97.941406 201.121094 "/>
<path style=" stroke:none;fill-rule:nonzero;fill:rgb(0%,0%,0%);fill-opacity:1;" d="M 535.941406 203.121094 L 548.519531 203.121094 L 548.519531 205.621094 L 538.910156 205.621094 L 538.910156 212.058594 L 547.578125 212.058594 L 547.578125 214.558594 L 538.910156 214.558594 L 538.910156 225 L 535.941406 225 Z M 535.941406 203.121094 "/>
</g>
</svg>
