<svg version="1.1" xmlns="http://www.w3.org/2000/svg" xmlns:xlink="http://www.w3.org/1999/xlink" width="1310" height="704"><defs><clipPath id="amzHOFVCrXmJ"><path fill="none" stroke="none" d=" M 0 0 L 1310 0 L 1310 704 L 0 704 L 0 0 Z"/></clipPath></defs><g transform="scale(1,1)" clip-path="url(#amzHOFVCrXmJ)"><g><rect fill="rgb(255,255,255)" stroke="none" x="0" y="0" width="1310" height="704" fill-opacity="1"/><path fill="rgb(21,101,192)" stroke="none" paint-order="stroke fill markers" fill-rule="evenodd" d=" M 792.0000000000001 365.295775525702 L 506.3369268497241 365.295775525702 L 506.3369268497241 650.9588486759785 L 792 650.9588486759785 Z" fill-opacity="0.09803921568627451"/><path fill="none" stroke="rgb(21,101,192)" paint-order="fill stroke markers" d=" M 792.0000000000001 365.295775525702 L 506.3369268497241 365.295775525702 L 506.3369268497241 650.9588486759785 L 792 650.9588486759785 Z" stroke-opacity="0.8" stroke-linecap="round" stroke-linejoin="round" stroke-miterlimit="10" stroke-width="2.5"/><path fill="rgb(21,101,192)" stroke="none" paint-order="stroke fill markers" fill-rule="evenodd" d=" M 554.2893645849848 258.53059185729904 L 792.0000000000001 365.295775525702 L 898.7651836684029 127.58514011068638 L 661.0545482533877 20.8199564422834 Z" fill-opacity="0.09803921568627451"/><path fill="none" stroke="rgb(21,101,192)" paint-order="fill stroke markers" d=" M 554.2893645849848 258.53059185729904 L 792.0000000000001 365.295775525702 L 898.7651836684029 127.58514011068638 L 661.0545482533877 20.8199564422834 Z" stroke-opacity="0.8" stroke-linecap="round" stroke-linejoin="round" stroke-miterlimit="10" stroke-width="2.5"/><path fill="rgb(21,101,192)" stroke="none" paint-order="stroke fill markers" fill-rule="evenodd" d=" M 506.3369268497241 365.295775525702 L 554.2893645849848 258.53059185729904 L 447.524180916582 210.57815412203828 L 399.57174318132127 317.34333779044124 Z" fill-opacity="0.09803921568627451"/><path fill="none" stroke="rgb(21,101,192)" paint-order="fill stroke markers" d=" M 506.3369268497241 365.295775525702 L 554.2893645849848 258.53059185729904 L 447.524180916582 210.57815412203828 L 399.57174318132127 317.34333779044124 Z" stroke-opacity="0.8" stroke-linecap="round" stroke-linejoin="round" stroke-miterlimit="10" stroke-width="2.5"/><path fill="rgb(0,0,0)" stroke="none" paint-order="stroke fill markers" fill-rule="evenodd" d=" M 554.2893645849848 258.53059185729904 L 547.0466177688623 274.6564288451117 L 563.1724547566756 281.89917566123574 L 570.4152015727975 265.7733386734215 L 554.2893645849848 258.53059185729904" fill-opacity="0.09803921568627451"/><path fill="none" stroke="rgb(0,0,0)" paint-order="fill stroke markers" d=" M 554.2893645849848 258.53059185729904 L 547.0466177688623 274.6564288451117 L 563.1724547566756 281.89917566123574 L 570.4152015727975 265.7733386734215 L 554.2893645849848 258.53059185729904" stroke-opacity="0.6" stroke-linecap="round" stroke-linejoin="round" stroke-miterlimit="10" stroke-width="2.5"/><path fill="none" stroke="rgb(0,0,0)" paint-order="fill stroke markers" d=" M 506.3369268497241 365.295775525702 L 792.0000000000001 365.295775525702" stroke-opacity="0.6980392156862745" stroke-linecap="round" stroke-linejoin="round" stroke-miterlimit="10" stroke-width="2.5"/><path fill="none" stroke="rgb(0,0,0)" paint-order="fill stroke markers" d=" M 554.2893645849848 258.53059185729904 L 506.3369268497241 365.295775525702" stroke-opacity="0.6980392156862745" stroke-linecap="round" stroke-linejoin="round" stroke-miterlimit="10" stroke-width="2.5"/><path fill="none" stroke="rgb(0,0,0)" paint-order="fill stroke markers" d=" M 554.2893645849848 258.53059185729904 L 792.0000000000001 365.295775525702" stroke-opacity="0.6980392156862745" stroke-linecap="round" stroke-linejoin="round" stroke-miterlimit="10" stroke-width="2.5"/><path fill="none" stroke="rgb(21,101,192)" paint-order="fill stroke markers" d=" M 792.0000000000001 365.295775525702 L 506.3369268497241 365.295775525702" stroke-opacity="0.6980392156862745" stroke-linecap="round" stroke-linejoin="round" stroke-miterlimit="10" stroke-width="2.5"/><path fill="none" stroke="rgb(21,101,192)" paint-order="fill stroke markers" d=" M 506.3369268497241 365.295775525702 L 506.3369268497241 650.9588486759785" stroke-opacity="0.6980392156862745" stroke-linecap="round" stroke-linejoin="round" stroke-miterlimit="10" stroke-width="2.5"/><path fill="none" stroke="rgb(21,101,192)" paint-order="fill stroke markers" d=" M 506.3369268497241 650.9588486759785 L 792 650.9588486759785" stroke-opacity="0.6980392156862745" stroke-linecap="round" stroke-linejoin="round" stroke-miterlimit="10" stroke-width="2.5"/><path fill="none" stroke="rgb(21,101,192)" paint-order="fill stroke markers" d=" M 792 650.9588486759785 L 792.0000000000001 365.295775525702" stroke-opacity="0.6980392156862745" stroke-linecap="round" stroke-linejoin="round" stroke-miterlimit="10" stroke-width="2.5"/><path fill="none" stroke="rgb(21,101,192)" paint-order="fill stroke markers" d=" M 554.2893645849848 258.53059185729904 L 792.0000000000001 365.295775525702" stroke-opacity="0.6980392156862745" stroke-linecap="round" stroke-linejoin="round" stroke-miterlimit="10" stroke-width="2.5"/><path fill="none" stroke="rgb(21,101,192)" paint-order="fill stroke markers" d=" M 792.0000000000001 365.295775525702 L 898.7651836684029 127.58514011068638" stroke-opacity="0.6980392156862745" stroke-linecap="round" stroke-linejoin="round" stroke-miterlimit="10" stroke-width="2.5"/><path fill="none" stroke="rgb(21,101,192)" paint-order="fill stroke markers" d=" M 898.7651836684029 127.58514011068638 L 661.0545482533877 20.8199564422834" stroke-opacity="0.6980392156862745" stroke-linecap="round" stroke-linejoin="round" stroke-miterlimit="10" stroke-width="2.5"/><path fill="none" stroke="rgb(21,101,192)" paint-order="fill stroke markers" d=" M 661.0545482533877 20.8199564422834 L 554.2893645849848 258.53059185729904" stroke-opacity="0.6980392156862745" stroke-linecap="round" stroke-linejoin="round" stroke-miterlimit="10" stroke-width="2.5"/><path fill="none" stroke="rgb(21,101,192)" paint-order="fill stroke markers" d=" M 506.3369268497241 365.295775525702 L 554.2893645849848 258.53059185729904" stroke-opacity="0.6980392156862745" stroke-linecap="round" stroke-linejoin="round" stroke-miterlimit="10" stroke-width="2.5"/><path fill="none" stroke="rgb(21,101,192)" paint-order="fill stroke markers" d=" M 554.2893645849848 258.53059185729904 L 447.524180916582 210.57815412203828" stroke-opacity="0.6980392156862745" stroke-linecap="round" stroke-linejoin="round" stroke-miterlimit="10" stroke-width="2.5"/><path fill="none" stroke="rgb(21,101,192)" paint-order="fill stroke markers" d=" M 447.524180916582 210.57815412203828 L 399.57174318132127 317.34333779044124" stroke-opacity="0.6980392156862745" stroke-linecap="round" stroke-linejoin="round" stroke-miterlimit="10" stroke-width="2.5"/><path fill="none" stroke="rgb(21,101,192)" paint-order="fill stroke markers" d=" M 399.57174318132127 317.34333779044124 L 506.3369268497241 365.295775525702" stroke-opacity="0.6980392156862745" stroke-linecap="round" stroke-linejoin="round" stroke-miterlimit="10" stroke-width="2.5"/><path fill="rgb(21,101,192)" stroke="none" paint-order="stroke fill markers" d=" M 511.3369268497241 365.295775525702 C 511.3369268497241 368.057199274856 509.098350598878 370.295775525702 506.3369268497241 370.295775525702 C 503.57550310057013 370.295775525702 501.3369268497241 368.057199274856 501.3369268497241 365.295775525702 C 501.3369268497241 362.5343517765481 503.57550310057013 360.295775525702 506.3369268497241 360.295775525702 C 509.098350598878 360.295775525702 511.3369268497241 362.5343517765481 511.3369268497241 365.295775525702 Z" fill-opacity="1"/><path fill="none" stroke="rgb(0,0,0)" paint-order="fill stroke markers" d=" M 511.3369268497241 365.295775525702 C 511.3369268497241 368.057199274856 509.098350598878 370.295775525702 506.3369268497241 370.295775525702 C 503.57550310057013 370.295775525702 501.3369268497241 368.057199274856 501.3369268497241 365.295775525702 C 501.3369268497241 362.5343517765481 503.57550310057013 360.295775525702 506.3369268497241 360.295775525702 C 509.098350598878 360.295775525702 511.3369268497241 362.5343517765481 511.3369268497241 365.295775525702 Z" stroke-opacity="1" stroke-linecap="round" stroke-linejoin="round" stroke-miterlimit="10"/><path fill="rgb(21,101,192)" stroke="none" paint-order="stroke fill markers" d=" M 797.0000000000001 365.295775525702 C 797.0000000000001 368.057199274856 794.7614237491541 370.295775525702 792.0000000000001 370.295775525702 C 789.2385762508461 370.295775525702 787.0000000000001 368.057199274856 787.0000000000001 365.295775525702 C 787.0000000000001 362.5343517765481 789.2385762508461 360.295775525702 792.0000000000001 360.295775525702 C 794.7614237491541 360.295775525702 797.0000000000001 362.5343517765481 797.0000000000001 365.295775525702 Z" fill-opacity="1"/><path fill="none" stroke="rgb(0,0,0)" paint-order="fill stroke markers" d=" M 797.0000000000001 365.295775525702 C 797.0000000000001 368.057199274856 794.7614237491541 370.295775525702 792.0000000000001 370.295775525702 C 789.2385762508461 370.295775525702 787.0000000000001 368.057199274856 787.0000000000001 365.295775525702 C 787.0000000000001 362.5343517765481 789.2385762508461 360.295775525702 792.0000000000001 360.295775525702 C 794.7614237491541 360.295775525702 797.0000000000001 362.5343517765481 797.0000000000001 365.295775525702 Z" stroke-opacity="1" stroke-linecap="round" stroke-linejoin="round" stroke-miterlimit="10"/><path fill="rgb(21,101,192)" stroke="none" paint-order="stroke fill markers" d=" M 559.2893645849848 258.53059185729904 C 559.2893645849848 261.292015606453 557.0507883341388 263.53059185729904 554.2893645849848 263.53059185729904 C 551.5279408358308 263.53059185729904 549.2893645849848 261.292015606453 549.2893645849848 258.53059185729904 C 549.2893645849848 255.76916810814507 551.5279408358308 253.53059185729904 554.2893645849848 253.53059185729904 C 557.0507883341388 253.53059185729904 559.2893645849848 255.76916810814507 559.2893645849848 258.53059185729904 Z" fill-opacity="1"/><path fill="none" stroke="rgb(0,0,0)" paint-order="fill stroke markers" d=" M 559.2893645849848 258.53059185729904 C 559.2893645849848 261.292015606453 557.0507883341388 263.53059185729904 554.2893645849848 263.53059185729904 C 551.5279408358308 263.53059185729904 549.2893645849848 261.292015606453 549.2893645849848 258.53059185729904 C 549.2893645849848 255.76916810814507 551.5279408358308 253.53059185729904 554.2893645849848 253.53059185729904 C 557.0507883341388 253.53059185729904 559.2893645849848 255.76916810814507 559.2893645849848 258.53059185729904 Z" stroke-opacity="1" stroke-linecap="round" stroke-linejoin="round" stroke-miterlimit="10"/><path fill="rgb(21,101,192)" stroke="none" paint-order="stroke fill markers" d=" M 511.3369268497241 650.9588486759785 C 511.3369268497241 653.7202724251325 509.098350598878 655.9588486759785 506.3369268497241 655.9588486759785 C 503.57550310057013 655.9588486759785 501.3369268497241 653.7202724251325 501.3369268497241 650.9588486759785 C 501.3369268497241 648.1974249268245 503.57550310057013 645.9588486759785 506.3369268497241 645.9588486759785 C 509.098350598878 645.9588486759785 511.3369268497241 648.1974249268245 511.3369268497241 650.9588486759785 Z" fill-opacity="1"/><path fill="none" stroke="rgb(0,0,0)" paint-order="fill stroke markers" d=" M 511.3369268497241 650.9588486759785 C 511.3369268497241 653.7202724251325 509.098350598878 655.9588486759785 506.3369268497241 655.9588486759785 C 503.57550310057013 655.9588486759785 501.3369268497241 653.7202724251325 501.3369268497241 650.9588486759785 C 501.3369268497241 648.1974249268245 503.57550310057013 645.9588486759785 506.3369268497241 645.9588486759785 C 509.098350598878 645.9588486759785 511.3369268497241 648.1974249268245 511.3369268497241 650.9588486759785 Z" stroke-opacity="1" stroke-linecap="round" stroke-linejoin="round" stroke-miterlimit="10"/><path fill="rgb(21,101,192)" stroke="none" paint-order="stroke fill markers" d=" M 797 650.9588486759785 C 797 653.7202724251325 794.761423749154 655.9588486759785 792 655.9588486759785 C 789.238576250846 655.9588486759785 787 653.7202724251325 787 650.9588486759785 C 787 648.1974249268245 789.238576250846 645.9588486759785 792 645.9588486759785 C 794.761423749154 645.9588486759785 797 648.1974249268245 797 650.9588486759785 Z" fill-opacity="1"/><path fill="none" stroke="rgb(0,0,0)" paint-order="fill stroke markers" d=" M 797 650.9588486759785 C 797 653.7202724251325 794.761423749154 655.9588486759785 792 655.9588486759785 C 789.238576250846 655.9588486759785 787 653.7202724251325 787 650.9588486759785 C 787 648.1974249268245 789.238576250846 645.9588486759785 792 645.9588486759785 C 794.761423749154 645.9588486759785 797 648.1974249268245 797 650.9588486759785 Z" stroke-opacity="1" stroke-linecap="round" stroke-linejoin="round" stroke-miterlimit="10"/><path fill="rgb(21,101,192)" stroke="none" paint-order="stroke fill markers" d=" M 903.7651836684029 127.58514011068638 C 903.7651836684029 130.34656385984036 901.5266074175569 132.58514011068638 898.7651836684029 132.58514011068638 C 896.0037599192489 132.58514011068638 893.7651836684029 130.34656385984036 893.7651836684029 127.58514011068638 C 893.7651836684029 124.82371636153242 896.0037599192489 122.58514011068638 898.7651836684029 122.58514011068638 C 901.5266074175569 122.58514011068638 903.7651836684029 124.82371636153242 903.7651836684029 127.58514011068638 Z" fill-opacity="1"/><path fill="none" stroke="rgb(0,0,0)" paint-order="fill stroke markers" d=" M 903.7651836684029 127.58514011068638 C 903.7651836684029 130.34656385984036 901.5266074175569 132.58514011068638 898.7651836684029 132.58514011068638 C 896.0037599192489 132.58514011068638 893.7651836684029 130.34656385984036 893.7651836684029 127.58514011068638 C 893.7651836684029 124.82371636153242 896.0037599192489 122.58514011068638 898.7651836684029 122.58514011068638 C 901.5266074175569 122.58514011068638 903.7651836684029 124.82371636153242 903.7651836684029 127.58514011068638 Z" stroke-opacity="1" stroke-linecap="round" stroke-linejoin="round" stroke-miterlimit="10"/><path fill="rgb(21,101,192)" stroke="none" paint-order="stroke fill markers" d=" M 666.0545482533877 20.8199564422834 C 666.0545482533877 23.581380191437365 663.8159720025417 25.8199564422834 661.0545482533877 25.8199564422834 C 658.2931245042337 25.8199564422834 656.0545482533877 23.581380191437365 656.0545482533877 20.8199564422834 C 656.0545482533877 18.058532693129433 658.2931245042337 15.819956442283399 661.0545482533877 15.819956442283399 C 663.8159720025417 15.819956442283399 666.0545482533877 18.058532693129433 666.0545482533877 20.8199564422834 Z" fill-opacity="1"/><path fill="none" stroke="rgb(0,0,0)" paint-order="fill stroke markers" d=" M 666.0545482533877 20.8199564422834 C 666.0545482533877 23.581380191437365 663.8159720025417 25.8199564422834 661.0545482533877 25.8199564422834 C 658.2931245042337 25.8199564422834 656.0545482533877 23.581380191437365 656.0545482533877 20.8199564422834 C 656.0545482533877 18.058532693129433 658.2931245042337 15.819956442283399 661.0545482533877 15.819956442283399 C 663.8159720025417 15.819956442283399 666.0545482533877 18.058532693129433 666.0545482533877 20.8199564422834 Z" stroke-opacity="1" stroke-linecap="round" stroke-linejoin="round" stroke-miterlimit="10"/><path fill="rgb(21,101,192)" stroke="none" paint-order="stroke fill markers" d=" M 452.524180916582 210.57815412203828 C 452.524180916582 213.33957787119226 450.28560466573595 215.57815412203828 447.524180916582 215.57815412203828 C 444.76275716742805 215.57815412203828 442.524180916582 213.33957787119226 442.524180916582 210.57815412203828 C 442.524180916582 207.8167303728843 444.76275716742805 205.57815412203828 447.524180916582 205.57815412203828 C 450.28560466573595 205.57815412203828 452.524180916582 207.8167303728843 452.524180916582 210.57815412203828 Z" fill-opacity="1"/><path fill="none" stroke="rgb(0,0,0)" paint-order="fill stroke markers" d=" M 452.524180916582 210.57815412203828 C 452.524180916582 213.33957787119226 450.28560466573595 215.57815412203828 447.524180916582 215.57815412203828 C 444.76275716742805 215.57815412203828 442.524180916582 213.33957787119226 442.524180916582 210.57815412203828 C 442.524180916582 207.8167303728843 444.76275716742805 205.57815412203828 447.524180916582 205.57815412203828 C 450.28560466573595 205.57815412203828 452.524180916582 207.8167303728843 452.524180916582 210.57815412203828 Z" stroke-opacity="1" stroke-linecap="round" stroke-linejoin="round" stroke-miterlimit="10"/><path fill="rgb(21,101,192)" stroke="none" paint-order="stroke fill markers" d=" M 404.57174318132127 317.34333779044124 C 404.57174318132127 320.1047615395952 402.3331669304752 322.34333779044124 399.57174318132127 322.34333779044124 C 396.8103194321673 322.34333779044124 394.57174318132127 320.1047615395952 394.57174318132127 317.34333779044124 C 394.57174318132127 314.5819140412873 396.8103194321673 312.34333779044124 399.57174318132127 312.34333779044124 C 402.3331669304752 312.34333779044124 404.57174318132127 314.5819140412873 404.57174318132127 317.34333779044124 Z" fill-opacity="1"/><path fill="none" stroke="rgb(0,0,0)" paint-order="fill stroke markers" d=" M 404.57174318132127 317.34333779044124 C 404.57174318132127 320.1047615395952 402.3331669304752 322.34333779044124 399.57174318132127 322.34333779044124 C 396.8103194321673 322.34333779044124 394.57174318132127 320.1047615395952 394.57174318132127 317.34333779044124 C 394.57174318132127 314.5819140412873 396.8103194321673 312.34333779044124 399.57174318132127 312.34333779044124 C 402.3331669304752 312.34333779044124 404.57174318132127 314.5819140412873 404.57174318132127 317.34333779044124 Z" stroke-opacity="1" stroke-linecap="round" stroke-linejoin="round" stroke-miterlimit="10"/></g></g></svg>