<svg version="1.1" xmlns="http://www.w3.org/2000/svg" xmlns:xlink="http://www.w3.org/1999/xlink" width="1310" height="605"><defs><clipPath id="BCilcUcSrqlt"><path fill="none" stroke="none" d=" M 0 0 L 1310 0 L 1310 605 L 0 605 L 0 0 Z"/></clipPath></defs><g transform="scale(1,1)" clip-path="url(#BCilcUcSrqlt)"><g><rect fill="rgb(255,255,255)" stroke="none" x="0" y="0" width="1310" height="605" fill-opacity="1"/><path fill="none" stroke="rgb(97,97,97)" paint-order="fill stroke markers" d=" M 905.0465747452936 293.86344378060323 C 905.0465747452936 442.37680258584004 784.652709784642 562.7706675464917 636.1393509794052 562.7706675464917 C 487.62599217416835 562.7706675464917 367.2321272135168 442.37680258584004 367.2321272135168 293.86344378060323 C 367.2321272135168 145.35008497536637 487.62599217416835 24.956220014714802 636.1393509794052 24.956220014714802 C 784.652709784642 24.956220014714802 905.0465747452936 145.35008497536637 905.0465747452936 293.86344378060323 Z" stroke-opacity="0.8" stroke-linecap="round" stroke-linejoin="round" stroke-miterlimit="10" stroke-width="2.5"/><path fill="none" stroke="rgb(0,0,0)" paint-order="fill stroke markers" d=" M 525.1952926351958 486.4621113129963 L 539.3374238152059 486.47332235035833 L 539.3486348525689 472.33119117034727 L 525.2065036725578 472.3199801329862 L 525.1952926351958 486.4621113129963" stroke-opacity="0.6" stroke-linecap="round" stroke-linejoin="round" stroke-miterlimit="10" stroke-width="2"/><path fill="none" stroke="rgb(97,97,97)" paint-order="fill stroke markers" d=" M 525.0973591718395 610 L 525.5848944584164 -5" stroke-opacity="0.8" stroke-linejoin="round" stroke-miterlimit="10" stroke-width="2.5" stroke-dasharray="10.5,8"/><path fill="none" stroke="rgb(97,97,97)" paint-order="fill stroke markers" d=" M 623.5337870214341 610 L 516.1573207601012 -5" stroke-opacity="0.8" stroke-linecap="round" stroke-linejoin="round" stroke-miterlimit="10" stroke-width="2.5"/><path fill="none" stroke="rgb(97,97,97)" paint-order="fill stroke markers" d=" M 448.4153776040057 486.40124477986126 L 823.5578236517891 486.69863531635076" stroke-opacity="0.8" stroke-linecap="round" stroke-linejoin="round" stroke-miterlimit="10" stroke-width="2.5"/><path fill="none" stroke="rgb(97,97,97)" paint-order="fill stroke markers" d=" M 525.5422826993608 48.752482211487006 L 448.4153776040057 486.40124477986126" stroke-opacity="0.8" stroke-linecap="round" stroke-linejoin="round" stroke-miterlimit="10" stroke-width="2.5"/><path fill="none" stroke="rgb(97,97,97)" paint-order="fill stroke markers" d=" M 615.1444245133043 561.9498254865015 L 823.5578236517891 486.69863531635076" stroke-opacity="0.8" stroke-linecap="round" stroke-linejoin="round" stroke-miterlimit="10" stroke-width="2.5"/><path fill="rgb(211,47,47)" stroke="none" paint-order="stroke fill markers" d=" M 641.1393509794052 293.86344378060323 C 641.1393509794052 296.6248675297572 638.9007747285592 298.86344378060323 636.1393509794052 298.86344378060323 C 633.3779272302512 298.86344378060323 631.1393509794052 296.6248675297572 631.1393509794052 293.86344378060323 C 631.1393509794052 291.1020200314493 633.3779272302512 288.86344378060323 636.1393509794052 288.86344378060323 C 638.9007747285592 288.86344378060323 641.1393509794052 291.1020200314493 641.1393509794052 293.86344378060323 Z" fill-opacity="1"/><path fill="none" stroke="rgb(0,0,0)" paint-order="fill stroke markers" d=" M 641.1393509794052 293.86344378060323 C 641.1393509794052 296.6248675297572 638.9007747285592 298.86344378060323 636.1393509794052 298.86344378060323 C 633.3779272302512 298.86344378060323 631.1393509794052 296.6248675297572 631.1393509794052 293.86344378060323 C 631.1393509794052 291.1020200314493 633.3779272302512 288.86344378060323 636.1393509794052 288.86344378060323 C 638.9007747285592 288.86344378060323 641.1393509794052 291.1020200314493 641.1393509794052 293.86344378060323 Z" stroke-opacity="1" stroke-linecap="round" stroke-linejoin="round" stroke-miterlimit="10"/><path fill="rgb(21,101,192)" stroke="none" paint-order="stroke fill markers" d=" M 453.4153776040057 486.40124477986126 C 453.4153776040057 489.1626685290152 451.17680135315965 491.40124477986126 448.4153776040057 491.40124477986126 C 445.65395385485175 491.40124477986126 443.4153776040057 489.1626685290152 443.4153776040057 486.40124477986126 C 443.4153776040057 483.6398210307073 445.65395385485175 481.40124477986126 448.4153776040057 481.40124477986126 C 451.17680135315965 481.40124477986126 453.4153776040057 483.6398210307073 453.4153776040057 486.40124477986126 Z" fill-opacity="1"/><path fill="none" stroke="rgb(0,0,0)" paint-order="fill stroke markers" d=" M 453.4153776040057 486.40124477986126 C 453.4153776040057 489.1626685290152 451.17680135315965 491.40124477986126 448.4153776040057 491.40124477986126 C 445.65395385485175 491.40124477986126 443.4153776040057 489.1626685290152 443.4153776040057 486.40124477986126 C 443.4153776040057 483.6398210307073 445.65395385485175 481.40124477986126 448.4153776040057 481.40124477986126 C 451.17680135315965 481.40124477986126 453.4153776040057 483.6398210307073 453.4153776040057 486.40124477986126 Z" stroke-opacity="1" stroke-linecap="round" stroke-linejoin="round" stroke-miterlimit="10"/><text fill="rgb(21,101,192)" stroke="none" font-family="geogebra-sans-serif, sans-serif" font-size="24px" font-style="normal" font-weight="normal" text-decoration="normal" x="400" y="493" text-anchor="start" dominant-baseline="alphabetic" fill-opacity="1">B</text><text fill="none" stroke="rgb(255,255,255)" font-family="geogebra-sans-serif, sans-serif" font-size="24px" font-style="normal" font-weight="normal" text-decoration="normal" x="400" y="493" text-anchor="start" dominant-baseline="alphabetic" stroke-opacity="1" stroke-linejoin="bevel" stroke-miterlimit="10" stroke-width="3">B</text><text fill="rgb(21,101,192)" stroke="none" font-family="geogebra-sans-serif, sans-serif" font-size="24px" font-style="normal" font-weight="normal" text-decoration="normal" x="400" y="493" text-anchor="start" dominant-baseline="alphabetic" fill-opacity="1">B</text><path fill="rgb(21,101,192)" stroke="none" paint-order="stroke fill markers" d=" M 828.5578236517891 486.69863531635076 C 828.5578236517891 489.4600590655047 826.3192474009431 491.69863531635076 823.5578236517891 491.69863531635076 C 820.7963999026351 491.69863531635076 818.5578236517891 489.4600590655047 818.5578236517891 486.69863531635076 C 818.5578236517891 483.9372115671968 820.7963999026351 481.69863531635076 823.5578236517891 481.69863531635076 C 826.3192474009431 481.69863531635076 828.5578236517891 483.9372115671968 828.5578236517891 486.69863531635076 Z" fill-opacity="1"/><path fill="none" stroke="rgb(0,0,0)" paint-order="fill stroke markers" d=" M 828.5578236517891 486.69863531635076 C 828.5578236517891 489.4600590655047 826.3192474009431 491.69863531635076 823.5578236517891 491.69863531635076 C 820.7963999026351 491.69863531635076 818.5578236517891 489.4600590655047 818.5578236517891 486.69863531635076 C 818.5578236517891 483.9372115671968 820.7963999026351 481.69863531635076 823.5578236517891 481.69863531635076 C 826.3192474009431 481.69863531635076 828.5578236517891 483.9372115671968 828.5578236517891 486.69863531635076 Z" stroke-opacity="1" stroke-linecap="round" stroke-linejoin="round" stroke-miterlimit="10"/><text fill="rgb(21,101,192)" stroke="none" font-family="geogebra-sans-serif, sans-serif" font-size="24px" font-style="normal" font-weight="normal" text-decoration="normal" x="835" y="519" text-anchor="start" dominant-baseline="alphabetic" fill-opacity="1">C</text><text fill="none" stroke="rgb(255,255,255)" font-family="geogebra-sans-serif, sans-serif" font-size="24px" font-style="normal" font-weight="normal" text-decoration="normal" x="835" y="519" text-anchor="start" dominant-baseline="alphabetic" stroke-opacity="1" stroke-linejoin="bevel" stroke-miterlimit="10" stroke-width="3">C</text><text fill="rgb(21,101,192)" stroke="none" font-family="geogebra-sans-serif, sans-serif" font-size="24px" font-style="normal" font-weight="normal" text-decoration="normal" x="835" y="519" text-anchor="start" dominant-baseline="alphabetic" fill-opacity="1">C</text><path fill="rgb(21,101,192)" stroke="none" paint-order="stroke fill markers" d=" M 606.9752076663858 486.5229778461314 C 606.9752076663858 489.2844015952854 604.7366314155398 491.5229778461314 601.9752076663858 491.5229778461314 C 599.2137839172318 491.5229778461314 596.9752076663858 489.2844015952854 596.9752076663858 486.5229778461314 C 596.9752076663858 483.7615540969775 599.2137839172318 481.5229778461314 601.9752076663858 481.5229778461314 C 604.7366314155398 481.5229778461314 606.9752076663858 483.7615540969775 606.9752076663858 486.5229778461314 Z" fill-opacity="1"/><path fill="none" stroke="rgb(0,0,0)" paint-order="fill stroke markers" d=" M 606.9752076663858 486.5229778461314 C 606.9752076663858 489.2844015952854 604.7366314155398 491.5229778461314 601.9752076663858 491.5229778461314 C 599.2137839172318 491.5229778461314 596.9752076663858 489.2844015952854 596.9752076663858 486.5229778461314 C 596.9752076663858 483.7615540969775 599.2137839172318 481.5229778461314 601.9752076663858 481.5229778461314 C 604.7366314155398 481.5229778461314 606.9752076663858 483.7615540969775 606.9752076663858 486.5229778461314 Z" stroke-opacity="1" stroke-linecap="round" stroke-linejoin="round" stroke-miterlimit="10"/><text fill="rgb(21,101,192)" stroke="none" font-family="geogebra-sans-serif, sans-serif" font-size="24px" font-style="normal" font-weight="normal" text-decoration="normal" x="613" y="472" text-anchor="start" dominant-baseline="alphabetic" fill-opacity="1">P</text><text fill="none" stroke="rgb(255,255,255)" font-family="geogebra-sans-serif, sans-serif" font-size="24px" font-style="normal" font-weight="normal" text-decoration="normal" x="613" y="472" text-anchor="start" dominant-baseline="alphabetic" stroke-opacity="1" stroke-linejoin="bevel" stroke-miterlimit="10" stroke-width="3">P</text><text fill="rgb(21,101,192)" stroke="none" font-family="geogebra-sans-serif, sans-serif" font-size="24px" font-style="normal" font-weight="normal" text-decoration="normal" x="613" y="472" text-anchor="start" dominant-baseline="alphabetic" fill-opacity="1">P</text><path fill="rgb(46,125,50)" stroke="none" paint-order="stroke fill markers" d=" M 529.1952926351958 486.4621113129963 C 529.1952926351958 488.67125031231944 527.4044316345189 490.4621113129963 525.1952926351958 490.4621113129963 C 522.9861536358726 490.4621113129963 521.1952926351958 488.67125031231944 521.1952926351958 486.4621113129963 C 521.1952926351958 484.2529723136731 522.9861536358726 482.4621113129963 525.1952926351958 482.4621113129963 C 527.4044316345189 482.4621113129963 529.1952926351958 484.2529723136731 529.1952926351958 486.4621113129963 Z" fill-opacity="1"/><path fill="none" stroke="rgb(0,0,0)" paint-order="fill stroke markers" d=" M 529.1952926351958 486.4621113129963 C 529.1952926351958 488.67125031231944 527.4044316345189 490.4621113129963 525.1952926351958 490.4621113129963 C 522.9861536358726 490.4621113129963 521.1952926351958 488.67125031231944 521.1952926351958 486.4621113129963 C 521.1952926351958 484.2529723136731 522.9861536358726 482.4621113129963 525.1952926351958 482.4621113129963 C 527.4044316345189 482.4621113129963 529.1952926351958 484.2529723136731 529.1952926351958 486.4621113129963 Z" stroke-opacity="1" stroke-linecap="round" stroke-linejoin="round" stroke-miterlimit="10"/><path fill="rgb(21,101,192)" stroke="none" paint-order="stroke fill markers" d=" M 530.5422826993608 48.752482211487006 C 530.5422826993608 51.51390596064097 528.3037064485148 53.752482211487006 525.5422826993608 53.752482211487006 C 522.7808589502068 53.752482211487006 520.5422826993608 51.51390596064097 520.5422826993608 48.752482211487006 C 520.5422826993608 45.99105846233304 522.7808589502068 43.752482211487006 525.5422826993608 43.752482211487006 C 528.3037064485148 43.752482211487006 530.5422826993608 45.99105846233304 530.5422826993608 48.752482211487006 Z" fill-opacity="1"/><path fill="none" stroke="rgb(0,0,0)" paint-order="fill stroke markers" d=" M 530.5422826993608 48.752482211487006 C 530.5422826993608 51.51390596064097 528.3037064485148 53.752482211487006 525.5422826993608 53.752482211487006 C 522.7808589502068 53.752482211487006 520.5422826993608 51.51390596064097 520.5422826993608 48.752482211487006 C 520.5422826993608 45.99105846233304 522.7808589502068 43.752482211487006 525.5422826993608 43.752482211487006 C 528.3037064485148 43.752482211487006 530.5422826993608 45.99105846233304 530.5422826993608 48.752482211487006 Z" stroke-opacity="1" stroke-linecap="round" stroke-linejoin="round" stroke-miterlimit="10"/><text fill="rgb(21,101,192)" stroke="none" font-family="geogebra-sans-serif, sans-serif" font-size="24px" font-style="normal" font-weight="normal" text-decoration="normal" x="488" y="41" text-anchor="start" dominant-baseline="alphabetic" fill-opacity="1">A</text><text fill="none" stroke="rgb(255,255,255)" font-family="geogebra-sans-serif, sans-serif" font-size="24px" font-style="normal" font-weight="normal" text-decoration="normal" x="488" y="41" text-anchor="start" dominant-baseline="alphabetic" stroke-opacity="1" stroke-linejoin="bevel" stroke-miterlimit="10" stroke-width="3">A</text><text fill="rgb(21,101,192)" stroke="none" font-family="geogebra-sans-serif, sans-serif" font-size="24px" font-style="normal" font-weight="normal" text-decoration="normal" x="488" y="41" text-anchor="start" dominant-baseline="alphabetic" fill-opacity="1">A</text><path fill="rgb(21,101,192)" stroke="none" paint-order="stroke fill markers" d=" M 620.1444245133043 561.9498254865015 C 620.1444245133043 564.7112492356555 617.9058482624583 566.9498254865015 615.1444245133043 566.9498254865015 C 612.3830007641503 566.9498254865015 610.1444245133043 564.7112492356555 610.1444245133043 561.9498254865015 C 610.1444245133043 559.1884017373475 612.3830007641503 556.9498254865015 615.1444245133043 556.9498254865015 C 617.9058482624583 556.9498254865015 620.1444245133043 559.1884017373475 620.1444245133043 561.9498254865015 Z" fill-opacity="1"/><path fill="none" stroke="rgb(0,0,0)" paint-order="fill stroke markers" d=" M 620.1444245133043 561.9498254865015 C 620.1444245133043 564.7112492356555 617.9058482624583 566.9498254865015 615.1444245133043 566.9498254865015 C 612.3830007641503 566.9498254865015 610.1444245133043 564.7112492356555 610.1444245133043 561.9498254865015 C 610.1444245133043 559.1884017373475 612.3830007641503 556.9498254865015 615.1444245133043 556.9498254865015 C 617.9058482624583 556.9498254865015 620.1444245133043 559.1884017373475 620.1444245133043 561.9498254865015 Z" stroke-opacity="1" stroke-linecap="round" stroke-linejoin="round" stroke-miterlimit="10"/><text fill="rgb(21,101,192)" stroke="none" font-family="geogebra-sans-serif, sans-serif" font-size="24px" font-style="normal" font-weight="normal" text-decoration="normal" x="629" y="594" text-anchor="start" dominant-baseline="alphabetic" fill-opacity="1">Q</text><text fill="none" stroke="rgb(255,255,255)" font-family="geogebra-sans-serif, sans-serif" font-size="24px" font-style="normal" font-weight="normal" text-decoration="normal" x="629" y="594" text-anchor="start" dominant-baseline="alphabetic" stroke-opacity="1" stroke-linejoin="bevel" stroke-miterlimit="10" stroke-width="3">Q</text><text fill="rgb(21,101,192)" stroke="none" font-family="geogebra-sans-serif, sans-serif" font-size="24px" font-style="normal" font-weight="normal" text-decoration="normal" x="629" y="594" text-anchor="start" dominant-baseline="alphabetic" fill-opacity="1">Q</text></g></g></svg>