<svg version="1.1" xmlns="http://www.w3.org/2000/svg" xmlns:xlink="http://www.w3.org/1999/xlink" width="1310" height="605"><defs><clipPath id="pMGAUelEOaKK"><path fill="none" stroke="none" d=" M 0 0 L 1310 0 L 1310 605 L 0 605 L 0 0 Z"/></clipPath></defs><g transform="scale(1,1)" clip-path="url(#pMGAUelEOaKK)"><g><rect fill="rgb(255,255,255)" stroke="none" x="0" y="0" width="1310" height="605" fill-opacity="1"/><path fill="none" stroke="rgb(97,97,97)" paint-order="fill stroke markers" d=" M 911.0465747452931 293.86344378060346 C 911.0465747452931 442.3768025858401 790.6527097846417 562.7706675464915 642.1393509794051 562.7706675464915 C 493.62599217416846 562.7706675464915 373.23212721351706 442.3768025858401 373.23212721351706 293.86344378060346 C 373.23212721351706 145.35008497536683 493.62599217416846 24.956220014715427 642.1393509794051 24.956220014715427 C 790.6527097846417 24.956220014715427 911.0465747452931 145.35008497536683 911.0465747452931 293.86344378060346 Z" stroke-opacity="0.8" stroke-linecap="round" stroke-linejoin="round" stroke-miterlimit="10" stroke-width="2.5"/><path fill="none" stroke="rgb(0,0,0)" paint-order="fill stroke markers" d=" M 531.1952926351958 486.4621113129963 L 545.3374238152059 486.47332235035833 L 545.3486348525689 472.33119117034727 L 531.2065036725578 472.3199801329862 L 531.1952926351958 486.4621113129963" stroke-opacity="0.6" stroke-linecap="round" stroke-linejoin="round" stroke-miterlimit="10" stroke-width="2"/><path fill="rgb(0,0,0)" stroke="none" paint-order="stroke fill markers" fill-rule="evenodd" d=" M 614.5598160898451 524.2364016663164 L 627.7946359762163 521.925656640294 L 625.4838909501947 508.6908367539217 L 612.2490710638227 511.0015817799451 L 614.5598160898451 524.2364016663164" fill-opacity="0.09803921568627451"/><path fill="none" stroke="rgb(0,0,0)" paint-order="fill stroke markers" d=" M 614.5598160898451 524.2364016663164 L 627.7946359762163 521.925656640294 L 625.4838909501947 508.6908367539217 L 612.2490710638227 511.0015817799451 L 614.5598160898451 524.2364016663164" stroke-opacity="0.6" stroke-linecap="round" stroke-linejoin="round" stroke-miterlimit="10" stroke-width="2"/><path fill="rgb(0,0,0)" stroke="none" paint-order="stroke fill markers" d=" M 479.4153697485447 486.42106328121827 C 479.42499417521566 474.28035764293435 470.7107325159682 463.8877325190381 458.7542697755679 461.78064335090426 L 454.41537760400587 486.40124477986114 Z" fill-opacity="0.09803921568627451"/><path fill="none" stroke="rgb(0,0,0)" paint-order="fill stroke markers" d=" M 479.4153697485447 486.42106328121827 C 479.42499417521566 474.28035764293435 470.7107325159682 463.8877325190381 458.7542697755679 461.78064335090426 L 454.41537760400587 486.40124477986114 Z" stroke-opacity="0.6" stroke-linecap="round" stroke-linejoin="round" stroke-miterlimit="10" stroke-width="2"/><g transform="scale(27,27)"><g transform="translate(17.703703703703702,17.101852407407407)"><path fill="rgb(0,0,0)" stroke="none" paint-order="stroke fill markers" d=" M 0.455 -0.5 L 0.455 -0.5 Q 0.455 -0.34700000000000003 0.377 -0.19 Q 0.307 -0.05 0.222 -0.005 Q 0.191 0.011 0.162 0.011 Q 0.08 0.011 0.052000000000000005 -0.101 Q 0.042 -0.14300000000000002 0.042 -0.194 Q 0.042 -0.35100000000000003 0.122 -0.509 Q 0.192 -0.646 0.277 -0.6900000000000001 Q 0.307 -0.705 0.335 -0.705 Q 0.422 -0.705 0.447 -0.578 Q 0.455 -0.54 0.455 -0.5 M 0.148 -0.363 L 0.148 -0.363 L 0.357 -0.363 Q 0.389 -0.495 0.389 -0.562 Q 0.389 -0.675 0.342 -0.682 Q 0.338 -0.683 0.334 -0.683 Q 0.28300000000000003 -0.683 0.225 -0.578 Q 0.187 -0.511 0.149 -0.368 Q 0.149 -0.365 0.148 -0.363 M 0.34800000000000003 -0.331 L 0.14 -0.331 Q 0.108 -0.21 0.108 -0.133 Q 0.108 -0.013000000000000001 0.162 -0.011 Q 0.218 -0.011 0.278 -0.128 Q 0.317 -0.202 0.34800000000000003 -0.331 Z"/></g></g><path fill="rgb(0,0,0)" stroke="none" paint-order="stroke fill markers" d=" M 603.6753564098235 461.89552813708843 C 591.7155679502721 463.9836579289904 582.9848399485178 474.3624537064904 582.9752155218468 486.5031593447743 L 607.9752076663858 486.5229778461314 Z" fill-opacity="0.09803921568627451"/><path fill="none" stroke="rgb(0,0,0)" paint-order="fill stroke markers" d=" M 603.6753564098235 461.89552813708843 C 591.7155679502721 463.9836579289904 582.9848399485178 474.3624537064904 582.9752155218468 486.5031593447743 L 607.9752076663858 486.5229778461314 Z" stroke-opacity="0.6" stroke-linecap="round" stroke-linejoin="round" stroke-miterlimit="10" stroke-width="2"/><g transform="scale(27,27)"><g transform="translate(21.444444444444443,16.95370425925926)"><path fill="rgb(0,0,0)" stroke="none" paint-order="stroke fill markers" d=" M 0.455 -0.5 L 0.455 -0.5 Q 0.455 -0.34700000000000003 0.377 -0.19 Q 0.307 -0.05 0.222 -0.005 Q 0.191 0.011 0.162 0.011 Q 0.08 0.011 0.052000000000000005 -0.101 Q 0.042 -0.14300000000000002 0.042 -0.194 Q 0.042 -0.35100000000000003 0.122 -0.509 Q 0.192 -0.646 0.277 -0.6900000000000001 Q 0.307 -0.705 0.335 -0.705 Q 0.422 -0.705 0.447 -0.578 Q 0.455 -0.54 0.455 -0.5 M 0.148 -0.363 L 0.148 -0.363 L 0.357 -0.363 Q 0.389 -0.495 0.389 -0.562 Q 0.389 -0.675 0.342 -0.682 Q 0.338 -0.683 0.334 -0.683 Q 0.28300000000000003 -0.683 0.225 -0.578 Q 0.187 -0.511 0.149 -0.368 Q 0.149 -0.365 0.148 -0.363 M 0.34800000000000003 -0.331 L 0.14 -0.331 Q 0.108 -0.21 0.108 -0.133 Q 0.108 -0.013000000000000001 0.162 -0.011 Q 0.218 -0.011 0.278 -0.128 Q 0.317 -0.202 0.34800000000000003 -0.331 Z"/></g></g><path fill="rgb(0,0,0)" stroke="none" paint-order="stroke fill markers" d=" M 555.7812529830893 534.498896622938 C 553.6931231911874 522.5391081633865 543.3143274136874 513.8083801616322 531.1736217754035 513.7987557349613 L 531.1538032740464 538.7987478795002 Z" fill-opacity="0.09803921568627451"/><path fill="none" stroke="rgb(0,0,0)" paint-order="fill stroke markers" d=" M 555.7812529830893 534.498896622938 C 553.6931231911874 522.5391081633865 543.3143274136874 513.8083801616322 531.1736217754035 513.7987557349613 L 531.1538032740464 538.7987478795002 Z" stroke-opacity="0.6" stroke-linecap="round" stroke-linejoin="round" stroke-miterlimit="10" stroke-width="2"/><g transform="scale(27,27)"><g transform="translate(20.40740740740741,19.138889444444445)"><path fill="rgb(0,0,0)" stroke="none" paint-order="stroke fill markers" d=" M 0.455 -0.5 L 0.455 -0.5 Q 0.455 -0.34700000000000003 0.377 -0.19 Q 0.307 -0.05 0.222 -0.005 Q 0.191 0.011 0.162 0.011 Q 0.08 0.011 0.052000000000000005 -0.101 Q 0.042 -0.14300000000000002 0.042 -0.194 Q 0.042 -0.35100000000000003 0.122 -0.509 Q 0.192 -0.646 0.277 -0.6900000000000001 Q 0.307 -0.705 0.335 -0.705 Q 0.422 -0.705 0.447 -0.578 Q 0.455 -0.54 0.455 -0.5 M 0.148 -0.363 L 0.148 -0.363 L 0.357 -0.363 Q 0.389 -0.495 0.389 -0.562 Q 0.389 -0.675 0.342 -0.682 Q 0.338 -0.683 0.334 -0.683 Q 0.28300000000000003 -0.683 0.225 -0.578 Q 0.187 -0.511 0.149 -0.368 Q 0.149 -0.365 0.148 -0.363 M 0.34800000000000003 -0.331 L 0.14 -0.331 Q 0.108 -0.21 0.108 -0.133 Q 0.108 -0.013000000000000001 0.162 -0.011 Q 0.218 -0.011 0.278 -0.128 Q 0.317 -0.202 0.34800000000000003 -0.331 Z"/></g></g><path fill="none" stroke="rgb(97,97,97)" paint-order="fill stroke markers" d=" M 531.0973591718396 610 L 531.5848944584166 -5" stroke-opacity="0.8" stroke-linejoin="round" stroke-miterlimit="10" stroke-width="2.5" stroke-dasharray="10.5,8"/><path fill="none" stroke="rgb(97,97,97)" paint-order="fill stroke markers" d=" M 629.533787021434 610 L 522.1573207601011 -5" stroke-opacity="0.8" stroke-linecap="round" stroke-linejoin="round" stroke-miterlimit="10" stroke-width="2.5"/><path fill="none" stroke="rgb(97,97,97)" paint-order="fill stroke markers" d=" M 123.34777669523655 610 L 1315 401.94243129930794" stroke-opacity="0.8" stroke-linejoin="round" stroke-miterlimit="10" stroke-width="2.5" stroke-dasharray="10.5,8"/><path fill="none" stroke="rgb(97,97,97)" paint-order="fill stroke markers" d=" M 454.41537760400587 486.40124477986114 L 829.5578236517888 486.69863531635076" stroke-opacity="0.8" stroke-linecap="round" stroke-linejoin="round" stroke-miterlimit="10" stroke-width="2.5"/><path fill="none" stroke="rgb(97,97,97)" paint-order="fill stroke markers" d=" M 531.5422826993608 48.7524822114876 L 454.41537760400587 486.40124477986114" stroke-opacity="0.8" stroke-linecap="round" stroke-linejoin="round" stroke-miterlimit="10" stroke-width="2.5"/><path fill="none" stroke="rgb(97,97,97)" paint-order="fill stroke markers" d=" M 621.1444245133043 561.9498254865014 L 829.5578236517888 486.69863531635076" stroke-opacity="0.8" stroke-linecap="round" stroke-linejoin="round" stroke-miterlimit="10" stroke-width="2.5"/><path fill="rgb(211,47,47)" stroke="none" paint-order="stroke fill markers" d=" M 647.1393509794051 293.86344378060346 C 647.1393509794051 296.6248675297574 644.9007747285591 298.86344378060346 642.1393509794051 298.86344378060346 C 639.3779272302511 298.86344378060346 637.1393509794051 296.6248675297574 637.1393509794051 293.86344378060346 C 637.1393509794051 291.1020200314495 639.3779272302511 288.86344378060346 642.1393509794051 288.86344378060346 C 644.9007747285591 288.86344378060346 647.1393509794051 291.1020200314495 647.1393509794051 293.86344378060346 Z" fill-opacity="1"/><path fill="none" stroke="rgb(0,0,0)" paint-order="fill stroke markers" d=" M 647.1393509794051 293.86344378060346 C 647.1393509794051 296.6248675297574 644.9007747285591 298.86344378060346 642.1393509794051 298.86344378060346 C 639.3779272302511 298.86344378060346 637.1393509794051 296.6248675297574 637.1393509794051 293.86344378060346 C 637.1393509794051 291.1020200314495 639.3779272302511 288.86344378060346 642.1393509794051 288.86344378060346 C 644.9007747285591 288.86344378060346 647.1393509794051 291.1020200314495 647.1393509794051 293.86344378060346 Z" stroke-opacity="1" stroke-linecap="round" stroke-linejoin="round" stroke-miterlimit="10"/><path fill="rgb(21,101,192)" stroke="none" paint-order="stroke fill markers" d=" M 459.41537760400587 486.40124477986114 C 459.41537760400587 489.1626685290151 457.1768013531598 491.40124477986114 454.41537760400587 491.40124477986114 C 451.6539538548519 491.40124477986114 449.41537760400587 489.1626685290151 449.41537760400587 486.40124477986114 C 449.41537760400587 483.6398210307072 451.6539538548519 481.40124477986114 454.41537760400587 481.40124477986114 C 457.1768013531598 481.40124477986114 459.41537760400587 483.6398210307072 459.41537760400587 486.40124477986114 Z" fill-opacity="1"/><path fill="none" stroke="rgb(0,0,0)" paint-order="fill stroke markers" d=" M 459.41537760400587 486.40124477986114 C 459.41537760400587 489.1626685290151 457.1768013531598 491.40124477986114 454.41537760400587 491.40124477986114 C 451.6539538548519 491.40124477986114 449.41537760400587 489.1626685290151 449.41537760400587 486.40124477986114 C 449.41537760400587 483.6398210307072 451.6539538548519 481.40124477986114 454.41537760400587 481.40124477986114 C 457.1768013531598 481.40124477986114 459.41537760400587 483.6398210307072 459.41537760400587 486.40124477986114 Z" stroke-opacity="1" stroke-linecap="round" stroke-linejoin="round" stroke-miterlimit="10"/><text fill="rgb(21,101,192)" stroke="none" font-family="geogebra-sans-serif, sans-serif" font-size="24px" font-style="normal" font-weight="normal" text-decoration="normal" x="406" y="493" text-anchor="start" dominant-baseline="alphabetic" fill-opacity="1">B</text><text fill="none" stroke="rgb(255,255,255)" font-family="geogebra-sans-serif, sans-serif" font-size="24px" font-style="normal" font-weight="normal" text-decoration="normal" x="406" y="493" text-anchor="start" dominant-baseline="alphabetic" stroke-opacity="1" stroke-linejoin="bevel" stroke-miterlimit="10" stroke-width="3">B</text><text fill="rgb(21,101,192)" stroke="none" font-family="geogebra-sans-serif, sans-serif" font-size="24px" font-style="normal" font-weight="normal" text-decoration="normal" x="406" y="493" text-anchor="start" dominant-baseline="alphabetic" fill-opacity="1">B</text><path fill="rgb(21,101,192)" stroke="none" paint-order="stroke fill markers" d=" M 834.5578236517888 486.69863531635076 C 834.5578236517888 489.4600590655047 832.3192474009428 491.69863531635076 829.5578236517888 491.69863531635076 C 826.7963999026348 491.69863531635076 824.5578236517888 489.4600590655047 824.5578236517888 486.69863531635076 C 824.5578236517888 483.9372115671968 826.7963999026348 481.69863531635076 829.5578236517888 481.69863531635076 C 832.3192474009428 481.69863531635076 834.5578236517888 483.9372115671968 834.5578236517888 486.69863531635076 Z" fill-opacity="1"/><path fill="none" stroke="rgb(0,0,0)" paint-order="fill stroke markers" d=" M 834.5578236517888 486.69863531635076 C 834.5578236517888 489.4600590655047 832.3192474009428 491.69863531635076 829.5578236517888 491.69863531635076 C 826.7963999026348 491.69863531635076 824.5578236517888 489.4600590655047 824.5578236517888 486.69863531635076 C 824.5578236517888 483.9372115671968 826.7963999026348 481.69863531635076 829.5578236517888 481.69863531635076 C 832.3192474009428 481.69863531635076 834.5578236517888 483.9372115671968 834.5578236517888 486.69863531635076 Z" stroke-opacity="1" stroke-linecap="round" stroke-linejoin="round" stroke-miterlimit="10"/><text fill="rgb(21,101,192)" stroke="none" font-family="geogebra-sans-serif, sans-serif" font-size="24px" font-style="normal" font-weight="normal" text-decoration="normal" x="841" y="519" text-anchor="start" dominant-baseline="alphabetic" fill-opacity="1">C</text><text fill="none" stroke="rgb(255,255,255)" font-family="geogebra-sans-serif, sans-serif" font-size="24px" font-style="normal" font-weight="normal" text-decoration="normal" x="841" y="519" text-anchor="start" dominant-baseline="alphabetic" stroke-opacity="1" stroke-linejoin="bevel" stroke-miterlimit="10" stroke-width="3">C</text><text fill="rgb(21,101,192)" stroke="none" font-family="geogebra-sans-serif, sans-serif" font-size="24px" font-style="normal" font-weight="normal" text-decoration="normal" x="841" y="519" text-anchor="start" dominant-baseline="alphabetic" fill-opacity="1">C</text><path fill="rgb(21,101,192)" stroke="none" paint-order="stroke fill markers" d=" M 612.9752076663858 486.5229778461314 C 612.9752076663858 489.2844015952854 610.7366314155398 491.5229778461314 607.9752076663858 491.5229778461314 C 605.2137839172318 491.5229778461314 602.9752076663858 489.2844015952854 602.9752076663858 486.5229778461314 C 602.9752076663858 483.7615540969775 605.2137839172318 481.5229778461314 607.9752076663858 481.5229778461314 C 610.7366314155398 481.5229778461314 612.9752076663858 483.7615540969775 612.9752076663858 486.5229778461314 Z" fill-opacity="1"/><path fill="none" stroke="rgb(0,0,0)" paint-order="fill stroke markers" d=" M 612.9752076663858 486.5229778461314 C 612.9752076663858 489.2844015952854 610.7366314155398 491.5229778461314 607.9752076663858 491.5229778461314 C 605.2137839172318 491.5229778461314 602.9752076663858 489.2844015952854 602.9752076663858 486.5229778461314 C 602.9752076663858 483.7615540969775 605.2137839172318 481.5229778461314 607.9752076663858 481.5229778461314 C 610.7366314155398 481.5229778461314 612.9752076663858 483.7615540969775 612.9752076663858 486.5229778461314 Z" stroke-opacity="1" stroke-linecap="round" stroke-linejoin="round" stroke-miterlimit="10"/><text fill="rgb(21,101,192)" stroke="none" font-family="geogebra-sans-serif, sans-serif" font-size="24px" font-style="normal" font-weight="normal" text-decoration="normal" x="619" y="472" text-anchor="start" dominant-baseline="alphabetic" fill-opacity="1">P</text><text fill="none" stroke="rgb(255,255,255)" font-family="geogebra-sans-serif, sans-serif" font-size="24px" font-style="normal" font-weight="normal" text-decoration="normal" x="619" y="472" text-anchor="start" dominant-baseline="alphabetic" stroke-opacity="1" stroke-linejoin="bevel" stroke-miterlimit="10" stroke-width="3">P</text><text fill="rgb(21,101,192)" stroke="none" font-family="geogebra-sans-serif, sans-serif" font-size="24px" font-style="normal" font-weight="normal" text-decoration="normal" x="619" y="472" text-anchor="start" dominant-baseline="alphabetic" fill-opacity="1">P</text><path fill="rgb(46,125,50)" stroke="none" paint-order="stroke fill markers" d=" M 535.1952926351958 486.4621113129963 C 535.1952926351958 488.67125031231944 533.4044316345189 490.4621113129963 531.1952926351958 490.4621113129963 C 528.9861536358726 490.4621113129963 527.1952926351958 488.67125031231944 527.1952926351958 486.4621113129963 C 527.1952926351958 484.2529723136731 528.9861536358726 482.4621113129963 531.1952926351958 482.4621113129963 C 533.4044316345189 482.4621113129963 535.1952926351958 484.2529723136731 535.1952926351958 486.4621113129963 Z" fill-opacity="1"/><path fill="none" stroke="rgb(0,0,0)" paint-order="fill stroke markers" d=" M 535.1952926351958 486.4621113129963 C 535.1952926351958 488.67125031231944 533.4044316345189 490.4621113129963 531.1952926351958 490.4621113129963 C 528.9861536358726 490.4621113129963 527.1952926351958 488.67125031231944 527.1952926351958 486.4621113129963 C 527.1952926351958 484.2529723136731 528.9861536358726 482.4621113129963 531.1952926351958 482.4621113129963 C 533.4044316345189 482.4621113129963 535.1952926351958 484.2529723136731 535.1952926351958 486.4621113129963 Z" stroke-opacity="1" stroke-linecap="round" stroke-linejoin="round" stroke-miterlimit="10"/><text fill="rgb(46,125,50)" stroke="none" font-family="geogebra-sans-serif, sans-serif" font-size="24px" font-style="normal" font-weight="normal" text-decoration="normal" x="522" y="461" text-anchor="start" dominant-baseline="alphabetic" fill-opacity="1">E</text><text fill="none" stroke="rgb(255,255,255)" font-family="geogebra-sans-serif, sans-serif" font-size="24px" font-style="normal" font-weight="normal" text-decoration="normal" x="522" y="461" text-anchor="start" dominant-baseline="alphabetic" stroke-opacity="1" stroke-linejoin="bevel" stroke-miterlimit="10" stroke-width="3">E</text><text fill="rgb(46,125,50)" stroke="none" font-family="geogebra-sans-serif, sans-serif" font-size="24px" font-style="normal" font-weight="normal" text-decoration="normal" x="522" y="461" text-anchor="start" dominant-baseline="alphabetic" fill-opacity="1">E</text><path fill="rgb(21,101,192)" stroke="none" paint-order="stroke fill markers" d=" M 536.5422826993608 48.7524822114876 C 536.5422826993608 51.513905960641566 534.3037064485148 53.7524822114876 531.5422826993608 53.7524822114876 C 528.7808589502068 53.7524822114876 526.5422826993608 51.513905960641566 526.5422826993608 48.7524822114876 C 526.5422826993608 45.99105846233363 528.7808589502068 43.7524822114876 531.5422826993608 43.7524822114876 C 534.3037064485148 43.7524822114876 536.5422826993608 45.99105846233363 536.5422826993608 48.7524822114876 Z" fill-opacity="1"/><path fill="none" stroke="rgb(0,0,0)" paint-order="fill stroke markers" d=" M 536.5422826993608 48.7524822114876 C 536.5422826993608 51.513905960641566 534.3037064485148 53.7524822114876 531.5422826993608 53.7524822114876 C 528.7808589502068 53.7524822114876 526.5422826993608 51.513905960641566 526.5422826993608 48.7524822114876 C 526.5422826993608 45.99105846233363 528.7808589502068 43.7524822114876 531.5422826993608 43.7524822114876 C 534.3037064485148 43.7524822114876 536.5422826993608 45.99105846233363 536.5422826993608 48.7524822114876 Z" stroke-opacity="1" stroke-linecap="round" stroke-linejoin="round" stroke-miterlimit="10"/><text fill="rgb(21,101,192)" stroke="none" font-family="geogebra-sans-serif, sans-serif" font-size="24px" font-style="normal" font-weight="normal" text-decoration="normal" x="494" y="41" text-anchor="start" dominant-baseline="alphabetic" fill-opacity="1">A</text><text fill="none" stroke="rgb(255,255,255)" font-family="geogebra-sans-serif, sans-serif" font-size="24px" font-style="normal" font-weight="normal" text-decoration="normal" x="494" y="41" text-anchor="start" dominant-baseline="alphabetic" stroke-opacity="1" stroke-linejoin="bevel" stroke-miterlimit="10" stroke-width="3">A</text><text fill="rgb(21,101,192)" stroke="none" font-family="geogebra-sans-serif, sans-serif" font-size="24px" font-style="normal" font-weight="normal" text-decoration="normal" x="494" y="41" text-anchor="start" dominant-baseline="alphabetic" fill-opacity="1">A</text><path fill="rgb(21,101,192)" stroke="none" paint-order="stroke fill markers" d=" M 536.1538032740464 538.7987478795001 C 536.1538032740464 541.5601716286541 533.9152270232004 543.7987478795001 531.1538032740464 543.7987478795001 C 528.3923795248924 543.7987478795001 526.1538032740464 541.5601716286541 526.1538032740464 538.7987478795001 C 526.1538032740464 536.0373241303461 528.3923795248924 533.7987478795001 531.1538032740464 533.7987478795001 C 533.9152270232004 533.7987478795001 536.1538032740464 536.0373241303461 536.1538032740464 538.7987478795001 Z" fill-opacity="1"/><path fill="none" stroke="rgb(0,0,0)" paint-order="fill stroke markers" d=" M 536.1538032740464 538.7987478795001 C 536.1538032740464 541.5601716286541 533.9152270232004 543.7987478795001 531.1538032740464 543.7987478795001 C 528.3923795248924 543.7987478795001 526.1538032740464 541.5601716286541 526.1538032740464 538.7987478795001 C 526.1538032740464 536.0373241303461 528.3923795248924 533.7987478795001 531.1538032740464 533.7987478795001 C 533.9152270232004 533.7987478795001 536.1538032740464 536.0373241303461 536.1538032740464 538.7987478795001 Z" stroke-opacity="1" stroke-linecap="round" stroke-linejoin="round" stroke-miterlimit="10"/><text fill="rgb(21,101,192)" stroke="none" font-family="geogebra-sans-serif, sans-serif" font-size="24px" font-style="normal" font-weight="normal" text-decoration="normal" x="501" y="572" text-anchor="start" dominant-baseline="alphabetic" fill-opacity="1">R</text><text fill="none" stroke="rgb(255,255,255)" font-family="geogebra-sans-serif, sans-serif" font-size="24px" font-style="normal" font-weight="normal" text-decoration="normal" x="501" y="572" text-anchor="start" dominant-baseline="alphabetic" stroke-opacity="1" stroke-linejoin="bevel" stroke-miterlimit="10" stroke-width="3">R</text><text fill="rgb(21,101,192)" stroke="none" font-family="geogebra-sans-serif, sans-serif" font-size="24px" font-style="normal" font-weight="normal" text-decoration="normal" x="501" y="572" text-anchor="start" dominant-baseline="alphabetic" fill-opacity="1">R</text><path fill="rgb(21,101,192)" stroke="none" paint-order="stroke fill markers" d=" M 626.1444245133043 561.9498254865014 C 626.1444245133043 564.7112492356554 623.9058482624583 566.9498254865014 621.1444245133043 566.9498254865014 C 618.3830007641503 566.9498254865014 616.1444245133043 564.7112492356554 616.1444245133043 561.9498254865014 C 616.1444245133043 559.1884017373474 618.3830007641503 556.9498254865014 621.1444245133043 556.9498254865014 C 623.9058482624583 556.9498254865014 626.1444245133043 559.1884017373474 626.1444245133043 561.9498254865014 Z" fill-opacity="1"/><path fill="none" stroke="rgb(0,0,0)" paint-order="fill stroke markers" d=" M 626.1444245133043 561.9498254865014 C 626.1444245133043 564.7112492356554 623.9058482624583 566.9498254865014 621.1444245133043 566.9498254865014 C 618.3830007641503 566.9498254865014 616.1444245133043 564.7112492356554 616.1444245133043 561.9498254865014 C 616.1444245133043 559.1884017373474 618.3830007641503 556.9498254865014 621.1444245133043 556.9498254865014 C 623.9058482624583 556.9498254865014 626.1444245133043 559.1884017373474 626.1444245133043 561.9498254865014 Z" stroke-opacity="1" stroke-linecap="round" stroke-linejoin="round" stroke-miterlimit="10"/><text fill="rgb(21,101,192)" stroke="none" font-family="geogebra-sans-serif, sans-serif" font-size="24px" font-style="normal" font-weight="normal" text-decoration="normal" x="635" y="594" text-anchor="start" dominant-baseline="alphabetic" fill-opacity="1">Q</text><text fill="none" stroke="rgb(255,255,255)" font-family="geogebra-sans-serif, sans-serif" font-size="24px" font-style="normal" font-weight="normal" text-decoration="normal" x="635" y="594" text-anchor="start" dominant-baseline="alphabetic" stroke-opacity="1" stroke-linejoin="bevel" stroke-miterlimit="10" stroke-width="3">Q</text><text fill="rgb(21,101,192)" stroke="none" font-family="geogebra-sans-serif, sans-serif" font-size="24px" font-style="normal" font-weight="normal" text-decoration="normal" x="635" y="594" text-anchor="start" dominant-baseline="alphabetic" fill-opacity="1">Q</text><path fill="rgb(46,125,50)" stroke="none" paint-order="stroke fill markers" d=" M 618.5598160898451 524.2364016663164 C 618.5598160898451 526.4455406656396 616.7689550891682 528.2364016663164 614.5598160898451 528.2364016663164 C 612.3506770905219 528.2364016663164 610.5598160898451 526.4455406656396 610.5598160898451 524.2364016663164 C 610.5598160898451 522.0272626669932 612.3506770905219 520.2364016663164 614.5598160898451 520.2364016663164 C 616.7689550891682 520.2364016663164 618.5598160898451 522.0272626669932 618.5598160898451 524.2364016663164 Z" fill-opacity="1"/><path fill="none" stroke="rgb(0,0,0)" paint-order="fill stroke markers" d=" M 618.5598160898451 524.2364016663164 C 618.5598160898451 526.4455406656396 616.7689550891682 528.2364016663164 614.5598160898451 528.2364016663164 C 612.3506770905219 528.2364016663164 610.5598160898451 526.4455406656396 610.5598160898451 524.2364016663164 C 610.5598160898451 522.0272626669932 612.3506770905219 520.2364016663164 614.5598160898451 520.2364016663164 C 616.7689550891682 520.2364016663164 618.5598160898451 522.0272626669932 618.5598160898451 524.2364016663164 Z" stroke-opacity="1" stroke-linecap="round" stroke-linejoin="round" stroke-miterlimit="10"/><text fill="rgb(46,125,50)" stroke="none" font-family="geogebra-sans-serif, sans-serif" font-size="24px" font-style="normal" font-weight="normal" text-decoration="normal" x="637" y="527" text-anchor="start" dominant-baseline="alphabetic" fill-opacity="1">D</text><text fill="none" stroke="rgb(255,255,255)" font-family="geogebra-sans-serif, sans-serif" font-size="24px" font-style="normal" font-weight="normal" text-decoration="normal" x="637" y="527" text-anchor="start" dominant-baseline="alphabetic" stroke-opacity="1" stroke-linejoin="bevel" stroke-miterlimit="10" stroke-width="3">D</text><text fill="rgb(46,125,50)" stroke="none" font-family="geogebra-sans-serif, sans-serif" font-size="24px" font-style="normal" font-weight="normal" text-decoration="normal" x="637" y="527" text-anchor="start" dominant-baseline="alphabetic" fill-opacity="1">D</text></g></g></svg>