<svg version="1.1" xmlns="http://www.w3.org/2000/svg" xmlns:xlink="http://www.w3.org/1999/xlink" width="1310" height="704"><defs><clipPath id="NkHwCkHAZckx"><path fill="none" stroke="none" d=" M 0 0 L 1310 0 L 1310 704 L 0 704 L 0 0 Z"/></clipPath></defs><g transform="scale(1,1)" clip-path="url(#NkHwCkHAZckx)"><g><rect fill="rgb(255,255,255)" stroke="none" x="0" y="0" width="1310" height="704" fill-opacity="1"/><path fill="none" stroke="rgb(97,97,97)" paint-order="fill stroke markers" d=" M 938.1037209820884 327.0848267779721 C 938.1037209820884 481.4382958879922 812.975511198548 606.5665056715325 658.622042088528 606.5665056715325 C 504.2685729785079 606.5665056715325 379.1403631949677 481.4382958879922 379.1403631949677 327.0848267779721 C 379.1403631949677 172.73135766795204 504.2685729785079 47.60314788441178 658.622042088528 47.60314788441178 C 812.975511198548 47.60314788441178 938.1037209820884 172.73135766795204 938.1037209820884 327.0848267779721 Z" stroke-opacity="0.8" stroke-linecap="round" stroke-linejoin="round" stroke-miterlimit="10" stroke-width="2.5"/><path fill="none" stroke="rgb(97,97,97)" paint-order="fill stroke markers" d=" M 639.8469714083235 581.6519189192438 C 639.8469714083235 634.98873635395 596.6089378245157 678.2267699377578 543.2721203898095 678.2267699377578 C 489.93530295510334 678.2267699377578 446.6972693712954 634.98873635395 446.6972693712954 581.6519189192438 C 446.6972693712954 528.3151014845376 489.93530295510334 485.07706790072973 543.2721203898095 485.07706790072973 C 596.6089378245157 485.07706790072973 639.8469714083235 528.3151014845376 639.8469714083235 581.6519189192438 Z" stroke-opacity="0.8" stroke-linecap="round" stroke-linejoin="round" stroke-miterlimit="10" stroke-width="2.5"/><path fill="none" stroke="rgb(97,97,97)" paint-order="fill stroke markers" d=" M 543.171166433379 709 L 543.7371830099903 -5" stroke-opacity="0.8" stroke-linejoin="round" stroke-miterlimit="10" stroke-width="2.5" stroke-dasharray="10.5,8"/><path fill="none" stroke="rgb(97,97,97)" paint-order="fill stroke markers" d=" M 654.8349326882666 709 L 530.1734742970606 -5" stroke-opacity="0.8" stroke-linecap="round" stroke-linejoin="round" stroke-miterlimit="10" stroke-width="2.5"/><path fill="none" stroke="rgb(97,97,97)" paint-order="fill stroke markers" d=" M -5 677.377972312846 L 1315 446.9114105812059" stroke-opacity="0.8" stroke-linejoin="round" stroke-miterlimit="10" stroke-width="2.5" stroke-dasharray="10.5,8"/><path fill="none" stroke="rgb(97,97,97)" paint-order="fill stroke markers" d=" M 463.5160478620462 527.1939466452566 L 853.4105221620383 527.5030317090982" stroke-opacity="0.8" stroke-linecap="round" stroke-linejoin="round" stroke-miterlimit="10" stroke-width="2.5"/><path fill="none" stroke="rgb(97,97,97)" paint-order="fill stroke markers" d=" M 543.675876304143 72.33516964644264 L 463.5160478620462 527.1939466452566" stroke-opacity="0.8" stroke-linecap="round" stroke-linejoin="round" stroke-miterlimit="10" stroke-width="2.5"/><path fill="none" stroke="rgb(97,97,97)" paint-order="fill stroke markers" d=" M 636.8015152361102 605.7133849787533 L 853.4105221620383 527.5030317090982" stroke-opacity="0.8" stroke-linecap="round" stroke-linejoin="round" stroke-miterlimit="10" stroke-width="2.5"/><path fill="rgb(211,47,47)" stroke="none" paint-order="stroke fill markers" d=" M 663.622042088528 327.0848267779721 C 663.622042088528 329.8462505271261 661.383465837682 332.0848267779721 658.622042088528 332.0848267779721 C 655.860618339374 332.0848267779721 653.622042088528 329.8462505271261 653.622042088528 327.0848267779721 C 653.622042088528 324.3234030288182 655.860618339374 322.0848267779721 658.622042088528 322.0848267779721 C 661.383465837682 322.0848267779721 663.622042088528 324.3234030288182 663.622042088528 327.0848267779721 Z" fill-opacity="1"/><path fill="none" stroke="rgb(0,0,0)" paint-order="fill stroke markers" d=" M 663.622042088528 327.0848267779721 C 663.622042088528 329.8462505271261 661.383465837682 332.0848267779721 658.622042088528 332.0848267779721 C 655.860618339374 332.0848267779721 653.622042088528 329.8462505271261 653.622042088528 327.0848267779721 C 653.622042088528 324.3234030288182 655.860618339374 322.0848267779721 658.622042088528 322.0848267779721 C 661.383465837682 322.0848267779721 663.622042088528 324.3234030288182 663.622042088528 327.0848267779721 Z" stroke-opacity="1" stroke-linecap="round" stroke-linejoin="round" stroke-miterlimit="10"/><path fill="rgb(21,101,192)" stroke="none" paint-order="stroke fill markers" d=" M 468.5160478620462 527.1939466452566 C 468.5160478620462 529.9553703944106 466.27747161120016 532.1939466452566 463.5160478620462 532.1939466452566 C 460.75462411289226 532.1939466452566 458.5160478620462 529.9553703944106 458.5160478620462 527.1939466452566 C 458.5160478620462 524.4325228961026 460.75462411289226 522.1939466452566 463.5160478620462 522.1939466452566 C 466.27747161120016 522.1939466452566 468.5160478620462 524.4325228961026 468.5160478620462 527.1939466452566 Z" fill-opacity="1"/><path fill="none" stroke="rgb(0,0,0)" paint-order="fill stroke markers" d=" M 468.5160478620462 527.1939466452566 C 468.5160478620462 529.9553703944106 466.27747161120016 532.1939466452566 463.5160478620462 532.1939466452566 C 460.75462411289226 532.1939466452566 458.5160478620462 529.9553703944106 458.5160478620462 527.1939466452566 C 458.5160478620462 524.4325228961026 460.75462411289226 522.1939466452566 463.5160478620462 522.1939466452566 C 466.27747161120016 522.1939466452566 468.5160478620462 524.4325228961026 468.5160478620462 527.1939466452566 Z" stroke-opacity="1" stroke-linecap="round" stroke-linejoin="round" stroke-miterlimit="10"/><text fill="rgb(21,101,192)" stroke="none" font-family="geogebra-sans-serif, sans-serif" font-size="24px" font-style="normal" font-weight="normal" text-decoration="normal" x="416" y="534" text-anchor="start" dominant-baseline="alphabetic" fill-opacity="1">B</text><text fill="none" stroke="rgb(255,255,255)" font-family="geogebra-sans-serif, sans-serif" font-size="24px" font-style="normal" font-weight="normal" text-decoration="normal" x="416" y="534" text-anchor="start" dominant-baseline="alphabetic" stroke-opacity="1" stroke-linejoin="bevel" stroke-miterlimit="10" stroke-width="3">B</text><text fill="rgb(21,101,192)" stroke="none" font-family="geogebra-sans-serif, sans-serif" font-size="24px" font-style="normal" font-weight="normal" text-decoration="normal" x="416" y="534" text-anchor="start" dominant-baseline="alphabetic" fill-opacity="1">B</text><path fill="rgb(21,101,192)" stroke="none" paint-order="stroke fill markers" d=" M 858.4105221620383 527.5030317090982 C 858.4105221620383 530.2644554582522 856.1719459111923 532.5030317090982 853.4105221620383 532.5030317090982 C 850.6490984128843 532.5030317090982 848.4105221620383 530.2644554582522 848.4105221620383 527.5030317090982 C 848.4105221620383 524.7416079599442 850.6490984128843 522.5030317090982 853.4105221620383 522.5030317090982 C 856.1719459111923 522.5030317090982 858.4105221620383 524.7416079599442 858.4105221620383 527.5030317090982 Z" fill-opacity="1"/><path fill="none" stroke="rgb(0,0,0)" paint-order="fill stroke markers" d=" M 858.4105221620383 527.5030317090982 C 858.4105221620383 530.2644554582522 856.1719459111923 532.5030317090982 853.4105221620383 532.5030317090982 C 850.6490984128843 532.5030317090982 848.4105221620383 530.2644554582522 848.4105221620383 527.5030317090982 C 848.4105221620383 524.7416079599442 850.6490984128843 522.5030317090982 853.4105221620383 522.5030317090982 C 856.1719459111923 522.5030317090982 858.4105221620383 524.7416079599442 858.4105221620383 527.5030317090982 Z" stroke-opacity="1" stroke-linecap="round" stroke-linejoin="round" stroke-miterlimit="10"/><text fill="rgb(21,101,192)" stroke="none" font-family="geogebra-sans-serif, sans-serif" font-size="24px" font-style="normal" font-weight="normal" text-decoration="normal" x="864" y="560" text-anchor="start" dominant-baseline="alphabetic" fill-opacity="1">C</text><text fill="none" stroke="rgb(255,255,255)" font-family="geogebra-sans-serif, sans-serif" font-size="24px" font-style="normal" font-weight="normal" text-decoration="normal" x="864" y="560" text-anchor="start" dominant-baseline="alphabetic" stroke-opacity="1" stroke-linejoin="bevel" stroke-miterlimit="10" stroke-width="3">C</text><text fill="rgb(21,101,192)" stroke="none" font-family="geogebra-sans-serif, sans-serif" font-size="24px" font-style="normal" font-weight="normal" text-decoration="normal" x="864" y="560" text-anchor="start" dominant-baseline="alphabetic" fill-opacity="1">C</text><path fill="rgb(21,101,192)" stroke="none" paint-order="stroke fill markers" d=" M 628.1144346789347 527.3204667188403 C 628.1144346789347 530.0818904679943 625.8758584280887 532.3204667188403 623.1144346789347 532.3204667188403 C 620.3530109297807 532.3204667188403 618.1144346789347 530.0818904679943 618.1144346789347 527.3204667188403 C 618.1144346789347 524.5590429696863 620.3530109297807 522.3204667188403 623.1144346789347 522.3204667188403 C 625.8758584280887 522.3204667188403 628.1144346789347 524.5590429696863 628.1144346789347 527.3204667188403 Z" fill-opacity="1"/><path fill="none" stroke="rgb(0,0,0)" paint-order="fill stroke markers" d=" M 628.1144346789347 527.3204667188403 C 628.1144346789347 530.0818904679943 625.8758584280887 532.3204667188403 623.1144346789347 532.3204667188403 C 620.3530109297807 532.3204667188403 618.1144346789347 530.0818904679943 618.1144346789347 527.3204667188403 C 618.1144346789347 524.5590429696863 620.3530109297807 522.3204667188403 623.1144346789347 522.3204667188403 C 625.8758584280887 522.3204667188403 628.1144346789347 524.5590429696863 628.1144346789347 527.3204667188403 Z" stroke-opacity="1" stroke-linecap="round" stroke-linejoin="round" stroke-miterlimit="10"/><text fill="rgb(21,101,192)" stroke="none" font-family="geogebra-sans-serif, sans-serif" font-size="24px" font-style="normal" font-weight="normal" text-decoration="normal" x="634" y="512" text-anchor="start" dominant-baseline="alphabetic" fill-opacity="1">P</text><text fill="none" stroke="rgb(255,255,255)" font-family="geogebra-sans-serif, sans-serif" font-size="24px" font-style="normal" font-weight="normal" text-decoration="normal" x="634" y="512" text-anchor="start" dominant-baseline="alphabetic" stroke-opacity="1" stroke-linejoin="bevel" stroke-miterlimit="10" stroke-width="3">P</text><text fill="rgb(21,101,192)" stroke="none" font-family="geogebra-sans-serif, sans-serif" font-size="24px" font-style="normal" font-weight="normal" text-decoration="normal" x="634" y="512" text-anchor="start" dominant-baseline="alphabetic" fill-opacity="1">P</text><path fill="rgb(21,101,192)" stroke="none" paint-order="stroke fill markers" d=" M 548.675876304143 72.33516964644264 C 548.675876304143 75.0965933955966 546.437300053297 77.33516964644264 543.675876304143 77.33516964644264 C 540.914452554989 77.33516964644264 538.675876304143 75.0965933955966 538.675876304143 72.33516964644264 C 538.675876304143 69.57374589728867 540.914452554989 67.33516964644264 543.675876304143 67.33516964644264 C 546.437300053297 67.33516964644264 548.675876304143 69.57374589728867 548.675876304143 72.33516964644264 Z" fill-opacity="1"/><path fill="none" stroke="rgb(0,0,0)" paint-order="fill stroke markers" d=" M 548.675876304143 72.33516964644264 C 548.675876304143 75.0965933955966 546.437300053297 77.33516964644264 543.675876304143 77.33516964644264 C 540.914452554989 77.33516964644264 538.675876304143 75.0965933955966 538.675876304143 72.33516964644264 C 538.675876304143 69.57374589728867 540.914452554989 67.33516964644264 543.675876304143 67.33516964644264 C 546.437300053297 67.33516964644264 548.675876304143 69.57374589728867 548.675876304143 72.33516964644264 Z" stroke-opacity="1" stroke-linecap="round" stroke-linejoin="round" stroke-miterlimit="10"/><text fill="rgb(21,101,192)" stroke="none" font-family="geogebra-sans-serif, sans-serif" font-size="24px" font-style="normal" font-weight="normal" text-decoration="normal" x="506" y="64" text-anchor="start" dominant-baseline="alphabetic" fill-opacity="1">A</text><text fill="none" stroke="rgb(255,255,255)" font-family="geogebra-sans-serif, sans-serif" font-size="24px" font-style="normal" font-weight="normal" text-decoration="normal" x="506" y="64" text-anchor="start" dominant-baseline="alphabetic" stroke-opacity="1" stroke-linejoin="bevel" stroke-miterlimit="10" stroke-width="3">A</text><text fill="rgb(21,101,192)" stroke="none" font-family="geogebra-sans-serif, sans-serif" font-size="24px" font-style="normal" font-weight="normal" text-decoration="normal" x="506" y="64" text-anchor="start" dominant-baseline="alphabetic" fill-opacity="1">A</text><path fill="rgb(21,101,192)" stroke="none" paint-order="stroke fill markers" d=" M 548.2721203898095 581.6519189192438 C 548.2721203898095 584.4133426683978 546.0335441389635 586.6519189192438 543.2721203898095 586.6519189192438 C 540.5106966406555 586.6519189192438 538.2721203898095 584.4133426683978 538.2721203898095 581.6519189192438 C 538.2721203898095 578.8904951700898 540.5106966406555 576.6519189192438 543.2721203898095 576.6519189192438 C 546.0335441389635 576.6519189192438 548.2721203898095 578.8904951700898 548.2721203898095 581.6519189192438 Z" fill-opacity="1"/><path fill="none" stroke="rgb(0,0,0)" paint-order="fill stroke markers" d=" M 548.2721203898095 581.6519189192438 C 548.2721203898095 584.4133426683978 546.0335441389635 586.6519189192438 543.2721203898095 586.6519189192438 C 540.5106966406555 586.6519189192438 538.2721203898095 584.4133426683978 538.2721203898095 581.6519189192438 C 538.2721203898095 578.8904951700898 540.5106966406555 576.6519189192438 543.2721203898095 576.6519189192438 C 546.0335441389635 576.6519189192438 548.2721203898095 578.8904951700898 548.2721203898095 581.6519189192438 Z" stroke-opacity="1" stroke-linecap="round" stroke-linejoin="round" stroke-miterlimit="10"/><text fill="rgb(21,101,192)" stroke="none" font-family="geogebra-sans-serif, sans-serif" font-size="24px" font-style="normal" font-weight="normal" text-decoration="normal" x="513" y="615" text-anchor="start" dominant-baseline="alphabetic" fill-opacity="1">R</text><text fill="none" stroke="rgb(255,255,255)" font-family="geogebra-sans-serif, sans-serif" font-size="24px" font-style="normal" font-weight="normal" text-decoration="normal" x="513" y="615" text-anchor="start" dominant-baseline="alphabetic" stroke-opacity="1" stroke-linejoin="bevel" stroke-miterlimit="10" stroke-width="3">R</text><text fill="rgb(21,101,192)" stroke="none" font-family="geogebra-sans-serif, sans-serif" font-size="24px" font-style="normal" font-weight="normal" text-decoration="normal" x="513" y="615" text-anchor="start" dominant-baseline="alphabetic" fill-opacity="1">R</text><path fill="rgb(21,101,192)" stroke="none" paint-order="stroke fill markers" d=" M 641.8015152361102 605.7133849787533 C 641.8015152361102 608.4748087279073 639.5629389852642 610.7133849787533 636.8015152361102 610.7133849787533 C 634.0400914869562 610.7133849787533 631.8015152361102 608.4748087279073 631.8015152361102 605.7133849787533 C 631.8015152361102 602.9519612295993 634.0400914869562 600.7133849787533 636.8015152361102 600.7133849787533 C 639.5629389852642 600.7133849787533 641.8015152361102 602.9519612295993 641.8015152361102 605.7133849787533 Z" fill-opacity="1"/><path fill="none" stroke="rgb(0,0,0)" paint-order="fill stroke markers" d=" M 641.8015152361102 605.7133849787533 C 641.8015152361102 608.4748087279073 639.5629389852642 610.7133849787533 636.8015152361102 610.7133849787533 C 634.0400914869562 610.7133849787533 631.8015152361102 608.4748087279073 631.8015152361102 605.7133849787533 C 631.8015152361102 602.9519612295993 634.0400914869562 600.7133849787533 636.8015152361102 600.7133849787533 C 639.5629389852642 600.7133849787533 641.8015152361102 602.9519612295993 641.8015152361102 605.7133849787533 Z" stroke-opacity="1" stroke-linecap="round" stroke-linejoin="round" stroke-miterlimit="10"/><text fill="rgb(21,101,192)" stroke="none" font-family="geogebra-sans-serif, sans-serif" font-size="24px" font-style="normal" font-weight="normal" text-decoration="normal" x="651" y="638" text-anchor="start" dominant-baseline="alphabetic" fill-opacity="1">Q</text><text fill="none" stroke="rgb(255,255,255)" font-family="geogebra-sans-serif, sans-serif" font-size="24px" font-style="normal" font-weight="normal" text-decoration="normal" x="651" y="638" text-anchor="start" dominant-baseline="alphabetic" stroke-opacity="1" stroke-linejoin="bevel" stroke-miterlimit="10" stroke-width="3">Q</text><text fill="rgb(21,101,192)" stroke="none" font-family="geogebra-sans-serif, sans-serif" font-size="24px" font-style="normal" font-weight="normal" text-decoration="normal" x="651" y="638" text-anchor="start" dominant-baseline="alphabetic" fill-opacity="1">Q</text></g></g></svg>