<svg version="1.1" xmlns="http://www.w3.org/2000/svg" xmlns:xlink="http://www.w3.org/1999/xlink" width="1310" height="704"><defs><clipPath id="DfyUhVeoXMtH"><path fill="none" stroke="none" d=" M 0 0 L 1310 0 L 1310 704 L 0 704 L 0 0 Z"/></clipPath></defs><g transform="scale(1,1)" clip-path="url(#DfyUhVeoXMtH)"><g><rect fill="rgb(255,255,255)" stroke="none" x="0" y="0" width="1310" height="704" fill-opacity="1"/><path fill="none" stroke="rgb(97,97,97)" paint-order="fill stroke markers" d=" M 899.0005902253424 380.48371261794 C 899.0005902253424 505.36186024021526 797.7668496223228 606.5956008432349 672.8887020000475 606.5956008432349 C 548.0105543777721 606.5956008432349 446.77681377475255 505.36186024021526 446.77681377475255 380.48371261794 C 446.77681377475255 255.6055649956647 548.0105543777721 154.37182439264512 672.8887020000475 154.37182439264512 C 797.7668496223228 154.37182439264512 899.0005902253424 255.6055649956647 899.0005902253424 380.48371261794 Z" stroke-opacity="0.8" stroke-linecap="round" stroke-linejoin="round" stroke-miterlimit="10" stroke-width="2.5"/><path fill="none" stroke="rgb(97,97,97)" paint-order="fill stroke markers" d=" M 657.6989167523311 586.4387008374267 C 657.6989167523311 629.5903254799933 622.7176133070097 664.5716289253148 579.5659886644431 664.5716289253148 C 536.4143640218765 664.5716289253148 501.43306057655514 629.5903254799933 501.43306057655514 586.4387008374267 C 501.43306057655514 543.2870761948601 536.4143640218765 508.30577274953873 579.5659886644431 508.30577274953873 C 622.7176133070097 508.30577274953873 657.6989167523311 543.2870761948601 657.6989167523311 586.4387008374267 Z" stroke-opacity="0.8" stroke-linecap="round" stroke-linejoin="round" stroke-miterlimit="10" stroke-width="2.5"/><path fill="none" stroke="rgb(97,97,97)" paint-order="fill stroke markers" d=" M 953.5624296737792 174.3810219986594 C 953.5624296737792 380.75314643363765 786.2647678287528 548.0508082786638 579.8926433937747 548.0508082786638 C 373.5205189587965 548.0508082786638 206.22285711377032 380.75314643363765 206.22285711377032 174.3810219986594 C 206.22285711377032 -31.991102436318812 373.5205189587965 -199.28876428134495 579.8926433937747 -199.28876428134495 C 786.2647678287528 -199.28876428134495 953.5624296737792 -31.991102436318812 953.5624296737792 174.3810219986594 Z" stroke-opacity="0.8" stroke-linecap="round" stroke-linejoin="round" stroke-miterlimit="10" stroke-width="2.5"/><path fill="none" stroke="rgb(97,97,97)" paint-order="fill stroke markers" d=" M 579.4688293829627 709 L 580.034845959574 -5" stroke-opacity="0.8" stroke-linejoin="round" stroke-miterlimit="10" stroke-width="2.5" stroke-dasharray="10.5,8"/><path fill="none" stroke="rgb(97,97,97)" paint-order="fill stroke markers" d=" M 673.2349143759359 709 L 548.5734559847299 -5" stroke-opacity="0.8" stroke-linecap="round" stroke-linejoin="round" stroke-miterlimit="10" stroke-width="2.5"/><path fill="none" stroke="rgb(97,97,97)" paint-order="fill stroke markers" d=" M -5 688.5015141046621 L 1315 458.03495237302195" stroke-opacity="0.8" stroke-linejoin="round" stroke-miterlimit="10" stroke-width="2.5" stroke-dasharray="10.5,8"/><path fill="none" stroke="rgb(97,97,97)" paint-order="fill stroke markers" d=" M 399.4570946240772 709 L 1315 85.98730248822937" stroke-opacity="0.8" stroke-linecap="round" stroke-linejoin="round" stroke-miterlimit="10" stroke-width="2.5"/><path fill="none" stroke="rgb(97,97,97)" paint-order="fill stroke markers" d=" M 943.6925370632475 709 L 457.82664982691284 -5" stroke-opacity="0.8" stroke-linejoin="round" stroke-miterlimit="10" stroke-width="2.5" stroke-dasharray="10.5,8"/><path fill="none" stroke="rgb(97,97,97)" paint-order="fill stroke markers" d=" M 515.0401269761919 542.3800169604001 L 830.4803953386676 542.6300791744392" stroke-opacity="0.8" stroke-linecap="round" stroke-linejoin="round" stroke-miterlimit="10" stroke-width="2.5"/><path fill="none" stroke="rgb(97,97,97)" paint-order="fill stroke markers" d=" M 579.8926433937747 174.3810219986594 L 515.0401269761919 542.3800169604001" stroke-opacity="0.8" stroke-linecap="round" stroke-linejoin="round" stroke-miterlimit="10" stroke-width="2.5"/><path fill="none" stroke="rgb(97,97,97)" paint-order="fill stroke markers" d=" M 655.2350205558696 605.9053919841352 L 830.4803953386676 542.6300791744392" stroke-opacity="0.8" stroke-linecap="round" stroke-linejoin="round" stroke-miterlimit="10" stroke-width="2.5"/><path fill="none" stroke="rgb(97,97,97)" paint-order="fill stroke markers" d=" M 898.7217664465079 369.2581614275031 L 830.4803953386676 542.6300791744392" stroke-opacity="0.8" stroke-linecap="round" stroke-linejoin="round" stroke-miterlimit="10" stroke-width="2.5"/><path fill="rgb(211,47,47)" stroke="none" paint-order="stroke fill markers" d=" M 677.8887020000475 380.48371261794 C 677.8887020000475 383.24513636709395 675.6501257492015 385.48371261794 672.8887020000475 385.48371261794 C 670.1272782508935 385.48371261794 667.8887020000475 383.24513636709395 667.8887020000475 380.48371261794 C 667.8887020000475 377.72228886878605 670.1272782508935 375.48371261794 672.8887020000475 375.48371261794 C 675.6501257492015 375.48371261794 677.8887020000475 377.72228886878605 677.8887020000475 380.48371261794 Z" fill-opacity="1"/><path fill="none" stroke="rgb(0,0,0)" paint-order="fill stroke markers" d=" M 677.8887020000475 380.48371261794 C 677.8887020000475 383.24513636709395 675.6501257492015 385.48371261794 672.8887020000475 385.48371261794 C 670.1272782508935 385.48371261794 667.8887020000475 383.24513636709395 667.8887020000475 380.48371261794 C 667.8887020000475 377.72228886878605 670.1272782508935 375.48371261794 672.8887020000475 375.48371261794 C 675.6501257492015 375.48371261794 677.8887020000475 377.72228886878605 677.8887020000475 380.48371261794 Z" stroke-opacity="1" stroke-linecap="round" stroke-linejoin="round" stroke-miterlimit="10"/><path fill="rgb(21,101,192)" stroke="none" paint-order="stroke fill markers" d=" M 520.0401269761919 542.3800169604001 C 520.0401269761919 545.1414407095541 517.8015507253459 547.3800169604001 515.0401269761919 547.3800169604001 C 512.2787032270379 547.3800169604001 510.0401269761919 545.1414407095541 510.0401269761919 542.3800169604001 C 510.0401269761919 539.6185932112461 512.2787032270379 537.3800169604001 515.0401269761919 537.3800169604001 C 517.8015507253459 537.3800169604001 520.0401269761919 539.6185932112461 520.0401269761919 542.3800169604001 Z" fill-opacity="1"/><path fill="none" stroke="rgb(0,0,0)" paint-order="fill stroke markers" d=" M 520.0401269761919 542.3800169604001 C 520.0401269761919 545.1414407095541 517.8015507253459 547.3800169604001 515.0401269761919 547.3800169604001 C 512.2787032270379 547.3800169604001 510.0401269761919 545.1414407095541 510.0401269761919 542.3800169604001 C 510.0401269761919 539.6185932112461 512.2787032270379 537.3800169604001 515.0401269761919 537.3800169604001 C 517.8015507253459 537.3800169604001 520.0401269761919 539.6185932112461 520.0401269761919 542.3800169604001 Z" stroke-opacity="1" stroke-linecap="round" stroke-linejoin="round" stroke-miterlimit="10"/><text fill="rgb(21,101,192)" stroke="none" font-family="geogebra-sans-serif, sans-serif" font-size="24px" font-style="normal" font-weight="normal" text-decoration="normal" x="467" y="549" text-anchor="start" dominant-baseline="alphabetic" fill-opacity="1">B</text><text fill="none" stroke="rgb(255,255,255)" font-family="geogebra-sans-serif, sans-serif" font-size="24px" font-style="normal" font-weight="normal" text-decoration="normal" x="467" y="549" text-anchor="start" dominant-baseline="alphabetic" stroke-opacity="1" stroke-linejoin="bevel" stroke-miterlimit="10" stroke-width="3">B</text><text fill="rgb(21,101,192)" stroke="none" font-family="geogebra-sans-serif, sans-serif" font-size="24px" font-style="normal" font-weight="normal" text-decoration="normal" x="467" y="549" text-anchor="start" dominant-baseline="alphabetic" fill-opacity="1">B</text><path fill="rgb(21,101,192)" stroke="none" paint-order="stroke fill markers" d=" M 835.4803953386676 542.6300791744392 C 835.4803953386676 545.3915029235932 833.2418190878216 547.6300791744392 830.4803953386676 547.6300791744392 C 827.7189715895136 547.6300791744392 825.4803953386676 545.3915029235932 825.4803953386676 542.6300791744392 C 825.4803953386676 539.8686554252852 827.7189715895136 537.6300791744392 830.4803953386676 537.6300791744392 C 833.2418190878216 537.6300791744392 835.4803953386676 539.8686554252852 835.4803953386676 542.6300791744392 Z" fill-opacity="1"/><path fill="none" stroke="rgb(0,0,0)" paint-order="fill stroke markers" d=" M 835.4803953386676 542.6300791744392 C 835.4803953386676 545.3915029235932 833.2418190878216 547.6300791744392 830.4803953386676 547.6300791744392 C 827.7189715895136 547.6300791744392 825.4803953386676 545.3915029235932 825.4803953386676 542.6300791744392 C 825.4803953386676 539.8686554252852 827.7189715895136 537.6300791744392 830.4803953386676 537.6300791744392 C 833.2418190878216 537.6300791744392 835.4803953386676 539.8686554252852 835.4803953386676 542.6300791744392 Z" stroke-opacity="1" stroke-linecap="round" stroke-linejoin="round" stroke-miterlimit="10"/><text fill="rgb(21,101,192)" stroke="none" font-family="geogebra-sans-serif, sans-serif" font-size="24px" font-style="normal" font-weight="normal" text-decoration="normal" x="819" y="586" text-anchor="start" dominant-baseline="alphabetic" fill-opacity="1">C</text><text fill="none" stroke="rgb(255,255,255)" font-family="geogebra-sans-serif, sans-serif" font-size="24px" font-style="normal" font-weight="normal" text-decoration="normal" x="819" y="586" text-anchor="start" dominant-baseline="alphabetic" stroke-opacity="1" stroke-linejoin="bevel" stroke-miterlimit="10" stroke-width="3">C</text><text fill="rgb(21,101,192)" stroke="none" font-family="geogebra-sans-serif, sans-serif" font-size="24px" font-style="normal" font-weight="normal" text-decoration="normal" x="819" y="586" text-anchor="start" dominant-baseline="alphabetic" fill-opacity="1">C</text><path fill="rgb(21,101,192)" stroke="none" paint-order="stroke fill markers" d=" M 649.1616233967902 542.4823767746451 C 649.1616233967902 545.2438005237991 646.9230471459442 547.4823767746451 644.1616233967902 547.4823767746451 C 641.4001996476362 547.4823767746451 639.1616233967902 545.2438005237991 639.1616233967902 542.4823767746451 C 639.1616233967902 539.7209530254911 641.4001996476362 537.4823767746451 644.1616233967902 537.4823767746451 C 646.9230471459442 537.4823767746451 649.1616233967902 539.7209530254911 649.1616233967902 542.4823767746451 Z" fill-opacity="1"/><path fill="none" stroke="rgb(0,0,0)" paint-order="fill stroke markers" d=" M 649.1616233967902 542.4823767746451 C 649.1616233967902 545.2438005237991 646.9230471459442 547.4823767746451 644.1616233967902 547.4823767746451 C 641.4001996476362 547.4823767746451 639.1616233967902 545.2438005237991 639.1616233967902 542.4823767746451 C 639.1616233967902 539.7209530254911 641.4001996476362 537.4823767746451 644.1616233967902 537.4823767746451 C 646.9230471459442 537.4823767746451 649.1616233967902 539.7209530254911 649.1616233967902 542.4823767746451 Z" stroke-opacity="1" stroke-linecap="round" stroke-linejoin="round" stroke-miterlimit="10"/><text fill="rgb(21,101,192)" stroke="none" font-family="geogebra-sans-serif, sans-serif" font-size="24px" font-style="normal" font-weight="normal" text-decoration="normal" x="655" y="527" text-anchor="start" dominant-baseline="alphabetic" fill-opacity="1">P</text><text fill="none" stroke="rgb(255,255,255)" font-family="geogebra-sans-serif, sans-serif" font-size="24px" font-style="normal" font-weight="normal" text-decoration="normal" x="655" y="527" text-anchor="start" dominant-baseline="alphabetic" stroke-opacity="1" stroke-linejoin="bevel" stroke-miterlimit="10" stroke-width="3">P</text><text fill="rgb(21,101,192)" stroke="none" font-family="geogebra-sans-serif, sans-serif" font-size="24px" font-style="normal" font-weight="normal" text-decoration="normal" x="655" y="527" text-anchor="start" dominant-baseline="alphabetic" fill-opacity="1">P</text><path fill="rgb(21,101,192)" stroke="none" paint-order="stroke fill markers" d=" M 584.8926433937747 174.3810219986594 C 584.8926433937747 177.14244574781338 582.6540671429287 179.3810219986594 579.8926433937747 179.3810219986594 C 577.1312196446207 179.3810219986594 574.8926433937747 177.14244574781338 574.8926433937747 174.3810219986594 C 574.8926433937747 171.61959824950543 577.1312196446207 169.3810219986594 579.8926433937747 169.3810219986594 C 582.6540671429287 169.3810219986594 584.8926433937747 171.61959824950543 584.8926433937747 174.3810219986594 Z" fill-opacity="1"/><path fill="none" stroke="rgb(0,0,0)" paint-order="fill stroke markers" d=" M 584.8926433937747 174.3810219986594 C 584.8926433937747 177.14244574781338 582.6540671429287 179.3810219986594 579.8926433937747 179.3810219986594 C 577.1312196446207 179.3810219986594 574.8926433937747 177.14244574781338 574.8926433937747 174.3810219986594 C 574.8926433937747 171.61959824950543 577.1312196446207 169.3810219986594 579.8926433937747 169.3810219986594 C 582.6540671429287 169.3810219986594 584.8926433937747 171.61959824950543 584.8926433937747 174.3810219986594 Z" stroke-opacity="1" stroke-linecap="round" stroke-linejoin="round" stroke-miterlimit="10"/><g transform="scale(27,27)"><g transform="translate(19.62962962962963,6.0907394074074075)"><path fill="rgb(21,101,192)" stroke="none" paint-order="stroke fill markers" d=" M 0.179 -0.115 L 0.527 -0.6990000000000001 Q 0.537 -0.715 0.553 -0.716 Q 0.5680000000000001 -0.716 0.5700000000000001 -0.706 Q 0.5710000000000001 -0.7030000000000001 0.5720000000000001 -0.6920000000000001 L 0.633 -0.067 Q 0.636 -0.042 0.645 -0.037 L 0.646 -0.037 L 0.646 -0.037 L 0.646 -0.037 L 0.646 -0.037 L 0.646 -0.036000000000000004 Q 0.658 -0.031 0.6980000000000001 -0.031 Q 0.72 -0.031 0.721 -0.02 Q 0.721 0 0.7030000000000001 0 L 0.591 -0.003 L 0.59 -0.003 L 0.466 0 L 0.465 0 Q 0.451 0 0.451 -0.011 Q 0.459 -0.03 0.47500000000000003 -0.031 Q 0.547 -0.031 0.547 -0.064 Q 0.547 -0.063 0.531 -0.231 L 0.28 -0.231 L 0.20400000000000001 -0.10300000000000001 Q 0.19 -0.078 0.19 -0.066 Q 0.19 -0.035 0.23700000000000002 -0.031 Q 0.253 -0.031 0.253 -0.019 Q 0.253 0 0.234 0 L 0.138 -0.003 L 0.134 -0.003 L 0.05 0 L 0.048 0 Q 0.035 0 0.035 -0.011 Q 0.035 -0.029 0.05 -0.03 L 0.05 -0.031 L 0.056 -0.031 Q 0.11900000000000001 -0.035 0.159 -0.085 Q 0.169 -0.098 0.179 -0.115 M 0.299 -0.262 L 0.528 -0.262 L 0.496 -0.592 L 0.299 -0.262 Z"/></g><g transform="translate(20.37963162962963,6.240739407407408) scale(0.7,0.7)"><path fill="rgb(21,101,192)" stroke="none" paint-order="stroke fill markers" d=" M 0.294 -0.64 L 0.294 -0.079 Q 0.294 -0.049 0.306 -0.041 Q 0.323 -0.031 0.387 -0.031 L 0.419 -0.031 L 0.419 0 Q 0.384 -0.003 0.257 -0.003 Q 0.13 -0.003 0.095 0 L 0.095 -0.031 L 0.127 -0.031 Q 0.20400000000000001 -0.031 0.215 -0.049 L 0.216 -0.05 Q 0.22 -0.058 0.22 -0.079 L 0.22 -0.597 Q 0.168 -0.5710000000000001 0.089 -0.5710000000000001 L 0.089 -0.602 Q 0.209 -0.602 0.271 -0.666 Q 0.29 -0.666 0.293 -0.659 L 0.293 -0.659 L 0.293 -0.658 Q 0.294 -0.655 0.294 -0.64 Z"/></g></g><path fill="rgb(21,101,192)" stroke="none" paint-order="stroke fill markers" d=" M 584.5659886644431 586.4387008374267 C 584.5659886644431 589.2001245865807 582.3274124135971 591.4387008374267 579.5659886644431 591.4387008374267 C 576.8045649152891 591.4387008374267 574.5659886644431 589.2001245865807 574.5659886644431 586.4387008374267 C 574.5659886644431 583.6772770882727 576.8045649152891 581.4387008374267 579.5659886644431 581.4387008374267 C 582.3274124135971 581.4387008374267 584.5659886644431 583.6772770882727 584.5659886644431 586.4387008374267 Z" fill-opacity="1"/><path fill="none" stroke="rgb(0,0,0)" paint-order="fill stroke markers" d=" M 584.5659886644431 586.4387008374267 C 584.5659886644431 589.2001245865807 582.3274124135971 591.4387008374267 579.5659886644431 591.4387008374267 C 576.8045649152891 591.4387008374267 574.5659886644431 589.2001245865807 574.5659886644431 586.4387008374267 C 574.5659886644431 583.6772770882727 576.8045649152891 581.4387008374267 579.5659886644431 581.4387008374267 C 582.3274124135971 581.4387008374267 584.5659886644431 583.6772770882727 584.5659886644431 586.4387008374267 Z" stroke-opacity="1" stroke-linecap="round" stroke-linejoin="round" stroke-miterlimit="10"/><g transform="scale(27,27)"><g transform="translate(20.074074074074073,23.349998666666668)"><path fill="rgb(21,101,192)" stroke="none" paint-order="stroke fill markers" d=" M 0.179 -0.115 L 0.527 -0.6990000000000001 Q 0.537 -0.715 0.553 -0.716 Q 0.5680000000000001 -0.716 0.5700000000000001 -0.706 Q 0.5710000000000001 -0.7030000000000001 0.5720000000000001 -0.6920000000000001 L 0.633 -0.067 Q 0.636 -0.042 0.645 -0.037 L 0.646 -0.037 L 0.646 -0.037 L 0.646 -0.037 L 0.646 -0.037 L 0.646 -0.036000000000000004 Q 0.658 -0.031 0.6980000000000001 -0.031 Q 0.72 -0.031 0.721 -0.02 Q 0.721 0 0.7030000000000001 0 L 0.591 -0.003 L 0.59 -0.003 L 0.466 0 L 0.465 0 Q 0.451 0 0.451 -0.011 Q 0.459 -0.03 0.47500000000000003 -0.031 Q 0.547 -0.031 0.547 -0.064 Q 0.547 -0.063 0.531 -0.231 L 0.28 -0.231 L 0.20400000000000001 -0.10300000000000001 Q 0.19 -0.078 0.19 -0.066 Q 0.19 -0.035 0.23700000000000002 -0.031 Q 0.253 -0.031 0.253 -0.019 Q 0.253 0 0.234 0 L 0.138 -0.003 L 0.134 -0.003 L 0.05 0 L 0.048 0 Q 0.035 0 0.035 -0.011 Q 0.035 -0.029 0.05 -0.03 L 0.05 -0.031 L 0.056 -0.031 Q 0.11900000000000001 -0.035 0.159 -0.085 Q 0.169 -0.098 0.179 -0.115 M 0.299 -0.262 L 0.528 -0.262 L 0.496 -0.592 L 0.299 -0.262 Z"/></g><g transform="translate(20.82407607407407,23.499998666666666) scale(0.7,0.7)"><path fill="rgb(21,101,192)" stroke="none" paint-order="stroke fill markers" d=" M 0.449 -0.17400000000000002 L 0.449 -0.17400000000000002 L 0.421 0 L 0.05 0 Q 0.05 -0.025 0.056 -0.032 L 0.061 -0.037 L 0.253 -0.251 Q 0.358 -0.369 0.358 -0.47200000000000003 Q 0.358 -0.561 0.304 -0.607 L 0.303 -0.608 L 0.302 -0.608 Q 0.27 -0.635 0.224 -0.635 Q 0.152 -0.635 0.109 -0.5730000000000001 Q 0.097 -0.555 0.089 -0.533 Q 0.092 -0.534 0.10200000000000001 -0.534 Q 0.14200000000000002 -0.534 0.153 -0.498 L 0.153 -0.497 Q 0.155 -0.49 0.155 -0.482 Q 0.155 -0.442 0.117 -0.431 Q 0.109 -0.429 0.10300000000000001 -0.429 Q 0.066 -0.429 0.054 -0.46 Q 0.05 -0.47100000000000003 0.05 -0.485 Q 0.05 -0.562 0.109 -0.617 Q 0.162 -0.666 0.23700000000000002 -0.666 Q 0.34700000000000003 -0.666 0.40800000000000003 -0.592 Q 0.443 -0.549 0.448 -0.49 Q 0.449 -0.481 0.449 -0.47200000000000003 Q 0.449 -0.399 0.394 -0.333 Q 0.365 -0.299 0.304 -0.243 L 0.243 -0.189 L 0.233 -0.18 L 0.127 -0.077 L 0.307 -0.077 Q 0.395 -0.077 0.402 -0.085 Q 0.41200000000000003 -0.099 0.424 -0.17400000000000002 L 0.449 -0.17400000000000002 Z"/></g></g><path fill="rgb(21,101,192)" stroke="none" paint-order="stroke fill markers" d=" M 660.2350205558696 605.9053919841352 C 660.2350205558696 608.6668157332892 657.9964443050236 610.9053919841352 655.2350205558696 610.9053919841352 C 652.4735968067156 610.9053919841352 650.2350205558696 608.6668157332892 650.2350205558696 605.9053919841352 C 650.2350205558696 603.1439682349812 652.4735968067156 600.9053919841352 655.2350205558696 600.9053919841352 C 657.9964443050236 600.9053919841352 660.2350205558696 603.1439682349812 660.2350205558696 605.9053919841352 Z" fill-opacity="1"/><path fill="none" stroke="rgb(0,0,0)" paint-order="fill stroke markers" d=" M 660.2350205558696 605.9053919841352 C 660.2350205558696 608.6668157332892 657.9964443050236 610.9053919841352 655.2350205558696 610.9053919841352 C 652.4735968067156 610.9053919841352 650.2350205558696 608.6668157332892 650.2350205558696 605.9053919841352 C 650.2350205558696 603.1439682349812 652.4735968067156 600.9053919841352 655.2350205558696 600.9053919841352 C 657.9964443050236 600.9053919841352 660.2350205558696 603.1439682349812 660.2350205558696 605.9053919841352 Z" stroke-opacity="1" stroke-linecap="round" stroke-linejoin="round" stroke-miterlimit="10"/><g transform="scale(27,27)"><g transform="translate(24.962962962962962,23.238887555555557)"><path fill="rgb(21,101,192)" stroke="none" paint-order="stroke fill markers" d=" M 0.438 -0.006 L 0.438 -0.006 Q 0.448 0.073 0.47500000000000003 0.089 Q 0.488 0.097 0.509 0.097 Q 0.558 0.097 0.596 0.054 Q 0.616 0.032 0.626 0.001 Q 0.63 -0.01 0.638 -0.01 Q 0.649 -0.01 0.649 0 Q 0.649 0.019 0.625 0.07200000000000001 Q 0.5690000000000001 0.194 0.482 0.194 Q 0.399 0.194 0.399 0.084 Q 0.399 0.069 0.403 0.007 Q 0.35000000000000003 0.022 0.305 0.022 Q 0.18 0.022 0.108 -0.066 Q 0.049 -0.138 0.049 -0.245 Q 0.049 -0.395 0.156 -0.529 Q 0.255 -0.65 0.388 -0.6900000000000001 Q 0.437 -0.705 0.485 -0.705 Q 0.612 -0.705 0.684 -0.613 Q 0.74 -0.541 0.74 -0.436 Q 0.74 -0.28200000000000003 0.63 -0.149 Q 0.546 -0.047 0.438 -0.006 M 0.249 -0.014 L 0.243 -0.037 L 0.243 -0.046 Q 0.243 -0.095 0.28700000000000003 -0.128 Q 0.314 -0.148 0.34500000000000003 -0.148 Q 0.41600000000000004 -0.148 0.432 -0.049 Q 0.432 -0.046 0.433 -0.04 Q 0.5660000000000001 -0.114 0.624 -0.305 Q 0.652 -0.394 0.652 -0.468 Q 0.652 -0.598 0.5720000000000001 -0.652 L 0.5710000000000001 -0.653 L 0.5710000000000001 -0.653 Q 0.531 -0.68 0.47900000000000004 -0.68 Q 0.384 -0.68 0.295 -0.596 Q 0.265 -0.5680000000000001 0.23900000000000002 -0.532 Q 0.161 -0.42 0.14100000000000001 -0.266 Q 0.137 -0.23600000000000002 0.137 -0.213 Q 0.137 -0.08 0.223 -0.027 Q 0.23500000000000001 -0.02 0.249 -0.014 M 0.311 -0.003 L 0.311 -0.003 Q 0.352 -0.003 0.395 -0.021 Q 0.405 -0.034 0.406 -0.041 Q 0.406 -0.117 0.36 -0.125 L 0.359 -0.125 Q 0.353 -0.126 0.34500000000000003 -0.126 Q 0.304 -0.126 0.278 -0.088 Q 0.265 -0.067 0.265 -0.046 Q 0.265 -0.003 0.311 -0.003 Z"/></g><g transform="translate(25.753517962962963,23.388887555555556) scale(0.7,0.7)"><path fill="rgb(21,101,192)" stroke="none" paint-order="stroke fill markers" d=" M 0.294 -0.64 L 0.294 -0.079 Q 0.294 -0.049 0.306 -0.041 Q 0.323 -0.031 0.387 -0.031 L 0.419 -0.031 L 0.419 0 Q 0.384 -0.003 0.257 -0.003 Q 0.13 -0.003 0.095 0 L 0.095 -0.031 L 0.127 -0.031 Q 0.20400000000000001 -0.031 0.215 -0.049 L 0.216 -0.05 Q 0.22 -0.058 0.22 -0.079 L 0.22 -0.597 Q 0.168 -0.5710000000000001 0.089 -0.5710000000000001 L 0.089 -0.602 Q 0.209 -0.602 0.271 -0.666 Q 0.29 -0.666 0.293 -0.659 L 0.293 -0.659 L 0.293 -0.658 Q 0.294 -0.655 0.294 -0.64 Z"/></g></g><path fill="rgb(21,101,192)" stroke="none" paint-order="stroke fill markers" d=" M 903.7217664465079 369.2581614275031 C 903.7217664465079 372.0195851766571 901.4831901956619 374.2581614275031 898.7217664465079 374.2581614275031 C 895.9603426973539 374.2581614275031 893.7217664465079 372.0195851766571 893.7217664465079 369.2581614275031 C 893.7217664465079 366.4967376783492 895.9603426973539 364.2581614275031 898.7217664465079 364.2581614275031 C 901.4831901956619 364.2581614275031 903.7217664465079 366.4967376783492 903.7217664465079 369.2581614275031 Z" fill-opacity="1"/><path fill="none" stroke="rgb(0,0,0)" paint-order="fill stroke markers" d=" M 903.7217664465079 369.2581614275031 C 903.7217664465079 372.0195851766571 901.4831901956619 374.2581614275031 898.7217664465079 374.2581614275031 C 895.9603426973539 374.2581614275031 893.7217664465079 372.0195851766571 893.7217664465079 369.2581614275031 C 893.7217664465079 366.4967376783492 895.9603426973539 364.2581614275031 898.7217664465079 364.2581614275031 C 901.4831901956619 364.2581614275031 903.7217664465079 366.4967376783492 903.7217664465079 369.2581614275031 Z" stroke-opacity="1" stroke-linecap="round" stroke-linejoin="round" stroke-miterlimit="10"/><g transform="scale(27,27)"><g transform="translate(34.111111111111114,14.461109777777779)"><path fill="rgb(21,101,192)" stroke="none" paint-order="stroke fill markers" d=" M 0.438 -0.006 L 0.438 -0.006 Q 0.448 0.073 0.47500000000000003 0.089 Q 0.488 0.097 0.509 0.097 Q 0.558 0.097 0.596 0.054 Q 0.616 0.032 0.626 0.001 Q 0.63 -0.01 0.638 -0.01 Q 0.649 -0.01 0.649 0 Q 0.649 0.019 0.625 0.07200000000000001 Q 0.5690000000000001 0.194 0.482 0.194 Q 0.399 0.194 0.399 0.084 Q 0.399 0.069 0.403 0.007 Q 0.35000000000000003 0.022 0.305 0.022 Q 0.18 0.022 0.108 -0.066 Q 0.049 -0.138 0.049 -0.245 Q 0.049 -0.395 0.156 -0.529 Q 0.255 -0.65 0.388 -0.6900000000000001 Q 0.437 -0.705 0.485 -0.705 Q 0.612 -0.705 0.684 -0.613 Q 0.74 -0.541 0.74 -0.436 Q 0.74 -0.28200000000000003 0.63 -0.149 Q 0.546 -0.047 0.438 -0.006 M 0.249 -0.014 L 0.243 -0.037 L 0.243 -0.046 Q 0.243 -0.095 0.28700000000000003 -0.128 Q 0.314 -0.148 0.34500000000000003 -0.148 Q 0.41600000000000004 -0.148 0.432 -0.049 Q 0.432 -0.046 0.433 -0.04 Q 0.5660000000000001 -0.114 0.624 -0.305 Q 0.652 -0.394 0.652 -0.468 Q 0.652 -0.598 0.5720000000000001 -0.652 L 0.5710000000000001 -0.653 L 0.5710000000000001 -0.653 Q 0.531 -0.68 0.47900000000000004 -0.68 Q 0.384 -0.68 0.295 -0.596 Q 0.265 -0.5680000000000001 0.23900000000000002 -0.532 Q 0.161 -0.42 0.14100000000000001 -0.266 Q 0.137 -0.23600000000000002 0.137 -0.213 Q 0.137 -0.08 0.223 -0.027 Q 0.23500000000000001 -0.02 0.249 -0.014 M 0.311 -0.003 L 0.311 -0.003 Q 0.352 -0.003 0.395 -0.021 Q 0.405 -0.034 0.406 -0.041 Q 0.406 -0.117 0.36 -0.125 L 0.359 -0.125 Q 0.353 -0.126 0.34500000000000003 -0.126 Q 0.304 -0.126 0.278 -0.088 Q 0.265 -0.067 0.265 -0.046 Q 0.265 -0.003 0.311 -0.003 Z"/></g><g transform="translate(34.90166611111111,14.611109777777779) scale(0.7,0.7)"><path fill="rgb(21,101,192)" stroke="none" paint-order="stroke fill markers" d=" M 0.449 -0.17400000000000002 L 0.449 -0.17400000000000002 L 0.421 0 L 0.05 0 Q 0.05 -0.025 0.056 -0.032 L 0.061 -0.037 L 0.253 -0.251 Q 0.358 -0.369 0.358 -0.47200000000000003 Q 0.358 -0.561 0.304 -0.607 L 0.303 -0.608 L 0.302 -0.608 Q 0.27 -0.635 0.224 -0.635 Q 0.152 -0.635 0.109 -0.5730000000000001 Q 0.097 -0.555 0.089 -0.533 Q 0.092 -0.534 0.10200000000000001 -0.534 Q 0.14200000000000002 -0.534 0.153 -0.498 L 0.153 -0.497 Q 0.155 -0.49 0.155 -0.482 Q 0.155 -0.442 0.117 -0.431 Q 0.109 -0.429 0.10300000000000001 -0.429 Q 0.066 -0.429 0.054 -0.46 Q 0.05 -0.47100000000000003 0.05 -0.485 Q 0.05 -0.562 0.109 -0.617 Q 0.162 -0.666 0.23700000000000002 -0.666 Q 0.34700000000000003 -0.666 0.40800000000000003 -0.592 Q 0.443 -0.549 0.448 -0.49 Q 0.449 -0.481 0.449 -0.47200000000000003 Q 0.449 -0.399 0.394 -0.333 Q 0.365 -0.299 0.304 -0.243 L 0.243 -0.189 L 0.233 -0.18 L 0.127 -0.077 L 0.307 -0.077 Q 0.395 -0.077 0.402 -0.085 Q 0.41200000000000003 -0.099 0.424 -0.17400000000000002 L 0.449 -0.17400000000000002 Z"/></g></g></g></g></svg>