<svg version="1.1" xmlns="http://www.w3.org/2000/svg" xmlns:xlink="http://www.w3.org/1999/xlink" width="1310" height="556"><defs><clipPath id="BpRoOmEowVJb"><path fill="none" stroke="none" d=" M 0 0 L 1310 0 L 1310 556 L 0 556 L 0 0 Z"/></clipPath></defs><g transform="scale(1,1)" clip-path="url(#BpRoOmEowVJb)"><g><rect fill="rgb(255,255,255)" stroke="none" x="0" y="0" width="1310" height="556" fill-opacity="1"/><path fill="none" stroke="rgb(0,0,0)" paint-order="fill stroke markers" d=" M 885.8592605210742 303.50000000000017 C 885.8592605210742 426.58177094435723 786.0817709443571 526.3592605210745 663.0000000000001 526.3592605210745 C 539.9182290556432 526.3592605210745 440.1407394789261 426.58177094435723 440.1407394789261 303.50000000000017 C 440.1407394789261 180.41822905564305 539.9182290556432 80.6407394789259 663.0000000000001 80.6407394789259 C 786.0817709443571 80.6407394789259 885.8592605210742 180.41822905564305 885.8592605210742 303.50000000000017 Z" stroke-opacity="0.6980392156862745" stroke-linecap="round" stroke-linejoin="round" stroke-miterlimit="10" stroke-width="2.5"/><path fill="rgb(0,0,0)" stroke="none" paint-order="stroke fill markers" fill-rule="evenodd" d=" M 663.0000000000001 303.50000000000017 L 663.0000000000001 282.28679656440517 L 641.7867965644037 282.28679656440374 L 641.7867965644051 303.50000000000017 L 663.0000000000001 303.50000000000017" fill-opacity="0.09803921568627451"/><path fill="none" stroke="rgb(0,0,0)" paint-order="fill stroke markers" d=" M 663.0000000000001 303.50000000000017 L 663.0000000000001 282.28679656440517 L 641.7867965644037 282.28679656440374 L 641.7867965644051 303.50000000000017 L 663.0000000000001 303.50000000000017" stroke-opacity="0.6" stroke-linecap="round" stroke-linejoin="round" stroke-miterlimit="10" stroke-width="2.5"/><path fill="none" stroke="rgb(0,0,0)" paint-order="fill stroke markers" d=" M -5 303.50000000000017 L 1315 303.50000000000017" stroke-opacity="0.6980392156862745" stroke-linecap="round" stroke-linejoin="round" stroke-miterlimit="10" stroke-width="2.5"/><path fill="none" stroke="rgb(0,0,0)" paint-order="fill stroke markers" d=" M 663.0000000000001 561 L 663.0000000000001 -5" stroke-opacity="0.6980392156862745" stroke-linejoin="round" stroke-miterlimit="10" stroke-width="2.5" stroke-dasharray="10.5,8"/><path fill="none" stroke="rgb(0,0,0)" paint-order="fill stroke markers" d=" M 663.0000000000001 80.6407394789259 L 440.1407394789261 303.50000000000017" stroke-opacity="0.6980392156862745" stroke-linecap="round" stroke-linejoin="round" stroke-miterlimit="10" stroke-width="2.5"/><path fill="none" stroke="rgb(0,0,0)" paint-order="fill stroke markers" d=" M 663.0000000000001 526.3592605210745 L 440.1407394789261 303.50000000000017" stroke-opacity="0.6980392156862745" stroke-linecap="round" stroke-linejoin="round" stroke-miterlimit="10" stroke-width="2.5"/><path fill="none" stroke="rgb(0,0,0)" paint-order="fill stroke markers" d=" M 663.0000000000001 526.3592605210745 L 885.8592605210741 303.50000000000017" stroke-opacity="0.6980392156862745" stroke-linecap="round" stroke-linejoin="round" stroke-miterlimit="10" stroke-width="2.5"/><path fill="none" stroke="rgb(0,0,0)" paint-order="fill stroke markers" d=" M 885.8592605210741 303.50000000000017 L 663.0000000000001 80.6407394789259" stroke-opacity="0.6980392156862745" stroke-linecap="round" stroke-linejoin="round" stroke-miterlimit="10" stroke-width="2.5"/><path fill="rgb(211,47,47)" stroke="none" paint-order="stroke fill markers" d=" M 668.0000000000001 303.50000000000017 C 668.0000000000001 306.2614237491541 665.7614237491541 308.50000000000017 663.0000000000001 308.50000000000017 C 660.2385762508461 308.50000000000017 658.0000000000001 306.2614237491541 658.0000000000001 303.50000000000017 C 658.0000000000001 300.7385762508462 660.2385762508461 298.50000000000017 663.0000000000001 298.50000000000017 C 665.7614237491541 298.50000000000017 668.0000000000001 300.7385762508462 668.0000000000001 303.50000000000017 Z" fill-opacity="1"/><path fill="none" stroke="rgb(0,0,0)" paint-order="fill stroke markers" d=" M 668.0000000000001 303.50000000000017 C 668.0000000000001 306.2614237491541 665.7614237491541 308.50000000000017 663.0000000000001 308.50000000000017 C 660.2385762508461 308.50000000000017 658.0000000000001 306.2614237491541 658.0000000000001 303.50000000000017 C 658.0000000000001 300.7385762508462 660.2385762508461 298.50000000000017 663.0000000000001 298.50000000000017 C 665.7614237491541 298.50000000000017 668.0000000000001 300.7385762508462 668.0000000000001 303.50000000000017 Z" stroke-opacity="1" stroke-linecap="round" stroke-linejoin="round" stroke-miterlimit="10"/><text fill="rgb(211,47,47)" stroke="none" font-family="geogebra-sans-serif, sans-serif" font-size="24px" font-style="normal" font-weight="normal" text-decoration="normal" x="668" y="332" text-anchor="start" dominant-baseline="alphabetic" fill-opacity="1">O</text><text fill="none" stroke="rgb(255,255,255)" font-family="geogebra-sans-serif, sans-serif" font-size="24px" font-style="normal" font-weight="normal" text-decoration="normal" x="668" y="332" text-anchor="start" dominant-baseline="alphabetic" stroke-opacity="1" stroke-linejoin="bevel" stroke-miterlimit="10" stroke-width="3">O</text><text fill="rgb(211,47,47)" stroke="none" font-family="geogebra-sans-serif, sans-serif" font-size="24px" font-style="normal" font-weight="normal" text-decoration="normal" x="668" y="332" text-anchor="start" dominant-baseline="alphabetic" fill-opacity="1">O</text><path fill="rgb(21,101,192)" stroke="none" paint-order="stroke fill markers" d=" M 445.1407394789261 303.50000000000017 C 445.1407394789261 306.2614237491541 442.90216322808004 308.50000000000017 440.1407394789261 308.50000000000017 C 437.37931572977215 308.50000000000017 435.1407394789261 306.2614237491541 435.1407394789261 303.50000000000017 C 435.1407394789261 300.7385762508462 437.37931572977215 298.50000000000017 440.1407394789261 298.50000000000017 C 442.90216322808004 298.50000000000017 445.1407394789261 300.7385762508462 445.1407394789261 303.50000000000017 Z" fill-opacity="1"/><path fill="none" stroke="rgb(0,0,0)" paint-order="fill stroke markers" d=" M 445.1407394789261 303.50000000000017 C 445.1407394789261 306.2614237491541 442.90216322808004 308.50000000000017 440.1407394789261 308.50000000000017 C 437.37931572977215 308.50000000000017 435.1407394789261 306.2614237491541 435.1407394789261 303.50000000000017 C 435.1407394789261 300.7385762508462 437.37931572977215 298.50000000000017 440.1407394789261 298.50000000000017 C 442.90216322808004 298.50000000000017 445.1407394789261 300.7385762508462 445.1407394789261 303.50000000000017 Z" stroke-opacity="1" stroke-linecap="round" stroke-linejoin="round" stroke-miterlimit="10"/><text fill="rgb(21,101,192)" stroke="none" font-family="geogebra-sans-serif, sans-serif" font-size="24px" font-style="normal" font-weight="normal" text-decoration="normal" x="407" y="280" text-anchor="start" dominant-baseline="alphabetic" fill-opacity="1">D</text><text fill="none" stroke="rgb(255,255,255)" font-family="geogebra-sans-serif, sans-serif" font-size="24px" font-style="normal" font-weight="normal" text-decoration="normal" x="407" y="280" text-anchor="start" dominant-baseline="alphabetic" stroke-opacity="1" stroke-linejoin="bevel" stroke-miterlimit="10" stroke-width="3">D</text><text fill="rgb(21,101,192)" stroke="none" font-family="geogebra-sans-serif, sans-serif" font-size="24px" font-style="normal" font-weight="normal" text-decoration="normal" x="407" y="280" text-anchor="start" dominant-baseline="alphabetic" fill-opacity="1">D</text><path fill="rgb(21,101,192)" stroke="none" paint-order="stroke fill markers" d=" M 890.8592605210741 303.50000000000017 C 890.8592605210741 306.2614237491541 888.6206842702281 308.50000000000017 885.8592605210741 308.50000000000017 C 883.0978367719201 308.50000000000017 880.8592605210741 306.2614237491541 880.8592605210741 303.50000000000017 C 880.8592605210741 300.7385762508462 883.0978367719201 298.50000000000017 885.8592605210741 298.50000000000017 C 888.6206842702281 298.50000000000017 890.8592605210741 300.7385762508462 890.8592605210741 303.50000000000017 Z" fill-opacity="1"/><path fill="none" stroke="rgb(0,0,0)" paint-order="fill stroke markers" d=" M 890.8592605210741 303.50000000000017 C 890.8592605210741 306.2614237491541 888.6206842702281 308.50000000000017 885.8592605210741 308.50000000000017 C 883.0978367719201 308.50000000000017 880.8592605210741 306.2614237491541 880.8592605210741 303.50000000000017 C 880.8592605210741 300.7385762508462 883.0978367719201 298.50000000000017 885.8592605210741 298.50000000000017 C 888.6206842702281 298.50000000000017 890.8592605210741 300.7385762508462 890.8592605210741 303.50000000000017 Z" stroke-opacity="1" stroke-linecap="round" stroke-linejoin="round" stroke-miterlimit="10"/><text fill="rgb(21,101,192)" stroke="none" font-family="geogebra-sans-serif, sans-serif" font-size="24px" font-style="normal" font-weight="normal" text-decoration="normal" x="890" y="294" text-anchor="start" dominant-baseline="alphabetic" fill-opacity="1">B</text><text fill="none" stroke="rgb(255,255,255)" font-family="geogebra-sans-serif, sans-serif" font-size="24px" font-style="normal" font-weight="normal" text-decoration="normal" x="890" y="294" text-anchor="start" dominant-baseline="alphabetic" stroke-opacity="1" stroke-linejoin="bevel" stroke-miterlimit="10" stroke-width="3">B</text><text fill="rgb(21,101,192)" stroke="none" font-family="geogebra-sans-serif, sans-serif" font-size="24px" font-style="normal" font-weight="normal" text-decoration="normal" x="890" y="294" text-anchor="start" dominant-baseline="alphabetic" fill-opacity="1">B</text><path fill="rgb(46,125,50)" stroke="none" paint-order="stroke fill markers" d=" M 668.0000000000001 80.6407394789259 C 668.0000000000001 83.40216322807986 665.7614237491541 85.6407394789259 663.0000000000001 85.6407394789259 C 660.2385762508461 85.6407394789259 658.0000000000001 83.40216322807986 658.0000000000001 80.6407394789259 C 658.0000000000001 77.87931572977193 660.2385762508461 75.6407394789259 663.0000000000001 75.6407394789259 C 665.7614237491541 75.6407394789259 668.0000000000001 77.87931572977193 668.0000000000001 80.6407394789259 Z" fill-opacity="1"/><path fill="none" stroke="rgb(0,0,0)" paint-order="fill stroke markers" d=" M 668.0000000000001 80.6407394789259 C 668.0000000000001 83.40216322807986 665.7614237491541 85.6407394789259 663.0000000000001 85.6407394789259 C 660.2385762508461 85.6407394789259 658.0000000000001 83.40216322807986 658.0000000000001 80.6407394789259 C 658.0000000000001 77.87931572977193 660.2385762508461 75.6407394789259 663.0000000000001 75.6407394789259 C 665.7614237491541 75.6407394789259 668.0000000000001 77.87931572977193 668.0000000000001 80.6407394789259 Z" stroke-opacity="1" stroke-linecap="round" stroke-linejoin="round" stroke-miterlimit="10"/><text fill="rgb(46,125,50)" stroke="none" font-family="geogebra-sans-serif, sans-serif" font-size="24px" font-style="normal" font-weight="normal" text-decoration="normal" x="667" y="71" text-anchor="start" dominant-baseline="alphabetic" fill-opacity="1">F</text><text fill="none" stroke="rgb(255,255,255)" font-family="geogebra-sans-serif, sans-serif" font-size="24px" font-style="normal" font-weight="normal" text-decoration="normal" x="667" y="71" text-anchor="start" dominant-baseline="alphabetic" stroke-opacity="1" stroke-linejoin="bevel" stroke-miterlimit="10" stroke-width="3">F</text><text fill="rgb(46,125,50)" stroke="none" font-family="geogebra-sans-serif, sans-serif" font-size="24px" font-style="normal" font-weight="normal" text-decoration="normal" x="667" y="71" text-anchor="start" dominant-baseline="alphabetic" fill-opacity="1">F</text><path fill="rgb(46,125,50)" stroke="none" paint-order="stroke fill markers" d=" M 668.0000000000001 526.3592605210745 C 668.0000000000001 529.1206842702285 665.7614237491541 531.3592605210745 663.0000000000001 531.3592605210745 C 660.2385762508461 531.3592605210745 658.0000000000001 529.1206842702285 658.0000000000001 526.3592605210745 C 658.0000000000001 523.5978367719205 660.2385762508461 521.3592605210745 663.0000000000001 521.3592605210745 C 665.7614237491541 521.3592605210745 668.0000000000001 523.5978367719205 668.0000000000001 526.3592605210745 Z" fill-opacity="1"/><path fill="none" stroke="rgb(0,0,0)" paint-order="fill stroke markers" d=" M 668.0000000000001 526.3592605210745 C 668.0000000000001 529.1206842702285 665.7614237491541 531.3592605210745 663.0000000000001 531.3592605210745 C 660.2385762508461 531.3592605210745 658.0000000000001 529.1206842702285 658.0000000000001 526.3592605210745 C 658.0000000000001 523.5978367719205 660.2385762508461 521.3592605210745 663.0000000000001 521.3592605210745 C 665.7614237491541 521.3592605210745 668.0000000000001 523.5978367719205 668.0000000000001 526.3592605210745 Z" stroke-opacity="1" stroke-linecap="round" stroke-linejoin="round" stroke-miterlimit="10"/><text fill="rgb(46,125,50)" stroke="none" font-family="geogebra-sans-serif, sans-serif" font-size="24px" font-style="normal" font-weight="normal" text-decoration="normal" x="675" y="549" text-anchor="start" dominant-baseline="alphabetic" fill-opacity="1">G</text><text fill="none" stroke="rgb(255,255,255)" font-family="geogebra-sans-serif, sans-serif" font-size="24px" font-style="normal" font-weight="normal" text-decoration="normal" x="675" y="549" text-anchor="start" dominant-baseline="alphabetic" stroke-opacity="1" stroke-linejoin="bevel" stroke-miterlimit="10" stroke-width="3">G</text><text fill="rgb(46,125,50)" stroke="none" font-family="geogebra-sans-serif, sans-serif" font-size="24px" font-style="normal" font-weight="normal" text-decoration="normal" x="675" y="549" text-anchor="start" dominant-baseline="alphabetic" fill-opacity="1">G</text></g></g></svg>