<svg version="1.1" xmlns="http://www.w3.org/2000/svg" xmlns:xlink="http://www.w3.org/1999/xlink" width="1310" height="556"><defs><clipPath id="zVJfTHtNxllG"><path fill="none" stroke="none" d=" M 0 0 L 1310 0 L 1310 556 L 0 556 L 0 0 Z"/></clipPath></defs><g transform="scale(1,1)" clip-path="url(#zVJfTHtNxllG)"><g><rect fill="rgb(255,255,255)" stroke="none" x="0" y="0" width="1310" height="556" fill-opacity="1"/><path fill="rgb(0,0,0)" stroke="none" paint-order="stroke fill markers" fill-rule="evenodd" d=" M 664.9999999999999 302.50000000000006 L 686.2132034355949 302.50000000000006 L 686.2132034355964 281.28679656440363 L 664.9999999999999 281.28679656440505 L 664.9999999999999 302.50000000000006" fill-opacity="0.09803921568627451"/><path fill="none" stroke="rgb(0,0,0)" paint-order="fill stroke markers" d=" M 664.9999999999999 302.50000000000006 L 686.2132034355949 302.50000000000006 L 686.2132034355964 281.28679656440363 L 664.9999999999999 281.28679656440505 L 664.9999999999999 302.50000000000006" stroke-opacity="0.6" stroke-linecap="round" stroke-linejoin="round" stroke-miterlimit="10" stroke-width="2.5"/><path fill="none" stroke="rgb(0,0,0)" paint-order="fill stroke markers" d=" M 1070.7724999999996 561 L 569.8625 -5" stroke-opacity="0.6980392156862745" stroke-linecap="round" stroke-linejoin="round" stroke-miterlimit="10" stroke-width="2.5"/><path fill="none" stroke="rgb(0,0,0)" paint-order="fill stroke markers" d=" M -5 211.07142857142864 L 1219.749999999999 561" stroke-opacity="0.6980392156862745" stroke-linecap="round" stroke-linejoin="round" stroke-miterlimit="10" stroke-width="2.5"/><path fill="none" stroke="rgb(0,0,0)" paint-order="fill stroke markers" d=" M 664.9999999999999 102.5 L 664.9999999999999 402.5000000000001" stroke-opacity="0.6980392156862745" stroke-linecap="round" stroke-linejoin="round" stroke-miterlimit="10" stroke-width="2.5"/><path fill="none" stroke="rgb(0,0,0)" paint-order="fill stroke markers" d=" M 315.00000000000006 302.50000000000006 L 841.9999999999998 302.50000000000006" stroke-opacity="0.6980392156862745" stroke-linecap="round" stroke-linejoin="round" stroke-miterlimit="10" stroke-width="2.5"/><path fill="none" stroke="rgb(0,0,0)" paint-order="fill stroke markers" d=" M 664.9999999999999 102.5 L 315.00000000000006 302.50000000000006" stroke-opacity="0.6980392156862745" stroke-linecap="round" stroke-linejoin="round" stroke-miterlimit="10" stroke-width="2.5"/><path fill="none" stroke="rgb(0,0,0)" paint-order="fill stroke markers" d=" M 841.9999999999998 302.50000000000006 L 664.9999999999999 402.5000000000001" stroke-opacity="0.6980392156862745" stroke-linejoin="round" stroke-miterlimit="10" stroke-width="2.5" stroke-dasharray="10.5,8"/><path fill="rgb(21,101,192)" stroke="none" paint-order="stroke fill markers" d=" M 669.9999999999999 102.5 C 669.9999999999999 105.26142374915396 667.7614237491539 107.5 664.9999999999999 107.5 C 662.2385762508459 107.5 659.9999999999999 105.26142374915396 659.9999999999999 102.5 C 659.9999999999999 99.73857625084604 662.2385762508459 97.5 664.9999999999999 97.5 C 667.7614237491539 97.5 669.9999999999999 99.73857625084604 669.9999999999999 102.5 Z" fill-opacity="1"/><path fill="none" stroke="rgb(0,0,0)" paint-order="fill stroke markers" d=" M 669.9999999999999 102.5 C 669.9999999999999 105.26142374915396 667.7614237491539 107.5 664.9999999999999 107.5 C 662.2385762508459 107.5 659.9999999999999 105.26142374915396 659.9999999999999 102.5 C 659.9999999999999 99.73857625084604 662.2385762508459 97.5 664.9999999999999 97.5 C 667.7614237491539 97.5 669.9999999999999 99.73857625084604 669.9999999999999 102.5 Z" stroke-opacity="1" stroke-linecap="round" stroke-linejoin="round" stroke-miterlimit="10"/><text fill="rgb(21,101,192)" stroke="none" font-family="geogebra-sans-serif, sans-serif" font-size="24px" font-style="normal" font-weight="normal" text-decoration="normal" x="669" y="93" text-anchor="start" dominant-baseline="alphabetic" fill-opacity="1">Y</text><text fill="none" stroke="rgb(255,255,255)" font-family="geogebra-sans-serif, sans-serif" font-size="24px" font-style="normal" font-weight="normal" text-decoration="normal" x="669" y="93" text-anchor="start" dominant-baseline="alphabetic" stroke-opacity="1" stroke-linejoin="bevel" stroke-miterlimit="10" stroke-width="3">Y</text><text fill="rgb(21,101,192)" stroke="none" font-family="geogebra-sans-serif, sans-serif" font-size="24px" font-style="normal" font-weight="normal" text-decoration="normal" x="669" y="93" text-anchor="start" dominant-baseline="alphabetic" fill-opacity="1">Y</text><path fill="rgb(21,101,192)" stroke="none" paint-order="stroke fill markers" d=" M 669.9999999999999 402.5000000000001 C 669.9999999999999 405.26142374915406 667.7614237491539 407.5000000000001 664.9999999999999 407.5000000000001 C 662.2385762508459 407.5000000000001 659.9999999999999 405.26142374915406 659.9999999999999 402.5000000000001 C 659.9999999999999 399.73857625084617 662.2385762508459 397.5000000000001 664.9999999999999 397.5000000000001 C 667.7614237491539 397.5000000000001 669.9999999999999 399.73857625084617 669.9999999999999 402.5000000000001 Z" fill-opacity="1"/><path fill="none" stroke="rgb(0,0,0)" paint-order="fill stroke markers" d=" M 669.9999999999999 402.5000000000001 C 669.9999999999999 405.26142374915406 667.7614237491539 407.5000000000001 664.9999999999999 407.5000000000001 C 662.2385762508459 407.5000000000001 659.9999999999999 405.26142374915406 659.9999999999999 402.5000000000001 C 659.9999999999999 399.73857625084617 662.2385762508459 397.5000000000001 664.9999999999999 397.5000000000001 C 667.7614237491539 397.5000000000001 669.9999999999999 399.73857625084617 669.9999999999999 402.5000000000001 Z" stroke-opacity="1" stroke-linecap="round" stroke-linejoin="round" stroke-miterlimit="10"/><text fill="rgb(21,101,192)" stroke="none" font-family="geogebra-sans-serif, sans-serif" font-size="24px" font-style="normal" font-weight="normal" text-decoration="normal" x="669" y="393" text-anchor="start" dominant-baseline="alphabetic" fill-opacity="1">B</text><text fill="none" stroke="rgb(255,255,255)" font-family="geogebra-sans-serif, sans-serif" font-size="24px" font-style="normal" font-weight="normal" text-decoration="normal" x="669" y="393" text-anchor="start" dominant-baseline="alphabetic" stroke-opacity="1" stroke-linejoin="bevel" stroke-miterlimit="10" stroke-width="3">B</text><text fill="rgb(21,101,192)" stroke="none" font-family="geogebra-sans-serif, sans-serif" font-size="24px" font-style="normal" font-weight="normal" text-decoration="normal" x="669" y="393" text-anchor="start" dominant-baseline="alphabetic" fill-opacity="1">B</text><path fill="rgb(21,101,192)" stroke="none" paint-order="stroke fill markers" d=" M 320.00000000000006 302.50000000000006 C 320.00000000000006 305.261423749154 317.761423749154 307.50000000000006 315.00000000000006 307.50000000000006 C 312.2385762508461 307.50000000000006 310.00000000000006 305.261423749154 310.00000000000006 302.50000000000006 C 310.00000000000006 299.7385762508461 312.2385762508461 297.50000000000006 315.00000000000006 297.50000000000006 C 317.761423749154 297.50000000000006 320.00000000000006 299.7385762508461 320.00000000000006 302.50000000000006 Z" fill-opacity="1"/><path fill="none" stroke="rgb(0,0,0)" paint-order="fill stroke markers" d=" M 320.00000000000006 302.50000000000006 C 320.00000000000006 305.261423749154 317.761423749154 307.50000000000006 315.00000000000006 307.50000000000006 C 312.2385762508461 307.50000000000006 310.00000000000006 305.261423749154 310.00000000000006 302.50000000000006 C 310.00000000000006 299.7385762508461 312.2385762508461 297.50000000000006 315.00000000000006 297.50000000000006 C 317.761423749154 297.50000000000006 320.00000000000006 299.7385762508461 320.00000000000006 302.50000000000006 Z" stroke-opacity="1" stroke-linecap="round" stroke-linejoin="round" stroke-miterlimit="10"/><text fill="rgb(21,101,192)" stroke="none" font-family="geogebra-sans-serif, sans-serif" font-size="24px" font-style="normal" font-weight="normal" text-decoration="normal" x="292" y="330" text-anchor="start" dominant-baseline="alphabetic" fill-opacity="1">X</text><text fill="none" stroke="rgb(255,255,255)" font-family="geogebra-sans-serif, sans-serif" font-size="24px" font-style="normal" font-weight="normal" text-decoration="normal" x="292" y="330" text-anchor="start" dominant-baseline="alphabetic" stroke-opacity="1" stroke-linejoin="bevel" stroke-miterlimit="10" stroke-width="3">X</text><text fill="rgb(21,101,192)" stroke="none" font-family="geogebra-sans-serif, sans-serif" font-size="24px" font-style="normal" font-weight="normal" text-decoration="normal" x="292" y="330" text-anchor="start" dominant-baseline="alphabetic" fill-opacity="1">X</text><path fill="rgb(21,101,192)" stroke="none" paint-order="stroke fill markers" d=" M 846.9999999999998 302.50000000000006 C 846.9999999999998 305.261423749154 844.7614237491538 307.50000000000006 841.9999999999998 307.50000000000006 C 839.2385762508458 307.50000000000006 836.9999999999998 305.261423749154 836.9999999999998 302.50000000000006 C 836.9999999999998 299.7385762508461 839.2385762508458 297.50000000000006 841.9999999999998 297.50000000000006 C 844.7614237491538 297.50000000000006 846.9999999999998 299.7385762508461 846.9999999999998 302.50000000000006 Z" fill-opacity="1"/><path fill="none" stroke="rgb(0,0,0)" paint-order="fill stroke markers" d=" M 846.9999999999998 302.50000000000006 C 846.9999999999998 305.261423749154 844.7614237491538 307.50000000000006 841.9999999999998 307.50000000000006 C 839.2385762508458 307.50000000000006 836.9999999999998 305.261423749154 836.9999999999998 302.50000000000006 C 836.9999999999998 299.7385762508461 839.2385762508458 297.50000000000006 841.9999999999998 297.50000000000006 C 844.7614237491538 297.50000000000006 846.9999999999998 299.7385762508461 846.9999999999998 302.50000000000006 Z" stroke-opacity="1" stroke-linecap="round" stroke-linejoin="round" stroke-miterlimit="10"/><text fill="rgb(21,101,192)" stroke="none" font-family="geogebra-sans-serif, sans-serif" font-size="24px" font-style="normal" font-weight="normal" text-decoration="normal" x="857" y="303" text-anchor="start" dominant-baseline="alphabetic" fill-opacity="1">A</text><text fill="none" stroke="rgb(255,255,255)" font-family="geogebra-sans-serif, sans-serif" font-size="24px" font-style="normal" font-weight="normal" text-decoration="normal" x="857" y="303" text-anchor="start" dominant-baseline="alphabetic" stroke-opacity="1" stroke-linejoin="bevel" stroke-miterlimit="10" stroke-width="3">A</text><text fill="rgb(21,101,192)" stroke="none" font-family="geogebra-sans-serif, sans-serif" font-size="24px" font-style="normal" font-weight="normal" text-decoration="normal" x="857" y="303" text-anchor="start" dominant-baseline="alphabetic" fill-opacity="1">A</text><path fill="rgb(211,47,47)" stroke="none" paint-order="stroke fill markers" d=" M 669.9999999999999 302.50000000000006 C 669.9999999999999 305.261423749154 667.7614237491539 307.50000000000006 664.9999999999999 307.50000000000006 C 662.2385762508459 307.50000000000006 659.9999999999999 305.261423749154 659.9999999999999 302.50000000000006 C 659.9999999999999 299.7385762508461 662.2385762508459 297.50000000000006 664.9999999999999 297.50000000000006 C 667.7614237491539 297.50000000000006 669.9999999999999 299.7385762508461 669.9999999999999 302.50000000000006 Z" fill-opacity="1"/><path fill="none" stroke="rgb(0,0,0)" paint-order="fill stroke markers" d=" M 669.9999999999999 302.50000000000006 C 669.9999999999999 305.261423749154 667.7614237491539 307.50000000000006 664.9999999999999 307.50000000000006 C 662.2385762508459 307.50000000000006 659.9999999999999 305.261423749154 659.9999999999999 302.50000000000006 C 659.9999999999999 299.7385762508461 662.2385762508459 297.50000000000006 664.9999999999999 297.50000000000006 C 667.7614237491539 297.50000000000006 669.9999999999999 299.7385762508461 669.9999999999999 302.50000000000006 Z" stroke-opacity="1" stroke-linecap="round" stroke-linejoin="round" stroke-miterlimit="10"/><text fill="rgb(211,47,47)" stroke="none" font-family="geogebra-sans-serif, sans-serif" font-size="24px" font-style="normal" font-weight="normal" text-decoration="normal" x="637" y="290" text-anchor="start" dominant-baseline="alphabetic" fill-opacity="1">G</text><text fill="none" stroke="rgb(255,255,255)" font-family="geogebra-sans-serif, sans-serif" font-size="24px" font-style="normal" font-weight="normal" text-decoration="normal" x="637" y="290" text-anchor="start" dominant-baseline="alphabetic" stroke-opacity="1" stroke-linejoin="bevel" stroke-miterlimit="10" stroke-width="3">G</text><text fill="rgb(211,47,47)" stroke="none" font-family="geogebra-sans-serif, sans-serif" font-size="24px" font-style="normal" font-weight="normal" text-decoration="normal" x="637" y="290" text-anchor="start" dominant-baseline="alphabetic" fill-opacity="1">G</text><path fill="rgb(21,101,192)" stroke="none" paint-order="stroke fill markers" d=" M 1025.3537284894835 504.02963671128117 C 1025.3537284894835 506.7910604604351 1023.1151522386375 509.02963671128117 1020.3537284894835 509.02963671128117 C 1017.5923047403295 509.02963671128117 1015.3537284894835 506.7910604604351 1015.3537284894835 504.02963671128117 C 1015.3537284894835 501.2682129621272 1017.5923047403295 499.02963671128117 1020.3537284894835 499.02963671128117 C 1023.1151522386375 499.02963671128117 1025.3537284894835 501.2682129621272 1025.3537284894835 504.02963671128117 Z" fill-opacity="1"/><path fill="none" stroke="rgb(0,0,0)" paint-order="fill stroke markers" d=" M 1025.3537284894835 504.02963671128117 C 1025.3537284894835 506.7910604604351 1023.1151522386375 509.02963671128117 1020.3537284894835 509.02963671128117 C 1017.5923047403295 509.02963671128117 1015.3537284894835 506.7910604604351 1015.3537284894835 504.02963671128117 C 1015.3537284894835 501.2682129621272 1017.5923047403295 499.02963671128117 1020.3537284894835 499.02963671128117 C 1023.1151522386375 499.02963671128117 1025.3537284894835 501.2682129621272 1025.3537284894835 504.02963671128117 Z" stroke-opacity="1" stroke-linecap="round" stroke-linejoin="round" stroke-miterlimit="10"/><text fill="rgb(21,101,192)" stroke="none" font-family="geogebra-sans-serif, sans-serif" font-size="24px" font-style="normal" font-weight="normal" text-decoration="normal" x="1024" y="494" text-anchor="start" dominant-baseline="alphabetic" fill-opacity="1">Z</text><text fill="none" stroke="rgb(255,255,255)" font-family="geogebra-sans-serif, sans-serif" font-size="24px" font-style="normal" font-weight="normal" text-decoration="normal" x="1024" y="494" text-anchor="start" dominant-baseline="alphabetic" stroke-opacity="1" stroke-linejoin="bevel" stroke-miterlimit="10" stroke-width="3">Z</text><text fill="rgb(21,101,192)" stroke="none" font-family="geogebra-sans-serif, sans-serif" font-size="24px" font-style="normal" font-weight="normal" text-decoration="normal" x="1024" y="494" text-anchor="start" dominant-baseline="alphabetic" fill-opacity="1">Z</text></g></g></svg>