<?xml version="1.0" encoding="UTF-8"?>
<svg xmlns="http://www.w3.org/2000/svg" xmlns:xlink="http://www.w3.org/1999/xlink" width="1366pt" height="565pt" viewBox="0 0 1366 565" version="1.1">
<g id="surface1">
<path style="fill:none;stroke-width:3;stroke-linecap:round;stroke-linejoin:round;stroke:rgb(0%,0%,100%);stroke-opacity:1;stroke-miterlimit:10;" d="M 63.769531 85.640625 L 249.53125 481.699219 " transform="matrix(1,0,0,-1,0,565)"/>
<path style="fill:none;stroke-width:3;stroke-linecap:round;stroke-linejoin:round;stroke:rgb(0%,0%,100%);stroke-opacity:1;stroke-miterlimit:10;" d="M 520.578125 86.808594 L 63.769531 85.640625 " transform="matrix(1,0,0,-1,0,565)"/>
<path style="fill:none;stroke-width:3;stroke-linecap:round;stroke-linejoin:round;stroke:rgb(0%,0%,100%);stroke-opacity:1;stroke-miterlimit:10;" d="M 520.578125 86.808594 L 445.78125 482.210938 " transform="matrix(1,0,0,-1,0,565)"/>
<path style="fill:none;stroke-width:3;stroke-linecap:round;stroke-linejoin:round;stroke:rgb(0%,0%,100%);stroke-opacity:1;stroke-miterlimit:10;" d="M 445.78125 482.210938 L 249.53125 481.699219 " transform="matrix(1,0,0,-1,0,565)"/>
<path style="fill:none;stroke-width:3;stroke-linecap:round;stroke-linejoin:round;stroke:rgb(0%,0%,100%);stroke-opacity:1;stroke-miterlimit:10;" d="M 520.578125 86.808594 L 249.53125 481.699219 " transform="matrix(1,0,0,-1,0,565)"/>
<path style="fill:none;stroke-width:3;stroke-linecap:round;stroke-linejoin:round;stroke:rgb(0%,0%,100%);stroke-opacity:1;stroke-miterlimit:10;" d="M 445.78125 482.210938 L 63.769531 85.640625 " transform="matrix(1,0,0,-1,0,565)"/>
<path style="fill-rule:nonzero;fill:rgb(100%,0%,0%);fill-opacity:1;stroke-width:1;stroke-linecap:square;stroke-linejoin:miter;stroke:rgb(0%,0%,0%);stroke-opacity:1;stroke-miterlimit:10;" d="M 254.53125 481.699219 C 254.53125 478.941406 252.289062 476.699219 249.53125 476.699219 C 246.769531 476.699219 244.53125 478.941406 244.53125 481.699219 C 244.53125 484.46875 246.769531 486.699219 249.53125 486.699219 C 252.289062 486.699219 254.53125 484.46875 254.53125 481.699219 Z M 254.53125 481.699219 " transform="matrix(1,0,0,-1,0,565)"/>
<path style="fill-rule:nonzero;fill:rgb(100%,0%,0%);fill-opacity:1;stroke-width:1;stroke-linecap:square;stroke-linejoin:miter;stroke:rgb(0%,0%,0%);stroke-opacity:1;stroke-miterlimit:10;" d="M 68.769531 85.640625 C 68.769531 82.878906 66.53125 80.640625 63.769531 80.640625 C 61.011719 80.640625 58.769531 82.878906 58.769531 85.640625 C 58.769531 88.398438 61.011719 90.640625 63.769531 90.640625 C 66.53125 90.640625 68.769531 88.398438 68.769531 85.640625 Z M 68.769531 85.640625 " transform="matrix(1,0,0,-1,0,565)"/>
<path style="fill-rule:nonzero;fill:rgb(100%,0%,0%);fill-opacity:1;stroke-width:1;stroke-linecap:square;stroke-linejoin:miter;stroke:rgb(0%,0%,0%);stroke-opacity:1;stroke-miterlimit:10;" d="M 525.578125 86.808594 C 525.578125 84.050781 523.339844 81.808594 520.578125 81.808594 C 517.820312 81.808594 515.578125 84.050781 515.578125 86.808594 C 515.578125 89.570312 517.820312 91.808594 520.578125 91.808594 C 523.339844 91.808594 525.578125 89.570312 525.578125 86.808594 Z M 525.578125 86.808594 " transform="matrix(1,0,0,-1,0,565)"/>
<path style="fill-rule:nonzero;fill:rgb(100%,0%,0%);fill-opacity:1;stroke-width:1;stroke-linecap:square;stroke-linejoin:miter;stroke:rgb(0%,0%,0%);stroke-opacity:1;stroke-miterlimit:10;" d="M 450.78125 482.210938 C 450.78125 479.441406 448.539062 477.210938 445.78125 477.210938 C 443.019531 477.210938 440.78125 479.441406 440.78125 482.210938 C 440.78125 484.96875 443.019531 487.210938 445.78125 487.210938 C 448.539062 487.210938 450.78125 484.96875 450.78125 482.210938 Z M 450.78125 482.210938 " transform="matrix(1,0,0,-1,0,565)"/>
<path style="fill-rule:nonzero;fill:rgb(69.802856%,0%,0%);fill-opacity:1;stroke-width:1;stroke-linecap:square;stroke-linejoin:miter;stroke:rgb(0%,0%,0%);stroke-opacity:1;stroke-miterlimit:10;" d="M 335.980469 363.039062 C 335.980469 360.28125 333.738281 358.039062 330.980469 358.039062 C 328.21875 358.039062 325.980469 360.28125 325.980469 363.039062 C 325.980469 365.800781 328.21875 368.039062 330.980469 368.039062 C 333.738281 368.039062 335.980469 365.800781 335.980469 363.039062 Z M 335.980469 363.039062 " transform="matrix(1,0,0,-1,0,565)"/>
<path style=" stroke:none;fill-rule:nonzero;fill:rgb(0%,0%,0%);fill-opacity:1;" d="M 232.25 52.050781 L 228.230469 62.921875 L 236.28125 62.921875 Z M 230.578125 49.121094 L 233.941406 49.121094 L 242.28125 71 L 239.199219 71 L 237.199219 65.390625 L 227.339844 65.390625 L 225.359375 71 L 222.230469 71 Z M 230.578125 49.121094 "/>
<path style=" stroke:none;fill-rule:nonzero;fill:rgb(0%,0%,0%);fill-opacity:1;" d="M 37.910156 496.558594 L 37.910156 504.558594 L 42.660156 504.558594 C 42.660156 504.558594 45.03125 504.558594 46.191406 503.578125 C 46.191406 503.578125 47.339844 502.589844 47.339844 500.550781 C 47.339844 500.550781 47.339844 498.5 46.191406 497.53125 C 46.191406 497.53125 45.03125 496.558594 42.660156 496.558594 Z M 37.910156 487.558594 L 37.910156 494.160156 L 42.28125 494.160156 C 42.28125 494.160156 44.449219 494.160156 45.519531 493.339844 C 45.519531 493.339844 46.578125 492.53125 46.578125 490.859375 C 46.578125 490.859375 46.578125 489.199219 45.519531 488.390625 C 45.519531 488.390625 44.449219 487.558594 42.28125 487.558594 Z M 34.941406 485.121094 L 42.5 485.121094 C 42.5 485.121094 45.890625 485.121094 47.71875 486.53125 C 47.71875 486.53125 49.550781 487.941406 49.550781 490.53125 C 49.550781 490.53125 49.550781 492.550781 48.609375 493.730469 C 48.609375 493.730469 47.671875 494.921875 45.859375 495.199219 C 45.859375 495.199219 48.050781 495.671875 49.25 497.171875 C 49.25 497.171875 50.449219 498.660156 50.449219 500.871094 C 50.449219 500.871094 50.449219 503.808594 48.449219 505.410156 C 48.449219 505.410156 46.46875 507 42.800781 507 L 34.941406 507 Z M 34.941406 485.121094 "/>
<path style=" stroke:none;fill-rule:nonzero;fill:rgb(0%,0%,0%);fill-opacity:1;" d="M 554.328125 480.808594 L 554.328125 483.941406 C 554.328125 483.941406 552.828125 482.550781 551.128906 481.859375 C 551.128906 481.859375 549.441406 481.171875 547.550781 481.171875 C 547.550781 481.171875 543.800781 481.171875 541.800781 483.46875 C 541.800781 483.46875 539.808594 485.75 539.808594 490.089844 C 539.808594 490.089844 539.808594 494.410156 541.800781 496.699219 C 541.800781 496.699219 543.800781 499 547.550781 499 C 547.550781 499 549.441406 499 551.128906 498.308594 C 551.128906 498.308594 552.828125 497.609375 554.328125 496.21875 L 554.328125 499.308594 C 554.328125 499.308594 552.769531 500.371094 551.03125 500.910156 C 551.03125 500.910156 549.300781 501.421875 547.359375 501.421875 C 547.359375 501.421875 542.390625 501.421875 539.53125 498.390625 C 539.53125 498.390625 536.691406 495.339844 536.691406 490.089844 C 536.691406 490.089844 536.691406 484.808594 539.53125 481.78125 C 539.53125 481.78125 542.390625 478.730469 547.359375 478.730469 C 547.359375 478.730469 549.328125 478.730469 551.058594 479.269531 C 551.058594 479.269531 552.800781 479.78125 554.328125 480.808594 Z M 554.328125 480.808594 "/>
<path style=" stroke:none;fill-rule:nonzero;fill:rgb(0%,0%,0%);fill-opacity:1;" d="M 462.910156 53.558594 L 462.910156 70.558594 L 466.480469 70.558594 C 466.480469 70.558594 471 70.558594 473.089844 68.519531 C 473.089844 68.519531 475.199219 66.46875 475.199219 62.050781 C 475.199219 62.050781 475.199219 57.640625 473.089844 55.609375 C 473.089844 55.609375 471 53.558594 466.480469 53.558594 Z M 459.941406 51.121094 L 466.03125 51.121094 C 466.03125 51.121094 472.378906 51.121094 475.339844 53.78125 C 475.339844 53.78125 478.328125 56.421875 478.328125 62.050781 C 478.328125 62.050781 478.328125 67.699219 475.339844 70.359375 C 475.339844 70.359375 472.359375 73 466.03125 73 L 459.941406 73 Z M 459.941406 51.121094 "/>
<path style=" stroke:none;fill-rule:nonzero;fill:rgb(0%,0%,0%);fill-opacity:1;" d="M 323.941406 154.121094 L 337.769531 154.121094 L 337.769531 156.621094 L 326.910156 156.621094 L 326.910156 163.089844 L 337.308594 163.089844 L 337.308594 165.578125 L 326.910156 165.578125 L 326.910156 173.519531 L 338.03125 173.519531 L 338.03125 176 L 323.941406 176 Z M 323.941406 154.121094 "/>
</g>
</svg>
