<?xml version="1.0" encoding="UTF-8"?>
<svg xmlns="http://www.w3.org/2000/svg" xmlns:xlink="http://www.w3.org/1999/xlink" width="1366pt" height="565pt" viewBox="0 0 1366 565" version="1.1">
<g id="surface1">
<path style="fill:none;stroke-width:3;stroke-linecap:round;stroke-linejoin:round;stroke:rgb(0%,0%,100%);stroke-opacity:1;stroke-miterlimit:10;" d="M 63.769531 85.640625 L 249.53125 481.699219 " transform="matrix(1,0,0,-1,0,565)"/>
<path style="fill:none;stroke-width:3;stroke-linecap:round;stroke-linejoin:round;stroke:rgb(0%,0%,100%);stroke-opacity:1;stroke-miterlimit:10;" d="M 520.578125 86.808594 L 63.769531 85.640625 " transform="matrix(1,0,0,-1,0,565)"/>
<path style="fill:none;stroke-width:3;stroke-linecap:round;stroke-linejoin:round;stroke:rgb(0%,0%,100%);stroke-opacity:1;stroke-miterlimit:10;" d="M 520.578125 86.808594 L 445.78125 482.210938 " transform="matrix(1,0,0,-1,0,565)"/>
<path style="fill:none;stroke-width:3;stroke-linecap:round;stroke-linejoin:round;stroke:rgb(0%,0%,100%);stroke-opacity:1;stroke-miterlimit:10;" d="M 445.78125 482.210938 L 249.53125 481.699219 " transform="matrix(1,0,0,-1,0,565)"/>
<path style="fill:none;stroke-width:3;stroke-linecap:round;stroke-linejoin:round;stroke:rgb(0%,0%,100%);stroke-opacity:1;stroke-miterlimit:10;" d="M 520.578125 86.808594 L 249.53125 481.699219 " transform="matrix(1,0,0,-1,0,565)"/>
<path style="fill:none;stroke-width:3;stroke-linecap:round;stroke-linejoin:round;stroke:rgb(0%,0%,100%);stroke-opacity:1;stroke-miterlimit:10;" d="M 445.78125 482.210938 L 63.769531 85.640625 " transform="matrix(1,0,0,-1,0,565)"/>
<path style="fill:none;stroke-width:3;stroke-linecap:round;stroke-linejoin:round;stroke:rgb(0%,0%,100%);stroke-opacity:1;stroke-miterlimit:10;" d="M 483.179688 284.511719 L 156.648438 283.671875 " transform="matrix(1,0,0,-1,0,565)"/>
<path style="fill:none;stroke-width:3;stroke-linecap:round;stroke-linejoin:round;stroke:rgb(0%,0%,100%);stroke-opacity:1;stroke-miterlimit:10;" d="M 468.261719 363.390625 L 193.710938 362.691406 " transform="matrix(1,0,0,-1,0,565)"/>
<path style="fill-rule:nonzero;fill:rgb(100%,0%,0%);fill-opacity:1;stroke-width:1;stroke-linecap:square;stroke-linejoin:miter;stroke:rgb(0%,0%,0%);stroke-opacity:1;stroke-miterlimit:10;" d="M 254.53125 481.699219 C 254.53125 478.941406 252.289062 476.699219 249.53125 476.699219 C 246.769531 476.699219 244.53125 478.941406 244.53125 481.699219 C 244.53125 484.46875 246.769531 486.699219 249.53125 486.699219 C 252.289062 486.699219 254.53125 484.46875 254.53125 481.699219 Z M 254.53125 481.699219 " transform="matrix(1,0,0,-1,0,565)"/>
<path style="fill-rule:nonzero;fill:rgb(100%,0%,0%);fill-opacity:1;stroke-width:1;stroke-linecap:square;stroke-linejoin:miter;stroke:rgb(0%,0%,0%);stroke-opacity:1;stroke-miterlimit:10;" d="M 68.769531 85.640625 C 68.769531 82.878906 66.53125 80.640625 63.769531 80.640625 C 61.011719 80.640625 58.769531 82.878906 58.769531 85.640625 C 58.769531 88.398438 61.011719 90.640625 63.769531 90.640625 C 66.53125 90.640625 68.769531 88.398438 68.769531 85.640625 Z M 68.769531 85.640625 " transform="matrix(1,0,0,-1,0,565)"/>
<path style="fill-rule:nonzero;fill:rgb(100%,0%,0%);fill-opacity:1;stroke-width:1;stroke-linecap:square;stroke-linejoin:miter;stroke:rgb(0%,0%,0%);stroke-opacity:1;stroke-miterlimit:10;" d="M 525.578125 86.808594 C 525.578125 84.050781 523.339844 81.808594 520.578125 81.808594 C 517.820312 81.808594 515.578125 84.050781 515.578125 86.808594 C 515.578125 89.570312 517.820312 91.808594 520.578125 91.808594 C 523.339844 91.808594 525.578125 89.570312 525.578125 86.808594 Z M 525.578125 86.808594 " transform="matrix(1,0,0,-1,0,565)"/>
<path style="fill-rule:nonzero;fill:rgb(100%,0%,0%);fill-opacity:1;stroke-width:1;stroke-linecap:square;stroke-linejoin:miter;stroke:rgb(0%,0%,0%);stroke-opacity:1;stroke-miterlimit:10;" d="M 450.78125 482.210938 C 450.78125 479.441406 448.539062 477.210938 445.78125 477.210938 C 443.019531 477.210938 440.78125 479.441406 440.78125 482.210938 C 440.78125 484.96875 443.019531 487.210938 445.78125 487.210938 C 448.539062 487.210938 450.78125 484.96875 450.78125 482.210938 Z M 450.78125 482.210938 " transform="matrix(1,0,0,-1,0,565)"/>
<path style="fill-rule:nonzero;fill:rgb(69.802856%,0%,0%);fill-opacity:1;stroke-width:1;stroke-linecap:square;stroke-linejoin:miter;stroke:rgb(0%,0%,0%);stroke-opacity:1;stroke-miterlimit:10;" d="M 335.980469 363.039062 C 335.980469 360.28125 333.738281 358.039062 330.980469 358.039062 C 328.21875 358.039062 325.980469 360.28125 325.980469 363.039062 C 325.980469 365.800781 328.21875 368.039062 330.980469 368.039062 C 333.738281 368.039062 335.980469 365.800781 335.980469 363.039062 Z M 335.980469 363.039062 " transform="matrix(1,0,0,-1,0,565)"/>
<path style="fill-rule:nonzero;fill:rgb(69.802856%,0%,0%);fill-opacity:1;stroke-width:1;stroke-linecap:square;stroke-linejoin:miter;stroke:rgb(0%,0%,0%);stroke-opacity:1;stroke-miterlimit:10;" d="M 161.648438 283.671875 C 161.648438 280.910156 159.410156 278.671875 156.648438 278.671875 C 153.890625 278.671875 151.648438 280.910156 151.648438 283.671875 C 151.648438 286.429688 153.890625 288.671875 156.648438 288.671875 C 159.410156 288.671875 161.648438 286.429688 161.648438 283.671875 Z M 161.648438 283.671875 " transform="matrix(1,0,0,-1,0,565)"/>
<path style="fill-rule:nonzero;fill:rgb(69.802856%,0%,0%);fill-opacity:1;stroke-width:1;stroke-linecap:square;stroke-linejoin:miter;stroke:rgb(0%,0%,0%);stroke-opacity:1;stroke-miterlimit:10;" d="M 488.179688 284.511719 C 488.179688 281.75 485.941406 279.511719 483.179688 279.511719 C 480.421875 279.511719 478.179688 281.75 478.179688 284.511719 C 478.179688 287.269531 480.421875 289.511719 483.179688 289.511719 C 485.941406 289.511719 488.179688 287.269531 488.179688 284.511719 Z M 488.179688 284.511719 " transform="matrix(1,0,0,-1,0,565)"/>
<path style="fill-rule:nonzero;fill:rgb(69.802856%,0%,0%);fill-opacity:1;stroke-width:1;stroke-linecap:square;stroke-linejoin:miter;stroke:rgb(0%,0%,0%);stroke-opacity:1;stroke-miterlimit:10;" d="M 198.710938 362.691406 C 198.710938 359.921875 196.46875 357.691406 193.710938 357.691406 C 190.949219 357.691406 188.710938 359.921875 188.710938 362.691406 C 188.710938 365.449219 190.949219 367.691406 193.710938 367.691406 C 196.46875 367.691406 198.710938 365.449219 198.710938 362.691406 Z M 198.710938 362.691406 " transform="matrix(1,0,0,-1,0,565)"/>
<path style="fill-rule:nonzero;fill:rgb(69.802856%,0%,0%);fill-opacity:1;stroke-width:1;stroke-linecap:square;stroke-linejoin:miter;stroke:rgb(0%,0%,0%);stroke-opacity:1;stroke-miterlimit:10;" d="M 473.261719 363.390625 C 473.261719 360.628906 471.019531 358.390625 468.261719 358.390625 C 465.488281 358.390625 463.261719 360.628906 463.261719 363.390625 C 463.261719 366.148438 465.488281 368.390625 468.261719 368.390625 C 471.019531 368.390625 473.261719 366.148438 473.261719 363.390625 Z M 473.261719 363.390625 " transform="matrix(1,0,0,-1,0,565)"/>
<path style=" stroke:none;fill-rule:nonzero;fill:rgb(0%,0%,0%);fill-opacity:1;" d="M 232.25 52.050781 L 228.230469 62.921875 L 236.28125 62.921875 Z M 230.578125 49.121094 L 233.941406 49.121094 L 242.28125 71 L 239.199219 71 L 237.199219 65.390625 L 227.339844 65.390625 L 225.359375 71 L 222.230469 71 Z M 230.578125 49.121094 "/>
<path style=" stroke:none;fill-rule:nonzero;fill:rgb(0%,0%,0%);fill-opacity:1;" d="M 37.910156 496.558594 L 37.910156 504.558594 L 42.660156 504.558594 C 42.660156 504.558594 45.03125 504.558594 46.191406 503.578125 C 46.191406 503.578125 47.339844 502.589844 47.339844 500.550781 C 47.339844 500.550781 47.339844 498.5 46.191406 497.53125 C 46.191406 497.53125 45.03125 496.558594 42.660156 496.558594 Z M 37.910156 487.558594 L 37.910156 494.160156 L 42.28125 494.160156 C 42.28125 494.160156 44.449219 494.160156 45.519531 493.339844 C 45.519531 493.339844 46.578125 492.53125 46.578125 490.859375 C 46.578125 490.859375 46.578125 489.199219 45.519531 488.390625 C 45.519531 488.390625 44.449219 487.558594 42.28125 487.558594 Z M 34.941406 485.121094 L 42.5 485.121094 C 42.5 485.121094 45.890625 485.121094 47.71875 486.53125 C 47.71875 486.53125 49.550781 487.941406 49.550781 490.53125 C 49.550781 490.53125 49.550781 492.550781 48.609375 493.730469 C 48.609375 493.730469 47.671875 494.921875 45.859375 495.199219 C 45.859375 495.199219 48.050781 495.671875 49.25 497.171875 C 49.25 497.171875 50.449219 498.660156 50.449219 500.871094 C 50.449219 500.871094 50.449219 503.808594 48.449219 505.410156 C 48.449219 505.410156 46.46875 507 42.800781 507 L 34.941406 507 Z M 34.941406 485.121094 "/>
<path style=" stroke:none;fill-rule:nonzero;fill:rgb(0%,0%,0%);fill-opacity:1;" d="M 554.328125 480.808594 L 554.328125 483.941406 C 554.328125 483.941406 552.828125 482.550781 551.128906 481.859375 C 551.128906 481.859375 549.441406 481.171875 547.550781 481.171875 C 547.550781 481.171875 543.800781 481.171875 541.800781 483.46875 C 541.800781 483.46875 539.808594 485.75 539.808594 490.089844 C 539.808594 490.089844 539.808594 494.410156 541.800781 496.699219 C 541.800781 496.699219 543.800781 499 547.550781 499 C 547.550781 499 549.441406 499 551.128906 498.308594 C 551.128906 498.308594 552.828125 497.609375 554.328125 496.21875 L 554.328125 499.308594 C 554.328125 499.308594 552.769531 500.371094 551.03125 500.910156 C 551.03125 500.910156 549.300781 501.421875 547.359375 501.421875 C 547.359375 501.421875 542.390625 501.421875 539.53125 498.390625 C 539.53125 498.390625 536.691406 495.339844 536.691406 490.089844 C 536.691406 490.089844 536.691406 484.808594 539.53125 481.78125 C 539.53125 481.78125 542.390625 478.730469 547.359375 478.730469 C 547.359375 478.730469 549.328125 478.730469 551.058594 479.269531 C 551.058594 479.269531 552.800781 479.78125 554.328125 480.808594 Z M 554.328125 480.808594 "/>
<path style=" stroke:none;fill-rule:nonzero;fill:rgb(0%,0%,0%);fill-opacity:1;" d="M 462.910156 53.558594 L 462.910156 70.558594 L 466.480469 70.558594 C 466.480469 70.558594 471 70.558594 473.089844 68.519531 C 473.089844 68.519531 475.199219 66.46875 475.199219 62.050781 C 475.199219 62.050781 475.199219 57.640625 473.089844 55.609375 C 473.089844 55.609375 471 53.558594 466.480469 53.558594 Z M 459.941406 51.121094 L 466.03125 51.121094 C 466.03125 51.121094 472.378906 51.121094 475.339844 53.78125 C 475.339844 53.78125 478.328125 56.421875 478.328125 62.050781 C 478.328125 62.050781 478.328125 67.699219 475.339844 70.359375 C 475.339844 70.359375 472.359375 73 466.03125 73 L 459.941406 73 Z M 459.941406 51.121094 "/>
<path style=" stroke:none;fill-rule:nonzero;fill:rgb(0%,0%,0%);fill-opacity:1;" d="M 323.941406 154.121094 L 337.769531 154.121094 L 337.769531 156.621094 L 326.910156 156.621094 L 326.910156 163.089844 L 337.308594 163.089844 L 337.308594 165.578125 L 326.910156 165.578125 L 326.910156 173.519531 L 338.03125 173.519531 L 338.03125 176 L 323.941406 176 Z M 323.941406 154.121094 "/>
<path style=" stroke:none;fill-rule:nonzero;fill:rgb(0%,0%,0%);fill-opacity:1;" d="M 125.941406 265.121094 L 138.519531 265.121094 L 138.519531 267.621094 L 128.910156 267.621094 L 128.910156 274.058594 L 137.578125 274.058594 L 137.578125 276.558594 L 128.910156 276.558594 L 128.910156 287 L 125.941406 287 Z M 125.941406 265.121094 "/>
<path style=" stroke:none;fill-rule:nonzero;fill:rgb(0%,0%,0%);fill-opacity:1;" d="M 519.859375 286.871094 L 519.859375 281 L 515.019531 281 L 515.019531 278.578125 L 522.78125 278.578125 L 522.78125 287.96875 C 522.78125 287.96875 521.078125 289.171875 519 289.800781 C 519 289.800781 516.941406 290.421875 514.589844 290.421875 C 514.589844 290.421875 509.46875 290.421875 506.578125 287.441406 C 506.578125 287.441406 503.691406 284.441406 503.691406 279.089844 C 503.691406 279.089844 503.691406 273.71875 506.578125 270.730469 C 506.578125 270.730469 509.46875 267.730469 514.589844 267.730469 C 514.589844 267.730469 516.730469 267.730469 518.660156 268.269531 C 518.660156 268.269531 520.589844 268.78125 522.21875 269.808594 L 522.21875 272.96875 C 522.21875 272.96875 520.578125 271.578125 518.730469 270.871094 C 518.730469 270.871094 516.890625 270.171875 514.839844 270.171875 C 514.839844 270.171875 510.828125 270.171875 508.808594 272.410156 C 508.808594 272.410156 506.808594 274.640625 506.808594 279.089844 C 506.808594 279.089844 506.808594 283.519531 508.808594 285.769531 C 508.808594 285.769531 510.828125 288 514.839844 288 C 514.839844 288 516.421875 288 517.640625 287.730469 C 517.640625 287.730469 518.878906 287.449219 519.859375 286.871094 Z M 519.859375 286.871094 "/>
<path style=" stroke:none;fill-rule:nonzero;fill:rgb(0%,0%,0%);fill-opacity:1;" d="M 153.941406 183.121094 L 156.910156 183.121094 L 156.910156 192.089844 L 167.660156 192.089844 L 167.660156 183.121094 L 170.609375 183.121094 L 170.609375 205 L 167.660156 205 L 167.660156 194.578125 L 156.910156 194.578125 L 156.910156 205 L 153.941406 205 Z M 153.941406 183.121094 "/>
<path style=" stroke:none;fill-rule:nonzero;fill:rgb(0%,0%,0%);fill-opacity:1;" d="M 484.941406 183.121094 L 487.910156 183.121094 L 487.910156 205 L 484.941406 205 Z M 484.941406 183.121094 "/>
</g>
</svg>
