<svg version="1.1" xmlns="http://www.w3.org/2000/svg" xmlns:xlink="http://www.w3.org/1999/xlink" width="1310" height="605"><defs><clipPath id="TgKTrGVdLpCa"><path fill="none" stroke="none" d=" M 0 0 L 1310 0 L 1310 605 L 0 605 L 0 0 Z"/></clipPath></defs><g transform="scale(1,1)" clip-path="url(#TgKTrGVdLpCa)"><g><rect fill="rgb(255,255,255)" stroke="none" x="0" y="0" width="1310" height="605" fill-opacity="1"/><path fill="none" stroke="rgb(97,97,97)" paint-order="fill stroke markers" d=" M 1095.8447211259754 519.4740687265855 C 1095.1398305410335 273.4672545818038 895.140477604743 74.61075509086356 649.1336634599612 75.31564567580563 C 403.12684931517947 76.02053626074769 204.27034982423925 276.0198891970382 204.9752404091813 522.0267033418199" stroke-opacity="0.8" stroke-linecap="round" stroke-linejoin="round" stroke-miterlimit="10" stroke-width="2.5"/><path fill="rgb(0,0,0)" stroke="none" paint-order="stroke fill markers" fill-rule="evenodd" d=" M 729.7259584978359 349.7025009276168 L 720.8020134030464 368.9473237105141 L 740.0468361859444 377.8712688053055 L 748.9707812807331 358.6264460224063 L 729.7259584978359 349.7025009276168" fill-opacity="0.09803921568627451"/><path fill="none" stroke="rgb(0,0,0)" paint-order="fill stroke markers" d=" M 729.7259584978359 349.7025009276168 L 720.8020134030464 368.9473237105141 L 740.0468361859444 377.8712688053055 L 748.9707812807331 358.6264460224063 L 729.7259584978359 349.7025009276168" stroke-opacity="0.6" stroke-linecap="round" stroke-linejoin="round" stroke-miterlimit="10" stroke-width="2"/><path fill="rgb(0,0,0)" stroke="none" paint-order="stroke fill markers" fill-rule="evenodd" d=" M 363.60719586969634 179.93093312864812 L 354.68325077490687 199.1757559115454 L 373.92807355780485 208.09970100633677 L 382.85201865259364 188.8548782234376 L 363.60719586969634 179.93093312864812" fill-opacity="0.09803921568627451"/><path fill="none" stroke="rgb(0,0,0)" paint-order="fill stroke markers" d=" M 363.60719586969634 179.93093312864812 L 354.68325077490687 199.1757559115454 L 373.92807355780485 208.09970100633677 L 382.85201865259364 188.8548782234376 L 363.60719586969634 179.93093312864812" stroke-opacity="0.6" stroke-linecap="round" stroke-linejoin="round" stroke-miterlimit="10" stroke-width="2"/><path fill="none" stroke="rgb(97,97,97)" paint-order="fill stroke markers" d=" M 609.0243746881222 610 L 894.2037341038337 -5" stroke-opacity="0.8" stroke-linecap="round" stroke-linejoin="round" stroke-miterlimit="10" stroke-width="2.5"/><path fill="none" stroke="rgb(97,97,97)" paint-order="fill stroke markers" d=" M 204.97524040918125 522.0267033418199 L 1095.8447211259754 519.4740687265855" stroke-opacity="0.8" stroke-linecap="round" stroke-linejoin="round" stroke-miterlimit="10" stroke-width="2.5"/><path fill="none" stroke="rgb(97,97,97)" paint-order="fill stroke markers" d=" M 204.97524040918125 522.0267033418199 L 363.60719586969634 179.93093312864812" stroke-opacity="0.8" stroke-linecap="round" stroke-linejoin="round" stroke-miterlimit="10" stroke-width="2.5"/><path fill="none" stroke="rgb(97,97,97)" paint-order="fill stroke markers" d=" M 363.60719586969634 179.93093312864812 L 1095.8447211259754 519.4740687265855" stroke-opacity="0.8" stroke-linecap="round" stroke-linejoin="round" stroke-miterlimit="10" stroke-width="2.5"/><path fill="rgb(21,101,192)" stroke="none" paint-order="stroke fill markers" d=" M 209.97524040918125 522.0267033418199 C 209.97524040918125 524.788127090974 207.73666415833523 527.0267033418199 204.97524040918125 527.0267033418199 C 202.21381666002728 527.0267033418199 199.97524040918125 524.788127090974 199.97524040918125 522.0267033418199 C 199.97524040918125 519.2652795926659 202.21381666002728 517.0267033418199 204.97524040918125 517.0267033418199 C 207.73666415833523 517.0267033418199 209.97524040918125 519.2652795926659 209.97524040918125 522.0267033418199 Z" fill-opacity="1"/><path fill="none" stroke="rgb(0,0,0)" paint-order="fill stroke markers" d=" M 209.97524040918125 522.0267033418199 C 209.97524040918125 524.788127090974 207.73666415833523 527.0267033418199 204.97524040918125 527.0267033418199 C 202.21381666002728 527.0267033418199 199.97524040918125 524.788127090974 199.97524040918125 522.0267033418199 C 199.97524040918125 519.2652795926659 202.21381666002728 517.0267033418199 204.97524040918125 517.0267033418199 C 207.73666415833523 517.0267033418199 209.97524040918125 519.2652795926659 209.97524040918125 522.0267033418199 Z" stroke-opacity="1" stroke-linecap="round" stroke-linejoin="round" stroke-miterlimit="10"/><g transform="scale(27,27)"><g transform="translate(5.814814814814815,20.016665333333332)"><path fill="rgb(21,101,192)" stroke="none" paint-order="stroke fill markers" d=" M 0.179 -0.115 L 0.527 -0.6990000000000001 Q 0.537 -0.715 0.553 -0.716 Q 0.5680000000000001 -0.716 0.5700000000000001 -0.706 Q 0.5710000000000001 -0.7030000000000001 0.5720000000000001 -0.6920000000000001 L 0.633 -0.067 Q 0.636 -0.042 0.645 -0.037 L 0.646 -0.037 L 0.646 -0.037 L 0.646 -0.037 L 0.646 -0.037 L 0.646 -0.036000000000000004 Q 0.658 -0.031 0.6980000000000001 -0.031 Q 0.72 -0.031 0.721 -0.02 Q 0.721 0 0.7030000000000001 0 L 0.591 -0.003 L 0.59 -0.003 L 0.466 0 L 0.465 0 Q 0.451 0 0.451 -0.011 Q 0.459 -0.03 0.47500000000000003 -0.031 Q 0.547 -0.031 0.547 -0.064 Q 0.547 -0.063 0.531 -0.231 L 0.28 -0.231 L 0.20400000000000001 -0.10300000000000001 Q 0.19 -0.078 0.19 -0.066 Q 0.19 -0.035 0.23700000000000002 -0.031 Q 0.253 -0.031 0.253 -0.019 Q 0.253 0 0.234 0 L 0.138 -0.003 L 0.134 -0.003 L 0.05 0 L 0.048 0 Q 0.035 0 0.035 -0.011 Q 0.035 -0.029 0.05 -0.03 L 0.05 -0.031 L 0.056 -0.031 Q 0.11900000000000001 -0.035 0.159 -0.085 Q 0.169 -0.098 0.179 -0.115 M 0.299 -0.262 L 0.528 -0.262 L 0.496 -0.592 L 0.299 -0.262 Z"/></g></g><path fill="rgb(21,101,192)" stroke="none" paint-order="stroke fill markers" d=" M 1100.8447211259754 519.4740687265855 C 1100.8447211259754 522.2354924757395 1098.6061448751293 524.4740687265855 1095.8447211259754 524.4740687265855 C 1093.0832973768215 524.4740687265855 1090.8447211259754 522.2354924757395 1090.8447211259754 519.4740687265855 C 1090.8447211259754 516.7126449774315 1093.0832973768215 514.4740687265855 1095.8447211259754 514.4740687265855 C 1098.6061448751293 514.4740687265855 1100.8447211259754 516.7126449774315 1100.8447211259754 519.4740687265855 Z" fill-opacity="1"/><path fill="none" stroke="rgb(0,0,0)" paint-order="fill stroke markers" d=" M 1100.8447211259754 519.4740687265855 C 1100.8447211259754 522.2354924757395 1098.6061448751293 524.4740687265855 1095.8447211259754 524.4740687265855 C 1093.0832973768215 524.4740687265855 1090.8447211259754 522.2354924757395 1090.8447211259754 519.4740687265855 C 1090.8447211259754 516.7126449774315 1093.0832973768215 514.4740687265855 1095.8447211259754 514.4740687265855 C 1098.6061448751293 514.4740687265855 1100.8447211259754 516.7126449774315 1100.8447211259754 519.4740687265855 Z" stroke-opacity="1" stroke-linecap="round" stroke-linejoin="round" stroke-miterlimit="10"/><g transform="scale(27,27)"><g transform="translate(41.81481481481482,19.79444311111111)"><path fill="rgb(21,101,192)" stroke="none" paint-order="stroke fill markers" d=" M 0.16 -0.078 L 0.294 -0.615 Q 0.298 -0.631 0.298 -0.634 Q 0.298 -0.646 0.28200000000000003 -0.649 L 0.281 -0.649 L 0.28 -0.649 Q 0.277 -0.649 0.271 -0.65 Q 0.254 -0.652 0.233 -0.652 Q 0.20700000000000002 -0.652 0.20500000000000002 -0.663 Q 0.20500000000000002 -0.681 0.22 -0.683 L 0.221 -0.683 L 0.222 -0.683 L 0.234 -0.683 L 0.5700000000000001 -0.683 Q 0.685 -0.683 0.734 -0.615 Q 0.756 -0.583 0.756 -0.545 Q 0.756 -0.464 0.666 -0.404 Q 0.665 -0.404 0.664 -0.403 Q 0.611 -0.369 0.547 -0.357 Q 0.649 -0.34500000000000003 0.687 -0.277 Q 0.7020000000000001 -0.249 0.7020000000000001 -0.216 Q 0.7020000000000001 -0.14300000000000002 0.632 -0.079 L 0.631 -0.078 Q 0.545 0 0.426 0 L 0.069 0 Q 0.044 0 0.042 -0.011 Q 0.042 -0.029 0.057 -0.031 L 0.069 -0.031 Q 0.134 -0.031 0.147 -0.045 Q 0.153 -0.052000000000000005 0.159 -0.073 Q 0.159 -0.074 0.16 -0.078 M 0.311 -0.366 L 0.457 -0.366 Q 0.556 -0.366 0.62 -0.438 Q 0.665 -0.489 0.665 -0.549 Q 0.665 -0.622 0.605 -0.644 Q 0.584 -0.652 0.556 -0.652 L 0.427 -0.652 Q 0.391 -0.652 0.383 -0.642 L 0.383 -0.642 L 0.383 -0.641 L 0.382 -0.641 L 0.382 -0.64 Q 0.378 -0.634 0.373 -0.614 L 0.311 -0.366 M 0.266 -0.031 L 0.402 -0.031 Q 0.498 -0.031 0.561 -0.10300000000000001 Q 0.609 -0.159 0.609 -0.227 Q 0.609 -0.3 0.557 -0.33 Q 0.531 -0.34400000000000003 0.494 -0.34400000000000003 L 0.305 -0.34400000000000003 L 0.23600000000000002 -0.065 Q 0.231 -0.047 0.231 -0.042 Q 0.231 -0.034 0.24 -0.032 L 0.24 -0.032 L 0.24 -0.032 L 0.244 -0.032 Q 0.25 -0.031 0.266 -0.031 Z"/></g></g><path fill="rgb(21,101,192)" stroke="none" paint-order="stroke fill markers" d=" M 368.60719586969634 179.93093312864812 C 368.60719586969634 182.6923568778021 366.3686196188503 184.93093312864812 363.60719586969634 184.93093312864812 C 360.8457721205424 184.93093312864812 358.60719586969634 182.6923568778021 358.60719586969634 179.93093312864812 C 358.60719586969634 177.16950937949414 360.8457721205424 174.93093312864812 363.60719586969634 174.93093312864812 C 366.3686196188503 174.93093312864812 368.60719586969634 177.16950937949414 368.60719586969634 179.93093312864812 Z" fill-opacity="1"/><path fill="none" stroke="rgb(0,0,0)" paint-order="fill stroke markers" d=" M 368.60719586969634 179.93093312864812 C 368.60719586969634 182.6923568778021 366.3686196188503 184.93093312864812 363.60719586969634 184.93093312864812 C 360.8457721205424 184.93093312864812 358.60719586969634 182.6923568778021 358.60719586969634 179.93093312864812 C 358.60719586969634 177.16950937949414 360.8457721205424 174.93093312864812 363.60719586969634 174.93093312864812 C 366.3686196188503 174.93093312864812 368.60719586969634 177.16950937949414 368.60719586969634 179.93093312864812 Z" stroke-opacity="1" stroke-linecap="round" stroke-linejoin="round" stroke-miterlimit="10"/><g transform="scale(27,27)"><g transform="translate(12.222222222222221,5.646294962962963)"><path fill="rgb(21,101,192)" stroke="none" paint-order="stroke fill markers" d=" M 0.303 -0.316 L 0.303 -0.316 L 0.241 -0.066 L 0.23800000000000002 -0.049 Q 0.23800000000000002 -0.032 0.28400000000000003 -0.031 L 0.28400000000000003 -0.031 L 0.28400000000000003 -0.031 L 0.303 -0.031 Q 0.329 -0.031 0.331 -0.02 Q 0.331 0 0.311 0 L 0.247 -0.002 L 0.246 -0.002 L 0.184 -0.003 L 0.182 -0.003 L 0.056 0 L 0.055 0 Q 0.04 0 0.04 -0.012 Q 0.04 -0.029 0.056 -0.031 L 0.068 -0.031 Q 0.133 -0.031 0.146 -0.045 Q 0.152 -0.052000000000000005 0.158 -0.073 Q 0.158 -0.074 0.159 -0.078 L 0.293 -0.615 Q 0.297 -0.631 0.297 -0.634 Q 0.297 -0.646 0.281 -0.649 L 0.28 -0.649 L 0.28 -0.649 Q 0.278 -0.65 0.275 -0.65 Q 0.251 -0.652 0.232 -0.652 Q 0.20600000000000002 -0.652 0.20400000000000001 -0.66 Q 0.203 -0.662 0.203 -0.664 Q 0.203 -0.681 0.22 -0.683 L 0.22 -0.683 L 0.233 -0.683 L 0.557 -0.683 Q 0.678 -0.683 0.73 -0.609 Q 0.754 -0.5740000000000001 0.754 -0.532 Q 0.754 -0.451 0.671 -0.385 Q 0.583 -0.316 0.47300000000000003 -0.316 L 0.303 -0.316 M 0.375 -0.614 L 0.307 -0.342 L 0.448 -0.342 Q 0.543 -0.342 0.602 -0.395 Q 0.643 -0.433 0.658 -0.522 L 0.658 -0.523 Q 0.661 -0.542 0.661 -0.556 Q 0.661 -0.652 0.525 -0.652 L 0.429 -0.652 Q 0.393 -0.652 0.385 -0.642 L 0.385 -0.642 L 0.385 -0.641 L 0.384 -0.641 L 0.384 -0.64 Q 0.38 -0.634 0.375 -0.614 Z"/></g><g transform="translate(12.864236222222221,5.796294962962963) scale(0.7,0.7)"><path fill="rgb(21,101,192)" stroke="none" paint-order="stroke fill markers" d=" M 0.46 -0.32 Q 0.46 -0.17400000000000002 0.423 -0.094 Q 0.364 0.018000000000000002 0.249 0.022 Q 0.158 0.022 0.10300000000000001 -0.05 Q 0.092 -0.063 0.084 -0.079 Q 0.039 -0.162 0.039 -0.32 Q 0.039 -0.467 0.076 -0.547 Q 0.126 -0.659 0.23800000000000002 -0.666 L 0.25 -0.666 Q 0.339 -0.666 0.395 -0.595 L 0.395 -0.594 Q 0.40900000000000003 -0.5760000000000001 0.42 -0.554 Q 0.46 -0.46900000000000003 0.46 -0.32 M 0.249 0 L 0.249 0 Q 0.312 0 0.34600000000000003 -0.061 Q 0.36 -0.088 0.366 -0.125 Q 0.377 -0.189 0.377 -0.332 Q 0.377 -0.47100000000000003 0.367 -0.527 Q 0.34900000000000003 -0.622 0.275 -0.641 Q 0.262 -0.644 0.249 -0.644 Q 0.179 -0.644 0.147 -0.5740000000000001 Q 0.136 -0.55 0.13 -0.516 Q 0.122 -0.462 0.122 -0.332 Q 0.122 -0.181 0.133 -0.121 Q 0.151 -0.025 0.221 -0.004 Q 0.23500000000000001 0 0.249 0 Z"/></g></g><path fill="rgb(211,47,47)" stroke="none" paint-order="stroke fill markers" d=" M 654.4099807675784 520.7503860342027 C 654.4099807675784 522.9595250335259 652.6191197669016 524.7503860342027 650.4099807675784 524.7503860342027 C 648.2008417682553 524.7503860342027 646.4099807675784 522.9595250335259 646.4099807675784 520.7503860342027 C 646.4099807675784 518.5412470348796 648.2008417682553 516.7503860342027 650.4099807675784 516.7503860342027 C 652.6191197669016 516.7503860342027 654.4099807675784 518.5412470348796 654.4099807675784 520.7503860342027 Z" fill-opacity="1"/><path fill="none" stroke="rgb(0,0,0)" paint-order="fill stroke markers" d=" M 654.4099807675784 520.7503860342027 C 654.4099807675784 522.9595250335259 652.6191197669016 524.7503860342027 650.4099807675784 524.7503860342027 C 648.2008417682553 524.7503860342027 646.4099807675784 522.9595250335259 646.4099807675784 520.7503860342027 C 646.4099807675784 518.5412470348796 648.2008417682553 516.7503860342027 650.4099807675784 516.7503860342027 C 652.6191197669016 516.7503860342027 654.4099807675784 518.5412470348796 654.4099807675784 520.7503860342027 Z" stroke-opacity="1" stroke-linecap="round" stroke-linejoin="round" stroke-miterlimit="10"/><g transform="scale(27,27)"><g transform="translate(23.962962962962962,20.868517185185187)"><path fill="rgb(211,47,47)" stroke="none" paint-order="stroke fill markers" d=" M 0.74 -0.436 L 0.74 -0.436 Q 0.74 -0.281 0.63 -0.149 Q 0.531 -0.029 0.398 0.009000000000000001 Q 0.35100000000000003 0.022 0.305 0.022 Q 0.18 0.022 0.108 -0.066 Q 0.049 -0.138 0.049 -0.245 Q 0.049 -0.395 0.156 -0.529 Q 0.255 -0.65 0.388 -0.6900000000000001 Q 0.437 -0.705 0.485 -0.705 Q 0.612 -0.705 0.684 -0.613 Q 0.74 -0.541 0.74 -0.436 M 0.311 -0.004 L 0.311 -0.004 Q 0.405 -0.004 0.492 -0.088 Q 0.51 -0.105 0.525 -0.124 Q 0.623 -0.246 0.646 -0.41500000000000004 Q 0.651 -0.448 0.651 -0.47500000000000003 Q 0.651 -0.612 0.559 -0.661 Q 0.558 -0.661 0.557 -0.662 Q 0.521 -0.68 0.47900000000000004 -0.68 Q 0.385 -0.68 0.297 -0.599 Q 0.261 -0.5670000000000001 0.233 -0.524 Q 0.157 -0.40900000000000003 0.14400000000000002 -0.249 Q 0.14200000000000002 -0.231 0.14200000000000002 -0.217 Q 0.14200000000000002 -0.089 0.219 -0.033 Q 0.259 -0.004 0.311 -0.004 Z"/></g></g><path fill="rgb(97,97,97)" stroke="none" paint-order="stroke fill markers" d=" M 733.7259584978359 349.7025009276168 C 733.7259584978359 351.91163992694 731.9350974971591 353.7025009276168 729.7259584978359 353.7025009276168 C 727.5168194985127 353.7025009276168 725.7259584978359 351.91163992694 725.7259584978359 349.7025009276168 C 725.7259584978359 347.49336192829367 727.5168194985127 345.7025009276168 729.7259584978359 345.7025009276168 C 731.9350974971591 345.7025009276168 733.7259584978359 347.49336192829367 733.7259584978359 349.7025009276168 Z" fill-opacity="1"/><path fill="none" stroke="rgb(0,0,0)" paint-order="fill stroke markers" d=" M 733.7259584978359 349.7025009276168 C 733.7259584978359 351.91163992694 731.9350974971591 353.7025009276168 729.7259584978359 353.7025009276168 C 727.5168194985127 353.7025009276168 725.7259584978359 351.91163992694 725.7259584978359 349.7025009276168 C 725.7259584978359 347.49336192829367 727.5168194985127 345.7025009276168 729.7259584978359 345.7025009276168 C 731.9350974971591 345.7025009276168 733.7259584978359 347.49336192829367 733.7259584978359 349.7025009276168 Z" stroke-opacity="1" stroke-linecap="round" stroke-linejoin="round" stroke-miterlimit="10"/></g></g></svg>