<svg version="1.1" xmlns="http://www.w3.org/2000/svg" xmlns:xlink="http://www.w3.org/1999/xlink" width="1310" height="704"><defs><clipPath id="qgdMlDximSNJ"><path fill="none" stroke="none" d=" M 0 0 L 1310 0 L 1310 704 L 0 704 L 0 0 Z"/></clipPath></defs><g transform="scale(1,1)" clip-path="url(#qgdMlDximSNJ)"><g><rect fill="rgb(255,255,255)" stroke="none" x="0" y="0" width="1310" height="704" fill-opacity="1"/><path fill="none" stroke="rgb(0,0,0)" paint-order="fill stroke markers" d=" M 300.8799689772726 626.9361340849781 L 1112.8406377272736 626.4972218181817" stroke-opacity="0.6980392156862745" stroke-linecap="round" stroke-linejoin="round" stroke-miterlimit="10" stroke-width="2.5"/><path fill="none" stroke="rgb(0,0,0)" paint-order="fill stroke markers" d=" M 467.63296770613306 104.67249892755706 L 300.8799689772726 626.9361340849781" stroke-opacity="0.6980392156862745" stroke-linecap="round" stroke-linejoin="round" stroke-miterlimit="10" stroke-width="2.5"/><path fill="none" stroke="rgb(0,0,0)" paint-order="fill stroke markers" d=" M 467.63296770613306 104.67249892755706 L 1112.8406377272736 626.4972218181817" stroke-opacity="0.6980392156862745" stroke-linecap="round" stroke-linejoin="round" stroke-miterlimit="10" stroke-width="2.5"/><path fill="none" stroke="rgb(0,0,0)" paint-order="fill stroke markers" d=" M 517.8694580397729 427.70685119318193 L 300.8799689772726 626.9361340849781" stroke-opacity="0.6980392156862745" stroke-linecap="round" stroke-linejoin="round" stroke-miterlimit="10" stroke-width="2.5"/><path fill="none" stroke="rgb(0,0,0)" paint-order="fill stroke markers" d=" M 517.8694580397729 427.70685119318193 L 467.63296770613306 104.67249892755706" stroke-opacity="0.6980392156862745" stroke-linecap="round" stroke-linejoin="round" stroke-miterlimit="10" stroke-width="2.5"/><path fill="none" stroke="rgb(0,0,0)" paint-order="fill stroke markers" d=" M 517.8694580397729 427.70685119318193 L 1112.8406377272736 626.4972218181817" stroke-opacity="0.6980392156862745" stroke-linecap="round" stroke-linejoin="round" stroke-miterlimit="10" stroke-width="2.5"/><path fill="rgb(21,101,192)" stroke="none" paint-order="stroke fill markers" d=" M 305.8799689772726 626.9361340849781 C 305.8799689772726 629.6975578341321 303.64139272642655 631.9361340849781 300.8799689772726 631.9361340849781 C 298.11854522811865 631.9361340849781 295.8799689772726 629.6975578341321 295.8799689772726 626.9361340849781 C 295.8799689772726 624.1747103358241 298.11854522811865 621.9361340849781 300.8799689772726 621.9361340849781 C 303.64139272642655 621.9361340849781 305.8799689772726 624.1747103358241 305.8799689772726 626.9361340849781 Z" fill-opacity="1"/><path fill="none" stroke="rgb(0,0,0)" paint-order="fill stroke markers" d=" M 305.8799689772726 626.9361340849781 C 305.8799689772726 629.6975578341321 303.64139272642655 631.9361340849781 300.8799689772726 631.9361340849781 C 298.11854522811865 631.9361340849781 295.8799689772726 629.6975578341321 295.8799689772726 626.9361340849781 C 295.8799689772726 624.1747103358241 298.11854522811865 621.9361340849781 300.8799689772726 621.9361340849781 C 303.64139272642655 621.9361340849781 305.8799689772726 624.1747103358241 305.8799689772726 626.9361340849781 Z" stroke-opacity="1" stroke-linecap="round" stroke-linejoin="round" stroke-miterlimit="10"/><text fill="rgb(21,101,192)" stroke="none" font-family="geogebra-sans-serif, sans-serif" font-size="24px" font-style="normal" font-weight="normal" text-decoration="normal" x="262" y="655" text-anchor="start" dominant-baseline="alphabetic" fill-opacity="1">A</text><text fill="none" stroke="rgb(255,255,255)" font-family="geogebra-sans-serif, sans-serif" font-size="24px" font-style="normal" font-weight="normal" text-decoration="normal" x="262" y="655" text-anchor="start" dominant-baseline="alphabetic" stroke-opacity="1" stroke-linejoin="bevel" stroke-miterlimit="10" stroke-width="3">A</text><text fill="rgb(21,101,192)" stroke="none" font-family="geogebra-sans-serif, sans-serif" font-size="24px" font-style="normal" font-weight="normal" text-decoration="normal" x="262" y="655" text-anchor="start" dominant-baseline="alphabetic" fill-opacity="1">A</text><path fill="rgb(21,101,192)" stroke="none" paint-order="stroke fill markers" d=" M 1117.8406377272736 626.4972218181817 C 1117.8406377272736 629.2586455673357 1115.6020614764275 631.4972218181817 1112.8406377272736 631.4972218181817 C 1110.0792139781197 631.4972218181817 1107.8406377272736 629.2586455673357 1107.8406377272736 626.4972218181817 C 1107.8406377272736 623.7357980690277 1110.0792139781197 621.4972218181817 1112.8406377272736 621.4972218181817 C 1115.6020614764275 621.4972218181817 1117.8406377272736 623.7357980690277 1117.8406377272736 626.4972218181817 Z" fill-opacity="1"/><path fill="none" stroke="rgb(0,0,0)" paint-order="fill stroke markers" d=" M 1117.8406377272736 626.4972218181817 C 1117.8406377272736 629.2586455673357 1115.6020614764275 631.4972218181817 1112.8406377272736 631.4972218181817 C 1110.0792139781197 631.4972218181817 1107.8406377272736 629.2586455673357 1107.8406377272736 626.4972218181817 C 1107.8406377272736 623.7357980690277 1110.0792139781197 621.4972218181817 1112.8406377272736 621.4972218181817 C 1115.6020614764275 621.4972218181817 1117.8406377272736 623.7357980690277 1117.8406377272736 626.4972218181817 Z" stroke-opacity="1" stroke-linecap="round" stroke-linejoin="round" stroke-miterlimit="10"/><text fill="rgb(21,101,192)" stroke="none" font-family="geogebra-sans-serif, sans-serif" font-size="24px" font-style="normal" font-weight="normal" text-decoration="normal" x="1138" y="649" text-anchor="start" dominant-baseline="alphabetic" fill-opacity="1">B</text><text fill="none" stroke="rgb(255,255,255)" font-family="geogebra-sans-serif, sans-serif" font-size="24px" font-style="normal" font-weight="normal" text-decoration="normal" x="1138" y="649" text-anchor="start" dominant-baseline="alphabetic" stroke-opacity="1" stroke-linejoin="bevel" stroke-miterlimit="10" stroke-width="3">B</text><text fill="rgb(21,101,192)" stroke="none" font-family="geogebra-sans-serif, sans-serif" font-size="24px" font-style="normal" font-weight="normal" text-decoration="normal" x="1138" y="649" text-anchor="start" dominant-baseline="alphabetic" fill-opacity="1">B</text><path fill="rgb(21,101,192)" stroke="none" paint-order="stroke fill markers" d=" M 472.63296770613306 104.67249892755706 C 472.63296770613306 107.43392267671102 470.394391455287 109.67249892755706 467.63296770613306 109.67249892755706 C 464.8715439569791 109.67249892755706 462.63296770613306 107.43392267671102 462.63296770613306 104.67249892755706 C 462.63296770613306 101.9110751784031 464.8715439569791 99.67249892755706 467.63296770613306 99.67249892755706 C 470.394391455287 99.67249892755706 472.63296770613306 101.9110751784031 472.63296770613306 104.67249892755706 Z" fill-opacity="1"/><path fill="none" stroke="rgb(0,0,0)" paint-order="fill stroke markers" d=" M 472.63296770613306 104.67249892755706 C 472.63296770613306 107.43392267671102 470.394391455287 109.67249892755706 467.63296770613306 109.67249892755706 C 464.8715439569791 109.67249892755706 462.63296770613306 107.43392267671102 462.63296770613306 104.67249892755706 C 462.63296770613306 101.9110751784031 464.8715439569791 99.67249892755706 467.63296770613306 99.67249892755706 C 470.394391455287 99.67249892755706 472.63296770613306 101.9110751784031 472.63296770613306 104.67249892755706 Z" stroke-opacity="1" stroke-linecap="round" stroke-linejoin="round" stroke-miterlimit="10"/><text fill="rgb(21,101,192)" stroke="none" font-family="geogebra-sans-serif, sans-serif" font-size="24px" font-style="normal" font-weight="normal" text-decoration="normal" x="450" y="81" text-anchor="start" dominant-baseline="alphabetic" fill-opacity="1">C</text><text fill="none" stroke="rgb(255,255,255)" font-family="geogebra-sans-serif, sans-serif" font-size="24px" font-style="normal" font-weight="normal" text-decoration="normal" x="450" y="81" text-anchor="start" dominant-baseline="alphabetic" stroke-opacity="1" stroke-linejoin="bevel" stroke-miterlimit="10" stroke-width="3">C</text><text fill="rgb(21,101,192)" stroke="none" font-family="geogebra-sans-serif, sans-serif" font-size="24px" font-style="normal" font-weight="normal" text-decoration="normal" x="450" y="81" text-anchor="start" dominant-baseline="alphabetic" fill-opacity="1">C</text><path fill="rgb(211,47,47)" stroke="none" paint-order="stroke fill markers" d=" M 522.8694580397729 427.70685119318193 C 522.8694580397729 430.4682749423359 520.6308817889269 432.70685119318193 517.8694580397729 432.70685119318193 C 515.1080342906189 432.70685119318193 512.8694580397729 430.4682749423359 512.8694580397729 427.70685119318193 C 512.8694580397729 424.945427444028 515.1080342906189 422.70685119318193 517.8694580397729 422.70685119318193 C 520.6308817889269 422.70685119318193 522.8694580397729 424.945427444028 522.8694580397729 427.70685119318193 Z" fill-opacity="1"/><path fill="none" stroke="rgb(0,0,0)" paint-order="fill stroke markers" d=" M 522.8694580397729 427.70685119318193 C 522.8694580397729 430.4682749423359 520.6308817889269 432.70685119318193 517.8694580397729 432.70685119318193 C 515.1080342906189 432.70685119318193 512.8694580397729 430.4682749423359 512.8694580397729 427.70685119318193 C 512.8694580397729 424.945427444028 515.1080342906189 422.70685119318193 517.8694580397729 422.70685119318193 C 520.6308817889269 422.70685119318193 522.8694580397729 424.945427444028 522.8694580397729 427.70685119318193 Z" stroke-opacity="1" stroke-linecap="round" stroke-linejoin="round" stroke-miterlimit="10"/><text fill="rgb(211,47,47)" stroke="none" font-family="geogebra-sans-serif, sans-serif" font-size="24px" font-style="normal" font-weight="normal" text-decoration="normal" x="527" y="417" text-anchor="start" dominant-baseline="alphabetic" fill-opacity="1">P</text><text fill="none" stroke="rgb(255,255,255)" font-family="geogebra-sans-serif, sans-serif" font-size="24px" font-style="normal" font-weight="normal" text-decoration="normal" x="527" y="417" text-anchor="start" dominant-baseline="alphabetic" stroke-opacity="1" stroke-linejoin="bevel" stroke-miterlimit="10" stroke-width="3">P</text><text fill="rgb(211,47,47)" stroke="none" font-family="geogebra-sans-serif, sans-serif" font-size="24px" font-style="normal" font-weight="normal" text-decoration="normal" x="527" y="417" text-anchor="start" dominant-baseline="alphabetic" fill-opacity="1">P</text></g></g></svg>