<svg version="1.1" xmlns="http://www.w3.org/2000/svg" xmlns:xlink="http://www.w3.org/1999/xlink" width="1310" height="704"><defs><clipPath id="mcxVRPUpGBin"><path fill="none" stroke="none" d=" M 0 0 L 1310 0 L 1310 704 L 0 704 L 0 0 Z"/></clipPath></defs><g transform="scale(1,1)" clip-path="url(#mcxVRPUpGBin)"><g><rect fill="rgb(255,255,255)" stroke="none" x="0" y="0" width="1310" height="704" fill-opacity="1"/><path fill="none" stroke="rgb(0,0,0)" paint-order="fill stroke markers" d=" M 297.3816689356771 635.3111466401058 L 1152.3403943292333 634.8489914069496" stroke-opacity="0.6980392156862745" stroke-linecap="round" stroke-linejoin="round" stroke-miterlimit="10" stroke-width="2.5"/><path fill="none" stroke="rgb(0,0,0)" paint-order="fill stroke markers" d=" M 472.9652122472751 85.39060366479896 L 297.3816689356771 635.3111466401058" stroke-opacity="0.6980392156862745" stroke-linecap="round" stroke-linejoin="round" stroke-miterlimit="10" stroke-width="2.5"/><path fill="none" stroke="rgb(0,0,0)" paint-order="fill stroke markers" d=" M 472.9652122472751 85.39060366479896 L 1152.3403943292333 634.8489914069496" stroke-opacity="0.6980392156862745" stroke-linecap="round" stroke-linejoin="round" stroke-miterlimit="10" stroke-width="2.5"/><path fill="none" stroke="rgb(0,0,0)" paint-order="fill stroke markers" d=" M 525.8620179632654 425.5315103623208 L 297.3816689356771 635.3111466401058" stroke-opacity="0.6980392156862745" stroke-linecap="round" stroke-linejoin="round" stroke-miterlimit="10" stroke-width="2.5"/><path fill="none" stroke="rgb(0,0,0)" paint-order="fill stroke markers" d=" M 525.8620179632654 425.5315103623208 L 1152.3403943292333 634.8489914069496" stroke-opacity="0.6980392156862745" stroke-linecap="round" stroke-linejoin="round" stroke-miterlimit="10" stroke-width="2.5"/><path fill="none" stroke="rgb(0,0,0)" paint-order="fill stroke markers" d=" M 525.8620179632654 425.5315103623208 L 698.052514614386 267.4345015311516" stroke-opacity="0.6980392156862745" stroke-linejoin="round" stroke-miterlimit="10" stroke-width="2.5" stroke-dasharray="10.5,8"/><path fill="rgb(21,101,192)" stroke="none" paint-order="stroke fill markers" d=" M 302.3816689356771 635.3111466401058 C 302.3816689356771 638.0725703892598 300.14309268483106 640.3111466401058 297.3816689356771 640.3111466401058 C 294.62024518652316 640.3111466401058 292.3816689356771 638.0725703892598 292.3816689356771 635.3111466401058 C 292.3816689356771 632.5497228909518 294.62024518652316 630.3111466401058 297.3816689356771 630.3111466401058 C 300.14309268483106 630.3111466401058 302.3816689356771 632.5497228909518 302.3816689356771 635.3111466401058 Z" fill-opacity="1"/><path fill="none" stroke="rgb(0,0,0)" paint-order="fill stroke markers" d=" M 302.3816689356771 635.3111466401058 C 302.3816689356771 638.0725703892598 300.14309268483106 640.3111466401058 297.3816689356771 640.3111466401058 C 294.62024518652316 640.3111466401058 292.3816689356771 638.0725703892598 292.3816689356771 635.3111466401058 C 292.3816689356771 632.5497228909518 294.62024518652316 630.3111466401058 297.3816689356771 630.3111466401058 C 300.14309268483106 630.3111466401058 302.3816689356771 632.5497228909518 302.3816689356771 635.3111466401058 Z" stroke-opacity="1" stroke-linecap="round" stroke-linejoin="round" stroke-miterlimit="10"/><text fill="rgb(21,101,192)" stroke="none" font-family="geogebra-sans-serif, sans-serif" font-size="24px" font-style="normal" font-weight="normal" text-decoration="normal" x="258" y="663" text-anchor="start" dominant-baseline="alphabetic" fill-opacity="1">A</text><text fill="none" stroke="rgb(255,255,255)" font-family="geogebra-sans-serif, sans-serif" font-size="24px" font-style="normal" font-weight="normal" text-decoration="normal" x="258" y="663" text-anchor="start" dominant-baseline="alphabetic" stroke-opacity="1" stroke-linejoin="bevel" stroke-miterlimit="10" stroke-width="3">A</text><text fill="rgb(21,101,192)" stroke="none" font-family="geogebra-sans-serif, sans-serif" font-size="24px" font-style="normal" font-weight="normal" text-decoration="normal" x="258" y="663" text-anchor="start" dominant-baseline="alphabetic" fill-opacity="1">A</text><path fill="rgb(21,101,192)" stroke="none" paint-order="stroke fill markers" d=" M 1157.3403943292333 634.8489914069496 C 1157.3403943292333 637.6104151561036 1155.1018180783872 639.8489914069496 1152.3403943292333 639.8489914069496 C 1149.5789705800794 639.8489914069496 1147.3403943292333 637.6104151561036 1147.3403943292333 634.8489914069496 C 1147.3403943292333 632.0875676577956 1149.5789705800794 629.8489914069496 1152.3403943292333 629.8489914069496 C 1155.1018180783872 629.8489914069496 1157.3403943292333 632.0875676577956 1157.3403943292333 634.8489914069496 Z" fill-opacity="1"/><path fill="none" stroke="rgb(0,0,0)" paint-order="fill stroke markers" d=" M 1157.3403943292333 634.8489914069496 C 1157.3403943292333 637.6104151561036 1155.1018180783872 639.8489914069496 1152.3403943292333 639.8489914069496 C 1149.5789705800794 639.8489914069496 1147.3403943292333 637.6104151561036 1147.3403943292333 634.8489914069496 C 1147.3403943292333 632.0875676577956 1149.5789705800794 629.8489914069496 1152.3403943292333 629.8489914069496 C 1155.1018180783872 629.8489914069496 1157.3403943292333 632.0875676577956 1157.3403943292333 634.8489914069496 Z" stroke-opacity="1" stroke-linecap="round" stroke-linejoin="round" stroke-miterlimit="10"/><text fill="rgb(21,101,192)" stroke="none" font-family="geogebra-sans-serif, sans-serif" font-size="24px" font-style="normal" font-weight="normal" text-decoration="normal" x="1177" y="658" text-anchor="start" dominant-baseline="alphabetic" fill-opacity="1">B</text><text fill="none" stroke="rgb(255,255,255)" font-family="geogebra-sans-serif, sans-serif" font-size="24px" font-style="normal" font-weight="normal" text-decoration="normal" x="1177" y="658" text-anchor="start" dominant-baseline="alphabetic" stroke-opacity="1" stroke-linejoin="bevel" stroke-miterlimit="10" stroke-width="3">B</text><text fill="rgb(21,101,192)" stroke="none" font-family="geogebra-sans-serif, sans-serif" font-size="24px" font-style="normal" font-weight="normal" text-decoration="normal" x="1177" y="658" text-anchor="start" dominant-baseline="alphabetic" fill-opacity="1">B</text><path fill="rgb(21,101,192)" stroke="none" paint-order="stroke fill markers" d=" M 477.9652122472751 85.39060366479896 C 477.9652122472751 88.15202741395292 475.726635996429 90.39060366479896 472.9652122472751 90.39060366479896 C 470.2037884981211 90.39060366479896 467.9652122472751 88.15202741395292 467.9652122472751 85.39060366479896 C 467.9652122472751 82.629179915645 470.2037884981211 80.39060366479896 472.9652122472751 80.39060366479896 C 475.726635996429 80.39060366479896 477.9652122472751 82.629179915645 477.9652122472751 85.39060366479896 Z" fill-opacity="1"/><path fill="none" stroke="rgb(0,0,0)" paint-order="fill stroke markers" d=" M 477.9652122472751 85.39060366479896 C 477.9652122472751 88.15202741395292 475.726635996429 90.39060366479896 472.9652122472751 90.39060366479896 C 470.2037884981211 90.39060366479896 467.9652122472751 88.15202741395292 467.9652122472751 85.39060366479896 C 467.9652122472751 82.629179915645 470.2037884981211 80.39060366479896 472.9652122472751 80.39060366479896 C 475.726635996429 80.39060366479896 477.9652122472751 82.629179915645 477.9652122472751 85.39060366479896 Z" stroke-opacity="1" stroke-linecap="round" stroke-linejoin="round" stroke-miterlimit="10"/><text fill="rgb(21,101,192)" stroke="none" font-family="geogebra-sans-serif, sans-serif" font-size="24px" font-style="normal" font-weight="normal" text-decoration="normal" x="455" y="61" text-anchor="start" dominant-baseline="alphabetic" fill-opacity="1">C</text><text fill="none" stroke="rgb(255,255,255)" font-family="geogebra-sans-serif, sans-serif" font-size="24px" font-style="normal" font-weight="normal" text-decoration="normal" x="455" y="61" text-anchor="start" dominant-baseline="alphabetic" stroke-opacity="1" stroke-linejoin="bevel" stroke-miterlimit="10" stroke-width="3">C</text><text fill="rgb(21,101,192)" stroke="none" font-family="geogebra-sans-serif, sans-serif" font-size="24px" font-style="normal" font-weight="normal" text-decoration="normal" x="455" y="61" text-anchor="start" dominant-baseline="alphabetic" fill-opacity="1">C</text><path fill="rgb(211,47,47)" stroke="none" paint-order="stroke fill markers" d=" M 530.8620179632654 425.5315103623208 C 530.8620179632654 428.2929341114747 528.6234417124194 430.5315103623208 525.8620179632654 430.5315103623208 C 523.1005942141114 430.5315103623208 520.8620179632654 428.2929341114747 520.8620179632654 425.5315103623208 C 520.8620179632654 422.7700866131668 523.1005942141114 420.5315103623208 525.8620179632654 420.5315103623208 C 528.6234417124194 420.5315103623208 530.8620179632654 422.7700866131668 530.8620179632654 425.5315103623208 Z" fill-opacity="1"/><path fill="none" stroke="rgb(0,0,0)" paint-order="fill stroke markers" d=" M 530.8620179632654 425.5315103623208 C 530.8620179632654 428.2929341114747 528.6234417124194 430.5315103623208 525.8620179632654 430.5315103623208 C 523.1005942141114 430.5315103623208 520.8620179632654 428.2929341114747 520.8620179632654 425.5315103623208 C 520.8620179632654 422.7700866131668 523.1005942141114 420.5315103623208 525.8620179632654 420.5315103623208 C 528.6234417124194 420.5315103623208 530.8620179632654 422.7700866131668 530.8620179632654 425.5315103623208 Z" stroke-opacity="1" stroke-linecap="round" stroke-linejoin="round" stroke-miterlimit="10"/><text fill="rgb(211,47,47)" stroke="none" font-family="geogebra-sans-serif, sans-serif" font-size="24px" font-style="normal" font-weight="normal" text-decoration="normal" x="511" y="401" text-anchor="start" dominant-baseline="alphabetic" fill-opacity="1">P</text><text fill="none" stroke="rgb(255,255,255)" font-family="geogebra-sans-serif, sans-serif" font-size="24px" font-style="normal" font-weight="normal" text-decoration="normal" x="511" y="401" text-anchor="start" dominant-baseline="alphabetic" stroke-opacity="1" stroke-linejoin="bevel" stroke-miterlimit="10" stroke-width="3">P</text><text fill="rgb(211,47,47)" stroke="none" font-family="geogebra-sans-serif, sans-serif" font-size="24px" font-style="normal" font-weight="normal" text-decoration="normal" x="511" y="401" text-anchor="start" dominant-baseline="alphabetic" fill-opacity="1">P</text><path fill="rgb(21,101,192)" stroke="none" paint-order="stroke fill markers" d=" M 703.052514614386 267.4345015311516 C 703.052514614386 270.1959252803056 700.81393836354 272.4345015311516 698.052514614386 272.4345015311516 C 695.291090865232 272.4345015311516 693.052514614386 270.1959252803056 693.052514614386 267.4345015311516 C 693.052514614386 264.6730777819977 695.291090865232 262.4345015311516 698.052514614386 262.4345015311516 C 700.81393836354 262.4345015311516 703.052514614386 264.6730777819977 703.052514614386 267.4345015311516 Z" fill-opacity="1"/><path fill="none" stroke="rgb(0,0,0)" paint-order="fill stroke markers" d=" M 703.052514614386 267.4345015311516 C 703.052514614386 270.1959252803056 700.81393836354 272.4345015311516 698.052514614386 272.4345015311516 C 695.291090865232 272.4345015311516 693.052514614386 270.1959252803056 693.052514614386 267.4345015311516 C 693.052514614386 264.6730777819977 695.291090865232 262.4345015311516 698.052514614386 262.4345015311516 C 700.81393836354 262.4345015311516 703.052514614386 264.6730777819977 703.052514614386 267.4345015311516 Z" stroke-opacity="1" stroke-linecap="round" stroke-linejoin="round" stroke-miterlimit="10"/><text fill="rgb(21,101,192)" stroke="none" font-family="geogebra-sans-serif, sans-serif" font-size="24px" font-style="normal" font-weight="normal" text-decoration="normal" x="716" y="253" text-anchor="start" dominant-baseline="alphabetic" fill-opacity="1">D</text><text fill="none" stroke="rgb(255,255,255)" font-family="geogebra-sans-serif, sans-serif" font-size="24px" font-style="normal" font-weight="normal" text-decoration="normal" x="716" y="253" text-anchor="start" dominant-baseline="alphabetic" stroke-opacity="1" stroke-linejoin="bevel" stroke-miterlimit="10" stroke-width="3">D</text><text fill="rgb(21,101,192)" stroke="none" font-family="geogebra-sans-serif, sans-serif" font-size="24px" font-style="normal" font-weight="normal" text-decoration="normal" x="716" y="253" text-anchor="start" dominant-baseline="alphabetic" fill-opacity="1">D</text></g></g></svg>