<svg version="1.1" xmlns="http://www.w3.org/2000/svg" xmlns:xlink="http://www.w3.org/1999/xlink" width="1310" height="704"><defs><clipPath id="WPSuXBwgTaKp"><path fill="none" stroke="none" d=" M 0 0 L 1310 0 L 1310 704 L 0 704 L 0 0 Z"/></clipPath></defs><g transform="scale(1,1)" clip-path="url(#WPSuXBwgTaKp)"><g><rect fill="rgb(255,255,255)" stroke="none" x="0" y="0" width="1310" height="704" fill-opacity="1"/><path fill="none" stroke="rgb(0,0,0)" paint-order="fill stroke markers" d=" M 1024.8676435939726 475.4954974588333 C 1024.8676435939726 699.8830767739287 842.9655700011392 881.7851503667621 618.577990686044 881.7851503667621 C 394.1904113709488 881.7851503667621 212.28833777811542 699.8830767739287 212.28833777811542 475.4954974588333 C 212.28833777811542 251.10791814373798 394.1904113709488 69.20584455090449 618.577990686044 69.20584455090449 C 842.9655700011392 69.20584455090449 1024.8676435939726 251.10791814373798 1024.8676435939726 475.4954974588333 Z" stroke-opacity="0.6980392156862745" stroke-linecap="round" stroke-linejoin="round" stroke-miterlimit="10" stroke-width="2.5"/><path fill="rgb(0,0,0)" stroke="none" paint-order="stroke fill markers" d=" M 242.28833777811542 475.4954974588333 C 242.28833777811542 469.1716844768383 240.28999619052098 463.0095959380698 236.57872656398246 457.88933340667745 L 212.28833777811542 475.4954974588333 Z" fill-opacity="0.09803921568627451"/><path fill="none" stroke="rgb(0,0,0)" paint-order="fill stroke markers" d=" M 242.28833777811542 475.4954974588333 C 242.28833777811542 469.1716844768383 240.28999619052098 463.0095959380698 236.57872656398246 457.88933340667745 L 212.28833777811542 475.4954974588333 Z" stroke-opacity="0.6" stroke-linecap="round" stroke-linejoin="round" stroke-miterlimit="10" stroke-width="2.5"/><g transform="scale(27,27)"><g transform="translate(9.444444444444445,17.35648092592593)"><path fill="rgb(0,0,0)" stroke="none" paint-order="stroke fill markers" d=" M 0.47700000000000004 -0.23600000000000002 L 0.47700000000000004 -0.23600000000000002 L 0.47700000000000004 -0.17400000000000002 Q 0.542 -0.255 0.5750000000000001 -0.372 Q 0.585 -0.392 0.59 -0.393 Q 0.602 -0.393 0.602 -0.383 Q 0.602 -0.366 0.579 -0.307 Q 0.545 -0.221 0.487 -0.148 Q 0.47700000000000004 -0.128 0.47700000000000004 -0.113 Q 0.47700000000000004 -0.011 0.508 -0.011 Q 0.539 -0.011 0.558 -0.046 Q 0.561 -0.052000000000000005 0.5640000000000001 -0.06 Q 0.5680000000000001 -0.07 0.577 -0.07 Q 0.589 -0.07 0.589 -0.06 Q 0.589 -0.041 0.5640000000000001 -0.015 Q 0.538 0.011 0.505 0.011 Q 0.442 0.011 0.418 -0.058 Q 0.41600000000000004 -0.065 0.41400000000000003 -0.073 Q 0.309 0.011 0.203 0.011 Q 0.109 0.011 0.065 -0.064 Q 0.041 -0.105 0.041 -0.158 Q 0.041 -0.26 0.11900000000000001 -0.34700000000000003 Q 0.196 -0.433 0.293 -0.441 Q 0.302 -0.442 0.31 -0.442 Q 0.394 -0.442 0.44 -0.376 Q 0.44 -0.375 0.441 -0.375 Q 0.47700000000000004 -0.322 0.47700000000000004 -0.23600000000000002 M 0.41000000000000003 -0.099 L 0.41000000000000003 -0.099 Q 0.40800000000000003 -0.116 0.40800000000000003 -0.211 Q 0.40800000000000003 -0.334 0.381 -0.379 Q 0.369 -0.399 0.352 -0.40900000000000003 L 0.35100000000000003 -0.41000000000000003 L 0.35100000000000003 -0.41000000000000003 L 0.35000000000000003 -0.41000000000000003 Q 0.332 -0.42 0.309 -0.42 Q 0.23800000000000002 -0.42 0.181 -0.34 L 0.17300000000000001 -0.328 Q 0.137 -0.27 0.12 -0.166 Q 0.115 -0.138 0.115 -0.12 Q 0.115 -0.036000000000000004 0.17400000000000002 -0.016 Q 0.188 -0.011 0.20500000000000002 -0.011 Q 0.309 -0.011 0.41000000000000003 -0.099 Z"/></g></g><path fill="rgb(0,0,0)" stroke="none" paint-order="stroke fill markers" d=" M 1007.2614795418167 451.2051086729663 C 999.4763422655624 456.84793330054237 994.8676435939726 465.88041388209285 994.8676435939726 475.4954974588333 L 1024.8676435939726 475.4954974588333 Z" fill-opacity="0.09803921568627451"/><path fill="none" stroke="rgb(0,0,0)" paint-order="fill stroke markers" d=" M 1007.2614795418167 451.2051086729663 C 999.4763422655624 456.84793330054237 994.8676435939726 465.88041388209285 994.8676435939726 475.4954974588333 L 1024.8676435939726 475.4954974588333 Z" stroke-opacity="0.6" stroke-linecap="round" stroke-linejoin="round" stroke-miterlimit="10" stroke-width="2.5"/><g transform="scale(27,27)"><g transform="translate(36.03703703703704,16.879630185185185)"><path fill="rgb(0,0,0)" stroke="none" paint-order="stroke fill markers" d=" M 0.028 0.169 L 0.18 -0.437 Q 0.209 -0.551 0.292 -0.631 Q 0.37 -0.705 0.456 -0.705 Q 0.539 -0.705 0.5750000000000001 -0.639 Q 0.59 -0.611 0.59 -0.577 Q 0.59 -0.502 0.528 -0.439 Q 0.507 -0.418 0.482 -0.403 Q 0.549 -0.357 0.549 -0.264 Q 0.549 -0.161 0.46900000000000003 -0.076 Q 0.392 0.005 0.296 0.012 L 0.28300000000000003 0.012 Q 0.186 0.012 0.14100000000000001 -0.063 Q 0.129 -0.083 0.123 -0.105 L 0.048 0.188 L 0.047 0.19 Q 0.043000000000000003 0.194 0.037 0.194 Q 0.025 0.194 0.025 0.184 Q 0.025 0.181 0.028 0.169 M 0.328 -0.401 Q 0.34500000000000003 -0.395 0.371 -0.395 Q 0.401 -0.395 0.419 -0.403 Q 0.406 -0.40900000000000003 0.379 -0.40900000000000003 Q 0.34400000000000003 -0.40900000000000003 0.328 -0.401 M 0.45 -0.421 Q 0.511 -0.467 0.525 -0.577 L 0.525 -0.578 L 0.525 -0.58 Q 0.527 -0.594 0.527 -0.602 Q 0.527 -0.673 0.46900000000000003 -0.682 Q 0.462 -0.683 0.455 -0.683 Q 0.372 -0.683 0.299 -0.606 Q 0.23 -0.534 0.2 -0.41600000000000004 L 0.154 -0.231 Q 0.14100000000000001 -0.179 0.14100000000000001 -0.156 Q 0.14100000000000001 -0.074 0.2 -0.034 Q 0.234 -0.01 0.281 -0.01 Q 0.359 -0.01 0.41500000000000004 -0.094 Q 0.422 -0.10300000000000001 0.427 -0.113 Q 0.462 -0.179 0.47400000000000003 -0.274 Q 0.47600000000000003 -0.291 0.47600000000000003 -0.302 Q 0.47600000000000003 -0.355 0.446 -0.386 Q 0.41400000000000003 -0.373 0.371 -0.373 Q 0.303 -0.373 0.303 -0.399 Q 0.303 -0.431 0.381 -0.431 Q 0.422 -0.431 0.45 -0.421 Z"/></g></g><path fill="rgb(0,0,0)" stroke="none" paint-order="stroke fill markers" d=" M 1034.2025094185442 446.9847928018585 C 1025.0647491482584 443.9929422991613 1015.0466168180711 445.5622840453902 1007.2614795418167 451.2051086729663 L 1024.8676435939726 475.4954974588333 Z" fill-opacity="0.09803921568627451"/><path fill="none" stroke="rgb(0,0,0)" paint-order="fill stroke markers" d=" M 1034.2025094185442 446.9847928018585 C 1025.0647491482584 443.9929422991613 1015.0466168180711 445.5622840453902 1007.2614795418167 451.2051086729663 L 1024.8676435939726 475.4954974588333 Z" stroke-opacity="0.6" stroke-linecap="round" stroke-linejoin="round" stroke-miterlimit="10" stroke-width="2.5"/><g transform="scale(27,27)"><g transform="translate(37.333333333333336,16.027778333333334)"><path fill="rgb(0,0,0)" stroke="none" paint-order="stroke fill markers" d=" M 0.028 0.169 L 0.18 -0.437 Q 0.209 -0.551 0.292 -0.631 Q 0.37 -0.705 0.456 -0.705 Q 0.539 -0.705 0.5750000000000001 -0.639 Q 0.59 -0.611 0.59 -0.577 Q 0.59 -0.502 0.528 -0.439 Q 0.507 -0.418 0.482 -0.403 Q 0.549 -0.357 0.549 -0.264 Q 0.549 -0.161 0.46900000000000003 -0.076 Q 0.392 0.005 0.296 0.012 L 0.28300000000000003 0.012 Q 0.186 0.012 0.14100000000000001 -0.063 Q 0.129 -0.083 0.123 -0.105 L 0.048 0.188 L 0.047 0.19 Q 0.043000000000000003 0.194 0.037 0.194 Q 0.025 0.194 0.025 0.184 Q 0.025 0.181 0.028 0.169 M 0.328 -0.401 Q 0.34500000000000003 -0.395 0.371 -0.395 Q 0.401 -0.395 0.419 -0.403 Q 0.406 -0.40900000000000003 0.379 -0.40900000000000003 Q 0.34400000000000003 -0.40900000000000003 0.328 -0.401 M 0.45 -0.421 Q 0.511 -0.467 0.525 -0.577 L 0.525 -0.578 L 0.525 -0.58 Q 0.527 -0.594 0.527 -0.602 Q 0.527 -0.673 0.46900000000000003 -0.682 Q 0.462 -0.683 0.455 -0.683 Q 0.372 -0.683 0.299 -0.606 Q 0.23 -0.534 0.2 -0.41600000000000004 L 0.154 -0.231 Q 0.14100000000000001 -0.179 0.14100000000000001 -0.156 Q 0.14100000000000001 -0.074 0.2 -0.034 Q 0.234 -0.01 0.281 -0.01 Q 0.359 -0.01 0.41500000000000004 -0.094 Q 0.422 -0.10300000000000001 0.427 -0.113 Q 0.462 -0.179 0.47400000000000003 -0.274 Q 0.47600000000000003 -0.291 0.47600000000000003 -0.302 Q 0.47600000000000003 -0.355 0.446 -0.386 Q 0.41400000000000003 -0.373 0.371 -0.373 Q 0.303 -0.373 0.303 -0.399 Q 0.303 -0.431 0.381 -0.431 Q 0.422 -0.431 0.45 -0.421 Z"/></g></g><path fill="none" stroke="rgb(0,0,0)" paint-order="fill stroke markers" d=" M 212.28833777811542 475.4954974588333 L 1024.8676435939726 475.4954974588333" stroke-opacity="0.6980392156862745" stroke-linecap="round" stroke-linejoin="round" stroke-miterlimit="10" stroke-width="2.5"/><path fill="none" stroke="rgb(0,0,0)" paint-order="fill stroke markers" d=" M 338.7103176383585 89.3753541507412 L 1151.2896234542159 89.3753541507412" stroke-opacity="0.6980392156862745" stroke-linecap="round" stroke-linejoin="round" stroke-miterlimit="10" stroke-width="2.5"/><path fill="none" stroke="rgb(0,0,0)" paint-order="fill stroke markers" d=" M 1151.2896234542159 89.3753541507412 L 1024.8676435939726 475.4954974588333" stroke-opacity="0.6980392156862745" stroke-linecap="round" stroke-linejoin="round" stroke-miterlimit="10" stroke-width="2.5"/><path fill="none" stroke="rgb(0,0,0)" paint-order="fill stroke markers" d=" M 338.7103176383585 89.3753541507412 L 212.28833777811542 475.4954974588333" stroke-opacity="0.6980392156862745" stroke-linecap="round" stroke-linejoin="round" stroke-miterlimit="10" stroke-width="2.5"/><path fill="none" stroke="rgb(0,0,0)" paint-order="fill stroke markers" d=" M 212.28833777811542 475.4954974588333 L 744.9999705462872 89.3753541507412" stroke-opacity="0.6980392156862745" stroke-linecap="round" stroke-linejoin="round" stroke-miterlimit="10" stroke-width="2.5"/><path fill="none" stroke="rgb(0,0,0)" paint-order="fill stroke markers" d=" M 1024.8676435939726 475.4954974588333 L 744.9999705462872 89.3753541507412" stroke-opacity="0.6980392156862745" stroke-linecap="round" stroke-linejoin="round" stroke-miterlimit="10" stroke-width="2.5"/><path fill="none" stroke="rgb(0,0,0)" paint-order="fill stroke markers" d=" M 492.1560108258008 89.37535415074126 L 212.28833777811542 475.4954974588333" stroke-opacity="0.6980392156862745" stroke-linecap="round" stroke-linejoin="round" stroke-miterlimit="10" stroke-width="2.5"/><path fill="rgb(21,101,192)" stroke="none" paint-order="stroke fill markers" d=" M 217.28833777811542 475.4954974588333 C 217.28833777811542 478.25692120798726 215.0497615272694 480.4954974588333 212.28833777811542 480.4954974588333 C 209.52691402896144 480.4954974588333 207.28833777811542 478.25692120798726 207.28833777811542 475.4954974588333 C 207.28833777811542 472.73407370967936 209.52691402896144 470.4954974588333 212.28833777811542 470.4954974588333 C 215.0497615272694 470.4954974588333 217.28833777811542 472.73407370967936 217.28833777811542 475.4954974588333 Z" fill-opacity="1"/><path fill="none" stroke="rgb(0,0,0)" paint-order="fill stroke markers" d=" M 217.28833777811542 475.4954974588333 C 217.28833777811542 478.25692120798726 215.0497615272694 480.4954974588333 212.28833777811542 480.4954974588333 C 209.52691402896144 480.4954974588333 207.28833777811542 478.25692120798726 207.28833777811542 475.4954974588333 C 207.28833777811542 472.73407370967936 209.52691402896144 470.4954974588333 212.28833777811542 470.4954974588333 C 215.0497615272694 470.4954974588333 217.28833777811542 472.73407370967936 217.28833777811542 475.4954974588333 Z" stroke-opacity="1" stroke-linecap="round" stroke-linejoin="round" stroke-miterlimit="10"/><text fill="rgb(21,101,192)" stroke="none" font-family="geogebra-sans-serif, sans-serif" font-size="24px" font-style="normal" font-weight="normal" text-decoration="normal" x="180" y="502" text-anchor="start" dominant-baseline="alphabetic" fill-opacity="1">A</text><text fill="none" stroke="rgb(255,255,255)" font-family="geogebra-sans-serif, sans-serif" font-size="24px" font-style="normal" font-weight="normal" text-decoration="normal" x="180" y="502" text-anchor="start" dominant-baseline="alphabetic" stroke-opacity="1" stroke-linejoin="bevel" stroke-miterlimit="10" stroke-width="3">A</text><text fill="rgb(21,101,192)" stroke="none" font-family="geogebra-sans-serif, sans-serif" font-size="24px" font-style="normal" font-weight="normal" text-decoration="normal" x="180" y="502" text-anchor="start" dominant-baseline="alphabetic" fill-opacity="1">A</text><path fill="rgb(21,101,192)" stroke="none" paint-order="stroke fill markers" d=" M 1029.8676435939726 475.4954974588333 C 1029.8676435939726 478.25692120798726 1027.6290673431265 480.4954974588333 1024.8676435939726 480.4954974588333 C 1022.1062198448186 480.4954974588333 1019.8676435939726 478.25692120798726 1019.8676435939726 475.4954974588333 C 1019.8676435939726 472.73407370967936 1022.1062198448186 470.4954974588333 1024.8676435939726 470.4954974588333 C 1027.6290673431265 470.4954974588333 1029.8676435939726 472.73407370967936 1029.8676435939726 475.4954974588333 Z" fill-opacity="1"/><path fill="none" stroke="rgb(0,0,0)" paint-order="fill stroke markers" d=" M 1029.8676435939726 475.4954974588333 C 1029.8676435939726 478.25692120798726 1027.6290673431265 480.4954974588333 1024.8676435939726 480.4954974588333 C 1022.1062198448186 480.4954974588333 1019.8676435939726 478.25692120798726 1019.8676435939726 475.4954974588333 C 1019.8676435939726 472.73407370967936 1022.1062198448186 470.4954974588333 1024.8676435939726 470.4954974588333 C 1027.6290673431265 470.4954974588333 1029.8676435939726 472.73407370967936 1029.8676435939726 475.4954974588333 Z" stroke-opacity="1" stroke-linecap="round" stroke-linejoin="round" stroke-miterlimit="10"/><text fill="rgb(21,101,192)" stroke="none" font-family="geogebra-sans-serif, sans-serif" font-size="24px" font-style="normal" font-weight="normal" text-decoration="normal" x="1045" y="506" text-anchor="start" dominant-baseline="alphabetic" fill-opacity="1">B</text><text fill="none" stroke="rgb(255,255,255)" font-family="geogebra-sans-serif, sans-serif" font-size="24px" font-style="normal" font-weight="normal" text-decoration="normal" x="1045" y="506" text-anchor="start" dominant-baseline="alphabetic" stroke-opacity="1" stroke-linejoin="bevel" stroke-miterlimit="10" stroke-width="3">B</text><text fill="rgb(21,101,192)" stroke="none" font-family="geogebra-sans-serif, sans-serif" font-size="24px" font-style="normal" font-weight="normal" text-decoration="normal" x="1045" y="506" text-anchor="start" dominant-baseline="alphabetic" fill-opacity="1">B</text><path fill="rgb(21,101,192)" stroke="none" paint-order="stroke fill markers" d=" M 623.577990686044 475.4954974588333 C 623.577990686044 478.25692120798726 621.339414435198 480.4954974588333 618.577990686044 480.4954974588333 C 615.81656693689 480.4954974588333 613.577990686044 478.25692120798726 613.577990686044 475.4954974588333 C 613.577990686044 472.73407370967936 615.81656693689 470.4954974588333 618.577990686044 470.4954974588333 C 621.339414435198 470.4954974588333 623.577990686044 472.73407370967936 623.577990686044 475.4954974588333 Z" fill-opacity="1"/><path fill="none" stroke="rgb(0,0,0)" paint-order="fill stroke markers" d=" M 623.577990686044 475.4954974588333 C 623.577990686044 478.25692120798726 621.339414435198 480.4954974588333 618.577990686044 480.4954974588333 C 615.81656693689 480.4954974588333 613.577990686044 478.25692120798726 613.577990686044 475.4954974588333 C 613.577990686044 472.73407370967936 615.81656693689 470.4954974588333 618.577990686044 470.4954974588333 C 621.339414435198 470.4954974588333 623.577990686044 472.73407370967936 623.577990686044 475.4954974588333 Z" stroke-opacity="1" stroke-linecap="round" stroke-linejoin="round" stroke-miterlimit="10"/><path fill="rgb(21,101,192)" stroke="none" paint-order="stroke fill markers" d=" M 343.7103176383585 89.3753541507412 C 343.7103176383585 92.13677789989516 341.47174138751245 94.3753541507412 338.7103176383585 94.3753541507412 C 335.94889388920456 94.3753541507412 333.7103176383585 92.13677789989516 333.7103176383585 89.3753541507412 C 333.7103176383585 86.61393040158724 335.94889388920456 84.3753541507412 338.7103176383585 84.3753541507412 C 341.47174138751245 84.3753541507412 343.7103176383585 86.61393040158724 343.7103176383585 89.3753541507412 Z" fill-opacity="1"/><path fill="none" stroke="rgb(0,0,0)" paint-order="fill stroke markers" d=" M 343.7103176383585 89.3753541507412 C 343.7103176383585 92.13677789989516 341.47174138751245 94.3753541507412 338.7103176383585 94.3753541507412 C 335.94889388920456 94.3753541507412 333.7103176383585 92.13677789989516 333.7103176383585 89.3753541507412 C 333.7103176383585 86.61393040158724 335.94889388920456 84.3753541507412 338.7103176383585 84.3753541507412 C 341.47174138751245 84.3753541507412 343.7103176383585 86.61393040158724 343.7103176383585 89.3753541507412 Z" stroke-opacity="1" stroke-linecap="round" stroke-linejoin="round" stroke-miterlimit="10"/><text fill="rgb(21,101,192)" stroke="none" font-family="geogebra-sans-serif, sans-serif" font-size="24px" font-style="normal" font-weight="normal" text-decoration="normal" x="303" y="73" text-anchor="start" dominant-baseline="alphabetic" fill-opacity="1">D</text><text fill="none" stroke="rgb(255,255,255)" font-family="geogebra-sans-serif, sans-serif" font-size="24px" font-style="normal" font-weight="normal" text-decoration="normal" x="303" y="73" text-anchor="start" dominant-baseline="alphabetic" stroke-opacity="1" stroke-linejoin="bevel" stroke-miterlimit="10" stroke-width="3">D</text><text fill="rgb(21,101,192)" stroke="none" font-family="geogebra-sans-serif, sans-serif" font-size="24px" font-style="normal" font-weight="normal" text-decoration="normal" x="303" y="73" text-anchor="start" dominant-baseline="alphabetic" fill-opacity="1">D</text><path fill="rgb(21,101,192)" stroke="none" paint-order="stroke fill markers" d=" M 1156.2896234542159 89.3753541507412 C 1156.2896234542159 92.13677789989516 1154.0510472033698 94.3753541507412 1151.2896234542159 94.3753541507412 C 1148.528199705062 94.3753541507412 1146.2896234542159 92.13677789989516 1146.2896234542159 89.3753541507412 C 1146.2896234542159 86.61393040158724 1148.528199705062 84.3753541507412 1151.2896234542159 84.3753541507412 C 1154.0510472033698 84.3753541507412 1156.2896234542159 86.61393040158724 1156.2896234542159 89.3753541507412 Z" fill-opacity="1"/><path fill="none" stroke="rgb(0,0,0)" paint-order="fill stroke markers" d=" M 1156.2896234542159 89.3753541507412 C 1156.2896234542159 92.13677789989516 1154.0510472033698 94.3753541507412 1151.2896234542159 94.3753541507412 C 1148.528199705062 94.3753541507412 1146.2896234542159 92.13677789989516 1146.2896234542159 89.3753541507412 C 1146.2896234542159 86.61393040158724 1148.528199705062 84.3753541507412 1151.2896234542159 84.3753541507412 C 1154.0510472033698 84.3753541507412 1156.2896234542159 86.61393040158724 1156.2896234542159 89.3753541507412 Z" stroke-opacity="1" stroke-linecap="round" stroke-linejoin="round" stroke-miterlimit="10"/><text fill="rgb(21,101,192)" stroke="none" font-family="geogebra-sans-serif, sans-serif" font-size="24px" font-style="normal" font-weight="normal" text-decoration="normal" x="1165" y="73" text-anchor="start" dominant-baseline="alphabetic" fill-opacity="1">C</text><text fill="none" stroke="rgb(255,255,255)" font-family="geogebra-sans-serif, sans-serif" font-size="24px" font-style="normal" font-weight="normal" text-decoration="normal" x="1165" y="73" text-anchor="start" dominant-baseline="alphabetic" stroke-opacity="1" stroke-linejoin="bevel" stroke-miterlimit="10" stroke-width="3">C</text><text fill="rgb(21,101,192)" stroke="none" font-family="geogebra-sans-serif, sans-serif" font-size="24px" font-style="normal" font-weight="normal" text-decoration="normal" x="1165" y="73" text-anchor="start" dominant-baseline="alphabetic" fill-opacity="1">C</text><path fill="rgb(46,125,50)" stroke="none" paint-order="stroke fill markers" d=" M 749.9999705462872 89.3753541507412 C 749.9999705462872 92.13677789989516 747.7613942954412 94.3753541507412 744.9999705462872 94.3753541507412 C 742.2385467971332 94.3753541507412 739.9999705462872 92.13677789989516 739.9999705462872 89.3753541507412 C 739.9999705462872 86.61393040158724 742.2385467971332 84.3753541507412 744.9999705462872 84.3753541507412 C 747.7613942954412 84.3753541507412 749.9999705462872 86.61393040158724 749.9999705462872 89.3753541507412 Z" fill-opacity="1"/><path fill="none" stroke="rgb(0,0,0)" paint-order="fill stroke markers" d=" M 749.9999705462872 89.3753541507412 C 749.9999705462872 92.13677789989516 747.7613942954412 94.3753541507412 744.9999705462872 94.3753541507412 C 742.2385467971332 94.3753541507412 739.9999705462872 92.13677789989516 739.9999705462872 89.3753541507412 C 739.9999705462872 86.61393040158724 742.2385467971332 84.3753541507412 744.9999705462872 84.3753541507412 C 747.7613942954412 84.3753541507412 749.9999705462872 86.61393040158724 749.9999705462872 89.3753541507412 Z" stroke-opacity="1" stroke-linecap="round" stroke-linejoin="round" stroke-miterlimit="10"/><text fill="rgb(46,125,50)" stroke="none" font-family="geogebra-sans-serif, sans-serif" font-size="24px" font-style="normal" font-weight="normal" text-decoration="normal" x="749" y="79" text-anchor="start" dominant-baseline="alphabetic" fill-opacity="1">E</text><text fill="none" stroke="rgb(255,255,255)" font-family="geogebra-sans-serif, sans-serif" font-size="24px" font-style="normal" font-weight="normal" text-decoration="normal" x="749" y="79" text-anchor="start" dominant-baseline="alphabetic" stroke-opacity="1" stroke-linejoin="bevel" stroke-miterlimit="10" stroke-width="3">E</text><text fill="rgb(46,125,50)" stroke="none" font-family="geogebra-sans-serif, sans-serif" font-size="24px" font-style="normal" font-weight="normal" text-decoration="normal" x="749" y="79" text-anchor="start" dominant-baseline="alphabetic" fill-opacity="1">E</text><path fill="rgb(46,125,50)" stroke="none" paint-order="stroke fill markers" d=" M 497.1560108258008 89.37535415074126 C 497.1560108258008 92.13677789989522 494.91743457495477 94.37535415074126 492.1560108258008 94.37535415074126 C 489.39458707664687 94.37535415074126 487.1560108258008 92.13677789989522 487.1560108258008 89.37535415074126 C 487.1560108258008 86.6139304015873 489.39458707664687 84.37535415074126 492.1560108258008 84.37535415074126 C 494.91743457495477 84.37535415074126 497.1560108258008 86.6139304015873 497.1560108258008 89.37535415074126 Z" fill-opacity="1"/><path fill="none" stroke="rgb(0,0,0)" paint-order="fill stroke markers" d=" M 497.1560108258008 89.37535415074126 C 497.1560108258008 92.13677789989522 494.91743457495477 94.37535415074126 492.1560108258008 94.37535415074126 C 489.39458707664687 94.37535415074126 487.1560108258008 92.13677789989522 487.1560108258008 89.37535415074126 C 487.1560108258008 86.6139304015873 489.39458707664687 84.37535415074126 492.1560108258008 84.37535415074126 C 494.91743457495477 84.37535415074126 497.1560108258008 86.6139304015873 497.1560108258008 89.37535415074126 Z" stroke-opacity="1" stroke-linecap="round" stroke-linejoin="round" stroke-miterlimit="10"/><text fill="rgb(46,125,50)" stroke="none" font-family="geogebra-sans-serif, sans-serif" font-size="24px" font-style="normal" font-weight="normal" text-decoration="normal" x="481" y="73" text-anchor="start" dominant-baseline="alphabetic" fill-opacity="1">F</text><text fill="none" stroke="rgb(255,255,255)" font-family="geogebra-sans-serif, sans-serif" font-size="24px" font-style="normal" font-weight="normal" text-decoration="normal" x="481" y="73" text-anchor="start" dominant-baseline="alphabetic" stroke-opacity="1" stroke-linejoin="bevel" stroke-miterlimit="10" stroke-width="3">F</text><text fill="rgb(46,125,50)" stroke="none" font-family="geogebra-sans-serif, sans-serif" font-size="24px" font-style="normal" font-weight="normal" text-decoration="normal" x="481" y="73" text-anchor="start" dominant-baseline="alphabetic" fill-opacity="1">F</text></g></g></svg>