<svg version="1.1" xmlns="http://www.w3.org/2000/svg" xmlns:xlink="http://www.w3.org/1999/xlink" width="1310" height="704"><defs><clipPath id="sInWRifDecNc"><path fill="none" stroke="none" d=" M 0 0 L 1310 0 L 1310 704 L 0 704 L 0 0 Z"/></clipPath></defs><g transform="scale(1,1)" clip-path="url(#sInWRifDecNc)"><g><rect fill="rgb(255,255,255)" stroke="none" x="0" y="0" width="1310" height="704" fill-opacity="1"/><path fill="none" stroke="rgb(0,0,0)" paint-order="fill stroke markers" d=" M 1036.8676435939726 491.49549745883326 C 1036.8676435939726 715.8830767739285 854.9655700011392 897.7851503667621 630.577990686044 897.7851503667621 C 406.1904113709488 897.7851503667621 224.28833777811548 715.8830767739285 224.28833777811548 491.49549745883326 C 224.28833777811548 267.10791814373795 406.1904113709488 85.20584455090449 630.577990686044 85.20584455090449 C 854.9655700011392 85.20584455090449 1036.8676435939726 267.10791814373795 1036.8676435939726 491.49549745883326 Z" stroke-opacity="0.6980392156862745" stroke-linecap="round" stroke-linejoin="round" stroke-miterlimit="10" stroke-width="2.5"/><path fill="rgb(0,0,0)" stroke="none" paint-order="stroke fill markers" d=" M 254.28833777811548 491.49549745883326 C 254.28833777811548 485.17168447683827 252.28999619052104 479.00959593806976 248.5787265639825 473.8893334066774 L 224.28833777811548 491.49549745883326 Z" fill-opacity="0.09803921568627451"/><path fill="none" stroke="rgb(0,0,0)" paint-order="fill stroke markers" d=" M 254.28833777811548 491.49549745883326 C 254.28833777811548 485.17168447683827 252.28999619052104 479.00959593806976 248.5787265639825 473.8893334066774 L 224.28833777811548 491.49549745883326 Z" stroke-opacity="0.6" stroke-linecap="round" stroke-linejoin="round" stroke-miterlimit="10" stroke-width="2.5"/><g transform="scale(27,27)"><g transform="translate(9.88888888888889,17.949073518518517)"><path fill="rgb(0,0,0)" stroke="none" paint-order="stroke fill markers" d=" M 0.47700000000000004 -0.23600000000000002 L 0.47700000000000004 -0.23600000000000002 L 0.47700000000000004 -0.17400000000000002 Q 0.542 -0.255 0.5750000000000001 -0.372 Q 0.585 -0.392 0.59 -0.393 Q 0.602 -0.393 0.602 -0.383 Q 0.602 -0.366 0.579 -0.307 Q 0.545 -0.221 0.487 -0.148 Q 0.47700000000000004 -0.128 0.47700000000000004 -0.113 Q 0.47700000000000004 -0.011 0.508 -0.011 Q 0.539 -0.011 0.558 -0.046 Q 0.561 -0.052000000000000005 0.5640000000000001 -0.06 Q 0.5680000000000001 -0.07 0.577 -0.07 Q 0.589 -0.07 0.589 -0.06 Q 0.589 -0.041 0.5640000000000001 -0.015 Q 0.538 0.011 0.505 0.011 Q 0.442 0.011 0.418 -0.058 Q 0.41600000000000004 -0.065 0.41400000000000003 -0.073 Q 0.309 0.011 0.203 0.011 Q 0.109 0.011 0.065 -0.064 Q 0.041 -0.105 0.041 -0.158 Q 0.041 -0.26 0.11900000000000001 -0.34700000000000003 Q 0.196 -0.433 0.293 -0.441 Q 0.302 -0.442 0.31 -0.442 Q 0.394 -0.442 0.44 -0.376 Q 0.44 -0.375 0.441 -0.375 Q 0.47700000000000004 -0.322 0.47700000000000004 -0.23600000000000002 M 0.41000000000000003 -0.099 L 0.41000000000000003 -0.099 Q 0.40800000000000003 -0.116 0.40800000000000003 -0.211 Q 0.40800000000000003 -0.334 0.381 -0.379 Q 0.369 -0.399 0.352 -0.40900000000000003 L 0.35100000000000003 -0.41000000000000003 L 0.35100000000000003 -0.41000000000000003 L 0.35000000000000003 -0.41000000000000003 Q 0.332 -0.42 0.309 -0.42 Q 0.23800000000000002 -0.42 0.181 -0.34 L 0.17300000000000001 -0.328 Q 0.137 -0.27 0.12 -0.166 Q 0.115 -0.138 0.115 -0.12 Q 0.115 -0.036000000000000004 0.17400000000000002 -0.016 Q 0.188 -0.011 0.20500000000000002 -0.011 Q 0.309 -0.011 0.41000000000000003 -0.099 Z"/></g></g><path fill="rgb(0,0,0)" stroke="none" paint-order="stroke fill markers" d=" M 1019.2614795418167 467.2051086729662 C 1011.4763422655624 472.8479333005423 1006.8676435939726 481.8804138820928 1006.8676435939726 491.49549745883326 L 1036.8676435939726 491.49549745883326 Z" fill-opacity="0.09803921568627451"/><path fill="none" stroke="rgb(0,0,0)" paint-order="fill stroke markers" d=" M 1019.2614795418167 467.2051086729662 C 1011.4763422655624 472.8479333005423 1006.8676435939726 481.8804138820928 1006.8676435939726 491.49549745883326 L 1036.8676435939726 491.49549745883326 Z" stroke-opacity="0.6" stroke-linecap="round" stroke-linejoin="round" stroke-miterlimit="10" stroke-width="2.5"/><g transform="scale(27,27)"><g transform="translate(36.2962962962963,17.54629685185185)"><path fill="rgb(0,0,0)" stroke="none" paint-order="stroke fill markers" d=" M 0.028 0.169 L 0.18 -0.437 Q 0.209 -0.551 0.292 -0.631 Q 0.37 -0.705 0.456 -0.705 Q 0.539 -0.705 0.5750000000000001 -0.639 Q 0.59 -0.611 0.59 -0.577 Q 0.59 -0.502 0.528 -0.439 Q 0.507 -0.418 0.482 -0.403 Q 0.549 -0.357 0.549 -0.264 Q 0.549 -0.161 0.46900000000000003 -0.076 Q 0.392 0.005 0.296 0.012 L 0.28300000000000003 0.012 Q 0.186 0.012 0.14100000000000001 -0.063 Q 0.129 -0.083 0.123 -0.105 L 0.048 0.188 L 0.047 0.19 Q 0.043000000000000003 0.194 0.037 0.194 Q 0.025 0.194 0.025 0.184 Q 0.025 0.181 0.028 0.169 M 0.328 -0.401 Q 0.34500000000000003 -0.395 0.371 -0.395 Q 0.401 -0.395 0.419 -0.403 Q 0.406 -0.40900000000000003 0.379 -0.40900000000000003 Q 0.34400000000000003 -0.40900000000000003 0.328 -0.401 M 0.45 -0.421 Q 0.511 -0.467 0.525 -0.577 L 0.525 -0.578 L 0.525 -0.58 Q 0.527 -0.594 0.527 -0.602 Q 0.527 -0.673 0.46900000000000003 -0.682 Q 0.462 -0.683 0.455 -0.683 Q 0.372 -0.683 0.299 -0.606 Q 0.23 -0.534 0.2 -0.41600000000000004 L 0.154 -0.231 Q 0.14100000000000001 -0.179 0.14100000000000001 -0.156 Q 0.14100000000000001 -0.074 0.2 -0.034 Q 0.234 -0.01 0.281 -0.01 Q 0.359 -0.01 0.41500000000000004 -0.094 Q 0.422 -0.10300000000000001 0.427 -0.113 Q 0.462 -0.179 0.47400000000000003 -0.274 Q 0.47600000000000003 -0.291 0.47600000000000003 -0.302 Q 0.47600000000000003 -0.355 0.446 -0.386 Q 0.41400000000000003 -0.373 0.371 -0.373 Q 0.303 -0.373 0.303 -0.399 Q 0.303 -0.431 0.381 -0.431 Q 0.422 -0.431 0.45 -0.421 Z"/></g></g><path fill="rgb(0,0,0)" stroke="none" paint-order="stroke fill markers" fill-rule="evenodd" d=" M 630.577990686044 491.49549745883326 L 630.577990686044 470.28229402323825 L 609.3647872504475 470.28229402323683 L 609.364787250449 491.49549745883326 L 630.577990686044 491.49549745883326" fill-opacity="0.09803921568627451"/><path fill="none" stroke="rgb(0,0,0)" paint-order="fill stroke markers" d=" M 630.577990686044 491.49549745883326 L 630.577990686044 470.28229402323825 L 609.3647872504475 470.28229402323683 L 609.364787250449 491.49549745883326 L 630.577990686044 491.49549745883326" stroke-opacity="0.6" stroke-linecap="round" stroke-linejoin="round" stroke-miterlimit="10" stroke-width="2.5"/><path fill="rgb(0,0,0)" stroke="none" paint-order="stroke fill markers" fill-rule="evenodd" d=" M 504.1560108258009 105.37535415074126 L 491.70657283383946 122.55125277888435 L 508.88247146198285 135.00069077084777 L 521.3319094539439 117.82479214270268 L 504.1560108258009 105.37535415074126" fill-opacity="0.09803921568627451"/><path fill="none" stroke="rgb(0,0,0)" paint-order="fill stroke markers" d=" M 504.1560108258009 105.37535415074126 L 491.70657283383946 122.55125277888435 L 508.88247146198285 135.00069077084777 L 521.3319094539439 117.82479214270268 L 504.1560108258009 105.37535415074126" stroke-opacity="0.6" stroke-linecap="round" stroke-linejoin="round" stroke-miterlimit="10" stroke-width="2.5"/><path fill="rgb(0,0,0)" stroke="none" paint-order="stroke fill markers" fill-rule="evenodd" d=" M 756.9999705462872 105.3753541507412 L 739.8240719181441 117.8247921427026 L 752.2735099101052 135.0006907708477 L 769.4494085382486 122.5512527788843 L 756.9999705462872 105.3753541507412" fill-opacity="0.09803921568627451"/><path fill="none" stroke="rgb(0,0,0)" paint-order="fill stroke markers" d=" M 756.9999705462872 105.3753541507412 L 739.8240719181441 117.8247921427026 L 752.2735099101052 135.0006907708477 L 769.4494085382486 122.5512527788843 L 756.9999705462872 105.3753541507412" stroke-opacity="0.6" stroke-linecap="round" stroke-linejoin="round" stroke-miterlimit="10" stroke-width="2.5"/><path fill="none" stroke="rgb(0,0,0)" paint-order="fill stroke markers" d=" M 630.5779906860441 709 L 630.5779906860439 -5" stroke-opacity="0.6980392156862745" stroke-linejoin="round" stroke-miterlimit="10" stroke-width="2.5" stroke-dasharray="10.5,8"/><path fill="none" stroke="rgb(0,0,0)" paint-order="fill stroke markers" d=" M 224.28833777811548 491.49549745883326 L 1036.8676435939726 491.49549745883326" stroke-opacity="0.6980392156862745" stroke-linecap="round" stroke-linejoin="round" stroke-miterlimit="10" stroke-width="2.5"/><path fill="none" stroke="rgb(0,0,0)" paint-order="fill stroke markers" d=" M 350.71031763835856 105.3753541507412 L 1163.2896234542156 105.3753541507412" stroke-opacity="0.6980392156862745" stroke-linecap="round" stroke-linejoin="round" stroke-miterlimit="10" stroke-width="2.5"/><path fill="none" stroke="rgb(0,0,0)" paint-order="fill stroke markers" d=" M 1163.2896234542156 105.3753541507412 L 1036.8676435939726 491.49549745883326" stroke-opacity="0.6980392156862745" stroke-linecap="round" stroke-linejoin="round" stroke-miterlimit="10" stroke-width="2.5"/><path fill="none" stroke="rgb(0,0,0)" paint-order="fill stroke markers" d=" M 350.71031763835856 105.3753541507412 L 224.28833777811548 491.49549745883326" stroke-opacity="0.6980392156862745" stroke-linecap="round" stroke-linejoin="round" stroke-miterlimit="10" stroke-width="2.5"/><path fill="none" stroke="rgb(0,0,0)" paint-order="fill stroke markers" d=" M 224.28833777811548 491.49549745883326 L 756.9999705462872 105.3753541507412" stroke-opacity="0.6980392156862745" stroke-linecap="round" stroke-linejoin="round" stroke-miterlimit="10" stroke-width="2.5"/><path fill="none" stroke="rgb(0,0,0)" paint-order="fill stroke markers" d=" M 1036.8676435939726 491.49549745883326 L 756.9999705462872 105.3753541507412" stroke-opacity="0.6980392156862745" stroke-linecap="round" stroke-linejoin="round" stroke-miterlimit="10" stroke-width="2.5"/><path fill="none" stroke="rgb(0,0,0)" paint-order="fill stroke markers" d=" M 504.1560108258009 105.37535415074126 L 224.28833777811548 491.49549745883326" stroke-opacity="0.6980392156862745" stroke-linecap="round" stroke-linejoin="round" stroke-miterlimit="10" stroke-width="2.5"/><path fill="none" stroke="rgb(0,0,0)" paint-order="fill stroke markers" d=" M 1036.8676435939726 491.49549745883326 L 504.1560108258009 105.37535415074126" stroke-opacity="0.6980392156862745" stroke-linecap="round" stroke-linejoin="round" stroke-miterlimit="10" stroke-width="2.5"/><path fill="rgb(21,101,192)" stroke="none" paint-order="stroke fill markers" d=" M 229.28833777811548 491.49549745883326 C 229.28833777811548 494.2569212079872 227.04976152726945 496.49549745883326 224.28833777811548 496.49549745883326 C 221.5269140289615 496.49549745883326 219.28833777811548 494.2569212079872 219.28833777811548 491.49549745883326 C 219.28833777811548 488.7340737096793 221.5269140289615 486.49549745883326 224.28833777811548 486.49549745883326 C 227.04976152726945 486.49549745883326 229.28833777811548 488.7340737096793 229.28833777811548 491.49549745883326 Z" fill-opacity="1"/><path fill="none" stroke="rgb(0,0,0)" paint-order="fill stroke markers" d=" M 229.28833777811548 491.49549745883326 C 229.28833777811548 494.2569212079872 227.04976152726945 496.49549745883326 224.28833777811548 496.49549745883326 C 221.5269140289615 496.49549745883326 219.28833777811548 494.2569212079872 219.28833777811548 491.49549745883326 C 219.28833777811548 488.7340737096793 221.5269140289615 486.49549745883326 224.28833777811548 486.49549745883326 C 227.04976152726945 486.49549745883326 229.28833777811548 488.7340737096793 229.28833777811548 491.49549745883326 Z" stroke-opacity="1" stroke-linecap="round" stroke-linejoin="round" stroke-miterlimit="10"/><text fill="rgb(21,101,192)" stroke="none" font-family="geogebra-sans-serif, sans-serif" font-size="24px" font-style="normal" font-weight="normal" text-decoration="normal" x="192" y="518" text-anchor="start" dominant-baseline="alphabetic" fill-opacity="1">A</text><text fill="none" stroke="rgb(255,255,255)" font-family="geogebra-sans-serif, sans-serif" font-size="24px" font-style="normal" font-weight="normal" text-decoration="normal" x="192" y="518" text-anchor="start" dominant-baseline="alphabetic" stroke-opacity="1" stroke-linejoin="bevel" stroke-miterlimit="10" stroke-width="3">A</text><text fill="rgb(21,101,192)" stroke="none" font-family="geogebra-sans-serif, sans-serif" font-size="24px" font-style="normal" font-weight="normal" text-decoration="normal" x="192" y="518" text-anchor="start" dominant-baseline="alphabetic" fill-opacity="1">A</text><path fill="rgb(21,101,192)" stroke="none" paint-order="stroke fill markers" d=" M 1041.8676435939726 491.49549745883326 C 1041.8676435939726 494.2569212079872 1039.6290673431265 496.49549745883326 1036.8676435939726 496.49549745883326 C 1034.1062198448187 496.49549745883326 1031.8676435939726 494.2569212079872 1031.8676435939726 491.49549745883326 C 1031.8676435939726 488.7340737096793 1034.1062198448187 486.49549745883326 1036.8676435939726 486.49549745883326 C 1039.6290673431265 486.49549745883326 1041.8676435939726 488.7340737096793 1041.8676435939726 491.49549745883326 Z" fill-opacity="1"/><path fill="none" stroke="rgb(0,0,0)" paint-order="fill stroke markers" d=" M 1041.8676435939726 491.49549745883326 C 1041.8676435939726 494.2569212079872 1039.6290673431265 496.49549745883326 1036.8676435939726 496.49549745883326 C 1034.1062198448187 496.49549745883326 1031.8676435939726 494.2569212079872 1031.8676435939726 491.49549745883326 C 1031.8676435939726 488.7340737096793 1034.1062198448187 486.49549745883326 1036.8676435939726 486.49549745883326 C 1039.6290673431265 486.49549745883326 1041.8676435939726 488.7340737096793 1041.8676435939726 491.49549745883326 Z" stroke-opacity="1" stroke-linecap="round" stroke-linejoin="round" stroke-miterlimit="10"/><text fill="rgb(21,101,192)" stroke="none" font-family="geogebra-sans-serif, sans-serif" font-size="24px" font-style="normal" font-weight="normal" text-decoration="normal" x="1057" y="522" text-anchor="start" dominant-baseline="alphabetic" fill-opacity="1">B</text><text fill="none" stroke="rgb(255,255,255)" font-family="geogebra-sans-serif, sans-serif" font-size="24px" font-style="normal" font-weight="normal" text-decoration="normal" x="1057" y="522" text-anchor="start" dominant-baseline="alphabetic" stroke-opacity="1" stroke-linejoin="bevel" stroke-miterlimit="10" stroke-width="3">B</text><text fill="rgb(21,101,192)" stroke="none" font-family="geogebra-sans-serif, sans-serif" font-size="24px" font-style="normal" font-weight="normal" text-decoration="normal" x="1057" y="522" text-anchor="start" dominant-baseline="alphabetic" fill-opacity="1">B</text><path fill="rgb(211,47,47)" stroke="none" paint-order="stroke fill markers" d=" M 635.577990686044 491.49549745883326 C 635.577990686044 494.2569212079872 633.339414435198 496.49549745883326 630.577990686044 496.49549745883326 C 627.81656693689 496.49549745883326 625.577990686044 494.2569212079872 625.577990686044 491.49549745883326 C 625.577990686044 488.7340737096793 627.81656693689 486.49549745883326 630.577990686044 486.49549745883326 C 633.339414435198 486.49549745883326 635.577990686044 488.7340737096793 635.577990686044 491.49549745883326 Z" fill-opacity="1"/><path fill="none" stroke="rgb(0,0,0)" paint-order="fill stroke markers" d=" M 635.577990686044 491.49549745883326 C 635.577990686044 494.2569212079872 633.339414435198 496.49549745883326 630.577990686044 496.49549745883326 C 627.81656693689 496.49549745883326 625.577990686044 494.2569212079872 625.577990686044 491.49549745883326 C 625.577990686044 488.7340737096793 627.81656693689 486.49549745883326 630.577990686044 486.49549745883326 C 633.339414435198 486.49549745883326 635.577990686044 488.7340737096793 635.577990686044 491.49549745883326 Z" stroke-opacity="1" stroke-linecap="round" stroke-linejoin="round" stroke-miterlimit="10"/><text fill="rgb(211,47,47)" stroke="none" font-family="geogebra-sans-serif, sans-serif" font-size="24px" font-style="normal" font-weight="normal" text-decoration="normal" x="620" y="534" text-anchor="start" dominant-baseline="alphabetic" fill-opacity="1">O</text><text fill="none" stroke="rgb(255,255,255)" font-family="geogebra-sans-serif, sans-serif" font-size="24px" font-style="normal" font-weight="normal" text-decoration="normal" x="620" y="534" text-anchor="start" dominant-baseline="alphabetic" stroke-opacity="1" stroke-linejoin="bevel" stroke-miterlimit="10" stroke-width="3">O</text><text fill="rgb(211,47,47)" stroke="none" font-family="geogebra-sans-serif, sans-serif" font-size="24px" font-style="normal" font-weight="normal" text-decoration="normal" x="620" y="534" text-anchor="start" dominant-baseline="alphabetic" fill-opacity="1">O</text><path fill="rgb(21,101,192)" stroke="none" paint-order="stroke fill markers" d=" M 355.71031763835856 105.3753541507412 C 355.71031763835856 108.13677789989516 353.4717413875125 110.3753541507412 350.71031763835856 110.3753541507412 C 347.9488938892046 110.3753541507412 345.71031763835856 108.13677789989516 345.71031763835856 105.3753541507412 C 345.71031763835856 102.61393040158724 347.9488938892046 100.3753541507412 350.71031763835856 100.3753541507412 C 353.4717413875125 100.3753541507412 355.71031763835856 102.61393040158724 355.71031763835856 105.3753541507412 Z" fill-opacity="1"/><path fill="none" stroke="rgb(0,0,0)" paint-order="fill stroke markers" d=" M 355.71031763835856 105.3753541507412 C 355.71031763835856 108.13677789989516 353.4717413875125 110.3753541507412 350.71031763835856 110.3753541507412 C 347.9488938892046 110.3753541507412 345.71031763835856 108.13677789989516 345.71031763835856 105.3753541507412 C 345.71031763835856 102.61393040158724 347.9488938892046 100.3753541507412 350.71031763835856 100.3753541507412 C 353.4717413875125 100.3753541507412 355.71031763835856 102.61393040158724 355.71031763835856 105.3753541507412 Z" stroke-opacity="1" stroke-linecap="round" stroke-linejoin="round" stroke-miterlimit="10"/><text fill="rgb(21,101,192)" stroke="none" font-family="geogebra-sans-serif, sans-serif" font-size="24px" font-style="normal" font-weight="normal" text-decoration="normal" x="301" y="111" text-anchor="start" dominant-baseline="alphabetic" fill-opacity="1">D</text><text fill="none" stroke="rgb(255,255,255)" font-family="geogebra-sans-serif, sans-serif" font-size="24px" font-style="normal" font-weight="normal" text-decoration="normal" x="301" y="111" text-anchor="start" dominant-baseline="alphabetic" stroke-opacity="1" stroke-linejoin="bevel" stroke-miterlimit="10" stroke-width="3">D</text><text fill="rgb(21,101,192)" stroke="none" font-family="geogebra-sans-serif, sans-serif" font-size="24px" font-style="normal" font-weight="normal" text-decoration="normal" x="301" y="111" text-anchor="start" dominant-baseline="alphabetic" fill-opacity="1">D</text><path fill="rgb(21,101,192)" stroke="none" paint-order="stroke fill markers" d=" M 1168.2896234542156 105.3753541507412 C 1168.2896234542156 108.13677789989516 1166.0510472033695 110.3753541507412 1163.2896234542156 110.3753541507412 C 1160.5281997050618 110.3753541507412 1158.2896234542156 108.13677789989516 1158.2896234542156 105.3753541507412 C 1158.2896234542156 102.61393040158724 1160.5281997050618 100.3753541507412 1163.2896234542156 100.3753541507412 C 1166.0510472033695 100.3753541507412 1168.2896234542156 102.61393040158724 1168.2896234542156 105.3753541507412 Z" fill-opacity="1"/><path fill="none" stroke="rgb(0,0,0)" paint-order="fill stroke markers" d=" M 1168.2896234542156 105.3753541507412 C 1168.2896234542156 108.13677789989516 1166.0510472033695 110.3753541507412 1163.2896234542156 110.3753541507412 C 1160.5281997050618 110.3753541507412 1158.2896234542156 108.13677789989516 1158.2896234542156 105.3753541507412 C 1158.2896234542156 102.61393040158724 1160.5281997050618 100.3753541507412 1163.2896234542156 100.3753541507412 C 1166.0510472033695 100.3753541507412 1168.2896234542156 102.61393040158724 1168.2896234542156 105.3753541507412 Z" stroke-opacity="1" stroke-linecap="round" stroke-linejoin="round" stroke-miterlimit="10"/><text fill="rgb(21,101,192)" stroke="none" font-family="geogebra-sans-serif, sans-serif" font-size="24px" font-style="normal" font-weight="normal" text-decoration="normal" x="1177" y="89" text-anchor="start" dominant-baseline="alphabetic" fill-opacity="1">C</text><text fill="none" stroke="rgb(255,255,255)" font-family="geogebra-sans-serif, sans-serif" font-size="24px" font-style="normal" font-weight="normal" text-decoration="normal" x="1177" y="89" text-anchor="start" dominant-baseline="alphabetic" stroke-opacity="1" stroke-linejoin="bevel" stroke-miterlimit="10" stroke-width="3">C</text><text fill="rgb(21,101,192)" stroke="none" font-family="geogebra-sans-serif, sans-serif" font-size="24px" font-style="normal" font-weight="normal" text-decoration="normal" x="1177" y="89" text-anchor="start" dominant-baseline="alphabetic" fill-opacity="1">C</text><path fill="rgb(46,125,50)" stroke="none" paint-order="stroke fill markers" d=" M 761.9999705462872 105.3753541507412 C 761.9999705462872 108.13677789989516 759.7613942954412 110.3753541507412 756.9999705462872 110.3753541507412 C 754.2385467971332 110.3753541507412 751.9999705462872 108.13677789989516 751.9999705462872 105.3753541507412 C 751.9999705462872 102.61393040158724 754.2385467971332 100.3753541507412 756.9999705462872 100.3753541507412 C 759.7613942954412 100.3753541507412 761.9999705462872 102.61393040158724 761.9999705462872 105.3753541507412 Z" fill-opacity="1"/><path fill="none" stroke="rgb(0,0,0)" paint-order="fill stroke markers" d=" M 761.9999705462872 105.3753541507412 C 761.9999705462872 108.13677789989516 759.7613942954412 110.3753541507412 756.9999705462872 110.3753541507412 C 754.2385467971332 110.3753541507412 751.9999705462872 108.13677789989516 751.9999705462872 105.3753541507412 C 751.9999705462872 102.61393040158724 754.2385467971332 100.3753541507412 756.9999705462872 100.3753541507412 C 759.7613942954412 100.3753541507412 761.9999705462872 102.61393040158724 761.9999705462872 105.3753541507412 Z" stroke-opacity="1" stroke-linecap="round" stroke-linejoin="round" stroke-miterlimit="10"/><text fill="rgb(46,125,50)" stroke="none" font-family="geogebra-sans-serif, sans-serif" font-size="24px" font-style="normal" font-weight="normal" text-decoration="normal" x="761" y="95" text-anchor="start" dominant-baseline="alphabetic" fill-opacity="1">E</text><text fill="none" stroke="rgb(255,255,255)" font-family="geogebra-sans-serif, sans-serif" font-size="24px" font-style="normal" font-weight="normal" text-decoration="normal" x="761" y="95" text-anchor="start" dominant-baseline="alphabetic" stroke-opacity="1" stroke-linejoin="bevel" stroke-miterlimit="10" stroke-width="3">E</text><text fill="rgb(46,125,50)" stroke="none" font-family="geogebra-sans-serif, sans-serif" font-size="24px" font-style="normal" font-weight="normal" text-decoration="normal" x="761" y="95" text-anchor="start" dominant-baseline="alphabetic" fill-opacity="1">E</text><path fill="rgb(46,125,50)" stroke="none" paint-order="stroke fill markers" d=" M 509.1560108258009 105.37535415074126 C 509.1560108258009 108.13677789989522 506.9174345749548 110.37535415074126 504.1560108258009 110.37535415074126 C 501.3945870766469 110.37535415074126 499.1560108258009 108.13677789989522 499.1560108258009 105.37535415074126 C 499.1560108258009 102.6139304015873 501.3945870766469 100.37535415074126 504.1560108258009 100.37535415074126 C 506.9174345749548 100.37535415074126 509.1560108258009 102.6139304015873 509.1560108258009 105.37535415074126 Z" fill-opacity="1"/><path fill="none" stroke="rgb(0,0,0)" paint-order="fill stroke markers" d=" M 509.1560108258009 105.37535415074126 C 509.1560108258009 108.13677789989522 506.9174345749548 110.37535415074126 504.1560108258009 110.37535415074126 C 501.3945870766469 110.37535415074126 499.1560108258009 108.13677789989522 499.1560108258009 105.37535415074126 C 499.1560108258009 102.6139304015873 501.3945870766469 100.37535415074126 504.1560108258009 100.37535415074126 C 506.9174345749548 100.37535415074126 509.1560108258009 102.6139304015873 509.1560108258009 105.37535415074126 Z" stroke-opacity="1" stroke-linecap="round" stroke-linejoin="round" stroke-miterlimit="10"/><text fill="rgb(46,125,50)" stroke="none" font-family="geogebra-sans-serif, sans-serif" font-size="24px" font-style="normal" font-weight="normal" text-decoration="normal" x="493" y="89" text-anchor="start" dominant-baseline="alphabetic" fill-opacity="1">F</text><text fill="none" stroke="rgb(255,255,255)" font-family="geogebra-sans-serif, sans-serif" font-size="24px" font-style="normal" font-weight="normal" text-decoration="normal" x="493" y="89" text-anchor="start" dominant-baseline="alphabetic" stroke-opacity="1" stroke-linejoin="bevel" stroke-miterlimit="10" stroke-width="3">F</text><text fill="rgb(46,125,50)" stroke="none" font-family="geogebra-sans-serif, sans-serif" font-size="24px" font-style="normal" font-weight="normal" text-decoration="normal" x="493" y="89" text-anchor="start" dominant-baseline="alphabetic" fill-opacity="1">F</text><path fill="rgb(21,101,192)" stroke="none" paint-order="stroke fill markers" d=" M 635.5779906860439 197.00855676595984 C 635.5779906860439 199.76998051511382 633.3394144351979 202.00855676595984 630.5779906860439 202.00855676595984 C 627.8165669368899 202.00855676595984 625.5779906860439 199.76998051511382 625.5779906860439 197.00855676595984 C 625.5779906860439 194.24713301680586 627.8165669368899 192.00855676595984 630.5779906860439 192.00855676595984 C 633.3394144351979 192.00855676595984 635.5779906860439 194.24713301680586 635.5779906860439 197.00855676595984 Z" fill-opacity="1"/><path fill="none" stroke="rgb(0,0,0)" paint-order="fill stroke markers" d=" M 635.5779906860439 197.00855676595984 C 635.5779906860439 199.76998051511382 633.3394144351979 202.00855676595984 630.5779906860439 202.00855676595984 C 627.8165669368899 202.00855676595984 625.5779906860439 199.76998051511382 625.5779906860439 197.00855676595984 C 625.5779906860439 194.24713301680586 627.8165669368899 192.00855676595984 630.5779906860439 192.00855676595984 C 633.3394144351979 192.00855676595984 635.5779906860439 194.24713301680586 635.5779906860439 197.00855676595984 Z" stroke-opacity="1" stroke-linecap="round" stroke-linejoin="round" stroke-miterlimit="10"/></g></g></svg>