<svg version="1.1" xmlns="http://www.w3.org/2000/svg" xmlns:xlink="http://www.w3.org/1999/xlink" width="1310" height="704"><defs><clipPath id="HWJQNIWZQQQk"><path fill="none" stroke="none" d=" M 0 0 L 1310 0 L 1310 704 L 0 704 L 0 0 Z"/></clipPath></defs><g transform="scale(1,1)" clip-path="url(#HWJQNIWZQQQk)"><g><rect fill="rgb(255,255,255)" stroke="none" x="0" y="0" width="1310" height="704" fill-opacity="1"/><path fill="none" stroke="rgb(0,0,0)" paint-order="fill stroke markers" d=" M 897.6045454545442 336.07499999999925 C 897.6045454545442 469.7279094590514 789.2574549135961 578.0749999999995 655.604545454544 578.0749999999995 C 521.9516359954919 578.0749999999995 413.6045454545438 469.7279094590514 413.6045454545438 336.07499999999925 C 413.6045454545438 202.42209054094712 521.9516359954919 94.074999999999 655.604545454544 94.074999999999 C 789.2574549135961 94.074999999999 897.6045454545442 202.42209054094712 897.6045454545442 336.07499999999925 Z" stroke-opacity="0.6980392156862745" stroke-linecap="round" stroke-linejoin="round" stroke-miterlimit="10" stroke-width="2.5"/><path fill="none" stroke="rgb(0,0,0)" paint-order="fill stroke markers" d=" M -5 578.0749999999995 L 1315 578.0749999999995" stroke-opacity="0.6980392156862745" stroke-linecap="round" stroke-linejoin="round" stroke-miterlimit="10" stroke-width="2.5"/><path fill="none" stroke="rgb(0,0,0)" paint-order="fill stroke markers" d=" M 234.27315258113572 709 L 723.4882837135714 -5" stroke-opacity="0.6980392156862745" stroke-linejoin="round" stroke-miterlimit="10" stroke-width="0.5" stroke-dasharray="8.5,8"/><path fill="none" stroke="rgb(0,0,0)" paint-order="fill stroke markers" d=" M 565.8979753655884 709 L 1055.113106498024 -5" stroke-opacity="0.6980392156862745" stroke-linejoin="round" stroke-miterlimit="10" stroke-width="0.5" stroke-dasharray="8.5,8"/><path fill="none" stroke="rgb(0,0,0)" paint-order="fill stroke markers" d=" M 429.92731337484975 423.4465452584409 L 655.604545454544 578.0749999999995" stroke-opacity="0.6980392156862745" stroke-linecap="round" stroke-linejoin="round" stroke-miterlimit="10" stroke-width="2.5"/><path fill="none" stroke="rgb(0,0,0)" paint-order="fill stroke markers" d=" M 655.604545454544 578.0749999999995 L 837.1399970886284 176.04725303089046" stroke-opacity="0.6980392156862745" stroke-linecap="round" stroke-linejoin="round" stroke-miterlimit="10" stroke-width="2.5"/><path fill="none" stroke="rgb(0,0,0)" paint-order="fill stroke markers" d=" M 837.1399970886284 176.04725303089046 L 429.92731337484975 423.4465452584409" stroke-opacity="0.6980392156862745" stroke-linecap="round" stroke-linejoin="round" stroke-miterlimit="10" stroke-width="2.5"/><path fill="rgb(21,101,192)" stroke="none" paint-order="stroke fill markers" d=" M 660.604545454544 336.07499999999925 C 660.604545454544 338.8364237491532 658.365969203698 341.07499999999925 655.604545454544 341.07499999999925 C 652.84312170539 341.07499999999925 650.604545454544 338.8364237491532 650.604545454544 336.07499999999925 C 650.604545454544 333.3135762508453 652.84312170539 331.07499999999925 655.604545454544 331.07499999999925 C 658.365969203698 331.07499999999925 660.604545454544 333.3135762508453 660.604545454544 336.07499999999925 Z" fill-opacity="1"/><path fill="none" stroke="rgb(0,0,0)" paint-order="fill stroke markers" d=" M 660.604545454544 336.07499999999925 C 660.604545454544 338.8364237491532 658.365969203698 341.07499999999925 655.604545454544 341.07499999999925 C 652.84312170539 341.07499999999925 650.604545454544 338.8364237491532 650.604545454544 336.07499999999925 C 650.604545454544 333.3135762508453 652.84312170539 331.07499999999925 655.604545454544 331.07499999999925 C 658.365969203698 331.07499999999925 660.604545454544 333.3135762508453 660.604545454544 336.07499999999925 Z" stroke-opacity="1" stroke-linecap="round" stroke-linejoin="round" stroke-miterlimit="10"/><path fill="rgb(21,101,192)" stroke="none" paint-order="stroke fill markers" d=" M 660.604545454544 578.0749999999995 C 660.604545454544 580.8364237491535 658.365969203698 583.0749999999995 655.604545454544 583.0749999999995 C 652.84312170539 583.0749999999995 650.604545454544 580.8364237491535 650.604545454544 578.0749999999995 C 650.604545454544 575.3135762508455 652.84312170539 573.0749999999995 655.604545454544 573.0749999999995 C 658.365969203698 573.0749999999995 660.604545454544 575.3135762508455 660.604545454544 578.0749999999995 Z" fill-opacity="1"/><path fill="none" stroke="rgb(0,0,0)" paint-order="fill stroke markers" d=" M 660.604545454544 578.0749999999995 C 660.604545454544 580.8364237491535 658.365969203698 583.0749999999995 655.604545454544 583.0749999999995 C 652.84312170539 583.0749999999995 650.604545454544 580.8364237491535 650.604545454544 578.0749999999995 C 650.604545454544 575.3135762508455 652.84312170539 573.0749999999995 655.604545454544 573.0749999999995 C 658.365969203698 573.0749999999995 660.604545454544 575.3135762508455 660.604545454544 578.0749999999995 Z" stroke-opacity="1" stroke-linecap="round" stroke-linejoin="round" stroke-miterlimit="10"/><text fill="rgb(21,101,192)" stroke="none" font-family="geogebra-sans-serif, sans-serif" font-size="24px" font-style="normal" font-weight="normal" text-decoration="normal" x="642" y="615" text-anchor="start" dominant-baseline="alphabetic" fill-opacity="1">B</text><text fill="none" stroke="rgb(255,255,255)" font-family="geogebra-sans-serif, sans-serif" font-size="24px" font-style="normal" font-weight="normal" text-decoration="normal" x="642" y="615" text-anchor="start" dominant-baseline="alphabetic" stroke-opacity="1" stroke-linejoin="bevel" stroke-miterlimit="10" stroke-width="3">B</text><text fill="rgb(21,101,192)" stroke="none" font-family="geogebra-sans-serif, sans-serif" font-size="24px" font-style="normal" font-weight="normal" text-decoration="normal" x="642" y="615" text-anchor="start" dominant-baseline="alphabetic" fill-opacity="1">B</text><path fill="rgb(21,101,192)" stroke="none" paint-order="stroke fill markers" d=" M 434.92731337484975 423.4465452584409 C 434.92731337484975 426.20796900759484 432.6887371240037 428.4465452584409 429.92731337484975 428.4465452584409 C 427.1658896256958 428.4465452584409 424.92731337484975 426.20796900759484 424.92731337484975 423.4465452584409 C 424.92731337484975 420.68512150928694 427.1658896256958 418.4465452584409 429.92731337484975 418.4465452584409 C 432.6887371240037 418.4465452584409 434.92731337484975 420.68512150928694 434.92731337484975 423.4465452584409 Z" fill-opacity="1"/><path fill="none" stroke="rgb(0,0,0)" paint-order="fill stroke markers" d=" M 434.92731337484975 423.4465452584409 C 434.92731337484975 426.20796900759484 432.6887371240037 428.4465452584409 429.92731337484975 428.4465452584409 C 427.1658896256958 428.4465452584409 424.92731337484975 426.20796900759484 424.92731337484975 423.4465452584409 C 424.92731337484975 420.68512150928694 427.1658896256958 418.4465452584409 429.92731337484975 418.4465452584409 C 432.6887371240037 418.4465452584409 434.92731337484975 420.68512150928694 434.92731337484975 423.4465452584409 Z" stroke-opacity="1" stroke-linecap="round" stroke-linejoin="round" stroke-miterlimit="10"/><text fill="rgb(21,101,192)" stroke="none" font-family="geogebra-sans-serif, sans-serif" font-size="24px" font-style="normal" font-weight="normal" text-decoration="normal" x="394" y="440" text-anchor="start" dominant-baseline="alphabetic" fill-opacity="1">A</text><text fill="none" stroke="rgb(255,255,255)" font-family="geogebra-sans-serif, sans-serif" font-size="24px" font-style="normal" font-weight="normal" text-decoration="normal" x="394" y="440" text-anchor="start" dominant-baseline="alphabetic" stroke-opacity="1" stroke-linejoin="bevel" stroke-miterlimit="10" stroke-width="3">A</text><text fill="rgb(21,101,192)" stroke="none" font-family="geogebra-sans-serif, sans-serif" font-size="24px" font-style="normal" font-weight="normal" text-decoration="normal" x="394" y="440" text-anchor="start" dominant-baseline="alphabetic" fill-opacity="1">A</text><path fill="rgb(21,101,192)" stroke="none" paint-order="stroke fill markers" d=" M 842.1399970886284 176.04725303089046 C 842.1399970886284 178.80867678004444 839.9014208377824 181.04725303089046 837.1399970886284 181.04725303089046 C 834.3785733394744 181.04725303089046 832.1399970886284 178.80867678004444 832.1399970886284 176.04725303089046 C 832.1399970886284 173.28582928173648 834.3785733394744 171.04725303089046 837.1399970886284 171.04725303089046 C 839.9014208377824 171.04725303089046 842.1399970886284 173.28582928173648 842.1399970886284 176.04725303089046 Z" fill-opacity="1"/><path fill="none" stroke="rgb(0,0,0)" paint-order="fill stroke markers" d=" M 842.1399970886284 176.04725303089046 C 842.1399970886284 178.80867678004444 839.9014208377824 181.04725303089046 837.1399970886284 181.04725303089046 C 834.3785733394744 181.04725303089046 832.1399970886284 178.80867678004444 832.1399970886284 176.04725303089046 C 832.1399970886284 173.28582928173648 834.3785733394744 171.04725303089046 837.1399970886284 171.04725303089046 C 839.9014208377824 171.04725303089046 842.1399970886284 173.28582928173648 842.1399970886284 176.04725303089046 Z" stroke-opacity="1" stroke-linecap="round" stroke-linejoin="round" stroke-miterlimit="10"/><text fill="rgb(21,101,192)" stroke="none" font-family="geogebra-sans-serif, sans-serif" font-size="24px" font-style="normal" font-weight="normal" text-decoration="normal" x="841" y="166" text-anchor="start" dominant-baseline="alphabetic" fill-opacity="1">C</text><text fill="none" stroke="rgb(255,255,255)" font-family="geogebra-sans-serif, sans-serif" font-size="24px" font-style="normal" font-weight="normal" text-decoration="normal" x="841" y="166" text-anchor="start" dominant-baseline="alphabetic" stroke-opacity="1" stroke-linejoin="bevel" stroke-miterlimit="10" stroke-width="3">C</text><text fill="rgb(21,101,192)" stroke="none" font-family="geogebra-sans-serif, sans-serif" font-size="24px" font-style="normal" font-weight="normal" text-decoration="normal" x="841" y="166" text-anchor="start" dominant-baseline="alphabetic" fill-opacity="1">C</text></g></g></svg>