<svg version="1.1" xmlns="http://www.w3.org/2000/svg" xmlns:xlink="http://www.w3.org/1999/xlink" width="1310" height="704"><defs><clipPath id="AzEtTRQQJGFa"><path fill="none" stroke="none" d=" M 0 0 L 1310 0 L 1310 704 L 0 704 L 0 0 Z"/></clipPath></defs><g transform="scale(1,1)" clip-path="url(#AzEtTRQQJGFa)"><g><rect fill="rgb(255,255,255)" stroke="none" x="0" y="0" width="1310" height="704" fill-opacity="1"/><path fill="none" stroke="rgb(0,0,0)" paint-order="fill stroke markers" d=" M 897.6045454545442 336.0749999999993 C 897.6045454545442 469.72790945905143 789.2574549135961 578.0749999999996 655.604545454544 578.0749999999996 C 521.9516359954919 578.0749999999996 413.6045454545438 469.72790945905143 413.6045454545438 336.0749999999993 C 413.6045454545438 202.42209054094718 521.9516359954919 94.07499999999902 655.604545454544 94.07499999999902 C 789.2574549135961 94.07499999999902 897.6045454545442 202.42209054094718 897.6045454545442 336.0749999999993 Z" stroke-opacity="0.6980392156862745" stroke-linecap="round" stroke-linejoin="round" stroke-miterlimit="10" stroke-width="2.5"/><path fill="rgb(0,0,0)" stroke="none" paint-order="stroke fill markers" fill-rule="evenodd" d=" M 837.1399970886284 578.0749999999996 L 858.3532005242234 578.0749999999996 L 858.3532005242248 556.8617965644031 L 837.1399970886284 556.8617965644046 L 837.1399970886284 578.0749999999996" fill-opacity="0.09803921568627451"/><path fill="none" stroke="rgb(0,0,0)" paint-order="fill stroke markers" d=" M 837.1399970886284 578.0749999999996 L 858.3532005242234 578.0749999999996 L 858.3532005242248 556.8617965644031 L 837.1399970886284 556.8617965644046 L 837.1399970886284 578.0749999999996" stroke-opacity="0.6" stroke-linecap="round" stroke-linejoin="round" stroke-miterlimit="10" stroke-width="2.5"/><path fill="rgb(0,0,0)" stroke="none" paint-order="stroke fill markers" fill-rule="evenodd" d=" M 526.1459446524061 364.9895712268985 L 508.01638366309294 376.00406251495684 L 519.0308749511508 394.133623504272 L 537.1604359404645 383.11913221621165 L 526.1459446524061 364.9895712268985" fill-opacity="0.09803921568627451"/><path fill="none" stroke="rgb(0,0,0)" paint-order="fill stroke markers" d=" M 526.1459446524061 364.9895712268985 L 508.01638366309294 376.00406251495684 L 519.0308749511508 394.133623504272 L 537.1604359404645 383.11913221621165 L 526.1459446524061 364.9895712268985" stroke-opacity="0.6" stroke-linecap="round" stroke-linejoin="round" stroke-miterlimit="10" stroke-width="2.5"/><path fill="none" stroke="rgb(0,0,0)" paint-order="fill stroke markers" d=" M -5 578.0749999999996 L 1315 578.0749999999996" stroke-opacity="0.6980392156862745" stroke-linecap="round" stroke-linejoin="round" stroke-miterlimit="10" stroke-width="2.5"/><path fill="none" stroke="rgb(0,0,0)" paint-order="fill stroke markers" d=" M 735.1471373981165 709 L 301.3613008679614 -5" stroke-opacity="0.6980392156862745" stroke-linecap="round" stroke-linejoin="round" stroke-miterlimit="10" stroke-width="2.5"/><path fill="none" stroke="rgb(0,0,0)" paint-order="fill stroke markers" d=" M 837.1399970886284 709 L 837.1399970886284 -5" stroke-opacity="0.6980392156862745" stroke-linecap="round" stroke-linejoin="round" stroke-miterlimit="10" stroke-width="2.5"/><path fill="none" stroke="rgb(0,0,0)" paint-order="fill stroke markers" d=" M 234.27315258113583 709 L 723.4882837135715 -5" stroke-opacity="0.6980392156862745" stroke-linejoin="round" stroke-miterlimit="10" stroke-width="0.5" stroke-dasharray="8.5,8"/><path fill="none" stroke="rgb(0,0,0)" paint-order="fill stroke markers" d=" M 565.8979753655884 709 L 1055.113106498024 -5" stroke-opacity="0.6980392156862745" stroke-linejoin="round" stroke-miterlimit="10" stroke-width="0.5" stroke-dasharray="8.5,8"/><path fill="none" stroke="rgb(0,0,0)" paint-order="fill stroke markers" d=" M 429.92731337484975 423.446545258441 L 655.604545454544 578.0749999999996" stroke-opacity="0.6980392156862745" stroke-linecap="round" stroke-linejoin="round" stroke-miterlimit="10" stroke-width="2.5"/><path fill="none" stroke="rgb(0,0,0)" paint-order="fill stroke markers" d=" M 655.604545454544 578.0749999999996 L 837.1399970886284 176.0472530308905" stroke-opacity="0.6980392156862745" stroke-linecap="round" stroke-linejoin="round" stroke-miterlimit="10" stroke-width="2.5"/><path fill="none" stroke="rgb(0,0,0)" paint-order="fill stroke markers" d=" M 837.1399970886284 176.0472530308905 L 429.92731337484975 423.446545258441" stroke-opacity="0.6980392156862745" stroke-linecap="round" stroke-linejoin="round" stroke-miterlimit="10" stroke-width="2.5"/><path fill="rgb(21,101,192)" stroke="none" paint-order="stroke fill markers" d=" M 660.604545454544 336.0749999999993 C 660.604545454544 338.83642374915325 658.365969203698 341.0749999999993 655.604545454544 341.0749999999993 C 652.84312170539 341.0749999999993 650.604545454544 338.83642374915325 650.604545454544 336.0749999999993 C 650.604545454544 333.31357625084536 652.84312170539 331.0749999999993 655.604545454544 331.0749999999993 C 658.365969203698 331.0749999999993 660.604545454544 333.31357625084536 660.604545454544 336.0749999999993 Z" fill-opacity="1"/><path fill="none" stroke="rgb(0,0,0)" paint-order="fill stroke markers" d=" M 660.604545454544 336.0749999999993 C 660.604545454544 338.83642374915325 658.365969203698 341.0749999999993 655.604545454544 341.0749999999993 C 652.84312170539 341.0749999999993 650.604545454544 338.83642374915325 650.604545454544 336.0749999999993 C 650.604545454544 333.31357625084536 652.84312170539 331.0749999999993 655.604545454544 331.0749999999993 C 658.365969203698 331.0749999999993 660.604545454544 333.31357625084536 660.604545454544 336.0749999999993 Z" stroke-opacity="1" stroke-linecap="round" stroke-linejoin="round" stroke-miterlimit="10"/><path fill="rgb(21,101,192)" stroke="none" paint-order="stroke fill markers" d=" M 660.604545454544 578.0749999999996 C 660.604545454544 580.8364237491536 658.365969203698 583.0749999999996 655.604545454544 583.0749999999996 C 652.84312170539 583.0749999999996 650.604545454544 580.8364237491536 650.604545454544 578.0749999999996 C 650.604545454544 575.3135762508456 652.84312170539 573.0749999999996 655.604545454544 573.0749999999996 C 658.365969203698 573.0749999999996 660.604545454544 575.3135762508456 660.604545454544 578.0749999999996 Z" fill-opacity="1"/><path fill="none" stroke="rgb(0,0,0)" paint-order="fill stroke markers" d=" M 660.604545454544 578.0749999999996 C 660.604545454544 580.8364237491536 658.365969203698 583.0749999999996 655.604545454544 583.0749999999996 C 652.84312170539 583.0749999999996 650.604545454544 580.8364237491536 650.604545454544 578.0749999999996 C 650.604545454544 575.3135762508456 652.84312170539 573.0749999999996 655.604545454544 573.0749999999996 C 658.365969203698 573.0749999999996 660.604545454544 575.3135762508456 660.604545454544 578.0749999999996 Z" stroke-opacity="1" stroke-linecap="round" stroke-linejoin="round" stroke-miterlimit="10"/><text fill="rgb(21,101,192)" stroke="none" font-family="geogebra-sans-serif, sans-serif" font-size="24px" font-style="normal" font-weight="normal" text-decoration="normal" x="642" y="615" text-anchor="start" dominant-baseline="alphabetic" fill-opacity="1">B</text><text fill="none" stroke="rgb(255,255,255)" font-family="geogebra-sans-serif, sans-serif" font-size="24px" font-style="normal" font-weight="normal" text-decoration="normal" x="642" y="615" text-anchor="start" dominant-baseline="alphabetic" stroke-opacity="1" stroke-linejoin="bevel" stroke-miterlimit="10" stroke-width="3">B</text><text fill="rgb(21,101,192)" stroke="none" font-family="geogebra-sans-serif, sans-serif" font-size="24px" font-style="normal" font-weight="normal" text-decoration="normal" x="642" y="615" text-anchor="start" dominant-baseline="alphabetic" fill-opacity="1">B</text><path fill="rgb(21,101,192)" stroke="none" paint-order="stroke fill markers" d=" M 434.92731337484975 423.446545258441 C 434.92731337484975 426.20796900759495 432.6887371240037 428.446545258441 429.92731337484975 428.446545258441 C 427.1658896256958 428.446545258441 424.92731337484975 426.20796900759495 424.92731337484975 423.446545258441 C 424.92731337484975 420.68512150928706 427.1658896256958 418.446545258441 429.92731337484975 418.446545258441 C 432.6887371240037 418.446545258441 434.92731337484975 420.68512150928706 434.92731337484975 423.446545258441 Z" fill-opacity="1"/><path fill="none" stroke="rgb(0,0,0)" paint-order="fill stroke markers" d=" M 434.92731337484975 423.446545258441 C 434.92731337484975 426.20796900759495 432.6887371240037 428.446545258441 429.92731337484975 428.446545258441 C 427.1658896256958 428.446545258441 424.92731337484975 426.20796900759495 424.92731337484975 423.446545258441 C 424.92731337484975 420.68512150928706 427.1658896256958 418.446545258441 429.92731337484975 418.446545258441 C 432.6887371240037 418.446545258441 434.92731337484975 420.68512150928706 434.92731337484975 423.446545258441 Z" stroke-opacity="1" stroke-linecap="round" stroke-linejoin="round" stroke-miterlimit="10"/><text fill="rgb(21,101,192)" stroke="none" font-family="geogebra-sans-serif, sans-serif" font-size="24px" font-style="normal" font-weight="normal" text-decoration="normal" x="394" y="440" text-anchor="start" dominant-baseline="alphabetic" fill-opacity="1">A</text><text fill="none" stroke="rgb(255,255,255)" font-family="geogebra-sans-serif, sans-serif" font-size="24px" font-style="normal" font-weight="normal" text-decoration="normal" x="394" y="440" text-anchor="start" dominant-baseline="alphabetic" stroke-opacity="1" stroke-linejoin="bevel" stroke-miterlimit="10" stroke-width="3">A</text><text fill="rgb(21,101,192)" stroke="none" font-family="geogebra-sans-serif, sans-serif" font-size="24px" font-style="normal" font-weight="normal" text-decoration="normal" x="394" y="440" text-anchor="start" dominant-baseline="alphabetic" fill-opacity="1">A</text><path fill="rgb(21,101,192)" stroke="none" paint-order="stroke fill markers" d=" M 842.1399970886284 176.0472530308905 C 842.1399970886284 178.80867678004446 839.9014208377824 181.0472530308905 837.1399970886284 181.0472530308905 C 834.3785733394744 181.0472530308905 832.1399970886284 178.80867678004446 832.1399970886284 176.0472530308905 C 832.1399970886284 173.2858292817365 834.3785733394744 171.0472530308905 837.1399970886284 171.0472530308905 C 839.9014208377824 171.0472530308905 842.1399970886284 173.2858292817365 842.1399970886284 176.0472530308905 Z" fill-opacity="1"/><path fill="none" stroke="rgb(0,0,0)" paint-order="fill stroke markers" d=" M 842.1399970886284 176.0472530308905 C 842.1399970886284 178.80867678004446 839.9014208377824 181.0472530308905 837.1399970886284 181.0472530308905 C 834.3785733394744 181.0472530308905 832.1399970886284 178.80867678004446 832.1399970886284 176.0472530308905 C 832.1399970886284 173.2858292817365 834.3785733394744 171.0472530308905 837.1399970886284 171.0472530308905 C 839.9014208377824 171.0472530308905 842.1399970886284 173.2858292817365 842.1399970886284 176.0472530308905 Z" stroke-opacity="1" stroke-linecap="round" stroke-linejoin="round" stroke-miterlimit="10"/><text fill="rgb(21,101,192)" stroke="none" font-family="geogebra-sans-serif, sans-serif" font-size="24px" font-style="normal" font-weight="normal" text-decoration="normal" x="841" y="166" text-anchor="start" dominant-baseline="alphabetic" fill-opacity="1">C</text><text fill="none" stroke="rgb(255,255,255)" font-family="geogebra-sans-serif, sans-serif" font-size="24px" font-style="normal" font-weight="normal" text-decoration="normal" x="841" y="166" text-anchor="start" dominant-baseline="alphabetic" stroke-opacity="1" stroke-linejoin="bevel" stroke-miterlimit="10" stroke-width="3">C</text><text fill="rgb(21,101,192)" stroke="none" font-family="geogebra-sans-serif, sans-serif" font-size="24px" font-style="normal" font-weight="normal" text-decoration="normal" x="841" y="166" text-anchor="start" dominant-baseline="alphabetic" fill-opacity="1">C</text><path fill="rgb(46,125,50)" stroke="none" paint-order="stroke fill markers" d=" M 531.1459446524061 364.9895712268985 C 531.1459446524061 367.7509949760524 528.9073684015601 369.9895712268985 526.1459446524061 369.9895712268985 C 523.3845209032521 369.9895712268985 521.1459446524061 367.7509949760524 521.1459446524061 364.9895712268985 C 521.1459446524061 362.2281474777445 523.3845209032521 359.9895712268985 526.1459446524061 359.9895712268985 C 528.9073684015601 359.9895712268985 531.1459446524061 362.2281474777445 531.1459446524061 364.9895712268985 Z" fill-opacity="1"/><path fill="none" stroke="rgb(0,0,0)" paint-order="fill stroke markers" d=" M 531.1459446524061 364.9895712268985 C 531.1459446524061 367.7509949760524 528.9073684015601 369.9895712268985 526.1459446524061 369.9895712268985 C 523.3845209032521 369.9895712268985 521.1459446524061 367.7509949760524 521.1459446524061 364.9895712268985 C 521.1459446524061 362.2281474777445 523.3845209032521 359.9895712268985 526.1459446524061 359.9895712268985 C 528.9073684015601 359.9895712268985 531.1459446524061 362.2281474777445 531.1459446524061 364.9895712268985 Z" stroke-opacity="1" stroke-linecap="round" stroke-linejoin="round" stroke-miterlimit="10"/><text fill="rgb(46,125,50)" stroke="none" font-family="geogebra-sans-serif, sans-serif" font-size="24px" font-style="normal" font-weight="normal" text-decoration="normal" x="519" y="341" text-anchor="start" dominant-baseline="alphabetic" fill-opacity="1">E</text><text fill="none" stroke="rgb(255,255,255)" font-family="geogebra-sans-serif, sans-serif" font-size="24px" font-style="normal" font-weight="normal" text-decoration="normal" x="519" y="341" text-anchor="start" dominant-baseline="alphabetic" stroke-opacity="1" stroke-linejoin="bevel" stroke-miterlimit="10" stroke-width="3">E</text><text fill="rgb(46,125,50)" stroke="none" font-family="geogebra-sans-serif, sans-serif" font-size="24px" font-style="normal" font-weight="normal" text-decoration="normal" x="519" y="341" text-anchor="start" dominant-baseline="alphabetic" fill-opacity="1">E</text><path fill="rgb(46,125,50)" stroke="none" paint-order="stroke fill markers" d=" M 842.1399970886284 578.0749999999996 C 842.1399970886284 580.8364237491536 839.9014208377824 583.0749999999996 837.1399970886284 583.0749999999996 C 834.3785733394744 583.0749999999996 832.1399970886284 580.8364237491536 832.1399970886284 578.0749999999996 C 832.1399970886284 575.3135762508456 834.3785733394744 573.0749999999996 837.1399970886284 573.0749999999996 C 839.9014208377824 573.0749999999996 842.1399970886284 575.3135762508456 842.1399970886284 578.0749999999996 Z" fill-opacity="1"/><path fill="none" stroke="rgb(0,0,0)" paint-order="fill stroke markers" d=" M 842.1399970886284 578.0749999999996 C 842.1399970886284 580.8364237491536 839.9014208377824 583.0749999999996 837.1399970886284 583.0749999999996 C 834.3785733394744 583.0749999999996 832.1399970886284 580.8364237491536 832.1399970886284 578.0749999999996 C 832.1399970886284 575.3135762508456 834.3785733394744 573.0749999999996 837.1399970886284 573.0749999999996 C 839.9014208377824 573.0749999999996 842.1399970886284 575.3135762508456 842.1399970886284 578.0749999999996 Z" stroke-opacity="1" stroke-linecap="round" stroke-linejoin="round" stroke-miterlimit="10"/><text fill="rgb(46,125,50)" stroke="none" font-family="geogebra-sans-serif, sans-serif" font-size="24px" font-style="normal" font-weight="normal" text-decoration="normal" x="849" y="604" text-anchor="start" dominant-baseline="alphabetic" fill-opacity="1">F</text><text fill="none" stroke="rgb(255,255,255)" font-family="geogebra-sans-serif, sans-serif" font-size="24px" font-style="normal" font-weight="normal" text-decoration="normal" x="849" y="604" text-anchor="start" dominant-baseline="alphabetic" stroke-opacity="1" stroke-linejoin="bevel" stroke-miterlimit="10" stroke-width="3">F</text><text fill="rgb(46,125,50)" stroke="none" font-family="geogebra-sans-serif, sans-serif" font-size="24px" font-style="normal" font-weight="normal" text-decoration="normal" x="849" y="604" text-anchor="start" dominant-baseline="alphabetic" fill-opacity="1">F</text></g></g></svg>