<svg version="1.1" xmlns="http://www.w3.org/2000/svg" xmlns:xlink="http://www.w3.org/1999/xlink" width="1310" height="704"><defs><clipPath id="ByaSBAxhcJTS"><path fill="none" stroke="none" d=" M 0 0 L 1310 0 L 1310 704 L 0 704 L 0 0 Z"/></clipPath></defs><g transform="scale(1,1)" clip-path="url(#ByaSBAxhcJTS)"><g><rect fill="rgb(255,255,255)" stroke="none" x="0" y="0" width="1310" height="704" fill-opacity="1"/><path fill="none" stroke="rgb(0,0,0)" paint-order="fill stroke markers" d=" M 897.6045454545442 336.0749999999994 C 897.6045454545442 469.72790945905155 789.2574549135961 578.0749999999997 655.604545454544 578.0749999999997 C 521.9516359954919 578.0749999999997 413.6045454545438 469.72790945905155 413.6045454545438 336.0749999999994 C 413.6045454545438 202.4220905409473 521.9516359954919 94.07499999999914 655.604545454544 94.07499999999914 C 789.2574549135961 94.07499999999914 897.6045454545442 202.4220905409473 897.6045454545442 336.0749999999994 Z" stroke-opacity="0.6980392156862745" stroke-linecap="round" stroke-linejoin="round" stroke-miterlimit="10" stroke-width="2.5"/><path fill="rgb(0,0,0)" stroke="none" paint-order="stroke fill markers" fill-rule="evenodd" d=" M 837.1399970886284 578.0749999999997 L 858.3532005242234 578.0749999999997 L 858.3532005242248 556.8617965644032 L 837.1399970886284 556.8617965644047 L 837.1399970886284 578.0749999999997" fill-opacity="0.09803921568627451"/><path fill="none" stroke="rgb(0,0,0)" paint-order="fill stroke markers" d=" M 837.1399970886284 578.0749999999997 L 858.3532005242234 578.0749999999997 L 858.3532005242248 556.8617965644032 L 837.1399970886284 556.8617965644047 L 837.1399970886284 578.0749999999997" stroke-opacity="0.6" stroke-linecap="round" stroke-linejoin="round" stroke-miterlimit="10" stroke-width="2.5"/><path fill="rgb(0,0,0)" stroke="none" paint-order="stroke fill markers" fill-rule="evenodd" d=" M 526.1459446524061 364.9895712268986 L 508.01638366309294 376.00406251495696 L 519.0308749511508 394.1336235042721 L 537.1604359404645 383.11913221621177 L 526.1459446524061 364.9895712268986" fill-opacity="0.09803921568627451"/><path fill="none" stroke="rgb(0,0,0)" paint-order="fill stroke markers" d=" M 526.1459446524061 364.9895712268986 L 508.01638366309294 376.00406251495696 L 519.0308749511508 394.1336235042721 L 537.1604359404645 383.11913221621177 L 526.1459446524061 364.9895712268986" stroke-opacity="0.6" stroke-linecap="round" stroke-linejoin="round" stroke-miterlimit="10" stroke-width="2.5"/><path fill="rgb(211,47,47)" stroke="none" paint-order="stroke fill markers" d=" M 811.5009260576697 191.6240959931041 C 814.6436271603283 196.7968987873285 819.277504175627 200.8981243617225 824.7938339907562 203.38902065408462 L 837.1399970886284 176.0472530308906 Z" fill-opacity="0.2980392156862745"/><path fill="none" stroke="rgb(211,47,47)" paint-order="fill stroke markers" d=" M 811.5009260576697 191.6240959931041 C 814.6436271603283 196.7968987873285 819.277504175627 200.8981243617225 824.7938339907562 203.38902065408462 L 837.1399970886284 176.0472530308906 Z" stroke-opacity="0.6" stroke-linecap="round" stroke-linejoin="round" stroke-miterlimit="10" stroke-width="4"/><path fill="rgb(211,47,47)" stroke="none" paint-order="stroke fill markers" d=" M 630.856459681145 561.1182240519462 C 627.4353506285114 566.1112663929018 625.604545454544 572.0223593392147 625.604545454544 578.0749999999997 L 655.604545454544 578.0749999999997 Z" fill-opacity="0.2980392156862745"/><path fill="none" stroke="rgb(211,47,47)" paint-order="fill stroke markers" d=" M 630.856459681145 561.1182240519462 C 627.4353506285114 566.1112663929018 625.604545454544 572.0223593392147 625.604545454544 578.0749999999997 L 655.604545454544 578.0749999999997 Z" stroke-opacity="0.6" stroke-linecap="round" stroke-linejoin="round" stroke-miterlimit="10" stroke-width="4"/><path fill="none" stroke="rgb(0,0,0)" paint-order="fill stroke markers" d=" M -5 578.0749999999997 L 1315 578.0749999999997" stroke-opacity="0.6980392156862745" stroke-linecap="round" stroke-linejoin="round" stroke-miterlimit="10" stroke-width="2.5"/><path fill="none" stroke="rgb(0,0,0)" paint-order="fill stroke markers" d=" M 735.1471373981165 709 L 301.36130086796135 -5" stroke-opacity="0.6980392156862745" stroke-linecap="round" stroke-linejoin="round" stroke-miterlimit="10" stroke-width="2.5"/><path fill="none" stroke="rgb(0,0,0)" paint-order="fill stroke markers" d=" M 837.1399970886284 709 L 837.1399970886284 -5" stroke-opacity="0.6980392156862745" stroke-linecap="round" stroke-linejoin="round" stroke-miterlimit="10" stroke-width="2.5"/><path fill="none" stroke="rgb(0,0,0)" paint-order="fill stroke markers" d=" M 234.27315258113583 709 L 723.4882837135715 -5" stroke-opacity="0.6980392156862745" stroke-linejoin="round" stroke-miterlimit="10" stroke-width="0.5" stroke-dasharray="8.5,8"/><path fill="none" stroke="rgb(0,0,0)" paint-order="fill stroke markers" d=" M 565.8979753655884 709 L 1055.113106498024 -5" stroke-opacity="0.6980392156862745" stroke-linejoin="round" stroke-miterlimit="10" stroke-width="0.5" stroke-dasharray="8.5,8"/><path fill="none" stroke="rgb(0,0,0)" paint-order="fill stroke markers" d=" M 429.92731337484975 423.4465452584411 L 655.604545454544 578.0749999999997" stroke-opacity="0.6980392156862745" stroke-linecap="round" stroke-linejoin="round" stroke-miterlimit="10" stroke-width="2.5"/><path fill="none" stroke="rgb(0,0,0)" paint-order="fill stroke markers" d=" M 655.604545454544 578.0749999999997 L 837.1399970886284 176.0472530308906" stroke-opacity="0.6980392156862745" stroke-linecap="round" stroke-linejoin="round" stroke-miterlimit="10" stroke-width="2.5"/><path fill="none" stroke="rgb(0,0,0)" paint-order="fill stroke markers" d=" M 837.1399970886284 176.0472530308906 L 429.92731337484975 423.4465452584411" stroke-opacity="0.6980392156862745" stroke-linecap="round" stroke-linejoin="round" stroke-miterlimit="10" stroke-width="2.5"/><path fill="none" stroke="rgb(0,0,0)" paint-order="fill stroke markers" d=" M 526.1459446524061 364.9895712268986 L 837.1399970886284 578.0749999999997" stroke-opacity="0.6980392156862745" stroke-linecap="round" stroke-linejoin="round" stroke-miterlimit="10" stroke-width="2.5"/><path fill="rgb(21,101,192)" stroke="none" paint-order="stroke fill markers" d=" M 660.604545454544 336.0749999999994 C 660.604545454544 338.83642374915337 658.365969203698 341.0749999999994 655.604545454544 341.0749999999994 C 652.84312170539 341.0749999999994 650.604545454544 338.83642374915337 650.604545454544 336.0749999999994 C 650.604545454544 333.3135762508455 652.84312170539 331.0749999999994 655.604545454544 331.0749999999994 C 658.365969203698 331.0749999999994 660.604545454544 333.3135762508455 660.604545454544 336.0749999999994 Z" fill-opacity="1"/><path fill="none" stroke="rgb(0,0,0)" paint-order="fill stroke markers" d=" M 660.604545454544 336.0749999999994 C 660.604545454544 338.83642374915337 658.365969203698 341.0749999999994 655.604545454544 341.0749999999994 C 652.84312170539 341.0749999999994 650.604545454544 338.83642374915337 650.604545454544 336.0749999999994 C 650.604545454544 333.3135762508455 652.84312170539 331.0749999999994 655.604545454544 331.0749999999994 C 658.365969203698 331.0749999999994 660.604545454544 333.3135762508455 660.604545454544 336.0749999999994 Z" stroke-opacity="1" stroke-linecap="round" stroke-linejoin="round" stroke-miterlimit="10"/><path fill="rgb(21,101,192)" stroke="none" paint-order="stroke fill markers" d=" M 660.604545454544 578.0749999999997 C 660.604545454544 580.8364237491537 658.365969203698 583.0749999999997 655.604545454544 583.0749999999997 C 652.84312170539 583.0749999999997 650.604545454544 580.8364237491537 650.604545454544 578.0749999999997 C 650.604545454544 575.3135762508457 652.84312170539 573.0749999999997 655.604545454544 573.0749999999997 C 658.365969203698 573.0749999999997 660.604545454544 575.3135762508457 660.604545454544 578.0749999999997 Z" fill-opacity="1"/><path fill="none" stroke="rgb(0,0,0)" paint-order="fill stroke markers" d=" M 660.604545454544 578.0749999999997 C 660.604545454544 580.8364237491537 658.365969203698 583.0749999999997 655.604545454544 583.0749999999997 C 652.84312170539 583.0749999999997 650.604545454544 580.8364237491537 650.604545454544 578.0749999999997 C 650.604545454544 575.3135762508457 652.84312170539 573.0749999999997 655.604545454544 573.0749999999997 C 658.365969203698 573.0749999999997 660.604545454544 575.3135762508457 660.604545454544 578.0749999999997 Z" stroke-opacity="1" stroke-linecap="round" stroke-linejoin="round" stroke-miterlimit="10"/><text fill="rgb(21,101,192)" stroke="none" font-family="geogebra-sans-serif, sans-serif" font-size="24px" font-style="normal" font-weight="normal" text-decoration="normal" x="642" y="615" text-anchor="start" dominant-baseline="alphabetic" fill-opacity="1">B</text><text fill="none" stroke="rgb(255,255,255)" font-family="geogebra-sans-serif, sans-serif" font-size="24px" font-style="normal" font-weight="normal" text-decoration="normal" x="642" y="615" text-anchor="start" dominant-baseline="alphabetic" stroke-opacity="1" stroke-linejoin="bevel" stroke-miterlimit="10" stroke-width="3">B</text><text fill="rgb(21,101,192)" stroke="none" font-family="geogebra-sans-serif, sans-serif" font-size="24px" font-style="normal" font-weight="normal" text-decoration="normal" x="642" y="615" text-anchor="start" dominant-baseline="alphabetic" fill-opacity="1">B</text><path fill="rgb(21,101,192)" stroke="none" paint-order="stroke fill markers" d=" M 434.92731337484975 423.4465452584411 C 434.92731337484975 426.20796900759507 432.6887371240037 428.4465452584411 429.92731337484975 428.4465452584411 C 427.1658896256958 428.4465452584411 424.92731337484975 426.20796900759507 424.92731337484975 423.4465452584411 C 424.92731337484975 420.68512150928717 427.1658896256958 418.4465452584411 429.92731337484975 418.4465452584411 C 432.6887371240037 418.4465452584411 434.92731337484975 420.68512150928717 434.92731337484975 423.4465452584411 Z" fill-opacity="1"/><path fill="none" stroke="rgb(0,0,0)" paint-order="fill stroke markers" d=" M 434.92731337484975 423.4465452584411 C 434.92731337484975 426.20796900759507 432.6887371240037 428.4465452584411 429.92731337484975 428.4465452584411 C 427.1658896256958 428.4465452584411 424.92731337484975 426.20796900759507 424.92731337484975 423.4465452584411 C 424.92731337484975 420.68512150928717 427.1658896256958 418.4465452584411 429.92731337484975 418.4465452584411 C 432.6887371240037 418.4465452584411 434.92731337484975 420.68512150928717 434.92731337484975 423.4465452584411 Z" stroke-opacity="1" stroke-linecap="round" stroke-linejoin="round" stroke-miterlimit="10"/><text fill="rgb(21,101,192)" stroke="none" font-family="geogebra-sans-serif, sans-serif" font-size="24px" font-style="normal" font-weight="normal" text-decoration="normal" x="394" y="440" text-anchor="start" dominant-baseline="alphabetic" fill-opacity="1">A</text><text fill="none" stroke="rgb(255,255,255)" font-family="geogebra-sans-serif, sans-serif" font-size="24px" font-style="normal" font-weight="normal" text-decoration="normal" x="394" y="440" text-anchor="start" dominant-baseline="alphabetic" stroke-opacity="1" stroke-linejoin="bevel" stroke-miterlimit="10" stroke-width="3">A</text><text fill="rgb(21,101,192)" stroke="none" font-family="geogebra-sans-serif, sans-serif" font-size="24px" font-style="normal" font-weight="normal" text-decoration="normal" x="394" y="440" text-anchor="start" dominant-baseline="alphabetic" fill-opacity="1">A</text><path fill="rgb(21,101,192)" stroke="none" paint-order="stroke fill markers" d=" M 842.1399970886284 176.0472530308906 C 842.1399970886284 178.80867678004458 839.9014208377824 181.0472530308906 837.1399970886284 181.0472530308906 C 834.3785733394744 181.0472530308906 832.1399970886284 178.80867678004458 832.1399970886284 176.0472530308906 C 832.1399970886284 173.28582928173662 834.3785733394744 171.0472530308906 837.1399970886284 171.0472530308906 C 839.9014208377824 171.0472530308906 842.1399970886284 173.28582928173662 842.1399970886284 176.0472530308906 Z" fill-opacity="1"/><path fill="none" stroke="rgb(0,0,0)" paint-order="fill stroke markers" d=" M 842.1399970886284 176.0472530308906 C 842.1399970886284 178.80867678004458 839.9014208377824 181.0472530308906 837.1399970886284 181.0472530308906 C 834.3785733394744 181.0472530308906 832.1399970886284 178.80867678004458 832.1399970886284 176.0472530308906 C 832.1399970886284 173.28582928173662 834.3785733394744 171.0472530308906 837.1399970886284 171.0472530308906 C 839.9014208377824 171.0472530308906 842.1399970886284 173.28582928173662 842.1399970886284 176.0472530308906 Z" stroke-opacity="1" stroke-linecap="round" stroke-linejoin="round" stroke-miterlimit="10"/><text fill="rgb(21,101,192)" stroke="none" font-family="geogebra-sans-serif, sans-serif" font-size="24px" font-style="normal" font-weight="normal" text-decoration="normal" x="841" y="166" text-anchor="start" dominant-baseline="alphabetic" fill-opacity="1">C</text><text fill="none" stroke="rgb(255,255,255)" font-family="geogebra-sans-serif, sans-serif" font-size="24px" font-style="normal" font-weight="normal" text-decoration="normal" x="841" y="166" text-anchor="start" dominant-baseline="alphabetic" stroke-opacity="1" stroke-linejoin="bevel" stroke-miterlimit="10" stroke-width="3">C</text><text fill="rgb(21,101,192)" stroke="none" font-family="geogebra-sans-serif, sans-serif" font-size="24px" font-style="normal" font-weight="normal" text-decoration="normal" x="841" y="166" text-anchor="start" dominant-baseline="alphabetic" fill-opacity="1">C</text><path fill="rgb(46,125,50)" stroke="none" paint-order="stroke fill markers" d=" M 531.1459446524061 364.9895712268986 C 531.1459446524061 367.75099497605254 528.9073684015601 369.9895712268986 526.1459446524061 369.9895712268986 C 523.3845209032521 369.9895712268986 521.1459446524061 367.75099497605254 521.1459446524061 364.9895712268986 C 521.1459446524061 362.22814747774464 523.3845209032521 359.9895712268986 526.1459446524061 359.9895712268986 C 528.9073684015601 359.9895712268986 531.1459446524061 362.22814747774464 531.1459446524061 364.9895712268986 Z" fill-opacity="1"/><path fill="none" stroke="rgb(0,0,0)" paint-order="fill stroke markers" d=" M 531.1459446524061 364.9895712268986 C 531.1459446524061 367.75099497605254 528.9073684015601 369.9895712268986 526.1459446524061 369.9895712268986 C 523.3845209032521 369.9895712268986 521.1459446524061 367.75099497605254 521.1459446524061 364.9895712268986 C 521.1459446524061 362.22814747774464 523.3845209032521 359.9895712268986 526.1459446524061 359.9895712268986 C 528.9073684015601 359.9895712268986 531.1459446524061 362.22814747774464 531.1459446524061 364.9895712268986 Z" stroke-opacity="1" stroke-linecap="round" stroke-linejoin="round" stroke-miterlimit="10"/><text fill="rgb(46,125,50)" stroke="none" font-family="geogebra-sans-serif, sans-serif" font-size="24px" font-style="normal" font-weight="normal" text-decoration="normal" x="519" y="341" text-anchor="start" dominant-baseline="alphabetic" fill-opacity="1">E</text><text fill="none" stroke="rgb(255,255,255)" font-family="geogebra-sans-serif, sans-serif" font-size="24px" font-style="normal" font-weight="normal" text-decoration="normal" x="519" y="341" text-anchor="start" dominant-baseline="alphabetic" stroke-opacity="1" stroke-linejoin="bevel" stroke-miterlimit="10" stroke-width="3">E</text><text fill="rgb(46,125,50)" stroke="none" font-family="geogebra-sans-serif, sans-serif" font-size="24px" font-style="normal" font-weight="normal" text-decoration="normal" x="519" y="341" text-anchor="start" dominant-baseline="alphabetic" fill-opacity="1">E</text><path fill="rgb(46,125,50)" stroke="none" paint-order="stroke fill markers" d=" M 842.1399970886284 578.0749999999997 C 842.1399970886284 580.8364237491537 839.9014208377824 583.0749999999997 837.1399970886284 583.0749999999997 C 834.3785733394744 583.0749999999997 832.1399970886284 580.8364237491537 832.1399970886284 578.0749999999997 C 832.1399970886284 575.3135762508457 834.3785733394744 573.0749999999997 837.1399970886284 573.0749999999997 C 839.9014208377824 573.0749999999997 842.1399970886284 575.3135762508457 842.1399970886284 578.0749999999997 Z" fill-opacity="1"/><path fill="none" stroke="rgb(0,0,0)" paint-order="fill stroke markers" d=" M 842.1399970886284 578.0749999999997 C 842.1399970886284 580.8364237491537 839.9014208377824 583.0749999999997 837.1399970886284 583.0749999999997 C 834.3785733394744 583.0749999999997 832.1399970886284 580.8364237491537 832.1399970886284 578.0749999999997 C 832.1399970886284 575.3135762508457 834.3785733394744 573.0749999999997 837.1399970886284 573.0749999999997 C 839.9014208377824 573.0749999999997 842.1399970886284 575.3135762508457 842.1399970886284 578.0749999999997 Z" stroke-opacity="1" stroke-linecap="round" stroke-linejoin="round" stroke-miterlimit="10"/><text fill="rgb(46,125,50)" stroke="none" font-family="geogebra-sans-serif, sans-serif" font-size="24px" font-style="normal" font-weight="normal" text-decoration="normal" x="849" y="604" text-anchor="start" dominant-baseline="alphabetic" fill-opacity="1">F</text><text fill="none" stroke="rgb(255,255,255)" font-family="geogebra-sans-serif, sans-serif" font-size="24px" font-style="normal" font-weight="normal" text-decoration="normal" x="849" y="604" text-anchor="start" dominant-baseline="alphabetic" stroke-opacity="1" stroke-linejoin="bevel" stroke-miterlimit="10" stroke-width="3">F</text><text fill="rgb(46,125,50)" stroke="none" font-family="geogebra-sans-serif, sans-serif" font-size="24px" font-style="normal" font-weight="normal" text-decoration="normal" x="849" y="604" text-anchor="start" dominant-baseline="alphabetic" fill-opacity="1">F</text></g></g></svg>