<svg version="1.1" xmlns="http://www.w3.org/2000/svg" xmlns:xlink="http://www.w3.org/1999/xlink" width="1310" height="704"><defs><clipPath id="pSdDlCRhOufw"><path fill="none" stroke="none" d=" M 0 0 L 1310 0 L 1310 704 L 0 704 L 0 0 Z"/></clipPath></defs><g transform="scale(1,1)" clip-path="url(#pSdDlCRhOufw)"><g><rect fill="rgb(255,255,255)" stroke="none" x="0" y="0" width="1310" height="704" fill-opacity="1"/><path fill="none" stroke="rgb(0,0,0)" paint-order="fill stroke markers" d=" M 897.6045454545438 336.0749999999994 C 897.6045454545438 469.72790945905155 789.2574549135957 578.0749999999997 655.6045454545437 578.0749999999997 C 521.9516359954916 578.0749999999997 413.60454545454354 469.72790945905155 413.60454545454354 336.0749999999994 C 413.60454545454354 202.4220905409473 521.9516359954916 94.07499999999914 655.6045454545437 94.07499999999914 C 789.2574549135957 94.07499999999914 897.6045454545438 202.4220905409473 897.6045454545438 336.0749999999994 Z" stroke-opacity="0.6980392156862745" stroke-linecap="round" stroke-linejoin="round" stroke-miterlimit="10" stroke-width="2.5"/><path fill="none" stroke="rgb(0,0,0)" paint-order="fill stroke markers" d=" M 966.9291967653508 377.06112651544515 C 966.9291967653508 498.87135293521806 868.1824976913587 597.6180520092103 746.3722712715858 597.6180520092103 C 624.562044851813 597.6180520092103 525.8153457778209 498.87135293521806 525.8153457778209 377.06112651544515 C 525.8153457778209 255.2509000956722 624.562044851813 156.50420102168007 746.3722712715858 156.50420102168007 C 868.1824976913587 156.50420102168007 966.9291967653508 255.2509000956722 966.9291967653508 377.06112651544515 Z" stroke-opacity="0.6980392156862745" stroke-linecap="round" stroke-linejoin="round" stroke-miterlimit="10"/><path fill="rgb(0,0,0)" stroke="none" paint-order="stroke fill markers" fill-rule="evenodd" d=" M 837.139997088628 578.0749999999997 L 858.353200524223 578.0749999999997 L 858.3532005242243 556.8617965644032 L 837.139997088628 556.8617965644047 L 837.139997088628 578.0749999999997" fill-opacity="0.09803921568627451"/><path fill="none" stroke="rgb(0,0,0)" paint-order="fill stroke markers" d=" M 837.139997088628 578.0749999999997 L 858.353200524223 578.0749999999997 L 858.3532005242243 556.8617965644032 L 837.139997088628 556.8617965644047 L 837.139997088628 578.0749999999997" stroke-opacity="0.6" stroke-linecap="round" stroke-linejoin="round" stroke-miterlimit="10" stroke-width="2.5"/><path fill="rgb(0,0,0)" stroke="none" paint-order="stroke fill markers" fill-rule="evenodd" d=" M 526.1459446524059 364.9895712268986 L 508.0163836630927 376.00406251495696 L 519.0308749511506 394.1336235042721 L 537.1604359404643 383.11913221621177 L 526.1459446524059 364.9895712268986" fill-opacity="0.09803921568627451"/><path fill="none" stroke="rgb(0,0,0)" paint-order="fill stroke markers" d=" M 526.1459446524059 364.9895712268986 L 508.0163836630927 376.00406251495696 L 519.0308749511506 394.1336235042721 L 537.1604359404643 383.11913221621177 L 526.1459446524059 364.9895712268986" stroke-opacity="0.6" stroke-linecap="round" stroke-linejoin="round" stroke-miterlimit="10" stroke-width="2.5"/><path fill="rgb(211,47,47)" stroke="none" paint-order="stroke fill markers" d=" M 811.5009260576694 191.6240959931041 C 814.6436271603278 196.7968987873285 819.2775041756266 200.89812436172252 824.7938339907557 203.38902065408462 L 837.139997088628 176.0472530308906 Z" fill-opacity="0.2980392156862745"/><path fill="none" stroke="rgb(211,47,47)" paint-order="fill stroke markers" d=" M 811.5009260576694 191.6240959931041 C 814.6436271603278 196.7968987873285 819.2775041756266 200.89812436172252 824.7938339907557 203.38902065408462 L 837.139997088628 176.0472530308906 Z" stroke-opacity="0.6" stroke-linecap="round" stroke-linejoin="round" stroke-miterlimit="10" stroke-width="4"/><path fill="rgb(211,47,47)" stroke="none" paint-order="stroke fill markers" d=" M 630.8564596811447 561.1182240519463 C 627.4353506285111 566.1112663929018 625.6045454545437 572.0223593392149 625.6045454545437 578.0749999999997 L 655.6045454545437 578.0749999999997 Z" fill-opacity="0.2980392156862745"/><path fill="none" stroke="rgb(211,47,47)" paint-order="fill stroke markers" d=" M 630.8564596811447 561.1182240519463 C 627.4353506285111 566.1112663929018 625.6045454545437 572.0223593392149 625.6045454545437 578.0749999999997 L 655.6045454545437 578.0749999999997 Z" stroke-opacity="0.6" stroke-linecap="round" stroke-linejoin="round" stroke-miterlimit="10" stroke-width="4"/><path fill="none" stroke="rgb(0,0,0)" paint-order="fill stroke markers" d=" M -5 578.0749999999997 L 1315 578.0749999999997" stroke-opacity="0.6980392156862745" stroke-linecap="round" stroke-linejoin="round" stroke-miterlimit="10" stroke-width="2.5"/><path fill="none" stroke="rgb(0,0,0)" paint-order="fill stroke markers" d=" M 735.147137398116 709 L 301.3613008679611 -5" stroke-opacity="0.6980392156862745" stroke-linecap="round" stroke-linejoin="round" stroke-miterlimit="10" stroke-width="2.5"/><path fill="none" stroke="rgb(0,0,0)" paint-order="fill stroke markers" d=" M 837.139997088628 709 L 837.139997088628 -5" stroke-opacity="0.6980392156862745" stroke-linecap="round" stroke-linejoin="round" stroke-miterlimit="10" stroke-width="2.5"/><path fill="none" stroke="rgb(0,0,0)" paint-order="fill stroke markers" d=" M 234.2731525811356 709 L 723.4882837135711 -5" stroke-opacity="0.6980392156862745" stroke-linejoin="round" stroke-miterlimit="10" stroke-width="0.5" stroke-dasharray="8.5,8"/><path fill="none" stroke="rgb(0,0,0)" paint-order="fill stroke markers" d=" M 565.8979753655881 709 L 1055.1131064980236 -5" stroke-opacity="0.6980392156862745" stroke-linejoin="round" stroke-miterlimit="10" stroke-width="0.5" stroke-dasharray="8.5,8"/><path fill="none" stroke="rgb(0,0,0)" paint-order="fill stroke markers" d=" M 429.9273133748495 423.4465452584411 L 655.6045454545437 578.0749999999997" stroke-opacity="0.6980392156862745" stroke-linecap="round" stroke-linejoin="round" stroke-miterlimit="10" stroke-width="2.5"/><path fill="none" stroke="rgb(0,0,0)" paint-order="fill stroke markers" d=" M 655.6045454545437 578.0749999999997 L 837.139997088628 176.0472530308906" stroke-opacity="0.6980392156862745" stroke-linecap="round" stroke-linejoin="round" stroke-miterlimit="10" stroke-width="2.5"/><path fill="none" stroke="rgb(0,0,0)" paint-order="fill stroke markers" d=" M 837.139997088628 176.0472530308906 L 429.9273133748495 423.4465452584411" stroke-opacity="0.6980392156862745" stroke-linecap="round" stroke-linejoin="round" stroke-miterlimit="10" stroke-width="2.5"/><path fill="none" stroke="rgb(0,0,0)" paint-order="fill stroke markers" d=" M 526.1459446524059 364.9895712268986 L 837.139997088628 578.0749999999997" stroke-opacity="0.6980392156862745" stroke-linecap="round" stroke-linejoin="round" stroke-miterlimit="10" stroke-width="2.5"/><path fill="rgb(21,101,192)" stroke="none" paint-order="stroke fill markers" d=" M 660.6045454545437 336.0749999999994 C 660.6045454545437 338.83642374915337 658.3659692036977 341.0749999999994 655.6045454545437 341.0749999999994 C 652.8431217053896 341.0749999999994 650.6045454545437 338.83642374915337 650.6045454545437 336.0749999999994 C 650.6045454545437 333.3135762508455 652.8431217053896 331.0749999999994 655.6045454545437 331.0749999999994 C 658.3659692036977 331.0749999999994 660.6045454545437 333.3135762508455 660.6045454545437 336.0749999999994 Z" fill-opacity="1"/><path fill="none" stroke="rgb(0,0,0)" paint-order="fill stroke markers" d=" M 660.6045454545437 336.0749999999994 C 660.6045454545437 338.83642374915337 658.3659692036977 341.0749999999994 655.6045454545437 341.0749999999994 C 652.8431217053896 341.0749999999994 650.6045454545437 338.83642374915337 650.6045454545437 336.0749999999994 C 650.6045454545437 333.3135762508455 652.8431217053896 331.0749999999994 655.6045454545437 331.0749999999994 C 658.3659692036977 331.0749999999994 660.6045454545437 333.3135762508455 660.6045454545437 336.0749999999994 Z" stroke-opacity="1" stroke-linecap="round" stroke-linejoin="round" stroke-miterlimit="10"/><path fill="rgb(21,101,192)" stroke="none" paint-order="stroke fill markers" d=" M 660.6045454545437 578.0749999999997 C 660.6045454545437 580.8364237491537 658.3659692036977 583.0749999999997 655.6045454545437 583.0749999999997 C 652.8431217053896 583.0749999999997 650.6045454545437 580.8364237491537 650.6045454545437 578.0749999999997 C 650.6045454545437 575.3135762508457 652.8431217053896 573.0749999999997 655.6045454545437 573.0749999999997 C 658.3659692036977 573.0749999999997 660.6045454545437 575.3135762508457 660.6045454545437 578.0749999999997 Z" fill-opacity="1"/><path fill="none" stroke="rgb(0,0,0)" paint-order="fill stroke markers" d=" M 660.6045454545437 578.0749999999997 C 660.6045454545437 580.8364237491537 658.3659692036977 583.0749999999997 655.6045454545437 583.0749999999997 C 652.8431217053896 583.0749999999997 650.6045454545437 580.8364237491537 650.6045454545437 578.0749999999997 C 650.6045454545437 575.3135762508457 652.8431217053896 573.0749999999997 655.6045454545437 573.0749999999997 C 658.3659692036977 573.0749999999997 660.6045454545437 575.3135762508457 660.6045454545437 578.0749999999997 Z" stroke-opacity="1" stroke-linecap="round" stroke-linejoin="round" stroke-miterlimit="10"/><text fill="rgb(21,101,192)" stroke="none" font-family="geogebra-sans-serif, sans-serif" font-size="24px" font-style="normal" font-weight="normal" text-decoration="normal" x="642" y="615" text-anchor="start" dominant-baseline="alphabetic" fill-opacity="1">B</text><text fill="none" stroke="rgb(255,255,255)" font-family="geogebra-sans-serif, sans-serif" font-size="24px" font-style="normal" font-weight="normal" text-decoration="normal" x="642" y="615" text-anchor="start" dominant-baseline="alphabetic" stroke-opacity="1" stroke-linejoin="bevel" stroke-miterlimit="10" stroke-width="3">B</text><text fill="rgb(21,101,192)" stroke="none" font-family="geogebra-sans-serif, sans-serif" font-size="24px" font-style="normal" font-weight="normal" text-decoration="normal" x="642" y="615" text-anchor="start" dominant-baseline="alphabetic" fill-opacity="1">B</text><path fill="rgb(21,101,192)" stroke="none" paint-order="stroke fill markers" d=" M 434.9273133748495 423.4465452584411 C 434.9273133748495 426.20796900759507 432.68873712400347 428.4465452584411 429.9273133748495 428.4465452584411 C 427.16588962569557 428.4465452584411 424.9273133748495 426.20796900759507 424.9273133748495 423.4465452584411 C 424.9273133748495 420.68512150928717 427.16588962569557 418.4465452584411 429.9273133748495 418.4465452584411 C 432.68873712400347 418.4465452584411 434.9273133748495 420.68512150928717 434.9273133748495 423.4465452584411 Z" fill-opacity="1"/><path fill="none" stroke="rgb(0,0,0)" paint-order="fill stroke markers" d=" M 434.9273133748495 423.4465452584411 C 434.9273133748495 426.20796900759507 432.68873712400347 428.4465452584411 429.9273133748495 428.4465452584411 C 427.16588962569557 428.4465452584411 424.9273133748495 426.20796900759507 424.9273133748495 423.4465452584411 C 424.9273133748495 420.68512150928717 427.16588962569557 418.4465452584411 429.9273133748495 418.4465452584411 C 432.68873712400347 418.4465452584411 434.9273133748495 420.68512150928717 434.9273133748495 423.4465452584411 Z" stroke-opacity="1" stroke-linecap="round" stroke-linejoin="round" stroke-miterlimit="10"/><text fill="rgb(21,101,192)" stroke="none" font-family="geogebra-sans-serif, sans-serif" font-size="24px" font-style="normal" font-weight="normal" text-decoration="normal" x="394" y="440" text-anchor="start" dominant-baseline="alphabetic" fill-opacity="1">A</text><text fill="none" stroke="rgb(255,255,255)" font-family="geogebra-sans-serif, sans-serif" font-size="24px" font-style="normal" font-weight="normal" text-decoration="normal" x="394" y="440" text-anchor="start" dominant-baseline="alphabetic" stroke-opacity="1" stroke-linejoin="bevel" stroke-miterlimit="10" stroke-width="3">A</text><text fill="rgb(21,101,192)" stroke="none" font-family="geogebra-sans-serif, sans-serif" font-size="24px" font-style="normal" font-weight="normal" text-decoration="normal" x="394" y="440" text-anchor="start" dominant-baseline="alphabetic" fill-opacity="1">A</text><path fill="rgb(21,101,192)" stroke="none" paint-order="stroke fill markers" d=" M 842.139997088628 176.0472530308906 C 842.139997088628 178.80867678004458 839.901420837782 181.0472530308906 837.139997088628 181.0472530308906 C 834.378573339474 181.0472530308906 832.139997088628 178.80867678004458 832.139997088628 176.0472530308906 C 832.139997088628 173.28582928173662 834.378573339474 171.0472530308906 837.139997088628 171.0472530308906 C 839.901420837782 171.0472530308906 842.139997088628 173.28582928173662 842.139997088628 176.0472530308906 Z" fill-opacity="1"/><path fill="none" stroke="rgb(0,0,0)" paint-order="fill stroke markers" d=" M 842.139997088628 176.0472530308906 C 842.139997088628 178.80867678004458 839.901420837782 181.0472530308906 837.139997088628 181.0472530308906 C 834.378573339474 181.0472530308906 832.139997088628 178.80867678004458 832.139997088628 176.0472530308906 C 832.139997088628 173.28582928173662 834.378573339474 171.0472530308906 837.139997088628 171.0472530308906 C 839.901420837782 171.0472530308906 842.139997088628 173.28582928173662 842.139997088628 176.0472530308906 Z" stroke-opacity="1" stroke-linecap="round" stroke-linejoin="round" stroke-miterlimit="10"/><text fill="rgb(21,101,192)" stroke="none" font-family="geogebra-sans-serif, sans-serif" font-size="24px" font-style="normal" font-weight="normal" text-decoration="normal" x="841" y="166" text-anchor="start" dominant-baseline="alphabetic" fill-opacity="1">C</text><text fill="none" stroke="rgb(255,255,255)" font-family="geogebra-sans-serif, sans-serif" font-size="24px" font-style="normal" font-weight="normal" text-decoration="normal" x="841" y="166" text-anchor="start" dominant-baseline="alphabetic" stroke-opacity="1" stroke-linejoin="bevel" stroke-miterlimit="10" stroke-width="3">C</text><text fill="rgb(21,101,192)" stroke="none" font-family="geogebra-sans-serif, sans-serif" font-size="24px" font-style="normal" font-weight="normal" text-decoration="normal" x="841" y="166" text-anchor="start" dominant-baseline="alphabetic" fill-opacity="1">C</text><path fill="rgb(46,125,50)" stroke="none" paint-order="stroke fill markers" d=" M 531.1459446524059 364.9895712268986 C 531.1459446524059 367.75099497605254 528.9073684015599 369.9895712268986 526.1459446524059 369.9895712268986 C 523.3845209032519 369.9895712268986 521.1459446524059 367.75099497605254 521.1459446524059 364.9895712268986 C 521.1459446524059 362.22814747774464 523.3845209032519 359.9895712268986 526.1459446524059 359.9895712268986 C 528.9073684015599 359.9895712268986 531.1459446524059 362.22814747774464 531.1459446524059 364.9895712268986 Z" fill-opacity="1"/><path fill="none" stroke="rgb(0,0,0)" paint-order="fill stroke markers" d=" M 531.1459446524059 364.9895712268986 C 531.1459446524059 367.75099497605254 528.9073684015599 369.9895712268986 526.1459446524059 369.9895712268986 C 523.3845209032519 369.9895712268986 521.1459446524059 367.75099497605254 521.1459446524059 364.9895712268986 C 521.1459446524059 362.22814747774464 523.3845209032519 359.9895712268986 526.1459446524059 359.9895712268986 C 528.9073684015599 359.9895712268986 531.1459446524059 362.22814747774464 531.1459446524059 364.9895712268986 Z" stroke-opacity="1" stroke-linecap="round" stroke-linejoin="round" stroke-miterlimit="10"/><text fill="rgb(46,125,50)" stroke="none" font-family="geogebra-sans-serif, sans-serif" font-size="24px" font-style="normal" font-weight="normal" text-decoration="normal" x="519" y="341" text-anchor="start" dominant-baseline="alphabetic" fill-opacity="1">E</text><text fill="none" stroke="rgb(255,255,255)" font-family="geogebra-sans-serif, sans-serif" font-size="24px" font-style="normal" font-weight="normal" text-decoration="normal" x="519" y="341" text-anchor="start" dominant-baseline="alphabetic" stroke-opacity="1" stroke-linejoin="bevel" stroke-miterlimit="10" stroke-width="3">E</text><text fill="rgb(46,125,50)" stroke="none" font-family="geogebra-sans-serif, sans-serif" font-size="24px" font-style="normal" font-weight="normal" text-decoration="normal" x="519" y="341" text-anchor="start" dominant-baseline="alphabetic" fill-opacity="1">E</text><path fill="rgb(46,125,50)" stroke="none" paint-order="stroke fill markers" d=" M 842.139997088628 578.0749999999997 C 842.139997088628 580.8364237491537 839.901420837782 583.0749999999997 837.139997088628 583.0749999999997 C 834.378573339474 583.0749999999997 832.139997088628 580.8364237491537 832.139997088628 578.0749999999997 C 832.139997088628 575.3135762508457 834.378573339474 573.0749999999997 837.139997088628 573.0749999999997 C 839.901420837782 573.0749999999997 842.139997088628 575.3135762508457 842.139997088628 578.0749999999997 Z" fill-opacity="1"/><path fill="none" stroke="rgb(0,0,0)" paint-order="fill stroke markers" d=" M 842.139997088628 578.0749999999997 C 842.139997088628 580.8364237491537 839.901420837782 583.0749999999997 837.139997088628 583.0749999999997 C 834.378573339474 583.0749999999997 832.139997088628 580.8364237491537 832.139997088628 578.0749999999997 C 832.139997088628 575.3135762508457 834.378573339474 573.0749999999997 837.139997088628 573.0749999999997 C 839.901420837782 573.0749999999997 842.139997088628 575.3135762508457 842.139997088628 578.0749999999997 Z" stroke-opacity="1" stroke-linecap="round" stroke-linejoin="round" stroke-miterlimit="10"/><text fill="rgb(46,125,50)" stroke="none" font-family="geogebra-sans-serif, sans-serif" font-size="24px" font-style="normal" font-weight="normal" text-decoration="normal" x="849" y="604" text-anchor="start" dominant-baseline="alphabetic" fill-opacity="1">F</text><text fill="none" stroke="rgb(255,255,255)" font-family="geogebra-sans-serif, sans-serif" font-size="24px" font-style="normal" font-weight="normal" text-decoration="normal" x="849" y="604" text-anchor="start" dominant-baseline="alphabetic" stroke-opacity="1" stroke-linejoin="bevel" stroke-miterlimit="10" stroke-width="3">F</text><text fill="rgb(46,125,50)" stroke="none" font-family="geogebra-sans-serif, sans-serif" font-size="24px" font-style="normal" font-weight="normal" text-decoration="normal" x="849" y="604" text-anchor="start" dominant-baseline="alphabetic" fill-opacity="1">F</text></g></g></svg>