<svg version="1.1" xmlns="http://www.w3.org/2000/svg" xmlns:xlink="http://www.w3.org/1999/xlink" width="1310" height="605"><defs><clipPath id="FKyaIlyPdEsJ"><path fill="none" stroke="none" d=" M 0 0 L 1310 0 L 1310 605 L 0 605 L 0 0 Z"/></clipPath></defs><g transform="scale(1,1)" clip-path="url(#FKyaIlyPdEsJ)"><g><rect fill="rgb(255,255,255)" stroke="none" x="0" y="0" width="1310" height="605" fill-opacity="1"/><path fill="none" stroke="rgb(0,0,0)" paint-order="fill stroke markers" d=" M 885.8592605210742 303.50000000000017 C 885.8592605210742 426.58177094435723 786.0817709443571 526.3592605210745 663.0000000000001 526.3592605210745 C 539.9182290556432 526.3592605210745 440.1407394789261 426.58177094435723 440.1407394789261 303.50000000000017 C 440.1407394789261 180.41822905564308 539.9182290556432 80.64073947892592 663.0000000000001 80.64073947892592 C 786.0817709443571 80.64073947892592 885.8592605210742 180.41822905564308 885.8592605210742 303.50000000000017 Z" stroke-opacity="0.6980392156862745" stroke-linecap="round" stroke-linejoin="round" stroke-miterlimit="10" stroke-width="2.5"/><path fill="none" stroke="rgb(0,0,0)" paint-order="fill stroke markers" d=" M -5 303.50000000000017 L 1315 303.50000000000017" stroke-opacity="0.6980392156862745" stroke-linecap="round" stroke-linejoin="round" stroke-miterlimit="10" stroke-width="2.5"/><path fill="none" stroke="rgb(0,0,0)" paint-order="fill stroke markers" d=" M 663.0000000000001 610 L 663.0000000000002 -5" stroke-opacity="0.6980392156862745" stroke-linecap="round" stroke-linejoin="round" stroke-miterlimit="10" stroke-width="2.5"/><path fill="none" stroke="rgb(0,0,0)" paint-order="fill stroke markers" d=" M 132.12642748013988 610 L 1197.3376741349987 -5" stroke-opacity="0.6980392156862745" stroke-linecap="round" stroke-linejoin="round" stroke-miterlimit="10" stroke-width="2.5"/><path fill="none" stroke="rgb(0,0,0)" paint-order="fill stroke markers" d=" M 128.6623258650016 -5 L 1193.8735725198608 610" stroke-opacity="0.6980392156862745" stroke-linecap="round" stroke-linejoin="round" stroke-miterlimit="10" stroke-width="2.5"/><path fill="none" stroke="rgb(0,0,0)" paint-order="fill stroke markers" d=" M 551.5703697394631 110.4982189201354 L 774.4296302605371 110.49821892013546" stroke-opacity="0.6980392156862745" stroke-linecap="round" stroke-linejoin="round" stroke-miterlimit="10" stroke-width="2.5"/><path fill="none" stroke="rgb(0,0,0)" paint-order="fill stroke markers" d=" M 774.4296302605371 110.49821892013546 L 885.8592605210741 303.50000000000017" stroke-opacity="0.6980392156862745" stroke-linecap="round" stroke-linejoin="round" stroke-miterlimit="10" stroke-width="2.5"/><path fill="none" stroke="rgb(0,0,0)" paint-order="fill stroke markers" d=" M 885.8592605210741 303.50000000000017 L 774.4296302605371 496.50178107986494" stroke-opacity="0.6980392156862745" stroke-linecap="round" stroke-linejoin="round" stroke-miterlimit="10" stroke-width="2.5"/><path fill="none" stroke="rgb(0,0,0)" paint-order="fill stroke markers" d=" M 774.4296302605371 496.50178107986494 L 551.5703697394631 496.5017810798649" stroke-opacity="0.6980392156862745" stroke-linecap="round" stroke-linejoin="round" stroke-miterlimit="10" stroke-width="2.5"/><path fill="none" stroke="rgb(0,0,0)" paint-order="fill stroke markers" d=" M 551.5703697394631 496.5017810798649 L 440.1407394789261 303.50000000000017" stroke-opacity="0.6980392156862745" stroke-linecap="round" stroke-linejoin="round" stroke-miterlimit="10" stroke-width="2.5"/><path fill="none" stroke="rgb(0,0,0)" paint-order="fill stroke markers" d=" M 440.1407394789261 303.50000000000017 L 551.5703697394631 110.4982189201354" stroke-opacity="0.6980392156862745" stroke-linecap="round" stroke-linejoin="round" stroke-miterlimit="10" stroke-width="2.5"/><path fill="none" stroke="rgb(0,0,0)" paint-order="fill stroke markers" d=" M 551.5703697394631 110.4982189201354 L 663.0000000000001 80.64073947892592" stroke-opacity="0.6980392156862745" stroke-linecap="round" stroke-linejoin="round" stroke-miterlimit="10" stroke-width="2.5"/><path fill="none" stroke="rgb(0,0,0)" paint-order="fill stroke markers" d=" M 663.0000000000001 80.64073947892592 L 774.4296302605371 110.49821892013546" stroke-opacity="0.6980392156862745" stroke-linecap="round" stroke-linejoin="round" stroke-miterlimit="10" stroke-width="2.5"/><path fill="none" stroke="rgb(0,0,0)" paint-order="fill stroke markers" d=" M 774.4296302605371 110.49821892013546 L 856.0017810798647 192.0703697394631" stroke-opacity="0.6980392156862745" stroke-linecap="round" stroke-linejoin="round" stroke-miterlimit="10" stroke-width="2.5"/><path fill="none" stroke="rgb(0,0,0)" paint-order="fill stroke markers" d=" M 856.0017810798647 192.0703697394631 L 885.8592605210741 303.50000000000017" stroke-opacity="0.6980392156862745" stroke-linecap="round" stroke-linejoin="round" stroke-miterlimit="10" stroke-width="2.5"/><path fill="none" stroke="rgb(0,0,0)" paint-order="fill stroke markers" d=" M 885.8592605210741 303.50000000000017 L 856.0017810798647 414.9296302605372" stroke-opacity="0.6980392156862745" stroke-linecap="round" stroke-linejoin="round" stroke-miterlimit="10" stroke-width="2.5"/><path fill="none" stroke="rgb(0,0,0)" paint-order="fill stroke markers" d=" M 856.0017810798647 414.9296302605372 L 774.4296302605371 496.50178107986494" stroke-opacity="0.6980392156862745" stroke-linecap="round" stroke-linejoin="round" stroke-miterlimit="10" stroke-width="2.5"/><path fill="none" stroke="rgb(0,0,0)" paint-order="fill stroke markers" d=" M 774.4296302605371 496.50178107986494 L 663 526.3592605210745" stroke-opacity="0.6980392156862745" stroke-linecap="round" stroke-linejoin="round" stroke-miterlimit="10" stroke-width="2.5"/><path fill="none" stroke="rgb(0,0,0)" paint-order="fill stroke markers" d=" M 663 526.3592605210745 L 551.5703697394631 496.5017810798649" stroke-opacity="0.6980392156862745" stroke-linecap="round" stroke-linejoin="round" stroke-miterlimit="10" stroke-width="2.5"/><path fill="none" stroke="rgb(0,0,0)" paint-order="fill stroke markers" d=" M 551.5703697394631 496.5017810798649 L 469.9982189201356 414.9296302605373" stroke-opacity="0.6980392156862745" stroke-linecap="round" stroke-linejoin="round" stroke-miterlimit="10" stroke-width="2.5"/><path fill="none" stroke="rgb(0,0,0)" paint-order="fill stroke markers" d=" M 469.9982189201356 414.9296302605373 L 440.1407394789261 303.50000000000017" stroke-opacity="0.6980392156862745" stroke-linecap="round" stroke-linejoin="round" stroke-miterlimit="10" stroke-width="2.5"/><path fill="none" stroke="rgb(0,0,0)" paint-order="fill stroke markers" d=" M 440.1407394789261 303.50000000000017 L 469.99821892013557 192.07036973946305" stroke-opacity="0.6980392156862745" stroke-linecap="round" stroke-linejoin="round" stroke-miterlimit="10" stroke-width="2.5"/><path fill="none" stroke="rgb(0,0,0)" paint-order="fill stroke markers" d=" M 469.99821892013557 192.07036973946305 L 551.5703697394631 110.4982189201354" stroke-opacity="0.6980392156862745" stroke-linecap="round" stroke-linejoin="round" stroke-miterlimit="10" stroke-width="2.5"/><path fill="none" stroke="rgb(0,0,0)" paint-order="fill stroke markers" d=" M 551.5703697394631 110.4982189201354 L 663.0000000000001 303.50000000000017" stroke-opacity="0.6980392156862745" stroke-linecap="round" stroke-linejoin="round" stroke-miterlimit="10" stroke-width="2.5"/><path fill="none" stroke="rgb(0,0,0)" paint-order="fill stroke markers" d=" M 663.0000000000001 303.50000000000017 L 551.5703697394631 496.5017810798649" stroke-opacity="0.6980392156862745" stroke-linecap="round" stroke-linejoin="round" stroke-miterlimit="10" stroke-width="2.5"/><path fill="none" stroke="rgb(0,0,0)" paint-order="fill stroke markers" d=" M 774.4296302605371 496.50178107986494 L 663.0000000000001 303.50000000000017" stroke-opacity="0.6980392156862745" stroke-linecap="round" stroke-linejoin="round" stroke-miterlimit="10" stroke-width="2.5"/><path fill="none" stroke="rgb(0,0,0)" paint-order="fill stroke markers" d=" M 774.4296302605371 110.49821892013546 L 663.0000000000001 303.50000000000017" stroke-opacity="0.6980392156862745" stroke-linecap="round" stroke-linejoin="round" stroke-miterlimit="10" stroke-width="2.5"/><path fill="rgb(211,47,47)" stroke="none" paint-order="stroke fill markers" d=" M 668.0000000000001 303.50000000000017 C 668.0000000000001 306.2614237491541 665.7614237491541 308.50000000000017 663.0000000000001 308.50000000000017 C 660.2385762508461 308.50000000000017 658.0000000000001 306.2614237491541 658.0000000000001 303.50000000000017 C 658.0000000000001 300.7385762508462 660.2385762508461 298.50000000000017 663.0000000000001 298.50000000000017 C 665.7614237491541 298.50000000000017 668.0000000000001 300.7385762508462 668.0000000000001 303.50000000000017 Z" fill-opacity="1"/><path fill="none" stroke="rgb(0,0,0)" paint-order="fill stroke markers" d=" M 668.0000000000001 303.50000000000017 C 668.0000000000001 306.2614237491541 665.7614237491541 308.50000000000017 663.0000000000001 308.50000000000017 C 660.2385762508461 308.50000000000017 658.0000000000001 306.2614237491541 658.0000000000001 303.50000000000017 C 658.0000000000001 300.7385762508462 660.2385762508461 298.50000000000017 663.0000000000001 298.50000000000017 C 665.7614237491541 298.50000000000017 668.0000000000001 300.7385762508462 668.0000000000001 303.50000000000017 Z" stroke-opacity="1" stroke-linecap="round" stroke-linejoin="round" stroke-miterlimit="10"/><text fill="rgb(211,47,47)" stroke="none" font-family="geogebra-sans-serif, sans-serif" font-size="24px" font-style="normal" font-weight="normal" text-decoration="normal" x="652" y="310" text-anchor="start" dominant-baseline="alphabetic" fill-opacity="1">O</text><text fill="none" stroke="rgb(255,255,255)" font-family="geogebra-sans-serif, sans-serif" font-size="24px" font-style="normal" font-weight="normal" text-decoration="normal" x="652" y="310" text-anchor="start" dominant-baseline="alphabetic" stroke-opacity="1" stroke-linejoin="bevel" stroke-miterlimit="10" stroke-width="3">O</text><text fill="rgb(211,47,47)" stroke="none" font-family="geogebra-sans-serif, sans-serif" font-size="24px" font-style="normal" font-weight="normal" text-decoration="normal" x="652" y="310" text-anchor="start" dominant-baseline="alphabetic" fill-opacity="1">O</text><path fill="rgb(21,101,192)" stroke="none" paint-order="stroke fill markers" d=" M 890.8592605210741 303.50000000000017 C 890.8592605210741 306.2614237491541 888.6206842702281 308.50000000000017 885.8592605210741 308.50000000000017 C 883.0978367719201 308.50000000000017 880.8592605210741 306.2614237491541 880.8592605210741 303.50000000000017 C 880.8592605210741 300.7385762508462 883.0978367719201 298.50000000000017 885.8592605210741 298.50000000000017 C 888.6206842702281 298.50000000000017 890.8592605210741 300.7385762508462 890.8592605210741 303.50000000000017 Z" fill-opacity="1"/><path fill="none" stroke="rgb(0,0,0)" paint-order="fill stroke markers" d=" M 890.8592605210741 303.50000000000017 C 890.8592605210741 306.2614237491541 888.6206842702281 308.50000000000017 885.8592605210741 308.50000000000017 C 883.0978367719201 308.50000000000017 880.8592605210741 306.2614237491541 880.8592605210741 303.50000000000017 C 880.8592605210741 300.7385762508462 883.0978367719201 298.50000000000017 885.8592605210741 298.50000000000017 C 888.6206842702281 298.50000000000017 890.8592605210741 300.7385762508462 890.8592605210741 303.50000000000017 Z" stroke-opacity="1" stroke-linecap="round" stroke-linejoin="round" stroke-miterlimit="10"/><text fill="rgb(21,101,192)" stroke="none" font-family="geogebra-sans-serif, sans-serif" font-size="24px" font-style="normal" font-weight="normal" text-decoration="normal" x="890" y="294" text-anchor="start" dominant-baseline="alphabetic" fill-opacity="1">B</text><text fill="none" stroke="rgb(255,255,255)" font-family="geogebra-sans-serif, sans-serif" font-size="24px" font-style="normal" font-weight="normal" text-decoration="normal" x="890" y="294" text-anchor="start" dominant-baseline="alphabetic" stroke-opacity="1" stroke-linejoin="bevel" stroke-miterlimit="10" stroke-width="3">B</text><text fill="rgb(21,101,192)" stroke="none" font-family="geogebra-sans-serif, sans-serif" font-size="24px" font-style="normal" font-weight="normal" text-decoration="normal" x="890" y="294" text-anchor="start" dominant-baseline="alphabetic" fill-opacity="1">B</text><path fill="rgb(21,101,192)" stroke="none" paint-order="stroke fill markers" d=" M 779.4296302605371 110.49821892013546 C 779.4296302605371 113.25964266928942 777.1910540096911 115.49821892013546 774.4296302605371 115.49821892013546 C 771.6682065113831 115.49821892013546 769.4296302605371 113.25964266928942 769.4296302605371 110.49821892013546 C 769.4296302605371 107.7367951709815 771.6682065113831 105.49821892013546 774.4296302605371 105.49821892013546 C 777.1910540096911 105.49821892013546 779.4296302605371 107.7367951709815 779.4296302605371 110.49821892013546 Z" fill-opacity="1"/><path fill="none" stroke="rgb(0,0,0)" paint-order="fill stroke markers" d=" M 779.4296302605371 110.49821892013546 C 779.4296302605371 113.25964266928942 777.1910540096911 115.49821892013546 774.4296302605371 115.49821892013546 C 771.6682065113831 115.49821892013546 769.4296302605371 113.25964266928942 769.4296302605371 110.49821892013546 C 769.4296302605371 107.7367951709815 771.6682065113831 105.49821892013546 774.4296302605371 105.49821892013546 C 777.1910540096911 105.49821892013546 779.4296302605371 107.7367951709815 779.4296302605371 110.49821892013546 Z" stroke-opacity="1" stroke-linecap="round" stroke-linejoin="round" stroke-miterlimit="10"/><path fill="rgb(21,101,192)" stroke="none" paint-order="stroke fill markers" d=" M 779.4296302605371 496.50178107986494 C 779.4296302605371 499.2632048290189 777.1910540096911 501.50178107986494 774.4296302605371 501.50178107986494 C 771.6682065113831 501.50178107986494 769.4296302605371 499.2632048290189 769.4296302605371 496.50178107986494 C 769.4296302605371 493.740357330711 771.6682065113831 491.50178107986494 774.4296302605371 491.50178107986494 C 777.1910540096911 491.50178107986494 779.4296302605371 493.740357330711 779.4296302605371 496.50178107986494 Z" fill-opacity="1"/><path fill="none" stroke="rgb(0,0,0)" paint-order="fill stroke markers" d=" M 779.4296302605371 496.50178107986494 C 779.4296302605371 499.2632048290189 777.1910540096911 501.50178107986494 774.4296302605371 501.50178107986494 C 771.6682065113831 501.50178107986494 769.4296302605371 499.2632048290189 769.4296302605371 496.50178107986494 C 769.4296302605371 493.740357330711 771.6682065113831 491.50178107986494 774.4296302605371 491.50178107986494 C 777.1910540096911 491.50178107986494 779.4296302605371 493.740357330711 779.4296302605371 496.50178107986494 Z" stroke-opacity="1" stroke-linecap="round" stroke-linejoin="round" stroke-miterlimit="10"/><path fill="rgb(21,101,192)" stroke="none" paint-order="stroke fill markers" d=" M 556.5703697394631 496.5017810798649 C 556.5703697394631 499.26320482901883 554.3317934886171 501.5017810798649 551.5703697394631 501.5017810798649 C 548.8089459903091 501.5017810798649 546.5703697394631 499.26320482901883 546.5703697394631 496.5017810798649 C 546.5703697394631 493.74035733071094 548.8089459903091 491.5017810798649 551.5703697394631 491.5017810798649 C 554.3317934886171 491.5017810798649 556.5703697394631 493.74035733071094 556.5703697394631 496.5017810798649 Z" fill-opacity="1"/><path fill="none" stroke="rgb(0,0,0)" paint-order="fill stroke markers" d=" M 556.5703697394631 496.5017810798649 C 556.5703697394631 499.26320482901883 554.3317934886171 501.5017810798649 551.5703697394631 501.5017810798649 C 548.8089459903091 501.5017810798649 546.5703697394631 499.26320482901883 546.5703697394631 496.5017810798649 C 546.5703697394631 493.74035733071094 548.8089459903091 491.5017810798649 551.5703697394631 491.5017810798649 C 554.3317934886171 491.5017810798649 556.5703697394631 493.74035733071094 556.5703697394631 496.5017810798649 Z" stroke-opacity="1" stroke-linecap="round" stroke-linejoin="round" stroke-miterlimit="10"/><path fill="rgb(21,101,192)" stroke="none" paint-order="stroke fill markers" d=" M 445.1407394789261 303.50000000000017 C 445.1407394789261 306.2614237491541 442.90216322808004 308.50000000000017 440.1407394789261 308.50000000000017 C 437.37931572977215 308.50000000000017 435.1407394789261 306.2614237491541 435.1407394789261 303.50000000000017 C 435.1407394789261 300.7385762508462 437.37931572977215 298.50000000000017 440.1407394789261 298.50000000000017 C 442.90216322808004 298.50000000000017 445.1407394789261 300.7385762508462 445.1407394789261 303.50000000000017 Z" fill-opacity="1"/><path fill="none" stroke="rgb(0,0,0)" paint-order="fill stroke markers" d=" M 445.1407394789261 303.50000000000017 C 445.1407394789261 306.2614237491541 442.90216322808004 308.50000000000017 440.1407394789261 308.50000000000017 C 437.37931572977215 308.50000000000017 435.1407394789261 306.2614237491541 435.1407394789261 303.50000000000017 C 435.1407394789261 300.7385762508462 437.37931572977215 298.50000000000017 440.1407394789261 298.50000000000017 C 442.90216322808004 298.50000000000017 445.1407394789261 300.7385762508462 445.1407394789261 303.50000000000017 Z" stroke-opacity="1" stroke-linecap="round" stroke-linejoin="round" stroke-miterlimit="10"/><path fill="rgb(21,101,192)" stroke="none" paint-order="stroke fill markers" d=" M 556.5703697394631 110.4982189201354 C 556.5703697394631 113.25964266928936 554.3317934886171 115.4982189201354 551.5703697394631 115.4982189201354 C 548.8089459903091 115.4982189201354 546.5703697394631 113.25964266928936 546.5703697394631 110.4982189201354 C 546.5703697394631 107.73679517098144 548.8089459903091 105.4982189201354 551.5703697394631 105.4982189201354 C 554.3317934886171 105.4982189201354 556.5703697394631 107.73679517098144 556.5703697394631 110.4982189201354 Z" fill-opacity="1"/><path fill="none" stroke="rgb(0,0,0)" paint-order="fill stroke markers" d=" M 556.5703697394631 110.4982189201354 C 556.5703697394631 113.25964266928936 554.3317934886171 115.4982189201354 551.5703697394631 115.4982189201354 C 548.8089459903091 115.4982189201354 546.5703697394631 113.25964266928936 546.5703697394631 110.4982189201354 C 546.5703697394631 107.73679517098144 548.8089459903091 105.4982189201354 551.5703697394631 105.4982189201354 C 554.3317934886171 105.4982189201354 556.5703697394631 107.73679517098144 556.5703697394631 110.4982189201354 Z" stroke-opacity="1" stroke-linecap="round" stroke-linejoin="round" stroke-miterlimit="10"/><path fill="rgb(46,125,50)" stroke="none" paint-order="stroke fill markers" d=" M 474.99821892013557 192.07036973946305 C 474.99821892013557 194.83179348861702 472.7596426692895 197.07036973946305 469.99821892013557 197.07036973946305 C 467.2367951709816 197.07036973946305 464.99821892013557 194.83179348861702 464.99821892013557 192.07036973946305 C 464.99821892013557 189.30894599030907 467.2367951709816 187.07036973946305 469.99821892013557 187.07036973946305 C 472.7596426692895 187.07036973946305 474.99821892013557 189.30894599030907 474.99821892013557 192.07036973946305 Z" fill-opacity="1"/><path fill="none" stroke="rgb(0,0,0)" paint-order="fill stroke markers" d=" M 474.99821892013557 192.07036973946305 C 474.99821892013557 194.83179348861702 472.7596426692895 197.07036973946305 469.99821892013557 197.07036973946305 C 467.2367951709816 197.07036973946305 464.99821892013557 194.83179348861702 464.99821892013557 192.07036973946305 C 464.99821892013557 189.30894599030907 467.2367951709816 187.07036973946305 469.99821892013557 187.07036973946305 C 472.7596426692895 187.07036973946305 474.99821892013557 189.30894599030907 474.99821892013557 192.07036973946305 Z" stroke-opacity="1" stroke-linecap="round" stroke-linejoin="round" stroke-miterlimit="10"/><path fill="rgb(46,125,50)" stroke="none" paint-order="stroke fill markers" d=" M 861.0017810798647 192.0703697394631 C 861.0017810798647 194.83179348861708 858.7632048290187 197.0703697394631 856.0017810798647 197.0703697394631 C 853.2403573307107 197.0703697394631 851.0017810798647 194.83179348861708 851.0017810798647 192.0703697394631 C 851.0017810798647 189.30894599030913 853.2403573307107 187.0703697394631 856.0017810798647 187.0703697394631 C 858.7632048290187 187.0703697394631 861.0017810798647 189.30894599030913 861.0017810798647 192.0703697394631 Z" fill-opacity="1"/><path fill="none" stroke="rgb(0,0,0)" paint-order="fill stroke markers" d=" M 861.0017810798647 192.0703697394631 C 861.0017810798647 194.83179348861708 858.7632048290187 197.0703697394631 856.0017810798647 197.0703697394631 C 853.2403573307107 197.0703697394631 851.0017810798647 194.83179348861708 851.0017810798647 192.0703697394631 C 851.0017810798647 189.30894599030913 853.2403573307107 187.0703697394631 856.0017810798647 187.0703697394631 C 858.7632048290187 187.0703697394631 861.0017810798647 189.30894599030913 861.0017810798647 192.0703697394631 Z" stroke-opacity="1" stroke-linecap="round" stroke-linejoin="round" stroke-miterlimit="10"/><path fill="rgb(46,125,50)" stroke="none" paint-order="stroke fill markers" d=" M 861.0017810798647 414.9296302605372 C 861.0017810798647 417.69105400969113 858.7632048290187 419.9296302605372 856.0017810798647 419.9296302605372 C 853.2403573307107 419.9296302605372 851.0017810798647 417.69105400969113 851.0017810798647 414.9296302605372 C 851.0017810798647 412.16820651138323 853.2403573307107 409.9296302605372 856.0017810798647 409.9296302605372 C 858.7632048290187 409.9296302605372 861.0017810798647 412.16820651138323 861.0017810798647 414.9296302605372 Z" fill-opacity="1"/><path fill="none" stroke="rgb(0,0,0)" paint-order="fill stroke markers" d=" M 861.0017810798647 414.9296302605372 C 861.0017810798647 417.69105400969113 858.7632048290187 419.9296302605372 856.0017810798647 419.9296302605372 C 853.2403573307107 419.9296302605372 851.0017810798647 417.69105400969113 851.0017810798647 414.9296302605372 C 851.0017810798647 412.16820651138323 853.2403573307107 409.9296302605372 856.0017810798647 409.9296302605372 C 858.7632048290187 409.9296302605372 861.0017810798647 412.16820651138323 861.0017810798647 414.9296302605372 Z" stroke-opacity="1" stroke-linecap="round" stroke-linejoin="round" stroke-miterlimit="10"/><path fill="rgb(46,125,50)" stroke="none" paint-order="stroke fill markers" d=" M 668 526.3592605210745 C 668 529.1206842702285 665.761423749154 531.3592605210745 663 531.3592605210745 C 660.238576250846 531.3592605210745 658 529.1206842702285 658 526.3592605210745 C 658 523.5978367719205 660.238576250846 521.3592605210745 663 521.3592605210745 C 665.761423749154 521.3592605210745 668 523.5978367719205 668 526.3592605210745 Z" fill-opacity="1"/><path fill="none" stroke="rgb(0,0,0)" paint-order="fill stroke markers" d=" M 668 526.3592605210745 C 668 529.1206842702285 665.761423749154 531.3592605210745 663 531.3592605210745 C 660.238576250846 531.3592605210745 658 529.1206842702285 658 526.3592605210745 C 658 523.5978367719205 660.238576250846 521.3592605210745 663 521.3592605210745 C 665.761423749154 521.3592605210745 668 523.5978367719205 668 526.3592605210745 Z" stroke-opacity="1" stroke-linecap="round" stroke-linejoin="round" stroke-miterlimit="10"/><path fill="rgb(46,125,50)" stroke="none" paint-order="stroke fill markers" d=" M 474.9982189201356 414.9296302605373 C 474.9982189201356 417.69105400969124 472.7596426692896 419.9296302605373 469.9982189201356 419.9296302605373 C 467.2367951709817 419.9296302605373 464.9982189201356 417.69105400969124 464.9982189201356 414.9296302605373 C 464.9982189201356 412.16820651138335 467.2367951709817 409.9296302605373 469.9982189201356 409.9296302605373 C 472.7596426692896 409.9296302605373 474.9982189201356 412.16820651138335 474.9982189201356 414.9296302605373 Z" fill-opacity="1"/><path fill="none" stroke="rgb(0,0,0)" paint-order="fill stroke markers" d=" M 474.9982189201356 414.9296302605373 C 474.9982189201356 417.69105400969124 472.7596426692896 419.9296302605373 469.9982189201356 419.9296302605373 C 467.2367951709817 419.9296302605373 464.9982189201356 417.69105400969124 464.9982189201356 414.9296302605373 C 464.9982189201356 412.16820651138335 467.2367951709817 409.9296302605373 469.9982189201356 409.9296302605373 C 472.7596426692896 409.9296302605373 474.9982189201356 412.16820651138335 474.9982189201356 414.9296302605373 Z" stroke-opacity="1" stroke-linecap="round" stroke-linejoin="round" stroke-miterlimit="10"/><path fill="rgb(46,125,50)" stroke="none" paint-order="stroke fill markers" d=" M 668.0000000000001 80.64073947892592 C 668.0000000000001 83.40216322807989 665.7614237491541 85.64073947892592 663.0000000000001 85.64073947892592 C 660.2385762508461 85.64073947892592 658.0000000000001 83.40216322807989 658.0000000000001 80.64073947892592 C 658.0000000000001 77.87931572977196 660.2385762508461 75.64073947892592 663.0000000000001 75.64073947892592 C 665.7614237491541 75.64073947892592 668.0000000000001 77.87931572977196 668.0000000000001 80.64073947892592 Z" fill-opacity="1"/><path fill="none" stroke="rgb(0,0,0)" paint-order="fill stroke markers" d=" M 668.0000000000001 80.64073947892592 C 668.0000000000001 83.40216322807989 665.7614237491541 85.64073947892592 663.0000000000001 85.64073947892592 C 660.2385762508461 85.64073947892592 658.0000000000001 83.40216322807989 658.0000000000001 80.64073947892592 C 658.0000000000001 77.87931572977196 660.2385762508461 75.64073947892592 663.0000000000001 75.64073947892592 C 665.7614237491541 75.64073947892592 668.0000000000001 77.87931572977196 668.0000000000001 80.64073947892592 Z" stroke-opacity="1" stroke-linecap="round" stroke-linejoin="round" stroke-miterlimit="10"/></g></g></svg>