<svg version="1.1" xmlns="http://www.w3.org/2000/svg" xmlns:xlink="http://www.w3.org/1999/xlink" width="1310" height="605"><defs><clipPath id="OJuIoVLiXRQg"><path fill="none" stroke="none" d=" M 0 0 L 1310 0 L 1310 605 L 0 605 L 0 0 Z"/></clipPath></defs><g transform="scale(1,1)" clip-path="url(#OJuIoVLiXRQg)"><g><rect fill="rgb(255,255,255)" stroke="none" x="0" y="0" width="1310" height="605" fill-opacity="1"/><path fill="none" stroke="rgb(0,0,0)" paint-order="fill stroke markers" d=" M -5 189.50000000000006 L 1315 189.50000000000006" stroke-opacity="0.6980392156862745" stroke-linecap="round" stroke-linejoin="round" stroke-miterlimit="10" stroke-width="2.5"/><path fill="none" stroke="rgb(0,0,0)" paint-order="fill stroke markers" d=" M 376.0000000000002 439.49999999999994 L 876 439.49999999999994" stroke-opacity="0.6980392156862745" stroke-linecap="round" stroke-linejoin="round" stroke-miterlimit="10" stroke-width="2.5"/><g transform="scale(27,27)"><g transform="translate(22.962962962962962,18.175926481481483)"><path fill="rgb(0,0,0)" stroke="none" paint-order="stroke fill markers" d=" M 0.23900000000000002 -0.683 L 0.165 -0.382 Q 0.223 -0.442 0.28200000000000003 -0.442 Q 0.357 -0.442 0.394 -0.373 Q 0.41500000000000004 -0.333 0.41500000000000004 -0.28200000000000003 Q 0.41500000000000004 -0.176 0.341 -0.084 Q 0.272 0.001 0.189 0.01 Q 0.181 0.011 0.17400000000000002 0.011 Q 0.10200000000000001 0.011 0.067 -0.056 Q 0.047 -0.094 0.047 -0.146 Q 0.047 -0.18 0.063 -0.247 L 0.145 -0.5730000000000001 Q 0.159 -0.632 0.159 -0.635 Q 0.159 -0.646 0.145 -0.649 L 0.145 -0.649 Q 0.133 -0.652 0.109 -0.652 Q 0.08700000000000001 -0.652 0.085 -0.664 Q 0.085 -0.681 0.10400000000000001 -0.684 L 0.226 -0.6940000000000001 Q 0.23900000000000002 -0.6940000000000001 0.23900000000000002 -0.683 M 0.145 -0.305 L 0.123 -0.213 Q 0.107 -0.15 0.107 -0.112 Q 0.107 -0.026000000000000002 0.159 -0.013000000000000001 Q 0.166 -0.011 0.17400000000000002 -0.011 Q 0.227 -0.011 0.273 -0.081 Q 0.28300000000000003 -0.096 0.292 -0.114 Q 0.319 -0.171 0.337 -0.268 Q 0.343 -0.303 0.343 -0.326 Q 0.343 -0.406 0.294 -0.418 L 0.293 -0.419 Q 0.28700000000000003 -0.42 0.28 -0.42 Q 0.22 -0.42 0.16 -0.34 Q 0.152 -0.33 0.145 -0.305 Z"/></g></g><path fill="none" stroke="rgb(0,0,0)" paint-order="fill stroke markers" d=" M 626.0000000000001 439.49999999999994 L 626.0000000000001 204.50000000000006" stroke-opacity="0.6980392156862745" stroke-linecap="round" stroke-linejoin="round" stroke-miterlimit="10" stroke-width="1.5"/><path fill="rgb(0,0,0)" stroke="none" paint-order="stroke fill markers" fill-rule="evenodd" d=" M 626.0000000000001 189.50000000000006 L 629.7500000000001 204.50000000000006 L 622.2500000000001 204.50000000000006 Z" fill-opacity="0.6980392156862745"/><path fill="none" stroke="rgb(0,0,0)" paint-order="fill stroke markers" d=" M 626.0000000000001 189.50000000000006 L 626.0000000000001 424.49999999999994" stroke-opacity="0.6980392156862745" stroke-linecap="round" stroke-linejoin="round" stroke-miterlimit="10" stroke-width="1.5"/><path fill="rgb(0,0,0)" stroke="none" paint-order="stroke fill markers" fill-rule="evenodd" d=" M 626.0000000000001 439.49999999999994 L 622.2500000000001 424.49999999999994 L 629.7500000000001 424.49999999999994 Z" fill-opacity="0.6980392156862745"/><g transform="scale(27,27)"><g transform="translate(23.962962962962962,12.101852407407407)"><path fill="rgb(0,0,0)" stroke="none" paint-order="stroke fill markers" d=" M 0.516 -0.683 L 0.372 -0.105 Q 0.366 -0.08 0.366 -0.057 Q 0.366 -0.011 0.396 -0.011 Q 0.434 -0.011 0.46 -0.091 Q 0.465 -0.108 0.47200000000000003 -0.135 Q 0.48 -0.152 0.486 -0.153 Q 0.498 -0.153 0.498 -0.14300000000000002 Q 0.498 -0.128 0.48 -0.073 Q 0.47400000000000003 -0.056 0.468 -0.044 Q 0.44 0.011 0.394 0.011 Q 0.338 0.011 0.313 -0.037 Q 0.306 -0.049 0.303 -0.064 Q 0.24 0.011 0.17300000000000001 0.011 Q 0.098 0.011 0.062 -0.057 Q 0.04 -0.097 0.04 -0.149 Q 0.04 -0.257 0.115 -0.34900000000000003 Q 0.185 -0.433 0.267 -0.441 Q 0.274 -0.442 0.281 -0.442 Q 0.342 -0.442 0.373 -0.378 L 0.433 -0.615 L 0.436 -0.635 Q 0.436 -0.646 0.422 -0.649 Q 0.41000000000000003 -0.652 0.386 -0.652 Q 0.364 -0.652 0.362 -0.664 Q 0.362 -0.681 0.376 -0.683 Q 0.47000000000000003 -0.6940000000000001 0.503 -0.6940000000000001 Q 0.516 -0.6940000000000001 0.516 -0.683 M 0.308 -0.11900000000000001 L 0.308 -0.11900000000000001 L 0.358 -0.315 Q 0.361 -0.33 0.361 -0.332 Q 0.361 -0.353 0.343 -0.383 Q 0.321 -0.42 0.28200000000000003 -0.42 Q 0.23 -0.42 0.183 -0.352 Q 0.17400000000000002 -0.339 0.166 -0.324 Q 0.137 -0.266 0.117 -0.159 Q 0.111 -0.125 0.111 -0.105 Q 0.111 -0.037 0.149 -0.017 Q 0.16 -0.011 0.17500000000000002 -0.011 Q 0.231 -0.011 0.28800000000000003 -0.082 Q 0.302 -0.098 0.307 -0.115 L 0.307 -0.116 Q 0.308 -0.11800000000000001 0.308 -0.11900000000000001 Z"/></g></g><path fill="rgb(21,101,192)" stroke="none" paint-order="stroke fill markers" d=" M 381.0000000000002 439.49999999999994 C 381.0000000000002 442.2614237491539 378.7614237491542 444.49999999999994 376.0000000000002 444.49999999999994 C 373.2385762508463 444.49999999999994 371.0000000000002 442.2614237491539 371.0000000000002 439.49999999999994 C 371.0000000000002 436.738576250846 373.2385762508463 434.49999999999994 376.0000000000002 434.49999999999994 C 378.7614237491542 434.49999999999994 381.0000000000002 436.738576250846 381.0000000000002 439.49999999999994 Z" fill-opacity="1"/><path fill="none" stroke="rgb(0,0,0)" paint-order="fill stroke markers" d=" M 381.0000000000002 439.49999999999994 C 381.0000000000002 442.2614237491539 378.7614237491542 444.49999999999994 376.0000000000002 444.49999999999994 C 373.2385762508463 444.49999999999994 371.0000000000002 442.2614237491539 371.0000000000002 439.49999999999994 C 371.0000000000002 436.738576250846 373.2385762508463 434.49999999999994 376.0000000000002 434.49999999999994 C 378.7614237491542 434.49999999999994 381.0000000000002 436.738576250846 381.0000000000002 439.49999999999994 Z" stroke-opacity="1" stroke-linecap="round" stroke-linejoin="round" stroke-miterlimit="10"/><path fill="rgb(21,101,192)" stroke="none" paint-order="stroke fill markers" d=" M 881 439.49999999999994 C 881 442.2614237491539 878.761423749154 444.49999999999994 876 444.49999999999994 C 873.238576250846 444.49999999999994 871 442.2614237491539 871 439.49999999999994 C 871 436.738576250846 873.238576250846 434.49999999999994 876 434.49999999999994 C 878.761423749154 434.49999999999994 881 436.738576250846 881 439.49999999999994 Z" fill-opacity="1"/><path fill="none" stroke="rgb(0,0,0)" paint-order="fill stroke markers" d=" M 881 439.49999999999994 C 881 442.2614237491539 878.761423749154 444.49999999999994 876 444.49999999999994 C 873.238576250846 444.49999999999994 871 442.2614237491539 871 439.49999999999994 C 871 436.738576250846 873.238576250846 434.49999999999994 876 434.49999999999994 C 878.761423749154 434.49999999999994 881 436.738576250846 881 439.49999999999994 Z" stroke-opacity="1" stroke-linecap="round" stroke-linejoin="round" stroke-miterlimit="10"/><path fill="rgb(21,101,192)" stroke="none" paint-order="stroke fill markers" d=" M 631.0000000000001 189.50000000000006 C 631.0000000000001 192.26142374915403 628.7614237491541 194.50000000000006 626.0000000000001 194.50000000000006 C 623.2385762508461 194.50000000000006 621.0000000000001 192.26142374915403 621.0000000000001 189.50000000000006 C 621.0000000000001 186.73857625084608 623.2385762508461 184.50000000000006 626.0000000000001 184.50000000000006 C 628.7614237491541 184.50000000000006 631.0000000000001 186.73857625084608 631.0000000000001 189.50000000000006 Z" fill-opacity="1"/><path fill="none" stroke="rgb(0,0,0)" paint-order="fill stroke markers" d=" M 631.0000000000001 189.50000000000006 C 631.0000000000001 192.26142374915403 628.7614237491541 194.50000000000006 626.0000000000001 194.50000000000006 C 623.2385762508461 194.50000000000006 621.0000000000001 192.26142374915403 621.0000000000001 189.50000000000006 C 621.0000000000001 186.73857625084608 623.2385762508461 184.50000000000006 626.0000000000001 184.50000000000006 C 628.7614237491541 184.50000000000006 631.0000000000001 186.73857625084608 631.0000000000001 189.50000000000006 Z" stroke-opacity="1" stroke-linecap="round" stroke-linejoin="round" stroke-miterlimit="10"/><path fill="rgb(21,101,192)" stroke="none" paint-order="stroke fill markers" d=" M 631.0000000000001 439.49999999999994 C 631.0000000000001 442.2614237491539 628.7614237491541 444.49999999999994 626.0000000000001 444.49999999999994 C 623.2385762508461 444.49999999999994 621.0000000000001 442.2614237491539 621.0000000000001 439.49999999999994 C 621.0000000000001 436.738576250846 623.2385762508461 434.49999999999994 626.0000000000001 434.49999999999994 C 628.7614237491541 434.49999999999994 631.0000000000001 436.738576250846 631.0000000000001 439.49999999999994 Z" fill-opacity="1"/><path fill="none" stroke="rgb(0,0,0)" paint-order="fill stroke markers" d=" M 631.0000000000001 439.49999999999994 C 631.0000000000001 442.2614237491539 628.7614237491541 444.49999999999994 626.0000000000001 444.49999999999994 C 623.2385762508461 444.49999999999994 621.0000000000001 442.2614237491539 621.0000000000001 439.49999999999994 C 621.0000000000001 436.738576250846 623.2385762508461 434.49999999999994 626.0000000000001 434.49999999999994 C 628.7614237491541 434.49999999999994 631.0000000000001 436.738576250846 631.0000000000001 439.49999999999994 Z" stroke-opacity="1" stroke-linecap="round" stroke-linejoin="round" stroke-miterlimit="10"/></g></g></svg>