<svg version="1.1" xmlns="http://www.w3.org/2000/svg" xmlns:xlink="http://www.w3.org/1999/xlink" width="1310" height="605"><defs><clipPath id="PmHMTIJHTATn"><path fill="none" stroke="none" d=" M 0 0 L 1310 0 L 1310 605 L 0 605 L 0 0 Z"/></clipPath></defs><g transform="scale(1,1)" clip-path="url(#PmHMTIJHTATn)"><g><rect fill="rgb(255,255,255)" stroke="none" x="0" y="0" width="1310" height="605" fill-opacity="1"/><path fill="none" stroke="rgb(0,0,0)" paint-order="fill stroke markers" d=" M 739.7945088244728 457.25553937739556 C 739.7945088244728 627.9422707841021 601.4255738217759 766.3112057867991 430.7388424150695 766.3112057867991 C 260.0521110083631 766.3112057867991 121.68317600566621 627.9422707841021 121.68317600566621 457.25553937739556 C 121.68317600566621 286.568807970689 260.0521110083631 148.199872967992 430.7388424150695 148.199872967992 C 601.4255738217759 148.199872967992 739.7945088244728 286.568807970689 739.7945088244728 457.25553937739556 Z" stroke-opacity="0.6980392156862745" stroke-linecap="round" stroke-linejoin="round" stroke-miterlimit="10" stroke-width="2.5"/><path fill="none" stroke="rgb(0,0,0)" paint-order="fill stroke markers" d=" M 1250.1162373620841 457.25553937739556 C 1250.1162373620841 627.9422707841021 1111.747302359387 766.3112057867991 941.0605709526808 766.3112057867991 C 770.3738395459743 766.3112057867991 632.0049045432775 627.9422707841021 632.0049045432775 457.25553937739556 C 632.0049045432775 286.568807970689 770.3738395459743 148.199872967992 941.0605709526808 148.199872967992 C 1111.747302359387 148.199872967992 1250.1162373620841 286.568807970689 1250.1162373620841 457.25553937739556 Z" stroke-opacity="0.6980392156862745" stroke-linecap="round" stroke-linejoin="round" stroke-miterlimit="10" stroke-width="2.5"/><path fill="rgb(0,0,0)" stroke="none" paint-order="stroke fill markers" fill-rule="evenodd" d=" M 430.7388424150695 184.9999999999999 L 430.7388424150695 206.2132034355949 L 451.9520458506659 206.2132034355963 L 451.9520458506645 184.9999999999999 L 430.7388424150695 184.9999999999999" fill-opacity="0.09803921568627451"/><path fill="none" stroke="rgb(0,0,0)" paint-order="fill stroke markers" d=" M 430.7388424150695 184.9999999999999 L 430.7388424150695 206.2132034355949 L 451.9520458506659 206.2132034355963 L 451.9520458506645 184.9999999999999 L 430.7388424150695 184.9999999999999" stroke-opacity="0.6" stroke-linecap="round" stroke-linejoin="round" stroke-miterlimit="10" stroke-width="2.5"/><path fill="rgb(0,0,0)" stroke="none" paint-order="stroke fill markers" fill-rule="evenodd" d=" M 941.0605709526808 184.9999999999999 L 919.8473675170858 184.9999999999999 L 919.8473675170843 206.2132034355963 L 941.0605709526808 206.2132034355949 L 941.0605709526808 184.9999999999999" fill-opacity="0.09803921568627451"/><path fill="none" stroke="rgb(0,0,0)" paint-order="fill stroke markers" d=" M 941.0605709526808 184.9999999999999 L 919.8473675170858 184.9999999999999 L 919.8473675170843 206.2132034355963 L 941.0605709526808 206.2132034355949 L 941.0605709526808 184.9999999999999" stroke-opacity="0.6" stroke-linecap="round" stroke-linejoin="round" stroke-miterlimit="10" stroke-width="2.5"/><path fill="none" stroke="rgb(0,0,0)" paint-order="fill stroke markers" d=" M -5 184.9999999999999 L 1315 184.9999999999999" stroke-opacity="0.6980392156862745" stroke-linecap="round" stroke-linejoin="round" stroke-miterlimit="10" stroke-width="2.5"/><path fill="none" stroke="rgb(0,0,0)" paint-order="fill stroke markers" d=" M 430.7388424150695 457.25553937739556 L 941.0605709526808 457.25553937739556" stroke-opacity="0.6980392156862745" stroke-linecap="round" stroke-linejoin="round" stroke-miterlimit="10" stroke-width="2.5"/><g transform="scale(27,27)"><g transform="translate(25.14814814814815,18.879630185185185)"><path fill="rgb(0,0,0)" stroke="none" paint-order="stroke fill markers" d=" M 0.23900000000000002 -0.683 L 0.165 -0.382 Q 0.223 -0.442 0.28200000000000003 -0.442 Q 0.357 -0.442 0.394 -0.373 Q 0.41500000000000004 -0.333 0.41500000000000004 -0.28200000000000003 Q 0.41500000000000004 -0.176 0.341 -0.084 Q 0.272 0.001 0.189 0.01 Q 0.181 0.011 0.17400000000000002 0.011 Q 0.10200000000000001 0.011 0.067 -0.056 Q 0.047 -0.094 0.047 -0.146 Q 0.047 -0.18 0.063 -0.247 L 0.145 -0.5730000000000001 Q 0.159 -0.632 0.159 -0.635 Q 0.159 -0.646 0.145 -0.649 L 0.145 -0.649 Q 0.133 -0.652 0.109 -0.652 Q 0.08700000000000001 -0.652 0.085 -0.664 Q 0.085 -0.681 0.10400000000000001 -0.684 L 0.226 -0.6940000000000001 Q 0.23900000000000002 -0.6940000000000001 0.23900000000000002 -0.683 M 0.145 -0.305 L 0.123 -0.213 Q 0.107 -0.15 0.107 -0.112 Q 0.107 -0.026000000000000002 0.159 -0.013000000000000001 Q 0.166 -0.011 0.17400000000000002 -0.011 Q 0.227 -0.011 0.273 -0.081 Q 0.28300000000000003 -0.096 0.292 -0.114 Q 0.319 -0.171 0.337 -0.268 Q 0.343 -0.303 0.343 -0.326 Q 0.343 -0.406 0.294 -0.418 L 0.293 -0.419 Q 0.28700000000000003 -0.42 0.28 -0.42 Q 0.22 -0.42 0.16 -0.34 Q 0.152 -0.33 0.145 -0.305 Z"/></g></g><path fill="none" stroke="rgb(0,0,0)" paint-order="fill stroke markers" d=" M 430.7388424150695 457.25553937739556 L 284.477684830139 184.9999999999999" stroke-opacity="0.6980392156862745" stroke-linecap="round" stroke-linejoin="round" stroke-miterlimit="10" stroke-width="2.5"/><g transform="scale(27,27)"><g transform="translate(12.148148148148149,12.842593148148149)"><path fill="rgb(0,0,0)" stroke="none" paint-order="stroke fill markers" d=" M 0.258 -0.683 L 0.114 -0.105 Q 0.108 -0.082 0.108 -0.057 Q 0.108 -0.011 0.138 -0.011 Q 0.177 -0.011 0.203 -0.097 Q 0.20800000000000002 -0.112 0.214 -0.135 Q 0.222 -0.152 0.228 -0.153 Q 0.24 -0.153 0.24 -0.14300000000000002 Q 0.24 -0.128 0.222 -0.074 Q 0.216 -0.057 0.21 -0.045 Q 0.184 0.011 0.135 0.011 Q 0.083 0.011 0.057 -0.031 Q 0.044 -0.053 0.044 -0.081 Q 0.044 -0.097 0.049 -0.115 L 0.17500000000000002 -0.615 L 0.178 -0.635 Q 0.178 -0.646 0.164 -0.649 Q 0.152 -0.652 0.129 -0.652 Q 0.106 -0.652 0.10400000000000001 -0.663 Q 0.10400000000000001 -0.681 0.123 -0.684 L 0.245 -0.6940000000000001 Q 0.258 -0.6940000000000001 0.258 -0.683 Z"/></g></g><path fill="none" stroke="rgb(0,0,0)" paint-order="fill stroke markers" d=" M 941.0605709526808 457.25553937739556 L 1087.3217285376113 184.9999999999999" stroke-opacity="0.6980392156862745" stroke-linecap="round" stroke-linejoin="round" stroke-miterlimit="10" stroke-width="2.5"/><g transform="scale(27,27)"><g transform="translate(38.370370370370374,12.879630185185185)"><path fill="rgb(0,0,0)" stroke="none" paint-order="stroke fill markers" d=" M 0.258 -0.683 L 0.114 -0.105 Q 0.108 -0.082 0.108 -0.057 Q 0.108 -0.011 0.138 -0.011 Q 0.177 -0.011 0.203 -0.097 Q 0.20800000000000002 -0.112 0.214 -0.135 Q 0.222 -0.152 0.228 -0.153 Q 0.24 -0.153 0.24 -0.14300000000000002 Q 0.24 -0.128 0.222 -0.074 Q 0.216 -0.057 0.21 -0.045 Q 0.184 0.011 0.135 0.011 Q 0.083 0.011 0.057 -0.031 Q 0.044 -0.053 0.044 -0.081 Q 0.044 -0.097 0.049 -0.115 L 0.17500000000000002 -0.615 L 0.178 -0.635 Q 0.178 -0.646 0.164 -0.649 Q 0.152 -0.652 0.129 -0.652 Q 0.106 -0.652 0.10400000000000001 -0.663 Q 0.10400000000000001 -0.681 0.123 -0.684 L 0.245 -0.6940000000000001 Q 0.258 -0.6940000000000001 0.258 -0.683 Z"/></g></g><path fill="none" stroke="rgb(0,0,0)" paint-order="fill stroke markers" d=" M 430.7388424150695 457.25553937739556 L 430.7388424150695 184.9999999999999" stroke-opacity="0.6980392156862745" stroke-linejoin="round" stroke-miterlimit="10" stroke-width="2.5" stroke-dasharray="10.5,8"/><g transform="scale(27,27)"><g transform="translate(16.703703703703702,12.212963518518519)"><path fill="rgb(0,0,0)" stroke="none" paint-order="stroke fill markers" d=" M 0.516 -0.683 L 0.372 -0.105 Q 0.366 -0.08 0.366 -0.057 Q 0.366 -0.011 0.396 -0.011 Q 0.434 -0.011 0.46 -0.091 Q 0.465 -0.108 0.47200000000000003 -0.135 Q 0.48 -0.152 0.486 -0.153 Q 0.498 -0.153 0.498 -0.14300000000000002 Q 0.498 -0.128 0.48 -0.073 Q 0.47400000000000003 -0.056 0.468 -0.044 Q 0.44 0.011 0.394 0.011 Q 0.338 0.011 0.313 -0.037 Q 0.306 -0.049 0.303 -0.064 Q 0.24 0.011 0.17300000000000001 0.011 Q 0.098 0.011 0.062 -0.057 Q 0.04 -0.097 0.04 -0.149 Q 0.04 -0.257 0.115 -0.34900000000000003 Q 0.185 -0.433 0.267 -0.441 Q 0.274 -0.442 0.281 -0.442 Q 0.342 -0.442 0.373 -0.378 L 0.433 -0.615 L 0.436 -0.635 Q 0.436 -0.646 0.422 -0.649 Q 0.41000000000000003 -0.652 0.386 -0.652 Q 0.364 -0.652 0.362 -0.664 Q 0.362 -0.681 0.376 -0.683 Q 0.47000000000000003 -0.6940000000000001 0.503 -0.6940000000000001 Q 0.516 -0.6940000000000001 0.516 -0.683 M 0.308 -0.11900000000000001 L 0.308 -0.11900000000000001 L 0.358 -0.315 Q 0.361 -0.33 0.361 -0.332 Q 0.361 -0.353 0.343 -0.383 Q 0.321 -0.42 0.28200000000000003 -0.42 Q 0.23 -0.42 0.183 -0.352 Q 0.17400000000000002 -0.339 0.166 -0.324 Q 0.137 -0.266 0.117 -0.159 Q 0.111 -0.125 0.111 -0.105 Q 0.111 -0.037 0.149 -0.017 Q 0.16 -0.011 0.17500000000000002 -0.011 Q 0.231 -0.011 0.28800000000000003 -0.082 Q 0.302 -0.098 0.307 -0.115 L 0.307 -0.116 Q 0.308 -0.11800000000000001 0.308 -0.11900000000000001 Z"/></g></g><path fill="none" stroke="rgb(0,0,0)" paint-order="fill stroke markers" d=" M 941.0605709526808 457.25553937739556 L 941.0605709526808 184.9999999999999" stroke-opacity="0.6980392156862745" stroke-linejoin="round" stroke-miterlimit="10" stroke-width="2.5" stroke-dasharray="10.5,8"/><g transform="scale(27,27)"><g transform="translate(33.370370370370374,12.250000555555555)"><path fill="rgb(0,0,0)" stroke="none" paint-order="stroke fill markers" d=" M 0.516 -0.683 L 0.372 -0.105 Q 0.366 -0.08 0.366 -0.057 Q 0.366 -0.011 0.396 -0.011 Q 0.434 -0.011 0.46 -0.091 Q 0.465 -0.108 0.47200000000000003 -0.135 Q 0.48 -0.152 0.486 -0.153 Q 0.498 -0.153 0.498 -0.14300000000000002 Q 0.498 -0.128 0.48 -0.073 Q 0.47400000000000003 -0.056 0.468 -0.044 Q 0.44 0.011 0.394 0.011 Q 0.338 0.011 0.313 -0.037 Q 0.306 -0.049 0.303 -0.064 Q 0.24 0.011 0.17300000000000001 0.011 Q 0.098 0.011 0.062 -0.057 Q 0.04 -0.097 0.04 -0.149 Q 0.04 -0.257 0.115 -0.34900000000000003 Q 0.185 -0.433 0.267 -0.441 Q 0.274 -0.442 0.281 -0.442 Q 0.342 -0.442 0.373 -0.378 L 0.433 -0.615 L 0.436 -0.635 Q 0.436 -0.646 0.422 -0.649 Q 0.41000000000000003 -0.652 0.386 -0.652 Q 0.364 -0.652 0.362 -0.664 Q 0.362 -0.681 0.376 -0.683 Q 0.47000000000000003 -0.6940000000000001 0.503 -0.6940000000000001 Q 0.516 -0.6940000000000001 0.516 -0.683 M 0.308 -0.11900000000000001 L 0.308 -0.11900000000000001 L 0.358 -0.315 Q 0.361 -0.33 0.361 -0.332 Q 0.361 -0.353 0.343 -0.383 Q 0.321 -0.42 0.28200000000000003 -0.42 Q 0.23 -0.42 0.183 -0.352 Q 0.17400000000000002 -0.339 0.166 -0.324 Q 0.137 -0.266 0.117 -0.159 Q 0.111 -0.125 0.111 -0.105 Q 0.111 -0.037 0.149 -0.017 Q 0.16 -0.011 0.17500000000000002 -0.011 Q 0.231 -0.011 0.28800000000000003 -0.082 Q 0.302 -0.098 0.307 -0.115 L 0.307 -0.116 Q 0.308 -0.11800000000000001 0.308 -0.11900000000000001 Z"/></g></g><path fill="rgb(21,101,192)" stroke="none" paint-order="stroke fill markers" d=" M 435.7388424150695 457.25553937739556 C 435.7388424150695 460.0169631265495 433.50026616422343 462.25553937739556 430.7388424150695 462.25553937739556 C 427.97741866591554 462.25553937739556 425.7388424150695 460.0169631265495 425.7388424150695 457.25553937739556 C 425.7388424150695 454.4941156282416 427.97741866591554 452.25553937739556 430.7388424150695 452.25553937739556 C 433.50026616422343 452.25553937739556 435.7388424150695 454.4941156282416 435.7388424150695 457.25553937739556 Z" fill-opacity="1"/><path fill="none" stroke="rgb(0,0,0)" paint-order="fill stroke markers" d=" M 435.7388424150695 457.25553937739556 C 435.7388424150695 460.0169631265495 433.50026616422343 462.25553937739556 430.7388424150695 462.25553937739556 C 427.97741866591554 462.25553937739556 425.7388424150695 460.0169631265495 425.7388424150695 457.25553937739556 C 425.7388424150695 454.4941156282416 427.97741866591554 452.25553937739556 430.7388424150695 452.25553937739556 C 433.50026616422343 452.25553937739556 435.7388424150695 454.4941156282416 435.7388424150695 457.25553937739556 Z" stroke-opacity="1" stroke-linecap="round" stroke-linejoin="round" stroke-miterlimit="10"/><path fill="rgb(21,101,192)" stroke="none" paint-order="stroke fill markers" d=" M 946.0605709526808 457.25553937739556 C 946.0605709526808 460.0169631265495 943.8219947018348 462.25553937739556 941.0605709526808 462.25553937739556 C 938.2991472035268 462.25553937739556 936.0605709526808 460.0169631265495 936.0605709526808 457.25553937739556 C 936.0605709526808 454.4941156282416 938.2991472035268 452.25553937739556 941.0605709526808 452.25553937739556 C 943.8219947018348 452.25553937739556 946.0605709526808 454.4941156282416 946.0605709526808 457.25553937739556 Z" fill-opacity="1"/><path fill="none" stroke="rgb(0,0,0)" paint-order="fill stroke markers" d=" M 946.0605709526808 457.25553937739556 C 946.0605709526808 460.0169631265495 943.8219947018348 462.25553937739556 941.0605709526808 462.25553937739556 C 938.2991472035268 462.25553937739556 936.0605709526808 460.0169631265495 936.0605709526808 457.25553937739556 C 936.0605709526808 454.4941156282416 938.2991472035268 452.25553937739556 941.0605709526808 452.25553937739556 C 943.8219947018348 452.25553937739556 946.0605709526808 454.4941156282416 946.0605709526808 457.25553937739556 Z" stroke-opacity="1" stroke-linecap="round" stroke-linejoin="round" stroke-miterlimit="10"/><path fill="rgb(21,101,192)" stroke="none" paint-order="stroke fill markers" d=" M 581.9999999999999 184.9999999999999 C 581.9999999999999 187.76142374915386 579.7614237491539 189.9999999999999 576.9999999999999 189.9999999999999 C 574.2385762508459 189.9999999999999 571.9999999999999 187.76142374915386 571.9999999999999 184.9999999999999 C 571.9999999999999 182.2385762508459 574.2385762508459 179.9999999999999 576.9999999999999 179.9999999999999 C 579.7614237491539 179.9999999999999 581.9999999999999 182.2385762508459 581.9999999999999 184.9999999999999 Z" fill-opacity="1"/><path fill="none" stroke="rgb(0,0,0)" paint-order="fill stroke markers" d=" M 581.9999999999999 184.9999999999999 C 581.9999999999999 187.76142374915386 579.7614237491539 189.9999999999999 576.9999999999999 189.9999999999999 C 574.2385762508459 189.9999999999999 571.9999999999999 187.76142374915386 571.9999999999999 184.9999999999999 C 571.9999999999999 182.2385762508459 574.2385762508459 179.9999999999999 576.9999999999999 179.9999999999999 C 579.7614237491539 179.9999999999999 581.9999999999999 182.2385762508459 581.9999999999999 184.9999999999999 Z" stroke-opacity="1" stroke-linecap="round" stroke-linejoin="round" stroke-miterlimit="10"/><path fill="rgb(21,101,192)" stroke="none" paint-order="stroke fill markers" d=" M 799.7994133677503 184.9999999999999 C 799.7994133677503 187.76142374915386 797.5608371169043 189.9999999999999 794.7994133677503 189.9999999999999 C 792.0379896185963 189.9999999999999 789.7994133677503 187.76142374915386 789.7994133677503 184.9999999999999 C 789.7994133677503 182.2385762508459 792.0379896185963 179.9999999999999 794.7994133677503 179.9999999999999 C 797.5608371169043 179.9999999999999 799.7994133677503 182.2385762508459 799.7994133677503 184.9999999999999 Z" fill-opacity="1"/><path fill="none" stroke="rgb(0,0,0)" paint-order="fill stroke markers" d=" M 799.7994133677503 184.9999999999999 C 799.7994133677503 187.76142374915386 797.5608371169043 189.9999999999999 794.7994133677503 189.9999999999999 C 792.0379896185963 189.9999999999999 789.7994133677503 187.76142374915386 789.7994133677503 184.9999999999999 C 789.7994133677503 182.2385762508459 792.0379896185963 179.9999999999999 794.7994133677503 179.9999999999999 C 797.5608371169043 179.9999999999999 799.7994133677503 182.2385762508459 799.7994133677503 184.9999999999999 Z" stroke-opacity="1" stroke-linecap="round" stroke-linejoin="round" stroke-miterlimit="10"/><path fill="rgb(21,101,192)" stroke="none" paint-order="stroke fill markers" d=" M 1092.3217285376113 184.9999999999999 C 1092.3217285376113 187.76142374915386 1090.0831522867652 189.9999999999999 1087.3217285376113 189.9999999999999 C 1084.5603047884574 189.9999999999999 1082.3217285376113 187.76142374915386 1082.3217285376113 184.9999999999999 C 1082.3217285376113 182.2385762508459 1084.5603047884574 179.9999999999999 1087.3217285376113 179.9999999999999 C 1090.0831522867652 179.9999999999999 1092.3217285376113 182.2385762508459 1092.3217285376113 184.9999999999999 Z" fill-opacity="1"/><path fill="none" stroke="rgb(0,0,0)" paint-order="fill stroke markers" d=" M 1092.3217285376113 184.9999999999999 C 1092.3217285376113 187.76142374915386 1090.0831522867652 189.9999999999999 1087.3217285376113 189.9999999999999 C 1084.5603047884574 189.9999999999999 1082.3217285376113 187.76142374915386 1082.3217285376113 184.9999999999999 C 1082.3217285376113 182.2385762508459 1084.5603047884574 179.9999999999999 1087.3217285376113 179.9999999999999 C 1090.0831522867652 179.9999999999999 1092.3217285376113 182.2385762508459 1092.3217285376113 184.9999999999999 Z" stroke-opacity="1" stroke-linecap="round" stroke-linejoin="round" stroke-miterlimit="10"/><path fill="rgb(21,101,192)" stroke="none" paint-order="stroke fill markers" d=" M 289.477684830139 184.9999999999999 C 289.477684830139 187.76142374915386 287.239108579293 189.9999999999999 284.477684830139 189.9999999999999 C 281.7162610809851 189.9999999999999 279.477684830139 187.76142374915386 279.477684830139 184.9999999999999 C 279.477684830139 182.2385762508459 281.7162610809851 179.9999999999999 284.477684830139 179.9999999999999 C 287.239108579293 179.9999999999999 289.477684830139 182.2385762508459 289.477684830139 184.9999999999999 Z" fill-opacity="1"/><path fill="none" stroke="rgb(0,0,0)" paint-order="fill stroke markers" d=" M 289.477684830139 184.9999999999999 C 289.477684830139 187.76142374915386 287.239108579293 189.9999999999999 284.477684830139 189.9999999999999 C 281.7162610809851 189.9999999999999 279.477684830139 187.76142374915386 279.477684830139 184.9999999999999 C 279.477684830139 182.2385762508459 281.7162610809851 179.9999999999999 284.477684830139 179.9999999999999 C 287.239108579293 179.9999999999999 289.477684830139 182.2385762508459 289.477684830139 184.9999999999999 Z" stroke-opacity="1" stroke-linecap="round" stroke-linejoin="round" stroke-miterlimit="10"/><path fill="rgb(46,125,50)" stroke="none" paint-order="stroke fill markers" d=" M 435.7388424150695 184.9999999999999 C 435.7388424150695 187.76142374915386 433.50026616422343 189.9999999999999 430.7388424150695 189.9999999999999 C 427.97741866591554 189.9999999999999 425.7388424150695 187.76142374915386 425.7388424150695 184.9999999999999 C 425.7388424150695 182.2385762508459 427.97741866591554 179.9999999999999 430.7388424150695 179.9999999999999 C 433.50026616422343 179.9999999999999 435.7388424150695 182.2385762508459 435.7388424150695 184.9999999999999 Z" fill-opacity="1"/><path fill="none" stroke="rgb(0,0,0)" paint-order="fill stroke markers" d=" M 435.7388424150695 184.9999999999999 C 435.7388424150695 187.76142374915386 433.50026616422343 189.9999999999999 430.7388424150695 189.9999999999999 C 427.97741866591554 189.9999999999999 425.7388424150695 187.76142374915386 425.7388424150695 184.9999999999999 C 425.7388424150695 182.2385762508459 427.97741866591554 179.9999999999999 430.7388424150695 179.9999999999999 C 433.50026616422343 179.9999999999999 435.7388424150695 182.2385762508459 435.7388424150695 184.9999999999999 Z" stroke-opacity="1" stroke-linecap="round" stroke-linejoin="round" stroke-miterlimit="10"/><path fill="rgb(46,125,50)" stroke="none" paint-order="stroke fill markers" d=" M 946.0605709526808 184.9999999999999 C 946.0605709526808 187.76142374915386 943.8219947018348 189.9999999999999 941.0605709526808 189.9999999999999 C 938.2991472035268 189.9999999999999 936.0605709526808 187.76142374915386 936.0605709526808 184.9999999999999 C 936.0605709526808 182.2385762508459 938.2991472035268 179.9999999999999 941.0605709526808 179.9999999999999 C 943.8219947018348 179.9999999999999 946.0605709526808 182.2385762508459 946.0605709526808 184.9999999999999 Z" fill-opacity="1"/><path fill="none" stroke="rgb(0,0,0)" paint-order="fill stroke markers" d=" M 946.0605709526808 184.9999999999999 C 946.0605709526808 187.76142374915386 943.8219947018348 189.9999999999999 941.0605709526808 189.9999999999999 C 938.2991472035268 189.9999999999999 936.0605709526808 187.76142374915386 936.0605709526808 184.9999999999999 C 936.0605709526808 182.2385762508459 938.2991472035268 179.9999999999999 941.0605709526808 179.9999999999999 C 943.8219947018348 179.9999999999999 946.0605709526808 182.2385762508459 946.0605709526808 184.9999999999999 Z" stroke-opacity="1" stroke-linecap="round" stroke-linejoin="round" stroke-miterlimit="10"/></g></g></svg>