<svg version="1.1" xmlns="http://www.w3.org/2000/svg" xmlns:xlink="http://www.w3.org/1999/xlink" width="1310" height="605"><defs><clipPath id="abxvKVxGzHyi"><path fill="none" stroke="none" d=" M 0 0 L 1310 0 L 1310 605 L 0 605 L 0 0 Z"/></clipPath></defs><g transform="scale(1,1)" clip-path="url(#abxvKVxGzHyi)"><g><rect fill="rgb(255,255,255)" stroke="none" x="0" y="0" width="1310" height="605" fill-opacity="1"/><path fill="none" stroke="rgb(0,0,0)" paint-order="fill stroke markers" d=" M 785.5885474936445 450.5 C 785.5885474936445 652.4089794935308 621.9089794935305 816.0885474936449 419.9999999999999 816.0885474936449 C 218.09102050646925 816.0885474936449 54.41145250635526 652.4089794935308 54.41145250635526 450.5 C 54.41145250635526 248.59102050646922 218.09102050646925 84.91145250635509 419.9999999999999 84.91145250635509 C 621.9089794935305 84.91145250635509 785.5885474936445 248.59102050646922 785.5885474936445 450.5 Z" stroke-opacity="0.6980392156862745" stroke-linecap="round" stroke-linejoin="round" stroke-miterlimit="10" stroke-width="2.5"/><path fill="none" stroke="rgb(0,0,0)" paint-order="fill stroke markers" d=" M 1285.5885474936445 450.5 C 1285.5885474936445 652.4089794935308 1121.9089794935303 816.0885474936449 919.9999999999998 816.0885474936449 C 718.091020506469 816.0885474936449 554.4114525063551 652.4089794935308 554.4114525063551 450.5 C 554.4114525063551 248.59102050646922 718.091020506469 84.91145250635509 919.9999999999998 84.91145250635509 C 1121.9089794935303 84.91145250635509 1285.5885474936445 248.59102050646922 1285.5885474936445 450.5 Z" stroke-opacity="0.6980392156862745" stroke-linecap="round" stroke-linejoin="round" stroke-miterlimit="10" stroke-width="2.5"/><path fill="rgb(0,0,0)" stroke="none" paint-order="stroke fill markers" fill-rule="evenodd" d=" M 419.9999999999999 183.75108049232324 L 419.9999999999999 204.96428392791825 L 441.2132034355963 204.96428392791967 L 441.2132034355949 183.75108049232324 L 419.9999999999999 183.75108049232324" fill-opacity="0.09803921568627451"/><path fill="none" stroke="rgb(0,0,0)" paint-order="fill stroke markers" d=" M 419.9999999999999 183.75108049232324 L 419.9999999999999 204.96428392791825 L 441.2132034355963 204.96428392791967 L 441.2132034355949 183.75108049232324 L 419.9999999999999 183.75108049232324" stroke-opacity="0.6" stroke-linecap="round" stroke-linejoin="round" stroke-miterlimit="10" stroke-width="2.5"/><path fill="rgb(0,0,0)" stroke="none" paint-order="stroke fill markers" fill-rule="evenodd" d=" M 919.9999999999997 183.75108049232324 L 898.7867965644047 183.75108049232324 L 898.7867965644032 204.96428392791967 L 919.9999999999997 204.96428392791825 L 919.9999999999997 183.75108049232324" fill-opacity="0.09803921568627451"/><path fill="none" stroke="rgb(0,0,0)" paint-order="fill stroke markers" d=" M 919.9999999999997 183.75108049232324 L 898.7867965644047 183.75108049232324 L 898.7867965644032 204.96428392791967 L 919.9999999999997 204.96428392791825 L 919.9999999999997 183.75108049232324" stroke-opacity="0.6" stroke-linecap="round" stroke-linejoin="round" stroke-miterlimit="10" stroke-width="2.5"/><path fill="none" stroke="rgb(0,0,0)" paint-order="fill stroke markers" d=" M -5 183.75108049232324 L 1315 183.75108049232324" stroke-opacity="0.6980392156862745" stroke-linecap="round" stroke-linejoin="round" stroke-miterlimit="10" stroke-width="2.5"/><path fill="none" stroke="rgb(0,0,0)" paint-order="fill stroke markers" d=" M 669.9999999999998 610 L 669.9999999999998 -5" stroke-opacity="0.6980392156862745" stroke-linejoin="round" stroke-miterlimit="10" stroke-width="2.5" stroke-dasharray="10.5,8"/><path fill="none" stroke="rgb(0,0,0)" paint-order="fill stroke markers" d=" M 419.9999999999999 450.5 L 919.9999999999997 450.5" stroke-opacity="0.6980392156862745" stroke-linecap="round" stroke-linejoin="round" stroke-miterlimit="10" stroke-width="2.5"/><g transform="scale(27,27)"><g transform="translate(24.555555555555557,18.620370925925926)"><path fill="rgb(0,0,0)" stroke="none" paint-order="stroke fill markers" d=" M 0.23900000000000002 -0.683 L 0.165 -0.382 Q 0.223 -0.442 0.28200000000000003 -0.442 Q 0.357 -0.442 0.394 -0.373 Q 0.41500000000000004 -0.333 0.41500000000000004 -0.28200000000000003 Q 0.41500000000000004 -0.176 0.341 -0.084 Q 0.272 0.001 0.189 0.01 Q 0.181 0.011 0.17400000000000002 0.011 Q 0.10200000000000001 0.011 0.067 -0.056 Q 0.047 -0.094 0.047 -0.146 Q 0.047 -0.18 0.063 -0.247 L 0.145 -0.5730000000000001 Q 0.159 -0.632 0.159 -0.635 Q 0.159 -0.646 0.145 -0.649 L 0.145 -0.649 Q 0.133 -0.652 0.109 -0.652 Q 0.08700000000000001 -0.652 0.085 -0.664 Q 0.085 -0.681 0.10400000000000001 -0.684 L 0.226 -0.6940000000000001 Q 0.23900000000000002 -0.6940000000000001 0.23900000000000002 -0.683 M 0.145 -0.305 L 0.123 -0.213 Q 0.107 -0.15 0.107 -0.112 Q 0.107 -0.026000000000000002 0.159 -0.013000000000000001 Q 0.166 -0.011 0.17400000000000002 -0.011 Q 0.227 -0.011 0.273 -0.081 Q 0.28300000000000003 -0.096 0.292 -0.114 Q 0.319 -0.171 0.337 -0.268 Q 0.343 -0.303 0.343 -0.326 Q 0.343 -0.406 0.294 -0.418 L 0.293 -0.419 Q 0.28700000000000003 -0.42 0.28 -0.42 Q 0.22 -0.42 0.16 -0.34 Q 0.152 -0.33 0.145 -0.305 Z"/></g></g><path fill="none" stroke="rgb(0,0,0)" paint-order="fill stroke markers" d=" M 419.9999999999999 450.5 L 419.9999999999999 183.75108049232324" stroke-opacity="0.6980392156862745" stroke-linejoin="round" stroke-miterlimit="10" stroke-width="2.5" stroke-dasharray="10.5,8"/><g transform="scale(27,27)"><g transform="translate(16.296296296296298,12.06481537037037)"><path fill="rgb(0,0,0)" stroke="none" paint-order="stroke fill markers" d=" M 0.516 -0.683 L 0.372 -0.105 Q 0.366 -0.08 0.366 -0.057 Q 0.366 -0.011 0.396 -0.011 Q 0.434 -0.011 0.46 -0.091 Q 0.465 -0.108 0.47200000000000003 -0.135 Q 0.48 -0.152 0.486 -0.153 Q 0.498 -0.153 0.498 -0.14300000000000002 Q 0.498 -0.128 0.48 -0.073 Q 0.47400000000000003 -0.056 0.468 -0.044 Q 0.44 0.011 0.394 0.011 Q 0.338 0.011 0.313 -0.037 Q 0.306 -0.049 0.303 -0.064 Q 0.24 0.011 0.17300000000000001 0.011 Q 0.098 0.011 0.062 -0.057 Q 0.04 -0.097 0.04 -0.149 Q 0.04 -0.257 0.115 -0.34900000000000003 Q 0.185 -0.433 0.267 -0.441 Q 0.274 -0.442 0.281 -0.442 Q 0.342 -0.442 0.373 -0.378 L 0.433 -0.615 L 0.436 -0.635 Q 0.436 -0.646 0.422 -0.649 Q 0.41000000000000003 -0.652 0.386 -0.652 Q 0.364 -0.652 0.362 -0.664 Q 0.362 -0.681 0.376 -0.683 Q 0.47000000000000003 -0.6940000000000001 0.503 -0.6940000000000001 Q 0.516 -0.6940000000000001 0.516 -0.683 M 0.308 -0.11900000000000001 L 0.308 -0.11900000000000001 L 0.358 -0.315 Q 0.361 -0.33 0.361 -0.332 Q 0.361 -0.353 0.343 -0.383 Q 0.321 -0.42 0.28200000000000003 -0.42 Q 0.23 -0.42 0.183 -0.352 Q 0.17400000000000002 -0.339 0.166 -0.324 Q 0.137 -0.266 0.117 -0.159 Q 0.111 -0.125 0.111 -0.105 Q 0.111 -0.037 0.149 -0.017 Q 0.16 -0.011 0.17500000000000002 -0.011 Q 0.231 -0.011 0.28800000000000003 -0.082 Q 0.302 -0.098 0.307 -0.115 L 0.307 -0.116 Q 0.308 -0.11800000000000001 0.308 -0.11900000000000001 Z"/></g></g><path fill="none" stroke="rgb(0,0,0)" paint-order="fill stroke markers" d=" M 919.9999999999997 450.5 L 919.9999999999997 183.75108049232324" stroke-opacity="0.6980392156862745" stroke-linejoin="round" stroke-miterlimit="10" stroke-width="2.5" stroke-dasharray="10.5,8"/><g transform="scale(27,27)"><g transform="translate(32.55555555555556,12.101852407407407)"><path fill="rgb(0,0,0)" stroke="none" paint-order="stroke fill markers" d=" M 0.516 -0.683 L 0.372 -0.105 Q 0.366 -0.08 0.366 -0.057 Q 0.366 -0.011 0.396 -0.011 Q 0.434 -0.011 0.46 -0.091 Q 0.465 -0.108 0.47200000000000003 -0.135 Q 0.48 -0.152 0.486 -0.153 Q 0.498 -0.153 0.498 -0.14300000000000002 Q 0.498 -0.128 0.48 -0.073 Q 0.47400000000000003 -0.056 0.468 -0.044 Q 0.44 0.011 0.394 0.011 Q 0.338 0.011 0.313 -0.037 Q 0.306 -0.049 0.303 -0.064 Q 0.24 0.011 0.17300000000000001 0.011 Q 0.098 0.011 0.062 -0.057 Q 0.04 -0.097 0.04 -0.149 Q 0.04 -0.257 0.115 -0.34900000000000003 Q 0.185 -0.433 0.267 -0.441 Q 0.274 -0.442 0.281 -0.442 Q 0.342 -0.442 0.373 -0.378 L 0.433 -0.615 L 0.436 -0.635 Q 0.436 -0.646 0.422 -0.649 Q 0.41000000000000003 -0.652 0.386 -0.652 Q 0.364 -0.652 0.362 -0.664 Q 0.362 -0.681 0.376 -0.683 Q 0.47000000000000003 -0.6940000000000001 0.503 -0.6940000000000001 Q 0.516 -0.6940000000000001 0.516 -0.683 M 0.308 -0.11900000000000001 L 0.308 -0.11900000000000001 L 0.358 -0.315 Q 0.361 -0.33 0.361 -0.332 Q 0.361 -0.353 0.343 -0.383 Q 0.321 -0.42 0.28200000000000003 -0.42 Q 0.23 -0.42 0.183 -0.352 Q 0.17400000000000002 -0.339 0.166 -0.324 Q 0.137 -0.266 0.117 -0.159 Q 0.111 -0.125 0.111 -0.105 Q 0.111 -0.037 0.149 -0.017 Q 0.16 -0.011 0.17500000000000002 -0.011 Q 0.231 -0.011 0.28800000000000003 -0.082 Q 0.302 -0.098 0.307 -0.115 L 0.307 -0.116 Q 0.308 -0.11800000000000001 0.308 -0.11900000000000001 Z"/></g></g><path fill="none" stroke="rgb(0,0,0)" paint-order="fill stroke markers" d=" M 419.9999999999999 450.5 L 669.9999999999998 183.75108049232324" stroke-opacity="0.6980392156862745" stroke-linecap="round" stroke-linejoin="round" stroke-miterlimit="10" stroke-width="2.5"/><path fill="none" stroke="rgb(0,0,0)" paint-order="fill stroke markers" d=" M 919.9999999999997 450.5 L 669.9999999999998 183.75108049232324" stroke-opacity="0.6980392156862745" stroke-linecap="round" stroke-linejoin="round" stroke-miterlimit="10" stroke-width="2.5"/><path fill="rgb(21,101,192)" stroke="none" paint-order="stroke fill markers" d=" M 424.9999999999999 450.5 C 424.9999999999999 453.26142374915395 422.76142374915383 455.5 419.9999999999999 455.5 C 417.23857625084594 455.5 414.9999999999999 453.26142374915395 414.9999999999999 450.5 C 414.9999999999999 447.73857625084605 417.23857625084594 445.5 419.9999999999999 445.5 C 422.76142374915383 445.5 424.9999999999999 447.73857625084605 424.9999999999999 450.5 Z" fill-opacity="1"/><path fill="none" stroke="rgb(0,0,0)" paint-order="fill stroke markers" d=" M 424.9999999999999 450.5 C 424.9999999999999 453.26142374915395 422.76142374915383 455.5 419.9999999999999 455.5 C 417.23857625084594 455.5 414.9999999999999 453.26142374915395 414.9999999999999 450.5 C 414.9999999999999 447.73857625084605 417.23857625084594 445.5 419.9999999999999 445.5 C 422.76142374915383 445.5 424.9999999999999 447.73857625084605 424.9999999999999 450.5 Z" stroke-opacity="1" stroke-linecap="round" stroke-linejoin="round" stroke-miterlimit="10"/><path fill="rgb(21,101,192)" stroke="none" paint-order="stroke fill markers" d=" M 924.9999999999997 450.5 C 924.9999999999997 453.26142374915395 922.7614237491537 455.5 919.9999999999997 455.5 C 917.2385762508457 455.5 914.9999999999997 453.26142374915395 914.9999999999997 450.5 C 914.9999999999997 447.73857625084605 917.2385762508457 445.5 919.9999999999997 445.5 C 922.7614237491537 445.5 924.9999999999997 447.73857625084605 924.9999999999997 450.5 Z" fill-opacity="1"/><path fill="none" stroke="rgb(0,0,0)" paint-order="fill stroke markers" d=" M 924.9999999999997 450.5 C 924.9999999999997 453.26142374915395 922.7614237491537 455.5 919.9999999999997 455.5 C 917.2385762508457 455.5 914.9999999999997 453.26142374915395 914.9999999999997 450.5 C 914.9999999999997 447.73857625084605 917.2385762508457 445.5 919.9999999999997 445.5 C 922.7614237491537 445.5 924.9999999999997 447.73857625084605 924.9999999999997 450.5 Z" stroke-opacity="1" stroke-linecap="round" stroke-linejoin="round" stroke-miterlimit="10"/><path fill="rgb(21,101,192)" stroke="none" paint-order="stroke fill markers" d=" M 674.9999999999998 183.75108049232324 C 674.9999999999998 186.51250424147722 672.7614237491538 188.75108049232324 669.9999999999998 188.75108049232324 C 667.2385762508458 188.75108049232324 664.9999999999998 186.51250424147722 664.9999999999998 183.75108049232324 C 664.9999999999998 180.98965674316926 667.2385762508458 178.75108049232324 669.9999999999998 178.75108049232324 C 672.7614237491538 178.75108049232324 674.9999999999998 180.98965674316926 674.9999999999998 183.75108049232324 Z" fill-opacity="1"/><path fill="none" stroke="rgb(0,0,0)" paint-order="fill stroke markers" d=" M 674.9999999999998 183.75108049232324 C 674.9999999999998 186.51250424147722 672.7614237491538 188.75108049232324 669.9999999999998 188.75108049232324 C 667.2385762508458 188.75108049232324 664.9999999999998 186.51250424147722 664.9999999999998 183.75108049232324 C 664.9999999999998 180.98965674316926 667.2385762508458 178.75108049232324 669.9999999999998 178.75108049232324 C 672.7614237491538 178.75108049232324 674.9999999999998 180.98965674316926 674.9999999999998 183.75108049232324 Z" stroke-opacity="1" stroke-linecap="round" stroke-linejoin="round" stroke-miterlimit="10"/><path fill="rgb(21,101,192)" stroke="none" paint-order="stroke fill markers" d=" M 674.9999999999998 183.75108049232324 C 674.9999999999998 186.51250424147722 672.7614237491538 188.75108049232324 669.9999999999998 188.75108049232324 C 667.2385762508458 188.75108049232324 664.9999999999998 186.51250424147722 664.9999999999998 183.75108049232324 C 664.9999999999998 180.98965674316926 667.2385762508458 178.75108049232324 669.9999999999998 178.75108049232324 C 672.7614237491538 178.75108049232324 674.9999999999998 180.98965674316926 674.9999999999998 183.75108049232324 Z" fill-opacity="1"/><path fill="none" stroke="rgb(0,0,0)" paint-order="fill stroke markers" d=" M 674.9999999999998 183.75108049232324 C 674.9999999999998 186.51250424147722 672.7614237491538 188.75108049232324 669.9999999999998 188.75108049232324 C 667.2385762508458 188.75108049232324 664.9999999999998 186.51250424147722 664.9999999999998 183.75108049232324 C 664.9999999999998 180.98965674316926 667.2385762508458 178.75108049232324 669.9999999999998 178.75108049232324 C 672.7614237491538 178.75108049232324 674.9999999999998 180.98965674316926 674.9999999999998 183.75108049232324 Z" stroke-opacity="1" stroke-linecap="round" stroke-linejoin="round" stroke-miterlimit="10"/><path fill="rgb(21,101,192)" stroke="none" paint-order="stroke fill markers" d=" M 1174.9999999999995 183.75108049232324 C 1174.9999999999995 186.51250424147722 1172.7614237491534 188.75108049232324 1169.9999999999995 188.75108049232324 C 1167.2385762508457 188.75108049232324 1164.9999999999995 186.51250424147722 1164.9999999999995 183.75108049232324 C 1164.9999999999995 180.98965674316926 1167.2385762508457 178.75108049232324 1169.9999999999995 178.75108049232324 C 1172.7614237491534 178.75108049232324 1174.9999999999995 180.98965674316926 1174.9999999999995 183.75108049232324 Z" fill-opacity="1"/><path fill="none" stroke="rgb(0,0,0)" paint-order="fill stroke markers" d=" M 1174.9999999999995 183.75108049232324 C 1174.9999999999995 186.51250424147722 1172.7614237491534 188.75108049232324 1169.9999999999995 188.75108049232324 C 1167.2385762508457 188.75108049232324 1164.9999999999995 186.51250424147722 1164.9999999999995 183.75108049232324 C 1164.9999999999995 180.98965674316926 1167.2385762508457 178.75108049232324 1169.9999999999995 178.75108049232324 C 1172.7614237491534 178.75108049232324 1174.9999999999995 180.98965674316926 1174.9999999999995 183.75108049232324 Z" stroke-opacity="1" stroke-linecap="round" stroke-linejoin="round" stroke-miterlimit="10"/><path fill="rgb(21,101,192)" stroke="none" paint-order="stroke fill markers" d=" M 175 183.75108049232324 C 175 186.51250424147722 172.76142374915398 188.75108049232324 170 188.75108049232324 C 167.23857625084602 188.75108049232324 165 186.51250424147722 165 183.75108049232324 C 165 180.98965674316926 167.23857625084602 178.75108049232324 170 178.75108049232324 C 172.76142374915398 178.75108049232324 175 180.98965674316926 175 183.75108049232324 Z" fill-opacity="1"/><path fill="none" stroke="rgb(0,0,0)" paint-order="fill stroke markers" d=" M 175 183.75108049232324 C 175 186.51250424147722 172.76142374915398 188.75108049232324 170 188.75108049232324 C 167.23857625084602 188.75108049232324 165 186.51250424147722 165 183.75108049232324 C 165 180.98965674316926 167.23857625084602 178.75108049232324 170 178.75108049232324 C 172.76142374915398 178.75108049232324 175 180.98965674316926 175 183.75108049232324 Z" stroke-opacity="1" stroke-linecap="round" stroke-linejoin="round" stroke-miterlimit="10"/><path fill="rgb(46,125,50)" stroke="none" paint-order="stroke fill markers" d=" M 424.9999999999999 183.75108049232324 C 424.9999999999999 186.51250424147722 422.76142374915383 188.75108049232324 419.9999999999999 188.75108049232324 C 417.23857625084594 188.75108049232324 414.9999999999999 186.51250424147722 414.9999999999999 183.75108049232324 C 414.9999999999999 180.98965674316926 417.23857625084594 178.75108049232324 419.9999999999999 178.75108049232324 C 422.76142374915383 178.75108049232324 424.9999999999999 180.98965674316926 424.9999999999999 183.75108049232324 Z" fill-opacity="1"/><path fill="none" stroke="rgb(0,0,0)" paint-order="fill stroke markers" d=" M 424.9999999999999 183.75108049232324 C 424.9999999999999 186.51250424147722 422.76142374915383 188.75108049232324 419.9999999999999 188.75108049232324 C 417.23857625084594 188.75108049232324 414.9999999999999 186.51250424147722 414.9999999999999 183.75108049232324 C 414.9999999999999 180.98965674316926 417.23857625084594 178.75108049232324 419.9999999999999 178.75108049232324 C 422.76142374915383 178.75108049232324 424.9999999999999 180.98965674316926 424.9999999999999 183.75108049232324 Z" stroke-opacity="1" stroke-linecap="round" stroke-linejoin="round" stroke-miterlimit="10"/><path fill="rgb(46,125,50)" stroke="none" paint-order="stroke fill markers" d=" M 924.9999999999997 183.75108049232324 C 924.9999999999997 186.51250424147722 922.7614237491537 188.75108049232324 919.9999999999997 188.75108049232324 C 917.2385762508457 188.75108049232324 914.9999999999997 186.51250424147722 914.9999999999997 183.75108049232324 C 914.9999999999997 180.98965674316926 917.2385762508457 178.75108049232324 919.9999999999997 178.75108049232324 C 922.7614237491537 178.75108049232324 924.9999999999997 180.98965674316926 924.9999999999997 183.75108049232324 Z" fill-opacity="1"/><path fill="none" stroke="rgb(0,0,0)" paint-order="fill stroke markers" d=" M 924.9999999999997 183.75108049232324 C 924.9999999999997 186.51250424147722 922.7614237491537 188.75108049232324 919.9999999999997 188.75108049232324 C 917.2385762508457 188.75108049232324 914.9999999999997 186.51250424147722 914.9999999999997 183.75108049232324 C 914.9999999999997 180.98965674316926 917.2385762508457 178.75108049232324 919.9999999999997 178.75108049232324 C 922.7614237491537 178.75108049232324 924.9999999999997 180.98965674316926 924.9999999999997 183.75108049232324 Z" stroke-opacity="1" stroke-linecap="round" stroke-linejoin="round" stroke-miterlimit="10"/></g></g></svg>