<?xml version="1.0" encoding="UTF-8"?>
<svg xmlns="http://www.w3.org/2000/svg" xmlns:xlink="http://www.w3.org/1999/xlink" width="1366pt" height="565pt" viewBox="0 0 1366 565" version="1.1">
<g id="surface1">
<path style="fill:none;stroke-width:3;stroke-linecap:round;stroke-linejoin:round;stroke:rgb(0%,0%,100%);stroke-opacity:1;stroke-miterlimit:10;" d="M 472.878906 276.578125 C 472.878906 211.441406 420.070312 158.628906 354.929688 158.628906 C 289.789062 158.628906 236.980469 211.441406 236.980469 276.578125 C 236.980469 341.730469 289.789062 394.539062 354.929688 394.539062 C 420.070312 394.539062 472.878906 341.730469 472.878906 276.578125 Z M 472.878906 276.578125 " transform="matrix(1,0,0,-1,0,565)"/>
<path style="fill:none;stroke-width:3;stroke-linecap:round;stroke-linejoin:round;stroke:rgb(0%,0%,100%);stroke-opacity:1;stroke-miterlimit:10;" d="M 574.5 336.460938 C 574.5 271.320312 521.699219 218.511719 456.550781 218.511719 C 391.410156 218.511719 338.601562 271.320312 338.601562 336.460938 C 338.601562 401.609375 391.410156 454.410156 456.550781 454.410156 C 521.699219 454.410156 574.5 401.609375 574.5 336.460938 Z M 574.5 336.460938 " transform="matrix(1,0,0,-1,0,565)"/>
<path style="fill:none;stroke-width:3;stroke-linecap:round;stroke-linejoin:round;stroke:rgb(0%,0%,100%);stroke-opacity:1;stroke-miterlimit:10;" d="M 575.550781 218.519531 C 575.550781 153.371094 522.738281 100.558594 457.601562 100.558594 C 392.449219 100.558594 339.648438 153.371094 339.648438 218.519531 C 339.648438 283.660156 392.449219 336.46875 457.601562 336.46875 C 522.738281 336.46875 575.550781 283.660156 575.550781 218.519531 Z M 575.550781 218.519531 " transform="matrix(1,0,0,-1,0,565)"/>
<path style="fill:none;stroke-width:3;stroke-linecap:round;stroke-linejoin:round;stroke:rgb(0%,0%,100%);stroke-opacity:1;stroke-miterlimit:10;" d="M 473.921875 158.640625 C 473.921875 93.5 421.121094 40.691406 355.96875 40.691406 C 290.828125 40.691406 238.019531 93.5 238.019531 158.640625 C 238.019531 223.78125 290.828125 276.589844 355.96875 276.589844 C 421.121094 276.589844 473.921875 223.78125 473.921875 158.640625 Z M 473.921875 158.640625 " transform="matrix(1,0,0,-1,0,565)"/>
<path style="fill:none;stroke-width:3;stroke-linecap:round;stroke-linejoin:round;stroke:rgb(0%,0%,100%);stroke-opacity:1;stroke-miterlimit:10;" d="M 371.261719 216.710938 C 371.261719 151.558594 318.449219 98.761719 253.308594 98.761719 C 188.160156 98.761719 135.359375 151.558594 135.359375 216.710938 C 135.359375 281.851562 188.160156 334.660156 253.308594 334.660156 C 318.449219 334.660156 371.261719 281.851562 371.261719 216.710938 Z M 371.261719 216.710938 " transform="matrix(1,0,0,-1,0,565)"/>
<path style="fill:none;stroke-width:3;stroke-linecap:round;stroke-linejoin:round;stroke:rgb(0%,0%,100%);stroke-opacity:1;stroke-miterlimit:10;" d="M 370.210938 334.648438 C 370.210938 269.511719 317.410156 216.699219 252.261719 216.699219 C 187.121094 216.699219 134.308594 269.511719 134.308594 334.648438 C 134.308594 399.800781 187.121094 452.609375 252.261719 452.609375 C 317.410156 452.609375 370.210938 399.800781 370.210938 334.648438 Z M 370.210938 334.648438 " transform="matrix(1,0,0,-1,0,565)"/>
<path style="fill:none;stroke-width:3;stroke-linecap:round;stroke-linejoin:round;stroke:rgb(0%,0%,100%);stroke-opacity:1;stroke-dasharray:15.33,15.33;stroke-miterlimit:10;" d="M 352.371094 565.5 L 357.390625 -1.5 " transform="matrix(1,0,0,-1,0,565)"/>
<path style="fill:none;stroke-width:3;stroke-linecap:round;stroke-linejoin:round;stroke:rgb(0%,0%,100%);stroke-opacity:1;stroke-miterlimit:10;" d="M 471.839844 394.53125 C 471.839844 329.390625 419.03125 276.578125 353.890625 276.578125 C 288.738281 276.578125 235.929688 329.390625 235.929688 394.53125 C 235.929688 459.671875 288.738281 512.480469 353.890625 512.480469 C 419.03125 512.480469 471.839844 459.671875 471.839844 394.53125 Z M 471.839844 394.53125 " transform="matrix(1,0,0,-1,0,565)"/>
<path style="fill:none;stroke-width:3;stroke-linecap:round;stroke-linejoin:round;stroke:rgb(0%,0%,100%);stroke-opacity:1;stroke-dasharray:16.21,16.21;stroke-miterlimit:10;" d="M 675.078125 465.21875 L 354.929688 276.578125 " transform="matrix(1,0,0,-1,0,565)"/>
<path style="fill:none;stroke-width:3;stroke-linecap:round;stroke-linejoin:round;stroke:rgb(0%,0%,100%);stroke-opacity:1;stroke-dasharray:15.78,15.78;stroke-miterlimit:10;" d="M 685.46875 279.511719 L 354.929688 276.578125 " transform="matrix(1,0,0,-1,0,565)"/>
<path style="fill:none;stroke-width:3;stroke-linecap:round;stroke-linejoin:round;stroke:rgb(0%,0%,100%);stroke-opacity:1;stroke-dasharray:16.22,16.22;stroke-miterlimit:10;" d="M 678.53125 93.550781 L 354.929688 276.578125 " transform="matrix(1,0,0,-1,0,565)"/>
<path style="fill:none;stroke-width:3;stroke-linecap:round;stroke-linejoin:round;stroke:rgb(0%,0%,100%);stroke-opacity:1;stroke-dasharray:15.11,15.11;stroke-miterlimit:10;" d="M 53.5 449.5 L 354.929688 276.578125 " transform="matrix(1,0,0,-1,0,565)"/>
<path style="fill:none;stroke-width:3;stroke-linecap:round;stroke-linejoin:round;stroke:rgb(0%,0%,100%);stroke-opacity:1;stroke-dasharray:16.36,16.36;stroke-miterlimit:10;" d="M 45.511719 273.851562 L 354.929688 276.578125 " transform="matrix(1,0,0,-1,0,565)"/>
<path style="fill:none;stroke-width:3;stroke-linecap:round;stroke-linejoin:round;stroke:rgb(0%,0%,100%);stroke-opacity:1;stroke-dasharray:15.12,15.12;stroke-miterlimit:10;" d="M 54.5 101.5 L 354.929688 276.578125 " transform="matrix(1,0,0,-1,0,565)"/>
<path style="fill-rule:nonzero;fill:rgb(100%,0%,0%);fill-opacity:1;stroke-width:1;stroke-linecap:square;stroke-linejoin:miter;stroke:rgb(0%,0%,0%);stroke-opacity:1;stroke-miterlimit:10;" d="M 359.929688 276.578125 C 359.929688 273.820312 357.691406 271.578125 354.929688 271.578125 C 352.171875 271.578125 349.929688 273.820312 349.929688 276.578125 C 349.929688 279.351562 352.171875 281.578125 354.929688 281.578125 C 357.691406 281.578125 359.929688 279.351562 359.929688 276.578125 Z M 359.929688 276.578125 " transform="matrix(1,0,0,-1,0,565)"/>
<path style="fill-rule:nonzero;fill:rgb(100%,0%,0%);fill-opacity:1;stroke-width:1;stroke-linecap:square;stroke-linejoin:miter;stroke:rgb(0%,0%,0%);stroke-opacity:1;stroke-miterlimit:10;" d="M 461.550781 336.460938 C 461.550781 333.699219 459.308594 331.460938 456.550781 331.460938 C 453.789062 331.460938 451.550781 333.699219 451.550781 336.460938 C 451.550781 339.21875 453.789062 341.460938 456.550781 341.460938 C 459.308594 341.460938 461.550781 339.21875 461.550781 336.460938 Z M 461.550781 336.460938 " transform="matrix(1,0,0,-1,0,565)"/>
<path style="fill-rule:nonzero;fill:rgb(69.802856%,0%,0%);fill-opacity:1;stroke-width:1;stroke-linecap:square;stroke-linejoin:miter;stroke:rgb(0%,0%,0%);stroke-opacity:1;stroke-miterlimit:10;" d="M 462.601562 218.519531 C 462.601562 215.75 460.359375 213.519531 457.601562 213.519531 C 454.839844 213.519531 452.601562 215.75 452.601562 218.519531 C 452.601562 221.28125 454.839844 223.519531 457.601562 223.519531 C 460.359375 223.519531 462.601562 221.28125 462.601562 218.519531 Z M 462.601562 218.519531 " transform="matrix(1,0,0,-1,0,565)"/>
<path style="fill-rule:nonzero;fill:rgb(69.802856%,0%,0%);fill-opacity:1;stroke-width:1;stroke-linecap:square;stroke-linejoin:miter;stroke:rgb(0%,0%,0%);stroke-opacity:1;stroke-miterlimit:10;" d="M 360.96875 158.640625 C 360.96875 155.878906 358.730469 153.640625 355.96875 153.640625 C 353.210938 153.640625 350.96875 155.878906 350.96875 158.640625 C 350.96875 161.398438 353.210938 163.640625 355.96875 163.640625 C 358.730469 163.640625 360.96875 161.398438 360.96875 158.640625 Z M 360.96875 158.640625 " transform="matrix(1,0,0,-1,0,565)"/>
<path style="fill-rule:nonzero;fill:rgb(69.802856%,0%,0%);fill-opacity:1;stroke-width:1;stroke-linecap:square;stroke-linejoin:miter;stroke:rgb(0%,0%,0%);stroke-opacity:1;stroke-miterlimit:10;" d="M 258.308594 216.710938 C 258.308594 213.949219 256.070312 211.710938 253.308594 211.710938 C 250.550781 211.710938 248.308594 213.949219 248.308594 216.710938 C 248.308594 219.46875 250.550781 221.710938 253.308594 221.710938 C 256.070312 221.710938 258.308594 219.46875 258.308594 216.710938 Z M 258.308594 216.710938 " transform="matrix(1,0,0,-1,0,565)"/>
<path style="fill-rule:nonzero;fill:rgb(69.802856%,0%,0%);fill-opacity:1;stroke-width:1;stroke-linecap:square;stroke-linejoin:miter;stroke:rgb(0%,0%,0%);stroke-opacity:1;stroke-miterlimit:10;" d="M 257.261719 334.648438 C 257.261719 331.890625 255.019531 329.648438 252.261719 329.648438 C 249.5 329.648438 247.261719 331.890625 247.261719 334.648438 C 247.261719 337.421875 249.5 339.648438 252.261719 339.648438 C 255.019531 339.648438 257.261719 337.421875 257.261719 334.648438 Z M 257.261719 334.648438 " transform="matrix(1,0,0,-1,0,565)"/>
<path style="fill-rule:nonzero;fill:rgb(69.802856%,0%,0%);fill-opacity:1;stroke-width:1;stroke-linecap:square;stroke-linejoin:miter;stroke:rgb(0%,0%,0%);stroke-opacity:1;stroke-miterlimit:10;" d="M 358.890625 394.53125 C 358.890625 391.769531 356.648438 389.53125 353.890625 389.53125 C 351.121094 389.53125 348.890625 391.769531 348.890625 394.53125 C 348.890625 397.289062 351.121094 399.53125 353.890625 399.53125 C 356.648438 399.53125 358.890625 397.289062 358.890625 394.53125 Z M 358.890625 394.53125 " transform="matrix(1,0,0,-1,0,565)"/>
</g>
</svg>
