<svg version="1.1" xmlns="http://www.w3.org/2000/svg" xmlns:xlink="http://www.w3.org/1999/xlink" width="1310" height="605"><defs><clipPath id="blGtGDOlQfcB"><path fill="none" stroke="none" d=" M 0 0 L 1310 0 L 1310 605 L 0 605 L 0 0 Z"/></clipPath></defs><g transform="scale(1,1)" clip-path="url(#blGtGDOlQfcB)"><g><rect fill="rgb(255,255,255)" stroke="none" x="0" y="0" width="1310" height="605" fill-opacity="1"/><path fill="none" stroke="rgb(0,0,0)" paint-order="fill stroke markers" d=" M 1147.2433699999997 549.4294450000002 C 1147.2433699999997 282.59141126500265 930.928403734997 66.27644499999974 664.0903699999998 66.27644499999974 C 397.25233626500267 66.27644499999974 180.93737000000004 282.5914112650026 180.93737 549.4294450000001" stroke-opacity="0.6980392156862745" stroke-linecap="round" stroke-linejoin="round" stroke-miterlimit="10" stroke-width="2.5"/><path fill="rgb(0,0,0)" stroke="none" paint-order="stroke fill markers" fill-rule="evenodd" d=" M 368.64457564588724 167.13557373410134 L 359.29505400796245 186.17727652408092 L 378.33675679794266 195.52679816200765 L 387.6862784358668 176.48509537202617 L 368.64457564588724 167.13557373410134" fill-opacity="0.09803921568627451"/><path fill="none" stroke="rgb(0,0,0)" paint-order="fill stroke markers" d=" M 368.64457564588724 167.13557373410134 L 359.29505400796245 186.17727652408092 L 378.33675679794266 195.52679816200765 L 387.6862784358668 176.48509537202617 L 368.64457564588724 167.13557373410134" stroke-opacity="0.6" stroke-linecap="round" stroke-linejoin="round" stroke-miterlimit="10" stroke-width="2.5"/><path fill="none" stroke="rgb(0,0,0)" paint-order="fill stroke markers" d=" M 180.93737 549.4294450000002 L 1147.2433699999997 549.4294450000002" stroke-opacity="0.6980392156862745" stroke-linecap="round" stroke-linejoin="round" stroke-miterlimit="10" stroke-width="2.5"/><path fill="none" stroke="rgb(0,0,0)" paint-order="fill stroke markers" d=" M 180.93737 549.4294450000002 L 368.64457564588724 167.13557373410134" stroke-opacity="0.6980392156862745" stroke-linecap="round" stroke-linejoin="round" stroke-miterlimit="10" stroke-width="2.5"/><path fill="none" stroke="rgb(0,0,0)" paint-order="fill stroke markers" d=" M 368.64457564588724 167.13557373410134 L 1147.2433699999997 549.4294450000002" stroke-opacity="0.6980392156862745" stroke-linecap="round" stroke-linejoin="round" stroke-miterlimit="10" stroke-width="2.5"/><path fill="rgb(21,101,192)" stroke="none" paint-order="stroke fill markers" d=" M 185.93737 549.4294450000002 C 185.93737 552.1908687491542 183.69879374915396 554.4294450000002 180.93737 554.4294450000002 C 178.175946250846 554.4294450000002 175.93737 552.1908687491542 175.93737 549.4294450000002 C 175.93737 546.6680212508462 178.175946250846 544.4294450000002 180.93737 544.4294450000002 C 183.69879374915396 544.4294450000002 185.93737 546.6680212508462 185.93737 549.4294450000002 Z" fill-opacity="1"/><path fill="none" stroke="rgb(0,0,0)" paint-order="fill stroke markers" d=" M 185.93737 549.4294450000002 C 185.93737 552.1908687491542 183.69879374915396 554.4294450000002 180.93737 554.4294450000002 C 178.175946250846 554.4294450000002 175.93737 552.1908687491542 175.93737 549.4294450000002 C 175.93737 546.6680212508462 178.175946250846 544.4294450000002 180.93737 544.4294450000002 C 183.69879374915396 544.4294450000002 185.93737 546.6680212508462 185.93737 549.4294450000002 Z" stroke-opacity="1" stroke-linecap="round" stroke-linejoin="round" stroke-miterlimit="10"/><path fill="rgb(21,101,192)" stroke="none" paint-order="stroke fill markers" d=" M 1152.2433699999997 549.4294450000002 C 1152.2433699999997 552.1908687491542 1150.0047937491536 554.4294450000002 1147.2433699999997 554.4294450000002 C 1144.4819462508458 554.4294450000002 1142.2433699999997 552.1908687491542 1142.2433699999997 549.4294450000002 C 1142.2433699999997 546.6680212508462 1144.4819462508458 544.4294450000002 1147.2433699999997 544.4294450000002 C 1150.0047937491536 544.4294450000002 1152.2433699999997 546.6680212508462 1152.2433699999997 549.4294450000002 Z" fill-opacity="1"/><path fill="none" stroke="rgb(0,0,0)" paint-order="fill stroke markers" d=" M 1152.2433699999997 549.4294450000002 C 1152.2433699999997 552.1908687491542 1150.0047937491536 554.4294450000002 1147.2433699999997 554.4294450000002 C 1144.4819462508458 554.4294450000002 1142.2433699999997 552.1908687491542 1142.2433699999997 549.4294450000002 C 1142.2433699999997 546.6680212508462 1144.4819462508458 544.4294450000002 1147.2433699999997 544.4294450000002 C 1150.0047937491536 544.4294450000002 1152.2433699999997 546.6680212508462 1152.2433699999997 549.4294450000002 Z" stroke-opacity="1" stroke-linecap="round" stroke-linejoin="round" stroke-miterlimit="10"/><path fill="rgb(21,101,192)" stroke="none" paint-order="stroke fill markers" d=" M 669.0903699999998 549.4294450000002 C 669.0903699999998 552.1908687491542 666.8517937491538 554.4294450000002 664.0903699999998 554.4294450000002 C 661.3289462508458 554.4294450000002 659.0903699999998 552.1908687491542 659.0903699999998 549.4294450000002 C 659.0903699999998 546.6680212508462 661.3289462508458 544.4294450000002 664.0903699999998 544.4294450000002 C 666.8517937491538 544.4294450000002 669.0903699999998 546.6680212508462 669.0903699999998 549.4294450000002 Z" fill-opacity="1"/><path fill="none" stroke="rgb(0,0,0)" paint-order="fill stroke markers" d=" M 669.0903699999998 549.4294450000002 C 669.0903699999998 552.1908687491542 666.8517937491538 554.4294450000002 664.0903699999998 554.4294450000002 C 661.3289462508458 554.4294450000002 659.0903699999998 552.1908687491542 659.0903699999998 549.4294450000002 C 659.0903699999998 546.6680212508462 661.3289462508458 544.4294450000002 664.0903699999998 544.4294450000002 C 666.8517937491538 544.4294450000002 669.0903699999998 546.6680212508462 669.0903699999998 549.4294450000002 Z" stroke-opacity="1" stroke-linecap="round" stroke-linejoin="round" stroke-miterlimit="10"/><path fill="rgb(21,101,192)" stroke="none" paint-order="stroke fill markers" d=" M 373.64457564588724 167.13557373410134 C 373.64457564588724 169.89699748325532 371.4059993950412 172.13557373410134 368.64457564588724 172.13557373410134 C 365.8831518967333 172.13557373410134 363.64457564588724 169.89699748325532 363.64457564588724 167.13557373410134 C 363.64457564588724 164.37414998494737 365.8831518967333 162.13557373410134 368.64457564588724 162.13557373410134 C 371.4059993950412 162.13557373410134 373.64457564588724 164.37414998494737 373.64457564588724 167.13557373410134 Z" fill-opacity="1"/><path fill="none" stroke="rgb(0,0,0)" paint-order="fill stroke markers" d=" M 373.64457564588724 167.13557373410134 C 373.64457564588724 169.89699748325532 371.4059993950412 172.13557373410134 368.64457564588724 172.13557373410134 C 365.8831518967333 172.13557373410134 363.64457564588724 169.89699748325532 363.64457564588724 167.13557373410134 C 363.64457564588724 164.37414998494737 365.8831518967333 162.13557373410134 368.64457564588724 162.13557373410134 C 371.4059993950412 162.13557373410134 373.64457564588724 164.37414998494737 373.64457564588724 167.13557373410134 Z" stroke-opacity="1" stroke-linecap="round" stroke-linejoin="round" stroke-miterlimit="10"/></g></g></svg>