<svg version="1.1" xmlns="http://www.w3.org/2000/svg" xmlns:xlink="http://www.w3.org/1999/xlink" width="1310" height="556"><defs><clipPath id="WtwZPXvEMVTq"><path fill="none" stroke="none" d=" M 0 0 L 1310 0 L 1310 556 L 0 556 L 0 0 Z"/></clipPath></defs><g transform="scale(1,1)" clip-path="url(#WtwZPXvEMVTq)"><g><rect fill="rgb(255,255,255)" stroke="none" x="0" y="0" width="1310" height="556" fill-opacity="1"/><path fill="none" stroke="rgb(0,0,0)" paint-order="fill stroke markers" d=" M 882.3565382505969 293.17727990425004 C 882.3565382505969 424.40364735549525 775.9765486705287 530.7836369355637 644.7501812192838 530.7836369355637 C 513.523813768039 530.7836369355637 407.14382418797084 424.40364735549525 407.14382418797084 293.17727990425004 C 407.14382418797084 161.95091245300483 513.523813768039 55.57092287293642 644.7501812192838 55.57092287293642 C 775.9765486705287 55.57092287293642 882.3565382505969 161.95091245300483 882.3565382505969 293.17727990425004 Z" stroke-opacity="0.6980392156862745" stroke-linecap="round" stroke-linejoin="round" stroke-miterlimit="10" stroke-width="2.5"/><path fill="none" stroke="rgb(0,0,0)" paint-order="fill stroke markers" d=" M 644.7501812192838 55.57092287293642 L 418.7731070515008 219.75287761005288" stroke-opacity="0.6980392156862745" stroke-linecap="round" stroke-linejoin="round" stroke-miterlimit="10" stroke-width="2.5"/><path fill="none" stroke="rgb(0,0,0)" paint-order="fill stroke markers" d=" M 418.7731070515008 219.75287761005288 L 505.088668705338 485.40486071410396" stroke-opacity="0.6980392156862745" stroke-linecap="round" stroke-linejoin="round" stroke-miterlimit="10" stroke-width="2.5"/><path fill="none" stroke="rgb(0,0,0)" paint-order="fill stroke markers" d=" M 505.088668705338 485.40486071410396 L 784.4116937332296 485.404860714104" stroke-opacity="0.6980392156862745" stroke-linecap="round" stroke-linejoin="round" stroke-miterlimit="10" stroke-width="2.5"/><path fill="none" stroke="rgb(0,0,0)" paint-order="fill stroke markers" d=" M 784.4116937332296 485.404860714104 L 870.7272553870669 219.75287761005285" stroke-opacity="0.6980392156862745" stroke-linecap="round" stroke-linejoin="round" stroke-miterlimit="10" stroke-width="2.5"/><path fill="none" stroke="rgb(0,0,0)" paint-order="fill stroke markers" d=" M 644.7501812192838 55.57092287293642 L 870.7272553870669 219.75287761005285" stroke-opacity="0.6980392156862745" stroke-linecap="round" stroke-linejoin="round" stroke-miterlimit="10" stroke-width="2.5"/><path fill="none" stroke="rgb(0,0,0)" paint-order="fill stroke markers" d=" M 591.8827667798167 318.71996328511625 L 591.8827667798166 485.404860714104" stroke-opacity="0.6980392156862745" stroke-linecap="round" stroke-linejoin="round" stroke-miterlimit="10" stroke-width="2.5"/><path fill="none" stroke="rgb(0,0,0)" paint-order="fill stroke markers" d=" M 591.8827667798167 318.71996328511625 L 464.3893053214066 360.1451000538647" stroke-opacity="0.6980392156862745" stroke-linecap="round" stroke-linejoin="round" stroke-miterlimit="10" stroke-width="2.5"/><path fill="none" stroke="rgb(0,0,0)" paint-order="fill stroke markers" d=" M 591.8827667798167 318.71996328511625 L 485.01320442391096 171.62662980978058" stroke-opacity="0.6980392156862745" stroke-linecap="round" stroke-linejoin="round" stroke-miterlimit="10" stroke-width="2.5"/><path fill="none" stroke="rgb(0,0,0)" paint-order="fill stroke markers" d=" M 591.8827667798167 318.71996328511625 L 735.2828140647307 121.34673080744872" stroke-opacity="0.6980392156862745" stroke-linecap="round" stroke-linejoin="round" stroke-miterlimit="10" stroke-width="2.5"/><path fill="none" stroke="rgb(0,0,0)" paint-order="fill stroke markers" d=" M 591.8827667798167 318.71996328511625 L 815.0142794078863 391.2197865882177" stroke-opacity="0.6980392156862745" stroke-linecap="round" stroke-linejoin="round" stroke-miterlimit="10" stroke-width="2.5"/><path fill="rgb(211,47,47)" stroke="none" paint-order="stroke fill markers" d=" M 649.7501812192838 293.17727990425004 C 649.7501812192838 295.938703653404 647.5116049684378 298.17727990425004 644.7501812192838 298.17727990425004 C 641.9887574701298 298.17727990425004 639.7501812192838 295.938703653404 639.7501812192838 293.17727990425004 C 639.7501812192838 290.4158561550961 641.9887574701298 288.17727990425004 644.7501812192838 288.17727990425004 C 647.5116049684378 288.17727990425004 649.7501812192838 290.4158561550961 649.7501812192838 293.17727990425004 Z" fill-opacity="1"/><path fill="none" stroke="rgb(0,0,0)" paint-order="fill stroke markers" d=" M 649.7501812192838 293.17727990425004 C 649.7501812192838 295.938703653404 647.5116049684378 298.17727990425004 644.7501812192838 298.17727990425004 C 641.9887574701298 298.17727990425004 639.7501812192838 295.938703653404 639.7501812192838 293.17727990425004 C 639.7501812192838 290.4158561550961 641.9887574701298 288.17727990425004 644.7501812192838 288.17727990425004 C 647.5116049684378 288.17727990425004 649.7501812192838 290.4158561550961 649.7501812192838 293.17727990425004 Z" stroke-opacity="1" stroke-linecap="round" stroke-linejoin="round" stroke-miterlimit="10"/><path fill="rgb(21,101,192)" stroke="none" paint-order="stroke fill markers" d=" M 649.7501812192838 55.57092287293642 C 649.7501812192838 58.332346622090384 647.5116049684378 60.57092287293642 644.7501812192838 60.57092287293642 C 641.9887574701298 60.57092287293642 639.7501812192838 58.332346622090384 639.7501812192838 55.57092287293642 C 639.7501812192838 52.80949912378245 641.9887574701298 50.57092287293642 644.7501812192838 50.57092287293642 C 647.5116049684378 50.57092287293642 649.7501812192838 52.80949912378245 649.7501812192838 55.57092287293642 Z" fill-opacity="1"/><path fill="none" stroke="rgb(0,0,0)" paint-order="fill stroke markers" d=" M 649.7501812192838 55.57092287293642 C 649.7501812192838 58.332346622090384 647.5116049684378 60.57092287293642 644.7501812192838 60.57092287293642 C 641.9887574701298 60.57092287293642 639.7501812192838 58.332346622090384 639.7501812192838 55.57092287293642 C 639.7501812192838 52.80949912378245 641.9887574701298 50.57092287293642 644.7501812192838 50.57092287293642 C 647.5116049684378 50.57092287293642 649.7501812192838 52.80949912378245 649.7501812192838 55.57092287293642 Z" stroke-opacity="1" stroke-linecap="round" stroke-linejoin="round" stroke-miterlimit="10"/><path fill="rgb(21,101,192)" stroke="none" paint-order="stroke fill markers" d=" M 875.7272553870669 219.75287761005285 C 875.7272553870669 222.51430135920683 873.4886791362209 224.75287761005285 870.7272553870669 224.75287761005285 C 867.9658316379129 224.75287761005285 865.7272553870669 222.51430135920683 865.7272553870669 219.75287761005285 C 865.7272553870669 216.99145386089887 867.9658316379129 214.75287761005285 870.7272553870669 214.75287761005285 C 873.4886791362209 214.75287761005285 875.7272553870669 216.99145386089887 875.7272553870669 219.75287761005285 Z" fill-opacity="1"/><path fill="none" stroke="rgb(0,0,0)" paint-order="fill stroke markers" d=" M 875.7272553870669 219.75287761005285 C 875.7272553870669 222.51430135920683 873.4886791362209 224.75287761005285 870.7272553870669 224.75287761005285 C 867.9658316379129 224.75287761005285 865.7272553870669 222.51430135920683 865.7272553870669 219.75287761005285 C 865.7272553870669 216.99145386089887 867.9658316379129 214.75287761005285 870.7272553870669 214.75287761005285 C 873.4886791362209 214.75287761005285 875.7272553870669 216.99145386089887 875.7272553870669 219.75287761005285 Z" stroke-opacity="1" stroke-linecap="round" stroke-linejoin="round" stroke-miterlimit="10"/><path fill="rgb(21,101,192)" stroke="none" paint-order="stroke fill markers" d=" M 423.7731070515008 219.75287761005288 C 423.7731070515008 222.51430135920685 421.53453080065475 224.75287761005288 418.7731070515008 224.75287761005288 C 416.01168330234685 224.75287761005288 413.7731070515008 222.51430135920685 413.7731070515008 219.75287761005288 C 413.7731070515008 216.9914538608989 416.01168330234685 214.75287761005288 418.7731070515008 214.75287761005288 C 421.53453080065475 214.75287761005288 423.7731070515008 216.9914538608989 423.7731070515008 219.75287761005288 Z" fill-opacity="1"/><path fill="none" stroke="rgb(0,0,0)" paint-order="fill stroke markers" d=" M 423.7731070515008 219.75287761005288 C 423.7731070515008 222.51430135920685 421.53453080065475 224.75287761005288 418.7731070515008 224.75287761005288 C 416.01168330234685 224.75287761005288 413.7731070515008 222.51430135920685 413.7731070515008 219.75287761005288 C 413.7731070515008 216.9914538608989 416.01168330234685 214.75287761005288 418.7731070515008 214.75287761005288 C 421.53453080065475 214.75287761005288 423.7731070515008 216.9914538608989 423.7731070515008 219.75287761005288 Z" stroke-opacity="1" stroke-linecap="round" stroke-linejoin="round" stroke-miterlimit="10"/><path fill="rgb(21,101,192)" stroke="none" paint-order="stroke fill markers" d=" M 789.4116937332296 485.404860714104 C 789.4116937332296 488.16628446325797 787.1731174823836 490.404860714104 784.4116937332296 490.404860714104 C 781.6502699840756 490.404860714104 779.4116937332296 488.16628446325797 779.4116937332296 485.404860714104 C 779.4116937332296 482.64343696495007 781.6502699840756 480.404860714104 784.4116937332296 480.404860714104 C 787.1731174823836 480.404860714104 789.4116937332296 482.64343696495007 789.4116937332296 485.404860714104 Z" fill-opacity="1"/><path fill="none" stroke="rgb(0,0,0)" paint-order="fill stroke markers" d=" M 789.4116937332296 485.404860714104 C 789.4116937332296 488.16628446325797 787.1731174823836 490.404860714104 784.4116937332296 490.404860714104 C 781.6502699840756 490.404860714104 779.4116937332296 488.16628446325797 779.4116937332296 485.404860714104 C 779.4116937332296 482.64343696495007 781.6502699840756 480.404860714104 784.4116937332296 480.404860714104 C 787.1731174823836 480.404860714104 789.4116937332296 482.64343696495007 789.4116937332296 485.404860714104 Z" stroke-opacity="1" stroke-linecap="round" stroke-linejoin="round" stroke-miterlimit="10"/><path fill="rgb(21,101,192)" stroke="none" paint-order="stroke fill markers" d=" M 510.088668705338 485.40486071410396 C 510.088668705338 488.1662844632579 507.85009245449197 490.40486071410396 505.088668705338 490.40486071410396 C 502.3272449561841 490.40486071410396 500.088668705338 488.1662844632579 500.088668705338 485.40486071410396 C 500.088668705338 482.64343696495 502.3272449561841 480.40486071410396 505.088668705338 480.40486071410396 C 507.85009245449197 480.40486071410396 510.088668705338 482.64343696495 510.088668705338 485.40486071410396 Z" fill-opacity="1"/><path fill="none" stroke="rgb(0,0,0)" paint-order="fill stroke markers" d=" M 510.088668705338 485.40486071410396 C 510.088668705338 488.1662844632579 507.85009245449197 490.40486071410396 505.088668705338 490.40486071410396 C 502.3272449561841 490.40486071410396 500.088668705338 488.1662844632579 500.088668705338 485.40486071410396 C 500.088668705338 482.64343696495 502.3272449561841 480.40486071410396 505.088668705338 480.40486071410396 C 507.85009245449197 480.40486071410396 510.088668705338 482.64343696495 510.088668705338 485.40486071410396 Z" stroke-opacity="1" stroke-linecap="round" stroke-linejoin="round" stroke-miterlimit="10"/><path fill="rgb(211,47,47)" stroke="none" paint-order="stroke fill markers" d=" M 596.8827667798167 318.71996328511625 C 596.8827667798167 321.4813870342702 594.6441905289707 323.71996328511625 591.8827667798167 323.71996328511625 C 589.1213430306627 323.71996328511625 586.8827667798167 321.4813870342702 586.8827667798167 318.71996328511625 C 586.8827667798167 315.9585395359623 589.1213430306627 313.71996328511625 591.8827667798167 313.71996328511625 C 594.6441905289707 313.71996328511625 596.8827667798167 315.9585395359623 596.8827667798167 318.71996328511625 Z" fill-opacity="1"/><path fill="none" stroke="rgb(0,0,0)" paint-order="fill stroke markers" d=" M 596.8827667798167 318.71996328511625 C 596.8827667798167 321.4813870342702 594.6441905289707 323.71996328511625 591.8827667798167 323.71996328511625 C 589.1213430306627 323.71996328511625 586.8827667798167 321.4813870342702 586.8827667798167 318.71996328511625 C 586.8827667798167 315.9585395359623 589.1213430306627 313.71996328511625 591.8827667798167 313.71996328511625 C 594.6441905289707 313.71996328511625 596.8827667798167 315.9585395359623 596.8827667798167 318.71996328511625 Z" stroke-opacity="1" stroke-linecap="round" stroke-linejoin="round" stroke-miterlimit="10"/><path fill="rgb(46,125,50)" stroke="none" paint-order="stroke fill markers" d=" M 596.8827667798166 485.404860714104 C 596.8827667798166 488.16628446325797 594.6441905289706 490.404860714104 591.8827667798166 490.404860714104 C 589.1213430306626 490.404860714104 586.8827667798166 488.16628446325797 586.8827667798166 485.404860714104 C 586.8827667798166 482.64343696495007 589.1213430306626 480.404860714104 591.8827667798166 480.404860714104 C 594.6441905289706 480.404860714104 596.8827667798166 482.64343696495007 596.8827667798166 485.404860714104 Z" fill-opacity="1"/><path fill="none" stroke="rgb(0,0,0)" paint-order="fill stroke markers" d=" M 596.8827667798166 485.404860714104 C 596.8827667798166 488.16628446325797 594.6441905289706 490.404860714104 591.8827667798166 490.404860714104 C 589.1213430306626 490.404860714104 586.8827667798166 488.16628446325797 586.8827667798166 485.404860714104 C 586.8827667798166 482.64343696495007 589.1213430306626 480.404860714104 591.8827667798166 480.404860714104 C 594.6441905289706 480.404860714104 596.8827667798166 482.64343696495007 596.8827667798166 485.404860714104 Z" stroke-opacity="1" stroke-linecap="round" stroke-linejoin="round" stroke-miterlimit="10"/><path fill="rgb(97,97,97)" stroke="none" paint-order="stroke fill markers" d=" M 469.3893053214066 360.1451000538647 C 469.3893053214066 362.9065238030187 467.15072907056054 365.1451000538647 464.3893053214066 365.1451000538647 C 461.62788157225265 365.1451000538647 459.3893053214066 362.9065238030187 459.3893053214066 360.1451000538647 C 459.3893053214066 357.3836763047108 461.62788157225265 355.1451000538647 464.3893053214066 355.1451000538647 C 467.15072907056054 355.1451000538647 469.3893053214066 357.3836763047108 469.3893053214066 360.1451000538647 Z" fill-opacity="1"/><path fill="none" stroke="rgb(0,0,0)" paint-order="fill stroke markers" d=" M 469.3893053214066 360.1451000538647 C 469.3893053214066 362.9065238030187 467.15072907056054 365.1451000538647 464.3893053214066 365.1451000538647 C 461.62788157225265 365.1451000538647 459.3893053214066 362.9065238030187 459.3893053214066 360.1451000538647 C 459.3893053214066 357.3836763047108 461.62788157225265 355.1451000538647 464.3893053214066 355.1451000538647 C 467.15072907056054 355.1451000538647 469.3893053214066 357.3836763047108 469.3893053214066 360.1451000538647 Z" stroke-opacity="1" stroke-linecap="round" stroke-linejoin="round" stroke-miterlimit="10"/><path fill="rgb(46,125,50)" stroke="none" paint-order="stroke fill markers" d=" M 490.01320442391096 171.62662980978058 C 490.01320442391096 174.38805355893456 487.7746281730649 176.62662980978058 485.01320442391096 176.62662980978058 C 482.251780674757 176.62662980978058 480.01320442391096 174.38805355893456 480.01320442391096 171.62662980978058 C 480.01320442391096 168.8652060606266 482.251780674757 166.62662980978058 485.01320442391096 166.62662980978058 C 487.7746281730649 166.62662980978058 490.01320442391096 168.8652060606266 490.01320442391096 171.62662980978058 Z" fill-opacity="1"/><path fill="none" stroke="rgb(0,0,0)" paint-order="fill stroke markers" d=" M 490.01320442391096 171.62662980978058 C 490.01320442391096 174.38805355893456 487.7746281730649 176.62662980978058 485.01320442391096 176.62662980978058 C 482.251780674757 176.62662980978058 480.01320442391096 174.38805355893456 480.01320442391096 171.62662980978058 C 480.01320442391096 168.8652060606266 482.251780674757 166.62662980978058 485.01320442391096 166.62662980978058 C 487.7746281730649 166.62662980978058 490.01320442391096 168.8652060606266 490.01320442391096 171.62662980978058 Z" stroke-opacity="1" stroke-linecap="round" stroke-linejoin="round" stroke-miterlimit="10"/><path fill="rgb(46,125,50)" stroke="none" paint-order="stroke fill markers" d=" M 740.2828140647307 121.34673080744872 C 740.2828140647307 124.10815455660268 738.0442378138847 126.34673080744872 735.2828140647307 126.34673080744872 C 732.5213903155767 126.34673080744872 730.2828140647307 124.10815455660268 730.2828140647307 121.34673080744872 C 730.2828140647307 118.58530705829476 732.5213903155767 116.34673080744872 735.2828140647307 116.34673080744872 C 738.0442378138847 116.34673080744872 740.2828140647307 118.58530705829476 740.2828140647307 121.34673080744872 Z" fill-opacity="1"/><path fill="none" stroke="rgb(0,0,0)" paint-order="fill stroke markers" d=" M 740.2828140647307 121.34673080744872 C 740.2828140647307 124.10815455660268 738.0442378138847 126.34673080744872 735.2828140647307 126.34673080744872 C 732.5213903155767 126.34673080744872 730.2828140647307 124.10815455660268 730.2828140647307 121.34673080744872 C 730.2828140647307 118.58530705829476 732.5213903155767 116.34673080744872 735.2828140647307 116.34673080744872 C 738.0442378138847 116.34673080744872 740.2828140647307 118.58530705829476 740.2828140647307 121.34673080744872 Z" stroke-opacity="1" stroke-linecap="round" stroke-linejoin="round" stroke-miterlimit="10"/><path fill="rgb(97,97,97)" stroke="none" paint-order="stroke fill markers" d=" M 820.0142794078863 391.2197865882177 C 820.0142794078863 393.98121033737164 817.7757031570403 396.2197865882177 815.0142794078863 396.2197865882177 C 812.2528556587323 396.2197865882177 810.0142794078863 393.98121033737164 810.0142794078863 391.2197865882177 C 810.0142794078863 388.45836283906374 812.2528556587323 386.2197865882177 815.0142794078863 386.2197865882177 C 817.7757031570403 386.2197865882177 820.0142794078863 388.45836283906374 820.0142794078863 391.2197865882177 Z" fill-opacity="1"/><path fill="none" stroke="rgb(0,0,0)" paint-order="fill stroke markers" d=" M 820.0142794078863 391.2197865882177 C 820.0142794078863 393.98121033737164 817.7757031570403 396.2197865882177 815.0142794078863 396.2197865882177 C 812.2528556587323 396.2197865882177 810.0142794078863 393.98121033737164 810.0142794078863 391.2197865882177 C 810.0142794078863 388.45836283906374 812.2528556587323 386.2197865882177 815.0142794078863 386.2197865882177 C 817.7757031570403 386.2197865882177 820.0142794078863 388.45836283906374 820.0142794078863 391.2197865882177 Z" stroke-opacity="1" stroke-linecap="round" stroke-linejoin="round" stroke-miterlimit="10"/></g></g></svg>