<svg version="1.1" xmlns="http://www.w3.org/2000/svg" xmlns:xlink="http://www.w3.org/1999/xlink" width="1310" height="556"><defs><clipPath id="NyvGvSbVqiDA"><path fill="none" stroke="none" d=" M 0 0 L 1310 0 L 1310 556 L 0 556 L 0 0 Z"/></clipPath></defs><g transform="scale(1,1)" clip-path="url(#NyvGvSbVqiDA)"><g><rect fill="rgb(255,255,255)" stroke="none" x="0" y="0" width="1310" height="556" fill-opacity="1"/><path fill="none" stroke="rgb(0,0,0)" paint-order="fill stroke markers" d=" M 910.3565382505967 271.17727990425004 C 910.3565382505967 402.40364735549525 803.9765486705285 508.7836369355637 672.7501812192837 508.7836369355637 C 541.5238137680388 508.7836369355637 435.1438241879707 402.40364735549525 435.1438241879707 271.17727990425004 C 435.1438241879707 139.9509124530048 541.5238137680388 33.570922872936364 672.7501812192837 33.570922872936364 C 803.9765486705285 33.570922872936364 910.3565382505967 139.9509124530048 910.3565382505967 271.17727990425004 Z" stroke-opacity="0.6980392156862745" stroke-linecap="round" stroke-linejoin="round" stroke-miterlimit="10" stroke-width="2.5"/><path fill="rgb(0,0,0)" stroke="none" paint-order="stroke fill markers" fill-rule="evenodd" d=" M 600.9999999999999 463.4048607141041 L 622.2132034355949 463.4048607141041 L 622.2132034355964 442.1916572785076 L 600.9999999999999 442.191657278509 L 600.9999999999999 463.4048607141041" fill-opacity="0.09803921568627451"/><path fill="none" stroke="rgb(0,0,0)" paint-order="fill stroke markers" d=" M 600.9999999999999 463.4048607141041 L 622.2132034355949 463.4048607141041 L 622.2132034355964 442.1916572785076 L 600.9999999999999 442.191657278509 L 600.9999999999999 463.4048607141041" stroke-opacity="0.6" stroke-linecap="round" stroke-linejoin="round" stroke-miterlimit="10" stroke-width="2.5"/><path fill="rgb(0,0,0)" stroke="none" paint-order="stroke fill markers" fill-rule="evenodd" d=" M 832.6059487470276 401.2533345126185 L 839.1611891137594 381.07837915370106 L 818.9862337548411 374.52313878696737 L 812.4309933881102 394.6980941458866 L 832.6059487470276 401.2533345126185" fill-opacity="0.09803921568627451"/><path fill="none" stroke="rgb(0,0,0)" paint-order="fill stroke markers" d=" M 832.6059487470276 401.2533345126185 L 839.1611891137594 381.07837915370106 L 818.9862337548411 374.52313878696737 L 812.4309933881102 394.6980941458866 L 832.6059487470276 401.2533345126185" stroke-opacity="0.6" stroke-linecap="round" stroke-linejoin="round" stroke-miterlimit="10" stroke-width="2.5"/><path fill="rgb(0,0,0)" stroke="none" paint-order="stroke fill markers" fill-rule="evenodd" d=" M 764.847367614457 100.48344549866661 L 752.3785594811342 117.64528758319604 L 769.5404015656638 130.11409571652084 L 782.0092096989863 112.95225363198941 L 764.847367614457 100.48344549866661" fill-opacity="0.09803921568627451"/><path fill="none" stroke="rgb(0,0,0)" paint-order="fill stroke markers" d=" M 764.847367614457 100.48344549866661 L 752.3785594811342 117.64528758319604 L 769.5404015656638 130.11409571652084 L 782.0092096989863 112.95225363198941 L 764.847367614457 100.48344549866661" stroke-opacity="0.6" stroke-linecap="round" stroke-linejoin="round" stroke-miterlimit="10" stroke-width="2.5"/><path fill="rgb(0,0,0)" stroke="none" paint-order="stroke fill markers" fill-rule="evenodd" d=" M 486.7307882585858 168.7219228926249 L 499.1995963919086 185.88376497715433 L 516.36143847644 173.41495684383182 L 503.8926303431152 156.2531147593021 L 486.7307882585858 168.7219228926249" fill-opacity="0.09803921568627451"/><path fill="none" stroke="rgb(0,0,0)" paint-order="fill stroke markers" d=" M 486.7307882585858 168.7219228926249 L 499.1995963919086 185.88376497715433 L 516.36143847644 173.41495684383182 L 503.8926303431152 156.2531147593021 L 486.7307882585858 168.7219228926249" stroke-opacity="0.6" stroke-linecap="round" stroke-linejoin="round" stroke-miterlimit="10" stroke-width="2.5"/><path fill="rgb(0,0,0)" stroke="none" paint-order="stroke fill markers" fill-rule="evenodd" d=" M 499.1913484281388 359.07963614261104 L 519.3663037870562 352.52439577587916 L 512.8110634203252 332.3494404169599 L 492.6361080614069 338.9046807836936 L 499.1913484281388 359.07963614261104" fill-opacity="0.09803921568627451"/><path fill="none" stroke="rgb(0,0,0)" paint-order="fill stroke markers" d=" M 499.1913484281388 359.07963614261104 L 519.3663037870562 352.52439577587916 L 512.8110634203252 332.3494404169599 L 492.6361080614069 338.9046807836936 L 499.1913484281388 359.07963614261104" stroke-opacity="0.6" stroke-linecap="round" stroke-linejoin="round" stroke-miterlimit="10" stroke-width="2.5"/><path fill="none" stroke="rgb(0,0,0)" paint-order="fill stroke markers" d=" M 672.7501812192837 33.570922872936364 L 446.7731070515007 197.75287761005285" stroke-opacity="0.6980392156862745" stroke-linecap="round" stroke-linejoin="round" stroke-miterlimit="10" stroke-width="2.5"/><path fill="none" stroke="rgb(0,0,0)" paint-order="fill stroke markers" d=" M 446.7731070515007 197.75287761005285 L 533.0886687053379 463.4048607141041" stroke-opacity="0.6980392156862745" stroke-linecap="round" stroke-linejoin="round" stroke-miterlimit="10" stroke-width="2.5"/><path fill="none" stroke="rgb(0,0,0)" paint-order="fill stroke markers" d=" M 533.0886687053379 463.4048607141041 L 812.4116937332294 463.4048607141041" stroke-opacity="0.6980392156862745" stroke-linecap="round" stroke-linejoin="round" stroke-miterlimit="10" stroke-width="2.5"/><path fill="none" stroke="rgb(0,0,0)" paint-order="fill stroke markers" d=" M 812.4116937332294 463.4048607141041 L 898.7272553870667 197.75287761005285" stroke-opacity="0.6980392156862745" stroke-linecap="round" stroke-linejoin="round" stroke-miterlimit="10" stroke-width="2.5"/><path fill="none" stroke="rgb(0,0,0)" paint-order="fill stroke markers" d=" M 672.7501812192837 33.570922872936364 L 898.7272553870667 197.75287761005285" stroke-opacity="0.6980392156862745" stroke-linecap="round" stroke-linejoin="round" stroke-miterlimit="10" stroke-width="2.5"/><path fill="none" stroke="rgb(0,0,0)" paint-order="fill stroke markers" d=" M 600.9999999999999 326 L 600.9999999999999 463.4048607141041" stroke-opacity="0.6980392156862745" stroke-linecap="round" stroke-linejoin="round" stroke-miterlimit="10" stroke-width="2.5"/><path fill="none" stroke="rgb(0,0,0)" paint-order="fill stroke markers" d=" M 600.9999999999999 326 L 499.1913484281388 359.07963614261104" stroke-opacity="0.6980392156862745" stroke-linecap="round" stroke-linejoin="round" stroke-miterlimit="10" stroke-width="2.5"/><path fill="none" stroke="rgb(0,0,0)" paint-order="fill stroke markers" d=" M 600.9999999999999 326 L 486.7307882585858 168.7219228926249" stroke-opacity="0.6980392156862745" stroke-linecap="round" stroke-linejoin="round" stroke-miterlimit="10" stroke-width="2.5"/><path fill="none" stroke="rgb(0,0,0)" paint-order="fill stroke markers" d=" M 600.9999999999999 326 L 764.847367614457 100.48344549866661" stroke-opacity="0.6980392156862745" stroke-linecap="round" stroke-linejoin="round" stroke-miterlimit="10" stroke-width="2.5"/><path fill="none" stroke="rgb(0,0,0)" paint-order="fill stroke markers" d=" M 600.9999999999999 326 L 832.6059487470276 401.2533345126185" stroke-opacity="0.6980392156862745" stroke-linecap="round" stroke-linejoin="round" stroke-miterlimit="10" stroke-width="2.5"/><path fill="none" stroke="rgb(0,0,0)" paint-order="fill stroke markers" d=" M 600.9999999999999 326 L 533.0886687053379 463.4048607141041" stroke-opacity="0.6980392156862745" stroke-linejoin="round" stroke-miterlimit="10" stroke-width="2.5" stroke-dasharray="10.5,8"/><path fill="none" stroke="rgb(0,0,0)" paint-order="fill stroke markers" d=" M 600.9999999999999 326 L 812.4116937332294 463.4048607141041" stroke-opacity="0.6980392156862745" stroke-linejoin="round" stroke-miterlimit="10" stroke-width="2.5" stroke-dasharray="10.5,8"/><path fill="none" stroke="rgb(0,0,0)" paint-order="fill stroke markers" d=" M 600.9999999999999 326 L 446.7731070515007 197.75287761005285" stroke-opacity="0.6980392156862745" stroke-linejoin="round" stroke-miterlimit="10" stroke-width="2.5" stroke-dasharray="10.5,8"/><path fill="none" stroke="rgb(0,0,0)" paint-order="fill stroke markers" d=" M 672.7501812192837 33.570922872936364 L 600.9999999999999 326" stroke-opacity="0.6980392156862745" stroke-linejoin="round" stroke-miterlimit="10" stroke-width="2.5" stroke-dasharray="10.5,8"/><path fill="none" stroke="rgb(0,0,0)" paint-order="fill stroke markers" d=" M 600.9999999999999 326 L 898.7272553870667 197.75287761005285" stroke-opacity="0.6980392156862745" stroke-linejoin="round" stroke-miterlimit="10" stroke-width="2.5" stroke-dasharray="10.5,8"/><path fill="rgb(211,47,47)" stroke="none" paint-order="stroke fill markers" d=" M 677.7501812192837 271.17727990425004 C 677.7501812192837 273.938703653404 675.5116049684377 276.17727990425004 672.7501812192837 276.17727990425004 C 669.9887574701297 276.17727990425004 667.7501812192837 273.938703653404 667.7501812192837 271.17727990425004 C 667.7501812192837 268.4158561550961 669.9887574701297 266.17727990425004 672.7501812192837 266.17727990425004 C 675.5116049684377 266.17727990425004 677.7501812192837 268.4158561550961 677.7501812192837 271.17727990425004 Z" fill-opacity="1"/><path fill="none" stroke="rgb(0,0,0)" paint-order="fill stroke markers" d=" M 677.7501812192837 271.17727990425004 C 677.7501812192837 273.938703653404 675.5116049684377 276.17727990425004 672.7501812192837 276.17727990425004 C 669.9887574701297 276.17727990425004 667.7501812192837 273.938703653404 667.7501812192837 271.17727990425004 C 667.7501812192837 268.4158561550961 669.9887574701297 266.17727990425004 672.7501812192837 266.17727990425004 C 675.5116049684377 266.17727990425004 677.7501812192837 268.4158561550961 677.7501812192837 271.17727990425004 Z" stroke-opacity="1" stroke-linecap="round" stroke-linejoin="round" stroke-miterlimit="10"/><path fill="rgb(21,101,192)" stroke="none" paint-order="stroke fill markers" d=" M 677.7501812192837 33.570922872936364 C 677.7501812192837 36.33234662209033 675.5116049684377 38.570922872936364 672.7501812192837 38.570922872936364 C 669.9887574701297 38.570922872936364 667.7501812192837 36.33234662209033 667.7501812192837 33.570922872936364 C 667.7501812192837 30.8094991237824 669.9887574701297 28.570922872936364 672.7501812192837 28.570922872936364 C 675.5116049684377 28.570922872936364 677.7501812192837 30.8094991237824 677.7501812192837 33.570922872936364 Z" fill-opacity="1"/><path fill="none" stroke="rgb(0,0,0)" paint-order="fill stroke markers" d=" M 677.7501812192837 33.570922872936364 C 677.7501812192837 36.33234662209033 675.5116049684377 38.570922872936364 672.7501812192837 38.570922872936364 C 669.9887574701297 38.570922872936364 667.7501812192837 36.33234662209033 667.7501812192837 33.570922872936364 C 667.7501812192837 30.8094991237824 669.9887574701297 28.570922872936364 672.7501812192837 28.570922872936364 C 675.5116049684377 28.570922872936364 677.7501812192837 30.8094991237824 677.7501812192837 33.570922872936364 Z" stroke-opacity="1" stroke-linecap="round" stroke-linejoin="round" stroke-miterlimit="10"/><path fill="rgb(21,101,192)" stroke="none" paint-order="stroke fill markers" d=" M 903.7272553870667 197.75287761005285 C 903.7272553870667 200.51430135920683 901.4886791362208 202.75287761005285 898.7272553870667 202.75287761005285 C 895.9658316379127 202.75287761005285 893.7272553870667 200.51430135920683 893.7272553870667 197.75287761005285 C 893.7272553870667 194.99145386089887 895.9658316379127 192.75287761005285 898.7272553870667 192.75287761005285 C 901.4886791362208 192.75287761005285 903.7272553870667 194.99145386089887 903.7272553870667 197.75287761005285 Z" fill-opacity="1"/><path fill="none" stroke="rgb(0,0,0)" paint-order="fill stroke markers" d=" M 903.7272553870667 197.75287761005285 C 903.7272553870667 200.51430135920683 901.4886791362208 202.75287761005285 898.7272553870667 202.75287761005285 C 895.9658316379127 202.75287761005285 893.7272553870667 200.51430135920683 893.7272553870667 197.75287761005285 C 893.7272553870667 194.99145386089887 895.9658316379127 192.75287761005285 898.7272553870667 192.75287761005285 C 901.4886791362208 192.75287761005285 903.7272553870667 194.99145386089887 903.7272553870667 197.75287761005285 Z" stroke-opacity="1" stroke-linecap="round" stroke-linejoin="round" stroke-miterlimit="10"/><path fill="rgb(21,101,192)" stroke="none" paint-order="stroke fill markers" d=" M 451.7731070515007 197.75287761005285 C 451.7731070515007 200.51430135920683 449.53453080065464 202.75287761005285 446.7731070515007 202.75287761005285 C 444.01168330234674 202.75287761005285 441.7731070515007 200.51430135920683 441.7731070515007 197.75287761005285 C 441.7731070515007 194.99145386089887 444.01168330234674 192.75287761005285 446.7731070515007 192.75287761005285 C 449.53453080065464 192.75287761005285 451.7731070515007 194.99145386089887 451.7731070515007 197.75287761005285 Z" fill-opacity="1"/><path fill="none" stroke="rgb(0,0,0)" paint-order="fill stroke markers" d=" M 451.7731070515007 197.75287761005285 C 451.7731070515007 200.51430135920683 449.53453080065464 202.75287761005285 446.7731070515007 202.75287761005285 C 444.01168330234674 202.75287761005285 441.7731070515007 200.51430135920683 441.7731070515007 197.75287761005285 C 441.7731070515007 194.99145386089887 444.01168330234674 192.75287761005285 446.7731070515007 192.75287761005285 C 449.53453080065464 192.75287761005285 451.7731070515007 194.99145386089887 451.7731070515007 197.75287761005285 Z" stroke-opacity="1" stroke-linecap="round" stroke-linejoin="round" stroke-miterlimit="10"/><path fill="rgb(21,101,192)" stroke="none" paint-order="stroke fill markers" d=" M 817.4116937332294 463.4048607141041 C 817.4116937332294 466.166284463258 815.1731174823834 468.4048607141041 812.4116937332294 468.4048607141041 C 809.6502699840754 468.4048607141041 807.4116937332294 466.166284463258 807.4116937332294 463.4048607141041 C 807.4116937332294 460.6434369649501 809.6502699840754 458.4048607141041 812.4116937332294 458.4048607141041 C 815.1731174823834 458.4048607141041 817.4116937332294 460.6434369649501 817.4116937332294 463.4048607141041 Z" fill-opacity="1"/><path fill="none" stroke="rgb(0,0,0)" paint-order="fill stroke markers" d=" M 817.4116937332294 463.4048607141041 C 817.4116937332294 466.166284463258 815.1731174823834 468.4048607141041 812.4116937332294 468.4048607141041 C 809.6502699840754 468.4048607141041 807.4116937332294 466.166284463258 807.4116937332294 463.4048607141041 C 807.4116937332294 460.6434369649501 809.6502699840754 458.4048607141041 812.4116937332294 458.4048607141041 C 815.1731174823834 458.4048607141041 817.4116937332294 460.6434369649501 817.4116937332294 463.4048607141041 Z" stroke-opacity="1" stroke-linecap="round" stroke-linejoin="round" stroke-miterlimit="10"/><path fill="rgb(21,101,192)" stroke="none" paint-order="stroke fill markers" d=" M 538.0886687053379 463.4048607141041 C 538.0886687053379 466.166284463258 535.8500924544919 468.4048607141041 533.0886687053379 468.4048607141041 C 530.3272449561839 468.4048607141041 528.0886687053379 466.166284463258 528.0886687053379 463.4048607141041 C 528.0886687053379 460.6434369649501 530.3272449561839 458.4048607141041 533.0886687053379 458.4048607141041 C 535.8500924544919 458.4048607141041 538.0886687053379 460.6434369649501 538.0886687053379 463.4048607141041 Z" fill-opacity="1"/><path fill="none" stroke="rgb(0,0,0)" paint-order="fill stroke markers" d=" M 538.0886687053379 463.4048607141041 C 538.0886687053379 466.166284463258 535.8500924544919 468.4048607141041 533.0886687053379 468.4048607141041 C 530.3272449561839 468.4048607141041 528.0886687053379 466.166284463258 528.0886687053379 463.4048607141041 C 528.0886687053379 460.6434369649501 530.3272449561839 458.4048607141041 533.0886687053379 458.4048607141041 C 535.8500924544919 458.4048607141041 538.0886687053379 460.6434369649501 538.0886687053379 463.4048607141041 Z" stroke-opacity="1" stroke-linecap="round" stroke-linejoin="round" stroke-miterlimit="10"/><path fill="rgb(128,0,128)" stroke="none" paint-order="stroke fill markers" d=" M 605.9999999999999 326 C 605.9999999999999 328.76142374915395 603.7614237491539 331 600.9999999999999 331 C 598.2385762508459 331 595.9999999999999 328.76142374915395 595.9999999999999 326 C 595.9999999999999 323.23857625084605 598.2385762508459 321 600.9999999999999 321 C 603.7614237491539 321 605.9999999999999 323.23857625084605 605.9999999999999 326 Z" fill-opacity="1"/><path fill="none" stroke="rgb(0,0,0)" paint-order="fill stroke markers" d=" M 605.9999999999999 326 C 605.9999999999999 328.76142374915395 603.7614237491539 331 600.9999999999999 331 C 598.2385762508459 331 595.9999999999999 328.76142374915395 595.9999999999999 326 C 595.9999999999999 323.23857625084605 598.2385762508459 321 600.9999999999999 321 C 603.7614237491539 321 605.9999999999999 323.23857625084605 605.9999999999999 326 Z" stroke-opacity="1" stroke-linecap="round" stroke-linejoin="round" stroke-miterlimit="10"/><text fill="rgb(128,0,128)" stroke="none" font-family="geogebra-sans-serif, sans-serif" font-size="24px" font-style="normal" font-weight="normal" text-decoration="normal" x="604" y="359" text-anchor="start" dominant-baseline="alphabetic" fill-opacity="1">P</text><text fill="none" stroke="rgb(255,255,255)" font-family="geogebra-sans-serif, sans-serif" font-size="24px" font-style="normal" font-weight="normal" text-decoration="normal" x="604" y="359" text-anchor="start" dominant-baseline="alphabetic" stroke-opacity="1" stroke-linejoin="bevel" stroke-miterlimit="10" stroke-width="3">P</text><text fill="rgb(128,0,128)" stroke="none" font-family="geogebra-sans-serif, sans-serif" font-size="24px" font-style="normal" font-weight="normal" text-decoration="normal" x="604" y="359" text-anchor="start" dominant-baseline="alphabetic" fill-opacity="1">P</text><path fill="rgb(46,125,50)" stroke="none" paint-order="stroke fill markers" d=" M 605.9999999999999 463.4048607141041 C 605.9999999999999 466.166284463258 603.7614237491539 468.4048607141041 600.9999999999999 468.4048607141041 C 598.2385762508459 468.4048607141041 595.9999999999999 466.166284463258 595.9999999999999 463.4048607141041 C 595.9999999999999 460.6434369649501 598.2385762508459 458.4048607141041 600.9999999999999 458.4048607141041 C 603.7614237491539 458.4048607141041 605.9999999999999 460.6434369649501 605.9999999999999 463.4048607141041 Z" fill-opacity="1"/><path fill="none" stroke="rgb(0,0,0)" paint-order="fill stroke markers" d=" M 605.9999999999999 463.4048607141041 C 605.9999999999999 466.166284463258 603.7614237491539 468.4048607141041 600.9999999999999 468.4048607141041 C 598.2385762508459 468.4048607141041 595.9999999999999 466.166284463258 595.9999999999999 463.4048607141041 C 595.9999999999999 460.6434369649501 598.2385762508459 458.4048607141041 600.9999999999999 458.4048607141041 C 603.7614237491539 458.4048607141041 605.9999999999999 460.6434369649501 605.9999999999999 463.4048607141041 Z" stroke-opacity="1" stroke-linecap="round" stroke-linejoin="round" stroke-miterlimit="10"/><text fill="rgb(46,125,50)" stroke="none" font-family="geogebra-sans-serif, sans-serif" font-size="24px" font-style="normal" font-weight="normal" text-decoration="normal" x="609" y="489" text-anchor="start" dominant-baseline="alphabetic" fill-opacity="1">D</text><text fill="none" stroke="rgb(255,255,255)" font-family="geogebra-sans-serif, sans-serif" font-size="24px" font-style="normal" font-weight="normal" text-decoration="normal" x="609" y="489" text-anchor="start" dominant-baseline="alphabetic" stroke-opacity="1" stroke-linejoin="bevel" stroke-miterlimit="10" stroke-width="3">D</text><text fill="rgb(46,125,50)" stroke="none" font-family="geogebra-sans-serif, sans-serif" font-size="24px" font-style="normal" font-weight="normal" text-decoration="normal" x="609" y="489" text-anchor="start" dominant-baseline="alphabetic" fill-opacity="1">D</text><path fill="rgb(46,125,50)" stroke="none" paint-order="stroke fill markers" d=" M 504.1913484281388 359.07963614261104 C 504.1913484281388 361.841059891765 501.95277217729273 364.07963614261104 499.1913484281388 364.07963614261104 C 496.42992467898483 364.07963614261104 494.1913484281388 361.841059891765 494.1913484281388 359.07963614261104 C 494.1913484281388 356.3182123934571 496.42992467898483 354.07963614261104 499.1913484281388 354.07963614261104 C 501.95277217729273 354.07963614261104 504.1913484281388 356.3182123934571 504.1913484281388 359.07963614261104 Z" fill-opacity="1"/><path fill="none" stroke="rgb(0,0,0)" paint-order="fill stroke markers" d=" M 504.1913484281388 359.07963614261104 C 504.1913484281388 361.841059891765 501.95277217729273 364.07963614261104 499.1913484281388 364.07963614261104 C 496.42992467898483 364.07963614261104 494.1913484281388 361.841059891765 494.1913484281388 359.07963614261104 C 494.1913484281388 356.3182123934571 496.42992467898483 354.07963614261104 499.1913484281388 354.07963614261104 C 501.95277217729273 354.07963614261104 504.1913484281388 356.3182123934571 504.1913484281388 359.07963614261104 Z" stroke-opacity="1" stroke-linecap="round" stroke-linejoin="round" stroke-miterlimit="10"/><text fill="rgb(46,125,50)" stroke="none" font-family="geogebra-sans-serif, sans-serif" font-size="24px" font-style="normal" font-weight="normal" text-decoration="normal" x="475" y="367" text-anchor="start" dominant-baseline="alphabetic" fill-opacity="1">E</text><text fill="none" stroke="rgb(255,255,255)" font-family="geogebra-sans-serif, sans-serif" font-size="24px" font-style="normal" font-weight="normal" text-decoration="normal" x="475" y="367" text-anchor="start" dominant-baseline="alphabetic" stroke-opacity="1" stroke-linejoin="bevel" stroke-miterlimit="10" stroke-width="3">E</text><text fill="rgb(46,125,50)" stroke="none" font-family="geogebra-sans-serif, sans-serif" font-size="24px" font-style="normal" font-weight="normal" text-decoration="normal" x="475" y="367" text-anchor="start" dominant-baseline="alphabetic" fill-opacity="1">E</text><path fill="rgb(46,125,50)" stroke="none" paint-order="stroke fill markers" d=" M 491.7307882585858 168.7219228926249 C 491.7307882585858 171.48334664177887 489.49221200773974 173.7219228926249 486.7307882585858 173.7219228926249 C 483.96936450943184 173.7219228926249 481.7307882585858 171.48334664177887 481.7307882585858 168.7219228926249 C 481.7307882585858 165.9604991434709 483.96936450943184 163.7219228926249 486.7307882585858 163.7219228926249 C 489.49221200773974 163.7219228926249 491.7307882585858 165.9604991434709 491.7307882585858 168.7219228926249 Z" fill-opacity="1"/><path fill="none" stroke="rgb(0,0,0)" paint-order="fill stroke markers" d=" M 491.7307882585858 168.7219228926249 C 491.7307882585858 171.48334664177887 489.49221200773974 173.7219228926249 486.7307882585858 173.7219228926249 C 483.96936450943184 173.7219228926249 481.7307882585858 171.48334664177887 481.7307882585858 168.7219228926249 C 481.7307882585858 165.9604991434709 483.96936450943184 163.7219228926249 486.7307882585858 163.7219228926249 C 489.49221200773974 163.7219228926249 491.7307882585858 165.9604991434709 491.7307882585858 168.7219228926249 Z" stroke-opacity="1" stroke-linecap="round" stroke-linejoin="round" stroke-miterlimit="10"/><text fill="rgb(46,125,50)" stroke="none" font-family="geogebra-sans-serif, sans-serif" font-size="24px" font-style="normal" font-weight="normal" text-decoration="normal" x="475" y="158" text-anchor="start" dominant-baseline="alphabetic" fill-opacity="1">A</text><text fill="none" stroke="rgb(255,255,255)" font-family="geogebra-sans-serif, sans-serif" font-size="24px" font-style="normal" font-weight="normal" text-decoration="normal" x="475" y="158" text-anchor="start" dominant-baseline="alphabetic" stroke-opacity="1" stroke-linejoin="bevel" stroke-miterlimit="10" stroke-width="3">A</text><text fill="rgb(46,125,50)" stroke="none" font-family="geogebra-sans-serif, sans-serif" font-size="24px" font-style="normal" font-weight="normal" text-decoration="normal" x="475" y="158" text-anchor="start" dominant-baseline="alphabetic" fill-opacity="1">A</text><path fill="rgb(46,125,50)" stroke="none" paint-order="stroke fill markers" d=" M 769.847367614457 100.48344549866661 C 769.847367614457 103.24486924782057 767.608791363611 105.48344549866661 764.847367614457 105.48344549866661 C 762.085943865303 105.48344549866661 759.847367614457 103.24486924782057 759.847367614457 100.48344549866661 C 759.847367614457 97.72202174951265 762.085943865303 95.48344549866661 764.847367614457 95.48344549866661 C 767.608791363611 95.48344549866661 769.847367614457 97.72202174951265 769.847367614457 100.48344549866661 Z" fill-opacity="1"/><path fill="none" stroke="rgb(0,0,0)" paint-order="fill stroke markers" d=" M 769.847367614457 100.48344549866661 C 769.847367614457 103.24486924782057 767.608791363611 105.48344549866661 764.847367614457 105.48344549866661 C 762.085943865303 105.48344549866661 759.847367614457 103.24486924782057 759.847367614457 100.48344549866661 C 759.847367614457 97.72202174951265 762.085943865303 95.48344549866661 764.847367614457 95.48344549866661 C 767.608791363611 95.48344549866661 769.847367614457 97.72202174951265 769.847367614457 100.48344549866661 Z" stroke-opacity="1" stroke-linecap="round" stroke-linejoin="round" stroke-miterlimit="10"/><text fill="rgb(46,125,50)" stroke="none" font-family="geogebra-sans-serif, sans-serif" font-size="24px" font-style="normal" font-weight="normal" text-decoration="normal" x="769" y="90" text-anchor="start" dominant-baseline="alphabetic" fill-opacity="1">B</text><text fill="none" stroke="rgb(255,255,255)" font-family="geogebra-sans-serif, sans-serif" font-size="24px" font-style="normal" font-weight="normal" text-decoration="normal" x="769" y="90" text-anchor="start" dominant-baseline="alphabetic" stroke-opacity="1" stroke-linejoin="bevel" stroke-miterlimit="10" stroke-width="3">B</text><text fill="rgb(46,125,50)" stroke="none" font-family="geogebra-sans-serif, sans-serif" font-size="24px" font-style="normal" font-weight="normal" text-decoration="normal" x="769" y="90" text-anchor="start" dominant-baseline="alphabetic" fill-opacity="1">B</text><path fill="rgb(46,125,50)" stroke="none" paint-order="stroke fill markers" d=" M 837.6059487470276 401.2533345126185 C 837.6059487470276 404.01475826177244 835.3673724961816 406.2533345126185 832.6059487470276 406.2533345126185 C 829.8445249978736 406.2533345126185 827.6059487470276 404.01475826177244 827.6059487470276 401.2533345126185 C 827.6059487470276 398.49191076346455 829.8445249978736 396.2533345126185 832.6059487470276 396.2533345126185 C 835.3673724961816 396.2533345126185 837.6059487470276 398.49191076346455 837.6059487470276 401.2533345126185 Z" fill-opacity="1"/><path fill="none" stroke="rgb(0,0,0)" paint-order="fill stroke markers" d=" M 837.6059487470276 401.2533345126185 C 837.6059487470276 404.01475826177244 835.3673724961816 406.2533345126185 832.6059487470276 406.2533345126185 C 829.8445249978736 406.2533345126185 827.6059487470276 404.01475826177244 827.6059487470276 401.2533345126185 C 827.6059487470276 398.49191076346455 829.8445249978736 396.2533345126185 832.6059487470276 396.2533345126185 C 835.3673724961816 396.2533345126185 837.6059487470276 398.49191076346455 837.6059487470276 401.2533345126185 Z" stroke-opacity="1" stroke-linecap="round" stroke-linejoin="round" stroke-miterlimit="10"/><text fill="rgb(46,125,50)" stroke="none" font-family="geogebra-sans-serif, sans-serif" font-size="24px" font-style="normal" font-weight="normal" text-decoration="normal" x="843" y="406" text-anchor="start" dominant-baseline="alphabetic" fill-opacity="1">C</text><text fill="none" stroke="rgb(255,255,255)" font-family="geogebra-sans-serif, sans-serif" font-size="24px" font-style="normal" font-weight="normal" text-decoration="normal" x="843" y="406" text-anchor="start" dominant-baseline="alphabetic" stroke-opacity="1" stroke-linejoin="bevel" stroke-miterlimit="10" stroke-width="3">C</text><text fill="rgb(46,125,50)" stroke="none" font-family="geogebra-sans-serif, sans-serif" font-size="24px" font-style="normal" font-weight="normal" text-decoration="normal" x="843" y="406" text-anchor="start" dominant-baseline="alphabetic" fill-opacity="1">C</text></g></g></svg>