<svg version="1.1" xmlns="http://www.w3.org/2000/svg" xmlns:xlink="http://www.w3.org/1999/xlink" width="1310" height="556"><defs><clipPath id="fFuTzBPzCVWO"><path fill="none" stroke="none" d=" M 0 0 L 1310 0 L 1310 556 L 0 556 L 0 0 Z"/></clipPath></defs><g transform="scale(1,1)" clip-path="url(#fFuTzBPzCVWO)"><g><rect fill="rgb(255,255,255)" stroke="none" x="0" y="0" width="1310" height="556" fill-opacity="1"/><path fill="none" stroke="rgb(0,0,0)" paint-order="fill stroke markers" d=" M 907.3565382505968 294.67727990425004 C 907.3565382505968 425.90364735549525 800.9765486705287 532.2836369355637 669.7501812192838 532.2836369355637 C 538.523813768039 532.2836369355637 432.14382418797084 425.90364735549525 432.14382418797084 294.67727990425004 C 432.14382418797084 163.45091245300483 538.523813768039 57.07092287293642 669.7501812192838 57.07092287293642 C 800.9765486705287 57.07092287293642 907.3565382505968 163.45091245300483 907.3565382505968 294.67727990425004 Z" stroke-opacity="0.6980392156862745" stroke-linecap="round" stroke-linejoin="round" stroke-miterlimit="10" stroke-width="0.5"/><path fill="none" stroke="rgb(0,0,0)" paint-order="fill stroke markers" d=" M 861.9777620291372 294.67727990425004 C 861.9777620291372 400.8416412823988 775.9145425974323 486.904860714104 669.7501812192838 486.904860714104 C 563.5858198411353 486.904860714104 477.52260040943037 400.8416412823988 477.52260040943037 294.67727990425004 C 477.52260040943037 188.51291852610123 563.5858198411353 102.44969909439607 669.7501812192838 102.44969909439607 C 775.9145425974323 102.44969909439607 861.9777620291372 188.51291852610123 861.9777620291372 294.67727990425004 Z" stroke-opacity="0.6980392156862745" stroke-linecap="round" stroke-linejoin="round" stroke-miterlimit="10" stroke-width="2.5"/><path fill="rgb(0,0,0)" stroke="none" paint-order="stroke fill markers" fill-rule="evenodd" d=" M 669.7501812192838 486.904860714104 L 690.9633846548788 486.904860714104 L 690.9633846548802 465.69165727850753 L 669.7501812192838 465.69165727850896 L 669.7501812192838 486.904860714104" fill-opacity="0.09803921568627451"/><path fill="none" stroke="rgb(0,0,0)" paint-order="fill stroke markers" d=" M 669.7501812192838 486.904860714104 L 690.9633846548788 486.904860714104 L 690.9633846548802 465.69165727850753 L 669.7501812192838 465.69165727850896 L 669.7501812192838 486.904860714104" stroke-opacity="0.6" stroke-linecap="round" stroke-linejoin="round" stroke-miterlimit="10" stroke-width="2.5"/><path fill="rgb(0,0,0)" stroke="none" paint-order="stroke fill markers" fill-rule="evenodd" d=" M 852.5694745601481 354.07886916207843 L 859.12471492688 333.903913803161 L 838.9497595679618 327.3486734364273 L 832.3945192012308 347.52362879534655 L 852.5694745601481 354.07886916207843" fill-opacity="0.09803921568627451"/><path fill="none" stroke="rgb(0,0,0)" paint-order="fill stroke markers" d=" M 852.5694745601481 354.07886916207843 L 859.12471492688 333.903913803161 L 838.9497595679618 327.3486734364273 L 832.3945192012308 347.52362879534655 L 852.5694745601481 354.07886916207843" stroke-opacity="0.6" stroke-linecap="round" stroke-linejoin="round" stroke-miterlimit="10" stroke-width="2.5"/><path fill="rgb(0,0,0)" stroke="none" paint-order="stroke fill markers" fill-rule="evenodd" d=" M 782.7387183031753 139.16190024149464 L 765.576876218646 126.69309210817184 L 753.1080680853212 143.85493419270156 L 770.2699101698526 156.32374232602405 L 782.7387183031753 139.16190024149464" fill-opacity="0.09803921568627451"/><path fill="none" stroke="rgb(0,0,0)" paint-order="fill stroke markers" d=" M 782.7387183031753 139.16190024149464 L 765.576876218646 126.69309210817184 L 753.1080680853212 143.85493419270156 L 770.2699101698526 156.32374232602405 L 782.7387183031753 139.16190024149464" stroke-opacity="0.6" stroke-linecap="round" stroke-linejoin="round" stroke-miterlimit="10" stroke-width="2.5"/><path fill="rgb(0,0,0)" stroke="none" paint-order="stroke fill markers" fill-rule="evenodd" d=" M 556.7616441353923 139.16190024149466 L 539.599802050863 151.63070837481746 L 552.0686101841854 168.7925504593489 L 569.2304522687151 156.3237423260241 L 556.7616441353923 139.16190024149466" fill-opacity="0.09803921568627451"/><path fill="none" stroke="rgb(0,0,0)" paint-order="fill stroke markers" d=" M 556.7616441353923 139.16190024149466 L 539.599802050863 151.63070837481746 L 552.0686101841854 168.7925504593489 L 569.2304522687151 156.3237423260241 L 556.7616441353923 139.16190024149466" stroke-opacity="0.6" stroke-linecap="round" stroke-linejoin="round" stroke-miterlimit="10" stroke-width="2.5"/><path fill="rgb(0,0,0)" stroke="none" paint-order="stroke fill markers" fill-rule="evenodd" d=" M 486.9308878784194 354.07886916207843 L 493.4861282451513 374.25382452099586 L 513.6610836040704 367.6985841542649 L 507.1058432373368 347.52362879534655 L 486.9308878784194 354.07886916207843" fill-opacity="0.09803921568627451"/><path fill="none" stroke="rgb(0,0,0)" paint-order="fill stroke markers" d=" M 486.9308878784194 354.07886916207843 L 493.4861282451513 374.25382452099586 L 513.6610836040704 367.6985841542649 L 507.1058432373368 347.52362879534655 L 486.9308878784194 354.07886916207843" stroke-opacity="0.6" stroke-linecap="round" stroke-linejoin="round" stroke-miterlimit="10" stroke-width="2.5"/><path fill="none" stroke="rgb(0,0,0)" paint-order="fill stroke markers" d=" M 669.7501812192838 57.07092287293642 L 443.7731070515008 221.25287761005288" stroke-opacity="0.6980392156862745" stroke-linecap="round" stroke-linejoin="round" stroke-miterlimit="10" stroke-width="2.5"/><path fill="none" stroke="rgb(0,0,0)" paint-order="fill stroke markers" d=" M 443.7731070515008 221.25287761005288 L 530.088668705338 486.90486071410396" stroke-opacity="0.6980392156862745" stroke-linecap="round" stroke-linejoin="round" stroke-miterlimit="10" stroke-width="2.5"/><path fill="none" stroke="rgb(0,0,0)" paint-order="fill stroke markers" d=" M 530.088668705338 486.90486071410396 L 809.4116937332296 486.904860714104" stroke-opacity="0.6980392156862745" stroke-linecap="round" stroke-linejoin="round" stroke-miterlimit="10" stroke-width="2.5"/><path fill="none" stroke="rgb(0,0,0)" paint-order="fill stroke markers" d=" M 809.4116937332296 486.904860714104 L 895.7272553870669 221.25287761005285" stroke-opacity="0.6980392156862745" stroke-linecap="round" stroke-linejoin="round" stroke-miterlimit="10" stroke-width="2.5"/><path fill="none" stroke="rgb(0,0,0)" paint-order="fill stroke markers" d=" M 669.7501812192838 57.07092287293642 L 895.7272553870669 221.25287761005285" stroke-opacity="0.6980392156862745" stroke-linecap="round" stroke-linejoin="round" stroke-miterlimit="10" stroke-width="2.5"/><path fill="none" stroke="rgb(0,0,0)" paint-order="fill stroke markers" d=" M 669.7501812192838 294.67727990425004 L 530.088668705338 486.90486071410396" stroke-opacity="0.6980392156862745" stroke-linejoin="round" stroke-miterlimit="10" stroke-width="2.5" stroke-dasharray="10.5,8"/><path fill="none" stroke="rgb(0,0,0)" paint-order="fill stroke markers" d=" M 669.7501812192838 294.67727990425004 L 443.7731070515008 221.25287761005288" stroke-opacity="0.6980392156862745" stroke-linejoin="round" stroke-miterlimit="10" stroke-width="2.5" stroke-dasharray="10.5,8"/><path fill="none" stroke="rgb(0,0,0)" paint-order="fill stroke markers" d=" M 669.7501812192838 294.67727990425004 L 669.7501812192838 57.07092287293642" stroke-opacity="0.6980392156862745" stroke-linejoin="round" stroke-miterlimit="10" stroke-width="2.5" stroke-dasharray="10.5,8"/><path fill="none" stroke="rgb(0,0,0)" paint-order="fill stroke markers" d=" M 669.7501812192838 294.67727990425004 L 895.7272553870669 221.25287761005285" stroke-opacity="0.6980392156862745" stroke-linejoin="round" stroke-miterlimit="10" stroke-width="2.5" stroke-dasharray="10.5,8"/><path fill="none" stroke="rgb(0,0,0)" paint-order="fill stroke markers" d=" M 669.7501812192838 294.67727990425004 L 809.4116937332296 486.904860714104" stroke-opacity="0.6980392156862745" stroke-linejoin="round" stroke-miterlimit="10" stroke-width="2.5" stroke-dasharray="10.5,8"/><path fill="none" stroke="rgb(0,0,0)" paint-order="fill stroke markers" d=" M 669.7501812192838 294.67727990425004 L 669.7501812192838 486.904860714104" stroke-opacity="0.6980392156862745" stroke-linecap="round" stroke-linejoin="round" stroke-miterlimit="10" stroke-width="2.5"/><path fill="none" stroke="rgb(0,0,0)" paint-order="fill stroke markers" d=" M 669.7501812192838 294.67727990425004 L 486.9308878784194 354.07886916207843" stroke-opacity="0.6980392156862745" stroke-linecap="round" stroke-linejoin="round" stroke-miterlimit="10" stroke-width="2.5"/><path fill="none" stroke="rgb(0,0,0)" paint-order="fill stroke markers" d=" M 669.7501812192838 294.67727990425004 L 556.7616441353923 139.16190024149466" stroke-opacity="0.6980392156862745" stroke-linecap="round" stroke-linejoin="round" stroke-miterlimit="10" stroke-width="2.5"/><path fill="none" stroke="rgb(0,0,0)" paint-order="fill stroke markers" d=" M 669.7501812192838 294.67727990425004 L 782.7387183031753 139.16190024149464" stroke-opacity="0.6980392156862745" stroke-linecap="round" stroke-linejoin="round" stroke-miterlimit="10" stroke-width="2.5"/><path fill="none" stroke="rgb(0,0,0)" paint-order="fill stroke markers" d=" M 669.7501812192838 294.67727990425004 L 852.5694745601481 354.07886916207843" stroke-opacity="0.6980392156862745" stroke-linecap="round" stroke-linejoin="round" stroke-miterlimit="10" stroke-width="2.5"/><path fill="rgb(211,47,47)" stroke="none" paint-order="stroke fill markers" d=" M 674.7501812192838 294.67727990425004 C 674.7501812192838 297.438703653404 672.5116049684378 299.67727990425004 669.7501812192838 299.67727990425004 C 666.9887574701298 299.67727990425004 664.7501812192838 297.438703653404 664.7501812192838 294.67727990425004 C 664.7501812192838 291.9158561550961 666.9887574701298 289.67727990425004 669.7501812192838 289.67727990425004 C 672.5116049684378 289.67727990425004 674.7501812192838 291.9158561550961 674.7501812192838 294.67727990425004 Z" fill-opacity="1"/><path fill="none" stroke="rgb(0,0,0)" paint-order="fill stroke markers" d=" M 674.7501812192838 294.67727990425004 C 674.7501812192838 297.438703653404 672.5116049684378 299.67727990425004 669.7501812192838 299.67727990425004 C 666.9887574701298 299.67727990425004 664.7501812192838 297.438703653404 664.7501812192838 294.67727990425004 C 664.7501812192838 291.9158561550961 666.9887574701298 289.67727990425004 669.7501812192838 289.67727990425004 C 672.5116049684378 289.67727990425004 674.7501812192838 291.9158561550961 674.7501812192838 294.67727990425004 Z" stroke-opacity="1" stroke-linecap="round" stroke-linejoin="round" stroke-miterlimit="10"/><path fill="rgb(21,101,192)" stroke="none" paint-order="stroke fill markers" d=" M 674.7501812192838 57.07092287293642 C 674.7501812192838 59.832346622090384 672.5116049684378 62.07092287293642 669.7501812192838 62.07092287293642 C 666.9887574701298 62.07092287293642 664.7501812192838 59.832346622090384 664.7501812192838 57.07092287293642 C 664.7501812192838 54.30949912378245 666.9887574701298 52.07092287293642 669.7501812192838 52.07092287293642 C 672.5116049684378 52.07092287293642 674.7501812192838 54.30949912378245 674.7501812192838 57.07092287293642 Z" fill-opacity="1"/><path fill="none" stroke="rgb(0,0,0)" paint-order="fill stroke markers" d=" M 674.7501812192838 57.07092287293642 C 674.7501812192838 59.832346622090384 672.5116049684378 62.07092287293642 669.7501812192838 62.07092287293642 C 666.9887574701298 62.07092287293642 664.7501812192838 59.832346622090384 664.7501812192838 57.07092287293642 C 664.7501812192838 54.30949912378245 666.9887574701298 52.07092287293642 669.7501812192838 52.07092287293642 C 672.5116049684378 52.07092287293642 674.7501812192838 54.30949912378245 674.7501812192838 57.07092287293642 Z" stroke-opacity="1" stroke-linecap="round" stroke-linejoin="round" stroke-miterlimit="10"/><path fill="rgb(21,101,192)" stroke="none" paint-order="stroke fill markers" d=" M 900.7272553870669 221.25287761005285 C 900.7272553870669 224.01430135920683 898.4886791362209 226.25287761005285 895.7272553870669 226.25287761005285 C 892.9658316379129 226.25287761005285 890.7272553870669 224.01430135920683 890.7272553870669 221.25287761005285 C 890.7272553870669 218.49145386089887 892.9658316379129 216.25287761005285 895.7272553870669 216.25287761005285 C 898.4886791362209 216.25287761005285 900.7272553870669 218.49145386089887 900.7272553870669 221.25287761005285 Z" fill-opacity="1"/><path fill="none" stroke="rgb(0,0,0)" paint-order="fill stroke markers" d=" M 900.7272553870669 221.25287761005285 C 900.7272553870669 224.01430135920683 898.4886791362209 226.25287761005285 895.7272553870669 226.25287761005285 C 892.9658316379129 226.25287761005285 890.7272553870669 224.01430135920683 890.7272553870669 221.25287761005285 C 890.7272553870669 218.49145386089887 892.9658316379129 216.25287761005285 895.7272553870669 216.25287761005285 C 898.4886791362209 216.25287761005285 900.7272553870669 218.49145386089887 900.7272553870669 221.25287761005285 Z" stroke-opacity="1" stroke-linecap="round" stroke-linejoin="round" stroke-miterlimit="10"/><path fill="rgb(21,101,192)" stroke="none" paint-order="stroke fill markers" d=" M 448.7731070515008 221.25287761005288 C 448.7731070515008 224.01430135920685 446.53453080065475 226.25287761005288 443.7731070515008 226.25287761005288 C 441.01168330234685 226.25287761005288 438.7731070515008 224.01430135920685 438.7731070515008 221.25287761005288 C 438.7731070515008 218.4914538608989 441.01168330234685 216.25287761005288 443.7731070515008 216.25287761005288 C 446.53453080065475 216.25287761005288 448.7731070515008 218.4914538608989 448.7731070515008 221.25287761005288 Z" fill-opacity="1"/><path fill="none" stroke="rgb(0,0,0)" paint-order="fill stroke markers" d=" M 448.7731070515008 221.25287761005288 C 448.7731070515008 224.01430135920685 446.53453080065475 226.25287761005288 443.7731070515008 226.25287761005288 C 441.01168330234685 226.25287761005288 438.7731070515008 224.01430135920685 438.7731070515008 221.25287761005288 C 438.7731070515008 218.4914538608989 441.01168330234685 216.25287761005288 443.7731070515008 216.25287761005288 C 446.53453080065475 216.25287761005288 448.7731070515008 218.4914538608989 448.7731070515008 221.25287761005288 Z" stroke-opacity="1" stroke-linecap="round" stroke-linejoin="round" stroke-miterlimit="10"/><path fill="rgb(21,101,192)" stroke="none" paint-order="stroke fill markers" d=" M 814.4116937332296 486.904860714104 C 814.4116937332296 489.66628446325797 812.1731174823836 491.904860714104 809.4116937332296 491.904860714104 C 806.6502699840756 491.904860714104 804.4116937332296 489.66628446325797 804.4116937332296 486.904860714104 C 804.4116937332296 484.14343696495007 806.6502699840756 481.904860714104 809.4116937332296 481.904860714104 C 812.1731174823836 481.904860714104 814.4116937332296 484.14343696495007 814.4116937332296 486.904860714104 Z" fill-opacity="1"/><path fill="none" stroke="rgb(0,0,0)" paint-order="fill stroke markers" d=" M 814.4116937332296 486.904860714104 C 814.4116937332296 489.66628446325797 812.1731174823836 491.904860714104 809.4116937332296 491.904860714104 C 806.6502699840756 491.904860714104 804.4116937332296 489.66628446325797 804.4116937332296 486.904860714104 C 804.4116937332296 484.14343696495007 806.6502699840756 481.904860714104 809.4116937332296 481.904860714104 C 812.1731174823836 481.904860714104 814.4116937332296 484.14343696495007 814.4116937332296 486.904860714104 Z" stroke-opacity="1" stroke-linecap="round" stroke-linejoin="round" stroke-miterlimit="10"/><path fill="rgb(21,101,192)" stroke="none" paint-order="stroke fill markers" d=" M 535.088668705338 486.90486071410396 C 535.088668705338 489.6662844632579 532.850092454492 491.90486071410396 530.088668705338 491.90486071410396 C 527.327244956184 491.90486071410396 525.088668705338 489.6662844632579 525.088668705338 486.90486071410396 C 525.088668705338 484.14343696495 527.327244956184 481.90486071410396 530.088668705338 481.90486071410396 C 532.850092454492 481.90486071410396 535.088668705338 484.14343696495 535.088668705338 486.90486071410396 Z" fill-opacity="1"/><path fill="none" stroke="rgb(0,0,0)" paint-order="fill stroke markers" d=" M 535.088668705338 486.90486071410396 C 535.088668705338 489.6662844632579 532.850092454492 491.90486071410396 530.088668705338 491.90486071410396 C 527.327244956184 491.90486071410396 525.088668705338 489.6662844632579 525.088668705338 486.90486071410396 C 525.088668705338 484.14343696495 527.327244956184 481.90486071410396 530.088668705338 481.90486071410396 C 532.850092454492 481.90486071410396 535.088668705338 484.14343696495 535.088668705338 486.90486071410396 Z" stroke-opacity="1" stroke-linecap="round" stroke-linejoin="round" stroke-miterlimit="10"/><path fill="rgb(97,97,97)" stroke="none" paint-order="stroke fill markers" d=" M 674.7501812192838 486.904860714104 C 674.7501812192838 489.66628446325797 672.5116049684378 491.904860714104 669.7501812192838 491.904860714104 C 666.9887574701298 491.904860714104 664.7501812192838 489.66628446325797 664.7501812192838 486.904860714104 C 664.7501812192838 484.14343696495007 666.9887574701298 481.904860714104 669.7501812192838 481.904860714104 C 672.5116049684378 481.904860714104 674.7501812192838 484.14343696495007 674.7501812192838 486.904860714104 Z" fill-opacity="1"/><path fill="none" stroke="rgb(0,0,0)" paint-order="fill stroke markers" d=" M 674.7501812192838 486.904860714104 C 674.7501812192838 489.66628446325797 672.5116049684378 491.904860714104 669.7501812192838 491.904860714104 C 666.9887574701298 491.904860714104 664.7501812192838 489.66628446325797 664.7501812192838 486.904860714104 C 664.7501812192838 484.14343696495007 666.9887574701298 481.904860714104 669.7501812192838 481.904860714104 C 672.5116049684378 481.904860714104 674.7501812192838 484.14343696495007 674.7501812192838 486.904860714104 Z" stroke-opacity="1" stroke-linecap="round" stroke-linejoin="round" stroke-miterlimit="10"/><path fill="rgb(97,97,97)" stroke="none" paint-order="stroke fill markers" d=" M 491.9308878784194 354.07886916207843 C 491.9308878784194 356.8402929112324 489.69231162757336 359.07886916207843 486.9308878784194 359.07886916207843 C 484.16946412926546 359.07886916207843 481.9308878784194 356.8402929112324 481.9308878784194 354.07886916207843 C 481.9308878784194 351.3174454129245 484.16946412926546 349.07886916207843 486.9308878784194 349.07886916207843 C 489.69231162757336 349.07886916207843 491.9308878784194 351.3174454129245 491.9308878784194 354.07886916207843 Z" fill-opacity="1"/><path fill="none" stroke="rgb(0,0,0)" paint-order="fill stroke markers" d=" M 491.9308878784194 354.07886916207843 C 491.9308878784194 356.8402929112324 489.69231162757336 359.07886916207843 486.9308878784194 359.07886916207843 C 484.16946412926546 359.07886916207843 481.9308878784194 356.8402929112324 481.9308878784194 354.07886916207843 C 481.9308878784194 351.3174454129245 484.16946412926546 349.07886916207843 486.9308878784194 349.07886916207843 C 489.69231162757336 349.07886916207843 491.9308878784194 351.3174454129245 491.9308878784194 354.07886916207843 Z" stroke-opacity="1" stroke-linecap="round" stroke-linejoin="round" stroke-miterlimit="10"/><path fill="rgb(97,97,97)" stroke="none" paint-order="stroke fill markers" d=" M 561.7616441353923 139.16190024149466 C 561.7616441353923 141.92332399064864 559.5230678845463 144.16190024149466 556.7616441353923 144.16190024149466 C 554.0002203862383 144.16190024149466 551.7616441353923 141.92332399064864 551.7616441353923 139.16190024149466 C 551.7616441353923 136.4004764923407 554.0002203862383 134.16190024149466 556.7616441353923 134.16190024149466 C 559.5230678845463 134.16190024149466 561.7616441353923 136.4004764923407 561.7616441353923 139.16190024149466 Z" fill-opacity="1"/><path fill="none" stroke="rgb(0,0,0)" paint-order="fill stroke markers" d=" M 561.7616441353923 139.16190024149466 C 561.7616441353923 141.92332399064864 559.5230678845463 144.16190024149466 556.7616441353923 144.16190024149466 C 554.0002203862383 144.16190024149466 551.7616441353923 141.92332399064864 551.7616441353923 139.16190024149466 C 551.7616441353923 136.4004764923407 554.0002203862383 134.16190024149466 556.7616441353923 134.16190024149466 C 559.5230678845463 134.16190024149466 561.7616441353923 136.4004764923407 561.7616441353923 139.16190024149466 Z" stroke-opacity="1" stroke-linecap="round" stroke-linejoin="round" stroke-miterlimit="10"/><path fill="rgb(97,97,97)" stroke="none" paint-order="stroke fill markers" d=" M 787.7387183031753 139.16190024149464 C 787.7387183031753 141.9233239906486 785.5001420523294 144.16190024149464 782.7387183031753 144.16190024149464 C 779.9772945540213 144.16190024149464 777.7387183031753 141.9233239906486 777.7387183031753 139.16190024149464 C 777.7387183031753 136.40047649234066 779.9772945540213 134.16190024149464 782.7387183031753 134.16190024149464 C 785.5001420523294 134.16190024149464 787.7387183031753 136.40047649234066 787.7387183031753 139.16190024149464 Z" fill-opacity="1"/><path fill="none" stroke="rgb(0,0,0)" paint-order="fill stroke markers" d=" M 787.7387183031753 139.16190024149464 C 787.7387183031753 141.9233239906486 785.5001420523294 144.16190024149464 782.7387183031753 144.16190024149464 C 779.9772945540213 144.16190024149464 777.7387183031753 141.9233239906486 777.7387183031753 139.16190024149464 C 777.7387183031753 136.40047649234066 779.9772945540213 134.16190024149464 782.7387183031753 134.16190024149464 C 785.5001420523294 134.16190024149464 787.7387183031753 136.40047649234066 787.7387183031753 139.16190024149464 Z" stroke-opacity="1" stroke-linecap="round" stroke-linejoin="round" stroke-miterlimit="10"/><path fill="rgb(97,97,97)" stroke="none" paint-order="stroke fill markers" d=" M 857.5694745601481 354.07886916207843 C 857.5694745601481 356.8402929112324 855.3308983093021 359.07886916207843 852.5694745601481 359.07886916207843 C 849.8080508109941 359.07886916207843 847.5694745601481 356.8402929112324 847.5694745601481 354.07886916207843 C 847.5694745601481 351.3174454129245 849.8080508109941 349.07886916207843 852.5694745601481 349.07886916207843 C 855.3308983093021 349.07886916207843 857.5694745601481 351.3174454129245 857.5694745601481 354.07886916207843 Z" fill-opacity="1"/><path fill="none" stroke="rgb(0,0,0)" paint-order="fill stroke markers" d=" M 857.5694745601481 354.07886916207843 C 857.5694745601481 356.8402929112324 855.3308983093021 359.07886916207843 852.5694745601481 359.07886916207843 C 849.8080508109941 359.07886916207843 847.5694745601481 356.8402929112324 847.5694745601481 354.07886916207843 C 847.5694745601481 351.3174454129245 849.8080508109941 349.07886916207843 852.5694745601481 349.07886916207843 C 855.3308983093021 349.07886916207843 857.5694745601481 351.3174454129245 857.5694745601481 354.07886916207843 Z" stroke-opacity="1" stroke-linecap="round" stroke-linejoin="round" stroke-miterlimit="10"/></g></g></svg>