<svg version="1.1" xmlns="http://www.w3.org/2000/svg" xmlns:xlink="http://www.w3.org/1999/xlink" width="1310" height="605"><defs><clipPath id="TsvTDUuVpzfo"><path fill="none" stroke="none" d=" M 0 0 L 1310 0 L 1310 605 L 0 605 L 0 0 Z"/></clipPath></defs><g transform="scale(1,1)" clip-path="url(#TsvTDUuVpzfo)"><g><rect fill="rgb(255,255,255)" stroke="none" x="0" y="0" width="1310" height="605" fill-opacity="1"/><path fill="none" stroke="rgb(0,0,0)" paint-order="fill stroke markers" d=" M 813.6987873560996 522.0170552998923 C 813.6987873560996 341.46445974757694 667.3319892303663 195.09766162184428 486.77939367804987 195.09766162184428 C 306.2267981257336 195.09766162184428 159.86000000000018 341.4644597475768 159.86000000000013 522.0170552998923" stroke-opacity="0.6980392156862745" stroke-linejoin="round" stroke-miterlimit="10" stroke-width="2.5" stroke-dasharray="2.5,3"/><g transform="scale(27,27)"><g transform="translate(18.40740740740741,6.925925925925926)"><path fill="rgb(0,0,0)" stroke="none" paint-order="stroke fill markers" d=" M 0.677 -0.162 L 0.677 -0.162 L 0.644 0 L 0.485 0 Q 0.463 0 0.46 -0.007 Q 0.459 -0.011 0.459 -0.021 Q 0.459 -0.09 0.506 -0.222 Q 0.555 -0.36 0.561 -0.425 Q 0.562 -0.44 0.562 -0.455 Q 0.562 -0.587 0.47000000000000003 -0.649 Q 0.42 -0.683 0.36 -0.683 Q 0.275 -0.683 0.216 -0.62 L 0.216 -0.619 Q 0.159 -0.557 0.159 -0.455 Q 0.159 -0.378 0.20800000000000002 -0.243 Q 0.262 -0.093 0.262 -0.021 Q 0.262 -0.004 0.255 -0.001 L 0.255 -0.001 L 0.254 -0.001 Q 0.25 0 0.23700000000000002 0 L 0.077 0 L 0.044 -0.162 L 0.069 -0.162 Q 0.079 -0.11 0.08700000000000001 -0.088 Q 0.092 -0.073 0.105 -0.069 Q 0.11800000000000001 -0.065 0.153 -0.065 L 0.233 -0.065 Q 0.22 -0.12 0.159 -0.212 L 0.153 -0.222 Q 0.15 -0.226 0.14400000000000002 -0.23500000000000001 Q 0.07200000000000001 -0.343 0.06 -0.41200000000000003 Q 0.056 -0.433 0.056 -0.454 Q 0.056 -0.558 0.145 -0.631 Q 0.233 -0.705 0.361 -0.705 Q 0.496 -0.705 0.586 -0.623 Q 0.665 -0.552 0.665 -0.454 Q 0.665 -0.373 0.595 -0.262 L 0.595 -0.262 L 0.594 -0.261 L 0.593 -0.26 L 0.577 -0.23500000000000001 Q 0.509 -0.135 0.493 -0.083 Q 0.49 -0.074 0.488 -0.065 L 0.5680000000000001 -0.065 Q 0.623 -0.065 0.631 -0.08 L 0.634 -0.089 Q 0.642 -0.111 0.652 -0.162 L 0.677 -0.162 Z"/></g><g transform="translate(19.40740740740741,7.075925925925926) scale(0.7,0.7)"><path fill="rgb(0,0,0)" stroke="none" paint-order="stroke fill markers" d=" M 0.294 -0.64 L 0.294 -0.079 Q 0.294 -0.049 0.306 -0.041 Q 0.323 -0.031 0.387 -0.031 L 0.419 -0.031 L 0.419 0 Q 0.384 -0.003 0.257 -0.003 Q 0.13 -0.003 0.095 0 L 0.095 -0.031 L 0.127 -0.031 Q 0.20400000000000001 -0.031 0.215 -0.049 L 0.216 -0.05 Q 0.22 -0.058 0.22 -0.079 L 0.22 -0.597 Q 0.168 -0.5710000000000001 0.089 -0.5710000000000001 L 0.089 -0.602 Q 0.209 -0.602 0.271 -0.666 Q 0.29 -0.666 0.293 -0.659 L 0.293 -0.659 L 0.293 -0.658 Q 0.294 -0.655 0.294 -0.64 Z"/></g></g><path fill="none" stroke="rgb(0,0,0)" paint-order="fill stroke markers" d=" M 813.6987873560996 74.51328107967916 C 733.7599374146422 129.22544827960775 689.0819876719038 222.4284443729337 696.4946893924152 319.01360277151196 C 703.9073911129267 415.59876117009026 762.2845785671999 500.8924986829687 849.6361302291688 542.7654898816185 C 936.9876818911376 584.6384810802681 1040.0428190881494 576.7292224998208 1119.981669029607 522.0170552998923" stroke-opacity="0.6980392156862745" stroke-linejoin="round" stroke-miterlimit="10" stroke-width="2.5" stroke-dasharray="2.5,3"/><g transform="scale(27,27)"><g transform="translate(26.296296296296298,17.77777777777778)"><path fill="rgb(0,0,0)" stroke="none" paint-order="stroke fill markers" d=" M 0.677 -0.162 L 0.677 -0.162 L 0.644 0 L 0.485 0 Q 0.463 0 0.46 -0.007 Q 0.459 -0.011 0.459 -0.021 Q 0.459 -0.09 0.506 -0.222 Q 0.555 -0.36 0.561 -0.425 Q 0.562 -0.44 0.562 -0.455 Q 0.562 -0.587 0.47000000000000003 -0.649 Q 0.42 -0.683 0.36 -0.683 Q 0.275 -0.683 0.216 -0.62 L 0.216 -0.619 Q 0.159 -0.557 0.159 -0.455 Q 0.159 -0.378 0.20800000000000002 -0.243 Q 0.262 -0.093 0.262 -0.021 Q 0.262 -0.004 0.255 -0.001 L 0.255 -0.001 L 0.254 -0.001 Q 0.25 0 0.23700000000000002 0 L 0.077 0 L 0.044 -0.162 L 0.069 -0.162 Q 0.079 -0.11 0.08700000000000001 -0.088 Q 0.092 -0.073 0.105 -0.069 Q 0.11800000000000001 -0.065 0.153 -0.065 L 0.233 -0.065 Q 0.22 -0.12 0.159 -0.212 L 0.153 -0.222 Q 0.15 -0.226 0.14400000000000002 -0.23500000000000001 Q 0.07200000000000001 -0.343 0.06 -0.41200000000000003 Q 0.056 -0.433 0.056 -0.454 Q 0.056 -0.558 0.145 -0.631 Q 0.233 -0.705 0.361 -0.705 Q 0.496 -0.705 0.586 -0.623 Q 0.665 -0.552 0.665 -0.454 Q 0.665 -0.373 0.595 -0.262 L 0.595 -0.262 L 0.594 -0.261 L 0.593 -0.26 L 0.577 -0.23500000000000001 Q 0.509 -0.135 0.493 -0.083 Q 0.49 -0.074 0.488 -0.065 L 0.5680000000000001 -0.065 Q 0.623 -0.065 0.631 -0.08 L 0.634 -0.089 Q 0.642 -0.111 0.652 -0.162 L 0.677 -0.162 Z"/></g><g transform="translate(27.296296296296298,17.927777777777777) scale(0.7,0.7)"><path fill="rgb(0,0,0)" stroke="none" paint-order="stroke fill markers" d=" M 0.449 -0.17400000000000002 L 0.449 -0.17400000000000002 L 0.421 0 L 0.05 0 Q 0.05 -0.025 0.056 -0.032 L 0.061 -0.037 L 0.253 -0.251 Q 0.358 -0.369 0.358 -0.47200000000000003 Q 0.358 -0.561 0.304 -0.607 L 0.303 -0.608 L 0.302 -0.608 Q 0.27 -0.635 0.224 -0.635 Q 0.152 -0.635 0.109 -0.5730000000000001 Q 0.097 -0.555 0.089 -0.533 Q 0.092 -0.534 0.10200000000000001 -0.534 Q 0.14200000000000002 -0.534 0.153 -0.498 L 0.153 -0.497 Q 0.155 -0.49 0.155 -0.482 Q 0.155 -0.442 0.117 -0.431 Q 0.109 -0.429 0.10300000000000001 -0.429 Q 0.066 -0.429 0.054 -0.46 Q 0.05 -0.47100000000000003 0.05 -0.485 Q 0.05 -0.562 0.109 -0.617 Q 0.162 -0.666 0.23700000000000002 -0.666 Q 0.34700000000000003 -0.666 0.40800000000000003 -0.592 Q 0.443 -0.549 0.448 -0.49 Q 0.449 -0.481 0.449 -0.47200000000000003 Q 0.449 -0.399 0.394 -0.333 Q 0.365 -0.299 0.304 -0.243 L 0.243 -0.189 L 0.233 -0.18 L 0.127 -0.077 L 0.307 -0.077 Q 0.395 -0.077 0.402 -0.085 Q 0.41200000000000003 -0.099 0.424 -0.17400000000000002 L 0.449 -0.17400000000000002 Z"/></g></g><path fill="rgb(0,0,0)" stroke="none" paint-order="stroke fill markers" d=" M 189.86000000000013 522.0170552998923 C 189.86000000000013 517.6381464860165 188.9013923352859 513.3123224706642 187.0514928581389 509.3433535460327 L 159.86000000000013 522.0170552998923 Z" fill-opacity="0.09803921568627451"/><path fill="none" stroke="rgb(0,0,0)" paint-order="fill stroke markers" d=" M 189.86000000000013 522.0170552998923 C 189.86000000000013 517.6381464860165 188.9013923352859 513.3123224706642 187.0514928581389 509.3433535460327 L 159.86000000000013 522.0170552998923 Z" stroke-opacity="0.6" stroke-linecap="round" stroke-linejoin="round" stroke-miterlimit="10" stroke-width="2.5"/><path fill="rgb(0,0,0)" stroke="none" paint-order="stroke fill markers" d=" M 1103.0375309741817 497.2603150952796 C 1099.4239473780212 499.73354294442726 1096.3955966877863 502.9678549521967 1094.1651373405248 506.73612955743084 L 1119.9816690296068 522.0170552998923 Z" fill-opacity="0.09803921568627451"/><path fill="none" stroke="rgb(0,0,0)" paint-order="fill stroke markers" d=" M 1103.0375309741817 497.2603150952796 C 1099.4239473780212 499.73354294442726 1096.3955966877863 502.9678549521967 1094.1651373405248 506.73612955743084 L 1119.9816690296068 522.0170552998923 Z" stroke-opacity="0.6" stroke-linecap="round" stroke-linejoin="round" stroke-miterlimit="10" stroke-width="3.5"/><path fill="rgb(0,0,0)" stroke="none" paint-order="stroke fill markers" d=" M 788.9420471514868 91.45741913510426 C 791.4152750006346 95.07100273126463 794.649587008404 98.09935342149953 798.4178616136381 100.32981276876109 L 813.6987873560996 74.51328107967913 Z" fill-opacity="0.09803921568627451"/><path fill="none" stroke="rgb(0,0,0)" paint-order="fill stroke markers" d=" M 788.9420471514868 91.45741913510426 C 791.4152750006346 95.07100273126463 794.649587008404 98.09935342149953 798.4178616136381 100.32981276876109 L 813.6987873560996 74.51328107967913 Z" stroke-opacity="0.6" stroke-linecap="round" stroke-linejoin="round" stroke-miterlimit="10" stroke-width="3.5"/><path fill="rgb(0,0,0)" stroke="none" paint-order="stroke fill markers" fill-rule="evenodd" d=" M 813.6987873560996 522.0170552998923 L 834.9119907916946 522.0170552998923 L 834.9119907916961 500.80385186429595 L 813.6987873560996 500.80385186429737 L 813.6987873560996 522.0170552998923" fill-opacity="0.09803921568627451"/><path fill="none" stroke="rgb(0,0,0)" paint-order="fill stroke markers" d=" M 813.6987873560996 522.0170552998923 L 834.9119907916946 522.0170552998923 L 834.9119907916961 500.80385186429595 L 813.6987873560996 500.80385186429737 L 813.6987873560996 522.0170552998923" stroke-opacity="0.6" stroke-linecap="round" stroke-linejoin="round" stroke-miterlimit="10" stroke-width="2.5"/><path fill="rgb(0,0,0)" stroke="none" paint-order="stroke fill markers" d=" M 813.6987873560996 492.01705529989243 C 809.3198785422238 492.01705529989243 804.9940545268715 492.9756629646066 801.02508560224 494.82556244175356 L 813.6987873560996 522.0170552998923 Z" fill-opacity="0.09803921568627451"/><path fill="none" stroke="rgb(0,0,0)" paint-order="fill stroke markers" d=" M 813.6987873560996 492.01705529989243 C 809.3198785422238 492.01705529989243 804.9940545268715 492.9756629646066 801.02508560224 494.82556244175356 L 813.6987873560996 522.0170552998923 Z" stroke-opacity="0.6" stroke-linecap="round" stroke-linejoin="round" stroke-miterlimit="10" stroke-width="3.5"/><path fill="rgb(0,0,0)" stroke="none" paint-order="stroke fill markers" fill-rule="evenodd" d=" M 813.6987873560996 74.51328107967913 L 796.1931284773455 86.49459600003048 L 808.1744433976966 104.00025487878652 L 825.6801022764511 92.0189399584332 L 813.6987873560996 74.51328107967913" fill-opacity="0.09803921568627451"/><path fill="none" stroke="rgb(0,0,0)" paint-order="fill stroke markers" d=" M 813.6987873560996 74.51328107967913 L 796.1931284773455 86.49459600003048 L 808.1744433976966 104.00025487878652 L 825.6801022764511 92.0189399584332 L 813.6987873560996 74.51328107967913" stroke-opacity="0.6" stroke-linecap="round" stroke-linejoin="round" stroke-miterlimit="10"/><path fill="none" stroke="rgb(0,0,0)" paint-order="fill stroke markers" d=" M 813.6987873560996 74.51328107967913 L 159.86000000000013 522.0170552998923" stroke-opacity="0.6980392156862745" stroke-linecap="round" stroke-linejoin="round" stroke-miterlimit="10" stroke-width="2.5"/><path fill="none" stroke="rgb(0,0,0)" paint-order="fill stroke markers" d=" M 159.86000000000013 522.0170552998923 L 1119.9816690296068 522.0170552998923" stroke-opacity="0.6980392156862745" stroke-linecap="round" stroke-linejoin="round" stroke-miterlimit="10" stroke-width="2.5"/><path fill="none" stroke="rgb(0,0,0)" paint-order="fill stroke markers" d=" M 813.6987873560996 74.51328107967913 L 1119.9816690296068 522.0170552998923" stroke-opacity="0.6980392156862745" stroke-linecap="round" stroke-linejoin="round" stroke-miterlimit="10" stroke-width="2.5"/><path fill="none" stroke="rgb(0,0,0)" paint-order="fill stroke markers" d=" M 697.0083851932076 271.6571921242172 L 159.86000000000013 522.0170552998923" stroke-opacity="0.6980392156862745" stroke-linecap="round" stroke-linejoin="round" stroke-miterlimit="10" stroke-width="3.5"/><path fill="none" stroke="rgb(0,0,0)" paint-order="fill stroke markers" d=" M 697.0083851932076 271.6571921242172 L 813.6987873560996 522.0170552998923" stroke-opacity="0.6980392156862745" stroke-linecap="round" stroke-linejoin="round" stroke-miterlimit="10" stroke-width="2.5"/><path fill="none" stroke="rgb(0,0,0)" paint-order="fill stroke markers" d=" M 697.0083851932076 271.6571921242172 L 1119.9816690296068 522.0170552998923" stroke-opacity="0.6980392156862745" stroke-linecap="round" stroke-linejoin="round" stroke-miterlimit="10" stroke-width="2.5"/><path fill="none" stroke="rgb(0,0,0)" paint-order="fill stroke markers" d=" M 813.6987873560996 74.51328107967913 L 697.0083851932076 271.6571921242172" stroke-opacity="0.6980392156862745" stroke-linecap="round" stroke-linejoin="round" stroke-miterlimit="10" stroke-width="2.5"/><path fill="none" stroke="rgb(0,0,0)" paint-order="fill stroke markers" d=" M 813.6987873560996 74.51328107967913 L 813.6987873560996 522.0170552998923" stroke-opacity="0.6980392156862745" stroke-linejoin="round" stroke-miterlimit="10" stroke-width="2.5" stroke-dasharray="10.5,8"/><path fill="none" stroke="rgb(0,0,0)" paint-order="fill stroke markers" d=" M 486.77939367804987 522.0170552998923 L 966.8402281928533 298.2651681897857" stroke-opacity="0.6980392156862745" stroke-linejoin="round" stroke-miterlimit="10" stroke-width="0.5" stroke-dasharray="8.5,8"/><path fill="rgb(21,101,192)" stroke="none" paint-order="stroke fill markers" d=" M 818.6987873560996 74.51328107967913 C 818.6987873560996 77.2747048288331 816.4602111052536 79.51328107967913 813.6987873560996 79.51328107967913 C 810.9373636069456 79.51328107967913 808.6987873560996 77.2747048288331 808.6987873560996 74.51328107967913 C 808.6987873560996 71.75185733052517 810.9373636069456 69.51328107967913 813.6987873560996 69.51328107967913 C 816.4602111052536 69.51328107967913 818.6987873560996 71.75185733052517 818.6987873560996 74.51328107967913 Z" fill-opacity="1"/><path fill="none" stroke="rgb(0,0,0)" paint-order="fill stroke markers" d=" M 818.6987873560996 74.51328107967913 C 818.6987873560996 77.2747048288331 816.4602111052536 79.51328107967913 813.6987873560996 79.51328107967913 C 810.9373636069456 79.51328107967913 808.6987873560996 77.2747048288331 808.6987873560996 74.51328107967913 C 808.6987873560996 71.75185733052517 810.9373636069456 69.51328107967913 813.6987873560996 69.51328107967913 C 816.4602111052536 69.51328107967913 818.6987873560996 71.75185733052517 818.6987873560996 74.51328107967913 Z" stroke-opacity="1" stroke-linecap="round" stroke-linejoin="round" stroke-miterlimit="10"/><text fill="rgb(21,101,192)" stroke="none" font-family="geogebra-sans-serif, sans-serif" font-size="24px" font-style="normal" font-weight="normal" text-decoration="normal" x="818" y="65" text-anchor="start" dominant-baseline="alphabetic" fill-opacity="1">A</text><text fill="none" stroke="rgb(255,255,255)" font-family="geogebra-sans-serif, sans-serif" font-size="24px" font-style="normal" font-weight="normal" text-decoration="normal" x="818" y="65" text-anchor="start" dominant-baseline="alphabetic" stroke-opacity="1" stroke-linejoin="bevel" stroke-miterlimit="10" stroke-width="3">A</text><text fill="rgb(21,101,192)" stroke="none" font-family="geogebra-sans-serif, sans-serif" font-size="24px" font-style="normal" font-weight="normal" text-decoration="normal" x="818" y="65" text-anchor="start" dominant-baseline="alphabetic" fill-opacity="1">A</text><path fill="rgb(21,101,192)" stroke="none" paint-order="stroke fill markers" d=" M 164.86000000000013 522.0170552998923 C 164.86000000000013 524.7784790490463 162.6214237491541 527.0170552998923 159.86000000000013 527.0170552998923 C 157.09857625084615 527.0170552998923 154.86000000000013 524.7784790490463 154.86000000000013 522.0170552998923 C 154.86000000000013 519.2556315507383 157.09857625084615 517.0170552998923 159.86000000000013 517.0170552998923 C 162.6214237491541 517.0170552998923 164.86000000000013 519.2556315507383 164.86000000000013 522.0170552998923 Z" fill-opacity="1"/><path fill="none" stroke="rgb(0,0,0)" paint-order="fill stroke markers" d=" M 164.86000000000013 522.0170552998923 C 164.86000000000013 524.7784790490463 162.6214237491541 527.0170552998923 159.86000000000013 527.0170552998923 C 157.09857625084615 527.0170552998923 154.86000000000013 524.7784790490463 154.86000000000013 522.0170552998923 C 154.86000000000013 519.2556315507383 157.09857625084615 517.0170552998923 159.86000000000013 517.0170552998923 C 162.6214237491541 517.0170552998923 164.86000000000013 519.2556315507383 164.86000000000013 522.0170552998923 Z" stroke-opacity="1" stroke-linecap="round" stroke-linejoin="round" stroke-miterlimit="10"/><text fill="rgb(21,101,192)" stroke="none" font-family="geogebra-sans-serif, sans-serif" font-size="24px" font-style="normal" font-weight="normal" text-decoration="normal" x="138" y="555" text-anchor="start" dominant-baseline="alphabetic" fill-opacity="1">B</text><text fill="none" stroke="rgb(255,255,255)" font-family="geogebra-sans-serif, sans-serif" font-size="24px" font-style="normal" font-weight="normal" text-decoration="normal" x="138" y="555" text-anchor="start" dominant-baseline="alphabetic" stroke-opacity="1" stroke-linejoin="bevel" stroke-miterlimit="10" stroke-width="3">B</text><text fill="rgb(21,101,192)" stroke="none" font-family="geogebra-sans-serif, sans-serif" font-size="24px" font-style="normal" font-weight="normal" text-decoration="normal" x="138" y="555" text-anchor="start" dominant-baseline="alphabetic" fill-opacity="1">B</text><path fill="rgb(21,101,192)" stroke="none" paint-order="stroke fill markers" d=" M 1124.9816690296068 522.0170552998923 C 1124.9816690296068 524.7784790490463 1122.7430927787607 527.0170552998923 1119.9816690296068 527.0170552998923 C 1117.220245280453 527.0170552998923 1114.9816690296068 524.7784790490463 1114.9816690296068 522.0170552998923 C 1114.9816690296068 519.2556315507383 1117.220245280453 517.0170552998923 1119.9816690296068 517.0170552998923 C 1122.7430927787607 517.0170552998923 1124.9816690296068 519.2556315507383 1124.9816690296068 522.0170552998923 Z" fill-opacity="1"/><path fill="none" stroke="rgb(0,0,0)" paint-order="fill stroke markers" d=" M 1124.9816690296068 522.0170552998923 C 1124.9816690296068 524.7784790490463 1122.7430927787607 527.0170552998923 1119.9816690296068 527.0170552998923 C 1117.220245280453 527.0170552998923 1114.9816690296068 524.7784790490463 1114.9816690296068 522.0170552998923 C 1114.9816690296068 519.2556315507383 1117.220245280453 517.0170552998923 1119.9816690296068 517.0170552998923 C 1122.7430927787607 517.0170552998923 1124.9816690296068 519.2556315507383 1124.9816690296068 522.0170552998923 Z" stroke-opacity="1" stroke-linecap="round" stroke-linejoin="round" stroke-miterlimit="10"/><text fill="rgb(21,101,192)" stroke="none" font-family="geogebra-sans-serif, sans-serif" font-size="24px" font-style="normal" font-weight="normal" text-decoration="normal" x="1127" y="551" text-anchor="start" dominant-baseline="alphabetic" fill-opacity="1">C</text><text fill="none" stroke="rgb(255,255,255)" font-family="geogebra-sans-serif, sans-serif" font-size="24px" font-style="normal" font-weight="normal" text-decoration="normal" x="1127" y="551" text-anchor="start" dominant-baseline="alphabetic" stroke-opacity="1" stroke-linejoin="bevel" stroke-miterlimit="10" stroke-width="3">C</text><text fill="rgb(21,101,192)" stroke="none" font-family="geogebra-sans-serif, sans-serif" font-size="24px" font-style="normal" font-weight="normal" text-decoration="normal" x="1127" y="551" text-anchor="start" dominant-baseline="alphabetic" fill-opacity="1">C</text><path fill="rgb(21,101,192)" stroke="none" paint-order="stroke fill markers" d=" M 818.6987873560996 522.0170552998923 C 818.6987873560996 524.7784790490463 816.4602111052536 527.0170552998923 813.6987873560996 527.0170552998923 C 810.9373636069456 527.0170552998923 808.6987873560996 524.7784790490463 808.6987873560996 522.0170552998923 C 808.6987873560996 519.2556315507383 810.9373636069456 517.0170552998923 813.6987873560996 517.0170552998923 C 816.4602111052536 517.0170552998923 818.6987873560996 519.2556315507383 818.6987873560996 522.0170552998923 Z" fill-opacity="1"/><path fill="none" stroke="rgb(0,0,0)" paint-order="fill stroke markers" d=" M 818.6987873560996 522.0170552998923 C 818.6987873560996 524.7784790490463 816.4602111052536 527.0170552998923 813.6987873560996 527.0170552998923 C 810.9373636069456 527.0170552998923 808.6987873560996 524.7784790490463 808.6987873560996 522.0170552998923 C 808.6987873560996 519.2556315507383 810.9373636069456 517.0170552998923 813.6987873560996 517.0170552998923 C 816.4602111052536 517.0170552998923 818.6987873560996 519.2556315507383 818.6987873560996 522.0170552998923 Z" stroke-opacity="1" stroke-linecap="round" stroke-linejoin="round" stroke-miterlimit="10"/><text fill="rgb(21,101,192)" stroke="none" font-family="geogebra-sans-serif, sans-serif" font-size="24px" font-style="normal" font-weight="normal" text-decoration="normal" x="801" y="553" text-anchor="start" dominant-baseline="alphabetic" fill-opacity="1">D</text><text fill="none" stroke="rgb(255,255,255)" font-family="geogebra-sans-serif, sans-serif" font-size="24px" font-style="normal" font-weight="normal" text-decoration="normal" x="801" y="553" text-anchor="start" dominant-baseline="alphabetic" stroke-opacity="1" stroke-linejoin="bevel" stroke-miterlimit="10" stroke-width="3">D</text><text fill="rgb(21,101,192)" stroke="none" font-family="geogebra-sans-serif, sans-serif" font-size="24px" font-style="normal" font-weight="normal" text-decoration="normal" x="801" y="553" text-anchor="start" dominant-baseline="alphabetic" fill-opacity="1">D</text><path fill="rgb(46,125,50)" stroke="none" paint-order="stroke fill markers" d=" M 702.0083851932076 271.6571921242172 C 702.0083851932076 274.41861587337115 699.7698089423616 276.6571921242172 697.0083851932076 276.6571921242172 C 694.2469614440536 276.6571921242172 692.0083851932076 274.41861587337115 692.0083851932076 271.6571921242172 C 692.0083851932076 268.89576837506326 694.2469614440536 266.6571921242172 697.0083851932076 266.6571921242172 C 699.7698089423616 266.6571921242172 702.0083851932076 268.89576837506326 702.0083851932076 271.6571921242172 Z" fill-opacity="1"/><path fill="none" stroke="rgb(0,0,0)" paint-order="fill stroke markers" d=" M 702.0083851932076 271.6571921242172 C 702.0083851932076 274.41861587337115 699.7698089423616 276.6571921242172 697.0083851932076 276.6571921242172 C 694.2469614440536 276.6571921242172 692.0083851932076 274.41861587337115 692.0083851932076 271.6571921242172 C 692.0083851932076 268.89576837506326 694.2469614440536 266.6571921242172 697.0083851932076 266.6571921242172 C 699.7698089423616 266.6571921242172 702.0083851932076 268.89576837506326 702.0083851932076 271.6571921242172 Z" stroke-opacity="1" stroke-linecap="round" stroke-linejoin="round" stroke-miterlimit="10"/><text fill="rgb(46,125,50)" stroke="none" font-family="geogebra-sans-serif, sans-serif" font-size="24px" font-style="normal" font-weight="normal" text-decoration="normal" x="683" y="304" text-anchor="start" dominant-baseline="alphabetic" fill-opacity="1">N</text><text fill="none" stroke="rgb(255,255,255)" font-family="geogebra-sans-serif, sans-serif" font-size="24px" font-style="normal" font-weight="normal" text-decoration="normal" x="683" y="304" text-anchor="start" dominant-baseline="alphabetic" stroke-opacity="1" stroke-linejoin="bevel" stroke-miterlimit="10" stroke-width="3">N</text><text fill="rgb(46,125,50)" stroke="none" font-family="geogebra-sans-serif, sans-serif" font-size="24px" font-style="normal" font-weight="normal" text-decoration="normal" x="683" y="304" text-anchor="start" dominant-baseline="alphabetic" fill-opacity="1">N</text><path fill="rgb(211,47,47)" stroke="none" paint-order="stroke fill markers" d=" M 491.77939367804987 522.0170552998923 C 491.77939367804987 524.7784790490463 489.5408174272038 527.0170552998923 486.77939367804987 527.0170552998923 C 484.0179699288959 527.0170552998923 481.77939367804987 524.7784790490463 481.77939367804987 522.0170552998923 C 481.77939367804987 519.2556315507383 484.0179699288959 517.0170552998923 486.77939367804987 517.0170552998923 C 489.5408174272038 517.0170552998923 491.77939367804987 519.2556315507383 491.77939367804987 522.0170552998923 Z" fill-opacity="1"/><path fill="none" stroke="rgb(0,0,0)" paint-order="fill stroke markers" d=" M 491.77939367804987 522.0170552998923 C 491.77939367804987 524.7784790490463 489.5408174272038 527.0170552998923 486.77939367804987 527.0170552998923 C 484.0179699288959 527.0170552998923 481.77939367804987 524.7784790490463 481.77939367804987 522.0170552998923 C 481.77939367804987 519.2556315507383 484.0179699288959 517.0170552998923 486.77939367804987 517.0170552998923 C 489.5408174272038 517.0170552998923 491.77939367804987 519.2556315507383 491.77939367804987 522.0170552998923 Z" stroke-opacity="1" stroke-linecap="round" stroke-linejoin="round" stroke-miterlimit="10"/><path fill="rgb(211,47,47)" stroke="none" paint-order="stroke fill markers" d=" M 971.8402281928533 298.2651681897857 C 971.8402281928533 301.02659193893965 969.6016519420073 303.2651681897857 966.8402281928533 303.2651681897857 C 964.0788044436993 303.2651681897857 961.8402281928533 301.02659193893965 961.8402281928533 298.2651681897857 C 961.8402281928533 295.50374444063175 964.0788044436993 293.2651681897857 966.8402281928533 293.2651681897857 C 969.6016519420073 293.2651681897857 971.8402281928533 295.50374444063175 971.8402281928533 298.2651681897857 Z" fill-opacity="1"/><path fill="none" stroke="rgb(0,0,0)" paint-order="fill stroke markers" d=" M 971.8402281928533 298.2651681897857 C 971.8402281928533 301.02659193893965 969.6016519420073 303.2651681897857 966.8402281928533 303.2651681897857 C 964.0788044436993 303.2651681897857 961.8402281928533 301.02659193893965 961.8402281928533 298.2651681897857 C 961.8402281928533 295.50374444063175 964.0788044436993 293.2651681897857 966.8402281928533 293.2651681897857 C 969.6016519420073 293.2651681897857 971.8402281928533 295.50374444063175 971.8402281928533 298.2651681897857 Z" stroke-opacity="1" stroke-linecap="round" stroke-linejoin="round" stroke-miterlimit="10"/></g></g></svg>