<svg version="1.1" xmlns="http://www.w3.org/2000/svg" xmlns:xlink="http://www.w3.org/1999/xlink" width="1310" height="605"><defs><clipPath id="QoqvAzNxhZlI"><path fill="none" stroke="none" d=" M 0 0 L 1310 0 L 1310 605 L 0 605 L 0 0 Z"/></clipPath></defs><g transform="scale(1,1)" clip-path="url(#QoqvAzNxhZlI)"><g><rect fill="rgb(255,255,255)" stroke="none" x="0" y="0" width="1310" height="605" fill-opacity="1"/><path fill="none" stroke="rgb(0,0,0)" paint-order="fill stroke markers" d=" M 652.0000000000003 610 L 652.0000000000003 -5" stroke-opacity="0.6980392156862745" stroke-linecap="round" stroke-linejoin="round" stroke-miterlimit="10" stroke-width="2.5"/><path fill="none" stroke="rgb(0,0,0)" paint-order="fill stroke markers" d=" M 579.2268803945751 610 L 1047.8705302096182 -5" stroke-opacity="0.6980392156862745" stroke-linecap="round" stroke-linejoin="round" stroke-miterlimit="10" stroke-width="2.5"/><path fill="none" stroke="rgb(0,0,0)" paint-order="fill stroke markers" d=" M 724.7731196054256 610 L 256.12946979038253 -5" stroke-opacity="0.6980392156862745" stroke-linecap="round" stroke-linejoin="round" stroke-miterlimit="10" stroke-width="2.5"/><path fill="none" stroke="rgb(0,0,0)" paint-order="fill stroke markers" d=" M 855.6699190589097 247.2244266071594 L 523.1763702248495 345.44504247953523" stroke-opacity="0.6980392156862745" stroke-linecap="round" stroke-linejoin="round" stroke-miterlimit="10" stroke-width="2.5"/><path fill="rgb(21,101,192)" stroke="none" paint-order="stroke fill markers" d=" M 657.0000000000003 514.5000000000001 C 657.0000000000003 517.2614237491541 654.7614237491543 519.5000000000001 652.0000000000003 519.5000000000001 C 649.2385762508463 519.5000000000001 647.0000000000003 517.2614237491541 647.0000000000003 514.5000000000001 C 647.0000000000003 511.73857625084617 649.2385762508463 509.5000000000001 652.0000000000003 509.5000000000001 C 654.7614237491543 509.5000000000001 657.0000000000003 511.73857625084617 657.0000000000003 514.5000000000001 Z" fill-opacity="1"/><path fill="none" stroke="rgb(0,0,0)" paint-order="fill stroke markers" d=" M 657.0000000000003 514.5000000000001 C 657.0000000000003 517.2614237491541 654.7614237491543 519.5000000000001 652.0000000000003 519.5000000000001 C 649.2385762508463 519.5000000000001 647.0000000000003 517.2614237491541 647.0000000000003 514.5000000000001 C 647.0000000000003 511.73857625084617 649.2385762508463 509.5000000000001 652.0000000000003 509.5000000000001 C 654.7614237491543 509.5000000000001 657.0000000000003 511.73857625084617 657.0000000000003 514.5000000000001 Z" stroke-opacity="1" stroke-linecap="round" stroke-linejoin="round" stroke-miterlimit="10"/><text fill="rgb(21,101,192)" stroke="none" font-family="geogebra-sans-serif, sans-serif" font-size="24px" font-style="normal" font-weight="normal" text-decoration="normal" x="645" y="558" text-anchor="start" dominant-baseline="alphabetic" fill-opacity="1">A</text><text fill="none" stroke="rgb(255,255,255)" font-family="geogebra-sans-serif, sans-serif" font-size="24px" font-style="normal" font-weight="normal" text-decoration="normal" x="645" y="558" text-anchor="start" dominant-baseline="alphabetic" stroke-opacity="1" stroke-linejoin="bevel" stroke-miterlimit="10" stroke-width="3">A</text><text fill="rgb(21,101,192)" stroke="none" font-family="geogebra-sans-serif, sans-serif" font-size="24px" font-style="normal" font-weight="normal" text-decoration="normal" x="645" y="558" text-anchor="start" dominant-baseline="alphabetic" fill-opacity="1">A</text><path fill="rgb(21,101,192)" stroke="none" paint-order="stroke fill markers" d=" M 657.0000000000003 308.0000000000002 C 657.0000000000003 310.7614237491542 654.7614237491543 313.0000000000002 652.0000000000003 313.0000000000002 C 649.2385762508463 313.0000000000002 647.0000000000003 310.7614237491542 647.0000000000003 308.0000000000002 C 647.0000000000003 305.2385762508463 649.2385762508463 303.0000000000002 652.0000000000003 303.0000000000002 C 654.7614237491543 303.0000000000002 657.0000000000003 305.2385762508463 657.0000000000003 308.0000000000002 Z" fill-opacity="1"/><path fill="none" stroke="rgb(0,0,0)" paint-order="fill stroke markers" d=" M 657.0000000000003 308.0000000000002 C 657.0000000000003 310.7614237491542 654.7614237491543 313.0000000000002 652.0000000000003 313.0000000000002 C 649.2385762508463 313.0000000000002 647.0000000000003 310.7614237491542 647.0000000000003 308.0000000000002 C 647.0000000000003 305.2385762508463 649.2385762508463 303.0000000000002 652.0000000000003 303.0000000000002 C 654.7614237491543 303.0000000000002 657.0000000000003 305.2385762508463 657.0000000000003 308.0000000000002 Z" stroke-opacity="1" stroke-linecap="round" stroke-linejoin="round" stroke-miterlimit="10"/><text fill="rgb(21,101,192)" stroke="none" font-family="geogebra-sans-serif, sans-serif" font-size="24px" font-style="normal" font-weight="normal" text-decoration="normal" x="666" y="285" text-anchor="start" dominant-baseline="alphabetic" fill-opacity="1">D</text><text fill="none" stroke="rgb(255,255,255)" font-family="geogebra-sans-serif, sans-serif" font-size="24px" font-style="normal" font-weight="normal" text-decoration="normal" x="666" y="285" text-anchor="start" dominant-baseline="alphabetic" stroke-opacity="1" stroke-linejoin="bevel" stroke-miterlimit="10" stroke-width="3">D</text><text fill="rgb(21,101,192)" stroke="none" font-family="geogebra-sans-serif, sans-serif" font-size="24px" font-style="normal" font-weight="normal" text-decoration="normal" x="666" y="285" text-anchor="start" dominant-baseline="alphabetic" fill-opacity="1">D</text><path fill="rgb(21,101,192)" stroke="none" paint-order="stroke fill markers" d=" M 860.6699190589097 247.2244266071594 C 860.6699190589097 249.98585035631336 858.4313428080637 252.2244266071594 855.6699190589097 252.2244266071594 C 852.9084953097557 252.2244266071594 850.6699190589097 249.98585035631336 850.6699190589097 247.2244266071594 C 850.6699190589097 244.4630028580054 852.9084953097557 242.2244266071594 855.6699190589097 242.2244266071594 C 858.4313428080637 242.2244266071594 860.6699190589097 244.4630028580054 860.6699190589097 247.2244266071594 Z" fill-opacity="1"/><path fill="none" stroke="rgb(0,0,0)" paint-order="fill stroke markers" d=" M 860.6699190589097 247.2244266071594 C 860.6699190589097 249.98585035631336 858.4313428080637 252.2244266071594 855.6699190589097 252.2244266071594 C 852.9084953097557 252.2244266071594 850.6699190589097 249.98585035631336 850.6699190589097 247.2244266071594 C 850.6699190589097 244.4630028580054 852.9084953097557 242.2244266071594 855.6699190589097 242.2244266071594 C 858.4313428080637 242.2244266071594 860.6699190589097 244.4630028580054 860.6699190589097 247.2244266071594 Z" stroke-opacity="1" stroke-linecap="round" stroke-linejoin="round" stroke-miterlimit="10"/><text fill="rgb(21,101,192)" stroke="none" font-family="geogebra-sans-serif, sans-serif" font-size="24px" font-style="normal" font-weight="normal" text-decoration="normal" x="881" y="249" text-anchor="start" dominant-baseline="alphabetic" fill-opacity="1">C</text><text fill="none" stroke="rgb(255,255,255)" font-family="geogebra-sans-serif, sans-serif" font-size="24px" font-style="normal" font-weight="normal" text-decoration="normal" x="881" y="249" text-anchor="start" dominant-baseline="alphabetic" stroke-opacity="1" stroke-linejoin="bevel" stroke-miterlimit="10" stroke-width="3">C</text><text fill="rgb(21,101,192)" stroke="none" font-family="geogebra-sans-serif, sans-serif" font-size="24px" font-style="normal" font-weight="normal" text-decoration="normal" x="881" y="249" text-anchor="start" dominant-baseline="alphabetic" fill-opacity="1">C</text><path fill="rgb(21,101,192)" stroke="none" paint-order="stroke fill markers" d=" M 528.1763702248495 345.44504247953523 C 528.1763702248495 348.2064662286892 525.9377939740035 350.44504247953523 523.1763702248495 350.44504247953523 C 520.4149464756955 350.44504247953523 518.1763702248495 348.2064662286892 518.1763702248495 345.44504247953523 C 518.1763702248495 342.6836187303813 520.4149464756955 340.44504247953523 523.1763702248495 340.44504247953523 C 525.9377939740035 340.44504247953523 528.1763702248495 342.6836187303813 528.1763702248495 345.44504247953523 Z" fill-opacity="1"/><path fill="none" stroke="rgb(0,0,0)" paint-order="fill stroke markers" d=" M 528.1763702248495 345.44504247953523 C 528.1763702248495 348.2064662286892 525.9377939740035 350.44504247953523 523.1763702248495 350.44504247953523 C 520.4149464756955 350.44504247953523 518.1763702248495 348.2064662286892 518.1763702248495 345.44504247953523 C 518.1763702248495 342.6836187303813 520.4149464756955 340.44504247953523 523.1763702248495 340.44504247953523 C 525.9377939740035 340.44504247953523 528.1763702248495 342.6836187303813 528.1763702248495 345.44504247953523 Z" stroke-opacity="1" stroke-linecap="round" stroke-linejoin="round" stroke-miterlimit="10"/><text fill="rgb(21,101,192)" stroke="none" font-family="geogebra-sans-serif, sans-serif" font-size="24px" font-style="normal" font-weight="normal" text-decoration="normal" x="487" y="367" text-anchor="start" dominant-baseline="alphabetic" fill-opacity="1">B</text><text fill="none" stroke="rgb(255,255,255)" font-family="geogebra-sans-serif, sans-serif" font-size="24px" font-style="normal" font-weight="normal" text-decoration="normal" x="487" y="367" text-anchor="start" dominant-baseline="alphabetic" stroke-opacity="1" stroke-linejoin="bevel" stroke-miterlimit="10" stroke-width="3">B</text><text fill="rgb(21,101,192)" stroke="none" font-family="geogebra-sans-serif, sans-serif" font-size="24px" font-style="normal" font-weight="normal" text-decoration="normal" x="487" y="367" text-anchor="start" dominant-baseline="alphabetic" fill-opacity="1">B</text></g></g></svg>