<svg version="1.1" xmlns="http://www.w3.org/2000/svg" xmlns:xlink="http://www.w3.org/1999/xlink" width="1310" height="605"><defs><clipPath id="hkCDspTaVtNl"><path fill="none" stroke="none" d=" M 0 0 L 1310 0 L 1310 605 L 0 605 L 0 0 Z"/></clipPath></defs><g transform="scale(1,1)" clip-path="url(#hkCDspTaVtNl)"><g><rect fill="rgb(255,255,255)" stroke="none" x="0" y="0" width="1310" height="605" fill-opacity="1"/><path fill="none" stroke="rgb(0,0,0)" paint-order="fill stroke markers" d=" M 897.1806743723607 310.5153133896055 C 897.1806743723607 456.0343832830313 779.2141601753166 574.0008974800758 633.6950902818912 574.0008974800758 C 488.1760203884659 574.0008974800758 370.2095061914218 456.0343832830313 370.2095061914218 310.5153133896055 C 370.2095061914218 164.99624349617972 488.1760203884659 47.02972929913534 633.6950902818912 47.02972929913534 C 779.2141601753166 47.02972929913534 897.1806743723607 164.99624349617972 897.1806743723607 310.5153133896055 Z" stroke-opacity="0.6980392156862745" stroke-linecap="round" stroke-linejoin="round" stroke-miterlimit="10" stroke-width="2.5"/><path fill="rgb(0,0,0)" stroke="none" paint-order="stroke fill markers" fill-rule="evenodd" d=" M 558.5 442.2581054348406 L 579.713203435595 442.2581054348406 L 579.7132034355964 421.04490199924413 L 558.5 421.04490199924555 L 558.5 442.2581054348406" fill-opacity="0.09803921568627451"/><path fill="none" stroke="rgb(0,0,0)" paint-order="fill stroke markers" d=" M 558.5 442.2581054348406 L 579.713203435595 442.2581054348406 L 579.7132034355964 421.04490199924413 L 558.5 421.04490199924555 L 558.5 442.2581054348406" stroke-opacity="0.6" stroke-linecap="round" stroke-linejoin="round" stroke-miterlimit="10" stroke-width="2.5"/><path fill="rgb(0,0,0)" stroke="none" paint-order="stroke fill markers" fill-rule="evenodd" d=" M 733.9619375676345 220.69700311279271 L 723.355335849837 202.32583004192006 L 704.9841627789625 212.93243175971708 L 715.590764496762 231.30360483059025 L 733.9619375676345 220.69700311279271" fill-opacity="0.09803921568627451"/><path fill="none" stroke="rgb(0,0,0)" paint-order="fill stroke markers" d=" M 733.9619375676345 220.69700311279271 L 723.355335849837 202.32583004192006 L 704.9841627789625 212.93243175971708 L 715.590764496762 231.30360483059025 L 733.9619375676345 220.69700311279271" stroke-opacity="0.6" stroke-linecap="round" stroke-linejoin="round" stroke-miterlimit="10" stroke-width="2.5"/><path fill="rgb(0,0,0)" stroke="none" paint-order="stroke fill markers" fill-rule="evenodd" d=" M 495.8306978552024 285.817861536775 L 485.2240961374049 304.18903460764767 L 503.595269208278 314.79563632544716 L 514.201870926075 296.4244632545726 L 495.8306978552024 285.817861536775" fill-opacity="0.09803921568627451"/><path fill="none" stroke="rgb(0,0,0)" paint-order="fill stroke markers" d=" M 495.8306978552024 285.817861536775 L 485.2240961374049 304.18903460764767 L 503.595269208278 314.79563632544716 L 514.201870926075 296.4244632545726 L 495.8306978552024 285.817861536775" stroke-opacity="0.6" stroke-linecap="round" stroke-linejoin="round" stroke-miterlimit="10" stroke-width="2.5"/><path fill="none" stroke="rgb(0,0,0)" paint-order="fill stroke markers" d=" M 633.6950902818912 47.02972929913534 L 405.50988092856375 442.25810543484056" stroke-opacity="0.6980392156862745" stroke-linecap="round" stroke-linejoin="round" stroke-miterlimit="10" stroke-width="2.5"/><path fill="none" stroke="rgb(0,0,0)" paint-order="fill stroke markers" d=" M 405.50988092856375 442.25810543484056 L 861.8802996352188 442.2581054348406" stroke-opacity="0.6980392156862745" stroke-linecap="round" stroke-linejoin="round" stroke-miterlimit="10" stroke-width="2.5"/><path fill="none" stroke="rgb(0,0,0)" paint-order="fill stroke markers" d=" M 861.8802996352188 442.2581054348406 L 633.6950902818912 47.02972929913534" stroke-opacity="0.6980392156862745" stroke-linecap="round" stroke-linejoin="round" stroke-miterlimit="10" stroke-width="2.5"/><path fill="none" stroke="rgb(0,0,0)" paint-order="fill stroke markers" d=" M 558.5 322.00000000000006 L 558.5 442.2581054348406" stroke-opacity="0.6980392156862745" stroke-linecap="round" stroke-linejoin="round" stroke-miterlimit="10" stroke-width="2.5"/><path fill="none" stroke="rgb(0,0,0)" paint-order="fill stroke markers" d=" M 558.5 322.00000000000006 L 733.9619375676345 220.69700311279271" stroke-opacity="0.6980392156862745" stroke-linecap="round" stroke-linejoin="round" stroke-miterlimit="10" stroke-width="2.5"/><path fill="none" stroke="rgb(0,0,0)" paint-order="fill stroke markers" d=" M 558.5 322.00000000000006 L 495.8306978552024 285.817861536775" stroke-opacity="0.6980392156862745" stroke-linecap="round" stroke-linejoin="round" stroke-miterlimit="10" stroke-width="2.5"/><path fill="none" stroke="rgb(0,0,0)" paint-order="fill stroke markers" d=" M 558.5 322.00000000000006 L 405.50988092856375 442.25810543484056" stroke-opacity="0.6980392156862745" stroke-linejoin="round" stroke-miterlimit="10" stroke-width="2.5" stroke-dasharray="10.5,8"/><path fill="none" stroke="rgb(0,0,0)" paint-order="fill stroke markers" d=" M 558.5 322.00000000000006 L 861.8802996352188 442.2581054348406" stroke-opacity="0.6980392156862745" stroke-linejoin="round" stroke-miterlimit="10" stroke-width="2.5" stroke-dasharray="10.5,8"/><path fill="none" stroke="rgb(0,0,0)" paint-order="fill stroke markers" d=" M 558.5 322.00000000000006 L 633.6950902818912 47.02972929913534" stroke-opacity="0.6980392156862745" stroke-linejoin="round" stroke-miterlimit="10" stroke-width="2.5" stroke-dasharray="10.5,8"/><path fill="rgb(211,47,47)" stroke="none" paint-order="stroke fill markers" d=" M 638.6950902818912 310.5153133896055 C 638.6950902818912 313.2767371387595 636.4565140310452 315.5153133896055 633.6950902818912 315.5153133896055 C 630.9336665327372 315.5153133896055 628.6950902818912 313.2767371387595 628.6950902818912 310.5153133896055 C 628.6950902818912 307.7538896404516 630.9336665327372 305.5153133896055 633.6950902818912 305.5153133896055 C 636.4565140310452 305.5153133896055 638.6950902818912 307.7538896404516 638.6950902818912 310.5153133896055 Z" fill-opacity="1"/><path fill="none" stroke="rgb(0,0,0)" paint-order="fill stroke markers" d=" M 638.6950902818912 310.5153133896055 C 638.6950902818912 313.2767371387595 636.4565140310452 315.5153133896055 633.6950902818912 315.5153133896055 C 630.9336665327372 315.5153133896055 628.6950902818912 313.2767371387595 628.6950902818912 310.5153133896055 C 628.6950902818912 307.7538896404516 630.9336665327372 305.5153133896055 633.6950902818912 305.5153133896055 C 636.4565140310452 305.5153133896055 638.6950902818912 307.7538896404516 638.6950902818912 310.5153133896055 Z" stroke-opacity="1" stroke-linecap="round" stroke-linejoin="round" stroke-miterlimit="10"/><path fill="rgb(21,101,192)" stroke="none" paint-order="stroke fill markers" d=" M 638.6950902818912 47.02972929913534 C 638.6950902818912 49.7911530482893 636.4565140310452 52.02972929913534 633.6950902818912 52.02972929913534 C 630.9336665327372 52.02972929913534 628.6950902818912 49.7911530482893 628.6950902818912 47.02972929913534 C 628.6950902818912 44.26830554998137 630.9336665327372 42.02972929913534 633.6950902818912 42.02972929913534 C 636.4565140310452 42.02972929913534 638.6950902818912 44.26830554998137 638.6950902818912 47.02972929913534 Z" fill-opacity="1"/><path fill="none" stroke="rgb(0,0,0)" paint-order="fill stroke markers" d=" M 638.6950902818912 47.02972929913534 C 638.6950902818912 49.7911530482893 636.4565140310452 52.02972929913534 633.6950902818912 52.02972929913534 C 630.9336665327372 52.02972929913534 628.6950902818912 49.7911530482893 628.6950902818912 47.02972929913534 C 628.6950902818912 44.26830554998137 630.9336665327372 42.02972929913534 633.6950902818912 42.02972929913534 C 636.4565140310452 42.02972929913534 638.6950902818912 44.26830554998137 638.6950902818912 47.02972929913534 Z" stroke-opacity="1" stroke-linecap="round" stroke-linejoin="round" stroke-miterlimit="10"/><text fill="rgb(21,101,192)" stroke="none" font-family="geogebra-sans-serif, sans-serif" font-size="24px" font-style="normal" font-weight="normal" text-decoration="normal" x="638" y="37" text-anchor="start" dominant-baseline="alphabetic" fill-opacity="1">A</text><text fill="none" stroke="rgb(255,255,255)" font-family="geogebra-sans-serif, sans-serif" font-size="24px" font-style="normal" font-weight="normal" text-decoration="normal" x="638" y="37" text-anchor="start" dominant-baseline="alphabetic" stroke-opacity="1" stroke-linejoin="bevel" stroke-miterlimit="10" stroke-width="3">A</text><text fill="rgb(21,101,192)" stroke="none" font-family="geogebra-sans-serif, sans-serif" font-size="24px" font-style="normal" font-weight="normal" text-decoration="normal" x="638" y="37" text-anchor="start" dominant-baseline="alphabetic" fill-opacity="1">A</text><path fill="rgb(21,101,192)" stroke="none" paint-order="stroke fill markers" d=" M 866.8802996352188 442.2581054348406 C 866.8802996352188 445.01952918399456 864.6417233843728 447.2581054348406 861.8802996352188 447.2581054348406 C 859.1188758860648 447.2581054348406 856.8802996352188 445.01952918399456 856.8802996352188 442.2581054348406 C 856.8802996352188 439.49668168568667 859.1188758860648 437.2581054348406 861.8802996352188 437.2581054348406 C 864.6417233843728 437.2581054348406 866.8802996352188 439.49668168568667 866.8802996352188 442.2581054348406 Z" fill-opacity="1"/><path fill="none" stroke="rgb(0,0,0)" paint-order="fill stroke markers" d=" M 866.8802996352188 442.2581054348406 C 866.8802996352188 445.01952918399456 864.6417233843728 447.2581054348406 861.8802996352188 447.2581054348406 C 859.1188758860648 447.2581054348406 856.8802996352188 445.01952918399456 856.8802996352188 442.2581054348406 C 856.8802996352188 439.49668168568667 859.1188758860648 437.2581054348406 861.8802996352188 437.2581054348406 C 864.6417233843728 437.2581054348406 866.8802996352188 439.49668168568667 866.8802996352188 442.2581054348406 Z" stroke-opacity="1" stroke-linecap="round" stroke-linejoin="round" stroke-miterlimit="10"/><text fill="rgb(21,101,192)" stroke="none" font-family="geogebra-sans-serif, sans-serif" font-size="24px" font-style="normal" font-weight="normal" text-decoration="normal" x="873" y="454" text-anchor="start" dominant-baseline="alphabetic" fill-opacity="1">C</text><text fill="none" stroke="rgb(255,255,255)" font-family="geogebra-sans-serif, sans-serif" font-size="24px" font-style="normal" font-weight="normal" text-decoration="normal" x="873" y="454" text-anchor="start" dominant-baseline="alphabetic" stroke-opacity="1" stroke-linejoin="bevel" stroke-miterlimit="10" stroke-width="3">C</text><text fill="rgb(21,101,192)" stroke="none" font-family="geogebra-sans-serif, sans-serif" font-size="24px" font-style="normal" font-weight="normal" text-decoration="normal" x="873" y="454" text-anchor="start" dominant-baseline="alphabetic" fill-opacity="1">C</text><path fill="rgb(21,101,192)" stroke="none" paint-order="stroke fill markers" d=" M 410.50988092856375 442.25810543484056 C 410.50988092856375 445.0195291839945 408.2713046777177 447.25810543484056 405.50988092856375 447.25810543484056 C 402.7484571794098 447.25810543484056 400.50988092856375 445.0195291839945 400.50988092856375 442.25810543484056 C 400.50988092856375 439.4966816856866 402.7484571794098 437.25810543484056 405.50988092856375 437.25810543484056 C 408.2713046777177 437.25810543484056 410.50988092856375 439.4966816856866 410.50988092856375 442.25810543484056 Z" fill-opacity="1"/><path fill="none" stroke="rgb(0,0,0)" paint-order="fill stroke markers" d=" M 410.50988092856375 442.25810543484056 C 410.50988092856375 445.0195291839945 408.2713046777177 447.25810543484056 405.50988092856375 447.25810543484056 C 402.7484571794098 447.25810543484056 400.50988092856375 445.0195291839945 400.50988092856375 442.25810543484056 C 400.50988092856375 439.4966816856866 402.7484571794098 437.25810543484056 405.50988092856375 437.25810543484056 C 408.2713046777177 437.25810543484056 410.50988092856375 439.4966816856866 410.50988092856375 442.25810543484056 Z" stroke-opacity="1" stroke-linecap="round" stroke-linejoin="round" stroke-miterlimit="10"/><text fill="rgb(21,101,192)" stroke="none" font-family="geogebra-sans-serif, sans-serif" font-size="24px" font-style="normal" font-weight="normal" text-decoration="normal" x="375" y="456" text-anchor="start" dominant-baseline="alphabetic" fill-opacity="1">B</text><text fill="none" stroke="rgb(255,255,255)" font-family="geogebra-sans-serif, sans-serif" font-size="24px" font-style="normal" font-weight="normal" text-decoration="normal" x="375" y="456" text-anchor="start" dominant-baseline="alphabetic" stroke-opacity="1" stroke-linejoin="bevel" stroke-miterlimit="10" stroke-width="3">B</text><text fill="rgb(21,101,192)" stroke="none" font-family="geogebra-sans-serif, sans-serif" font-size="24px" font-style="normal" font-weight="normal" text-decoration="normal" x="375" y="456" text-anchor="start" dominant-baseline="alphabetic" fill-opacity="1">B</text><path fill="rgb(219,97,20)" stroke="none" paint-order="stroke fill markers" d=" M 563.5 322.00000000000006 C 563.5 324.761423749154 561.261423749154 327.00000000000006 558.5 327.00000000000006 C 555.738576250846 327.00000000000006 553.5 324.761423749154 553.5 322.00000000000006 C 553.5 319.2385762508461 555.738576250846 317.00000000000006 558.5 317.00000000000006 C 561.261423749154 317.00000000000006 563.5 319.2385762508461 563.5 322.00000000000006 Z" fill-opacity="1"/><path fill="none" stroke="rgb(0,0,0)" paint-order="fill stroke markers" d=" M 563.5 322.00000000000006 C 563.5 324.761423749154 561.261423749154 327.00000000000006 558.5 327.00000000000006 C 555.738576250846 327.00000000000006 553.5 324.761423749154 553.5 322.00000000000006 C 553.5 319.2385762508461 555.738576250846 317.00000000000006 558.5 317.00000000000006 C 561.261423749154 317.00000000000006 563.5 319.2385762508461 563.5 322.00000000000006 Z" stroke-opacity="1" stroke-linecap="round" stroke-linejoin="round" stroke-miterlimit="10"/><text fill="rgb(219,97,20)" stroke="none" font-family="geogebra-sans-serif, sans-serif" font-size="24px" font-style="normal" font-weight="normal" text-decoration="normal" x="543" y="305" text-anchor="start" dominant-baseline="alphabetic" fill-opacity="1">P</text><text fill="none" stroke="rgb(255,255,255)" font-family="geogebra-sans-serif, sans-serif" font-size="24px" font-style="normal" font-weight="normal" text-decoration="normal" x="543" y="305" text-anchor="start" dominant-baseline="alphabetic" stroke-opacity="1" stroke-linejoin="bevel" stroke-miterlimit="10" stroke-width="3">P</text><text fill="rgb(219,97,20)" stroke="none" font-family="geogebra-sans-serif, sans-serif" font-size="24px" font-style="normal" font-weight="normal" text-decoration="normal" x="543" y="305" text-anchor="start" dominant-baseline="alphabetic" fill-opacity="1">P</text><path fill="rgb(46,125,50)" stroke="none" paint-order="stroke fill markers" d=" M 563.5 442.2581054348406 C 563.5 445.01952918399456 561.261423749154 447.2581054348406 558.5 447.2581054348406 C 555.738576250846 447.2581054348406 553.5 445.01952918399456 553.5 442.2581054348406 C 553.5 439.49668168568667 555.738576250846 437.2581054348406 558.5 437.2581054348406 C 561.261423749154 437.2581054348406 563.5 439.49668168568667 563.5 442.2581054348406 Z" fill-opacity="1"/><path fill="none" stroke="rgb(0,0,0)" paint-order="fill stroke markers" d=" M 563.5 442.2581054348406 C 563.5 445.01952918399456 561.261423749154 447.2581054348406 558.5 447.2581054348406 C 555.738576250846 447.2581054348406 553.5 445.01952918399456 553.5 442.2581054348406 C 553.5 439.49668168568667 555.738576250846 437.2581054348406 558.5 437.2581054348406 C 561.261423749154 437.2581054348406 563.5 439.49668168568667 563.5 442.2581054348406 Z" stroke-opacity="1" stroke-linecap="round" stroke-linejoin="round" stroke-miterlimit="10"/><text fill="rgb(46,125,50)" stroke="none" font-family="geogebra-sans-serif, sans-serif" font-size="24px" font-style="normal" font-weight="normal" text-decoration="normal" x="556" y="470" text-anchor="start" dominant-baseline="alphabetic" fill-opacity="1">D</text><text fill="none" stroke="rgb(255,255,255)" font-family="geogebra-sans-serif, sans-serif" font-size="24px" font-style="normal" font-weight="normal" text-decoration="normal" x="556" y="470" text-anchor="start" dominant-baseline="alphabetic" stroke-opacity="1" stroke-linejoin="bevel" stroke-miterlimit="10" stroke-width="3">D</text><text fill="rgb(46,125,50)" stroke="none" font-family="geogebra-sans-serif, sans-serif" font-size="24px" font-style="normal" font-weight="normal" text-decoration="normal" x="556" y="470" text-anchor="start" dominant-baseline="alphabetic" fill-opacity="1">D</text><path fill="rgb(46,125,50)" stroke="none" paint-order="stroke fill markers" d=" M 738.9619375676345 220.69700311279271 C 738.9619375676345 223.4584268619467 736.7233613167886 225.69700311279271 733.9619375676345 225.69700311279271 C 731.2005138184805 225.69700311279271 728.9619375676345 223.4584268619467 728.9619375676345 220.69700311279271 C 728.9619375676345 217.93557936363874 731.2005138184805 215.69700311279271 733.9619375676345 215.69700311279271 C 736.7233613167886 215.69700311279271 738.9619375676345 217.93557936363874 738.9619375676345 220.69700311279271 Z" fill-opacity="1"/><path fill="none" stroke="rgb(0,0,0)" paint-order="fill stroke markers" d=" M 738.9619375676345 220.69700311279271 C 738.9619375676345 223.4584268619467 736.7233613167886 225.69700311279271 733.9619375676345 225.69700311279271 C 731.2005138184805 225.69700311279271 728.9619375676345 223.4584268619467 728.9619375676345 220.69700311279271 C 728.9619375676345 217.93557936363874 731.2005138184805 215.69700311279271 733.9619375676345 215.69700311279271 C 736.7233613167886 215.69700311279271 738.9619375676345 217.93557936363874 738.9619375676345 220.69700311279271 Z" stroke-opacity="1" stroke-linecap="round" stroke-linejoin="round" stroke-miterlimit="10"/><text fill="rgb(46,125,50)" stroke="none" font-family="geogebra-sans-serif, sans-serif" font-size="24px" font-style="normal" font-weight="normal" text-decoration="normal" x="747" y="224" text-anchor="start" dominant-baseline="alphabetic" fill-opacity="1">F</text><text fill="none" stroke="rgb(255,255,255)" font-family="geogebra-sans-serif, sans-serif" font-size="24px" font-style="normal" font-weight="normal" text-decoration="normal" x="747" y="224" text-anchor="start" dominant-baseline="alphabetic" stroke-opacity="1" stroke-linejoin="bevel" stroke-miterlimit="10" stroke-width="3">F</text><text fill="rgb(46,125,50)" stroke="none" font-family="geogebra-sans-serif, sans-serif" font-size="24px" font-style="normal" font-weight="normal" text-decoration="normal" x="747" y="224" text-anchor="start" dominant-baseline="alphabetic" fill-opacity="1">F</text><path fill="rgb(46,125,50)" stroke="none" paint-order="stroke fill markers" d=" M 500.8306978552024 285.817861536775 C 500.8306978552024 288.57928528592896 498.59212160435635 290.817861536775 495.8306978552024 290.817861536775 C 493.06927410604845 290.817861536775 490.8306978552024 288.57928528592896 490.8306978552024 285.817861536775 C 490.8306978552024 283.05643778762106 493.06927410604845 280.817861536775 495.8306978552024 280.817861536775 C 498.59212160435635 280.817861536775 500.8306978552024 283.05643778762106 500.8306978552024 285.817861536775 Z" fill-opacity="1"/><path fill="none" stroke="rgb(0,0,0)" paint-order="fill stroke markers" d=" M 500.8306978552024 285.817861536775 C 500.8306978552024 288.57928528592896 498.59212160435635 290.817861536775 495.8306978552024 290.817861536775 C 493.06927410604845 290.817861536775 490.8306978552024 288.57928528592896 490.8306978552024 285.817861536775 C 490.8306978552024 283.05643778762106 493.06927410604845 280.817861536775 495.8306978552024 280.817861536775 C 498.59212160435635 280.817861536775 500.8306978552024 283.05643778762106 500.8306978552024 285.817861536775 Z" stroke-opacity="1" stroke-linecap="round" stroke-linejoin="round" stroke-miterlimit="10"/><text fill="rgb(46,125,50)" stroke="none" font-family="geogebra-sans-serif, sans-serif" font-size="24px" font-style="normal" font-weight="normal" text-decoration="normal" x="469" y="283" text-anchor="start" dominant-baseline="alphabetic" fill-opacity="1">E</text><text fill="none" stroke="rgb(255,255,255)" font-family="geogebra-sans-serif, sans-serif" font-size="24px" font-style="normal" font-weight="normal" text-decoration="normal" x="469" y="283" text-anchor="start" dominant-baseline="alphabetic" stroke-opacity="1" stroke-linejoin="bevel" stroke-miterlimit="10" stroke-width="3">E</text><text fill="rgb(46,125,50)" stroke="none" font-family="geogebra-sans-serif, sans-serif" font-size="24px" font-style="normal" font-weight="normal" text-decoration="normal" x="469" y="283" text-anchor="start" dominant-baseline="alphabetic" fill-opacity="1">E</text></g></g></svg>