<?xml version="1.0" encoding="UTF-8"?>
<svg xmlns="http://www.w3.org/2000/svg" xmlns:xlink="http://www.w3.org/1999/xlink" width="1366pt" height="565pt" viewBox="0 0 1366 565" version="1.1">
<g id="surface1">
<path style=" stroke:none;fill-rule:evenodd;fill:rgb(0%,0%,100%);fill-opacity:1;" d="M 287 348 L 286 331 L 269 331 L 270 348 Z M 287 348 "/>
<path style=" stroke:none;fill-rule:evenodd;fill:rgb(100%,100%,100%);fill-opacity:0.4;" d="M 287 348 L 286 333 L 271 333 L 272 348 Z M 287 348 "/>
<path style="fill:none;stroke-width:1;stroke-linecap:round;stroke-linejoin:round;stroke:rgb(0%,0%,100%);stroke-opacity:1;stroke-miterlimit:10;" d="M 509.5 217.5 L 65.5 215.5 " transform="matrix(1,0,0,-1,0,565)"/>
<path style="fill:none;stroke-width:1;stroke-linecap:round;stroke-linejoin:round;stroke:rgb(0%,0%,100%);stroke-opacity:1;stroke-miterlimit:10;" d="M 285.929688 565.5 L 288.480469 -1.5 " transform="matrix(1,0,0,-1,0,565)"/>
<path style="fill:none;stroke-width:1;stroke-linecap:round;stroke-linejoin:round;stroke:rgb(0%,0%,100%);stroke-opacity:1;stroke-miterlimit:10;" d="M 65.5 215.5 L 286.5 437.46875 " transform="matrix(1,0,0,-1,0,565)"/>
<path style="fill:none;stroke-width:1;stroke-linecap:round;stroke-linejoin:round;stroke:rgb(0%,0%,100%);stroke-opacity:1;stroke-miterlimit:10;" d="M 509.5 217.5 L 286.5 437.46875 " transform="matrix(1,0,0,-1,0,565)"/>
<path style="fill-rule:nonzero;fill:rgb(100%,0%,0%);fill-opacity:1;stroke-width:1;stroke-linecap:square;stroke-linejoin:miter;stroke:rgb(0%,0%,0%);stroke-opacity:1;stroke-miterlimit:10;" d="M 70.5 215.5 C 70.5 212.738281 68.261719 210.5 65.5 210.5 C 62.738281 210.5 60.5 212.738281 60.5 215.5 C 60.5 218.261719 62.738281 220.5 65.5 220.5 C 68.261719 220.5 70.5 218.261719 70.5 215.5 Z M 70.5 215.5 " transform="matrix(1,0,0,-1,0,565)"/>
<path style="fill-rule:nonzero;fill:rgb(100%,0%,0%);fill-opacity:1;stroke-width:1;stroke-linecap:square;stroke-linejoin:miter;stroke:rgb(0%,0%,0%);stroke-opacity:1;stroke-miterlimit:10;" d="M 514.5 217.5 C 514.5 214.738281 512.261719 212.5 509.5 212.5 C 506.738281 212.5 504.5 214.738281 504.5 217.5 C 504.5 220.261719 506.738281 222.5 509.5 222.5 C 512.261719 222.5 514.5 220.261719 514.5 217.5 Z M 514.5 217.5 " transform="matrix(1,0,0,-1,0,565)"/>
<path style="fill-rule:nonzero;fill:rgb(69.802856%,0%,0%);fill-opacity:1;stroke-width:1;stroke-linecap:square;stroke-linejoin:miter;stroke:rgb(0%,0%,0%);stroke-opacity:1;stroke-miterlimit:10;" d="M 292.5 216.5 C 292.5 213.738281 290.261719 211.5 287.5 211.5 C 284.738281 211.5 282.5 213.738281 282.5 216.5 C 282.5 219.261719 284.738281 221.5 287.5 221.5 C 290.261719 221.5 292.5 219.261719 292.5 216.5 Z M 292.5 216.5 " transform="matrix(1,0,0,-1,0,565)"/>
<path style="fill-rule:nonzero;fill:rgb(100%,0%,0%);fill-opacity:1;stroke-width:1;stroke-linecap:square;stroke-linejoin:miter;stroke:rgb(0%,0%,0%);stroke-opacity:1;stroke-miterlimit:10;" d="M 291.5 437.46875 C 291.5 434.710938 289.269531 432.46875 286.5 432.46875 C 283.738281 432.46875 281.5 434.710938 281.5 437.46875 C 281.5 440.238281 283.738281 442.46875 286.5 442.46875 C 289.269531 442.46875 291.5 440.238281 291.5 437.46875 Z M 291.5 437.46875 " transform="matrix(1,0,0,-1,0,565)"/>
<path style=" stroke:none;fill-rule:nonzero;fill:rgb(0%,0%,0%);fill-opacity:1;" d="M 74.941406 335.03125 L 74.941406 340.371094 L 78.089844 340.371094 C 78.089844 340.371094 79.691406 340.371094 80.449219 339.71875 C 80.449219 339.71875 81.21875 339.058594 81.21875 337.699219 C 81.21875 337.699219 81.21875 336.328125 80.449219 335.691406 C 80.449219 335.691406 79.691406 335.03125 78.089844 335.03125 Z M 74.941406 329.050781 L 74.941406 333.441406 L 77.859375 333.441406 C 77.859375 333.441406 79.300781 333.441406 80 332.890625 C 80 332.890625 80.71875 332.339844 80.71875 331.230469 C 80.71875 331.230469 80.71875 330.140625 80 329.589844 C 80 329.589844 79.300781 329.050781 77.859375 329.050781 Z M 72.96875 327.421875 L 78 327.421875 C 78 327.421875 80.269531 327.421875 81.480469 328.359375 C 81.480469 328.359375 82.699219 329.300781 82.699219 331.019531 C 82.699219 331.019531 82.699219 332.359375 82.078125 333.160156 C 82.078125 333.160156 81.449219 333.941406 80.230469 334.140625 C 80.230469 334.140625 81.691406 334.449219 82.5 335.449219 C 82.5 335.449219 83.308594 336.441406 83.308594 337.921875 C 83.308594 337.921875 83.308594 339.871094 81.980469 340.941406 C 81.980469 340.941406 80.660156 342 78.199219 342 L 72.96875 342 Z M 72.96875 327.421875 "/>
<path style=" stroke:none;fill-rule:nonzero;fill:rgb(0%,0%,0%);fill-opacity:1;" d="M 527.878906 326.550781 L 527.878906 328.621094 C 527.878906 328.621094 526.890625 327.691406 525.75 327.230469 C 525.75 327.230469 524.628906 326.78125 523.359375 326.78125 C 523.359375 326.78125 520.859375 326.78125 519.53125 328.308594 C 519.53125 328.308594 518.199219 329.828125 518.199219 332.71875 C 518.199219 332.71875 518.199219 335.609375 519.53125 337.140625 C 519.53125 337.140625 520.859375 338.660156 523.359375 338.660156 C 523.359375 338.660156 524.628906 338.660156 525.75 338.199219 C 525.75 338.199219 526.890625 337.75 527.878906 336.808594 L 527.878906 338.871094 C 527.878906 338.871094 526.839844 339.578125 525.691406 339.941406 C 525.691406 339.941406 524.53125 340.28125 523.25 340.28125 C 523.25 340.28125 519.941406 340.28125 518.03125 338.269531 C 518.03125 338.269531 516.128906 336.230469 516.128906 332.71875 C 516.128906 332.71875 516.128906 329.199219 518.03125 327.191406 C 518.03125 327.191406 519.941406 325.160156 523.25 325.160156 C 523.25 325.160156 524.550781 325.160156 525.699219 325.5 C 525.699219 325.5 526.859375 325.839844 527.878906 326.550781 Z M 527.878906 326.550781 "/>
<path style=" stroke:none;fill-rule:nonzero;fill:rgb(0%,0%,0%);fill-opacity:1;" d="M 296.941406 328.050781 L 296.941406 339.371094 L 299.308594 339.371094 C 299.308594 339.371094 302.339844 339.371094 303.730469 338.019531 C 303.730469 338.019531 305.140625 336.640625 305.140625 333.691406 C 305.140625 333.691406 305.140625 330.769531 303.730469 329.410156 C 303.730469 329.410156 302.339844 328.050781 299.308594 328.050781 Z M 294.96875 326.421875 L 299.019531 326.421875 C 299.019531 326.421875 303.25 326.421875 305.230469 328.191406 C 305.230469 328.191406 307.21875 329.941406 307.21875 333.691406 C 307.21875 333.691406 307.21875 337.46875 305.21875 339.230469 C 305.21875 339.230469 303.230469 341 299.019531 341 L 294.96875 341 Z M 294.96875 326.421875 "/>
<path style=" stroke:none;fill-rule:nonzero;fill:rgb(0%,0%,0%);fill-opacity:1;" d="M 298.839844 107.359375 L 296.160156 114.621094 L 301.519531 114.621094 Z M 297.71875 105.421875 L 299.949219 105.421875 L 305.519531 120 L 303.46875 120 L 302.140625 116.269531 L 295.558594 116.269531 L 294.230469 120 L 292.160156 120 Z M 297.71875 105.421875 "/>
</g>
</svg>
