<svg version="1.1" xmlns="http://www.w3.org/2000/svg" xmlns:xlink="http://www.w3.org/1999/xlink" width="1310" height="704"><defs><clipPath id="bRBeUcwZiTmB"><path fill="none" stroke="none" d=" M 0 0 L 1310 0 L 1310 704 L 0 704 L 0 0 Z"/></clipPath></defs><g transform="scale(1,1)" clip-path="url(#bRBeUcwZiTmB)"><g><rect fill="rgb(255,255,255)" stroke="none" x="0" y="0" width="1310" height="704" fill-opacity="1"/><path fill="none" stroke="rgb(0,0,0)" paint-order="fill stroke markers" d=" M 529.9233461445792 90.28943124645917 L 285.75179635719553 578.6325308212267" stroke-opacity="0.6980392156862745" stroke-linecap="round" stroke-linejoin="round" stroke-miterlimit="10" stroke-width="2.5"/><path fill="none" stroke="rgb(0,0,0)" paint-order="fill stroke markers" d=" M 285.75179635719553 578.6325308212267 L 1140.3522206130385 578.6325308212267" stroke-opacity="0.6980392156862745" stroke-linecap="round" stroke-linejoin="round" stroke-miterlimit="10" stroke-width="2.5"/><path fill="none" stroke="rgb(0,0,0)" paint-order="fill stroke markers" d=" M 1140.3522206130385 578.6325308212267 L 529.9233461445792 90.28943124645917" stroke-opacity="0.6980392156862745" stroke-linecap="round" stroke-linejoin="round" stroke-miterlimit="10" stroke-width="2.5"/><path fill="none" stroke="rgb(0,0,0)" paint-order="fill stroke markers" d=" M 529.9233461445792 90.28943124645917 L 489.9845052871633 578.6325308212267" stroke-opacity="0.6980392156862745" stroke-linecap="round" stroke-linejoin="round" stroke-miterlimit="10" stroke-width="2.5"/><path fill="none" stroke="rgb(0,0,0)" paint-order="fill stroke markers" d=" M 285.75179635719553 578.6325308212267 L 730.8692082592878 251.04612093822607" stroke-opacity="0.6980392156862745" stroke-linecap="round" stroke-linejoin="round" stroke-miterlimit="10" stroke-width="2.5"/><path fill="none" stroke="rgb(0,0,0)" paint-order="fill stroke markers" d=" M 1140.3522206130385 578.6325308212267 L 381.03065216784694 388.0748191999238" stroke-opacity="0.6980392156862745" stroke-linecap="round" stroke-linejoin="round" stroke-miterlimit="10" stroke-width="2.5"/><path fill="rgb(21,101,192)" stroke="none" paint-order="stroke fill markers" d=" M 534.9233461445792 90.28943124645917 C 534.9233461445792 93.05085499561314 532.6847698937332 95.28943124645917 529.9233461445792 95.28943124645917 C 527.1619223954252 95.28943124645917 524.9233461445792 93.05085499561314 524.9233461445792 90.28943124645917 C 524.9233461445792 87.52800749730521 527.1619223954252 85.28943124645917 529.9233461445792 85.28943124645917 C 532.6847698937332 85.28943124645917 534.9233461445792 87.52800749730521 534.9233461445792 90.28943124645917 Z" fill-opacity="1"/><path fill="none" stroke="rgb(0,0,0)" paint-order="fill stroke markers" d=" M 534.9233461445792 90.28943124645917 C 534.9233461445792 93.05085499561314 532.6847698937332 95.28943124645917 529.9233461445792 95.28943124645917 C 527.1619223954252 95.28943124645917 524.9233461445792 93.05085499561314 524.9233461445792 90.28943124645917 C 524.9233461445792 87.52800749730521 527.1619223954252 85.28943124645917 529.9233461445792 85.28943124645917 C 532.6847698937332 85.28943124645917 534.9233461445792 87.52800749730521 534.9233461445792 90.28943124645917 Z" stroke-opacity="1" stroke-linecap="round" stroke-linejoin="round" stroke-miterlimit="10"/><text fill="rgb(21,101,192)" stroke="none" font-family="geogebra-sans-serif, sans-serif" font-size="24px" font-style="normal" font-weight="normal" text-decoration="normal" x="527" y="70" text-anchor="start" dominant-baseline="alphabetic" fill-opacity="1">A</text><text fill="none" stroke="rgb(255,255,255)" font-family="geogebra-sans-serif, sans-serif" font-size="24px" font-style="normal" font-weight="normal" text-decoration="normal" x="527" y="70" text-anchor="start" dominant-baseline="alphabetic" stroke-opacity="1" stroke-linejoin="bevel" stroke-miterlimit="10" stroke-width="3">A</text><text fill="rgb(21,101,192)" stroke="none" font-family="geogebra-sans-serif, sans-serif" font-size="24px" font-style="normal" font-weight="normal" text-decoration="normal" x="527" y="70" text-anchor="start" dominant-baseline="alphabetic" fill-opacity="1">A</text><path fill="rgb(21,101,192)" stroke="none" paint-order="stroke fill markers" d=" M 290.75179635719553 578.6325308212267 C 290.75179635719553 581.3939545703807 288.5132201063495 583.6325308212267 285.75179635719553 583.6325308212267 C 282.9903726080416 583.6325308212267 280.75179635719553 581.3939545703807 280.75179635719553 578.6325308212267 C 280.75179635719553 575.8711070720727 282.9903726080416 573.6325308212267 285.75179635719553 573.6325308212267 C 288.5132201063495 573.6325308212267 290.75179635719553 575.8711070720727 290.75179635719553 578.6325308212267 Z" fill-opacity="1"/><path fill="none" stroke="rgb(0,0,0)" paint-order="fill stroke markers" d=" M 290.75179635719553 578.6325308212267 C 290.75179635719553 581.3939545703807 288.5132201063495 583.6325308212267 285.75179635719553 583.6325308212267 C 282.9903726080416 583.6325308212267 280.75179635719553 581.3939545703807 280.75179635719553 578.6325308212267 C 280.75179635719553 575.8711070720727 282.9903726080416 573.6325308212267 285.75179635719553 573.6325308212267 C 288.5132201063495 573.6325308212267 290.75179635719553 575.8711070720727 290.75179635719553 578.6325308212267 Z" stroke-opacity="1" stroke-linecap="round" stroke-linejoin="round" stroke-miterlimit="10"/><text fill="rgb(21,101,192)" stroke="none" font-family="geogebra-sans-serif, sans-serif" font-size="24px" font-style="normal" font-weight="normal" text-decoration="normal" x="256" y="615" text-anchor="start" dominant-baseline="alphabetic" fill-opacity="1">B</text><text fill="none" stroke="rgb(255,255,255)" font-family="geogebra-sans-serif, sans-serif" font-size="24px" font-style="normal" font-weight="normal" text-decoration="normal" x="256" y="615" text-anchor="start" dominant-baseline="alphabetic" stroke-opacity="1" stroke-linejoin="bevel" stroke-miterlimit="10" stroke-width="3">B</text><text fill="rgb(21,101,192)" stroke="none" font-family="geogebra-sans-serif, sans-serif" font-size="24px" font-style="normal" font-weight="normal" text-decoration="normal" x="256" y="615" text-anchor="start" dominant-baseline="alphabetic" fill-opacity="1">B</text><path fill="rgb(21,101,192)" stroke="none" paint-order="stroke fill markers" d=" M 1145.3522206130385 578.6325308212267 C 1145.3522206130385 581.3939545703807 1143.1136443621924 583.6325308212267 1140.3522206130385 583.6325308212267 C 1137.5907968638846 583.6325308212267 1135.3522206130385 581.3939545703807 1135.3522206130385 578.6325308212267 C 1135.3522206130385 575.8711070720727 1137.5907968638846 573.6325308212267 1140.3522206130385 573.6325308212267 C 1143.1136443621924 573.6325308212267 1145.3522206130385 575.8711070720727 1145.3522206130385 578.6325308212267 Z" fill-opacity="1"/><path fill="none" stroke="rgb(0,0,0)" paint-order="fill stroke markers" d=" M 1145.3522206130385 578.6325308212267 C 1145.3522206130385 581.3939545703807 1143.1136443621924 583.6325308212267 1140.3522206130385 583.6325308212267 C 1137.5907968638846 583.6325308212267 1135.3522206130385 581.3939545703807 1135.3522206130385 578.6325308212267 C 1135.3522206130385 575.8711070720727 1137.5907968638846 573.6325308212267 1140.3522206130385 573.6325308212267 C 1143.1136443621924 573.6325308212267 1145.3522206130385 575.8711070720727 1145.3522206130385 578.6325308212267 Z" stroke-opacity="1" stroke-linecap="round" stroke-linejoin="round" stroke-miterlimit="10"/><text fill="rgb(21,101,192)" stroke="none" font-family="geogebra-sans-serif, sans-serif" font-size="24px" font-style="normal" font-weight="normal" text-decoration="normal" x="1160" y="608" text-anchor="start" dominant-baseline="alphabetic" fill-opacity="1">C</text><text fill="none" stroke="rgb(255,255,255)" font-family="geogebra-sans-serif, sans-serif" font-size="24px" font-style="normal" font-weight="normal" text-decoration="normal" x="1160" y="608" text-anchor="start" dominant-baseline="alphabetic" stroke-opacity="1" stroke-linejoin="bevel" stroke-miterlimit="10" stroke-width="3">C</text><text fill="rgb(21,101,192)" stroke="none" font-family="geogebra-sans-serif, sans-serif" font-size="24px" font-style="normal" font-weight="normal" text-decoration="normal" x="1160" y="608" text-anchor="start" dominant-baseline="alphabetic" fill-opacity="1">C</text><path fill="rgb(211,47,47)" stroke="none" paint-order="stroke fill markers" d=" M 508.06447566796703 418.70016571049035 C 508.06447566796703 421.4615894596443 505.825899417121 423.70016571049035 503.06447566796703 423.70016571049035 C 500.3030519188131 423.70016571049035 498.06447566796703 421.4615894596443 498.06447566796703 418.70016571049035 C 498.06447566796703 415.9387419613364 500.3030519188131 413.70016571049035 503.06447566796703 413.70016571049035 C 505.825899417121 413.70016571049035 508.06447566796703 415.9387419613364 508.06447566796703 418.70016571049035 Z" fill-opacity="1"/><path fill="none" stroke="rgb(0,0,0)" paint-order="fill stroke markers" d=" M 508.06447566796703 418.70016571049035 C 508.06447566796703 421.4615894596443 505.825899417121 423.70016571049035 503.06447566796703 423.70016571049035 C 500.3030519188131 423.70016571049035 498.06447566796703 421.4615894596443 498.06447566796703 418.70016571049035 C 498.06447566796703 415.9387419613364 500.3030519188131 413.70016571049035 503.06447566796703 413.70016571049035 C 505.825899417121 413.70016571049035 508.06447566796703 415.9387419613364 508.06447566796703 418.70016571049035 Z" stroke-opacity="1" stroke-linecap="round" stroke-linejoin="round" stroke-miterlimit="10"/><text fill="rgb(211,47,47)" stroke="none" font-family="geogebra-sans-serif, sans-serif" font-size="24px" font-style="normal" font-weight="normal" text-decoration="normal" x="515" y="387" text-anchor="start" dominant-baseline="alphabetic" fill-opacity="1">P</text><text fill="none" stroke="rgb(255,255,255)" font-family="geogebra-sans-serif, sans-serif" font-size="24px" font-style="normal" font-weight="normal" text-decoration="normal" x="515" y="387" text-anchor="start" dominant-baseline="alphabetic" stroke-opacity="1" stroke-linejoin="bevel" stroke-miterlimit="10" stroke-width="3">P</text><text fill="rgb(211,47,47)" stroke="none" font-family="geogebra-sans-serif, sans-serif" font-size="24px" font-style="normal" font-weight="normal" text-decoration="normal" x="515" y="387" text-anchor="start" dominant-baseline="alphabetic" fill-opacity="1">P</text><path fill="rgb(46,125,50)" stroke="none" paint-order="stroke fill markers" d=" M 494.9845052871633 578.6325308212267 C 494.9845052871633 581.3939545703807 492.74592903631725 583.6325308212267 489.9845052871633 583.6325308212267 C 487.22308153800935 583.6325308212267 484.9845052871633 581.3939545703807 484.9845052871633 578.6325308212267 C 484.9845052871633 575.8711070720727 487.22308153800935 573.6325308212267 489.9845052871633 573.6325308212267 C 492.74592903631725 573.6325308212267 494.9845052871633 575.8711070720727 494.9845052871633 578.6325308212267 Z" fill-opacity="1"/><path fill="none" stroke="rgb(0,0,0)" paint-order="fill stroke markers" d=" M 494.9845052871633 578.6325308212267 C 494.9845052871633 581.3939545703807 492.74592903631725 583.6325308212267 489.9845052871633 583.6325308212267 C 487.22308153800935 583.6325308212267 484.9845052871633 581.3939545703807 484.9845052871633 578.6325308212267 C 484.9845052871633 575.8711070720727 487.22308153800935 573.6325308212267 489.9845052871633 573.6325308212267 C 492.74592903631725 573.6325308212267 494.9845052871633 575.8711070720727 494.9845052871633 578.6325308212267 Z" stroke-opacity="1" stroke-linecap="round" stroke-linejoin="round" stroke-miterlimit="10"/><text fill="rgb(46,125,50)" stroke="none" font-family="geogebra-sans-serif, sans-serif" font-size="24px" font-style="normal" font-weight="normal" text-decoration="normal" x="481" y="624" text-anchor="start" dominant-baseline="alphabetic" fill-opacity="1">D</text><text fill="none" stroke="rgb(255,255,255)" font-family="geogebra-sans-serif, sans-serif" font-size="24px" font-style="normal" font-weight="normal" text-decoration="normal" x="481" y="624" text-anchor="start" dominant-baseline="alphabetic" stroke-opacity="1" stroke-linejoin="bevel" stroke-miterlimit="10" stroke-width="3">D</text><text fill="rgb(46,125,50)" stroke="none" font-family="geogebra-sans-serif, sans-serif" font-size="24px" font-style="normal" font-weight="normal" text-decoration="normal" x="481" y="624" text-anchor="start" dominant-baseline="alphabetic" fill-opacity="1">D</text><path fill="rgb(46,125,50)" stroke="none" paint-order="stroke fill markers" d=" M 735.8692082592878 251.04612093822607 C 735.8692082592878 253.80754468738004 733.6306320084418 256.04612093822607 730.8692082592878 256.04612093822607 C 728.1077845101338 256.04612093822607 725.8692082592878 253.80754468738004 725.8692082592878 251.04612093822607 C 725.8692082592878 248.2846971890721 728.1077845101338 246.04612093822607 730.8692082592878 246.04612093822607 C 733.6306320084418 246.04612093822607 735.8692082592878 248.2846971890721 735.8692082592878 251.04612093822607 Z" fill-opacity="1"/><path fill="none" stroke="rgb(0,0,0)" paint-order="fill stroke markers" d=" M 735.8692082592878 251.04612093822607 C 735.8692082592878 253.80754468738004 733.6306320084418 256.04612093822607 730.8692082592878 256.04612093822607 C 728.1077845101338 256.04612093822607 725.8692082592878 253.80754468738004 725.8692082592878 251.04612093822607 C 725.8692082592878 248.2846971890721 728.1077845101338 246.04612093822607 730.8692082592878 246.04612093822607 C 733.6306320084418 246.04612093822607 735.8692082592878 248.2846971890721 735.8692082592878 251.04612093822607 Z" stroke-opacity="1" stroke-linecap="round" stroke-linejoin="round" stroke-miterlimit="10"/><text fill="rgb(46,125,50)" stroke="none" font-family="geogebra-sans-serif, sans-serif" font-size="24px" font-style="normal" font-weight="normal" text-decoration="normal" x="751" y="240" text-anchor="start" dominant-baseline="alphabetic" fill-opacity="1">E</text><text fill="none" stroke="rgb(255,255,255)" font-family="geogebra-sans-serif, sans-serif" font-size="24px" font-style="normal" font-weight="normal" text-decoration="normal" x="751" y="240" text-anchor="start" dominant-baseline="alphabetic" stroke-opacity="1" stroke-linejoin="bevel" stroke-miterlimit="10" stroke-width="3">E</text><text fill="rgb(46,125,50)" stroke="none" font-family="geogebra-sans-serif, sans-serif" font-size="24px" font-style="normal" font-weight="normal" text-decoration="normal" x="751" y="240" text-anchor="start" dominant-baseline="alphabetic" fill-opacity="1">E</text><path fill="rgb(46,125,50)" stroke="none" paint-order="stroke fill markers" d=" M 386.03065216784694 388.0748191999238 C 386.03065216784694 390.83624294907776 383.7920759170009 393.0748191999238 381.03065216784694 393.0748191999238 C 378.269228418693 393.0748191999238 376.03065216784694 390.83624294907776 376.03065216784694 388.0748191999238 C 376.03065216784694 385.31339545076986 378.269228418693 383.0748191999238 381.03065216784694 383.0748191999238 C 383.7920759170009 383.0748191999238 386.03065216784694 385.31339545076986 386.03065216784694 388.0748191999238 Z" fill-opacity="1"/><path fill="none" stroke="rgb(0,0,0)" paint-order="fill stroke markers" d=" M 386.03065216784694 388.0748191999238 C 386.03065216784694 390.83624294907776 383.7920759170009 393.0748191999238 381.03065216784694 393.0748191999238 C 378.269228418693 393.0748191999238 376.03065216784694 390.83624294907776 376.03065216784694 388.0748191999238 C 376.03065216784694 385.31339545076986 378.269228418693 383.0748191999238 381.03065216784694 383.0748191999238 C 383.7920759170009 383.0748191999238 386.03065216784694 385.31339545076986 386.03065216784694 388.0748191999238 Z" stroke-opacity="1" stroke-linecap="round" stroke-linejoin="round" stroke-miterlimit="10"/><text fill="rgb(46,125,50)" stroke="none" font-family="geogebra-sans-serif, sans-serif" font-size="24px" font-style="normal" font-weight="normal" text-decoration="normal" x="335" y="382" text-anchor="start" dominant-baseline="alphabetic" fill-opacity="1">F</text><text fill="none" stroke="rgb(255,255,255)" font-family="geogebra-sans-serif, sans-serif" font-size="24px" font-style="normal" font-weight="normal" text-decoration="normal" x="335" y="382" text-anchor="start" dominant-baseline="alphabetic" stroke-opacity="1" stroke-linejoin="bevel" stroke-miterlimit="10" stroke-width="3">F</text><text fill="rgb(46,125,50)" stroke="none" font-family="geogebra-sans-serif, sans-serif" font-size="24px" font-style="normal" font-weight="normal" text-decoration="normal" x="335" y="382" text-anchor="start" dominant-baseline="alphabetic" fill-opacity="1">F</text></g></g></svg>