<svg version="1.1" xmlns="http://www.w3.org/2000/svg" xmlns:xlink="http://www.w3.org/1999/xlink" width="1310" height="704"><defs><clipPath id="xDLdWuNwotHR"><path fill="none" stroke="none" d=" M 0 0 L 1310 0 L 1310 704 L 0 704 L 0 0 Z"/></clipPath></defs><g transform="scale(1,1)" clip-path="url(#xDLdWuNwotHR)"><g><rect fill="rgb(255,255,255)" stroke="none" x="0" y="0" width="1310" height="704" fill-opacity="1"/><path fill="rgb(0,0,0)" stroke="none" paint-order="stroke fill markers" fill-rule="evenodd" d=" M 525.2415017639241 591.3674144673782 L 525.2415017639241 570.1542110317832 L 504.0282983283277 570.1542110317818 L 504.02829832832913 591.3674144673782 L 525.2415017639241 591.3674144673782" fill-opacity="0.09803921568627451"/><path fill="none" stroke="rgb(0,0,0)" paint-order="fill stroke markers" d=" M 525.2415017639241 591.3674144673782 L 525.2415017639241 570.1542110317832 L 504.0282983283277 570.1542110317818 L 504.02829832832913 591.3674144673782 L 525.2415017639241 591.3674144673782" stroke-opacity="0.6" stroke-linecap="round" stroke-linejoin="round" stroke-miterlimit="10" stroke-width="2.5"/><path fill="rgb(0,0,0)" stroke="none" paint-order="stroke fill markers" fill-rule="evenodd" d=" M 448.95256487594486 240.8436969053505 L 467.92623083695383 250.33052988585501 L 477.4130638174603 231.35686392484536 L 458.4393978564494 221.8700309443415 L 448.95256487594486 240.8436969053505" fill-opacity="0.09803921568627451"/><path fill="none" stroke="rgb(0,0,0)" paint-order="fill stroke markers" d=" M 448.95256487594486 240.8436969053505 L 467.92623083695383 250.33052988585501 L 477.4130638174603 231.35686392484536 L 458.4393978564494 221.8700309443415 L 448.95256487594486 240.8436969053505" stroke-opacity="0.6" stroke-linecap="round" stroke-linejoin="round" stroke-miterlimit="10" stroke-width="2.5"/><path fill="rgb(0,0,0)" stroke="none" paint-order="stroke fill markers" fill-rule="evenodd" d=" M 618.4091566748353 163.2912858949997 L 605.1043118858844 179.8134257425456 L 621.6264517334305 193.11827053149858 L 634.9312965223812 176.5961306839507 L 618.4091566748353 163.2912858949997" fill-opacity="0.09803921568627451"/><path fill="none" stroke="rgb(0,0,0)" paint-order="fill stroke markers" d=" M 618.4091566748353 163.2912858949997 L 605.1043118858844 179.8134257425456 L 621.6264517334305 193.11827053149858 L 634.9312965223812 176.5961306839507 L 618.4091566748353 163.2912858949997" stroke-opacity="0.6" stroke-linecap="round" stroke-linejoin="round" stroke-miterlimit="10" stroke-width="2.5"/><path fill="none" stroke="rgb(0,0,0)" paint-order="fill stroke markers" d=" M 525.2415017639241 88.26582312939189 L 273.69070609493104 591.3674144673782" stroke-opacity="0.6980392156862745" stroke-linecap="round" stroke-linejoin="round" stroke-miterlimit="10" stroke-width="2.5"/><path fill="none" stroke="rgb(0,0,0)" paint-order="fill stroke markers" d=" M 273.69070609493104 591.3674144673782 L 1150 591.3674144673782" stroke-opacity="0.6980392156862745" stroke-linecap="round" stroke-linejoin="round" stroke-miterlimit="10" stroke-width="2.5"/><path fill="none" stroke="rgb(0,0,0)" paint-order="fill stroke markers" d=" M 1150 591.3674144673782 L 525.2415017639241 88.26582312939189" stroke-opacity="0.6980392156862745" stroke-linecap="round" stroke-linejoin="round" stroke-miterlimit="10" stroke-width="2.5"/><path fill="none" stroke="rgb(0,0,0)" paint-order="fill stroke markers" d=" M 525.2415017639241 88.26582312939189 L 525.2415017639241 591.3674144673782" stroke-opacity="0.6980392156862745" stroke-linecap="round" stroke-linejoin="round" stroke-miterlimit="10" stroke-width="2.5"/><path fill="none" stroke="rgb(0,0,0)" paint-order="fill stroke markers" d=" M 1150 591.3674144673782 L 448.95256487594486 240.8436969053505" stroke-opacity="0.6980392156862745" stroke-linecap="round" stroke-linejoin="round" stroke-miterlimit="10" stroke-width="2.5"/><path fill="none" stroke="rgb(0,0,0)" paint-order="fill stroke markers" d=" M 273.69070609493104 591.3674144673782 L 618.4091566748353 163.2912858949997" stroke-opacity="0.6980392156862745" stroke-linecap="round" stroke-linejoin="round" stroke-miterlimit="10" stroke-width="2.5"/><path fill="rgb(21,101,192)" stroke="none" paint-order="stroke fill markers" d=" M 530.2415017639241 88.26582312939189 C 530.2415017639241 91.02724687854585 528.0029255130781 93.26582312939189 525.2415017639241 93.26582312939189 C 522.4800780147701 93.26582312939189 520.2415017639241 91.02724687854585 520.2415017639241 88.26582312939189 C 520.2415017639241 85.50439938023793 522.4800780147701 83.26582312939189 525.2415017639241 83.26582312939189 C 528.0029255130781 83.26582312939189 530.2415017639241 85.50439938023793 530.2415017639241 88.26582312939189 Z" fill-opacity="1"/><path fill="none" stroke="rgb(0,0,0)" paint-order="fill stroke markers" d=" M 530.2415017639241 88.26582312939189 C 530.2415017639241 91.02724687854585 528.0029255130781 93.26582312939189 525.2415017639241 93.26582312939189 C 522.4800780147701 93.26582312939189 520.2415017639241 91.02724687854585 520.2415017639241 88.26582312939189 C 520.2415017639241 85.50439938023793 522.4800780147701 83.26582312939189 525.2415017639241 83.26582312939189 C 528.0029255130781 83.26582312939189 530.2415017639241 85.50439938023793 530.2415017639241 88.26582312939189 Z" stroke-opacity="1" stroke-linecap="round" stroke-linejoin="round" stroke-miterlimit="10"/><text fill="rgb(21,101,192)" stroke="none" font-family="geogebra-sans-serif, sans-serif" font-size="24px" font-style="normal" font-weight="normal" text-decoration="normal" x="522" y="68" text-anchor="start" dominant-baseline="alphabetic" fill-opacity="1">A</text><text fill="none" stroke="rgb(255,255,255)" font-family="geogebra-sans-serif, sans-serif" font-size="24px" font-style="normal" font-weight="normal" text-decoration="normal" x="522" y="68" text-anchor="start" dominant-baseline="alphabetic" stroke-opacity="1" stroke-linejoin="bevel" stroke-miterlimit="10" stroke-width="3">A</text><text fill="rgb(21,101,192)" stroke="none" font-family="geogebra-sans-serif, sans-serif" font-size="24px" font-style="normal" font-weight="normal" text-decoration="normal" x="522" y="68" text-anchor="start" dominant-baseline="alphabetic" fill-opacity="1">A</text><path fill="rgb(21,101,192)" stroke="none" paint-order="stroke fill markers" d=" M 278.69070609493104 591.3674144673782 C 278.69070609493104 594.1288382165322 276.452129844085 596.3674144673782 273.69070609493104 596.3674144673782 C 270.9292823457771 596.3674144673782 268.69070609493104 594.1288382165322 268.69070609493104 591.3674144673782 C 268.69070609493104 588.6059907182242 270.9292823457771 586.3674144673782 273.69070609493104 586.3674144673782 C 276.452129844085 586.3674144673782 278.69070609493104 588.6059907182242 278.69070609493104 591.3674144673782 Z" fill-opacity="1"/><path fill="none" stroke="rgb(0,0,0)" paint-order="fill stroke markers" d=" M 278.69070609493104 591.3674144673782 C 278.69070609493104 594.1288382165322 276.452129844085 596.3674144673782 273.69070609493104 596.3674144673782 C 270.9292823457771 596.3674144673782 268.69070609493104 594.1288382165322 268.69070609493104 591.3674144673782 C 268.69070609493104 588.6059907182242 270.9292823457771 586.3674144673782 273.69070609493104 586.3674144673782 C 276.452129844085 586.3674144673782 278.69070609493104 588.6059907182242 278.69070609493104 591.3674144673782 Z" stroke-opacity="1" stroke-linecap="round" stroke-linejoin="round" stroke-miterlimit="10"/><text fill="rgb(21,101,192)" stroke="none" font-family="geogebra-sans-serif, sans-serif" font-size="24px" font-style="normal" font-weight="normal" text-decoration="normal" x="244" y="627" text-anchor="start" dominant-baseline="alphabetic" fill-opacity="1">B</text><text fill="none" stroke="rgb(255,255,255)" font-family="geogebra-sans-serif, sans-serif" font-size="24px" font-style="normal" font-weight="normal" text-decoration="normal" x="244" y="627" text-anchor="start" dominant-baseline="alphabetic" stroke-opacity="1" stroke-linejoin="bevel" stroke-miterlimit="10" stroke-width="3">B</text><text fill="rgb(21,101,192)" stroke="none" font-family="geogebra-sans-serif, sans-serif" font-size="24px" font-style="normal" font-weight="normal" text-decoration="normal" x="244" y="627" text-anchor="start" dominant-baseline="alphabetic" fill-opacity="1">B</text><path fill="rgb(21,101,192)" stroke="none" paint-order="stroke fill markers" d=" M 1155 591.3674144673782 C 1155 594.1288382165322 1152.761423749154 596.3674144673782 1150 596.3674144673782 C 1147.238576250846 596.3674144673782 1145 594.1288382165322 1145 591.3674144673782 C 1145 588.6059907182242 1147.238576250846 586.3674144673782 1150 586.3674144673782 C 1152.761423749154 586.3674144673782 1155 588.6059907182242 1155 591.3674144673782 Z" fill-opacity="1"/><path fill="none" stroke="rgb(0,0,0)" paint-order="fill stroke markers" d=" M 1155 591.3674144673782 C 1155 594.1288382165322 1152.761423749154 596.3674144673782 1150 596.3674144673782 C 1147.238576250846 596.3674144673782 1145 594.1288382165322 1145 591.3674144673782 C 1145 588.6059907182242 1147.238576250846 586.3674144673782 1150 586.3674144673782 C 1152.761423749154 586.3674144673782 1155 588.6059907182242 1155 591.3674144673782 Z" stroke-opacity="1" stroke-linecap="round" stroke-linejoin="round" stroke-miterlimit="10"/><text fill="rgb(21,101,192)" stroke="none" font-family="geogebra-sans-serif, sans-serif" font-size="24px" font-style="normal" font-weight="normal" text-decoration="normal" x="1170" y="620" text-anchor="start" dominant-baseline="alphabetic" fill-opacity="1">C</text><text fill="none" stroke="rgb(255,255,255)" font-family="geogebra-sans-serif, sans-serif" font-size="24px" font-style="normal" font-weight="normal" text-decoration="normal" x="1170" y="620" text-anchor="start" dominant-baseline="alphabetic" stroke-opacity="1" stroke-linejoin="bevel" stroke-miterlimit="10" stroke-width="3">C</text><text fill="rgb(21,101,192)" stroke="none" font-family="geogebra-sans-serif, sans-serif" font-size="24px" font-style="normal" font-weight="normal" text-decoration="normal" x="1170" y="620" text-anchor="start" dominant-baseline="alphabetic" fill-opacity="1">C</text><path fill="rgb(211,47,47)" stroke="none" paint-order="stroke fill markers" d=" M 530.2415017639241 278.9881653493402 C 530.2415017639241 281.74958909849414 528.0029255130781 283.9881653493402 525.2415017639241 283.9881653493402 C 522.4800780147701 283.9881653493402 520.2415017639241 281.74958909849414 520.2415017639241 278.9881653493402 C 520.2415017639241 276.22674160018624 522.4800780147701 273.9881653493402 525.2415017639241 273.9881653493402 C 528.0029255130781 273.9881653493402 530.2415017639241 276.22674160018624 530.2415017639241 278.9881653493402 Z" fill-opacity="1"/><path fill="none" stroke="rgb(0,0,0)" paint-order="fill stroke markers" d=" M 530.2415017639241 278.9881653493402 C 530.2415017639241 281.74958909849414 528.0029255130781 283.9881653493402 525.2415017639241 283.9881653493402 C 522.4800780147701 283.9881653493402 520.2415017639241 281.74958909849414 520.2415017639241 278.9881653493402 C 520.2415017639241 276.22674160018624 522.4800780147701 273.9881653493402 525.2415017639241 273.9881653493402 C 528.0029255130781 273.9881653493402 530.2415017639241 276.22674160018624 530.2415017639241 278.9881653493402 Z" stroke-opacity="1" stroke-linecap="round" stroke-linejoin="round" stroke-miterlimit="10"/><text fill="rgb(211,47,47)" stroke="none" font-family="geogebra-sans-serif, sans-serif" font-size="24px" font-style="normal" font-weight="normal" text-decoration="normal" x="546" y="279" text-anchor="start" dominant-baseline="alphabetic" fill-opacity="1">H</text><text fill="none" stroke="rgb(255,255,255)" font-family="geogebra-sans-serif, sans-serif" font-size="24px" font-style="normal" font-weight="normal" text-decoration="normal" x="546" y="279" text-anchor="start" dominant-baseline="alphabetic" stroke-opacity="1" stroke-linejoin="bevel" stroke-miterlimit="10" stroke-width="3">H</text><text fill="rgb(211,47,47)" stroke="none" font-family="geogebra-sans-serif, sans-serif" font-size="24px" font-style="normal" font-weight="normal" text-decoration="normal" x="546" y="279" text-anchor="start" dominant-baseline="alphabetic" fill-opacity="1">H</text><path fill="rgb(46,125,50)" stroke="none" paint-order="stroke fill markers" d=" M 530.2415017639241 591.3674144673782 C 530.2415017639241 594.1288382165322 528.0029255130781 596.3674144673782 525.2415017639241 596.3674144673782 C 522.4800780147701 596.3674144673782 520.2415017639241 594.1288382165322 520.2415017639241 591.3674144673782 C 520.2415017639241 588.6059907182242 522.4800780147701 586.3674144673782 525.2415017639241 586.3674144673782 C 528.0029255130781 586.3674144673782 530.2415017639241 588.6059907182242 530.2415017639241 591.3674144673782 Z" fill-opacity="1"/><path fill="none" stroke="rgb(0,0,0)" paint-order="fill stroke markers" d=" M 530.2415017639241 591.3674144673782 C 530.2415017639241 594.1288382165322 528.0029255130781 596.3674144673782 525.2415017639241 596.3674144673782 C 522.4800780147701 596.3674144673782 520.2415017639241 594.1288382165322 520.2415017639241 591.3674144673782 C 520.2415017639241 588.6059907182242 522.4800780147701 586.3674144673782 525.2415017639241 586.3674144673782 C 528.0029255130781 586.3674144673782 530.2415017639241 588.6059907182242 530.2415017639241 591.3674144673782 Z" stroke-opacity="1" stroke-linecap="round" stroke-linejoin="round" stroke-miterlimit="10"/><text fill="rgb(46,125,50)" stroke="none" font-family="geogebra-sans-serif, sans-serif" font-size="24px" font-style="normal" font-weight="normal" text-decoration="normal" x="519" y="632" text-anchor="start" dominant-baseline="alphabetic" fill-opacity="1">D</text><text fill="none" stroke="rgb(255,255,255)" font-family="geogebra-sans-serif, sans-serif" font-size="24px" font-style="normal" font-weight="normal" text-decoration="normal" x="519" y="632" text-anchor="start" dominant-baseline="alphabetic" stroke-opacity="1" stroke-linejoin="bevel" stroke-miterlimit="10" stroke-width="3">D</text><text fill="rgb(46,125,50)" stroke="none" font-family="geogebra-sans-serif, sans-serif" font-size="24px" font-style="normal" font-weight="normal" text-decoration="normal" x="519" y="632" text-anchor="start" dominant-baseline="alphabetic" fill-opacity="1">D</text><path fill="rgb(46,125,50)" stroke="none" paint-order="stroke fill markers" d=" M 453.95256487594486 240.8436969053505 C 453.95256487594486 243.60512065450447 451.7139886250988 245.8436969053505 448.95256487594486 245.8436969053505 C 446.1911411267909 245.8436969053505 443.95256487594486 243.60512065450447 443.95256487594486 240.8436969053505 C 443.95256487594486 238.08227315619652 446.1911411267909 235.8436969053505 448.95256487594486 235.8436969053505 C 451.7139886250988 235.8436969053505 453.95256487594486 238.08227315619652 453.95256487594486 240.8436969053505 Z" fill-opacity="1"/><path fill="none" stroke="rgb(0,0,0)" paint-order="fill stroke markers" d=" M 453.95256487594486 240.8436969053505 C 453.95256487594486 243.60512065450447 451.7139886250988 245.8436969053505 448.95256487594486 245.8436969053505 C 446.1911411267909 245.8436969053505 443.95256487594486 243.60512065450447 443.95256487594486 240.8436969053505 C 443.95256487594486 238.08227315619652 446.1911411267909 235.8436969053505 448.95256487594486 235.8436969053505 C 451.7139886250988 235.8436969053505 453.95256487594486 238.08227315619652 453.95256487594486 240.8436969053505 Z" stroke-opacity="1" stroke-linecap="round" stroke-linejoin="round" stroke-miterlimit="10"/><text fill="rgb(46,125,50)" stroke="none" font-family="geogebra-sans-serif, sans-serif" font-size="24px" font-style="normal" font-weight="normal" text-decoration="normal" x="415" y="227" text-anchor="start" dominant-baseline="alphabetic" fill-opacity="1">F</text><text fill="none" stroke="rgb(255,255,255)" font-family="geogebra-sans-serif, sans-serif" font-size="24px" font-style="normal" font-weight="normal" text-decoration="normal" x="415" y="227" text-anchor="start" dominant-baseline="alphabetic" stroke-opacity="1" stroke-linejoin="bevel" stroke-miterlimit="10" stroke-width="3">F</text><text fill="rgb(46,125,50)" stroke="none" font-family="geogebra-sans-serif, sans-serif" font-size="24px" font-style="normal" font-weight="normal" text-decoration="normal" x="415" y="227" text-anchor="start" dominant-baseline="alphabetic" fill-opacity="1">F</text><path fill="rgb(46,125,50)" stroke="none" paint-order="stroke fill markers" d=" M 623.4091566748353 163.2912858949997 C 623.4091566748353 166.05270964415368 621.1705804239893 168.2912858949997 618.4091566748353 168.2912858949997 C 615.6477329256813 168.2912858949997 613.4091566748353 166.05270964415368 613.4091566748353 163.2912858949997 C 613.4091566748353 160.52986214584573 615.6477329256813 158.2912858949997 618.4091566748353 158.2912858949997 C 621.1705804239893 158.2912858949997 623.4091566748353 160.52986214584573 623.4091566748353 163.2912858949997 Z" fill-opacity="1"/><path fill="none" stroke="rgb(0,0,0)" paint-order="fill stroke markers" d=" M 623.4091566748353 163.2912858949997 C 623.4091566748353 166.05270964415368 621.1705804239893 168.2912858949997 618.4091566748353 168.2912858949997 C 615.6477329256813 168.2912858949997 613.4091566748353 166.05270964415368 613.4091566748353 163.2912858949997 C 613.4091566748353 160.52986214584573 615.6477329256813 158.2912858949997 618.4091566748353 158.2912858949997 C 621.1705804239893 158.2912858949997 623.4091566748353 160.52986214584573 623.4091566748353 163.2912858949997 Z" stroke-opacity="1" stroke-linecap="round" stroke-linejoin="round" stroke-miterlimit="10"/><text fill="rgb(46,125,50)" stroke="none" font-family="geogebra-sans-serif, sans-serif" font-size="24px" font-style="normal" font-weight="normal" text-decoration="normal" x="636" y="154" text-anchor="start" dominant-baseline="alphabetic" fill-opacity="1">E</text><text fill="none" stroke="rgb(255,255,255)" font-family="geogebra-sans-serif, sans-serif" font-size="24px" font-style="normal" font-weight="normal" text-decoration="normal" x="636" y="154" text-anchor="start" dominant-baseline="alphabetic" stroke-opacity="1" stroke-linejoin="bevel" stroke-miterlimit="10" stroke-width="3">E</text><text fill="rgb(46,125,50)" stroke="none" font-family="geogebra-sans-serif, sans-serif" font-size="24px" font-style="normal" font-weight="normal" text-decoration="normal" x="636" y="154" text-anchor="start" dominant-baseline="alphabetic" fill-opacity="1">E</text></g></g></svg>