<svg version="1.1" xmlns="http://www.w3.org/2000/svg" xmlns:xlink="http://www.w3.org/1999/xlink" width="1310" height="605"><defs><clipPath id="idbuFcpIAzNb"><path fill="none" stroke="none" d=" M 0 0 L 1310 0 L 1310 605 L 0 605 L 0 0 Z"/></clipPath></defs><g transform="scale(1,1)" clip-path="url(#idbuFcpIAzNb)"><g><rect fill="rgb(255,255,255)" stroke="none" x="0" y="0" width="1310" height="605" fill-opacity="1"/><path fill="none" stroke="rgb(97,97,97)" paint-order="fill stroke markers" d=" M 892.9851927853831 294.2999999999999 C 892.9851927853831 434.35123475826856 779.4512347582688 547.8851927853827 639.4000000000002 547.8851927853827 C 499.3487652417315 547.8851927853827 385.8148072146173 434.35123475826856 385.8148072146173 294.2999999999999 C 385.8148072146173 154.2487652417312 499.3487652417315 40.714807214617 639.4000000000002 40.714807214617 C 779.4512347582688 40.714807214617 892.9851927853831 154.2487652417312 892.9851927853831 294.2999999999999 Z" stroke-opacity="0.8" stroke-linecap="round" stroke-linejoin="round" stroke-miterlimit="10" stroke-width="2.5"/><path fill="none" stroke="rgb(97,97,97)" paint-order="fill stroke markers" d=" M 648.0645170815715 547.7371246359596 L 793.7728520070652 93.11731544885714" stroke-opacity="0.8" stroke-linecap="round" stroke-linejoin="round" stroke-miterlimit="10" stroke-width="2.5"/><path fill="none" stroke="rgb(97,97,97)" paint-order="fill stroke markers" d=" M 648.0645170815715 547.7371246359596 L 386.0460498014082 283.4729081111712" stroke-opacity="0.8" stroke-linecap="round" stroke-linejoin="round" stroke-miterlimit="10" stroke-width="2.5"/><path fill="rgb(21,101,192)" stroke="none" paint-order="stroke fill markers" d=" M 644.4000000000002 294.2999999999999 C 644.4000000000002 297.06142374915385 642.1614237491542 299.2999999999999 639.4000000000002 299.2999999999999 C 636.6385762508462 299.2999999999999 634.4000000000002 297.06142374915385 634.4000000000002 294.2999999999999 C 634.4000000000002 291.53857625084595 636.6385762508462 289.2999999999999 639.4000000000002 289.2999999999999 C 642.1614237491542 289.2999999999999 644.4000000000002 291.53857625084595 644.4000000000002 294.2999999999999 Z" fill-opacity="1"/><path fill="none" stroke="rgb(0,0,0)" paint-order="fill stroke markers" d=" M 644.4000000000002 294.2999999999999 C 644.4000000000002 297.06142374915385 642.1614237491542 299.2999999999999 639.4000000000002 299.2999999999999 C 636.6385762508462 299.2999999999999 634.4000000000002 297.06142374915385 634.4000000000002 294.2999999999999 C 634.4000000000002 291.53857625084595 636.6385762508462 289.2999999999999 639.4000000000002 289.2999999999999 C 642.1614237491542 289.2999999999999 644.4000000000002 291.53857625084595 644.4000000000002 294.2999999999999 Z" stroke-opacity="1" stroke-linecap="round" stroke-linejoin="round" stroke-miterlimit="10"/><text fill="rgb(21,101,192)" stroke="none" font-family="geogebra-sans-serif, sans-serif" font-size="24px" font-style="normal" font-weight="normal" text-decoration="normal" x="643" y="284" text-anchor="start" dominant-baseline="alphabetic" fill-opacity="1">O</text><text fill="none" stroke="rgb(255,255,255)" font-family="geogebra-sans-serif, sans-serif" font-size="24px" font-style="normal" font-weight="normal" text-decoration="normal" x="643" y="284" text-anchor="start" dominant-baseline="alphabetic" stroke-opacity="1" stroke-linejoin="bevel" stroke-miterlimit="10" stroke-width="3">O</text><text fill="rgb(21,101,192)" stroke="none" font-family="geogebra-sans-serif, sans-serif" font-size="24px" font-style="normal" font-weight="normal" text-decoration="normal" x="643" y="284" text-anchor="start" dominant-baseline="alphabetic" fill-opacity="1">O</text><path fill="rgb(21,101,192)" stroke="none" paint-order="stroke fill markers" d=" M 653.0645170815715 547.7371246359596 C 653.0645170815715 550.4985483851136 650.8259408307255 552.7371246359596 648.0645170815715 552.7371246359596 C 645.3030933324175 552.7371246359596 643.0645170815715 550.4985483851136 643.0645170815715 547.7371246359596 C 643.0645170815715 544.9757008868056 645.3030933324175 542.7371246359596 648.0645170815715 542.7371246359596 C 650.8259408307255 542.7371246359596 653.0645170815715 544.9757008868056 653.0645170815715 547.7371246359596 Z" fill-opacity="1"/><path fill="none" stroke="rgb(0,0,0)" paint-order="fill stroke markers" d=" M 653.0645170815715 547.7371246359596 C 653.0645170815715 550.4985483851136 650.8259408307255 552.7371246359596 648.0645170815715 552.7371246359596 C 645.3030933324175 552.7371246359596 643.0645170815715 550.4985483851136 643.0645170815715 547.7371246359596 C 643.0645170815715 544.9757008868056 645.3030933324175 542.7371246359596 648.0645170815715 542.7371246359596 C 650.8259408307255 542.7371246359596 653.0645170815715 544.9757008868056 653.0645170815715 547.7371246359596 Z" stroke-opacity="1" stroke-linecap="round" stroke-linejoin="round" stroke-miterlimit="10"/><text fill="rgb(21,101,192)" stroke="none" font-family="geogebra-sans-serif, sans-serif" font-size="24px" font-style="normal" font-weight="normal" text-decoration="normal" x="650" y="572" text-anchor="start" dominant-baseline="alphabetic" fill-opacity="1">A</text><text fill="none" stroke="rgb(255,255,255)" font-family="geogebra-sans-serif, sans-serif" font-size="24px" font-style="normal" font-weight="normal" text-decoration="normal" x="650" y="572" text-anchor="start" dominant-baseline="alphabetic" stroke-opacity="1" stroke-linejoin="bevel" stroke-miterlimit="10" stroke-width="3">A</text><text fill="rgb(21,101,192)" stroke="none" font-family="geogebra-sans-serif, sans-serif" font-size="24px" font-style="normal" font-weight="normal" text-decoration="normal" x="650" y="572" text-anchor="start" dominant-baseline="alphabetic" fill-opacity="1">A</text><path fill="rgb(21,101,192)" stroke="none" paint-order="stroke fill markers" d=" M 798.7728520070652 93.11731544885714 C 798.7728520070652 95.8787391980111 796.5342757562192 98.11731544885714 793.7728520070652 98.11731544885714 C 791.0114282579112 98.11731544885714 788.7728520070652 95.8787391980111 788.7728520070652 93.11731544885714 C 788.7728520070652 90.35589169970318 791.0114282579112 88.11731544885714 793.7728520070652 88.11731544885714 C 796.5342757562192 88.11731544885714 798.7728520070652 90.35589169970318 798.7728520070652 93.11731544885714 Z" fill-opacity="1"/><path fill="none" stroke="rgb(0,0,0)" paint-order="fill stroke markers" d=" M 798.7728520070652 93.11731544885714 C 798.7728520070652 95.8787391980111 796.5342757562192 98.11731544885714 793.7728520070652 98.11731544885714 C 791.0114282579112 98.11731544885714 788.7728520070652 95.8787391980111 788.7728520070652 93.11731544885714 C 788.7728520070652 90.35589169970318 791.0114282579112 88.11731544885714 793.7728520070652 88.11731544885714 C 796.5342757562192 88.11731544885714 798.7728520070652 90.35589169970318 798.7728520070652 93.11731544885714 Z" stroke-opacity="1" stroke-linecap="round" stroke-linejoin="round" stroke-miterlimit="10"/><text fill="rgb(21,101,192)" stroke="none" font-family="geogebra-sans-serif, sans-serif" font-size="24px" font-style="normal" font-weight="normal" text-decoration="normal" x="798" y="83" text-anchor="start" dominant-baseline="alphabetic" fill-opacity="1">C</text><text fill="none" stroke="rgb(255,255,255)" font-family="geogebra-sans-serif, sans-serif" font-size="24px" font-style="normal" font-weight="normal" text-decoration="normal" x="798" y="83" text-anchor="start" dominant-baseline="alphabetic" stroke-opacity="1" stroke-linejoin="bevel" stroke-miterlimit="10" stroke-width="3">C</text><text fill="rgb(21,101,192)" stroke="none" font-family="geogebra-sans-serif, sans-serif" font-size="24px" font-style="normal" font-weight="normal" text-decoration="normal" x="798" y="83" text-anchor="start" dominant-baseline="alphabetic" fill-opacity="1">C</text><path fill="rgb(21,101,192)" stroke="none" paint-order="stroke fill markers" d=" M 391.0460498014082 283.4729081111712 C 391.0460498014082 286.23433186032514 388.8074735505621 288.4729081111712 386.0460498014082 288.4729081111712 C 383.2846260522542 288.4729081111712 381.0460498014082 286.23433186032514 381.0460498014082 283.4729081111712 C 381.0460498014082 280.71148436201725 383.2846260522542 278.4729081111712 386.0460498014082 278.4729081111712 C 388.8074735505621 278.4729081111712 391.0460498014082 280.71148436201725 391.0460498014082 283.4729081111712 Z" fill-opacity="1"/><path fill="none" stroke="rgb(0,0,0)" paint-order="fill stroke markers" d=" M 391.0460498014082 283.4729081111712 C 391.0460498014082 286.23433186032514 388.8074735505621 288.4729081111712 386.0460498014082 288.4729081111712 C 383.2846260522542 288.4729081111712 381.0460498014082 286.23433186032514 381.0460498014082 283.4729081111712 C 381.0460498014082 280.71148436201725 383.2846260522542 278.4729081111712 386.0460498014082 278.4729081111712 C 388.8074735505621 278.4729081111712 391.0460498014082 280.71148436201725 391.0460498014082 283.4729081111712 Z" stroke-opacity="1" stroke-linecap="round" stroke-linejoin="round" stroke-miterlimit="10"/><text fill="rgb(21,101,192)" stroke="none" font-family="geogebra-sans-serif, sans-serif" font-size="24px" font-style="normal" font-weight="normal" text-decoration="normal" x="357" y="288" text-anchor="start" dominant-baseline="alphabetic" fill-opacity="1">B</text><text fill="none" stroke="rgb(255,255,255)" font-family="geogebra-sans-serif, sans-serif" font-size="24px" font-style="normal" font-weight="normal" text-decoration="normal" x="357" y="288" text-anchor="start" dominant-baseline="alphabetic" stroke-opacity="1" stroke-linejoin="bevel" stroke-miterlimit="10" stroke-width="3">B</text><text fill="rgb(21,101,192)" stroke="none" font-family="geogebra-sans-serif, sans-serif" font-size="24px" font-style="normal" font-weight="normal" text-decoration="normal" x="357" y="288" text-anchor="start" dominant-baseline="alphabetic" fill-opacity="1">B</text></g></g></svg>