<svg version="1.1" xmlns="http://www.w3.org/2000/svg" xmlns:xlink="http://www.w3.org/1999/xlink" width="1310" height="605"><defs><clipPath id="OnbpwCdXVOsk"><path fill="none" stroke="none" d=" M 0 0 L 1310 0 L 1310 605 L 0 605 L 0 0 Z"/></clipPath></defs><g transform="scale(1,1)" clip-path="url(#OnbpwCdXVOsk)"><g><rect fill="rgb(255,255,255)" stroke="none" x="0" y="0" width="1310" height="605" fill-opacity="1"/><path fill="none" stroke="rgb(97,97,97)" paint-order="fill stroke markers" d=" M 926.3857177236562 311.67213910209347 C 926.3857177236562 459.00281991693976 806.9506027058547 578.4379349347412 659.6199218910084 578.4379349347412 C 512.289241076162 578.4379349347412 392.85412605836063 459.00281991693976 392.85412605836063 311.67213910209347 C 392.85412605836063 164.34145828724712 512.289241076162 44.906343269445756 659.6199218910084 44.906343269445756 C 806.9506027058547 44.906343269445756 926.3857177236562 164.34145828724712 926.3857177236562 311.67213910209347 Z" stroke-opacity="0.8" stroke-linecap="round" stroke-linejoin="round" stroke-miterlimit="10" stroke-width="2.5"/><path fill="rgb(0,0,0)" stroke="none" paint-order="stroke fill markers" fill-rule="evenodd" d=" M 552.4636977879903 261.52790360254744 L 571.6772523355105 270.51897259624377 L 580.6683213292088 251.30541804872297 L 561.4547667816867 242.31434905502732 L 552.4636977879903 261.52790360254744" fill-opacity="0.09803921568627451"/><path fill="none" stroke="rgb(0,0,0)" paint-order="fill stroke markers" d=" M 552.4636977879903 261.52790360254744 L 571.6772523355105 270.51897259624377 L 580.6683213292088 251.30541804872297 L 561.4547667816867 242.31434905502732 L 552.4636977879903 261.52790360254744" stroke-opacity="0.6" stroke-linecap="round" stroke-linejoin="round" stroke-miterlimit="10" stroke-width="2"/><path fill="rgb(0,0,0)" stroke="none" paint-order="stroke fill markers" fill-rule="evenodd" d=" M 759.9861607521412 262.7326759968711 L 750.6888109302051 243.6654453041752 L 731.6215802375074 252.9627951261107 L 740.9189300594454 272.03002581880725 L 759.9861607521412 262.7326759968711" fill-opacity="0.09803921568627451"/><path fill="none" stroke="rgb(0,0,0)" paint-order="fill stroke markers" d=" M 759.9861607521412 262.7326759968711 L 750.6888109302051 243.6654453041752 L 731.6215802375074 252.9627951261107 L 740.9189300594454 272.03002581880725 L 759.9861607521412 262.7326759968711" stroke-opacity="0.6" stroke-linecap="round" stroke-linejoin="round" stroke-miterlimit="10" stroke-width="2"/><path fill="none" stroke="rgb(97,97,97)" paint-order="fill stroke markers" d=" M 653.8030474360687 44.96976978790582 L 451.12434813991183 478.086037417189" stroke-opacity="0.8" stroke-linecap="round" stroke-linejoin="round" stroke-miterlimit="10" stroke-width="2.5"/><path fill="none" stroke="rgb(97,97,97)" paint-order="fill stroke markers" d=" M 653.8030474360687 44.96976978790582 L 866.1692740682137 480.49558220583634" stroke-opacity="0.8" stroke-linecap="round" stroke-linejoin="round" stroke-miterlimit="10" stroke-width="2.5"/><path fill="none" stroke="rgb(97,97,97)" paint-order="fill stroke markers" d=" M 659.6199218910084 311.67213910209347 L 759.9861607521412 262.7326759968711" stroke-opacity="0.8" stroke-linecap="round" stroke-linejoin="round" stroke-miterlimit="10" stroke-width="2.5"/><path fill="none" stroke="rgb(97,97,97)" paint-order="fill stroke markers" d=" M 659.6199218910084 311.67213910209347 L 552.4636977879903 261.52790360254744" stroke-opacity="0.8" stroke-linecap="round" stroke-linejoin="round" stroke-miterlimit="10" stroke-width="2.5"/><path fill="none" stroke="rgb(97,97,97)" paint-order="fill stroke markers" d=" M 653.8030474360687 44.96976978790582 L 659.6199218910084 311.67213910209347" stroke-opacity="0.8" stroke-linecap="round" stroke-linejoin="round" stroke-miterlimit="10" stroke-width="2.5"/><path fill="rgb(211,47,47)" stroke="none" paint-order="stroke fill markers" d=" M 664.6199218910084 311.67213910209347 C 664.6199218910084 314.4335628512474 662.3813456401624 316.67213910209347 659.6199218910084 316.67213910209347 C 656.8584981418544 316.67213910209347 654.6199218910084 314.4335628512474 654.6199218910084 311.67213910209347 C 654.6199218910084 308.9107153529395 656.8584981418544 306.67213910209347 659.6199218910084 306.67213910209347 C 662.3813456401624 306.67213910209347 664.6199218910084 308.9107153529395 664.6199218910084 311.67213910209347 Z" fill-opacity="1"/><path fill="none" stroke="rgb(0,0,0)" paint-order="fill stroke markers" d=" M 664.6199218910084 311.67213910209347 C 664.6199218910084 314.4335628512474 662.3813456401624 316.67213910209347 659.6199218910084 316.67213910209347 C 656.8584981418544 316.67213910209347 654.6199218910084 314.4335628512474 654.6199218910084 311.67213910209347 C 654.6199218910084 308.9107153529395 656.8584981418544 306.67213910209347 659.6199218910084 306.67213910209347 C 662.3813456401624 306.67213910209347 664.6199218910084 308.9107153529395 664.6199218910084 311.67213910209347 Z" stroke-opacity="1" stroke-linecap="round" stroke-linejoin="round" stroke-miterlimit="10"/><text fill="rgb(211,47,47)" stroke="none" font-family="geogebra-sans-serif, sans-serif" font-size="24px" font-style="normal" font-weight="normal" text-decoration="normal" x="659" y="349" text-anchor="start" dominant-baseline="alphabetic" fill-opacity="1">O</text><text fill="none" stroke="rgb(255,255,255)" font-family="geogebra-sans-serif, sans-serif" font-size="24px" font-style="normal" font-weight="normal" text-decoration="normal" x="659" y="349" text-anchor="start" dominant-baseline="alphabetic" stroke-opacity="1" stroke-linejoin="bevel" stroke-miterlimit="10" stroke-width="3">O</text><text fill="rgb(211,47,47)" stroke="none" font-family="geogebra-sans-serif, sans-serif" font-size="24px" font-style="normal" font-weight="normal" text-decoration="normal" x="659" y="349" text-anchor="start" dominant-baseline="alphabetic" fill-opacity="1">O</text><path fill="rgb(21,101,192)" stroke="none" paint-order="stroke fill markers" d=" M 658.8030474360687 44.96976978790582 C 658.8030474360687 47.73119353705978 656.5644711852227 49.96976978790582 653.8030474360687 49.96976978790582 C 651.0416236869147 49.96976978790582 648.8030474360687 47.73119353705978 648.8030474360687 44.96976978790582 C 648.8030474360687 42.20834603875185 651.0416236869147 39.96976978790582 653.8030474360687 39.96976978790582 C 656.5644711852227 39.96976978790582 658.8030474360687 42.20834603875185 658.8030474360687 44.96976978790582 Z" fill-opacity="1"/><path fill="none" stroke="rgb(0,0,0)" paint-order="fill stroke markers" d=" M 658.8030474360687 44.96976978790582 C 658.8030474360687 47.73119353705978 656.5644711852227 49.96976978790582 653.8030474360687 49.96976978790582 C 651.0416236869147 49.96976978790582 648.8030474360687 47.73119353705978 648.8030474360687 44.96976978790582 C 648.8030474360687 42.20834603875185 651.0416236869147 39.96976978790582 653.8030474360687 39.96976978790582 C 656.5644711852227 39.96976978790582 658.8030474360687 42.20834603875185 658.8030474360687 44.96976978790582 Z" stroke-opacity="1" stroke-linecap="round" stroke-linejoin="round" stroke-miterlimit="10"/><text fill="rgb(21,101,192)" stroke="none" font-family="geogebra-sans-serif, sans-serif" font-size="24px" font-style="normal" font-weight="normal" text-decoration="normal" x="635" y="24" text-anchor="start" dominant-baseline="alphabetic" fill-opacity="1">P</text><text fill="none" stroke="rgb(255,255,255)" font-family="geogebra-sans-serif, sans-serif" font-size="24px" font-style="normal" font-weight="normal" text-decoration="normal" x="635" y="24" text-anchor="start" dominant-baseline="alphabetic" stroke-opacity="1" stroke-linejoin="bevel" stroke-miterlimit="10" stroke-width="3">P</text><text fill="rgb(21,101,192)" stroke="none" font-family="geogebra-sans-serif, sans-serif" font-size="24px" font-style="normal" font-weight="normal" text-decoration="normal" x="635" y="24" text-anchor="start" dominant-baseline="alphabetic" fill-opacity="1">P</text><path fill="rgb(21,101,192)" stroke="none" paint-order="stroke fill markers" d=" M 456.12434813991183 478.086037417189 C 456.12434813991183 480.84746116634295 453.8857718890658 483.086037417189 451.12434813991183 483.086037417189 C 448.3629243907579 483.086037417189 446.12434813991183 480.84746116634295 446.12434813991183 478.086037417189 C 446.12434813991183 475.32461366803506 448.3629243907579 473.086037417189 451.12434813991183 473.086037417189 C 453.8857718890658 473.086037417189 456.12434813991183 475.32461366803506 456.12434813991183 478.086037417189 Z" fill-opacity="1"/><path fill="none" stroke="rgb(0,0,0)" paint-order="fill stroke markers" d=" M 456.12434813991183 478.086037417189 C 456.12434813991183 480.84746116634295 453.8857718890658 483.086037417189 451.12434813991183 483.086037417189 C 448.3629243907579 483.086037417189 446.12434813991183 480.84746116634295 446.12434813991183 478.086037417189 C 446.12434813991183 475.32461366803506 448.3629243907579 473.086037417189 451.12434813991183 473.086037417189 C 453.8857718890658 473.086037417189 456.12434813991183 475.32461366803506 456.12434813991183 478.086037417189 Z" stroke-opacity="1" stroke-linecap="round" stroke-linejoin="round" stroke-miterlimit="10"/><text fill="rgb(21,101,192)" stroke="none" font-family="geogebra-sans-serif, sans-serif" font-size="24px" font-style="normal" font-weight="normal" text-decoration="normal" x="411" y="512" text-anchor="start" dominant-baseline="alphabetic" fill-opacity="1">A</text><text fill="none" stroke="rgb(255,255,255)" font-family="geogebra-sans-serif, sans-serif" font-size="24px" font-style="normal" font-weight="normal" text-decoration="normal" x="411" y="512" text-anchor="start" dominant-baseline="alphabetic" stroke-opacity="1" stroke-linejoin="bevel" stroke-miterlimit="10" stroke-width="3">A</text><text fill="rgb(21,101,192)" stroke="none" font-family="geogebra-sans-serif, sans-serif" font-size="24px" font-style="normal" font-weight="normal" text-decoration="normal" x="411" y="512" text-anchor="start" dominant-baseline="alphabetic" fill-opacity="1">A</text><path fill="rgb(21,101,192)" stroke="none" paint-order="stroke fill markers" d=" M 871.1692740682137 480.49558220583634 C 871.1692740682137 483.2570059549903 868.9306978173677 485.49558220583634 866.1692740682137 485.49558220583634 C 863.4078503190597 485.49558220583634 861.1692740682137 483.2570059549903 861.1692740682137 480.49558220583634 C 861.1692740682137 477.7341584566824 863.4078503190597 475.49558220583634 866.1692740682137 475.49558220583634 C 868.9306978173677 475.49558220583634 871.1692740682137 477.7341584566824 871.1692740682137 480.49558220583634 Z" fill-opacity="1"/><path fill="none" stroke="rgb(0,0,0)" paint-order="fill stroke markers" d=" M 871.1692740682137 480.49558220583634 C 871.1692740682137 483.2570059549903 868.9306978173677 485.49558220583634 866.1692740682137 485.49558220583634 C 863.4078503190597 485.49558220583634 861.1692740682137 483.2570059549903 861.1692740682137 480.49558220583634 C 861.1692740682137 477.7341584566824 863.4078503190597 475.49558220583634 866.1692740682137 475.49558220583634 C 868.9306978173677 475.49558220583634 871.1692740682137 477.7341584566824 871.1692740682137 480.49558220583634 Z" stroke-opacity="1" stroke-linecap="round" stroke-linejoin="round" stroke-miterlimit="10"/><text fill="rgb(21,101,192)" stroke="none" font-family="geogebra-sans-serif, sans-serif" font-size="24px" font-style="normal" font-weight="normal" text-decoration="normal" x="881" y="513" text-anchor="start" dominant-baseline="alphabetic" fill-opacity="1">B</text><text fill="none" stroke="rgb(255,255,255)" font-family="geogebra-sans-serif, sans-serif" font-size="24px" font-style="normal" font-weight="normal" text-decoration="normal" x="881" y="513" text-anchor="start" dominant-baseline="alphabetic" stroke-opacity="1" stroke-linejoin="bevel" stroke-miterlimit="10" stroke-width="3">B</text><text fill="rgb(21,101,192)" stroke="none" font-family="geogebra-sans-serif, sans-serif" font-size="24px" font-style="normal" font-weight="normal" text-decoration="normal" x="881" y="513" text-anchor="start" dominant-baseline="alphabetic" fill-opacity="1">B</text><path fill="rgb(21,101,192)" stroke="none" paint-order="stroke fill markers" d=" M 556.4636977879903 261.52790360254744 C 556.4636977879903 263.7370426018706 554.6728367873135 265.52790360254744 552.4636977879903 265.52790360254744 C 550.2545587886672 265.52790360254744 548.4636977879903 263.7370426018706 548.4636977879903 261.52790360254744 C 548.4636977879903 259.3187646032243 550.2545587886672 257.52790360254744 552.4636977879903 257.52790360254744 C 554.6728367873135 257.52790360254744 556.4636977879903 259.3187646032243 556.4636977879903 261.52790360254744 Z" fill-opacity="1"/><path fill="none" stroke="rgb(0,0,0)" paint-order="fill stroke markers" d=" M 556.4636977879903 261.52790360254744 C 556.4636977879903 263.7370426018706 554.6728367873135 265.52790360254744 552.4636977879903 265.52790360254744 C 550.2545587886672 265.52790360254744 548.4636977879903 263.7370426018706 548.4636977879903 261.52790360254744 C 548.4636977879903 259.3187646032243 550.2545587886672 257.52790360254744 552.4636977879903 257.52790360254744 C 554.6728367873135 257.52790360254744 556.4636977879903 259.3187646032243 556.4636977879903 261.52790360254744 Z" stroke-opacity="1" stroke-linecap="round" stroke-linejoin="round" stroke-miterlimit="10"/><text fill="rgb(21,101,192)" stroke="none" font-family="geogebra-sans-serif, sans-serif" font-size="24px" font-style="normal" font-weight="normal" text-decoration="normal" x="520" y="254" text-anchor="start" dominant-baseline="alphabetic" fill-opacity="1">N</text><text fill="none" stroke="rgb(255,255,255)" font-family="geogebra-sans-serif, sans-serif" font-size="24px" font-style="normal" font-weight="normal" text-decoration="normal" x="520" y="254" text-anchor="start" dominant-baseline="alphabetic" stroke-opacity="1" stroke-linejoin="bevel" stroke-miterlimit="10" stroke-width="3">N</text><text fill="rgb(21,101,192)" stroke="none" font-family="geogebra-sans-serif, sans-serif" font-size="24px" font-style="normal" font-weight="normal" text-decoration="normal" x="520" y="254" text-anchor="start" dominant-baseline="alphabetic" fill-opacity="1">N</text><path fill="rgb(21,101,192)" stroke="none" paint-order="stroke fill markers" d=" M 763.9861607521412 262.7326759968711 C 763.9861607521412 264.94181499619424 762.1952997514644 266.7326759968711 759.9861607521412 266.7326759968711 C 757.7770217528181 266.7326759968711 755.9861607521412 264.94181499619424 755.9861607521412 262.7326759968711 C 755.9861607521412 260.5235369975479 757.7770217528181 258.7326759968711 759.9861607521412 258.7326759968711 C 762.1952997514644 258.7326759968711 763.9861607521412 260.5235369975479 763.9861607521412 262.7326759968711 Z" fill-opacity="1"/><path fill="none" stroke="rgb(0,0,0)" paint-order="fill stroke markers" d=" M 763.9861607521412 262.7326759968711 C 763.9861607521412 264.94181499619424 762.1952997514644 266.7326759968711 759.9861607521412 266.7326759968711 C 757.7770217528181 266.7326759968711 755.9861607521412 264.94181499619424 755.9861607521412 262.7326759968711 C 755.9861607521412 260.5235369975479 757.7770217528181 258.7326759968711 759.9861607521412 258.7326759968711 C 762.1952997514644 258.7326759968711 763.9861607521412 260.5235369975479 763.9861607521412 262.7326759968711 Z" stroke-opacity="1" stroke-linecap="round" stroke-linejoin="round" stroke-miterlimit="10"/><text fill="rgb(21,101,192)" stroke="none" font-family="geogebra-sans-serif, sans-serif" font-size="24px" font-style="normal" font-weight="normal" text-decoration="normal" x="777" y="255" text-anchor="start" dominant-baseline="alphabetic" fill-opacity="1">M</text><text fill="none" stroke="rgb(255,255,255)" font-family="geogebra-sans-serif, sans-serif" font-size="24px" font-style="normal" font-weight="normal" text-decoration="normal" x="777" y="255" text-anchor="start" dominant-baseline="alphabetic" stroke-opacity="1" stroke-linejoin="bevel" stroke-miterlimit="10" stroke-width="3">M</text><text fill="rgb(21,101,192)" stroke="none" font-family="geogebra-sans-serif, sans-serif" font-size="24px" font-style="normal" font-weight="normal" text-decoration="normal" x="777" y="255" text-anchor="start" dominant-baseline="alphabetic" fill-opacity="1">M</text></g></g></svg>