<svg version="1.1" xmlns="http://www.w3.org/2000/svg" xmlns:xlink="http://www.w3.org/1999/xlink" width="1310" height="605"><defs><clipPath id="mnZIdEBSaAZW"><path fill="none" stroke="none" d=" M 0 0 L 1310 0 L 1310 605 L 0 605 L 0 0 Z"/></clipPath></defs><g transform="scale(1,1)" clip-path="url(#mnZIdEBSaAZW)"><g><rect fill="rgb(255,255,255)" stroke="none" x="0" y="0" width="1310" height="605" fill-opacity="1"/><path fill="none" stroke="rgb(97,97,97)" paint-order="fill stroke markers" d=" M 1127 514 C 1124.3109550150998 269.13364433167254 923.6276513965317 72.81014405187017 678.7612957282041 75.49918903677025 C 433.89494005987666 78.18823402167044 237.5714397800743 278.8715376402384 240.26048476497436 523.737893308566" stroke-opacity="0.8" stroke-linecap="round" stroke-linejoin="round" stroke-miterlimit="10" stroke-width="2.5"/><path fill="rgb(0,0,0)" stroke="none" paint-order="stroke fill markers" fill-rule="evenodd" d=" M 570.7916908642252 328.1646377852945 L 581.594085547564 346.4213699437426 L 599.850817706014 335.61897526040434 L 589.0484230226733 317.3622431019557 L 570.7916908642252 328.1646377852945" fill-opacity="0.09803921568627451"/><path fill="none" stroke="rgb(0,0,0)" paint-order="fill stroke markers" d=" M 570.7916908642252 328.1646377852945 L 581.594085547564 346.4213699437426 L 599.850817706014 335.61897526040434 L 589.0484230226733 317.3622431019557 L 570.7916908642252 328.1646377852945" stroke-opacity="0.6" stroke-linecap="round" stroke-linejoin="round" stroke-miterlimit="10" stroke-width="2"/><path fill="rgb(0,0,0)" stroke="none" paint-order="stroke fill markers" fill-rule="evenodd" d=" M 901.3228969634761 132.59138226202302 L 883.0661648050279 143.3937769453618 L 893.8685594883663 161.65050910381186 L 912.1252916468148 150.84811442047115 L 901.3228969634761 132.59138226202302" fill-opacity="0.09803921568627451"/><path fill="none" stroke="rgb(0,0,0)" paint-order="fill stroke markers" d=" M 901.3228969634761 132.59138226202302 L 883.0661648050279 143.3937769453618 L 893.8685594883663 161.65050910381186 L 912.1252916468148 150.84811442047115 L 901.3228969634761 132.59138226202302" stroke-opacity="0.6" stroke-linecap="round" stroke-linejoin="round" stroke-miterlimit="10" stroke-width="2"/><path fill="none" stroke="rgb(97,97,97)" paint-order="fill stroke markers" d=" M 901.3228969634761 132.59138226202302 L 1127 514" stroke-opacity="0.8" stroke-linecap="round" stroke-linejoin="round" stroke-miterlimit="10" stroke-width="2.5"/><path fill="none" stroke="rgb(97,97,97)" paint-order="fill stroke markers" d=" M 1016.7075973262856 327.5988441681935 L 1008.9976648371196 326.35106974446865" stroke-opacity="0.8" stroke-linecap="round" stroke-linejoin="round" stroke-miterlimit="10" stroke-width="2.5"/><path fill="none" stroke="rgb(97,97,97)" paint-order="fill stroke markers" d=" M 1016.7075973262856 327.5988441681935 L 1019.3252321263565 320.24031251755434" stroke-opacity="0.8" stroke-linecap="round" stroke-linejoin="round" stroke-miterlimit="10" stroke-width="2.5"/><path fill="none" stroke="rgb(97,97,97)" paint-order="fill stroke markers" d=" M 683.6302423824872 518.868946654283 L 570.7916908642252 328.1646377852945" stroke-opacity="0.8" stroke-linecap="round" stroke-linejoin="round" stroke-miterlimit="10" stroke-width="2.5"/><path fill="none" stroke="rgb(97,97,97)" paint-order="fill stroke markers" d=" M 624.6648177788086 419.2136391826067 L 632.3747502679746 420.4614136063316" stroke-opacity="0.8" stroke-linecap="round" stroke-linejoin="round" stroke-miterlimit="10" stroke-width="2.5"/><path fill="none" stroke="rgb(97,97,97)" paint-order="fill stroke markers" d=" M 624.6648177788086 419.2136391826067 L 622.0471829787377 426.5721708332459" stroke-opacity="0.8" stroke-linecap="round" stroke-linejoin="round" stroke-miterlimit="10" stroke-width="2.5"/><path fill="none" stroke="rgb(97,97,97)" paint-order="fill stroke markers" d=" M 570.7916908642252 328.1646377852945 L 240.26048476497436 523.737893308566" stroke-opacity="0.8" stroke-linecap="round" stroke-linejoin="round" stroke-miterlimit="10" stroke-width="2.5"/><path fill="none" stroke="rgb(97,97,97)" paint-order="fill stroke markers" d=" M 408.58146642805696 431.1150491915487 L 402.47070920114265 420.7874819023118" stroke-opacity="0.8" stroke-linecap="round" stroke-linejoin="round" stroke-miterlimit="10" stroke-width="2.5"/><path fill="none" stroke="rgb(97,97,97)" paint-order="fill stroke markers" d=" M 570.7916908642252 328.1646377852945 L 901.3228969634761 132.59138226202302" stroke-opacity="0.8" stroke-linecap="round" stroke-linejoin="round" stroke-miterlimit="10" stroke-width="2.5"/><path fill="none" stroke="rgb(97,97,97)" paint-order="fill stroke markers" d=" M 733.0019153003934 225.21422637904035 L 739.1126725273077 235.54179366827717" stroke-opacity="0.8" stroke-linecap="round" stroke-linejoin="round" stroke-miterlimit="10" stroke-width="2.5"/><path fill="none" stroke="rgb(97,97,97)" paint-order="fill stroke markers" d=" M 240.26048476497436 523.737893308566 L 683.6302423824872 518.868946654283" stroke-opacity="0.8" stroke-linecap="round" stroke-linejoin="round" stroke-miterlimit="10" stroke-width="2.5"/><path fill="none" stroke="rgb(97,97,97)" paint-order="fill stroke markers" d=" M 459.37962817446396 515.33123429602 L 459.51140043919963 527.3305107771353" stroke-opacity="0.8" stroke-linecap="round" stroke-linejoin="round" stroke-miterlimit="10" stroke-width="2.5"/><path fill="none" stroke="rgb(97,97,97)" paint-order="fill stroke markers" d=" M 464.37932670826194 515.2763291857136 L 464.5110989729976 527.2756056668288" stroke-opacity="0.8" stroke-linecap="round" stroke-linejoin="round" stroke-miterlimit="10" stroke-width="2.5"/><path fill="none" stroke="rgb(97,97,97)" paint-order="fill stroke markers" d=" M 683.6302423824872 518.868946654283 L 1127 514" stroke-opacity="0.8" stroke-linecap="round" stroke-linejoin="round" stroke-miterlimit="10" stroke-width="2.5"/><path fill="none" stroke="rgb(97,97,97)" paint-order="fill stroke markers" d=" M 902.7493857919768 510.4622876417371 L 902.8811580567125 522.4615641228523" stroke-opacity="0.8" stroke-linecap="round" stroke-linejoin="round" stroke-miterlimit="10" stroke-width="2.5"/><path fill="none" stroke="rgb(97,97,97)" paint-order="fill stroke markers" d=" M 907.7490843257748 510.40738253143064 L 907.8808565905105 522.4066590125459" stroke-opacity="0.8" stroke-linecap="round" stroke-linejoin="round" stroke-miterlimit="10" stroke-width="2.5"/><path fill="rgb(21,101,192)" stroke="none" paint-order="stroke fill markers" d=" M 245.26048476497436 523.737893308566 C 245.26048476497436 526.49931705772 243.02190851412834 528.737893308566 240.26048476497436 528.737893308566 C 237.4990610158204 528.737893308566 235.26048476497436 526.49931705772 235.26048476497436 523.737893308566 C 235.26048476497436 520.976469559412 237.4990610158204 518.737893308566 240.26048476497436 518.737893308566 C 243.02190851412834 518.737893308566 245.26048476497436 520.976469559412 245.26048476497436 523.737893308566 Z" fill-opacity="1"/><path fill="none" stroke="rgb(0,0,0)" paint-order="fill stroke markers" d=" M 245.26048476497436 523.737893308566 C 245.26048476497436 526.49931705772 243.02190851412834 528.737893308566 240.26048476497436 528.737893308566 C 237.4990610158204 528.737893308566 235.26048476497436 526.49931705772 235.26048476497436 523.737893308566 C 235.26048476497436 520.976469559412 237.4990610158204 518.737893308566 240.26048476497436 518.737893308566 C 243.02190851412834 518.737893308566 245.26048476497436 520.976469559412 245.26048476497436 523.737893308566 Z" stroke-opacity="1" stroke-linecap="round" stroke-linejoin="round" stroke-miterlimit="10"/><path fill="rgb(21,101,192)" stroke="none" paint-order="stroke fill markers" d=" M 1132 514 C 1132 516.761423749154 1129.761423749154 519 1127 519 C 1124.238576250846 519 1122 516.761423749154 1122 514 C 1122 511.23857625084605 1124.238576250846 509 1127 509 C 1129.761423749154 509 1132 511.23857625084605 1132 514 Z" fill-opacity="1"/><path fill="none" stroke="rgb(0,0,0)" paint-order="fill stroke markers" d=" M 1132 514 C 1132 516.761423749154 1129.761423749154 519 1127 519 C 1124.238576250846 519 1122 516.761423749154 1122 514 C 1122 511.23857625084605 1124.238576250846 509 1127 509 C 1129.761423749154 509 1132 511.23857625084605 1132 514 Z" stroke-opacity="1" stroke-linecap="round" stroke-linejoin="round" stroke-miterlimit="10"/><path fill="rgb(211,47,47)" stroke="none" paint-order="stroke fill markers" d=" M 687.6302423824872 518.868946654283 C 687.6302423824872 521.0780856536062 685.8393813818103 522.868946654283 683.6302423824872 522.868946654283 C 681.421103383164 522.868946654283 679.6302423824872 521.0780856536062 679.6302423824872 518.868946654283 C 679.6302423824872 516.6598076549599 681.421103383164 514.868946654283 683.6302423824872 514.868946654283 C 685.8393813818103 514.868946654283 687.6302423824872 516.6598076549599 687.6302423824872 518.868946654283 Z" fill-opacity="1"/><path fill="none" stroke="rgb(0,0,0)" paint-order="fill stroke markers" d=" M 687.6302423824872 518.868946654283 C 687.6302423824872 521.0780856536062 685.8393813818103 522.868946654283 683.6302423824872 522.868946654283 C 681.421103383164 522.868946654283 679.6302423824872 521.0780856536062 679.6302423824872 518.868946654283 C 679.6302423824872 516.6598076549599 681.421103383164 514.868946654283 683.6302423824872 514.868946654283 C 685.8393813818103 514.868946654283 687.6302423824872 516.6598076549599 687.6302423824872 518.868946654283 Z" stroke-opacity="1" stroke-linecap="round" stroke-linejoin="round" stroke-miterlimit="10"/><path fill="rgb(21,101,192)" stroke="none" paint-order="stroke fill markers" d=" M 906.3228969634761 132.59138226202302 C 906.3228969634761 135.352806011177 904.0843207126301 137.59138226202302 901.3228969634761 137.59138226202302 C 898.5614732143221 137.59138226202302 896.3228969634761 135.352806011177 896.3228969634761 132.59138226202302 C 896.3228969634761 129.82995851286904 898.5614732143221 127.59138226202302 901.3228969634761 127.59138226202302 C 904.0843207126301 127.59138226202302 906.3228969634761 129.82995851286904 906.3228969634761 132.59138226202302 Z" fill-opacity="1"/><path fill="none" stroke="rgb(0,0,0)" paint-order="fill stroke markers" d=" M 906.3228969634761 132.59138226202302 C 906.3228969634761 135.352806011177 904.0843207126301 137.59138226202302 901.3228969634761 137.59138226202302 C 898.5614732143221 137.59138226202302 896.3228969634761 135.352806011177 896.3228969634761 132.59138226202302 C 896.3228969634761 129.82995851286904 898.5614732143221 127.59138226202302 901.3228969634761 127.59138226202302 C 904.0843207126301 127.59138226202302 906.3228969634761 129.82995851286904 906.3228969634761 132.59138226202302 Z" stroke-opacity="1" stroke-linecap="round" stroke-linejoin="round" stroke-miterlimit="10"/><path fill="rgb(21,101,192)" stroke="none" paint-order="stroke fill markers" d=" M 574.7916908642252 328.1646377852945 C 574.7916908642252 330.37377678461763 573.0008298635483 332.1646377852945 570.7916908642252 332.1646377852945 C 568.582551864902 332.1646377852945 566.7916908642252 330.37377678461763 566.7916908642252 328.1646377852945 C 566.7916908642252 325.9554987859713 568.582551864902 324.1646377852945 570.7916908642252 324.1646377852945 C 573.0008298635483 324.1646377852945 574.7916908642252 325.9554987859713 574.7916908642252 328.1646377852945 Z" fill-opacity="1"/><path fill="none" stroke="rgb(0,0,0)" paint-order="fill stroke markers" d=" M 574.7916908642252 328.1646377852945 C 574.7916908642252 330.37377678461763 573.0008298635483 332.1646377852945 570.7916908642252 332.1646377852945 C 568.582551864902 332.1646377852945 566.7916908642252 330.37377678461763 566.7916908642252 328.1646377852945 C 566.7916908642252 325.9554987859713 568.582551864902 324.1646377852945 570.7916908642252 324.1646377852945 C 573.0008298635483 324.1646377852945 574.7916908642252 325.9554987859713 574.7916908642252 328.1646377852945 Z" stroke-opacity="1" stroke-linecap="round" stroke-linejoin="round" stroke-miterlimit="10"/></g></g></svg>