<svg version="1.1" xmlns="http://www.w3.org/2000/svg" xmlns:xlink="http://www.w3.org/1999/xlink" width="1310" height="605"><defs><clipPath id="uEBnPvTuTAkV"><path fill="none" stroke="none" d=" M 0 0 L 1310 0 L 1310 605 L 0 605 L 0 0 Z"/></clipPath></defs><g transform="scale(1,1)" clip-path="url(#uEBnPvTuTAkV)"><g><rect fill="rgb(255,255,255)" stroke="none" x="0" y="0" width="1310" height="605" fill-opacity="1"/><path fill="none" stroke="rgb(97,97,97)" paint-order="fill stroke markers" d=" M 1088.1 495.1000000000001 C 1088.1 253.91724974889266 892.5827502511075 58.40000000000015 651.4000000000001 58.40000000000015 C 410.21724974889275 58.40000000000015 214.70000000000027 253.9172497488926 214.70000000000022 495.1" stroke-opacity="0.8" stroke-linecap="round" stroke-linejoin="round" stroke-miterlimit="10" stroke-width="2.5"/><path fill="none" stroke="rgb(97,97,97)" paint-order="fill stroke markers" d=" M 214.70000000000016 495.10000000000014 L 1088.1 495.1" stroke-opacity="0.8" stroke-linecap="round" stroke-linejoin="round" stroke-miterlimit="10" stroke-width="2.5"/><path fill="rgb(21,101,192)" stroke="none" paint-order="stroke fill markers" d=" M 219.70000000000016 495.10000000000014 C 219.70000000000016 497.8614237491541 217.46142374915414 500.10000000000014 214.70000000000016 500.10000000000014 C 211.93857625084618 500.10000000000014 209.70000000000016 497.8614237491541 209.70000000000016 495.10000000000014 C 209.70000000000016 492.3385762508462 211.93857625084618 490.10000000000014 214.70000000000016 490.10000000000014 C 217.46142374915414 490.10000000000014 219.70000000000016 492.3385762508462 219.70000000000016 495.10000000000014 Z" fill-opacity="1"/><path fill="none" stroke="rgb(0,0,0)" paint-order="fill stroke markers" d=" M 219.70000000000016 495.10000000000014 C 219.70000000000016 497.8614237491541 217.46142374915414 500.10000000000014 214.70000000000016 500.10000000000014 C 211.93857625084618 500.10000000000014 209.70000000000016 497.8614237491541 209.70000000000016 495.10000000000014 C 209.70000000000016 492.3385762508462 211.93857625084618 490.10000000000014 214.70000000000016 490.10000000000014 C 217.46142374915414 490.10000000000014 219.70000000000016 492.3385762508462 219.70000000000016 495.10000000000014 Z" stroke-opacity="1" stroke-linecap="round" stroke-linejoin="round" stroke-miterlimit="10"/><text fill="rgb(21,101,192)" stroke="none" font-family="geogebra-sans-serif, sans-serif" font-size="24px" font-style="normal" font-weight="normal" text-decoration="normal" x="181" y="523" text-anchor="start" dominant-baseline="alphabetic" fill-opacity="1">A</text><text fill="none" stroke="rgb(255,255,255)" font-family="geogebra-sans-serif, sans-serif" font-size="24px" font-style="normal" font-weight="normal" text-decoration="normal" x="181" y="523" text-anchor="start" dominant-baseline="alphabetic" stroke-opacity="1" stroke-linejoin="bevel" stroke-miterlimit="10" stroke-width="3">A</text><text fill="rgb(21,101,192)" stroke="none" font-family="geogebra-sans-serif, sans-serif" font-size="24px" font-style="normal" font-weight="normal" text-decoration="normal" x="181" y="523" text-anchor="start" dominant-baseline="alphabetic" fill-opacity="1">A</text><path fill="rgb(21,101,192)" stroke="none" paint-order="stroke fill markers" d=" M 1093.1 495.1 C 1093.1 497.86142374915397 1090.8614237491538 500.1 1088.1 500.1 C 1085.338576250846 500.1 1083.1 497.86142374915397 1083.1 495.1 C 1083.1 492.3385762508461 1085.338576250846 490.1 1088.1 490.1 C 1090.8614237491538 490.1 1093.1 492.3385762508461 1093.1 495.1 Z" fill-opacity="1"/><path fill="none" stroke="rgb(0,0,0)" paint-order="fill stroke markers" d=" M 1093.1 495.1 C 1093.1 497.86142374915397 1090.8614237491538 500.1 1088.1 500.1 C 1085.338576250846 500.1 1083.1 497.86142374915397 1083.1 495.1 C 1083.1 492.3385762508461 1085.338576250846 490.1 1088.1 490.1 C 1090.8614237491538 490.1 1093.1 492.3385762508461 1093.1 495.1 Z" stroke-opacity="1" stroke-linecap="round" stroke-linejoin="round" stroke-miterlimit="10"/><text fill="rgb(21,101,192)" stroke="none" font-family="geogebra-sans-serif, sans-serif" font-size="24px" font-style="normal" font-weight="normal" text-decoration="normal" x="1108" y="520" text-anchor="start" dominant-baseline="alphabetic" fill-opacity="1">B</text><text fill="none" stroke="rgb(255,255,255)" font-family="geogebra-sans-serif, sans-serif" font-size="24px" font-style="normal" font-weight="normal" text-decoration="normal" x="1108" y="520" text-anchor="start" dominant-baseline="alphabetic" stroke-opacity="1" stroke-linejoin="bevel" stroke-miterlimit="10" stroke-width="3">B</text><text fill="rgb(21,101,192)" stroke="none" font-family="geogebra-sans-serif, sans-serif" font-size="24px" font-style="normal" font-weight="normal" text-decoration="normal" x="1108" y="520" text-anchor="start" dominant-baseline="alphabetic" fill-opacity="1">B</text><path fill="rgb(21,101,192)" stroke="none" paint-order="stroke fill markers" d=" M 384.804235108838 153.13124339614814 C 384.804235108838 155.8926671453021 382.56565885799193 158.13124339614814 379.804235108838 158.13124339614814 C 377.04281135968404 158.13124339614814 374.804235108838 155.8926671453021 374.804235108838 153.13124339614814 C 374.804235108838 150.36981964699416 377.04281135968404 148.13124339614814 379.804235108838 148.13124339614814 C 382.56565885799193 148.13124339614814 384.804235108838 150.36981964699416 384.804235108838 153.13124339614814 Z" fill-opacity="1"/><path fill="none" stroke="rgb(0,0,0)" paint-order="fill stroke markers" d=" M 384.804235108838 153.13124339614814 C 384.804235108838 155.8926671453021 382.56565885799193 158.13124339614814 379.804235108838 158.13124339614814 C 377.04281135968404 158.13124339614814 374.804235108838 155.8926671453021 374.804235108838 153.13124339614814 C 374.804235108838 150.36981964699416 377.04281135968404 148.13124339614814 379.804235108838 148.13124339614814 C 382.56565885799193 148.13124339614814 384.804235108838 150.36981964699416 384.804235108838 153.13124339614814 Z" stroke-opacity="1" stroke-linecap="round" stroke-linejoin="round" stroke-miterlimit="10"/><text fill="rgb(21,101,192)" stroke="none" font-family="geogebra-sans-serif, sans-serif" font-size="24px" font-style="normal" font-weight="normal" text-decoration="normal" x="361" y="136" text-anchor="start" dominant-baseline="alphabetic" fill-opacity="1">P</text><text fill="none" stroke="rgb(255,255,255)" font-family="geogebra-sans-serif, sans-serif" font-size="24px" font-style="normal" font-weight="normal" text-decoration="normal" x="361" y="136" text-anchor="start" dominant-baseline="alphabetic" stroke-opacity="1" stroke-linejoin="bevel" stroke-miterlimit="10" stroke-width="3">P</text><text fill="rgb(21,101,192)" stroke="none" font-family="geogebra-sans-serif, sans-serif" font-size="24px" font-style="normal" font-weight="normal" text-decoration="normal" x="361" y="136" text-anchor="start" dominant-baseline="alphabetic" fill-opacity="1">P</text><path fill="rgb(211,47,47)" stroke="none" paint-order="stroke fill markers" d=" M 655.4000000000001 495.1000000000001 C 655.4000000000001 497.30913899932324 653.6091389993232 499.1000000000001 651.4000000000001 499.1000000000001 C 649.1908610006769 499.1000000000001 647.4000000000001 497.30913899932324 647.4000000000001 495.1000000000001 C 647.4000000000001 492.8908610006769 649.1908610006769 491.1000000000001 651.4000000000001 491.1000000000001 C 653.6091389993232 491.1000000000001 655.4000000000001 492.8908610006769 655.4000000000001 495.1000000000001 Z" fill-opacity="1"/><path fill="none" stroke="rgb(0,0,0)" paint-order="fill stroke markers" d=" M 655.4000000000001 495.1000000000001 C 655.4000000000001 497.30913899932324 653.6091389993232 499.1000000000001 651.4000000000001 499.1000000000001 C 649.1908610006769 499.1000000000001 647.4000000000001 497.30913899932324 647.4000000000001 495.1000000000001 C 647.4000000000001 492.8908610006769 649.1908610006769 491.1000000000001 651.4000000000001 491.1000000000001 C 653.6091389993232 491.1000000000001 655.4000000000001 492.8908610006769 655.4000000000001 495.1000000000001 Z" stroke-opacity="1" stroke-linecap="round" stroke-linejoin="round" stroke-miterlimit="10"/><text fill="rgb(211,47,47)" stroke="none" font-family="geogebra-sans-serif, sans-serif" font-size="24px" font-style="normal" font-weight="normal" text-decoration="normal" x="641" y="530" text-anchor="start" dominant-baseline="alphabetic" fill-opacity="1">O</text><text fill="none" stroke="rgb(255,255,255)" font-family="geogebra-sans-serif, sans-serif" font-size="24px" font-style="normal" font-weight="normal" text-decoration="normal" x="641" y="530" text-anchor="start" dominant-baseline="alphabetic" stroke-opacity="1" stroke-linejoin="bevel" stroke-miterlimit="10" stroke-width="3">O</text><text fill="rgb(211,47,47)" stroke="none" font-family="geogebra-sans-serif, sans-serif" font-size="24px" font-style="normal" font-weight="normal" text-decoration="normal" x="641" y="530" text-anchor="start" dominant-baseline="alphabetic" fill-opacity="1">O</text></g></g></svg>