<svg version="1.1" xmlns="http://www.w3.org/2000/svg" xmlns:xlink="http://www.w3.org/1999/xlink" width="1310" height="605"><defs><clipPath id="qaJognNDTQVC"><path fill="none" stroke="none" d=" M 0 0 L 1310 0 L 1310 605 L 0 605 L 0 0 Z"/></clipPath></defs><g transform="scale(1,1)" clip-path="url(#qaJognNDTQVC)"><g><rect fill="rgb(255,255,255)" stroke="none" x="0" y="0" width="1310" height="605" fill-opacity="1"/><path fill="none" stroke="rgb(97,97,97)" paint-order="fill stroke markers" d=" M 1088.1 495.1 C 1088.1 253.91724974889266 892.5827502511074 58.400000000000205 651.4 58.400000000000205 C 410.21724974889264 58.400000000000205 214.70000000000022 253.9172497488926 214.70000000000016 495.09999999999997" stroke-opacity="0.8" stroke-linecap="round" stroke-linejoin="round" stroke-miterlimit="10" stroke-width="2.5"/><path fill="none" stroke="rgb(97,97,97)" paint-order="fill stroke markers" d=" M 214.7000000000001 495.1 L 1088.1 495.09999999999997" stroke-opacity="0.8" stroke-linecap="round" stroke-linejoin="round" stroke-miterlimit="10" stroke-width="2.5"/><path fill="none" stroke="rgb(97,97,97)" paint-order="fill stroke markers" d=" M 379.80423510883793 153.1312433961481 L 214.7000000000001 495.1" stroke-opacity="0.8" stroke-linecap="round" stroke-linejoin="round" stroke-miterlimit="10" stroke-width="2.5"/><path fill="none" stroke="rgb(97,97,97)" paint-order="fill stroke markers" d=" M 379.80423510883793 153.1312433961481 L 651.4 495.1" stroke-opacity="0.8" stroke-linecap="round" stroke-linejoin="round" stroke-miterlimit="10" stroke-width="2.5"/><path fill="none" stroke="rgb(97,97,97)" paint-order="fill stroke markers" d=" M 379.80423510883793 153.1312433961481 L 1088.1 495.09999999999997" stroke-opacity="0.8" stroke-linecap="round" stroke-linejoin="round" stroke-miterlimit="10" stroke-width="2.5"/><path fill="rgb(21,101,192)" stroke="none" paint-order="stroke fill markers" d=" M 219.7000000000001 495.1 C 219.7000000000001 497.86142374915397 217.46142374915408 500.1 214.7000000000001 500.1 C 211.93857625084613 500.1 209.7000000000001 497.86142374915397 209.7000000000001 495.1 C 209.7000000000001 492.3385762508461 211.93857625084613 490.1 214.7000000000001 490.1 C 217.46142374915408 490.1 219.7000000000001 492.3385762508461 219.7000000000001 495.1 Z" fill-opacity="1"/><path fill="none" stroke="rgb(0,0,0)" paint-order="fill stroke markers" d=" M 219.7000000000001 495.1 C 219.7000000000001 497.86142374915397 217.46142374915408 500.1 214.7000000000001 500.1 C 211.93857625084613 500.1 209.7000000000001 497.86142374915397 209.7000000000001 495.1 C 209.7000000000001 492.3385762508461 211.93857625084613 490.1 214.7000000000001 490.1 C 217.46142374915408 490.1 219.7000000000001 492.3385762508461 219.7000000000001 495.1 Z" stroke-opacity="1" stroke-linecap="round" stroke-linejoin="round" stroke-miterlimit="10"/><text fill="rgb(21,101,192)" stroke="none" font-family="geogebra-sans-serif, sans-serif" font-size="24px" font-style="normal" font-weight="normal" text-decoration="normal" x="181" y="523" text-anchor="start" dominant-baseline="alphabetic" fill-opacity="1">A</text><text fill="none" stroke="rgb(255,255,255)" font-family="geogebra-sans-serif, sans-serif" font-size="24px" font-style="normal" font-weight="normal" text-decoration="normal" x="181" y="523" text-anchor="start" dominant-baseline="alphabetic" stroke-opacity="1" stroke-linejoin="bevel" stroke-miterlimit="10" stroke-width="3">A</text><text fill="rgb(21,101,192)" stroke="none" font-family="geogebra-sans-serif, sans-serif" font-size="24px" font-style="normal" font-weight="normal" text-decoration="normal" x="181" y="523" text-anchor="start" dominant-baseline="alphabetic" fill-opacity="1">A</text><path fill="rgb(21,101,192)" stroke="none" paint-order="stroke fill markers" d=" M 1093.1 495.09999999999997 C 1093.1 497.8614237491539 1090.8614237491538 500.09999999999997 1088.1 500.09999999999997 C 1085.338576250846 500.09999999999997 1083.1 497.8614237491539 1083.1 495.09999999999997 C 1083.1 492.338576250846 1085.338576250846 490.09999999999997 1088.1 490.09999999999997 C 1090.8614237491538 490.09999999999997 1093.1 492.338576250846 1093.1 495.09999999999997 Z" fill-opacity="1"/><path fill="none" stroke="rgb(0,0,0)" paint-order="fill stroke markers" d=" M 1093.1 495.09999999999997 C 1093.1 497.8614237491539 1090.8614237491538 500.09999999999997 1088.1 500.09999999999997 C 1085.338576250846 500.09999999999997 1083.1 497.8614237491539 1083.1 495.09999999999997 C 1083.1 492.338576250846 1085.338576250846 490.09999999999997 1088.1 490.09999999999997 C 1090.8614237491538 490.09999999999997 1093.1 492.338576250846 1093.1 495.09999999999997 Z" stroke-opacity="1" stroke-linecap="round" stroke-linejoin="round" stroke-miterlimit="10"/><text fill="rgb(21,101,192)" stroke="none" font-family="geogebra-sans-serif, sans-serif" font-size="24px" font-style="normal" font-weight="normal" text-decoration="normal" x="1108" y="520" text-anchor="start" dominant-baseline="alphabetic" fill-opacity="1">B</text><text fill="none" stroke="rgb(255,255,255)" font-family="geogebra-sans-serif, sans-serif" font-size="24px" font-style="normal" font-weight="normal" text-decoration="normal" x="1108" y="520" text-anchor="start" dominant-baseline="alphabetic" stroke-opacity="1" stroke-linejoin="bevel" stroke-miterlimit="10" stroke-width="3">B</text><text fill="rgb(21,101,192)" stroke="none" font-family="geogebra-sans-serif, sans-serif" font-size="24px" font-style="normal" font-weight="normal" text-decoration="normal" x="1108" y="520" text-anchor="start" dominant-baseline="alphabetic" fill-opacity="1">B</text><path fill="rgb(21,101,192)" stroke="none" paint-order="stroke fill markers" d=" M 384.80423510883793 153.1312433961481 C 384.80423510883793 155.89266714530208 382.5656588579919 158.1312433961481 379.80423510883793 158.1312433961481 C 377.042811359684 158.1312433961481 374.80423510883793 155.89266714530208 374.80423510883793 153.1312433961481 C 374.80423510883793 150.36981964699413 377.042811359684 148.1312433961481 379.80423510883793 148.1312433961481 C 382.5656588579919 148.1312433961481 384.80423510883793 150.36981964699413 384.80423510883793 153.1312433961481 Z" fill-opacity="1"/><path fill="none" stroke="rgb(0,0,0)" paint-order="fill stroke markers" d=" M 384.80423510883793 153.1312433961481 C 384.80423510883793 155.89266714530208 382.5656588579919 158.1312433961481 379.80423510883793 158.1312433961481 C 377.042811359684 158.1312433961481 374.80423510883793 155.89266714530208 374.80423510883793 153.1312433961481 C 374.80423510883793 150.36981964699413 377.042811359684 148.1312433961481 379.80423510883793 148.1312433961481 C 382.5656588579919 148.1312433961481 384.80423510883793 150.36981964699413 384.80423510883793 153.1312433961481 Z" stroke-opacity="1" stroke-linecap="round" stroke-linejoin="round" stroke-miterlimit="10"/><text fill="rgb(21,101,192)" stroke="none" font-family="geogebra-sans-serif, sans-serif" font-size="24px" font-style="normal" font-weight="normal" text-decoration="normal" x="361" y="136" text-anchor="start" dominant-baseline="alphabetic" fill-opacity="1">P</text><text fill="none" stroke="rgb(255,255,255)" font-family="geogebra-sans-serif, sans-serif" font-size="24px" font-style="normal" font-weight="normal" text-decoration="normal" x="361" y="136" text-anchor="start" dominant-baseline="alphabetic" stroke-opacity="1" stroke-linejoin="bevel" stroke-miterlimit="10" stroke-width="3">P</text><text fill="rgb(21,101,192)" stroke="none" font-family="geogebra-sans-serif, sans-serif" font-size="24px" font-style="normal" font-weight="normal" text-decoration="normal" x="361" y="136" text-anchor="start" dominant-baseline="alphabetic" fill-opacity="1">P</text><path fill="rgb(211,47,47)" stroke="none" paint-order="stroke fill markers" d=" M 655.4 495.1 C 655.4 497.3091389993232 653.6091389993231 499.1 651.4 499.1 C 649.1908610006768 499.1 647.4 497.3091389993232 647.4 495.1 C 647.4 492.89086100067686 649.1908610006768 491.1 651.4 491.1 C 653.6091389993231 491.1 655.4 492.89086100067686 655.4 495.1 Z" fill-opacity="1"/><path fill="none" stroke="rgb(0,0,0)" paint-order="fill stroke markers" d=" M 655.4 495.1 C 655.4 497.3091389993232 653.6091389993231 499.1 651.4 499.1 C 649.1908610006768 499.1 647.4 497.3091389993232 647.4 495.1 C 647.4 492.89086100067686 649.1908610006768 491.1 651.4 491.1 C 653.6091389993231 491.1 655.4 492.89086100067686 655.4 495.1 Z" stroke-opacity="1" stroke-linecap="round" stroke-linejoin="round" stroke-miterlimit="10"/><text fill="rgb(211,47,47)" stroke="none" font-family="geogebra-sans-serif, sans-serif" font-size="24px" font-style="normal" font-weight="normal" text-decoration="normal" x="641" y="530" text-anchor="start" dominant-baseline="alphabetic" fill-opacity="1">O</text><text fill="none" stroke="rgb(255,255,255)" font-family="geogebra-sans-serif, sans-serif" font-size="24px" font-style="normal" font-weight="normal" text-decoration="normal" x="641" y="530" text-anchor="start" dominant-baseline="alphabetic" stroke-opacity="1" stroke-linejoin="bevel" stroke-miterlimit="10" stroke-width="3">O</text><text fill="rgb(211,47,47)" stroke="none" font-family="geogebra-sans-serif, sans-serif" font-size="24px" font-style="normal" font-weight="normal" text-decoration="normal" x="641" y="530" text-anchor="start" dominant-baseline="alphabetic" fill-opacity="1">O</text></g></g></svg>