<svg version="1.1" xmlns="http://www.w3.org/2000/svg" xmlns:xlink="http://www.w3.org/1999/xlink" width="1310" height="605"><defs><clipPath id="DMcOiLXOaxzz"><path fill="none" stroke="none" d=" M 0 0 L 1310 0 L 1310 605 L 0 605 L 0 0 Z"/></clipPath></defs><g transform="scale(1,1)" clip-path="url(#DMcOiLXOaxzz)"><g><rect fill="rgb(255,255,255)" stroke="none" x="0" y="0" width="1310" height="605" fill-opacity="1"/><path fill="none" stroke="rgb(97,97,97)" paint-order="fill stroke markers" d=" M 1088.1 495.1 C 1088.1 253.91724974889266 892.5827502511077 58.400000000000205 651.4000000000002 58.400000000000205 C 410.21724974889287 58.400000000000205 214.70000000000044 253.9172497488926 214.7000000000004 495.09999999999997" stroke-opacity="0.8" stroke-linecap="round" stroke-linejoin="round" stroke-miterlimit="10" stroke-width="2.5"/><path fill="rgb(0,0,0)" stroke="none" paint-order="stroke fill markers" d=" M 244.7000000000004 495.1 C 244.7000000000004 483.5870092964026 238.1113429781043 473.0895939405312 227.74348874258442 468.08394178600287 L 214.70000000000033 495.1 Z" fill-opacity="0.09803921568627451"/><path fill="none" stroke="rgb(0,0,0)" paint-order="fill stroke markers" d=" M 244.7000000000004 495.1 C 244.7000000000004 483.5870092964026 238.1113429781043 473.0895939405312 227.74348874258442 468.08394178600287 L 214.70000000000033 495.1 Z" stroke-opacity="0.6" stroke-linecap="round" stroke-linejoin="round" stroke-miterlimit="10" stroke-width="2"/><g transform="scale(27,27)"><g transform="translate(9.222222222222221,17.65520396296296)"><path fill="rgb(0,0,0)" stroke="none" paint-order="stroke fill markers" d=" M 0.654 -0.653 L 0.12 -0.04 L 0.63 -0.04 Q 0.661 -0.04 0.664 -0.026000000000000002 Q 0.665 -0.023 0.665 -0.02 Q 0.659 0 0.63 0 L 0.092 0 Q 0.06 0 0.057 -0.014 Q 0.056 -0.017 0.056 -0.02 Q 0.056 -0.028 0.068 -0.041 L 0.623 -0.68 Q 0.636 -0.6940000000000001 0.645 -0.6940000000000001 Q 0.661 -0.6940000000000001 0.664 -0.679 Q 0.665 -0.676 0.665 -0.674 Q 0.665 -0.665 0.654 -0.653 Z"/></g><g transform="translate(9.944446222222222,17.65520396296296)"><path fill="rgb(0,0,0)" stroke="none" paint-order="stroke fill markers" d=" M 0.294 -0.64 L 0.294 -0.079 Q 0.294 -0.049 0.306 -0.041 Q 0.323 -0.031 0.387 -0.031 L 0.419 -0.031 L 0.419 0 Q 0.384 -0.003 0.257 -0.003 Q 0.13 -0.003 0.095 0 L 0.095 -0.031 L 0.127 -0.031 Q 0.20400000000000001 -0.031 0.215 -0.049 L 0.216 -0.05 Q 0.22 -0.058 0.22 -0.079 L 0.22 -0.597 Q 0.168 -0.5710000000000001 0.089 -0.5710000000000001 L 0.089 -0.602 Q 0.209 -0.602 0.271 -0.666 Q 0.29 -0.666 0.293 -0.659 L 0.293 -0.659 L 0.293 -0.658 Q 0.294 -0.655 0.294 -0.64 Z"/></g></g><path fill="rgb(0,0,0)" stroke="none" paint-order="stroke fill markers" d=" M 366.760746366254 180.14730161014523 C 377.1286006017739 185.1529537646735 389.44652920325984 183.78373301017132 398.4620618703102 176.62348680836604 L 379.80423510883816 153.1312433961481 Z" fill-opacity="0.09803921568627451"/><path fill="none" stroke="rgb(0,0,0)" paint-order="fill stroke markers" d=" M 366.760746366254 180.14730161014523 C 377.1286006017739 185.1529537646735 389.44652920325984 183.78373301017132 398.4620618703102 176.62348680836604 L 379.80423510883816 153.1312433961481 Z" stroke-opacity="0.6" stroke-linecap="round" stroke-linejoin="round" stroke-miterlimit="10" stroke-width="2"/><g transform="scale(27,27)"><g transform="translate(13.555555555555555,8.06261137037037)"><path fill="rgb(0,0,0)" stroke="none" paint-order="stroke fill markers" d=" M 0.654 -0.653 L 0.12 -0.04 L 0.63 -0.04 Q 0.661 -0.04 0.664 -0.026000000000000002 Q 0.665 -0.023 0.665 -0.02 Q 0.659 0 0.63 0 L 0.092 0 Q 0.06 0 0.057 -0.014 Q 0.056 -0.017 0.056 -0.02 Q 0.056 -0.028 0.068 -0.041 L 0.623 -0.68 Q 0.636 -0.6940000000000001 0.645 -0.6940000000000001 Q 0.661 -0.6940000000000001 0.664 -0.679 Q 0.665 -0.676 0.665 -0.674 Q 0.665 -0.665 0.654 -0.653 Z"/></g><g transform="translate(14.277779555555556,8.06261137037037)"><path fill="rgb(0,0,0)" stroke="none" paint-order="stroke fill markers" d=" M 0.294 -0.64 L 0.294 -0.079 Q 0.294 -0.049 0.306 -0.041 Q 0.323 -0.031 0.387 -0.031 L 0.419 -0.031 L 0.419 0 Q 0.384 -0.003 0.257 -0.003 Q 0.13 -0.003 0.095 0 L 0.095 -0.031 L 0.127 -0.031 Q 0.20400000000000001 -0.031 0.215 -0.049 L 0.216 -0.05 Q 0.22 -0.058 0.22 -0.079 L 0.22 -0.597 Q 0.168 -0.5710000000000001 0.089 -0.5710000000000001 L 0.089 -0.602 Q 0.209 -0.602 0.271 -0.666 Q 0.29 -0.666 0.293 -0.659 L 0.293 -0.659 L 0.293 -0.658 Q 0.294 -0.655 0.294 -0.64 Z"/></g></g><path fill="rgb(0,0,0)" stroke="none" paint-order="stroke fill markers" d=" M 407.7909752510463 188.36960851447498 C 413.09673083942675 184.15571259701522 417.3824325003965 178.7980905334163 420.32832242983386 172.69647651002427 L 379.80423510883816 153.1312433961481 Z" fill-opacity="0.09803921568627451"/><path fill="none" stroke="rgb(0,0,0)" paint-order="fill stroke markers" d=" M 407.7909752510463 188.36960851447498 C 413.09673083942675 184.15571259701522 417.3824325003965 178.7980905334163 420.32832242983386 172.69647651002427 L 379.80423510883816 153.1312433961481 Z" stroke-opacity="0.6" stroke-linecap="round" stroke-linejoin="round" stroke-miterlimit="10" stroke-width="2.5"/><g transform="scale(27,27)"><g transform="translate(16.037037037037038,7.988537296296297)"><path fill="rgb(0,0,0)" stroke="none" paint-order="stroke fill markers" d=" M 0.654 -0.653 L 0.12 -0.04 L 0.63 -0.04 Q 0.661 -0.04 0.664 -0.026000000000000002 Q 0.665 -0.023 0.665 -0.02 Q 0.659 0 0.63 0 L 0.092 0 Q 0.06 0 0.057 -0.014 Q 0.056 -0.017 0.056 -0.02 Q 0.056 -0.028 0.068 -0.041 L 0.623 -0.68 Q 0.636 -0.6940000000000001 0.645 -0.6940000000000001 Q 0.661 -0.6940000000000001 0.664 -0.679 Q 0.665 -0.676 0.665 -0.674 Q 0.665 -0.665 0.654 -0.653 Z"/></g><g transform="translate(16.75926103703704,7.988537296296297)"><path fill="rgb(0,0,0)" stroke="none" paint-order="stroke fill markers" d=" M 0.449 -0.17400000000000002 L 0.449 -0.17400000000000002 L 0.421 0 L 0.05 0 Q 0.05 -0.025 0.056 -0.032 L 0.061 -0.037 L 0.253 -0.251 Q 0.358 -0.369 0.358 -0.47200000000000003 Q 0.358 -0.561 0.304 -0.607 L 0.303 -0.608 L 0.302 -0.608 Q 0.27 -0.635 0.224 -0.635 Q 0.152 -0.635 0.109 -0.5730000000000001 Q 0.097 -0.555 0.089 -0.533 Q 0.092 -0.534 0.10200000000000001 -0.534 Q 0.14200000000000002 -0.534 0.153 -0.498 L 0.153 -0.497 Q 0.155 -0.49 0.155 -0.482 Q 0.155 -0.442 0.117 -0.431 Q 0.109 -0.429 0.10300000000000001 -0.429 Q 0.066 -0.429 0.054 -0.46 Q 0.05 -0.47100000000000003 0.05 -0.485 Q 0.05 -0.562 0.109 -0.617 Q 0.162 -0.666 0.23700000000000002 -0.666 Q 0.34700000000000003 -0.666 0.40800000000000003 -0.592 Q 0.443 -0.549 0.448 -0.49 Q 0.449 -0.481 0.449 -0.47200000000000003 Q 0.449 -0.399 0.394 -0.333 Q 0.365 -0.299 0.304 -0.243 L 0.243 -0.189 L 0.233 -0.18 L 0.127 -0.077 L 0.307 -0.077 Q 0.395 -0.077 0.402 -0.085 Q 0.41200000000000003 -0.099 0.424 -0.17400000000000002 L 0.449 -0.17400000000000002 Z"/></g></g><path fill="rgb(0,0,0)" stroke="none" paint-order="stroke fill markers" d=" M 1052.0785890480038 477.7086816765545 C 1049.4600202218373 483.1323385862363 1048.1 489.0772965396501 1048.1 495.09999999999997 L 1088.1 495.09999999999997 Z" fill-opacity="0.09803921568627451"/><path fill="none" stroke="rgb(0,0,0)" paint-order="fill stroke markers" d=" M 1052.0785890480038 477.7086816765545 C 1049.4600202218373 483.1323385862363 1048.1 489.0772965396501 1048.1 495.09999999999997 L 1088.1 495.09999999999997 Z" stroke-opacity="0.6" stroke-linecap="round" stroke-linejoin="round" stroke-miterlimit="10" stroke-width="2"/><g transform="scale(27,27)"><g transform="translate(36.55555555555556,18.06261137037037)"><path fill="rgb(0,0,0)" stroke="none" paint-order="stroke fill markers" d=" M 0.654 -0.653 L 0.12 -0.04 L 0.63 -0.04 Q 0.661 -0.04 0.664 -0.026000000000000002 Q 0.665 -0.023 0.665 -0.02 Q 0.659 0 0.63 0 L 0.092 0 Q 0.06 0 0.057 -0.014 Q 0.056 -0.017 0.056 -0.02 Q 0.056 -0.028 0.068 -0.041 L 0.623 -0.68 Q 0.636 -0.6940000000000001 0.645 -0.6940000000000001 Q 0.661 -0.6940000000000001 0.664 -0.679 Q 0.665 -0.676 0.665 -0.674 Q 0.665 -0.665 0.654 -0.653 Z"/></g><g transform="translate(37.277779555555554,18.06261137037037)"><path fill="rgb(0,0,0)" stroke="none" paint-order="stroke fill markers" d=" M 0.449 -0.17400000000000002 L 0.449 -0.17400000000000002 L 0.421 0 L 0.05 0 Q 0.05 -0.025 0.056 -0.032 L 0.061 -0.037 L 0.253 -0.251 Q 0.358 -0.369 0.358 -0.47200000000000003 Q 0.358 -0.561 0.304 -0.607 L 0.303 -0.608 L 0.302 -0.608 Q 0.27 -0.635 0.224 -0.635 Q 0.152 -0.635 0.109 -0.5730000000000001 Q 0.097 -0.555 0.089 -0.533 Q 0.092 -0.534 0.10200000000000001 -0.534 Q 0.14200000000000002 -0.534 0.153 -0.498 L 0.153 -0.497 Q 0.155 -0.49 0.155 -0.482 Q 0.155 -0.442 0.117 -0.431 Q 0.109 -0.429 0.10300000000000001 -0.429 Q 0.066 -0.429 0.054 -0.46 Q 0.05 -0.47100000000000003 0.05 -0.485 Q 0.05 -0.562 0.109 -0.617 Q 0.162 -0.666 0.23700000000000002 -0.666 Q 0.34700000000000003 -0.666 0.40800000000000003 -0.592 Q 0.443 -0.549 0.448 -0.49 Q 0.449 -0.481 0.449 -0.47200000000000003 Q 0.449 -0.399 0.394 -0.333 Q 0.365 -0.299 0.304 -0.243 L 0.243 -0.189 L 0.233 -0.18 L 0.127 -0.077 L 0.307 -0.077 Q 0.395 -0.077 0.402 -0.085 Q 0.41200000000000003 -0.099 0.424 -0.17400000000000002 L 0.449 -0.17400000000000002 Z"/></g></g><path fill="none" stroke="rgb(97,97,97)" paint-order="fill stroke markers" d=" M 214.70000000000033 495.1 L 1088.1 495.09999999999997" stroke-opacity="0.8" stroke-linecap="round" stroke-linejoin="round" stroke-miterlimit="10" stroke-width="2.5"/><path fill="none" stroke="rgb(97,97,97)" paint-order="fill stroke markers" d=" M 379.80423510883816 153.1312433961481 L 214.70000000000033 495.1" stroke-opacity="0.8" stroke-linecap="round" stroke-linejoin="round" stroke-miterlimit="10" stroke-width="2.5"/><path fill="none" stroke="rgb(97,97,97)" paint-order="fill stroke markers" d=" M 379.80423510883816 153.1312433961481 L 651.4000000000002 495.1" stroke-opacity="0.8" stroke-linecap="round" stroke-linejoin="round" stroke-miterlimit="10" stroke-width="2.5"/><path fill="none" stroke="rgb(97,97,97)" paint-order="fill stroke markers" d=" M 379.80423510883816 153.1312433961481 L 1088.1 495.09999999999997" stroke-opacity="0.8" stroke-linecap="round" stroke-linejoin="round" stroke-miterlimit="10" stroke-width="2.5"/><path fill="rgb(21,101,192)" stroke="none" paint-order="stroke fill markers" d=" M 219.70000000000033 495.1 C 219.70000000000033 497.86142374915397 217.4614237491543 500.1 214.70000000000033 500.1 C 211.93857625084635 500.1 209.70000000000033 497.86142374915397 209.70000000000033 495.1 C 209.70000000000033 492.3385762508461 211.93857625084635 490.1 214.70000000000033 490.1 C 217.4614237491543 490.1 219.70000000000033 492.3385762508461 219.70000000000033 495.1 Z" fill-opacity="1"/><path fill="none" stroke="rgb(0,0,0)" paint-order="fill stroke markers" d=" M 219.70000000000033 495.1 C 219.70000000000033 497.86142374915397 217.4614237491543 500.1 214.70000000000033 500.1 C 211.93857625084635 500.1 209.70000000000033 497.86142374915397 209.70000000000033 495.1 C 209.70000000000033 492.3385762508461 211.93857625084635 490.1 214.70000000000033 490.1 C 217.4614237491543 490.1 219.70000000000033 492.3385762508461 219.70000000000033 495.1 Z" stroke-opacity="1" stroke-linecap="round" stroke-linejoin="round" stroke-miterlimit="10"/><text fill="rgb(21,101,192)" stroke="none" font-family="geogebra-sans-serif, sans-serif" font-size="24px" font-style="normal" font-weight="normal" text-decoration="normal" x="181" y="523" text-anchor="start" dominant-baseline="alphabetic" fill-opacity="1">A</text><text fill="none" stroke="rgb(255,255,255)" font-family="geogebra-sans-serif, sans-serif" font-size="24px" font-style="normal" font-weight="normal" text-decoration="normal" x="181" y="523" text-anchor="start" dominant-baseline="alphabetic" stroke-opacity="1" stroke-linejoin="bevel" stroke-miterlimit="10" stroke-width="3">A</text><text fill="rgb(21,101,192)" stroke="none" font-family="geogebra-sans-serif, sans-serif" font-size="24px" font-style="normal" font-weight="normal" text-decoration="normal" x="181" y="523" text-anchor="start" dominant-baseline="alphabetic" fill-opacity="1">A</text><path fill="rgb(21,101,192)" stroke="none" paint-order="stroke fill markers" d=" M 1093.1 495.09999999999997 C 1093.1 497.8614237491539 1090.8614237491538 500.09999999999997 1088.1 500.09999999999997 C 1085.338576250846 500.09999999999997 1083.1 497.8614237491539 1083.1 495.09999999999997 C 1083.1 492.338576250846 1085.338576250846 490.09999999999997 1088.1 490.09999999999997 C 1090.8614237491538 490.09999999999997 1093.1 492.338576250846 1093.1 495.09999999999997 Z" fill-opacity="1"/><path fill="none" stroke="rgb(0,0,0)" paint-order="fill stroke markers" d=" M 1093.1 495.09999999999997 C 1093.1 497.8614237491539 1090.8614237491538 500.09999999999997 1088.1 500.09999999999997 C 1085.338576250846 500.09999999999997 1083.1 497.8614237491539 1083.1 495.09999999999997 C 1083.1 492.338576250846 1085.338576250846 490.09999999999997 1088.1 490.09999999999997 C 1090.8614237491538 490.09999999999997 1093.1 492.338576250846 1093.1 495.09999999999997 Z" stroke-opacity="1" stroke-linecap="round" stroke-linejoin="round" stroke-miterlimit="10"/><text fill="rgb(21,101,192)" stroke="none" font-family="geogebra-sans-serif, sans-serif" font-size="24px" font-style="normal" font-weight="normal" text-decoration="normal" x="1108" y="520" text-anchor="start" dominant-baseline="alphabetic" fill-opacity="1">B</text><text fill="none" stroke="rgb(255,255,255)" font-family="geogebra-sans-serif, sans-serif" font-size="24px" font-style="normal" font-weight="normal" text-decoration="normal" x="1108" y="520" text-anchor="start" dominant-baseline="alphabetic" stroke-opacity="1" stroke-linejoin="bevel" stroke-miterlimit="10" stroke-width="3">B</text><text fill="rgb(21,101,192)" stroke="none" font-family="geogebra-sans-serif, sans-serif" font-size="24px" font-style="normal" font-weight="normal" text-decoration="normal" x="1108" y="520" text-anchor="start" dominant-baseline="alphabetic" fill-opacity="1">B</text><path fill="rgb(21,101,192)" stroke="none" paint-order="stroke fill markers" d=" M 384.80423510883816 153.1312433961481 C 384.80423510883816 155.89266714530208 382.5656588579921 158.1312433961481 379.80423510883816 158.1312433961481 C 377.0428113596842 158.1312433961481 374.80423510883816 155.89266714530208 374.80423510883816 153.1312433961481 C 374.80423510883816 150.36981964699413 377.0428113596842 148.1312433961481 379.80423510883816 148.1312433961481 C 382.5656588579921 148.1312433961481 384.80423510883816 150.36981964699413 384.80423510883816 153.1312433961481 Z" fill-opacity="1"/><path fill="none" stroke="rgb(0,0,0)" paint-order="fill stroke markers" d=" M 384.80423510883816 153.1312433961481 C 384.80423510883816 155.89266714530208 382.5656588579921 158.1312433961481 379.80423510883816 158.1312433961481 C 377.0428113596842 158.1312433961481 374.80423510883816 155.89266714530208 374.80423510883816 153.1312433961481 C 374.80423510883816 150.36981964699413 377.0428113596842 148.1312433961481 379.80423510883816 148.1312433961481 C 382.5656588579921 148.1312433961481 384.80423510883816 150.36981964699413 384.80423510883816 153.1312433961481 Z" stroke-opacity="1" stroke-linecap="round" stroke-linejoin="round" stroke-miterlimit="10"/><text fill="rgb(21,101,192)" stroke="none" font-family="geogebra-sans-serif, sans-serif" font-size="24px" font-style="normal" font-weight="normal" text-decoration="normal" x="361" y="136" text-anchor="start" dominant-baseline="alphabetic" fill-opacity="1">P</text><text fill="none" stroke="rgb(255,255,255)" font-family="geogebra-sans-serif, sans-serif" font-size="24px" font-style="normal" font-weight="normal" text-decoration="normal" x="361" y="136" text-anchor="start" dominant-baseline="alphabetic" stroke-opacity="1" stroke-linejoin="bevel" stroke-miterlimit="10" stroke-width="3">P</text><text fill="rgb(21,101,192)" stroke="none" font-family="geogebra-sans-serif, sans-serif" font-size="24px" font-style="normal" font-weight="normal" text-decoration="normal" x="361" y="136" text-anchor="start" dominant-baseline="alphabetic" fill-opacity="1">P</text><path fill="rgb(211,47,47)" stroke="none" paint-order="stroke fill markers" d=" M 655.4000000000002 495.1 C 655.4000000000002 497.3091389993232 653.6091389993234 499.1 651.4000000000002 499.1 C 649.190861000677 499.1 647.4000000000002 497.3091389993232 647.4000000000002 495.1 C 647.4000000000002 492.89086100067686 649.190861000677 491.1 651.4000000000002 491.1 C 653.6091389993234 491.1 655.4000000000002 492.89086100067686 655.4000000000002 495.1 Z" fill-opacity="1"/><path fill="none" stroke="rgb(0,0,0)" paint-order="fill stroke markers" d=" M 655.4000000000002 495.1 C 655.4000000000002 497.3091389993232 653.6091389993234 499.1 651.4000000000002 499.1 C 649.190861000677 499.1 647.4000000000002 497.3091389993232 647.4000000000002 495.1 C 647.4000000000002 492.89086100067686 649.190861000677 491.1 651.4000000000002 491.1 C 653.6091389993234 491.1 655.4000000000002 492.89086100067686 655.4000000000002 495.1 Z" stroke-opacity="1" stroke-linecap="round" stroke-linejoin="round" stroke-miterlimit="10"/><text fill="rgb(211,47,47)" stroke="none" font-family="geogebra-sans-serif, sans-serif" font-size="24px" font-style="normal" font-weight="normal" text-decoration="normal" x="641" y="530" text-anchor="start" dominant-baseline="alphabetic" fill-opacity="1">O</text><text fill="none" stroke="rgb(255,255,255)" font-family="geogebra-sans-serif, sans-serif" font-size="24px" font-style="normal" font-weight="normal" text-decoration="normal" x="641" y="530" text-anchor="start" dominant-baseline="alphabetic" stroke-opacity="1" stroke-linejoin="bevel" stroke-miterlimit="10" stroke-width="3">O</text><text fill="rgb(211,47,47)" stroke="none" font-family="geogebra-sans-serif, sans-serif" font-size="24px" font-style="normal" font-weight="normal" text-decoration="normal" x="641" y="530" text-anchor="start" dominant-baseline="alphabetic" fill-opacity="1">O</text></g></g></svg>