<svg version="1.1" xmlns="http://www.w3.org/2000/svg" xmlns:xlink="http://www.w3.org/1999/xlink" width="1310" height="605"><defs><clipPath id="JTKNgePTNPgW"><path fill="none" stroke="none" d=" M 0 0 L 1310 0 L 1310 605 L 0 605 L 0 0 Z"/></clipPath></defs><g transform="scale(1,1)" clip-path="url(#JTKNgePTNPgW)"><g><rect fill="rgb(255,255,255)" stroke="none" x="0" y="0" width="1310" height="605" fill-opacity="1"/><path fill="none" stroke="rgb(97,97,97)" paint-order="fill stroke markers" d=" M 899.6844093235214 304.00000000000006 C 899.6844093235214 457.9131492849835 774.9131492849834 582.6844093235215 621 582.6844093235215 C 467.08685071501657 582.6844093235215 342.31559067647856 457.9131492849835 342.31559067647856 304.00000000000006 C 342.31559067647856 150.08685071501662 467.08685071501657 25.31559067647862 621 25.31559067647862 C 774.9131492849834 25.31559067647862 899.6844093235214 150.08685071501662 899.6844093235214 304.00000000000006 Z" stroke-opacity="0.8" stroke-linecap="round" stroke-linejoin="round" stroke-miterlimit="10" stroke-width="2.5"/><path fill="none" stroke="rgb(97,97,97)" paint-order="fill stroke markers" d=" M 342.31736798351534 304.99529511434463 L 899.6826320164846 303.0047048856555" stroke-opacity="0.8" stroke-linecap="round" stroke-linejoin="round" stroke-miterlimit="10" stroke-width="2.5"/><path fill="none" stroke="rgb(97,97,97)" paint-order="fill stroke markers" d=" M 462.4750800655403 74.79517945781956 L 342.31736798351534 304.99529511434463" stroke-opacity="0.8" stroke-linecap="round" stroke-linejoin="round" stroke-miterlimit="10" stroke-width="2.5"/><path fill="none" stroke="rgb(97,97,97)" paint-order="fill stroke markers" d=" M 462.4750800655403 74.79517945781956 L 899.6826320164846 303.0047048856555" stroke-opacity="0.8" stroke-linecap="round" stroke-linejoin="round" stroke-miterlimit="10" stroke-width="2.5"/><path fill="rgb(211,47,47)" stroke="none" paint-order="stroke fill markers" d=" M 626 304.00000000000006 C 626 306.761423749154 623.761423749154 309.00000000000006 621 309.00000000000006 C 618.238576250846 309.00000000000006 616 306.761423749154 616 304.00000000000006 C 616 301.2385762508461 618.238576250846 299.00000000000006 621 299.00000000000006 C 623.761423749154 299.00000000000006 626 301.2385762508461 626 304.00000000000006 Z" fill-opacity="1"/><path fill="none" stroke="rgb(0,0,0)" paint-order="fill stroke markers" d=" M 626 304.00000000000006 C 626 306.761423749154 623.761423749154 309.00000000000006 621 309.00000000000006 C 618.238576250846 309.00000000000006 616 306.761423749154 616 304.00000000000006 C 616 301.2385762508461 618.238576250846 299.00000000000006 621 299.00000000000006 C 623.761423749154 299.00000000000006 626 301.2385762508461 626 304.00000000000006 Z" stroke-opacity="1" stroke-linecap="round" stroke-linejoin="round" stroke-miterlimit="10"/><text fill="rgb(211,47,47)" stroke="none" font-family="geogebra-sans-serif, sans-serif" font-size="24px" font-style="normal" font-weight="normal" text-decoration="normal" x="620" y="341" text-anchor="start" dominant-baseline="alphabetic" fill-opacity="1">O</text><text fill="none" stroke="rgb(255,255,255)" font-family="geogebra-sans-serif, sans-serif" font-size="24px" font-style="normal" font-weight="normal" text-decoration="normal" x="620" y="341" text-anchor="start" dominant-baseline="alphabetic" stroke-opacity="1" stroke-linejoin="bevel" stroke-miterlimit="10" stroke-width="3">O</text><text fill="rgb(211,47,47)" stroke="none" font-family="geogebra-sans-serif, sans-serif" font-size="24px" font-style="normal" font-weight="normal" text-decoration="normal" x="620" y="341" text-anchor="start" dominant-baseline="alphabetic" fill-opacity="1">O</text><path fill="rgb(21,101,192)" stroke="none" paint-order="stroke fill markers" d=" M 347.31736798351534 304.99529511434463 C 347.31736798351534 307.7567188634986 345.0787917326693 309.99529511434463 342.31736798351534 309.99529511434463 C 339.5559442343614 309.99529511434463 337.31736798351534 307.7567188634986 337.31736798351534 304.99529511434463 C 337.31736798351534 302.2338713651907 339.5559442343614 299.99529511434463 342.31736798351534 299.99529511434463 C 345.0787917326693 299.99529511434463 347.31736798351534 302.2338713651907 347.31736798351534 304.99529511434463 Z" fill-opacity="1"/><path fill="none" stroke="rgb(0,0,0)" paint-order="fill stroke markers" d=" M 347.31736798351534 304.99529511434463 C 347.31736798351534 307.7567188634986 345.0787917326693 309.99529511434463 342.31736798351534 309.99529511434463 C 339.5559442343614 309.99529511434463 337.31736798351534 307.7567188634986 337.31736798351534 304.99529511434463 C 337.31736798351534 302.2338713651907 339.5559442343614 299.99529511434463 342.31736798351534 299.99529511434463 C 345.0787917326693 299.99529511434463 347.31736798351534 302.2338713651907 347.31736798351534 304.99529511434463 Z" stroke-opacity="1" stroke-linecap="round" stroke-linejoin="round" stroke-miterlimit="10"/><text fill="rgb(21,101,192)" stroke="none" font-family="geogebra-sans-serif, sans-serif" font-size="24px" font-style="normal" font-weight="normal" text-decoration="normal" x="299" y="315" text-anchor="start" dominant-baseline="alphabetic" fill-opacity="1">A</text><text fill="none" stroke="rgb(255,255,255)" font-family="geogebra-sans-serif, sans-serif" font-size="24px" font-style="normal" font-weight="normal" text-decoration="normal" x="299" y="315" text-anchor="start" dominant-baseline="alphabetic" stroke-opacity="1" stroke-linejoin="bevel" stroke-miterlimit="10" stroke-width="3">A</text><text fill="rgb(21,101,192)" stroke="none" font-family="geogebra-sans-serif, sans-serif" font-size="24px" font-style="normal" font-weight="normal" text-decoration="normal" x="299" y="315" text-anchor="start" dominant-baseline="alphabetic" fill-opacity="1">A</text><path fill="rgb(21,101,192)" stroke="none" paint-order="stroke fill markers" d=" M 903.6826320164846 303.0047048856555 C 903.6826320164846 305.21384388497864 901.8917710158078 307.0047048856555 899.6826320164846 307.0047048856555 C 897.4734930171614 307.0047048856555 895.6826320164846 305.21384388497864 895.6826320164846 303.0047048856555 C 895.6826320164846 300.7955658863323 897.4734930171614 299.0047048856555 899.6826320164846 299.0047048856555 C 901.8917710158078 299.0047048856555 903.6826320164846 300.7955658863323 903.6826320164846 303.0047048856555 Z" fill-opacity="1"/><path fill="none" stroke="rgb(0,0,0)" paint-order="fill stroke markers" d=" M 903.6826320164846 303.0047048856555 C 903.6826320164846 305.21384388497864 901.8917710158078 307.0047048856555 899.6826320164846 307.0047048856555 C 897.4734930171614 307.0047048856555 895.6826320164846 305.21384388497864 895.6826320164846 303.0047048856555 C 895.6826320164846 300.7955658863323 897.4734930171614 299.0047048856555 899.6826320164846 299.0047048856555 C 901.8917710158078 299.0047048856555 903.6826320164846 300.7955658863323 903.6826320164846 303.0047048856555 Z" stroke-opacity="1" stroke-linecap="round" stroke-linejoin="round" stroke-miterlimit="10"/><text fill="rgb(21,101,192)" stroke="none" font-family="geogebra-sans-serif, sans-serif" font-size="24px" font-style="normal" font-weight="normal" text-decoration="normal" x="919" y="312" text-anchor="start" dominant-baseline="alphabetic" fill-opacity="1">B</text><text fill="none" stroke="rgb(255,255,255)" font-family="geogebra-sans-serif, sans-serif" font-size="24px" font-style="normal" font-weight="normal" text-decoration="normal" x="919" y="312" text-anchor="start" dominant-baseline="alphabetic" stroke-opacity="1" stroke-linejoin="bevel" stroke-miterlimit="10" stroke-width="3">B</text><text fill="rgb(21,101,192)" stroke="none" font-family="geogebra-sans-serif, sans-serif" font-size="24px" font-style="normal" font-weight="normal" text-decoration="normal" x="919" y="312" text-anchor="start" dominant-baseline="alphabetic" fill-opacity="1">B</text><path fill="rgb(21,101,192)" stroke="none" paint-order="stroke fill markers" d=" M 467.4750800655403 74.79517945781956 C 467.4750800655403 77.55660320697352 465.23650381469423 79.79517945781956 462.4750800655403 79.79517945781956 C 459.71365631638633 79.79517945781956 457.4750800655403 77.55660320697352 457.4750800655403 74.79517945781956 C 457.4750800655403 72.0337557086656 459.71365631638633 69.79517945781956 462.4750800655403 69.79517945781956 C 465.23650381469423 69.79517945781956 467.4750800655403 72.0337557086656 467.4750800655403 74.79517945781956 Z" fill-opacity="1"/><path fill="none" stroke="rgb(0,0,0)" paint-order="fill stroke markers" d=" M 467.4750800655403 74.79517945781956 C 467.4750800655403 77.55660320697352 465.23650381469423 79.79517945781956 462.4750800655403 79.79517945781956 C 459.71365631638633 79.79517945781956 457.4750800655403 77.55660320697352 457.4750800655403 74.79517945781956 C 457.4750800655403 72.0337557086656 459.71365631638633 69.79517945781956 462.4750800655403 69.79517945781956 C 465.23650381469423 69.79517945781956 467.4750800655403 72.0337557086656 467.4750800655403 74.79517945781956 Z" stroke-opacity="1" stroke-linecap="round" stroke-linejoin="round" stroke-miterlimit="10"/><text fill="rgb(21,101,192)" stroke="none" font-family="geogebra-sans-serif, sans-serif" font-size="24px" font-style="normal" font-weight="normal" text-decoration="normal" x="437" y="58" text-anchor="start" dominant-baseline="alphabetic" fill-opacity="1">P</text><text fill="none" stroke="rgb(255,255,255)" font-family="geogebra-sans-serif, sans-serif" font-size="24px" font-style="normal" font-weight="normal" text-decoration="normal" x="437" y="58" text-anchor="start" dominant-baseline="alphabetic" stroke-opacity="1" stroke-linejoin="bevel" stroke-miterlimit="10" stroke-width="3">P</text><text fill="rgb(21,101,192)" stroke="none" font-family="geogebra-sans-serif, sans-serif" font-size="24px" font-style="normal" font-weight="normal" text-decoration="normal" x="437" y="58" text-anchor="start" dominant-baseline="alphabetic" fill-opacity="1">P</text></g></g></svg>