<svg version="1.1" xmlns="http://www.w3.org/2000/svg" xmlns:xlink="http://www.w3.org/1999/xlink" width="1310" height="704"><defs><clipPath id="cXsxexTPafvw"><path fill="none" stroke="none" d=" M 0 0 L 1310 0 L 1310 704 L 0 704 L 0 0 Z"/></clipPath></defs><g transform="scale(1,1)" clip-path="url(#cXsxexTPafvw)"><g><rect fill="rgb(255,255,255)" stroke="none" x="0" y="0" width="1310" height="704" fill-opacity="1"/><path fill="none" stroke="rgb(97,97,97)" paint-order="fill stroke markers" d=" M 940.3628502558735 370.43000000000006 C 940.3628502558735 539.7344642134816 803.1144642134818 676.9828502558732 633.8100000000003 676.9828502558732 C 464.50553578651875 676.9828502558732 327.2571497441271 539.7344642134816 327.2571497441271 370.43000000000006 C 327.2571497441271 201.1255357865185 464.50553578651875 63.87714974412688 633.8100000000003 63.87714974412688 C 803.1144642134818 63.87714974412688 940.3628502558735 201.1255357865185 940.3628502558735 370.43000000000006 Z" stroke-opacity="0.8" stroke-linecap="round" stroke-linejoin="round" stroke-miterlimit="10" stroke-width="2.5"/><path fill="none" stroke="rgb(97,97,97)" paint-order="fill stroke markers" d=" M 394.2181430318434 561.6638674883455 L 871.1653642092424 564.4327862714807" stroke-opacity="0.8" stroke-linecap="round" stroke-linejoin="round" stroke-miterlimit="10" stroke-width="2.5"/><path fill="none" stroke="rgb(97,97,97)" paint-order="fill stroke markers" d=" M 548.4376320552726 76.00478234446393 L 394.2181430318434 561.6638674883455" stroke-opacity="0.8" stroke-linecap="round" stroke-linejoin="round" stroke-miterlimit="10" stroke-width="2.5"/><path fill="none" stroke="rgb(97,97,97)" paint-order="fill stroke markers" d=" M 548.4376320552726 76.00478234446393 L 871.1653642092424 564.4327862714807" stroke-opacity="0.8" stroke-linecap="round" stroke-linejoin="round" stroke-miterlimit="10" stroke-width="2.5"/><path fill="rgb(211,47,47)" stroke="none" paint-order="stroke fill markers" d=" M 638.8100000000003 370.43000000000006 C 638.8100000000003 373.191423749154 636.5714237491543 375.43000000000006 633.8100000000003 375.43000000000006 C 631.0485762508463 375.43000000000006 628.8100000000003 373.191423749154 628.8100000000003 370.43000000000006 C 628.8100000000003 367.6685762508461 631.0485762508463 365.43000000000006 633.8100000000003 365.43000000000006 C 636.5714237491543 365.43000000000006 638.8100000000003 367.6685762508461 638.8100000000003 370.43000000000006 Z" fill-opacity="1"/><path fill="none" stroke="rgb(0,0,0)" paint-order="fill stroke markers" d=" M 638.8100000000003 370.43000000000006 C 638.8100000000003 373.191423749154 636.5714237491543 375.43000000000006 633.8100000000003 375.43000000000006 C 631.0485762508463 375.43000000000006 628.8100000000003 373.191423749154 628.8100000000003 370.43000000000006 C 628.8100000000003 367.6685762508461 631.0485762508463 365.43000000000006 633.8100000000003 365.43000000000006 C 636.5714237491543 365.43000000000006 638.8100000000003 367.6685762508461 638.8100000000003 370.43000000000006 Z" stroke-opacity="1" stroke-linecap="round" stroke-linejoin="round" stroke-miterlimit="10"/><text fill="rgb(211,47,47)" stroke="none" font-family="geogebra-sans-serif, sans-serif" font-size="24px" font-style="normal" font-weight="normal" text-decoration="normal" x="633" y="407" text-anchor="start" dominant-baseline="alphabetic" fill-opacity="1">O</text><text fill="none" stroke="rgb(255,255,255)" font-family="geogebra-sans-serif, sans-serif" font-size="24px" font-style="normal" font-weight="normal" text-decoration="normal" x="633" y="407" text-anchor="start" dominant-baseline="alphabetic" stroke-opacity="1" stroke-linejoin="bevel" stroke-miterlimit="10" stroke-width="3">O</text><text fill="rgb(211,47,47)" stroke="none" font-family="geogebra-sans-serif, sans-serif" font-size="24px" font-style="normal" font-weight="normal" text-decoration="normal" x="633" y="407" text-anchor="start" dominant-baseline="alphabetic" fill-opacity="1">O</text><path fill="rgb(21,101,192)" stroke="none" paint-order="stroke fill markers" d=" M 553.4376320552726 76.00478234446393 C 553.4376320552726 78.7662060936179 551.1990558044266 81.00478234446393 548.4376320552726 81.00478234446393 C 545.6762083061186 81.00478234446393 543.4376320552726 78.7662060936179 543.4376320552726 76.00478234446393 C 543.4376320552726 73.24335859530997 545.6762083061186 71.00478234446393 548.4376320552726 71.00478234446393 C 551.1990558044266 71.00478234446393 553.4376320552726 73.24335859530997 553.4376320552726 76.00478234446393 Z" fill-opacity="1"/><path fill="none" stroke="rgb(0,0,0)" paint-order="fill stroke markers" d=" M 553.4376320552726 76.00478234446393 C 553.4376320552726 78.7662060936179 551.1990558044266 81.00478234446393 548.4376320552726 81.00478234446393 C 545.6762083061186 81.00478234446393 543.4376320552726 78.7662060936179 543.4376320552726 76.00478234446393 C 543.4376320552726 73.24335859530997 545.6762083061186 71.00478234446393 548.4376320552726 71.00478234446393 C 551.1990558044266 71.00478234446393 553.4376320552726 73.24335859530997 553.4376320552726 76.00478234446393 Z" stroke-opacity="1" stroke-linecap="round" stroke-linejoin="round" stroke-miterlimit="10"/><text fill="rgb(21,101,192)" stroke="none" font-family="geogebra-sans-serif, sans-serif" font-size="24px" font-style="normal" font-weight="normal" text-decoration="normal" x="529" y="49" text-anchor="start" dominant-baseline="alphabetic" fill-opacity="1">P</text><text fill="none" stroke="rgb(255,255,255)" font-family="geogebra-sans-serif, sans-serif" font-size="24px" font-style="normal" font-weight="normal" text-decoration="normal" x="529" y="49" text-anchor="start" dominant-baseline="alphabetic" stroke-opacity="1" stroke-linejoin="bevel" stroke-miterlimit="10" stroke-width="3">P</text><text fill="rgb(21,101,192)" stroke="none" font-family="geogebra-sans-serif, sans-serif" font-size="24px" font-style="normal" font-weight="normal" text-decoration="normal" x="529" y="49" text-anchor="start" dominant-baseline="alphabetic" fill-opacity="1">P</text><path fill="rgb(21,101,192)" stroke="none" paint-order="stroke fill markers" d=" M 399.2181430318434 561.6638674883455 C 399.2181430318434 564.4252912374996 396.97956678099735 566.6638674883455 394.2181430318434 566.6638674883455 C 391.45671928268945 566.6638674883455 389.2181430318434 564.4252912374996 389.2181430318434 561.6638674883455 C 389.2181430318434 558.9024437391915 391.45671928268945 556.6638674883455 394.2181430318434 556.6638674883455 C 396.97956678099735 556.6638674883455 399.2181430318434 558.9024437391915 399.2181430318434 561.6638674883455 Z" fill-opacity="1"/><path fill="none" stroke="rgb(0,0,0)" paint-order="fill stroke markers" d=" M 399.2181430318434 561.6638674883455 C 399.2181430318434 564.4252912374996 396.97956678099735 566.6638674883455 394.2181430318434 566.6638674883455 C 391.45671928268945 566.6638674883455 389.2181430318434 564.4252912374996 389.2181430318434 561.6638674883455 C 389.2181430318434 558.9024437391915 391.45671928268945 556.6638674883455 394.2181430318434 556.6638674883455 C 396.97956678099735 556.6638674883455 399.2181430318434 558.9024437391915 399.2181430318434 561.6638674883455 Z" stroke-opacity="1" stroke-linecap="round" stroke-linejoin="round" stroke-miterlimit="10"/><text fill="rgb(21,101,192)" stroke="none" font-family="geogebra-sans-serif, sans-serif" font-size="24px" font-style="normal" font-weight="normal" text-decoration="normal" x="354" y="596" text-anchor="start" dominant-baseline="alphabetic" fill-opacity="1">A</text><text fill="none" stroke="rgb(255,255,255)" font-family="geogebra-sans-serif, sans-serif" font-size="24px" font-style="normal" font-weight="normal" text-decoration="normal" x="354" y="596" text-anchor="start" dominant-baseline="alphabetic" stroke-opacity="1" stroke-linejoin="bevel" stroke-miterlimit="10" stroke-width="3">A</text><text fill="rgb(21,101,192)" stroke="none" font-family="geogebra-sans-serif, sans-serif" font-size="24px" font-style="normal" font-weight="normal" text-decoration="normal" x="354" y="596" text-anchor="start" dominant-baseline="alphabetic" fill-opacity="1">A</text><path fill="rgb(21,101,192)" stroke="none" paint-order="stroke fill markers" d=" M 876.1653642092424 564.4327862714807 C 876.1653642092424 567.1942100206347 873.9267879583964 569.4327862714807 871.1653642092424 569.4327862714807 C 868.4039404600884 569.4327862714807 866.1653642092424 567.1942100206347 866.1653642092424 564.4327862714807 C 866.1653642092424 561.6713625223267 868.4039404600884 559.4327862714807 871.1653642092424 559.4327862714807 C 873.9267879583964 559.4327862714807 876.1653642092424 561.6713625223267 876.1653642092424 564.4327862714807 Z" fill-opacity="1"/><path fill="none" stroke="rgb(0,0,0)" paint-order="fill stroke markers" d=" M 876.1653642092424 564.4327862714807 C 876.1653642092424 567.1942100206347 873.9267879583964 569.4327862714807 871.1653642092424 569.4327862714807 C 868.4039404600884 569.4327862714807 866.1653642092424 567.1942100206347 866.1653642092424 564.4327862714807 C 866.1653642092424 561.6713625223267 868.4039404600884 559.4327862714807 871.1653642092424 559.4327862714807 C 873.9267879583964 559.4327862714807 876.1653642092424 561.6713625223267 876.1653642092424 564.4327862714807 Z" stroke-opacity="1" stroke-linecap="round" stroke-linejoin="round" stroke-miterlimit="10"/><text fill="rgb(21,101,192)" stroke="none" font-family="geogebra-sans-serif, sans-serif" font-size="24px" font-style="normal" font-weight="normal" text-decoration="normal" x="886" y="597" text-anchor="start" dominant-baseline="alphabetic" fill-opacity="1">B</text><text fill="none" stroke="rgb(255,255,255)" font-family="geogebra-sans-serif, sans-serif" font-size="24px" font-style="normal" font-weight="normal" text-decoration="normal" x="886" y="597" text-anchor="start" dominant-baseline="alphabetic" stroke-opacity="1" stroke-linejoin="bevel" stroke-miterlimit="10" stroke-width="3">B</text><text fill="rgb(21,101,192)" stroke="none" font-family="geogebra-sans-serif, sans-serif" font-size="24px" font-style="normal" font-weight="normal" text-decoration="normal" x="886" y="597" text-anchor="start" dominant-baseline="alphabetic" fill-opacity="1">B</text></g></g></svg>