<svg version="1.1" xmlns="http://www.w3.org/2000/svg" xmlns:xlink="http://www.w3.org/1999/xlink" width="1310" height="704"><defs><clipPath id="xWvDcRqwiBTd"><path fill="none" stroke="none" d=" M 0 0 L 1310 0 L 1310 704 L 0 704 L 0 0 Z"/></clipPath></defs><g transform="scale(1,1)" clip-path="url(#xWvDcRqwiBTd)"><g><rect fill="rgb(255,255,255)" stroke="none" x="0" y="0" width="1310" height="704" fill-opacity="1"/><path fill="none" stroke="rgb(97,97,97)" paint-order="fill stroke markers" d=" M 940.3628502558736 370.43000000000023 C 940.3628502558736 539.7344642134819 803.1144642134818 676.9828502558736 633.8100000000002 676.9828502558736 C 464.5055357865185 676.9828502558736 327.2571497441268 539.7344642134819 327.2571497441268 370.43000000000023 C 327.2571497441268 201.12553578651855 464.5055357865185 63.87714974412688 633.8100000000002 63.87714974412688 C 803.1144642134818 63.87714974412688 940.3628502558736 201.12553578651855 940.3628502558736 370.43000000000023 Z" stroke-opacity="0.8" stroke-linecap="round" stroke-linejoin="round" stroke-miterlimit="10" stroke-width="2.5"/><path fill="none" stroke="rgb(97,97,97)" paint-order="fill stroke markers" d=" M 394.2181430318431 561.6638674883458 L 871.1653642092424 564.4327862714811" stroke-opacity="0.8" stroke-linecap="round" stroke-linejoin="round" stroke-miterlimit="10" stroke-width="2.5"/><path fill="none" stroke="rgb(97,97,97)" paint-order="fill stroke markers" d=" M 548.4376320552724 76.00478234446393 L 394.2181430318431 561.6638674883458" stroke-opacity="0.8" stroke-linecap="round" stroke-linejoin="round" stroke-miterlimit="10" stroke-width="2.5"/><path fill="none" stroke="rgb(97,97,97)" paint-order="fill stroke markers" d=" M 548.4376320552724 76.00478234446393 L 871.1653642092424 564.4327862714811" stroke-opacity="0.8" stroke-linecap="round" stroke-linejoin="round" stroke-miterlimit="10" stroke-width="2.5"/><path fill="none" stroke="rgb(97,97,97)" paint-order="fill stroke markers" d=" M 633.8100000000002 370.43000000000023 L 548.4376320552724 76.00478234446393" stroke-opacity="0.8" stroke-linecap="round" stroke-linejoin="round" stroke-miterlimit="10" stroke-width="2.5"/><path fill="none" stroke="rgb(97,97,97)" paint-order="fill stroke markers" d=" M 633.8100000000002 370.43000000000023 L 871.1653642092424 564.4327862714811" stroke-opacity="0.8" stroke-linecap="round" stroke-linejoin="round" stroke-miterlimit="10" stroke-width="2.5"/><path fill="none" stroke="rgb(97,97,97)" paint-order="fill stroke markers" d=" M 633.8100000000002 370.43000000000023 L 394.2181430318431 561.6638674883458" stroke-opacity="0.8" stroke-linecap="round" stroke-linejoin="round" stroke-miterlimit="10" stroke-width="2.5"/><path fill="rgb(211,47,47)" stroke="none" paint-order="stroke fill markers" d=" M 638.8100000000002 370.43000000000023 C 638.8100000000002 373.1914237491542 636.5714237491542 375.43000000000023 633.8100000000002 375.43000000000023 C 631.0485762508462 375.43000000000023 628.8100000000002 373.1914237491542 628.8100000000002 370.43000000000023 C 628.8100000000002 367.6685762508463 631.0485762508462 365.43000000000023 633.8100000000002 365.43000000000023 C 636.5714237491542 365.43000000000023 638.8100000000002 367.6685762508463 638.8100000000002 370.43000000000023 Z" fill-opacity="1"/><path fill="none" stroke="rgb(0,0,0)" paint-order="fill stroke markers" d=" M 638.8100000000002 370.43000000000023 C 638.8100000000002 373.1914237491542 636.5714237491542 375.43000000000023 633.8100000000002 375.43000000000023 C 631.0485762508462 375.43000000000023 628.8100000000002 373.1914237491542 628.8100000000002 370.43000000000023 C 628.8100000000002 367.6685762508463 631.0485762508462 365.43000000000023 633.8100000000002 365.43000000000023 C 636.5714237491542 365.43000000000023 638.8100000000002 367.6685762508463 638.8100000000002 370.43000000000023 Z" stroke-opacity="1" stroke-linecap="round" stroke-linejoin="round" stroke-miterlimit="10"/><text fill="rgb(211,47,47)" stroke="none" font-family="geogebra-sans-serif, sans-serif" font-size="24px" font-style="normal" font-weight="normal" text-decoration="normal" x="633" y="407" text-anchor="start" dominant-baseline="alphabetic" fill-opacity="1">O</text><text fill="none" stroke="rgb(255,255,255)" font-family="geogebra-sans-serif, sans-serif" font-size="24px" font-style="normal" font-weight="normal" text-decoration="normal" x="633" y="407" text-anchor="start" dominant-baseline="alphabetic" stroke-opacity="1" stroke-linejoin="bevel" stroke-miterlimit="10" stroke-width="3">O</text><text fill="rgb(211,47,47)" stroke="none" font-family="geogebra-sans-serif, sans-serif" font-size="24px" font-style="normal" font-weight="normal" text-decoration="normal" x="633" y="407" text-anchor="start" dominant-baseline="alphabetic" fill-opacity="1">O</text><path fill="rgb(21,101,192)" stroke="none" paint-order="stroke fill markers" d=" M 553.4376320552724 76.00478234446393 C 553.4376320552724 78.7662060936179 551.1990558044264 81.00478234446393 548.4376320552724 81.00478234446393 C 545.6762083061184 81.00478234446393 543.4376320552724 78.7662060936179 543.4376320552724 76.00478234446393 C 543.4376320552724 73.24335859530997 545.6762083061184 71.00478234446393 548.4376320552724 71.00478234446393 C 551.1990558044264 71.00478234446393 553.4376320552724 73.24335859530997 553.4376320552724 76.00478234446393 Z" fill-opacity="1"/><path fill="none" stroke="rgb(0,0,0)" paint-order="fill stroke markers" d=" M 553.4376320552724 76.00478234446393 C 553.4376320552724 78.7662060936179 551.1990558044264 81.00478234446393 548.4376320552724 81.00478234446393 C 545.6762083061184 81.00478234446393 543.4376320552724 78.7662060936179 543.4376320552724 76.00478234446393 C 543.4376320552724 73.24335859530997 545.6762083061184 71.00478234446393 548.4376320552724 71.00478234446393 C 551.1990558044264 71.00478234446393 553.4376320552724 73.24335859530997 553.4376320552724 76.00478234446393 Z" stroke-opacity="1" stroke-linecap="round" stroke-linejoin="round" stroke-miterlimit="10"/><text fill="rgb(21,101,192)" stroke="none" font-family="geogebra-sans-serif, sans-serif" font-size="24px" font-style="normal" font-weight="normal" text-decoration="normal" x="529" y="49" text-anchor="start" dominant-baseline="alphabetic" fill-opacity="1">P</text><text fill="none" stroke="rgb(255,255,255)" font-family="geogebra-sans-serif, sans-serif" font-size="24px" font-style="normal" font-weight="normal" text-decoration="normal" x="529" y="49" text-anchor="start" dominant-baseline="alphabetic" stroke-opacity="1" stroke-linejoin="bevel" stroke-miterlimit="10" stroke-width="3">P</text><text fill="rgb(21,101,192)" stroke="none" font-family="geogebra-sans-serif, sans-serif" font-size="24px" font-style="normal" font-weight="normal" text-decoration="normal" x="529" y="49" text-anchor="start" dominant-baseline="alphabetic" fill-opacity="1">P</text><path fill="rgb(21,101,192)" stroke="none" paint-order="stroke fill markers" d=" M 399.2181430318431 561.6638674883458 C 399.2181430318431 564.4252912374998 396.97956678099706 566.6638674883458 394.2181430318431 566.6638674883458 C 391.45671928268916 566.6638674883458 389.2181430318431 564.4252912374998 389.2181430318431 561.6638674883458 C 389.2181430318431 558.9024437391918 391.45671928268916 556.6638674883458 394.2181430318431 556.6638674883458 C 396.97956678099706 556.6638674883458 399.2181430318431 558.9024437391918 399.2181430318431 561.6638674883458 Z" fill-opacity="1"/><path fill="none" stroke="rgb(0,0,0)" paint-order="fill stroke markers" d=" M 399.2181430318431 561.6638674883458 C 399.2181430318431 564.4252912374998 396.97956678099706 566.6638674883458 394.2181430318431 566.6638674883458 C 391.45671928268916 566.6638674883458 389.2181430318431 564.4252912374998 389.2181430318431 561.6638674883458 C 389.2181430318431 558.9024437391918 391.45671928268916 556.6638674883458 394.2181430318431 556.6638674883458 C 396.97956678099706 556.6638674883458 399.2181430318431 558.9024437391918 399.2181430318431 561.6638674883458 Z" stroke-opacity="1" stroke-linecap="round" stroke-linejoin="round" stroke-miterlimit="10"/><text fill="rgb(21,101,192)" stroke="none" font-family="geogebra-sans-serif, sans-serif" font-size="24px" font-style="normal" font-weight="normal" text-decoration="normal" x="354" y="596" text-anchor="start" dominant-baseline="alphabetic" fill-opacity="1">A</text><text fill="none" stroke="rgb(255,255,255)" font-family="geogebra-sans-serif, sans-serif" font-size="24px" font-style="normal" font-weight="normal" text-decoration="normal" x="354" y="596" text-anchor="start" dominant-baseline="alphabetic" stroke-opacity="1" stroke-linejoin="bevel" stroke-miterlimit="10" stroke-width="3">A</text><text fill="rgb(21,101,192)" stroke="none" font-family="geogebra-sans-serif, sans-serif" font-size="24px" font-style="normal" font-weight="normal" text-decoration="normal" x="354" y="596" text-anchor="start" dominant-baseline="alphabetic" fill-opacity="1">A</text><path fill="rgb(21,101,192)" stroke="none" paint-order="stroke fill markers" d=" M 876.1653642092424 564.4327862714811 C 876.1653642092424 567.1942100206351 873.9267879583964 569.4327862714811 871.1653642092424 569.4327862714811 C 868.4039404600884 569.4327862714811 866.1653642092424 567.1942100206351 866.1653642092424 564.4327862714811 C 866.1653642092424 561.6713625223271 868.4039404600884 559.4327862714811 871.1653642092424 559.4327862714811 C 873.9267879583964 559.4327862714811 876.1653642092424 561.6713625223271 876.1653642092424 564.4327862714811 Z" fill-opacity="1"/><path fill="none" stroke="rgb(0,0,0)" paint-order="fill stroke markers" d=" M 876.1653642092424 564.4327862714811 C 876.1653642092424 567.1942100206351 873.9267879583964 569.4327862714811 871.1653642092424 569.4327862714811 C 868.4039404600884 569.4327862714811 866.1653642092424 567.1942100206351 866.1653642092424 564.4327862714811 C 866.1653642092424 561.6713625223271 868.4039404600884 559.4327862714811 871.1653642092424 559.4327862714811 C 873.9267879583964 559.4327862714811 876.1653642092424 561.6713625223271 876.1653642092424 564.4327862714811 Z" stroke-opacity="1" stroke-linecap="round" stroke-linejoin="round" stroke-miterlimit="10"/><text fill="rgb(21,101,192)" stroke="none" font-family="geogebra-sans-serif, sans-serif" font-size="24px" font-style="normal" font-weight="normal" text-decoration="normal" x="886" y="597" text-anchor="start" dominant-baseline="alphabetic" fill-opacity="1">B</text><text fill="none" stroke="rgb(255,255,255)" font-family="geogebra-sans-serif, sans-serif" font-size="24px" font-style="normal" font-weight="normal" text-decoration="normal" x="886" y="597" text-anchor="start" dominant-baseline="alphabetic" stroke-opacity="1" stroke-linejoin="bevel" stroke-miterlimit="10" stroke-width="3">B</text><text fill="rgb(21,101,192)" stroke="none" font-family="geogebra-sans-serif, sans-serif" font-size="24px" font-style="normal" font-weight="normal" text-decoration="normal" x="886" y="597" text-anchor="start" dominant-baseline="alphabetic" fill-opacity="1">B</text></g></g></svg>