<svg version="1.1" xmlns="http://www.w3.org/2000/svg" xmlns:xlink="http://www.w3.org/1999/xlink" width="1310" height="704"><defs><clipPath id="JQJHiVGSAMfQ"><path fill="none" stroke="none" d=" M 0 0 L 1310 0 L 1310 704 L 0 704 L 0 0 Z"/></clipPath></defs><g transform="scale(1,1)" clip-path="url(#JQJHiVGSAMfQ)"><g><rect fill="rgb(255,255,255)" stroke="none" x="0" y="0" width="1310" height="704" fill-opacity="1"/><path fill="none" stroke="rgb(97,97,97)" paint-order="fill stroke markers" d=" M 956.3628502558731 370.4300000000001 C 956.3628502558731 539.7344642134815 819.1144642134815 676.9828502558731 649.8100000000001 676.9828502558731 C 480.5055357865186 676.9828502558731 343.25714974412705 539.7344642134815 343.25714974412705 370.4300000000001 C 343.25714974412705 201.12553578651864 480.5055357865186 63.87714974412711 649.8100000000001 63.87714974412711 C 819.1144642134815 63.87714974412711 956.3628502558731 201.12553578651864 956.3628502558731 370.4300000000001 Z" stroke-opacity="0.8" stroke-linecap="round" stroke-linejoin="round" stroke-miterlimit="10" stroke-width="2.5"/><path fill="rgb(0,0,0)" stroke="none" paint-order="stroke fill markers" d=" M 555.3580116741847 104.59779711617608 C 561.0195127179513 106.39558866334062 567.087286949493 106.47220720212414 572.7923775296794 104.81794301902181 L 564.4376320552724 76.00478234446416 Z" fill-opacity="0.09803921568627451"/><path fill="none" stroke="rgb(0,0,0)" paint-order="fill stroke markers" d=" M 555.3580116741847 104.59779711617608 C 561.0195127179513 106.39558866334062 567.087286949493 106.47220720212414 572.7923775296794 104.81794301902181 L 564.4376320552724 76.00478234446416 Z" stroke-opacity="0.6" stroke-linecap="round" stroke-linejoin="round" stroke-miterlimit="10" stroke-width="2"/><g transform="scale(27,27)"><g transform="translate(20.25925925925926,5.284833592592593)"><path fill="rgb(0,0,0)" stroke="none" paint-order="stroke fill markers" d=" M 0.654 -0.653 L 0.12 -0.04 L 0.63 -0.04 Q 0.661 -0.04 0.664 -0.026000000000000002 Q 0.665 -0.023 0.665 -0.02 Q 0.659 0 0.63 0 L 0.092 0 Q 0.06 0 0.057 -0.014 Q 0.056 -0.017 0.056 -0.02 Q 0.056 -0.028 0.068 -0.041 L 0.623 -0.68 Q 0.636 -0.6940000000000001 0.645 -0.6940000000000001 Q 0.661 -0.6940000000000001 0.664 -0.679 Q 0.665 -0.676 0.665 -0.674 Q 0.665 -0.665 0.654 -0.653 Z"/></g><g transform="translate(20.98148325925926,5.284833592592593)"><path fill="rgb(0,0,0)" stroke="none" paint-order="stroke fill markers" d=" M 0.294 -0.64 L 0.294 -0.079 Q 0.294 -0.049 0.306 -0.041 Q 0.323 -0.031 0.387 -0.031 L 0.419 -0.031 L 0.419 0 Q 0.384 -0.003 0.257 -0.003 Q 0.13 -0.003 0.095 0 L 0.095 -0.031 L 0.127 -0.031 Q 0.20400000000000001 -0.031 0.215 -0.049 L 0.216 -0.05 Q 0.22 -0.058 0.22 -0.079 L 0.22 -0.597 Q 0.168 -0.5710000000000001 0.089 -0.5710000000000001 L 0.089 -0.602 Q 0.209 -0.602 0.271 -0.666 Q 0.29 -0.666 0.293 -0.659 L 0.293 -0.659 L 0.293 -0.658 Q 0.294 -0.655 0.294 -0.64 Z"/></g></g><path fill="rgb(0,0,0)" stroke="none" paint-order="stroke fill markers" d=" M 433.6651790096372 542.9492607904733 C 429.9596318261863 538.3066786870694 424.95926445669767 534.868644263798 419.297763412931 533.0708527166336 L 410.21814303184334 561.6638674883455 Z" fill-opacity="0.09803921568627451"/><path fill="none" stroke="rgb(0,0,0)" paint-order="fill stroke markers" d=" M 433.6651790096372 542.9492607904733 C 429.9596318261863 538.3066786870694 424.95926445669767 534.868644263798 419.297763412931 533.0708527166336 L 410.21814303184334 561.6638674883455 Z" stroke-opacity="0.6" stroke-linecap="round" stroke-linejoin="round" stroke-miterlimit="10" stroke-width="2"/><g transform="scale(27,27)"><g transform="translate(16.037037037037038,19.06261137037037)"><path fill="rgb(0,0,0)" stroke="none" paint-order="stroke fill markers" d=" M 0.654 -0.653 L 0.12 -0.04 L 0.63 -0.04 Q 0.661 -0.04 0.664 -0.026000000000000002 Q 0.665 -0.023 0.665 -0.02 Q 0.659 0 0.63 0 L 0.092 0 Q 0.06 0 0.057 -0.014 Q 0.056 -0.017 0.056 -0.02 Q 0.056 -0.028 0.068 -0.041 L 0.623 -0.68 Q 0.636 -0.6940000000000001 0.645 -0.6940000000000001 Q 0.661 -0.6940000000000001 0.664 -0.679 Q 0.665 -0.676 0.665 -0.674 Q 0.665 -0.665 0.654 -0.653 Z"/></g><g transform="translate(16.75926103703704,19.06261137037037)"><path fill="rgb(0,0,0)" stroke="none" paint-order="stroke fill markers" d=" M 0.294 -0.64 L 0.294 -0.079 Q 0.294 -0.049 0.306 -0.041 Q 0.323 -0.031 0.387 -0.031 L 0.419 -0.031 L 0.419 0 Q 0.384 -0.003 0.257 -0.003 Q 0.13 -0.003 0.095 0 L 0.095 -0.031 L 0.127 -0.031 Q 0.20400000000000001 -0.031 0.215 -0.049 L 0.216 -0.05 Q 0.22 -0.058 0.22 -0.079 L 0.22 -0.597 Q 0.168 -0.5710000000000001 0.089 -0.5710000000000001 L 0.089 -0.602 Q 0.209 -0.602 0.271 -0.666 Q 0.29 -0.666 0.293 -0.659 L 0.293 -0.659 L 0.293 -0.658 Q 0.294 -0.655 0.294 -0.64 Z"/></g></g><path fill="rgb(0,0,0)" stroke="none" paint-order="stroke fill markers" d=" M 582.5395805831542 138.43329713933906 C 588.829125523522 136.60956291871196 594.8069616705135 133.84584216173607 600.2706197366401 130.23574207990438 L 564.4376320552724 76.00478234446416 Z" fill-opacity="0.09803921568627451"/><path fill="none" stroke="rgb(0,0,0)" paint-order="fill stroke markers" d=" M 582.5395805831542 138.43329713933906 C 588.829125523522 136.60956291871196 594.8069616705135 133.84584216173607 600.2706197366401 130.23574207990438 L 564.4376320552724 76.00478234446416 Z" stroke-opacity="0.5490196078431373" stroke-linecap="round" stroke-linejoin="round" stroke-miterlimit="10" stroke-width="2"/><g transform="scale(27,27)"><g transform="translate(22.11111111111111,6.803352111111111)"><path fill="rgb(0,0,0)" stroke="none" paint-order="stroke fill markers" d=" M 0.654 -0.653 L 0.12 -0.04 L 0.63 -0.04 Q 0.661 -0.04 0.664 -0.026000000000000002 Q 0.665 -0.023 0.665 -0.02 Q 0.659 0 0.63 0 L 0.092 0 Q 0.06 0 0.057 -0.014 Q 0.056 -0.017 0.056 -0.02 Q 0.056 -0.028 0.068 -0.041 L 0.623 -0.68 Q 0.636 -0.6940000000000001 0.645 -0.6940000000000001 Q 0.661 -0.6940000000000001 0.664 -0.679 Q 0.665 -0.676 0.665 -0.674 Q 0.665 -0.665 0.654 -0.653 Z"/></g><g transform="translate(22.83333511111111,6.803352111111111)"><path fill="rgb(0,0,0)" stroke="none" paint-order="stroke fill markers" d=" M 0.449 -0.17400000000000002 L 0.449 -0.17400000000000002 L 0.421 0 L 0.05 0 Q 0.05 -0.025 0.056 -0.032 L 0.061 -0.037 L 0.253 -0.251 Q 0.358 -0.369 0.358 -0.47200000000000003 Q 0.358 -0.561 0.304 -0.607 L 0.303 -0.608 L 0.302 -0.608 Q 0.27 -0.635 0.224 -0.635 Q 0.152 -0.635 0.109 -0.5730000000000001 Q 0.097 -0.555 0.089 -0.533 Q 0.092 -0.534 0.10200000000000001 -0.534 Q 0.14200000000000002 -0.534 0.153 -0.498 L 0.153 -0.497 Q 0.155 -0.49 0.155 -0.482 Q 0.155 -0.442 0.117 -0.431 Q 0.109 -0.429 0.10300000000000001 -0.429 Q 0.066 -0.429 0.054 -0.46 Q 0.05 -0.47100000000000003 0.05 -0.485 Q 0.05 -0.562 0.109 -0.617 Q 0.162 -0.666 0.23700000000000002 -0.666 Q 0.34700000000000003 -0.666 0.40800000000000003 -0.592 Q 0.443 -0.549 0.448 -0.49 Q 0.449 -0.481 0.449 -0.47200000000000003 Q 0.449 -0.399 0.394 -0.333 Q 0.365 -0.299 0.304 -0.243 L 0.243 -0.189 L 0.233 -0.18 L 0.127 -0.077 L 0.307 -0.077 Q 0.395 -0.077 0.402 -0.085 Q 0.41200000000000003 -0.099 0.424 -0.17400000000000002 L 0.449 -0.17400000000000002 Z"/></g></g><path fill="rgb(0,0,0)" stroke="none" paint-order="stroke fill markers" d=" M 859.6015275312668 522.7166633980652 C 855.3987136342463 525.4936634610126 851.6396822834577 528.8898362291644 848.4517518564085 532.7901533438223 L 887.1653642092421 564.4327862714807 Z" fill-opacity="0.09803921568627451"/><path fill="none" stroke="rgb(0,0,0)" paint-order="fill stroke markers" d=" M 859.6015275312668 522.7166633980652 C 855.3987136342463 525.4936634610126 851.6396822834577 528.8898362291644 848.4517518564085 532.7901533438223 L 887.1653642092421 564.4327862714807 Z" stroke-opacity="0.6" stroke-linecap="round" stroke-linejoin="round" stroke-miterlimit="10" stroke-width="2"/><g transform="scale(27,27)"><g transform="translate(29.814814814814813,18.507055814814812)"><path fill="rgb(0,0,0)" stroke="none" paint-order="stroke fill markers" d=" M 0.654 -0.653 L 0.12 -0.04 L 0.63 -0.04 Q 0.661 -0.04 0.664 -0.026000000000000002 Q 0.665 -0.023 0.665 -0.02 Q 0.659 0 0.63 0 L 0.092 0 Q 0.06 0 0.057 -0.014 Q 0.056 -0.017 0.056 -0.02 Q 0.056 -0.028 0.068 -0.041 L 0.623 -0.68 Q 0.636 -0.6940000000000001 0.645 -0.6940000000000001 Q 0.661 -0.6940000000000001 0.664 -0.679 Q 0.665 -0.676 0.665 -0.674 Q 0.665 -0.665 0.654 -0.653 Z"/></g><g transform="translate(30.537038814814814,18.507055814814812)"><path fill="rgb(0,0,0)" stroke="none" paint-order="stroke fill markers" d=" M 0.449 -0.17400000000000002 L 0.449 -0.17400000000000002 L 0.421 0 L 0.05 0 Q 0.05 -0.025 0.056 -0.032 L 0.061 -0.037 L 0.253 -0.251 Q 0.358 -0.369 0.358 -0.47200000000000003 Q 0.358 -0.561 0.304 -0.607 L 0.303 -0.608 L 0.302 -0.608 Q 0.27 -0.635 0.224 -0.635 Q 0.152 -0.635 0.109 -0.5730000000000001 Q 0.097 -0.555 0.089 -0.533 Q 0.092 -0.534 0.10200000000000001 -0.534 Q 0.14200000000000002 -0.534 0.153 -0.498 L 0.153 -0.497 Q 0.155 -0.49 0.155 -0.482 Q 0.155 -0.442 0.117 -0.431 Q 0.109 -0.429 0.10300000000000001 -0.429 Q 0.066 -0.429 0.054 -0.46 Q 0.05 -0.47100000000000003 0.05 -0.485 Q 0.05 -0.562 0.109 -0.617 Q 0.162 -0.666 0.23700000000000002 -0.666 Q 0.34700000000000003 -0.666 0.40800000000000003 -0.592 Q 0.443 -0.549 0.448 -0.49 Q 0.449 -0.481 0.449 -0.47200000000000003 Q 0.449 -0.399 0.394 -0.333 Q 0.365 -0.299 0.304 -0.243 L 0.243 -0.189 L 0.233 -0.18 L 0.127 -0.077 L 0.307 -0.077 Q 0.395 -0.077 0.402 -0.085 Q 0.41200000000000003 -0.099 0.424 -0.17400000000000002 L 0.449 -0.17400000000000002 Z"/></g></g><path fill="none" stroke="rgb(97,97,97)" paint-order="fill stroke markers" d=" M 410.21814303184334 561.6638674883455 L 887.1653642092421 564.4327862714807" stroke-opacity="0.8" stroke-linecap="round" stroke-linejoin="round" stroke-miterlimit="10" stroke-width="2.5"/><path fill="none" stroke="rgb(97,97,97)" paint-order="fill stroke markers" d=" M 564.4376320552724 76.00478234446416 L 410.21814303184334 561.6638674883455" stroke-opacity="0.8" stroke-linecap="round" stroke-linejoin="round" stroke-miterlimit="10" stroke-width="2.5"/><path fill="none" stroke="rgb(97,97,97)" paint-order="fill stroke markers" d=" M 564.4376320552724 76.00478234446416 L 887.1653642092421 564.4327862714807" stroke-opacity="0.8" stroke-linecap="round" stroke-linejoin="round" stroke-miterlimit="10" stroke-width="2.5"/><path fill="none" stroke="rgb(97,97,97)" paint-order="fill stroke markers" d=" M 649.8100000000001 370.4300000000001 L 564.4376320552724 76.00478234446416" stroke-opacity="0.8" stroke-linecap="round" stroke-linejoin="round" stroke-miterlimit="10" stroke-width="2.5"/><path fill="none" stroke="rgb(97,97,97)" paint-order="fill stroke markers" d=" M 649.8100000000001 370.4300000000001 L 887.1653642092421 564.4327862714807" stroke-opacity="0.8" stroke-linecap="round" stroke-linejoin="round" stroke-miterlimit="10" stroke-width="2.5"/><path fill="none" stroke="rgb(97,97,97)" paint-order="fill stroke markers" d=" M 649.8100000000001 370.4300000000001 L 410.21814303184334 561.6638674883455" stroke-opacity="0.8" stroke-linecap="round" stroke-linejoin="round" stroke-miterlimit="10" stroke-width="2.5"/><path fill="rgb(211,47,47)" stroke="none" paint-order="stroke fill markers" d=" M 654.8100000000001 370.4300000000001 C 654.8100000000001 373.19142374915407 652.5714237491541 375.4300000000001 649.8100000000001 375.4300000000001 C 647.048576250846 375.4300000000001 644.8100000000001 373.19142374915407 644.8100000000001 370.4300000000001 C 644.8100000000001 367.6685762508462 647.048576250846 365.4300000000001 649.8100000000001 365.4300000000001 C 652.5714237491541 365.4300000000001 654.8100000000001 367.6685762508462 654.8100000000001 370.4300000000001 Z" fill-opacity="1"/><path fill="none" stroke="rgb(0,0,0)" paint-order="fill stroke markers" d=" M 654.8100000000001 370.4300000000001 C 654.8100000000001 373.19142374915407 652.5714237491541 375.4300000000001 649.8100000000001 375.4300000000001 C 647.048576250846 375.4300000000001 644.8100000000001 373.19142374915407 644.8100000000001 370.4300000000001 C 644.8100000000001 367.6685762508462 647.048576250846 365.4300000000001 649.8100000000001 365.4300000000001 C 652.5714237491541 365.4300000000001 654.8100000000001 367.6685762508462 654.8100000000001 370.4300000000001 Z" stroke-opacity="1" stroke-linecap="round" stroke-linejoin="round" stroke-miterlimit="10"/><text fill="rgb(211,47,47)" stroke="none" font-family="geogebra-sans-serif, sans-serif" font-size="24px" font-style="normal" font-weight="normal" text-decoration="normal" x="649" y="407" text-anchor="start" dominant-baseline="alphabetic" fill-opacity="1">O</text><text fill="none" stroke="rgb(255,255,255)" font-family="geogebra-sans-serif, sans-serif" font-size="24px" font-style="normal" font-weight="normal" text-decoration="normal" x="649" y="407" text-anchor="start" dominant-baseline="alphabetic" stroke-opacity="1" stroke-linejoin="bevel" stroke-miterlimit="10" stroke-width="3">O</text><text fill="rgb(211,47,47)" stroke="none" font-family="geogebra-sans-serif, sans-serif" font-size="24px" font-style="normal" font-weight="normal" text-decoration="normal" x="649" y="407" text-anchor="start" dominant-baseline="alphabetic" fill-opacity="1">O</text><path fill="rgb(21,101,192)" stroke="none" paint-order="stroke fill markers" d=" M 569.4376320552724 76.00478234446416 C 569.4376320552724 78.76620609361812 567.1990558044264 81.00478234446416 564.4376320552724 81.00478234446416 C 561.6762083061184 81.00478234446416 559.4376320552724 78.76620609361812 559.4376320552724 76.00478234446416 C 559.4376320552724 73.2433585953102 561.6762083061184 71.00478234446416 564.4376320552724 71.00478234446416 C 567.1990558044264 71.00478234446416 569.4376320552724 73.2433585953102 569.4376320552724 76.00478234446416 Z" fill-opacity="1"/><path fill="none" stroke="rgb(0,0,0)" paint-order="fill stroke markers" d=" M 569.4376320552724 76.00478234446416 C 569.4376320552724 78.76620609361812 567.1990558044264 81.00478234446416 564.4376320552724 81.00478234446416 C 561.6762083061184 81.00478234446416 559.4376320552724 78.76620609361812 559.4376320552724 76.00478234446416 C 559.4376320552724 73.2433585953102 561.6762083061184 71.00478234446416 564.4376320552724 71.00478234446416 C 567.1990558044264 71.00478234446416 569.4376320552724 73.2433585953102 569.4376320552724 76.00478234446416 Z" stroke-opacity="1" stroke-linecap="round" stroke-linejoin="round" stroke-miterlimit="10"/><text fill="rgb(21,101,192)" stroke="none" font-family="geogebra-sans-serif, sans-serif" font-size="24px" font-style="normal" font-weight="normal" text-decoration="normal" x="545" y="49" text-anchor="start" dominant-baseline="alphabetic" fill-opacity="1">P</text><text fill="none" stroke="rgb(255,255,255)" font-family="geogebra-sans-serif, sans-serif" font-size="24px" font-style="normal" font-weight="normal" text-decoration="normal" x="545" y="49" text-anchor="start" dominant-baseline="alphabetic" stroke-opacity="1" stroke-linejoin="bevel" stroke-miterlimit="10" stroke-width="3">P</text><text fill="rgb(21,101,192)" stroke="none" font-family="geogebra-sans-serif, sans-serif" font-size="24px" font-style="normal" font-weight="normal" text-decoration="normal" x="545" y="49" text-anchor="start" dominant-baseline="alphabetic" fill-opacity="1">P</text><path fill="rgb(21,101,192)" stroke="none" paint-order="stroke fill markers" d=" M 415.21814303184334 561.6638674883455 C 415.21814303184334 564.4252912374996 412.9795667809973 566.6638674883455 410.21814303184334 566.6638674883455 C 407.4567192826894 566.6638674883455 405.21814303184334 564.4252912374996 405.21814303184334 561.6638674883455 C 405.21814303184334 558.9024437391915 407.4567192826894 556.6638674883455 410.21814303184334 556.6638674883455 C 412.9795667809973 556.6638674883455 415.21814303184334 558.9024437391915 415.21814303184334 561.6638674883455 Z" fill-opacity="1"/><path fill="none" stroke="rgb(0,0,0)" paint-order="fill stroke markers" d=" M 415.21814303184334 561.6638674883455 C 415.21814303184334 564.4252912374996 412.9795667809973 566.6638674883455 410.21814303184334 566.6638674883455 C 407.4567192826894 566.6638674883455 405.21814303184334 564.4252912374996 405.21814303184334 561.6638674883455 C 405.21814303184334 558.9024437391915 407.4567192826894 556.6638674883455 410.21814303184334 556.6638674883455 C 412.9795667809973 556.6638674883455 415.21814303184334 558.9024437391915 415.21814303184334 561.6638674883455 Z" stroke-opacity="1" stroke-linecap="round" stroke-linejoin="round" stroke-miterlimit="10"/><text fill="rgb(21,101,192)" stroke="none" font-family="geogebra-sans-serif, sans-serif" font-size="24px" font-style="normal" font-weight="normal" text-decoration="normal" x="370" y="596" text-anchor="start" dominant-baseline="alphabetic" fill-opacity="1">A</text><text fill="none" stroke="rgb(255,255,255)" font-family="geogebra-sans-serif, sans-serif" font-size="24px" font-style="normal" font-weight="normal" text-decoration="normal" x="370" y="596" text-anchor="start" dominant-baseline="alphabetic" stroke-opacity="1" stroke-linejoin="bevel" stroke-miterlimit="10" stroke-width="3">A</text><text fill="rgb(21,101,192)" stroke="none" font-family="geogebra-sans-serif, sans-serif" font-size="24px" font-style="normal" font-weight="normal" text-decoration="normal" x="370" y="596" text-anchor="start" dominant-baseline="alphabetic" fill-opacity="1">A</text><path fill="rgb(21,101,192)" stroke="none" paint-order="stroke fill markers" d=" M 892.1653642092421 564.4327862714807 C 892.1653642092421 567.1942100206347 889.9267879583961 569.4327862714807 887.1653642092421 569.4327862714807 C 884.403940460088 569.4327862714807 882.1653642092421 567.1942100206347 882.1653642092421 564.4327862714807 C 882.1653642092421 561.6713625223267 884.403940460088 559.4327862714807 887.1653642092421 559.4327862714807 C 889.9267879583961 559.4327862714807 892.1653642092421 561.6713625223267 892.1653642092421 564.4327862714807 Z" fill-opacity="1"/><path fill="none" stroke="rgb(0,0,0)" paint-order="fill stroke markers" d=" M 892.1653642092421 564.4327862714807 C 892.1653642092421 567.1942100206347 889.9267879583961 569.4327862714807 887.1653642092421 569.4327862714807 C 884.403940460088 569.4327862714807 882.1653642092421 567.1942100206347 882.1653642092421 564.4327862714807 C 882.1653642092421 561.6713625223267 884.403940460088 559.4327862714807 887.1653642092421 559.4327862714807 C 889.9267879583961 559.4327862714807 892.1653642092421 561.6713625223267 892.1653642092421 564.4327862714807 Z" stroke-opacity="1" stroke-linecap="round" stroke-linejoin="round" stroke-miterlimit="10"/><text fill="rgb(21,101,192)" stroke="none" font-family="geogebra-sans-serif, sans-serif" font-size="24px" font-style="normal" font-weight="normal" text-decoration="normal" x="902" y="597" text-anchor="start" dominant-baseline="alphabetic" fill-opacity="1">B</text><text fill="none" stroke="rgb(255,255,255)" font-family="geogebra-sans-serif, sans-serif" font-size="24px" font-style="normal" font-weight="normal" text-decoration="normal" x="902" y="597" text-anchor="start" dominant-baseline="alphabetic" stroke-opacity="1" stroke-linejoin="bevel" stroke-miterlimit="10" stroke-width="3">B</text><text fill="rgb(21,101,192)" stroke="none" font-family="geogebra-sans-serif, sans-serif" font-size="24px" font-style="normal" font-weight="normal" text-decoration="normal" x="902" y="597" text-anchor="start" dominant-baseline="alphabetic" fill-opacity="1">B</text></g></g></svg>