<svg version="1.1" xmlns="http://www.w3.org/2000/svg" xmlns:xlink="http://www.w3.org/1999/xlink" width="1310" height="605"><defs><clipPath id="XqealWSGCpUk"><path fill="none" stroke="none" d=" M 0 0 L 1310 0 L 1310 605 L 0 605 L 0 0 Z"/></clipPath></defs><g transform="scale(1,1)" clip-path="url(#XqealWSGCpUk)"><g><rect fill="rgb(255,255,255)" stroke="none" x="0" y="0" width="1310" height="605" fill-opacity="1"/><path fill="none" stroke="rgb(97,97,97)" paint-order="fill stroke markers" d=" M 926.3857177236562 311.6721391020935 C 926.3857177236562 459.0028199169398 806.9506027058547 578.4379349347412 659.6199218910084 578.4379349347412 C 512.289241076162 578.4379349347412 392.85412605836063 459.0028199169398 392.85412605836063 311.6721391020935 C 392.85412605836063 164.34145828724718 512.289241076162 44.90634326944581 659.6199218910084 44.90634326944581 C 806.9506027058547 44.90634326944581 926.3857177236562 164.34145828724718 926.3857177236562 311.6721391020935 Z" stroke-opacity="0.8" stroke-linecap="round" stroke-linejoin="round" stroke-miterlimit="10" stroke-width="2.5"/><path fill="rgb(0,0,0)" stroke="none" paint-order="stroke fill markers" fill-rule="evenodd" d=" M 518.2261295911367 266.77299262960264 L 511.80586844907043 286.9913072692459 L 532.0241830887146 293.41156841131397 L 538.4444442307799 273.1932537716689 L 518.2261295911367 266.77299262960264" fill-opacity="0.09803921568627451"/><path fill="none" stroke="rgb(0,0,0)" paint-order="fill stroke markers" d=" M 518.2261295911367 266.77299262960264 L 511.80586844907043 286.9913072692459 L 532.0241830887146 293.41156841131397 L 538.4444442307799 273.1932537716689 L 518.2261295911367 266.77299262960264" stroke-opacity="0.6" stroke-linecap="round" stroke-linejoin="round" stroke-miterlimit="10" stroke-width="2"/><path fill="rgb(0,0,0)" stroke="none" paint-order="stroke fill markers" fill-rule="evenodd" d=" M 725.7485925552876 267.97776502392634 L 714.0542470569795 250.27911300276548 L 696.3555950358167 261.9734585010732 L 708.0499405341268 279.67211052223445 L 725.7485925552876 267.97776502392634" fill-opacity="0.09803921568627451"/><path fill="none" stroke="rgb(0,0,0)" paint-order="fill stroke markers" d=" M 725.7485925552876 267.97776502392634 L 714.0542470569795 250.27911300276548 L 696.3555950358167 261.9734585010732 L 708.0499405341268 279.67211052223445 L 725.7485925552876 267.97776502392634" stroke-opacity="0.6" stroke-linecap="round" stroke-linejoin="round" stroke-miterlimit="10" stroke-width="2"/><path fill="none" stroke="rgb(97,97,97)" paint-order="fill stroke markers" d=" M 585.3279110423616 55.45994784201622 L 451.12434813991183 478.08603741718906" stroke-opacity="0.8" stroke-linecap="round" stroke-linejoin="round" stroke-miterlimit="10" stroke-width="2.5"/><path fill="none" stroke="rgb(97,97,97)" paint-order="fill stroke markers" d=" M 585.3279110423616 55.45994784201622 L 866.1692740682137 480.4955822058364" stroke-opacity="0.8" stroke-linecap="round" stroke-linejoin="round" stroke-miterlimit="10" stroke-width="2.5"/><path fill="none" stroke="rgb(97,97,97)" paint-order="fill stroke markers" d=" M 659.6199218910084 311.6721391020935 L 725.7485925552876 267.97776502392634" stroke-opacity="0.8" stroke-linecap="round" stroke-linejoin="round" stroke-miterlimit="10" stroke-width="2.5"/><path fill="none" stroke="rgb(97,97,97)" paint-order="fill stroke markers" d=" M 659.6199218910084 311.6721391020935 L 518.2261295911367 266.77299262960264" stroke-opacity="0.8" stroke-linecap="round" stroke-linejoin="round" stroke-miterlimit="10" stroke-width="2.5"/><path fill="rgb(211,47,47)" stroke="none" paint-order="stroke fill markers" d=" M 664.6199218910084 311.6721391020935 C 664.6199218910084 314.4335628512475 662.3813456401624 316.6721391020935 659.6199218910084 316.6721391020935 C 656.8584981418544 316.6721391020935 654.6199218910084 314.4335628512475 654.6199218910084 311.6721391020935 C 654.6199218910084 308.9107153529396 656.8584981418544 306.6721391020935 659.6199218910084 306.6721391020935 C 662.3813456401624 306.6721391020935 664.6199218910084 308.9107153529396 664.6199218910084 311.6721391020935 Z" fill-opacity="1"/><path fill="none" stroke="rgb(0,0,0)" paint-order="fill stroke markers" d=" M 664.6199218910084 311.6721391020935 C 664.6199218910084 314.4335628512475 662.3813456401624 316.6721391020935 659.6199218910084 316.6721391020935 C 656.8584981418544 316.6721391020935 654.6199218910084 314.4335628512475 654.6199218910084 311.6721391020935 C 654.6199218910084 308.9107153529396 656.8584981418544 306.6721391020935 659.6199218910084 306.6721391020935 C 662.3813456401624 306.6721391020935 664.6199218910084 308.9107153529396 664.6199218910084 311.6721391020935 Z" stroke-opacity="1" stroke-linecap="round" stroke-linejoin="round" stroke-miterlimit="10"/><text fill="rgb(211,47,47)" stroke="none" font-family="geogebra-sans-serif, sans-serif" font-size="24px" font-style="normal" font-weight="normal" text-decoration="normal" x="659" y="349" text-anchor="start" dominant-baseline="alphabetic" fill-opacity="1">O</text><text fill="none" stroke="rgb(255,255,255)" font-family="geogebra-sans-serif, sans-serif" font-size="24px" font-style="normal" font-weight="normal" text-decoration="normal" x="659" y="349" text-anchor="start" dominant-baseline="alphabetic" stroke-opacity="1" stroke-linejoin="bevel" stroke-miterlimit="10" stroke-width="3">O</text><text fill="rgb(211,47,47)" stroke="none" font-family="geogebra-sans-serif, sans-serif" font-size="24px" font-style="normal" font-weight="normal" text-decoration="normal" x="659" y="349" text-anchor="start" dominant-baseline="alphabetic" fill-opacity="1">O</text><path fill="rgb(21,101,192)" stroke="none" paint-order="stroke fill markers" d=" M 590.3279110423616 55.45994784201622 C 590.3279110423616 58.22137159117018 588.0893347915156 60.45994784201622 585.3279110423616 60.45994784201622 C 582.5664872932076 60.45994784201622 580.3279110423616 58.22137159117018 580.3279110423616 55.45994784201622 C 580.3279110423616 52.69852409286225 582.5664872932076 50.45994784201622 585.3279110423616 50.45994784201622 C 588.0893347915156 50.45994784201622 590.3279110423616 52.69852409286225 590.3279110423616 55.45994784201622 Z" fill-opacity="1"/><path fill="none" stroke="rgb(0,0,0)" paint-order="fill stroke markers" d=" M 590.3279110423616 55.45994784201622 C 590.3279110423616 58.22137159117018 588.0893347915156 60.45994784201622 585.3279110423616 60.45994784201622 C 582.5664872932076 60.45994784201622 580.3279110423616 58.22137159117018 580.3279110423616 55.45994784201622 C 580.3279110423616 52.69852409286225 582.5664872932076 50.45994784201622 585.3279110423616 50.45994784201622 C 588.0893347915156 50.45994784201622 590.3279110423616 52.69852409286225 590.3279110423616 55.45994784201622 Z" stroke-opacity="1" stroke-linecap="round" stroke-linejoin="round" stroke-miterlimit="10"/><text fill="rgb(21,101,192)" stroke="none" font-family="geogebra-sans-serif, sans-serif" font-size="24px" font-style="normal" font-weight="normal" text-decoration="normal" x="566" y="28" text-anchor="start" dominant-baseline="alphabetic" fill-opacity="1">P</text><text fill="none" stroke="rgb(255,255,255)" font-family="geogebra-sans-serif, sans-serif" font-size="24px" font-style="normal" font-weight="normal" text-decoration="normal" x="566" y="28" text-anchor="start" dominant-baseline="alphabetic" stroke-opacity="1" stroke-linejoin="bevel" stroke-miterlimit="10" stroke-width="3">P</text><text fill="rgb(21,101,192)" stroke="none" font-family="geogebra-sans-serif, sans-serif" font-size="24px" font-style="normal" font-weight="normal" text-decoration="normal" x="566" y="28" text-anchor="start" dominant-baseline="alphabetic" fill-opacity="1">P</text><path fill="rgb(21,101,192)" stroke="none" paint-order="stroke fill markers" d=" M 456.12434813991183 478.08603741718906 C 456.12434813991183 480.847461166343 453.8857718890658 483.08603741718906 451.12434813991183 483.08603741718906 C 448.3629243907579 483.08603741718906 446.12434813991183 480.847461166343 446.12434813991183 478.08603741718906 C 446.12434813991183 475.3246136680351 448.3629243907579 473.08603741718906 451.12434813991183 473.08603741718906 C 453.8857718890658 473.08603741718906 456.12434813991183 475.3246136680351 456.12434813991183 478.08603741718906 Z" fill-opacity="1"/><path fill="none" stroke="rgb(0,0,0)" paint-order="fill stroke markers" d=" M 456.12434813991183 478.08603741718906 C 456.12434813991183 480.847461166343 453.8857718890658 483.08603741718906 451.12434813991183 483.08603741718906 C 448.3629243907579 483.08603741718906 446.12434813991183 480.847461166343 446.12434813991183 478.08603741718906 C 446.12434813991183 475.3246136680351 448.3629243907579 473.08603741718906 451.12434813991183 473.08603741718906 C 453.8857718890658 473.08603741718906 456.12434813991183 475.3246136680351 456.12434813991183 478.08603741718906 Z" stroke-opacity="1" stroke-linecap="round" stroke-linejoin="round" stroke-miterlimit="10"/><text fill="rgb(21,101,192)" stroke="none" font-family="geogebra-sans-serif, sans-serif" font-size="24px" font-style="normal" font-weight="normal" text-decoration="normal" x="411" y="512" text-anchor="start" dominant-baseline="alphabetic" fill-opacity="1">A</text><text fill="none" stroke="rgb(255,255,255)" font-family="geogebra-sans-serif, sans-serif" font-size="24px" font-style="normal" font-weight="normal" text-decoration="normal" x="411" y="512" text-anchor="start" dominant-baseline="alphabetic" stroke-opacity="1" stroke-linejoin="bevel" stroke-miterlimit="10" stroke-width="3">A</text><text fill="rgb(21,101,192)" stroke="none" font-family="geogebra-sans-serif, sans-serif" font-size="24px" font-style="normal" font-weight="normal" text-decoration="normal" x="411" y="512" text-anchor="start" dominant-baseline="alphabetic" fill-opacity="1">A</text><path fill="rgb(21,101,192)" stroke="none" paint-order="stroke fill markers" d=" M 871.1692740682137 480.4955822058364 C 871.1692740682137 483.25700595499035 868.9306978173677 485.4955822058364 866.1692740682137 485.4955822058364 C 863.4078503190597 485.4955822058364 861.1692740682137 483.25700595499035 861.1692740682137 480.4955822058364 C 861.1692740682137 477.73415845668245 863.4078503190597 475.4955822058364 866.1692740682137 475.4955822058364 C 868.9306978173677 475.4955822058364 871.1692740682137 477.73415845668245 871.1692740682137 480.4955822058364 Z" fill-opacity="1"/><path fill="none" stroke="rgb(0,0,0)" paint-order="fill stroke markers" d=" M 871.1692740682137 480.4955822058364 C 871.1692740682137 483.25700595499035 868.9306978173677 485.4955822058364 866.1692740682137 485.4955822058364 C 863.4078503190597 485.4955822058364 861.1692740682137 483.25700595499035 861.1692740682137 480.4955822058364 C 861.1692740682137 477.73415845668245 863.4078503190597 475.4955822058364 866.1692740682137 475.4955822058364 C 868.9306978173677 475.4955822058364 871.1692740682137 477.73415845668245 871.1692740682137 480.4955822058364 Z" stroke-opacity="1" stroke-linecap="round" stroke-linejoin="round" stroke-miterlimit="10"/><text fill="rgb(21,101,192)" stroke="none" font-family="geogebra-sans-serif, sans-serif" font-size="24px" font-style="normal" font-weight="normal" text-decoration="normal" x="881" y="513" text-anchor="start" dominant-baseline="alphabetic" fill-opacity="1">B</text><text fill="none" stroke="rgb(255,255,255)" font-family="geogebra-sans-serif, sans-serif" font-size="24px" font-style="normal" font-weight="normal" text-decoration="normal" x="881" y="513" text-anchor="start" dominant-baseline="alphabetic" stroke-opacity="1" stroke-linejoin="bevel" stroke-miterlimit="10" stroke-width="3">B</text><text fill="rgb(21,101,192)" stroke="none" font-family="geogebra-sans-serif, sans-serif" font-size="24px" font-style="normal" font-weight="normal" text-decoration="normal" x="881" y="513" text-anchor="start" dominant-baseline="alphabetic" fill-opacity="1">B</text><path fill="rgb(21,101,192)" stroke="none" paint-order="stroke fill markers" d=" M 522.2261295911367 266.77299262960264 C 522.2261295911367 268.9821316289258 520.4352685904598 270.77299262960264 518.2261295911367 270.77299262960264 C 516.0169905918135 270.77299262960264 514.2261295911367 268.9821316289258 514.2261295911367 266.77299262960264 C 514.2261295911367 264.5638536302795 516.0169905918135 262.77299262960264 518.2261295911367 262.77299262960264 C 520.4352685904598 262.77299262960264 522.2261295911367 264.5638536302795 522.2261295911367 266.77299262960264 Z" fill-opacity="1"/><path fill="none" stroke="rgb(0,0,0)" paint-order="fill stroke markers" d=" M 522.2261295911367 266.77299262960264 C 522.2261295911367 268.9821316289258 520.4352685904598 270.77299262960264 518.2261295911367 270.77299262960264 C 516.0169905918135 270.77299262960264 514.2261295911367 268.9821316289258 514.2261295911367 266.77299262960264 C 514.2261295911367 264.5638536302795 516.0169905918135 262.77299262960264 518.2261295911367 262.77299262960264 C 520.4352685904598 262.77299262960264 522.2261295911367 264.5638536302795 522.2261295911367 266.77299262960264 Z" stroke-opacity="1" stroke-linecap="round" stroke-linejoin="round" stroke-miterlimit="10"/><text fill="rgb(21,101,192)" stroke="none" font-family="geogebra-sans-serif, sans-serif" font-size="24px" font-style="normal" font-weight="normal" text-decoration="normal" x="486" y="259" text-anchor="start" dominant-baseline="alphabetic" fill-opacity="1">N</text><text fill="none" stroke="rgb(255,255,255)" font-family="geogebra-sans-serif, sans-serif" font-size="24px" font-style="normal" font-weight="normal" text-decoration="normal" x="486" y="259" text-anchor="start" dominant-baseline="alphabetic" stroke-opacity="1" stroke-linejoin="bevel" stroke-miterlimit="10" stroke-width="3">N</text><text fill="rgb(21,101,192)" stroke="none" font-family="geogebra-sans-serif, sans-serif" font-size="24px" font-style="normal" font-weight="normal" text-decoration="normal" x="486" y="259" text-anchor="start" dominant-baseline="alphabetic" fill-opacity="1">N</text><path fill="rgb(21,101,192)" stroke="none" paint-order="stroke fill markers" d=" M 729.7485925552876 267.97776502392634 C 729.7485925552876 270.1869040232495 727.9577315546107 271.97776502392634 725.7485925552876 271.97776502392634 C 723.5394535559644 271.97776502392634 721.7485925552876 270.1869040232495 721.7485925552876 267.97776502392634 C 721.7485925552876 265.7686260246032 723.5394535559644 263.97776502392634 725.7485925552876 263.97776502392634 C 727.9577315546107 263.97776502392634 729.7485925552876 265.7686260246032 729.7485925552876 267.97776502392634 Z" fill-opacity="1"/><path fill="none" stroke="rgb(0,0,0)" paint-order="fill stroke markers" d=" M 729.7485925552876 267.97776502392634 C 729.7485925552876 270.1869040232495 727.9577315546107 271.97776502392634 725.7485925552876 271.97776502392634 C 723.5394535559644 271.97776502392634 721.7485925552876 270.1869040232495 721.7485925552876 267.97776502392634 C 721.7485925552876 265.7686260246032 723.5394535559644 263.97776502392634 725.7485925552876 263.97776502392634 C 727.9577315546107 263.97776502392634 729.7485925552876 265.7686260246032 729.7485925552876 267.97776502392634 Z" stroke-opacity="1" stroke-linecap="round" stroke-linejoin="round" stroke-miterlimit="10"/><text fill="rgb(21,101,192)" stroke="none" font-family="geogebra-sans-serif, sans-serif" font-size="24px" font-style="normal" font-weight="normal" text-decoration="normal" x="743" y="260" text-anchor="start" dominant-baseline="alphabetic" fill-opacity="1">M</text><text fill="none" stroke="rgb(255,255,255)" font-family="geogebra-sans-serif, sans-serif" font-size="24px" font-style="normal" font-weight="normal" text-decoration="normal" x="743" y="260" text-anchor="start" dominant-baseline="alphabetic" stroke-opacity="1" stroke-linejoin="bevel" stroke-miterlimit="10" stroke-width="3">M</text><text fill="rgb(21,101,192)" stroke="none" font-family="geogebra-sans-serif, sans-serif" font-size="24px" font-style="normal" font-weight="normal" text-decoration="normal" x="743" y="260" text-anchor="start" dominant-baseline="alphabetic" fill-opacity="1">M</text></g></g></svg>