<svg version="1.1" xmlns="http://www.w3.org/2000/svg" xmlns:xlink="http://www.w3.org/1999/xlink" width="1310" height="704"><defs><clipPath id="DLwrfnTlNIip"><path fill="none" stroke="none" d=" M 0 0 L 1310 0 L 1310 704 L 0 704 L 0 0 Z"/></clipPath></defs><g transform="scale(1,1)" clip-path="url(#DLwrfnTlNIip)"><g><rect fill="rgb(255,255,255)" stroke="none" x="0" y="0" width="1310" height="704" fill-opacity="1"/><path fill="none" stroke="rgb(0,0,0)" paint-order="fill stroke markers" d=" M 930.2323231890235 347.3863636363636 C 930.2323231890235 510.06211560680214 798.3575701522564 641.9368686435695 635.681818181818 641.9368686435695 C 473.0060662113797 641.9368686435695 341.1313131746125 510.06211560680214 341.1313131746125 347.3863636363636 C 341.1313131746125 184.7106116659251 473.0060662113797 52.83585862915777 635.681818181818 52.83585862915777 C 798.3575701522564 52.83585862915777 930.2323231890235 184.7106116659251 930.2323231890235 347.3863636363636 Z" stroke-opacity="0.6980392156862745" stroke-linecap="round" stroke-linejoin="round" stroke-miterlimit="10" stroke-width="2.5"/><path fill="rgb(211,47,47)" stroke="none" paint-order="stroke fill markers" d=" M 640.681818181818 347.3863636363636 C 640.681818181818 350.1477873855176 638.443241930972 352.3863636363636 635.681818181818 352.3863636363636 C 632.920394432664 352.3863636363636 630.681818181818 350.1477873855176 630.681818181818 347.3863636363636 C 630.681818181818 344.6249398872097 632.920394432664 342.3863636363636 635.681818181818 342.3863636363636 C 638.443241930972 342.3863636363636 640.681818181818 344.6249398872097 640.681818181818 347.3863636363636 Z" fill-opacity="1"/><path fill="none" stroke="rgb(0,0,0)" paint-order="fill stroke markers" d=" M 640.681818181818 347.3863636363636 C 640.681818181818 350.1477873855176 638.443241930972 352.3863636363636 635.681818181818 352.3863636363636 C 632.920394432664 352.3863636363636 630.681818181818 350.1477873855176 630.681818181818 347.3863636363636 C 630.681818181818 344.6249398872097 632.920394432664 342.3863636363636 635.681818181818 342.3863636363636 C 638.443241930972 342.3863636363636 640.681818181818 344.6249398872097 640.681818181818 347.3863636363636 Z" stroke-opacity="1" stroke-linecap="round" stroke-linejoin="round" stroke-miterlimit="10"/><text fill="rgb(211,47,47)" stroke="none" font-family="geogebra-sans-serif, sans-serif" font-size="24px" font-style="normal" font-weight="normal" text-decoration="normal" x="628" y="388" text-anchor="start" dominant-baseline="alphabetic" fill-opacity="1">O</text><text fill="none" stroke="rgb(255,255,255)" font-family="geogebra-sans-serif, sans-serif" font-size="24px" font-style="normal" font-weight="normal" text-decoration="normal" x="628" y="388" text-anchor="start" dominant-baseline="alphabetic" stroke-opacity="1" stroke-linejoin="bevel" stroke-miterlimit="10" stroke-width="3">O</text><text fill="rgb(211,47,47)" stroke="none" font-family="geogebra-sans-serif, sans-serif" font-size="24px" font-style="normal" font-weight="normal" text-decoration="normal" x="628" y="388" text-anchor="start" dominant-baseline="alphabetic" fill-opacity="1">O</text></g></g></svg>