<svg version="1.1" xmlns="http://www.w3.org/2000/svg" xmlns:xlink="http://www.w3.org/1999/xlink" width="1310" height="704"><defs><clipPath id="ZrVhxCSuOKDt"><path fill="none" stroke="none" d=" M 0 0 L 1310 0 L 1310 704 L 0 704 L 0 0 Z"/></clipPath></defs><g transform="scale(1,1)" clip-path="url(#ZrVhxCSuOKDt)"><g><rect fill="rgb(255,255,255)" stroke="none" x="0" y="0" width="1310" height="704" fill-opacity="1"/><path fill="none" stroke="rgb(0,0,0)" paint-order="fill stroke markers" d=" M 933.2323231890233 349.3863636363636 C 933.2323231890233 512.0621156068021 801.3575701522561 643.9368686435695 638.6818181818178 643.9368686435695 C 476.00606621137945 643.9368686435695 344.1313131746123 512.0621156068021 344.1313131746123 349.3863636363636 C 344.1313131746123 186.7106116659251 476.00606621137945 54.83585862915777 638.6818181818178 54.83585862915777 C 801.3575701522561 54.83585862915777 933.2323231890233 186.7106116659251 933.2323231890233 349.3863636363636 Z" stroke-opacity="0.6980392156862745" stroke-linecap="round" stroke-linejoin="round" stroke-miterlimit="10" stroke-width="2.5"/><path fill="none" stroke="rgb(0,0,0)" paint-order="fill stroke markers" d=" M 387.4045919554791 503.07356407933224 L 888.2940107839877 505.7633226307664" stroke-opacity="0.6980392156862745" stroke-linecap="round" stroke-linejoin="round" stroke-miterlimit="10" stroke-width="2.5"/><path fill="none" stroke="rgb(0,0,0)" paint-order="fill stroke markers" d=" M 888.2940107839877 505.7633226307664 L 795.2030651787983 99.86462262265917" stroke-opacity="0.6980392156862745" stroke-linecap="round" stroke-linejoin="round" stroke-miterlimit="10" stroke-width="2.5"/><path fill="none" stroke="rgb(0,0,0)" paint-order="fill stroke markers" d=" M 795.2030651787983 99.86462262265917 L 387.4045919554791 503.07356407933224" stroke-opacity="0.6980392156862745" stroke-linecap="round" stroke-linejoin="round" stroke-miterlimit="10" stroke-width="2.5"/><path fill="rgb(211,47,47)" stroke="none" paint-order="stroke fill markers" d=" M 643.6818181818178 349.3863636363636 C 643.6818181818178 352.1477873855176 641.4432419309718 354.3863636363636 638.6818181818178 354.3863636363636 C 635.9203944326638 354.3863636363636 633.6818181818178 352.1477873855176 633.6818181818178 349.3863636363636 C 633.6818181818178 346.6249398872097 635.9203944326638 344.3863636363636 638.6818181818178 344.3863636363636 C 641.4432419309718 344.3863636363636 643.6818181818178 346.6249398872097 643.6818181818178 349.3863636363636 Z" fill-opacity="1"/><path fill="none" stroke="rgb(0,0,0)" paint-order="fill stroke markers" d=" M 643.6818181818178 349.3863636363636 C 643.6818181818178 352.1477873855176 641.4432419309718 354.3863636363636 638.6818181818178 354.3863636363636 C 635.9203944326638 354.3863636363636 633.6818181818178 352.1477873855176 633.6818181818178 349.3863636363636 C 633.6818181818178 346.6249398872097 635.9203944326638 344.3863636363636 638.6818181818178 344.3863636363636 C 641.4432419309718 344.3863636363636 643.6818181818178 346.6249398872097 643.6818181818178 349.3863636363636 Z" stroke-opacity="1" stroke-linecap="round" stroke-linejoin="round" stroke-miterlimit="10"/><text fill="rgb(211,47,47)" stroke="none" font-family="geogebra-sans-serif, sans-serif" font-size="24px" font-style="normal" font-weight="normal" text-decoration="normal" x="627" y="387" text-anchor="start" dominant-baseline="alphabetic" fill-opacity="1">O</text><text fill="none" stroke="rgb(255,255,255)" font-family="geogebra-sans-serif, sans-serif" font-size="24px" font-style="normal" font-weight="normal" text-decoration="normal" x="627" y="387" text-anchor="start" dominant-baseline="alphabetic" stroke-opacity="1" stroke-linejoin="bevel" stroke-miterlimit="10" stroke-width="3">O</text><text fill="rgb(211,47,47)" stroke="none" font-family="geogebra-sans-serif, sans-serif" font-size="24px" font-style="normal" font-weight="normal" text-decoration="normal" x="627" y="387" text-anchor="start" dominant-baseline="alphabetic" fill-opacity="1">O</text><path fill="rgb(21,101,192)" stroke="none" paint-order="stroke fill markers" d=" M 392.4045919554791 503.07356407933224 C 392.4045919554791 505.8349878284862 390.166015704633 508.07356407933224 387.4045919554791 508.07356407933224 C 384.64316820632513 508.07356407933224 382.4045919554791 505.8349878284862 382.4045919554791 503.07356407933224 C 382.4045919554791 500.3121403301783 384.64316820632513 498.07356407933224 387.4045919554791 498.07356407933224 C 390.166015704633 498.07356407933224 392.4045919554791 500.3121403301783 392.4045919554791 503.07356407933224 Z" fill-opacity="1"/><path fill="none" stroke="rgb(0,0,0)" paint-order="fill stroke markers" d=" M 392.4045919554791 503.07356407933224 C 392.4045919554791 505.8349878284862 390.166015704633 508.07356407933224 387.4045919554791 508.07356407933224 C 384.64316820632513 508.07356407933224 382.4045919554791 505.8349878284862 382.4045919554791 503.07356407933224 C 382.4045919554791 500.3121403301783 384.64316820632513 498.07356407933224 387.4045919554791 498.07356407933224 C 390.166015704633 498.07356407933224 392.4045919554791 500.3121403301783 392.4045919554791 503.07356407933224 Z" stroke-opacity="1" stroke-linecap="round" stroke-linejoin="round" stroke-miterlimit="10"/><text fill="rgb(21,101,192)" stroke="none" font-family="geogebra-sans-serif, sans-serif" font-size="24px" font-style="normal" font-weight="normal" text-decoration="normal" x="352" y="529" text-anchor="start" dominant-baseline="alphabetic" fill-opacity="1">B</text><text fill="none" stroke="rgb(255,255,255)" font-family="geogebra-sans-serif, sans-serif" font-size="24px" font-style="normal" font-weight="normal" text-decoration="normal" x="352" y="529" text-anchor="start" dominant-baseline="alphabetic" stroke-opacity="1" stroke-linejoin="bevel" stroke-miterlimit="10" stroke-width="3">B</text><text fill="rgb(21,101,192)" stroke="none" font-family="geogebra-sans-serif, sans-serif" font-size="24px" font-style="normal" font-weight="normal" text-decoration="normal" x="352" y="529" text-anchor="start" dominant-baseline="alphabetic" fill-opacity="1">B</text><path fill="rgb(21,101,192)" stroke="none" paint-order="stroke fill markers" d=" M 893.2940107839877 505.7633226307664 C 893.2940107839877 508.5247463799204 891.0554345331417 510.7633226307664 888.2940107839877 510.7633226307664 C 885.5325870348337 510.7633226307664 883.2940107839877 508.5247463799204 883.2940107839877 505.7633226307664 C 883.2940107839877 503.0018988816125 885.5325870348337 500.7633226307664 888.2940107839877 500.7633226307664 C 891.0554345331417 500.7633226307664 893.2940107839877 503.0018988816125 893.2940107839877 505.7633226307664 Z" fill-opacity="1"/><path fill="none" stroke="rgb(0,0,0)" paint-order="fill stroke markers" d=" M 893.2940107839877 505.7633226307664 C 893.2940107839877 508.5247463799204 891.0554345331417 510.7633226307664 888.2940107839877 510.7633226307664 C 885.5325870348337 510.7633226307664 883.2940107839877 508.5247463799204 883.2940107839877 505.7633226307664 C 883.2940107839877 503.0018988816125 885.5325870348337 500.7633226307664 888.2940107839877 500.7633226307664 C 891.0554345331417 500.7633226307664 893.2940107839877 503.0018988816125 893.2940107839877 505.7633226307664 Z" stroke-opacity="1" stroke-linecap="round" stroke-linejoin="round" stroke-miterlimit="10"/><text fill="rgb(21,101,192)" stroke="none" font-family="geogebra-sans-serif, sans-serif" font-size="24px" font-style="normal" font-weight="normal" text-decoration="normal" x="921" y="545" text-anchor="start" dominant-baseline="alphabetic" fill-opacity="1">A</text><text fill="none" stroke="rgb(255,255,255)" font-family="geogebra-sans-serif, sans-serif" font-size="24px" font-style="normal" font-weight="normal" text-decoration="normal" x="921" y="545" text-anchor="start" dominant-baseline="alphabetic" stroke-opacity="1" stroke-linejoin="bevel" stroke-miterlimit="10" stroke-width="3">A</text><text fill="rgb(21,101,192)" stroke="none" font-family="geogebra-sans-serif, sans-serif" font-size="24px" font-style="normal" font-weight="normal" text-decoration="normal" x="921" y="545" text-anchor="start" dominant-baseline="alphabetic" fill-opacity="1">A</text><path fill="rgb(21,101,192)" stroke="none" paint-order="stroke fill markers" d=" M 800.2030651787983 99.86462262265917 C 800.2030651787983 102.62604637181313 797.9644889279523 104.86462262265917 795.2030651787983 104.86462262265917 C 792.4416414296443 104.86462262265917 790.2030651787983 102.62604637181313 790.2030651787983 99.86462262265917 C 790.2030651787983 97.1031988735052 792.4416414296443 94.86462262265917 795.2030651787983 94.86462262265917 C 797.9644889279523 94.86462262265917 800.2030651787983 97.1031988735052 800.2030651787983 99.86462262265917 Z" fill-opacity="1"/><path fill="none" stroke="rgb(0,0,0)" paint-order="fill stroke markers" d=" M 800.2030651787983 99.86462262265917 C 800.2030651787983 102.62604637181313 797.9644889279523 104.86462262265917 795.2030651787983 104.86462262265917 C 792.4416414296443 104.86462262265917 790.2030651787983 102.62604637181313 790.2030651787983 99.86462262265917 C 790.2030651787983 97.1031988735052 792.4416414296443 94.86462262265917 795.2030651787983 94.86462262265917 C 797.9644889279523 94.86462262265917 800.2030651787983 97.1031988735052 800.2030651787983 99.86462262265917 Z" stroke-opacity="1" stroke-linecap="round" stroke-linejoin="round" stroke-miterlimit="10"/><text fill="rgb(21,101,192)" stroke="none" font-family="geogebra-sans-serif, sans-serif" font-size="24px" font-style="normal" font-weight="normal" text-decoration="normal" x="807" y="88" text-anchor="start" dominant-baseline="alphabetic" fill-opacity="1">C</text><text fill="none" stroke="rgb(255,255,255)" font-family="geogebra-sans-serif, sans-serif" font-size="24px" font-style="normal" font-weight="normal" text-decoration="normal" x="807" y="88" text-anchor="start" dominant-baseline="alphabetic" stroke-opacity="1" stroke-linejoin="bevel" stroke-miterlimit="10" stroke-width="3">C</text><text fill="rgb(21,101,192)" stroke="none" font-family="geogebra-sans-serif, sans-serif" font-size="24px" font-style="normal" font-weight="normal" text-decoration="normal" x="807" y="88" text-anchor="start" dominant-baseline="alphabetic" fill-opacity="1">C</text></g></g></svg>