<svg version="1.1" xmlns="http://www.w3.org/2000/svg" xmlns:xlink="http://www.w3.org/1999/xlink" width="1310" height="704"><defs><clipPath id="GfUEZWmGqfyT"><path fill="none" stroke="none" d=" M 0 0 L 1310 0 L 1310 704 L 0 704 L 0 0 Z"/></clipPath></defs><g transform="scale(1,1)" clip-path="url(#GfUEZWmGqfyT)"><g><rect fill="rgb(255,255,255)" stroke="none" x="0" y="0" width="1310" height="704" fill-opacity="1"/><path fill="none" stroke="rgb(0,0,0)" paint-order="fill stroke markers" d=" M 933.2323231890236 349.3863636363635 C 933.2323231890236 512.0621156068021 801.3575701522564 643.9368686435694 638.681818181818 643.9368686435694 C 476.0060662113797 643.9368686435694 344.13131317461244 512.0621156068021 344.13131317461244 349.3863636363635 C 344.13131317461244 186.71061166592494 476.0060662113797 54.8358586291576 638.681818181818 54.8358586291576 C 801.3575701522564 54.8358586291576 933.2323231890236 186.71061166592494 933.2323231890236 349.3863636363635 Z" stroke-opacity="0.6980392156862745" stroke-linecap="round" stroke-linejoin="round" stroke-miterlimit="10" stroke-width="2.5"/><path fill="rgb(0,0,0)" stroke="none" paint-order="stroke fill markers" fill-rule="evenodd" d=" M 637.8493013697334 504.41844335504925 L 659.062198954439 504.53235586853896 L 659.1761114679302 483.31945828383186 L 637.9632138832231 483.2055457703436 L 637.8493013697334 504.41844335504925" fill-opacity="0.09803921568627451"/><path fill="none" stroke="rgb(0,0,0)" paint-order="fill stroke markers" d=" M 637.8493013697334 504.41844335504925 L 659.062198954439 504.53235586853896 L 659.1761114679302 483.31945828383186 L 637.9632138832231 483.2055457703436 L 637.8493013697334 504.41844335504925" stroke-opacity="0.6" stroke-linecap="round" stroke-linejoin="round" stroke-miterlimit="10" stroke-width="2.5"/><path fill="none" stroke="rgb(0,0,0)" paint-order="fill stroke markers" d=" M 636.7507056103373 709 L 640.5848604827155 -5" stroke-opacity="0.6980392156862745" stroke-linecap="round" stroke-linejoin="round" stroke-miterlimit="10" stroke-width="2.5"/><path fill="none" stroke="rgb(0,0,0)" paint-order="fill stroke markers" d=" M 387.40459195547913 503.0735640793322 L 888.2940107839878 505.76332263076637" stroke-opacity="0.6980392156862745" stroke-linecap="round" stroke-linejoin="round" stroke-miterlimit="10" stroke-width="2.5"/><path fill="none" stroke="rgb(0,0,0)" paint-order="fill stroke markers" d=" M 888.2940107839878 505.76332263076637 L 795.2030651787984 99.864622622659" stroke-opacity="0.6980392156862745" stroke-linecap="round" stroke-linejoin="round" stroke-miterlimit="10" stroke-width="2.5"/><path fill="none" stroke="rgb(0,0,0)" paint-order="fill stroke markers" d=" M 795.2030651787984 99.864622622659 L 387.40459195547913 503.0735640793322" stroke-opacity="0.6980392156862745" stroke-linecap="round" stroke-linejoin="round" stroke-miterlimit="10" stroke-width="2.5"/><path fill="rgb(211,47,47)" stroke="none" paint-order="stroke fill markers" d=" M 643.681818181818 349.3863636363635 C 643.681818181818 352.14778738551746 641.443241930972 354.3863636363635 638.681818181818 354.3863636363635 C 635.920394432664 354.3863636363635 633.681818181818 352.14778738551746 633.681818181818 349.3863636363635 C 633.681818181818 346.62493988720956 635.920394432664 344.3863636363635 638.681818181818 344.3863636363635 C 641.443241930972 344.3863636363635 643.681818181818 346.62493988720956 643.681818181818 349.3863636363635 Z" fill-opacity="1"/><path fill="none" stroke="rgb(0,0,0)" paint-order="fill stroke markers" d=" M 643.681818181818 349.3863636363635 C 643.681818181818 352.14778738551746 641.443241930972 354.3863636363635 638.681818181818 354.3863636363635 C 635.920394432664 354.3863636363635 633.681818181818 352.14778738551746 633.681818181818 349.3863636363635 C 633.681818181818 346.62493988720956 635.920394432664 344.3863636363635 638.681818181818 344.3863636363635 C 641.443241930972 344.3863636363635 643.681818181818 346.62493988720956 643.681818181818 349.3863636363635 Z" stroke-opacity="1" stroke-linecap="round" stroke-linejoin="round" stroke-miterlimit="10"/><text fill="rgb(211,47,47)" stroke="none" font-family="geogebra-sans-serif, sans-serif" font-size="24px" font-style="normal" font-weight="normal" text-decoration="normal" x="629" y="387" text-anchor="start" dominant-baseline="alphabetic" fill-opacity="1">O</text><text fill="none" stroke="rgb(255,255,255)" font-family="geogebra-sans-serif, sans-serif" font-size="24px" font-style="normal" font-weight="normal" text-decoration="normal" x="629" y="387" text-anchor="start" dominant-baseline="alphabetic" stroke-opacity="1" stroke-linejoin="bevel" stroke-miterlimit="10" stroke-width="3">O</text><text fill="rgb(211,47,47)" stroke="none" font-family="geogebra-sans-serif, sans-serif" font-size="24px" font-style="normal" font-weight="normal" text-decoration="normal" x="629" y="387" text-anchor="start" dominant-baseline="alphabetic" fill-opacity="1">O</text><path fill="rgb(21,101,192)" stroke="none" paint-order="stroke fill markers" d=" M 392.40459195547913 503.0735640793322 C 392.40459195547913 505.83498782848613 390.1660157046331 508.0735640793322 387.40459195547913 508.0735640793322 C 384.6431682063252 508.0735640793322 382.40459195547913 505.83498782848613 382.40459195547913 503.0735640793322 C 382.40459195547913 500.31214033017824 384.6431682063252 498.0735640793322 387.40459195547913 498.0735640793322 C 390.1660157046331 498.0735640793322 392.40459195547913 500.31214033017824 392.40459195547913 503.0735640793322 Z" fill-opacity="1"/><path fill="none" stroke="rgb(0,0,0)" paint-order="fill stroke markers" d=" M 392.40459195547913 503.0735640793322 C 392.40459195547913 505.83498782848613 390.1660157046331 508.0735640793322 387.40459195547913 508.0735640793322 C 384.6431682063252 508.0735640793322 382.40459195547913 505.83498782848613 382.40459195547913 503.0735640793322 C 382.40459195547913 500.31214033017824 384.6431682063252 498.0735640793322 387.40459195547913 498.0735640793322 C 390.1660157046331 498.0735640793322 392.40459195547913 500.31214033017824 392.40459195547913 503.0735640793322 Z" stroke-opacity="1" stroke-linecap="round" stroke-linejoin="round" stroke-miterlimit="10"/><text fill="rgb(21,101,192)" stroke="none" font-family="geogebra-sans-serif, sans-serif" font-size="24px" font-style="normal" font-weight="normal" text-decoration="normal" x="352" y="529" text-anchor="start" dominant-baseline="alphabetic" fill-opacity="1">B</text><text fill="none" stroke="rgb(255,255,255)" font-family="geogebra-sans-serif, sans-serif" font-size="24px" font-style="normal" font-weight="normal" text-decoration="normal" x="352" y="529" text-anchor="start" dominant-baseline="alphabetic" stroke-opacity="1" stroke-linejoin="bevel" stroke-miterlimit="10" stroke-width="3">B</text><text fill="rgb(21,101,192)" stroke="none" font-family="geogebra-sans-serif, sans-serif" font-size="24px" font-style="normal" font-weight="normal" text-decoration="normal" x="352" y="529" text-anchor="start" dominant-baseline="alphabetic" fill-opacity="1">B</text><path fill="rgb(21,101,192)" stroke="none" paint-order="stroke fill markers" d=" M 893.2940107839878 505.76332263076637 C 893.2940107839878 508.5247463799203 891.0554345331418 510.76332263076637 888.2940107839878 510.76332263076637 C 885.5325870348338 510.76332263076637 883.2940107839878 508.5247463799203 883.2940107839878 505.76332263076637 C 883.2940107839878 503.0018988816124 885.5325870348338 500.76332263076637 888.2940107839878 500.76332263076637 C 891.0554345331418 500.76332263076637 893.2940107839878 503.0018988816124 893.2940107839878 505.76332263076637 Z" fill-opacity="1"/><path fill="none" stroke="rgb(0,0,0)" paint-order="fill stroke markers" d=" M 893.2940107839878 505.76332263076637 C 893.2940107839878 508.5247463799203 891.0554345331418 510.76332263076637 888.2940107839878 510.76332263076637 C 885.5325870348338 510.76332263076637 883.2940107839878 508.5247463799203 883.2940107839878 505.76332263076637 C 883.2940107839878 503.0018988816124 885.5325870348338 500.76332263076637 888.2940107839878 500.76332263076637 C 891.0554345331418 500.76332263076637 893.2940107839878 503.0018988816124 893.2940107839878 505.76332263076637 Z" stroke-opacity="1" stroke-linecap="round" stroke-linejoin="round" stroke-miterlimit="10"/><text fill="rgb(21,101,192)" stroke="none" font-family="geogebra-sans-serif, sans-serif" font-size="24px" font-style="normal" font-weight="normal" text-decoration="normal" x="921" y="545" text-anchor="start" dominant-baseline="alphabetic" fill-opacity="1">A</text><text fill="none" stroke="rgb(255,255,255)" font-family="geogebra-sans-serif, sans-serif" font-size="24px" font-style="normal" font-weight="normal" text-decoration="normal" x="921" y="545" text-anchor="start" dominant-baseline="alphabetic" stroke-opacity="1" stroke-linejoin="bevel" stroke-miterlimit="10" stroke-width="3">A</text><text fill="rgb(21,101,192)" stroke="none" font-family="geogebra-sans-serif, sans-serif" font-size="24px" font-style="normal" font-weight="normal" text-decoration="normal" x="921" y="545" text-anchor="start" dominant-baseline="alphabetic" fill-opacity="1">A</text><path fill="rgb(21,101,192)" stroke="none" paint-order="stroke fill markers" d=" M 800.2030651787984 99.864622622659 C 800.2030651787984 102.62604637181296 797.9644889279524 104.864622622659 795.2030651787984 104.864622622659 C 792.4416414296444 104.864622622659 790.2030651787984 102.62604637181296 790.2030651787984 99.864622622659 C 790.2030651787984 97.10319887350504 792.4416414296444 94.864622622659 795.2030651787984 94.864622622659 C 797.9644889279524 94.864622622659 800.2030651787984 97.10319887350504 800.2030651787984 99.864622622659 Z" fill-opacity="1"/><path fill="none" stroke="rgb(0,0,0)" paint-order="fill stroke markers" d=" M 800.2030651787984 99.864622622659 C 800.2030651787984 102.62604637181296 797.9644889279524 104.864622622659 795.2030651787984 104.864622622659 C 792.4416414296444 104.864622622659 790.2030651787984 102.62604637181296 790.2030651787984 99.864622622659 C 790.2030651787984 97.10319887350504 792.4416414296444 94.864622622659 795.2030651787984 94.864622622659 C 797.9644889279524 94.864622622659 800.2030651787984 97.10319887350504 800.2030651787984 99.864622622659 Z" stroke-opacity="1" stroke-linecap="round" stroke-linejoin="round" stroke-miterlimit="10"/><text fill="rgb(21,101,192)" stroke="none" font-family="geogebra-sans-serif, sans-serif" font-size="24px" font-style="normal" font-weight="normal" text-decoration="normal" x="807" y="88" text-anchor="start" dominant-baseline="alphabetic" fill-opacity="1">C</text><text fill="none" stroke="rgb(255,255,255)" font-family="geogebra-sans-serif, sans-serif" font-size="24px" font-style="normal" font-weight="normal" text-decoration="normal" x="807" y="88" text-anchor="start" dominant-baseline="alphabetic" stroke-opacity="1" stroke-linejoin="bevel" stroke-miterlimit="10" stroke-width="3">C</text><text fill="rgb(21,101,192)" stroke="none" font-family="geogebra-sans-serif, sans-serif" font-size="24px" font-style="normal" font-weight="normal" text-decoration="normal" x="807" y="88" text-anchor="start" dominant-baseline="alphabetic" fill-opacity="1">C</text><path fill="rgb(46,125,50)" stroke="none" paint-order="stroke fill markers" d=" M 642.1001151412137 643.9326218293534 C 642.1001151412137 646.6940455785074 639.8615388903677 648.9326218293534 637.1001151412137 648.9326218293534 C 634.3386913920597 648.9326218293534 632.1001151412137 646.6940455785074 632.1001151412137 643.9326218293534 C 632.1001151412137 641.1711980801994 634.3386913920597 638.9326218293534 637.1001151412137 638.9326218293534 C 639.8615388903677 638.9326218293534 642.1001151412137 641.1711980801994 642.1001151412137 643.9326218293534 Z" fill-opacity="1"/><path fill="none" stroke="rgb(0,0,0)" paint-order="fill stroke markers" d=" M 642.1001151412137 643.9326218293534 C 642.1001151412137 646.6940455785074 639.8615388903677 648.9326218293534 637.1001151412137 648.9326218293534 C 634.3386913920597 648.9326218293534 632.1001151412137 646.6940455785074 632.1001151412137 643.9326218293534 C 632.1001151412137 641.1711980801994 634.3386913920597 638.9326218293534 637.1001151412137 638.9326218293534 C 639.8615388903677 638.9326218293534 642.1001151412137 641.1711980801994 642.1001151412137 643.9326218293534 Z" stroke-opacity="1" stroke-linecap="round" stroke-linejoin="round" stroke-miterlimit="10"/><text fill="rgb(46,125,50)" stroke="none" font-family="geogebra-sans-serif, sans-serif" font-size="24px" font-style="normal" font-weight="normal" text-decoration="normal" x="657" y="679" text-anchor="start" dominant-baseline="alphabetic" fill-opacity="1">P</text><text fill="none" stroke="rgb(255,255,255)" font-family="geogebra-sans-serif, sans-serif" font-size="24px" font-style="normal" font-weight="normal" text-decoration="normal" x="657" y="679" text-anchor="start" dominant-baseline="alphabetic" stroke-opacity="1" stroke-linejoin="bevel" stroke-miterlimit="10" stroke-width="3">P</text><text fill="rgb(46,125,50)" stroke="none" font-family="geogebra-sans-serif, sans-serif" font-size="24px" font-style="normal" font-weight="normal" text-decoration="normal" x="657" y="679" text-anchor="start" dominant-baseline="alphabetic" fill-opacity="1">P</text><path fill="rgb(46,125,50)" stroke="none" paint-order="stroke fill markers" d=" M 642.8493013697334 504.41844335504925 C 642.8493013697334 507.1798671042032 640.6107251188874 509.41844335504925 637.8493013697334 509.41844335504925 C 635.0878776205794 509.41844335504925 632.8493013697334 507.1798671042032 632.8493013697334 504.41844335504925 C 632.8493013697334 501.6570196058953 635.0878776205794 499.41844335504925 637.8493013697334 499.41844335504925 C 640.6107251188874 499.41844335504925 642.8493013697334 501.6570196058953 642.8493013697334 504.41844335504925 Z" fill-opacity="1"/><path fill="none" stroke="rgb(0,0,0)" paint-order="fill stroke markers" d=" M 642.8493013697334 504.41844335504925 C 642.8493013697334 507.1798671042032 640.6107251188874 509.41844335504925 637.8493013697334 509.41844335504925 C 635.0878776205794 509.41844335504925 632.8493013697334 507.1798671042032 632.8493013697334 504.41844335504925 C 632.8493013697334 501.6570196058953 635.0878776205794 499.41844335504925 637.8493013697334 499.41844335504925 C 640.6107251188874 499.41844335504925 642.8493013697334 501.6570196058953 642.8493013697334 504.41844335504925 Z" stroke-opacity="1" stroke-linecap="round" stroke-linejoin="round" stroke-miterlimit="10"/></g></g></svg>