<svg version="1.1" xmlns="http://www.w3.org/2000/svg" xmlns:xlink="http://www.w3.org/1999/xlink" width="1310" height="704"><defs><clipPath id="SINZFVpGdlEu"><path fill="none" stroke="none" d=" M 0 0 L 1310 0 L 1310 704 L 0 704 L 0 0 Z"/></clipPath></defs><g transform="scale(1,1)" clip-path="url(#SINZFVpGdlEu)"><g><rect fill="rgb(255,255,255)" stroke="none" x="0" y="0" width="1310" height="704" fill-opacity="1"/><path fill="none" stroke="rgb(0,0,0)" paint-order="fill stroke markers" d=" M 939.2323231890236 349.3863636363635 C 939.2323231890236 512.0621156068021 807.3575701522564 643.9368686435694 644.681818181818 643.9368686435694 C 482.0060662113797 643.9368686435694 350.13131317461244 512.0621156068021 350.13131317461244 349.3863636363635 C 350.13131317461244 186.71061166592494 482.0060662113797 54.8358586291576 644.681818181818 54.8358586291576 C 807.3575701522564 54.8358586291576 939.2323231890236 186.71061166592494 939.2323231890236 349.3863636363635 Z" stroke-opacity="0.6980392156862745" stroke-linecap="round" stroke-linejoin="round" stroke-miterlimit="10" stroke-width="2.5"/><path fill="rgb(0,0,0)" stroke="none" paint-order="stroke fill markers" fill-rule="evenodd" d=" M 643.8493013697334 504.41844335504925 L 665.062198954439 504.53235586853896 L 665.1761114679302 483.31945828383186 L 643.9632138832231 483.2055457703436 L 643.8493013697334 504.41844335504925" fill-opacity="0.09803921568627451"/><path fill="none" stroke="rgb(0,0,0)" paint-order="fill stroke markers" d=" M 643.8493013697334 504.41844335504925 L 665.062198954439 504.53235586853896 L 665.1761114679302 483.31945828383186 L 643.9632138832231 483.2055457703436 L 643.8493013697334 504.41844335504925" stroke-opacity="0.6" stroke-linecap="round" stroke-linejoin="round" stroke-miterlimit="10" stroke-width="2.5"/><path fill="rgb(0,0,0)" stroke="none" paint-order="stroke fill markers" d=" M 772.7591872690066 127.98838142998886 C 777.5496461157998 132.83336774577782 783.4982942312106 136.3743949316786 790.0410391498641 138.27567799646246 L 801.2030651787984 99.864622622659 Z" fill-opacity="0.09803921568627451"/><path fill="none" stroke="rgb(0,0,0)" paint-order="fill stroke markers" d=" M 772.7591872690066 127.98838142998886 C 777.5496461157998 132.83336774577782 783.4982942312106 136.3743949316786 790.0410391498641 138.27567799646246 L 801.2030651787984 99.864622622659 Z" stroke-opacity="0.6" stroke-linecap="round" stroke-linejoin="round" stroke-miterlimit="10" stroke-width="2.5"/><path fill="rgb(0,0,0)" stroke="none" paint-order="stroke fill markers" d=" M 792.8315456570976 128.67291415301162 C 797.7386043460878 130.0988764515995 802.9285761500055 130.2477627721306 807.909311603409 129.10545467122427 L 801.2030651787984 99.864622622659 Z" fill-opacity="0.09803921568627451"/><path fill="none" stroke="rgb(0,0,0)" paint-order="fill stroke markers" d=" M 792.8315456570976 128.67291415301162 C 797.7386043460878 130.0988764515995 802.9285761500055 130.2477627721306 807.909311603409 129.10545467122427 L 801.2030651787984 99.864622622659 Z" stroke-opacity="0.6" stroke-linecap="round" stroke-linejoin="round" stroke-miterlimit="10" stroke-width="2.5"/><path fill="none" stroke="rgb(0,0,0)" paint-order="fill stroke markers" d=" M 642.7507056103373 709 L 646.5848604827155 -5" stroke-opacity="0.6980392156862745" stroke-linecap="round" stroke-linejoin="round" stroke-miterlimit="10" stroke-width="2.5"/><path fill="none" stroke="rgb(0,0,0)" paint-order="fill stroke markers" d=" M 393.40459195547913 503.0735640793322 L 894.2940107839878 505.76332263076637" stroke-opacity="0.6980392156862745" stroke-linecap="round" stroke-linejoin="round" stroke-miterlimit="10" stroke-width="2.5"/><path fill="none" stroke="rgb(0,0,0)" paint-order="fill stroke markers" d=" M 894.2940107839878 505.76332263076637 L 801.2030651787984 99.864622622659" stroke-opacity="0.6980392156862745" stroke-linecap="round" stroke-linejoin="round" stroke-miterlimit="10" stroke-width="2.5"/><path fill="none" stroke="rgb(0,0,0)" paint-order="fill stroke markers" d=" M 801.2030651787984 99.864622622659 L 393.40459195547913 503.0735640793322" stroke-opacity="0.6980392156862745" stroke-linecap="round" stroke-linejoin="round" stroke-miterlimit="10" stroke-width="2.5"/><path fill="none" stroke="rgb(0,0,0)" paint-order="fill stroke markers" d=" M 643.1001151412137 643.9326218293534 L 801.2030651787984 99.864622622659" stroke-opacity="0.6980392156862745" stroke-linecap="round" stroke-linejoin="round" stroke-miterlimit="10" stroke-width="2.5"/><path fill="rgb(211,47,47)" stroke="none" paint-order="stroke fill markers" d=" M 649.681818181818 349.3863636363635 C 649.681818181818 352.14778738551746 647.443241930972 354.3863636363635 644.681818181818 354.3863636363635 C 641.920394432664 354.3863636363635 639.681818181818 352.14778738551746 639.681818181818 349.3863636363635 C 639.681818181818 346.62493988720956 641.920394432664 344.3863636363635 644.681818181818 344.3863636363635 C 647.443241930972 344.3863636363635 649.681818181818 346.62493988720956 649.681818181818 349.3863636363635 Z" fill-opacity="1"/><path fill="none" stroke="rgb(0,0,0)" paint-order="fill stroke markers" d=" M 649.681818181818 349.3863636363635 C 649.681818181818 352.14778738551746 647.443241930972 354.3863636363635 644.681818181818 354.3863636363635 C 641.920394432664 354.3863636363635 639.681818181818 352.14778738551746 639.681818181818 349.3863636363635 C 639.681818181818 346.62493988720956 641.920394432664 344.3863636363635 644.681818181818 344.3863636363635 C 647.443241930972 344.3863636363635 649.681818181818 346.62493988720956 649.681818181818 349.3863636363635 Z" stroke-opacity="1" stroke-linecap="round" stroke-linejoin="round" stroke-miterlimit="10"/><text fill="rgb(211,47,47)" stroke="none" font-family="geogebra-sans-serif, sans-serif" font-size="24px" font-style="normal" font-weight="normal" text-decoration="normal" x="635" y="387" text-anchor="start" dominant-baseline="alphabetic" fill-opacity="1">O</text><text fill="none" stroke="rgb(255,255,255)" font-family="geogebra-sans-serif, sans-serif" font-size="24px" font-style="normal" font-weight="normal" text-decoration="normal" x="635" y="387" text-anchor="start" dominant-baseline="alphabetic" stroke-opacity="1" stroke-linejoin="bevel" stroke-miterlimit="10" stroke-width="3">O</text><text fill="rgb(211,47,47)" stroke="none" font-family="geogebra-sans-serif, sans-serif" font-size="24px" font-style="normal" font-weight="normal" text-decoration="normal" x="635" y="387" text-anchor="start" dominant-baseline="alphabetic" fill-opacity="1">O</text><path fill="rgb(21,101,192)" stroke="none" paint-order="stroke fill markers" d=" M 398.40459195547913 503.0735640793322 C 398.40459195547913 505.83498782848613 396.1660157046331 508.0735640793322 393.40459195547913 508.0735640793322 C 390.6431682063252 508.0735640793322 388.40459195547913 505.83498782848613 388.40459195547913 503.0735640793322 C 388.40459195547913 500.31214033017824 390.6431682063252 498.0735640793322 393.40459195547913 498.0735640793322 C 396.1660157046331 498.0735640793322 398.40459195547913 500.31214033017824 398.40459195547913 503.0735640793322 Z" fill-opacity="1"/><path fill="none" stroke="rgb(0,0,0)" paint-order="fill stroke markers" d=" M 398.40459195547913 503.0735640793322 C 398.40459195547913 505.83498782848613 396.1660157046331 508.0735640793322 393.40459195547913 508.0735640793322 C 390.6431682063252 508.0735640793322 388.40459195547913 505.83498782848613 388.40459195547913 503.0735640793322 C 388.40459195547913 500.31214033017824 390.6431682063252 498.0735640793322 393.40459195547913 498.0735640793322 C 396.1660157046331 498.0735640793322 398.40459195547913 500.31214033017824 398.40459195547913 503.0735640793322 Z" stroke-opacity="1" stroke-linecap="round" stroke-linejoin="round" stroke-miterlimit="10"/><text fill="rgb(21,101,192)" stroke="none" font-family="geogebra-sans-serif, sans-serif" font-size="24px" font-style="normal" font-weight="normal" text-decoration="normal" x="356" y="538" text-anchor="start" dominant-baseline="alphabetic" fill-opacity="1">B</text><text fill="none" stroke="rgb(255,255,255)" font-family="geogebra-sans-serif, sans-serif" font-size="24px" font-style="normal" font-weight="normal" text-decoration="normal" x="356" y="538" text-anchor="start" dominant-baseline="alphabetic" stroke-opacity="1" stroke-linejoin="bevel" stroke-miterlimit="10" stroke-width="3">B</text><text fill="rgb(21,101,192)" stroke="none" font-family="geogebra-sans-serif, sans-serif" font-size="24px" font-style="normal" font-weight="normal" text-decoration="normal" x="356" y="538" text-anchor="start" dominant-baseline="alphabetic" fill-opacity="1">B</text><path fill="rgb(21,101,192)" stroke="none" paint-order="stroke fill markers" d=" M 899.2940107839878 505.76332263076637 C 899.2940107839878 508.5247463799203 897.0554345331418 510.76332263076637 894.2940107839878 510.76332263076637 C 891.5325870348338 510.76332263076637 889.2940107839878 508.5247463799203 889.2940107839878 505.76332263076637 C 889.2940107839878 503.0018988816124 891.5325870348338 500.76332263076637 894.2940107839878 500.76332263076637 C 897.0554345331418 500.76332263076637 899.2940107839878 503.0018988816124 899.2940107839878 505.76332263076637 Z" fill-opacity="1"/><path fill="none" stroke="rgb(0,0,0)" paint-order="fill stroke markers" d=" M 899.2940107839878 505.76332263076637 C 899.2940107839878 508.5247463799203 897.0554345331418 510.76332263076637 894.2940107839878 510.76332263076637 C 891.5325870348338 510.76332263076637 889.2940107839878 508.5247463799203 889.2940107839878 505.76332263076637 C 889.2940107839878 503.0018988816124 891.5325870348338 500.76332263076637 894.2940107839878 500.76332263076637 C 897.0554345331418 500.76332263076637 899.2940107839878 503.0018988816124 899.2940107839878 505.76332263076637 Z" stroke-opacity="1" stroke-linecap="round" stroke-linejoin="round" stroke-miterlimit="10"/><text fill="rgb(21,101,192)" stroke="none" font-family="geogebra-sans-serif, sans-serif" font-size="24px" font-style="normal" font-weight="normal" text-decoration="normal" x="917" y="534" text-anchor="start" dominant-baseline="alphabetic" fill-opacity="1">A</text><text fill="none" stroke="rgb(255,255,255)" font-family="geogebra-sans-serif, sans-serif" font-size="24px" font-style="normal" font-weight="normal" text-decoration="normal" x="917" y="534" text-anchor="start" dominant-baseline="alphabetic" stroke-opacity="1" stroke-linejoin="bevel" stroke-miterlimit="10" stroke-width="3">A</text><text fill="rgb(21,101,192)" stroke="none" font-family="geogebra-sans-serif, sans-serif" font-size="24px" font-style="normal" font-weight="normal" text-decoration="normal" x="917" y="534" text-anchor="start" dominant-baseline="alphabetic" fill-opacity="1">A</text><path fill="rgb(21,101,192)" stroke="none" paint-order="stroke fill markers" d=" M 806.2030651787984 99.864622622659 C 806.2030651787984 102.62604637181296 803.9644889279524 104.864622622659 801.2030651787984 104.864622622659 C 798.4416414296444 104.864622622659 796.2030651787984 102.62604637181296 796.2030651787984 99.864622622659 C 796.2030651787984 97.10319887350504 798.4416414296444 94.864622622659 801.2030651787984 94.864622622659 C 803.9644889279524 94.864622622659 806.2030651787984 97.10319887350504 806.2030651787984 99.864622622659 Z" fill-opacity="1"/><path fill="none" stroke="rgb(0,0,0)" paint-order="fill stroke markers" d=" M 806.2030651787984 99.864622622659 C 806.2030651787984 102.62604637181296 803.9644889279524 104.864622622659 801.2030651787984 104.864622622659 C 798.4416414296444 104.864622622659 796.2030651787984 102.62604637181296 796.2030651787984 99.864622622659 C 796.2030651787984 97.10319887350504 798.4416414296444 94.864622622659 801.2030651787984 94.864622622659 C 803.9644889279524 94.864622622659 806.2030651787984 97.10319887350504 806.2030651787984 99.864622622659 Z" stroke-opacity="1" stroke-linecap="round" stroke-linejoin="round" stroke-miterlimit="10"/><text fill="rgb(21,101,192)" stroke="none" font-family="geogebra-sans-serif, sans-serif" font-size="24px" font-style="normal" font-weight="normal" text-decoration="normal" x="813" y="88" text-anchor="start" dominant-baseline="alphabetic" fill-opacity="1">C</text><text fill="none" stroke="rgb(255,255,255)" font-family="geogebra-sans-serif, sans-serif" font-size="24px" font-style="normal" font-weight="normal" text-decoration="normal" x="813" y="88" text-anchor="start" dominant-baseline="alphabetic" stroke-opacity="1" stroke-linejoin="bevel" stroke-miterlimit="10" stroke-width="3">C</text><text fill="rgb(21,101,192)" stroke="none" font-family="geogebra-sans-serif, sans-serif" font-size="24px" font-style="normal" font-weight="normal" text-decoration="normal" x="813" y="88" text-anchor="start" dominant-baseline="alphabetic" fill-opacity="1">C</text><path fill="rgb(46,125,50)" stroke="none" paint-order="stroke fill markers" d=" M 648.1001151412137 643.9326218293534 C 648.1001151412137 646.6940455785074 645.8615388903677 648.9326218293534 643.1001151412137 648.9326218293534 C 640.3386913920597 648.9326218293534 638.1001151412137 646.6940455785074 638.1001151412137 643.9326218293534 C 638.1001151412137 641.1711980801994 640.3386913920597 638.9326218293534 643.1001151412137 638.9326218293534 C 645.8615388903677 638.9326218293534 648.1001151412137 641.1711980801994 648.1001151412137 643.9326218293534 Z" fill-opacity="1"/><path fill="none" stroke="rgb(0,0,0)" paint-order="fill stroke markers" d=" M 648.1001151412137 643.9326218293534 C 648.1001151412137 646.6940455785074 645.8615388903677 648.9326218293534 643.1001151412137 648.9326218293534 C 640.3386913920597 648.9326218293534 638.1001151412137 646.6940455785074 638.1001151412137 643.9326218293534 C 638.1001151412137 641.1711980801994 640.3386913920597 638.9326218293534 643.1001151412137 638.9326218293534 C 645.8615388903677 638.9326218293534 648.1001151412137 641.1711980801994 648.1001151412137 643.9326218293534 Z" stroke-opacity="1" stroke-linecap="round" stroke-linejoin="round" stroke-miterlimit="10"/><text fill="rgb(46,125,50)" stroke="none" font-family="geogebra-sans-serif, sans-serif" font-size="24px" font-style="normal" font-weight="normal" text-decoration="normal" x="663" y="679" text-anchor="start" dominant-baseline="alphabetic" fill-opacity="1">P</text><text fill="none" stroke="rgb(255,255,255)" font-family="geogebra-sans-serif, sans-serif" font-size="24px" font-style="normal" font-weight="normal" text-decoration="normal" x="663" y="679" text-anchor="start" dominant-baseline="alphabetic" stroke-opacity="1" stroke-linejoin="bevel" stroke-miterlimit="10" stroke-width="3">P</text><text fill="rgb(46,125,50)" stroke="none" font-family="geogebra-sans-serif, sans-serif" font-size="24px" font-style="normal" font-weight="normal" text-decoration="normal" x="663" y="679" text-anchor="start" dominant-baseline="alphabetic" fill-opacity="1">P</text><path fill="rgb(46,125,50)" stroke="none" paint-order="stroke fill markers" d=" M 648.8493013697334 504.41844335504925 C 648.8493013697334 507.1798671042032 646.6107251188874 509.41844335504925 643.8493013697334 509.41844335504925 C 641.0878776205794 509.41844335504925 638.8493013697334 507.1798671042032 638.8493013697334 504.41844335504925 C 638.8493013697334 501.6570196058953 641.0878776205794 499.41844335504925 643.8493013697334 499.41844335504925 C 646.6107251188874 499.41844335504925 648.8493013697334 501.6570196058953 648.8493013697334 504.41844335504925 Z" fill-opacity="1"/><path fill="none" stroke="rgb(0,0,0)" paint-order="fill stroke markers" d=" M 648.8493013697334 504.41844335504925 C 648.8493013697334 507.1798671042032 646.6107251188874 509.41844335504925 643.8493013697334 509.41844335504925 C 641.0878776205794 509.41844335504925 638.8493013697334 507.1798671042032 638.8493013697334 504.41844335504925 C 638.8493013697334 501.6570196058953 641.0878776205794 499.41844335504925 643.8493013697334 499.41844335504925 C 646.6107251188874 499.41844335504925 648.8493013697334 501.6570196058953 648.8493013697334 504.41844335504925 Z" stroke-opacity="1" stroke-linecap="round" stroke-linejoin="round" stroke-miterlimit="10"/></g></g></svg>