<?xml version="1.0" encoding="UTF-8"?>
<svg xmlns="http://www.w3.org/2000/svg" xmlns:xlink="http://www.w3.org/1999/xlink" width="1366pt" height="565pt" viewBox="0 0 1366 565" version="1.1">
<g id="surface1">
<path style="fill:none;stroke-width:1;stroke-linecap:square;stroke-linejoin:miter;stroke:rgb(89.411926%,89.411926%,89.411926%);stroke-opacity:1;stroke-miterlimit:10;" d="M 8 565 L 8 0 " transform="matrix(1,0,0,-1,0,565)"/>
<path style="fill:none;stroke-width:1;stroke-linecap:square;stroke-linejoin:miter;stroke:rgb(89.411926%,89.411926%,89.411926%);stroke-opacity:1;stroke-miterlimit:10;" d="M 39 565 L 39 0 " transform="matrix(1,0,0,-1,0,565)"/>
<path style="fill:none;stroke-width:1;stroke-linecap:square;stroke-linejoin:miter;stroke:rgb(89.411926%,89.411926%,89.411926%);stroke-opacity:1;stroke-miterlimit:10;" d="M 71 565 L 71 0 " transform="matrix(1,0,0,-1,0,565)"/>
<path style="fill:none;stroke-width:1;stroke-linecap:square;stroke-linejoin:miter;stroke:rgb(89.411926%,89.411926%,89.411926%);stroke-opacity:1;stroke-miterlimit:10;" d="M 103 565 L 103 0 " transform="matrix(1,0,0,-1,0,565)"/>
<path style="fill:none;stroke-width:1;stroke-linecap:square;stroke-linejoin:miter;stroke:rgb(89.411926%,89.411926%,89.411926%);stroke-opacity:1;stroke-miterlimit:10;" d="M 135 565 L 135 0 " transform="matrix(1,0,0,-1,0,565)"/>
<path style="fill:none;stroke-width:1;stroke-linecap:square;stroke-linejoin:miter;stroke:rgb(89.411926%,89.411926%,89.411926%);stroke-opacity:1;stroke-miterlimit:10;" d="M 167 565 L 167 0 " transform="matrix(1,0,0,-1,0,565)"/>
<path style="fill:none;stroke-width:1;stroke-linecap:square;stroke-linejoin:miter;stroke:rgb(89.411926%,89.411926%,89.411926%);stroke-opacity:1;stroke-miterlimit:10;" d="M 198 565 L 198 0 " transform="matrix(1,0,0,-1,0,565)"/>
<path style="fill:none;stroke-width:1;stroke-linecap:square;stroke-linejoin:miter;stroke:rgb(89.411926%,89.411926%,89.411926%);stroke-opacity:1;stroke-miterlimit:10;" d="M 230 565 L 230 0 " transform="matrix(1,0,0,-1,0,565)"/>
<path style="fill:none;stroke-width:1;stroke-linecap:square;stroke-linejoin:miter;stroke:rgb(89.411926%,89.411926%,89.411926%);stroke-opacity:1;stroke-miterlimit:10;" d="M 262 565 L 262 0 " transform="matrix(1,0,0,-1,0,565)"/>
<path style="fill:none;stroke-width:1;stroke-linecap:square;stroke-linejoin:miter;stroke:rgb(89.411926%,89.411926%,89.411926%);stroke-opacity:1;stroke-miterlimit:10;" d="M 294 565 L 294 0 " transform="matrix(1,0,0,-1,0,565)"/>
<path style="fill:none;stroke-width:1;stroke-linecap:square;stroke-linejoin:miter;stroke:rgb(89.411926%,89.411926%,89.411926%);stroke-opacity:1;stroke-miterlimit:10;" d="M 326 565 L 326 0 " transform="matrix(1,0,0,-1,0,565)"/>
<path style="fill:none;stroke-width:1;stroke-linecap:square;stroke-linejoin:miter;stroke:rgb(89.411926%,89.411926%,89.411926%);stroke-opacity:1;stroke-miterlimit:10;" d="M 358 565 L 358 0 " transform="matrix(1,0,0,-1,0,565)"/>
<path style="fill:none;stroke-width:1;stroke-linecap:square;stroke-linejoin:miter;stroke:rgb(89.411926%,89.411926%,89.411926%);stroke-opacity:1;stroke-miterlimit:10;" d="M 389 565 L 389 0 " transform="matrix(1,0,0,-1,0,565)"/>
<path style="fill:none;stroke-width:1;stroke-linecap:square;stroke-linejoin:miter;stroke:rgb(89.411926%,89.411926%,89.411926%);stroke-opacity:1;stroke-miterlimit:10;" d="M 421 565 L 421 0 " transform="matrix(1,0,0,-1,0,565)"/>
<path style="fill:none;stroke-width:1;stroke-linecap:square;stroke-linejoin:miter;stroke:rgb(89.411926%,89.411926%,89.411926%);stroke-opacity:1;stroke-miterlimit:10;" d="M 453 565 L 453 0 " transform="matrix(1,0,0,-1,0,565)"/>
<path style="fill:none;stroke-width:1;stroke-linecap:square;stroke-linejoin:miter;stroke:rgb(89.411926%,89.411926%,89.411926%);stroke-opacity:1;stroke-miterlimit:10;" d="M 485 565 L 485 0 " transform="matrix(1,0,0,-1,0,565)"/>
<path style="fill:none;stroke-width:1;stroke-linecap:square;stroke-linejoin:miter;stroke:rgb(89.411926%,89.411926%,89.411926%);stroke-opacity:1;stroke-miterlimit:10;" d="M 517 565 L 517 0 " transform="matrix(1,0,0,-1,0,565)"/>
<path style="fill:none;stroke-width:1;stroke-linecap:square;stroke-linejoin:miter;stroke:rgb(89.411926%,89.411926%,89.411926%);stroke-opacity:1;stroke-miterlimit:10;" d="M 548 565 L 548 0 " transform="matrix(1,0,0,-1,0,565)"/>
<path style="fill:none;stroke-width:1;stroke-linecap:square;stroke-linejoin:miter;stroke:rgb(89.411926%,89.411926%,89.411926%);stroke-opacity:1;stroke-miterlimit:10;" d="M 580 565 L 580 0 " transform="matrix(1,0,0,-1,0,565)"/>
<path style="fill:none;stroke-width:1;stroke-linecap:square;stroke-linejoin:miter;stroke:rgb(89.411926%,89.411926%,89.411926%);stroke-opacity:1;stroke-miterlimit:10;" d="M 612 565 L 612 0 " transform="matrix(1,0,0,-1,0,565)"/>
<path style="fill:none;stroke-width:1;stroke-linecap:square;stroke-linejoin:miter;stroke:rgb(89.411926%,89.411926%,89.411926%);stroke-opacity:1;stroke-miterlimit:10;" d="M 644 565 L 644 0 " transform="matrix(1,0,0,-1,0,565)"/>
<path style="fill:none;stroke-width:1;stroke-linecap:square;stroke-linejoin:miter;stroke:rgb(89.411926%,89.411926%,89.411926%);stroke-opacity:1;stroke-miterlimit:10;" d="M 676 565 L 676 0 " transform="matrix(1,0,0,-1,0,565)"/>
<path style="fill:none;stroke-width:1;stroke-linecap:square;stroke-linejoin:miter;stroke:rgb(89.411926%,89.411926%,89.411926%);stroke-opacity:1;stroke-miterlimit:10;" d="M 707 565 L 707 0 " transform="matrix(1,0,0,-1,0,565)"/>
<path style="fill:none;stroke-width:1;stroke-linecap:square;stroke-linejoin:miter;stroke:rgb(89.411926%,89.411926%,89.411926%);stroke-opacity:1;stroke-miterlimit:10;" d="M 739 565 L 739 0 " transform="matrix(1,0,0,-1,0,565)"/>
<path style="fill:none;stroke-width:1;stroke-linecap:square;stroke-linejoin:miter;stroke:rgb(89.411926%,89.411926%,89.411926%);stroke-opacity:1;stroke-miterlimit:10;" d="M 771 565 L 771 0 " transform="matrix(1,0,0,-1,0,565)"/>
<path style="fill:none;stroke-width:1;stroke-linecap:square;stroke-linejoin:miter;stroke:rgb(89.411926%,89.411926%,89.411926%);stroke-opacity:1;stroke-miterlimit:10;" d="M 803 565 L 803 0 " transform="matrix(1,0,0,-1,0,565)"/>
<path style="fill:none;stroke-width:1;stroke-linecap:square;stroke-linejoin:miter;stroke:rgb(89.411926%,89.411926%,89.411926%);stroke-opacity:1;stroke-miterlimit:10;" d="M 835 565 L 835 0 " transform="matrix(1,0,0,-1,0,565)"/>
<path style="fill:none;stroke-width:1;stroke-linecap:square;stroke-linejoin:miter;stroke:rgb(89.411926%,89.411926%,89.411926%);stroke-opacity:1;stroke-miterlimit:10;" d="M 867 565 L 867 0 " transform="matrix(1,0,0,-1,0,565)"/>
<path style="fill:none;stroke-width:1;stroke-linecap:square;stroke-linejoin:miter;stroke:rgb(89.411926%,89.411926%,89.411926%);stroke-opacity:1;stroke-miterlimit:10;" d="M 898 565 L 898 0 " transform="matrix(1,0,0,-1,0,565)"/>
<path style="fill:none;stroke-width:1;stroke-linecap:square;stroke-linejoin:miter;stroke:rgb(89.411926%,89.411926%,89.411926%);stroke-opacity:1;stroke-miterlimit:10;" d="M 930 565 L 930 0 " transform="matrix(1,0,0,-1,0,565)"/>
<path style="fill:none;stroke-width:1;stroke-linecap:square;stroke-linejoin:miter;stroke:rgb(89.411926%,89.411926%,89.411926%);stroke-opacity:1;stroke-miterlimit:10;" d="M 962 565 L 962 0 " transform="matrix(1,0,0,-1,0,565)"/>
<path style="fill:none;stroke-width:1;stroke-linecap:square;stroke-linejoin:miter;stroke:rgb(89.411926%,89.411926%,89.411926%);stroke-opacity:1;stroke-miterlimit:10;" d="M 994 565 L 994 0 " transform="matrix(1,0,0,-1,0,565)"/>
<path style="fill:none;stroke-width:1;stroke-linecap:square;stroke-linejoin:miter;stroke:rgb(89.411926%,89.411926%,89.411926%);stroke-opacity:1;stroke-miterlimit:10;" d="M 1026 565 L 1026 0 " transform="matrix(1,0,0,-1,0,565)"/>
<path style="fill:none;stroke-width:1;stroke-linecap:square;stroke-linejoin:miter;stroke:rgb(89.411926%,89.411926%,89.411926%);stroke-opacity:1;stroke-miterlimit:10;" d="M 1057 565 L 1057 0 " transform="matrix(1,0,0,-1,0,565)"/>
<path style="fill:none;stroke-width:1;stroke-linecap:square;stroke-linejoin:miter;stroke:rgb(89.411926%,89.411926%,89.411926%);stroke-opacity:1;stroke-miterlimit:10;" d="M 1089 565 L 1089 0 " transform="matrix(1,0,0,-1,0,565)"/>
<path style="fill:none;stroke-width:1;stroke-linecap:square;stroke-linejoin:miter;stroke:rgb(89.411926%,89.411926%,89.411926%);stroke-opacity:1;stroke-miterlimit:10;" d="M 1121 565 L 1121 0 " transform="matrix(1,0,0,-1,0,565)"/>
<path style="fill:none;stroke-width:1;stroke-linecap:square;stroke-linejoin:miter;stroke:rgb(89.411926%,89.411926%,89.411926%);stroke-opacity:1;stroke-miterlimit:10;" d="M 1153 565 L 1153 0 " transform="matrix(1,0,0,-1,0,565)"/>
<path style="fill:none;stroke-width:1;stroke-linecap:square;stroke-linejoin:miter;stroke:rgb(89.411926%,89.411926%,89.411926%);stroke-opacity:1;stroke-miterlimit:10;" d="M 1185 565 L 1185 0 " transform="matrix(1,0,0,-1,0,565)"/>
<path style="fill:none;stroke-width:1;stroke-linecap:square;stroke-linejoin:miter;stroke:rgb(89.411926%,89.411926%,89.411926%);stroke-opacity:1;stroke-miterlimit:10;" d="M 1216 565 L 1216 0 " transform="matrix(1,0,0,-1,0,565)"/>
<path style="fill:none;stroke-width:1;stroke-linecap:square;stroke-linejoin:miter;stroke:rgb(89.411926%,89.411926%,89.411926%);stroke-opacity:1;stroke-miterlimit:10;" d="M 1248 565 L 1248 0 " transform="matrix(1,0,0,-1,0,565)"/>
<path style="fill:none;stroke-width:1;stroke-linecap:square;stroke-linejoin:miter;stroke:rgb(89.411926%,89.411926%,89.411926%);stroke-opacity:1;stroke-miterlimit:10;" d="M 1280 565 L 1280 0 " transform="matrix(1,0,0,-1,0,565)"/>
<path style="fill:none;stroke-width:1;stroke-linecap:square;stroke-linejoin:miter;stroke:rgb(89.411926%,89.411926%,89.411926%);stroke-opacity:1;stroke-miterlimit:10;" d="M 1312 565 L 1312 0 " transform="matrix(1,0,0,-1,0,565)"/>
<path style="fill:none;stroke-width:1;stroke-linecap:square;stroke-linejoin:miter;stroke:rgb(89.411926%,89.411926%,89.411926%);stroke-opacity:1;stroke-miterlimit:10;" d="M 1344 565 L 1344 0 " transform="matrix(1,0,0,-1,0,565)"/>
<path style="fill:none;stroke-width:1;stroke-linecap:square;stroke-linejoin:miter;stroke:rgb(89.411926%,89.411926%,89.411926%);stroke-opacity:1;stroke-miterlimit:10;" d="M 0 545 L 1366 545 " transform="matrix(1,0,0,-1,0,565)"/>
<path style="fill:none;stroke-width:1;stroke-linecap:square;stroke-linejoin:miter;stroke:rgb(89.411926%,89.411926%,89.411926%);stroke-opacity:1;stroke-miterlimit:10;" d="M 0 513 L 1366 513 " transform="matrix(1,0,0,-1,0,565)"/>
<path style="fill:none;stroke-width:1;stroke-linecap:square;stroke-linejoin:miter;stroke:rgb(89.411926%,89.411926%,89.411926%);stroke-opacity:1;stroke-miterlimit:10;" d="M 0 481 L 1366 481 " transform="matrix(1,0,0,-1,0,565)"/>
<path style="fill:none;stroke-width:1;stroke-linecap:square;stroke-linejoin:miter;stroke:rgb(89.411926%,89.411926%,89.411926%);stroke-opacity:1;stroke-miterlimit:10;" d="M 0 449 L 1366 449 " transform="matrix(1,0,0,-1,0,565)"/>
<path style="fill:none;stroke-width:1;stroke-linecap:square;stroke-linejoin:miter;stroke:rgb(89.411926%,89.411926%,89.411926%);stroke-opacity:1;stroke-miterlimit:10;" d="M 0 418 L 1366 418 " transform="matrix(1,0,0,-1,0,565)"/>
<path style="fill:none;stroke-width:1;stroke-linecap:square;stroke-linejoin:miter;stroke:rgb(89.411926%,89.411926%,89.411926%);stroke-opacity:1;stroke-miterlimit:10;" d="M 0 386 L 1366 386 " transform="matrix(1,0,0,-1,0,565)"/>
<path style="fill:none;stroke-width:1;stroke-linecap:square;stroke-linejoin:miter;stroke:rgb(89.411926%,89.411926%,89.411926%);stroke-opacity:1;stroke-miterlimit:10;" d="M 0 354 L 1366 354 " transform="matrix(1,0,0,-1,0,565)"/>
<path style="fill:none;stroke-width:1;stroke-linecap:square;stroke-linejoin:miter;stroke:rgb(89.411926%,89.411926%,89.411926%);stroke-opacity:1;stroke-miterlimit:10;" d="M 0 322 L 1366 322 " transform="matrix(1,0,0,-1,0,565)"/>
<path style="fill:none;stroke-width:1;stroke-linecap:square;stroke-linejoin:miter;stroke:rgb(89.411926%,89.411926%,89.411926%);stroke-opacity:1;stroke-miterlimit:10;" d="M 0 290 L 1366 290 " transform="matrix(1,0,0,-1,0,565)"/>
<path style="fill:none;stroke-width:1;stroke-linecap:square;stroke-linejoin:miter;stroke:rgb(89.411926%,89.411926%,89.411926%);stroke-opacity:1;stroke-miterlimit:10;" d="M 0 259 L 1366 259 " transform="matrix(1,0,0,-1,0,565)"/>
<path style="fill:none;stroke-width:1;stroke-linecap:square;stroke-linejoin:miter;stroke:rgb(89.411926%,89.411926%,89.411926%);stroke-opacity:1;stroke-miterlimit:10;" d="M 0 227 L 1366 227 " transform="matrix(1,0,0,-1,0,565)"/>
<path style="fill:none;stroke-width:1;stroke-linecap:square;stroke-linejoin:miter;stroke:rgb(89.411926%,89.411926%,89.411926%);stroke-opacity:1;stroke-miterlimit:10;" d="M 0 195 L 1366 195 " transform="matrix(1,0,0,-1,0,565)"/>
<path style="fill:none;stroke-width:1;stroke-linecap:square;stroke-linejoin:miter;stroke:rgb(89.411926%,89.411926%,89.411926%);stroke-opacity:1;stroke-miterlimit:10;" d="M 0 163 L 1366 163 " transform="matrix(1,0,0,-1,0,565)"/>
<path style="fill:none;stroke-width:1;stroke-linecap:square;stroke-linejoin:miter;stroke:rgb(89.411926%,89.411926%,89.411926%);stroke-opacity:1;stroke-miterlimit:10;" d="M 0 131 L 1366 131 " transform="matrix(1,0,0,-1,0,565)"/>
<path style="fill:none;stroke-width:1;stroke-linecap:square;stroke-linejoin:miter;stroke:rgb(89.411926%,89.411926%,89.411926%);stroke-opacity:1;stroke-miterlimit:10;" d="M 0 99 L 1366 99 " transform="matrix(1,0,0,-1,0,565)"/>
<path style="fill:none;stroke-width:1;stroke-linecap:square;stroke-linejoin:miter;stroke:rgb(89.411926%,89.411926%,89.411926%);stroke-opacity:1;stroke-miterlimit:10;" d="M 0 68 L 1366 68 " transform="matrix(1,0,0,-1,0,565)"/>
<path style="fill:none;stroke-width:1;stroke-linecap:square;stroke-linejoin:miter;stroke:rgb(89.411926%,89.411926%,89.411926%);stroke-opacity:1;stroke-miterlimit:10;" d="M 0 36 L 1366 36 " transform="matrix(1,0,0,-1,0,565)"/>
<path style="fill:none;stroke-width:1;stroke-linecap:square;stroke-linejoin:miter;stroke:rgb(89.411926%,89.411926%,89.411926%);stroke-opacity:1;stroke-miterlimit:10;" d="M 0 4 L 1366 4 " transform="matrix(1,0,0,-1,0,565)"/>
<path style="fill:none;stroke-width:1;stroke-linecap:square;stroke-linejoin:miter;stroke:rgb(79.606628%,79.606628%,79.606628%);stroke-opacity:1;stroke-miterlimit:10;" d="M 358 564 L 358 0 " transform="matrix(1,0,0,-1,0,565)"/>
<path style="fill:none;stroke-width:1;stroke-linecap:square;stroke-linejoin:miter;stroke:rgb(79.606628%,79.606628%,79.606628%);stroke-opacity:1;stroke-miterlimit:10;" d="M 357 564 L 357 0 " transform="matrix(1,0,0,-1,0,565)"/>
<path style="fill:none;stroke-width:1;stroke-linecap:square;stroke-linejoin:miter;stroke:rgb(79.606628%,79.606628%,79.606628%);stroke-opacity:1;stroke-miterlimit:10;" d="M 359 564 L 359 0 " transform="matrix(1,0,0,-1,0,565)"/>
<path style="fill:none;stroke-width:1;stroke-linecap:square;stroke-linejoin:miter;stroke:rgb(79.606628%,79.606628%,79.606628%);stroke-opacity:1;stroke-miterlimit:10;" d="M 353 560 L 358 565 " transform="matrix(1,0,0,-1,0,565)"/>
<path style="fill:none;stroke-width:1;stroke-linecap:square;stroke-linejoin:miter;stroke:rgb(79.606628%,79.606628%,79.606628%);stroke-opacity:1;stroke-miterlimit:10;" d="M 363 560 L 358 565 " transform="matrix(1,0,0,-1,0,565)"/>
<path style="fill:none;stroke-width:1;stroke-linecap:square;stroke-linejoin:miter;stroke:rgb(79.606628%,79.606628%,79.606628%);stroke-opacity:1;stroke-miterlimit:10;" d="M 353 559 L 358 564 " transform="matrix(1,0,0,-1,0,565)"/>
<path style="fill:none;stroke-width:1;stroke-linecap:square;stroke-linejoin:miter;stroke:rgb(79.606628%,79.606628%,79.606628%);stroke-opacity:1;stroke-miterlimit:10;" d="M 363 559 L 358 564 " transform="matrix(1,0,0,-1,0,565)"/>
<path style="fill:none;stroke-width:1;stroke-linecap:square;stroke-linejoin:miter;stroke:rgb(79.606628%,79.606628%,79.606628%);stroke-opacity:1;stroke-miterlimit:10;" d="M 0 99 L 1365 99 " transform="matrix(1,0,0,-1,0,565)"/>
<path style="fill:none;stroke-width:1;stroke-linecap:square;stroke-linejoin:miter;stroke:rgb(79.606628%,79.606628%,79.606628%);stroke-opacity:1;stroke-miterlimit:10;" d="M 0 100 L 1365 100 " transform="matrix(1,0,0,-1,0,565)"/>
<path style="fill:none;stroke-width:1;stroke-linecap:square;stroke-linejoin:miter;stroke:rgb(79.606628%,79.606628%,79.606628%);stroke-opacity:1;stroke-miterlimit:10;" d="M 0 98 L 1365 98 " transform="matrix(1,0,0,-1,0,565)"/>
<path style="fill:none;stroke-width:1;stroke-linecap:square;stroke-linejoin:miter;stroke:rgb(79.606628%,79.606628%,79.606628%);stroke-opacity:1;stroke-miterlimit:10;" d="M 1361 104 L 1366 99 " transform="matrix(1,0,0,-1,0,565)"/>
<path style="fill:none;stroke-width:1;stroke-linecap:square;stroke-linejoin:miter;stroke:rgb(79.606628%,79.606628%,79.606628%);stroke-opacity:1;stroke-miterlimit:10;" d="M 1361 94 L 1366 99 " transform="matrix(1,0,0,-1,0,565)"/>
<path style="fill:none;stroke-width:1;stroke-linecap:square;stroke-linejoin:miter;stroke:rgb(79.606628%,79.606628%,79.606628%);stroke-opacity:1;stroke-miterlimit:10;" d="M 1360 104 L 1365 99 " transform="matrix(1,0,0,-1,0,565)"/>
<path style="fill:none;stroke-width:1;stroke-linecap:square;stroke-linejoin:miter;stroke:rgb(79.606628%,79.606628%,79.606628%);stroke-opacity:1;stroke-miterlimit:10;" d="M 1360 94 L 1365 99 " transform="matrix(1,0,0,-1,0,565)"/>
<path style="fill:none;stroke-width:1;stroke-linecap:square;stroke-linejoin:miter;stroke:rgb(59.606934%,59.606934%,59.606934%);stroke-opacity:1;stroke-miterlimit:10;" d="M 1312 35 L 1343 35 " transform="matrix(1,0,0,-1,0,565)"/>
<path style="fill:none;stroke-width:1;stroke-linecap:square;stroke-linejoin:miter;stroke:rgb(59.606934%,59.606934%,59.606934%);stroke-opacity:1;stroke-miterlimit:10;" d="M 1312 34 L 1343 34 " transform="matrix(1,0,0,-1,0,565)"/>
<path style="fill:none;stroke-width:1;stroke-linecap:square;stroke-linejoin:miter;stroke:rgb(59.606934%,59.606934%,59.606934%);stroke-opacity:1;stroke-miterlimit:10;" d="M 1312 36 L 1343 36 " transform="matrix(1,0,0,-1,0,565)"/>
<path style="fill:none;stroke-width:1;stroke-linecap:square;stroke-linejoin:miter;stroke:rgb(59.606934%,59.606934%,59.606934%);stroke-opacity:1;stroke-miterlimit:10;" d="M 1312 38 L 1312 32 " transform="matrix(1,0,0,-1,0,565)"/>
<path style="fill:none;stroke-width:1;stroke-linecap:square;stroke-linejoin:miter;stroke:rgb(59.606934%,59.606934%,59.606934%);stroke-opacity:1;stroke-miterlimit:10;" d="M 1343 38 L 1343 32 " transform="matrix(1,0,0,-1,0,565)"/>
<path style=" stroke:none;fill-rule:nonzero;fill:rgb(59.606934%,59.606934%,59.606934%);fill-opacity:1;" d="M 1324.480469 526 L 1326.421875 526 L 1326.421875 519.328125 L 1324.308594 519.75 L 1324.308594 518.671875 L 1326.410156 518.25 L 1327.589844 518.25 L 1327.589844 526 L 1329.53125 526 L 1329.53125 527 L 1324.480469 527 Z M 1331.921875 525.519531 L 1333.148438 525.519531 L 1333.148438 527 L 1331.921875 527 Z M 1338.261719 519.03125 C 1338.261719 519.03125 1337.359375 519.03125 1336.890625 519.941406 C 1336.890625 519.941406 1336.429688 520.828125 1336.429688 522.640625 C 1336.429688 522.640625 1336.429688 524.441406 1336.890625 525.339844 C 1336.890625 525.339844 1337.359375 526.230469 1338.261719 526.230469 C 1338.261719 526.230469 1339.179688 526.230469 1339.640625 525.339844 C 1339.640625 525.339844 1340.109375 524.441406 1340.109375 522.640625 C 1340.109375 522.640625 1340.109375 520.828125 1339.640625 519.941406 C 1339.640625 519.941406 1339.179688 519.03125 1338.261719 519.03125 Z M 1338.261719 518.089844 C 1338.261719 518.089844 1339.730469 518.089844 1340.511719 519.269531 C 1340.511719 519.269531 1341.289062 520.421875 1341.289062 522.640625 C 1341.289062 522.640625 1341.289062 524.839844 1340.511719 526.019531 C 1340.511719 526.019531 1339.730469 527.171875 1338.261719 527.171875 C 1338.261719 527.171875 1336.789062 527.171875 1336.011719 526.019531 C 1336.011719 526.019531 1335.25 524.839844 1335.25 522.640625 C 1335.25 522.640625 1335.25 520.421875 1336.011719 519.269531 C 1336.011719 519.269531 1336.789062 518.089844 1338.261719 518.089844 Z M 1338.261719 518.089844 "/>
<path style=" stroke:none;fill-rule:nonzero;fill:rgb(0%,0%,100%);fill-opacity:0.75686;" d="M 388 465.050781 C 388.019531 452.910156 380.730469 441.960938 369.519531 437.300781 L 358 465 Z M 388 465.050781 "/>
<path style=" stroke:none;fill-rule:nonzero;fill:rgb(100%,100%,100%);fill-opacity:0.29804;" d="M 386 465.050781 C 386.019531 453.71875 379.210938 443.5 368.75 439.148438 L 358 465 Z M 386 465.050781 "/>
<path style="fill:none;stroke-width:3;stroke-linecap:round;stroke-linejoin:round;stroke:rgb(0%,0%,100%);stroke-opacity:1;stroke-miterlimit:10;" d="M 358.5 99.5 L 516.5 479.5 " transform="matrix(1,0,0,-1,0,565)"/>
<path style="fill:none;stroke-width:3;stroke-linecap:round;stroke-linejoin:round;stroke:rgb(0%,0%,100%);stroke-opacity:1;stroke-miterlimit:10;" d="M 925.5 98.5 L 516.5 479.5 " transform="matrix(1,0,0,-1,0,565)"/>
<path style="fill:none;stroke-width:3;stroke-linecap:round;stroke-linejoin:round;stroke:rgb(0%,0%,100%);stroke-opacity:1;stroke-miterlimit:10;" d="M 925.5 98.5 L 358.5 99.5 " transform="matrix(1,0,0,-1,0,565)"/>
<path style="fill-rule:nonzero;fill:rgb(69.802856%,0%,0%);fill-opacity:1;stroke-width:1;stroke-linecap:square;stroke-linejoin:miter;stroke:rgb(0%,0%,0%);stroke-opacity:1;stroke-miterlimit:10;" d="M 363.5 99.5 C 363.5 96.738281 361.261719 94.5 358.5 94.5 C 355.738281 94.5 353.5 96.738281 353.5 99.5 C 353.5 102.261719 355.738281 104.5 358.5 104.5 C 361.261719 104.5 363.5 102.261719 363.5 99.5 Z M 363.5 99.5 " transform="matrix(1,0,0,-1,0,565)"/>
<path style="fill-rule:nonzero;fill:rgb(100%,0%,0%);fill-opacity:1;stroke-width:1;stroke-linecap:square;stroke-linejoin:miter;stroke:rgb(0%,0%,0%);stroke-opacity:1;stroke-miterlimit:10;" d="M 930.5 98.5 C 930.5 95.738281 928.261719 93.5 925.5 93.5 C 922.738281 93.5 920.5 95.738281 920.5 98.5 C 920.5 101.261719 922.738281 103.5 925.5 103.5 C 928.261719 103.5 930.5 101.261719 930.5 98.5 Z M 930.5 98.5 " transform="matrix(1,0,0,-1,0,565)"/>
<path style="fill-rule:nonzero;fill:rgb(100%,0%,0%);fill-opacity:1;stroke-width:1;stroke-linecap:square;stroke-linejoin:miter;stroke:rgb(0%,0%,0%);stroke-opacity:1;stroke-miterlimit:10;" d="M 521.5 479.5 C 521.5 476.738281 519.261719 474.5 516.5 474.5 C 513.738281 474.5 511.5 476.738281 511.5 479.5 C 511.5 482.261719 513.738281 484.5 516.5 484.5 C 519.261719 484.5 521.5 482.261719 521.5 479.5 Z M 521.5 479.5 " transform="matrix(1,0,0,-1,0,565)"/>
<path style=" stroke:none;fill-rule:nonzero;fill:rgb(0%,0%,0%);fill-opacity:1;" d="M 287.660156 508.730469 C 287.660156 508.730469 284.808594 507.46875 283.359375 504.699219 C 283.359375 504.699219 281.910156 501.921875 281.910156 497.75 C 281.910156 497.75 281.910156 493.578125 283.359375 490.808594 C 283.359375 490.808594 284.808594 488.050781 287.660156 486.769531 L 287.660156 487.910156 C 287.660156 487.910156 285.839844 489.160156 285.058594 491.421875 C 285.058594 491.421875 284.28125 493.671875 284.28125 497.75 C 284.28125 497.75 284.28125 501.828125 285.058594 504.089844 C 285.058594 504.089844 285.839844 506.339844 287.660156 507.589844 Z M 287.660156 508.730469 "/>
<path style=" stroke:none;fill-rule:nonzero;fill:rgb(0%,0%,0%);fill-opacity:1;" d="M 296.628906 504.171875 C 296.628906 504.171875 298.421875 504.171875 299.308594 502.199219 C 299.308594 502.199219 300.199219 500.230469 300.199219 496.269531 C 300.199219 496.269531 300.199219 492.28125 299.308594 490.308594 C 299.308594 490.308594 298.421875 488.339844 296.628906 488.339844 C 296.628906 488.339844 294.839844 488.339844 293.949219 490.308594 C 293.949219 490.308594 293.058594 492.28125 293.058594 496.269531 C 293.058594 496.269531 293.058594 500.230469 293.949219 502.199219 C 293.949219 502.199219 294.839844 504.171875 296.628906 504.171875 Z M 296.628906 505.339844 C 296.628906 505.339844 293.78125 505.339844 292.171875 502.949219 C 292.171875 502.949219 290.578125 500.558594 290.578125 496.269531 C 290.578125 496.269531 290.578125 491.96875 292.171875 489.578125 C 292.171875 489.578125 293.78125 487.191406 296.628906 487.191406 C 296.628906 487.191406 299.480469 487.191406 301.078125 489.578125 C 301.078125 489.578125 302.671875 491.96875 302.671875 496.269531 C 302.671875 496.269531 302.671875 500.558594 301.078125 502.949219 C 301.078125 502.949219 299.480469 505.339844 296.628906 505.339844 Z M 296.628906 505.339844 "/>
<path style=" stroke:none;fill-rule:nonzero;fill:rgb(0%,0%,0%);fill-opacity:1;" d="M 304.878906 507.328125 C 304.878906 507.328125 305.96875 506.53125 306.480469 505.421875 C 306.480469 505.421875 307 504.328125 307 502.769531 L 307 502.339844 L 309.308594 502.339844 C 309.308594 502.339844 309.21875 504.339844 308.359375 505.78125 C 308.359375 505.78125 307.519531 507.21875 305.808594 508.269531 Z M 304.878906 507.328125 "/>
<path style=" stroke:none;fill-rule:nonzero;fill:rgb(0%,0%,0%);fill-opacity:1;" d="M 319.628906 504.171875 C 319.628906 504.171875 321.421875 504.171875 322.308594 502.199219 C 322.308594 502.199219 323.199219 500.230469 323.199219 496.269531 C 323.199219 496.269531 323.199219 492.28125 322.308594 490.308594 C 322.308594 490.308594 321.421875 488.339844 319.628906 488.339844 C 319.628906 488.339844 317.839844 488.339844 316.949219 490.308594 C 316.949219 490.308594 316.058594 492.28125 316.058594 496.269531 C 316.058594 496.269531 316.058594 500.230469 316.949219 502.199219 C 316.949219 502.199219 317.839844 504.171875 319.628906 504.171875 Z M 319.628906 505.339844 C 319.628906 505.339844 316.78125 505.339844 315.171875 502.949219 C 315.171875 502.949219 313.578125 500.558594 313.578125 496.269531 C 313.578125 496.269531 313.578125 491.96875 315.171875 489.578125 C 315.171875 489.578125 316.78125 487.191406 319.628906 487.191406 C 319.628906 487.191406 322.480469 487.191406 324.078125 489.578125 C 324.078125 489.578125 325.671875 491.96875 325.671875 496.269531 C 325.671875 496.269531 325.671875 500.558594 324.078125 502.949219 C 324.078125 502.949219 322.480469 505.339844 319.628906 505.339844 Z M 319.628906 505.339844 "/>
<path style=" stroke:none;fill-rule:nonzero;fill:rgb(0%,0%,0%);fill-opacity:1;" d="M 328.699219 508.730469 L 328.699219 507.589844 C 328.699219 507.589844 330.5 506.339844 331.300781 504.089844 C 331.300781 504.089844 332.089844 501.828125 332.089844 497.75 C 332.089844 497.75 332.089844 493.671875 331.300781 491.421875 C 331.300781 491.421875 330.5 489.160156 328.699219 487.910156 L 328.699219 486.769531 C 328.699219 486.769531 331.558594 488.050781 333.019531 490.808594 C 333.019531 490.808594 334.46875 493.578125 334.46875 497.75 C 334.46875 497.75 334.46875 501.921875 333.019531 504.699219 C 333.019531 504.699219 331.558594 507.46875 328.699219 508.730469 Z M 328.699219 508.730469 "/>
<path style=" stroke:none;fill-rule:nonzero;fill:rgb(0%,0%,0%);fill-opacity:1;" d="M 569.660156 94.730469 C 569.660156 94.730469 566.808594 93.46875 565.359375 90.699219 C 565.359375 90.699219 563.910156 87.921875 563.910156 83.75 C 563.910156 83.75 563.910156 79.578125 565.359375 76.808594 C 565.359375 76.808594 566.808594 74.050781 569.660156 72.769531 L 569.660156 73.910156 C 569.660156 73.910156 567.839844 75.160156 567.058594 77.421875 C 567.058594 77.421875 566.28125 79.671875 566.28125 83.75 C 566.28125 83.75 566.28125 87.828125 567.058594 90.089844 C 567.058594 90.089844 567.839844 92.339844 569.660156 93.589844 Z M 569.660156 94.730469 "/>
<path style=" stroke:none;fill-rule:nonzero;fill:rgb(0%,0%,0%);fill-opacity:1;" d="M 580.550781 87.078125 L 580.550781 84.449219 L 577.78125 84.449219 C 577.78125 84.449219 576.171875 84.449219 575.378906 85.140625 C 575.378906 85.140625 574.589844 85.828125 574.589844 87.269531 C 574.589844 87.269531 574.589844 88.558594 575.390625 89.328125 C 575.390625 89.328125 576.191406 90.078125 577.550781 90.078125 C 577.550781 90.078125 578.910156 90.078125 579.71875 89.25 C 579.71875 89.25 580.550781 88.421875 580.550781 87.078125 Z M 582.699219 83.21875 L 582.699219 89.75 L 584.628906 89.75 L 584.628906 91 L 580.550781 91 L 580.550781 89.660156 C 580.550781 89.660156 579.839844 90.519531 578.910156 90.941406 C 578.910156 90.941406 577.96875 91.339844 576.699219 91.339844 C 576.699219 91.339844 574.640625 91.339844 573.421875 90.25 C 573.421875 90.25 572.199219 89.140625 572.199219 87.269531 C 572.199219 87.269531 572.199219 85.328125 573.589844 84.269531 C 573.589844 84.269531 574.980469 83.191406 577.53125 83.191406 L 580.550781 83.191406 L 580.550781 82.339844 C 580.550781 82.339844 580.550781 80.921875 579.691406 80.140625 C 579.691406 80.140625 578.828125 79.359375 577.269531 79.359375 C 577.269531 79.359375 575.980469 79.359375 575.21875 79.949219 C 575.21875 79.949219 574.449219 80.53125 574.269531 81.691406 L 573.160156 81.691406 L 573.160156 79.160156 C 573.160156 79.160156 574.28125 78.691406 575.339844 78.449219 C 575.339844 78.449219 576.410156 78.199219 577.410156 78.199219 C 577.410156 78.199219 580 78.199219 581.339844 79.480469 C 581.339844 79.480469 582.699219 80.769531 582.699219 83.21875 Z M 582.699219 83.21875 "/>
<path style=" stroke:none;fill-rule:nonzero;fill:rgb(0%,0%,0%);fill-opacity:1;" d="M 597.339844 87.269531 C 597.339844 87.269531 596.890625 89.25 595.578125 90.300781 C 595.578125 90.300781 594.28125 91.339844 592.21875 91.339844 C 592.21875 91.339844 589.5 91.339844 587.839844 89.550781 C 587.839844 89.550781 586.199219 87.730469 586.199219 84.769531 C 586.199219 84.769531 586.199219 81.78125 587.839844 80 C 587.839844 80 589.5 78.199219 592.21875 78.199219 C 592.21875 78.199219 593.410156 78.199219 594.578125 78.480469 C 594.578125 78.480469 595.75 78.75 596.941406 79.308594 L 596.941406 82.5 L 595.671875 82.5 C 595.671875 82.5 595.441406 80.859375 594.609375 80.109375 C 594.609375 80.109375 593.78125 79.359375 592.25 79.359375 C 592.25 79.359375 590.5 79.359375 589.609375 80.71875 C 589.609375 80.71875 588.71875 82.058594 588.71875 84.769531 C 588.71875 84.769531 588.71875 87.449219 589.589844 88.808594 C 589.589844 88.808594 590.480469 90.171875 592.25 90.171875 C 592.25 90.171875 593.640625 90.171875 594.46875 89.449219 C 594.46875 89.449219 595.300781 88.71875 595.609375 87.269531 Z M 605.660156 90.171875 C 605.660156 90.171875 607.390625 90.171875 608.269531 88.808594 C 608.269531 88.808594 609.160156 87.441406 609.160156 84.769531 C 609.160156 84.769531 609.160156 82.089844 608.269531 80.730469 C 608.269531 80.730469 607.390625 79.359375 605.660156 79.359375 C 605.660156 79.359375 603.929688 79.359375 603.039062 80.730469 C 603.039062 80.730469 602.160156 82.089844 602.160156 84.769531 C 602.160156 84.769531 602.160156 87.441406 603.050781 88.808594 C 603.050781 88.808594 603.941406 90.171875 605.660156 90.171875 Z M 605.660156 91.339844 C 605.660156 91.339844 602.941406 91.339844 601.289062 89.550781 C 601.289062 89.550781 599.640625 87.730469 599.640625 84.769531 C 599.640625 84.769531 599.640625 81.78125 601.289062 80 C 601.289062 80 602.929688 78.199219 605.660156 78.199219 C 605.660156 78.199219 608.390625 78.199219 610.039062 80 C 610.039062 80 611.691406 81.78125 611.691406 84.769531 C 611.691406 84.769531 611.691406 87.730469 610.039062 89.550781 C 610.039062 89.550781 608.390625 91.339844 605.660156 91.339844 Z M 614.230469 90.308594 L 614.230469 87.410156 L 615.480469 87.410156 C 615.480469 87.410156 615.53125 88.800781 616.359375 89.480469 C 616.359375 89.480469 617.191406 90.171875 618.800781 90.171875 C 618.800781 90.171875 620.25 90.171875 621.019531 89.640625 C 621.019531 89.640625 621.78125 89.089844 621.78125 88.050781 C 621.78125 88.050781 621.78125 87.21875 621.21875 86.71875 C 621.21875 86.71875 620.660156 86.21875 618.878906 85.640625 L 617.308594 85.109375 C 617.308594 85.109375 615.699219 84.589844 614.980469 83.828125 C 614.980469 83.828125 614.269531 83.050781 614.269531 81.859375 C 614.269531 81.859375 614.269531 80.140625 615.519531 79.171875 C 615.519531 79.171875 616.769531 78.199219 618.980469 78.199219 C 618.980469 78.199219 619.96875 78.199219 621.058594 78.46875 C 621.058594 78.46875 622.160156 78.71875 623.308594 79.199219 L 623.308594 81.921875 L 622.058594 81.921875 C 622.058594 81.921875 622.019531 80.71875 621.21875 80.050781 C 621.21875 80.050781 620.421875 79.359375 619.058594 79.359375 C 619.058594 79.359375 617.699219 79.359375 617 79.839844 C 617 79.839844 616.300781 80.328125 616.300781 81.28125 C 616.300781 81.28125 616.300781 82.058594 616.828125 82.550781 C 616.828125 82.550781 617.359375 83.019531 618.941406 83.519531 L 620.660156 84.03125 C 620.660156 84.03125 622.421875 84.589844 623.199219 85.421875 C 623.199219 85.421875 623.980469 86.230469 623.980469 87.550781 C 623.980469 87.550781 623.980469 89.308594 622.628906 90.328125 C 622.628906 90.328125 621.269531 91.339844 618.890625 91.339844 C 618.890625 91.339844 617.691406 91.339844 616.53125 91.078125 C 616.53125 91.078125 615.390625 90.828125 614.230469 90.308594 Z M 614.230469 90.308594 "/>
<path style=" stroke:none;fill-rule:nonzero;fill:rgb(0%,0%,0%);fill-opacity:1;" d="M 635.359375 87.921875 L 634.890625 89.230469 C 634.890625 89.230469 634.53125 90.230469 633.421875 90.871094 C 633.421875 90.871094 632.691406 91.308594 631.410156 91.300781 C 631.410156 91.300781 629.089844 91.269531 627.660156 89.46875 C 627.660156 89.46875 626.199219 87.640625 626.199219 84.71875 C 626.199219 84.71875 626.199219 81.839844 627.660156 79.96875 C 627.660156 79.96875 629.019531 78.199219 631.921875 78.21875 C 631.921875 78.21875 633.910156 78.21875 634.921875 79 C 634.921875 79 635.808594 79.691406 636.140625 81.199219 L 636.230469 81.640625 L 636.699219 80.328125 C 636.699219 80.328125 637.128906 79.109375 638.328125 78.5 L 639.519531 78.5 L 639.519531 79.191406 C 639.519531 79.191406 638.390625 79.53125 637.980469 80.640625 L 636.769531 83.96875 L 637.589844 87.550781 C 637.589844 87.550781 638.019531 89.390625 638.449219 89.589844 C 638.449219 89.589844 639.089844 89.890625 640.558594 89 L 640.558594 90.421875 C 640.558594 90.421875 638.191406 91.800781 636.519531 90.359375 C 636.519531 90.359375 635.75 89.699219 635.53125 88.769531 Z M 634.859375 85.621094 L 634.128906 82.191406 C 634.128906 82.191406 633.53125 79.441406 631.941406 79.441406 C 631.941406 79.441406 630.589844 79.421875 629.578125 80.859375 C 629.578125 80.859375 628.71875 82.050781 628.71875 84.769531 C 628.71875 84.769531 628.71875 87.339844 629.578125 88.671875 C 629.578125 88.671875 630.480469 90.109375 632.058594 89.980469 C 632.058594 89.980469 633.421875 89.890625 634.390625 87.019531 Z M 634.859375 85.621094 "/>
<path style=" stroke:none;fill-rule:nonzero;fill:rgb(0%,0%,0%);fill-opacity:1;" d="M 641.878906 93.328125 C 641.878906 93.328125 642.96875 92.53125 643.480469 91.421875 C 643.480469 91.421875 644 90.328125 644 88.769531 L 644 88.339844 L 646.308594 88.339844 C 646.308594 88.339844 646.21875 90.339844 645.359375 91.78125 C 645.359375 91.78125 644.519531 93.21875 642.808594 94.269531 Z M 641.878906 93.328125 "/>
<path style=" stroke:none;fill-rule:nonzero;fill:rgb(0%,0%,0%);fill-opacity:1;" d="M 658.550781 87.078125 L 658.550781 84.449219 L 655.78125 84.449219 C 655.78125 84.449219 654.171875 84.449219 653.378906 85.140625 C 653.378906 85.140625 652.589844 85.828125 652.589844 87.269531 C 652.589844 87.269531 652.589844 88.558594 653.390625 89.328125 C 653.390625 89.328125 654.191406 90.078125 655.550781 90.078125 C 655.550781 90.078125 656.910156 90.078125 657.71875 89.25 C 657.71875 89.25 658.550781 88.421875 658.550781 87.078125 Z M 660.699219 83.21875 L 660.699219 89.75 L 662.628906 89.75 L 662.628906 91 L 658.550781 91 L 658.550781 89.660156 C 658.550781 89.660156 657.839844 90.519531 656.910156 90.941406 C 656.910156 90.941406 655.96875 91.339844 654.699219 91.339844 C 654.699219 91.339844 652.640625 91.339844 651.421875 90.25 C 651.421875 90.25 650.199219 89.140625 650.199219 87.269531 C 650.199219 87.269531 650.199219 85.328125 651.589844 84.269531 C 651.589844 84.269531 652.980469 83.191406 655.53125 83.191406 L 658.550781 83.191406 L 658.550781 82.339844 C 658.550781 82.339844 658.550781 80.921875 657.691406 80.140625 C 657.691406 80.140625 656.828125 79.359375 655.269531 79.359375 C 655.269531 79.359375 653.980469 79.359375 653.21875 79.949219 C 653.21875 79.949219 652.449219 80.53125 652.269531 81.691406 L 651.160156 81.691406 L 651.160156 79.160156 C 651.160156 79.160156 652.28125 78.691406 653.339844 78.449219 C 653.339844 78.449219 654.410156 78.199219 655.410156 78.199219 C 655.410156 78.199219 658 78.199219 659.339844 79.480469 C 659.339844 79.480469 660.699219 80.769531 660.699219 83.21875 Z M 660.699219 83.21875 "/>
<path style=" stroke:none;fill-rule:nonzero;fill:rgb(0%,0%,0%);fill-opacity:1;" d="M 664.339844 90.308594 L 664.339844 87.410156 L 665.589844 87.410156 C 665.589844 87.410156 665.640625 88.800781 666.46875 89.480469 C 666.46875 89.480469 667.300781 90.171875 668.910156 90.171875 C 668.910156 90.171875 670.359375 90.171875 671.128906 89.640625 C 671.128906 89.640625 671.890625 89.089844 671.890625 88.050781 C 671.890625 88.050781 671.890625 87.21875 671.328125 86.71875 C 671.328125 86.71875 670.769531 86.21875 668.980469 85.640625 L 667.421875 85.109375 C 667.421875 85.109375 665.808594 84.589844 665.089844 83.828125 C 665.089844 83.828125 664.378906 83.050781 664.378906 81.859375 C 664.378906 81.859375 664.378906 80.140625 665.628906 79.171875 C 665.628906 79.171875 666.878906 78.199219 669.089844 78.199219 C 669.089844 78.199219 670.078125 78.199219 671.171875 78.46875 C 671.171875 78.46875 672.269531 78.71875 673.421875 79.199219 L 673.421875 81.921875 L 672.171875 81.921875 C 672.171875 81.921875 672.128906 80.71875 671.328125 80.050781 C 671.328125 80.050781 670.53125 79.359375 669.171875 79.359375 C 669.171875 79.359375 667.808594 79.359375 667.109375 79.839844 C 667.109375 79.839844 666.410156 80.328125 666.410156 81.28125 C 666.410156 81.28125 666.410156 82.058594 666.941406 82.550781 C 666.941406 82.550781 667.46875 83.019531 669.050781 83.519531 L 670.769531 84.03125 C 670.769531 84.03125 672.53125 84.589844 673.308594 85.421875 C 673.308594 85.421875 674.089844 86.230469 674.089844 87.550781 C 674.089844 87.550781 674.089844 89.308594 672.730469 90.328125 C 672.730469 90.328125 671.378906 91.339844 669 91.339844 C 669 91.339844 667.800781 91.339844 666.640625 91.078125 C 666.640625 91.078125 665.5 90.828125 664.339844 90.308594 Z M 677.640625 74.671875 C 677.640625 74.671875 677.640625 74.140625 678.039062 73.75 C 678.039062 73.75 678.441406 73.339844 678.988281 73.339844 C 678.988281 73.339844 679.519531 73.339844 679.910156 73.75 C 679.910156 73.75 680.320312 74.140625 680.320312 74.671875 C 680.320312 74.671875 680.320312 75.21875 679.929688 75.609375 C 679.929688 75.609375 679.539062 76 678.988281 76 C 678.988281 76 678.441406 76 678.039062 75.609375 C 678.039062 75.609375 677.640625 75.21875 677.640625 74.671875 Z M 680.410156 89.75 L 682.441406 89.75 L 682.441406 91 L 676.191406 91 L 676.191406 89.75 L 678.25 89.75 L 678.25 79.800781 L 676.191406 79.800781 L 676.191406 78.550781 L 680.410156 78.550781 Z M 683.980469 91 L 683.980469 89.75 L 685.929688 89.75 L 685.929688 79.800781 L 683.871094 79.800781 L 683.871094 78.550781 L 688.089844 78.550781 L 688.089844 80.75 C 688.089844 80.75 688.679688 79.480469 689.628906 78.839844 C 689.628906 78.839844 690.589844 78.199219 691.851562 78.199219 C 691.851562 78.199219 693.910156 78.199219 694.878906 79.390625 C 694.878906 79.390625 695.871094 80.558594 695.871094 83.078125 L 695.871094 89.75 L 697.789062 89.75 L 697.789062 91 L 691.839844 91 L 691.839844 89.75 L 693.699219 89.75 L 693.699219 83.75 C 693.699219 83.75 693.699219 81.46875 693.128906 80.621094 C 693.128906 80.621094 692.570312 79.769531 691.148438 79.769531 C 691.148438 79.769531 689.648438 79.769531 688.871094 80.871094 C 688.871094 80.871094 688.089844 81.96875 688.089844 84.058594 L 688.089844 89.75 L 689.960938 89.75 L 689.960938 91 Z M 683.980469 91 "/>
<path style=" stroke:none;fill-rule:nonzero;fill:rgb(0%,0%,0%);fill-opacity:1;" d="M 708.359375 87.921875 L 707.890625 89.230469 C 707.890625 89.230469 707.53125 90.230469 706.421875 90.871094 C 706.421875 90.871094 705.691406 91.308594 704.410156 91.300781 C 704.410156 91.300781 702.089844 91.269531 700.660156 89.46875 C 700.660156 89.46875 699.199219 87.640625 699.199219 84.71875 C 699.199219 84.71875 699.199219 81.839844 700.660156 79.96875 C 700.660156 79.96875 702.019531 78.199219 704.921875 78.21875 C 704.921875 78.21875 706.910156 78.21875 707.921875 79 C 707.921875 79 708.808594 79.691406 709.140625 81.199219 L 709.230469 81.640625 L 709.699219 80.328125 C 709.699219 80.328125 710.128906 79.109375 711.328125 78.5 L 712.519531 78.5 L 712.519531 79.191406 C 712.519531 79.191406 711.390625 79.53125 710.980469 80.640625 L 709.769531 83.96875 L 710.589844 87.550781 C 710.589844 87.550781 711.019531 89.390625 711.449219 89.589844 C 711.449219 89.589844 712.089844 89.890625 713.558594 89 L 713.558594 90.421875 C 713.558594 90.421875 711.191406 91.800781 709.519531 90.359375 C 709.519531 90.359375 708.75 89.699219 708.53125 88.769531 Z M 707.859375 85.621094 L 707.128906 82.191406 C 707.128906 82.191406 706.53125 79.441406 704.941406 79.441406 C 704.941406 79.441406 703.589844 79.421875 702.578125 80.859375 C 702.578125 80.859375 701.71875 82.050781 701.71875 84.769531 C 701.71875 84.769531 701.71875 87.339844 702.578125 88.671875 C 702.578125 88.671875 703.480469 90.109375 705.058594 89.980469 C 705.058594 89.980469 706.421875 89.890625 707.390625 87.019531 Z M 707.859375 85.621094 "/>
<path style=" stroke:none;fill-rule:nonzero;fill:rgb(0%,0%,0%);fill-opacity:1;" d="M 715.699219 94.730469 L 715.699219 93.589844 C 715.699219 93.589844 717.5 92.339844 718.300781 90.089844 C 718.300781 90.089844 719.089844 87.828125 719.089844 83.75 C 719.089844 83.75 719.089844 79.671875 718.300781 77.421875 C 718.300781 77.421875 717.5 75.160156 715.699219 73.910156 L 715.699219 72.769531 C 715.699219 72.769531 718.558594 74.050781 720.019531 76.808594 C 720.019531 76.808594 721.46875 79.578125 721.46875 83.75 C 721.46875 83.75 721.46875 87.921875 720.019531 90.699219 C 720.019531 90.699219 718.558594 93.46875 715.699219 94.730469 Z M 715.699219 94.730469 "/>
<path style=" stroke:none;fill-rule:nonzero;fill:rgb(0%,0%,0%);fill-opacity:1;" d="M 926.660156 506.730469 C 926.660156 506.730469 923.808594 505.46875 922.359375 502.699219 C 922.359375 502.699219 920.910156 499.921875 920.910156 495.75 C 920.910156 495.75 920.910156 491.578125 922.359375 488.808594 C 922.359375 488.808594 923.808594 486.050781 926.660156 484.769531 L 926.660156 485.910156 C 926.660156 485.910156 924.839844 487.160156 924.058594 489.421875 C 924.058594 489.421875 923.28125 491.671875 923.28125 495.75 C 923.28125 495.75 923.28125 499.828125 924.058594 502.089844 C 924.058594 502.089844 924.839844 504.339844 926.660156 505.589844 Z M 926.660156 506.730469 "/>
<path style=" stroke:none;fill-rule:nonzero;fill:rgb(0%,0%,0%);fill-opacity:1;" d="M 930.769531 501.75 L 930.769531 486 L 928.691406 486 L 928.691406 484.769531 L 932.921875 484.769531 L 932.921875 492.480469 C 932.921875 492.480469 933.558594 491.308594 934.53125 490.769531 C 934.53125 490.769531 935.519531 490.199219 936.949219 490.199219 C 936.949219 490.199219 939.25 490.199219 940.699219 492.019531 C 940.699219 492.019531 942.160156 493.828125 942.160156 496.769531 C 942.160156 496.769531 942.160156 499.691406 940.699219 501.519531 C 940.699219 501.519531 939.25 503.339844 936.949219 503.339844 C 936.949219 503.339844 935.519531 503.339844 934.53125 502.78125 C 934.53125 502.78125 933.558594 502.21875 932.921875 501.050781 L 932.921875 503 L 928.691406 503 L 928.691406 501.75 Z M 932.921875 497.390625 C 932.921875 497.390625 932.921875 499.640625 933.78125 500.808594 C 933.78125 500.808594 934.640625 501.980469 936.28125 501.980469 C 936.28125 501.980469 937.941406 501.980469 938.78125 500.671875 C 938.78125 500.671875 939.640625 499.339844 939.640625 496.769531 C 939.640625 496.769531 939.640625 494.171875 938.78125 492.859375 C 938.78125 492.859375 937.941406 491.550781 936.28125 491.550781 C 936.28125 491.550781 934.640625 491.550781 933.78125 492.730469 C 933.78125 492.730469 932.921875 493.921875 932.921875 496.160156 Z M 932.921875 497.390625 "/>
<path style=" stroke:none;fill-rule:nonzero;fill:rgb(0%,0%,0%);fill-opacity:1;" d="M 943.878906 505.328125 C 943.878906 505.328125 944.96875 504.53125 945.480469 503.421875 C 945.480469 503.421875 946 502.328125 946 500.769531 L 946 500.339844 L 948.308594 500.339844 C 948.308594 500.339844 948.21875 502.339844 947.359375 503.78125 C 947.359375 503.78125 946.519531 505.21875 944.808594 506.269531 Z M 943.878906 505.328125 "/>
<path style=" stroke:none;fill-rule:nonzero;fill:rgb(0%,0%,0%);fill-opacity:1;" d="M 958.628906 502.171875 C 958.628906 502.171875 960.421875 502.171875 961.308594 500.199219 C 961.308594 500.199219 962.199219 498.230469 962.199219 494.269531 C 962.199219 494.269531 962.199219 490.28125 961.308594 488.308594 C 961.308594 488.308594 960.421875 486.339844 958.628906 486.339844 C 958.628906 486.339844 956.839844 486.339844 955.949219 488.308594 C 955.949219 488.308594 955.058594 490.28125 955.058594 494.269531 C 955.058594 494.269531 955.058594 498.230469 955.949219 500.199219 C 955.949219 500.199219 956.839844 502.171875 958.628906 502.171875 Z M 958.628906 503.339844 C 958.628906 503.339844 955.78125 503.339844 954.171875 500.949219 C 954.171875 500.949219 952.578125 498.558594 952.578125 494.269531 C 952.578125 494.269531 952.578125 489.96875 954.171875 487.578125 C 954.171875 487.578125 955.78125 485.191406 958.628906 485.191406 C 958.628906 485.191406 961.480469 485.191406 963.078125 487.578125 C 963.078125 487.578125 964.671875 489.96875 964.671875 494.269531 C 964.671875 494.269531 964.671875 498.558594 963.078125 500.949219 C 963.078125 500.949219 961.480469 503.339844 958.628906 503.339844 Z M 958.628906 503.339844 "/>
<path style=" stroke:none;fill-rule:nonzero;fill:rgb(0%,0%,0%);fill-opacity:1;" d="M 967.699219 506.730469 L 967.699219 505.589844 C 967.699219 505.589844 969.5 504.339844 970.300781 502.089844 C 970.300781 502.089844 971.089844 499.828125 971.089844 495.75 C 971.089844 495.75 971.089844 491.671875 970.300781 489.421875 C 970.300781 489.421875 969.5 487.160156 967.699219 485.910156 L 967.699219 484.769531 C 967.699219 484.769531 970.558594 486.050781 972.019531 488.808594 C 972.019531 488.808594 973.46875 491.578125 973.46875 495.75 C 973.46875 495.75 973.46875 499.921875 972.019531 502.699219 C 972.019531 502.699219 970.558594 505.46875 967.699219 506.730469 Z M 967.699219 506.730469 "/>
<path style=" stroke:none;fill-rule:nonzero;fill:rgb(0%,0%,0%);fill-opacity:1;" d="M 403.359375 441.921875 L 402.890625 443.230469 C 402.890625 443.230469 402.53125 444.230469 401.421875 444.871094 C 401.421875 444.871094 400.691406 445.308594 399.410156 445.300781 C 399.410156 445.300781 397.089844 445.269531 395.660156 443.46875 C 395.660156 443.46875 394.199219 441.640625 394.199219 438.71875 C 394.199219 438.71875 394.199219 435.839844 395.660156 433.96875 C 395.660156 433.96875 397.019531 432.199219 399.921875 432.21875 C 399.921875 432.21875 401.910156 432.21875 402.921875 433 C 402.921875 433 403.808594 433.691406 404.140625 435.199219 L 404.230469 435.640625 L 404.699219 434.328125 C 404.699219 434.328125 405.128906 433.109375 406.328125 432.5 L 407.519531 432.5 L 407.519531 433.191406 C 407.519531 433.191406 406.390625 433.53125 405.980469 434.640625 L 404.769531 437.96875 L 405.589844 441.550781 C 405.589844 441.550781 406.019531 443.390625 406.449219 443.589844 C 406.449219 443.589844 407.089844 443.890625 408.558594 443 L 408.558594 444.421875 C 408.558594 444.421875 406.191406 445.800781 404.519531 444.359375 C 404.519531 444.359375 403.75 443.699219 403.53125 442.769531 Z M 402.859375 439.621094 L 402.128906 436.191406 C 402.128906 436.191406 401.53125 433.441406 399.941406 433.441406 C 399.941406 433.441406 398.589844 433.421875 397.578125 434.859375 C 397.578125 434.859375 396.71875 436.050781 396.71875 438.769531 C 396.71875 438.769531 396.71875 441.339844 397.578125 442.671875 C 397.578125 442.671875 398.480469 444.109375 400.058594 443.980469 C 400.058594 443.980469 401.421875 443.890625 402.390625 441.019531 Z M 402.859375 439.621094 "/>
<path style=" stroke:none;fill-rule:nonzero;fill:rgb(0%,0%,0%);fill-opacity:1;" d="M 416.550781 266.078125 L 416.550781 263.449219 L 413.78125 263.449219 C 413.78125 263.449219 412.171875 263.449219 411.378906 264.140625 C 411.378906 264.140625 410.589844 264.828125 410.589844 266.269531 C 410.589844 266.269531 410.589844 267.558594 411.390625 268.328125 C 411.390625 268.328125 412.191406 269.078125 413.550781 269.078125 C 413.550781 269.078125 414.910156 269.078125 415.71875 268.25 C 415.71875 268.25 416.550781 267.421875 416.550781 266.078125 Z M 418.699219 262.21875 L 418.699219 268.75 L 420.628906 268.75 L 420.628906 270 L 416.550781 270 L 416.550781 268.660156 C 416.550781 268.660156 415.839844 269.519531 414.910156 269.941406 C 414.910156 269.941406 413.96875 270.339844 412.699219 270.339844 C 412.699219 270.339844 410.640625 270.339844 409.421875 269.25 C 409.421875 269.25 408.199219 268.140625 408.199219 266.269531 C 408.199219 266.269531 408.199219 264.328125 409.589844 263.269531 C 409.589844 263.269531 410.980469 262.191406 413.53125 262.191406 L 416.550781 262.191406 L 416.550781 261.339844 C 416.550781 261.339844 416.550781 259.921875 415.691406 259.140625 C 415.691406 259.140625 414.828125 258.359375 413.269531 258.359375 C 413.269531 258.359375 411.980469 258.359375 411.21875 258.949219 C 411.21875 258.949219 410.449219 259.53125 410.269531 260.691406 L 409.160156 260.691406 L 409.160156 258.160156 C 409.160156 258.160156 410.28125 257.691406 411.339844 257.449219 C 411.339844 257.449219 412.410156 257.199219 413.410156 257.199219 C 413.410156 257.199219 416 257.199219 417.339844 258.480469 C 417.339844 258.480469 418.699219 259.769531 418.699219 262.21875 Z M 418.699219 262.21875 "/>
</g>
</svg>
