<?xml version="1.0" encoding="UTF-8"?>
<svg xmlns="http://www.w3.org/2000/svg" xmlns:xlink="http://www.w3.org/1999/xlink" width="1366pt" height="565pt" viewBox="0 0 1366 565" version="1.1">
<g id="surface1">
<path style="fill:none;stroke-width:1;stroke-linecap:square;stroke-linejoin:miter;stroke:rgb(89.411926%,89.411926%,89.411926%);stroke-opacity:1;stroke-miterlimit:10;" d="M 8 565 L 8 0 " transform="matrix(1,0,0,-1,0,565)"/>
<path style="fill:none;stroke-width:1;stroke-linecap:square;stroke-linejoin:miter;stroke:rgb(89.411926%,89.411926%,89.411926%);stroke-opacity:1;stroke-miterlimit:10;" d="M 39 565 L 39 0 " transform="matrix(1,0,0,-1,0,565)"/>
<path style="fill:none;stroke-width:1;stroke-linecap:square;stroke-linejoin:miter;stroke:rgb(89.411926%,89.411926%,89.411926%);stroke-opacity:1;stroke-miterlimit:10;" d="M 71 565 L 71 0 " transform="matrix(1,0,0,-1,0,565)"/>
<path style="fill:none;stroke-width:1;stroke-linecap:square;stroke-linejoin:miter;stroke:rgb(89.411926%,89.411926%,89.411926%);stroke-opacity:1;stroke-miterlimit:10;" d="M 103 565 L 103 0 " transform="matrix(1,0,0,-1,0,565)"/>
<path style="fill:none;stroke-width:1;stroke-linecap:square;stroke-linejoin:miter;stroke:rgb(89.411926%,89.411926%,89.411926%);stroke-opacity:1;stroke-miterlimit:10;" d="M 135 565 L 135 0 " transform="matrix(1,0,0,-1,0,565)"/>
<path style="fill:none;stroke-width:1;stroke-linecap:square;stroke-linejoin:miter;stroke:rgb(89.411926%,89.411926%,89.411926%);stroke-opacity:1;stroke-miterlimit:10;" d="M 167 565 L 167 0 " transform="matrix(1,0,0,-1,0,565)"/>
<path style="fill:none;stroke-width:1;stroke-linecap:square;stroke-linejoin:miter;stroke:rgb(89.411926%,89.411926%,89.411926%);stroke-opacity:1;stroke-miterlimit:10;" d="M 198 565 L 198 0 " transform="matrix(1,0,0,-1,0,565)"/>
<path style="fill:none;stroke-width:1;stroke-linecap:square;stroke-linejoin:miter;stroke:rgb(89.411926%,89.411926%,89.411926%);stroke-opacity:1;stroke-miterlimit:10;" d="M 230 565 L 230 0 " transform="matrix(1,0,0,-1,0,565)"/>
<path style="fill:none;stroke-width:1;stroke-linecap:square;stroke-linejoin:miter;stroke:rgb(89.411926%,89.411926%,89.411926%);stroke-opacity:1;stroke-miterlimit:10;" d="M 262 565 L 262 0 " transform="matrix(1,0,0,-1,0,565)"/>
<path style="fill:none;stroke-width:1;stroke-linecap:square;stroke-linejoin:miter;stroke:rgb(89.411926%,89.411926%,89.411926%);stroke-opacity:1;stroke-miterlimit:10;" d="M 294 565 L 294 0 " transform="matrix(1,0,0,-1,0,565)"/>
<path style="fill:none;stroke-width:1;stroke-linecap:square;stroke-linejoin:miter;stroke:rgb(89.411926%,89.411926%,89.411926%);stroke-opacity:1;stroke-miterlimit:10;" d="M 326 565 L 326 0 " transform="matrix(1,0,0,-1,0,565)"/>
<path style="fill:none;stroke-width:1;stroke-linecap:square;stroke-linejoin:miter;stroke:rgb(89.411926%,89.411926%,89.411926%);stroke-opacity:1;stroke-miterlimit:10;" d="M 358 565 L 358 0 " transform="matrix(1,0,0,-1,0,565)"/>
<path style="fill:none;stroke-width:1;stroke-linecap:square;stroke-linejoin:miter;stroke:rgb(89.411926%,89.411926%,89.411926%);stroke-opacity:1;stroke-miterlimit:10;" d="M 389 565 L 389 0 " transform="matrix(1,0,0,-1,0,565)"/>
<path style="fill:none;stroke-width:1;stroke-linecap:square;stroke-linejoin:miter;stroke:rgb(89.411926%,89.411926%,89.411926%);stroke-opacity:1;stroke-miterlimit:10;" d="M 421 565 L 421 0 " transform="matrix(1,0,0,-1,0,565)"/>
<path style="fill:none;stroke-width:1;stroke-linecap:square;stroke-linejoin:miter;stroke:rgb(89.411926%,89.411926%,89.411926%);stroke-opacity:1;stroke-miterlimit:10;" d="M 453 565 L 453 0 " transform="matrix(1,0,0,-1,0,565)"/>
<path style="fill:none;stroke-width:1;stroke-linecap:square;stroke-linejoin:miter;stroke:rgb(89.411926%,89.411926%,89.411926%);stroke-opacity:1;stroke-miterlimit:10;" d="M 485 565 L 485 0 " transform="matrix(1,0,0,-1,0,565)"/>
<path style="fill:none;stroke-width:1;stroke-linecap:square;stroke-linejoin:miter;stroke:rgb(89.411926%,89.411926%,89.411926%);stroke-opacity:1;stroke-miterlimit:10;" d="M 517 565 L 517 0 " transform="matrix(1,0,0,-1,0,565)"/>
<path style="fill:none;stroke-width:1;stroke-linecap:square;stroke-linejoin:miter;stroke:rgb(89.411926%,89.411926%,89.411926%);stroke-opacity:1;stroke-miterlimit:10;" d="M 548 565 L 548 0 " transform="matrix(1,0,0,-1,0,565)"/>
<path style="fill:none;stroke-width:1;stroke-linecap:square;stroke-linejoin:miter;stroke:rgb(89.411926%,89.411926%,89.411926%);stroke-opacity:1;stroke-miterlimit:10;" d="M 580 565 L 580 0 " transform="matrix(1,0,0,-1,0,565)"/>
<path style="fill:none;stroke-width:1;stroke-linecap:square;stroke-linejoin:miter;stroke:rgb(89.411926%,89.411926%,89.411926%);stroke-opacity:1;stroke-miterlimit:10;" d="M 612 565 L 612 0 " transform="matrix(1,0,0,-1,0,565)"/>
<path style="fill:none;stroke-width:1;stroke-linecap:square;stroke-linejoin:miter;stroke:rgb(89.411926%,89.411926%,89.411926%);stroke-opacity:1;stroke-miterlimit:10;" d="M 644 565 L 644 0 " transform="matrix(1,0,0,-1,0,565)"/>
<path style="fill:none;stroke-width:1;stroke-linecap:square;stroke-linejoin:miter;stroke:rgb(89.411926%,89.411926%,89.411926%);stroke-opacity:1;stroke-miterlimit:10;" d="M 676 565 L 676 0 " transform="matrix(1,0,0,-1,0,565)"/>
<path style="fill:none;stroke-width:1;stroke-linecap:square;stroke-linejoin:miter;stroke:rgb(89.411926%,89.411926%,89.411926%);stroke-opacity:1;stroke-miterlimit:10;" d="M 707 565 L 707 0 " transform="matrix(1,0,0,-1,0,565)"/>
<path style="fill:none;stroke-width:1;stroke-linecap:square;stroke-linejoin:miter;stroke:rgb(89.411926%,89.411926%,89.411926%);stroke-opacity:1;stroke-miterlimit:10;" d="M 739 565 L 739 0 " transform="matrix(1,0,0,-1,0,565)"/>
<path style="fill:none;stroke-width:1;stroke-linecap:square;stroke-linejoin:miter;stroke:rgb(89.411926%,89.411926%,89.411926%);stroke-opacity:1;stroke-miterlimit:10;" d="M 771 565 L 771 0 " transform="matrix(1,0,0,-1,0,565)"/>
<path style="fill:none;stroke-width:1;stroke-linecap:square;stroke-linejoin:miter;stroke:rgb(89.411926%,89.411926%,89.411926%);stroke-opacity:1;stroke-miterlimit:10;" d="M 803 565 L 803 0 " transform="matrix(1,0,0,-1,0,565)"/>
<path style="fill:none;stroke-width:1;stroke-linecap:square;stroke-linejoin:miter;stroke:rgb(89.411926%,89.411926%,89.411926%);stroke-opacity:1;stroke-miterlimit:10;" d="M 835 565 L 835 0 " transform="matrix(1,0,0,-1,0,565)"/>
<path style="fill:none;stroke-width:1;stroke-linecap:square;stroke-linejoin:miter;stroke:rgb(89.411926%,89.411926%,89.411926%);stroke-opacity:1;stroke-miterlimit:10;" d="M 867 565 L 867 0 " transform="matrix(1,0,0,-1,0,565)"/>
<path style="fill:none;stroke-width:1;stroke-linecap:square;stroke-linejoin:miter;stroke:rgb(89.411926%,89.411926%,89.411926%);stroke-opacity:1;stroke-miterlimit:10;" d="M 898 565 L 898 0 " transform="matrix(1,0,0,-1,0,565)"/>
<path style="fill:none;stroke-width:1;stroke-linecap:square;stroke-linejoin:miter;stroke:rgb(89.411926%,89.411926%,89.411926%);stroke-opacity:1;stroke-miterlimit:10;" d="M 930 565 L 930 0 " transform="matrix(1,0,0,-1,0,565)"/>
<path style="fill:none;stroke-width:1;stroke-linecap:square;stroke-linejoin:miter;stroke:rgb(89.411926%,89.411926%,89.411926%);stroke-opacity:1;stroke-miterlimit:10;" d="M 962 565 L 962 0 " transform="matrix(1,0,0,-1,0,565)"/>
<path style="fill:none;stroke-width:1;stroke-linecap:square;stroke-linejoin:miter;stroke:rgb(89.411926%,89.411926%,89.411926%);stroke-opacity:1;stroke-miterlimit:10;" d="M 994 565 L 994 0 " transform="matrix(1,0,0,-1,0,565)"/>
<path style="fill:none;stroke-width:1;stroke-linecap:square;stroke-linejoin:miter;stroke:rgb(89.411926%,89.411926%,89.411926%);stroke-opacity:1;stroke-miterlimit:10;" d="M 1026 565 L 1026 0 " transform="matrix(1,0,0,-1,0,565)"/>
<path style="fill:none;stroke-width:1;stroke-linecap:square;stroke-linejoin:miter;stroke:rgb(89.411926%,89.411926%,89.411926%);stroke-opacity:1;stroke-miterlimit:10;" d="M 1057 565 L 1057 0 " transform="matrix(1,0,0,-1,0,565)"/>
<path style="fill:none;stroke-width:1;stroke-linecap:square;stroke-linejoin:miter;stroke:rgb(89.411926%,89.411926%,89.411926%);stroke-opacity:1;stroke-miterlimit:10;" d="M 1089 565 L 1089 0 " transform="matrix(1,0,0,-1,0,565)"/>
<path style="fill:none;stroke-width:1;stroke-linecap:square;stroke-linejoin:miter;stroke:rgb(89.411926%,89.411926%,89.411926%);stroke-opacity:1;stroke-miterlimit:10;" d="M 1121 565 L 1121 0 " transform="matrix(1,0,0,-1,0,565)"/>
<path style="fill:none;stroke-width:1;stroke-linecap:square;stroke-linejoin:miter;stroke:rgb(89.411926%,89.411926%,89.411926%);stroke-opacity:1;stroke-miterlimit:10;" d="M 1153 565 L 1153 0 " transform="matrix(1,0,0,-1,0,565)"/>
<path style="fill:none;stroke-width:1;stroke-linecap:square;stroke-linejoin:miter;stroke:rgb(89.411926%,89.411926%,89.411926%);stroke-opacity:1;stroke-miterlimit:10;" d="M 1185 565 L 1185 0 " transform="matrix(1,0,0,-1,0,565)"/>
<path style="fill:none;stroke-width:1;stroke-linecap:square;stroke-linejoin:miter;stroke:rgb(89.411926%,89.411926%,89.411926%);stroke-opacity:1;stroke-miterlimit:10;" d="M 1216 565 L 1216 0 " transform="matrix(1,0,0,-1,0,565)"/>
<path style="fill:none;stroke-width:1;stroke-linecap:square;stroke-linejoin:miter;stroke:rgb(89.411926%,89.411926%,89.411926%);stroke-opacity:1;stroke-miterlimit:10;" d="M 1248 565 L 1248 0 " transform="matrix(1,0,0,-1,0,565)"/>
<path style="fill:none;stroke-width:1;stroke-linecap:square;stroke-linejoin:miter;stroke:rgb(89.411926%,89.411926%,89.411926%);stroke-opacity:1;stroke-miterlimit:10;" d="M 1280 565 L 1280 0 " transform="matrix(1,0,0,-1,0,565)"/>
<path style="fill:none;stroke-width:1;stroke-linecap:square;stroke-linejoin:miter;stroke:rgb(89.411926%,89.411926%,89.411926%);stroke-opacity:1;stroke-miterlimit:10;" d="M 1312 565 L 1312 0 " transform="matrix(1,0,0,-1,0,565)"/>
<path style="fill:none;stroke-width:1;stroke-linecap:square;stroke-linejoin:miter;stroke:rgb(89.411926%,89.411926%,89.411926%);stroke-opacity:1;stroke-miterlimit:10;" d="M 1344 565 L 1344 0 " transform="matrix(1,0,0,-1,0,565)"/>
<path style="fill:none;stroke-width:1;stroke-linecap:square;stroke-linejoin:miter;stroke:rgb(89.411926%,89.411926%,89.411926%);stroke-opacity:1;stroke-miterlimit:10;" d="M 0 545 L 1366 545 " transform="matrix(1,0,0,-1,0,565)"/>
<path style="fill:none;stroke-width:1;stroke-linecap:square;stroke-linejoin:miter;stroke:rgb(89.411926%,89.411926%,89.411926%);stroke-opacity:1;stroke-miterlimit:10;" d="M 0 513 L 1366 513 " transform="matrix(1,0,0,-1,0,565)"/>
<path style="fill:none;stroke-width:1;stroke-linecap:square;stroke-linejoin:miter;stroke:rgb(89.411926%,89.411926%,89.411926%);stroke-opacity:1;stroke-miterlimit:10;" d="M 0 481 L 1366 481 " transform="matrix(1,0,0,-1,0,565)"/>
<path style="fill:none;stroke-width:1;stroke-linecap:square;stroke-linejoin:miter;stroke:rgb(89.411926%,89.411926%,89.411926%);stroke-opacity:1;stroke-miterlimit:10;" d="M 0 449 L 1366 449 " transform="matrix(1,0,0,-1,0,565)"/>
<path style="fill:none;stroke-width:1;stroke-linecap:square;stroke-linejoin:miter;stroke:rgb(89.411926%,89.411926%,89.411926%);stroke-opacity:1;stroke-miterlimit:10;" d="M 0 418 L 1366 418 " transform="matrix(1,0,0,-1,0,565)"/>
<path style="fill:none;stroke-width:1;stroke-linecap:square;stroke-linejoin:miter;stroke:rgb(89.411926%,89.411926%,89.411926%);stroke-opacity:1;stroke-miterlimit:10;" d="M 0 386 L 1366 386 " transform="matrix(1,0,0,-1,0,565)"/>
<path style="fill:none;stroke-width:1;stroke-linecap:square;stroke-linejoin:miter;stroke:rgb(89.411926%,89.411926%,89.411926%);stroke-opacity:1;stroke-miterlimit:10;" d="M 0 354 L 1366 354 " transform="matrix(1,0,0,-1,0,565)"/>
<path style="fill:none;stroke-width:1;stroke-linecap:square;stroke-linejoin:miter;stroke:rgb(89.411926%,89.411926%,89.411926%);stroke-opacity:1;stroke-miterlimit:10;" d="M 0 322 L 1366 322 " transform="matrix(1,0,0,-1,0,565)"/>
<path style="fill:none;stroke-width:1;stroke-linecap:square;stroke-linejoin:miter;stroke:rgb(89.411926%,89.411926%,89.411926%);stroke-opacity:1;stroke-miterlimit:10;" d="M 0 290 L 1366 290 " transform="matrix(1,0,0,-1,0,565)"/>
<path style="fill:none;stroke-width:1;stroke-linecap:square;stroke-linejoin:miter;stroke:rgb(89.411926%,89.411926%,89.411926%);stroke-opacity:1;stroke-miterlimit:10;" d="M 0 259 L 1366 259 " transform="matrix(1,0,0,-1,0,565)"/>
<path style="fill:none;stroke-width:1;stroke-linecap:square;stroke-linejoin:miter;stroke:rgb(89.411926%,89.411926%,89.411926%);stroke-opacity:1;stroke-miterlimit:10;" d="M 0 227 L 1366 227 " transform="matrix(1,0,0,-1,0,565)"/>
<path style="fill:none;stroke-width:1;stroke-linecap:square;stroke-linejoin:miter;stroke:rgb(89.411926%,89.411926%,89.411926%);stroke-opacity:1;stroke-miterlimit:10;" d="M 0 195 L 1366 195 " transform="matrix(1,0,0,-1,0,565)"/>
<path style="fill:none;stroke-width:1;stroke-linecap:square;stroke-linejoin:miter;stroke:rgb(89.411926%,89.411926%,89.411926%);stroke-opacity:1;stroke-miterlimit:10;" d="M 0 163 L 1366 163 " transform="matrix(1,0,0,-1,0,565)"/>
<path style="fill:none;stroke-width:1;stroke-linecap:square;stroke-linejoin:miter;stroke:rgb(89.411926%,89.411926%,89.411926%);stroke-opacity:1;stroke-miterlimit:10;" d="M 0 131 L 1366 131 " transform="matrix(1,0,0,-1,0,565)"/>
<path style="fill:none;stroke-width:1;stroke-linecap:square;stroke-linejoin:miter;stroke:rgb(89.411926%,89.411926%,89.411926%);stroke-opacity:1;stroke-miterlimit:10;" d="M 0 99 L 1366 99 " transform="matrix(1,0,0,-1,0,565)"/>
<path style="fill:none;stroke-width:1;stroke-linecap:square;stroke-linejoin:miter;stroke:rgb(89.411926%,89.411926%,89.411926%);stroke-opacity:1;stroke-miterlimit:10;" d="M 0 68 L 1366 68 " transform="matrix(1,0,0,-1,0,565)"/>
<path style="fill:none;stroke-width:1;stroke-linecap:square;stroke-linejoin:miter;stroke:rgb(89.411926%,89.411926%,89.411926%);stroke-opacity:1;stroke-miterlimit:10;" d="M 0 36 L 1366 36 " transform="matrix(1,0,0,-1,0,565)"/>
<path style="fill:none;stroke-width:1;stroke-linecap:square;stroke-linejoin:miter;stroke:rgb(89.411926%,89.411926%,89.411926%);stroke-opacity:1;stroke-miterlimit:10;" d="M 0 4 L 1366 4 " transform="matrix(1,0,0,-1,0,565)"/>
<path style="fill:none;stroke-width:1;stroke-linecap:square;stroke-linejoin:miter;stroke:rgb(79.606628%,79.606628%,79.606628%);stroke-opacity:1;stroke-miterlimit:10;" d="M 358 564 L 358 0 " transform="matrix(1,0,0,-1,0,565)"/>
<path style="fill:none;stroke-width:1;stroke-linecap:square;stroke-linejoin:miter;stroke:rgb(79.606628%,79.606628%,79.606628%);stroke-opacity:1;stroke-miterlimit:10;" d="M 357 564 L 357 0 " transform="matrix(1,0,0,-1,0,565)"/>
<path style="fill:none;stroke-width:1;stroke-linecap:square;stroke-linejoin:miter;stroke:rgb(79.606628%,79.606628%,79.606628%);stroke-opacity:1;stroke-miterlimit:10;" d="M 359 564 L 359 0 " transform="matrix(1,0,0,-1,0,565)"/>
<path style="fill:none;stroke-width:1;stroke-linecap:square;stroke-linejoin:miter;stroke:rgb(79.606628%,79.606628%,79.606628%);stroke-opacity:1;stroke-miterlimit:10;" d="M 353 560 L 358 565 " transform="matrix(1,0,0,-1,0,565)"/>
<path style="fill:none;stroke-width:1;stroke-linecap:square;stroke-linejoin:miter;stroke:rgb(79.606628%,79.606628%,79.606628%);stroke-opacity:1;stroke-miterlimit:10;" d="M 363 560 L 358 565 " transform="matrix(1,0,0,-1,0,565)"/>
<path style="fill:none;stroke-width:1;stroke-linecap:square;stroke-linejoin:miter;stroke:rgb(79.606628%,79.606628%,79.606628%);stroke-opacity:1;stroke-miterlimit:10;" d="M 353 559 L 358 564 " transform="matrix(1,0,0,-1,0,565)"/>
<path style="fill:none;stroke-width:1;stroke-linecap:square;stroke-linejoin:miter;stroke:rgb(79.606628%,79.606628%,79.606628%);stroke-opacity:1;stroke-miterlimit:10;" d="M 363 559 L 358 564 " transform="matrix(1,0,0,-1,0,565)"/>
<path style="fill:none;stroke-width:1;stroke-linecap:square;stroke-linejoin:miter;stroke:rgb(79.606628%,79.606628%,79.606628%);stroke-opacity:1;stroke-miterlimit:10;" d="M 0 99 L 1365 99 " transform="matrix(1,0,0,-1,0,565)"/>
<path style="fill:none;stroke-width:1;stroke-linecap:square;stroke-linejoin:miter;stroke:rgb(79.606628%,79.606628%,79.606628%);stroke-opacity:1;stroke-miterlimit:10;" d="M 0 100 L 1365 100 " transform="matrix(1,0,0,-1,0,565)"/>
<path style="fill:none;stroke-width:1;stroke-linecap:square;stroke-linejoin:miter;stroke:rgb(79.606628%,79.606628%,79.606628%);stroke-opacity:1;stroke-miterlimit:10;" d="M 0 98 L 1365 98 " transform="matrix(1,0,0,-1,0,565)"/>
<path style="fill:none;stroke-width:1;stroke-linecap:square;stroke-linejoin:miter;stroke:rgb(79.606628%,79.606628%,79.606628%);stroke-opacity:1;stroke-miterlimit:10;" d="M 1361 104 L 1366 99 " transform="matrix(1,0,0,-1,0,565)"/>
<path style="fill:none;stroke-width:1;stroke-linecap:square;stroke-linejoin:miter;stroke:rgb(79.606628%,79.606628%,79.606628%);stroke-opacity:1;stroke-miterlimit:10;" d="M 1361 94 L 1366 99 " transform="matrix(1,0,0,-1,0,565)"/>
<path style="fill:none;stroke-width:1;stroke-linecap:square;stroke-linejoin:miter;stroke:rgb(79.606628%,79.606628%,79.606628%);stroke-opacity:1;stroke-miterlimit:10;" d="M 1360 104 L 1365 99 " transform="matrix(1,0,0,-1,0,565)"/>
<path style="fill:none;stroke-width:1;stroke-linecap:square;stroke-linejoin:miter;stroke:rgb(79.606628%,79.606628%,79.606628%);stroke-opacity:1;stroke-miterlimit:10;" d="M 1360 94 L 1365 99 " transform="matrix(1,0,0,-1,0,565)"/>
<path style="fill:none;stroke-width:1;stroke-linecap:square;stroke-linejoin:miter;stroke:rgb(59.606934%,59.606934%,59.606934%);stroke-opacity:1;stroke-miterlimit:10;" d="M 1312 35 L 1343 35 " transform="matrix(1,0,0,-1,0,565)"/>
<path style="fill:none;stroke-width:1;stroke-linecap:square;stroke-linejoin:miter;stroke:rgb(59.606934%,59.606934%,59.606934%);stroke-opacity:1;stroke-miterlimit:10;" d="M 1312 34 L 1343 34 " transform="matrix(1,0,0,-1,0,565)"/>
<path style="fill:none;stroke-width:1;stroke-linecap:square;stroke-linejoin:miter;stroke:rgb(59.606934%,59.606934%,59.606934%);stroke-opacity:1;stroke-miterlimit:10;" d="M 1312 36 L 1343 36 " transform="matrix(1,0,0,-1,0,565)"/>
<path style="fill:none;stroke-width:1;stroke-linecap:square;stroke-linejoin:miter;stroke:rgb(59.606934%,59.606934%,59.606934%);stroke-opacity:1;stroke-miterlimit:10;" d="M 1312 38 L 1312 32 " transform="matrix(1,0,0,-1,0,565)"/>
<path style="fill:none;stroke-width:1;stroke-linecap:square;stroke-linejoin:miter;stroke:rgb(59.606934%,59.606934%,59.606934%);stroke-opacity:1;stroke-miterlimit:10;" d="M 1343 38 L 1343 32 " transform="matrix(1,0,0,-1,0,565)"/>
<path style=" stroke:none;fill-rule:nonzero;fill:rgb(59.606934%,59.606934%,59.606934%);fill-opacity:1;" d="M 1324.480469 526 L 1326.421875 526 L 1326.421875 519.328125 L 1324.308594 519.75 L 1324.308594 518.671875 L 1326.410156 518.25 L 1327.589844 518.25 L 1327.589844 526 L 1329.53125 526 L 1329.53125 527 L 1324.480469 527 Z M 1331.921875 525.519531 L 1333.148438 525.519531 L 1333.148438 527 L 1331.921875 527 Z M 1338.261719 519.03125 C 1338.261719 519.03125 1337.359375 519.03125 1336.890625 519.941406 C 1336.890625 519.941406 1336.429688 520.828125 1336.429688 522.640625 C 1336.429688 522.640625 1336.429688 524.441406 1336.890625 525.339844 C 1336.890625 525.339844 1337.359375 526.230469 1338.261719 526.230469 C 1338.261719 526.230469 1339.179688 526.230469 1339.640625 525.339844 C 1339.640625 525.339844 1340.109375 524.441406 1340.109375 522.640625 C 1340.109375 522.640625 1340.109375 520.828125 1339.640625 519.941406 C 1339.640625 519.941406 1339.179688 519.03125 1338.261719 519.03125 Z M 1338.261719 518.089844 C 1338.261719 518.089844 1339.730469 518.089844 1340.511719 519.269531 C 1340.511719 519.269531 1341.289062 520.421875 1341.289062 522.640625 C 1341.289062 522.640625 1341.289062 524.839844 1340.511719 526.019531 C 1340.511719 526.019531 1339.730469 527.171875 1338.261719 527.171875 C 1338.261719 527.171875 1336.789062 527.171875 1336.011719 526.019531 C 1336.011719 526.019531 1335.25 524.839844 1335.25 522.640625 C 1335.25 522.640625 1335.25 520.421875 1336.011719 519.269531 C 1336.011719 519.269531 1336.789062 518.089844 1338.261719 518.089844 Z M 1338.261719 518.089844 "/>
<path style=" stroke:none;fill-rule:nonzero;fill:rgb(0%,0%,100%);fill-opacity:0.75686;" d="M 388 465.050781 C 388.019531 452.910156 380.730469 441.960938 369.519531 437.300781 L 358 465 Z M 388 465.050781 "/>
<path style=" stroke:none;fill-rule:nonzero;fill:rgb(100%,100%,100%);fill-opacity:0.29804;" d="M 386 465.050781 C 386.019531 453.71875 379.210938 443.5 368.75 439.148438 L 358 465 Z M 386 465.050781 "/>
<path style="fill:none;stroke-width:3;stroke-linecap:round;stroke-linejoin:round;stroke:rgb(0%,0%,100%);stroke-opacity:1;stroke-miterlimit:10;" d="M 358.5 99.5 L 516.5 479.5 " transform="matrix(1,0,0,-1,0,565)"/>
<path style="fill:none;stroke-width:3;stroke-linecap:round;stroke-linejoin:round;stroke:rgb(0%,0%,100%);stroke-opacity:1;stroke-miterlimit:10;" d="M 925.5 98.5 L 516.5 479.5 " transform="matrix(1,0,0,-1,0,565)"/>
<path style="fill:none;stroke-width:3;stroke-linecap:round;stroke-linejoin:round;stroke:rgb(0%,0%,100%);stroke-opacity:1;stroke-miterlimit:10;" d="M 925.5 98.5 L 358.5 99.5 " transform="matrix(1,0,0,-1,0,565)"/>
<path style="fill-rule:nonzero;fill:rgb(69.802856%,0%,0%);fill-opacity:1;stroke-width:1;stroke-linecap:square;stroke-linejoin:miter;stroke:rgb(0%,0%,0%);stroke-opacity:1;stroke-miterlimit:10;" d="M 363.5 99.5 C 363.5 96.738281 361.261719 94.5 358.5 94.5 C 355.738281 94.5 353.5 96.738281 353.5 99.5 C 353.5 102.261719 355.738281 104.5 358.5 104.5 C 361.261719 104.5 363.5 102.261719 363.5 99.5 Z M 363.5 99.5 " transform="matrix(1,0,0,-1,0,565)"/>
<path style="fill-rule:nonzero;fill:rgb(100%,0%,0%);fill-opacity:1;stroke-width:1;stroke-linecap:square;stroke-linejoin:miter;stroke:rgb(0%,0%,0%);stroke-opacity:1;stroke-miterlimit:10;" d="M 930.5 98.5 C 930.5 95.738281 928.261719 93.5 925.5 93.5 C 922.738281 93.5 920.5 95.738281 920.5 98.5 C 920.5 101.261719 922.738281 103.5 925.5 103.5 C 928.261719 103.5 930.5 101.261719 930.5 98.5 Z M 930.5 98.5 " transform="matrix(1,0,0,-1,0,565)"/>
<path style="fill-rule:nonzero;fill:rgb(100%,0%,0%);fill-opacity:1;stroke-width:1;stroke-linecap:square;stroke-linejoin:miter;stroke:rgb(0%,0%,0%);stroke-opacity:1;stroke-miterlimit:10;" d="M 521.5 479.5 C 521.5 476.738281 519.261719 474.5 516.5 474.5 C 513.738281 474.5 511.5 476.738281 511.5 479.5 C 511.5 482.261719 513.738281 484.5 516.5 484.5 C 519.261719 484.5 521.5 482.261719 521.5 479.5 Z M 521.5 479.5 " transform="matrix(1,0,0,-1,0,565)"/>
<path style=" stroke:none;fill-rule:nonzero;fill:rgb(0%,0%,0%);fill-opacity:1;" d="M 287.660156 508.730469 C 287.660156 508.730469 284.808594 507.46875 283.359375 504.699219 C 283.359375 504.699219 281.910156 501.921875 281.910156 497.75 C 281.910156 497.75 281.910156 493.578125 283.359375 490.808594 C 283.359375 490.808594 284.808594 488.050781 287.660156 486.769531 L 287.660156 487.910156 C 287.660156 487.910156 285.839844 489.160156 285.058594 491.421875 C 285.058594 491.421875 284.28125 493.671875 284.28125 497.75 C 284.28125 497.75 284.28125 501.828125 285.058594 504.089844 C 285.058594 504.089844 285.839844 506.339844 287.660156 507.589844 Z M 287.660156 508.730469 "/>
<path style=" stroke:none;fill-rule:nonzero;fill:rgb(0%,0%,0%);fill-opacity:1;" d="M 295.980469 497.390625 L 298.589844 493.800781 L 296.921875 493.800781 L 296.921875 492.550781 L 301.71875 492.550781 L 301.71875 493.800781 L 300.058594 493.800781 L 296.71875 498.410156 L 300.609375 503.75 L 302.25 503.75 L 302.25 505 L 296.480469 505 L 296.480469 503.75 L 298.078125 503.75 L 295.359375 500.03125 L 292.640625 503.75 L 294.269531 503.75 L 294.269531 505 L 289.53125 505 L 289.53125 503.75 L 291.191406 503.75 L 294.609375 499.019531 L 290.828125 493.800781 L 289.300781 493.800781 L 289.300781 492.550781 L 294.859375 492.550781 L 294.859375 493.800781 L 293.378906 493.800781 Z M 295.980469 497.390625 "/>
<path style=" stroke:none;fill-rule:nonzero;fill:rgb(0%,0%,0%);fill-opacity:1;" d="M 305.558594 511 L 305.558594 510.058594 L 307.839844 510.058594 L 307.839844 499.160156 L 305.199219 500.859375 L 305.199219 499.71875 L 308.390625 497.640625 L 309.609375 497.640625 L 309.609375 510.058594 L 311.890625 510.058594 L 311.890625 511 Z M 305.558594 511 "/>
<path style=" stroke:none;fill-rule:nonzero;fill:rgb(0%,0%,0%);fill-opacity:1;" d="M 314.878906 507.328125 C 314.878906 507.328125 315.96875 506.53125 316.480469 505.421875 C 316.480469 505.421875 317 504.328125 317 502.769531 L 317 502.339844 L 319.308594 502.339844 C 319.308594 502.339844 319.21875 504.339844 318.359375 505.78125 C 318.359375 505.78125 317.519531 507.21875 315.808594 508.269531 Z M 314.878906 507.328125 "/>
<path style=" stroke:none;fill-rule:nonzero;fill:rgb(0%,0%,0%);fill-opacity:1;" d="M 327.191406 507.28125 L 328 505.21875 L 323.339844 493.800781 L 321.921875 493.800781 L 321.921875 492.550781 L 327.660156 492.550781 L 327.660156 493.800781 L 325.671875 493.800781 L 329.171875 502.359375 L 332.671875 493.800781 L 330.808594 493.800781 L 330.808594 492.550781 L 335.480469 492.550781 L 335.480469 493.800781 L 334.089844 493.800781 L 328.390625 507.808594 C 328.390625 507.808594 327.800781 509.269531 327.078125 509.800781 C 327.078125 509.800781 326.378906 510.328125 325.078125 510.328125 C 325.078125 510.328125 324.519531 510.328125 323.941406 510.230469 C 323.941406 510.230469 323.359375 510.140625 322.78125 509.96875 L 322.78125 507.589844 L 323.878906 507.589844 C 323.878906 507.589844 323.949219 508.390625 324.28125 508.730469 C 324.28125 508.730469 324.609375 509.078125 325.308594 509.078125 C 325.308594 509.078125 325.96875 509.078125 326.359375 508.71875 C 326.359375 508.71875 326.75 508.359375 327.191406 507.28125 Z M 327.191406 507.28125 "/>
<path style=" stroke:none;fill-rule:nonzero;fill:rgb(0%,0%,0%);fill-opacity:1;" d="M 338.558594 511 L 338.558594 510.058594 L 340.839844 510.058594 L 340.839844 499.160156 L 338.199219 500.859375 L 338.199219 499.71875 L 341.390625 497.640625 L 342.609375 497.640625 L 342.609375 510.058594 L 344.890625 510.058594 L 344.890625 511 Z M 338.558594 511 "/>
<path style=" stroke:none;fill-rule:nonzero;fill:rgb(0%,0%,0%);fill-opacity:1;" d="M 348.699219 508.730469 L 348.699219 507.589844 C 348.699219 507.589844 350.5 506.339844 351.300781 504.089844 C 351.300781 504.089844 352.089844 501.828125 352.089844 497.75 C 352.089844 497.75 352.089844 493.671875 351.300781 491.421875 C 351.300781 491.421875 350.5 489.160156 348.699219 487.910156 L 348.699219 486.769531 C 348.699219 486.769531 351.558594 488.050781 353.019531 490.808594 C 353.019531 490.808594 354.46875 493.578125 354.46875 497.75 C 354.46875 497.75 354.46875 501.921875 353.019531 504.699219 C 353.019531 504.699219 351.558594 507.46875 348.699219 508.730469 Z M 348.699219 508.730469 "/>
<path style=" stroke:none;fill-rule:nonzero;fill:rgb(0%,0%,0%);fill-opacity:1;" d="M 569.660156 94.730469 C 569.660156 94.730469 566.808594 93.46875 565.359375 90.699219 C 565.359375 90.699219 563.910156 87.921875 563.910156 83.75 C 563.910156 83.75 563.910156 79.578125 565.359375 76.808594 C 565.359375 76.808594 566.808594 74.050781 569.660156 72.769531 L 569.660156 73.910156 C 569.660156 73.910156 567.839844 75.160156 567.058594 77.421875 C 567.058594 77.421875 566.28125 79.671875 566.28125 83.75 C 566.28125 83.75 566.28125 87.828125 567.058594 90.089844 C 567.058594 90.089844 567.839844 92.339844 569.660156 93.589844 Z M 569.660156 94.730469 "/>
<path style=" stroke:none;fill-rule:nonzero;fill:rgb(0%,0%,0%);fill-opacity:1;" d="M 577.980469 83.390625 L 580.589844 79.800781 L 578.921875 79.800781 L 578.921875 78.550781 L 583.71875 78.550781 L 583.71875 79.800781 L 582.058594 79.800781 L 578.71875 84.410156 L 582.609375 89.75 L 584.25 89.75 L 584.25 91 L 578.480469 91 L 578.480469 89.75 L 580.078125 89.75 L 577.359375 86.03125 L 574.640625 89.75 L 576.269531 89.75 L 576.269531 91 L 571.53125 91 L 571.53125 89.75 L 573.191406 89.75 L 576.609375 85.019531 L 572.828125 79.800781 L 571.300781 79.800781 L 571.300781 78.550781 L 576.859375 78.550781 L 576.859375 79.800781 L 575.378906 79.800781 Z M 577.980469 83.390625 "/>
<path style=" stroke:none;fill-rule:nonzero;fill:rgb(0%,0%,0%);fill-opacity:1;" d="M 587.558594 97 L 587.558594 96.058594 L 589.839844 96.058594 L 589.839844 85.160156 L 587.199219 86.859375 L 587.199219 85.71875 L 590.390625 83.640625 L 591.609375 83.640625 L 591.609375 96.058594 L 593.890625 96.058594 L 593.890625 97 Z M 587.558594 97 "/>
<path style=" stroke:none;fill-rule:nonzero;fill:rgb(0%,0%,0%);fill-opacity:1;" d="M 607 75.949219 L 607 82.53125 L 613.558594 82.53125 L 613.558594 84.421875 L 607 84.421875 L 607 91 L 605.128906 91 L 605.128906 84.421875 L 598.550781 84.421875 L 598.550781 82.53125 L 605.128906 82.53125 L 605.128906 75.949219 Z M 607 75.949219 "/>
<path style=" stroke:none;fill-rule:nonzero;fill:rgb(0%,0%,0%);fill-opacity:1;" d="M 625.550781 87.078125 L 625.550781 84.449219 L 622.78125 84.449219 C 622.78125 84.449219 621.171875 84.449219 620.378906 85.140625 C 620.378906 85.140625 619.589844 85.828125 619.589844 87.269531 C 619.589844 87.269531 619.589844 88.558594 620.390625 89.328125 C 620.390625 89.328125 621.191406 90.078125 622.550781 90.078125 C 622.550781 90.078125 623.910156 90.078125 624.71875 89.25 C 624.71875 89.25 625.550781 88.421875 625.550781 87.078125 Z M 627.699219 83.21875 L 627.699219 89.75 L 629.628906 89.75 L 629.628906 91 L 625.550781 91 L 625.550781 89.660156 C 625.550781 89.660156 624.839844 90.519531 623.910156 90.941406 C 623.910156 90.941406 622.96875 91.339844 621.699219 91.339844 C 621.699219 91.339844 619.640625 91.339844 618.421875 90.25 C 618.421875 90.25 617.199219 89.140625 617.199219 87.269531 C 617.199219 87.269531 617.199219 85.328125 618.589844 84.269531 C 618.589844 84.269531 619.980469 83.191406 622.53125 83.191406 L 625.550781 83.191406 L 625.550781 82.339844 C 625.550781 82.339844 625.550781 80.921875 624.691406 80.140625 C 624.691406 80.140625 623.828125 79.359375 622.269531 79.359375 C 622.269531 79.359375 620.980469 79.359375 620.21875 79.949219 C 620.21875 79.949219 619.449219 80.53125 619.269531 81.691406 L 618.160156 81.691406 L 618.160156 79.160156 C 618.160156 79.160156 619.28125 78.691406 620.339844 78.449219 C 620.339844 78.449219 621.410156 78.199219 622.410156 78.199219 C 622.410156 78.199219 625 78.199219 626.339844 79.480469 C 626.339844 79.480469 627.699219 80.769531 627.699219 83.21875 Z M 627.699219 83.21875 "/>
<path style=" stroke:none;fill-rule:nonzero;fill:rgb(0%,0%,0%);fill-opacity:1;" d="M 642.339844 87.269531 C 642.339844 87.269531 641.890625 89.25 640.578125 90.300781 C 640.578125 90.300781 639.28125 91.339844 637.21875 91.339844 C 637.21875 91.339844 634.5 91.339844 632.839844 89.550781 C 632.839844 89.550781 631.199219 87.730469 631.199219 84.769531 C 631.199219 84.769531 631.199219 81.78125 632.839844 80 C 632.839844 80 634.5 78.199219 637.21875 78.199219 C 637.21875 78.199219 638.410156 78.199219 639.578125 78.480469 C 639.578125 78.480469 640.75 78.75 641.941406 79.308594 L 641.941406 82.5 L 640.671875 82.5 C 640.671875 82.5 640.441406 80.859375 639.609375 80.109375 C 639.609375 80.109375 638.78125 79.359375 637.25 79.359375 C 637.25 79.359375 635.5 79.359375 634.609375 80.71875 C 634.609375 80.71875 633.71875 82.058594 633.71875 84.769531 C 633.71875 84.769531 633.71875 87.449219 634.589844 88.808594 C 634.589844 88.808594 635.480469 90.171875 637.25 90.171875 C 637.25 90.171875 638.640625 90.171875 639.46875 89.449219 C 639.46875 89.449219 640.300781 88.71875 640.609375 87.269531 Z M 650.660156 90.171875 C 650.660156 90.171875 652.390625 90.171875 653.269531 88.808594 C 653.269531 88.808594 654.160156 87.441406 654.160156 84.769531 C 654.160156 84.769531 654.160156 82.089844 653.269531 80.730469 C 653.269531 80.730469 652.390625 79.359375 650.660156 79.359375 C 650.660156 79.359375 648.929688 79.359375 648.039062 80.730469 C 648.039062 80.730469 647.160156 82.089844 647.160156 84.769531 C 647.160156 84.769531 647.160156 87.441406 648.050781 88.808594 C 648.050781 88.808594 648.941406 90.171875 650.660156 90.171875 Z M 650.660156 91.339844 C 650.660156 91.339844 647.941406 91.339844 646.289062 89.550781 C 646.289062 89.550781 644.640625 87.730469 644.640625 84.769531 C 644.640625 84.769531 644.640625 81.78125 646.289062 80 C 646.289062 80 647.929688 78.199219 650.660156 78.199219 C 650.660156 78.199219 653.390625 78.199219 655.039062 80 C 655.039062 80 656.691406 81.78125 656.691406 84.769531 C 656.691406 84.769531 656.691406 87.730469 655.039062 89.550781 C 655.039062 89.550781 653.390625 91.339844 650.660156 91.339844 Z M 659.230469 90.308594 L 659.230469 87.410156 L 660.480469 87.410156 C 660.480469 87.410156 660.53125 88.800781 661.359375 89.480469 C 661.359375 89.480469 662.191406 90.171875 663.800781 90.171875 C 663.800781 90.171875 665.25 90.171875 666.019531 89.640625 C 666.019531 89.640625 666.78125 89.089844 666.78125 88.050781 C 666.78125 88.050781 666.78125 87.21875 666.21875 86.71875 C 666.21875 86.71875 665.660156 86.21875 663.878906 85.640625 L 662.308594 85.109375 C 662.308594 85.109375 660.699219 84.589844 659.980469 83.828125 C 659.980469 83.828125 659.269531 83.050781 659.269531 81.859375 C 659.269531 81.859375 659.269531 80.140625 660.519531 79.171875 C 660.519531 79.171875 661.769531 78.199219 663.980469 78.199219 C 663.980469 78.199219 664.96875 78.199219 666.058594 78.46875 C 666.058594 78.46875 667.160156 78.71875 668.308594 79.199219 L 668.308594 81.921875 L 667.058594 81.921875 C 667.058594 81.921875 667.019531 80.71875 666.21875 80.050781 C 666.21875 80.050781 665.421875 79.359375 664.058594 79.359375 C 664.058594 79.359375 662.699219 79.359375 662 79.839844 C 662 79.839844 661.300781 80.328125 661.300781 81.28125 C 661.300781 81.28125 661.300781 82.058594 661.828125 82.550781 C 661.828125 82.550781 662.359375 83.019531 663.941406 83.519531 L 665.660156 84.03125 C 665.660156 84.03125 667.421875 84.589844 668.199219 85.421875 C 668.199219 85.421875 668.980469 86.230469 668.980469 87.550781 C 668.980469 87.550781 668.980469 89.308594 667.628906 90.328125 C 667.628906 90.328125 666.269531 91.339844 663.890625 91.339844 C 663.890625 91.339844 662.691406 91.339844 661.53125 91.078125 C 661.53125 91.078125 660.390625 90.828125 659.230469 90.308594 Z M 659.230469 90.308594 "/>
<path style=" stroke:none;fill-rule:nonzero;fill:rgb(0%,0%,0%);fill-opacity:1;" d="M 680.359375 87.921875 L 679.890625 89.230469 C 679.890625 89.230469 679.53125 90.230469 678.421875 90.871094 C 678.421875 90.871094 677.691406 91.308594 676.410156 91.300781 C 676.410156 91.300781 674.089844 91.269531 672.660156 89.46875 C 672.660156 89.46875 671.199219 87.640625 671.199219 84.71875 C 671.199219 84.71875 671.199219 81.839844 672.660156 79.96875 C 672.660156 79.96875 674.019531 78.199219 676.921875 78.21875 C 676.921875 78.21875 678.910156 78.21875 679.921875 79 C 679.921875 79 680.808594 79.691406 681.140625 81.199219 L 681.230469 81.640625 L 681.699219 80.328125 C 681.699219 80.328125 682.128906 79.109375 683.328125 78.5 L 684.519531 78.5 L 684.519531 79.191406 C 684.519531 79.191406 683.390625 79.53125 682.980469 80.640625 L 681.769531 83.96875 L 682.589844 87.550781 C 682.589844 87.550781 683.019531 89.390625 683.449219 89.589844 C 683.449219 89.589844 684.089844 89.890625 685.558594 89 L 685.558594 90.421875 C 685.558594 90.421875 683.191406 91.800781 681.519531 90.359375 C 681.519531 90.359375 680.75 89.699219 680.53125 88.769531 Z M 679.859375 85.621094 L 679.128906 82.191406 C 679.128906 82.191406 678.53125 79.441406 676.941406 79.441406 C 676.941406 79.441406 675.589844 79.421875 674.578125 80.859375 C 674.578125 80.859375 673.71875 82.050781 673.71875 84.769531 C 673.71875 84.769531 673.71875 87.339844 674.578125 88.671875 C 674.578125 88.671875 675.480469 90.109375 677.058594 89.980469 C 677.058594 89.980469 678.421875 89.890625 679.390625 87.019531 Z M 679.859375 85.621094 "/>
<path style=" stroke:none;fill-rule:nonzero;fill:rgb(0%,0%,0%);fill-opacity:1;" d="M 686.878906 93.328125 C 686.878906 93.328125 687.96875 92.53125 688.480469 91.421875 C 688.480469 91.421875 689 90.328125 689 88.769531 L 689 88.339844 L 691.308594 88.339844 C 691.308594 88.339844 691.21875 90.339844 690.359375 91.78125 C 690.359375 91.78125 689.519531 93.21875 687.808594 94.269531 Z M 686.878906 93.328125 "/>
<path style=" stroke:none;fill-rule:nonzero;fill:rgb(0%,0%,0%);fill-opacity:1;" d="M 699.191406 93.28125 L 700 91.21875 L 695.339844 79.800781 L 693.921875 79.800781 L 693.921875 78.550781 L 699.660156 78.550781 L 699.660156 79.800781 L 697.671875 79.800781 L 701.171875 88.359375 L 704.671875 79.800781 L 702.808594 79.800781 L 702.808594 78.550781 L 707.480469 78.550781 L 707.480469 79.800781 L 706.089844 79.800781 L 700.390625 93.808594 C 700.390625 93.808594 699.800781 95.269531 699.078125 95.800781 C 699.078125 95.800781 698.378906 96.328125 697.078125 96.328125 C 697.078125 96.328125 696.519531 96.328125 695.941406 96.230469 C 695.941406 96.230469 695.359375 96.140625 694.78125 95.96875 L 694.78125 93.589844 L 695.878906 93.589844 C 695.878906 93.589844 695.949219 94.390625 696.28125 94.730469 C 696.28125 94.730469 696.609375 95.078125 697.308594 95.078125 C 697.308594 95.078125 697.96875 95.078125 698.359375 94.71875 C 698.359375 94.71875 698.75 94.359375 699.191406 93.28125 Z M 699.191406 93.28125 "/>
<path style=" stroke:none;fill-rule:nonzero;fill:rgb(0%,0%,0%);fill-opacity:1;" d="M 710.558594 97 L 710.558594 96.058594 L 712.839844 96.058594 L 712.839844 85.160156 L 710.199219 86.859375 L 710.199219 85.71875 L 713.390625 83.640625 L 714.609375 83.640625 L 714.609375 96.058594 L 716.890625 96.058594 L 716.890625 97 Z M 710.558594 97 "/>
<path style=" stroke:none;fill-rule:nonzero;fill:rgb(0%,0%,0%);fill-opacity:1;" d="M 730 75.949219 L 730 82.53125 L 736.558594 82.53125 L 736.558594 84.421875 L 730 84.421875 L 730 91 L 728.128906 91 L 728.128906 84.421875 L 721.550781 84.421875 L 721.550781 82.53125 L 728.128906 82.53125 L 728.128906 75.949219 Z M 730 75.949219 "/>
<path style=" stroke:none;fill-rule:nonzero;fill:rgb(0%,0%,0%);fill-opacity:1;" d="M 748.550781 87.078125 L 748.550781 84.449219 L 745.78125 84.449219 C 745.78125 84.449219 744.171875 84.449219 743.378906 85.140625 C 743.378906 85.140625 742.589844 85.828125 742.589844 87.269531 C 742.589844 87.269531 742.589844 88.558594 743.390625 89.328125 C 743.390625 89.328125 744.191406 90.078125 745.550781 90.078125 C 745.550781 90.078125 746.910156 90.078125 747.71875 89.25 C 747.71875 89.25 748.550781 88.421875 748.550781 87.078125 Z M 750.699219 83.21875 L 750.699219 89.75 L 752.628906 89.75 L 752.628906 91 L 748.550781 91 L 748.550781 89.660156 C 748.550781 89.660156 747.839844 90.519531 746.910156 90.941406 C 746.910156 90.941406 745.96875 91.339844 744.699219 91.339844 C 744.699219 91.339844 742.640625 91.339844 741.421875 90.25 C 741.421875 90.25 740.199219 89.140625 740.199219 87.269531 C 740.199219 87.269531 740.199219 85.328125 741.589844 84.269531 C 741.589844 84.269531 742.980469 83.191406 745.53125 83.191406 L 748.550781 83.191406 L 748.550781 82.339844 C 748.550781 82.339844 748.550781 80.921875 747.691406 80.140625 C 747.691406 80.140625 746.828125 79.359375 745.269531 79.359375 C 745.269531 79.359375 743.980469 79.359375 743.21875 79.949219 C 743.21875 79.949219 742.449219 80.53125 742.269531 81.691406 L 741.160156 81.691406 L 741.160156 79.160156 C 741.160156 79.160156 742.28125 78.691406 743.339844 78.449219 C 743.339844 78.449219 744.410156 78.199219 745.410156 78.199219 C 745.410156 78.199219 748 78.199219 749.339844 79.480469 C 749.339844 79.480469 750.699219 80.769531 750.699219 83.21875 Z M 750.699219 83.21875 "/>
<path style=" stroke:none;fill-rule:nonzero;fill:rgb(0%,0%,0%);fill-opacity:1;" d="M 754.339844 90.308594 L 754.339844 87.410156 L 755.589844 87.410156 C 755.589844 87.410156 755.640625 88.800781 756.46875 89.480469 C 756.46875 89.480469 757.300781 90.171875 758.910156 90.171875 C 758.910156 90.171875 760.359375 90.171875 761.128906 89.640625 C 761.128906 89.640625 761.890625 89.089844 761.890625 88.050781 C 761.890625 88.050781 761.890625 87.21875 761.328125 86.71875 C 761.328125 86.71875 760.769531 86.21875 758.980469 85.640625 L 757.421875 85.109375 C 757.421875 85.109375 755.808594 84.589844 755.089844 83.828125 C 755.089844 83.828125 754.378906 83.050781 754.378906 81.859375 C 754.378906 81.859375 754.378906 80.140625 755.628906 79.171875 C 755.628906 79.171875 756.878906 78.199219 759.089844 78.199219 C 759.089844 78.199219 760.078125 78.199219 761.171875 78.46875 C 761.171875 78.46875 762.269531 78.71875 763.421875 79.199219 L 763.421875 81.921875 L 762.171875 81.921875 C 762.171875 81.921875 762.128906 80.71875 761.328125 80.050781 C 761.328125 80.050781 760.53125 79.359375 759.171875 79.359375 C 759.171875 79.359375 757.808594 79.359375 757.109375 79.839844 C 757.109375 79.839844 756.410156 80.328125 756.410156 81.28125 C 756.410156 81.28125 756.410156 82.058594 756.941406 82.550781 C 756.941406 82.550781 757.46875 83.019531 759.050781 83.519531 L 760.769531 84.03125 C 760.769531 84.03125 762.53125 84.589844 763.308594 85.421875 C 763.308594 85.421875 764.089844 86.230469 764.089844 87.550781 C 764.089844 87.550781 764.089844 89.308594 762.730469 90.328125 C 762.730469 90.328125 761.378906 91.339844 759 91.339844 C 759 91.339844 757.800781 91.339844 756.640625 91.078125 C 756.640625 91.078125 755.5 90.828125 754.339844 90.308594 Z M 767.640625 74.671875 C 767.640625 74.671875 767.640625 74.140625 768.039062 73.75 C 768.039062 73.75 768.441406 73.339844 768.988281 73.339844 C 768.988281 73.339844 769.519531 73.339844 769.910156 73.75 C 769.910156 73.75 770.320312 74.140625 770.320312 74.671875 C 770.320312 74.671875 770.320312 75.21875 769.929688 75.609375 C 769.929688 75.609375 769.539062 76 768.988281 76 C 768.988281 76 768.441406 76 768.039062 75.609375 C 768.039062 75.609375 767.640625 75.21875 767.640625 74.671875 Z M 770.410156 89.75 L 772.441406 89.75 L 772.441406 91 L 766.191406 91 L 766.191406 89.75 L 768.25 89.75 L 768.25 79.800781 L 766.191406 79.800781 L 766.191406 78.550781 L 770.410156 78.550781 Z M 773.980469 91 L 773.980469 89.75 L 775.929688 89.75 L 775.929688 79.800781 L 773.871094 79.800781 L 773.871094 78.550781 L 778.089844 78.550781 L 778.089844 80.75 C 778.089844 80.75 778.679688 79.480469 779.628906 78.839844 C 779.628906 78.839844 780.589844 78.199219 781.851562 78.199219 C 781.851562 78.199219 783.910156 78.199219 784.878906 79.390625 C 784.878906 79.390625 785.871094 80.558594 785.871094 83.078125 L 785.871094 89.75 L 787.789062 89.75 L 787.789062 91 L 781.839844 91 L 781.839844 89.75 L 783.699219 89.75 L 783.699219 83.75 C 783.699219 83.75 783.699219 81.46875 783.128906 80.621094 C 783.128906 80.621094 782.570312 79.769531 781.148438 79.769531 C 781.148438 79.769531 779.648438 79.769531 778.871094 80.871094 C 778.871094 80.871094 778.089844 81.96875 778.089844 84.058594 L 778.089844 89.75 L 779.960938 89.75 L 779.960938 91 Z M 773.980469 91 "/>
<path style=" stroke:none;fill-rule:nonzero;fill:rgb(0%,0%,0%);fill-opacity:1;" d="M 798.359375 87.921875 L 797.890625 89.230469 C 797.890625 89.230469 797.53125 90.230469 796.421875 90.871094 C 796.421875 90.871094 795.691406 91.308594 794.410156 91.300781 C 794.410156 91.300781 792.089844 91.269531 790.660156 89.46875 C 790.660156 89.46875 789.199219 87.640625 789.199219 84.71875 C 789.199219 84.71875 789.199219 81.839844 790.660156 79.96875 C 790.660156 79.96875 792.019531 78.199219 794.921875 78.21875 C 794.921875 78.21875 796.910156 78.21875 797.921875 79 C 797.921875 79 798.808594 79.691406 799.140625 81.199219 L 799.230469 81.640625 L 799.699219 80.328125 C 799.699219 80.328125 800.128906 79.109375 801.328125 78.5 L 802.519531 78.5 L 802.519531 79.191406 C 802.519531 79.191406 801.390625 79.53125 800.980469 80.640625 L 799.769531 83.96875 L 800.589844 87.550781 C 800.589844 87.550781 801.019531 89.390625 801.449219 89.589844 C 801.449219 89.589844 802.089844 89.890625 803.558594 89 L 803.558594 90.421875 C 803.558594 90.421875 801.191406 91.800781 799.519531 90.359375 C 799.519531 90.359375 798.75 89.699219 798.53125 88.769531 Z M 797.859375 85.621094 L 797.128906 82.191406 C 797.128906 82.191406 796.53125 79.441406 794.941406 79.441406 C 794.941406 79.441406 793.589844 79.421875 792.578125 80.859375 C 792.578125 80.859375 791.71875 82.050781 791.71875 84.769531 C 791.71875 84.769531 791.71875 87.339844 792.578125 88.671875 C 792.578125 88.671875 793.480469 90.109375 795.058594 89.980469 C 795.058594 89.980469 796.421875 89.890625 797.390625 87.019531 Z M 797.859375 85.621094 "/>
<path style=" stroke:none;fill-rule:nonzero;fill:rgb(0%,0%,0%);fill-opacity:1;" d="M 805.699219 94.730469 L 805.699219 93.589844 C 805.699219 93.589844 807.5 92.339844 808.300781 90.089844 C 808.300781 90.089844 809.089844 87.828125 809.089844 83.75 C 809.089844 83.75 809.089844 79.671875 808.300781 77.421875 C 808.300781 77.421875 807.5 75.160156 805.699219 73.910156 L 805.699219 72.769531 C 805.699219 72.769531 808.558594 74.050781 810.019531 76.808594 C 810.019531 76.808594 811.46875 79.578125 811.46875 83.75 C 811.46875 83.75 811.46875 87.921875 810.019531 90.699219 C 810.019531 90.699219 808.558594 93.46875 805.699219 94.730469 Z M 805.699219 94.730469 "/>
<path style=" stroke:none;fill-rule:nonzero;fill:rgb(0%,0%,0%);fill-opacity:1;" d="M 926.660156 506.730469 C 926.660156 506.730469 923.808594 505.46875 922.359375 502.699219 C 922.359375 502.699219 920.910156 499.921875 920.910156 495.75 C 920.910156 495.75 920.910156 491.578125 922.359375 488.808594 C 922.359375 488.808594 923.808594 486.050781 926.660156 484.769531 L 926.660156 485.910156 C 926.660156 485.910156 924.839844 487.160156 924.058594 489.421875 C 924.058594 489.421875 923.28125 491.671875 923.28125 495.75 C 923.28125 495.75 923.28125 499.828125 924.058594 502.089844 C 924.058594 502.089844 924.839844 504.339844 926.660156 505.589844 Z M 926.660156 506.730469 "/>
<path style=" stroke:none;fill-rule:nonzero;fill:rgb(0%,0%,0%);fill-opacity:1;" d="M 934.980469 495.390625 L 937.589844 491.800781 L 935.921875 491.800781 L 935.921875 490.550781 L 940.71875 490.550781 L 940.71875 491.800781 L 939.058594 491.800781 L 935.71875 496.410156 L 939.609375 501.75 L 941.25 501.75 L 941.25 503 L 935.480469 503 L 935.480469 501.75 L 937.078125 501.75 L 934.359375 498.03125 L 931.640625 501.75 L 933.269531 501.75 L 933.269531 503 L 928.53125 503 L 928.53125 501.75 L 930.191406 501.75 L 933.609375 497.019531 L 929.828125 491.800781 L 928.300781 491.800781 L 928.300781 490.550781 L 933.859375 490.550781 L 933.859375 491.800781 L 932.378906 491.800781 Z M 934.980469 495.390625 "/>
<path style=" stroke:none;fill-rule:nonzero;fill:rgb(0%,0%,0%);fill-opacity:1;" d="M 944.558594 509 L 944.558594 508.058594 L 946.839844 508.058594 L 946.839844 497.160156 L 944.199219 498.859375 L 944.199219 497.71875 L 947.390625 495.640625 L 948.609375 495.640625 L 948.609375 508.058594 L 950.890625 508.058594 L 950.890625 509 Z M 944.558594 509 "/>
<path style=" stroke:none;fill-rule:nonzero;fill:rgb(0%,0%,0%);fill-opacity:1;" d="M 964 487.949219 L 964 494.53125 L 970.558594 494.53125 L 970.558594 496.421875 L 964 496.421875 L 964 503 L 962.128906 503 L 962.128906 496.421875 L 955.550781 496.421875 L 955.550781 494.53125 L 962.128906 494.53125 L 962.128906 487.949219 Z M 964 487.949219 "/>
<path style=" stroke:none;fill-rule:nonzero;fill:rgb(0%,0%,0%);fill-opacity:1;" d="M 975.769531 501.75 L 975.769531 486 L 973.691406 486 L 973.691406 484.769531 L 977.921875 484.769531 L 977.921875 492.480469 C 977.921875 492.480469 978.558594 491.308594 979.53125 490.769531 C 979.53125 490.769531 980.519531 490.199219 981.949219 490.199219 C 981.949219 490.199219 984.25 490.199219 985.699219 492.019531 C 985.699219 492.019531 987.160156 493.828125 987.160156 496.769531 C 987.160156 496.769531 987.160156 499.691406 985.699219 501.519531 C 985.699219 501.519531 984.25 503.339844 981.949219 503.339844 C 981.949219 503.339844 980.519531 503.339844 979.53125 502.78125 C 979.53125 502.78125 978.558594 502.21875 977.921875 501.050781 L 977.921875 503 L 973.691406 503 L 973.691406 501.75 Z M 977.921875 497.390625 C 977.921875 497.390625 977.921875 499.640625 978.78125 500.808594 C 978.78125 500.808594 979.640625 501.980469 981.28125 501.980469 C 981.28125 501.980469 982.941406 501.980469 983.78125 500.671875 C 983.78125 500.671875 984.640625 499.339844 984.640625 496.769531 C 984.640625 496.769531 984.640625 494.171875 983.78125 492.859375 C 983.78125 492.859375 982.941406 491.550781 981.28125 491.550781 C 981.28125 491.550781 979.640625 491.550781 978.78125 492.730469 C 978.78125 492.730469 977.921875 493.921875 977.921875 496.160156 Z M 977.921875 497.390625 "/>
<path style=" stroke:none;fill-rule:nonzero;fill:rgb(0%,0%,0%);fill-opacity:1;" d="M 988.878906 505.328125 C 988.878906 505.328125 989.96875 504.53125 990.480469 503.421875 C 990.480469 503.421875 991 502.328125 991 500.769531 L 991 500.339844 L 993.308594 500.339844 C 993.308594 500.339844 993.21875 502.339844 992.359375 503.78125 C 992.359375 503.78125 991.519531 505.21875 989.808594 506.269531 Z M 988.878906 505.328125 "/>
<path style=" stroke:none;fill-rule:nonzero;fill:rgb(0%,0%,0%);fill-opacity:1;" d="M 1001.191406 505.28125 L 1002 503.21875 L 997.339844 491.800781 L 995.921875 491.800781 L 995.921875 490.550781 L 1001.660156 490.550781 L 1001.660156 491.800781 L 999.671875 491.800781 L 1003.171875 500.359375 L 1006.671875 491.800781 L 1004.808594 491.800781 L 1004.808594 490.550781 L 1009.480469 490.550781 L 1009.480469 491.800781 L 1008.089844 491.800781 L 1002.390625 505.808594 C 1002.390625 505.808594 1001.800781 507.269531 1001.078125 507.800781 C 1001.078125 507.800781 1000.378906 508.328125 999.078125 508.328125 C 999.078125 508.328125 998.519531 508.328125 997.941406 508.230469 C 997.941406 508.230469 997.359375 508.140625 996.78125 507.96875 L 996.78125 505.589844 L 997.878906 505.589844 C 997.878906 505.589844 997.949219 506.390625 998.28125 506.730469 C 998.28125 506.730469 998.609375 507.078125 999.308594 507.078125 C 999.308594 507.078125 999.96875 507.078125 1000.359375 506.71875 C 1000.359375 506.71875 1000.75 506.359375 1001.191406 505.28125 Z M 1001.191406 505.28125 "/>
<path style=" stroke:none;fill-rule:nonzero;fill:rgb(0%,0%,0%);fill-opacity:1;" d="M 1012.558594 509 L 1012.558594 508.058594 L 1014.839844 508.058594 L 1014.839844 497.160156 L 1012.199219 498.859375 L 1012.199219 497.71875 L 1015.390625 495.640625 L 1016.609375 495.640625 L 1016.609375 508.058594 L 1018.890625 508.058594 L 1018.890625 509 Z M 1012.558594 509 "/>
<path style=" stroke:none;fill-rule:nonzero;fill:rgb(0%,0%,0%);fill-opacity:1;" d="M 1022.699219 506.730469 L 1022.699219 505.589844 C 1022.699219 505.589844 1024.5 504.339844 1025.300781 502.089844 C 1025.300781 502.089844 1026.089844 499.828125 1026.089844 495.75 C 1026.089844 495.75 1026.089844 491.671875 1025.300781 489.421875 C 1025.300781 489.421875 1024.5 487.160156 1022.699219 485.910156 L 1022.699219 484.769531 C 1022.699219 484.769531 1025.558594 486.050781 1027.019531 488.808594 C 1027.019531 488.808594 1028.46875 491.578125 1028.46875 495.75 C 1028.46875 495.75 1028.46875 499.921875 1027.019531 502.699219 C 1027.019531 502.699219 1025.558594 505.46875 1022.699219 506.730469 Z M 1022.699219 506.730469 "/>
<path style=" stroke:none;fill-rule:nonzero;fill:rgb(0%,0%,0%);fill-opacity:1;" d="M 403.359375 441.921875 L 402.890625 443.230469 C 402.890625 443.230469 402.53125 444.230469 401.421875 444.871094 C 401.421875 444.871094 400.691406 445.308594 399.410156 445.300781 C 399.410156 445.300781 397.089844 445.269531 395.660156 443.46875 C 395.660156 443.46875 394.199219 441.640625 394.199219 438.71875 C 394.199219 438.71875 394.199219 435.839844 395.660156 433.96875 C 395.660156 433.96875 397.019531 432.199219 399.921875 432.21875 C 399.921875 432.21875 401.910156 432.21875 402.921875 433 C 402.921875 433 403.808594 433.691406 404.140625 435.199219 L 404.230469 435.640625 L 404.699219 434.328125 C 404.699219 434.328125 405.128906 433.109375 406.328125 432.5 L 407.519531 432.5 L 407.519531 433.191406 C 407.519531 433.191406 406.390625 433.53125 405.980469 434.640625 L 404.769531 437.96875 L 405.589844 441.550781 C 405.589844 441.550781 406.019531 443.390625 406.449219 443.589844 C 406.449219 443.589844 407.089844 443.890625 408.558594 443 L 408.558594 444.421875 C 408.558594 444.421875 406.191406 445.800781 404.519531 444.359375 C 404.519531 444.359375 403.75 443.699219 403.53125 442.769531 Z M 402.859375 439.621094 L 402.128906 436.191406 C 402.128906 436.191406 401.53125 433.441406 399.941406 433.441406 C 399.941406 433.441406 398.589844 433.421875 397.578125 434.859375 C 397.578125 434.859375 396.71875 436.050781 396.71875 438.769531 C 396.71875 438.769531 396.71875 441.339844 397.578125 442.671875 C 397.578125 442.671875 398.480469 444.109375 400.058594 443.980469 C 400.058594 443.980469 401.421875 443.890625 402.390625 441.019531 Z M 402.859375 439.621094 "/>
<path style=" stroke:none;fill-rule:nonzero;fill:rgb(0%,0%,0%);fill-opacity:1;" d="M 416.550781 266.078125 L 416.550781 263.449219 L 413.78125 263.449219 C 413.78125 263.449219 412.171875 263.449219 411.378906 264.140625 C 411.378906 264.140625 410.589844 264.828125 410.589844 266.269531 C 410.589844 266.269531 410.589844 267.558594 411.390625 268.328125 C 411.390625 268.328125 412.191406 269.078125 413.550781 269.078125 C 413.550781 269.078125 414.910156 269.078125 415.71875 268.25 C 415.71875 268.25 416.550781 267.421875 416.550781 266.078125 Z M 418.699219 262.21875 L 418.699219 268.75 L 420.628906 268.75 L 420.628906 270 L 416.550781 270 L 416.550781 268.660156 C 416.550781 268.660156 415.839844 269.519531 414.910156 269.941406 C 414.910156 269.941406 413.96875 270.339844 412.699219 270.339844 C 412.699219 270.339844 410.640625 270.339844 409.421875 269.25 C 409.421875 269.25 408.199219 268.140625 408.199219 266.269531 C 408.199219 266.269531 408.199219 264.328125 409.589844 263.269531 C 409.589844 263.269531 410.980469 262.191406 413.53125 262.191406 L 416.550781 262.191406 L 416.550781 261.339844 C 416.550781 261.339844 416.550781 259.921875 415.691406 259.140625 C 415.691406 259.140625 414.828125 258.359375 413.269531 258.359375 C 413.269531 258.359375 411.980469 258.359375 411.21875 258.949219 C 411.21875 258.949219 410.449219 259.53125 410.269531 260.691406 L 409.160156 260.691406 L 409.160156 258.160156 C 409.160156 258.160156 410.28125 257.691406 411.339844 257.449219 C 411.339844 257.449219 412.410156 257.199219 413.410156 257.199219 C 413.410156 257.199219 416 257.199219 417.339844 258.480469 C 417.339844 258.480469 418.699219 259.769531 418.699219 262.21875 Z M 418.699219 262.21875 "/>
</g>
</svg>
