<?xml version="1.0" encoding="UTF-8"?>
<svg xmlns="http://www.w3.org/2000/svg" xmlns:xlink="http://www.w3.org/1999/xlink" width="1366pt" height="565pt" viewBox="0 0 1366 565" version="1.1">
<g id="surface1">
<path style="fill:none;stroke-width:1;stroke-linecap:square;stroke-linejoin:miter;stroke:rgb(89.411926%,89.411926%,89.411926%);stroke-opacity:1;stroke-miterlimit:10;" d="M 14 565 L 14 0 " transform="matrix(1,0,0,-1,0,565)"/>
<path style="fill:none;stroke-width:1;stroke-linecap:square;stroke-linejoin:miter;stroke:rgb(89.411926%,89.411926%,89.411926%);stroke-opacity:1;stroke-miterlimit:10;" d="M 56 565 L 56 0 " transform="matrix(1,0,0,-1,0,565)"/>
<path style="fill:none;stroke-width:1;stroke-linecap:square;stroke-linejoin:miter;stroke:rgb(89.411926%,89.411926%,89.411926%);stroke-opacity:1;stroke-miterlimit:10;" d="M 98 565 L 98 0 " transform="matrix(1,0,0,-1,0,565)"/>
<path style="fill:none;stroke-width:1;stroke-linecap:square;stroke-linejoin:miter;stroke:rgb(89.411926%,89.411926%,89.411926%);stroke-opacity:1;stroke-miterlimit:10;" d="M 141 565 L 141 0 " transform="matrix(1,0,0,-1,0,565)"/>
<path style="fill:none;stroke-width:1;stroke-linecap:square;stroke-linejoin:miter;stroke:rgb(89.411926%,89.411926%,89.411926%);stroke-opacity:1;stroke-miterlimit:10;" d="M 183 565 L 183 0 " transform="matrix(1,0,0,-1,0,565)"/>
<path style="fill:none;stroke-width:1;stroke-linecap:square;stroke-linejoin:miter;stroke:rgb(89.411926%,89.411926%,89.411926%);stroke-opacity:1;stroke-miterlimit:10;" d="M 225 565 L 225 0 " transform="matrix(1,0,0,-1,0,565)"/>
<path style="fill:none;stroke-width:1;stroke-linecap:square;stroke-linejoin:miter;stroke:rgb(89.411926%,89.411926%,89.411926%);stroke-opacity:1;stroke-miterlimit:10;" d="M 268 565 L 268 0 " transform="matrix(1,0,0,-1,0,565)"/>
<path style="fill:none;stroke-width:1;stroke-linecap:square;stroke-linejoin:miter;stroke:rgb(89.411926%,89.411926%,89.411926%);stroke-opacity:1;stroke-miterlimit:10;" d="M 310 565 L 310 0 " transform="matrix(1,0,0,-1,0,565)"/>
<path style="fill:none;stroke-width:1;stroke-linecap:square;stroke-linejoin:miter;stroke:rgb(89.411926%,89.411926%,89.411926%);stroke-opacity:1;stroke-miterlimit:10;" d="M 352 565 L 352 0 " transform="matrix(1,0,0,-1,0,565)"/>
<path style="fill:none;stroke-width:1;stroke-linecap:square;stroke-linejoin:miter;stroke:rgb(89.411926%,89.411926%,89.411926%);stroke-opacity:1;stroke-miterlimit:10;" d="M 395 565 L 395 0 " transform="matrix(1,0,0,-1,0,565)"/>
<path style="fill:none;stroke-width:1;stroke-linecap:square;stroke-linejoin:miter;stroke:rgb(89.411926%,89.411926%,89.411926%);stroke-opacity:1;stroke-miterlimit:10;" d="M 437 565 L 437 0 " transform="matrix(1,0,0,-1,0,565)"/>
<path style="fill:none;stroke-width:1;stroke-linecap:square;stroke-linejoin:miter;stroke:rgb(89.411926%,89.411926%,89.411926%);stroke-opacity:1;stroke-miterlimit:10;" d="M 479 565 L 479 0 " transform="matrix(1,0,0,-1,0,565)"/>
<path style="fill:none;stroke-width:1;stroke-linecap:square;stroke-linejoin:miter;stroke:rgb(89.411926%,89.411926%,89.411926%);stroke-opacity:1;stroke-miterlimit:10;" d="M 522 565 L 522 0 " transform="matrix(1,0,0,-1,0,565)"/>
<path style="fill:none;stroke-width:1;stroke-linecap:square;stroke-linejoin:miter;stroke:rgb(89.411926%,89.411926%,89.411926%);stroke-opacity:1;stroke-miterlimit:10;" d="M 564 565 L 564 0 " transform="matrix(1,0,0,-1,0,565)"/>
<path style="fill:none;stroke-width:1;stroke-linecap:square;stroke-linejoin:miter;stroke:rgb(89.411926%,89.411926%,89.411926%);stroke-opacity:1;stroke-miterlimit:10;" d="M 606 565 L 606 0 " transform="matrix(1,0,0,-1,0,565)"/>
<path style="fill:none;stroke-width:1;stroke-linecap:square;stroke-linejoin:miter;stroke:rgb(89.411926%,89.411926%,89.411926%);stroke-opacity:1;stroke-miterlimit:10;" d="M 649 565 L 649 0 " transform="matrix(1,0,0,-1,0,565)"/>
<path style="fill:none;stroke-width:1;stroke-linecap:square;stroke-linejoin:miter;stroke:rgb(89.411926%,89.411926%,89.411926%);stroke-opacity:1;stroke-miterlimit:10;" d="M 691 565 L 691 0 " transform="matrix(1,0,0,-1,0,565)"/>
<path style="fill:none;stroke-width:1;stroke-linecap:square;stroke-linejoin:miter;stroke:rgb(89.411926%,89.411926%,89.411926%);stroke-opacity:1;stroke-miterlimit:10;" d="M 733 565 L 733 0 " transform="matrix(1,0,0,-1,0,565)"/>
<path style="fill:none;stroke-width:1;stroke-linecap:square;stroke-linejoin:miter;stroke:rgb(89.411926%,89.411926%,89.411926%);stroke-opacity:1;stroke-miterlimit:10;" d="M 776 565 L 776 0 " transform="matrix(1,0,0,-1,0,565)"/>
<path style="fill:none;stroke-width:1;stroke-linecap:square;stroke-linejoin:miter;stroke:rgb(89.411926%,89.411926%,89.411926%);stroke-opacity:1;stroke-miterlimit:10;" d="M 818 565 L 818 0 " transform="matrix(1,0,0,-1,0,565)"/>
<path style="fill:none;stroke-width:1;stroke-linecap:square;stroke-linejoin:miter;stroke:rgb(89.411926%,89.411926%,89.411926%);stroke-opacity:1;stroke-miterlimit:10;" d="M 860 565 L 860 0 " transform="matrix(1,0,0,-1,0,565)"/>
<path style="fill:none;stroke-width:1;stroke-linecap:square;stroke-linejoin:miter;stroke:rgb(89.411926%,89.411926%,89.411926%);stroke-opacity:1;stroke-miterlimit:10;" d="M 903 565 L 903 0 " transform="matrix(1,0,0,-1,0,565)"/>
<path style="fill:none;stroke-width:1;stroke-linecap:square;stroke-linejoin:miter;stroke:rgb(89.411926%,89.411926%,89.411926%);stroke-opacity:1;stroke-miterlimit:10;" d="M 945 565 L 945 0 " transform="matrix(1,0,0,-1,0,565)"/>
<path style="fill:none;stroke-width:1;stroke-linecap:square;stroke-linejoin:miter;stroke:rgb(89.411926%,89.411926%,89.411926%);stroke-opacity:1;stroke-miterlimit:10;" d="M 987 565 L 987 0 " transform="matrix(1,0,0,-1,0,565)"/>
<path style="fill:none;stroke-width:1;stroke-linecap:square;stroke-linejoin:miter;stroke:rgb(89.411926%,89.411926%,89.411926%);stroke-opacity:1;stroke-miterlimit:10;" d="M 1030 565 L 1030 0 " transform="matrix(1,0,0,-1,0,565)"/>
<path style="fill:none;stroke-width:1;stroke-linecap:square;stroke-linejoin:miter;stroke:rgb(89.411926%,89.411926%,89.411926%);stroke-opacity:1;stroke-miterlimit:10;" d="M 1072 565 L 1072 0 " transform="matrix(1,0,0,-1,0,565)"/>
<path style="fill:none;stroke-width:1;stroke-linecap:square;stroke-linejoin:miter;stroke:rgb(89.411926%,89.411926%,89.411926%);stroke-opacity:1;stroke-miterlimit:10;" d="M 1114 565 L 1114 0 " transform="matrix(1,0,0,-1,0,565)"/>
<path style="fill:none;stroke-width:1;stroke-linecap:square;stroke-linejoin:miter;stroke:rgb(89.411926%,89.411926%,89.411926%);stroke-opacity:1;stroke-miterlimit:10;" d="M 1157 565 L 1157 0 " transform="matrix(1,0,0,-1,0,565)"/>
<path style="fill:none;stroke-width:1;stroke-linecap:square;stroke-linejoin:miter;stroke:rgb(89.411926%,89.411926%,89.411926%);stroke-opacity:1;stroke-miterlimit:10;" d="M 1199 565 L 1199 0 " transform="matrix(1,0,0,-1,0,565)"/>
<path style="fill:none;stroke-width:1;stroke-linecap:square;stroke-linejoin:miter;stroke:rgb(89.411926%,89.411926%,89.411926%);stroke-opacity:1;stroke-miterlimit:10;" d="M 1241 565 L 1241 0 " transform="matrix(1,0,0,-1,0,565)"/>
<path style="fill:none;stroke-width:1;stroke-linecap:square;stroke-linejoin:miter;stroke:rgb(89.411926%,89.411926%,89.411926%);stroke-opacity:1;stroke-miterlimit:10;" d="M 1284 565 L 1284 0 " transform="matrix(1,0,0,-1,0,565)"/>
<path style="fill:none;stroke-width:1;stroke-linecap:square;stroke-linejoin:miter;stroke:rgb(89.411926%,89.411926%,89.411926%);stroke-opacity:1;stroke-miterlimit:10;" d="M 1326 565 L 1326 0 " transform="matrix(1,0,0,-1,0,565)"/>
<path style="fill:none;stroke-width:1;stroke-linecap:square;stroke-linejoin:miter;stroke:rgb(89.411926%,89.411926%,89.411926%);stroke-opacity:1;stroke-miterlimit:10;" d="M 0 547 L 1366 547 " transform="matrix(1,0,0,-1,0,565)"/>
<path style="fill:none;stroke-width:1;stroke-linecap:square;stroke-linejoin:miter;stroke:rgb(89.411926%,89.411926%,89.411926%);stroke-opacity:1;stroke-miterlimit:10;" d="M 0 505 L 1366 505 " transform="matrix(1,0,0,-1,0,565)"/>
<path style="fill:none;stroke-width:1;stroke-linecap:square;stroke-linejoin:miter;stroke:rgb(89.411926%,89.411926%,89.411926%);stroke-opacity:1;stroke-miterlimit:10;" d="M 0 463 L 1366 463 " transform="matrix(1,0,0,-1,0,565)"/>
<path style="fill:none;stroke-width:1;stroke-linecap:square;stroke-linejoin:miter;stroke:rgb(89.411926%,89.411926%,89.411926%);stroke-opacity:1;stroke-miterlimit:10;" d="M 0 420 L 1366 420 " transform="matrix(1,0,0,-1,0,565)"/>
<path style="fill:none;stroke-width:1;stroke-linecap:square;stroke-linejoin:miter;stroke:rgb(89.411926%,89.411926%,89.411926%);stroke-opacity:1;stroke-miterlimit:10;" d="M 0 378 L 1366 378 " transform="matrix(1,0,0,-1,0,565)"/>
<path style="fill:none;stroke-width:1;stroke-linecap:square;stroke-linejoin:miter;stroke:rgb(89.411926%,89.411926%,89.411926%);stroke-opacity:1;stroke-miterlimit:10;" d="M 0 336 L 1366 336 " transform="matrix(1,0,0,-1,0,565)"/>
<path style="fill:none;stroke-width:1;stroke-linecap:square;stroke-linejoin:miter;stroke:rgb(89.411926%,89.411926%,89.411926%);stroke-opacity:1;stroke-miterlimit:10;" d="M 0 293 L 1366 293 " transform="matrix(1,0,0,-1,0,565)"/>
<path style="fill:none;stroke-width:1;stroke-linecap:square;stroke-linejoin:miter;stroke:rgb(89.411926%,89.411926%,89.411926%);stroke-opacity:1;stroke-miterlimit:10;" d="M 0 251 L 1366 251 " transform="matrix(1,0,0,-1,0,565)"/>
<path style="fill:none;stroke-width:1;stroke-linecap:square;stroke-linejoin:miter;stroke:rgb(89.411926%,89.411926%,89.411926%);stroke-opacity:1;stroke-miterlimit:10;" d="M 0 208 L 1366 208 " transform="matrix(1,0,0,-1,0,565)"/>
<path style="fill:none;stroke-width:1;stroke-linecap:square;stroke-linejoin:miter;stroke:rgb(89.411926%,89.411926%,89.411926%);stroke-opacity:1;stroke-miterlimit:10;" d="M 0 166 L 1366 166 " transform="matrix(1,0,0,-1,0,565)"/>
<path style="fill:none;stroke-width:1;stroke-linecap:square;stroke-linejoin:miter;stroke:rgb(89.411926%,89.411926%,89.411926%);stroke-opacity:1;stroke-miterlimit:10;" d="M 0 124 L 1366 124 " transform="matrix(1,0,0,-1,0,565)"/>
<path style="fill:none;stroke-width:1;stroke-linecap:square;stroke-linejoin:miter;stroke:rgb(89.411926%,89.411926%,89.411926%);stroke-opacity:1;stroke-miterlimit:10;" d="M 0 81 L 1366 81 " transform="matrix(1,0,0,-1,0,565)"/>
<path style="fill:none;stroke-width:1;stroke-linecap:square;stroke-linejoin:miter;stroke:rgb(89.411926%,89.411926%,89.411926%);stroke-opacity:1;stroke-miterlimit:10;" d="M 0 39 L 1366 39 " transform="matrix(1,0,0,-1,0,565)"/>
<path style="fill:none;stroke-width:1;stroke-linecap:square;stroke-linejoin:miter;stroke:rgb(79.606628%,79.606628%,79.606628%);stroke-opacity:1;stroke-miterlimit:10;" d="M 310 564 L 310 0 " transform="matrix(1,0,0,-1,0,565)"/>
<path style="fill:none;stroke-width:1;stroke-linecap:square;stroke-linejoin:miter;stroke:rgb(79.606628%,79.606628%,79.606628%);stroke-opacity:1;stroke-miterlimit:10;" d="M 309 564 L 309 0 " transform="matrix(1,0,0,-1,0,565)"/>
<path style="fill:none;stroke-width:1;stroke-linecap:square;stroke-linejoin:miter;stroke:rgb(79.606628%,79.606628%,79.606628%);stroke-opacity:1;stroke-miterlimit:10;" d="M 311 564 L 311 0 " transform="matrix(1,0,0,-1,0,565)"/>
<path style="fill:none;stroke-width:1;stroke-linecap:square;stroke-linejoin:miter;stroke:rgb(79.606628%,79.606628%,79.606628%);stroke-opacity:1;stroke-miterlimit:10;" d="M 305 560 L 310 565 " transform="matrix(1,0,0,-1,0,565)"/>
<path style="fill:none;stroke-width:1;stroke-linecap:square;stroke-linejoin:miter;stroke:rgb(79.606628%,79.606628%,79.606628%);stroke-opacity:1;stroke-miterlimit:10;" d="M 315 560 L 310 565 " transform="matrix(1,0,0,-1,0,565)"/>
<path style="fill:none;stroke-width:1;stroke-linecap:square;stroke-linejoin:miter;stroke:rgb(79.606628%,79.606628%,79.606628%);stroke-opacity:1;stroke-miterlimit:10;" d="M 305 559 L 310 564 " transform="matrix(1,0,0,-1,0,565)"/>
<path style="fill:none;stroke-width:1;stroke-linecap:square;stroke-linejoin:miter;stroke:rgb(79.606628%,79.606628%,79.606628%);stroke-opacity:1;stroke-miterlimit:10;" d="M 315 559 L 310 564 " transform="matrix(1,0,0,-1,0,565)"/>
<path style="fill:none;stroke-width:1;stroke-linecap:square;stroke-linejoin:miter;stroke:rgb(79.606628%,79.606628%,79.606628%);stroke-opacity:1;stroke-miterlimit:10;" d="M 0 39 L 1365 39 " transform="matrix(1,0,0,-1,0,565)"/>
<path style="fill:none;stroke-width:1;stroke-linecap:square;stroke-linejoin:miter;stroke:rgb(79.606628%,79.606628%,79.606628%);stroke-opacity:1;stroke-miterlimit:10;" d="M 0 40 L 1365 40 " transform="matrix(1,0,0,-1,0,565)"/>
<path style="fill:none;stroke-width:1;stroke-linecap:square;stroke-linejoin:miter;stroke:rgb(79.606628%,79.606628%,79.606628%);stroke-opacity:1;stroke-miterlimit:10;" d="M 0 38 L 1365 38 " transform="matrix(1,0,0,-1,0,565)"/>
<path style="fill:none;stroke-width:1;stroke-linecap:square;stroke-linejoin:miter;stroke:rgb(79.606628%,79.606628%,79.606628%);stroke-opacity:1;stroke-miterlimit:10;" d="M 1361 44 L 1366 39 " transform="matrix(1,0,0,-1,0,565)"/>
<path style="fill:none;stroke-width:1;stroke-linecap:square;stroke-linejoin:miter;stroke:rgb(79.606628%,79.606628%,79.606628%);stroke-opacity:1;stroke-miterlimit:10;" d="M 1361 34 L 1366 39 " transform="matrix(1,0,0,-1,0,565)"/>
<path style="fill:none;stroke-width:1;stroke-linecap:square;stroke-linejoin:miter;stroke:rgb(79.606628%,79.606628%,79.606628%);stroke-opacity:1;stroke-miterlimit:10;" d="M 1360 44 L 1365 39 " transform="matrix(1,0,0,-1,0,565)"/>
<path style="fill:none;stroke-width:1;stroke-linecap:square;stroke-linejoin:miter;stroke:rgb(79.606628%,79.606628%,79.606628%);stroke-opacity:1;stroke-miterlimit:10;" d="M 1360 34 L 1365 39 " transform="matrix(1,0,0,-1,0,565)"/>
<path style="fill:none;stroke-width:1;stroke-linecap:square;stroke-linejoin:miter;stroke:rgb(59.606934%,59.606934%,59.606934%);stroke-opacity:1;stroke-miterlimit:10;" d="M 1284 39 L 1326 39 " transform="matrix(1,0,0,-1,0,565)"/>
<path style="fill:none;stroke-width:1;stroke-linecap:square;stroke-linejoin:miter;stroke:rgb(59.606934%,59.606934%,59.606934%);stroke-opacity:1;stroke-miterlimit:10;" d="M 1284 38 L 1326 38 " transform="matrix(1,0,0,-1,0,565)"/>
<path style="fill:none;stroke-width:1;stroke-linecap:square;stroke-linejoin:miter;stroke:rgb(59.606934%,59.606934%,59.606934%);stroke-opacity:1;stroke-miterlimit:10;" d="M 1284 40 L 1326 40 " transform="matrix(1,0,0,-1,0,565)"/>
<path style="fill:none;stroke-width:1;stroke-linecap:square;stroke-linejoin:miter;stroke:rgb(59.606934%,59.606934%,59.606934%);stroke-opacity:1;stroke-miterlimit:10;" d="M 1284 42 L 1284 36 " transform="matrix(1,0,0,-1,0,565)"/>
<path style="fill:none;stroke-width:1;stroke-linecap:square;stroke-linejoin:miter;stroke:rgb(59.606934%,59.606934%,59.606934%);stroke-opacity:1;stroke-miterlimit:10;" d="M 1326 42 L 1326 36 " transform="matrix(1,0,0,-1,0,565)"/>
<path style=" stroke:none;fill-rule:nonzero;fill:rgb(59.606934%,59.606934%,59.606934%);fill-opacity:1;" d="M 1307.480469 522 L 1309.421875 522 L 1309.421875 515.328125 L 1307.308594 515.75 L 1307.308594 514.671875 L 1309.410156 514.25 L 1310.589844 514.25 L 1310.589844 522 L 1312.53125 522 L 1312.53125 523 L 1307.480469 523 Z M 1314.921875 521.519531 L 1316.148438 521.519531 L 1316.148438 523 L 1314.921875 523 Z M 1321.261719 515.03125 C 1321.261719 515.03125 1320.359375 515.03125 1319.890625 515.941406 C 1319.890625 515.941406 1319.429688 516.828125 1319.429688 518.640625 C 1319.429688 518.640625 1319.429688 520.441406 1319.890625 521.339844 C 1319.890625 521.339844 1320.359375 522.230469 1321.261719 522.230469 C 1321.261719 522.230469 1322.179688 522.230469 1322.640625 521.339844 C 1322.640625 521.339844 1323.109375 520.441406 1323.109375 518.640625 C 1323.109375 518.640625 1323.109375 516.828125 1322.640625 515.941406 C 1322.640625 515.941406 1322.179688 515.03125 1321.261719 515.03125 Z M 1321.261719 514.089844 C 1321.261719 514.089844 1322.730469 514.089844 1323.511719 515.269531 C 1323.511719 515.269531 1324.289062 516.421875 1324.289062 518.640625 C 1324.289062 518.640625 1324.289062 520.839844 1323.511719 522.019531 C 1323.511719 522.019531 1322.730469 523.171875 1321.261719 523.171875 C 1321.261719 523.171875 1319.789062 523.171875 1319.011719 522.019531 C 1319.011719 522.019531 1318.25 520.839844 1318.25 518.640625 C 1318.25 518.640625 1318.25 516.421875 1319.011719 515.269531 C 1319.011719 515.269531 1319.789062 514.089844 1321.261719 514.089844 Z M 1321.261719 514.089844 "/>
<path style=" stroke:none;fill-rule:nonzero;fill:rgb(0%,0%,100%);fill-opacity:0.75686;" d="M 334.839844 507.628906 C 327.988281 498.03125 316.160156 493.339844 304.601562 495.628906 L 310.421875 525.050781 Z M 334.839844 507.628906 "/>
<path style=" stroke:none;fill-rule:nonzero;fill:rgb(100%,100%,100%);fill-opacity:0.29804;" d="M 333.210938 508.789062 C 326.820312 499.828125 315.78125 495.449219 304.980469 497.589844 L 310.421875 525.050781 Z M 333.210938 508.789062 "/>
<path style=" stroke:none;fill-rule:nonzero;fill:rgb(0%,0%,100%);fill-opacity:0.66667;" d="M 354.421875 524.988281 C 354.410156 515.839844 351.550781 506.929688 346.230469 499.488281 L 310.421875 525.050781 Z M 354.421875 524.988281 "/>
<path style=" stroke:none;fill-rule:nonzero;fill:rgb(100%,100%,100%);fill-opacity:0.29804;" d="M 352.421875 524.988281 C 352.410156 516.261719 349.679688 507.761719 344.609375 500.648438 L 310.421875 525.050781 Z M 352.421875 524.988281 "/>
<path style="fill:none;stroke-width:3;stroke-linecap:round;stroke-linejoin:round;stroke:rgb(0%,0%,100%);stroke-opacity:1;stroke-miterlimit:10;" d="M 310.921875 39.449219 L 215.5 521.5 " transform="matrix(1,0,0,-1,0,565)"/>
<path style="fill:none;stroke-width:3;stroke-linecap:round;stroke-linejoin:round;stroke:rgb(0%,0%,100%);stroke-opacity:1;stroke-miterlimit:10;" d="M 742.5 347.5 L 215.5 521.5 " transform="matrix(1,0,0,-1,0,565)"/>
<path style="fill:none;stroke-width:3;stroke-linecap:round;stroke-linejoin:round;stroke:rgb(0%,0%,100%);stroke-opacity:1;stroke-miterlimit:10;" d="M 742.5 347.5 L 310.921875 39.449219 " transform="matrix(1,0,0,-1,0,565)"/>
<path style="fill-rule:nonzero;fill:rgb(69.802856%,0%,0%);fill-opacity:1;stroke-width:1;stroke-linecap:square;stroke-linejoin:miter;stroke:rgb(0%,0%,0%);stroke-opacity:1;stroke-miterlimit:10;" d="M 315.921875 39.449219 C 315.921875 36.679688 313.679688 34.449219 310.921875 34.449219 C 308.160156 34.449219 305.921875 36.679688 305.921875 39.449219 C 305.921875 42.210938 308.160156 44.449219 310.921875 44.449219 C 313.679688 44.449219 315.921875 42.210938 315.921875 39.449219 Z M 315.921875 39.449219 " transform="matrix(1,0,0,-1,0,565)"/>
<path style="fill-rule:nonzero;fill:rgb(100%,0%,0%);fill-opacity:1;stroke-width:1;stroke-linecap:square;stroke-linejoin:miter;stroke:rgb(0%,0%,0%);stroke-opacity:1;stroke-miterlimit:10;" d="M 747.5 347.5 C 747.5 344.738281 745.261719 342.5 742.5 342.5 C 739.738281 342.5 737.5 344.738281 737.5 347.5 C 737.5 350.261719 739.738281 352.5 742.5 352.5 C 745.261719 352.5 747.5 350.261719 747.5 347.5 Z M 747.5 347.5 " transform="matrix(1,0,0,-1,0,565)"/>
<path style="fill-rule:nonzero;fill:rgb(100%,0%,0%);fill-opacity:1;stroke-width:1;stroke-linecap:square;stroke-linejoin:miter;stroke:rgb(0%,0%,0%);stroke-opacity:1;stroke-miterlimit:10;" d="M 220.5 521.5 C 220.5 518.738281 218.261719 516.5 215.5 516.5 C 212.738281 516.5 210.5 518.738281 210.5 521.5 C 210.5 524.261719 212.738281 526.5 215.5 526.5 C 218.261719 526.5 220.5 524.261719 220.5 521.5 Z M 220.5 521.5 " transform="matrix(1,0,0,-1,0,565)"/>
<path style=" stroke:none;fill-rule:nonzero;fill:rgb(0%,0%,0%);fill-opacity:1;" d="M 219.660156 501.730469 C 219.660156 501.730469 216.808594 500.46875 215.359375 497.699219 C 215.359375 497.699219 213.910156 494.921875 213.910156 490.75 C 213.910156 490.75 213.910156 486.578125 215.359375 483.808594 C 215.359375 483.808594 216.808594 481.050781 219.660156 479.769531 L 219.660156 480.910156 C 219.660156 480.910156 217.839844 482.160156 217.058594 484.421875 C 217.058594 484.421875 216.28125 486.671875 216.28125 490.75 C 216.28125 490.75 216.28125 494.828125 217.058594 497.089844 C 217.058594 497.089844 217.839844 499.339844 219.660156 500.589844 Z M 219.660156 501.730469 "/>
<path style=" stroke:none;fill-rule:nonzero;fill:rgb(0%,0%,0%);fill-opacity:1;" d="M 227.980469 490.390625 L 230.589844 486.800781 L 228.921875 486.800781 L 228.921875 485.550781 L 233.71875 485.550781 L 233.71875 486.800781 L 232.058594 486.800781 L 228.71875 491.410156 L 232.609375 496.75 L 234.25 496.75 L 234.25 498 L 228.480469 498 L 228.480469 496.75 L 230.078125 496.75 L 227.359375 493.03125 L 224.640625 496.75 L 226.269531 496.75 L 226.269531 498 L 221.53125 498 L 221.53125 496.75 L 223.191406 496.75 L 226.609375 492.019531 L 222.828125 486.800781 L 221.300781 486.800781 L 221.300781 485.550781 L 226.859375 485.550781 L 226.859375 486.800781 L 225.378906 486.800781 Z M 227.980469 490.390625 "/>
<path style=" stroke:none;fill-rule:nonzero;fill:rgb(0%,0%,0%);fill-opacity:1;" d="M 237.558594 504 L 237.558594 503.058594 L 239.839844 503.058594 L 239.839844 492.160156 L 237.199219 493.859375 L 237.199219 492.71875 L 240.390625 490.640625 L 241.609375 490.640625 L 241.609375 503.058594 L 243.890625 503.058594 L 243.890625 504 Z M 237.558594 504 "/>
<path style=" stroke:none;fill-rule:nonzero;fill:rgb(0%,0%,0%);fill-opacity:1;" d="M 246.878906 500.328125 C 246.878906 500.328125 247.96875 499.53125 248.480469 498.421875 C 248.480469 498.421875 249 497.328125 249 495.769531 L 249 495.339844 L 251.308594 495.339844 C 251.308594 495.339844 251.21875 497.339844 250.359375 498.78125 C 250.359375 498.78125 249.519531 500.21875 247.808594 501.269531 Z M 246.878906 500.328125 "/>
<path style=" stroke:none;fill-rule:nonzero;fill:rgb(0%,0%,0%);fill-opacity:1;" d="M 259.191406 500.28125 L 260 498.21875 L 255.339844 486.800781 L 253.921875 486.800781 L 253.921875 485.550781 L 259.660156 485.550781 L 259.660156 486.800781 L 257.671875 486.800781 L 261.171875 495.359375 L 264.671875 486.800781 L 262.808594 486.800781 L 262.808594 485.550781 L 267.480469 485.550781 L 267.480469 486.800781 L 266.089844 486.800781 L 260.390625 500.808594 C 260.390625 500.808594 259.800781 502.269531 259.078125 502.800781 C 259.078125 502.800781 258.378906 503.328125 257.078125 503.328125 C 257.078125 503.328125 256.519531 503.328125 255.941406 503.230469 C 255.941406 503.230469 255.359375 503.140625 254.78125 502.96875 L 254.78125 500.589844 L 255.878906 500.589844 C 255.878906 500.589844 255.949219 501.390625 256.28125 501.730469 C 256.28125 501.730469 256.609375 502.078125 257.308594 502.078125 C 257.308594 502.078125 257.96875 502.078125 258.359375 501.71875 C 258.359375 501.71875 258.75 501.359375 259.191406 500.28125 Z M 259.191406 500.28125 "/>
<path style=" stroke:none;fill-rule:nonzero;fill:rgb(0%,0%,0%);fill-opacity:1;" d="M 270.558594 504 L 270.558594 503.058594 L 272.839844 503.058594 L 272.839844 492.160156 L 270.199219 493.859375 L 270.199219 492.71875 L 273.390625 490.640625 L 274.609375 490.640625 L 274.609375 503.058594 L 276.890625 503.058594 L 276.890625 504 Z M 270.558594 504 "/>
<path style=" stroke:none;fill-rule:nonzero;fill:rgb(0%,0%,0%);fill-opacity:1;" d="M 280.699219 501.730469 L 280.699219 500.589844 C 280.699219 500.589844 282.5 499.339844 283.300781 497.089844 C 283.300781 497.089844 284.089844 494.828125 284.089844 490.75 C 284.089844 490.75 284.089844 486.671875 283.300781 484.421875 C 283.300781 484.421875 282.5 482.160156 280.699219 480.910156 L 280.699219 479.769531 C 280.699219 479.769531 283.558594 481.050781 285.019531 483.808594 C 285.019531 483.808594 286.46875 486.578125 286.46875 490.75 C 286.46875 490.75 286.46875 494.921875 285.019531 497.699219 C 285.019531 497.699219 283.558594 500.46875 280.699219 501.730469 Z M 280.699219 501.730469 "/>
<path style=" stroke:none;fill-rule:nonzero;fill:rgb(0%,0%,0%);fill-opacity:1;" d="M 259.660156 43.730469 C 259.660156 43.730469 256.808594 42.46875 255.359375 39.699219 C 255.359375 39.699219 253.910156 36.921875 253.910156 32.75 C 253.910156 32.75 253.910156 28.578125 255.359375 25.808594 C 255.359375 25.808594 256.808594 23.050781 259.660156 21.769531 L 259.660156 22.910156 C 259.660156 22.910156 257.839844 24.160156 257.058594 26.421875 C 257.058594 26.421875 256.28125 28.671875 256.28125 32.75 C 256.28125 32.75 256.28125 36.828125 257.058594 39.089844 C 257.058594 39.089844 257.839844 41.339844 259.660156 42.589844 Z M 259.660156 43.730469 "/>
<path style=" stroke:none;fill-rule:nonzero;fill:rgb(0%,0%,0%);fill-opacity:1;" d="M 267.980469 32.390625 L 270.589844 28.800781 L 268.921875 28.800781 L 268.921875 27.550781 L 273.71875 27.550781 L 273.71875 28.800781 L 272.058594 28.800781 L 268.71875 33.410156 L 272.609375 38.75 L 274.25 38.75 L 274.25 40 L 268.480469 40 L 268.480469 38.75 L 270.078125 38.75 L 267.359375 35.03125 L 264.640625 38.75 L 266.269531 38.75 L 266.269531 40 L 261.53125 40 L 261.53125 38.75 L 263.191406 38.75 L 266.609375 34.019531 L 262.828125 28.800781 L 261.300781 28.800781 L 261.300781 27.550781 L 266.859375 27.550781 L 266.859375 28.800781 L 265.378906 28.800781 Z M 267.980469 32.390625 "/>
<path style=" stroke:none;fill-rule:nonzero;fill:rgb(0%,0%,0%);fill-opacity:1;" d="M 277.558594 46 L 277.558594 45.058594 L 279.839844 45.058594 L 279.839844 34.160156 L 277.199219 35.859375 L 277.199219 34.71875 L 280.390625 32.640625 L 281.609375 32.640625 L 281.609375 45.058594 L 283.890625 45.058594 L 283.890625 46 Z M 277.558594 46 "/>
<path style=" stroke:none;fill-rule:nonzero;fill:rgb(0%,0%,0%);fill-opacity:1;" d="M 297 24.949219 L 297 31.53125 L 303.558594 31.53125 L 303.558594 33.421875 L 297 33.421875 L 297 40 L 295.128906 40 L 295.128906 33.421875 L 288.550781 33.421875 L 288.550781 31.53125 L 295.128906 31.53125 L 295.128906 24.949219 Z M 297 24.949219 "/>
<path style=" stroke:none;fill-rule:nonzero;fill:rgb(0%,0%,0%);fill-opacity:1;" d="M 315.550781 36.078125 L 315.550781 33.449219 L 312.78125 33.449219 C 312.78125 33.449219 311.171875 33.449219 310.378906 34.140625 C 310.378906 34.140625 309.589844 34.828125 309.589844 36.269531 C 309.589844 36.269531 309.589844 37.558594 310.390625 38.328125 C 310.390625 38.328125 311.191406 39.078125 312.550781 39.078125 C 312.550781 39.078125 313.910156 39.078125 314.71875 38.25 C 314.71875 38.25 315.550781 37.421875 315.550781 36.078125 Z M 317.699219 32.21875 L 317.699219 38.75 L 319.628906 38.75 L 319.628906 40 L 315.550781 40 L 315.550781 38.660156 C 315.550781 38.660156 314.839844 39.519531 313.910156 39.941406 C 313.910156 39.941406 312.96875 40.339844 311.699219 40.339844 C 311.699219 40.339844 309.640625 40.339844 308.421875 39.25 C 308.421875 39.25 307.199219 38.140625 307.199219 36.269531 C 307.199219 36.269531 307.199219 34.328125 308.589844 33.269531 C 308.589844 33.269531 309.980469 32.191406 312.53125 32.191406 L 315.550781 32.191406 L 315.550781 31.339844 C 315.550781 31.339844 315.550781 29.921875 314.691406 29.140625 C 314.691406 29.140625 313.828125 28.359375 312.269531 28.359375 C 312.269531 28.359375 310.980469 28.359375 310.21875 28.949219 C 310.21875 28.949219 309.449219 29.53125 309.269531 30.691406 L 308.160156 30.691406 L 308.160156 28.160156 C 308.160156 28.160156 309.28125 27.691406 310.339844 27.449219 C 310.339844 27.449219 311.410156 27.199219 312.410156 27.199219 C 312.410156 27.199219 315 27.199219 316.339844 28.480469 C 316.339844 28.480469 317.699219 29.769531 317.699219 32.21875 Z M 317.699219 32.21875 "/>
<path style=" stroke:none;fill-rule:nonzero;fill:rgb(0%,0%,0%);fill-opacity:1;" d="M 332.339844 36.269531 C 332.339844 36.269531 331.890625 38.25 330.578125 39.300781 C 330.578125 39.300781 329.28125 40.339844 327.21875 40.339844 C 327.21875 40.339844 324.5 40.339844 322.839844 38.550781 C 322.839844 38.550781 321.199219 36.730469 321.199219 33.769531 C 321.199219 33.769531 321.199219 30.78125 322.839844 29 C 322.839844 29 324.5 27.199219 327.21875 27.199219 C 327.21875 27.199219 328.410156 27.199219 329.578125 27.480469 C 329.578125 27.480469 330.75 27.75 331.941406 28.308594 L 331.941406 31.5 L 330.671875 31.5 C 330.671875 31.5 330.441406 29.859375 329.609375 29.109375 C 329.609375 29.109375 328.78125 28.359375 327.25 28.359375 C 327.25 28.359375 325.5 28.359375 324.609375 29.71875 C 324.609375 29.71875 323.71875 31.058594 323.71875 33.769531 C 323.71875 33.769531 323.71875 36.449219 324.589844 37.808594 C 324.589844 37.808594 325.480469 39.171875 327.25 39.171875 C 327.25 39.171875 328.640625 39.171875 329.46875 38.449219 C 329.46875 38.449219 330.300781 37.71875 330.609375 36.269531 Z M 340.660156 39.171875 C 340.660156 39.171875 342.390625 39.171875 343.269531 37.808594 C 343.269531 37.808594 344.160156 36.441406 344.160156 33.769531 C 344.160156 33.769531 344.160156 31.089844 343.269531 29.730469 C 343.269531 29.730469 342.390625 28.359375 340.660156 28.359375 C 340.660156 28.359375 338.929688 28.359375 338.039062 29.730469 C 338.039062 29.730469 337.160156 31.089844 337.160156 33.769531 C 337.160156 33.769531 337.160156 36.441406 338.050781 37.808594 C 338.050781 37.808594 338.941406 39.171875 340.660156 39.171875 Z M 340.660156 40.339844 C 340.660156 40.339844 337.941406 40.339844 336.289062 38.550781 C 336.289062 38.550781 334.640625 36.730469 334.640625 33.769531 C 334.640625 33.769531 334.640625 30.78125 336.289062 29 C 336.289062 29 337.929688 27.199219 340.660156 27.199219 C 340.660156 27.199219 343.390625 27.199219 345.039062 29 C 345.039062 29 346.691406 30.78125 346.691406 33.769531 C 346.691406 33.769531 346.691406 36.730469 345.039062 38.550781 C 345.039062 38.550781 343.390625 40.339844 340.660156 40.339844 Z M 349.230469 39.308594 L 349.230469 36.410156 L 350.480469 36.410156 C 350.480469 36.410156 350.53125 37.800781 351.359375 38.480469 C 351.359375 38.480469 352.191406 39.171875 353.800781 39.171875 C 353.800781 39.171875 355.25 39.171875 356.019531 38.640625 C 356.019531 38.640625 356.78125 38.089844 356.78125 37.050781 C 356.78125 37.050781 356.78125 36.21875 356.21875 35.71875 C 356.21875 35.71875 355.660156 35.21875 353.878906 34.640625 L 352.308594 34.109375 C 352.308594 34.109375 350.699219 33.589844 349.980469 32.828125 C 349.980469 32.828125 349.269531 32.050781 349.269531 30.859375 C 349.269531 30.859375 349.269531 29.140625 350.519531 28.171875 C 350.519531 28.171875 351.769531 27.199219 353.980469 27.199219 C 353.980469 27.199219 354.96875 27.199219 356.058594 27.46875 C 356.058594 27.46875 357.160156 27.71875 358.308594 28.199219 L 358.308594 30.921875 L 357.058594 30.921875 C 357.058594 30.921875 357.019531 29.71875 356.21875 29.050781 C 356.21875 29.050781 355.421875 28.359375 354.058594 28.359375 C 354.058594 28.359375 352.699219 28.359375 352 28.839844 C 352 28.839844 351.300781 29.328125 351.300781 30.28125 C 351.300781 30.28125 351.300781 31.058594 351.828125 31.550781 C 351.828125 31.550781 352.359375 32.019531 353.941406 32.519531 L 355.660156 33.03125 C 355.660156 33.03125 357.421875 33.589844 358.199219 34.421875 C 358.199219 34.421875 358.980469 35.230469 358.980469 36.550781 C 358.980469 36.550781 358.980469 38.308594 357.628906 39.328125 C 357.628906 39.328125 356.269531 40.339844 353.890625 40.339844 C 353.890625 40.339844 352.691406 40.339844 351.53125 40.078125 C 351.53125 40.078125 350.390625 39.828125 349.230469 39.308594 Z M 349.230469 39.308594 "/>
<path style=" stroke:none;fill-rule:nonzero;fill:rgb(0%,0%,0%);fill-opacity:1;" d="M 367.660156 43.730469 C 367.660156 43.730469 364.808594 42.46875 363.359375 39.699219 C 363.359375 39.699219 361.910156 36.921875 361.910156 32.75 C 361.910156 32.75 361.910156 28.578125 363.359375 25.808594 C 363.359375 25.808594 364.808594 23.050781 367.660156 21.769531 L 367.660156 22.910156 C 367.660156 22.910156 365.839844 24.160156 365.058594 26.421875 C 365.058594 26.421875 364.28125 28.671875 364.28125 32.75 C 364.28125 32.75 364.28125 36.828125 365.058594 39.089844 C 365.058594 39.089844 365.839844 41.339844 367.660156 42.589844 Z M 367.660156 43.730469 "/>
<path style=" stroke:none;fill-rule:nonzero;fill:rgb(0%,0%,0%);fill-opacity:1;" d="M 379.359375 36.921875 L 378.890625 38.230469 C 378.890625 38.230469 378.53125 39.230469 377.421875 39.871094 C 377.421875 39.871094 376.691406 40.308594 375.410156 40.300781 C 375.410156 40.300781 373.089844 40.269531 371.660156 38.46875 C 371.660156 38.46875 370.199219 36.640625 370.199219 33.71875 C 370.199219 33.71875 370.199219 30.839844 371.660156 28.96875 C 371.660156 28.96875 373.019531 27.199219 375.921875 27.21875 C 375.921875 27.21875 377.910156 27.21875 378.921875 28 C 378.921875 28 379.808594 28.691406 380.140625 30.199219 L 380.230469 30.640625 L 380.699219 29.328125 C 380.699219 29.328125 381.128906 28.109375 382.328125 27.5 L 383.519531 27.5 L 383.519531 28.191406 C 383.519531 28.191406 382.390625 28.53125 381.980469 29.640625 L 380.769531 32.96875 L 381.589844 36.550781 C 381.589844 36.550781 382.019531 38.390625 382.449219 38.589844 C 382.449219 38.589844 383.089844 38.890625 384.558594 38 L 384.558594 39.421875 C 384.558594 39.421875 382.191406 40.800781 380.519531 39.359375 C 380.519531 39.359375 379.75 38.699219 379.53125 37.769531 Z M 378.859375 34.621094 L 378.128906 31.191406 C 378.128906 31.191406 377.53125 28.441406 375.941406 28.441406 C 375.941406 28.441406 374.589844 28.421875 373.578125 29.859375 C 373.578125 29.859375 372.71875 31.050781 372.71875 33.769531 C 372.71875 33.769531 372.71875 36.339844 373.578125 37.671875 C 373.578125 37.671875 374.480469 39.109375 376.058594 38.980469 C 376.058594 38.980469 377.421875 38.890625 378.390625 36.019531 Z M 378.859375 34.621094 "/>
<path style=" stroke:none;fill-rule:nonzero;fill:rgb(0%,0%,0%);fill-opacity:1;" d="M 396 24.949219 L 396 31.53125 L 402.558594 31.53125 L 402.558594 33.421875 L 396 33.421875 L 396 40 L 394.128906 40 L 394.128906 33.421875 L 387.550781 33.421875 L 387.550781 31.53125 L 394.128906 31.53125 L 394.128906 24.949219 Z M 396 24.949219 "/>
<path style=" stroke:none;fill-rule:nonzero;fill:rgb(0%,0%,0%);fill-opacity:1;" d="M 415.699219 30.25 C 415.699219 30.25 415.628906 26.480469 414.828125 24.578125 C 414.828125 24.578125 413.941406 22.449219 412.199219 22.449219 C 412.199219 22.449219 410.480469 22.449219 409.589844 24.578125 C 409.589844 24.578125 408.808594 26.480469 408.730469 30.25 Z M 415.699219 31.5 L 408.730469 31.5 C 408.730469 31.5 408.808594 35.230469 409.609375 37.160156 C 409.609375 37.160156 410.5 39.28125 412.199219 39.28125 C 412.199219 39.28125 413.941406 39.28125 414.828125 37.160156 C 414.828125 37.160156 415.628906 35.230469 415.699219 31.5 Z M 412.199219 21.5 C 412.199219 21.5 414.941406 21.5 416.578125 24.058594 C 416.578125 24.058594 418.230469 26.621094 418.230469 30.871094 C 418.230469 30.871094 418.230469 35.121094 416.578125 37.699219 C 416.578125 37.699219 414.921875 40.269531 412.199219 40.269531 C 412.199219 40.269531 409.5 40.269531 407.839844 37.699219 C 407.839844 37.699219 406.199219 35.121094 406.199219 30.871094 C 406.199219 30.871094 406.199219 26.621094 407.839844 24.058594 C 407.839844 24.058594 409.480469 21.5 412.199219 21.5 Z M 412.199219 21.5 "/>
<path style=" stroke:none;fill-rule:nonzero;fill:rgb(0%,0%,0%);fill-opacity:1;" d="M 420.699219 43.730469 L 420.699219 42.589844 C 420.699219 42.589844 422.5 41.339844 423.300781 39.089844 C 423.300781 39.089844 424.089844 36.828125 424.089844 32.75 C 424.089844 32.75 424.089844 28.671875 423.300781 26.421875 C 423.300781 26.421875 422.5 24.160156 420.699219 22.910156 L 420.699219 21.769531 C 420.699219 21.769531 423.558594 23.050781 425.019531 25.808594 C 425.019531 25.808594 426.46875 28.578125 426.46875 32.75 C 426.46875 32.75 426.46875 36.921875 425.019531 39.699219 C 425.019531 39.699219 423.558594 42.46875 420.699219 43.730469 Z M 420.699219 43.730469 "/>
<path style=" stroke:none;fill-rule:nonzero;fill:rgb(0%,0%,0%);fill-opacity:1;" d="M 428.878906 42.328125 C 428.878906 42.328125 429.96875 41.53125 430.480469 40.421875 C 430.480469 40.421875 431 39.328125 431 37.769531 L 431 37.339844 L 433.308594 37.339844 C 433.308594 37.339844 433.21875 39.339844 432.359375 40.78125 C 432.359375 40.78125 431.519531 42.21875 429.808594 43.269531 Z M 428.878906 42.328125 "/>
<path style=" stroke:none;fill-rule:nonzero;fill:rgb(0%,0%,0%);fill-opacity:1;" d="M 441.191406 42.28125 L 442 40.21875 L 437.339844 28.800781 L 435.921875 28.800781 L 435.921875 27.550781 L 441.660156 27.550781 L 441.660156 28.800781 L 439.671875 28.800781 L 443.171875 37.359375 L 446.671875 28.800781 L 444.808594 28.800781 L 444.808594 27.550781 L 449.480469 27.550781 L 449.480469 28.800781 L 448.089844 28.800781 L 442.390625 42.808594 C 442.390625 42.808594 441.800781 44.269531 441.078125 44.800781 C 441.078125 44.800781 440.378906 45.328125 439.078125 45.328125 C 439.078125 45.328125 438.519531 45.328125 437.941406 45.230469 C 437.941406 45.230469 437.359375 45.140625 436.78125 44.96875 L 436.78125 42.589844 L 437.878906 42.589844 C 437.878906 42.589844 437.949219 43.390625 438.28125 43.730469 C 438.28125 43.730469 438.609375 44.078125 439.308594 44.078125 C 439.308594 44.078125 439.96875 44.078125 440.359375 43.71875 C 440.359375 43.71875 440.75 43.359375 441.191406 42.28125 Z M 441.191406 42.28125 "/>
<path style=" stroke:none;fill-rule:nonzero;fill:rgb(0%,0%,0%);fill-opacity:1;" d="M 452.558594 46 L 452.558594 45.058594 L 454.839844 45.058594 L 454.839844 34.160156 L 452.199219 35.859375 L 452.199219 34.71875 L 455.390625 32.640625 L 456.609375 32.640625 L 456.609375 45.058594 L 458.890625 45.058594 L 458.890625 46 Z M 452.558594 46 "/>
<path style=" stroke:none;fill-rule:nonzero;fill:rgb(0%,0%,0%);fill-opacity:1;" d="M 472 24.949219 L 472 31.53125 L 478.558594 31.53125 L 478.558594 33.421875 L 472 33.421875 L 472 40 L 470.128906 40 L 470.128906 33.421875 L 463.550781 33.421875 L 463.550781 31.53125 L 470.128906 31.53125 L 470.128906 24.949219 Z M 472 24.949219 "/>
<path style=" stroke:none;fill-rule:nonzero;fill:rgb(0%,0%,0%);fill-opacity:1;" d="M 490.550781 36.078125 L 490.550781 33.449219 L 487.78125 33.449219 C 487.78125 33.449219 486.171875 33.449219 485.378906 34.140625 C 485.378906 34.140625 484.589844 34.828125 484.589844 36.269531 C 484.589844 36.269531 484.589844 37.558594 485.390625 38.328125 C 485.390625 38.328125 486.191406 39.078125 487.550781 39.078125 C 487.550781 39.078125 488.910156 39.078125 489.71875 38.25 C 489.71875 38.25 490.550781 37.421875 490.550781 36.078125 Z M 492.699219 32.21875 L 492.699219 38.75 L 494.628906 38.75 L 494.628906 40 L 490.550781 40 L 490.550781 38.660156 C 490.550781 38.660156 489.839844 39.519531 488.910156 39.941406 C 488.910156 39.941406 487.96875 40.339844 486.699219 40.339844 C 486.699219 40.339844 484.640625 40.339844 483.421875 39.25 C 483.421875 39.25 482.199219 38.140625 482.199219 36.269531 C 482.199219 36.269531 482.199219 34.328125 483.589844 33.269531 C 483.589844 33.269531 484.980469 32.191406 487.53125 32.191406 L 490.550781 32.191406 L 490.550781 31.339844 C 490.550781 31.339844 490.550781 29.921875 489.691406 29.140625 C 489.691406 29.140625 488.828125 28.359375 487.269531 28.359375 C 487.269531 28.359375 485.980469 28.359375 485.21875 28.949219 C 485.21875 28.949219 484.449219 29.53125 484.269531 30.691406 L 483.160156 30.691406 L 483.160156 28.160156 C 483.160156 28.160156 484.28125 27.691406 485.339844 27.449219 C 485.339844 27.449219 486.410156 27.199219 487.410156 27.199219 C 487.410156 27.199219 490 27.199219 491.339844 28.480469 C 491.339844 28.480469 492.699219 29.769531 492.699219 32.21875 Z M 492.699219 32.21875 "/>
<path style=" stroke:none;fill-rule:nonzero;fill:rgb(0%,0%,0%);fill-opacity:1;" d="M 496.339844 39.308594 L 496.339844 36.410156 L 497.589844 36.410156 C 497.589844 36.410156 497.640625 37.800781 498.46875 38.480469 C 498.46875 38.480469 499.300781 39.171875 500.910156 39.171875 C 500.910156 39.171875 502.359375 39.171875 503.128906 38.640625 C 503.128906 38.640625 503.890625 38.089844 503.890625 37.050781 C 503.890625 37.050781 503.890625 36.21875 503.328125 35.71875 C 503.328125 35.71875 502.769531 35.21875 500.980469 34.640625 L 499.421875 34.109375 C 499.421875 34.109375 497.808594 33.589844 497.089844 32.828125 C 497.089844 32.828125 496.378906 32.050781 496.378906 30.859375 C 496.378906 30.859375 496.378906 29.140625 497.628906 28.171875 C 497.628906 28.171875 498.878906 27.199219 501.089844 27.199219 C 501.089844 27.199219 502.078125 27.199219 503.171875 27.46875 C 503.171875 27.46875 504.269531 27.71875 505.421875 28.199219 L 505.421875 30.921875 L 504.171875 30.921875 C 504.171875 30.921875 504.128906 29.71875 503.328125 29.050781 C 503.328125 29.050781 502.53125 28.359375 501.171875 28.359375 C 501.171875 28.359375 499.808594 28.359375 499.109375 28.839844 C 499.109375 28.839844 498.410156 29.328125 498.410156 30.28125 C 498.410156 30.28125 498.410156 31.058594 498.941406 31.550781 C 498.941406 31.550781 499.46875 32.019531 501.050781 32.519531 L 502.769531 33.03125 C 502.769531 33.03125 504.53125 33.589844 505.308594 34.421875 C 505.308594 34.421875 506.089844 35.230469 506.089844 36.550781 C 506.089844 36.550781 506.089844 38.308594 504.730469 39.328125 C 504.730469 39.328125 503.378906 40.339844 501 40.339844 C 501 40.339844 499.800781 40.339844 498.640625 40.078125 C 498.640625 40.078125 497.5 39.828125 496.339844 39.308594 Z M 509.640625 23.671875 C 509.640625 23.671875 509.640625 23.140625 510.039062 22.75 C 510.039062 22.75 510.441406 22.339844 510.988281 22.339844 C 510.988281 22.339844 511.519531 22.339844 511.910156 22.75 C 511.910156 22.75 512.320312 23.140625 512.320312 23.671875 C 512.320312 23.671875 512.320312 24.21875 511.929688 24.609375 C 511.929688 24.609375 511.539062 25 510.988281 25 C 510.988281 25 510.441406 25 510.039062 24.609375 C 510.039062 24.609375 509.640625 24.21875 509.640625 23.671875 Z M 512.410156 38.75 L 514.441406 38.75 L 514.441406 40 L 508.191406 40 L 508.191406 38.75 L 510.25 38.75 L 510.25 28.800781 L 508.191406 28.800781 L 508.191406 27.550781 L 512.410156 27.550781 Z M 515.980469 40 L 515.980469 38.75 L 517.929688 38.75 L 517.929688 28.800781 L 515.871094 28.800781 L 515.871094 27.550781 L 520.089844 27.550781 L 520.089844 29.75 C 520.089844 29.75 520.679688 28.480469 521.628906 27.839844 C 521.628906 27.839844 522.589844 27.199219 523.851562 27.199219 C 523.851562 27.199219 525.910156 27.199219 526.878906 28.390625 C 526.878906 28.390625 527.871094 29.558594 527.871094 32.078125 L 527.871094 38.75 L 529.789062 38.75 L 529.789062 40 L 523.839844 40 L 523.839844 38.75 L 525.699219 38.75 L 525.699219 32.75 C 525.699219 32.75 525.699219 30.46875 525.128906 29.621094 C 525.128906 29.621094 524.570312 28.769531 523.148438 28.769531 C 523.148438 28.769531 521.648438 28.769531 520.871094 29.871094 C 520.871094 29.871094 520.089844 30.96875 520.089844 33.058594 L 520.089844 38.75 L 521.960938 38.75 L 521.960938 40 Z M 515.980469 40 "/>
<path style=" stroke:none;fill-rule:nonzero;fill:rgb(0%,0%,0%);fill-opacity:1;" d="M 537.660156 43.730469 C 537.660156 43.730469 534.808594 42.46875 533.359375 39.699219 C 533.359375 39.699219 531.910156 36.921875 531.910156 32.75 C 531.910156 32.75 531.910156 28.578125 533.359375 25.808594 C 533.359375 25.808594 534.808594 23.050781 537.660156 21.769531 L 537.660156 22.910156 C 537.660156 22.910156 535.839844 24.160156 535.058594 26.421875 C 535.058594 26.421875 534.28125 28.671875 534.28125 32.75 C 534.28125 32.75 534.28125 36.828125 535.058594 39.089844 C 535.058594 39.089844 535.839844 41.339844 537.660156 42.589844 Z M 537.660156 43.730469 "/>
<path style=" stroke:none;fill-rule:nonzero;fill:rgb(0%,0%,0%);fill-opacity:1;" d="M 549.359375 36.921875 L 548.890625 38.230469 C 548.890625 38.230469 548.53125 39.230469 547.421875 39.871094 C 547.421875 39.871094 546.691406 40.308594 545.410156 40.300781 C 545.410156 40.300781 543.089844 40.269531 541.660156 38.46875 C 541.660156 38.46875 540.199219 36.640625 540.199219 33.71875 C 540.199219 33.71875 540.199219 30.839844 541.660156 28.96875 C 541.660156 28.96875 543.019531 27.199219 545.921875 27.21875 C 545.921875 27.21875 547.910156 27.21875 548.921875 28 C 548.921875 28 549.808594 28.691406 550.140625 30.199219 L 550.230469 30.640625 L 550.699219 29.328125 C 550.699219 29.328125 551.128906 28.109375 552.328125 27.5 L 553.519531 27.5 L 553.519531 28.191406 C 553.519531 28.191406 552.390625 28.53125 551.980469 29.640625 L 550.769531 32.96875 L 551.589844 36.550781 C 551.589844 36.550781 552.019531 38.390625 552.449219 38.589844 C 552.449219 38.589844 553.089844 38.890625 554.558594 38 L 554.558594 39.421875 C 554.558594 39.421875 552.191406 40.800781 550.519531 39.359375 C 550.519531 39.359375 549.75 38.699219 549.53125 37.769531 Z M 548.859375 34.621094 L 548.128906 31.191406 C 548.128906 31.191406 547.53125 28.441406 545.941406 28.441406 C 545.941406 28.441406 544.589844 28.421875 543.578125 29.859375 C 543.578125 29.859375 542.71875 31.050781 542.71875 33.769531 C 542.71875 33.769531 542.71875 36.339844 543.578125 37.671875 C 543.578125 37.671875 544.480469 39.109375 546.058594 38.980469 C 546.058594 38.980469 547.421875 38.890625 548.390625 36.019531 Z M 548.859375 34.621094 "/>
<path style=" stroke:none;fill-rule:nonzero;fill:rgb(0%,0%,0%);fill-opacity:1;" d="M 566 24.949219 L 566 31.53125 L 572.558594 31.53125 L 572.558594 33.421875 L 566 33.421875 L 566 40 L 564.128906 40 L 564.128906 33.421875 L 557.550781 33.421875 L 557.550781 31.53125 L 564.128906 31.53125 L 564.128906 24.949219 Z M 566 24.949219 "/>
<path style=" stroke:none;fill-rule:nonzero;fill:rgb(0%,0%,0%);fill-opacity:1;" d="M 585.699219 30.25 C 585.699219 30.25 585.628906 26.480469 584.828125 24.578125 C 584.828125 24.578125 583.941406 22.449219 582.199219 22.449219 C 582.199219 22.449219 580.480469 22.449219 579.589844 24.578125 C 579.589844 24.578125 578.808594 26.480469 578.730469 30.25 Z M 585.699219 31.5 L 578.730469 31.5 C 578.730469 31.5 578.808594 35.230469 579.609375 37.160156 C 579.609375 37.160156 580.5 39.28125 582.199219 39.28125 C 582.199219 39.28125 583.941406 39.28125 584.828125 37.160156 C 584.828125 37.160156 585.628906 35.230469 585.699219 31.5 Z M 582.199219 21.5 C 582.199219 21.5 584.941406 21.5 586.578125 24.058594 C 586.578125 24.058594 588.230469 26.621094 588.230469 30.871094 C 588.230469 30.871094 588.230469 35.121094 586.578125 37.699219 C 586.578125 37.699219 584.921875 40.269531 582.199219 40.269531 C 582.199219 40.269531 579.5 40.269531 577.839844 37.699219 C 577.839844 37.699219 576.199219 35.121094 576.199219 30.871094 C 576.199219 30.871094 576.199219 26.621094 577.839844 24.058594 C 577.839844 24.058594 579.480469 21.5 582.199219 21.5 Z M 582.199219 21.5 "/>
<path style=" stroke:none;fill-rule:nonzero;fill:rgb(0%,0%,0%);fill-opacity:1;" d="M 590.699219 43.730469 L 590.699219 42.589844 C 590.699219 42.589844 592.5 41.339844 593.300781 39.089844 C 593.300781 39.089844 594.089844 36.828125 594.089844 32.75 C 594.089844 32.75 594.089844 28.671875 593.300781 26.421875 C 593.300781 26.421875 592.5 24.160156 590.699219 22.910156 L 590.699219 21.769531 C 590.699219 21.769531 593.558594 23.050781 595.019531 25.808594 C 595.019531 25.808594 596.46875 28.578125 596.46875 32.75 C 596.46875 32.75 596.46875 36.921875 595.019531 39.699219 C 595.019531 39.699219 593.558594 42.46875 590.699219 43.730469 Z M 590.699219 43.730469 "/>
<path style=" stroke:none;fill-rule:nonzero;fill:rgb(0%,0%,0%);fill-opacity:1;" d="M 599.699219 43.730469 L 599.699219 42.589844 C 599.699219 42.589844 601.5 41.339844 602.300781 39.089844 C 602.300781 39.089844 603.089844 36.828125 603.089844 32.75 C 603.089844 32.75 603.089844 28.671875 602.300781 26.421875 C 602.300781 26.421875 601.5 24.160156 599.699219 22.910156 L 599.699219 21.769531 C 599.699219 21.769531 602.558594 23.050781 604.019531 25.808594 C 604.019531 25.808594 605.46875 28.578125 605.46875 32.75 C 605.46875 32.75 605.46875 36.921875 604.019531 39.699219 C 604.019531 39.699219 602.558594 42.46875 599.699219 43.730469 Z M 599.699219 43.730469 "/>
<path style=" stroke:none;fill-rule:nonzero;fill:rgb(0%,0%,0%);fill-opacity:1;" d="M 777.660156 234.730469 C 777.660156 234.730469 774.808594 233.46875 773.359375 230.699219 C 773.359375 230.699219 771.910156 227.921875 771.910156 223.75 C 771.910156 223.75 771.910156 219.578125 773.359375 216.808594 C 773.359375 216.808594 774.808594 214.050781 777.660156 212.769531 L 777.660156 213.910156 C 777.660156 213.910156 775.839844 215.160156 775.058594 217.421875 C 775.058594 217.421875 774.28125 219.671875 774.28125 223.75 C 774.28125 223.75 774.28125 227.828125 775.058594 230.089844 C 775.058594 230.089844 775.839844 232.339844 777.660156 233.589844 Z M 777.660156 234.730469 "/>
<path style=" stroke:none;fill-rule:nonzero;fill:rgb(0%,0%,0%);fill-opacity:1;" d="M 785.980469 223.390625 L 788.589844 219.800781 L 786.921875 219.800781 L 786.921875 218.550781 L 791.71875 218.550781 L 791.71875 219.800781 L 790.058594 219.800781 L 786.71875 224.410156 L 790.609375 229.75 L 792.25 229.75 L 792.25 231 L 786.480469 231 L 786.480469 229.75 L 788.078125 229.75 L 785.359375 226.03125 L 782.640625 229.75 L 784.269531 229.75 L 784.269531 231 L 779.53125 231 L 779.53125 229.75 L 781.191406 229.75 L 784.609375 225.019531 L 780.828125 219.800781 L 779.300781 219.800781 L 779.300781 218.550781 L 784.859375 218.550781 L 784.859375 219.800781 L 783.378906 219.800781 Z M 785.980469 223.390625 "/>
<path style=" stroke:none;fill-rule:nonzero;fill:rgb(0%,0%,0%);fill-opacity:1;" d="M 795.558594 237 L 795.558594 236.058594 L 797.839844 236.058594 L 797.839844 225.160156 L 795.199219 226.859375 L 795.199219 225.71875 L 798.390625 223.640625 L 799.609375 223.640625 L 799.609375 236.058594 L 801.890625 236.058594 L 801.890625 237 Z M 795.558594 237 "/>
<path style=" stroke:none;fill-rule:nonzero;fill:rgb(0%,0%,0%);fill-opacity:1;" d="M 815 215.949219 L 815 222.53125 L 821.558594 222.53125 L 821.558594 224.421875 L 815 224.421875 L 815 231 L 813.128906 231 L 813.128906 224.421875 L 806.550781 224.421875 L 806.550781 222.53125 L 813.128906 222.53125 L 813.128906 215.949219 Z M 815 215.949219 "/>
<path style=" stroke:none;fill-rule:nonzero;fill:rgb(0%,0%,0%);fill-opacity:1;" d="M 826.769531 229.75 L 826.769531 214 L 824.691406 214 L 824.691406 212.769531 L 828.921875 212.769531 L 828.921875 220.480469 C 828.921875 220.480469 829.558594 219.308594 830.53125 218.769531 C 830.53125 218.769531 831.519531 218.199219 832.949219 218.199219 C 832.949219 218.199219 835.25 218.199219 836.699219 220.019531 C 836.699219 220.019531 838.160156 221.828125 838.160156 224.769531 C 838.160156 224.769531 838.160156 227.691406 836.699219 229.519531 C 836.699219 229.519531 835.25 231.339844 832.949219 231.339844 C 832.949219 231.339844 831.519531 231.339844 830.53125 230.78125 C 830.53125 230.78125 829.558594 230.21875 828.921875 229.050781 L 828.921875 231 L 824.691406 231 L 824.691406 229.75 Z M 828.921875 225.390625 C 828.921875 225.390625 828.921875 227.640625 829.78125 228.808594 C 829.78125 228.808594 830.640625 229.980469 832.28125 229.980469 C 832.28125 229.980469 833.941406 229.980469 834.78125 228.671875 C 834.78125 228.671875 835.640625 227.339844 835.640625 224.769531 C 835.640625 224.769531 835.640625 222.171875 834.78125 220.859375 C 834.78125 220.859375 833.941406 219.550781 832.28125 219.550781 C 832.28125 219.550781 830.640625 219.550781 829.78125 220.730469 C 829.78125 220.730469 828.921875 221.921875 828.921875 224.160156 Z M 828.921875 225.390625 "/>
<path style=" stroke:none;fill-rule:nonzero;fill:rgb(0%,0%,0%);fill-opacity:1;" d="M 851.339844 227.269531 C 851.339844 227.269531 850.890625 229.25 849.578125 230.300781 C 849.578125 230.300781 848.28125 231.339844 846.21875 231.339844 C 846.21875 231.339844 843.5 231.339844 841.839844 229.550781 C 841.839844 229.550781 840.199219 227.730469 840.199219 224.769531 C 840.199219 224.769531 840.199219 221.78125 841.839844 220 C 841.839844 220 843.5 218.199219 846.21875 218.199219 C 846.21875 218.199219 847.410156 218.199219 848.578125 218.480469 C 848.578125 218.480469 849.75 218.75 850.941406 219.308594 L 850.941406 222.5 L 849.671875 222.5 C 849.671875 222.5 849.441406 220.859375 848.609375 220.109375 C 848.609375 220.109375 847.78125 219.359375 846.25 219.359375 C 846.25 219.359375 844.5 219.359375 843.609375 220.71875 C 843.609375 220.71875 842.71875 222.058594 842.71875 224.769531 C 842.71875 224.769531 842.71875 227.449219 843.589844 228.808594 C 843.589844 228.808594 844.480469 230.171875 846.25 230.171875 C 846.25 230.171875 847.640625 230.171875 848.46875 229.449219 C 848.46875 229.449219 849.300781 228.71875 849.609375 227.269531 Z M 859.660156 230.171875 C 859.660156 230.171875 861.390625 230.171875 862.269531 228.808594 C 862.269531 228.808594 863.160156 227.441406 863.160156 224.769531 C 863.160156 224.769531 863.160156 222.089844 862.269531 220.730469 C 862.269531 220.730469 861.390625 219.359375 859.660156 219.359375 C 859.660156 219.359375 857.929688 219.359375 857.039062 220.730469 C 857.039062 220.730469 856.160156 222.089844 856.160156 224.769531 C 856.160156 224.769531 856.160156 227.441406 857.050781 228.808594 C 857.050781 228.808594 857.941406 230.171875 859.660156 230.171875 Z M 859.660156 231.339844 C 859.660156 231.339844 856.941406 231.339844 855.289062 229.550781 C 855.289062 229.550781 853.640625 227.730469 853.640625 224.769531 C 853.640625 224.769531 853.640625 221.78125 855.289062 220 C 855.289062 220 856.929688 218.199219 859.660156 218.199219 C 859.660156 218.199219 862.390625 218.199219 864.039062 220 C 864.039062 220 865.691406 221.78125 865.691406 224.769531 C 865.691406 224.769531 865.691406 227.730469 864.039062 229.550781 C 864.039062 229.550781 862.390625 231.339844 859.660156 231.339844 Z M 868.230469 230.308594 L 868.230469 227.410156 L 869.480469 227.410156 C 869.480469 227.410156 869.53125 228.800781 870.359375 229.480469 C 870.359375 229.480469 871.191406 230.171875 872.800781 230.171875 C 872.800781 230.171875 874.25 230.171875 875.019531 229.640625 C 875.019531 229.640625 875.78125 229.089844 875.78125 228.050781 C 875.78125 228.050781 875.78125 227.21875 875.21875 226.71875 C 875.21875 226.71875 874.660156 226.21875 872.878906 225.640625 L 871.308594 225.109375 C 871.308594 225.109375 869.699219 224.589844 868.980469 223.828125 C 868.980469 223.828125 868.269531 223.050781 868.269531 221.859375 C 868.269531 221.859375 868.269531 220.140625 869.519531 219.171875 C 869.519531 219.171875 870.769531 218.199219 872.980469 218.199219 C 872.980469 218.199219 873.96875 218.199219 875.058594 218.46875 C 875.058594 218.46875 876.160156 218.71875 877.308594 219.199219 L 877.308594 221.921875 L 876.058594 221.921875 C 876.058594 221.921875 876.019531 220.71875 875.21875 220.050781 C 875.21875 220.050781 874.421875 219.359375 873.058594 219.359375 C 873.058594 219.359375 871.699219 219.359375 871 219.839844 C 871 219.839844 870.300781 220.328125 870.300781 221.28125 C 870.300781 221.28125 870.300781 222.058594 870.828125 222.550781 C 870.828125 222.550781 871.359375 223.019531 872.941406 223.519531 L 874.660156 224.03125 C 874.660156 224.03125 876.421875 224.589844 877.199219 225.421875 C 877.199219 225.421875 877.980469 226.230469 877.980469 227.550781 C 877.980469 227.550781 877.980469 229.308594 876.628906 230.328125 C 876.628906 230.328125 875.269531 231.339844 872.890625 231.339844 C 872.890625 231.339844 871.691406 231.339844 870.53125 231.078125 C 870.53125 231.078125 869.390625 230.828125 868.230469 230.308594 Z M 868.230469 230.308594 "/>
<path style=" stroke:none;fill-rule:nonzero;fill:rgb(0%,0%,0%);fill-opacity:1;" d="M 889.699219 221.25 C 889.699219 221.25 889.628906 217.480469 888.828125 215.578125 C 888.828125 215.578125 887.941406 213.449219 886.199219 213.449219 C 886.199219 213.449219 884.480469 213.449219 883.589844 215.578125 C 883.589844 215.578125 882.808594 217.480469 882.730469 221.25 Z M 889.699219 222.5 L 882.730469 222.5 C 882.730469 222.5 882.808594 226.230469 883.609375 228.160156 C 883.609375 228.160156 884.5 230.28125 886.199219 230.28125 C 886.199219 230.28125 887.941406 230.28125 888.828125 228.160156 C 888.828125 228.160156 889.628906 226.230469 889.699219 222.5 Z M 886.199219 212.5 C 886.199219 212.5 888.941406 212.5 890.578125 215.058594 C 890.578125 215.058594 892.230469 217.621094 892.230469 221.871094 C 892.230469 221.871094 892.230469 226.121094 890.578125 228.699219 C 890.578125 228.699219 888.921875 231.269531 886.199219 231.269531 C 886.199219 231.269531 883.5 231.269531 881.839844 228.699219 C 881.839844 228.699219 880.199219 226.121094 880.199219 221.871094 C 880.199219 221.871094 880.199219 217.621094 881.839844 215.058594 C 881.839844 215.058594 883.480469 212.5 886.199219 212.5 Z M 886.199219 212.5 "/>
<path style=" stroke:none;fill-rule:nonzero;fill:rgb(0%,0%,0%);fill-opacity:1;" d="M 893.878906 233.328125 C 893.878906 233.328125 894.96875 232.53125 895.480469 231.421875 C 895.480469 231.421875 896 230.328125 896 228.769531 L 896 228.339844 L 898.308594 228.339844 C 898.308594 228.339844 898.21875 230.339844 897.359375 231.78125 C 897.359375 231.78125 896.519531 233.21875 894.808594 234.269531 Z M 893.878906 233.328125 "/>
<path style=" stroke:none;fill-rule:nonzero;fill:rgb(0%,0%,0%);fill-opacity:1;" d="M 906.191406 233.28125 L 907 231.21875 L 902.339844 219.800781 L 900.921875 219.800781 L 900.921875 218.550781 L 906.660156 218.550781 L 906.660156 219.800781 L 904.671875 219.800781 L 908.171875 228.359375 L 911.671875 219.800781 L 909.808594 219.800781 L 909.808594 218.550781 L 914.480469 218.550781 L 914.480469 219.800781 L 913.089844 219.800781 L 907.390625 233.808594 C 907.390625 233.808594 906.800781 235.269531 906.078125 235.800781 C 906.078125 235.800781 905.378906 236.328125 904.078125 236.328125 C 904.078125 236.328125 903.519531 236.328125 902.941406 236.230469 C 902.941406 236.230469 902.359375 236.140625 901.78125 235.96875 L 901.78125 233.589844 L 902.878906 233.589844 C 902.878906 233.589844 902.949219 234.390625 903.28125 234.730469 C 903.28125 234.730469 903.609375 235.078125 904.308594 235.078125 C 904.308594 235.078125 904.96875 235.078125 905.359375 234.71875 C 905.359375 234.71875 905.75 234.359375 906.191406 233.28125 Z M 906.191406 233.28125 "/>
<path style=" stroke:none;fill-rule:nonzero;fill:rgb(0%,0%,0%);fill-opacity:1;" d="M 917.558594 237 L 917.558594 236.058594 L 919.839844 236.058594 L 919.839844 225.160156 L 917.199219 226.859375 L 917.199219 225.71875 L 920.390625 223.640625 L 921.609375 223.640625 L 921.609375 236.058594 L 923.890625 236.058594 L 923.890625 237 Z M 917.558594 237 "/>
<path style=" stroke:none;fill-rule:nonzero;fill:rgb(0%,0%,0%);fill-opacity:1;" d="M 937 215.949219 L 937 222.53125 L 943.558594 222.53125 L 943.558594 224.421875 L 937 224.421875 L 937 231 L 935.128906 231 L 935.128906 224.421875 L 928.550781 224.421875 L 928.550781 222.53125 L 935.128906 222.53125 L 935.128906 215.949219 Z M 937 215.949219 "/>
<path style=" stroke:none;fill-rule:nonzero;fill:rgb(0%,0%,0%);fill-opacity:1;" d="M 948.769531 229.75 L 948.769531 214 L 946.691406 214 L 946.691406 212.769531 L 950.921875 212.769531 L 950.921875 220.480469 C 950.921875 220.480469 951.558594 219.308594 952.53125 218.769531 C 952.53125 218.769531 953.519531 218.199219 954.949219 218.199219 C 954.949219 218.199219 957.25 218.199219 958.699219 220.019531 C 958.699219 220.019531 960.160156 221.828125 960.160156 224.769531 C 960.160156 224.769531 960.160156 227.691406 958.699219 229.519531 C 958.699219 229.519531 957.25 231.339844 954.949219 231.339844 C 954.949219 231.339844 953.519531 231.339844 952.53125 230.78125 C 952.53125 230.78125 951.558594 230.21875 950.921875 229.050781 L 950.921875 231 L 946.691406 231 L 946.691406 229.75 Z M 950.921875 225.390625 C 950.921875 225.390625 950.921875 227.640625 951.78125 228.808594 C 951.78125 228.808594 952.640625 229.980469 954.28125 229.980469 C 954.28125 229.980469 955.941406 229.980469 956.78125 228.671875 C 956.78125 228.671875 957.640625 227.339844 957.640625 224.769531 C 957.640625 224.769531 957.640625 222.171875 956.78125 220.859375 C 956.78125 220.859375 955.941406 219.550781 954.28125 219.550781 C 954.28125 219.550781 952.640625 219.550781 951.78125 220.730469 C 951.78125 220.730469 950.921875 221.921875 950.921875 224.160156 Z M 950.921875 225.390625 "/>
<path style=" stroke:none;fill-rule:nonzero;fill:rgb(0%,0%,0%);fill-opacity:1;" d="M 962.339844 230.308594 L 962.339844 227.410156 L 963.589844 227.410156 C 963.589844 227.410156 963.640625 228.800781 964.46875 229.480469 C 964.46875 229.480469 965.300781 230.171875 966.910156 230.171875 C 966.910156 230.171875 968.359375 230.171875 969.128906 229.640625 C 969.128906 229.640625 969.890625 229.089844 969.890625 228.050781 C 969.890625 228.050781 969.890625 227.21875 969.328125 226.71875 C 969.328125 226.71875 968.769531 226.21875 966.980469 225.640625 L 965.421875 225.109375 C 965.421875 225.109375 963.808594 224.589844 963.089844 223.828125 C 963.089844 223.828125 962.378906 223.050781 962.378906 221.859375 C 962.378906 221.859375 962.378906 220.140625 963.628906 219.171875 C 963.628906 219.171875 964.878906 218.199219 967.089844 218.199219 C 967.089844 218.199219 968.078125 218.199219 969.171875 218.46875 C 969.171875 218.46875 970.269531 218.71875 971.421875 219.199219 L 971.421875 221.921875 L 970.171875 221.921875 C 970.171875 221.921875 970.128906 220.71875 969.328125 220.050781 C 969.328125 220.050781 968.53125 219.359375 967.171875 219.359375 C 967.171875 219.359375 965.808594 219.359375 965.109375 219.839844 C 965.109375 219.839844 964.410156 220.328125 964.410156 221.28125 C 964.410156 221.28125 964.410156 222.058594 964.941406 222.550781 C 964.941406 222.550781 965.46875 223.019531 967.050781 223.519531 L 968.769531 224.03125 C 968.769531 224.03125 970.53125 224.589844 971.308594 225.421875 C 971.308594 225.421875 972.089844 226.230469 972.089844 227.550781 C 972.089844 227.550781 972.089844 229.308594 970.730469 230.328125 C 970.730469 230.328125 969.378906 231.339844 967 231.339844 C 967 231.339844 965.800781 231.339844 964.640625 231.078125 C 964.640625 231.078125 963.5 230.828125 962.339844 230.308594 Z M 975.640625 214.671875 C 975.640625 214.671875 975.640625 214.140625 976.039062 213.75 C 976.039062 213.75 976.441406 213.339844 976.988281 213.339844 C 976.988281 213.339844 977.519531 213.339844 977.910156 213.75 C 977.910156 213.75 978.320312 214.140625 978.320312 214.671875 C 978.320312 214.671875 978.320312 215.21875 977.929688 215.609375 C 977.929688 215.609375 977.539062 216 976.988281 216 C 976.988281 216 976.441406 216 976.039062 215.609375 C 976.039062 215.609375 975.640625 215.21875 975.640625 214.671875 Z M 978.410156 229.75 L 980.441406 229.75 L 980.441406 231 L 974.191406 231 L 974.191406 229.75 L 976.25 229.75 L 976.25 219.800781 L 974.191406 219.800781 L 974.191406 218.550781 L 978.410156 218.550781 Z M 981.980469 231 L 981.980469 229.75 L 983.929688 229.75 L 983.929688 219.800781 L 981.871094 219.800781 L 981.871094 218.550781 L 986.089844 218.550781 L 986.089844 220.75 C 986.089844 220.75 986.679688 219.480469 987.628906 218.839844 C 987.628906 218.839844 988.589844 218.199219 989.851562 218.199219 C 989.851562 218.199219 991.910156 218.199219 992.878906 219.390625 C 992.878906 219.390625 993.871094 220.558594 993.871094 223.078125 L 993.871094 229.75 L 995.789062 229.75 L 995.789062 231 L 989.839844 231 L 989.839844 229.75 L 991.699219 229.75 L 991.699219 223.75 C 991.699219 223.75 991.699219 221.46875 991.128906 220.621094 C 991.128906 220.621094 990.570312 219.769531 989.148438 219.769531 C 989.148438 219.769531 987.648438 219.769531 986.871094 220.871094 C 986.871094 220.871094 986.089844 221.96875 986.089844 224.058594 L 986.089844 229.75 L 987.960938 229.75 L 987.960938 231 Z M 981.980469 231 "/>
<path style=" stroke:none;fill-rule:nonzero;fill:rgb(0%,0%,0%);fill-opacity:1;" d="M 1006.699219 221.25 C 1006.699219 221.25 1006.628906 217.480469 1005.828125 215.578125 C 1005.828125 215.578125 1004.941406 213.449219 1003.199219 213.449219 C 1003.199219 213.449219 1001.480469 213.449219 1000.589844 215.578125 C 1000.589844 215.578125 999.808594 217.480469 999.730469 221.25 Z M 1006.699219 222.5 L 999.730469 222.5 C 999.730469 222.5 999.808594 226.230469 1000.609375 228.160156 C 1000.609375 228.160156 1001.5 230.28125 1003.199219 230.28125 C 1003.199219 230.28125 1004.941406 230.28125 1005.828125 228.160156 C 1005.828125 228.160156 1006.628906 226.230469 1006.699219 222.5 Z M 1003.199219 212.5 C 1003.199219 212.5 1005.941406 212.5 1007.578125 215.058594 C 1007.578125 215.058594 1009.230469 217.621094 1009.230469 221.871094 C 1009.230469 221.871094 1009.230469 226.121094 1007.578125 228.699219 C 1007.578125 228.699219 1005.921875 231.269531 1003.199219 231.269531 C 1003.199219 231.269531 1000.5 231.269531 998.839844 228.699219 C 998.839844 228.699219 997.199219 226.121094 997.199219 221.871094 C 997.199219 221.871094 997.199219 217.621094 998.839844 215.058594 C 998.839844 215.058594 1000.480469 212.5 1003.199219 212.5 Z M 1003.199219 212.5 "/>
<path style=" stroke:none;fill-rule:nonzero;fill:rgb(0%,0%,0%);fill-opacity:1;" d="M 1011.699219 234.730469 L 1011.699219 233.589844 C 1011.699219 233.589844 1013.5 232.339844 1014.300781 230.089844 C 1014.300781 230.089844 1015.089844 227.828125 1015.089844 223.75 C 1015.089844 223.75 1015.089844 219.671875 1014.300781 217.421875 C 1014.300781 217.421875 1013.5 215.160156 1011.699219 213.910156 L 1011.699219 212.769531 C 1011.699219 212.769531 1014.558594 214.050781 1016.019531 216.808594 C 1016.019531 216.808594 1017.46875 219.578125 1017.46875 223.75 C 1017.46875 223.75 1017.46875 227.921875 1016.019531 230.699219 C 1016.019531 230.699219 1014.558594 233.46875 1011.699219 234.730469 Z M 1011.699219 234.730469 "/>
<path style=" stroke:none;fill-rule:nonzero;fill:rgb(0%,0%,0%);fill-opacity:1;" d="M 326.359375 471.921875 L 325.890625 473.230469 C 325.890625 473.230469 325.53125 474.230469 324.421875 474.871094 C 324.421875 474.871094 323.691406 475.308594 322.410156 475.300781 C 322.410156 475.300781 320.089844 475.269531 318.660156 473.46875 C 318.660156 473.46875 317.199219 471.640625 317.199219 468.71875 C 317.199219 468.71875 317.199219 465.839844 318.660156 463.96875 C 318.660156 463.96875 320.019531 462.199219 322.921875 462.21875 C 322.921875 462.21875 324.910156 462.21875 325.921875 463 C 325.921875 463 326.808594 463.691406 327.140625 465.199219 L 327.230469 465.640625 L 327.699219 464.328125 C 327.699219 464.328125 328.128906 463.109375 329.328125 462.5 L 330.519531 462.5 L 330.519531 463.191406 C 330.519531 463.191406 329.390625 463.53125 328.980469 464.640625 L 327.769531 467.96875 L 328.589844 471.550781 C 328.589844 471.550781 329.019531 473.390625 329.449219 473.589844 C 329.449219 473.589844 330.089844 473.890625 331.558594 473 L 331.558594 474.421875 C 331.558594 474.421875 329.191406 475.800781 327.519531 474.359375 C 327.519531 474.359375 326.75 473.699219 326.53125 472.769531 Z M 325.859375 469.621094 L 325.128906 466.191406 C 325.128906 466.191406 324.53125 463.441406 322.941406 463.441406 C 322.941406 463.441406 321.589844 463.421875 320.578125 464.859375 C 320.578125 464.859375 319.71875 466.050781 319.71875 468.769531 C 319.71875 468.769531 319.71875 471.339844 320.578125 472.671875 C 320.578125 472.671875 321.480469 474.109375 323.058594 473.980469 C 323.058594 473.980469 324.421875 473.890625 325.390625 471.019531 Z M 325.859375 469.621094 "/>
<path style="fill:none;stroke-width:1;stroke-linecap:square;stroke-linejoin:miter;stroke:rgb(100%,100%,100%);stroke-opacity:1;stroke-miterlimit:10;" d="M 533 189 L 554 189 L 554 151 L 533 151 Z M 533 189 " transform="matrix(1,0,0,-1,0,565)"/>
<path style=" stroke:none;fill-rule:nonzero;fill:rgb(0%,0%,0%);fill-opacity:1;" d="M 538.769531 400.75 L 538.769531 385 L 536.691406 385 L 536.691406 383.769531 L 540.921875 383.769531 L 540.921875 391.480469 C 540.921875 391.480469 541.558594 390.308594 542.53125 389.769531 C 542.53125 389.769531 543.519531 389.199219 544.949219 389.199219 C 544.949219 389.199219 547.25 389.199219 548.699219 391.019531 C 548.699219 391.019531 550.160156 392.828125 550.160156 395.769531 C 550.160156 395.769531 550.160156 398.691406 548.699219 400.519531 C 548.699219 400.519531 547.25 402.339844 544.949219 402.339844 C 544.949219 402.339844 543.519531 402.339844 542.53125 401.78125 C 542.53125 401.78125 541.558594 401.21875 540.921875 400.050781 L 540.921875 402 L 536.691406 402 L 536.691406 400.75 Z M 540.921875 396.390625 C 540.921875 396.390625 540.921875 398.640625 541.78125 399.808594 C 541.78125 399.808594 542.640625 400.980469 544.28125 400.980469 C 544.28125 400.980469 545.941406 400.980469 546.78125 399.671875 C 546.78125 399.671875 547.640625 398.339844 547.640625 395.769531 C 547.640625 395.769531 547.640625 393.171875 546.78125 391.859375 C 546.78125 391.859375 545.941406 390.550781 544.28125 390.550781 C 544.28125 390.550781 542.640625 390.550781 541.78125 391.730469 C 541.78125 391.730469 540.921875 392.921875 540.921875 395.160156 Z M 540.921875 396.390625 "/>
<path style=" stroke:none;fill-rule:nonzero;fill:rgb(0%,0%,0%);fill-opacity:1;" d="M 376.699219 506.25 C 376.699219 506.25 376.628906 502.480469 375.828125 500.578125 C 375.828125 500.578125 374.941406 498.449219 373.199219 498.449219 C 373.199219 498.449219 371.480469 498.449219 370.589844 500.578125 C 370.589844 500.578125 369.808594 502.480469 369.730469 506.25 Z M 376.699219 507.5 L 369.730469 507.5 C 369.730469 507.5 369.808594 511.230469 370.609375 513.160156 C 370.609375 513.160156 371.5 515.28125 373.199219 515.28125 C 373.199219 515.28125 374.941406 515.28125 375.828125 513.160156 C 375.828125 513.160156 376.628906 511.230469 376.699219 507.5 Z M 373.199219 497.5 C 373.199219 497.5 375.941406 497.5 377.578125 500.058594 C 377.578125 500.058594 379.230469 502.621094 379.230469 506.871094 C 379.230469 506.871094 379.230469 511.121094 377.578125 513.699219 C 377.578125 513.699219 375.921875 516.269531 373.199219 516.269531 C 373.199219 516.269531 370.5 516.269531 368.839844 513.699219 C 368.839844 513.699219 367.199219 511.121094 367.199219 506.871094 C 367.199219 506.871094 367.199219 502.621094 368.839844 500.058594 C 368.839844 500.058594 370.480469 497.5 373.199219 497.5 Z M 373.199219 497.5 "/>
<path style=" stroke:none;fill-rule:nonzero;fill:rgb(0%,0%,0%);fill-opacity:1;" d="M 231.550781 286.078125 L 231.550781 283.449219 L 228.78125 283.449219 C 228.78125 283.449219 227.171875 283.449219 226.378906 284.140625 C 226.378906 284.140625 225.589844 284.828125 225.589844 286.269531 C 225.589844 286.269531 225.589844 287.558594 226.390625 288.328125 C 226.390625 288.328125 227.191406 289.078125 228.550781 289.078125 C 228.550781 289.078125 229.910156 289.078125 230.71875 288.25 C 230.71875 288.25 231.550781 287.421875 231.550781 286.078125 Z M 233.699219 282.21875 L 233.699219 288.75 L 235.628906 288.75 L 235.628906 290 L 231.550781 290 L 231.550781 288.660156 C 231.550781 288.660156 230.839844 289.519531 229.910156 289.941406 C 229.910156 289.941406 228.96875 290.339844 227.699219 290.339844 C 227.699219 290.339844 225.640625 290.339844 224.421875 289.25 C 224.421875 289.25 223.199219 288.140625 223.199219 286.269531 C 223.199219 286.269531 223.199219 284.328125 224.589844 283.269531 C 224.589844 283.269531 225.980469 282.191406 228.53125 282.191406 L 231.550781 282.191406 L 231.550781 281.339844 C 231.550781 281.339844 231.550781 279.921875 230.691406 279.140625 C 230.691406 279.140625 229.828125 278.359375 228.269531 278.359375 C 228.269531 278.359375 226.980469 278.359375 226.21875 278.949219 C 226.21875 278.949219 225.449219 279.53125 225.269531 280.691406 L 224.160156 280.691406 L 224.160156 278.160156 C 224.160156 278.160156 225.28125 277.691406 226.339844 277.449219 C 226.339844 277.449219 227.410156 277.199219 228.410156 277.199219 C 228.410156 277.199219 231 277.199219 232.339844 278.480469 C 232.339844 278.480469 233.699219 279.769531 233.699219 282.21875 Z M 233.699219 282.21875 "/>
</g>
</svg>
