<?xml version="1.0" encoding="UTF-8"?>
<svg xmlns="http://www.w3.org/2000/svg" xmlns:xlink="http://www.w3.org/1999/xlink" width="1366pt" height="565pt" viewBox="0 0 1366 565" version="1.1">
<g id="surface1">
<path style="fill:none;stroke-width:3;stroke-linecap:round;stroke-linejoin:round;stroke:rgb(0%,0%,100%);stroke-opacity:1;stroke-miterlimit:10;" d="M 695.5 94.5 L 68.5 94.5 " transform="matrix(1,0,0,-1,0,565)"/>
<path style="fill:none;stroke-width:3;stroke-linecap:round;stroke-linejoin:round;stroke:rgb(0%,0%,100%);stroke-opacity:1;stroke-miterlimit:10;" d="M 68.5 94.5 L 175.5 483.5 " transform="matrix(1,0,0,-1,0,565)"/>
<path style="fill:none;stroke-width:3;stroke-linecap:round;stroke-linejoin:round;stroke:rgb(0%,0%,100%);stroke-opacity:1;stroke-miterlimit:10;" d="M 695.5 94.5 L 424.429688 483.5 " transform="matrix(1,0,0,-1,0,565)"/>
<path style="fill:none;stroke-width:3;stroke-linecap:round;stroke-linejoin:round;stroke:rgb(0%,0%,100%);stroke-opacity:1;stroke-miterlimit:10;" d="M 424.429688 483.5 L 175.5 483.5 " transform="matrix(1,0,0,-1,0,565)"/>
<path style="fill:none;stroke-width:3;stroke-linecap:round;stroke-linejoin:round;stroke:rgb(0%,0%,100%);stroke-opacity:1;stroke-miterlimit:10;" d="M 695.5 94.5 L 175.5 483.5 " transform="matrix(1,0,0,-1,0,565)"/>
<path style="fill:none;stroke-width:3;stroke-linecap:round;stroke-linejoin:round;stroke:rgb(0%,0%,100%);stroke-opacity:1;stroke-miterlimit:10;" d="M 424.429688 483.5 L 68.5 94.5 " transform="matrix(1,0,0,-1,0,565)"/>
<path style="fill:none;stroke-width:3;stroke-linecap:round;stroke-linejoin:round;stroke:rgb(0%,0%,100%);stroke-opacity:1;stroke-miterlimit:10;" d="M 656.5 372.949219 L 22.5 372.949219 " transform="matrix(1,0,0,-1,0,565)"/>
<path style="fill-rule:nonzero;fill:rgb(100%,0%,0%);fill-opacity:1;stroke-width:1;stroke-linecap:square;stroke-linejoin:miter;stroke:rgb(0%,0%,0%);stroke-opacity:1;stroke-miterlimit:10;" d="M 180.5 483.5 C 180.5 480.738281 178.261719 478.5 175.5 478.5 C 172.738281 478.5 170.5 480.738281 170.5 483.5 C 170.5 486.261719 172.738281 488.5 175.5 488.5 C 178.261719 488.5 180.5 486.261719 180.5 483.5 Z M 180.5 483.5 " transform="matrix(1,0,0,-1,0,565)"/>
<path style="fill-rule:nonzero;fill:rgb(100%,0%,0%);fill-opacity:1;stroke-width:1;stroke-linecap:square;stroke-linejoin:miter;stroke:rgb(0%,0%,0%);stroke-opacity:1;stroke-miterlimit:10;" d="M 73.5 94.5 C 73.5 91.738281 71.261719 89.5 68.5 89.5 C 65.738281 89.5 63.5 91.738281 63.5 94.5 C 63.5 97.261719 65.738281 99.5 68.5 99.5 C 71.261719 99.5 73.5 97.261719 73.5 94.5 Z M 73.5 94.5 " transform="matrix(1,0,0,-1,0,565)"/>
<path style="fill-rule:nonzero;fill:rgb(100%,0%,0%);fill-opacity:1;stroke-width:1;stroke-linecap:square;stroke-linejoin:miter;stroke:rgb(0%,0%,0%);stroke-opacity:1;stroke-miterlimit:10;" d="M 700.5 94.5 C 700.5 91.738281 698.261719 89.5 695.5 89.5 C 692.738281 89.5 690.5 91.738281 690.5 94.5 C 690.5 97.261719 692.738281 99.5 695.5 99.5 C 698.261719 99.5 700.5 97.261719 700.5 94.5 Z M 700.5 94.5 " transform="matrix(1,0,0,-1,0,565)"/>
<path style="fill-rule:nonzero;fill:rgb(100%,0%,0%);fill-opacity:1;stroke-width:1;stroke-linecap:square;stroke-linejoin:miter;stroke:rgb(0%,0%,0%);stroke-opacity:1;stroke-miterlimit:10;" d="M 429.429688 483.5 C 429.429688 480.738281 427.199219 478.5 424.429688 478.5 C 421.671875 478.5 419.429688 480.738281 419.429688 483.5 C 419.429688 486.261719 421.671875 488.5 424.429688 488.5 C 427.199219 488.5 429.429688 486.261719 429.429688 483.5 Z M 429.429688 483.5 " transform="matrix(1,0,0,-1,0,565)"/>
<path style="fill-rule:nonzero;fill:rgb(69.802856%,0%,0%);fill-opacity:1;stroke-width:1;stroke-linecap:square;stroke-linejoin:miter;stroke:rgb(0%,0%,0%);stroke-opacity:1;stroke-miterlimit:10;" d="M 328.28125 372.949219 C 328.28125 370.191406 326.039062 367.949219 323.28125 367.949219 C 320.519531 367.949219 318.28125 370.191406 318.28125 372.949219 C 318.28125 375.710938 320.519531 377.949219 323.28125 377.949219 C 326.039062 377.949219 328.28125 375.710938 328.28125 372.949219 Z M 328.28125 372.949219 " transform="matrix(1,0,0,-1,0,565)"/>
<path style="fill-rule:nonzero;fill:rgb(69.802856%,0%,0%);fill-opacity:1;stroke-width:1;stroke-linecap:square;stroke-linejoin:miter;stroke:rgb(0%,0%,0%);stroke-opacity:1;stroke-miterlimit:10;" d="M 150.089844 372.949219 C 150.089844 370.191406 147.851562 367.949219 145.089844 367.949219 C 142.328125 367.949219 140.089844 370.191406 140.089844 372.949219 C 140.089844 375.710938 142.328125 377.949219 145.089844 377.949219 C 147.851562 377.949219 150.089844 375.710938 150.089844 372.949219 Z M 150.089844 372.949219 " transform="matrix(1,0,0,-1,0,565)"/>
<path style="fill-rule:nonzero;fill:rgb(69.802856%,0%,0%);fill-opacity:1;stroke-width:1;stroke-linecap:square;stroke-linejoin:miter;stroke:rgb(0%,0%,0%);stroke-opacity:1;stroke-miterlimit:10;" d="M 506.46875 372.949219 C 506.46875 370.191406 504.230469 367.949219 501.46875 367.949219 C 498.710938 367.949219 496.46875 370.191406 496.46875 372.949219 C 496.46875 375.710938 498.710938 377.949219 501.46875 377.949219 C 504.230469 377.949219 506.46875 375.710938 506.46875 372.949219 Z M 506.46875 372.949219 " transform="matrix(1,0,0,-1,0,565)"/>
<path style=" stroke:none;fill-rule:nonzero;fill:rgb(0%,0%,0%);fill-opacity:1;" d="M 162.25 47.050781 L 158.230469 57.921875 L 166.28125 57.921875 Z M 160.578125 44.121094 L 163.941406 44.121094 L 172.28125 66 L 169.199219 66 L 167.199219 60.390625 L 157.339844 60.390625 L 155.359375 66 L 152.230469 66 Z M 160.578125 44.121094 "/>
<path style=" stroke:none;fill-rule:nonzero;fill:rgb(0%,0%,0%);fill-opacity:1;" d="M 43.910156 486.558594 L 43.910156 494.558594 L 48.660156 494.558594 C 48.660156 494.558594 51.03125 494.558594 52.191406 493.578125 C 52.191406 493.578125 53.339844 492.589844 53.339844 490.550781 C 53.339844 490.550781 53.339844 488.5 52.191406 487.53125 C 52.191406 487.53125 51.03125 486.558594 48.660156 486.558594 Z M 43.910156 477.558594 L 43.910156 484.160156 L 48.28125 484.160156 C 48.28125 484.160156 50.449219 484.160156 51.519531 483.339844 C 51.519531 483.339844 52.578125 482.53125 52.578125 480.859375 C 52.578125 480.859375 52.578125 479.199219 51.519531 478.390625 C 51.519531 478.390625 50.449219 477.558594 48.28125 477.558594 Z M 40.941406 475.121094 L 48.5 475.121094 C 48.5 475.121094 51.890625 475.121094 53.71875 476.53125 C 53.71875 476.53125 55.550781 477.941406 55.550781 480.53125 C 55.550781 480.53125 55.550781 482.550781 54.609375 483.730469 C 54.609375 483.730469 53.671875 484.921875 51.859375 485.199219 C 51.859375 485.199219 54.050781 485.671875 55.25 487.171875 C 55.25 487.171875 56.449219 488.660156 56.449219 490.871094 C 56.449219 490.871094 56.449219 493.808594 54.449219 495.410156 C 54.449219 495.410156 52.46875 497 48.800781 497 L 40.941406 497 Z M 40.941406 475.121094 "/>
<path style=" stroke:none;fill-rule:nonzero;fill:rgb(0%,0%,0%);fill-opacity:1;" d="M 726.328125 474.808594 L 726.328125 477.941406 C 726.328125 477.941406 724.828125 476.550781 723.128906 475.859375 C 723.128906 475.859375 721.441406 475.171875 719.550781 475.171875 C 719.550781 475.171875 715.800781 475.171875 713.800781 477.46875 C 713.800781 477.46875 711.808594 479.75 711.808594 484.089844 C 711.808594 484.089844 711.808594 488.410156 713.800781 490.699219 C 713.800781 490.699219 715.800781 493 719.550781 493 C 719.550781 493 721.441406 493 723.128906 492.308594 C 723.128906 492.308594 724.828125 491.609375 726.328125 490.21875 L 726.328125 493.308594 C 726.328125 493.308594 724.769531 494.371094 723.03125 494.910156 C 723.03125 494.910156 721.300781 495.421875 719.359375 495.421875 C 719.359375 495.421875 714.390625 495.421875 711.53125 492.390625 C 711.53125 492.390625 708.691406 489.339844 708.691406 484.089844 C 708.691406 484.089844 708.691406 478.808594 711.53125 475.78125 C 711.53125 475.78125 714.390625 472.730469 719.359375 472.730469 C 719.359375 472.730469 721.328125 472.730469 723.058594 473.269531 C 723.058594 473.269531 724.800781 473.78125 726.328125 474.808594 Z M 726.328125 474.808594 "/>
<path style=" stroke:none;fill-rule:nonzero;fill:rgb(0%,0%,0%);fill-opacity:1;" d="M 440.910156 52.558594 L 440.910156 69.558594 L 444.480469 69.558594 C 444.480469 69.558594 449 69.558594 451.089844 67.519531 C 451.089844 67.519531 453.199219 65.46875 453.199219 61.050781 C 453.199219 61.050781 453.199219 56.640625 451.089844 54.609375 C 451.089844 54.609375 449 52.558594 444.480469 52.558594 Z M 437.941406 50.121094 L 444.03125 50.121094 C 444.03125 50.121094 450.378906 50.121094 453.339844 52.78125 C 453.339844 52.78125 456.328125 55.421875 456.328125 61.050781 C 456.328125 61.050781 456.328125 66.699219 453.339844 69.359375 C 453.339844 69.359375 450.359375 72 444.03125 72 L 437.941406 72 Z M 437.941406 50.121094 "/>
<path style=" stroke:none;fill-rule:nonzero;fill:rgb(0%,0%,0%);fill-opacity:1;" d="M 316.941406 216.121094 L 330.769531 216.121094 L 330.769531 218.621094 L 319.910156 218.621094 L 319.910156 225.089844 L 330.308594 225.089844 L 330.308594 227.578125 L 319.910156 227.578125 L 319.910156 235.519531 L 331.03125 235.519531 L 331.03125 238 L 316.941406 238 Z M 316.941406 216.121094 "/>
<path style=" stroke:none;fill-rule:nonzero;fill:rgb(0%,0%,0%);fill-opacity:1;" d="M 118.941406 162.121094 L 131.519531 162.121094 L 131.519531 164.621094 L 121.910156 164.621094 L 121.910156 171.058594 L 130.578125 171.058594 L 130.578125 173.558594 L 121.910156 173.558594 L 121.910156 184 L 118.941406 184 Z M 118.941406 162.121094 "/>
<path style=" stroke:none;fill-rule:nonzero;fill:rgb(0%,0%,0%);fill-opacity:1;" d="M 523.859375 179.871094 L 523.859375 174 L 519.019531 174 L 519.019531 171.578125 L 526.78125 171.578125 L 526.78125 180.96875 C 526.78125 180.96875 525.078125 182.171875 523 182.800781 C 523 182.800781 520.941406 183.421875 518.589844 183.421875 C 518.589844 183.421875 513.46875 183.421875 510.578125 180.441406 C 510.578125 180.441406 507.691406 177.441406 507.691406 172.089844 C 507.691406 172.089844 507.691406 166.71875 510.578125 163.730469 C 510.578125 163.730469 513.46875 160.730469 518.589844 160.730469 C 518.589844 160.730469 520.730469 160.730469 522.660156 161.269531 C 522.660156 161.269531 524.589844 161.78125 526.21875 162.808594 L 526.21875 165.96875 C 526.21875 165.96875 524.578125 164.578125 522.730469 163.871094 C 522.730469 163.871094 520.890625 163.171875 518.839844 163.171875 C 518.839844 163.171875 514.828125 163.171875 512.808594 165.410156 C 512.808594 165.410156 510.808594 167.640625 510.808594 172.089844 C 510.808594 172.089844 510.808594 176.519531 512.808594 178.769531 C 512.808594 178.769531 514.828125 181 518.839844 181 C 518.839844 181 520.421875 181 521.640625 180.730469 C 521.640625 180.730469 522.878906 180.449219 523.859375 179.871094 Z M 523.859375 179.871094 "/>
<path style=" stroke:none;fill-rule:nonzero;fill:rgb(0%,0%,0%);fill-opacity:1;" d="M 296.480469 49.839844 C 297.441406 49.839844 298.21875 49.089844 298.21875 48.230469 C 298.21875 47.75 297.890625 47.160156 297.558594 46.941406 C 297.558594 46.769531 299.089844 46.671875 299.449219 46.671875 C 300.949219 46.671875 301.808594 47.519531 302.199219 48.800781 C 302.359375 49.191406 302.390625 49.550781 302.390625 50.300781 L 302.390625 50.949219 L 302.128906 50.949219 C 299.949219 51.078125 298.339844 51.410156 296.910156 52.058594 C 296.160156 52.410156 295.578125 52.699219 295.058594 53.199219 C 294.441406 53.839844 293.878906 54.691406 293.878906 55.800781 C 293.878906 56.191406 293.949219 56.558594 294.109375 56.941406 C 294.691406 58.410156 296.660156 59.328125 298.699219 59.328125 C 299.980469 59.328125 301.25 58.910156 302.199219 58.089844 C 302.449219 57.890625 302.75 57.46875 302.71875 57.5 L 302.71875 57.371094 C 302.980469 58.339844 303.949219 59.191406 305 59.191406 C 306.339844 59.191406 307.480469 58.308594 307.808594 57.230469 C 307.878906 57.019531 307.878906 56.949219 307.910156 55.808594 L 307.910156 54.660156 L 306.441406 54.660156 L 306.441406 55.730469 C 306.441406 56.910156 306.441406 57.078125 306.300781 57.371094 L 306.269531 57.371094 C 306.140625 57.660156 306.078125 57.800781 305.839844 57.800781 C 305.589844 57.800781 305.480469 57.660156 305.359375 57.371094 L 305.328125 57.371094 C 305.160156 57.019531 305.191406 57.109375 305.191406 53.191406 C 305.191406 49.28125 305.191406 49.339844 305 48.800781 C 304.410156 46.871094 302.199219 45.558594 299.550781 45.558594 C 297.308594 45.558594 295.480469 46.191406 294.980469 47.269531 C 294.828125 47.589844 294.730469 47.941406 294.730469 48.230469 C 294.730469 49.089844 295.519531 49.839844 296.480469 49.839844 Z M 302.390625 53.75 C 302.359375 55.441406 302.359375 55.519531 302.300781 55.730469 C 301.96875 57.050781 300.921875 58.21875 299.269531 58.21875 C 297.859375 58.21875 296.910156 57.171875 296.910156 55.808594 C 296.910156 55.339844 296.980469 54.859375 297.199219 54.46875 C 297.949219 53.058594 299.660156 52.21875 302.449219 52.050781 C 302.519531 52.019531 302.589844 52.019531 302.589844 52.019531 L 302.519531 52.019531 C 302.550781 52.019531 302.390625 52.800781 302.390625 53.75 Z M 302.390625 53.75 "/>
<path style=" stroke:none;fill-rule:nonzero;fill:rgb(0%,0%,0%);fill-opacity:1;" d="M 354.941406 487.359375 C 353.699219 487.421875 352.691406 487.519531 352.660156 487.519531 C 352.589844 487.519531 352.449219 487.558594 352.449219 488.199219 L 352.449219 488.890625 L 353.140625 488.890625 C 354.449219 488.949219 354.640625 489.121094 354.769531 489.910156 C 354.800781 490.03125 354.800781 494.140625 354.800781 499.058594 L 354.800781 508 L 355.550781 508 L 356.230469 507.96875 L 356.378906 507.699219 C 356.46875 507.550781 356.691406 507.160156 356.828125 506.890625 L 357.050781 506.5 L 357.128906 506.558594 C 358 507.480469 359.53125 508.328125 361.199219 508.328125 C 364.75 508.328125 367.230469 505.621094 367.71875 502.558594 C 367.75 502.328125 367.78125 501.941406 367.78125 501.519531 C 367.78125 497.921875 365.441406 495.371094 362.691406 494.828125 C 362.378906 494.769531 362.050781 494.730469 361.691406 494.730469 C 360.050781 494.730469 358.390625 495.339844 357.449219 496.121094 C 357.378906 496.199219 357.480469 496.269531 357.480469 496.269531 L 357.410156 496.269531 C 357.378906 496.269531 357.480469 494.230469 357.480469 491.699219 L 357.480469 487.191406 L 357.28125 487.191406 C 357.21875 487.191406 356.171875 487.269531 354.941406 487.359375 Z M 361.941406 495.941406 C 363.058594 496.230469 363.808594 497.109375 364.199219 498.308594 C 364.449219 499.058594 364.558594 500.230469 364.558594 501.640625 C 364.558594 503.050781 364.480469 503.828125 364.199219 504.609375 C 364.058594 505.03125 364 505.269531 363.769531 505.589844 C 363.058594 506.621094 362.050781 507.21875 360.839844 507.21875 C 360.550781 507.21875 360.21875 507.191406 359.921875 507.089844 C 359.019531 506.859375 358.269531 506.199219 357.699219 505.269531 L 357.578125 505.121094 L 357.578125 497.800781 L 357.730469 497.589844 C 358.449219 496.589844 359.589844 495.839844 361 495.839844 C 361.328125 495.839844 361.691406 495.910156 361.941406 495.941406 Z M 361.941406 495.941406 "/>
</g>
</svg>
