<svg version="1.1" xmlns="http://www.w3.org/2000/svg" xmlns:xlink="http://www.w3.org/1999/xlink" width="1310" height="605"><defs><clipPath id="XrwhXZfgiWNC"><path fill="none" stroke="none" d=" M 0 0 L 1310 0 L 1310 605 L 0 605 L 0 0 Z"/></clipPath></defs><g transform="scale(1,1)" clip-path="url(#XrwhXZfgiWNC)"><g><rect fill="rgb(255,255,255)" stroke="none" x="0" y="0" width="1310" height="605" fill-opacity="1"/><path fill="none" stroke="rgb(0,0,0)" paint-order="fill stroke markers" d=" M 668.9999999999999 202.50000000000006 C 668.9999999999999 257.72847498307937 624.2284749830792 302.50000000000006 568.9999999999999 302.50000000000006 C 513.7715250169206 302.50000000000006 468.99999999999994 257.72847498307937 468.99999999999994 202.50000000000006 C 468.99999999999994 147.27152501692072 513.7715250169206 102.50000000000004 568.9999999999999 102.50000000000004 C 624.2284749830792 102.50000000000004 668.9999999999999 147.27152501692072 668.9999999999999 202.50000000000006 Z" stroke-opacity="0.6980392156862745" stroke-linecap="round" stroke-linejoin="round" stroke-miterlimit="10" stroke-width="2.5"/><path fill="none" stroke="rgb(0,0,0)" paint-order="fill stroke markers" d=" M 868.9999999999998 202.50000000000006 C 868.9999999999998 257.72847498307937 824.2284749830792 302.50000000000006 768.9999999999999 302.50000000000006 C 713.7715250169206 302.50000000000006 668.9999999999999 257.72847498307937 668.9999999999999 202.50000000000006 C 668.9999999999999 147.27152501692072 713.7715250169206 102.50000000000004 768.9999999999999 102.50000000000004 C 824.2284749830792 102.50000000000004 868.9999999999998 147.27152501692072 868.9999999999998 202.50000000000006 Z" stroke-opacity="0.6980392156862745" stroke-linecap="round" stroke-linejoin="round" stroke-miterlimit="10" stroke-width="2.5"/><path fill="none" stroke="rgb(0,0,0)" paint-order="fill stroke markers" d=" M 868.9999999999998 402.50000000000006 C 868.9999999999998 457.7284749830794 824.2284749830792 502.5000000000001 768.9999999999999 502.5000000000001 C 713.7715250169206 502.5000000000001 668.9999999999999 457.7284749830794 668.9999999999999 402.50000000000006 C 668.9999999999999 347.27152501692075 713.7715250169206 302.50000000000006 768.9999999999999 302.50000000000006 C 824.2284749830792 302.50000000000006 868.9999999999998 347.27152501692075 868.9999999999998 402.50000000000006 Z" stroke-opacity="0.6980392156862745" stroke-linecap="round" stroke-linejoin="round" stroke-miterlimit="10" stroke-width="2.5"/><path fill="none" stroke="rgb(0,0,0)" paint-order="fill stroke markers" d=" M 668.9999999999999 402.50000000000006 C 668.9999999999999 457.7284749830794 624.2284749830792 502.5000000000001 568.9999999999999 502.5000000000001 C 513.7715250169206 502.5000000000001 468.99999999999994 457.7284749830794 468.99999999999994 402.50000000000006 C 468.99999999999994 347.27152501692075 513.7715250169206 302.50000000000006 568.9999999999999 302.50000000000006 C 624.2284749830792 302.50000000000006 668.9999999999999 347.27152501692075 668.9999999999999 402.50000000000006 Z" stroke-opacity="0.6980392156862745" stroke-linecap="round" stroke-linejoin="round" stroke-miterlimit="10" stroke-width="2.5"/><path fill="none" stroke="rgb(0,0,0)" paint-order="fill stroke markers" d=" M 469 102.50000000000003 L 868.9999999999998 102.50000000000003" stroke-opacity="0.6980392156862745" stroke-linecap="round" stroke-linejoin="round" stroke-miterlimit="10" stroke-width="2.5"/><path fill="none" stroke="rgb(0,0,0)" paint-order="fill stroke markers" d=" M 868.9999999999998 102.50000000000003 L 868.9999999999998 502.5000000000001" stroke-opacity="0.6980392156862745" stroke-linecap="round" stroke-linejoin="round" stroke-miterlimit="10" stroke-width="2.5"/><path fill="none" stroke="rgb(0,0,0)" paint-order="fill stroke markers" d=" M 868.9999999999998 502.5000000000001 L 469 502.5000000000001" stroke-opacity="0.6980392156862745" stroke-linecap="round" stroke-linejoin="round" stroke-miterlimit="10" stroke-width="2.5"/><path fill="none" stroke="rgb(0,0,0)" paint-order="fill stroke markers" d=" M 469 502.5000000000001 L 469 102.50000000000003" stroke-opacity="0.6980392156862745" stroke-linecap="round" stroke-linejoin="round" stroke-miterlimit="10" stroke-width="2.5"/><path fill="rgb(211,47,47)" stroke="none" paint-order="stroke fill markers" d=" M 573.9999999999999 202.50000000000006 C 573.9999999999999 205.26142374915403 571.7614237491539 207.50000000000006 568.9999999999999 207.50000000000006 C 566.2385762508459 207.50000000000006 563.9999999999999 205.26142374915403 563.9999999999999 202.50000000000006 C 563.9999999999999 199.73857625084608 566.2385762508459 197.50000000000006 568.9999999999999 197.50000000000006 C 571.7614237491539 197.50000000000006 573.9999999999999 199.73857625084608 573.9999999999999 202.50000000000006 Z" fill-opacity="1"/><path fill="none" stroke="rgb(0,0,0)" paint-order="fill stroke markers" d=" M 573.9999999999999 202.50000000000006 C 573.9999999999999 205.26142374915403 571.7614237491539 207.50000000000006 568.9999999999999 207.50000000000006 C 566.2385762508459 207.50000000000006 563.9999999999999 205.26142374915403 563.9999999999999 202.50000000000006 C 563.9999999999999 199.73857625084608 566.2385762508459 197.50000000000006 568.9999999999999 197.50000000000006 C 571.7614237491539 197.50000000000006 573.9999999999999 199.73857625084608 573.9999999999999 202.50000000000006 Z" stroke-opacity="1" stroke-linecap="round" stroke-linejoin="round" stroke-miterlimit="10"/><path fill="rgb(211,47,47)" stroke="none" paint-order="stroke fill markers" d=" M 773.9999999999999 202.50000000000006 C 773.9999999999999 205.26142374915403 771.7614237491539 207.50000000000006 768.9999999999999 207.50000000000006 C 766.2385762508459 207.50000000000006 763.9999999999999 205.26142374915403 763.9999999999999 202.50000000000006 C 763.9999999999999 199.73857625084608 766.2385762508459 197.50000000000006 768.9999999999999 197.50000000000006 C 771.7614237491539 197.50000000000006 773.9999999999999 199.73857625084608 773.9999999999999 202.50000000000006 Z" fill-opacity="1"/><path fill="none" stroke="rgb(0,0,0)" paint-order="fill stroke markers" d=" M 773.9999999999999 202.50000000000006 C 773.9999999999999 205.26142374915403 771.7614237491539 207.50000000000006 768.9999999999999 207.50000000000006 C 766.2385762508459 207.50000000000006 763.9999999999999 205.26142374915403 763.9999999999999 202.50000000000006 C 763.9999999999999 199.73857625084608 766.2385762508459 197.50000000000006 768.9999999999999 197.50000000000006 C 771.7614237491539 197.50000000000006 773.9999999999999 199.73857625084608 773.9999999999999 202.50000000000006 Z" stroke-opacity="1" stroke-linecap="round" stroke-linejoin="round" stroke-miterlimit="10"/><path fill="rgb(211,47,47)" stroke="none" paint-order="stroke fill markers" d=" M 773.9999999999999 402.50000000000006 C 773.9999999999999 405.261423749154 771.7614237491539 407.50000000000006 768.9999999999999 407.50000000000006 C 766.2385762508459 407.50000000000006 763.9999999999999 405.261423749154 763.9999999999999 402.50000000000006 C 763.9999999999999 399.7385762508461 766.2385762508459 397.50000000000006 768.9999999999999 397.50000000000006 C 771.7614237491539 397.50000000000006 773.9999999999999 399.7385762508461 773.9999999999999 402.50000000000006 Z" fill-opacity="1"/><path fill="none" stroke="rgb(0,0,0)" paint-order="fill stroke markers" d=" M 773.9999999999999 402.50000000000006 C 773.9999999999999 405.261423749154 771.7614237491539 407.50000000000006 768.9999999999999 407.50000000000006 C 766.2385762508459 407.50000000000006 763.9999999999999 405.261423749154 763.9999999999999 402.50000000000006 C 763.9999999999999 399.7385762508461 766.2385762508459 397.50000000000006 768.9999999999999 397.50000000000006 C 771.7614237491539 397.50000000000006 773.9999999999999 399.7385762508461 773.9999999999999 402.50000000000006 Z" stroke-opacity="1" stroke-linecap="round" stroke-linejoin="round" stroke-miterlimit="10"/><path fill="rgb(211,47,47)" stroke="none" paint-order="stroke fill markers" d=" M 573.9999999999999 402.50000000000006 C 573.9999999999999 405.261423749154 571.7614237491539 407.50000000000006 568.9999999999999 407.50000000000006 C 566.2385762508459 407.50000000000006 563.9999999999999 405.261423749154 563.9999999999999 402.50000000000006 C 563.9999999999999 399.7385762508461 566.2385762508459 397.50000000000006 568.9999999999999 397.50000000000006 C 571.7614237491539 397.50000000000006 573.9999999999999 399.7385762508461 573.9999999999999 402.50000000000006 Z" fill-opacity="1"/><path fill="none" stroke="rgb(0,0,0)" paint-order="fill stroke markers" d=" M 573.9999999999999 402.50000000000006 C 573.9999999999999 405.261423749154 571.7614237491539 407.50000000000006 568.9999999999999 407.50000000000006 C 566.2385762508459 407.50000000000006 563.9999999999999 405.261423749154 563.9999999999999 402.50000000000006 C 563.9999999999999 399.7385762508461 566.2385762508459 397.50000000000006 568.9999999999999 397.50000000000006 C 571.7614237491539 397.50000000000006 573.9999999999999 399.7385762508461 573.9999999999999 402.50000000000006 Z" stroke-opacity="1" stroke-linecap="round" stroke-linejoin="round" stroke-miterlimit="10"/><path fill="rgb(21,101,192)" stroke="none" paint-order="stroke fill markers" d=" M 474 102.50000000000003 C 474 105.26142374915399 471.76142374915395 107.50000000000003 469 107.50000000000003 C 466.23857625084605 107.50000000000003 464 105.26142374915399 464 102.50000000000003 C 464 99.73857625084607 466.23857625084605 97.50000000000003 469 97.50000000000003 C 471.76142374915395 97.50000000000003 474 99.73857625084607 474 102.50000000000003 Z" fill-opacity="1"/><path fill="none" stroke="rgb(0,0,0)" paint-order="fill stroke markers" d=" M 474 102.50000000000003 C 474 105.26142374915399 471.76142374915395 107.50000000000003 469 107.50000000000003 C 466.23857625084605 107.50000000000003 464 105.26142374915399 464 102.50000000000003 C 464 99.73857625084607 466.23857625084605 97.50000000000003 469 97.50000000000003 C 471.76142374915395 97.50000000000003 474 99.73857625084607 474 102.50000000000003 Z" stroke-opacity="1" stroke-linecap="round" stroke-linejoin="round" stroke-miterlimit="10"/><path fill="rgb(21,101,192)" stroke="none" paint-order="stroke fill markers" d=" M 873.9999999999998 102.50000000000003 C 873.9999999999998 105.26142374915399 871.7614237491538 107.50000000000003 868.9999999999998 107.50000000000003 C 866.2385762508458 107.50000000000003 863.9999999999998 105.26142374915399 863.9999999999998 102.50000000000003 C 863.9999999999998 99.73857625084607 866.2385762508458 97.50000000000003 868.9999999999998 97.50000000000003 C 871.7614237491538 97.50000000000003 873.9999999999998 99.73857625084607 873.9999999999998 102.50000000000003 Z" fill-opacity="1"/><path fill="none" stroke="rgb(0,0,0)" paint-order="fill stroke markers" d=" M 873.9999999999998 102.50000000000003 C 873.9999999999998 105.26142374915399 871.7614237491538 107.50000000000003 868.9999999999998 107.50000000000003 C 866.2385762508458 107.50000000000003 863.9999999999998 105.26142374915399 863.9999999999998 102.50000000000003 C 863.9999999999998 99.73857625084607 866.2385762508458 97.50000000000003 868.9999999999998 97.50000000000003 C 871.7614237491538 97.50000000000003 873.9999999999998 99.73857625084607 873.9999999999998 102.50000000000003 Z" stroke-opacity="1" stroke-linecap="round" stroke-linejoin="round" stroke-miterlimit="10"/><path fill="rgb(21,101,192)" stroke="none" paint-order="stroke fill markers" d=" M 873.9999999999998 502.5000000000001 C 873.9999999999998 505.26142374915406 871.7614237491538 507.5000000000001 868.9999999999998 507.5000000000001 C 866.2385762508458 507.5000000000001 863.9999999999998 505.26142374915406 863.9999999999998 502.5000000000001 C 863.9999999999998 499.73857625084617 866.2385762508458 497.5000000000001 868.9999999999998 497.5000000000001 C 871.7614237491538 497.5000000000001 873.9999999999998 499.73857625084617 873.9999999999998 502.5000000000001 Z" fill-opacity="1"/><path fill="none" stroke="rgb(0,0,0)" paint-order="fill stroke markers" d=" M 873.9999999999998 502.5000000000001 C 873.9999999999998 505.26142374915406 871.7614237491538 507.5000000000001 868.9999999999998 507.5000000000001 C 866.2385762508458 507.5000000000001 863.9999999999998 505.26142374915406 863.9999999999998 502.5000000000001 C 863.9999999999998 499.73857625084617 866.2385762508458 497.5000000000001 868.9999999999998 497.5000000000001 C 871.7614237491538 497.5000000000001 873.9999999999998 499.73857625084617 873.9999999999998 502.5000000000001 Z" stroke-opacity="1" stroke-linecap="round" stroke-linejoin="round" stroke-miterlimit="10"/><path fill="rgb(21,101,192)" stroke="none" paint-order="stroke fill markers" d=" M 474 502.5000000000001 C 474 505.26142374915406 471.76142374915395 507.5000000000001 469 507.5000000000001 C 466.23857625084605 507.5000000000001 464 505.26142374915406 464 502.5000000000001 C 464 499.73857625084617 466.23857625084605 497.5000000000001 469 497.5000000000001 C 471.76142374915395 497.5000000000001 474 499.73857625084617 474 502.5000000000001 Z" fill-opacity="1"/><path fill="none" stroke="rgb(0,0,0)" paint-order="fill stroke markers" d=" M 474 502.5000000000001 C 474 505.26142374915406 471.76142374915395 507.5000000000001 469 507.5000000000001 C 466.23857625084605 507.5000000000001 464 505.26142374915406 464 502.5000000000001 C 464 499.73857625084617 466.23857625084605 497.5000000000001 469 497.5000000000001 C 471.76142374915395 497.5000000000001 474 499.73857625084617 474 502.5000000000001 Z" stroke-opacity="1" stroke-linecap="round" stroke-linejoin="round" stroke-miterlimit="10"/></g></g></svg>