<svg version="1.1" xmlns="http://www.w3.org/2000/svg" xmlns:xlink="http://www.w3.org/1999/xlink" width="1310" height="556"><defs><clipPath id="KgVVttcEzWak"><path fill="none" stroke="none" d=" M 0 0 L 1310 0 L 1310 556 L 0 556 L 0 0 Z"/></clipPath></defs><g transform="scale(1,1)" clip-path="url(#KgVVttcEzWak)"><g><rect fill="rgb(255,255,255)" stroke="none" x="0" y="0" width="1310" height="556" fill-opacity="1"/><path fill="none" stroke="rgb(0,0,0)" paint-order="fill stroke markers" d=" M 668.9999999999999 178.00000000000009 C 668.9999999999999 233.22847498307942 624.2284749830792 278.0000000000001 568.9999999999999 278.0000000000001 C 513.7715250169206 278.0000000000001 468.99999999999994 233.22847498307942 468.99999999999994 178.00000000000009 C 468.99999999999994 122.77152501692073 513.7715250169206 78.00000000000006 568.9999999999999 78.00000000000006 C 624.2284749830792 78.00000000000006 668.9999999999999 122.77152501692073 668.9999999999999 178.00000000000009 Z" stroke-opacity="0.6980392156862745" stroke-linecap="round" stroke-linejoin="round" stroke-miterlimit="10" stroke-width="2.5"/><path fill="none" stroke="rgb(0,0,0)" paint-order="fill stroke markers" d=" M 868.9999999999998 178.00000000000009 C 868.9999999999998 233.22847498307942 824.2284749830792 278.0000000000001 768.9999999999999 278.0000000000001 C 713.7715250169206 278.0000000000001 668.9999999999999 233.22847498307942 668.9999999999999 178.00000000000009 C 668.9999999999999 122.77152501692073 713.7715250169206 78.00000000000006 768.9999999999999 78.00000000000006 C 824.2284749830792 78.00000000000006 868.9999999999998 122.77152501692073 868.9999999999998 178.00000000000009 Z" stroke-opacity="0.6980392156862745" stroke-linecap="round" stroke-linejoin="round" stroke-miterlimit="10" stroke-width="2.5"/><path fill="none" stroke="rgb(0,0,0)" paint-order="fill stroke markers" d=" M 868.9999999999998 378.0000000000001 C 868.9999999999998 433.2284749830795 824.2284749830792 478.00000000000017 768.9999999999999 478.00000000000017 C 713.7715250169206 478.00000000000017 668.9999999999999 433.2284749830795 668.9999999999999 378.0000000000001 C 668.9999999999999 322.7715250169208 713.7715250169206 278.0000000000001 768.9999999999999 278.0000000000001 C 824.2284749830792 278.0000000000001 868.9999999999998 322.7715250169208 868.9999999999998 378.0000000000001 Z" stroke-opacity="0.6980392156862745" stroke-linecap="round" stroke-linejoin="round" stroke-miterlimit="10" stroke-width="2.5"/><path fill="none" stroke="rgb(0,0,0)" paint-order="fill stroke markers" d=" M 668.9999999999999 378.0000000000001 C 668.9999999999999 433.2284749830795 624.2284749830792 478.00000000000017 568.9999999999999 478.00000000000017 C 513.7715250169206 478.00000000000017 468.99999999999994 433.2284749830795 468.99999999999994 378.0000000000001 C 468.99999999999994 322.7715250169208 513.7715250169206 278.0000000000001 568.9999999999999 278.0000000000001 C 624.2284749830792 278.0000000000001 668.9999999999999 322.7715250169208 668.9999999999999 378.0000000000001 Z" stroke-opacity="0.6980392156862745" stroke-linecap="round" stroke-linejoin="round" stroke-miterlimit="10" stroke-width="2.5"/><path fill="none" stroke="rgb(0,0,0)" paint-order="fill stroke markers" d=" M -5 278.0000000000001 L 1315 278.0000000000001" stroke-opacity="0.6980392156862745" stroke-linejoin="round" stroke-miterlimit="10" stroke-width="2.5" stroke-dasharray="10.5,8"/><path fill="none" stroke="rgb(0,0,0)" paint-order="fill stroke markers" d=" M 668.9999999999999 561 L 668.9999999999999 -5" stroke-opacity="0.6980392156862745" stroke-linejoin="round" stroke-miterlimit="10" stroke-width="2.5" stroke-dasharray="10.5,8"/><path fill="none" stroke="rgb(0,0,0)" paint-order="fill stroke markers" d=" M 469 78.00000000000006 L 868.9999999999998 78.00000000000006" stroke-opacity="0.6980392156862745" stroke-linecap="round" stroke-linejoin="round" stroke-miterlimit="10" stroke-width="2.5"/><path fill="none" stroke="rgb(0,0,0)" paint-order="fill stroke markers" d=" M 868.9999999999998 78.00000000000006 L 868.9999999999998 478.00000000000017" stroke-opacity="0.6980392156862745" stroke-linecap="round" stroke-linejoin="round" stroke-miterlimit="10" stroke-width="2.5"/><path fill="none" stroke="rgb(0,0,0)" paint-order="fill stroke markers" d=" M 868.9999999999998 478.00000000000017 L 469 478.00000000000017" stroke-opacity="0.6980392156862745" stroke-linecap="round" stroke-linejoin="round" stroke-miterlimit="10" stroke-width="2.5"/><path fill="none" stroke="rgb(0,0,0)" paint-order="fill stroke markers" d=" M 469 478.00000000000017 L 469 78.00000000000006" stroke-opacity="0.6980392156862745" stroke-linecap="round" stroke-linejoin="round" stroke-miterlimit="10" stroke-width="2.5"/><path fill="rgb(211,47,47)" stroke="none" paint-order="stroke fill markers" d=" M 573.9999999999999 178.00000000000009 C 573.9999999999999 180.76142374915406 571.7614237491539 183.00000000000009 568.9999999999999 183.00000000000009 C 566.2385762508459 183.00000000000009 563.9999999999999 180.76142374915406 563.9999999999999 178.00000000000009 C 563.9999999999999 175.2385762508461 566.2385762508459 173.00000000000009 568.9999999999999 173.00000000000009 C 571.7614237491539 173.00000000000009 573.9999999999999 175.2385762508461 573.9999999999999 178.00000000000009 Z" fill-opacity="1"/><path fill="none" stroke="rgb(0,0,0)" paint-order="fill stroke markers" d=" M 573.9999999999999 178.00000000000009 C 573.9999999999999 180.76142374915406 571.7614237491539 183.00000000000009 568.9999999999999 183.00000000000009 C 566.2385762508459 183.00000000000009 563.9999999999999 180.76142374915406 563.9999999999999 178.00000000000009 C 563.9999999999999 175.2385762508461 566.2385762508459 173.00000000000009 568.9999999999999 173.00000000000009 C 571.7614237491539 173.00000000000009 573.9999999999999 175.2385762508461 573.9999999999999 178.00000000000009 Z" stroke-opacity="1" stroke-linecap="round" stroke-linejoin="round" stroke-miterlimit="10"/><path fill="rgb(211,47,47)" stroke="none" paint-order="stroke fill markers" d=" M 773.9999999999999 178.00000000000009 C 773.9999999999999 180.76142374915406 771.7614237491539 183.00000000000009 768.9999999999999 183.00000000000009 C 766.2385762508459 183.00000000000009 763.9999999999999 180.76142374915406 763.9999999999999 178.00000000000009 C 763.9999999999999 175.2385762508461 766.2385762508459 173.00000000000009 768.9999999999999 173.00000000000009 C 771.7614237491539 173.00000000000009 773.9999999999999 175.2385762508461 773.9999999999999 178.00000000000009 Z" fill-opacity="1"/><path fill="none" stroke="rgb(0,0,0)" paint-order="fill stroke markers" d=" M 773.9999999999999 178.00000000000009 C 773.9999999999999 180.76142374915406 771.7614237491539 183.00000000000009 768.9999999999999 183.00000000000009 C 766.2385762508459 183.00000000000009 763.9999999999999 180.76142374915406 763.9999999999999 178.00000000000009 C 763.9999999999999 175.2385762508461 766.2385762508459 173.00000000000009 768.9999999999999 173.00000000000009 C 771.7614237491539 173.00000000000009 773.9999999999999 175.2385762508461 773.9999999999999 178.00000000000009 Z" stroke-opacity="1" stroke-linecap="round" stroke-linejoin="round" stroke-miterlimit="10"/><path fill="rgb(211,47,47)" stroke="none" paint-order="stroke fill markers" d=" M 773.9999999999999 378.0000000000001 C 773.9999999999999 380.76142374915406 771.7614237491539 383.0000000000001 768.9999999999999 383.0000000000001 C 766.2385762508459 383.0000000000001 763.9999999999999 380.76142374915406 763.9999999999999 378.0000000000001 C 763.9999999999999 375.23857625084617 766.2385762508459 373.0000000000001 768.9999999999999 373.0000000000001 C 771.7614237491539 373.0000000000001 773.9999999999999 375.23857625084617 773.9999999999999 378.0000000000001 Z" fill-opacity="1"/><path fill="none" stroke="rgb(0,0,0)" paint-order="fill stroke markers" d=" M 773.9999999999999 378.0000000000001 C 773.9999999999999 380.76142374915406 771.7614237491539 383.0000000000001 768.9999999999999 383.0000000000001 C 766.2385762508459 383.0000000000001 763.9999999999999 380.76142374915406 763.9999999999999 378.0000000000001 C 763.9999999999999 375.23857625084617 766.2385762508459 373.0000000000001 768.9999999999999 373.0000000000001 C 771.7614237491539 373.0000000000001 773.9999999999999 375.23857625084617 773.9999999999999 378.0000000000001 Z" stroke-opacity="1" stroke-linecap="round" stroke-linejoin="round" stroke-miterlimit="10"/><path fill="rgb(211,47,47)" stroke="none" paint-order="stroke fill markers" d=" M 573.9999999999999 378.0000000000001 C 573.9999999999999 380.76142374915406 571.7614237491539 383.0000000000001 568.9999999999999 383.0000000000001 C 566.2385762508459 383.0000000000001 563.9999999999999 380.76142374915406 563.9999999999999 378.0000000000001 C 563.9999999999999 375.23857625084617 566.2385762508459 373.0000000000001 568.9999999999999 373.0000000000001 C 571.7614237491539 373.0000000000001 573.9999999999999 375.23857625084617 573.9999999999999 378.0000000000001 Z" fill-opacity="1"/><path fill="none" stroke="rgb(0,0,0)" paint-order="fill stroke markers" d=" M 573.9999999999999 378.0000000000001 C 573.9999999999999 380.76142374915406 571.7614237491539 383.0000000000001 568.9999999999999 383.0000000000001 C 566.2385762508459 383.0000000000001 563.9999999999999 380.76142374915406 563.9999999999999 378.0000000000001 C 563.9999999999999 375.23857625084617 566.2385762508459 373.0000000000001 568.9999999999999 373.0000000000001 C 571.7614237491539 373.0000000000001 573.9999999999999 375.23857625084617 573.9999999999999 378.0000000000001 Z" stroke-opacity="1" stroke-linecap="round" stroke-linejoin="round" stroke-miterlimit="10"/><path fill="rgb(21,101,192)" stroke="none" paint-order="stroke fill markers" d=" M 474 78.00000000000006 C 474 80.76142374915402 471.76142374915395 83.00000000000006 469 83.00000000000006 C 466.23857625084605 83.00000000000006 464 80.76142374915402 464 78.00000000000006 C 464 75.2385762508461 466.23857625084605 73.00000000000006 469 73.00000000000006 C 471.76142374915395 73.00000000000006 474 75.2385762508461 474 78.00000000000006 Z" fill-opacity="1"/><path fill="none" stroke="rgb(0,0,0)" paint-order="fill stroke markers" d=" M 474 78.00000000000006 C 474 80.76142374915402 471.76142374915395 83.00000000000006 469 83.00000000000006 C 466.23857625084605 83.00000000000006 464 80.76142374915402 464 78.00000000000006 C 464 75.2385762508461 466.23857625084605 73.00000000000006 469 73.00000000000006 C 471.76142374915395 73.00000000000006 474 75.2385762508461 474 78.00000000000006 Z" stroke-opacity="1" stroke-linecap="round" stroke-linejoin="round" stroke-miterlimit="10"/><path fill="rgb(21,101,192)" stroke="none" paint-order="stroke fill markers" d=" M 873.9999999999998 78.00000000000006 C 873.9999999999998 80.76142374915402 871.7614237491538 83.00000000000006 868.9999999999998 83.00000000000006 C 866.2385762508458 83.00000000000006 863.9999999999998 80.76142374915402 863.9999999999998 78.00000000000006 C 863.9999999999998 75.2385762508461 866.2385762508458 73.00000000000006 868.9999999999998 73.00000000000006 C 871.7614237491538 73.00000000000006 873.9999999999998 75.2385762508461 873.9999999999998 78.00000000000006 Z" fill-opacity="1"/><path fill="none" stroke="rgb(0,0,0)" paint-order="fill stroke markers" d=" M 873.9999999999998 78.00000000000006 C 873.9999999999998 80.76142374915402 871.7614237491538 83.00000000000006 868.9999999999998 83.00000000000006 C 866.2385762508458 83.00000000000006 863.9999999999998 80.76142374915402 863.9999999999998 78.00000000000006 C 863.9999999999998 75.2385762508461 866.2385762508458 73.00000000000006 868.9999999999998 73.00000000000006 C 871.7614237491538 73.00000000000006 873.9999999999998 75.2385762508461 873.9999999999998 78.00000000000006 Z" stroke-opacity="1" stroke-linecap="round" stroke-linejoin="round" stroke-miterlimit="10"/><path fill="rgb(21,101,192)" stroke="none" paint-order="stroke fill markers" d=" M 873.9999999999998 478.00000000000017 C 873.9999999999998 480.7614237491541 871.7614237491538 483.00000000000017 868.9999999999998 483.00000000000017 C 866.2385762508458 483.00000000000017 863.9999999999998 480.7614237491541 863.9999999999998 478.00000000000017 C 863.9999999999998 475.2385762508462 866.2385762508458 473.00000000000017 868.9999999999998 473.00000000000017 C 871.7614237491538 473.00000000000017 873.9999999999998 475.2385762508462 873.9999999999998 478.00000000000017 Z" fill-opacity="1"/><path fill="none" stroke="rgb(0,0,0)" paint-order="fill stroke markers" d=" M 873.9999999999998 478.00000000000017 C 873.9999999999998 480.7614237491541 871.7614237491538 483.00000000000017 868.9999999999998 483.00000000000017 C 866.2385762508458 483.00000000000017 863.9999999999998 480.7614237491541 863.9999999999998 478.00000000000017 C 863.9999999999998 475.2385762508462 866.2385762508458 473.00000000000017 868.9999999999998 473.00000000000017 C 871.7614237491538 473.00000000000017 873.9999999999998 475.2385762508462 873.9999999999998 478.00000000000017 Z" stroke-opacity="1" stroke-linecap="round" stroke-linejoin="round" stroke-miterlimit="10"/><path fill="rgb(21,101,192)" stroke="none" paint-order="stroke fill markers" d=" M 474 478.00000000000017 C 474 480.7614237491541 471.76142374915395 483.00000000000017 469 483.00000000000017 C 466.23857625084605 483.00000000000017 464 480.7614237491541 464 478.00000000000017 C 464 475.2385762508462 466.23857625084605 473.00000000000017 469 473.00000000000017 C 471.76142374915395 473.00000000000017 474 475.2385762508462 474 478.00000000000017 Z" fill-opacity="1"/><path fill="none" stroke="rgb(0,0,0)" paint-order="fill stroke markers" d=" M 474 478.00000000000017 C 474 480.7614237491541 471.76142374915395 483.00000000000017 469 483.00000000000017 C 466.23857625084605 483.00000000000017 464 480.7614237491541 464 478.00000000000017 C 464 475.2385762508462 466.23857625084605 473.00000000000017 469 473.00000000000017 C 471.76142374915395 473.00000000000017 474 475.2385762508462 474 478.00000000000017 Z" stroke-opacity="1" stroke-linecap="round" stroke-linejoin="round" stroke-miterlimit="10"/></g></g></svg>