<?xml version="1.0" encoding="UTF-8"?>
<svg xmlns="http://www.w3.org/2000/svg" xmlns:xlink="http://www.w3.org/1999/xlink" width="1366pt" height="565pt" viewBox="0 0 1366 565" version="1.1">
<g id="surface1">
<path style="fill:none;stroke-width:3;stroke-linecap:round;stroke-linejoin:round;stroke:rgb(0%,0%,100%);stroke-opacity:1;stroke-miterlimit:10;" d="M 373.761719 486.179688 L 77.871094 86.621094 " transform="matrix(1,0,0,-1,0,565)"/>
<path style="fill:none;stroke-width:3;stroke-linecap:round;stroke-linejoin:round;stroke:rgb(0%,0%,100%);stroke-opacity:1;stroke-miterlimit:10;" d="M 715.011719 84.460938 L 77.871094 86.621094 " transform="matrix(1,0,0,-1,0,565)"/>
<path style="fill:none;stroke-width:3;stroke-linecap:round;stroke-linejoin:round;stroke:rgb(0%,0%,100%);stroke-opacity:1;stroke-miterlimit:10;" d="M 715.011719 84.460938 L 620.03125 485.339844 " transform="matrix(1,0,0,-1,0,565)"/>
<path style="fill:none;stroke-width:3;stroke-linecap:round;stroke-linejoin:round;stroke:rgb(0%,0%,100%);stroke-opacity:1;stroke-miterlimit:10;" d="M 620.03125 485.339844 L 373.761719 486.179688 " transform="matrix(1,0,0,-1,0,565)"/>
<path style="fill-rule:nonzero;fill:rgb(100%,0%,0%);fill-opacity:1;stroke-width:1;stroke-linecap:square;stroke-linejoin:miter;stroke:rgb(0%,0%,0%);stroke-opacity:1;stroke-miterlimit:10;" d="M 378.761719 486.179688 C 378.761719 483.421875 376.519531 481.179688 373.761719 481.179688 C 371 481.179688 368.761719 483.421875 368.761719 486.179688 C 368.761719 488.941406 371 491.179688 373.761719 491.179688 C 376.519531 491.179688 378.761719 488.941406 378.761719 486.179688 Z M 378.761719 486.179688 " transform="matrix(1,0,0,-1,0,565)"/>
<path style="fill-rule:nonzero;fill:rgb(100%,0%,0%);fill-opacity:1;stroke-width:1;stroke-linecap:square;stroke-linejoin:miter;stroke:rgb(0%,0%,0%);stroke-opacity:1;stroke-miterlimit:10;" d="M 82.871094 86.621094 C 82.871094 83.859375 80.628906 81.621094 77.871094 81.621094 C 75.109375 81.621094 72.871094 83.859375 72.871094 86.621094 C 72.871094 89.378906 75.109375 91.621094 77.871094 91.621094 C 80.628906 91.621094 82.871094 89.378906 82.871094 86.621094 Z M 82.871094 86.621094 " transform="matrix(1,0,0,-1,0,565)"/>
<path style="fill-rule:nonzero;fill:rgb(100%,0%,0%);fill-opacity:1;stroke-width:1;stroke-linecap:square;stroke-linejoin:miter;stroke:rgb(0%,0%,0%);stroke-opacity:1;stroke-miterlimit:10;" d="M 720.011719 84.460938 C 720.011719 81.699219 717.769531 79.460938 715.011719 79.460938 C 712.25 79.460938 710.011719 81.699219 710.011719 84.460938 C 710.011719 87.21875 712.25 89.460938 715.011719 89.460938 C 717.769531 89.460938 720.011719 87.21875 720.011719 84.460938 Z M 720.011719 84.460938 " transform="matrix(1,0,0,-1,0,565)"/>
<path style="fill-rule:nonzero;fill:rgb(100%,0%,0%);fill-opacity:1;stroke-width:1;stroke-linecap:square;stroke-linejoin:miter;stroke:rgb(0%,0%,0%);stroke-opacity:1;stroke-miterlimit:10;" d="M 625.03125 485.339844 C 625.03125 482.578125 622.800781 480.339844 620.03125 480.339844 C 617.269531 480.339844 615.03125 482.578125 615.03125 485.339844 C 615.03125 488.109375 617.269531 490.339844 620.03125 490.339844 C 622.800781 490.339844 625.03125 488.109375 625.03125 485.339844 Z M 625.03125 485.339844 " transform="matrix(1,0,0,-1,0,565)"/>
<path style=" stroke:none;fill-rule:nonzero;fill:rgb(0%,0%,0%);fill-opacity:1;" d="M 356.25 48.050781 L 352.230469 58.921875 L 360.28125 58.921875 Z M 354.578125 45.121094 L 357.941406 45.121094 L 366.28125 67 L 363.199219 67 L 361.199219 61.390625 L 351.339844 61.390625 L 349.359375 67 L 346.230469 67 Z M 354.578125 45.121094 "/>
<path style=" stroke:none;fill-rule:nonzero;fill:rgb(0%,0%,0%);fill-opacity:1;" d="M 50.910156 494.558594 L 50.910156 502.558594 L 55.660156 502.558594 C 55.660156 502.558594 58.03125 502.558594 59.191406 501.578125 C 59.191406 501.578125 60.339844 500.589844 60.339844 498.550781 C 60.339844 498.550781 60.339844 496.5 59.191406 495.53125 C 59.191406 495.53125 58.03125 494.558594 55.660156 494.558594 Z M 50.910156 485.558594 L 50.910156 492.160156 L 55.28125 492.160156 C 55.28125 492.160156 57.449219 492.160156 58.519531 491.339844 C 58.519531 491.339844 59.578125 490.53125 59.578125 488.859375 C 59.578125 488.859375 59.578125 487.199219 58.519531 486.390625 C 58.519531 486.390625 57.449219 485.558594 55.28125 485.558594 Z M 47.941406 483.121094 L 55.5 483.121094 C 55.5 483.121094 58.890625 483.121094 60.71875 484.53125 C 60.71875 484.53125 62.550781 485.941406 62.550781 488.53125 C 62.550781 488.53125 62.550781 490.550781 61.609375 491.730469 C 61.609375 491.730469 60.671875 492.921875 58.859375 493.199219 C 58.859375 493.199219 61.050781 493.671875 62.25 495.171875 C 62.25 495.171875 63.449219 496.660156 63.449219 498.871094 C 63.449219 498.871094 63.449219 501.808594 61.449219 503.410156 C 61.449219 503.410156 59.46875 505 55.800781 505 L 47.941406 505 Z M 47.941406 483.121094 "/>
<path style=" stroke:none;fill-rule:nonzero;fill:rgb(0%,0%,0%);fill-opacity:1;" d="M 746.328125 487.808594 L 746.328125 490.941406 C 746.328125 490.941406 744.828125 489.550781 743.128906 488.859375 C 743.128906 488.859375 741.441406 488.171875 739.550781 488.171875 C 739.550781 488.171875 735.800781 488.171875 733.800781 490.46875 C 733.800781 490.46875 731.808594 492.75 731.808594 497.089844 C 731.808594 497.089844 731.808594 501.410156 733.800781 503.699219 C 733.800781 503.699219 735.800781 506 739.550781 506 C 739.550781 506 741.441406 506 743.128906 505.308594 C 743.128906 505.308594 744.828125 504.609375 746.328125 503.21875 L 746.328125 506.308594 C 746.328125 506.308594 744.769531 507.371094 743.03125 507.910156 C 743.03125 507.910156 741.300781 508.421875 739.359375 508.421875 C 739.359375 508.421875 734.390625 508.421875 731.53125 505.390625 C 731.53125 505.390625 728.691406 502.339844 728.691406 497.089844 C 728.691406 497.089844 728.691406 491.808594 731.53125 488.78125 C 731.53125 488.78125 734.390625 485.730469 739.359375 485.730469 C 739.359375 485.730469 741.328125 485.730469 743.058594 486.269531 C 743.058594 486.269531 744.800781 486.78125 746.328125 487.808594 Z M 746.328125 487.808594 "/>
<path style=" stroke:none;fill-rule:nonzero;fill:rgb(0%,0%,0%);fill-opacity:1;" d="M 632.910156 51.558594 L 632.910156 68.558594 L 636.480469 68.558594 C 636.480469 68.558594 641 68.558594 643.089844 66.519531 C 643.089844 66.519531 645.199219 64.46875 645.199219 60.050781 C 645.199219 60.050781 645.199219 55.640625 643.089844 53.609375 C 643.089844 53.609375 641 51.558594 636.480469 51.558594 Z M 629.941406 49.121094 L 636.03125 49.121094 C 636.03125 49.121094 642.378906 49.121094 645.339844 51.78125 C 645.339844 51.78125 648.328125 54.421875 648.328125 60.050781 C 648.328125 60.050781 648.328125 65.699219 645.339844 68.359375 C 645.339844 68.359375 642.359375 71 636.03125 71 L 629.941406 71 Z M 629.941406 49.121094 "/>
<path style=" stroke:none;fill-rule:nonzero;fill:rgb(0%,0%,0%);fill-opacity:1;" d="M 484.480469 50.839844 C 485.441406 50.839844 486.21875 50.089844 486.21875 49.230469 C 486.21875 48.75 485.890625 48.160156 485.558594 47.941406 C 485.558594 47.769531 487.089844 47.671875 487.449219 47.671875 C 488.949219 47.671875 489.808594 48.519531 490.199219 49.800781 C 490.359375 50.191406 490.390625 50.550781 490.390625 51.300781 L 490.390625 51.949219 L 490.128906 51.949219 C 487.949219 52.078125 486.339844 52.410156 484.910156 53.058594 C 484.160156 53.410156 483.578125 53.699219 483.058594 54.199219 C 482.441406 54.839844 481.878906 55.691406 481.878906 56.800781 C 481.878906 57.191406 481.949219 57.558594 482.109375 57.941406 C 482.691406 59.410156 484.660156 60.328125 486.699219 60.328125 C 487.980469 60.328125 489.25 59.910156 490.199219 59.089844 C 490.449219 58.890625 490.75 58.46875 490.71875 58.5 L 490.71875 58.371094 C 490.980469 59.339844 491.949219 60.191406 493 60.191406 C 494.339844 60.191406 495.480469 59.308594 495.808594 58.230469 C 495.878906 58.019531 495.878906 57.949219 495.910156 56.808594 L 495.910156 55.660156 L 494.441406 55.660156 L 494.441406 56.730469 C 494.441406 57.910156 494.441406 58.078125 494.300781 58.371094 L 494.269531 58.371094 C 494.140625 58.660156 494.078125 58.800781 493.839844 58.800781 C 493.589844 58.800781 493.480469 58.660156 493.359375 58.371094 L 493.328125 58.371094 C 493.160156 58.019531 493.191406 58.109375 493.191406 54.191406 C 493.191406 50.28125 493.191406 50.339844 493 49.800781 C 492.410156 47.871094 490.199219 46.558594 487.550781 46.558594 C 485.308594 46.558594 483.480469 47.191406 482.980469 48.269531 C 482.828125 48.589844 482.730469 48.941406 482.730469 49.230469 C 482.730469 50.089844 483.519531 50.839844 484.480469 50.839844 Z M 490.390625 54.75 C 490.359375 56.441406 490.359375 56.519531 490.300781 56.730469 C 489.96875 58.050781 488.921875 59.21875 487.269531 59.21875 C 485.859375 59.21875 484.910156 58.171875 484.910156 56.808594 C 484.910156 56.339844 484.980469 55.859375 485.199219 55.46875 C 485.949219 54.058594 487.660156 53.21875 490.449219 53.050781 C 490.519531 53.019531 490.589844 53.019531 490.589844 53.019531 L 490.519531 53.019531 C 490.550781 53.019531 490.390625 53.800781 490.390625 54.75 Z M 490.390625 54.75 "/>
<path style=" stroke:none;fill-rule:nonzero;fill:rgb(0%,0%,0%);fill-opacity:1;" d="M 382.941406 505.359375 C 381.699219 505.421875 380.691406 505.519531 380.660156 505.519531 C 380.589844 505.519531 380.449219 505.558594 380.449219 506.199219 L 380.449219 506.890625 L 381.140625 506.890625 C 382.449219 506.949219 382.640625 507.121094 382.769531 507.910156 C 382.800781 508.03125 382.800781 512.140625 382.800781 517.058594 L 382.800781 526 L 383.550781 526 L 384.230469 525.96875 L 384.378906 525.699219 C 384.46875 525.550781 384.691406 525.160156 384.828125 524.890625 L 385.050781 524.5 L 385.128906 524.558594 C 386 525.480469 387.53125 526.328125 389.199219 526.328125 C 392.75 526.328125 395.230469 523.621094 395.71875 520.558594 C 395.75 520.328125 395.78125 519.941406 395.78125 519.519531 C 395.78125 515.921875 393.441406 513.371094 390.691406 512.828125 C 390.378906 512.769531 390.050781 512.730469 389.691406 512.730469 C 388.050781 512.730469 386.390625 513.339844 385.449219 514.121094 C 385.378906 514.199219 385.480469 514.269531 385.480469 514.269531 L 385.410156 514.269531 C 385.378906 514.269531 385.480469 512.230469 385.480469 509.699219 L 385.480469 505.191406 L 385.28125 505.191406 C 385.21875 505.191406 384.171875 505.269531 382.941406 505.359375 Z M 389.941406 513.941406 C 391.058594 514.230469 391.808594 515.109375 392.199219 516.308594 C 392.449219 517.058594 392.558594 518.230469 392.558594 519.640625 C 392.558594 521.050781 392.480469 521.828125 392.199219 522.609375 C 392.058594 523.03125 392 523.269531 391.769531 523.589844 C 391.058594 524.621094 390.050781 525.21875 388.839844 525.21875 C 388.550781 525.21875 388.21875 525.191406 387.921875 525.089844 C 387.019531 524.859375 386.269531 524.199219 385.699219 523.269531 L 385.578125 523.121094 L 385.578125 515.800781 L 385.730469 515.589844 C 386.449219 514.589844 387.589844 513.839844 389 513.839844 C 389.328125 513.839844 389.691406 513.910156 389.941406 513.941406 Z M 389.941406 513.941406 "/>
</g>
</svg>
