<?xml version="1.0" encoding="UTF-8"?>
<svg xmlns="http://www.w3.org/2000/svg" xmlns:xlink="http://www.w3.org/1999/xlink" width="1366pt" height="565pt" viewBox="0 0 1366 565" version="1.1">
<g id="surface1">
<path style="fill:none;stroke-width:3;stroke-linecap:round;stroke-linejoin:round;stroke:rgb(0%,0%,100%);stroke-opacity:1;stroke-miterlimit:10;" d="M 373.761719 486.179688 L 73.5 86.5 " transform="matrix(1,0,0,-1,0,565)"/>
<path style="fill:none;stroke-width:3;stroke-linecap:round;stroke-linejoin:round;stroke:rgb(0%,0%,100%);stroke-opacity:1;stroke-miterlimit:10;" d="M 715.011719 84.460938 L 73.5 86.5 " transform="matrix(1,0,0,-1,0,565)"/>
<path style="fill:none;stroke-width:3;stroke-linecap:round;stroke-linejoin:round;stroke:rgb(0%,0%,100%);stroke-opacity:1;stroke-miterlimit:10;" d="M 715.011719 84.460938 L 620.03125 485.398438 " transform="matrix(1,0,0,-1,0,565)"/>
<path style="fill:none;stroke-width:3;stroke-linecap:round;stroke-linejoin:round;stroke:rgb(0%,0%,100%);stroke-opacity:1;stroke-miterlimit:10;" d="M 620.03125 485.398438 L 373.761719 486.179688 " transform="matrix(1,0,0,-1,0,565)"/>
<path style="fill:none;stroke-width:3;stroke-linecap:round;stroke-linejoin:round;stroke:rgb(0%,0%,100%);stroke-opacity:1;stroke-dasharray:15.09,15.09;stroke-miterlimit:10;" d="M 680.210938 565.5 L 254.25 -1.5 " transform="matrix(1,0,0,-1,0,565)"/>
<path style="fill-rule:nonzero;fill:rgb(100%,0%,0%);fill-opacity:1;stroke-width:1;stroke-linecap:square;stroke-linejoin:miter;stroke:rgb(0%,0%,0%);stroke-opacity:1;stroke-miterlimit:10;" d="M 378.761719 486.179688 C 378.761719 483.421875 376.519531 481.179688 373.761719 481.179688 C 371 481.179688 368.761719 483.421875 368.761719 486.179688 C 368.761719 488.941406 371 491.179688 373.761719 491.179688 C 376.519531 491.179688 378.761719 488.941406 378.761719 486.179688 Z M 378.761719 486.179688 " transform="matrix(1,0,0,-1,0,565)"/>
<path style="fill-rule:nonzero;fill:rgb(100%,0%,0%);fill-opacity:1;stroke-width:1;stroke-linecap:square;stroke-linejoin:miter;stroke:rgb(0%,0%,0%);stroke-opacity:1;stroke-miterlimit:10;" d="M 78.5 86.5 C 78.5 83.738281 76.261719 81.5 73.5 81.5 C 70.738281 81.5 68.5 83.738281 68.5 86.5 C 68.5 89.261719 70.738281 91.5 73.5 91.5 C 76.261719 91.5 78.5 89.261719 78.5 86.5 Z M 78.5 86.5 " transform="matrix(1,0,0,-1,0,565)"/>
<path style="fill-rule:nonzero;fill:rgb(100%,0%,0%);fill-opacity:1;stroke-width:1;stroke-linecap:square;stroke-linejoin:miter;stroke:rgb(0%,0%,0%);stroke-opacity:1;stroke-miterlimit:10;" d="M 720.011719 84.460938 C 720.011719 81.699219 717.769531 79.460938 715.011719 79.460938 C 712.25 79.460938 710.011719 81.699219 710.011719 84.460938 C 710.011719 87.21875 712.25 89.460938 715.011719 89.460938 C 717.769531 89.460938 720.011719 87.21875 720.011719 84.460938 Z M 720.011719 84.460938 " transform="matrix(1,0,0,-1,0,565)"/>
<path style="fill-rule:nonzero;fill:rgb(100%,0%,0%);fill-opacity:1;stroke-width:1;stroke-linecap:square;stroke-linejoin:miter;stroke:rgb(0%,0%,0%);stroke-opacity:1;stroke-miterlimit:10;" d="M 625.03125 485.398438 C 625.03125 482.628906 622.789062 480.398438 620.03125 480.398438 C 617.269531 480.398438 615.03125 482.628906 615.03125 485.398438 C 615.03125 488.160156 617.269531 490.398438 620.03125 490.398438 C 622.789062 490.398438 625.03125 488.160156 625.03125 485.398438 Z M 625.03125 485.398438 " transform="matrix(1,0,0,-1,0,565)"/>
<path style="fill-rule:nonzero;fill:rgb(69.802856%,0%,0%);fill-opacity:1;stroke-width:1;stroke-linecap:square;stroke-linejoin:miter;stroke:rgb(0%,0%,0%);stroke-opacity:1;stroke-miterlimit:10;" d="M 324.769531 85.71875 C 324.769531 82.960938 322.53125 80.71875 319.769531 80.71875 C 317.011719 80.71875 314.769531 82.960938 314.769531 85.71875 C 314.769531 88.480469 317.011719 90.71875 319.769531 90.71875 C 322.53125 90.71875 324.769531 88.480469 324.769531 85.71875 Z M 324.769531 85.71875 " transform="matrix(1,0,0,-1,0,565)"/>
<path style="fill-rule:nonzero;fill:rgb(100%,0%,0%);fill-opacity:1;stroke-width:1;stroke-linecap:square;stroke-linejoin:miter;stroke:rgb(0%,0%,0%);stroke-opacity:1;stroke-miterlimit:10;" d="M 497.828125 85.171875 C 497.828125 82.398438 495.601562 80.171875 492.828125 80.171875 C 490.070312 80.171875 487.828125 82.398438 487.828125 85.171875 C 487.828125 87.929688 490.070312 90.171875 492.828125 90.171875 C 495.601562 90.171875 497.828125 87.929688 497.828125 85.171875 Z M 497.828125 85.171875 " transform="matrix(1,0,0,-1,0,565)"/>
<path style=" stroke:none;fill-rule:nonzero;fill:rgb(0%,0%,0%);fill-opacity:1;" d="M 336.25 69.050781 L 332.230469 79.921875 L 340.28125 79.921875 Z M 334.578125 66.121094 L 337.941406 66.121094 L 346.28125 88 L 343.199219 88 L 341.199219 82.390625 L 331.339844 82.390625 L 329.359375 88 L 326.230469 88 Z M 334.578125 66.121094 "/>
<path style=" stroke:none;fill-rule:nonzero;fill:rgb(0%,0%,0%);fill-opacity:1;" d="M 43.910156 505.558594 L 43.910156 513.558594 L 48.660156 513.558594 C 48.660156 513.558594 51.03125 513.558594 52.191406 512.578125 C 52.191406 512.578125 53.339844 511.589844 53.339844 509.550781 C 53.339844 509.550781 53.339844 507.5 52.191406 506.53125 C 52.191406 506.53125 51.03125 505.558594 48.660156 505.558594 Z M 43.910156 496.558594 L 43.910156 503.160156 L 48.28125 503.160156 C 48.28125 503.160156 50.449219 503.160156 51.519531 502.339844 C 51.519531 502.339844 52.578125 501.53125 52.578125 499.859375 C 52.578125 499.859375 52.578125 498.199219 51.519531 497.390625 C 51.519531 497.390625 50.449219 496.558594 48.28125 496.558594 Z M 40.941406 494.121094 L 48.5 494.121094 C 48.5 494.121094 51.890625 494.121094 53.71875 495.53125 C 53.71875 495.53125 55.550781 496.941406 55.550781 499.53125 C 55.550781 499.53125 55.550781 501.550781 54.609375 502.730469 C 54.609375 502.730469 53.671875 503.921875 51.859375 504.199219 C 51.859375 504.199219 54.050781 504.671875 55.25 506.171875 C 55.25 506.171875 56.449219 507.660156 56.449219 509.871094 C 56.449219 509.871094 56.449219 512.808594 54.449219 514.410156 C 54.449219 514.410156 52.46875 516 48.800781 516 L 40.941406 516 Z M 67.878906 493.230469 C 67.878906 493.230469 65.921875 496.609375 64.96875 499.910156 C 64.96875 499.910156 64.019531 503.199219 64.019531 506.578125 C 64.019531 506.578125 64.019531 509.96875 64.96875 513.28125 C 64.96875 513.28125 65.941406 516.589844 67.878906 519.949219 L 65.53125 519.949219 C 65.53125 519.949219 63.351562 516.519531 62.25 513.191406 C 62.25 513.191406 61.160156 509.859375 61.160156 506.578125 C 61.160156 506.578125 61.160156 503.308594 62.238281 500 C 62.238281 500 63.328125 496.691406 65.53125 493.230469 Z M 76.191406 496.558594 L 76.191406 504.78125 L 79.910156 504.78125 C 79.910156 504.78125 81.96875 504.78125 83.101562 503.71875 C 83.101562 503.71875 84.238281 502.640625 84.238281 500.660156 C 84.238281 500.660156 84.238281 498.699219 83.101562 497.640625 C 83.101562 497.640625 81.96875 496.558594 79.910156 496.558594 Z M 73.21875 494.121094 L 79.910156 494.121094 C 79.910156 494.121094 83.578125 494.121094 85.460938 495.800781 C 85.460938 495.800781 87.351562 497.449219 87.351562 500.660156 C 87.351562 500.660156 87.351562 503.910156 85.460938 505.558594 C 85.460938 505.558594 83.578125 507.199219 79.910156 507.199219 L 76.191406 507.199219 L 76.191406 516 L 73.21875 516 Z M 90.78125 493.230469 L 93.128906 493.230469 C 93.128906 493.230469 95.308594 496.691406 96.410156 500 C 96.410156 500 97.5 503.308594 97.5 506.578125 C 97.5 506.578125 97.5 509.859375 96.410156 513.191406 C 96.410156 513.191406 95.308594 516.519531 93.128906 519.949219 L 90.78125 519.949219 C 90.78125 519.949219 92.71875 516.589844 93.671875 513.28125 C 93.671875 513.28125 94.640625 509.96875 94.640625 506.578125 C 94.640625 506.578125 94.640625 503.199219 93.671875 499.910156 C 93.671875 499.910156 92.71875 496.609375 90.78125 493.230469 Z M 90.78125 493.230469 "/>
<path style=" stroke:none;fill-rule:nonzero;fill:rgb(0%,0%,0%);fill-opacity:1;" d="M 746.328125 487.808594 L 746.328125 490.941406 C 746.328125 490.941406 744.828125 489.550781 743.128906 488.859375 C 743.128906 488.859375 741.441406 488.171875 739.550781 488.171875 C 739.550781 488.171875 735.800781 488.171875 733.800781 490.46875 C 733.800781 490.46875 731.808594 492.75 731.808594 497.089844 C 731.808594 497.089844 731.808594 501.410156 733.800781 503.699219 C 733.800781 503.699219 735.800781 506 739.550781 506 C 739.550781 506 741.441406 506 743.128906 505.308594 C 743.128906 505.308594 744.828125 504.609375 746.328125 503.21875 L 746.328125 506.308594 C 746.328125 506.308594 744.769531 507.371094 743.03125 507.910156 C 743.03125 507.910156 741.300781 508.421875 739.359375 508.421875 C 739.359375 508.421875 734.390625 508.421875 731.53125 505.390625 C 731.53125 505.390625 728.691406 502.339844 728.691406 497.089844 C 728.691406 497.089844 728.691406 491.808594 731.53125 488.78125 C 731.53125 488.78125 734.390625 485.730469 739.359375 485.730469 C 739.359375 485.730469 741.328125 485.730469 743.058594 486.269531 C 743.058594 486.269531 744.800781 486.78125 746.328125 487.808594 Z M 746.328125 487.808594 "/>
<path style=" stroke:none;fill-rule:nonzero;fill:rgb(0%,0%,0%);fill-opacity:1;" d="M 643.910156 76.558594 L 643.910156 93.558594 L 647.480469 93.558594 C 647.480469 93.558594 652 93.558594 654.089844 91.519531 C 654.089844 91.519531 656.199219 89.46875 656.199219 85.050781 C 656.199219 85.050781 656.199219 80.640625 654.089844 78.609375 C 654.089844 78.609375 652 76.558594 647.480469 76.558594 Z M 640.941406 74.121094 L 647.03125 74.121094 C 647.03125 74.121094 653.378906 74.121094 656.339844 76.78125 C 656.339844 76.78125 659.328125 79.421875 659.328125 85.050781 C 659.328125 85.050781 659.328125 90.699219 656.339844 93.359375 C 656.339844 93.359375 653.359375 96 647.03125 96 L 640.941406 96 Z M 640.941406 74.121094 "/>
<path style=" stroke:none;fill-rule:nonzero;fill:rgb(0%,0%,0%);fill-opacity:1;" d="M 274.941406 486.121094 L 288.769531 486.121094 L 288.769531 488.621094 L 277.910156 488.621094 L 277.910156 495.089844 L 288.308594 495.089844 L 288.308594 497.578125 L 277.910156 497.578125 L 277.910156 505.519531 L 289.03125 505.519531 L 289.03125 508 L 274.941406 508 Z M 274.941406 486.121094 "/>
<path style=" stroke:none;fill-rule:nonzero;fill:rgb(0%,0%,0%);fill-opacity:1;" d="M 504.828125 496.140625 C 504.828125 496.140625 501.589844 496.140625 499.699219 498.550781 C 499.699219 498.550781 497.808594 500.941406 497.808594 505.089844 C 497.808594 505.089844 497.808594 509.21875 499.699219 511.621094 C 499.699219 511.621094 501.589844 514.019531 504.828125 514.019531 C 504.828125 514.019531 508.050781 514.019531 509.921875 511.621094 C 509.921875 511.621094 511.808594 509.21875 511.808594 505.089844 C 511.808594 505.089844 511.808594 500.941406 509.921875 498.550781 C 509.921875 498.550781 508.050781 496.140625 504.828125 496.140625 Z M 508.96875 515.609375 L 512.859375 519.871094 L 509.300781 519.871094 L 506.050781 516.359375 C 506.050781 516.359375 505.558594 516.390625 505.308594 516.410156 C 505.308594 516.410156 505.058594 516.421875 504.828125 516.421875 C 504.828125 516.421875 500.199219 516.421875 497.441406 513.339844 C 497.441406 513.339844 494.691406 510.25 494.691406 505.089844 C 494.691406 505.089844 494.691406 499.910156 497.441406 496.828125 C 497.441406 496.828125 500.199219 493.730469 504.828125 493.730469 C 504.828125 493.730469 509.421875 493.730469 512.171875 496.828125 C 512.171875 496.828125 514.921875 499.910156 514.921875 505.089844 C 514.921875 505.089844 514.921875 508.890625 513.390625 511.609375 C 513.390625 511.609375 511.878906 514.308594 508.96875 515.609375 Z M 508.96875 515.609375 "/>
</g>
</svg>
