<?xml version="1.0" encoding="UTF-8"?>
<svg xmlns="http://www.w3.org/2000/svg" xmlns:xlink="http://www.w3.org/1999/xlink" width="1366pt" height="565pt" viewBox="0 0 1366 565" version="1.1">
<g id="surface1">
<path style="fill:none;stroke-width:3;stroke-linecap:round;stroke-linejoin:round;stroke:rgb(0%,0%,100%);stroke-opacity:1;stroke-miterlimit:10;" d="M 76.269531 59.46875 L 230.5 517.5 " transform="matrix(1,0,0,-1,0,565)"/>
<path style="fill:none;stroke-width:3;stroke-linecap:round;stroke-linejoin:round;stroke:rgb(0%,0%,100%);stroke-opacity:1;stroke-miterlimit:10;" d="M 635.5 57.5 L 76.269531 59.46875 " transform="matrix(1,0,0,-1,0,565)"/>
<path style="fill:none;stroke-width:3;stroke-linecap:round;stroke-linejoin:round;stroke:rgb(0%,0%,100%);stroke-opacity:1;stroke-miterlimit:10;" d="M 230.5 517.5 L 635.5 57.5 " transform="matrix(1,0,0,-1,0,565)"/>
<path style="fill-rule:nonzero;fill:rgb(100%,0%,0%);fill-opacity:1;stroke-width:1;stroke-linecap:square;stroke-linejoin:miter;stroke:rgb(0.390625%,0.390625%,0.390625%);stroke-opacity:1;stroke-miterlimit:10;" d="M 235.5 517.5 C 235.5 514.738281 233.261719 512.5 230.5 512.5 C 227.738281 512.5 225.5 514.738281 225.5 517.5 C 225.5 520.261719 227.738281 522.5 230.5 522.5 C 233.261719 522.5 235.5 520.261719 235.5 517.5 Z M 235.5 517.5 " transform="matrix(1,0,0,-1,0,565)"/>
<path style="fill-rule:nonzero;fill:rgb(100%,0%,0%);fill-opacity:1;stroke-width:1;stroke-linecap:square;stroke-linejoin:miter;stroke:rgb(0.390625%,0.390625%,0.390625%);stroke-opacity:1;stroke-miterlimit:10;" d="M 81.269531 59.46875 C 81.269531 56.710938 79.03125 54.46875 76.269531 54.46875 C 73.511719 54.46875 71.269531 56.710938 71.269531 59.46875 C 71.269531 62.238281 73.511719 64.46875 76.269531 64.46875 C 79.03125 64.46875 81.269531 62.238281 81.269531 59.46875 Z M 81.269531 59.46875 " transform="matrix(1,0,0,-1,0,565)"/>
<path style="fill-rule:nonzero;fill:rgb(100%,0%,0%);fill-opacity:1;stroke-width:1;stroke-linecap:square;stroke-linejoin:miter;stroke:rgb(0.390625%,0.390625%,0.390625%);stroke-opacity:1;stroke-miterlimit:10;" d="M 640.5 57.5 C 640.5 54.738281 638.261719 52.5 635.5 52.5 C 632.738281 52.5 630.5 54.738281 630.5 57.5 C 630.5 60.261719 632.738281 62.5 635.5 62.5 C 638.261719 62.5 640.5 60.261719 640.5 57.5 Z M 640.5 57.5 " transform="matrix(1,0,0,-1,0,565)"/>
<path style=" stroke:none;fill-rule:nonzero;fill:rgb(0.390625%,0.390625%,0.390625%);fill-opacity:1;" d="M 232.25 15.050781 L 228.230469 25.921875 L 236.28125 25.921875 Z M 230.578125 12.121094 L 233.941406 12.121094 L 242.28125 34 L 239.199219 34 L 237.199219 28.390625 L 227.339844 28.390625 L 225.359375 34 L 222.230469 34 Z M 230.578125 12.121094 "/>
<path style=" stroke:none;fill-rule:nonzero;fill:rgb(0.390625%,0.390625%,0.390625%);fill-opacity:1;" d="M 49.910156 522.558594 L 49.910156 530.558594 L 54.660156 530.558594 C 54.660156 530.558594 57.03125 530.558594 58.191406 529.578125 C 58.191406 529.578125 59.339844 528.589844 59.339844 526.550781 C 59.339844 526.550781 59.339844 524.5 58.191406 523.53125 C 58.191406 523.53125 57.03125 522.558594 54.660156 522.558594 Z M 49.910156 513.558594 L 49.910156 520.160156 L 54.28125 520.160156 C 54.28125 520.160156 56.449219 520.160156 57.519531 519.339844 C 57.519531 519.339844 58.578125 518.53125 58.578125 516.859375 C 58.578125 516.859375 58.578125 515.199219 57.519531 514.390625 C 57.519531 514.390625 56.449219 513.558594 54.28125 513.558594 Z M 46.941406 511.121094 L 54.5 511.121094 C 54.5 511.121094 57.890625 511.121094 59.71875 512.53125 C 59.71875 512.53125 61.550781 513.941406 61.550781 516.53125 C 61.550781 516.53125 61.550781 518.550781 60.609375 519.730469 C 60.609375 519.730469 59.671875 520.921875 57.859375 521.199219 C 57.859375 521.199219 60.050781 521.671875 61.25 523.171875 C 61.25 523.171875 62.449219 524.660156 62.449219 526.871094 C 62.449219 526.871094 62.449219 529.808594 60.449219 531.410156 C 60.449219 531.410156 58.46875 533 54.800781 533 L 46.941406 533 Z M 46.941406 511.121094 "/>
<path style=" stroke:none;fill-rule:nonzero;fill:rgb(0.390625%,0.390625%,0.390625%);fill-opacity:1;" d="M 664.328125 513.808594 L 664.328125 516.941406 C 664.328125 516.941406 662.828125 515.550781 661.128906 514.859375 C 661.128906 514.859375 659.441406 514.171875 657.550781 514.171875 C 657.550781 514.171875 653.800781 514.171875 651.800781 516.46875 C 651.800781 516.46875 649.808594 518.75 649.808594 523.089844 C 649.808594 523.089844 649.808594 527.410156 651.800781 529.699219 C 651.800781 529.699219 653.800781 532 657.550781 532 C 657.550781 532 659.441406 532 661.128906 531.308594 C 661.128906 531.308594 662.828125 530.609375 664.328125 529.21875 L 664.328125 532.308594 C 664.328125 532.308594 662.769531 533.371094 661.03125 533.910156 C 661.03125 533.910156 659.300781 534.421875 657.359375 534.421875 C 657.359375 534.421875 652.390625 534.421875 649.53125 531.390625 C 649.53125 531.390625 646.691406 528.339844 646.691406 523.089844 C 646.691406 523.089844 646.691406 517.808594 649.53125 514.78125 C 649.53125 514.78125 652.390625 511.730469 657.359375 511.730469 C 657.359375 511.730469 659.328125 511.730469 661.058594 512.269531 C 661.058594 512.269531 662.800781 512.78125 664.328125 513.808594 Z M 664.328125 513.808594 "/>
</g>
</svg>
