<svg version="1.1" xmlns="http://www.w3.org/2000/svg" xmlns:xlink="http://www.w3.org/1999/xlink" width="1310" height="556"><defs><clipPath id="gUnnNrUTQBKL"><path fill="none" stroke="none" d=" M 0 0 L 1310 0 L 1310 556 L 0 556 L 0 0 Z"/></clipPath></defs><g transform="scale(1,1)" clip-path="url(#gUnnNrUTQBKL)"><g><rect fill="rgb(255,255,255)" stroke="none" x="0" y="0" width="1310" height="556" fill-opacity="1"/><path fill="none" stroke="rgb(0,0,0)" paint-order="fill stroke markers" d=" M 863 303.5000000000001 C 863 413.9569499661588 773.4569499661587 503.50000000000017 663.0000000000001 503.50000000000017 C 552.5430500338415 503.50000000000017 463.0000000000002 413.9569499661588 463.0000000000002 303.5000000000001 C 463.0000000000002 193.0430500338414 552.5430500338415 103.50000000000006 663.0000000000001 103.50000000000006 C 773.4569499661587 103.50000000000006 863 193.0430500338414 863 303.5000000000001 Z" stroke-opacity="0.6980392156862745" stroke-linecap="round" stroke-linejoin="round" stroke-miterlimit="10" stroke-width="2.5"/><path fill="rgb(0,0,0)" stroke="none" paint-order="stroke fill markers" fill-rule="evenodd" d=" M 463.0000000000002 103.50000000000006 L 463.0000000000002 124.71320343559508 L 484.21320343559665 124.7132034355965 L 484.21320343559523 103.50000000000006 L 463.0000000000002 103.50000000000006" fill-opacity="0.09803921568627451"/><path fill="none" stroke="rgb(0,0,0)" paint-order="fill stroke markers" d=" M 463.0000000000002 103.50000000000006 L 463.0000000000002 124.71320343559508 L 484.21320343559665 124.7132034355965 L 484.21320343559523 103.50000000000006 L 463.0000000000002 103.50000000000006" stroke-opacity="0.6" stroke-linecap="round" stroke-linejoin="round" stroke-miterlimit="10" stroke-width="2.5"/><path fill="rgb(0,0,0)" stroke="none" paint-order="stroke fill markers" fill-rule="evenodd" d=" M 863 103.50000000000006 L 841.786796564405 103.50000000000006 L 841.7867965644035 124.7132034355965 L 863 124.71320343559508 L 863 103.50000000000006" fill-opacity="0.09803921568627451"/><path fill="none" stroke="rgb(0,0,0)" paint-order="fill stroke markers" d=" M 863 103.50000000000006 L 841.786796564405 103.50000000000006 L 841.7867965644035 124.7132034355965 L 863 124.71320343559508 L 863 103.50000000000006" stroke-opacity="0.6" stroke-linecap="round" stroke-linejoin="round" stroke-miterlimit="10" stroke-width="2.5"/><path fill="rgb(0,0,0)" stroke="none" paint-order="stroke fill markers" fill-rule="evenodd" d=" M 863 503.50000000000017 L 863 482.28679656440517 L 841.7867965644036 482.28679656440374 L 841.786796564405 503.50000000000017 L 863 503.50000000000017" fill-opacity="0.09803921568627451"/><path fill="none" stroke="rgb(0,0,0)" paint-order="fill stroke markers" d=" M 863 503.50000000000017 L 863 482.28679656440517 L 841.7867965644036 482.28679656440374 L 841.786796564405 503.50000000000017 L 863 503.50000000000017" stroke-opacity="0.6" stroke-linecap="round" stroke-linejoin="round" stroke-miterlimit="10" stroke-width="2.5"/><path fill="rgb(0,0,0)" stroke="none" paint-order="stroke fill markers" fill-rule="evenodd" d=" M 463.0000000000002 503.50000000000017 L 484.21320343559523 503.50000000000017 L 484.21320343559665 482.28679656440374 L 463.0000000000002 482.28679656440517 L 463.0000000000002 503.50000000000017" fill-opacity="0.09803921568627451"/><path fill="none" stroke="rgb(0,0,0)" paint-order="fill stroke markers" d=" M 463.0000000000002 503.50000000000017 L 484.21320343559523 503.50000000000017 L 484.21320343559665 482.28679656440374 L 463.0000000000002 482.28679656440517 L 463.0000000000002 503.50000000000017" stroke-opacity="0.6" stroke-linecap="round" stroke-linejoin="round" stroke-miterlimit="10" stroke-width="2.5"/><path fill="rgb(0,0,0)" stroke="none" paint-order="stroke fill markers" fill-rule="evenodd" d=" M 463.0000000000002 303.5000000000001 L 484.21320343559523 303.5000000000001 L 484.21320343559665 282.2867965644037 L 463.0000000000002 282.2867965644051 L 463.0000000000002 303.5000000000001" fill-opacity="0.09803921568627451"/><path fill="none" stroke="rgb(0,0,0)" paint-order="fill stroke markers" d=" M 463.0000000000002 303.5000000000001 L 484.21320343559523 303.5000000000001 L 484.21320343559665 282.2867965644037 L 463.0000000000002 282.2867965644051 L 463.0000000000002 303.5000000000001" stroke-opacity="0.6" stroke-linecap="round" stroke-linejoin="round" stroke-miterlimit="10" stroke-width="2.5"/><path fill="rgb(0,0,0)" stroke="none" paint-order="stroke fill markers" fill-rule="evenodd" d=" M 663.0000000000001 103.50000000000006 L 641.7867965644051 103.50000000000006 L 641.7867965644036 124.7132034355965 L 663.0000000000001 124.71320343559508 L 663.0000000000001 103.50000000000006" fill-opacity="0.09803921568627451"/><path fill="none" stroke="rgb(0,0,0)" paint-order="fill stroke markers" d=" M 663.0000000000001 103.50000000000006 L 641.7867965644051 103.50000000000006 L 641.7867965644036 124.7132034355965 L 663.0000000000001 124.71320343559508 L 663.0000000000001 103.50000000000006" stroke-opacity="0.6" stroke-linecap="round" stroke-linejoin="round" stroke-miterlimit="10" stroke-width="2.5"/><path fill="rgb(0,0,0)" stroke="none" paint-order="stroke fill markers" fill-rule="evenodd" d=" M 663.0000000000001 503.50000000000017 L 684.2132034355951 503.50000000000017 L 684.2132034355966 482.28679656440374 L 663.0000000000001 482.28679656440517 L 663.0000000000001 503.50000000000017" fill-opacity="0.09803921568627451"/><path fill="none" stroke="rgb(0,0,0)" paint-order="fill stroke markers" d=" M 663.0000000000001 503.50000000000017 L 684.2132034355951 503.50000000000017 L 684.2132034355966 482.28679656440374 L 663.0000000000001 482.28679656440517 L 663.0000000000001 503.50000000000017" stroke-opacity="0.6" stroke-linecap="round" stroke-linejoin="round" stroke-miterlimit="10" stroke-width="2.5"/><path fill="rgb(0,0,0)" stroke="none" paint-order="stroke fill markers" fill-rule="evenodd" d=" M 863 303.5000000000001 L 841.786796564405 303.5000000000001 L 841.7867965644035 324.71320343559654 L 863 324.7132034355951 L 863 303.5000000000001" fill-opacity="0.09803921568627451"/><path fill="none" stroke="rgb(0,0,0)" paint-order="fill stroke markers" d=" M 863 303.5000000000001 L 841.786796564405 303.5000000000001 L 841.7867965644035 324.71320343559654 L 863 324.7132034355951 L 863 303.5000000000001" stroke-opacity="0.6" stroke-linecap="round" stroke-linejoin="round" stroke-miterlimit="10" stroke-width="2.5"/><path fill="none" stroke="rgb(0,0,0)" paint-order="fill stroke markers" d=" M 663.0000000000001 561 L 663.0000000000001 -5" stroke-opacity="0.6980392156862745" stroke-linecap="round" stroke-linejoin="round" stroke-miterlimit="10" stroke-width="2.5"/><path fill="none" stroke="rgb(0,0,0)" paint-order="fill stroke markers" d=" M -5 303.5000000000001 L 1315 303.5000000000001" stroke-opacity="0.6980392156862745" stroke-linecap="round" stroke-linejoin="round" stroke-miterlimit="10" stroke-width="2.5"/><path fill="none" stroke="rgb(0,0,0)" paint-order="fill stroke markers" d=" M -5 103.50000000000006 L 1315 103.50000000000006" stroke-opacity="0.6980392156862745" stroke-linecap="round" stroke-linejoin="round" stroke-miterlimit="10" stroke-width="2.5"/><path fill="none" stroke="rgb(0,0,0)" paint-order="fill stroke markers" d=" M 463.0000000000002 561 L 463.0000000000002 -5" stroke-opacity="0.6980392156862745" stroke-linecap="round" stroke-linejoin="round" stroke-miterlimit="10" stroke-width="2.5"/><path fill="none" stroke="rgb(0,0,0)" paint-order="fill stroke markers" d=" M 863 561 L 863 -5" stroke-opacity="0.6980392156862745" stroke-linecap="round" stroke-linejoin="round" stroke-miterlimit="10" stroke-width="2.5"/><path fill="none" stroke="rgb(0,0,0)" paint-order="fill stroke markers" d=" M -5 503.50000000000017 L 1315 503.50000000000017" stroke-opacity="0.6980392156862745" stroke-linecap="round" stroke-linejoin="round" stroke-miterlimit="10" stroke-width="2.5"/><path fill="rgb(21,101,192)" stroke="none" paint-order="stroke fill markers" d=" M 668.0000000000001 303.5000000000001 C 668.0000000000001 306.26142374915406 665.7614237491541 308.5000000000001 663.0000000000001 308.5000000000001 C 660.2385762508461 308.5000000000001 658.0000000000001 306.26142374915406 658.0000000000001 303.5000000000001 C 658.0000000000001 300.73857625084617 660.2385762508461 298.5000000000001 663.0000000000001 298.5000000000001 C 665.7614237491541 298.5000000000001 668.0000000000001 300.73857625084617 668.0000000000001 303.5000000000001 Z" fill-opacity="1"/><path fill="none" stroke="rgb(0,0,0)" paint-order="fill stroke markers" d=" M 668.0000000000001 303.5000000000001 C 668.0000000000001 306.26142374915406 665.7614237491541 308.5000000000001 663.0000000000001 308.5000000000001 C 660.2385762508461 308.5000000000001 658.0000000000001 306.26142374915406 658.0000000000001 303.5000000000001 C 658.0000000000001 300.73857625084617 660.2385762508461 298.5000000000001 663.0000000000001 298.5000000000001 C 665.7614237491541 298.5000000000001 668.0000000000001 300.73857625084617 668.0000000000001 303.5000000000001 Z" stroke-opacity="1" stroke-linecap="round" stroke-linejoin="round" stroke-miterlimit="10"/><path fill="rgb(46,125,50)" stroke="none" paint-order="stroke fill markers" d=" M 668.0000000000001 103.50000000000006 C 668.0000000000001 106.26142374915402 665.7614237491541 108.50000000000006 663.0000000000001 108.50000000000006 C 660.2385762508461 108.50000000000006 658.0000000000001 106.26142374915402 658.0000000000001 103.50000000000006 C 658.0000000000001 100.7385762508461 660.2385762508461 98.50000000000006 663.0000000000001 98.50000000000006 C 665.7614237491541 98.50000000000006 668.0000000000001 100.7385762508461 668.0000000000001 103.50000000000006 Z" fill-opacity="1"/><path fill="none" stroke="rgb(0,0,0)" paint-order="fill stroke markers" d=" M 668.0000000000001 103.50000000000006 C 668.0000000000001 106.26142374915402 665.7614237491541 108.50000000000006 663.0000000000001 108.50000000000006 C 660.2385762508461 108.50000000000006 658.0000000000001 106.26142374915402 658.0000000000001 103.50000000000006 C 658.0000000000001 100.7385762508461 660.2385762508461 98.50000000000006 663.0000000000001 98.50000000000006 C 665.7614237491541 98.50000000000006 668.0000000000001 100.7385762508461 668.0000000000001 103.50000000000006 Z" stroke-opacity="1" stroke-linecap="round" stroke-linejoin="round" stroke-miterlimit="10"/><path fill="rgb(46,125,50)" stroke="none" paint-order="stroke fill markers" d=" M 668.0000000000001 503.50000000000017 C 668.0000000000001 506.2614237491541 665.7614237491541 508.50000000000017 663.0000000000001 508.50000000000017 C 660.2385762508461 508.50000000000017 658.0000000000001 506.2614237491541 658.0000000000001 503.50000000000017 C 658.0000000000001 500.7385762508462 660.2385762508461 498.50000000000017 663.0000000000001 498.50000000000017 C 665.7614237491541 498.50000000000017 668.0000000000001 500.7385762508462 668.0000000000001 503.50000000000017 Z" fill-opacity="1"/><path fill="none" stroke="rgb(0,0,0)" paint-order="fill stroke markers" d=" M 668.0000000000001 503.50000000000017 C 668.0000000000001 506.2614237491541 665.7614237491541 508.50000000000017 663.0000000000001 508.50000000000017 C 660.2385762508461 508.50000000000017 658.0000000000001 506.2614237491541 658.0000000000001 503.50000000000017 C 658.0000000000001 500.7385762508462 660.2385762508461 498.50000000000017 663.0000000000001 498.50000000000017 C 665.7614237491541 498.50000000000017 668.0000000000001 500.7385762508462 668.0000000000001 503.50000000000017 Z" stroke-opacity="1" stroke-linecap="round" stroke-linejoin="round" stroke-miterlimit="10"/><path fill="rgb(46,125,50)" stroke="none" paint-order="stroke fill markers" d=" M 468.0000000000002 303.5000000000001 C 468.0000000000002 306.26142374915406 465.7614237491542 308.5000000000001 463.0000000000002 308.5000000000001 C 460.2385762508463 308.5000000000001 458.0000000000002 306.26142374915406 458.0000000000002 303.5000000000001 C 458.0000000000002 300.73857625084617 460.2385762508463 298.5000000000001 463.0000000000002 298.5000000000001 C 465.7614237491542 298.5000000000001 468.0000000000002 300.73857625084617 468.0000000000002 303.5000000000001 Z" fill-opacity="1"/><path fill="none" stroke="rgb(0,0,0)" paint-order="fill stroke markers" d=" M 468.0000000000002 303.5000000000001 C 468.0000000000002 306.26142374915406 465.7614237491542 308.5000000000001 463.0000000000002 308.5000000000001 C 460.2385762508463 308.5000000000001 458.0000000000002 306.26142374915406 458.0000000000002 303.5000000000001 C 458.0000000000002 300.73857625084617 460.2385762508463 298.5000000000001 463.0000000000002 298.5000000000001 C 465.7614237491542 298.5000000000001 468.0000000000002 300.73857625084617 468.0000000000002 303.5000000000001 Z" stroke-opacity="1" stroke-linecap="round" stroke-linejoin="round" stroke-miterlimit="10"/><path fill="rgb(46,125,50)" stroke="none" paint-order="stroke fill markers" d=" M 868 303.5000000000001 C 868 306.26142374915406 865.761423749154 308.5000000000001 863 308.5000000000001 C 860.238576250846 308.5000000000001 858 306.26142374915406 858 303.5000000000001 C 858 300.73857625084617 860.238576250846 298.5000000000001 863 298.5000000000001 C 865.761423749154 298.5000000000001 868 300.73857625084617 868 303.5000000000001 Z" fill-opacity="1"/><path fill="none" stroke="rgb(0,0,0)" paint-order="fill stroke markers" d=" M 868 303.5000000000001 C 868 306.26142374915406 865.761423749154 308.5000000000001 863 308.5000000000001 C 860.238576250846 308.5000000000001 858 306.26142374915406 858 303.5000000000001 C 858 300.73857625084617 860.238576250846 298.5000000000001 863 298.5000000000001 C 865.761423749154 298.5000000000001 868 300.73857625084617 868 303.5000000000001 Z" stroke-opacity="1" stroke-linecap="round" stroke-linejoin="round" stroke-miterlimit="10"/><path fill="rgb(211,47,47)" stroke="none" paint-order="stroke fill markers" d=" M 468.0000000000002 103.50000000000006 C 468.0000000000002 106.26142374915402 465.7614237491542 108.50000000000006 463.0000000000002 108.50000000000006 C 460.2385762508463 108.50000000000006 458.0000000000002 106.26142374915402 458.0000000000002 103.50000000000006 C 458.0000000000002 100.7385762508461 460.2385762508463 98.50000000000006 463.0000000000002 98.50000000000006 C 465.7614237491542 98.50000000000006 468.0000000000002 100.7385762508461 468.0000000000002 103.50000000000006 Z" fill-opacity="1"/><path fill="none" stroke="rgb(0,0,0)" paint-order="fill stroke markers" d=" M 468.0000000000002 103.50000000000006 C 468.0000000000002 106.26142374915402 465.7614237491542 108.50000000000006 463.0000000000002 108.50000000000006 C 460.2385762508463 108.50000000000006 458.0000000000002 106.26142374915402 458.0000000000002 103.50000000000006 C 458.0000000000002 100.7385762508461 460.2385762508463 98.50000000000006 463.0000000000002 98.50000000000006 C 465.7614237491542 98.50000000000006 468.0000000000002 100.7385762508461 468.0000000000002 103.50000000000006 Z" stroke-opacity="1" stroke-linecap="round" stroke-linejoin="round" stroke-miterlimit="10"/><path fill="rgb(211,47,47)" stroke="none" paint-order="stroke fill markers" d=" M 868 103.50000000000006 C 868 106.26142374915402 865.761423749154 108.50000000000006 863 108.50000000000006 C 860.238576250846 108.50000000000006 858 106.26142374915402 858 103.50000000000006 C 858 100.7385762508461 860.238576250846 98.50000000000006 863 98.50000000000006 C 865.761423749154 98.50000000000006 868 100.7385762508461 868 103.50000000000006 Z" fill-opacity="1"/><path fill="none" stroke="rgb(0,0,0)" paint-order="fill stroke markers" d=" M 868 103.50000000000006 C 868 106.26142374915402 865.761423749154 108.50000000000006 863 108.50000000000006 C 860.238576250846 108.50000000000006 858 106.26142374915402 858 103.50000000000006 C 858 100.7385762508461 860.238576250846 98.50000000000006 863 98.50000000000006 C 865.761423749154 98.50000000000006 868 100.7385762508461 868 103.50000000000006 Z" stroke-opacity="1" stroke-linecap="round" stroke-linejoin="round" stroke-miterlimit="10"/><path fill="rgb(211,47,47)" stroke="none" paint-order="stroke fill markers" d=" M 868 503.50000000000017 C 868 506.2614237491541 865.761423749154 508.50000000000017 863 508.50000000000017 C 860.238576250846 508.50000000000017 858 506.2614237491541 858 503.50000000000017 C 858 500.7385762508462 860.238576250846 498.50000000000017 863 498.50000000000017 C 865.761423749154 498.50000000000017 868 500.7385762508462 868 503.50000000000017 Z" fill-opacity="1"/><path fill="none" stroke="rgb(0,0,0)" paint-order="fill stroke markers" d=" M 868 503.50000000000017 C 868 506.2614237491541 865.761423749154 508.50000000000017 863 508.50000000000017 C 860.238576250846 508.50000000000017 858 506.2614237491541 858 503.50000000000017 C 858 500.7385762508462 860.238576250846 498.50000000000017 863 498.50000000000017 C 865.761423749154 498.50000000000017 868 500.7385762508462 868 503.50000000000017 Z" stroke-opacity="1" stroke-linecap="round" stroke-linejoin="round" stroke-miterlimit="10"/><path fill="rgb(211,47,47)" stroke="none" paint-order="stroke fill markers" d=" M 468.0000000000002 503.50000000000017 C 468.0000000000002 506.2614237491541 465.7614237491542 508.50000000000017 463.0000000000002 508.50000000000017 C 460.2385762508463 508.50000000000017 458.0000000000002 506.2614237491541 458.0000000000002 503.50000000000017 C 458.0000000000002 500.7385762508462 460.2385762508463 498.50000000000017 463.0000000000002 498.50000000000017 C 465.7614237491542 498.50000000000017 468.0000000000002 500.7385762508462 468.0000000000002 503.50000000000017 Z" fill-opacity="1"/><path fill="none" stroke="rgb(0,0,0)" paint-order="fill stroke markers" d=" M 468.0000000000002 503.50000000000017 C 468.0000000000002 506.2614237491541 465.7614237491542 508.50000000000017 463.0000000000002 508.50000000000017 C 460.2385762508463 508.50000000000017 458.0000000000002 506.2614237491541 458.0000000000002 503.50000000000017 C 458.0000000000002 500.7385762508462 460.2385762508463 498.50000000000017 463.0000000000002 498.50000000000017 C 465.7614237491542 498.50000000000017 468.0000000000002 500.7385762508462 468.0000000000002 503.50000000000017 Z" stroke-opacity="1" stroke-linecap="round" stroke-linejoin="round" stroke-miterlimit="10"/></g></g></svg>