<svg version="1.1" xmlns="http://www.w3.org/2000/svg" xmlns:xlink="http://www.w3.org/1999/xlink" width="1310" height="556"><defs><clipPath id="TcFTrkwmRVsr"><path fill="none" stroke="none" d=" M 0 0 L 1310 0 L 1310 556 L 0 556 L 0 0 Z"/></clipPath></defs><g transform="scale(1,1)" clip-path="url(#TcFTrkwmRVsr)"><g><rect fill="rgb(255,255,255)" stroke="none" x="0" y="0" width="1310" height="556" fill-opacity="1"/><path fill="none" stroke="rgb(0,0,0)" paint-order="fill stroke markers" d=" M 863 303.5000000000001 C 863 413.9569499661588 773.4569499661587 503.50000000000017 663.0000000000001 503.50000000000017 C 552.5430500338415 503.50000000000017 463.0000000000002 413.9569499661588 463.0000000000002 303.5000000000001 C 463.0000000000002 193.0430500338414 552.5430500338415 103.50000000000006 663.0000000000001 103.50000000000006 C 773.4569499661587 103.50000000000006 863 193.0430500338414 863 303.5000000000001 Z" stroke-opacity="0.6980392156862745" stroke-linecap="round" stroke-linejoin="round" stroke-miterlimit="10" stroke-width="2.5"/><path fill="rgb(0,0,0)" stroke="none" paint-order="stroke fill markers" fill-rule="evenodd" d=" M 663.0000000000001 303.5000000000001 L 684.2132034355951 303.5000000000001 L 684.2132034355966 282.2867965644037 L 663.0000000000001 282.2867965644051 L 663.0000000000001 303.5000000000001" fill-opacity="0.09803921568627451"/><path fill="none" stroke="rgb(0,0,0)" paint-order="fill stroke markers" d=" M 663.0000000000001 303.5000000000001 L 684.2132034355951 303.5000000000001 L 684.2132034355966 282.2867965644037 L 663.0000000000001 282.2867965644051 L 663.0000000000001 303.5000000000001" stroke-opacity="0.6" stroke-linecap="round" stroke-linejoin="round" stroke-miterlimit="10" stroke-width="2.5"/><path fill="none" stroke="rgb(0,0,0)" paint-order="fill stroke markers" d=" M 663.0000000000001 561 L 663.0000000000001 -5" stroke-opacity="0.6980392156862745" stroke-linecap="round" stroke-linejoin="round" stroke-miterlimit="10" stroke-width="2.5"/><path fill="none" stroke="rgb(0,0,0)" paint-order="fill stroke markers" d=" M -5 303.5000000000001 L 1315 303.5000000000001" stroke-opacity="0.6980392156862745" stroke-linecap="round" stroke-linejoin="round" stroke-miterlimit="10" stroke-width="2.5"/><path fill="none" stroke="rgb(0,0,0)" paint-order="fill stroke markers" d=" M 663.0000000000001 103.50000000000006 L 463.0000000000002 303.5000000000001" stroke-opacity="0.6980392156862745" stroke-linecap="round" stroke-linejoin="round" stroke-miterlimit="10" stroke-width="2.5"/><path fill="none" stroke="rgb(0,0,0)" paint-order="fill stroke markers" d=" M 663.0000000000001 503.50000000000017 L 463.0000000000002 303.5000000000001" stroke-opacity="0.6980392156862745" stroke-linecap="round" stroke-linejoin="round" stroke-miterlimit="10" stroke-width="2.5"/><path fill="none" stroke="rgb(0,0,0)" paint-order="fill stroke markers" d=" M 663.0000000000001 103.50000000000006 L 863 303.5000000000001" stroke-opacity="0.6980392156862745" stroke-linecap="round" stroke-linejoin="round" stroke-miterlimit="10" stroke-width="2.5"/><path fill="none" stroke="rgb(0,0,0)" paint-order="fill stroke markers" d=" M 663.0000000000001 503.50000000000017 L 863 303.5000000000001" stroke-opacity="0.6980392156862745" stroke-linecap="round" stroke-linejoin="round" stroke-miterlimit="10" stroke-width="2.5"/><path fill="rgb(21,101,192)" stroke="none" paint-order="stroke fill markers" d=" M 668.0000000000001 303.5000000000001 C 668.0000000000001 306.26142374915406 665.7614237491541 308.5000000000001 663.0000000000001 308.5000000000001 C 660.2385762508461 308.5000000000001 658.0000000000001 306.26142374915406 658.0000000000001 303.5000000000001 C 658.0000000000001 300.73857625084617 660.2385762508461 298.5000000000001 663.0000000000001 298.5000000000001 C 665.7614237491541 298.5000000000001 668.0000000000001 300.73857625084617 668.0000000000001 303.5000000000001 Z" fill-opacity="1"/><path fill="none" stroke="rgb(0,0,0)" paint-order="fill stroke markers" d=" M 668.0000000000001 303.5000000000001 C 668.0000000000001 306.26142374915406 665.7614237491541 308.5000000000001 663.0000000000001 308.5000000000001 C 660.2385762508461 308.5000000000001 658.0000000000001 306.26142374915406 658.0000000000001 303.5000000000001 C 658.0000000000001 300.73857625084617 660.2385762508461 298.5000000000001 663.0000000000001 298.5000000000001 C 665.7614237491541 298.5000000000001 668.0000000000001 300.73857625084617 668.0000000000001 303.5000000000001 Z" stroke-opacity="1" stroke-linecap="round" stroke-linejoin="round" stroke-miterlimit="10"/><path fill="rgb(46,125,50)" stroke="none" paint-order="stroke fill markers" d=" M 668.0000000000001 103.50000000000006 C 668.0000000000001 106.26142374915402 665.7614237491541 108.50000000000006 663.0000000000001 108.50000000000006 C 660.2385762508461 108.50000000000006 658.0000000000001 106.26142374915402 658.0000000000001 103.50000000000006 C 658.0000000000001 100.7385762508461 660.2385762508461 98.50000000000006 663.0000000000001 98.50000000000006 C 665.7614237491541 98.50000000000006 668.0000000000001 100.7385762508461 668.0000000000001 103.50000000000006 Z" fill-opacity="1"/><path fill="none" stroke="rgb(0,0,0)" paint-order="fill stroke markers" d=" M 668.0000000000001 103.50000000000006 C 668.0000000000001 106.26142374915402 665.7614237491541 108.50000000000006 663.0000000000001 108.50000000000006 C 660.2385762508461 108.50000000000006 658.0000000000001 106.26142374915402 658.0000000000001 103.50000000000006 C 658.0000000000001 100.7385762508461 660.2385762508461 98.50000000000006 663.0000000000001 98.50000000000006 C 665.7614237491541 98.50000000000006 668.0000000000001 100.7385762508461 668.0000000000001 103.50000000000006 Z" stroke-opacity="1" stroke-linecap="round" stroke-linejoin="round" stroke-miterlimit="10"/><path fill="rgb(46,125,50)" stroke="none" paint-order="stroke fill markers" d=" M 668.0000000000001 503.50000000000017 C 668.0000000000001 506.2614237491541 665.7614237491541 508.50000000000017 663.0000000000001 508.50000000000017 C 660.2385762508461 508.50000000000017 658.0000000000001 506.2614237491541 658.0000000000001 503.50000000000017 C 658.0000000000001 500.7385762508462 660.2385762508461 498.50000000000017 663.0000000000001 498.50000000000017 C 665.7614237491541 498.50000000000017 668.0000000000001 500.7385762508462 668.0000000000001 503.50000000000017 Z" fill-opacity="1"/><path fill="none" stroke="rgb(0,0,0)" paint-order="fill stroke markers" d=" M 668.0000000000001 503.50000000000017 C 668.0000000000001 506.2614237491541 665.7614237491541 508.50000000000017 663.0000000000001 508.50000000000017 C 660.2385762508461 508.50000000000017 658.0000000000001 506.2614237491541 658.0000000000001 503.50000000000017 C 658.0000000000001 500.7385762508462 660.2385762508461 498.50000000000017 663.0000000000001 498.50000000000017 C 665.7614237491541 498.50000000000017 668.0000000000001 500.7385762508462 668.0000000000001 503.50000000000017 Z" stroke-opacity="1" stroke-linecap="round" stroke-linejoin="round" stroke-miterlimit="10"/><path fill="rgb(46,125,50)" stroke="none" paint-order="stroke fill markers" d=" M 468.0000000000002 303.5000000000001 C 468.0000000000002 306.26142374915406 465.7614237491542 308.5000000000001 463.0000000000002 308.5000000000001 C 460.2385762508463 308.5000000000001 458.0000000000002 306.26142374915406 458.0000000000002 303.5000000000001 C 458.0000000000002 300.73857625084617 460.2385762508463 298.5000000000001 463.0000000000002 298.5000000000001 C 465.7614237491542 298.5000000000001 468.0000000000002 300.73857625084617 468.0000000000002 303.5000000000001 Z" fill-opacity="1"/><path fill="none" stroke="rgb(0,0,0)" paint-order="fill stroke markers" d=" M 468.0000000000002 303.5000000000001 C 468.0000000000002 306.26142374915406 465.7614237491542 308.5000000000001 463.0000000000002 308.5000000000001 C 460.2385762508463 308.5000000000001 458.0000000000002 306.26142374915406 458.0000000000002 303.5000000000001 C 458.0000000000002 300.73857625084617 460.2385762508463 298.5000000000001 463.0000000000002 298.5000000000001 C 465.7614237491542 298.5000000000001 468.0000000000002 300.73857625084617 468.0000000000002 303.5000000000001 Z" stroke-opacity="1" stroke-linecap="round" stroke-linejoin="round" stroke-miterlimit="10"/><path fill="rgb(46,125,50)" stroke="none" paint-order="stroke fill markers" d=" M 868 303.5000000000001 C 868 306.26142374915406 865.761423749154 308.5000000000001 863 308.5000000000001 C 860.238576250846 308.5000000000001 858 306.26142374915406 858 303.5000000000001 C 858 300.73857625084617 860.238576250846 298.5000000000001 863 298.5000000000001 C 865.761423749154 298.5000000000001 868 300.73857625084617 868 303.5000000000001 Z" fill-opacity="1"/><path fill="none" stroke="rgb(0,0,0)" paint-order="fill stroke markers" d=" M 868 303.5000000000001 C 868 306.26142374915406 865.761423749154 308.5000000000001 863 308.5000000000001 C 860.238576250846 308.5000000000001 858 306.26142374915406 858 303.5000000000001 C 858 300.73857625084617 860.238576250846 298.5000000000001 863 298.5000000000001 C 865.761423749154 298.5000000000001 868 300.73857625084617 868 303.5000000000001 Z" stroke-opacity="1" stroke-linecap="round" stroke-linejoin="round" stroke-miterlimit="10"/></g></g></svg>