<svg version="1.1" xmlns="http://www.w3.org/2000/svg" xmlns:xlink="http://www.w3.org/1999/xlink" width="1310" height="704"><defs><clipPath id="vdOETIgRwOFF"><path fill="none" stroke="none" d=" M 0 0 L 1310 0 L 1310 704 L 0 704 L 0 0 Z"/></clipPath></defs><g transform="scale(1,1)" clip-path="url(#vdOETIgRwOFF)"><g><rect fill="rgb(255,255,255)" stroke="none" x="0" y="0" width="1310" height="704" fill-opacity="1"/><path fill="none" stroke="rgb(21,101,192)" paint-order="fill stroke markers" d=" M 952.0000000000001 357.00000000000006 L 929.0708160361928 241.97059984056992 L 863.867166598937 144.4719102168223 L 766.3157162425011 79.34722279615033 L 651.2677889775528 56.51118088158984 L 536.2383888181228 79.4403648453972 L 438.73969919437513 144.64401428265293 L 373.61501177370326 242.19546463908887 L 350.77896985914276 357.2433919040373 L 373.70815382295007 472.2727920634674 L 438.9118032602058 569.7714816872151 L 536.4632536166416 634.896169107887 L 651.51118088159 657.7322110224475 L 766.5405810410202 634.80302705864 L 864.0392706647676 569.5993776213845 L 929.1639580854396 472.04792726494867 Z" stroke-opacity="0.8" stroke-linecap="round" stroke-linejoin="round" stroke-miterlimit="10" stroke-width="2.5"/><path fill="none" stroke="rgb(0,0,0)" paint-order="fill stroke markers" d=" M 952.0000000000001 357.00000000000006 C 952.0000000000001 522.685424949238 817.6854249492382 657.0000000000001 652.0000000000002 657.0000000000001 C 486.3145750507623 657.0000000000001 352.00000000000034 522.685424949238 352.00000000000034 357.00000000000006 C 352.00000000000034 191.31457505076202 486.3145750507623 57 652.0000000000002 57 C 817.6854249492382 57 952.0000000000001 191.31457505076202 952.0000000000001 357.00000000000006 Z" stroke-opacity="0.6980392156862745" stroke-linecap="round" stroke-linejoin="round" stroke-miterlimit="10" stroke-width="2.5"/><path fill="rgb(0,0,0)" stroke="none" paint-order="stroke fill markers" d=" M 697.0000000000002 357.00000000000006 C 697.0000000000002 351.0782528627433 695.8312058090773 345.21473434835127 693.5606224054292 339.7455899760855 L 652.0000000000002 357.00000000000006 Z" fill-opacity="0.09803921568627451"/><path fill="none" stroke="rgb(0,0,0)" paint-order="fill stroke markers" d=" M 697.0000000000002 357.00000000000006 C 697.0000000000002 351.0782528627433 695.8312058090773 345.21473434835127 693.5606224054292 339.7455899760855 L 652.0000000000002 357.00000000000006 Z" stroke-opacity="0.6" stroke-linecap="round" stroke-linejoin="round" stroke-miterlimit="10" stroke-width="2.5"/><g transform="scale(27,27)"><g transform="translate(24.19242654858815,10.949073518518519)"><path fill="rgb(0,0,0)" stroke="none" paint-order="stroke fill markers" d=" M 0.265 -0.373 L 0.265 -0.373 L 0.209 -0.152 Q 0.192 -0.088 0.182 -0.054 Q 0.166 -0.005 0.152 0.005 L 0.152 0.006 Q 0.14300000000000002 0.011 0.132 0.011 Q 0.109 0.011 0.10400000000000001 -0.009000000000000001 Q 0.10300000000000001 -0.012 0.10300000000000001 -0.016 Q 0.10300000000000001 -0.025 0.111 -0.04 Q 0.20500000000000002 -0.243 0.23900000000000002 -0.373 L 0.182 -0.373 Q 0.10400000000000001 -0.373 0.055 -0.296 Q 0.046 -0.28400000000000003 0.039 -0.28400000000000003 Q 0.027 -0.28400000000000003 0.027 -0.294 Q 0.027 -0.305 0.063 -0.354 Q 0.07 -0.362 0.076 -0.37 Q 0.079 -0.374 0.083 -0.378 Q 0.085 -0.381 0.088 -0.384 Q 0.132 -0.431 0.192 -0.431 L 0.527 -0.431 Q 0.561 -0.431 0.5660000000000001 -0.41600000000000004 L 0.5660000000000001 -0.41500000000000004 Q 0.5670000000000001 -0.41200000000000003 0.5670000000000001 -0.40700000000000003 Q 0.5670000000000001 -0.373 0.518 -0.373 L 0.404 -0.373 Q 0.386 -0.28800000000000003 0.386 -0.214 Q 0.386 -0.121 0.41500000000000004 -0.049 Q 0.421 -0.035 0.421 -0.027 Q 0.421 -0.004 0.396 0.007 Q 0.388 0.011 0.38 0.011 Q 0.36 0.011 0.35000000000000003 -0.017 Q 0.34700000000000003 -0.026000000000000002 0.34400000000000003 -0.039 Q 0.336 -0.073 0.336 -0.115 Q 0.336 -0.181 0.363 -0.306 L 0.378 -0.373 L 0.265 -0.373 Z"/></g><rect fill="rgb(0,0,0)" stroke="none" x="24.19242654858815" y="11.355582018518518" width="0.605906" height="0.039999"/><g transform="translate(24.24537854858815,12.311532518518518)"><path fill="rgb(0,0,0)" stroke="none" paint-order="stroke fill markers" d=" M 0.163 -0.457 L 0.28700000000000003 -0.377 Q 0.386 -0.435 0.386 -0.517 Q 0.386 -0.583 0.326 -0.62 Q 0.291 -0.641 0.249 -0.641 Q 0.177 -0.641 0.136 -0.596 L 0.136 -0.596 L 0.135 -0.595 Q 0.113 -0.5690000000000001 0.113 -0.538 Q 0.113 -0.49 0.163 -0.457 M 0.309 -0.362 L 0.309 -0.362 Q 0.386 -0.314 0.403 -0.296 Q 0.406 -0.294 0.40800000000000003 -0.291 Q 0.457 -0.23700000000000002 0.457 -0.168 Q 0.457 -0.079 0.383 -0.023 Q 0.325 0.022 0.249 0.022 Q 0.154 0.022 0.092 -0.037 Q 0.042 -0.085 0.042 -0.151 Q 0.042 -0.263 0.186 -0.335 Q 0.124 -0.377 0.113 -0.389 Q 0.069 -0.438 0.069 -0.499 Q 0.069 -0.579 0.136 -0.629 Q 0.186 -0.666 0.25 -0.666 Q 0.337 -0.666 0.391 -0.611 Q 0.43 -0.5710000000000001 0.43 -0.517 Q 0.43 -0.424 0.309 -0.362 M 0.209 -0.32 L 0.209 -0.32 Q 0.097 -0.25 0.092 -0.151 Q 0.092 -0.078 0.155 -0.035 Q 0.197 -0.006 0.25 -0.006 Q 0.328 -0.006 0.375 -0.055 Q 0.40700000000000003 -0.089 0.40700000000000003 -0.132 Q 0.40700000000000003 -0.19 0.343 -0.23500000000000001 Q 0.341 -0.23600000000000002 0.332 -0.242 L 0.209 -0.32 Z"/></g></g><path fill="none" stroke="rgb(21,101,192)" paint-order="fill stroke markers" d=" M 952.0000000000001 357.00000000000006 L 929.0708160361928 241.97059984056992" stroke-opacity="0.6980392156862745" stroke-linecap="round" stroke-linejoin="round" stroke-miterlimit="10" stroke-width="2.5"/><path fill="none" stroke="rgb(21,101,192)" paint-order="fill stroke markers" d=" M 929.0708160361928 241.97059984056992 L 863.867166598937 144.4719102168223" stroke-opacity="0.6980392156862745" stroke-linecap="round" stroke-linejoin="round" stroke-miterlimit="10" stroke-width="2.5"/><path fill="none" stroke="rgb(21,101,192)" paint-order="fill stroke markers" d=" M 863.867166598937 144.4719102168223 L 766.3157162425011 79.34722279615033" stroke-opacity="0.6980392156862745" stroke-linecap="round" stroke-linejoin="round" stroke-miterlimit="10" stroke-width="2.5"/><path fill="none" stroke="rgb(21,101,192)" paint-order="fill stroke markers" d=" M 766.3157162425011 79.34722279615033 L 651.2677889775528 56.51118088158984" stroke-opacity="0.6980392156862745" stroke-linecap="round" stroke-linejoin="round" stroke-miterlimit="10" stroke-width="2.5"/><path fill="none" stroke="rgb(21,101,192)" paint-order="fill stroke markers" d=" M 651.2677889775528 56.51118088158984 L 536.2383888181228 79.4403648453972" stroke-opacity="0.6980392156862745" stroke-linecap="round" stroke-linejoin="round" stroke-miterlimit="10" stroke-width="2.5"/><path fill="none" stroke="rgb(21,101,192)" paint-order="fill stroke markers" d=" M 536.2383888181228 79.4403648453972 L 438.73969919437513 144.64401428265293" stroke-opacity="0.6980392156862745" stroke-linecap="round" stroke-linejoin="round" stroke-miterlimit="10" stroke-width="2.5"/><path fill="none" stroke="rgb(21,101,192)" paint-order="fill stroke markers" d=" M 438.73969919437513 144.64401428265293 L 373.61501177370326 242.19546463908887" stroke-opacity="0.6980392156862745" stroke-linecap="round" stroke-linejoin="round" stroke-miterlimit="10" stroke-width="2.5"/><path fill="none" stroke="rgb(21,101,192)" paint-order="fill stroke markers" d=" M 373.61501177370326 242.19546463908887 L 350.77896985914276 357.2433919040373" stroke-opacity="0.6980392156862745" stroke-linecap="round" stroke-linejoin="round" stroke-miterlimit="10" stroke-width="2.5"/><path fill="none" stroke="rgb(21,101,192)" paint-order="fill stroke markers" d=" M 350.77896985914276 357.2433919040373 L 373.70815382295007 472.2727920634674" stroke-opacity="0.6980392156862745" stroke-linecap="round" stroke-linejoin="round" stroke-miterlimit="10" stroke-width="2.5"/><path fill="none" stroke="rgb(21,101,192)" paint-order="fill stroke markers" d=" M 373.70815382295007 472.2727920634674 L 438.9118032602058 569.7714816872151" stroke-opacity="0.6980392156862745" stroke-linecap="round" stroke-linejoin="round" stroke-miterlimit="10" stroke-width="2.5"/><path fill="none" stroke="rgb(21,101,192)" paint-order="fill stroke markers" d=" M 438.9118032602058 569.7714816872151 L 536.4632536166416 634.896169107887" stroke-opacity="0.6980392156862745" stroke-linecap="round" stroke-linejoin="round" stroke-miterlimit="10" stroke-width="2.5"/><path fill="none" stroke="rgb(21,101,192)" paint-order="fill stroke markers" d=" M 536.4632536166416 634.896169107887 L 651.51118088159 657.7322110224475" stroke-opacity="0.6980392156862745" stroke-linecap="round" stroke-linejoin="round" stroke-miterlimit="10" stroke-width="2.5"/><path fill="none" stroke="rgb(21,101,192)" paint-order="fill stroke markers" d=" M 651.51118088159 657.7322110224475 L 766.5405810410202 634.80302705864" stroke-opacity="0.6980392156862745" stroke-linecap="round" stroke-linejoin="round" stroke-miterlimit="10" stroke-width="2.5"/><path fill="none" stroke="rgb(21,101,192)" paint-order="fill stroke markers" d=" M 766.5405810410202 634.80302705864 L 864.0392706647676 569.5993776213845" stroke-opacity="0.6980392156862745" stroke-linecap="round" stroke-linejoin="round" stroke-miterlimit="10" stroke-width="2.5"/><path fill="none" stroke="rgb(21,101,192)" paint-order="fill stroke markers" d=" M 864.0392706647676 569.5993776213845 L 929.1639580854396 472.04792726494867" stroke-opacity="0.6980392156862745" stroke-linecap="round" stroke-linejoin="round" stroke-miterlimit="10" stroke-width="2.5"/><path fill="none" stroke="rgb(21,101,192)" paint-order="fill stroke markers" d=" M 929.1639580854396 472.04792726494867 L 952.0000000000001 357.00000000000006" stroke-opacity="0.6980392156862745" stroke-linecap="round" stroke-linejoin="round" stroke-miterlimit="10" stroke-width="2.5"/><path fill="none" stroke="rgb(0,0,0)" paint-order="fill stroke markers" d=" M 652.0000000000002 357.00000000000006 L 929.0708160361928 241.97059984056992" stroke-opacity="0.6980392156862745" stroke-linecap="round" stroke-linejoin="round" stroke-miterlimit="10" stroke-width="2.5"/><path fill="none" stroke="rgb(0,0,0)" paint-order="fill stroke markers" d=" M 652.0000000000002 357.00000000000006 L 952.0000000000001 357.00000000000006" stroke-opacity="0.6980392156862745" stroke-linecap="round" stroke-linejoin="round" stroke-miterlimit="10" stroke-width="2.5"/><path fill="rgb(211,47,47)" stroke="none" paint-order="stroke fill markers" d=" M 657.0000000000002 357.00000000000006 C 657.0000000000002 359.761423749154 654.7614237491542 362.00000000000006 652.0000000000002 362.00000000000006 C 649.2385762508462 362.00000000000006 647.0000000000002 359.761423749154 647.0000000000002 357.00000000000006 C 647.0000000000002 354.2385762508461 649.2385762508462 352.00000000000006 652.0000000000002 352.00000000000006 C 654.7614237491542 352.00000000000006 657.0000000000002 354.2385762508461 657.0000000000002 357.00000000000006 Z" fill-opacity="1"/><path fill="none" stroke="rgb(0,0,0)" paint-order="fill stroke markers" d=" M 657.0000000000002 357.00000000000006 C 657.0000000000002 359.761423749154 654.7614237491542 362.00000000000006 652.0000000000002 362.00000000000006 C 649.2385762508462 362.00000000000006 647.0000000000002 359.761423749154 647.0000000000002 357.00000000000006 C 647.0000000000002 354.2385762508461 649.2385762508462 352.00000000000006 652.0000000000002 352.00000000000006 C 654.7614237491542 352.00000000000006 657.0000000000002 354.2385762508461 657.0000000000002 357.00000000000006 Z" stroke-opacity="1" stroke-linecap="round" stroke-linejoin="round" stroke-miterlimit="10"/><path fill="rgb(46,125,50)" stroke="none" paint-order="stroke fill markers" d=" M 957.0000000000001 357.00000000000006 C 957.0000000000001 359.761423749154 954.7614237491541 362.00000000000006 952.0000000000001 362.00000000000006 C 949.2385762508461 362.00000000000006 947.0000000000001 359.761423749154 947.0000000000001 357.00000000000006 C 947.0000000000001 354.2385762508461 949.2385762508461 352.00000000000006 952.0000000000001 352.00000000000006 C 954.7614237491541 352.00000000000006 957.0000000000001 354.2385762508461 957.0000000000001 357.00000000000006 Z" fill-opacity="1"/><path fill="none" stroke="rgb(0,0,0)" paint-order="fill stroke markers" d=" M 957.0000000000001 357.00000000000006 C 957.0000000000001 359.761423749154 954.7614237491541 362.00000000000006 952.0000000000001 362.00000000000006 C 949.2385762508461 362.00000000000006 947.0000000000001 359.761423749154 947.0000000000001 357.00000000000006 C 947.0000000000001 354.2385762508461 949.2385762508461 352.00000000000006 952.0000000000001 352.00000000000006 C 954.7614237491541 352.00000000000006 957.0000000000001 354.2385762508461 957.0000000000001 357.00000000000006 Z" stroke-opacity="1" stroke-linecap="round" stroke-linejoin="round" stroke-miterlimit="10"/><path fill="rgb(46,125,50)" stroke="none" paint-order="stroke fill markers" d=" M 934.0708160361928 241.97059984056992 C 934.0708160361928 244.7320235897239 931.8322397853468 246.97059984056992 929.0708160361928 246.97059984056992 C 926.3093922870388 246.97059984056992 924.0708160361928 244.7320235897239 924.0708160361928 241.97059984056992 C 924.0708160361928 239.20917609141594 926.3093922870388 236.97059984056992 929.0708160361928 236.97059984056992 C 931.8322397853468 236.97059984056992 934.0708160361928 239.20917609141594 934.0708160361928 241.97059984056992 Z" fill-opacity="1"/><path fill="none" stroke="rgb(0,0,0)" paint-order="fill stroke markers" d=" M 934.0708160361928 241.97059984056992 C 934.0708160361928 244.7320235897239 931.8322397853468 246.97059984056992 929.0708160361928 246.97059984056992 C 926.3093922870388 246.97059984056992 924.0708160361928 244.7320235897239 924.0708160361928 241.97059984056992 C 924.0708160361928 239.20917609141594 926.3093922870388 236.97059984056992 929.0708160361928 236.97059984056992 C 931.8322397853468 236.97059984056992 934.0708160361928 239.20917609141594 934.0708160361928 241.97059984056992 Z" stroke-opacity="1" stroke-linecap="round" stroke-linejoin="round" stroke-miterlimit="10"/><path fill="rgb(97,97,97)" stroke="none" paint-order="stroke fill markers" d=" M 868.867166598937 144.4719102168223 C 868.867166598937 147.23333396597627 866.628590348091 149.4719102168223 863.867166598937 149.4719102168223 C 861.105742849783 149.4719102168223 858.867166598937 147.23333396597627 858.867166598937 144.4719102168223 C 858.867166598937 141.71048646766832 861.105742849783 139.4719102168223 863.867166598937 139.4719102168223 C 866.628590348091 139.4719102168223 868.867166598937 141.71048646766832 868.867166598937 144.4719102168223 Z" fill-opacity="1"/><path fill="none" stroke="rgb(0,0,0)" paint-order="fill stroke markers" d=" M 868.867166598937 144.4719102168223 C 868.867166598937 147.23333396597627 866.628590348091 149.4719102168223 863.867166598937 149.4719102168223 C 861.105742849783 149.4719102168223 858.867166598937 147.23333396597627 858.867166598937 144.4719102168223 C 858.867166598937 141.71048646766832 861.105742849783 139.4719102168223 863.867166598937 139.4719102168223 C 866.628590348091 139.4719102168223 868.867166598937 141.71048646766832 868.867166598937 144.4719102168223 Z" stroke-opacity="1" stroke-linecap="round" stroke-linejoin="round" stroke-miterlimit="10"/><path fill="rgb(97,97,97)" stroke="none" paint-order="stroke fill markers" d=" M 771.3157162425011 79.34722279615033 C 771.3157162425011 82.1086465453043 769.0771399916551 84.34722279615033 766.3157162425011 84.34722279615033 C 763.5542924933471 84.34722279615033 761.3157162425011 82.1086465453043 761.3157162425011 79.34722279615033 C 761.3157162425011 76.58579904699637 763.5542924933471 74.34722279615033 766.3157162425011 74.34722279615033 C 769.0771399916551 74.34722279615033 771.3157162425011 76.58579904699637 771.3157162425011 79.34722279615033 Z" fill-opacity="1"/><path fill="none" stroke="rgb(0,0,0)" paint-order="fill stroke markers" d=" M 771.3157162425011 79.34722279615033 C 771.3157162425011 82.1086465453043 769.0771399916551 84.34722279615033 766.3157162425011 84.34722279615033 C 763.5542924933471 84.34722279615033 761.3157162425011 82.1086465453043 761.3157162425011 79.34722279615033 C 761.3157162425011 76.58579904699637 763.5542924933471 74.34722279615033 766.3157162425011 74.34722279615033 C 769.0771399916551 74.34722279615033 771.3157162425011 76.58579904699637 771.3157162425011 79.34722279615033 Z" stroke-opacity="1" stroke-linecap="round" stroke-linejoin="round" stroke-miterlimit="10"/><path fill="rgb(97,97,97)" stroke="none" paint-order="stroke fill markers" d=" M 656.2677889775528 56.51118088158984 C 656.2677889775528 59.2726046307438 654.0292127267068 61.51118088158984 651.2677889775528 61.51118088158984 C 648.5063652283987 61.51118088158984 646.2677889775528 59.2726046307438 646.2677889775528 56.51118088158984 C 646.2677889775528 53.74975713243587 648.5063652283987 51.51118088158984 651.2677889775528 51.51118088158984 C 654.0292127267068 51.51118088158984 656.2677889775528 53.74975713243587 656.2677889775528 56.51118088158984 Z" fill-opacity="1"/><path fill="none" stroke="rgb(0,0,0)" paint-order="fill stroke markers" d=" M 656.2677889775528 56.51118088158984 C 656.2677889775528 59.2726046307438 654.0292127267068 61.51118088158984 651.2677889775528 61.51118088158984 C 648.5063652283987 61.51118088158984 646.2677889775528 59.2726046307438 646.2677889775528 56.51118088158984 C 646.2677889775528 53.74975713243587 648.5063652283987 51.51118088158984 651.2677889775528 51.51118088158984 C 654.0292127267068 51.51118088158984 656.2677889775528 53.74975713243587 656.2677889775528 56.51118088158984 Z" stroke-opacity="1" stroke-linecap="round" stroke-linejoin="round" stroke-miterlimit="10"/><path fill="rgb(97,97,97)" stroke="none" paint-order="stroke fill markers" d=" M 541.2383888181228 79.4403648453972 C 541.2383888181228 82.20178859455116 538.9998125672768 84.4403648453972 536.2383888181228 84.4403648453972 C 533.4769650689688 84.4403648453972 531.2383888181228 82.20178859455116 531.2383888181228 79.4403648453972 C 531.2383888181228 76.67894109624324 533.4769650689688 74.4403648453972 536.2383888181228 74.4403648453972 C 538.9998125672768 74.4403648453972 541.2383888181228 76.67894109624324 541.2383888181228 79.4403648453972 Z" fill-opacity="1"/><path fill="none" stroke="rgb(0,0,0)" paint-order="fill stroke markers" d=" M 541.2383888181228 79.4403648453972 C 541.2383888181228 82.20178859455116 538.9998125672768 84.4403648453972 536.2383888181228 84.4403648453972 C 533.4769650689688 84.4403648453972 531.2383888181228 82.20178859455116 531.2383888181228 79.4403648453972 C 531.2383888181228 76.67894109624324 533.4769650689688 74.4403648453972 536.2383888181228 74.4403648453972 C 538.9998125672768 74.4403648453972 541.2383888181228 76.67894109624324 541.2383888181228 79.4403648453972 Z" stroke-opacity="1" stroke-linecap="round" stroke-linejoin="round" stroke-miterlimit="10"/><path fill="rgb(97,97,97)" stroke="none" paint-order="stroke fill markers" d=" M 443.73969919437513 144.64401428265293 C 443.73969919437513 147.4054380318069 441.5011229435291 149.64401428265293 438.73969919437513 149.64401428265293 C 435.9782754452212 149.64401428265293 433.73969919437513 147.4054380318069 433.73969919437513 144.64401428265293 C 433.73969919437513 141.88259053349896 435.9782754452212 139.64401428265293 438.73969919437513 139.64401428265293 C 441.5011229435291 139.64401428265293 443.73969919437513 141.88259053349896 443.73969919437513 144.64401428265293 Z" fill-opacity="1"/><path fill="none" stroke="rgb(0,0,0)" paint-order="fill stroke markers" d=" M 443.73969919437513 144.64401428265293 C 443.73969919437513 147.4054380318069 441.5011229435291 149.64401428265293 438.73969919437513 149.64401428265293 C 435.9782754452212 149.64401428265293 433.73969919437513 147.4054380318069 433.73969919437513 144.64401428265293 C 433.73969919437513 141.88259053349896 435.9782754452212 139.64401428265293 438.73969919437513 139.64401428265293 C 441.5011229435291 139.64401428265293 443.73969919437513 141.88259053349896 443.73969919437513 144.64401428265293 Z" stroke-opacity="1" stroke-linecap="round" stroke-linejoin="round" stroke-miterlimit="10"/><path fill="rgb(97,97,97)" stroke="none" paint-order="stroke fill markers" d=" M 378.61501177370326 242.19546463908887 C 378.61501177370326 244.95688838824285 376.3764355228572 247.19546463908887 373.61501177370326 247.19546463908887 C 370.8535880245493 247.19546463908887 368.61501177370326 244.95688838824285 368.61501177370326 242.19546463908887 C 368.61501177370326 239.4340408899349 370.8535880245493 237.19546463908887 373.61501177370326 237.19546463908887 C 376.3764355228572 237.19546463908887 378.61501177370326 239.4340408899349 378.61501177370326 242.19546463908887 Z" fill-opacity="1"/><path fill="none" stroke="rgb(0,0,0)" paint-order="fill stroke markers" d=" M 378.61501177370326 242.19546463908887 C 378.61501177370326 244.95688838824285 376.3764355228572 247.19546463908887 373.61501177370326 247.19546463908887 C 370.8535880245493 247.19546463908887 368.61501177370326 244.95688838824285 368.61501177370326 242.19546463908887 C 368.61501177370326 239.4340408899349 370.8535880245493 237.19546463908887 373.61501177370326 237.19546463908887 C 376.3764355228572 237.19546463908887 378.61501177370326 239.4340408899349 378.61501177370326 242.19546463908887 Z" stroke-opacity="1" stroke-linecap="round" stroke-linejoin="round" stroke-miterlimit="10"/><path fill="rgb(97,97,97)" stroke="none" paint-order="stroke fill markers" d=" M 355.77896985914276 357.2433919040373 C 355.77896985914276 360.00481565319126 353.5403936082967 362.2433919040373 350.77896985914276 362.2433919040373 C 348.0175461099888 362.2433919040373 345.77896985914276 360.00481565319126 345.77896985914276 357.2433919040373 C 345.77896985914276 354.48196815488336 348.0175461099888 352.2433919040373 350.77896985914276 352.2433919040373 C 353.5403936082967 352.2433919040373 355.77896985914276 354.48196815488336 355.77896985914276 357.2433919040373 Z" fill-opacity="1"/><path fill="none" stroke="rgb(0,0,0)" paint-order="fill stroke markers" d=" M 355.77896985914276 357.2433919040373 C 355.77896985914276 360.00481565319126 353.5403936082967 362.2433919040373 350.77896985914276 362.2433919040373 C 348.0175461099888 362.2433919040373 345.77896985914276 360.00481565319126 345.77896985914276 357.2433919040373 C 345.77896985914276 354.48196815488336 348.0175461099888 352.2433919040373 350.77896985914276 352.2433919040373 C 353.5403936082967 352.2433919040373 355.77896985914276 354.48196815488336 355.77896985914276 357.2433919040373 Z" stroke-opacity="1" stroke-linecap="round" stroke-linejoin="round" stroke-miterlimit="10"/><path fill="rgb(97,97,97)" stroke="none" paint-order="stroke fill markers" d=" M 378.70815382295007 472.2727920634674 C 378.70815382295007 475.03421581262137 376.469577572104 477.2727920634674 373.70815382295007 477.2727920634674 C 370.9467300737961 477.2727920634674 368.70815382295007 475.03421581262137 368.70815382295007 472.2727920634674 C 368.70815382295007 469.5113683143135 370.9467300737961 467.2727920634674 373.70815382295007 467.2727920634674 C 376.469577572104 467.2727920634674 378.70815382295007 469.5113683143135 378.70815382295007 472.2727920634674 Z" fill-opacity="1"/><path fill="none" stroke="rgb(0,0,0)" paint-order="fill stroke markers" d=" M 378.70815382295007 472.2727920634674 C 378.70815382295007 475.03421581262137 376.469577572104 477.2727920634674 373.70815382295007 477.2727920634674 C 370.9467300737961 477.2727920634674 368.70815382295007 475.03421581262137 368.70815382295007 472.2727920634674 C 368.70815382295007 469.5113683143135 370.9467300737961 467.2727920634674 373.70815382295007 467.2727920634674 C 376.469577572104 467.2727920634674 378.70815382295007 469.5113683143135 378.70815382295007 472.2727920634674 Z" stroke-opacity="1" stroke-linecap="round" stroke-linejoin="round" stroke-miterlimit="10"/><path fill="rgb(97,97,97)" stroke="none" paint-order="stroke fill markers" d=" M 443.9118032602058 569.7714816872151 C 443.9118032602058 572.5329054363691 441.6732270093597 574.7714816872151 438.9118032602058 574.7714816872151 C 436.1503795110518 574.7714816872151 433.9118032602058 572.5329054363691 433.9118032602058 569.7714816872151 C 433.9118032602058 567.0100579380611 436.1503795110518 564.7714816872151 438.9118032602058 564.7714816872151 C 441.6732270093597 564.7714816872151 443.9118032602058 567.0100579380611 443.9118032602058 569.7714816872151 Z" fill-opacity="1"/><path fill="none" stroke="rgb(0,0,0)" paint-order="fill stroke markers" d=" M 443.9118032602058 569.7714816872151 C 443.9118032602058 572.5329054363691 441.6732270093597 574.7714816872151 438.9118032602058 574.7714816872151 C 436.1503795110518 574.7714816872151 433.9118032602058 572.5329054363691 433.9118032602058 569.7714816872151 C 433.9118032602058 567.0100579380611 436.1503795110518 564.7714816872151 438.9118032602058 564.7714816872151 C 441.6732270093597 564.7714816872151 443.9118032602058 567.0100579380611 443.9118032602058 569.7714816872151 Z" stroke-opacity="1" stroke-linecap="round" stroke-linejoin="round" stroke-miterlimit="10"/><path fill="rgb(97,97,97)" stroke="none" paint-order="stroke fill markers" d=" M 541.4632536166416 634.896169107887 C 541.4632536166416 637.657592857041 539.2246773657956 639.896169107887 536.4632536166416 639.896169107887 C 533.7018298674876 639.896169107887 531.4632536166416 637.657592857041 531.4632536166416 634.896169107887 C 531.4632536166416 632.134745358733 533.7018298674876 629.896169107887 536.4632536166416 629.896169107887 C 539.2246773657956 629.896169107887 541.4632536166416 632.134745358733 541.4632536166416 634.896169107887 Z" fill-opacity="1"/><path fill="none" stroke="rgb(0,0,0)" paint-order="fill stroke markers" d=" M 541.4632536166416 634.896169107887 C 541.4632536166416 637.657592857041 539.2246773657956 639.896169107887 536.4632536166416 639.896169107887 C 533.7018298674876 639.896169107887 531.4632536166416 637.657592857041 531.4632536166416 634.896169107887 C 531.4632536166416 632.134745358733 533.7018298674876 629.896169107887 536.4632536166416 629.896169107887 C 539.2246773657956 629.896169107887 541.4632536166416 632.134745358733 541.4632536166416 634.896169107887 Z" stroke-opacity="1" stroke-linecap="round" stroke-linejoin="round" stroke-miterlimit="10"/><path fill="rgb(97,97,97)" stroke="none" paint-order="stroke fill markers" d=" M 656.51118088159 657.7322110224475 C 656.51118088159 660.4936347716015 654.272604630744 662.7322110224475 651.51118088159 662.7322110224475 C 648.749757132436 662.7322110224475 646.51118088159 660.4936347716015 646.51118088159 657.7322110224475 C 646.51118088159 654.9707872732935 648.749757132436 652.7322110224475 651.51118088159 652.7322110224475 C 654.272604630744 652.7322110224475 656.51118088159 654.9707872732935 656.51118088159 657.7322110224475 Z" fill-opacity="1"/><path fill="none" stroke="rgb(0,0,0)" paint-order="fill stroke markers" d=" M 656.51118088159 657.7322110224475 C 656.51118088159 660.4936347716015 654.272604630744 662.7322110224475 651.51118088159 662.7322110224475 C 648.749757132436 662.7322110224475 646.51118088159 660.4936347716015 646.51118088159 657.7322110224475 C 646.51118088159 654.9707872732935 648.749757132436 652.7322110224475 651.51118088159 652.7322110224475 C 654.272604630744 652.7322110224475 656.51118088159 654.9707872732935 656.51118088159 657.7322110224475 Z" stroke-opacity="1" stroke-linecap="round" stroke-linejoin="round" stroke-miterlimit="10"/><path fill="rgb(97,97,97)" stroke="none" paint-order="stroke fill markers" d=" M 771.5405810410202 634.80302705864 C 771.5405810410202 637.5644508077941 769.3020047901742 639.80302705864 766.5405810410202 639.80302705864 C 763.7791572918662 639.80302705864 761.5405810410202 637.5644508077941 761.5405810410202 634.80302705864 C 761.5405810410202 632.041603309486 763.7791572918662 629.80302705864 766.5405810410202 629.80302705864 C 769.3020047901742 629.80302705864 771.5405810410202 632.041603309486 771.5405810410202 634.80302705864 Z" fill-opacity="1"/><path fill="none" stroke="rgb(0,0,0)" paint-order="fill stroke markers" d=" M 771.5405810410202 634.80302705864 C 771.5405810410202 637.5644508077941 769.3020047901742 639.80302705864 766.5405810410202 639.80302705864 C 763.7791572918662 639.80302705864 761.5405810410202 637.5644508077941 761.5405810410202 634.80302705864 C 761.5405810410202 632.041603309486 763.7791572918662 629.80302705864 766.5405810410202 629.80302705864 C 769.3020047901742 629.80302705864 771.5405810410202 632.041603309486 771.5405810410202 634.80302705864 Z" stroke-opacity="1" stroke-linecap="round" stroke-linejoin="round" stroke-miterlimit="10"/><path fill="rgb(97,97,97)" stroke="none" paint-order="stroke fill markers" d=" M 869.0392706647676 569.5993776213845 C 869.0392706647676 572.3608013705385 866.8006944139216 574.5993776213845 864.0392706647676 574.5993776213845 C 861.2778469156136 574.5993776213845 859.0392706647676 572.3608013705385 859.0392706647676 569.5993776213845 C 859.0392706647676 566.8379538722305 861.2778469156136 564.5993776213845 864.0392706647676 564.5993776213845 C 866.8006944139216 564.5993776213845 869.0392706647676 566.8379538722305 869.0392706647676 569.5993776213845 Z" fill-opacity="1"/><path fill="none" stroke="rgb(0,0,0)" paint-order="fill stroke markers" d=" M 869.0392706647676 569.5993776213845 C 869.0392706647676 572.3608013705385 866.8006944139216 574.5993776213845 864.0392706647676 574.5993776213845 C 861.2778469156136 574.5993776213845 859.0392706647676 572.3608013705385 859.0392706647676 569.5993776213845 C 859.0392706647676 566.8379538722305 861.2778469156136 564.5993776213845 864.0392706647676 564.5993776213845 C 866.8006944139216 564.5993776213845 869.0392706647676 566.8379538722305 869.0392706647676 569.5993776213845 Z" stroke-opacity="1" stroke-linecap="round" stroke-linejoin="round" stroke-miterlimit="10"/><path fill="rgb(97,97,97)" stroke="none" paint-order="stroke fill markers" d=" M 934.1639580854396 472.04792726494867 C 934.1639580854396 474.8093510141026 931.9253818345936 477.04792726494867 929.1639580854396 477.04792726494867 C 926.4025343362856 477.04792726494867 924.1639580854396 474.8093510141026 924.1639580854396 472.04792726494867 C 924.1639580854396 469.2865035157947 926.4025343362856 467.04792726494867 929.1639580854396 467.04792726494867 C 931.9253818345936 467.04792726494867 934.1639580854396 469.2865035157947 934.1639580854396 472.04792726494867 Z" fill-opacity="1"/><path fill="none" stroke="rgb(0,0,0)" paint-order="fill stroke markers" d=" M 934.1639580854396 472.04792726494867 C 934.1639580854396 474.8093510141026 931.9253818345936 477.04792726494867 929.1639580854396 477.04792726494867 C 926.4025343362856 477.04792726494867 924.1639580854396 474.8093510141026 924.1639580854396 472.04792726494867 C 924.1639580854396 469.2865035157947 926.4025343362856 467.04792726494867 929.1639580854396 467.04792726494867 C 931.9253818345936 467.04792726494867 934.1639580854396 469.2865035157947 934.1639580854396 472.04792726494867 Z" stroke-opacity="1" stroke-linecap="round" stroke-linejoin="round" stroke-miterlimit="10"/></g></g></svg>