<svg version="1.1" xmlns="http://www.w3.org/2000/svg" xmlns:xlink="http://www.w3.org/1999/xlink" width="1310" height="704"><defs><clipPath id="TuHuMiGmthAG"><path fill="none" stroke="none" d=" M 0 0 L 1310 0 L 1310 704 L 0 704 L 0 0 Z"/></clipPath></defs><g transform="scale(1,1)" clip-path="url(#TuHuMiGmthAG)"><g><rect fill="rgb(255,255,255)" stroke="none" x="0" y="0" width="1310" height="704" fill-opacity="1"/><path fill="rgb(0,0,0)" stroke="none" paint-order="stroke fill markers" d=" M 651.8967413284336 148.5410051927351 C 653.6225603149168 148.84641426998348 655.3718231183286 148.99999999999983 657.1244571013871 148.99999999999983 L 657.1244571013871 118.99999999999989 Z" fill-opacity="0.09803921568627451"/><path fill="none" stroke="rgb(0,0,0)" paint-order="fill stroke markers" d=" M 651.8967413284336 148.5410051927351 C 653.6225603149168 148.84641426998348 655.3718231183286 148.99999999999983 657.1244571013871 148.99999999999983 L 657.1244571013871 118.99999999999989 Z" stroke-opacity="0.6" stroke-linecap="round" stroke-linejoin="round" stroke-miterlimit="10" stroke-width="2.5"/><g transform="scale(27,27)"><g transform="translate(25.796882955995557,4.763888333333333)"><path fill="rgb(0,0,0)" stroke="none" paint-order="stroke fill markers" d=" M 0.265 -0.373 L 0.265 -0.373 L 0.209 -0.152 Q 0.192 -0.088 0.182 -0.054 Q 0.166 -0.005 0.152 0.005 L 0.152 0.006 Q 0.14300000000000002 0.011 0.132 0.011 Q 0.109 0.011 0.10400000000000001 -0.009000000000000001 Q 0.10300000000000001 -0.012 0.10300000000000001 -0.016 Q 0.10300000000000001 -0.025 0.111 -0.04 Q 0.20500000000000002 -0.243 0.23900000000000002 -0.373 L 0.182 -0.373 Q 0.10400000000000001 -0.373 0.055 -0.296 Q 0.046 -0.28400000000000003 0.039 -0.28400000000000003 Q 0.027 -0.28400000000000003 0.027 -0.294 Q 0.027 -0.305 0.063 -0.354 Q 0.07 -0.362 0.076 -0.37 Q 0.079 -0.374 0.083 -0.378 Q 0.085 -0.381 0.088 -0.384 Q 0.132 -0.431 0.192 -0.431 L 0.527 -0.431 Q 0.561 -0.431 0.5660000000000001 -0.41600000000000004 L 0.5660000000000001 -0.41500000000000004 Q 0.5670000000000001 -0.41200000000000003 0.5670000000000001 -0.40700000000000003 Q 0.5670000000000001 -0.373 0.518 -0.373 L 0.404 -0.373 Q 0.386 -0.28800000000000003 0.386 -0.214 Q 0.386 -0.121 0.41500000000000004 -0.049 Q 0.421 -0.035 0.421 -0.027 Q 0.421 -0.004 0.396 0.007 Q 0.388 0.011 0.38 0.011 Q 0.36 0.011 0.35000000000000003 -0.017 Q 0.34700000000000003 -0.026000000000000002 0.34400000000000003 -0.039 Q 0.336 -0.073 0.336 -0.115 Q 0.336 -0.181 0.363 -0.306 L 0.378 -0.373 L 0.265 -0.373 Z"/></g><rect fill="rgb(0,0,0)" stroke="none" x="25.599833955995557" y="5.170396833333333" width="1.000004" height="0.039999"/><g transform="translate(25.599833955995557,6.126347333333333)"><path fill="rgb(0,0,0)" stroke="none" paint-order="stroke fill markers" d=" M 0.294 -0.64 L 0.294 -0.079 Q 0.294 -0.049 0.306 -0.041 Q 0.323 -0.031 0.387 -0.031 L 0.419 -0.031 L 0.419 0 Q 0.384 -0.003 0.257 -0.003 Q 0.13 -0.003 0.095 0 L 0.095 -0.031 L 0.127 -0.031 Q 0.20400000000000001 -0.031 0.215 -0.049 L 0.216 -0.05 Q 0.22 -0.058 0.22 -0.079 L 0.22 -0.597 Q 0.168 -0.5710000000000001 0.089 -0.5710000000000001 L 0.089 -0.602 Q 0.209 -0.602 0.271 -0.666 Q 0.29 -0.666 0.293 -0.659 L 0.293 -0.659 L 0.293 -0.658 Q 0.294 -0.655 0.294 -0.64 Z"/></g><g transform="translate(26.099835955995555,6.126347333333333)"><path fill="rgb(0,0,0)" stroke="none" paint-order="stroke fill markers" d=" M 0.132 -0.328 L 0.132 -0.328 Q 0.17300000000000001 -0.427 0.257 -0.427 Q 0.34900000000000003 -0.427 0.40800000000000003 -0.35100000000000003 Q 0.441 -0.31 0.452 -0.255 Q 0.457 -0.23 0.457 -0.20400000000000001 Q 0.457 -0.093 0.38 -0.026000000000000002 Q 0.324 0.022 0.251 0.022 Q 0.149 0.022 0.092 -0.075 Q 0.042 -0.162 0.042 -0.316 Q 0.042 -0.489 0.14 -0.591 Q 0.213 -0.666 0.305 -0.666 Q 0.392 -0.666 0.422 -0.605 Q 0.432 -0.584 0.432 -0.558 Q 0.432 -0.518 0.395 -0.511 Q 0.39 -0.51 0.386 -0.51 Q 0.354 -0.51 0.343 -0.538 Q 0.34 -0.546 0.34 -0.556 Q 0.34 -0.601 0.395 -0.601 Q 0.369 -0.641 0.307 -0.641 Q 0.23700000000000002 -0.641 0.189 -0.578 Q 0.132 -0.503 0.132 -0.352 L 0.132 -0.328 M 0.251 -0.006 L 0.251 -0.006 Q 0.318 -0.006 0.35000000000000003 -0.07100000000000001 Q 0.367 -0.107 0.367 -0.20500000000000002 Q 0.367 -0.305 0.34900000000000003 -0.342 Q 0.318 -0.404 0.256 -0.404 Q 0.177 -0.404 0.147 -0.31 Q 0.134 -0.271 0.134 -0.226 Q 0.134 -0.128 0.152 -0.081 Q 0.171 -0.035 0.211 -0.015 Q 0.23 -0.006 0.251 -0.006 Z"/></g></g><path fill="rgb(0,0,0)" stroke="none" paint-order="stroke fill markers" d=" M 657.1244571013871 148.99999999999983 C 658.8770910844456 148.99999999999983 660.6263538878575 148.84641426998348 662.3521728743407 148.5410051927351 L 657.1244571013871 118.99999999999989 Z" fill-opacity="0.09803921568627451"/><path fill="none" stroke="rgb(0,0,0)" paint-order="fill stroke markers" d=" M 657.1244571013871 148.99999999999983 C 658.8770910844456 148.99999999999983 660.6263538878575 148.84641426998348 662.3521728743407 148.5410051927351 L 657.1244571013871 118.99999999999989 Z" stroke-opacity="0.6" stroke-linecap="round" stroke-linejoin="round" stroke-miterlimit="10" stroke-width="2.5"/><g transform="scale(27,27)"><g transform="translate(22.315401474514072,4.874999444444445)"><path fill="rgb(0,0,0)" stroke="none" paint-order="stroke fill markers" d=" M 0.265 -0.373 L 0.265 -0.373 L 0.209 -0.152 Q 0.192 -0.088 0.182 -0.054 Q 0.166 -0.005 0.152 0.005 L 0.152 0.006 Q 0.14300000000000002 0.011 0.132 0.011 Q 0.109 0.011 0.10400000000000001 -0.009000000000000001 Q 0.10300000000000001 -0.012 0.10300000000000001 -0.016 Q 0.10300000000000001 -0.025 0.111 -0.04 Q 0.20500000000000002 -0.243 0.23900000000000002 -0.373 L 0.182 -0.373 Q 0.10400000000000001 -0.373 0.055 -0.296 Q 0.046 -0.28400000000000003 0.039 -0.28400000000000003 Q 0.027 -0.28400000000000003 0.027 -0.294 Q 0.027 -0.305 0.063 -0.354 Q 0.07 -0.362 0.076 -0.37 Q 0.079 -0.374 0.083 -0.378 Q 0.085 -0.381 0.088 -0.384 Q 0.132 -0.431 0.192 -0.431 L 0.527 -0.431 Q 0.561 -0.431 0.5660000000000001 -0.41600000000000004 L 0.5660000000000001 -0.41500000000000004 Q 0.5670000000000001 -0.41200000000000003 0.5670000000000001 -0.40700000000000003 Q 0.5670000000000001 -0.373 0.518 -0.373 L 0.404 -0.373 Q 0.386 -0.28800000000000003 0.386 -0.214 Q 0.386 -0.121 0.41500000000000004 -0.049 Q 0.421 -0.035 0.421 -0.027 Q 0.421 -0.004 0.396 0.007 Q 0.388 0.011 0.38 0.011 Q 0.36 0.011 0.35000000000000003 -0.017 Q 0.34700000000000003 -0.026000000000000002 0.34400000000000003 -0.039 Q 0.336 -0.073 0.336 -0.115 Q 0.336 -0.181 0.363 -0.306 L 0.378 -0.373 L 0.265 -0.373 Z"/></g><rect fill="rgb(0,0,0)" stroke="none" x="22.118352474514072" y="5.281507944444445" width="1.000004" height="0.039999"/><g transform="translate(22.118352474514072,6.237458444444445)"><path fill="rgb(0,0,0)" stroke="none" paint-order="stroke fill markers" d=" M 0.294 -0.64 L 0.294 -0.079 Q 0.294 -0.049 0.306 -0.041 Q 0.323 -0.031 0.387 -0.031 L 0.419 -0.031 L 0.419 0 Q 0.384 -0.003 0.257 -0.003 Q 0.13 -0.003 0.095 0 L 0.095 -0.031 L 0.127 -0.031 Q 0.20400000000000001 -0.031 0.215 -0.049 L 0.216 -0.05 Q 0.22 -0.058 0.22 -0.079 L 0.22 -0.597 Q 0.168 -0.5710000000000001 0.089 -0.5710000000000001 L 0.089 -0.602 Q 0.209 -0.602 0.271 -0.666 Q 0.29 -0.666 0.293 -0.659 L 0.293 -0.659 L 0.293 -0.658 Q 0.294 -0.655 0.294 -0.64 Z"/></g><g transform="translate(22.61835447451407,6.237458444444445)"><path fill="rgb(0,0,0)" stroke="none" paint-order="stroke fill markers" d=" M 0.132 -0.328 L 0.132 -0.328 Q 0.17300000000000001 -0.427 0.257 -0.427 Q 0.34900000000000003 -0.427 0.40800000000000003 -0.35100000000000003 Q 0.441 -0.31 0.452 -0.255 Q 0.457 -0.23 0.457 -0.20400000000000001 Q 0.457 -0.093 0.38 -0.026000000000000002 Q 0.324 0.022 0.251 0.022 Q 0.149 0.022 0.092 -0.075 Q 0.042 -0.162 0.042 -0.316 Q 0.042 -0.489 0.14 -0.591 Q 0.213 -0.666 0.305 -0.666 Q 0.392 -0.666 0.422 -0.605 Q 0.432 -0.584 0.432 -0.558 Q 0.432 -0.518 0.395 -0.511 Q 0.39 -0.51 0.386 -0.51 Q 0.354 -0.51 0.343 -0.538 Q 0.34 -0.546 0.34 -0.556 Q 0.34 -0.601 0.395 -0.601 Q 0.369 -0.641 0.307 -0.641 Q 0.23700000000000002 -0.641 0.189 -0.578 Q 0.132 -0.503 0.132 -0.352 L 0.132 -0.328 M 0.251 -0.006 L 0.251 -0.006 Q 0.318 -0.006 0.35000000000000003 -0.07100000000000001 Q 0.367 -0.107 0.367 -0.20500000000000002 Q 0.367 -0.305 0.34900000000000003 -0.342 Q 0.318 -0.404 0.256 -0.404 Q 0.177 -0.404 0.147 -0.31 Q 0.134 -0.271 0.134 -0.226 Q 0.134 -0.128 0.152 -0.081 Q 0.171 -0.035 0.211 -0.015 Q 0.23 -0.006 0.251 -0.006 Z"/></g></g><path fill="none" stroke="rgb(0,0,0)" paint-order="fill stroke markers" d=" M 657.1244571013871 709 L 657.1244571013871 -5" stroke-opacity="0.6980392156862745" stroke-linejoin="round" stroke-miterlimit="10" stroke-width="2.5" stroke-dasharray="10.5,8"/><path fill="none" stroke="rgb(0,0,0)" paint-order="fill stroke markers" d=" M 567.6300633348953 624.7188389343079 L 746.6188508678788 624.7188389343079" stroke-opacity="0.6980392156862745" stroke-linecap="round" stroke-linejoin="round" stroke-miterlimit="10" stroke-width="2.5"/><path fill="none" stroke="rgb(0,0,0)" paint-order="fill stroke markers" d=" M 657.1244571013871 118.99999999999989 L 567.6300633348953 624.7188389343079" stroke-opacity="0.6980392156862745" stroke-linecap="round" stroke-linejoin="round" stroke-miterlimit="10" stroke-width="2.5"/><path fill="none" stroke="rgb(0,0,0)" paint-order="fill stroke markers" d=" M 657.1244571013871 118.99999999999989 L 746.6188508678788 624.7188389343079" stroke-opacity="0.6980392156862745" stroke-linecap="round" stroke-linejoin="round" stroke-miterlimit="10" stroke-width="2.5"/><path fill="rgb(21,101,192)" stroke="none" paint-order="stroke fill markers" d=" M 572.6300633348953 624.7188389343079 C 572.6300633348953 627.4802626834619 570.3914870840493 629.7188389343079 567.6300633348953 629.7188389343079 C 564.8686395857413 629.7188389343079 562.6300633348953 627.4802626834619 562.6300633348953 624.7188389343079 C 562.6300633348953 621.9574151851539 564.8686395857413 619.7188389343079 567.6300633348953 619.7188389343079 C 570.3914870840493 619.7188389343079 572.6300633348953 621.9574151851539 572.6300633348953 624.7188389343079 Z" fill-opacity="1"/><path fill="none" stroke="rgb(0,0,0)" paint-order="fill stroke markers" d=" M 572.6300633348953 624.7188389343079 C 572.6300633348953 627.4802626834619 570.3914870840493 629.7188389343079 567.6300633348953 629.7188389343079 C 564.8686395857413 629.7188389343079 562.6300633348953 627.4802626834619 562.6300633348953 624.7188389343079 C 562.6300633348953 621.9574151851539 564.8686395857413 619.7188389343079 567.6300633348953 619.7188389343079 C 570.3914870840493 619.7188389343079 572.6300633348953 621.9574151851539 572.6300633348953 624.7188389343079 Z" stroke-opacity="1" stroke-linecap="round" stroke-linejoin="round" stroke-miterlimit="10"/><path fill="rgb(21,101,192)" stroke="none" paint-order="stroke fill markers" d=" M 751.6188508678788 624.7188389343079 C 751.6188508678788 627.4802626834619 749.3802746170328 629.7188389343079 746.6188508678788 629.7188389343079 C 743.8574271187248 629.7188389343079 741.6188508678788 627.4802626834619 741.6188508678788 624.7188389343079 C 741.6188508678788 621.9574151851539 743.8574271187248 619.7188389343079 746.6188508678788 619.7188389343079 C 749.3802746170328 619.7188389343079 751.6188508678788 621.9574151851539 751.6188508678788 624.7188389343079 Z" fill-opacity="1"/><path fill="none" stroke="rgb(0,0,0)" paint-order="fill stroke markers" d=" M 751.6188508678788 624.7188389343079 C 751.6188508678788 627.4802626834619 749.3802746170328 629.7188389343079 746.6188508678788 629.7188389343079 C 743.8574271187248 629.7188389343079 741.6188508678788 627.4802626834619 741.6188508678788 624.7188389343079 C 741.6188508678788 621.9574151851539 743.8574271187248 619.7188389343079 746.6188508678788 619.7188389343079 C 749.3802746170328 619.7188389343079 751.6188508678788 621.9574151851539 751.6188508678788 624.7188389343079 Z" stroke-opacity="1" stroke-linecap="round" stroke-linejoin="round" stroke-miterlimit="10"/><path fill="rgb(21,101,192)" stroke="none" paint-order="stroke fill markers" d=" M 662.1244571013871 118.99999999999989 C 662.1244571013871 121.76142374915385 659.8858808505411 123.99999999999989 657.1244571013871 123.99999999999989 C 654.3630333522331 123.99999999999989 652.1244571013871 121.76142374915385 652.1244571013871 118.99999999999989 C 652.1244571013871 116.23857625084592 654.3630333522331 113.99999999999989 657.1244571013871 113.99999999999989 C 659.8858808505411 113.99999999999989 662.1244571013871 116.23857625084592 662.1244571013871 118.99999999999989 Z" fill-opacity="1"/><path fill="none" stroke="rgb(0,0,0)" paint-order="fill stroke markers" d=" M 662.1244571013871 118.99999999999989 C 662.1244571013871 121.76142374915385 659.8858808505411 123.99999999999989 657.1244571013871 123.99999999999989 C 654.3630333522331 123.99999999999989 652.1244571013871 121.76142374915385 652.1244571013871 118.99999999999989 C 652.1244571013871 116.23857625084592 654.3630333522331 113.99999999999989 657.1244571013871 113.99999999999989 C 659.8858808505411 113.99999999999989 662.1244571013871 116.23857625084592 662.1244571013871 118.99999999999989 Z" stroke-opacity="1" stroke-linecap="round" stroke-linejoin="round" stroke-miterlimit="10"/><path fill="rgb(46,125,50)" stroke="none" paint-order="stroke fill markers" d=" M 662.1244571013871 624.7188389343079 C 662.1244571013871 627.4802626834619 659.8858808505411 629.7188389343079 657.1244571013871 629.7188389343079 C 654.3630333522331 629.7188389343079 652.1244571013871 627.4802626834619 652.1244571013871 624.7188389343079 C 652.1244571013871 621.9574151851539 654.3630333522331 619.7188389343079 657.1244571013871 619.7188389343079 C 659.8858808505411 619.7188389343079 662.1244571013871 621.9574151851539 662.1244571013871 624.7188389343079 Z" fill-opacity="1"/><path fill="none" stroke="rgb(0,0,0)" paint-order="fill stroke markers" d=" M 662.1244571013871 624.7188389343079 C 662.1244571013871 627.4802626834619 659.8858808505411 629.7188389343079 657.1244571013871 629.7188389343079 C 654.3630333522331 629.7188389343079 652.1244571013871 627.4802626834619 652.1244571013871 624.7188389343079 C 652.1244571013871 621.9574151851539 654.3630333522331 619.7188389343079 657.1244571013871 619.7188389343079 C 659.8858808505411 619.7188389343079 662.1244571013871 621.9574151851539 662.1244571013871 624.7188389343079 Z" stroke-opacity="1" stroke-linecap="round" stroke-linejoin="round" stroke-miterlimit="10"/></g></g></svg>