<svg version="1.1" xmlns="http://www.w3.org/2000/svg" xmlns:xlink="http://www.w3.org/1999/xlink" width="1310" height="655"><defs><clipPath id="AkdNZuQyvwot"><path fill="none" stroke="none" d=" M 0 0 L 1310 0 L 1310 655 L 0 655 L 0 0 Z"/></clipPath></defs><g transform="scale(1,1)" clip-path="url(#AkdNZuQyvwot)"><g><rect fill="rgb(255,255,255)" stroke="none" x="0" y="0" width="1310" height="655" fill-opacity="1"/><path fill="none" stroke="rgb(0,0,0)" paint-order="fill stroke markers" d=" M 623.5497306942423 660 L 917.6307025963613 -5" stroke-opacity="0.6980392156862745" stroke-linecap="round" stroke-linejoin="round" stroke-miterlimit="10" stroke-width="2.5"/><path fill="none" stroke="rgb(0,0,0)" paint-order="fill stroke markers" d=" M 532.0607563694086 126.68127524440465 L 857.732702025311 130.44626883580236" stroke-opacity="0.6980392156862745" stroke-linecap="round" stroke-linejoin="round" stroke-miterlimit="10" stroke-width="2.5"/><path fill="none" stroke="rgb(0,0,0)" paint-order="fill stroke markers" d=" M 857.732702025311 130.44626883580236 L 1081.749820713475 377.0533490723526" stroke-opacity="0.6980392156862745" stroke-linecap="round" stroke-linejoin="round" stroke-miterlimit="10" stroke-width="2.5"/><path fill="none" stroke="rgb(0,0,0)" paint-order="fill stroke markers" d=" M 1081.749820713475 377.0533490723526 L 236.5087594446881 621.777932513204" stroke-opacity="0.6980392156862745" stroke-linecap="round" stroke-linejoin="round" stroke-miterlimit="10" stroke-width="2.5"/><path fill="none" stroke="rgb(0,0,0)" paint-order="fill stroke markers" d=" M 532.0607563694086 126.68127524440465 L 236.5087594446881 621.777932513204" stroke-opacity="0.6980392156862745" stroke-linecap="round" stroke-linejoin="round" stroke-miterlimit="10" stroke-width="2.5"/><path fill="none" stroke="rgb(0,0,0)" paint-order="fill stroke markers" d=" M 532.0607563694086 126.68127524440465 L 1081.749820713475 377.0533490723526" stroke-opacity="0.6980392156862745" stroke-linecap="round" stroke-linejoin="round" stroke-miterlimit="10" stroke-width="2.5"/><path fill="none" stroke="rgb(0,0,0)" paint-order="fill stroke markers" d=" M 236.5087594446881 621.777932513204 L 804.5179130864451 250.7799116942876" stroke-opacity="0.6980392156862745" stroke-linejoin="round" stroke-miterlimit="10" stroke-width="2.5" stroke-dasharray="10.5,8"/><path fill="none" stroke="rgb(0,0,0)" paint-order="fill stroke markers" d=" M 236.5087594446881 621.777932513204 L 857.732702025311 130.44626883580236" stroke-opacity="0.6980392156862745" stroke-linecap="round" stroke-linejoin="round" stroke-miterlimit="10" stroke-width="2.5"/><path fill="rgb(21,101,192)" stroke="none" paint-order="stroke fill markers" d=" M 537.0607563694086 126.68127524440465 C 537.0607563694086 129.44269899355862 534.8221801185626 131.68127524440465 532.0607563694086 131.68127524440465 C 529.2993326202546 131.68127524440465 527.0607563694086 129.44269899355862 527.0607563694086 126.68127524440465 C 527.0607563694086 123.91985149525068 529.2993326202546 121.68127524440465 532.0607563694086 121.68127524440465 C 534.8221801185626 121.68127524440465 537.0607563694086 123.91985149525068 537.0607563694086 126.68127524440465 Z" fill-opacity="1"/><path fill="none" stroke="rgb(0,0,0)" paint-order="fill stroke markers" d=" M 537.0607563694086 126.68127524440465 C 537.0607563694086 129.44269899355862 534.8221801185626 131.68127524440465 532.0607563694086 131.68127524440465 C 529.2993326202546 131.68127524440465 527.0607563694086 129.44269899355862 527.0607563694086 126.68127524440465 C 527.0607563694086 123.91985149525068 529.2993326202546 121.68127524440465 532.0607563694086 121.68127524440465 C 534.8221801185626 121.68127524440465 537.0607563694086 123.91985149525068 537.0607563694086 126.68127524440465 Z" stroke-opacity="1" stroke-linecap="round" stroke-linejoin="round" stroke-miterlimit="10"/><text fill="rgb(21,101,192)" stroke="none" font-family="geogebra-sans-serif, sans-serif" font-size="24px" font-style="normal" font-weight="normal" text-decoration="normal" x="498" y="117" text-anchor="start" dominant-baseline="alphabetic" fill-opacity="1">P</text><text fill="none" stroke="rgb(255,255,255)" font-family="geogebra-sans-serif, sans-serif" font-size="24px" font-style="normal" font-weight="normal" text-decoration="normal" x="498" y="117" text-anchor="start" dominant-baseline="alphabetic" stroke-opacity="1" stroke-linejoin="bevel" stroke-miterlimit="10" stroke-width="3">P</text><text fill="rgb(21,101,192)" stroke="none" font-family="geogebra-sans-serif, sans-serif" font-size="24px" font-style="normal" font-weight="normal" text-decoration="normal" x="498" y="117" text-anchor="start" dominant-baseline="alphabetic" fill-opacity="1">P</text><path fill="rgb(21,101,192)" stroke="none" paint-order="stroke fill markers" d=" M 862.732702025311 130.44626883580236 C 862.732702025311 133.20769258495633 860.494125774465 135.44626883580236 857.732702025311 135.44626883580236 C 854.971278276157 135.44626883580236 852.732702025311 133.20769258495633 852.732702025311 130.44626883580236 C 852.732702025311 127.6848450866484 854.971278276157 125.44626883580236 857.732702025311 125.44626883580236 C 860.494125774465 125.44626883580236 862.732702025311 127.6848450866484 862.732702025311 130.44626883580236 Z" fill-opacity="1"/><path fill="none" stroke="rgb(0,0,0)" paint-order="fill stroke markers" d=" M 862.732702025311 130.44626883580236 C 862.732702025311 133.20769258495633 860.494125774465 135.44626883580236 857.732702025311 135.44626883580236 C 854.971278276157 135.44626883580236 852.732702025311 133.20769258495633 852.732702025311 130.44626883580236 C 852.732702025311 127.6848450866484 854.971278276157 125.44626883580236 857.732702025311 125.44626883580236 C 860.494125774465 125.44626883580236 862.732702025311 127.6848450866484 862.732702025311 130.44626883580236 Z" stroke-opacity="1" stroke-linecap="round" stroke-linejoin="round" stroke-miterlimit="10"/><text fill="rgb(21,101,192)" stroke="none" font-family="geogebra-sans-serif, sans-serif" font-size="24px" font-style="normal" font-weight="normal" text-decoration="normal" x="881" y="132" text-anchor="start" dominant-baseline="alphabetic" fill-opacity="1">Q</text><text fill="none" stroke="rgb(255,255,255)" font-family="geogebra-sans-serif, sans-serif" font-size="24px" font-style="normal" font-weight="normal" text-decoration="normal" x="881" y="132" text-anchor="start" dominant-baseline="alphabetic" stroke-opacity="1" stroke-linejoin="bevel" stroke-miterlimit="10" stroke-width="3">Q</text><text fill="rgb(21,101,192)" stroke="none" font-family="geogebra-sans-serif, sans-serif" font-size="24px" font-style="normal" font-weight="normal" text-decoration="normal" x="881" y="132" text-anchor="start" dominant-baseline="alphabetic" fill-opacity="1">Q</text><path fill="rgb(21,101,192)" stroke="none" paint-order="stroke fill markers" d=" M 1086.749820713475 377.0533490723526 C 1086.749820713475 379.81477282150655 1084.5112444626288 382.0533490723526 1081.749820713475 382.0533490723526 C 1078.988396964321 382.0533490723526 1076.749820713475 379.81477282150655 1076.749820713475 377.0533490723526 C 1076.749820713475 374.29192532319865 1078.988396964321 372.0533490723526 1081.749820713475 372.0533490723526 C 1084.5112444626288 372.0533490723526 1086.749820713475 374.29192532319865 1086.749820713475 377.0533490723526 Z" fill-opacity="1"/><path fill="none" stroke="rgb(0,0,0)" paint-order="fill stroke markers" d=" M 1086.749820713475 377.0533490723526 C 1086.749820713475 379.81477282150655 1084.5112444626288 382.0533490723526 1081.749820713475 382.0533490723526 C 1078.988396964321 382.0533490723526 1076.749820713475 379.81477282150655 1076.749820713475 377.0533490723526 C 1076.749820713475 374.29192532319865 1078.988396964321 372.0533490723526 1081.749820713475 372.0533490723526 C 1084.5112444626288 372.0533490723526 1086.749820713475 374.29192532319865 1086.749820713475 377.0533490723526 Z" stroke-opacity="1" stroke-linecap="round" stroke-linejoin="round" stroke-miterlimit="10"/><text fill="rgb(21,101,192)" stroke="none" font-family="geogebra-sans-serif, sans-serif" font-size="24px" font-style="normal" font-weight="normal" text-decoration="normal" x="1093" y="363" text-anchor="start" dominant-baseline="alphabetic" fill-opacity="1">R</text><text fill="none" stroke="rgb(255,255,255)" font-family="geogebra-sans-serif, sans-serif" font-size="24px" font-style="normal" font-weight="normal" text-decoration="normal" x="1093" y="363" text-anchor="start" dominant-baseline="alphabetic" stroke-opacity="1" stroke-linejoin="bevel" stroke-miterlimit="10" stroke-width="3">R</text><text fill="rgb(21,101,192)" stroke="none" font-family="geogebra-sans-serif, sans-serif" font-size="24px" font-style="normal" font-weight="normal" text-decoration="normal" x="1093" y="363" text-anchor="start" dominant-baseline="alphabetic" fill-opacity="1">R</text><path fill="rgb(21,101,192)" stroke="none" paint-order="stroke fill markers" d=" M 241.5087594446881 621.777932513204 C 241.5087594446881 624.539356262358 239.2701831938421 626.777932513204 236.5087594446881 626.777932513204 C 233.74733569553413 626.777932513204 231.5087594446881 624.539356262358 231.5087594446881 621.777932513204 C 231.5087594446881 619.01650876405 233.74733569553413 616.777932513204 236.5087594446881 616.777932513204 C 239.2701831938421 616.777932513204 241.5087594446881 619.01650876405 241.5087594446881 621.777932513204 Z" fill-opacity="1"/><path fill="none" stroke="rgb(0,0,0)" paint-order="fill stroke markers" d=" M 241.5087594446881 621.777932513204 C 241.5087594446881 624.539356262358 239.2701831938421 626.777932513204 236.5087594446881 626.777932513204 C 233.74733569553413 626.777932513204 231.5087594446881 624.539356262358 231.5087594446881 621.777932513204 C 231.5087594446881 619.01650876405 233.74733569553413 616.777932513204 236.5087594446881 616.777932513204 C 239.2701831938421 616.777932513204 241.5087594446881 619.01650876405 241.5087594446881 621.777932513204 Z" stroke-opacity="1" stroke-linecap="round" stroke-linejoin="round" stroke-miterlimit="10"/><text fill="rgb(21,101,192)" stroke="none" font-family="geogebra-sans-serif, sans-serif" font-size="24px" font-style="normal" font-weight="normal" text-decoration="normal" x="206" y="641" text-anchor="start" dominant-baseline="alphabetic" fill-opacity="1">S</text><text fill="none" stroke="rgb(255,255,255)" font-family="geogebra-sans-serif, sans-serif" font-size="24px" font-style="normal" font-weight="normal" text-decoration="normal" x="206" y="641" text-anchor="start" dominant-baseline="alphabetic" stroke-opacity="1" stroke-linejoin="bevel" stroke-miterlimit="10" stroke-width="3">S</text><text fill="rgb(21,101,192)" stroke="none" font-family="geogebra-sans-serif, sans-serif" font-size="24px" font-style="normal" font-weight="normal" text-decoration="normal" x="206" y="641" text-anchor="start" dominant-baseline="alphabetic" fill-opacity="1">S</text><path fill="rgb(46,125,50)" stroke="none" paint-order="stroke fill markers" d=" M 704.7677868975961 487.6494835847451 C 704.7677868975961 490.41090733389905 702.5292106467501 492.6494835847451 699.7677868975961 492.6494835847451 C 697.0063631484421 492.6494835847451 694.7677868975961 490.41090733389905 694.7677868975961 487.6494835847451 C 694.7677868975961 484.88805983559115 697.0063631484421 482.6494835847451 699.7677868975961 482.6494835847451 C 702.5292106467501 482.6494835847451 704.7677868975961 484.88805983559115 704.7677868975961 487.6494835847451 Z" fill-opacity="1"/><path fill="none" stroke="rgb(0,0,0)" paint-order="fill stroke markers" d=" M 704.7677868975961 487.6494835847451 C 704.7677868975961 490.41090733389905 702.5292106467501 492.6494835847451 699.7677868975961 492.6494835847451 C 697.0063631484421 492.6494835847451 694.7677868975961 490.41090733389905 694.7677868975961 487.6494835847451 C 694.7677868975961 484.88805983559115 697.0063631484421 482.6494835847451 699.7677868975961 482.6494835847451 C 702.5292106467501 482.6494835847451 704.7677868975961 484.88805983559115 704.7677868975961 487.6494835847451 Z" stroke-opacity="1" stroke-linecap="round" stroke-linejoin="round" stroke-miterlimit="10"/><text fill="rgb(46,125,50)" stroke="none" font-family="geogebra-sans-serif, sans-serif" font-size="24px" font-style="normal" font-weight="normal" text-decoration="normal" x="712" y="513" text-anchor="start" dominant-baseline="alphabetic" fill-opacity="1">B</text><text fill="none" stroke="rgb(255,255,255)" font-family="geogebra-sans-serif, sans-serif" font-size="24px" font-style="normal" font-weight="normal" text-decoration="normal" x="712" y="513" text-anchor="start" dominant-baseline="alphabetic" stroke-opacity="1" stroke-linejoin="bevel" stroke-miterlimit="10" stroke-width="3">B</text><text fill="rgb(46,125,50)" stroke="none" font-family="geogebra-sans-serif, sans-serif" font-size="24px" font-style="normal" font-weight="normal" text-decoration="normal" x="712" y="513" text-anchor="start" dominant-baseline="alphabetic" fill-opacity="1">B</text><path fill="rgb(46,125,50)" stroke="none" paint-order="stroke fill markers" d=" M 809.5179130864451 250.7799116942876 C 809.5179130864451 253.54133544344157 807.2793368355991 255.7799116942876 804.5179130864451 255.7799116942876 C 801.7564893372911 255.7799116942876 799.5179130864451 253.54133544344157 799.5179130864451 250.7799116942876 C 799.5179130864451 248.01848794513361 801.7564893372911 245.7799116942876 804.5179130864451 245.7799116942876 C 807.2793368355991 245.7799116942876 809.5179130864451 248.01848794513361 809.5179130864451 250.7799116942876 Z" fill-opacity="1"/><path fill="none" stroke="rgb(0,0,0)" paint-order="fill stroke markers" d=" M 809.5179130864451 250.7799116942876 C 809.5179130864451 253.54133544344157 807.2793368355991 255.7799116942876 804.5179130864451 255.7799116942876 C 801.7564893372911 255.7799116942876 799.5179130864451 253.54133544344157 799.5179130864451 250.7799116942876 C 799.5179130864451 248.01848794513361 801.7564893372911 245.7799116942876 804.5179130864451 245.7799116942876 C 807.2793368355991 245.7799116942876 809.5179130864451 248.01848794513361 809.5179130864451 250.7799116942876 Z" stroke-opacity="1" stroke-linecap="round" stroke-linejoin="round" stroke-miterlimit="10"/><text fill="rgb(46,125,50)" stroke="none" font-family="geogebra-sans-serif, sans-serif" font-size="24px" font-style="normal" font-weight="normal" text-decoration="normal" x="808" y="281" text-anchor="start" dominant-baseline="alphabetic" fill-opacity="1">A</text><text fill="none" stroke="rgb(255,255,255)" font-family="geogebra-sans-serif, sans-serif" font-size="24px" font-style="normal" font-weight="normal" text-decoration="normal" x="808" y="281" text-anchor="start" dominant-baseline="alphabetic" stroke-opacity="1" stroke-linejoin="bevel" stroke-miterlimit="10" stroke-width="3">A</text><text fill="rgb(46,125,50)" stroke="none" font-family="geogebra-sans-serif, sans-serif" font-size="24px" font-style="normal" font-weight="normal" text-decoration="normal" x="808" y="281" text-anchor="start" dominant-baseline="alphabetic" fill-opacity="1">A</text></g></g></svg>