<svg version="1.1" xmlns="http://www.w3.org/2000/svg" xmlns:xlink="http://www.w3.org/1999/xlink" width="1310" height="605"><defs><clipPath id="uDuMxbtWTlmN"><path fill="none" stroke="none" d=" M 0 0 L 1310 0 L 1310 605 L 0 605 L 0 0 Z"/></clipPath></defs><g transform="scale(1,1)" clip-path="url(#uDuMxbtWTlmN)"><g><rect fill="rgb(255,255,255)" stroke="none" x="0" y="0" width="1310" height="605" fill-opacity="1"/><path fill="none" stroke="rgb(0,0,0)" paint-order="fill stroke markers" d=" M 789.7257718753565 412.0724034008694 C 789.7257718753565 475.8975122095429 737.9852982046514 527.6379858802479 674.1601893959777 527.6379858802479 C 610.335080587304 527.6379858802479 558.5946069165989 475.8975122095429 558.5946069165989 412.0724034008694 C 558.5946069165989 348.24729459219594 610.335080587304 296.5068209214909 674.1601893959777 296.5068209214909 C 737.9852982046514 296.5068209214909 789.7257718753565 348.24729459219594 789.7257718753565 412.0724034008694 Z" stroke-opacity="0.6980392156862745" stroke-linecap="round" stroke-linejoin="round" stroke-miterlimit="10" stroke-width="2.5"/><path fill="none" stroke="rgb(0,0,0)" paint-order="fill stroke markers" d=" M 673.8297593515719 610 L 674.8564705368807 -5" stroke-opacity="0.6980392156862745" stroke-linecap="round" stroke-linejoin="round" stroke-miterlimit="10" stroke-width="2.5"/><path fill="none" stroke="rgb(0,0,0)" paint-order="fill stroke markers" d=" M 480.6489991201005 527.3150898453309 L 867.2855184984471 527.9605598275987" stroke-opacity="0.6980392156862745" stroke-linecap="round" stroke-linejoin="round" stroke-miterlimit="10" stroke-width="2.5"/><path fill="none" stroke="rgb(0,0,0)" paint-order="fill stroke markers" d=" M 674.5676932823766 167.9775754478838 L 480.6489991201005 527.3150898453309" stroke-opacity="0.6980392156862745" stroke-linecap="round" stroke-linejoin="round" stroke-miterlimit="10" stroke-width="2.5"/><path fill="none" stroke="rgb(0,0,0)" paint-order="fill stroke markers" d=" M 674.5676932823766 167.9775754478838 L 867.2855184984471 527.9605598275987" stroke-opacity="0.6980392156862745" stroke-linecap="round" stroke-linejoin="round" stroke-miterlimit="10" stroke-width="2.5"/><path fill="rgb(21,101,192)" stroke="none" paint-order="stroke fill markers" d=" M 485.6489991201005 527.3150898453309 C 485.6489991201005 530.0765135944849 483.41042286925443 532.3150898453309 480.6489991201005 532.3150898453309 C 477.88757537094654 532.3150898453309 475.6489991201005 530.0765135944849 475.6489991201005 527.3150898453309 C 475.6489991201005 524.5536660961769 477.88757537094654 522.3150898453309 480.6489991201005 522.3150898453309 C 483.41042286925443 522.3150898453309 485.6489991201005 524.5536660961769 485.6489991201005 527.3150898453309 Z" fill-opacity="1"/><path fill="none" stroke="rgb(0,0,0)" paint-order="fill stroke markers" d=" M 485.6489991201005 527.3150898453309 C 485.6489991201005 530.0765135944849 483.41042286925443 532.3150898453309 480.6489991201005 532.3150898453309 C 477.88757537094654 532.3150898453309 475.6489991201005 530.0765135944849 475.6489991201005 527.3150898453309 C 475.6489991201005 524.5536660961769 477.88757537094654 522.3150898453309 480.6489991201005 522.3150898453309 C 483.41042286925443 522.3150898453309 485.6489991201005 524.5536660961769 485.6489991201005 527.3150898453309 Z" stroke-opacity="1" stroke-linecap="round" stroke-linejoin="round" stroke-miterlimit="10"/><g transform="scale(27,27)"><g transform="translate(16.62962962962963,20.646294962962962)"><path fill="rgb(21,101,192)" stroke="none" paint-order="stroke fill markers" d=" M 0.16 -0.078 L 0.294 -0.615 Q 0.298 -0.631 0.298 -0.634 Q 0.298 -0.646 0.28200000000000003 -0.649 L 0.281 -0.649 L 0.28 -0.649 Q 0.277 -0.649 0.271 -0.65 Q 0.254 -0.652 0.233 -0.652 Q 0.20700000000000002 -0.652 0.20500000000000002 -0.663 Q 0.20500000000000002 -0.681 0.22 -0.683 L 0.221 -0.683 L 0.222 -0.683 L 0.234 -0.683 L 0.5700000000000001 -0.683 Q 0.685 -0.683 0.734 -0.615 Q 0.756 -0.583 0.756 -0.545 Q 0.756 -0.464 0.666 -0.404 Q 0.665 -0.404 0.664 -0.403 Q 0.611 -0.369 0.547 -0.357 Q 0.649 -0.34500000000000003 0.687 -0.277 Q 0.7020000000000001 -0.249 0.7020000000000001 -0.216 Q 0.7020000000000001 -0.14300000000000002 0.632 -0.079 L 0.631 -0.078 Q 0.545 0 0.426 0 L 0.069 0 Q 0.044 0 0.042 -0.011 Q 0.042 -0.029 0.057 -0.031 L 0.069 -0.031 Q 0.134 -0.031 0.147 -0.045 Q 0.153 -0.052000000000000005 0.159 -0.073 Q 0.159 -0.074 0.16 -0.078 M 0.311 -0.366 L 0.457 -0.366 Q 0.556 -0.366 0.62 -0.438 Q 0.665 -0.489 0.665 -0.549 Q 0.665 -0.622 0.605 -0.644 Q 0.584 -0.652 0.556 -0.652 L 0.427 -0.652 Q 0.391 -0.652 0.383 -0.642 L 0.383 -0.642 L 0.383 -0.641 L 0.382 -0.641 L 0.382 -0.64 Q 0.378 -0.634 0.373 -0.614 L 0.311 -0.366 M 0.266 -0.031 L 0.402 -0.031 Q 0.498 -0.031 0.561 -0.10300000000000001 Q 0.609 -0.159 0.609 -0.227 Q 0.609 -0.3 0.557 -0.33 Q 0.531 -0.34400000000000003 0.494 -0.34400000000000003 L 0.305 -0.34400000000000003 L 0.23600000000000002 -0.065 Q 0.231 -0.047 0.231 -0.042 Q 0.231 -0.034 0.24 -0.032 L 0.24 -0.032 L 0.24 -0.032 L 0.244 -0.032 Q 0.25 -0.031 0.266 -0.031 Z"/></g></g><path fill="rgb(21,101,192)" stroke="none" paint-order="stroke fill markers" d=" M 872.2855184984471 527.9605598275987 C 872.2855184984471 530.7219835767527 870.0469422476011 532.9605598275987 867.2855184984471 532.9605598275987 C 864.5240947492931 532.9605598275987 862.2855184984471 530.7219835767527 862.2855184984471 527.9605598275987 C 862.2855184984471 525.1991360784447 864.5240947492931 522.9605598275987 867.2855184984471 522.9605598275987 C 870.0469422476011 522.9605598275987 872.2855184984471 525.1991360784447 872.2855184984471 527.9605598275987 Z" fill-opacity="1"/><path fill="none" stroke="rgb(0,0,0)" paint-order="fill stroke markers" d=" M 872.2855184984471 527.9605598275987 C 872.2855184984471 530.7219835767527 870.0469422476011 532.9605598275987 867.2855184984471 532.9605598275987 C 864.5240947492931 532.9605598275987 862.2855184984471 530.7219835767527 862.2855184984471 527.9605598275987 C 862.2855184984471 525.1991360784447 864.5240947492931 522.9605598275987 867.2855184984471 522.9605598275987 C 870.0469422476011 522.9605598275987 872.2855184984471 525.1991360784447 872.2855184984471 527.9605598275987 Z" stroke-opacity="1" stroke-linecap="round" stroke-linejoin="round" stroke-miterlimit="10"/><g transform="scale(27,27)"><g transform="translate(32.407407407407405,20.683332)"><path fill="rgb(21,101,192)" stroke="none" paint-order="stroke fill markers" d=" M 0.76 -0.6950000000000001 L 0.6970000000000001 -0.44 Q 0.6920000000000001 -0.422 0.687 -0.421 L 0.686 -0.42 L 0.679 -0.42 Q 0.664 -0.42 0.664 -0.43 L 0.667 -0.47900000000000004 L 0.667 -0.481 Q 0.667 -0.605 0.589 -0.652 L 0.588 -0.653 Q 0.553 -0.674 0.506 -0.674 Q 0.4 -0.674 0.305 -0.595 Q 0.281 -0.5760000000000001 0.262 -0.553 Q 0.167 -0.442 0.145 -0.271 Q 0.14100000000000001 -0.24 0.14100000000000001 -0.217 Q 0.14100000000000001 -0.077 0.247 -0.028 Q 0.28800000000000003 -0.009000000000000001 0.337 -0.009000000000000001 Q 0.431 -0.009000000000000001 0.521 -0.082 Q 0.591 -0.14100000000000001 0.622 -0.24 Q 0.624 -0.25 0.635 -0.25 Q 0.647 -0.25 0.647 -0.24 Q 0.647 -0.222 0.624 -0.176 Q 0.593 -0.113 0.537 -0.064 Q 0.438 0.022 0.321 0.022 Q 0.193 0.022 0.116 -0.066 Q 0.05 -0.14100000000000001 0.05 -0.252 Q 0.05 -0.401 0.159 -0.531 Q 0.26 -0.652 0.398 -0.6910000000000001 Q 0.449 -0.705 0.498 -0.705 Q 0.607 -0.705 0.664 -0.616 L 0.734 -0.6930000000000001 Q 0.746 -0.705 0.749 -0.705 Q 0.76 -0.705 0.76 -0.6950000000000001 Z"/></g></g><path fill="rgb(46,125,50)" stroke="none" paint-order="stroke fill markers" d=" M 678.9672588092737 527.6378248364647 C 678.9672588092737 530.3992485856187 676.7286825584277 532.6378248364647 673.9672588092737 532.6378248364647 C 671.2058350601197 532.6378248364647 668.9672588092737 530.3992485856187 668.9672588092737 527.6378248364647 C 668.9672588092737 524.8764010873107 671.2058350601197 522.6378248364647 673.9672588092737 522.6378248364647 C 676.7286825584277 522.6378248364647 678.9672588092737 524.8764010873107 678.9672588092737 527.6378248364647 Z" fill-opacity="1"/><path fill="none" stroke="rgb(0,0,0)" paint-order="fill stroke markers" d=" M 678.9672588092737 527.6378248364647 C 678.9672588092737 530.3992485856187 676.7286825584277 532.6378248364647 673.9672588092737 532.6378248364647 C 671.2058350601197 532.6378248364647 668.9672588092737 530.3992485856187 668.9672588092737 527.6378248364647 C 668.9672588092737 524.8764010873107 671.2058350601197 522.6378248364647 673.9672588092737 522.6378248364647 C 676.7286825584277 522.6378248364647 678.9672588092737 524.8764010873107 678.9672588092737 527.6378248364647 Z" stroke-opacity="1" stroke-linecap="round" stroke-linejoin="round" stroke-miterlimit="10"/><g transform="scale(27,27)"><g transform="translate(25.11111111111111,20.683332)"><path fill="rgb(46,125,50)" stroke="none" paint-order="stroke fill markers" d=" M 0.645 -0.6950000000000001 L 0.645 -0.6950000000000001 L 0.591 -0.47600000000000003 Q 0.582 -0.457 0.5760000000000001 -0.456 Q 0.5640000000000001 -0.456 0.5640000000000001 -0.466 L 0.5680000000000001 -0.52 L 0.5680000000000001 -0.522 Q 0.5680000000000001 -0.66 0.452 -0.675 Q 0.439 -0.677 0.424 -0.677 Q 0.34600000000000003 -0.677 0.291 -0.614 Q 0.249 -0.5660000000000001 0.249 -0.511 Q 0.249 -0.451 0.298 -0.425 Q 0.304 -0.422 0.31 -0.42 Q 0.315 -0.419 0.377 -0.402 Q 0.46900000000000003 -0.378 0.487 -0.366 Q 0.495 -0.361 0.504 -0.352 Q 0.553 -0.306 0.553 -0.23500000000000001 Q 0.553 -0.14300000000000002 0.481 -0.064 Q 0.399 0.019 0.299 0.022 Q 0.183 0.022 0.13 -0.05 L 0.081 0.007 Q 0.068 0.022 0.063 0.022 Q 0.052000000000000005 0.022 0.052000000000000005 0.012 L 0.109 -0.213 L 0.109 -0.215 Q 0.111 -0.222 0.112 -0.223 Q 0.116 -0.227 0.122 -0.227 Q 0.134 -0.227 0.134 -0.216 L 0.132 -0.209 Q 0.126 -0.17300000000000001 0.126 -0.155 Q 0.126 -0.042 0.241 -0.016 Q 0.269 -0.009000000000000001 0.301 -0.009000000000000001 Q 0.38 -0.009000000000000001 0.436 -0.077 Q 0.481 -0.13 0.481 -0.193 Q 0.481 -0.271 0.40900000000000003 -0.294 L 0.389 -0.299 L 0.28200000000000003 -0.327 Q 0.216 -0.34600000000000003 0.19 -0.40700000000000003 Q 0.178 -0.436 0.178 -0.46900000000000003 Q 0.178 -0.56 0.254 -0.633 Q 0.33 -0.705 0.425 -0.705 Q 0.527 -0.705 0.5680000000000001 -0.633 L 0.616 -0.6900000000000001 Q 0.629 -0.705 0.634 -0.705 Q 0.645 -0.705 0.645 -0.6950000000000001 Z"/></g></g><path fill="rgb(21,101,192)" stroke="none" paint-order="stroke fill markers" d=" M 679.5676932823766 167.9775754478838 C 679.5676932823766 170.73899919703777 677.3291170315306 172.9775754478838 674.5676932823766 172.9775754478838 C 671.8062695332226 172.9775754478838 669.5676932823766 170.73899919703777 669.5676932823766 167.9775754478838 C 669.5676932823766 165.21615169872982 671.8062695332226 162.9775754478838 674.5676932823766 162.9775754478838 C 677.3291170315306 162.9775754478838 679.5676932823766 165.21615169872982 679.5676932823766 167.9775754478838 Z" fill-opacity="1"/><path fill="none" stroke="rgb(0,0,0)" paint-order="fill stroke markers" d=" M 679.5676932823766 167.9775754478838 C 679.5676932823766 170.73899919703777 677.3291170315306 172.9775754478838 674.5676932823766 172.9775754478838 C 671.8062695332226 172.9775754478838 669.5676932823766 170.73899919703777 669.5676932823766 167.9775754478838 C 669.5676932823766 165.21615169872982 671.8062695332226 162.9775754478838 674.5676932823766 162.9775754478838 C 677.3291170315306 162.9775754478838 679.5676932823766 165.21615169872982 679.5676932823766 167.9775754478838 Z" stroke-opacity="1" stroke-linecap="round" stroke-linejoin="round" stroke-miterlimit="10"/><g transform="scale(27,27)"><g transform="translate(25.51851851851852,6.461109777777778)"><path fill="rgb(21,101,192)" stroke="none" paint-order="stroke fill markers" d=" M 0.179 -0.115 L 0.527 -0.6990000000000001 Q 0.537 -0.715 0.553 -0.716 Q 0.5680000000000001 -0.716 0.5700000000000001 -0.706 Q 0.5710000000000001 -0.7030000000000001 0.5720000000000001 -0.6920000000000001 L 0.633 -0.067 Q 0.636 -0.042 0.645 -0.037 L 0.646 -0.037 L 0.646 -0.037 L 0.646 -0.037 L 0.646 -0.037 L 0.646 -0.036000000000000004 Q 0.658 -0.031 0.6980000000000001 -0.031 Q 0.72 -0.031 0.721 -0.02 Q 0.721 0 0.7030000000000001 0 L 0.591 -0.003 L 0.59 -0.003 L 0.466 0 L 0.465 0 Q 0.451 0 0.451 -0.011 Q 0.459 -0.03 0.47500000000000003 -0.031 Q 0.547 -0.031 0.547 -0.064 Q 0.547 -0.063 0.531 -0.231 L 0.28 -0.231 L 0.20400000000000001 -0.10300000000000001 Q 0.19 -0.078 0.19 -0.066 Q 0.19 -0.035 0.23700000000000002 -0.031 Q 0.253 -0.031 0.253 -0.019 Q 0.253 0 0.234 0 L 0.138 -0.003 L 0.134 -0.003 L 0.05 0 L 0.048 0 Q 0.035 0 0.035 -0.011 Q 0.035 -0.029 0.05 -0.03 L 0.05 -0.031 L 0.056 -0.031 Q 0.11900000000000001 -0.035 0.159 -0.085 Q 0.169 -0.098 0.179 -0.115 M 0.299 -0.262 L 0.528 -0.262 L 0.496 -0.592 L 0.299 -0.262 Z"/></g></g><path fill="rgb(211,47,47)" stroke="none" paint-order="stroke fill markers" d=" M 679.1601893959777 412.0724034008694 C 679.1601893959777 414.83382715002335 676.9216131451317 417.0724034008694 674.1601893959777 417.0724034008694 C 671.3987656468237 417.0724034008694 669.1601893959777 414.83382715002335 669.1601893959777 412.0724034008694 C 669.1601893959777 409.31097965171546 671.3987656468237 407.0724034008694 674.1601893959777 407.0724034008694 C 676.9216131451317 407.0724034008694 679.1601893959777 409.31097965171546 679.1601893959777 412.0724034008694 Z" fill-opacity="1"/><path fill="none" stroke="rgb(0,0,0)" paint-order="fill stroke markers" d=" M 679.1601893959777 412.0724034008694 C 679.1601893959777 414.83382715002335 676.9216131451317 417.0724034008694 674.1601893959777 417.0724034008694 C 671.3987656468237 417.0724034008694 669.1601893959777 414.83382715002335 669.1601893959777 412.0724034008694 C 669.1601893959777 409.31097965171546 671.3987656468237 407.0724034008694 674.1601893959777 407.0724034008694 C 676.9216131451317 407.0724034008694 679.1601893959777 409.31097965171546 679.1601893959777 412.0724034008694 Z" stroke-opacity="1" stroke-linecap="round" stroke-linejoin="round" stroke-miterlimit="10"/><g transform="scale(27,27)"><g transform="translate(24.11111111111111,15.201850518518519)"><path fill="rgb(211,47,47)" stroke="none" paint-order="stroke fill markers" d=" M 0.374 -0.606 L 0.24 -0.073 Q 0.23600000000000002 -0.059000000000000004 0.23600000000000002 -0.05 Q 0.23600000000000002 -0.037 0.25 -0.034 L 0.251 -0.034 L 0.252 -0.034 Q 0.256 -0.033 0.261 -0.033 Q 0.281 -0.031 0.304 -0.031 Q 0.331 -0.031 0.333 -0.024 Q 0.334 -0.022 0.334 -0.019 Q 0.334 0 0.314 0 L 0.181 -0.003 L 0.18 -0.003 L 0.05 0 L 0.049 0 Q 0.034 0 0.034 -0.011 Q 0.034 -0.028 0.048 -0.03 Q 0.053 -0.031 0.066 -0.031 Q 0.133 -0.031 0.146 -0.048 Q 0.151 -0.055 0.157 -0.078 L 0.292 -0.617 Q 0.294 -0.626 0.294 -0.633 Q 0.294 -0.651 0.252 -0.652 L 0.251 -0.652 L 0.225 -0.652 Q 0.199 -0.652 0.197 -0.663 Q 0.197 -0.683 0.217 -0.683 L 0.34900000000000003 -0.68 L 0.35000000000000003 -0.68 L 0.481 -0.683 L 0.482 -0.683 Q 0.497 -0.683 0.497 -0.671 Q 0.497 -0.654 0.483 -0.653 Q 0.47800000000000004 -0.652 0.465 -0.652 Q 0.398 -0.652 0.385 -0.636 Q 0.38 -0.629 0.374 -0.606 Z"/></g></g></g></g></svg>