<svg version="1.1" xmlns="http://www.w3.org/2000/svg" xmlns:xlink="http://www.w3.org/1999/xlink" width="1310" height="556"><defs><clipPath id="ARyzXiVnvbuw"><path fill="none" stroke="none" d=" M 0 0 L 1310 0 L 1310 556 L 0 556 L 0 0 Z"/></clipPath></defs><g transform="scale(1,1)" clip-path="url(#ARyzXiVnvbuw)"><g><rect fill="rgb(255,255,255)" stroke="none" x="0" y="0" width="1310" height="556" fill-opacity="1"/><path fill="none" stroke="rgb(0,0,0)" paint-order="fill stroke markers" d=" M 651.8397760460625 561 L 652.7846842263631 -5" stroke-opacity="0.6980392156862745" stroke-linecap="round" stroke-linejoin="round" stroke-miterlimit="10" stroke-width="2.5"/><path fill="none" stroke="rgb(0,0,0)" paint-order="fill stroke markers" d=" M 458.6489991201005 484.31508984533093 L 845.2855184984471 484.9605598275986" stroke-opacity="0.6980392156862745" stroke-linecap="round" stroke-linejoin="round" stroke-miterlimit="10" stroke-width="2.5"/><path fill="none" stroke="rgb(0,0,0)" paint-order="fill stroke markers" d=" M 652.5359236712819 144.00757249360817 L 458.6489991201005 484.31508984533093" stroke-opacity="0.6980392156862745" stroke-linecap="round" stroke-linejoin="round" stroke-miterlimit="10" stroke-width="2.5"/><path fill="none" stroke="rgb(0,0,0)" paint-order="fill stroke markers" d=" M 652.5359236712819 144.00757249360817 L 845.2855184984471 484.9605598275986" stroke-opacity="0.6980392156862745" stroke-linecap="round" stroke-linejoin="round" stroke-miterlimit="10" stroke-width="2.5"/><path fill="rgb(21,101,192)" stroke="none" paint-order="stroke fill markers" d=" M 463.6489991201005 484.31508984533093 C 463.6489991201005 487.0765135944849 461.41042286925443 489.31508984533093 458.6489991201005 489.31508984533093 C 455.88757537094654 489.31508984533093 453.6489991201005 487.0765135944849 453.6489991201005 484.31508984533093 C 453.6489991201005 481.553666096177 455.88757537094654 479.31508984533093 458.6489991201005 479.31508984533093 C 461.41042286925443 479.31508984533093 463.6489991201005 481.553666096177 463.6489991201005 484.31508984533093 Z" fill-opacity="1"/><path fill="none" stroke="rgb(0,0,0)" paint-order="fill stroke markers" d=" M 463.6489991201005 484.31508984533093 C 463.6489991201005 487.0765135944849 461.41042286925443 489.31508984533093 458.6489991201005 489.31508984533093 C 455.88757537094654 489.31508984533093 453.6489991201005 487.0765135944849 453.6489991201005 484.31508984533093 C 453.6489991201005 481.553666096177 455.88757537094654 479.31508984533093 458.6489991201005 479.31508984533093 C 461.41042286925443 479.31508984533093 463.6489991201005 481.553666096177 463.6489991201005 484.31508984533093 Z" stroke-opacity="1" stroke-linecap="round" stroke-linejoin="round" stroke-miterlimit="10"/><g transform="scale(27,27)"><g transform="translate(15.814814814814815,19.05370237037037)"><path fill="rgb(21,101,192)" stroke="none" paint-order="stroke fill markers" d=" M 0.16 -0.078 L 0.294 -0.615 Q 0.298 -0.631 0.298 -0.634 Q 0.298 -0.646 0.28200000000000003 -0.649 L 0.281 -0.649 L 0.28 -0.649 Q 0.277 -0.649 0.271 -0.65 Q 0.254 -0.652 0.233 -0.652 Q 0.20700000000000002 -0.652 0.20500000000000002 -0.663 Q 0.20500000000000002 -0.681 0.22 -0.683 L 0.221 -0.683 L 0.222 -0.683 L 0.234 -0.683 L 0.5700000000000001 -0.683 Q 0.685 -0.683 0.734 -0.615 Q 0.756 -0.583 0.756 -0.545 Q 0.756 -0.464 0.666 -0.404 Q 0.665 -0.404 0.664 -0.403 Q 0.611 -0.369 0.547 -0.357 Q 0.649 -0.34500000000000003 0.687 -0.277 Q 0.7020000000000001 -0.249 0.7020000000000001 -0.216 Q 0.7020000000000001 -0.14300000000000002 0.632 -0.079 L 0.631 -0.078 Q 0.545 0 0.426 0 L 0.069 0 Q 0.044 0 0.042 -0.011 Q 0.042 -0.029 0.057 -0.031 L 0.069 -0.031 Q 0.134 -0.031 0.147 -0.045 Q 0.153 -0.052000000000000005 0.159 -0.073 Q 0.159 -0.074 0.16 -0.078 M 0.311 -0.366 L 0.457 -0.366 Q 0.556 -0.366 0.62 -0.438 Q 0.665 -0.489 0.665 -0.549 Q 0.665 -0.622 0.605 -0.644 Q 0.584 -0.652 0.556 -0.652 L 0.427 -0.652 Q 0.391 -0.652 0.383 -0.642 L 0.383 -0.642 L 0.383 -0.641 L 0.382 -0.641 L 0.382 -0.64 Q 0.378 -0.634 0.373 -0.614 L 0.311 -0.366 M 0.266 -0.031 L 0.402 -0.031 Q 0.498 -0.031 0.561 -0.10300000000000001 Q 0.609 -0.159 0.609 -0.227 Q 0.609 -0.3 0.557 -0.33 Q 0.531 -0.34400000000000003 0.494 -0.34400000000000003 L 0.305 -0.34400000000000003 L 0.23600000000000002 -0.065 Q 0.231 -0.047 0.231 -0.042 Q 0.231 -0.034 0.24 -0.032 L 0.24 -0.032 L 0.24 -0.032 L 0.244 -0.032 Q 0.25 -0.031 0.266 -0.031 Z"/></g></g><path fill="rgb(21,101,192)" stroke="none" paint-order="stroke fill markers" d=" M 850.2855184984471 484.9605598275986 C 850.2855184984471 487.72198357675256 848.0469422476011 489.9605598275986 845.2855184984471 489.9605598275986 C 842.5240947492931 489.9605598275986 840.2855184984471 487.72198357675256 840.2855184984471 484.9605598275986 C 840.2855184984471 482.19913607844467 842.5240947492931 479.9605598275986 845.2855184984471 479.9605598275986 C 848.0469422476011 479.9605598275986 850.2855184984471 482.19913607844467 850.2855184984471 484.9605598275986 Z" fill-opacity="1"/><path fill="none" stroke="rgb(0,0,0)" paint-order="fill stroke markers" d=" M 850.2855184984471 484.9605598275986 C 850.2855184984471 487.72198357675256 848.0469422476011 489.9605598275986 845.2855184984471 489.9605598275986 C 842.5240947492931 489.9605598275986 840.2855184984471 487.72198357675256 840.2855184984471 484.9605598275986 C 840.2855184984471 482.19913607844467 842.5240947492931 479.9605598275986 845.2855184984471 479.9605598275986 C 848.0469422476011 479.9605598275986 850.2855184984471 482.19913607844467 850.2855184984471 484.9605598275986 Z" stroke-opacity="1" stroke-linecap="round" stroke-linejoin="round" stroke-miterlimit="10"/><g transform="scale(27,27)"><g transform="translate(31.59259259259259,19.09073940740741)"><path fill="rgb(21,101,192)" stroke="none" paint-order="stroke fill markers" d=" M 0.76 -0.6950000000000001 L 0.6970000000000001 -0.44 Q 0.6920000000000001 -0.422 0.687 -0.421 L 0.686 -0.42 L 0.679 -0.42 Q 0.664 -0.42 0.664 -0.43 L 0.667 -0.47900000000000004 L 0.667 -0.481 Q 0.667 -0.605 0.589 -0.652 L 0.588 -0.653 Q 0.553 -0.674 0.506 -0.674 Q 0.4 -0.674 0.305 -0.595 Q 0.281 -0.5760000000000001 0.262 -0.553 Q 0.167 -0.442 0.145 -0.271 Q 0.14100000000000001 -0.24 0.14100000000000001 -0.217 Q 0.14100000000000001 -0.077 0.247 -0.028 Q 0.28800000000000003 -0.009000000000000001 0.337 -0.009000000000000001 Q 0.431 -0.009000000000000001 0.521 -0.082 Q 0.591 -0.14100000000000001 0.622 -0.24 Q 0.624 -0.25 0.635 -0.25 Q 0.647 -0.25 0.647 -0.24 Q 0.647 -0.222 0.624 -0.176 Q 0.593 -0.113 0.537 -0.064 Q 0.438 0.022 0.321 0.022 Q 0.193 0.022 0.116 -0.066 Q 0.05 -0.14100000000000001 0.05 -0.252 Q 0.05 -0.401 0.159 -0.531 Q 0.26 -0.652 0.398 -0.6910000000000001 Q 0.449 -0.705 0.498 -0.705 Q 0.607 -0.705 0.664 -0.616 L 0.734 -0.6930000000000001 Q 0.746 -0.705 0.749 -0.705 Q 0.76 -0.705 0.76 -0.6950000000000001 Z"/></g></g><path fill="rgb(46,125,50)" stroke="none" paint-order="stroke fill markers" d=" M 656.9672588092737 484.6378248364647 C 656.9672588092737 487.39924858561864 654.7286825584277 489.6378248364647 651.9672588092737 489.6378248364647 C 649.2058350601197 489.6378248364647 646.9672588092737 487.39924858561864 646.9672588092737 484.6378248364647 C 646.9672588092737 481.87640108731074 649.2058350601197 479.6378248364647 651.9672588092737 479.6378248364647 C 654.7286825584277 479.6378248364647 656.9672588092737 481.87640108731074 656.9672588092737 484.6378248364647 Z" fill-opacity="1"/><path fill="none" stroke="rgb(0,0,0)" paint-order="fill stroke markers" d=" M 656.9672588092737 484.6378248364647 C 656.9672588092737 487.39924858561864 654.7286825584277 489.6378248364647 651.9672588092737 489.6378248364647 C 649.2058350601197 489.6378248364647 646.9672588092737 487.39924858561864 646.9672588092737 484.6378248364647 C 646.9672588092737 481.87640108731074 649.2058350601197 479.6378248364647 651.9672588092737 479.6378248364647 C 654.7286825584277 479.6378248364647 656.9672588092737 481.87640108731074 656.9672588092737 484.6378248364647 Z" stroke-opacity="1" stroke-linecap="round" stroke-linejoin="round" stroke-miterlimit="10"/><g transform="scale(27,27)"><g transform="translate(24.296296296296298,19.09073940740741)"><path fill="rgb(46,125,50)" stroke="none" paint-order="stroke fill markers" d=" M 0.645 -0.6950000000000001 L 0.645 -0.6950000000000001 L 0.591 -0.47600000000000003 Q 0.582 -0.457 0.5760000000000001 -0.456 Q 0.5640000000000001 -0.456 0.5640000000000001 -0.466 L 0.5680000000000001 -0.52 L 0.5680000000000001 -0.522 Q 0.5680000000000001 -0.66 0.452 -0.675 Q 0.439 -0.677 0.424 -0.677 Q 0.34600000000000003 -0.677 0.291 -0.614 Q 0.249 -0.5660000000000001 0.249 -0.511 Q 0.249 -0.451 0.298 -0.425 Q 0.304 -0.422 0.31 -0.42 Q 0.315 -0.419 0.377 -0.402 Q 0.46900000000000003 -0.378 0.487 -0.366 Q 0.495 -0.361 0.504 -0.352 Q 0.553 -0.306 0.553 -0.23500000000000001 Q 0.553 -0.14300000000000002 0.481 -0.064 Q 0.399 0.019 0.299 0.022 Q 0.183 0.022 0.13 -0.05 L 0.081 0.007 Q 0.068 0.022 0.063 0.022 Q 0.052000000000000005 0.022 0.052000000000000005 0.012 L 0.109 -0.213 L 0.109 -0.215 Q 0.111 -0.222 0.112 -0.223 Q 0.116 -0.227 0.122 -0.227 Q 0.134 -0.227 0.134 -0.216 L 0.132 -0.209 Q 0.126 -0.17300000000000001 0.126 -0.155 Q 0.126 -0.042 0.241 -0.016 Q 0.269 -0.009000000000000001 0.301 -0.009000000000000001 Q 0.38 -0.009000000000000001 0.436 -0.077 Q 0.481 -0.13 0.481 -0.193 Q 0.481 -0.271 0.40900000000000003 -0.294 L 0.389 -0.299 L 0.28200000000000003 -0.327 Q 0.216 -0.34600000000000003 0.19 -0.40700000000000003 Q 0.178 -0.436 0.178 -0.46900000000000003 Q 0.178 -0.56 0.254 -0.633 Q 0.33 -0.705 0.425 -0.705 Q 0.527 -0.705 0.5680000000000001 -0.633 L 0.616 -0.6900000000000001 Q 0.629 -0.705 0.634 -0.705 Q 0.645 -0.705 0.645 -0.6950000000000001 Z"/></g></g><path fill="rgb(21,101,192)" stroke="none" paint-order="stroke fill markers" d=" M 657.5359236712819 144.00757249360817 C 657.5359236712819 146.76899624276214 655.2973474204359 149.00757249360817 652.5359236712819 149.00757249360817 C 649.7744999221279 149.00757249360817 647.5359236712819 146.76899624276214 647.5359236712819 144.00757249360817 C 647.5359236712819 141.2461487444542 649.7744999221279 139.00757249360817 652.5359236712819 139.00757249360817 C 655.2973474204359 139.00757249360817 657.5359236712819 141.2461487444542 657.5359236712819 144.00757249360817 Z" fill-opacity="1"/><path fill="none" stroke="rgb(0,0,0)" paint-order="fill stroke markers" d=" M 657.5359236712819 144.00757249360817 C 657.5359236712819 146.76899624276214 655.2973474204359 149.00757249360817 652.5359236712819 149.00757249360817 C 649.7744999221279 149.00757249360817 647.5359236712819 146.76899624276214 647.5359236712819 144.00757249360817 C 647.5359236712819 141.2461487444542 649.7744999221279 139.00757249360817 652.5359236712819 139.00757249360817 C 655.2973474204359 139.00757249360817 657.5359236712819 141.2461487444542 657.5359236712819 144.00757249360817 Z" stroke-opacity="1" stroke-linecap="round" stroke-linejoin="round" stroke-miterlimit="10"/><g transform="scale(27,27)"><g transform="translate(24.703703703703702,5.572220888888889)"><path fill="rgb(21,101,192)" stroke="none" paint-order="stroke fill markers" d=" M 0.179 -0.115 L 0.527 -0.6990000000000001 Q 0.537 -0.715 0.553 -0.716 Q 0.5680000000000001 -0.716 0.5700000000000001 -0.706 Q 0.5710000000000001 -0.7030000000000001 0.5720000000000001 -0.6920000000000001 L 0.633 -0.067 Q 0.636 -0.042 0.645 -0.037 L 0.646 -0.037 L 0.646 -0.037 L 0.646 -0.037 L 0.646 -0.037 L 0.646 -0.036000000000000004 Q 0.658 -0.031 0.6980000000000001 -0.031 Q 0.72 -0.031 0.721 -0.02 Q 0.721 0 0.7030000000000001 0 L 0.591 -0.003 L 0.59 -0.003 L 0.466 0 L 0.465 0 Q 0.451 0 0.451 -0.011 Q 0.459 -0.03 0.47500000000000003 -0.031 Q 0.547 -0.031 0.547 -0.064 Q 0.547 -0.063 0.531 -0.231 L 0.28 -0.231 L 0.20400000000000001 -0.10300000000000001 Q 0.19 -0.078 0.19 -0.066 Q 0.19 -0.035 0.23700000000000002 -0.031 Q 0.253 -0.031 0.253 -0.019 Q 0.253 0 0.234 0 L 0.138 -0.003 L 0.134 -0.003 L 0.05 0 L 0.048 0 Q 0.035 0 0.035 -0.011 Q 0.035 -0.029 0.05 -0.03 L 0.05 -0.031 L 0.056 -0.031 Q 0.11900000000000001 -0.035 0.159 -0.085 Q 0.169 -0.098 0.179 -0.115 M 0.299 -0.262 L 0.528 -0.262 L 0.496 -0.592 L 0.299 -0.262 Z"/></g></g><path fill="rgb(211,47,47)" stroke="none" paint-order="stroke fill markers" d=" M 657.1551845875408 372.0702836544879 C 657.1551845875408 374.8317074036419 654.9166083366948 377.0702836544879 652.1551845875408 377.0702836544879 C 649.3937608383868 377.0702836544879 647.1551845875408 374.8317074036419 647.1551845875408 372.0702836544879 C 647.1551845875408 369.308859905334 649.3937608383868 367.0702836544879 652.1551845875408 367.0702836544879 C 654.9166083366948 367.0702836544879 657.1551845875408 369.308859905334 657.1551845875408 372.0702836544879 Z" fill-opacity="1"/><path fill="none" stroke="rgb(0,0,0)" paint-order="fill stroke markers" d=" M 657.1551845875408 372.0702836544879 C 657.1551845875408 374.8317074036419 654.9166083366948 377.0702836544879 652.1551845875408 377.0702836544879 C 649.3937608383868 377.0702836544879 647.1551845875408 374.8317074036419 647.1551845875408 372.0702836544879 C 647.1551845875408 369.308859905334 649.3937608383868 367.0702836544879 652.1551845875408 367.0702836544879 C 654.9166083366948 367.0702836544879 657.1551845875408 369.308859905334 657.1551845875408 372.0702836544879 Z" stroke-opacity="1" stroke-linecap="round" stroke-linejoin="round" stroke-miterlimit="10"/><g transform="scale(27,27)"><g transform="translate(23.22222222222222,14.238887555555555)"><path fill="rgb(211,47,47)" stroke="none" paint-order="stroke fill markers" d=" M 0.374 -0.606 L 0.24 -0.073 Q 0.23600000000000002 -0.059000000000000004 0.23600000000000002 -0.05 Q 0.23600000000000002 -0.037 0.25 -0.034 L 0.251 -0.034 L 0.252 -0.034 Q 0.256 -0.033 0.261 -0.033 Q 0.281 -0.031 0.304 -0.031 Q 0.331 -0.031 0.333 -0.024 Q 0.334 -0.022 0.334 -0.019 Q 0.334 0 0.314 0 L 0.181 -0.003 L 0.18 -0.003 L 0.05 0 L 0.049 0 Q 0.034 0 0.034 -0.011 Q 0.034 -0.028 0.048 -0.03 Q 0.053 -0.031 0.066 -0.031 Q 0.133 -0.031 0.146 -0.048 Q 0.151 -0.055 0.157 -0.078 L 0.292 -0.617 Q 0.294 -0.626 0.294 -0.633 Q 0.294 -0.651 0.252 -0.652 L 0.251 -0.652 L 0.225 -0.652 Q 0.199 -0.652 0.197 -0.663 Q 0.197 -0.683 0.217 -0.683 L 0.34900000000000003 -0.68 L 0.35000000000000003 -0.68 L 0.481 -0.683 L 0.482 -0.683 Q 0.497 -0.683 0.497 -0.671 Q 0.497 -0.654 0.483 -0.653 Q 0.47800000000000004 -0.652 0.465 -0.652 Q 0.398 -0.652 0.385 -0.636 Q 0.38 -0.629 0.374 -0.606 Z"/></g></g><path fill="rgb(219,97,20)" stroke="none" paint-order="stroke fill markers" d=" M 657.1568137632765 371.09440738884587 C 657.1568137632765 373.8558311379998 654.9182375124306 376.09440738884587 652.1568137632765 376.09440738884587 C 649.3953900141225 376.09440738884587 647.1568137632765 373.8558311379998 647.1568137632765 371.09440738884587 C 647.1568137632765 368.3329836396919 649.3953900141225 366.09440738884587 652.1568137632765 366.09440738884587 C 654.9182375124306 366.09440738884587 657.1568137632765 368.3329836396919 657.1568137632765 371.09440738884587 Z" fill-opacity="1"/><path fill="none" stroke="rgb(0,0,0)" paint-order="fill stroke markers" d=" M 657.1568137632765 371.09440738884587 C 657.1568137632765 373.8558311379998 654.9182375124306 376.09440738884587 652.1568137632765 376.09440738884587 C 649.3953900141225 376.09440738884587 647.1568137632765 373.8558311379998 647.1568137632765 371.09440738884587 C 647.1568137632765 368.3329836396919 649.3953900141225 366.09440738884587 652.1568137632765 366.09440738884587 C 654.9182375124306 366.09440738884587 657.1568137632765 368.3329836396919 657.1568137632765 371.09440738884587 Z" stroke-opacity="1" stroke-linecap="round" stroke-linejoin="round" stroke-miterlimit="10"/><g transform="scale(27,27)"><g transform="translate(24.444444444444443,13.720369037037036)"><path fill="rgb(219,97,20)" stroke="none" paint-order="stroke fill markers" d=" M 0.76 -0.6950000000000001 L 0.6970000000000001 -0.44 Q 0.6920000000000001 -0.422 0.687 -0.421 L 0.686 -0.42 L 0.679 -0.42 Q 0.664 -0.42 0.664 -0.43 L 0.667 -0.47900000000000004 L 0.667 -0.481 Q 0.667 -0.605 0.589 -0.652 L 0.588 -0.653 Q 0.553 -0.674 0.506 -0.674 Q 0.399 -0.674 0.303 -0.593 Q 0.276 -0.5710000000000001 0.256 -0.545 Q 0.16 -0.427 0.14300000000000002 -0.255 Q 0.14100000000000001 -0.234 0.14100000000000001 -0.219 Q 0.14100000000000001 -0.082 0.245 -0.031 Q 0.289 -0.009000000000000001 0.342 -0.009000000000000001 Q 0.427 -0.009000000000000001 0.483 -0.052000000000000005 Q 0.523 -0.082 0.535 -0.13 Q 0.556 -0.20800000000000002 0.556 -0.221 Q 0.556 -0.234 0.541 -0.23800000000000002 Q 0.536 -0.23900000000000002 0.525 -0.24 Q 0.502 -0.242 0.47200000000000003 -0.242 Q 0.445 -0.242 0.443 -0.248 Q 0.442 -0.249 0.442 -0.253 Q 0.442 -0.273 0.463 -0.273 L 0.602 -0.27 L 0.603 -0.27 L 0.707 -0.273 L 0.708 -0.273 Q 0.721 -0.273 0.721 -0.262 Q 0.721 -0.242 0.705 -0.242 Q 0.659 -0.241 0.65 -0.232 Q 0.644 -0.225 0.636 -0.194 Q 0.636 -0.196 0.626 -0.155 Q 0.624 -0.148 0.623 -0.14300000000000002 L 0.604 -0.066 Q 0.59 -0.008 0.587 -0.005 Q 0.587 -0.001 0.58 -0.001 Q 0.5690000000000001 -0.001 0.546 -0.039 Q 0.539 -0.052000000000000005 0.535 -0.063 Q 0.501 -0.025 0.458 -0.006 L 0.448 -0.002 Q 0.39 0.022 0.323 0.022 Q 0.188 0.022 0.111 -0.07200000000000001 Q 0.05 -0.146 0.05 -0.252 Q 0.05 -0.401 0.159 -0.531 Q 0.26 -0.652 0.398 -0.6910000000000001 Q 0.449 -0.705 0.498 -0.705 Q 0.607 -0.705 0.664 -0.616 L 0.734 -0.6930000000000001 Q 0.746 -0.705 0.749 -0.705 Q 0.76 -0.705 0.76 -0.6950000000000001 Z"/></g></g></g></g></svg>