<svg xmlns="http://www.w3.org/2000/svg" xmlns:xlink="http://www.w3.org/1999/xlink" x="0" y="0" width="662" height="472.1953125" style="
        width:662px;
        height:472.1953125px;
        background: #FFF;
        fill: none;
">
        <svg xmlns="http://www.w3.org/2000/svg"/>
        
        <svg xmlns="http://www.w3.org/2000/svg" class="role-diagram-draw-area"><g class="shapes-region" style="stroke: black; fill: none;"><g class="composite-shape"><path class="real" d=" M1,1.71 L656,1.71 L656,460.6 L1,460.6 Z" style="stroke-width: 1; stroke: rgb(0, 0, 0); fill: rgb(74, 144, 226); fill-opacity: 1;"/></g><g/></g><g/><g/><g/></svg>
        <svg xmlns="http://www.w3.org/2000/svg" xmlns:xlink="http://www.w3.org/1999/xlink" width="660" height="470.1953125" style="width:660px;height:470.1953125px;font-family:Asana-Math, Asana;background:#FFF;"><g><g><g><g transform="matrix(1,0,0,1,322.6796875,80.756125)"><path transform="matrix(0.06461549999999999,0,0,-0.06461549999999999,0,0)" d="M55 128C55 59 118 -6 220 -6C257 -6 319 1 366 32C388 1 436 0 474 0C502 0 524 0 524 31C524 61 499 61 484 61C442 61 432 66 424 69L424 285C424 356 370 440 226 440C183 440 81 440 81 367C81 337 102 321 126 321C141 321 169 330 170 367C170 375 171 376 191 378C205 379 218 379 227 379C303 379 355 348 355 277C178 274 55 224 55 128ZM124 128C124 177 210 214 355 218L355 134C355 111 355 90 316 72C280 55 235 55 227 55C165 55 124 89 124 128Z" stroke="rgb(255,255,255)" stroke-opacity="1" stroke-width="8" fill="rgb(255,255,255)" fill-opacity="1"></path></g></g></g><g></g><g><g><g transform="matrix(1,0,0,1,271.796875,223.506125)"><path transform="matrix(0.06461549999999999,0,0,-0.06461549999999999,0,0)" d="M29 -82C29 -168 134 -229 262 -229C390 -229 495 -167 495 -82C495 -45 477 5 426 32C413 39 371 61 281 61L211 61C203 61 190 61 182 63C167 63 161 63 149 77C138 91 137 111 137 113C137 117 139 131 143 141C146 139 184 116 233 116C325 116 398 188 398 277C398 307 389 336 372 364C393 376 417 380 430 381C436 354 459 347 469 347C486 347 509 359 509 388C509 411 490 442 436 442C425 442 376 441 330 407C314 418 279 437 233 437C139 437 68 362 68 277C68 234 85 201 100 182C89 166 80 144 80 114C80 79 94 54 103 42C29 -3 29 -71 29 -82ZM87 -82C87 -64 96 -32 128 -12C153 4 162 4 235 4C324 4 437 4 437 -82C437 -126 362 -169 262 -169C162 -169 87 -126 87 -82ZM137 276C137 333 181 377 233 377C287 377 329 330 329 277C329 220 285 176 233 176C179 176 137 223 137 276ZM582 216C582 89 677 -6 787 -6C897 -6 992 90 992 216C992 341 899 440 787 440C675 440 582 341 582 216ZM651 223C651 314 716 379 787 379C859 379 923 314 923 223C923 130 861 55 787 55C713 55 651 130 651 223ZM1107 216C1107 89 1202 -6 1312 -6C1422 -6 1517 90 1517 216C1517 341 1424 440 1312 440C1200 440 1107 341 1107 216ZM1176 223C1176 314 1241 379 1312 379C1384 379 1448 314 1448 223C1448 130 1386 55 1312 55C1238 55 1176 130 1176 223ZM1611 215C1611 91 1701 -6 1807 -6C1863 -6 1905 21 1933 50C1933 14 1933 0 1973 0L2046 0C2062 0 2087 0 2087 31C2087 61 2061 61 2047 61L2002 61L2002 570C2002 601 1996 611 1962 611L1889 611C1873 611 1848 611 1848 580C1848 550 1874 550 1888 550L1933 550L1933 392C1900 421 1859 437 1816 437C1707 437 1611 342 1611 215ZM1680 215C1680 311 1750 376 1820 376C1884 376 1933 320 1933 265L1933 194C1933 138 1888 55 1811 55C1740 55 1680 126 1680 215Z" stroke="rgb(255,255,255)" stroke-opacity="1" stroke-width="8" fill="rgb(255,255,255)" fill-opacity="1"></path></g></g></g><g></g><g><g><g transform="matrix(1,0,0,1,187,366.256125)"><path transform="matrix(0.06461549999999999,0,0,-0.06461549999999999,0,0)" d="M72 35C72 19 72 -6 102 -6C111 -6 127 -5 139 32C188 -4 241 -6 269 -6C427 -6 459 77 459 125C459 229 330 250 298 255C275 259 255 262 230 267C201 271 133 283 133 322C133 348 165 379 260 379C343 379 357 349 360 323C361 306 363 289 394 289C429 289 429 310 429 330L429 399C429 415 429 440 399 440C375 440 371 426 369 419C325 440 281 440 262 440C95 440 72 358 72 322C72 230 177 213 269 199C318 191 398 178 398 125C398 88 361 55 270 55C223 55 167 66 142 144C137 162 133 173 107 173C72 173 72 152 72 132ZM537 30C537 0 563 0 577 0L736 0C750 0 776 0 776 30C776 61 751 61 735 61L691 61L691 238C691 338 765 376 816 376C869 376 883 348 883 288L883 61L844 61C828 61 803 61 803 30C803 0 830 0 844 0L997 0C1011 0 1037 0 1037 30C1037 61 1012 61 996 61L952 61L952 293C952 394 901 437 822 437C755 437 710 403 691 384L691 570C691 601 685 611 651 611L578 611C562 611 537 611 537 580C537 550 563 550 577 550L622 550L622 61L578 61C562 61 537 61 537 30ZM1107 216C1107 89 1202 -6 1312 -6C1422 -6 1517 90 1517 216C1517 341 1424 440 1312 440C1200 440 1107 341 1107 216ZM1176 223C1176 314 1241 379 1312 379C1384 379 1448 314 1448 223C1448 130 1386 55 1312 55C1238 55 1176 130 1176 223ZM1630 217C1630 95 1731 -6 1860 -6C1992 -6 2039 84 2039 109C2039 137 2010 137 2004 137C1986 137 1978 134 1971 115C1949 64 1895 55 1867 55C1792 55 1717 105 1701 191L1999 191C2020 191 2039 191 2039 228C2039 342 1975 440 1845 440C1726 440 1630 340 1630 217ZM1702 251C1716 324 1775 379 1845 379C1897 379 1959 354 1968 251ZM2096 30C2096 0 2123 0 2137 0L2225 0C2240 0 2266 0 2266 30C2266 61 2245 61 2209 61L2209 240C2209 329 2256 376 2297 376C2320 376 2334 359 2334 294L2334 61C2310 61 2285 61 2285 30C2285 0 2312 0 2326 0L2406 0C2421 0 2447 0 2447 30C2447 61 2426 61 2390 61L2390 240C2390 329 2437 376 2478 376C2501 376 2515 359 2515 294L2515 61C2491 61 2466 61 2466 30C2466 0 2493 0 2507 0L2587 0C2602 0 2628 0 2628 30C2628 61 2607 61 2571 61L2571 303C2571 323 2571 437 2482 437C2452 437 2405 424 2377 385C2362 419 2334 437 2301 437C2269 437 2233 423 2209 401C2207 431 2187 431 2169 431L2137 431C2122 431 2096 431 2096 401C2096 370 2117 370 2153 370L2153 61C2117 61 2096 61 2096 30ZM2680 128C2680 59 2743 -6 2845 -6C2882 -6 2944 1 2991 32C3013 1 3061 0 3099 0C3127 0 3149 0 3149 31C3149 61 3124 61 3109 61C3067 61 3057 66 3049 69L3049 285C3049 356 2995 440 2851 440C2808 440 2706 440 2706 367C2706 337 2727 321 2751 321C2766 321 2794 330 2795 367C2795 375 2796 376 2816 378C2830 379 2843 379 2852 379C2928 379 2980 348 2980 277C2803 274 2680 224 2680 128ZM2749 128C2749 177 2835 214 2980 218L2980 134C2980 111 2980 90 2941 72C2905 55 2860 55 2852 55C2790 55 2749 89 2749 128ZM3171 31C3171 0 3195 0 3211 0L3365 0C3380 0 3405 0 3405 30C3405 61 3381 61 3365 61L3316 61L3316 142L3396 216L3515 61C3479 61 3459 61 3459 30C3459 0 3484 0 3499 0L3617 0C3632 0 3658 0 3658 30C3658 61 3632 61 3617 61L3586 61L3437 255L3560 370L3595 370C3610 370 3636 370 3636 400C3636 431 3610 431 3595 431L3441 431C3425 431 3401 431 3401 400C3401 370 3426 370 3441 370L3478 370L3316 218L3316 570C3316 601 3310 611 3276 611L3211 611C3196 611 3171 611 3171 581C3171 550 3195 550 3211 550L3260 550L3260 61L3211 61C3196 61 3171 61 3171 31ZM3730 217C3730 95 3831 -6 3960 -6C4092 -6 4139 84 4139 109C4139 137 4110 137 4104 137C4086 137 4078 134 4071 115C4049 64 3995 55 3967 55C3892 55 3817 105 3801 191L4099 191C4120 191 4139 191 4139 228C4139 342 4075 440 3945 440C3826 440 3730 340 3730 217ZM3802 251C3816 324 3875 379 3945 379C3997 379 4059 354 4068 251ZM4232 31C4232 0 4256 0 4272 0L4533 0C4548 0 4574 0 4574 30C4574 61 4548 61 4533 61L4422 61L4422 186C4422 280 4481 376 4602 376C4603 352 4620 332 4645 332C4667 332 4687 348 4687 375C4687 395 4675 437 4592 437C4541 437 4477 419 4422 356L4422 390C4422 421 4416 431 4382 431L4272 431C4257 431 4232 431 4232 401C4232 370 4256 370 4272 370L4353 370L4353 61L4272 61C4257 61 4232 61 4232 31Z" stroke="rgb(255,255,255)" stroke-opacity="1" stroke-width="8" fill="rgb(255,255,255)" fill-opacity="1"></path></g></g></g></g></svg>
</svg>
