<svg version="1.1" xmlns="http://www.w3.org/2000/svg" xmlns:xlink="http://www.w3.org/1999/xlink" width="1310" height="605"><defs><clipPath id="owlDiyVTzVVE"><path fill="none" stroke="none" d=" M 0 0 L 1310 0 L 1310 605 L 0 605 L 0 0 Z"/></clipPath></defs><g transform="scale(1,1)" clip-path="url(#owlDiyVTzVVE)"><g><rect fill="rgb(255,255,255)" stroke="none" x="0" y="0" width="1310" height="605" fill-opacity="1"/><path fill="none" stroke="rgb(0,0,0)" paint-order="fill stroke markers" d=" M 1099.6808415462535 526.9334194893147 C 1099.6808415462535 270.4112288489683 891.7285184164144 62.45890571912895 635.2063277760682 62.45890571912895 C 378.684137135722 62.45890571912895 170.73181400588282 270.4112288489682 170.73181400588277 526.9334194893146" stroke-opacity="0.6980392156862745" stroke-linecap="round" stroke-linejoin="round" stroke-miterlimit="10" stroke-width="2.5"/><path fill="rgb(0,0,0)" stroke="none" paint-order="stroke fill markers" fill-rule="evenodd" d=" M 675.0629975934538 445.83584144413146 L 694.101210198195 455.19246801659943 L 703.4578367706649 436.1542554118576 L 684.4196241659218 426.79762883939026 L 675.0629975934538 445.83584144413146" fill-opacity="0.09803921568627451"/><path fill="none" stroke="rgb(0,0,0)" paint-order="fill stroke markers" d=" M 675.0629975934538 445.83584144413146 L 694.101210198195 455.19246801659943 L 703.4578367706649 436.1542554118576 L 684.4196241659218 426.79762883939026 L 675.0629975934538 445.83584144413146" stroke-opacity="0.6" stroke-linecap="round" stroke-linejoin="round" stroke-miterlimit="10" stroke-width="2.5"/><path fill="rgb(0,0,0)" stroke="none" paint-order="stroke fill markers" fill-rule="evenodd" d=" M 635.2063277760682 526.9334194893147 L 635.2063277760682 505.7202160537197 L 613.9931243404718 505.7202160537183 L 613.9931243404732 526.9334194893147 L 635.2063277760682 526.9334194893147" fill-opacity="0.09803921568627451"/><path fill="none" stroke="rgb(0,0,0)" paint-order="fill stroke markers" d=" M 635.2063277760682 526.9334194893147 L 635.2063277760682 505.7202160537197 L 613.9931243404718 505.7202160537183 L 613.9931243404732 526.9334194893147 L 635.2063277760682 526.9334194893147" stroke-opacity="0.6" stroke-linecap="round" stroke-linejoin="round" stroke-miterlimit="10" stroke-width="2.5"/><path fill="none" stroke="rgb(46,125,50)" paint-order="fill stroke markers" d=" M 170.73181400588277 526.9334194893147 L 840.0747056696199 526.9334194893147" stroke-opacity="0.6980392156862745" stroke-linecap="round" stroke-linejoin="round" stroke-miterlimit="10" stroke-width="2.5"/><g transform="scale(27,27)"><g transform="translate(16.11111111111111,20.467592037037036)"><path fill="rgb(46,125,50)" stroke="none" paint-order="stroke fill markers" d=" M 0.373 -0.378 Q 0.378 -0.41200000000000003 0.404 -0.42 Q 0.40900000000000003 -0.422 0.41500000000000004 -0.422 Q 0.441 -0.422 0.444 -0.395 Q 0.444 -0.389 0.437 -0.361 L 0.401 -0.221 Q 0.386 -0.158 0.379 -0.131 Q 0.366 -0.079 0.366 -0.057 Q 0.366 -0.011 0.396 -0.011 Q 0.434 -0.011 0.46 -0.091 Q 0.465 -0.108 0.47200000000000003 -0.135 Q 0.48 -0.152 0.486 -0.153 Q 0.498 -0.153 0.498 -0.14300000000000002 Q 0.498 -0.128 0.48 -0.073 Q 0.47400000000000003 -0.056 0.468 -0.044 Q 0.44 0.011 0.394 0.011 Q 0.338 0.011 0.313 -0.037 Q 0.306 -0.049 0.303 -0.064 Q 0.24 0.011 0.17300000000000001 0.011 Q 0.098 0.011 0.062 -0.057 Q 0.04 -0.097 0.04 -0.149 Q 0.04 -0.257 0.115 -0.34900000000000003 Q 0.185 -0.433 0.267 -0.441 Q 0.274 -0.442 0.281 -0.442 Q 0.342 -0.442 0.373 -0.378 M 0.308 -0.11900000000000001 L 0.308 -0.11900000000000001 L 0.358 -0.315 Q 0.361 -0.33 0.361 -0.332 Q 0.361 -0.353 0.343 -0.383 Q 0.321 -0.42 0.28200000000000003 -0.42 Q 0.23 -0.42 0.183 -0.352 Q 0.17400000000000002 -0.339 0.166 -0.324 Q 0.137 -0.266 0.117 -0.159 Q 0.111 -0.125 0.111 -0.105 Q 0.111 -0.037 0.149 -0.017 Q 0.16 -0.011 0.17500000000000002 -0.011 Q 0.231 -0.011 0.28800000000000003 -0.082 Q 0.302 -0.098 0.307 -0.115 L 0.307 -0.116 Q 0.308 -0.11800000000000001 0.308 -0.11900000000000001 Z"/></g></g><path fill="none" stroke="rgb(101,87,210)" paint-order="fill stroke markers" d=" M 840.0747056696199 526.9334194893147 L 1099.6808415462535 526.9334194893147" stroke-opacity="0.6980392156862745" stroke-linecap="round" stroke-linejoin="round" stroke-miterlimit="10" stroke-width="2.5"/><g transform="scale(27,27)"><g transform="translate(35.629629629629626,20.54629685185185)"><path fill="rgb(101,87,210)" stroke="none" paint-order="stroke fill markers" d=" M 0.23900000000000002 -0.683 L 0.165 -0.382 Q 0.223 -0.442 0.28200000000000003 -0.442 Q 0.357 -0.442 0.394 -0.373 Q 0.41500000000000004 -0.333 0.41500000000000004 -0.28200000000000003 Q 0.41500000000000004 -0.176 0.341 -0.084 Q 0.272 0.001 0.189 0.01 Q 0.181 0.011 0.17400000000000002 0.011 Q 0.10200000000000001 0.011 0.067 -0.056 Q 0.047 -0.094 0.047 -0.146 Q 0.047 -0.18 0.063 -0.247 L 0.145 -0.5730000000000001 Q 0.159 -0.632 0.159 -0.635 Q 0.159 -0.646 0.145 -0.649 L 0.145 -0.649 Q 0.133 -0.652 0.109 -0.652 Q 0.08700000000000001 -0.652 0.085 -0.664 Q 0.085 -0.681 0.10400000000000001 -0.684 L 0.226 -0.6940000000000001 Q 0.23900000000000002 -0.6940000000000001 0.23900000000000002 -0.683 M 0.145 -0.305 L 0.123 -0.213 Q 0.107 -0.15 0.107 -0.112 Q 0.107 -0.026000000000000002 0.159 -0.013000000000000001 Q 0.166 -0.011 0.17400000000000002 -0.011 Q 0.227 -0.011 0.273 -0.081 Q 0.28300000000000003 -0.096 0.292 -0.114 Q 0.319 -0.171 0.337 -0.268 Q 0.343 -0.303 0.343 -0.326 Q 0.343 -0.406 0.294 -0.418 L 0.293 -0.419 Q 0.28700000000000003 -0.42 0.28 -0.42 Q 0.22 -0.42 0.16 -0.34 Q 0.152 -0.33 0.145 -0.305 Z"/></g></g><path fill="none" stroke="rgb(0,0,0)" paint-order="fill stroke markers" d=" M 635.2063277760682 62.45890571912895 L 635.2063277760682 526.9334194893147" stroke-opacity="0.6980392156862745" stroke-linecap="round" stroke-linejoin="round" stroke-miterlimit="10" stroke-width="2.5"/><path fill="none" stroke="rgb(0,0,0)" paint-order="fill stroke markers" d=" M 635.2063277760682 62.45890571912895 L 840.0747056696199 526.9334194893147" stroke-opacity="0.6980392156862745" stroke-linecap="round" stroke-linejoin="round" stroke-miterlimit="10" stroke-width="2.5"/><path fill="none" stroke="rgb(0,0,0)" paint-order="fill stroke markers" d=" M 840.0747056696199 110.081501320146 L 840.0747056696199 526.9334194893147" stroke-opacity="0.6980392156862745" stroke-linecap="round" stroke-linejoin="round" stroke-miterlimit="10" stroke-width="2.5"/><path fill="none" stroke="rgb(0,0,0)" paint-order="fill stroke markers" d=" M 840.0747056696199 526.9334194893147 L 675.0629975934538 445.83584144413146" stroke-opacity="0.6980392156862745" stroke-linecap="round" stroke-linejoin="round" stroke-miterlimit="10" stroke-width="2.5"/><path fill="none" stroke="rgb(0,0,0)" paint-order="fill stroke markers" d=" M 675.0629975934538 445.83584144413146 L 635.2063277760682 526.9334194893147" stroke-opacity="0.6980392156862745" stroke-linecap="round" stroke-linejoin="round" stroke-miterlimit="10" stroke-width="2.5"/><path fill="none" stroke="rgb(0,0,0)" paint-order="fill stroke markers" d=" M 840.0747056696199 110.081501320146 L 675.0629975934538 445.83584144413146" stroke-opacity="0.6980392156862745" stroke-linecap="round" stroke-linejoin="round" stroke-miterlimit="10" stroke-width="2.5"/><path fill="rgb(21,101,192)" stroke="none" paint-order="stroke fill markers" d=" M 175.73181400588277 526.9334194893147 C 175.73181400588277 529.6948432384687 173.49323775503674 531.9334194893147 170.73181400588277 531.9334194893147 C 167.9703902567288 531.9334194893147 165.73181400588277 529.6948432384687 165.73181400588277 526.9334194893147 C 165.73181400588277 524.1719957401607 167.9703902567288 521.9334194893147 170.73181400588277 521.9334194893147 C 173.49323775503674 521.9334194893147 175.73181400588277 524.1719957401607 175.73181400588277 526.9334194893147 Z" fill-opacity="1"/><path fill="none" stroke="rgb(0,0,0)" paint-order="fill stroke markers" d=" M 175.73181400588277 526.9334194893147 C 175.73181400588277 529.6948432384687 173.49323775503674 531.9334194893147 170.73181400588277 531.9334194893147 C 167.9703902567288 531.9334194893147 165.73181400588277 529.6948432384687 165.73181400588277 526.9334194893147 C 165.73181400588277 524.1719957401607 167.9703902567288 521.9334194893147 170.73181400588277 521.9334194893147 C 173.49323775503674 521.9334194893147 175.73181400588277 524.1719957401607 175.73181400588277 526.9334194893147 Z" stroke-opacity="1" stroke-linecap="round" stroke-linejoin="round" stroke-miterlimit="10"/><path fill="rgb(21,101,192)" stroke="none" paint-order="stroke fill markers" d=" M 1104.6808415462535 526.9334194893147 C 1104.6808415462535 529.6948432384687 1102.4422652954074 531.9334194893147 1099.6808415462535 531.9334194893147 C 1096.9194177970996 531.9334194893147 1094.6808415462535 529.6948432384687 1094.6808415462535 526.9334194893147 C 1094.6808415462535 524.1719957401607 1096.9194177970996 521.9334194893147 1099.6808415462535 521.9334194893147 C 1102.4422652954074 521.9334194893147 1104.6808415462535 524.1719957401607 1104.6808415462535 526.9334194893147 Z" fill-opacity="1"/><path fill="none" stroke="rgb(0,0,0)" paint-order="fill stroke markers" d=" M 1104.6808415462535 526.9334194893147 C 1104.6808415462535 529.6948432384687 1102.4422652954074 531.9334194893147 1099.6808415462535 531.9334194893147 C 1096.9194177970996 531.9334194893147 1094.6808415462535 529.6948432384687 1094.6808415462535 526.9334194893147 C 1094.6808415462535 524.1719957401607 1096.9194177970996 521.9334194893147 1099.6808415462535 521.9334194893147 C 1102.4422652954074 521.9334194893147 1104.6808415462535 524.1719957401607 1104.6808415462535 526.9334194893147 Z" stroke-opacity="1" stroke-linecap="round" stroke-linejoin="round" stroke-miterlimit="10"/><path fill="rgb(211,47,47)" stroke="none" paint-order="stroke fill markers" d=" M 640.2063277760682 526.9334194893147 C 640.2063277760682 529.6948432384687 637.9677515252222 531.9334194893147 635.2063277760682 531.9334194893147 C 632.4449040269142 531.9334194893147 630.2063277760682 529.6948432384687 630.2063277760682 526.9334194893147 C 630.2063277760682 524.1719957401607 632.4449040269142 521.9334194893147 635.2063277760682 521.9334194893147 C 637.9677515252222 521.9334194893147 640.2063277760682 524.1719957401607 640.2063277760682 526.9334194893147 Z" fill-opacity="1"/><path fill="none" stroke="rgb(0,0,0)" paint-order="fill stroke markers" d=" M 640.2063277760682 526.9334194893147 C 640.2063277760682 529.6948432384687 637.9677515252222 531.9334194893147 635.2063277760682 531.9334194893147 C 632.4449040269142 531.9334194893147 630.2063277760682 529.6948432384687 630.2063277760682 526.9334194893147 C 630.2063277760682 524.1719957401607 632.4449040269142 521.9334194893147 635.2063277760682 521.9334194893147 C 637.9677515252222 521.9334194893147 640.2063277760682 524.1719957401607 640.2063277760682 526.9334194893147 Z" stroke-opacity="1" stroke-linecap="round" stroke-linejoin="round" stroke-miterlimit="10"/><path fill="rgb(21,101,192)" stroke="none" paint-order="stroke fill markers" d=" M 845.0747056696199 526.9334194893147 C 845.0747056696199 529.6948432384687 842.8361294187739 531.9334194893147 840.0747056696199 531.9334194893147 C 837.3132819204659 531.9334194893147 835.0747056696199 529.6948432384687 835.0747056696199 526.9334194893147 C 835.0747056696199 524.1719957401607 837.3132819204659 521.9334194893147 840.0747056696199 521.9334194893147 C 842.8361294187739 521.9334194893147 845.0747056696199 524.1719957401607 845.0747056696199 526.9334194893147 Z" fill-opacity="1"/><path fill="none" stroke="rgb(0,0,0)" paint-order="fill stroke markers" d=" M 845.0747056696199 526.9334194893147 C 845.0747056696199 529.6948432384687 842.8361294187739 531.9334194893147 840.0747056696199 531.9334194893147 C 837.3132819204659 531.9334194893147 835.0747056696199 529.6948432384687 835.0747056696199 526.9334194893147 C 835.0747056696199 524.1719957401607 837.3132819204659 521.9334194893147 840.0747056696199 521.9334194893147 C 842.8361294187739 521.9334194893147 845.0747056696199 524.1719957401607 845.0747056696199 526.9334194893147 Z" stroke-opacity="1" stroke-linecap="round" stroke-linejoin="round" stroke-miterlimit="10"/><path fill="rgb(21,101,192)" stroke="none" paint-order="stroke fill markers" d=" M 845.0747056696199 110.081501320146 C 845.0747056696199 112.84292506929997 842.8361294187739 115.081501320146 840.0747056696199 115.081501320146 C 837.3132819204659 115.081501320146 835.0747056696199 112.84292506929997 835.0747056696199 110.081501320146 C 835.0747056696199 107.32007757099204 837.3132819204659 105.081501320146 840.0747056696199 105.081501320146 C 842.8361294187739 105.081501320146 845.0747056696199 107.32007757099204 845.0747056696199 110.081501320146 Z" fill-opacity="1"/><path fill="none" stroke="rgb(0,0,0)" paint-order="fill stroke markers" d=" M 845.0747056696199 110.081501320146 C 845.0747056696199 112.84292506929997 842.8361294187739 115.081501320146 840.0747056696199 115.081501320146 C 837.3132819204659 115.081501320146 835.0747056696199 112.84292506929997 835.0747056696199 110.081501320146 C 835.0747056696199 107.32007757099204 837.3132819204659 105.081501320146 840.0747056696199 105.081501320146 C 842.8361294187739 105.081501320146 845.0747056696199 107.32007757099204 845.0747056696199 110.081501320146 Z" stroke-opacity="1" stroke-linecap="round" stroke-linejoin="round" stroke-miterlimit="10"/><path fill="rgb(21,101,192)" stroke="none" paint-order="stroke fill markers" d=" M 640.2063277760682 62.45890571912895 C 640.2063277760682 65.22032946828291 637.9677515252222 67.45890571912895 635.2063277760682 67.45890571912895 C 632.4449040269142 67.45890571912895 630.2063277760682 65.22032946828291 630.2063277760682 62.45890571912895 C 630.2063277760682 59.69748196997498 632.4449040269142 57.45890571912895 635.2063277760682 57.45890571912895 C 637.9677515252222 57.45890571912895 640.2063277760682 59.69748196997498 640.2063277760682 62.45890571912895 Z" fill-opacity="1"/><path fill="none" stroke="rgb(0,0,0)" paint-order="fill stroke markers" d=" M 640.2063277760682 62.45890571912895 C 640.2063277760682 65.22032946828291 637.9677515252222 67.45890571912895 635.2063277760682 67.45890571912895 C 632.4449040269142 67.45890571912895 630.2063277760682 65.22032946828291 630.2063277760682 62.45890571912895 C 630.2063277760682 59.69748196997498 632.4449040269142 57.45890571912895 635.2063277760682 57.45890571912895 C 637.9677515252222 57.45890571912895 640.2063277760682 59.69748196997498 640.2063277760682 62.45890571912895 Z" stroke-opacity="1" stroke-linecap="round" stroke-linejoin="round" stroke-miterlimit="10"/><path fill="rgb(21,101,192)" stroke="none" paint-order="stroke fill markers" d=" M 680.0629975934538 445.83584144413146 C 680.0629975934538 448.5972651932854 677.8244213426078 450.83584144413146 675.0629975934538 450.83584144413146 C 672.3015738442998 450.83584144413146 670.0629975934538 448.5972651932854 670.0629975934538 445.83584144413146 C 670.0629975934538 443.0744176949775 672.3015738442998 440.83584144413146 675.0629975934538 440.83584144413146 C 677.8244213426078 440.83584144413146 680.0629975934538 443.0744176949775 680.0629975934538 445.83584144413146 Z" fill-opacity="1"/><path fill="none" stroke="rgb(0,0,0)" paint-order="fill stroke markers" d=" M 680.0629975934538 445.83584144413146 C 680.0629975934538 448.5972651932854 677.8244213426078 450.83584144413146 675.0629975934538 450.83584144413146 C 672.3015738442998 450.83584144413146 670.0629975934538 448.5972651932854 670.0629975934538 445.83584144413146 C 670.0629975934538 443.0744176949775 672.3015738442998 440.83584144413146 675.0629975934538 440.83584144413146 C 677.8244213426078 440.83584144413146 680.0629975934538 443.0744176949775 680.0629975934538 445.83584144413146 Z" stroke-opacity="1" stroke-linecap="round" stroke-linejoin="round" stroke-miterlimit="10"/></g></g></svg>