<svg version="1.1" xmlns="http://www.w3.org/2000/svg" xmlns:xlink="http://www.w3.org/1999/xlink" width="986" height="605"><defs><clipPath id="FciKKOOsHOck"><path fill="none" stroke="none" d=" M 0 0 L 986 0 L 986 605 L 0 605 L 0 0 Z"/></clipPath></defs><g transform="scale(1,1)" clip-path="url(#FciKKOOsHOck)"><g><rect fill="rgb(255,255,255)" stroke="none" x="0" y="0" width="986" height="605" fill-opacity="1"/><path fill="rgb(0,0,0)" stroke="none" paint-order="stroke fill markers" fill-rule="evenodd" d=" M 557.8074302214343 280.8674622816203 L 548.3060866543327 285.58174594087154 L 553.0203703135836 295.0830895079741 L 562.5217138806855 290.3688058487219 L 557.8074302214343 280.8674622816203" fill-opacity="0.09803921568627451"/><path fill="none" stroke="rgb(0,0,0)" paint-order="fill stroke markers" d=" M 557.8074302214343 280.8674622816203 L 548.3060866543327 285.58174594087154 L 553.0203703135836 295.0830895079741 L 562.5217138806855 290.3688058487219 L 557.8074302214343 280.8674622816203" stroke-opacity="0.6" stroke-linecap="round" stroke-linejoin="round" stroke-miterlimit="10" stroke-width="2.5"/><path fill="rgb(0,0,0)" stroke="none" paint-order="stroke fill markers" fill-rule="evenodd" d=" M 416.19256977856577 351.1325377183798 L 411.47828611931453 341.63119415127824 L 401.97694255221205 346.34547781052913 L 406.69122621146425 355.84682137763104 L 416.19256977856577 351.1325377183798" fill-opacity="0.09803921568627451"/><path fill="none" stroke="rgb(0,0,0)" paint-order="fill stroke markers" d=" M 416.19256977856577 351.1325377183798 L 411.47828611931453 341.63119415127824 L 401.97694255221205 346.34547781052913 L 406.69122621146425 355.84682137763104 L 416.19256977856577 351.1325377183798" stroke-opacity="0.6" stroke-linecap="round" stroke-linejoin="round" stroke-miterlimit="10" stroke-width="2.5"/><path fill="rgb(0,0,0)" stroke="none" paint-order="stroke fill markers" fill-rule="evenodd" d=" M 397.5674518903961 222.19303377633935 L 389.89059402506655 229.51190345105775 L 397.20946369978486 237.18876131638837 L 404.8863215651145 229.86989164166894 L 397.5674518903961 222.19303377633935" fill-opacity="0.09803921568627451"/><path fill="none" stroke="rgb(0,0,0)" paint-order="fill stroke markers" d=" M 397.5674518903961 222.19303377633935 L 389.89059402506655 229.51190345105775 L 397.20946369978486 237.18876131638837 L 404.8863215651145 229.86989164166894 L 397.5674518903961 222.19303377633935" stroke-opacity="0.6" stroke-linecap="round" stroke-linejoin="round" stroke-miterlimit="10" stroke-width="2.5"/><path fill="rgb(0,0,0)" stroke="none" paint-order="stroke fill markers" fill-rule="evenodd" d=" M 576.432548109604 409.80696622366065 L 583.7514177843224 417.4838240889903 L 591.428275649653 410.1649544142719 L 584.1094059749336 402.4880965489423 L 576.432548109604 409.80696622366065" fill-opacity="0.09803921568627451"/><path fill="none" stroke="rgb(0,0,0)" paint-order="fill stroke markers" d=" M 576.432548109604 409.80696622366065 L 583.7514177843224 417.4838240889903 L 591.428275649653 410.1649544142719 L 584.1094059749336 402.4880965489423 L 576.432548109604 409.80696622366065" stroke-opacity="0.6" stroke-linecap="round" stroke-linejoin="round" stroke-miterlimit="10" stroke-width="2.5"/><path fill="none" stroke="rgb(0,0,0)" paint-order="fill stroke markers" d=" M 303.00000000000006 122.99999999999999 L 878.6666666666666 121.66666666666659" stroke-opacity="0.6980392156862745" stroke-linecap="round" stroke-linejoin="round" stroke-miterlimit="10" stroke-width="2.5"/><path fill="none" stroke="rgb(0,0,0)" paint-order="fill stroke markers" d=" M 878.6666666666666 121.66666666666659 L 671 509" stroke-opacity="0.6980392156862745" stroke-linecap="round" stroke-linejoin="round" stroke-miterlimit="10" stroke-width="2.5"/><path fill="none" stroke="rgb(0,0,0)" paint-order="fill stroke markers" d=" M 671 509 L 95.33333333333348 510.3333333333334" stroke-opacity="0.6980392156862745" stroke-linecap="round" stroke-linejoin="round" stroke-miterlimit="10" stroke-width="2.5"/><path fill="none" stroke="rgb(0,0,0)" paint-order="fill stroke markers" d=" M 95.33333333333348 510.3333333333334 L 303.00000000000006 122.99999999999999" stroke-opacity="0.6980392156862745" stroke-linecap="round" stroke-linejoin="round" stroke-miterlimit="10" stroke-width="2.5"/><path fill="none" stroke="rgb(0,0,0)" paint-order="fill stroke markers" d=" M 95.33333333333348 510.3333333333334 L 878.6666666666666 121.66666666666659" stroke-opacity="0.6980392156862745" stroke-linecap="round" stroke-linejoin="round" stroke-miterlimit="10" stroke-width="2.5"/><path fill="none" stroke="rgb(0,0,0)" paint-order="fill stroke markers" d=" M 303.00000000000006 122.99999999999999 L 671 509" stroke-opacity="0.6980392156862745" stroke-linecap="round" stroke-linejoin="round" stroke-miterlimit="10" stroke-width="2.5"/><path fill="none" stroke="rgb(0,0,0)" paint-order="fill stroke markers" d=" M 95.33333333333348 510.3333333333334 L 397.5674518903961 222.19303377633935" stroke-opacity="0.6980392156862745" stroke-linejoin="round" stroke-miterlimit="10" stroke-width="2.5" stroke-dasharray="6.5,4"/><path fill="none" stroke="rgb(0,0,0)" paint-order="fill stroke markers" d=" M 671 509 L 557.8074302214343 280.8674622816203" stroke-opacity="0.6980392156862745" stroke-linejoin="round" stroke-miterlimit="10" stroke-width="2.5" stroke-dasharray="6.5,4"/><path fill="none" stroke="rgb(0,0,0)" paint-order="fill stroke markers" d=" M 878.6666666666666 121.66666666666659 L 576.432548109604 409.80696622366065" stroke-opacity="0.6980392156862745" stroke-linejoin="round" stroke-miterlimit="10" stroke-width="2.5" stroke-dasharray="6.5,4"/><path fill="none" stroke="rgb(0,0,0)" paint-order="fill stroke markers" d=" M 303.00000000000006 122.99999999999999 L 416.19256977856577 351.1325377183798" stroke-opacity="0.6980392156862745" stroke-linejoin="round" stroke-miterlimit="10" stroke-width="2.5" stroke-dasharray="6.5,4"/><path fill="none" stroke="rgb(0,0,0)" paint-order="fill stroke markers" d=" M 397.5674518903961 222.19303377633935 L 557.8074302214343 280.8674622816203" stroke-opacity="0.6980392156862745" stroke-linecap="round" stroke-linejoin="round" stroke-miterlimit="10" stroke-width="2.5"/><path fill="none" stroke="rgb(0,0,0)" paint-order="fill stroke markers" d=" M 557.8074302214343 280.8674622816203 L 576.432548109604 409.80696622366065" stroke-opacity="0.6980392156862745" stroke-linecap="round" stroke-linejoin="round" stroke-miterlimit="10" stroke-width="2.5"/><path fill="none" stroke="rgb(0,0,0)" paint-order="fill stroke markers" d=" M 576.432548109604 409.80696622366065 L 416.19256977856577 351.1325377183798" stroke-opacity="0.6980392156862745" stroke-linecap="round" stroke-linejoin="round" stroke-miterlimit="10" stroke-width="2.5"/><path fill="none" stroke="rgb(0,0,0)" paint-order="fill stroke markers" d=" M 416.19256977856577 351.1325377183798 L 397.5674518903961 222.19303377633935" stroke-opacity="0.6980392156862745" stroke-linecap="round" stroke-linejoin="round" stroke-miterlimit="10" stroke-width="2.5"/><path fill="rgb(21,101,192)" stroke="none" paint-order="stroke fill markers" d=" M 308.00000000000006 122.99999999999999 C 308.00000000000006 125.76142374915395 305.761423749154 127.99999999999999 303.00000000000006 127.99999999999999 C 300.2385762508461 127.99999999999999 298.00000000000006 125.76142374915395 298.00000000000006 122.99999999999999 C 298.00000000000006 120.23857625084602 300.2385762508461 117.99999999999999 303.00000000000006 117.99999999999999 C 305.761423749154 117.99999999999999 308.00000000000006 120.23857625084602 308.00000000000006 122.99999999999999 Z" fill-opacity="1"/><path fill="none" stroke="rgb(0,0,0)" paint-order="fill stroke markers" d=" M 308.00000000000006 122.99999999999999 C 308.00000000000006 125.76142374915395 305.761423749154 127.99999999999999 303.00000000000006 127.99999999999999 C 300.2385762508461 127.99999999999999 298.00000000000006 125.76142374915395 298.00000000000006 122.99999999999999 C 298.00000000000006 120.23857625084602 300.2385762508461 117.99999999999999 303.00000000000006 117.99999999999999 C 305.761423749154 117.99999999999999 308.00000000000006 120.23857625084602 308.00000000000006 122.99999999999999 Z" stroke-opacity="1" stroke-linecap="round" stroke-linejoin="round" stroke-miterlimit="10"/><text fill="rgb(21,101,192)" stroke="none" font-family="geogebra-sans-serif, sans-serif" font-size="24px" font-style="normal" font-weight="normal" text-decoration="normal" x="272" y="106" text-anchor="start" dominant-baseline="alphabetic" fill-opacity="1">A</text><text fill="none" stroke="rgb(255,255,255)" font-family="geogebra-sans-serif, sans-serif" font-size="24px" font-style="normal" font-weight="normal" text-decoration="normal" x="272" y="106" text-anchor="start" dominant-baseline="alphabetic" stroke-opacity="1" stroke-linejoin="bevel" stroke-miterlimit="10" stroke-width="3">A</text><text fill="rgb(21,101,192)" stroke="none" font-family="geogebra-sans-serif, sans-serif" font-size="24px" font-style="normal" font-weight="normal" text-decoration="normal" x="272" y="106" text-anchor="start" dominant-baseline="alphabetic" fill-opacity="1">A</text><path fill="rgb(21,101,192)" stroke="none" paint-order="stroke fill markers" d=" M 883.6666666666666 121.66666666666659 C 883.6666666666666 124.42809041582055 881.4280904158206 126.66666666666659 878.6666666666666 126.66666666666659 C 875.9052429175126 126.66666666666659 873.6666666666666 124.42809041582055 873.6666666666666 121.66666666666659 C 873.6666666666666 118.90524291751262 875.9052429175126 116.66666666666659 878.6666666666666 116.66666666666659 C 881.4280904158206 116.66666666666659 883.6666666666666 118.90524291751262 883.6666666666666 121.66666666666659 Z" fill-opacity="1"/><path fill="none" stroke="rgb(0,0,0)" paint-order="fill stroke markers" d=" M 883.6666666666666 121.66666666666659 C 883.6666666666666 124.42809041582055 881.4280904158206 126.66666666666659 878.6666666666666 126.66666666666659 C 875.9052429175126 126.66666666666659 873.6666666666666 124.42809041582055 873.6666666666666 121.66666666666659 C 873.6666666666666 118.90524291751262 875.9052429175126 116.66666666666659 878.6666666666666 116.66666666666659 C 881.4280904158206 116.66666666666659 883.6666666666666 118.90524291751262 883.6666666666666 121.66666666666659 Z" stroke-opacity="1" stroke-linecap="round" stroke-linejoin="round" stroke-miterlimit="10"/><text fill="rgb(21,101,192)" stroke="none" font-family="geogebra-sans-serif, sans-serif" font-size="24px" font-style="normal" font-weight="normal" text-decoration="normal" x="898" y="112" text-anchor="start" dominant-baseline="alphabetic" fill-opacity="1">B</text><text fill="none" stroke="rgb(255,255,255)" font-family="geogebra-sans-serif, sans-serif" font-size="24px" font-style="normal" font-weight="normal" text-decoration="normal" x="898" y="112" text-anchor="start" dominant-baseline="alphabetic" stroke-opacity="1" stroke-linejoin="bevel" stroke-miterlimit="10" stroke-width="3">B</text><text fill="rgb(21,101,192)" stroke="none" font-family="geogebra-sans-serif, sans-serif" font-size="24px" font-style="normal" font-weight="normal" text-decoration="normal" x="898" y="112" text-anchor="start" dominant-baseline="alphabetic" fill-opacity="1">B</text><path fill="rgb(21,101,192)" stroke="none" paint-order="stroke fill markers" d=" M 676 509 C 676 511.76142374915395 673.761423749154 514 671 514 C 668.238576250846 514 666 511.76142374915395 666 509 C 666 506.23857625084605 668.238576250846 504 671 504 C 673.761423749154 504 676 506.23857625084605 676 509 Z" fill-opacity="1"/><path fill="none" stroke="rgb(0,0,0)" paint-order="fill stroke markers" d=" M 676 509 C 676 511.76142374915395 673.761423749154 514 671 514 C 668.238576250846 514 666 511.76142374915395 666 509 C 666 506.23857625084605 668.238576250846 504 671 504 C 673.761423749154 504 676 506.23857625084605 676 509 Z" stroke-opacity="1" stroke-linecap="round" stroke-linejoin="round" stroke-miterlimit="10"/><text fill="rgb(21,101,192)" stroke="none" font-family="geogebra-sans-serif, sans-serif" font-size="24px" font-style="normal" font-weight="normal" text-decoration="normal" x="678" y="541" text-anchor="start" dominant-baseline="alphabetic" fill-opacity="1">C</text><text fill="none" stroke="rgb(255,255,255)" font-family="geogebra-sans-serif, sans-serif" font-size="24px" font-style="normal" font-weight="normal" text-decoration="normal" x="678" y="541" text-anchor="start" dominant-baseline="alphabetic" stroke-opacity="1" stroke-linejoin="bevel" stroke-miterlimit="10" stroke-width="3">C</text><text fill="rgb(21,101,192)" stroke="none" font-family="geogebra-sans-serif, sans-serif" font-size="24px" font-style="normal" font-weight="normal" text-decoration="normal" x="678" y="541" text-anchor="start" dominant-baseline="alphabetic" fill-opacity="1">C</text><path fill="rgb(21,101,192)" stroke="none" paint-order="stroke fill markers" d=" M 100.33333333333348 510.3333333333334 C 100.33333333333348 513.0947570824874 98.09475708248745 515.3333333333335 95.33333333333348 515.3333333333335 C 92.57190958417952 515.3333333333335 90.33333333333348 513.0947570824874 90.33333333333348 510.3333333333334 C 90.33333333333348 507.5719095841795 92.57190958417952 505.3333333333334 95.33333333333348 505.3333333333334 C 98.09475708248745 505.3333333333334 100.33333333333348 507.5719095841795 100.33333333333348 510.3333333333334 Z" fill-opacity="1"/><path fill="none" stroke="rgb(0,0,0)" paint-order="fill stroke markers" d=" M 100.33333333333348 510.3333333333334 C 100.33333333333348 513.0947570824874 98.09475708248745 515.3333333333335 95.33333333333348 515.3333333333335 C 92.57190958417952 515.3333333333335 90.33333333333348 513.0947570824874 90.33333333333348 510.3333333333334 C 90.33333333333348 507.5719095841795 92.57190958417952 505.3333333333334 95.33333333333348 505.3333333333334 C 98.09475708248745 505.3333333333334 100.33333333333348 507.5719095841795 100.33333333333348 510.3333333333334 Z" stroke-opacity="1" stroke-linecap="round" stroke-linejoin="round" stroke-miterlimit="10"/><text fill="rgb(21,101,192)" stroke="none" font-family="geogebra-sans-serif, sans-serif" font-size="24px" font-style="normal" font-weight="normal" text-decoration="normal" x="58" y="537" text-anchor="start" dominant-baseline="alphabetic" fill-opacity="1">D</text><text fill="none" stroke="rgb(255,255,255)" font-family="geogebra-sans-serif, sans-serif" font-size="24px" font-style="normal" font-weight="normal" text-decoration="normal" x="58" y="537" text-anchor="start" dominant-baseline="alphabetic" stroke-opacity="1" stroke-linejoin="bevel" stroke-miterlimit="10" stroke-width="3">D</text><text fill="rgb(21,101,192)" stroke="none" font-family="geogebra-sans-serif, sans-serif" font-size="24px" font-style="normal" font-weight="normal" text-decoration="normal" x="58" y="537" text-anchor="start" dominant-baseline="alphabetic" fill-opacity="1">D</text><path fill="rgb(46,125,50)" stroke="none" paint-order="stroke fill markers" d=" M 421.19256977856577 351.1325377183798 C 421.19256977856577 353.89396146753376 418.9539935277197 356.1325377183798 416.19256977856577 356.1325377183798 C 413.4311460294118 356.1325377183798 411.19256977856577 353.89396146753376 411.19256977856577 351.1325377183798 C 411.19256977856577 348.37111396922586 413.4311460294118 346.1325377183798 416.19256977856577 346.1325377183798 C 418.9539935277197 346.1325377183798 421.19256977856577 348.37111396922586 421.19256977856577 351.1325377183798 Z" fill-opacity="1"/><path fill="none" stroke="rgb(0,0,0)" paint-order="fill stroke markers" d=" M 421.19256977856577 351.1325377183798 C 421.19256977856577 353.89396146753376 418.9539935277197 356.1325377183798 416.19256977856577 356.1325377183798 C 413.4311460294118 356.1325377183798 411.19256977856577 353.89396146753376 411.19256977856577 351.1325377183798 C 411.19256977856577 348.37111396922586 413.4311460294118 346.1325377183798 416.19256977856577 346.1325377183798 C 418.9539935277197 346.1325377183798 421.19256977856577 348.37111396922586 421.19256977856577 351.1325377183798 Z" stroke-opacity="1" stroke-linecap="round" stroke-linejoin="round" stroke-miterlimit="10"/><text fill="rgb(46,125,50)" stroke="none" font-family="geogebra-sans-serif, sans-serif" font-size="24px" font-style="normal" font-weight="normal" text-decoration="normal" x="403" y="379" text-anchor="start" dominant-baseline="alphabetic" fill-opacity="1">E</text><text fill="none" stroke="rgb(255,255,255)" font-family="geogebra-sans-serif, sans-serif" font-size="24px" font-style="normal" font-weight="normal" text-decoration="normal" x="403" y="379" text-anchor="start" dominant-baseline="alphabetic" stroke-opacity="1" stroke-linejoin="bevel" stroke-miterlimit="10" stroke-width="3">E</text><text fill="rgb(46,125,50)" stroke="none" font-family="geogebra-sans-serif, sans-serif" font-size="24px" font-style="normal" font-weight="normal" text-decoration="normal" x="403" y="379" text-anchor="start" dominant-baseline="alphabetic" fill-opacity="1">E</text><path fill="rgb(46,125,50)" stroke="none" paint-order="stroke fill markers" d=" M 562.8074302214343 280.8674622816203 C 562.8074302214343 283.62888603077425 560.5688539705883 285.8674622816203 557.8074302214343 285.8674622816203 C 555.0460064722803 285.8674622816203 552.8074302214343 283.62888603077425 552.8074302214343 280.8674622816203 C 552.8074302214343 278.10603853246636 555.0460064722803 275.8674622816203 557.8074302214343 275.8674622816203 C 560.5688539705883 275.8674622816203 562.8074302214343 278.10603853246636 562.8074302214343 280.8674622816203 Z" fill-opacity="1"/><path fill="none" stroke="rgb(0,0,0)" paint-order="fill stroke markers" d=" M 562.8074302214343 280.8674622816203 C 562.8074302214343 283.62888603077425 560.5688539705883 285.8674622816203 557.8074302214343 285.8674622816203 C 555.0460064722803 285.8674622816203 552.8074302214343 283.62888603077425 552.8074302214343 280.8674622816203 C 552.8074302214343 278.10603853246636 555.0460064722803 275.8674622816203 557.8074302214343 275.8674622816203 C 560.5688539705883 275.8674622816203 562.8074302214343 278.10603853246636 562.8074302214343 280.8674622816203 Z" stroke-opacity="1" stroke-linecap="round" stroke-linejoin="round" stroke-miterlimit="10"/><text fill="rgb(46,125,50)" stroke="none" font-family="geogebra-sans-serif, sans-serif" font-size="24px" font-style="normal" font-weight="normal" text-decoration="normal" x="562" y="271" text-anchor="start" dominant-baseline="alphabetic" fill-opacity="1">G</text><text fill="none" stroke="rgb(255,255,255)" font-family="geogebra-sans-serif, sans-serif" font-size="24px" font-style="normal" font-weight="normal" text-decoration="normal" x="562" y="271" text-anchor="start" dominant-baseline="alphabetic" stroke-opacity="1" stroke-linejoin="bevel" stroke-miterlimit="10" stroke-width="3">G</text><text fill="rgb(46,125,50)" stroke="none" font-family="geogebra-sans-serif, sans-serif" font-size="24px" font-style="normal" font-weight="normal" text-decoration="normal" x="562" y="271" text-anchor="start" dominant-baseline="alphabetic" fill-opacity="1">G</text><path fill="rgb(46,125,50)" stroke="none" paint-order="stroke fill markers" d=" M 581.432548109604 409.80696622366065 C 581.432548109604 412.5683899728146 579.193971858758 414.80696622366065 576.432548109604 414.80696622366065 C 573.67112436045 414.80696622366065 571.432548109604 412.5683899728146 571.432548109604 409.80696622366065 C 571.432548109604 407.0455424745067 573.67112436045 404.80696622366065 576.432548109604 404.80696622366065 C 579.193971858758 404.80696622366065 581.432548109604 407.0455424745067 581.432548109604 409.80696622366065 Z" fill-opacity="1"/><path fill="none" stroke="rgb(0,0,0)" paint-order="fill stroke markers" d=" M 581.432548109604 409.80696622366065 C 581.432548109604 412.5683899728146 579.193971858758 414.80696622366065 576.432548109604 414.80696622366065 C 573.67112436045 414.80696622366065 571.432548109604 412.5683899728146 571.432548109604 409.80696622366065 C 571.432548109604 407.0455424745067 573.67112436045 404.80696622366065 576.432548109604 404.80696622366065 C 579.193971858758 404.80696622366065 581.432548109604 407.0455424745067 581.432548109604 409.80696622366065 Z" stroke-opacity="1" stroke-linecap="round" stroke-linejoin="round" stroke-miterlimit="10"/><text fill="rgb(46,125,50)" stroke="none" font-family="geogebra-sans-serif, sans-serif" font-size="24px" font-style="normal" font-weight="normal" text-decoration="normal" x="550" y="433" text-anchor="start" dominant-baseline="alphabetic" fill-opacity="1">F</text><text fill="none" stroke="rgb(255,255,255)" font-family="geogebra-sans-serif, sans-serif" font-size="24px" font-style="normal" font-weight="normal" text-decoration="normal" x="550" y="433" text-anchor="start" dominant-baseline="alphabetic" stroke-opacity="1" stroke-linejoin="bevel" stroke-miterlimit="10" stroke-width="3">F</text><text fill="rgb(46,125,50)" stroke="none" font-family="geogebra-sans-serif, sans-serif" font-size="24px" font-style="normal" font-weight="normal" text-decoration="normal" x="550" y="433" text-anchor="start" dominant-baseline="alphabetic" fill-opacity="1">F</text><path fill="rgb(46,125,50)" stroke="none" paint-order="stroke fill markers" d=" M 402.5674518903961 222.19303377633935 C 402.5674518903961 224.95445752549332 400.32887563955006 227.19303377633935 397.5674518903961 227.19303377633935 C 394.80602814124217 227.19303377633935 392.5674518903961 224.95445752549332 392.5674518903961 222.19303377633935 C 392.5674518903961 219.43161002718537 394.80602814124217 217.19303377633935 397.5674518903961 217.19303377633935 C 400.32887563955006 217.19303377633935 402.5674518903961 219.43161002718537 402.5674518903961 222.19303377633935 Z" fill-opacity="1"/><path fill="none" stroke="rgb(0,0,0)" paint-order="fill stroke markers" d=" M 402.5674518903961 222.19303377633935 C 402.5674518903961 224.95445752549332 400.32887563955006 227.19303377633935 397.5674518903961 227.19303377633935 C 394.80602814124217 227.19303377633935 392.5674518903961 224.95445752549332 392.5674518903961 222.19303377633935 C 392.5674518903961 219.43161002718537 394.80602814124217 217.19303377633935 397.5674518903961 217.19303377633935 C 400.32887563955006 217.19303377633935 402.5674518903961 219.43161002718537 402.5674518903961 222.19303377633935 Z" stroke-opacity="1" stroke-linecap="round" stroke-linejoin="round" stroke-miterlimit="10"/><text fill="rgb(46,125,50)" stroke="none" font-family="geogebra-sans-serif, sans-serif" font-size="24px" font-style="normal" font-weight="normal" text-decoration="normal" x="400" y="211" text-anchor="start" dominant-baseline="alphabetic" fill-opacity="1">H</text><text fill="none" stroke="rgb(255,255,255)" font-family="geogebra-sans-serif, sans-serif" font-size="24px" font-style="normal" font-weight="normal" text-decoration="normal" x="400" y="211" text-anchor="start" dominant-baseline="alphabetic" stroke-opacity="1" stroke-linejoin="bevel" stroke-miterlimit="10" stroke-width="3">H</text><text fill="rgb(46,125,50)" stroke="none" font-family="geogebra-sans-serif, sans-serif" font-size="24px" font-style="normal" font-weight="normal" text-decoration="normal" x="400" y="211" text-anchor="start" dominant-baseline="alphabetic" fill-opacity="1">H</text><path fill="rgb(211,47,47)" stroke="none" paint-order="stroke fill markers" d=" M 492.00000000000006 316 C 492.00000000000006 318.76142374915395 489.761423749154 321 487.00000000000006 321 C 484.2385762508461 321 482.00000000000006 318.76142374915395 482.00000000000006 316 C 482.00000000000006 313.23857625084605 484.2385762508461 311 487.00000000000006 311 C 489.761423749154 311 492.00000000000006 313.23857625084605 492.00000000000006 316 Z" fill-opacity="1"/><path fill="none" stroke="rgb(0,0,0)" paint-order="fill stroke markers" d=" M 492.00000000000006 316 C 492.00000000000006 318.76142374915395 489.761423749154 321 487.00000000000006 321 C 484.2385762508461 321 482.00000000000006 318.76142374915395 482.00000000000006 316 C 482.00000000000006 313.23857625084605 484.2385762508461 311 487.00000000000006 311 C 489.761423749154 311 492.00000000000006 313.23857625084605 492.00000000000006 316 Z" stroke-opacity="1" stroke-linecap="round" stroke-linejoin="round" stroke-miterlimit="10"/><text fill="rgb(211,47,47)" stroke="none" font-family="geogebra-sans-serif, sans-serif" font-size="24px" font-style="normal" font-weight="normal" text-decoration="normal" x="476" y="343" text-anchor="start" dominant-baseline="alphabetic" fill-opacity="1">O</text><text fill="none" stroke="rgb(255,255,255)" font-family="geogebra-sans-serif, sans-serif" font-size="24px" font-style="normal" font-weight="normal" text-decoration="normal" x="476" y="343" text-anchor="start" dominant-baseline="alphabetic" stroke-opacity="1" stroke-linejoin="bevel" stroke-miterlimit="10" stroke-width="3">O</text><text fill="rgb(211,47,47)" stroke="none" font-family="geogebra-sans-serif, sans-serif" font-size="24px" font-style="normal" font-weight="normal" text-decoration="normal" x="476" y="343" text-anchor="start" dominant-baseline="alphabetic" fill-opacity="1">O</text></g></g></svg>