<?xml version="1.0" encoding="UTF-8"?>
<svg xmlns="http://www.w3.org/2000/svg" xmlns:xlink="http://www.w3.org/1999/xlink" width="1366pt" height="565pt" viewBox="0 0 1366 565" version="1.1">
<g id="surface1">
<path style="fill:none;stroke-width:3;stroke-linecap:round;stroke-linejoin:round;stroke:rgb(0%,0%,100%);stroke-opacity:1;stroke-miterlimit:10;" d="M 485.5 493.5 L 79.5 337.5 " transform="matrix(1,0,0,-1,0,565)"/>
<path style="fill-rule:nonzero;fill:rgb(100%,0%,0%);fill-opacity:1;stroke-width:1;stroke-linecap:square;stroke-linejoin:miter;stroke:rgb(0%,0%,0%);stroke-opacity:1;stroke-miterlimit:10;" d="M 84.5 337.5 C 84.5 334.738281 82.261719 332.5 79.5 332.5 C 76.738281 332.5 74.5 334.738281 74.5 337.5 C 74.5 340.261719 76.738281 342.5 79.5 342.5 C 82.261719 342.5 84.5 340.261719 84.5 337.5 Z M 84.5 337.5 " transform="matrix(1,0,0,-1,0,565)"/>
<path style=" stroke:none;fill-rule:nonzero;fill:rgb(100%,100%,100%);fill-opacity:1;" d="M 493.5 71.5 C 493.5 75.921875 489.921875 79.5 485.5 79.5 C 481.078125 79.5 477.5 75.921875 477.5 71.5 C 477.5 67.078125 481.078125 63.5 485.5 63.5 C 489.921875 63.5 493.5 67.078125 493.5 71.5 Z M 493.5 71.5 "/>
<path style="fill-rule:nonzero;fill:rgb(100%,0%,0%);fill-opacity:1;stroke-width:1;stroke-linecap:square;stroke-linejoin:miter;stroke:rgb(0%,0%,0%);stroke-opacity:1;stroke-miterlimit:10;" d="M 490.5 493.5 C 490.5 490.738281 488.261719 488.5 485.5 488.5 C 482.738281 488.5 480.5 490.738281 480.5 493.5 C 480.5 496.261719 482.738281 498.5 485.5 498.5 C 488.261719 498.5 490.5 496.261719 490.5 493.5 Z M 490.5 493.5 " transform="matrix(1,0,0,-1,0,565)"/>
<path style="fill-rule:nonzero;fill:rgb(100%,0%,0%);fill-opacity:1;stroke-width:1;stroke-linecap:square;stroke-linejoin:miter;stroke:rgb(0%,0%,0%);stroke-opacity:1;stroke-miterlimit:10;" d="M 255.5 74.5 C 255.5 71.738281 253.261719 69.5 250.5 69.5 C 247.738281 69.5 245.5 71.738281 245.5 74.5 C 245.5 77.261719 247.738281 79.5 250.5 79.5 C 253.261719 79.5 255.5 77.261719 255.5 74.5 Z M 255.5 74.5 " transform="matrix(1,0,0,-1,0,565)"/>
<path style=" stroke:none;fill-rule:nonzero;fill:rgb(0%,0%,0%);fill-opacity:1;" d="M 49.25 230.050781 L 45.230469 240.921875 L 53.28125 240.921875 Z M 47.578125 227.121094 L 50.941406 227.121094 L 59.28125 249 L 56.199219 249 L 54.199219 243.390625 L 44.339844 243.390625 L 42.359375 249 L 39.230469 249 Z M 47.578125 227.121094 "/>
<path style=" stroke:none;fill-rule:nonzero;fill:rgb(0%,0%,0%);fill-opacity:1;" d="M 516.910156 73.558594 L 516.910156 81.558594 L 521.660156 81.558594 C 521.660156 81.558594 524.03125 81.558594 525.191406 80.578125 C 525.191406 80.578125 526.339844 79.589844 526.339844 77.550781 C 526.339844 77.550781 526.339844 75.5 525.191406 74.53125 C 525.191406 74.53125 524.03125 73.558594 521.660156 73.558594 Z M 516.910156 64.558594 L 516.910156 71.160156 L 521.28125 71.160156 C 521.28125 71.160156 523.449219 71.160156 524.519531 70.339844 C 524.519531 70.339844 525.578125 69.53125 525.578125 67.859375 C 525.578125 67.859375 525.578125 66.199219 524.519531 65.390625 C 524.519531 65.390625 523.449219 64.558594 521.28125 64.558594 Z M 513.941406 62.121094 L 521.5 62.121094 C 521.5 62.121094 524.890625 62.121094 526.71875 63.53125 C 526.71875 63.53125 528.550781 64.941406 528.550781 67.53125 C 528.550781 67.53125 528.550781 69.550781 527.609375 70.730469 C 527.609375 70.730469 526.671875 71.921875 524.859375 72.199219 C 524.859375 72.199219 527.050781 72.671875 528.25 74.171875 C 528.25 74.171875 529.449219 75.660156 529.449219 77.871094 C 529.449219 77.871094 529.449219 80.808594 527.449219 82.410156 C 527.449219 82.410156 525.46875 84 521.800781 84 L 513.941406 84 Z M 513.941406 62.121094 "/>
<path style=" stroke:none;fill-rule:nonzero;fill:rgb(0%,0%,0%);fill-opacity:1;" d="M 273.828125 511.140625 C 273.828125 511.140625 270.589844 511.140625 268.699219 513.550781 C 268.699219 513.550781 266.808594 515.941406 266.808594 520.089844 C 266.808594 520.089844 266.808594 524.21875 268.699219 526.621094 C 268.699219 526.621094 270.589844 529.019531 273.828125 529.019531 C 273.828125 529.019531 277.050781 529.019531 278.921875 526.621094 C 278.921875 526.621094 280.808594 524.21875 280.808594 520.089844 C 280.808594 520.089844 280.808594 515.941406 278.921875 513.550781 C 278.921875 513.550781 277.050781 511.140625 273.828125 511.140625 Z M 273.828125 508.730469 C 273.828125 508.730469 278.421875 508.730469 281.171875 511.828125 C 281.171875 511.828125 283.921875 514.910156 283.921875 520.089844 C 283.921875 520.089844 283.921875 525.25 281.171875 528.339844 C 281.171875 528.339844 278.421875 531.421875 273.828125 531.421875 C 273.828125 531.421875 269.199219 531.421875 266.441406 528.339844 C 266.441406 528.339844 263.691406 525.269531 263.691406 520.089844 C 263.691406 520.089844 263.691406 514.910156 266.441406 511.828125 C 266.441406 511.828125 269.199219 508.730469 273.828125 508.730469 Z M 273.828125 508.730469 "/>
</g>
</svg>
