<?xml version="1.0" encoding="UTF-8"?>
<svg xmlns="http://www.w3.org/2000/svg" xmlns:xlink="http://www.w3.org/1999/xlink" width="1366pt" height="565pt" viewBox="0 0 1366 565" version="1.1">
<g id="surface1">
<path style=" stroke:none;fill-rule:evenodd;fill:rgb(0%,0%,100%);fill-opacity:0.69804;" d="M 233 460 L 254 459 L 254 437 L 232 438 Z M 233 460 "/>
<path style=" stroke:none;fill-rule:evenodd;fill:rgb(100%,100%,100%);fill-opacity:0.29804;" d="M 233 460 L 252 459 L 252 439 L 232 440 Z M 233 460 "/>
<path style=" stroke:none;fill-rule:evenodd;fill:rgb(100%,100%,100%);fill-opacity:1;" d="M 232 208 L 256 208 L 256 184 L 232 184 Z M 232 208 "/>
<path style=" stroke:none;fill-rule:evenodd;fill:rgb(0%,0%,100%);fill-opacity:0.6549;" d="M 232 208 L 254 208 L 254 186 L 232 186 Z M 232 208 "/>
<path style=" stroke:none;fill-rule:evenodd;fill:rgb(100%,100%,100%);fill-opacity:0.29804;" d="M 232 208 L 252 208 L 252 188 L 232 188 Z M 232 208 "/>
<path style="fill:none;stroke-width:3;stroke-linecap:round;stroke-linejoin:round;stroke:rgb(0%,0%,100%);stroke-opacity:1;stroke-miterlimit:10;" d="M 654.5 105.5 L 233.5 104.5 " transform="matrix(1,0,0,-1,0,565)"/>
<path style="fill:none;stroke-width:3;stroke-linecap:round;stroke-linejoin:round;stroke:rgb(0%,0%,100%);stroke-opacity:1;stroke-miterlimit:10;" d="M 233.5 104.5 L 232.558594 498.5 " transform="matrix(1,0,0,-1,0,565)"/>
<path style="fill:none;stroke-width:3;stroke-linecap:round;stroke-linejoin:round;stroke:rgb(0%,0%,100%);stroke-opacity:1;stroke-miterlimit:10;" d="M 654.5 105.5 L 232.558594 498.5 " transform="matrix(1,0,0,-1,0,565)"/>
<path style="fill:none;stroke-width:1;stroke-linecap:round;stroke-linejoin:round;stroke:rgb(0%,0%,100%);stroke-opacity:1;stroke-miterlimit:10;" d="M 74.558594 498.121094 L 75.5 104.121094 " transform="matrix(1,0,0,-1,0,565)"/>
<path style="fill-rule:nonzero;fill:rgb(0%,0%,100%);fill-opacity:1;stroke-width:1;stroke-linecap:round;stroke-linejoin:miter;stroke:rgb(0%,0%,100%);stroke-opacity:1;stroke-miterlimit:10;" d="M 80.410156 479.738281 L 74.058594 498.621094 L 67.808594 479.710938 L 74.089844 486.019531 Z M 80.410156 479.738281 " transform="matrix(1,0,0,-1,0,565)"/>
<path style="fill-rule:nonzero;fill:rgb(0%,0%,100%);fill-opacity:1;stroke-width:1;stroke-linecap:round;stroke-linejoin:miter;stroke:rgb(0%,0%,100%);stroke-opacity:1;stroke-miterlimit:10;" d="M 68.648438 123.511719 L 75 104.621094 L 81.25 123.539062 L 74.96875 117.21875 Z M 68.648438 123.511719 " transform="matrix(1,0,0,-1,0,565)"/>
<path style="fill:none;stroke-width:3;stroke-linecap:round;stroke-linejoin:round;stroke:rgb(0%,0%,100%);stroke-opacity:1;stroke-dasharray:0,6.09;stroke-miterlimit:10;" d="M 385.210938 356.320312 L 232.898438 355.960938 " transform="matrix(1,0,0,-1,0,565)"/>
<path style="fill:none;stroke-width:1;stroke-linecap:round;stroke-linejoin:round;stroke:rgb(0%,0%,100%);stroke-opacity:1;stroke-miterlimit:10;" d="M 151.5 357.5 L 151.5 497.5 " transform="matrix(1,0,0,-1,0,565)"/>
<path style="fill-rule:nonzero;fill:rgb(0%,0%,100%);fill-opacity:1;stroke-width:1;stroke-linecap:round;stroke-linejoin:miter;stroke:rgb(0%,0%,100%);stroke-opacity:1;stroke-miterlimit:10;" d="M 144.699219 376.898438 L 151 358 L 157.300781 376.898438 L 151 370.601562 Z M 144.699219 376.898438 " transform="matrix(1,0,0,-1,0,565)"/>
<path style="fill-rule:nonzero;fill:rgb(0%,0%,100%);fill-opacity:1;stroke-width:1;stroke-linecap:round;stroke-linejoin:miter;stroke:rgb(0%,0%,100%);stroke-opacity:1;stroke-miterlimit:10;" d="M 157.300781 479.101562 L 151 498 L 144.699219 479.101562 L 151 485.398438 Z M 157.300781 479.101562 " transform="matrix(1,0,0,-1,0,565)"/>
<path style="fill-rule:nonzero;fill:rgb(100%,0%,0%);fill-opacity:1;stroke-width:1;stroke-linecap:square;stroke-linejoin:miter;stroke:rgb(0%,0%,0%);stroke-opacity:1;stroke-miterlimit:10;" d="M 238.5 104.5 C 238.5 101.738281 236.261719 99.5 233.5 99.5 C 230.738281 99.5 228.5 101.738281 228.5 104.5 C 228.5 107.261719 230.738281 109.5 233.5 109.5 C 236.261719 109.5 238.5 107.261719 238.5 104.5 Z M 238.5 104.5 " transform="matrix(1,0,0,-1,0,565)"/>
<path style="fill-rule:nonzero;fill:rgb(100%,0%,0%);fill-opacity:1;stroke-width:1;stroke-linecap:square;stroke-linejoin:miter;stroke:rgb(0%,0%,0%);stroke-opacity:1;stroke-miterlimit:10;" d="M 659.5 105.5 C 659.5 102.738281 657.261719 100.5 654.5 100.5 C 651.738281 100.5 649.5 102.738281 649.5 105.5 C 649.5 108.261719 651.738281 110.5 654.5 110.5 C 657.261719 110.5 659.5 108.261719 659.5 105.5 Z M 659.5 105.5 " transform="matrix(1,0,0,-1,0,565)"/>
<path style="fill-rule:nonzero;fill:rgb(100%,0%,0%);fill-opacity:1;stroke-width:1;stroke-linecap:square;stroke-linejoin:miter;stroke:rgb(0%,0%,0%);stroke-opacity:1;stroke-miterlimit:10;" d="M 237.558594 498.5 C 237.558594 495.738281 235.328125 493.5 232.558594 493.5 C 229.800781 493.5 227.558594 495.738281 227.558594 498.5 C 227.558594 501.261719 229.800781 503.5 232.558594 503.5 C 235.328125 503.5 237.558594 501.261719 237.558594 498.5 Z M 237.558594 498.5 " transform="matrix(1,0,0,-1,0,565)"/>
<path style="fill-rule:nonzero;fill:rgb(100%,0%,0%);fill-opacity:1;stroke-width:1;stroke-linecap:square;stroke-linejoin:miter;stroke:rgb(0%,0%,0%);stroke-opacity:1;stroke-miterlimit:10;" d="M 390.210938 356.320312 C 390.210938 353.558594 387.980469 351.320312 385.210938 351.320312 C 382.449219 351.320312 380.210938 353.558594 380.210938 356.320312 C 380.210938 359.078125 382.449219 361.320312 385.210938 361.320312 C 387.980469 361.320312 390.210938 359.078125 390.210938 356.320312 Z M 390.210938 356.320312 " transform="matrix(1,0,0,-1,0,565)"/>
<path style="fill-rule:nonzero;fill:rgb(69.802856%,0%,0%);fill-opacity:1;stroke-width:1;stroke-linecap:square;stroke-linejoin:miter;stroke:rgb(0%,0%,0%);stroke-opacity:1;stroke-miterlimit:10;" d="M 237.898438 355.960938 C 237.898438 353.191406 235.660156 350.960938 232.898438 350.960938 C 230.140625 350.960938 227.898438 353.191406 227.898438 355.960938 C 227.898438 358.71875 230.140625 360.960938 232.898438 360.960938 C 235.660156 360.960938 237.898438 358.71875 237.898438 355.960938 Z M 237.898438 355.960938 " transform="matrix(1,0,0,-1,0,565)"/>
<path style=" stroke:none;fill-rule:nonzero;fill:rgb(0%,0%,0%);fill-opacity:1;" d="M 204.828125 487.140625 C 204.828125 487.140625 201.589844 487.140625 199.699219 489.550781 C 199.699219 489.550781 197.808594 491.941406 197.808594 496.089844 C 197.808594 496.089844 197.808594 500.21875 199.699219 502.621094 C 199.699219 502.621094 201.589844 505.019531 204.828125 505.019531 C 204.828125 505.019531 208.050781 505.019531 209.921875 502.621094 C 209.921875 502.621094 211.808594 500.21875 211.808594 496.089844 C 211.808594 496.089844 211.808594 491.941406 209.921875 489.550781 C 209.921875 489.550781 208.050781 487.140625 204.828125 487.140625 Z M 204.828125 484.730469 C 204.828125 484.730469 209.421875 484.730469 212.171875 487.828125 C 212.171875 487.828125 214.921875 490.910156 214.921875 496.089844 C 214.921875 496.089844 214.921875 501.25 212.171875 504.339844 C 212.171875 504.339844 209.421875 507.421875 204.828125 507.421875 C 204.828125 507.421875 200.199219 507.421875 197.441406 504.339844 C 197.441406 504.339844 194.691406 501.269531 194.691406 496.089844 C 194.691406 496.089844 194.691406 490.910156 197.441406 487.828125 C 197.441406 487.828125 200.199219 484.730469 204.828125 484.730469 Z M 221.988281 485.121094 L 221.988281 493.269531 L 219.5 493.269531 L 219.5 485.121094 Z M 221.988281 485.121094 "/>
<path style=" stroke:none;fill-rule:nonzero;fill:rgb(0%,0%,0%);fill-opacity:1;" d="M 683.25 479.050781 L 679.230469 489.921875 L 687.28125 489.921875 Z M 681.578125 476.121094 L 684.941406 476.121094 L 693.28125 498 L 690.199219 498 L 688.199219 492.390625 L 678.339844 492.390625 L 676.359375 498 L 673.230469 498 Z M 698.898438 476.121094 L 698.898438 484.269531 L 696.410156 484.269531 L 696.410156 476.121094 Z M 698.898438 476.121094 "/>
<path style=" stroke:none;fill-rule:nonzero;fill:rgb(0%,0%,0%);fill-opacity:1;" d="M 205.828125 30.140625 C 205.828125 30.140625 202.589844 30.140625 200.699219 32.550781 C 200.699219 32.550781 198.808594 34.941406 198.808594 39.089844 C 198.808594 39.089844 198.808594 43.21875 200.699219 45.621094 C 200.699219 45.621094 202.589844 48.019531 205.828125 48.019531 C 205.828125 48.019531 209.050781 48.019531 210.921875 45.621094 C 210.921875 45.621094 212.808594 43.21875 212.808594 39.089844 C 212.808594 39.089844 212.808594 34.941406 210.921875 32.550781 C 210.921875 32.550781 209.050781 30.140625 205.828125 30.140625 Z M 205.828125 27.730469 C 205.828125 27.730469 210.421875 27.730469 213.171875 30.828125 C 213.171875 30.828125 215.921875 33.910156 215.921875 39.089844 C 215.921875 39.089844 215.921875 44.25 213.171875 47.339844 C 213.171875 47.339844 210.421875 50.421875 205.828125 50.421875 C 205.828125 50.421875 201.199219 50.421875 198.441406 47.339844 C 198.441406 47.339844 195.691406 44.269531 195.691406 39.089844 C 195.691406 39.089844 195.691406 33.910156 198.441406 30.828125 C 198.441406 30.828125 201.199219 27.730469 205.828125 27.730469 Z M 205.828125 27.730469 "/>
<path style=" stroke:none;fill-rule:nonzero;fill:rgb(0%,0%,0%);fill-opacity:1;" d="M 420.25 196.050781 L 416.230469 206.921875 L 424.28125 206.921875 Z M 418.578125 193.121094 L 421.941406 193.121094 L 430.28125 215 L 427.199219 215 L 425.199219 209.390625 L 415.339844 209.390625 L 413.359375 215 L 410.230469 215 Z M 418.578125 193.121094 "/>
<path style=" stroke:none;fill-rule:nonzero;fill:rgb(0%,0%,0%);fill-opacity:1;" d="M 191.828125 201.140625 C 191.828125 201.140625 188.589844 201.140625 186.699219 203.550781 C 186.699219 203.550781 184.808594 205.941406 184.808594 210.089844 C 184.808594 210.089844 184.808594 214.21875 186.699219 216.621094 C 186.699219 216.621094 188.589844 219.019531 191.828125 219.019531 C 191.828125 219.019531 195.050781 219.019531 196.921875 216.621094 C 196.921875 216.621094 198.808594 214.21875 198.808594 210.089844 C 198.808594 210.089844 198.808594 205.941406 196.921875 203.550781 C 196.921875 203.550781 195.050781 201.140625 191.828125 201.140625 Z M 191.828125 198.730469 C 191.828125 198.730469 196.421875 198.730469 199.171875 201.828125 C 199.171875 201.828125 201.921875 204.910156 201.921875 210.089844 C 201.921875 210.089844 201.921875 215.25 199.171875 218.339844 C 199.171875 218.339844 196.421875 221.421875 191.828125 221.421875 C 191.828125 221.421875 187.199219 221.421875 184.441406 218.339844 C 184.441406 218.339844 181.691406 215.269531 181.691406 210.089844 C 181.691406 210.089844 181.691406 204.910156 184.441406 201.828125 C 184.441406 201.828125 187.199219 198.730469 191.828125 198.730469 Z M 208.988281 199.121094 L 208.988281 207.269531 L 206.5 207.269531 L 206.5 199.121094 Z M 217.238281 199.121094 L 217.238281 207.269531 L 214.75 207.269531 L 214.75 199.121094 Z M 217.238281 199.121094 "/>
<path style=" stroke:none;fill-rule:nonzero;fill:rgb(0%,0%,0%);fill-opacity:1;" d="M 36.941406 247.121094 L 39.910156 247.121094 L 39.910156 256.089844 L 50.660156 256.089844 L 50.660156 247.121094 L 53.609375 247.121094 L 53.609375 269 L 50.660156 269 L 50.660156 258.578125 L 39.910156 258.578125 L 39.910156 269 L 36.941406 269 Z M 36.941406 247.121094 "/>
<path style=" stroke:none;fill-rule:nonzero;fill:rgb(0%,0%,0%);fill-opacity:1;" d="M 131.46875 148.089844 L 131.46875 158 L 128.769531 158 L 128.769531 148.191406 C 128.769531 148.191406 128.769531 145.859375 127.859375 144.699219 C 127.859375 144.699219 126.949219 143.550781 125.140625 143.550781 C 125.140625 143.550781 122.949219 143.550781 121.691406 144.941406 C 121.691406 144.941406 120.441406 146.328125 120.441406 148.730469 L 120.441406 158 L 117.71875 158 L 117.71875 135.199219 L 120.441406 135.199219 L 120.441406 144.140625 C 120.441406 144.140625 121.410156 142.660156 122.71875 141.941406 C 122.71875 141.941406 124.03125 141.199219 125.730469 141.199219 C 125.730469 141.199219 128.558594 141.199219 130.019531 142.949219 C 130.019531 142.949219 131.46875 144.699219 131.46875 148.089844 Z M 131.46875 148.089844 "/>
</g>
</svg>
