<?xml version="1.0" encoding="UTF-8"?>
<svg xmlns="http://www.w3.org/2000/svg" xmlns:xlink="http://www.w3.org/1999/xlink" width="1366pt" height="565pt" viewBox="0 0 1366 565" version="1.1">
<g id="surface1">
<path style="fill:none;stroke-width:3;stroke-linecap:round;stroke-linejoin:round;stroke:rgb(0%,0%,100%);stroke-opacity:1;stroke-miterlimit:10;" d="M 636.5 372.5 L 200.5 197.5 " transform="matrix(1,0,0,-1,0,565)"/>
<path style="fill:none;stroke-width:3;stroke-linecap:round;stroke-linejoin:round;stroke:rgb(0%,0%,100%);stroke-opacity:1;stroke-miterlimit:10;" d="M -0.5 298.929688 L 1367.5 -391.398438 " transform="matrix(1,0,0,-1,0,565)"/>
<path style="fill:none;stroke-width:3;stroke-linecap:round;stroke-linejoin:round;stroke:rgb(0%,0%,100%);stroke-opacity:1;stroke-miterlimit:10;" d="M 786.011719 565.5 L 346.78125 -1.5 " transform="matrix(1,0,0,-1,0,565)"/>
<path style="fill:none;stroke-width:3;stroke-linecap:round;stroke-linejoin:round;stroke:rgb(0%,0%,100%);stroke-opacity:1;stroke-miterlimit:10;" d="M -0.5 184.101562 L 1367.5 733.191406 " transform="matrix(1,0,0,-1,0,565)"/>
<path style="fill-rule:nonzero;fill:rgb(100%,0%,0%);fill-opacity:1;stroke-width:1;stroke-linecap:square;stroke-linejoin:miter;stroke:rgb(0%,0%,0%);stroke-opacity:1;stroke-miterlimit:10;" d="M 205.5 197.5 C 205.5 194.738281 203.261719 192.5 200.5 192.5 C 197.738281 192.5 195.5 194.738281 195.5 197.5 C 195.5 200.261719 197.738281 202.5 200.5 202.5 C 203.261719 202.5 205.5 200.261719 205.5 197.5 Z M 205.5 197.5 " transform="matrix(1,0,0,-1,0,565)"/>
<path style="fill-rule:nonzero;fill:rgb(100%,0%,0%);fill-opacity:1;stroke-width:1;stroke-linecap:square;stroke-linejoin:miter;stroke:rgb(0%,0%,0%);stroke-opacity:1;stroke-miterlimit:10;" d="M 641.5 372.5 C 641.5 369.738281 639.261719 367.5 636.5 367.5 C 633.738281 367.5 631.5 369.738281 631.5 372.5 C 631.5 375.261719 633.738281 377.5 636.5 377.5 C 639.261719 377.5 641.5 375.261719 641.5 372.5 Z M 641.5 372.5 " transform="matrix(1,0,0,-1,0,565)"/>
<path style="fill-rule:nonzero;fill:rgb(100%,0%,0%);fill-opacity:1;stroke-width:1;stroke-linecap:square;stroke-linejoin:miter;stroke:rgb(0%,0%,0%);stroke-opacity:1;stroke-miterlimit:10;" d="M 421.5 88.5 C 421.5 85.738281 419.261719 83.5 416.5 83.5 C 413.738281 83.5 411.5 85.738281 411.5 88.5 C 411.5 91.261719 413.738281 93.5 416.5 93.5 C 419.261719 93.5 421.5 91.261719 421.5 88.5 Z M 421.5 88.5 " transform="matrix(1,0,0,-1,0,565)"/>
<path style="fill-rule:nonzero;fill:rgb(100%,0%,0%);fill-opacity:1;stroke-width:1;stroke-linecap:square;stroke-linejoin:miter;stroke:rgb(0%,0%,0%);stroke-opacity:1;stroke-miterlimit:10;" d="M 131.238281 234.96875 C 131.238281 232.210938 129 229.96875 126.238281 229.96875 C 123.480469 229.96875 121.238281 232.210938 121.238281 234.96875 C 121.238281 237.730469 123.480469 239.96875 126.238281 239.96875 C 129 239.96875 131.238281 237.730469 131.238281 234.96875 Z M 131.238281 234.96875 " transform="matrix(1,0,0,-1,0,565)"/>
<path style="fill-rule:nonzero;fill:rgb(69.802856%,0%,0%);fill-opacity:1;stroke-width:1;stroke-linecap:square;stroke-linejoin:miter;stroke:rgb(0%,0%,0%);stroke-opacity:1;stroke-miterlimit:10;" d="M 717.128906 470.140625 C 717.128906 467.378906 714.898438 465.140625 712.128906 465.140625 C 709.371094 465.140625 707.128906 467.378906 707.128906 470.140625 C 707.128906 472.898438 709.371094 475.140625 712.128906 475.140625 C 714.898438 475.140625 717.128906 472.898438 717.128906 470.140625 Z M 717.128906 470.140625 " transform="matrix(1,0,0,-1,0,565)"/>
<path style=" stroke:none;fill-rule:nonzero;fill:rgb(0%,0%,0%);fill-opacity:1;" d="M 200.25 389.050781 L 196.230469 399.921875 L 204.28125 399.921875 Z M 198.578125 386.121094 L 201.941406 386.121094 L 210.28125 408 L 207.199219 408 L 205.199219 402.390625 L 195.339844 402.390625 L 193.359375 408 L 190.230469 408 Z M 198.578125 386.121094 "/>
<path style=" stroke:none;fill-rule:nonzero;fill:rgb(0%,0%,0%);fill-opacity:1;" d="M 654.910156 203.558594 L 654.910156 211.558594 L 659.660156 211.558594 C 659.660156 211.558594 662.03125 211.558594 663.191406 210.578125 C 663.191406 210.578125 664.339844 209.589844 664.339844 207.550781 C 664.339844 207.550781 664.339844 205.5 663.191406 204.53125 C 663.191406 204.53125 662.03125 203.558594 659.660156 203.558594 Z M 654.910156 194.558594 L 654.910156 201.160156 L 659.28125 201.160156 C 659.28125 201.160156 661.449219 201.160156 662.519531 200.339844 C 662.519531 200.339844 663.578125 199.53125 663.578125 197.859375 C 663.578125 197.859375 663.578125 196.199219 662.519531 195.390625 C 662.519531 195.390625 661.449219 194.558594 659.28125 194.558594 Z M 651.941406 192.121094 L 659.5 192.121094 C 659.5 192.121094 662.890625 192.121094 664.71875 193.53125 C 664.71875 193.53125 666.550781 194.941406 666.550781 197.53125 C 666.550781 197.53125 666.550781 199.550781 665.609375 200.730469 C 665.609375 200.730469 664.671875 201.921875 662.859375 202.199219 C 662.859375 202.199219 665.050781 202.671875 666.25 204.171875 C 666.25 204.171875 667.449219 205.660156 667.449219 207.871094 C 667.449219 207.871094 667.449219 210.808594 665.449219 212.410156 C 665.449219 212.410156 663.46875 214 659.800781 214 L 651.941406 214 Z M 651.941406 192.121094 "/>
<path style=" stroke:none;fill-rule:nonzero;fill:rgb(0%,0%,0%);fill-opacity:1;" d="M 423.828125 501.140625 C 423.828125 501.140625 420.589844 501.140625 418.699219 503.550781 C 418.699219 503.550781 416.808594 505.941406 416.808594 510.089844 C 416.808594 510.089844 416.808594 514.21875 418.699219 516.621094 C 418.699219 516.621094 420.589844 519.019531 423.828125 519.019531 C 423.828125 519.019531 427.050781 519.019531 428.921875 516.621094 C 428.921875 516.621094 430.808594 514.21875 430.808594 510.089844 C 430.808594 510.089844 430.808594 505.941406 428.921875 503.550781 C 428.921875 503.550781 427.050781 501.140625 423.828125 501.140625 Z M 423.828125 498.730469 C 423.828125 498.730469 428.421875 498.730469 431.171875 501.828125 C 431.171875 501.828125 433.921875 504.910156 433.921875 510.089844 C 433.921875 510.089844 433.921875 515.25 431.171875 518.339844 C 431.171875 518.339844 428.421875 521.421875 423.828125 521.421875 C 423.828125 521.421875 419.199219 521.421875 416.441406 518.339844 C 416.441406 518.339844 413.691406 515.269531 413.691406 510.089844 C 413.691406 510.089844 413.691406 504.910156 416.441406 501.828125 C 416.441406 501.828125 419.199219 498.730469 423.828125 498.730469 Z M 423.828125 498.730469 "/>
<path style=" stroke:none;fill-rule:nonzero;fill:rgb(0%,0%,0%);fill-opacity:1;" d="M 122.25 351.050781 L 118.230469 361.921875 L 126.28125 361.921875 Z M 120.578125 348.121094 L 123.941406 348.121094 L 132.28125 370 L 129.199219 370 L 127.199219 364.390625 L 117.339844 364.390625 L 115.359375 370 L 112.230469 370 Z M 137.898438 348.121094 L 137.898438 356.269531 L 135.410156 356.269531 L 135.410156 348.121094 Z M 137.898438 348.121094 "/>
<path style=" stroke:none;fill-rule:nonzero;fill:rgb(0%,0%,0%);fill-opacity:1;" d="M 723.910156 115.558594 L 723.910156 123.558594 L 728.660156 123.558594 C 728.660156 123.558594 731.03125 123.558594 732.191406 122.578125 C 732.191406 122.578125 733.339844 121.589844 733.339844 119.550781 C 733.339844 119.550781 733.339844 117.5 732.191406 116.53125 C 732.191406 116.53125 731.03125 115.558594 728.660156 115.558594 Z M 723.910156 106.558594 L 723.910156 113.160156 L 728.28125 113.160156 C 728.28125 113.160156 730.449219 113.160156 731.519531 112.339844 C 731.519531 112.339844 732.578125 111.53125 732.578125 109.859375 C 732.578125 109.859375 732.578125 108.199219 731.519531 107.390625 C 731.519531 107.390625 730.449219 106.558594 728.28125 106.558594 Z M 720.941406 104.121094 L 728.5 104.121094 C 728.5 104.121094 731.890625 104.121094 733.71875 105.53125 C 733.71875 105.53125 735.550781 106.941406 735.550781 109.53125 C 735.550781 109.53125 735.550781 111.550781 734.609375 112.730469 C 734.609375 112.730469 733.671875 113.921875 731.859375 114.199219 C 731.859375 114.199219 734.050781 114.671875 735.25 116.171875 C 735.25 116.171875 736.449219 117.660156 736.449219 119.871094 C 736.449219 119.871094 736.449219 122.808594 734.449219 124.410156 C 734.449219 124.410156 732.46875 126 728.800781 126 L 720.941406 126 Z M 743.960938 104.121094 L 743.960938 112.269531 L 741.46875 112.269531 L 741.46875 104.121094 Z M 743.960938 104.121094 "/>
</g>
</svg>
