<svg version="1.1" xmlns="http://www.w3.org/2000/svg" xmlns:xlink="http://www.w3.org/1999/xlink" width="1310" height="605"><defs><clipPath id="bOAGLoDoUsTz"><path fill="none" stroke="none" d=" M 0 0 L 1310 0 L 1310 605 L 0 605 L 0 0 Z"/></clipPath></defs><g transform="scale(1,1)" clip-path="url(#bOAGLoDoUsTz)"><g><rect fill="rgb(255,255,255)" stroke="none" x="0" y="0" width="1310" height="605" fill-opacity="1"/><path fill="none" stroke="rgb(0,0,0)" paint-order="fill stroke markers" d=" M 903 296.5000000000001 C 903 434.5711874576985 791.0711874576984 546.5000000000002 653.0000000000001 546.5000000000002 C 514.9288125423018 546.5000000000002 403.0000000000002 434.5711874576985 403.0000000000002 296.5000000000001 C 403.0000000000002 158.42881254230173 514.9288125423018 46.5 653.0000000000001 46.5 C 791.0711874576984 46.5 903 158.42881254230173 903 296.5000000000001 Z" stroke-opacity="0.6980392156862745" stroke-linecap="round" stroke-linejoin="round" stroke-miterlimit="10" stroke-width="2.5"/><path fill="none" stroke="rgb(0,0,0)" paint-order="fill stroke markers" d=" M 495.297214583327 490.48410108001843 L 803.0000000000001 496.50000000000017" stroke-opacity="0.6980392156862745" stroke-linecap="round" stroke-linejoin="round" stroke-miterlimit="10" stroke-width="2.5"/><path fill="none" stroke="rgb(0,0,0)" paint-order="fill stroke markers" d=" M 542.2427019431 72.37320346032925 L 890.7144387638875 373.90701262269465" stroke-opacity="0.6980392156862745" stroke-linecap="round" stroke-linejoin="round" stroke-miterlimit="10" stroke-width="2.5"/><path fill="rgb(211,47,47)" stroke="none" paint-order="stroke fill markers" d=" M 658.0000000000001 296.5000000000001 C 658.0000000000001 299.26142374915406 655.7614237491541 301.5000000000001 653.0000000000001 301.5000000000001 C 650.2385762508461 301.5000000000001 648.0000000000001 299.26142374915406 648.0000000000001 296.5000000000001 C 648.0000000000001 293.73857625084617 650.2385762508461 291.5000000000001 653.0000000000001 291.5000000000001 C 655.7614237491541 291.5000000000001 658.0000000000001 293.73857625084617 658.0000000000001 296.5000000000001 Z" fill-opacity="1"/><path fill="none" stroke="rgb(0,0,0)" paint-order="fill stroke markers" d=" M 658.0000000000001 296.5000000000001 C 658.0000000000001 299.26142374915406 655.7614237491541 301.5000000000001 653.0000000000001 301.5000000000001 C 650.2385762508461 301.5000000000001 648.0000000000001 299.26142374915406 648.0000000000001 296.5000000000001 C 648.0000000000001 293.73857625084617 650.2385762508461 291.5000000000001 653.0000000000001 291.5000000000001 C 655.7614237491541 291.5000000000001 658.0000000000001 293.73857625084617 658.0000000000001 296.5000000000001 Z" stroke-opacity="1" stroke-linecap="round" stroke-linejoin="round" stroke-miterlimit="10"/><text fill="rgb(211,47,47)" stroke="none" font-family="geogebra-sans-serif, sans-serif" font-size="24px" font-style="normal" font-weight="normal" text-decoration="normal" x="617" y="318" text-anchor="start" dominant-baseline="alphabetic" fill-opacity="1">O</text><text fill="none" stroke="rgb(255,255,255)" font-family="geogebra-sans-serif, sans-serif" font-size="24px" font-style="normal" font-weight="normal" text-decoration="normal" x="617" y="318" text-anchor="start" dominant-baseline="alphabetic" stroke-opacity="1" stroke-linejoin="bevel" stroke-miterlimit="10" stroke-width="3">O</text><text fill="rgb(211,47,47)" stroke="none" font-family="geogebra-sans-serif, sans-serif" font-size="24px" font-style="normal" font-weight="normal" text-decoration="normal" x="617" y="318" text-anchor="start" dominant-baseline="alphabetic" fill-opacity="1">O</text><path fill="rgb(21,101,192)" stroke="none" paint-order="stroke fill markers" d=" M 500.297214583327 490.48410108001843 C 500.297214583327 493.2455248291724 498.05863833248094 495.48410108001843 495.297214583327 495.48410108001843 C 492.53579083417304 495.48410108001843 490.297214583327 493.2455248291724 490.297214583327 490.48410108001843 C 490.297214583327 487.7226773308645 492.53579083417304 485.48410108001843 495.297214583327 485.48410108001843 C 498.05863833248094 485.48410108001843 500.297214583327 487.7226773308645 500.297214583327 490.48410108001843 Z" fill-opacity="1"/><path fill="none" stroke="rgb(0,0,0)" paint-order="fill stroke markers" d=" M 500.297214583327 490.48410108001843 C 500.297214583327 493.2455248291724 498.05863833248094 495.48410108001843 495.297214583327 495.48410108001843 C 492.53579083417304 495.48410108001843 490.297214583327 493.2455248291724 490.297214583327 490.48410108001843 C 490.297214583327 487.7226773308645 492.53579083417304 485.48410108001843 495.297214583327 485.48410108001843 C 498.05863833248094 485.48410108001843 500.297214583327 487.7226773308645 500.297214583327 490.48410108001843 Z" stroke-opacity="1" stroke-linecap="round" stroke-linejoin="round" stroke-miterlimit="10"/><text fill="rgb(21,101,192)" stroke="none" font-family="geogebra-sans-serif, sans-serif" font-size="24px" font-style="normal" font-weight="normal" text-decoration="normal" x="467" y="501" text-anchor="start" dominant-baseline="alphabetic" fill-opacity="1">A</text><text fill="none" stroke="rgb(255,255,255)" font-family="geogebra-sans-serif, sans-serif" font-size="24px" font-style="normal" font-weight="normal" text-decoration="normal" x="467" y="501" text-anchor="start" dominant-baseline="alphabetic" stroke-opacity="1" stroke-linejoin="bevel" stroke-miterlimit="10" stroke-width="3">A</text><text fill="rgb(21,101,192)" stroke="none" font-family="geogebra-sans-serif, sans-serif" font-size="24px" font-style="normal" font-weight="normal" text-decoration="normal" x="467" y="501" text-anchor="start" dominant-baseline="alphabetic" fill-opacity="1">A</text><path fill="rgb(21,101,192)" stroke="none" paint-order="stroke fill markers" d=" M 808.0000000000001 496.50000000000017 C 808.0000000000001 499.2614237491541 805.7614237491541 501.50000000000017 803.0000000000001 501.50000000000017 C 800.2385762508461 501.50000000000017 798.0000000000001 499.2614237491541 798.0000000000001 496.50000000000017 C 798.0000000000001 493.7385762508462 800.2385762508461 491.50000000000017 803.0000000000001 491.50000000000017 C 805.7614237491541 491.50000000000017 808.0000000000001 493.7385762508462 808.0000000000001 496.50000000000017 Z" fill-opacity="1"/><path fill="none" stroke="rgb(0,0,0)" paint-order="fill stroke markers" d=" M 808.0000000000001 496.50000000000017 C 808.0000000000001 499.2614237491541 805.7614237491541 501.50000000000017 803.0000000000001 501.50000000000017 C 800.2385762508461 501.50000000000017 798.0000000000001 499.2614237491541 798.0000000000001 496.50000000000017 C 798.0000000000001 493.7385762508462 800.2385762508461 491.50000000000017 803.0000000000001 491.50000000000017 C 805.7614237491541 491.50000000000017 808.0000000000001 493.7385762508462 808.0000000000001 496.50000000000017 Z" stroke-opacity="1" stroke-linecap="round" stroke-linejoin="round" stroke-miterlimit="10"/><text fill="rgb(21,101,192)" stroke="none" font-family="geogebra-sans-serif, sans-serif" font-size="24px" font-style="normal" font-weight="normal" text-decoration="normal" x="813" y="519" text-anchor="start" dominant-baseline="alphabetic" fill-opacity="1">B</text><text fill="none" stroke="rgb(255,255,255)" font-family="geogebra-sans-serif, sans-serif" font-size="24px" font-style="normal" font-weight="normal" text-decoration="normal" x="813" y="519" text-anchor="start" dominant-baseline="alphabetic" stroke-opacity="1" stroke-linejoin="bevel" stroke-miterlimit="10" stroke-width="3">B</text><text fill="rgb(21,101,192)" stroke="none" font-family="geogebra-sans-serif, sans-serif" font-size="24px" font-style="normal" font-weight="normal" text-decoration="normal" x="813" y="519" text-anchor="start" dominant-baseline="alphabetic" fill-opacity="1">B</text><path fill="rgb(21,101,192)" stroke="none" paint-order="stroke fill markers" d=" M 547.2427019431 72.37320346032925 C 547.2427019431 75.13462720948321 545.004125692254 77.37320346032925 542.2427019431 77.37320346032925 C 539.481278193946 77.37320346032925 537.2427019431 75.13462720948321 537.2427019431 72.37320346032925 C 537.2427019431 69.61177971117529 539.481278193946 67.37320346032925 542.2427019431 67.37320346032925 C 545.004125692254 67.37320346032925 547.2427019431 69.61177971117529 547.2427019431 72.37320346032925 Z" fill-opacity="1"/><path fill="none" stroke="rgb(0,0,0)" paint-order="fill stroke markers" d=" M 547.2427019431 72.37320346032925 C 547.2427019431 75.13462720948321 545.004125692254 77.37320346032925 542.2427019431 77.37320346032925 C 539.481278193946 77.37320346032925 537.2427019431 75.13462720948321 537.2427019431 72.37320346032925 C 537.2427019431 69.61177971117529 539.481278193946 67.37320346032925 542.2427019431 67.37320346032925 C 545.004125692254 67.37320346032925 547.2427019431 69.61177971117529 547.2427019431 72.37320346032925 Z" stroke-opacity="1" stroke-linecap="round" stroke-linejoin="round" stroke-miterlimit="10"/><text fill="rgb(21,101,192)" stroke="none" font-family="geogebra-sans-serif, sans-serif" font-size="24px" font-style="normal" font-weight="normal" text-decoration="normal" x="546" y="62" text-anchor="start" dominant-baseline="alphabetic" fill-opacity="1">C</text><text fill="none" stroke="rgb(255,255,255)" font-family="geogebra-sans-serif, sans-serif" font-size="24px" font-style="normal" font-weight="normal" text-decoration="normal" x="546" y="62" text-anchor="start" dominant-baseline="alphabetic" stroke-opacity="1" stroke-linejoin="bevel" stroke-miterlimit="10" stroke-width="3">C</text><text fill="rgb(21,101,192)" stroke="none" font-family="geogebra-sans-serif, sans-serif" font-size="24px" font-style="normal" font-weight="normal" text-decoration="normal" x="546" y="62" text-anchor="start" dominant-baseline="alphabetic" fill-opacity="1">C</text><path fill="rgb(21,101,192)" stroke="none" paint-order="stroke fill markers" d=" M 895.7144387638875 373.90701262269465 C 895.7144387638875 376.6684363718486 893.4758625130415 378.90701262269465 890.7144387638875 378.90701262269465 C 887.9530150147335 378.90701262269465 885.7144387638875 376.6684363718486 885.7144387638875 373.90701262269465 C 885.7144387638875 371.1455888735407 887.9530150147335 368.90701262269465 890.7144387638875 368.90701262269465 C 893.4758625130415 368.90701262269465 895.7144387638875 371.1455888735407 895.7144387638875 373.90701262269465 Z" fill-opacity="1"/><path fill="none" stroke="rgb(0,0,0)" paint-order="fill stroke markers" d=" M 895.7144387638875 373.90701262269465 C 895.7144387638875 376.6684363718486 893.4758625130415 378.90701262269465 890.7144387638875 378.90701262269465 C 887.9530150147335 378.90701262269465 885.7144387638875 376.6684363718486 885.7144387638875 373.90701262269465 C 885.7144387638875 371.1455888735407 887.9530150147335 368.90701262269465 890.7144387638875 368.90701262269465 C 893.4758625130415 368.90701262269465 895.7144387638875 371.1455888735407 895.7144387638875 373.90701262269465 Z" stroke-opacity="1" stroke-linecap="round" stroke-linejoin="round" stroke-miterlimit="10"/><text fill="rgb(21,101,192)" stroke="none" font-family="geogebra-sans-serif, sans-serif" font-size="24px" font-style="normal" font-weight="normal" text-decoration="normal" x="908" y="370" text-anchor="start" dominant-baseline="alphabetic" fill-opacity="1">D</text><text fill="none" stroke="rgb(255,255,255)" font-family="geogebra-sans-serif, sans-serif" font-size="24px" font-style="normal" font-weight="normal" text-decoration="normal" x="908" y="370" text-anchor="start" dominant-baseline="alphabetic" stroke-opacity="1" stroke-linejoin="bevel" stroke-miterlimit="10" stroke-width="3">D</text><text fill="rgb(21,101,192)" stroke="none" font-family="geogebra-sans-serif, sans-serif" font-size="24px" font-style="normal" font-weight="normal" text-decoration="normal" x="908" y="370" text-anchor="start" dominant-baseline="alphabetic" fill-opacity="1">D</text></g></g></svg>