<svg version="1.1" xmlns="http://www.w3.org/2000/svg" xmlns:xlink="http://www.w3.org/1999/xlink" width="1310" height="605"><defs><clipPath id="qhTyrhpwxTNi"><path fill="none" stroke="none" d=" M 0 0 L 1310 0 L 1310 605 L 0 605 L 0 0 Z"/></clipPath></defs><g transform="scale(1,1)" clip-path="url(#qhTyrhpwxTNi)"><g><rect fill="rgb(255,255,255)" stroke="none" x="0" y="0" width="1310" height="605" fill-opacity="1"/><path fill="none" stroke="rgb(0,0,0)" paint-order="fill stroke markers" d=" M 904 304.49999999999983 C 904 442.5711874576982 792.0711874576984 554.5 654.0000000000001 554.5 C 515.9288125423018 554.5 404.0000000000002 442.5711874576982 404.0000000000002 304.49999999999983 C 404.0000000000002 166.42881254230144 515.9288125423018 54.499999999999716 654.0000000000001 54.499999999999716 C 792.0711874576984 54.499999999999716 904 166.42881254230144 904 304.49999999999983 Z" stroke-opacity="0.6980392156862745" stroke-linecap="round" stroke-linejoin="round" stroke-miterlimit="10" stroke-width="2.5"/><path fill="none" stroke="rgb(0,0,0)" paint-order="fill stroke markers" d=" M 404.0000000000002 304.49999999999983 L 904 304.49999999999983" stroke-opacity="0.6980392156862745" stroke-linecap="round" stroke-linejoin="round" stroke-miterlimit="10" stroke-width="2.5"/><path fill="none" stroke="rgb(0,0,0)" paint-order="fill stroke markers" d=" M 529.0000000000002 87.99364905389007 L 779 87.9936490538901" stroke-opacity="0.6980392156862745" stroke-linecap="round" stroke-linejoin="round" stroke-miterlimit="10" stroke-width="2.5"/><path fill="none" stroke="rgb(0,0,0)" paint-order="fill stroke markers" d=" M 404.0000000000002 304.49999999999983 L 529.0000000000002 87.99364905389007" stroke-opacity="0.6980392156862745" stroke-linecap="round" stroke-linejoin="round" stroke-miterlimit="10" stroke-width="2.5"/><path fill="none" stroke="rgb(0,0,0)" paint-order="fill stroke markers" d=" M 779 87.9936490538901 L 904 304.49999999999983" stroke-opacity="0.6980392156862745" stroke-linecap="round" stroke-linejoin="round" stroke-miterlimit="10" stroke-width="2.5"/><path fill="none" stroke="rgb(0,0,0)" paint-order="fill stroke markers" d=" M 779 87.9936490538901 L 654.0000000000001 304.49999999999983" stroke-opacity="0.6980392156862745" stroke-linecap="round" stroke-linejoin="round" stroke-miterlimit="10" stroke-width="2.5"/><path fill="none" stroke="rgb(0,0,0)" paint-order="fill stroke markers" d=" M 529.0000000000002 87.99364905389007 L 654.0000000000001 304.49999999999983" stroke-opacity="0.6980392156862745" stroke-linecap="round" stroke-linejoin="round" stroke-miterlimit="10" stroke-width="2.5"/><path fill="rgb(211,47,47)" stroke="none" paint-order="stroke fill markers" d=" M 659.0000000000001 304.49999999999983 C 659.0000000000001 307.2614237491538 656.7614237491541 309.49999999999983 654.0000000000001 309.49999999999983 C 651.2385762508461 309.49999999999983 649.0000000000001 307.2614237491538 649.0000000000001 304.49999999999983 C 649.0000000000001 301.7385762508459 651.2385762508461 299.49999999999983 654.0000000000001 299.49999999999983 C 656.7614237491541 299.49999999999983 659.0000000000001 301.7385762508459 659.0000000000001 304.49999999999983 Z" fill-opacity="1"/><path fill="none" stroke="rgb(0,0,0)" paint-order="fill stroke markers" d=" M 659.0000000000001 304.49999999999983 C 659.0000000000001 307.2614237491538 656.7614237491541 309.49999999999983 654.0000000000001 309.49999999999983 C 651.2385762508461 309.49999999999983 649.0000000000001 307.2614237491538 649.0000000000001 304.49999999999983 C 649.0000000000001 301.7385762508459 651.2385762508461 299.49999999999983 654.0000000000001 299.49999999999983 C 656.7614237491541 299.49999999999983 659.0000000000001 301.7385762508459 659.0000000000001 304.49999999999983 Z" stroke-opacity="1" stroke-linecap="round" stroke-linejoin="round" stroke-miterlimit="10"/><text fill="rgb(211,47,47)" stroke="none" font-family="geogebra-sans-serif, sans-serif" font-size="24px" font-style="normal" font-weight="normal" text-decoration="normal" x="667" y="337" text-anchor="start" dominant-baseline="alphabetic" fill-opacity="1">O</text><text fill="none" stroke="rgb(255,255,255)" font-family="geogebra-sans-serif, sans-serif" font-size="24px" font-style="normal" font-weight="normal" text-decoration="normal" x="667" y="337" text-anchor="start" dominant-baseline="alphabetic" stroke-opacity="1" stroke-linejoin="bevel" stroke-miterlimit="10" stroke-width="3">O</text><text fill="rgb(211,47,47)" stroke="none" font-family="geogebra-sans-serif, sans-serif" font-size="24px" font-style="normal" font-weight="normal" text-decoration="normal" x="667" y="337" text-anchor="start" dominant-baseline="alphabetic" fill-opacity="1">O</text><path fill="rgb(21,101,192)" stroke="none" paint-order="stroke fill markers" d=" M 409.0000000000002 304.49999999999983 C 409.0000000000002 307.2614237491538 406.7614237491542 309.49999999999983 404.0000000000002 309.49999999999983 C 401.2385762508463 309.49999999999983 399.0000000000002 307.2614237491538 399.0000000000002 304.49999999999983 C 399.0000000000002 301.7385762508459 401.2385762508463 299.49999999999983 404.0000000000002 299.49999999999983 C 406.7614237491542 299.49999999999983 409.0000000000002 301.7385762508459 409.0000000000002 304.49999999999983 Z" fill-opacity="1"/><path fill="none" stroke="rgb(0,0,0)" paint-order="fill stroke markers" d=" M 409.0000000000002 304.49999999999983 C 409.0000000000002 307.2614237491538 406.7614237491542 309.49999999999983 404.0000000000002 309.49999999999983 C 401.2385762508463 309.49999999999983 399.0000000000002 307.2614237491538 399.0000000000002 304.49999999999983 C 399.0000000000002 301.7385762508459 401.2385762508463 299.49999999999983 404.0000000000002 299.49999999999983 C 406.7614237491542 299.49999999999983 409.0000000000002 301.7385762508459 409.0000000000002 304.49999999999983 Z" stroke-opacity="1" stroke-linecap="round" stroke-linejoin="round" stroke-miterlimit="10"/><text fill="rgb(21,101,192)" stroke="none" font-family="geogebra-sans-serif, sans-serif" font-size="24px" font-style="normal" font-weight="normal" text-decoration="normal" x="375" y="311" text-anchor="start" dominant-baseline="alphabetic" fill-opacity="1">A</text><text fill="none" stroke="rgb(255,255,255)" font-family="geogebra-sans-serif, sans-serif" font-size="24px" font-style="normal" font-weight="normal" text-decoration="normal" x="375" y="311" text-anchor="start" dominant-baseline="alphabetic" stroke-opacity="1" stroke-linejoin="bevel" stroke-miterlimit="10" stroke-width="3">A</text><text fill="rgb(21,101,192)" stroke="none" font-family="geogebra-sans-serif, sans-serif" font-size="24px" font-style="normal" font-weight="normal" text-decoration="normal" x="375" y="311" text-anchor="start" dominant-baseline="alphabetic" fill-opacity="1">A</text><path fill="rgb(21,101,192)" stroke="none" paint-order="stroke fill markers" d=" M 909 304.49999999999983 C 909 307.2614237491538 906.761423749154 309.49999999999983 904 309.49999999999983 C 901.238576250846 309.49999999999983 899 307.2614237491538 899 304.49999999999983 C 899 301.7385762508459 901.238576250846 299.49999999999983 904 299.49999999999983 C 906.761423749154 299.49999999999983 909 301.7385762508459 909 304.49999999999983 Z" fill-opacity="1"/><path fill="none" stroke="rgb(0,0,0)" paint-order="fill stroke markers" d=" M 909 304.49999999999983 C 909 307.2614237491538 906.761423749154 309.49999999999983 904 309.49999999999983 C 901.238576250846 309.49999999999983 899 307.2614237491538 899 304.49999999999983 C 899 301.7385762508459 901.238576250846 299.49999999999983 904 299.49999999999983 C 906.761423749154 299.49999999999983 909 301.7385762508459 909 304.49999999999983 Z" stroke-opacity="1" stroke-linecap="round" stroke-linejoin="round" stroke-miterlimit="10"/><text fill="rgb(21,101,192)" stroke="none" font-family="geogebra-sans-serif, sans-serif" font-size="24px" font-style="normal" font-weight="normal" text-decoration="normal" x="919" y="306" text-anchor="start" dominant-baseline="alphabetic" fill-opacity="1">B</text><text fill="none" stroke="rgb(255,255,255)" font-family="geogebra-sans-serif, sans-serif" font-size="24px" font-style="normal" font-weight="normal" text-decoration="normal" x="919" y="306" text-anchor="start" dominant-baseline="alphabetic" stroke-opacity="1" stroke-linejoin="bevel" stroke-miterlimit="10" stroke-width="3">B</text><text fill="rgb(21,101,192)" stroke="none" font-family="geogebra-sans-serif, sans-serif" font-size="24px" font-style="normal" font-weight="normal" text-decoration="normal" x="919" y="306" text-anchor="start" dominant-baseline="alphabetic" fill-opacity="1">B</text><path fill="rgb(21,101,192)" stroke="none" paint-order="stroke fill markers" d=" M 534.0000000000002 87.99364905389007 C 534.0000000000002 90.75507280304403 531.7614237491542 92.99364905389007 529.0000000000002 92.99364905389007 C 526.2385762508462 92.99364905389007 524.0000000000002 90.75507280304403 524.0000000000002 87.99364905389007 C 524.0000000000002 85.2322253047361 526.2385762508462 82.99364905389007 529.0000000000002 82.99364905389007 C 531.7614237491542 82.99364905389007 534.0000000000002 85.2322253047361 534.0000000000002 87.99364905389007 Z" fill-opacity="1"/><path fill="none" stroke="rgb(0,0,0)" paint-order="fill stroke markers" d=" M 534.0000000000002 87.99364905389007 C 534.0000000000002 90.75507280304403 531.7614237491542 92.99364905389007 529.0000000000002 92.99364905389007 C 526.2385762508462 92.99364905389007 524.0000000000002 90.75507280304403 524.0000000000002 87.99364905389007 C 524.0000000000002 85.2322253047361 526.2385762508462 82.99364905389007 529.0000000000002 82.99364905389007 C 531.7614237491542 82.99364905389007 534.0000000000002 85.2322253047361 534.0000000000002 87.99364905389007 Z" stroke-opacity="1" stroke-linecap="round" stroke-linejoin="round" stroke-miterlimit="10"/><path fill="rgb(21,101,192)" stroke="none" paint-order="stroke fill markers" d=" M 784 87.9936490538901 C 784 90.75507280304406 781.761423749154 92.9936490538901 779 92.9936490538901 C 776.238576250846 92.9936490538901 774 90.75507280304406 774 87.9936490538901 C 774 85.23222530473613 776.238576250846 82.9936490538901 779 82.9936490538901 C 781.761423749154 82.9936490538901 784 85.23222530473613 784 87.9936490538901 Z" fill-opacity="1"/><path fill="none" stroke="rgb(0,0,0)" paint-order="fill stroke markers" d=" M 784 87.9936490538901 C 784 90.75507280304406 781.761423749154 92.9936490538901 779 92.9936490538901 C 776.238576250846 92.9936490538901 774 90.75507280304406 774 87.9936490538901 C 774 85.23222530473613 776.238576250846 82.9936490538901 779 82.9936490538901 C 781.761423749154 82.9936490538901 784 85.23222530473613 784 87.9936490538901 Z" stroke-opacity="1" stroke-linecap="round" stroke-linejoin="round" stroke-miterlimit="10"/></g></g></svg>