<svg version="1.1" xmlns="http://www.w3.org/2000/svg" xmlns:xlink="http://www.w3.org/1999/xlink" width="1310" height="605"><defs><clipPath id="bohGPsxgURKg"><path fill="none" stroke="none" d=" M 0 0 L 1310 0 L 1310 605 L 0 605 L 0 0 Z"/></clipPath></defs><g transform="scale(1,1)" clip-path="url(#bohGPsxgURKg)"><g><rect fill="rgb(255,255,255)" stroke="none" x="0" y="0" width="1310" height="605" fill-opacity="1"/><path fill="none" stroke="rgb(0,0,0)" paint-order="fill stroke markers" d=" M 903.0000000000001 296.50000000000017 C 903.0000000000001 434.57118745769856 791.0711874576984 546.5000000000002 653.0000000000002 546.5000000000002 C 514.928812542302 546.5000000000002 403.00000000000034 434.57118745769856 403.00000000000034 296.50000000000017 C 403.00000000000034 158.42881254230178 514.928812542302 46.50000000000006 653.0000000000002 46.50000000000006 C 791.0711874576984 46.50000000000006 903.0000000000001 158.42881254230178 903.0000000000001 296.50000000000017 Z" stroke-opacity="0.6980392156862745" stroke-linecap="round" stroke-linejoin="round" stroke-miterlimit="10" stroke-width="2.5"/><path fill="none" stroke="rgb(0,0,0)" paint-order="fill stroke markers" d=" M 495.2972145833271 490.4841010800185 L 803.0000000000002 496.5000000000002" stroke-opacity="0.6980392156862745" stroke-linecap="round" stroke-linejoin="round" stroke-miterlimit="10" stroke-width="2.5"/><path fill="none" stroke="rgb(0,0,0)" paint-order="fill stroke markers" d=" M 637.904719915875 46.956151109305466 L 890.6765102774493 218.97660699934778" stroke-opacity="0.6980392156862745" stroke-linecap="round" stroke-linejoin="round" stroke-miterlimit="10" stroke-width="2.5"/><path fill="none" stroke="rgb(0,0,0)" paint-order="fill stroke markers" d=" M 653.0000000000002 296.50000000000017 L 637.904719915875 46.956151109305466" stroke-opacity="0.6980392156862745" stroke-linecap="round" stroke-linejoin="round" stroke-miterlimit="10" stroke-width="2.5"/><path fill="none" stroke="rgb(0,0,0)" paint-order="fill stroke markers" d=" M 653.0000000000002 296.50000000000017 L 890.6765102774493 218.97660699934778" stroke-opacity="0.6980392156862745" stroke-linecap="round" stroke-linejoin="round" stroke-miterlimit="10" stroke-width="2.5"/><path fill="none" stroke="rgb(0,0,0)" paint-order="fill stroke markers" d=" M 653.0000000000002 296.50000000000017 L 495.2972145833271 490.4841010800185" stroke-opacity="0.6980392156862745" stroke-linecap="round" stroke-linejoin="round" stroke-miterlimit="10" stroke-width="2.5"/><path fill="none" stroke="rgb(0,0,0)" paint-order="fill stroke markers" d=" M 653.0000000000002 296.50000000000017 L 803.0000000000002 496.5000000000002" stroke-opacity="0.6980392156862745" stroke-linecap="round" stroke-linejoin="round" stroke-miterlimit="10" stroke-width="2.5"/><path fill="rgb(211,47,47)" stroke="none" paint-order="stroke fill markers" d=" M 658.0000000000002 296.50000000000017 C 658.0000000000002 299.2614237491541 655.7614237491542 301.50000000000017 653.0000000000002 301.50000000000017 C 650.2385762508462 301.50000000000017 648.0000000000002 299.2614237491541 648.0000000000002 296.50000000000017 C 648.0000000000002 293.7385762508462 650.2385762508462 291.50000000000017 653.0000000000002 291.50000000000017 C 655.7614237491542 291.50000000000017 658.0000000000002 293.7385762508462 658.0000000000002 296.50000000000017 Z" fill-opacity="1"/><path fill="none" stroke="rgb(0,0,0)" paint-order="fill stroke markers" d=" M 658.0000000000002 296.50000000000017 C 658.0000000000002 299.2614237491541 655.7614237491542 301.50000000000017 653.0000000000002 301.50000000000017 C 650.2385762508462 301.50000000000017 648.0000000000002 299.2614237491541 648.0000000000002 296.50000000000017 C 648.0000000000002 293.7385762508462 650.2385762508462 291.50000000000017 653.0000000000002 291.50000000000017 C 655.7614237491542 291.50000000000017 658.0000000000002 293.7385762508462 658.0000000000002 296.50000000000017 Z" stroke-opacity="1" stroke-linecap="round" stroke-linejoin="round" stroke-miterlimit="10"/><text fill="rgb(211,47,47)" stroke="none" font-family="geogebra-sans-serif, sans-serif" font-size="24px" font-style="normal" font-weight="normal" text-decoration="normal" x="617" y="318" text-anchor="start" dominant-baseline="alphabetic" fill-opacity="1">O</text><text fill="none" stroke="rgb(255,255,255)" font-family="geogebra-sans-serif, sans-serif" font-size="24px" font-style="normal" font-weight="normal" text-decoration="normal" x="617" y="318" text-anchor="start" dominant-baseline="alphabetic" stroke-opacity="1" stroke-linejoin="bevel" stroke-miterlimit="10" stroke-width="3">O</text><text fill="rgb(211,47,47)" stroke="none" font-family="geogebra-sans-serif, sans-serif" font-size="24px" font-style="normal" font-weight="normal" text-decoration="normal" x="617" y="318" text-anchor="start" dominant-baseline="alphabetic" fill-opacity="1">O</text><path fill="rgb(21,101,192)" stroke="none" paint-order="stroke fill markers" d=" M 500.2972145833271 490.4841010800185 C 500.2972145833271 493.24552482917244 498.05863833248105 495.4841010800185 495.2972145833271 495.4841010800185 C 492.53579083417316 495.4841010800185 490.2972145833271 493.24552482917244 490.2972145833271 490.4841010800185 C 490.2972145833271 487.72267733086454 492.53579083417316 485.4841010800185 495.2972145833271 485.4841010800185 C 498.05863833248105 485.4841010800185 500.2972145833271 487.72267733086454 500.2972145833271 490.4841010800185 Z" fill-opacity="1"/><path fill="none" stroke="rgb(0,0,0)" paint-order="fill stroke markers" d=" M 500.2972145833271 490.4841010800185 C 500.2972145833271 493.24552482917244 498.05863833248105 495.4841010800185 495.2972145833271 495.4841010800185 C 492.53579083417316 495.4841010800185 490.2972145833271 493.24552482917244 490.2972145833271 490.4841010800185 C 490.2972145833271 487.72267733086454 492.53579083417316 485.4841010800185 495.2972145833271 485.4841010800185 C 498.05863833248105 485.4841010800185 500.2972145833271 487.72267733086454 500.2972145833271 490.4841010800185 Z" stroke-opacity="1" stroke-linecap="round" stroke-linejoin="round" stroke-miterlimit="10"/><text fill="rgb(21,101,192)" stroke="none" font-family="geogebra-sans-serif, sans-serif" font-size="24px" font-style="normal" font-weight="normal" text-decoration="normal" x="467" y="501" text-anchor="start" dominant-baseline="alphabetic" fill-opacity="1">A</text><text fill="none" stroke="rgb(255,255,255)" font-family="geogebra-sans-serif, sans-serif" font-size="24px" font-style="normal" font-weight="normal" text-decoration="normal" x="467" y="501" text-anchor="start" dominant-baseline="alphabetic" stroke-opacity="1" stroke-linejoin="bevel" stroke-miterlimit="10" stroke-width="3">A</text><text fill="rgb(21,101,192)" stroke="none" font-family="geogebra-sans-serif, sans-serif" font-size="24px" font-style="normal" font-weight="normal" text-decoration="normal" x="467" y="501" text-anchor="start" dominant-baseline="alphabetic" fill-opacity="1">A</text><path fill="rgb(21,101,192)" stroke="none" paint-order="stroke fill markers" d=" M 808.0000000000002 496.5000000000002 C 808.0000000000002 499.2614237491542 805.7614237491542 501.5000000000002 803.0000000000002 501.5000000000002 C 800.2385762508462 501.5000000000002 798.0000000000002 499.2614237491542 798.0000000000002 496.5000000000002 C 798.0000000000002 493.7385762508463 800.2385762508462 491.5000000000002 803.0000000000002 491.5000000000002 C 805.7614237491542 491.5000000000002 808.0000000000002 493.7385762508463 808.0000000000002 496.5000000000002 Z" fill-opacity="1"/><path fill="none" stroke="rgb(0,0,0)" paint-order="fill stroke markers" d=" M 808.0000000000002 496.5000000000002 C 808.0000000000002 499.2614237491542 805.7614237491542 501.5000000000002 803.0000000000002 501.5000000000002 C 800.2385762508462 501.5000000000002 798.0000000000002 499.2614237491542 798.0000000000002 496.5000000000002 C 798.0000000000002 493.7385762508463 800.2385762508462 491.5000000000002 803.0000000000002 491.5000000000002 C 805.7614237491542 491.5000000000002 808.0000000000002 493.7385762508463 808.0000000000002 496.5000000000002 Z" stroke-opacity="1" stroke-linecap="round" stroke-linejoin="round" stroke-miterlimit="10"/><text fill="rgb(21,101,192)" stroke="none" font-family="geogebra-sans-serif, sans-serif" font-size="24px" font-style="normal" font-weight="normal" text-decoration="normal" x="813" y="519" text-anchor="start" dominant-baseline="alphabetic" fill-opacity="1">B</text><text fill="none" stroke="rgb(255,255,255)" font-family="geogebra-sans-serif, sans-serif" font-size="24px" font-style="normal" font-weight="normal" text-decoration="normal" x="813" y="519" text-anchor="start" dominant-baseline="alphabetic" stroke-opacity="1" stroke-linejoin="bevel" stroke-miterlimit="10" stroke-width="3">B</text><text fill="rgb(21,101,192)" stroke="none" font-family="geogebra-sans-serif, sans-serif" font-size="24px" font-style="normal" font-weight="normal" text-decoration="normal" x="813" y="519" text-anchor="start" dominant-baseline="alphabetic" fill-opacity="1">B</text><path fill="rgb(21,101,192)" stroke="none" paint-order="stroke fill markers" d=" M 642.904719915875 46.956151109305466 C 642.904719915875 49.71757485845943 640.666143665029 51.956151109305466 637.904719915875 51.956151109305466 C 635.143296166721 51.956151109305466 632.904719915875 49.71757485845943 632.904719915875 46.956151109305466 C 632.904719915875 44.1947273601515 635.143296166721 41.956151109305466 637.904719915875 41.956151109305466 C 640.666143665029 41.956151109305466 642.904719915875 44.1947273601515 642.904719915875 46.956151109305466 Z" fill-opacity="1"/><path fill="none" stroke="rgb(0,0,0)" paint-order="fill stroke markers" d=" M 642.904719915875 46.956151109305466 C 642.904719915875 49.71757485845943 640.666143665029 51.956151109305466 637.904719915875 51.956151109305466 C 635.143296166721 51.956151109305466 632.904719915875 49.71757485845943 632.904719915875 46.956151109305466 C 632.904719915875 44.1947273601515 635.143296166721 41.956151109305466 637.904719915875 41.956151109305466 C 640.666143665029 41.956151109305466 642.904719915875 44.1947273601515 642.904719915875 46.956151109305466 Z" stroke-opacity="1" stroke-linecap="round" stroke-linejoin="round" stroke-miterlimit="10"/><text fill="rgb(21,101,192)" stroke="none" font-family="geogebra-sans-serif, sans-serif" font-size="24px" font-style="normal" font-weight="normal" text-decoration="normal" x="625" y="37" text-anchor="start" dominant-baseline="alphabetic" fill-opacity="1">C</text><text fill="none" stroke="rgb(255,255,255)" font-family="geogebra-sans-serif, sans-serif" font-size="24px" font-style="normal" font-weight="normal" text-decoration="normal" x="625" y="37" text-anchor="start" dominant-baseline="alphabetic" stroke-opacity="1" stroke-linejoin="bevel" stroke-miterlimit="10" stroke-width="3">C</text><text fill="rgb(21,101,192)" stroke="none" font-family="geogebra-sans-serif, sans-serif" font-size="24px" font-style="normal" font-weight="normal" text-decoration="normal" x="625" y="37" text-anchor="start" dominant-baseline="alphabetic" fill-opacity="1">C</text><path fill="rgb(21,101,192)" stroke="none" paint-order="stroke fill markers" d=" M 895.6765102774493 218.97660699934778 C 895.6765102774493 221.73803074850176 893.4379340266033 223.97660699934778 890.6765102774493 223.97660699934778 C 887.9150865282953 223.97660699934778 885.6765102774493 221.73803074850176 885.6765102774493 218.97660699934778 C 885.6765102774493 216.2151832501938 887.9150865282953 213.97660699934778 890.6765102774493 213.97660699934778 C 893.4379340266033 213.97660699934778 895.6765102774493 216.2151832501938 895.6765102774493 218.97660699934778 Z" fill-opacity="1"/><path fill="none" stroke="rgb(0,0,0)" paint-order="fill stroke markers" d=" M 895.6765102774493 218.97660699934778 C 895.6765102774493 221.73803074850176 893.4379340266033 223.97660699934778 890.6765102774493 223.97660699934778 C 887.9150865282953 223.97660699934778 885.6765102774493 221.73803074850176 885.6765102774493 218.97660699934778 C 885.6765102774493 216.2151832501938 887.9150865282953 213.97660699934778 890.6765102774493 213.97660699934778 C 893.4379340266033 213.97660699934778 895.6765102774493 216.2151832501938 895.6765102774493 218.97660699934778 Z" stroke-opacity="1" stroke-linecap="round" stroke-linejoin="round" stroke-miterlimit="10"/><text fill="rgb(21,101,192)" stroke="none" font-family="geogebra-sans-serif, sans-serif" font-size="24px" font-style="normal" font-weight="normal" text-decoration="normal" x="908" y="215" text-anchor="start" dominant-baseline="alphabetic" fill-opacity="1">D</text><text fill="none" stroke="rgb(255,255,255)" font-family="geogebra-sans-serif, sans-serif" font-size="24px" font-style="normal" font-weight="normal" text-decoration="normal" x="908" y="215" text-anchor="start" dominant-baseline="alphabetic" stroke-opacity="1" stroke-linejoin="bevel" stroke-miterlimit="10" stroke-width="3">D</text><text fill="rgb(21,101,192)" stroke="none" font-family="geogebra-sans-serif, sans-serif" font-size="24px" font-style="normal" font-weight="normal" text-decoration="normal" x="908" y="215" text-anchor="start" dominant-baseline="alphabetic" fill-opacity="1">D</text></g></g></svg>