<svg version="1.1" xmlns="http://www.w3.org/2000/svg" xmlns:xlink="http://www.w3.org/1999/xlink" width="1310" height="605"><defs><clipPath id="wVuFLcGAVlBR"><path fill="none" stroke="none" d=" M 0 0 L 1310 0 L 1310 605 L 0 605 L 0 0 Z"/></clipPath></defs><g transform="scale(1,1)" clip-path="url(#wVuFLcGAVlBR)"><g><rect fill="rgb(255,255,255)" stroke="none" x="0" y="0" width="1310" height="605" fill-opacity="1"/><path fill="none" stroke="rgb(0,0,0)" paint-order="fill stroke markers" d=" M 880 301.5000000000001 C 880 439.5711874576985 768.0711874576984 551.5000000000002 630.0000000000001 551.5000000000002 C 491.92881254230184 551.5000000000002 380.0000000000002 439.5711874576985 380.0000000000002 301.5000000000001 C 380.0000000000002 163.42881254230173 491.92881254230184 51.5 630.0000000000001 51.5 C 768.0711874576984 51.5 880 163.42881254230173 880 301.5000000000001 Z" stroke-opacity="0.6980392156862745" stroke-linecap="round" stroke-linejoin="round" stroke-miterlimit="10" stroke-width="2.5"/><path fill="none" stroke="rgb(0,0,0)" paint-order="fill stroke markers" d=" M 472.297214583327 495.48410108001843 L 785.1624881392743 497.52194334928333" stroke-opacity="0.6980392156862745" stroke-linecap="round" stroke-linejoin="round" stroke-miterlimit="10" stroke-width="2.5"/><path fill="none" stroke="rgb(0,0,0)" paint-order="fill stroke markers" d=" M 411.5778613430058 179.87858188417357 L 849.9878967059748 182.73415767620156" stroke-opacity="0.6980392156862745" stroke-linecap="round" stroke-linejoin="round" stroke-miterlimit="10" stroke-width="2.5"/><path fill="rgb(211,47,47)" stroke="none" paint-order="stroke fill markers" d=" M 635.0000000000001 301.5000000000001 C 635.0000000000001 304.26142374915406 632.7614237491541 306.5000000000001 630.0000000000001 306.5000000000001 C 627.2385762508461 306.5000000000001 625.0000000000001 304.26142374915406 625.0000000000001 301.5000000000001 C 625.0000000000001 298.73857625084617 627.2385762508461 296.5000000000001 630.0000000000001 296.5000000000001 C 632.7614237491541 296.5000000000001 635.0000000000001 298.73857625084617 635.0000000000001 301.5000000000001 Z" fill-opacity="1"/><path fill="none" stroke="rgb(0,0,0)" paint-order="fill stroke markers" d=" M 635.0000000000001 301.5000000000001 C 635.0000000000001 304.26142374915406 632.7614237491541 306.5000000000001 630.0000000000001 306.5000000000001 C 627.2385762508461 306.5000000000001 625.0000000000001 304.26142374915406 625.0000000000001 301.5000000000001 C 625.0000000000001 298.73857625084617 627.2385762508461 296.5000000000001 630.0000000000001 296.5000000000001 C 632.7614237491541 296.5000000000001 635.0000000000001 298.73857625084617 635.0000000000001 301.5000000000001 Z" stroke-opacity="1" stroke-linecap="round" stroke-linejoin="round" stroke-miterlimit="10"/><text fill="rgb(211,47,47)" stroke="none" font-family="geogebra-sans-serif, sans-serif" font-size="24px" font-style="normal" font-weight="normal" text-decoration="normal" x="594" y="323" text-anchor="start" dominant-baseline="alphabetic" fill-opacity="1">O</text><text fill="none" stroke="rgb(255,255,255)" font-family="geogebra-sans-serif, sans-serif" font-size="24px" font-style="normal" font-weight="normal" text-decoration="normal" x="594" y="323" text-anchor="start" dominant-baseline="alphabetic" stroke-opacity="1" stroke-linejoin="bevel" stroke-miterlimit="10" stroke-width="3">O</text><text fill="rgb(211,47,47)" stroke="none" font-family="geogebra-sans-serif, sans-serif" font-size="24px" font-style="normal" font-weight="normal" text-decoration="normal" x="594" y="323" text-anchor="start" dominant-baseline="alphabetic" fill-opacity="1">O</text><path fill="rgb(21,101,192)" stroke="none" paint-order="stroke fill markers" d=" M 477.297214583327 495.48410108001843 C 477.297214583327 498.2455248291724 475.05863833248094 500.48410108001843 472.297214583327 500.48410108001843 C 469.53579083417304 500.48410108001843 467.297214583327 498.2455248291724 467.297214583327 495.48410108001843 C 467.297214583327 492.7226773308645 469.53579083417304 490.48410108001843 472.297214583327 490.48410108001843 C 475.05863833248094 490.48410108001843 477.297214583327 492.7226773308645 477.297214583327 495.48410108001843 Z" fill-opacity="1"/><path fill="none" stroke="rgb(0,0,0)" paint-order="fill stroke markers" d=" M 477.297214583327 495.48410108001843 C 477.297214583327 498.2455248291724 475.05863833248094 500.48410108001843 472.297214583327 500.48410108001843 C 469.53579083417304 500.48410108001843 467.297214583327 498.2455248291724 467.297214583327 495.48410108001843 C 467.297214583327 492.7226773308645 469.53579083417304 490.48410108001843 472.297214583327 490.48410108001843 C 475.05863833248094 490.48410108001843 477.297214583327 492.7226773308645 477.297214583327 495.48410108001843 Z" stroke-opacity="1" stroke-linecap="round" stroke-linejoin="round" stroke-miterlimit="10"/><text fill="rgb(21,101,192)" stroke="none" font-family="geogebra-sans-serif, sans-serif" font-size="24px" font-style="normal" font-weight="normal" text-decoration="normal" x="437" y="517" text-anchor="start" dominant-baseline="alphabetic" fill-opacity="1">A</text><text fill="none" stroke="rgb(255,255,255)" font-family="geogebra-sans-serif, sans-serif" font-size="24px" font-style="normal" font-weight="normal" text-decoration="normal" x="437" y="517" text-anchor="start" dominant-baseline="alphabetic" stroke-opacity="1" stroke-linejoin="bevel" stroke-miterlimit="10" stroke-width="3">A</text><text fill="rgb(21,101,192)" stroke="none" font-family="geogebra-sans-serif, sans-serif" font-size="24px" font-style="normal" font-weight="normal" text-decoration="normal" x="437" y="517" text-anchor="start" dominant-baseline="alphabetic" fill-opacity="1">A</text><path fill="rgb(21,101,192)" stroke="none" paint-order="stroke fill markers" d=" M 790.1624881392743 497.52194334928333 C 790.1624881392743 500.2833670984373 787.9239118884283 502.52194334928333 785.1624881392743 502.52194334928333 C 782.4010643901203 502.52194334928333 780.1624881392743 500.2833670984373 780.1624881392743 497.52194334928333 C 780.1624881392743 494.7605196001294 782.4010643901203 492.52194334928333 785.1624881392743 492.52194334928333 C 787.9239118884283 492.52194334928333 790.1624881392743 494.7605196001294 790.1624881392743 497.52194334928333 Z" fill-opacity="1"/><path fill="none" stroke="rgb(0,0,0)" paint-order="fill stroke markers" d=" M 790.1624881392743 497.52194334928333 C 790.1624881392743 500.2833670984373 787.9239118884283 502.52194334928333 785.1624881392743 502.52194334928333 C 782.4010643901203 502.52194334928333 780.1624881392743 500.2833670984373 780.1624881392743 497.52194334928333 C 780.1624881392743 494.7605196001294 782.4010643901203 492.52194334928333 785.1624881392743 492.52194334928333 C 787.9239118884283 492.52194334928333 790.1624881392743 494.7605196001294 790.1624881392743 497.52194334928333 Z" stroke-opacity="1" stroke-linecap="round" stroke-linejoin="round" stroke-miterlimit="10"/><text fill="rgb(21,101,192)" stroke="none" font-family="geogebra-sans-serif, sans-serif" font-size="24px" font-style="normal" font-weight="normal" text-decoration="normal" x="796" y="520" text-anchor="start" dominant-baseline="alphabetic" fill-opacity="1">B</text><text fill="none" stroke="rgb(255,255,255)" font-family="geogebra-sans-serif, sans-serif" font-size="24px" font-style="normal" font-weight="normal" text-decoration="normal" x="796" y="520" text-anchor="start" dominant-baseline="alphabetic" stroke-opacity="1" stroke-linejoin="bevel" stroke-miterlimit="10" stroke-width="3">B</text><text fill="rgb(21,101,192)" stroke="none" font-family="geogebra-sans-serif, sans-serif" font-size="24px" font-style="normal" font-weight="normal" text-decoration="normal" x="796" y="520" text-anchor="start" dominant-baseline="alphabetic" fill-opacity="1">B</text><path fill="rgb(21,101,192)" stroke="none" paint-order="stroke fill markers" d=" M 416.5778613430058 179.87858188417357 C 416.5778613430058 182.64000563332755 414.33928509215974 184.87858188417357 411.5778613430058 184.87858188417357 C 408.81643759385184 184.87858188417357 406.5778613430058 182.64000563332755 406.5778613430058 179.87858188417357 C 406.5778613430058 177.1171581350196 408.81643759385184 174.87858188417357 411.5778613430058 174.87858188417357 C 414.33928509215974 174.87858188417357 416.5778613430058 177.1171581350196 416.5778613430058 179.87858188417357 Z" fill-opacity="1"/><path fill="none" stroke="rgb(0,0,0)" paint-order="fill stroke markers" d=" M 416.5778613430058 179.87858188417357 C 416.5778613430058 182.64000563332755 414.33928509215974 184.87858188417357 411.5778613430058 184.87858188417357 C 408.81643759385184 184.87858188417357 406.5778613430058 182.64000563332755 406.5778613430058 179.87858188417357 C 406.5778613430058 177.1171581350196 408.81643759385184 174.87858188417357 411.5778613430058 174.87858188417357 C 414.33928509215974 174.87858188417357 416.5778613430058 177.1171581350196 416.5778613430058 179.87858188417357 Z" stroke-opacity="1" stroke-linecap="round" stroke-linejoin="round" stroke-miterlimit="10"/><text fill="rgb(21,101,192)" stroke="none" font-family="geogebra-sans-serif, sans-serif" font-size="24px" font-style="normal" font-weight="normal" text-decoration="normal" x="379" y="175" text-anchor="start" dominant-baseline="alphabetic" fill-opacity="1">C</text><text fill="none" stroke="rgb(255,255,255)" font-family="geogebra-sans-serif, sans-serif" font-size="24px" font-style="normal" font-weight="normal" text-decoration="normal" x="379" y="175" text-anchor="start" dominant-baseline="alphabetic" stroke-opacity="1" stroke-linejoin="bevel" stroke-miterlimit="10" stroke-width="3">C</text><text fill="rgb(21,101,192)" stroke="none" font-family="geogebra-sans-serif, sans-serif" font-size="24px" font-style="normal" font-weight="normal" text-decoration="normal" x="379" y="175" text-anchor="start" dominant-baseline="alphabetic" fill-opacity="1">C</text><path fill="rgb(21,101,192)" stroke="none" paint-order="stroke fill markers" d=" M 854.9878967059748 182.73415767620156 C 854.9878967059748 185.49558142535554 852.7493204551288 187.73415767620156 849.9878967059748 187.73415767620156 C 847.2264729568208 187.73415767620156 844.9878967059748 185.49558142535554 844.9878967059748 182.73415767620156 C 844.9878967059748 179.97273392704759 847.2264729568208 177.73415767620156 849.9878967059748 177.73415767620156 C 852.7493204551288 177.73415767620156 854.9878967059748 179.97273392704759 854.9878967059748 182.73415767620156 Z" fill-opacity="1"/><path fill="none" stroke="rgb(0,0,0)" paint-order="fill stroke markers" d=" M 854.9878967059748 182.73415767620156 C 854.9878967059748 185.49558142535554 852.7493204551288 187.73415767620156 849.9878967059748 187.73415767620156 C 847.2264729568208 187.73415767620156 844.9878967059748 185.49558142535554 844.9878967059748 182.73415767620156 C 844.9878967059748 179.97273392704759 847.2264729568208 177.73415767620156 849.9878967059748 177.73415767620156 C 852.7493204551288 177.73415767620156 854.9878967059748 179.97273392704759 854.9878967059748 182.73415767620156 Z" stroke-opacity="1" stroke-linecap="round" stroke-linejoin="round" stroke-miterlimit="10"/><text fill="rgb(21,101,192)" stroke="none" font-family="geogebra-sans-serif, sans-serif" font-size="24px" font-style="normal" font-weight="normal" text-decoration="normal" x="854" y="173" text-anchor="start" dominant-baseline="alphabetic" fill-opacity="1">D</text><text fill="none" stroke="rgb(255,255,255)" font-family="geogebra-sans-serif, sans-serif" font-size="24px" font-style="normal" font-weight="normal" text-decoration="normal" x="854" y="173" text-anchor="start" dominant-baseline="alphabetic" stroke-opacity="1" stroke-linejoin="bevel" stroke-miterlimit="10" stroke-width="3">D</text><text fill="rgb(21,101,192)" stroke="none" font-family="geogebra-sans-serif, sans-serif" font-size="24px" font-style="normal" font-weight="normal" text-decoration="normal" x="854" y="173" text-anchor="start" dominant-baseline="alphabetic" fill-opacity="1">D</text></g></g></svg>