<svg version="1.1" xmlns="http://www.w3.org/2000/svg" xmlns:xlink="http://www.w3.org/1999/xlink" width="1310" height="605"><defs><clipPath id="eEBxEmdrNffS"><path fill="none" stroke="none" d=" M 0 0 L 1310 0 L 1310 605 L 0 605 L 0 0 Z"/></clipPath></defs><g transform="scale(1,1)" clip-path="url(#eEBxEmdrNffS)"><g><rect fill="rgb(255,255,255)" stroke="none" x="0" y="0" width="1310" height="605" fill-opacity="1"/><path fill="none" stroke="rgb(0,0,0)" paint-order="fill stroke markers" d=" M 887 301.5000000000001 C 887 439.5711874576985 775.0711874576984 551.5000000000002 637.0000000000001 551.5000000000002 C 498.92881254230184 551.5000000000002 387.0000000000002 439.5711874576985 387.0000000000002 301.5000000000001 C 387.0000000000002 163.42881254230173 498.92881254230184 51.5 637.0000000000001 51.5 C 775.0711874576984 51.5 887 163.42881254230173 887 301.5000000000001 Z" stroke-opacity="0.6980392156862745" stroke-linecap="round" stroke-linejoin="round" stroke-miterlimit="10" stroke-width="2.5"/><path fill="rgb(0,0,0)" stroke="none" paint-order="stroke fill markers" fill-rule="evenodd" d=" M 637.7828790244903 181.30636978018754 L 658.9956324846017 181.44453866405627 L 659.133801368472 160.2317852039434 L 637.921047908359 160.09361632007608 L 637.7828790244903 181.30636978018754" fill-opacity="0.09803921568627451"/><path fill="none" stroke="rgb(0,0,0)" paint-order="fill stroke markers" d=" M 637.7828790244903 181.30636978018754 L 658.9956324846017 181.44453866405627 L 659.133801368472 160.2317852039434 L 637.921047908359 160.09361632007608 L 637.7828790244903 181.30636978018754" stroke-opacity="0.6" stroke-linecap="round" stroke-linejoin="round" stroke-miterlimit="10" stroke-width="2.5"/><path fill="rgb(0,0,0)" stroke="none" paint-order="stroke fill markers" fill-rule="evenodd" d=" M 635.7298513613007 496.50302221465085 L 656.9426048214121 496.6411910985196 L 657.0807737052824 475.4284376384067 L 635.8680202451694 475.2902687545394 L 635.7298513613007 496.50302221465085" fill-opacity="0.09803921568627451"/><path fill="none" stroke="rgb(0,0,0)" paint-order="fill stroke markers" d=" M 635.7298513613007 496.50302221465085 L 656.9426048214121 496.6411910985196 L 657.0807737052824 475.4284376384067 L 635.8680202451694 475.2902687545394 L 635.7298513613007 496.50302221465085" stroke-opacity="0.6" stroke-linecap="round" stroke-linejoin="round" stroke-miterlimit="10" stroke-width="2.5"/><path fill="none" stroke="rgb(0,0,0)" paint-order="fill stroke markers" d=" M 634.9905908606512 610 L 638.9963821757228 -5" stroke-opacity="0.6980392156862745" stroke-linecap="round" stroke-linejoin="round" stroke-miterlimit="10" stroke-width="2.5"/><path fill="none" stroke="rgb(0,0,0)" paint-order="fill stroke markers" d=" M 479.297214583327 495.48410108001843 L 792.1624881392743 497.52194334928333" stroke-opacity="0.6980392156862745" stroke-linecap="round" stroke-linejoin="round" stroke-miterlimit="10" stroke-width="2.5"/><path fill="none" stroke="rgb(0,0,0)" paint-order="fill stroke markers" d=" M 418.5778613430058 179.87858188417357 L 856.9878967059748 182.73415767620156" stroke-opacity="0.6980392156862745" stroke-linecap="round" stroke-linejoin="round" stroke-miterlimit="10" stroke-width="2.5"/><path fill="rgb(211,47,47)" stroke="none" paint-order="stroke fill markers" d=" M 642.0000000000001 301.5000000000001 C 642.0000000000001 304.26142374915406 639.7614237491541 306.5000000000001 637.0000000000001 306.5000000000001 C 634.2385762508461 306.5000000000001 632.0000000000001 304.26142374915406 632.0000000000001 301.5000000000001 C 632.0000000000001 298.73857625084617 634.2385762508461 296.5000000000001 637.0000000000001 296.5000000000001 C 639.7614237491541 296.5000000000001 642.0000000000001 298.73857625084617 642.0000000000001 301.5000000000001 Z" fill-opacity="1"/><path fill="none" stroke="rgb(0,0,0)" paint-order="fill stroke markers" d=" M 642.0000000000001 301.5000000000001 C 642.0000000000001 304.26142374915406 639.7614237491541 306.5000000000001 637.0000000000001 306.5000000000001 C 634.2385762508461 306.5000000000001 632.0000000000001 304.26142374915406 632.0000000000001 301.5000000000001 C 632.0000000000001 298.73857625084617 634.2385762508461 296.5000000000001 637.0000000000001 296.5000000000001 C 639.7614237491541 296.5000000000001 642.0000000000001 298.73857625084617 642.0000000000001 301.5000000000001 Z" stroke-opacity="1" stroke-linecap="round" stroke-linejoin="round" stroke-miterlimit="10"/><text fill="rgb(211,47,47)" stroke="none" font-family="geogebra-sans-serif, sans-serif" font-size="24px" font-style="normal" font-weight="normal" text-decoration="normal" x="601" y="323" text-anchor="start" dominant-baseline="alphabetic" fill-opacity="1">O</text><text fill="none" stroke="rgb(255,255,255)" font-family="geogebra-sans-serif, sans-serif" font-size="24px" font-style="normal" font-weight="normal" text-decoration="normal" x="601" y="323" text-anchor="start" dominant-baseline="alphabetic" stroke-opacity="1" stroke-linejoin="bevel" stroke-miterlimit="10" stroke-width="3">O</text><text fill="rgb(211,47,47)" stroke="none" font-family="geogebra-sans-serif, sans-serif" font-size="24px" font-style="normal" font-weight="normal" text-decoration="normal" x="601" y="323" text-anchor="start" dominant-baseline="alphabetic" fill-opacity="1">O</text><path fill="rgb(21,101,192)" stroke="none" paint-order="stroke fill markers" d=" M 484.297214583327 495.48410108001843 C 484.297214583327 498.2455248291724 482.05863833248094 500.48410108001843 479.297214583327 500.48410108001843 C 476.53579083417304 500.48410108001843 474.297214583327 498.2455248291724 474.297214583327 495.48410108001843 C 474.297214583327 492.7226773308645 476.53579083417304 490.48410108001843 479.297214583327 490.48410108001843 C 482.05863833248094 490.48410108001843 484.297214583327 492.7226773308645 484.297214583327 495.48410108001843 Z" fill-opacity="1"/><path fill="none" stroke="rgb(0,0,0)" paint-order="fill stroke markers" d=" M 484.297214583327 495.48410108001843 C 484.297214583327 498.2455248291724 482.05863833248094 500.48410108001843 479.297214583327 500.48410108001843 C 476.53579083417304 500.48410108001843 474.297214583327 498.2455248291724 474.297214583327 495.48410108001843 C 474.297214583327 492.7226773308645 476.53579083417304 490.48410108001843 479.297214583327 490.48410108001843 C 482.05863833248094 490.48410108001843 484.297214583327 492.7226773308645 484.297214583327 495.48410108001843 Z" stroke-opacity="1" stroke-linecap="round" stroke-linejoin="round" stroke-miterlimit="10"/><text fill="rgb(21,101,192)" stroke="none" font-family="geogebra-sans-serif, sans-serif" font-size="24px" font-style="normal" font-weight="normal" text-decoration="normal" x="444" y="517" text-anchor="start" dominant-baseline="alphabetic" fill-opacity="1">A</text><text fill="none" stroke="rgb(255,255,255)" font-family="geogebra-sans-serif, sans-serif" font-size="24px" font-style="normal" font-weight="normal" text-decoration="normal" x="444" y="517" text-anchor="start" dominant-baseline="alphabetic" stroke-opacity="1" stroke-linejoin="bevel" stroke-miterlimit="10" stroke-width="3">A</text><text fill="rgb(21,101,192)" stroke="none" font-family="geogebra-sans-serif, sans-serif" font-size="24px" font-style="normal" font-weight="normal" text-decoration="normal" x="444" y="517" text-anchor="start" dominant-baseline="alphabetic" fill-opacity="1">A</text><path fill="rgb(21,101,192)" stroke="none" paint-order="stroke fill markers" d=" M 797.1624881392743 497.52194334928333 C 797.1624881392743 500.2833670984373 794.9239118884283 502.52194334928333 792.1624881392743 502.52194334928333 C 789.4010643901203 502.52194334928333 787.1624881392743 500.2833670984373 787.1624881392743 497.52194334928333 C 787.1624881392743 494.7605196001294 789.4010643901203 492.52194334928333 792.1624881392743 492.52194334928333 C 794.9239118884283 492.52194334928333 797.1624881392743 494.7605196001294 797.1624881392743 497.52194334928333 Z" fill-opacity="1"/><path fill="none" stroke="rgb(0,0,0)" paint-order="fill stroke markers" d=" M 797.1624881392743 497.52194334928333 C 797.1624881392743 500.2833670984373 794.9239118884283 502.52194334928333 792.1624881392743 502.52194334928333 C 789.4010643901203 502.52194334928333 787.1624881392743 500.2833670984373 787.1624881392743 497.52194334928333 C 787.1624881392743 494.7605196001294 789.4010643901203 492.52194334928333 792.1624881392743 492.52194334928333 C 794.9239118884283 492.52194334928333 797.1624881392743 494.7605196001294 797.1624881392743 497.52194334928333 Z" stroke-opacity="1" stroke-linecap="round" stroke-linejoin="round" stroke-miterlimit="10"/><text fill="rgb(21,101,192)" stroke="none" font-family="geogebra-sans-serif, sans-serif" font-size="24px" font-style="normal" font-weight="normal" text-decoration="normal" x="803" y="520" text-anchor="start" dominant-baseline="alphabetic" fill-opacity="1">B</text><text fill="none" stroke="rgb(255,255,255)" font-family="geogebra-sans-serif, sans-serif" font-size="24px" font-style="normal" font-weight="normal" text-decoration="normal" x="803" y="520" text-anchor="start" dominant-baseline="alphabetic" stroke-opacity="1" stroke-linejoin="bevel" stroke-miterlimit="10" stroke-width="3">B</text><text fill="rgb(21,101,192)" stroke="none" font-family="geogebra-sans-serif, sans-serif" font-size="24px" font-style="normal" font-weight="normal" text-decoration="normal" x="803" y="520" text-anchor="start" dominant-baseline="alphabetic" fill-opacity="1">B</text><path fill="rgb(21,101,192)" stroke="none" paint-order="stroke fill markers" d=" M 423.5778613430058 179.87858188417357 C 423.5778613430058 182.64000563332755 421.33928509215974 184.87858188417357 418.5778613430058 184.87858188417357 C 415.81643759385184 184.87858188417357 413.5778613430058 182.64000563332755 413.5778613430058 179.87858188417357 C 413.5778613430058 177.1171581350196 415.81643759385184 174.87858188417357 418.5778613430058 174.87858188417357 C 421.33928509215974 174.87858188417357 423.5778613430058 177.1171581350196 423.5778613430058 179.87858188417357 Z" fill-opacity="1"/><path fill="none" stroke="rgb(0,0,0)" paint-order="fill stroke markers" d=" M 423.5778613430058 179.87858188417357 C 423.5778613430058 182.64000563332755 421.33928509215974 184.87858188417357 418.5778613430058 184.87858188417357 C 415.81643759385184 184.87858188417357 413.5778613430058 182.64000563332755 413.5778613430058 179.87858188417357 C 413.5778613430058 177.1171581350196 415.81643759385184 174.87858188417357 418.5778613430058 174.87858188417357 C 421.33928509215974 174.87858188417357 423.5778613430058 177.1171581350196 423.5778613430058 179.87858188417357 Z" stroke-opacity="1" stroke-linecap="round" stroke-linejoin="round" stroke-miterlimit="10"/><text fill="rgb(21,101,192)" stroke="none" font-family="geogebra-sans-serif, sans-serif" font-size="24px" font-style="normal" font-weight="normal" text-decoration="normal" x="386" y="175" text-anchor="start" dominant-baseline="alphabetic" fill-opacity="1">C</text><text fill="none" stroke="rgb(255,255,255)" font-family="geogebra-sans-serif, sans-serif" font-size="24px" font-style="normal" font-weight="normal" text-decoration="normal" x="386" y="175" text-anchor="start" dominant-baseline="alphabetic" stroke-opacity="1" stroke-linejoin="bevel" stroke-miterlimit="10" stroke-width="3">C</text><text fill="rgb(21,101,192)" stroke="none" font-family="geogebra-sans-serif, sans-serif" font-size="24px" font-style="normal" font-weight="normal" text-decoration="normal" x="386" y="175" text-anchor="start" dominant-baseline="alphabetic" fill-opacity="1">C</text><path fill="rgb(21,101,192)" stroke="none" paint-order="stroke fill markers" d=" M 861.9878967059748 182.73415767620156 C 861.9878967059748 185.49558142535554 859.7493204551288 187.73415767620156 856.9878967059748 187.73415767620156 C 854.2264729568208 187.73415767620156 851.9878967059748 185.49558142535554 851.9878967059748 182.73415767620156 C 851.9878967059748 179.97273392704759 854.2264729568208 177.73415767620156 856.9878967059748 177.73415767620156 C 859.7493204551288 177.73415767620156 861.9878967059748 179.97273392704759 861.9878967059748 182.73415767620156 Z" fill-opacity="1"/><path fill="none" stroke="rgb(0,0,0)" paint-order="fill stroke markers" d=" M 861.9878967059748 182.73415767620156 C 861.9878967059748 185.49558142535554 859.7493204551288 187.73415767620156 856.9878967059748 187.73415767620156 C 854.2264729568208 187.73415767620156 851.9878967059748 185.49558142535554 851.9878967059748 182.73415767620156 C 851.9878967059748 179.97273392704759 854.2264729568208 177.73415767620156 856.9878967059748 177.73415767620156 C 859.7493204551288 177.73415767620156 861.9878967059748 179.97273392704759 861.9878967059748 182.73415767620156 Z" stroke-opacity="1" stroke-linecap="round" stroke-linejoin="round" stroke-miterlimit="10"/><text fill="rgb(21,101,192)" stroke="none" font-family="geogebra-sans-serif, sans-serif" font-size="24px" font-style="normal" font-weight="normal" text-decoration="normal" x="861" y="173" text-anchor="start" dominant-baseline="alphabetic" fill-opacity="1">D</text><text fill="none" stroke="rgb(255,255,255)" font-family="geogebra-sans-serif, sans-serif" font-size="24px" font-style="normal" font-weight="normal" text-decoration="normal" x="861" y="173" text-anchor="start" dominant-baseline="alphabetic" stroke-opacity="1" stroke-linejoin="bevel" stroke-miterlimit="10" stroke-width="3">D</text><text fill="rgb(21,101,192)" stroke="none" font-family="geogebra-sans-serif, sans-serif" font-size="24px" font-style="normal" font-weight="normal" text-decoration="normal" x="861" y="173" text-anchor="start" dominant-baseline="alphabetic" fill-opacity="1">D</text><path fill="rgb(46,125,50)" stroke="none" paint-order="stroke fill markers" d=" M 642.7828790244903 181.30636978018754 C 642.7828790244903 184.06779352934151 640.5443027736443 186.30636978018754 637.7828790244903 186.30636978018754 C 635.0214552753363 186.30636978018754 632.7828790244903 184.06779352934151 632.7828790244903 181.30636978018754 C 632.7828790244903 178.54494603103356 635.0214552753363 176.30636978018754 637.7828790244903 176.30636978018754 C 640.5443027736443 176.30636978018754 642.7828790244903 178.54494603103356 642.7828790244903 181.30636978018754 Z" fill-opacity="1"/><path fill="none" stroke="rgb(0,0,0)" paint-order="fill stroke markers" d=" M 642.7828790244903 181.30636978018754 C 642.7828790244903 184.06779352934151 640.5443027736443 186.30636978018754 637.7828790244903 186.30636978018754 C 635.0214552753363 186.30636978018754 632.7828790244903 184.06779352934151 632.7828790244903 181.30636978018754 C 632.7828790244903 178.54494603103356 635.0214552753363 176.30636978018754 637.7828790244903 176.30636978018754 C 640.5443027736443 176.30636978018754 642.7828790244903 178.54494603103356 642.7828790244903 181.30636978018754 Z" stroke-opacity="1" stroke-linecap="round" stroke-linejoin="round" stroke-miterlimit="10"/><path fill="rgb(46,125,50)" stroke="none" paint-order="stroke fill markers" d=" M 640.7298513613007 496.50302221465085 C 640.7298513613007 499.2644459638048 638.4912751104547 501.50302221465085 635.7298513613007 501.50302221465085 C 632.9684276121467 501.50302221465085 630.7298513613007 499.2644459638048 630.7298513613007 496.50302221465085 C 630.7298513613007 493.7415984654969 632.9684276121467 491.50302221465085 635.7298513613007 491.50302221465085 C 638.4912751104547 491.50302221465085 640.7298513613007 493.7415984654969 640.7298513613007 496.50302221465085 Z" fill-opacity="1"/><path fill="none" stroke="rgb(0,0,0)" paint-order="fill stroke markers" d=" M 640.7298513613007 496.50302221465085 C 640.7298513613007 499.2644459638048 638.4912751104547 501.50302221465085 635.7298513613007 501.50302221465085 C 632.9684276121467 501.50302221465085 630.7298513613007 499.2644459638048 630.7298513613007 496.50302221465085 C 630.7298513613007 493.7415984654969 632.9684276121467 491.50302221465085 635.7298513613007 491.50302221465085 C 638.4912751104547 491.50302221465085 640.7298513613007 493.7415984654969 640.7298513613007 496.50302221465085 Z" stroke-opacity="1" stroke-linecap="round" stroke-linejoin="round" stroke-miterlimit="10"/></g></g></svg>