<svg version="1.1" xmlns="http://www.w3.org/2000/svg" xmlns:xlink="http://www.w3.org/1999/xlink" width="1310" height="605"><defs><clipPath id="EbdTqckZiKGy"><path fill="none" stroke="none" d=" M 0 0 L 1310 0 L 1310 605 L 0 605 L 0 0 Z"/></clipPath></defs><g transform="scale(1,1)" clip-path="url(#EbdTqckZiKGy)"><g><rect fill="rgb(255,255,255)" stroke="none" x="0" y="0" width="1310" height="605" fill-opacity="1"/><path fill="none" stroke="rgb(0,0,0)" paint-order="fill stroke markers" d=" M 887.0000000000001 301.5000000000001 C 887.0000000000001 439.5711874576985 775.0711874576984 551.5000000000002 637.0000000000002 551.5000000000002 C 498.92881254230196 551.5000000000002 387.00000000000034 439.5711874576985 387.00000000000034 301.5000000000001 C 387.00000000000034 163.42881254230173 498.92881254230196 51.5 637.0000000000002 51.5 C 775.0711874576984 51.5 887.0000000000001 163.42881254230173 887.0000000000001 301.5000000000001 Z" stroke-opacity="0.6980392156862745" stroke-linecap="round" stroke-linejoin="round" stroke-miterlimit="10" stroke-width="2.5"/><path fill="rgb(0,0,0)" stroke="none" paint-order="stroke fill markers" fill-rule="evenodd" d=" M 479.2972145833271 495.48410108001843 L 500.51039221497695 495.5171883587107 L 500.54347949367065 474.30401072705945 L 479.3303018620194 474.2709234483686 L 479.2972145833271 495.48410108001843" fill-opacity="0.09803921568627451"/><path fill="none" stroke="rgb(0,0,0)" paint-order="fill stroke markers" d=" M 479.2972145833271 495.48410108001843 L 500.51039221497695 495.5171883587107 L 500.54347949367065 474.30401072705945 L 479.3303018620194 474.2709234483686 L 479.2972145833271 495.48410108001843" stroke-opacity="0.6" stroke-linecap="round" stroke-linejoin="round" stroke-miterlimit="10" stroke-width="2.5"/><path fill="rgb(0,0,0)" stroke="none" paint-order="stroke fill markers" fill-rule="evenodd" d=" M 794.0968857061922 495.97511023628624 L 794.1299729848845 474.7619326046364 L 772.9167953532333 474.7288453259427 L 772.8837080745424 495.94202295759396 L 794.0968857061922 495.97511023628624" fill-opacity="0.09803921568627451"/><path fill="none" stroke="rgb(0,0,0)" paint-order="fill stroke markers" d=" M 794.0968857061922 495.97511023628624 L 794.1299729848845 474.7619326046364 L 772.9167953532333 474.7288453259427 L 772.8837080745424 495.94202295759396 L 794.0968857061922 495.97511023628624" stroke-opacity="0.6" stroke-linecap="round" stroke-linejoin="round" stroke-miterlimit="10" stroke-width="2.5"/><path fill="none" stroke="rgb(0,0,0)" paint-order="fill stroke markers" d=" M 479.118598275669 610 L 480.0778452470131 -5" stroke-opacity="0.6980392156862745" stroke-linecap="round" stroke-linejoin="round" stroke-miterlimit="10" stroke-width="2.5"/><path fill="none" stroke="rgb(0,0,0)" paint-order="fill stroke markers" d=" M 793.9190352506415 610 L 794.8782822219855 -5" stroke-opacity="0.6980392156862745" stroke-linecap="round" stroke-linejoin="round" stroke-miterlimit="10" stroke-width="2.5"/><path fill="none" stroke="rgb(0,0,0)" paint-order="fill stroke markers" d=" M 479.2972145833271 495.48410108001843 L 794.0968857061922 495.97511023628624" stroke-opacity="0.6980392156862745" stroke-linecap="round" stroke-linejoin="round" stroke-miterlimit="10" stroke-width="2.5"/><path fill="none" stroke="rgb(0,0,0)" paint-order="fill stroke markers" d=" M 479.90311429380824 107.02488976371393 L 794.7027854166734 107.5158989199818" stroke-opacity="0.6980392156862745" stroke-linecap="round" stroke-linejoin="round" stroke-miterlimit="10" stroke-width="2.5"/><path fill="rgb(211,47,47)" stroke="none" paint-order="stroke fill markers" d=" M 642.0000000000002 301.5000000000001 C 642.0000000000002 304.26142374915406 639.7614237491542 306.5000000000001 637.0000000000002 306.5000000000001 C 634.2385762508462 306.5000000000001 632.0000000000002 304.26142374915406 632.0000000000002 301.5000000000001 C 632.0000000000002 298.73857625084617 634.2385762508462 296.5000000000001 637.0000000000002 296.5000000000001 C 639.7614237491542 296.5000000000001 642.0000000000002 298.73857625084617 642.0000000000002 301.5000000000001 Z" fill-opacity="1"/><path fill="none" stroke="rgb(0,0,0)" paint-order="fill stroke markers" d=" M 642.0000000000002 301.5000000000001 C 642.0000000000002 304.26142374915406 639.7614237491542 306.5000000000001 637.0000000000002 306.5000000000001 C 634.2385762508462 306.5000000000001 632.0000000000002 304.26142374915406 632.0000000000002 301.5000000000001 C 632.0000000000002 298.73857625084617 634.2385762508462 296.5000000000001 637.0000000000002 296.5000000000001 C 639.7614237491542 296.5000000000001 642.0000000000002 298.73857625084617 642.0000000000002 301.5000000000001 Z" stroke-opacity="1" stroke-linecap="round" stroke-linejoin="round" stroke-miterlimit="10"/><text fill="rgb(211,47,47)" stroke="none" font-family="geogebra-sans-serif, sans-serif" font-size="24px" font-style="normal" font-weight="normal" text-decoration="normal" x="601" y="323" text-anchor="start" dominant-baseline="alphabetic" fill-opacity="1">O</text><text fill="none" stroke="rgb(255,255,255)" font-family="geogebra-sans-serif, sans-serif" font-size="24px" font-style="normal" font-weight="normal" text-decoration="normal" x="601" y="323" text-anchor="start" dominant-baseline="alphabetic" stroke-opacity="1" stroke-linejoin="bevel" stroke-miterlimit="10" stroke-width="3">O</text><text fill="rgb(211,47,47)" stroke="none" font-family="geogebra-sans-serif, sans-serif" font-size="24px" font-style="normal" font-weight="normal" text-decoration="normal" x="601" y="323" text-anchor="start" dominant-baseline="alphabetic" fill-opacity="1">O</text><path fill="rgb(21,101,192)" stroke="none" paint-order="stroke fill markers" d=" M 484.2972145833271 495.48410108001843 C 484.2972145833271 498.2455248291724 482.05863833248105 500.48410108001843 479.2972145833271 500.48410108001843 C 476.53579083417316 500.48410108001843 474.2972145833271 498.2455248291724 474.2972145833271 495.48410108001843 C 474.2972145833271 492.7226773308645 476.53579083417316 490.48410108001843 479.2972145833271 490.48410108001843 C 482.05863833248105 490.48410108001843 484.2972145833271 492.7226773308645 484.2972145833271 495.48410108001843 Z" fill-opacity="1"/><path fill="none" stroke="rgb(0,0,0)" paint-order="fill stroke markers" d=" M 484.2972145833271 495.48410108001843 C 484.2972145833271 498.2455248291724 482.05863833248105 500.48410108001843 479.2972145833271 500.48410108001843 C 476.53579083417316 500.48410108001843 474.2972145833271 498.2455248291724 474.2972145833271 495.48410108001843 C 474.2972145833271 492.7226773308645 476.53579083417316 490.48410108001843 479.2972145833271 490.48410108001843 C 482.05863833248105 490.48410108001843 484.2972145833271 492.7226773308645 484.2972145833271 495.48410108001843 Z" stroke-opacity="1" stroke-linecap="round" stroke-linejoin="round" stroke-miterlimit="10"/><text fill="rgb(21,101,192)" stroke="none" font-family="geogebra-sans-serif, sans-serif" font-size="24px" font-style="normal" font-weight="normal" text-decoration="normal" x="444" y="517" text-anchor="start" dominant-baseline="alphabetic" fill-opacity="1">A</text><text fill="none" stroke="rgb(255,255,255)" font-family="geogebra-sans-serif, sans-serif" font-size="24px" font-style="normal" font-weight="normal" text-decoration="normal" x="444" y="517" text-anchor="start" dominant-baseline="alphabetic" stroke-opacity="1" stroke-linejoin="bevel" stroke-miterlimit="10" stroke-width="3">A</text><text fill="rgb(21,101,192)" stroke="none" font-family="geogebra-sans-serif, sans-serif" font-size="24px" font-style="normal" font-weight="normal" text-decoration="normal" x="444" y="517" text-anchor="start" dominant-baseline="alphabetic" fill-opacity="1">A</text><path fill="rgb(21,101,192)" stroke="none" paint-order="stroke fill markers" d=" M 799.0968857061922 495.97511023628624 C 799.0968857061922 498.7365339854402 796.8583094553462 500.97511023628624 794.0968857061922 500.97511023628624 C 791.3354619570382 500.97511023628624 789.0968857061922 498.7365339854402 789.0968857061922 495.97511023628624 C 789.0968857061922 493.2136864871323 791.3354619570382 490.97511023628624 794.0968857061922 490.97511023628624 C 796.8583094553462 490.97511023628624 799.0968857061922 493.2136864871323 799.0968857061922 495.97511023628624 Z" fill-opacity="1"/><path fill="none" stroke="rgb(0,0,0)" paint-order="fill stroke markers" d=" M 799.0968857061922 495.97511023628624 C 799.0968857061922 498.7365339854402 796.8583094553462 500.97511023628624 794.0968857061922 500.97511023628624 C 791.3354619570382 500.97511023628624 789.0968857061922 498.7365339854402 789.0968857061922 495.97511023628624 C 789.0968857061922 493.2136864871323 791.3354619570382 490.97511023628624 794.0968857061922 490.97511023628624 C 796.8583094553462 490.97511023628624 799.0968857061922 493.2136864871323 799.0968857061922 495.97511023628624 Z" stroke-opacity="1" stroke-linecap="round" stroke-linejoin="round" stroke-miterlimit="10"/><text fill="rgb(21,101,192)" stroke="none" font-family="geogebra-sans-serif, sans-serif" font-size="24px" font-style="normal" font-weight="normal" text-decoration="normal" x="808" y="517" text-anchor="start" dominant-baseline="alphabetic" fill-opacity="1">B</text><text fill="none" stroke="rgb(255,255,255)" font-family="geogebra-sans-serif, sans-serif" font-size="24px" font-style="normal" font-weight="normal" text-decoration="normal" x="808" y="517" text-anchor="start" dominant-baseline="alphabetic" stroke-opacity="1" stroke-linejoin="bevel" stroke-miterlimit="10" stroke-width="3">B</text><text fill="rgb(21,101,192)" stroke="none" font-family="geogebra-sans-serif, sans-serif" font-size="24px" font-style="normal" font-weight="normal" text-decoration="normal" x="808" y="517" text-anchor="start" dominant-baseline="alphabetic" fill-opacity="1">B</text><path fill="rgb(21,101,192)" stroke="none" paint-order="stroke fill markers" d=" M 484.90311429380824 107.02488976371393 C 484.90311429380824 109.78631351286789 482.6645380429622 112.02488976371393 479.90311429380824 112.02488976371393 C 477.1416905446543 112.02488976371393 474.90311429380824 109.78631351286789 474.90311429380824 107.02488976371393 C 474.90311429380824 104.26346601455997 477.1416905446543 102.02488976371393 479.90311429380824 102.02488976371393 C 482.6645380429622 102.02488976371393 484.90311429380824 104.26346601455997 484.90311429380824 107.02488976371393 Z" fill-opacity="1"/><path fill="none" stroke="rgb(0,0,0)" paint-order="fill stroke markers" d=" M 484.90311429380824 107.02488976371393 C 484.90311429380824 109.78631351286789 482.6645380429622 112.02488976371393 479.90311429380824 112.02488976371393 C 477.1416905446543 112.02488976371393 474.90311429380824 109.78631351286789 474.90311429380824 107.02488976371393 C 474.90311429380824 104.26346601455997 477.1416905446543 102.02488976371393 479.90311429380824 102.02488976371393 C 482.6645380429622 102.02488976371393 484.90311429380824 104.26346601455997 484.90311429380824 107.02488976371393 Z" stroke-opacity="1" stroke-linecap="round" stroke-linejoin="round" stroke-miterlimit="10"/><text fill="rgb(21,101,192)" stroke="none" font-family="geogebra-sans-serif, sans-serif" font-size="24px" font-style="normal" font-weight="normal" text-decoration="normal" x="450" y="97" text-anchor="start" dominant-baseline="alphabetic" fill-opacity="1">C</text><text fill="none" stroke="rgb(255,255,255)" font-family="geogebra-sans-serif, sans-serif" font-size="24px" font-style="normal" font-weight="normal" text-decoration="normal" x="450" y="97" text-anchor="start" dominant-baseline="alphabetic" stroke-opacity="1" stroke-linejoin="bevel" stroke-miterlimit="10" stroke-width="3">C</text><text fill="rgb(21,101,192)" stroke="none" font-family="geogebra-sans-serif, sans-serif" font-size="24px" font-style="normal" font-weight="normal" text-decoration="normal" x="450" y="97" text-anchor="start" dominant-baseline="alphabetic" fill-opacity="1">C</text><path fill="rgb(21,101,192)" stroke="none" paint-order="stroke fill markers" d=" M 799.7027854166734 107.5158989199818 C 799.7027854166734 110.27732266913576 797.4642091658274 112.5158989199818 794.7027854166734 112.5158989199818 C 791.9413616675193 112.5158989199818 789.7027854166734 110.27732266913576 789.7027854166734 107.5158989199818 C 789.7027854166734 104.75447517082783 791.9413616675193 102.5158989199818 794.7027854166734 102.5158989199818 C 797.4642091658274 102.5158989199818 799.7027854166734 104.75447517082783 799.7027854166734 107.5158989199818 Z" fill-opacity="1"/><path fill="none" stroke="rgb(0,0,0)" paint-order="fill stroke markers" d=" M 799.7027854166734 107.5158989199818 C 799.7027854166734 110.27732266913576 797.4642091658274 112.5158989199818 794.7027854166734 112.5158989199818 C 791.9413616675193 112.5158989199818 789.7027854166734 110.27732266913576 789.7027854166734 107.5158989199818 C 789.7027854166734 104.75447517082783 791.9413616675193 102.5158989199818 794.7027854166734 102.5158989199818 C 797.4642091658274 102.5158989199818 799.7027854166734 104.75447517082783 799.7027854166734 107.5158989199818 Z" stroke-opacity="1" stroke-linecap="round" stroke-linejoin="round" stroke-miterlimit="10"/><text fill="rgb(21,101,192)" stroke="none" font-family="geogebra-sans-serif, sans-serif" font-size="24px" font-style="normal" font-weight="normal" text-decoration="normal" x="808" y="97" text-anchor="start" dominant-baseline="alphabetic" fill-opacity="1">D</text><text fill="none" stroke="rgb(255,255,255)" font-family="geogebra-sans-serif, sans-serif" font-size="24px" font-style="normal" font-weight="normal" text-decoration="normal" x="808" y="97" text-anchor="start" dominant-baseline="alphabetic" stroke-opacity="1" stroke-linejoin="bevel" stroke-miterlimit="10" stroke-width="3">D</text><text fill="rgb(21,101,192)" stroke="none" font-family="geogebra-sans-serif, sans-serif" font-size="24px" font-style="normal" font-weight="normal" text-decoration="normal" x="808" y="97" text-anchor="start" dominant-baseline="alphabetic" fill-opacity="1">D</text></g></g></svg>