<svg version="1.1" xmlns="http://www.w3.org/2000/svg" xmlns:xlink="http://www.w3.org/1999/xlink" width="1310" height="605"><defs><clipPath id="fMoVSEIyITrI"><path fill="none" stroke="none" d=" M 0 0 L 1310 0 L 1310 605 L 0 605 L 0 0 Z"/></clipPath></defs><g transform="scale(1,1)" clip-path="url(#fMoVSEIyITrI)"><g><rect fill="rgb(255,255,255)" stroke="none" x="0" y="0" width="1310" height="605" fill-opacity="1"/><path fill="none" stroke="rgb(0,0,0)" paint-order="fill stroke markers" d=" M 900 301.5000000000001 C 900 439.5711874576985 788.0711874576984 551.5000000000002 650.0000000000001 551.5000000000002 C 511.92881254230184 551.5000000000002 400.0000000000002 439.5711874576985 400.0000000000002 301.5000000000001 C 400.0000000000002 163.42881254230173 511.92881254230184 51.5 650.0000000000001 51.5 C 788.0711874576984 51.5 900 163.42881254230173 900 301.5000000000001 Z" stroke-opacity="0.6980392156862745" stroke-linecap="round" stroke-linejoin="round" stroke-miterlimit="10" stroke-width="2.5"/><path fill="rgb(0,0,0)" stroke="none" paint-order="stroke fill markers" fill-rule="evenodd" d=" M 649.6970501447596 495.7296056581523 L 670.9102277764094 495.7626929368446 L 670.9433150551031 474.5495153051933 L 649.7301374234519 474.51642802650247 L 649.6970501447596 495.7296056581523" fill-opacity="0.09803921568627451"/><path fill="none" stroke="rgb(0,0,0)" paint-order="fill stroke markers" d=" M 649.6970501447596 495.7296056581523 L 670.9102277764094 495.7626929368446 L 670.9433150551031 474.5495153051933 L 649.7301374234519 474.51642802650247 L 649.6970501447596 495.7296056581523" stroke-opacity="0.6" stroke-linecap="round" stroke-linejoin="round" stroke-miterlimit="10" stroke-width="2.5"/><path fill="rgb(0,0,0)" stroke="none" paint-order="stroke fill markers" fill-rule="evenodd" d=" M 650.1163536305543 226.9024407389472 L 650.083266351862 248.11561837059705 L 671.2964439835132 248.14870564929075 L 671.3295312622041 226.93552801763948 L 650.1163536305543 226.9024407389472" fill-opacity="0.09803921568627451"/><path fill="none" stroke="rgb(0,0,0)" paint-order="fill stroke markers" d=" M 650.1163536305543 226.9024407389472 L 650.083266351862 248.11561837059705 L 671.2964439835132 248.14870564929075 L 671.3295312622041 226.93552801763948 L 650.1163536305543 226.9024407389472" stroke-opacity="0.6" stroke-linecap="round" stroke-linejoin="round" stroke-miterlimit="10" stroke-width="2.5"/><path fill="none" stroke="rgb(0,0,0)" paint-order="fill stroke markers" d=" M 649.5188167631552 610 L 650.4780637344992 -5" stroke-opacity="0.6980392156862745" stroke-linejoin="round" stroke-miterlimit="10" stroke-width="2.5" stroke-dasharray="10.5,8"/><path fill="none" stroke="rgb(0,0,0)" paint-order="fill stroke markers" d=" M 492.297214583327 495.48410108001843 L 807.0968857061921 495.97511023628624" stroke-opacity="0.6980392156862745" stroke-linecap="round" stroke-linejoin="round" stroke-miterlimit="10" stroke-width="2.5"/><path fill="none" stroke="rgb(0,0,0)" paint-order="fill stroke markers" d=" M 411.5056830787515 226.5302674656835 L 888.7270241823571 227.27461401221092" stroke-opacity="0.6980392156862745" stroke-linecap="round" stroke-linejoin="round" stroke-miterlimit="10" stroke-width="2.5"/><path fill="none" stroke="rgb(0,0,0)" paint-order="fill stroke markers" d=" M 492.297214583327 495.48410108001843 L 411.5056830787515 226.5302674656835" stroke-opacity="0.6980392156862745" stroke-linecap="round" stroke-linejoin="round" stroke-miterlimit="10" stroke-width="2.5"/><path fill="none" stroke="rgb(0,0,0)" paint-order="fill stroke markers" d=" M 807.0968857061921 495.97511023628624 L 888.7270241823571 227.27461401221092" stroke-opacity="0.6980392156862745" stroke-linecap="round" stroke-linejoin="round" stroke-miterlimit="10" stroke-width="2.5"/><path fill="rgb(211,47,47)" stroke="none" paint-order="stroke fill markers" d=" M 655.0000000000001 301.5000000000001 C 655.0000000000001 304.26142374915406 652.7614237491541 306.5000000000001 650.0000000000001 306.5000000000001 C 647.2385762508461 306.5000000000001 645.0000000000001 304.26142374915406 645.0000000000001 301.5000000000001 C 645.0000000000001 298.73857625084617 647.2385762508461 296.5000000000001 650.0000000000001 296.5000000000001 C 652.7614237491541 296.5000000000001 655.0000000000001 298.73857625084617 655.0000000000001 301.5000000000001 Z" fill-opacity="1"/><path fill="none" stroke="rgb(0,0,0)" paint-order="fill stroke markers" d=" M 655.0000000000001 301.5000000000001 C 655.0000000000001 304.26142374915406 652.7614237491541 306.5000000000001 650.0000000000001 306.5000000000001 C 647.2385762508461 306.5000000000001 645.0000000000001 304.26142374915406 645.0000000000001 301.5000000000001 C 645.0000000000001 298.73857625084617 647.2385762508461 296.5000000000001 650.0000000000001 296.5000000000001 C 652.7614237491541 296.5000000000001 655.0000000000001 298.73857625084617 655.0000000000001 301.5000000000001 Z" stroke-opacity="1" stroke-linecap="round" stroke-linejoin="round" stroke-miterlimit="10"/><text fill="rgb(211,47,47)" stroke="none" font-family="geogebra-sans-serif, sans-serif" font-size="24px" font-style="normal" font-weight="normal" text-decoration="normal" x="614" y="323" text-anchor="start" dominant-baseline="alphabetic" fill-opacity="1">O</text><text fill="none" stroke="rgb(255,255,255)" font-family="geogebra-sans-serif, sans-serif" font-size="24px" font-style="normal" font-weight="normal" text-decoration="normal" x="614" y="323" text-anchor="start" dominant-baseline="alphabetic" stroke-opacity="1" stroke-linejoin="bevel" stroke-miterlimit="10" stroke-width="3">O</text><text fill="rgb(211,47,47)" stroke="none" font-family="geogebra-sans-serif, sans-serif" font-size="24px" font-style="normal" font-weight="normal" text-decoration="normal" x="614" y="323" text-anchor="start" dominant-baseline="alphabetic" fill-opacity="1">O</text><path fill="rgb(21,101,192)" stroke="none" paint-order="stroke fill markers" d=" M 497.297214583327 495.48410108001843 C 497.297214583327 498.2455248291724 495.05863833248094 500.48410108001843 492.297214583327 500.48410108001843 C 489.53579083417304 500.48410108001843 487.297214583327 498.2455248291724 487.297214583327 495.48410108001843 C 487.297214583327 492.7226773308645 489.53579083417304 490.48410108001843 492.297214583327 490.48410108001843 C 495.05863833248094 490.48410108001843 497.297214583327 492.7226773308645 497.297214583327 495.48410108001843 Z" fill-opacity="1"/><path fill="none" stroke="rgb(0,0,0)" paint-order="fill stroke markers" d=" M 497.297214583327 495.48410108001843 C 497.297214583327 498.2455248291724 495.05863833248094 500.48410108001843 492.297214583327 500.48410108001843 C 489.53579083417304 500.48410108001843 487.297214583327 498.2455248291724 487.297214583327 495.48410108001843 C 487.297214583327 492.7226773308645 489.53579083417304 490.48410108001843 492.297214583327 490.48410108001843 C 495.05863833248094 490.48410108001843 497.297214583327 492.7226773308645 497.297214583327 495.48410108001843 Z" stroke-opacity="1" stroke-linecap="round" stroke-linejoin="round" stroke-miterlimit="10"/><text fill="rgb(21,101,192)" stroke="none" font-family="geogebra-sans-serif, sans-serif" font-size="24px" font-style="normal" font-weight="normal" text-decoration="normal" x="457" y="517" text-anchor="start" dominant-baseline="alphabetic" fill-opacity="1">A</text><text fill="none" stroke="rgb(255,255,255)" font-family="geogebra-sans-serif, sans-serif" font-size="24px" font-style="normal" font-weight="normal" text-decoration="normal" x="457" y="517" text-anchor="start" dominant-baseline="alphabetic" stroke-opacity="1" stroke-linejoin="bevel" stroke-miterlimit="10" stroke-width="3">A</text><text fill="rgb(21,101,192)" stroke="none" font-family="geogebra-sans-serif, sans-serif" font-size="24px" font-style="normal" font-weight="normal" text-decoration="normal" x="457" y="517" text-anchor="start" dominant-baseline="alphabetic" fill-opacity="1">A</text><path fill="rgb(21,101,192)" stroke="none" paint-order="stroke fill markers" d=" M 812.0968857061921 495.97511023628624 C 812.0968857061921 498.7365339854402 809.8583094553461 500.97511023628624 807.0968857061921 500.97511023628624 C 804.3354619570381 500.97511023628624 802.0968857061921 498.7365339854402 802.0968857061921 495.97511023628624 C 802.0968857061921 493.2136864871323 804.3354619570381 490.97511023628624 807.0968857061921 490.97511023628624 C 809.8583094553461 490.97511023628624 812.0968857061921 493.2136864871323 812.0968857061921 495.97511023628624 Z" fill-opacity="1"/><path fill="none" stroke="rgb(0,0,0)" paint-order="fill stroke markers" d=" M 812.0968857061921 495.97511023628624 C 812.0968857061921 498.7365339854402 809.8583094553461 500.97511023628624 807.0968857061921 500.97511023628624 C 804.3354619570381 500.97511023628624 802.0968857061921 498.7365339854402 802.0968857061921 495.97511023628624 C 802.0968857061921 493.2136864871323 804.3354619570381 490.97511023628624 807.0968857061921 490.97511023628624 C 809.8583094553461 490.97511023628624 812.0968857061921 493.2136864871323 812.0968857061921 495.97511023628624 Z" stroke-opacity="1" stroke-linecap="round" stroke-linejoin="round" stroke-miterlimit="10"/><text fill="rgb(21,101,192)" stroke="none" font-family="geogebra-sans-serif, sans-serif" font-size="24px" font-style="normal" font-weight="normal" text-decoration="normal" x="821" y="517" text-anchor="start" dominant-baseline="alphabetic" fill-opacity="1">B</text><text fill="none" stroke="rgb(255,255,255)" font-family="geogebra-sans-serif, sans-serif" font-size="24px" font-style="normal" font-weight="normal" text-decoration="normal" x="821" y="517" text-anchor="start" dominant-baseline="alphabetic" stroke-opacity="1" stroke-linejoin="bevel" stroke-miterlimit="10" stroke-width="3">B</text><text fill="rgb(21,101,192)" stroke="none" font-family="geogebra-sans-serif, sans-serif" font-size="24px" font-style="normal" font-weight="normal" text-decoration="normal" x="821" y="517" text-anchor="start" dominant-baseline="alphabetic" fill-opacity="1">B</text><path fill="rgb(46,125,50)" stroke="none" paint-order="stroke fill markers" d=" M 654.6970501447596 495.7296056581523 C 654.6970501447596 498.49102940730626 652.4584738939136 500.7296056581523 649.6970501447596 500.7296056581523 C 646.9356263956056 500.7296056581523 644.6970501447596 498.49102940730626 644.6970501447596 495.7296056581523 C 644.6970501447596 492.96818190899836 646.9356263956056 490.7296056581523 649.6970501447596 490.7296056581523 C 652.4584738939136 490.7296056581523 654.6970501447596 492.96818190899836 654.6970501447596 495.7296056581523 Z" fill-opacity="1"/><path fill="none" stroke="rgb(0,0,0)" paint-order="fill stroke markers" d=" M 654.6970501447596 495.7296056581523 C 654.6970501447596 498.49102940730626 652.4584738939136 500.7296056581523 649.6970501447596 500.7296056581523 C 646.9356263956056 500.7296056581523 644.6970501447596 498.49102940730626 644.6970501447596 495.7296056581523 C 644.6970501447596 492.96818190899836 646.9356263956056 490.7296056581523 649.6970501447596 490.7296056581523 C 652.4584738939136 490.7296056581523 654.6970501447596 492.96818190899836 654.6970501447596 495.7296056581523 Z" stroke-opacity="1" stroke-linecap="round" stroke-linejoin="round" stroke-miterlimit="10"/><path fill="rgb(21,101,192)" stroke="none" paint-order="stroke fill markers" d=" M 416.5056830787515 226.5302674656835 C 416.5056830787515 229.29169121483747 414.2671068279054 231.5302674656835 411.5056830787515 231.5302674656835 C 408.7442593295975 231.5302674656835 406.5056830787515 229.29169121483747 406.5056830787515 226.5302674656835 C 406.5056830787515 223.76884371652952 408.7442593295975 221.5302674656835 411.5056830787515 221.5302674656835 C 414.2671068279054 221.5302674656835 416.5056830787515 223.76884371652952 416.5056830787515 226.5302674656835 Z" fill-opacity="1"/><path fill="none" stroke="rgb(0,0,0)" paint-order="fill stroke markers" d=" M 416.5056830787515 226.5302674656835 C 416.5056830787515 229.29169121483747 414.2671068279054 231.5302674656835 411.5056830787515 231.5302674656835 C 408.7442593295975 231.5302674656835 406.5056830787515 229.29169121483747 406.5056830787515 226.5302674656835 C 406.5056830787515 223.76884371652952 408.7442593295975 221.5302674656835 411.5056830787515 221.5302674656835 C 414.2671068279054 221.5302674656835 416.5056830787515 223.76884371652952 416.5056830787515 226.5302674656835 Z" stroke-opacity="1" stroke-linecap="round" stroke-linejoin="round" stroke-miterlimit="10"/><text fill="rgb(21,101,192)" stroke="none" font-family="geogebra-sans-serif, sans-serif" font-size="24px" font-style="normal" font-weight="normal" text-decoration="normal" x="368" y="208" text-anchor="start" dominant-baseline="alphabetic" fill-opacity="1">C</text><text fill="none" stroke="rgb(255,255,255)" font-family="geogebra-sans-serif, sans-serif" font-size="24px" font-style="normal" font-weight="normal" text-decoration="normal" x="368" y="208" text-anchor="start" dominant-baseline="alphabetic" stroke-opacity="1" stroke-linejoin="bevel" stroke-miterlimit="10" stroke-width="3">C</text><text fill="rgb(21,101,192)" stroke="none" font-family="geogebra-sans-serif, sans-serif" font-size="24px" font-style="normal" font-weight="normal" text-decoration="normal" x="368" y="208" text-anchor="start" dominant-baseline="alphabetic" fill-opacity="1">C</text><path fill="rgb(21,101,192)" stroke="none" paint-order="stroke fill markers" d=" M 893.7270241823571 227.27461401221092 C 893.7270241823571 230.0360377613649 891.4884479315111 232.27461401221092 888.7270241823571 232.27461401221092 C 885.9656004332031 232.27461401221092 883.7270241823571 230.0360377613649 883.7270241823571 227.27461401221092 C 883.7270241823571 224.51319026305694 885.9656004332031 222.27461401221092 888.7270241823571 222.27461401221092 C 891.4884479315111 222.27461401221092 893.7270241823571 224.51319026305694 893.7270241823571 227.27461401221092 Z" fill-opacity="1"/><path fill="none" stroke="rgb(0,0,0)" paint-order="fill stroke markers" d=" M 893.7270241823571 227.27461401221092 C 893.7270241823571 230.0360377613649 891.4884479315111 232.27461401221092 888.7270241823571 232.27461401221092 C 885.9656004332031 232.27461401221092 883.7270241823571 230.0360377613649 883.7270241823571 227.27461401221092 C 883.7270241823571 224.51319026305694 885.9656004332031 222.27461401221092 888.7270241823571 222.27461401221092 C 891.4884479315111 222.27461401221092 893.7270241823571 224.51319026305694 893.7270241823571 227.27461401221092 Z" stroke-opacity="1" stroke-linecap="round" stroke-linejoin="round" stroke-miterlimit="10"/><text fill="rgb(21,101,192)" stroke="none" font-family="geogebra-sans-serif, sans-serif" font-size="24px" font-style="normal" font-weight="normal" text-decoration="normal" x="893" y="217" text-anchor="start" dominant-baseline="alphabetic" fill-opacity="1">D</text><text fill="none" stroke="rgb(255,255,255)" font-family="geogebra-sans-serif, sans-serif" font-size="24px" font-style="normal" font-weight="normal" text-decoration="normal" x="893" y="217" text-anchor="start" dominant-baseline="alphabetic" stroke-opacity="1" stroke-linejoin="bevel" stroke-miterlimit="10" stroke-width="3">D</text><text fill="rgb(21,101,192)" stroke="none" font-family="geogebra-sans-serif, sans-serif" font-size="24px" font-style="normal" font-weight="normal" text-decoration="normal" x="893" y="217" text-anchor="start" dominant-baseline="alphabetic" fill-opacity="1">D</text><path fill="rgb(46,125,50)" stroke="none" paint-order="stroke fill markers" d=" M 655.1163536305543 226.9024407389472 C 655.1163536305543 229.66386448810118 652.8777773797083 231.9024407389472 650.1163536305543 231.9024407389472 C 647.3549298814003 231.9024407389472 645.1163536305543 229.66386448810118 645.1163536305543 226.9024407389472 C 645.1163536305543 224.14101698979323 647.3549298814003 221.9024407389472 650.1163536305543 221.9024407389472 C 652.8777773797083 221.9024407389472 655.1163536305543 224.14101698979323 655.1163536305543 226.9024407389472 Z" fill-opacity="1"/><path fill="none" stroke="rgb(0,0,0)" paint-order="fill stroke markers" d=" M 655.1163536305543 226.9024407389472 C 655.1163536305543 229.66386448810118 652.8777773797083 231.9024407389472 650.1163536305543 231.9024407389472 C 647.3549298814003 231.9024407389472 645.1163536305543 229.66386448810118 645.1163536305543 226.9024407389472 C 645.1163536305543 224.14101698979323 647.3549298814003 221.9024407389472 650.1163536305543 221.9024407389472 C 652.8777773797083 221.9024407389472 655.1163536305543 224.14101698979323 655.1163536305543 226.9024407389472 Z" stroke-opacity="1" stroke-linecap="round" stroke-linejoin="round" stroke-miterlimit="10"/></g></g></svg>