<svg version="1.1" xmlns="http://www.w3.org/2000/svg" xmlns:xlink="http://www.w3.org/1999/xlink" width="1310" height="605"><defs><clipPath id="XyJiRouSdJHO"><path fill="none" stroke="none" d=" M 0 0 L 1310 0 L 1310 605 L 0 605 L 0 0 Z"/></clipPath></defs><g transform="scale(1,1)" clip-path="url(#XyJiRouSdJHO)"><g><rect fill="rgb(255,255,255)" stroke="none" x="0" y="0" width="1310" height="605" fill-opacity="1"/><path fill="none" stroke="rgb(0,0,0)" paint-order="fill stroke markers" d=" M 903.9999999999997 309.5000000000001 C 903.9999999999997 447.57118745769844 792.071187457698 559.5000000000002 653.9999999999998 559.5000000000002 C 515.9288125423016 559.5000000000002 403.9999999999999 447.57118745769844 403.9999999999999 309.5000000000001 C 403.9999999999999 171.42881254230173 515.9288125423016 59.50000000000006 653.9999999999998 59.50000000000006 C 792.071187457698 59.50000000000006 903.9999999999997 171.42881254230173 903.9999999999997 309.5000000000001 Z" stroke-opacity="0.6980392156862745" stroke-linecap="round" stroke-linejoin="round" stroke-miterlimit="10" stroke-width="2.5"/><path fill="rgb(0,0,0)" stroke="none" paint-order="stroke fill markers" fill-rule="evenodd" d=" M 653.9999999999998 171.85868091706496 L 653.9999999999998 193.07188435265996 L 675.2132034355961 193.07188435266139 L 675.2132034355948 171.85868091706496 L 653.9999999999998 171.85868091706496" fill-opacity="0.09803921568627451"/><path fill="none" stroke="rgb(0,0,0)" paint-order="fill stroke markers" d=" M 653.9999999999998 171.85868091706496 L 653.9999999999998 193.07188435265996 L 675.2132034355961 193.07188435266139 L 675.2132034355948 171.85868091706496 L 653.9999999999998 171.85868091706496" stroke-opacity="0.6" stroke-linecap="round" stroke-linejoin="round" stroke-miterlimit="10" stroke-width="2.5"/><path fill="none" stroke="rgb(0,0,0)" paint-order="fill stroke markers" d=" M 653.9999999999998 610 L 653.9999999999998 -5" stroke-opacity="0.6980392156862745" stroke-linejoin="round" stroke-miterlimit="10" stroke-width="2.5" stroke-dasharray="10.5,8"/><path fill="none" stroke="rgb(0,0,0)" paint-order="fill stroke markers" d=" M 403.9999999999999 309.5000000000001 L 903.9999999999997 309.5000000000001" stroke-opacity="0.6980392156862745" stroke-linecap="round" stroke-linejoin="round" stroke-miterlimit="10" stroke-width="2.5"/><path fill="none" stroke="rgb(0,0,0)" paint-order="fill stroke markers" d=" M 445.3019710655855 171.85868091706496 L 862.698028934414 171.85868091706496" stroke-opacity="0.6980392156862745" stroke-linecap="round" stroke-linejoin="round" stroke-miterlimit="10" stroke-width="2.5"/><path fill="none" stroke="rgb(0,0,0)" paint-order="fill stroke markers" d=" M 445.3019710655855 171.85868091706496 L 403.9999999999999 309.5000000000001" stroke-opacity="0.6980392156862745" stroke-linecap="round" stroke-linejoin="round" stroke-miterlimit="10" stroke-width="2.5"/><path fill="none" stroke="rgb(0,0,0)" paint-order="fill stroke markers" d=" M 862.698028934414 171.85868091706496 L 903.9999999999997 309.5000000000001" stroke-opacity="0.6980392156862745" stroke-linecap="round" stroke-linejoin="round" stroke-miterlimit="10" stroke-width="2.5"/><path fill="none" stroke="rgb(0,0,0)" paint-order="fill stroke markers" d=" M 653.9999999999998 309.5000000000001 L 862.698028934414 171.85868091706496" stroke-opacity="0.6980392156862745" stroke-linejoin="round" stroke-miterlimit="10" stroke-width="2.5" stroke-dasharray="10.5,8"/><path fill="rgb(211,47,47)" stroke="none" paint-order="stroke fill markers" d=" M 658.9999999999998 309.5000000000001 C 658.9999999999998 312.26142374915406 656.7614237491538 314.5000000000001 653.9999999999998 314.5000000000001 C 651.2385762508458 314.5000000000001 648.9999999999998 312.26142374915406 648.9999999999998 309.5000000000001 C 648.9999999999998 306.73857625084617 651.2385762508458 304.5000000000001 653.9999999999998 304.5000000000001 C 656.7614237491538 304.5000000000001 658.9999999999998 306.73857625084617 658.9999999999998 309.5000000000001 Z" fill-opacity="1"/><path fill="none" stroke="rgb(0,0,0)" paint-order="fill stroke markers" d=" M 658.9999999999998 309.5000000000001 C 658.9999999999998 312.26142374915406 656.7614237491538 314.5000000000001 653.9999999999998 314.5000000000001 C 651.2385762508458 314.5000000000001 648.9999999999998 312.26142374915406 648.9999999999998 309.5000000000001 C 648.9999999999998 306.73857625084617 651.2385762508458 304.5000000000001 653.9999999999998 304.5000000000001 C 656.7614237491538 304.5000000000001 658.9999999999998 306.73857625084617 658.9999999999998 309.5000000000001 Z" stroke-opacity="1" stroke-linecap="round" stroke-linejoin="round" stroke-miterlimit="10"/><text fill="rgb(211,47,47)" stroke="none" font-family="geogebra-sans-serif, sans-serif" font-size="24px" font-style="normal" font-weight="normal" text-decoration="normal" x="667" y="343" text-anchor="start" dominant-baseline="alphabetic" fill-opacity="1">O</text><text fill="none" stroke="rgb(255,255,255)" font-family="geogebra-sans-serif, sans-serif" font-size="24px" font-style="normal" font-weight="normal" text-decoration="normal" x="667" y="343" text-anchor="start" dominant-baseline="alphabetic" stroke-opacity="1" stroke-linejoin="bevel" stroke-miterlimit="10" stroke-width="3">O</text><text fill="rgb(211,47,47)" stroke="none" font-family="geogebra-sans-serif, sans-serif" font-size="24px" font-style="normal" font-weight="normal" text-decoration="normal" x="667" y="343" text-anchor="start" dominant-baseline="alphabetic" fill-opacity="1">O</text><path fill="rgb(21,101,192)" stroke="none" paint-order="stroke fill markers" d=" M 408.9999999999999 309.5000000000001 C 408.9999999999999 312.26142374915406 406.76142374915383 314.5000000000001 403.9999999999999 314.5000000000001 C 401.23857625084594 314.5000000000001 398.9999999999999 312.26142374915406 398.9999999999999 309.5000000000001 C 398.9999999999999 306.73857625084617 401.23857625084594 304.5000000000001 403.9999999999999 304.5000000000001 C 406.76142374915383 304.5000000000001 408.9999999999999 306.73857625084617 408.9999999999999 309.5000000000001 Z" fill-opacity="1"/><path fill="none" stroke="rgb(0,0,0)" paint-order="fill stroke markers" d=" M 408.9999999999999 309.5000000000001 C 408.9999999999999 312.26142374915406 406.76142374915383 314.5000000000001 403.9999999999999 314.5000000000001 C 401.23857625084594 314.5000000000001 398.9999999999999 312.26142374915406 398.9999999999999 309.5000000000001 C 398.9999999999999 306.73857625084617 401.23857625084594 304.5000000000001 403.9999999999999 304.5000000000001 C 406.76142374915383 304.5000000000001 408.9999999999999 306.73857625084617 408.9999999999999 309.5000000000001 Z" stroke-opacity="1" stroke-linecap="round" stroke-linejoin="round" stroke-miterlimit="10"/><text fill="rgb(21,101,192)" stroke="none" font-family="geogebra-sans-serif, sans-serif" font-size="24px" font-style="normal" font-weight="normal" text-decoration="normal" x="375" y="317" text-anchor="start" dominant-baseline="alphabetic" fill-opacity="1">A</text><text fill="none" stroke="rgb(255,255,255)" font-family="geogebra-sans-serif, sans-serif" font-size="24px" font-style="normal" font-weight="normal" text-decoration="normal" x="375" y="317" text-anchor="start" dominant-baseline="alphabetic" stroke-opacity="1" stroke-linejoin="bevel" stroke-miterlimit="10" stroke-width="3">A</text><text fill="rgb(21,101,192)" stroke="none" font-family="geogebra-sans-serif, sans-serif" font-size="24px" font-style="normal" font-weight="normal" text-decoration="normal" x="375" y="317" text-anchor="start" dominant-baseline="alphabetic" fill-opacity="1">A</text><path fill="rgb(21,101,192)" stroke="none" paint-order="stroke fill markers" d=" M 908.9999999999997 309.5000000000001 C 908.9999999999997 312.26142374915406 906.7614237491537 314.5000000000001 903.9999999999997 314.5000000000001 C 901.2385762508457 314.5000000000001 898.9999999999997 312.26142374915406 898.9999999999997 309.5000000000001 C 898.9999999999997 306.73857625084617 901.2385762508457 304.5000000000001 903.9999999999997 304.5000000000001 C 906.7614237491537 304.5000000000001 908.9999999999997 306.73857625084617 908.9999999999997 309.5000000000001 Z" fill-opacity="1"/><path fill="none" stroke="rgb(0,0,0)" paint-order="fill stroke markers" d=" M 908.9999999999997 309.5000000000001 C 908.9999999999997 312.26142374915406 906.7614237491537 314.5000000000001 903.9999999999997 314.5000000000001 C 901.2385762508457 314.5000000000001 898.9999999999997 312.26142374915406 898.9999999999997 309.5000000000001 C 898.9999999999997 306.73857625084617 901.2385762508457 304.5000000000001 903.9999999999997 304.5000000000001 C 906.7614237491537 304.5000000000001 908.9999999999997 306.73857625084617 908.9999999999997 309.5000000000001 Z" stroke-opacity="1" stroke-linecap="round" stroke-linejoin="round" stroke-miterlimit="10"/><text fill="rgb(21,101,192)" stroke="none" font-family="geogebra-sans-serif, sans-serif" font-size="24px" font-style="normal" font-weight="normal" text-decoration="normal" x="919" y="312" text-anchor="start" dominant-baseline="alphabetic" fill-opacity="1">B</text><text fill="none" stroke="rgb(255,255,255)" font-family="geogebra-sans-serif, sans-serif" font-size="24px" font-style="normal" font-weight="normal" text-decoration="normal" x="919" y="312" text-anchor="start" dominant-baseline="alphabetic" stroke-opacity="1" stroke-linejoin="bevel" stroke-miterlimit="10" stroke-width="3">B</text><text fill="rgb(21,101,192)" stroke="none" font-family="geogebra-sans-serif, sans-serif" font-size="24px" font-style="normal" font-weight="normal" text-decoration="normal" x="919" y="312" text-anchor="start" dominant-baseline="alphabetic" fill-opacity="1">B</text><path fill="rgb(21,101,192)" stroke="none" paint-order="stroke fill markers" d=" M 450.3019710655855 171.85868091706496 C 450.3019710655855 174.62010466621894 448.06339481473947 176.85868091706496 445.3019710655855 176.85868091706496 C 442.54054731643157 176.85868091706496 440.3019710655855 174.62010466621894 440.3019710655855 171.85868091706496 C 440.3019710655855 169.09725716791098 442.54054731643157 166.85868091706496 445.3019710655855 166.85868091706496 C 448.06339481473947 166.85868091706496 450.3019710655855 169.09725716791098 450.3019710655855 171.85868091706496 Z" fill-opacity="1"/><path fill="none" stroke="rgb(0,0,0)" paint-order="fill stroke markers" d=" M 450.3019710655855 171.85868091706496 C 450.3019710655855 174.62010466621894 448.06339481473947 176.85868091706496 445.3019710655855 176.85868091706496 C 442.54054731643157 176.85868091706496 440.3019710655855 174.62010466621894 440.3019710655855 171.85868091706496 C 440.3019710655855 169.09725716791098 442.54054731643157 166.85868091706496 445.3019710655855 166.85868091706496 C 448.06339481473947 166.85868091706496 450.3019710655855 169.09725716791098 450.3019710655855 171.85868091706496 Z" stroke-opacity="1" stroke-linecap="round" stroke-linejoin="round" stroke-miterlimit="10"/><text fill="rgb(21,101,192)" stroke="none" font-family="geogebra-sans-serif, sans-serif" font-size="24px" font-style="normal" font-weight="normal" text-decoration="normal" x="421" y="160" text-anchor="start" dominant-baseline="alphabetic" fill-opacity="1">C</text><text fill="none" stroke="rgb(255,255,255)" font-family="geogebra-sans-serif, sans-serif" font-size="24px" font-style="normal" font-weight="normal" text-decoration="normal" x="421" y="160" text-anchor="start" dominant-baseline="alphabetic" stroke-opacity="1" stroke-linejoin="bevel" stroke-miterlimit="10" stroke-width="3">C</text><text fill="rgb(21,101,192)" stroke="none" font-family="geogebra-sans-serif, sans-serif" font-size="24px" font-style="normal" font-weight="normal" text-decoration="normal" x="421" y="160" text-anchor="start" dominant-baseline="alphabetic" fill-opacity="1">C</text><path fill="rgb(21,101,192)" stroke="none" paint-order="stroke fill markers" d=" M 867.698028934414 171.85868091706496 C 867.698028934414 174.62010466621894 865.459452683568 176.85868091706496 862.698028934414 176.85868091706496 C 859.93660518526 176.85868091706496 857.698028934414 174.62010466621894 857.698028934414 171.85868091706496 C 857.698028934414 169.09725716791098 859.93660518526 166.85868091706496 862.698028934414 166.85868091706496 C 865.459452683568 166.85868091706496 867.698028934414 169.09725716791098 867.698028934414 171.85868091706496 Z" fill-opacity="1"/><path fill="none" stroke="rgb(0,0,0)" paint-order="fill stroke markers" d=" M 867.698028934414 171.85868091706496 C 867.698028934414 174.62010466621894 865.459452683568 176.85868091706496 862.698028934414 176.85868091706496 C 859.93660518526 176.85868091706496 857.698028934414 174.62010466621894 857.698028934414 171.85868091706496 C 857.698028934414 169.09725716791098 859.93660518526 166.85868091706496 862.698028934414 166.85868091706496 C 865.459452683568 166.85868091706496 867.698028934414 169.09725716791098 867.698028934414 171.85868091706496 Z" stroke-opacity="1" stroke-linecap="round" stroke-linejoin="round" stroke-miterlimit="10"/><text fill="rgb(21,101,192)" stroke="none" font-family="geogebra-sans-serif, sans-serif" font-size="24px" font-style="normal" font-weight="normal" text-decoration="normal" x="867" y="162" text-anchor="start" dominant-baseline="alphabetic" fill-opacity="1">D</text><text fill="none" stroke="rgb(255,255,255)" font-family="geogebra-sans-serif, sans-serif" font-size="24px" font-style="normal" font-weight="normal" text-decoration="normal" x="867" y="162" text-anchor="start" dominant-baseline="alphabetic" stroke-opacity="1" stroke-linejoin="bevel" stroke-miterlimit="10" stroke-width="3">D</text><text fill="rgb(21,101,192)" stroke="none" font-family="geogebra-sans-serif, sans-serif" font-size="24px" font-style="normal" font-weight="normal" text-decoration="normal" x="867" y="162" text-anchor="start" dominant-baseline="alphabetic" fill-opacity="1">D</text><path fill="rgb(46,125,50)" stroke="none" paint-order="stroke fill markers" d=" M 658.9999999999998 171.85868091706496 C 658.9999999999998 174.62010466621894 656.7614237491538 176.85868091706496 653.9999999999998 176.85868091706496 C 651.2385762508458 176.85868091706496 648.9999999999998 174.62010466621894 648.9999999999998 171.85868091706496 C 648.9999999999998 169.09725716791098 651.2385762508458 166.85868091706496 653.9999999999998 166.85868091706496 C 656.7614237491538 166.85868091706496 658.9999999999998 169.09725716791098 658.9999999999998 171.85868091706496 Z" fill-opacity="1"/><path fill="none" stroke="rgb(0,0,0)" paint-order="fill stroke markers" d=" M 658.9999999999998 171.85868091706496 C 658.9999999999998 174.62010466621894 656.7614237491538 176.85868091706496 653.9999999999998 176.85868091706496 C 651.2385762508458 176.85868091706496 648.9999999999998 174.62010466621894 648.9999999999998 171.85868091706496 C 648.9999999999998 169.09725716791098 651.2385762508458 166.85868091706496 653.9999999999998 166.85868091706496 C 656.7614237491538 166.85868091706496 658.9999999999998 169.09725716791098 658.9999999999998 171.85868091706496 Z" stroke-opacity="1" stroke-linecap="round" stroke-linejoin="round" stroke-miterlimit="10"/><text fill="rgb(46,125,50)" stroke="none" font-family="geogebra-sans-serif, sans-serif" font-size="24px" font-style="normal" font-weight="normal" text-decoration="normal" x="662" y="164" text-anchor="start" dominant-baseline="alphabetic" fill-opacity="1">E</text><text fill="none" stroke="rgb(255,255,255)" font-family="geogebra-sans-serif, sans-serif" font-size="24px" font-style="normal" font-weight="normal" text-decoration="normal" x="662" y="164" text-anchor="start" dominant-baseline="alphabetic" stroke-opacity="1" stroke-linejoin="bevel" stroke-miterlimit="10" stroke-width="3">E</text><text fill="rgb(46,125,50)" stroke="none" font-family="geogebra-sans-serif, sans-serif" font-size="24px" font-style="normal" font-weight="normal" text-decoration="normal" x="662" y="164" text-anchor="start" dominant-baseline="alphabetic" fill-opacity="1">E</text></g></g></svg>