<svg version="1.1" xmlns="http://www.w3.org/2000/svg" xmlns:xlink="http://www.w3.org/1999/xlink" width="986" height="556"><defs><clipPath id="TnWLrErlltXc"><path fill="none" stroke="none" d=" M 0 0 L 986 0 L 986 556 L 0 556 L 0 0 Z"/></clipPath></defs><g transform="scale(1,1)" clip-path="url(#TnWLrErlltXc)"><g><rect fill="rgb(255,255,255)" stroke="none" x="0" y="0" width="986" height="556" fill-opacity="1"/><path fill="none" stroke="rgb(0,0,0)" paint-order="fill stroke markers" d=" M 418.00000000000006 102.00000000000004 L 652 103.00000000000004" stroke-opacity="0.6980392156862745" stroke-linecap="round" stroke-linejoin="round" stroke-miterlimit="10" stroke-width="2.5"/><path fill="none" stroke="rgb(0,0,0)" paint-order="fill stroke markers" d=" M 418.00000000000006 102.00000000000004 L 131.0000000000001 489.9999999999999" stroke-opacity="0.6980392156862745" stroke-linecap="round" stroke-linejoin="round" stroke-miterlimit="10" stroke-width="2.5"/><path fill="none" stroke="rgb(0,0,0)" paint-order="fill stroke markers" d=" M 652 103.00000000000004 L 751.0143178041163 492.6496338367696" stroke-opacity="0.6980392156862745" stroke-linecap="round" stroke-linejoin="round" stroke-miterlimit="10" stroke-width="2.5"/><path fill="none" stroke="rgb(0,0,0)" paint-order="fill stroke markers" d=" M 131.0000000000001 489.9999999999999 L 751.0143178041163 492.6496338367696" stroke-opacity="0.6980392156862745" stroke-linecap="round" stroke-linejoin="round" stroke-miterlimit="10" stroke-width="2.5"/><path fill="rgb(21,101,192)" stroke="none" paint-order="stroke fill markers" d=" M 423.00000000000006 102.00000000000004 C 423.00000000000006 104.761423749154 420.761423749154 107.00000000000004 418.00000000000006 107.00000000000004 C 415.2385762508461 107.00000000000004 413.00000000000006 104.761423749154 413.00000000000006 102.00000000000004 C 413.00000000000006 99.23857625084608 415.2385762508461 97.00000000000004 418.00000000000006 97.00000000000004 C 420.761423749154 97.00000000000004 423.00000000000006 99.23857625084608 423.00000000000006 102.00000000000004 Z" fill-opacity="1"/><path fill="none" stroke="rgb(0,0,0)" paint-order="fill stroke markers" d=" M 423.00000000000006 102.00000000000004 C 423.00000000000006 104.761423749154 420.761423749154 107.00000000000004 418.00000000000006 107.00000000000004 C 415.2385762508461 107.00000000000004 413.00000000000006 104.761423749154 413.00000000000006 102.00000000000004 C 413.00000000000006 99.23857625084608 415.2385762508461 97.00000000000004 418.00000000000006 97.00000000000004 C 420.761423749154 97.00000000000004 423.00000000000006 99.23857625084608 423.00000000000006 102.00000000000004 Z" stroke-opacity="1" stroke-linecap="round" stroke-linejoin="round" stroke-miterlimit="10"/><text fill="rgb(21,101,192)" stroke="none" font-family="geogebra-sans-serif, sans-serif" font-size="24px" font-style="normal" font-weight="normal" text-decoration="normal" x="392" y="91" text-anchor="start" dominant-baseline="alphabetic" fill-opacity="1">D</text><text fill="none" stroke="rgb(255,255,255)" font-family="geogebra-sans-serif, sans-serif" font-size="24px" font-style="normal" font-weight="normal" text-decoration="normal" x="392" y="91" text-anchor="start" dominant-baseline="alphabetic" stroke-opacity="1" stroke-linejoin="bevel" stroke-miterlimit="10" stroke-width="3">D</text><text fill="rgb(21,101,192)" stroke="none" font-family="geogebra-sans-serif, sans-serif" font-size="24px" font-style="normal" font-weight="normal" text-decoration="normal" x="392" y="91" text-anchor="start" dominant-baseline="alphabetic" fill-opacity="1">D</text><path fill="rgb(21,101,192)" stroke="none" paint-order="stroke fill markers" d=" M 657 103.00000000000004 C 657 105.761423749154 654.761423749154 108.00000000000004 652 108.00000000000004 C 649.238576250846 108.00000000000004 647 105.761423749154 647 103.00000000000004 C 647 100.23857625084608 649.238576250846 98.00000000000004 652 98.00000000000004 C 654.761423749154 98.00000000000004 657 100.23857625084608 657 103.00000000000004 Z" fill-opacity="1"/><path fill="none" stroke="rgb(0,0,0)" paint-order="fill stroke markers" d=" M 657 103.00000000000004 C 657 105.761423749154 654.761423749154 108.00000000000004 652 108.00000000000004 C 649.238576250846 108.00000000000004 647 105.761423749154 647 103.00000000000004 C 647 100.23857625084608 649.238576250846 98.00000000000004 652 98.00000000000004 C 654.761423749154 98.00000000000004 657 100.23857625084608 657 103.00000000000004 Z" stroke-opacity="1" stroke-linecap="round" stroke-linejoin="round" stroke-miterlimit="10"/><text fill="rgb(21,101,192)" stroke="none" font-family="geogebra-sans-serif, sans-serif" font-size="24px" font-style="normal" font-weight="normal" text-decoration="normal" x="656" y="93" text-anchor="start" dominant-baseline="alphabetic" fill-opacity="1">C</text><text fill="none" stroke="rgb(255,255,255)" font-family="geogebra-sans-serif, sans-serif" font-size="24px" font-style="normal" font-weight="normal" text-decoration="normal" x="656" y="93" text-anchor="start" dominant-baseline="alphabetic" stroke-opacity="1" stroke-linejoin="bevel" stroke-miterlimit="10" stroke-width="3">C</text><text fill="rgb(21,101,192)" stroke="none" font-family="geogebra-sans-serif, sans-serif" font-size="24px" font-style="normal" font-weight="normal" text-decoration="normal" x="656" y="93" text-anchor="start" dominant-baseline="alphabetic" fill-opacity="1">C</text><path fill="rgb(21,101,192)" stroke="none" paint-order="stroke fill markers" d=" M 136.0000000000001 489.9999999999999 C 136.0000000000001 492.76142374915383 133.7614237491541 494.9999999999999 131.0000000000001 494.9999999999999 C 128.23857625084614 494.9999999999999 126.00000000000011 492.76142374915383 126.00000000000011 489.9999999999999 C 126.00000000000011 487.23857625084594 128.23857625084614 484.9999999999999 131.0000000000001 484.9999999999999 C 133.7614237491541 484.9999999999999 136.0000000000001 487.23857625084594 136.0000000000001 489.9999999999999 Z" fill-opacity="1"/><path fill="none" stroke="rgb(0,0,0)" paint-order="fill stroke markers" d=" M 136.0000000000001 489.9999999999999 C 136.0000000000001 492.76142374915383 133.7614237491541 494.9999999999999 131.0000000000001 494.9999999999999 C 128.23857625084614 494.9999999999999 126.00000000000011 492.76142374915383 126.00000000000011 489.9999999999999 C 126.00000000000011 487.23857625084594 128.23857625084614 484.9999999999999 131.0000000000001 484.9999999999999 C 133.7614237491541 484.9999999999999 136.0000000000001 487.23857625084594 136.0000000000001 489.9999999999999 Z" stroke-opacity="1" stroke-linecap="round" stroke-linejoin="round" stroke-miterlimit="10"/><text fill="rgb(21,101,192)" stroke="none" font-family="geogebra-sans-serif, sans-serif" font-size="24px" font-style="normal" font-weight="normal" text-decoration="normal" x="101" y="521" text-anchor="start" dominant-baseline="alphabetic" fill-opacity="1">A</text><text fill="none" stroke="rgb(255,255,255)" font-family="geogebra-sans-serif, sans-serif" font-size="24px" font-style="normal" font-weight="normal" text-decoration="normal" x="101" y="521" text-anchor="start" dominant-baseline="alphabetic" stroke-opacity="1" stroke-linejoin="bevel" stroke-miterlimit="10" stroke-width="3">A</text><text fill="rgb(21,101,192)" stroke="none" font-family="geogebra-sans-serif, sans-serif" font-size="24px" font-style="normal" font-weight="normal" text-decoration="normal" x="101" y="521" text-anchor="start" dominant-baseline="alphabetic" fill-opacity="1">A</text><path fill="rgb(21,101,192)" stroke="none" paint-order="stroke fill markers" d=" M 756.0143178041163 492.6496338367696 C 756.0143178041163 495.4110575859236 753.7757415532703 497.6496338367696 751.0143178041163 497.6496338367696 C 748.2528940549623 497.6496338367696 746.0143178041163 495.4110575859236 746.0143178041163 492.6496338367696 C 746.0143178041163 489.8882100876157 748.2528940549623 487.6496338367696 751.0143178041163 487.6496338367696 C 753.7757415532703 487.6496338367696 756.0143178041163 489.8882100876157 756.0143178041163 492.6496338367696 Z" fill-opacity="1"/><path fill="none" stroke="rgb(0,0,0)" paint-order="fill stroke markers" d=" M 756.0143178041163 492.6496338367696 C 756.0143178041163 495.4110575859236 753.7757415532703 497.6496338367696 751.0143178041163 497.6496338367696 C 748.2528940549623 497.6496338367696 746.0143178041163 495.4110575859236 746.0143178041163 492.6496338367696 C 746.0143178041163 489.8882100876157 748.2528940549623 487.6496338367696 751.0143178041163 487.6496338367696 C 753.7757415532703 487.6496338367696 756.0143178041163 489.8882100876157 756.0143178041163 492.6496338367696 Z" stroke-opacity="1" stroke-linecap="round" stroke-linejoin="round" stroke-miterlimit="10"/><text fill="rgb(21,101,192)" stroke="none" font-family="geogebra-sans-serif, sans-serif" font-size="24px" font-style="normal" font-weight="normal" text-decoration="normal" x="762" y="527" text-anchor="start" dominant-baseline="alphabetic" fill-opacity="1">B</text><text fill="none" stroke="rgb(255,255,255)" font-family="geogebra-sans-serif, sans-serif" font-size="24px" font-style="normal" font-weight="normal" text-decoration="normal" x="762" y="527" text-anchor="start" dominant-baseline="alphabetic" stroke-opacity="1" stroke-linejoin="bevel" stroke-miterlimit="10" stroke-width="3">B</text><text fill="rgb(21,101,192)" stroke="none" font-family="geogebra-sans-serif, sans-serif" font-size="24px" font-style="normal" font-weight="normal" text-decoration="normal" x="762" y="527" text-anchor="start" dominant-baseline="alphabetic" fill-opacity="1">B</text></g></g></svg>