<svg version="1.1" xmlns="http://www.w3.org/2000/svg" xmlns:xlink="http://www.w3.org/1999/xlink" width="986" height="556"><defs><clipPath id="QWhhATSwSPuz"><path fill="none" stroke="none" d=" M 0 0 L 986 0 L 986 556 L 0 556 L 0 0 Z"/></clipPath></defs><g transform="scale(1,1)" clip-path="url(#QWhhATSwSPuz)"><g><rect fill="rgb(255,255,255)" stroke="none" x="0" y="0" width="986" height="556" fill-opacity="1"/><path fill="none" stroke="rgb(0,0,0)" paint-order="fill stroke markers" d=" M 90.57774779236324 561 L 920.9109977847813 -5" stroke-opacity="0.6980392156862745" stroke-linecap="round" stroke-linejoin="round" stroke-miterlimit="10" stroke-width="2.5"/><path fill="none" stroke="rgb(0,0,0)" paint-order="fill stroke markers" d=" M 629.9442034271489 561 L 244.1280266054627 -5" stroke-opacity="0.6980392156862745" stroke-linecap="round" stroke-linejoin="round" stroke-miterlimit="10" stroke-width="2.5"/><path fill="none" stroke="rgb(0,0,0)" paint-order="fill stroke markers" d=" M 344.00000000000006 88.00000000000006 L 748 88.00000000000006" stroke-opacity="0.6980392156862745" stroke-linecap="round" stroke-linejoin="round" stroke-miterlimit="10" stroke-width="2.5"/><path fill="none" stroke="rgb(0,0,0)" paint-order="fill stroke markers" d=" M 344.00000000000006 88.00000000000006 L 183.0000000000001 497.9999999999999" stroke-opacity="0.6980392156862745" stroke-linecap="round" stroke-linejoin="round" stroke-miterlimit="10" stroke-width="2.5"/><path fill="none" stroke="rgb(0,0,0)" paint-order="fill stroke markers" d=" M 748 88.00000000000006 L 587 497.9999999999999" stroke-opacity="0.6980392156862745" stroke-linecap="round" stroke-linejoin="round" stroke-miterlimit="10" stroke-width="2.5"/><path fill="none" stroke="rgb(0,0,0)" paint-order="fill stroke markers" d=" M 183.0000000000001 497.9999999999999 L 587 497.9999999999999" stroke-opacity="0.6980392156862745" stroke-linecap="round" stroke-linejoin="round" stroke-miterlimit="10" stroke-width="2.5"/><path fill="rgb(21,101,192)" stroke="none" paint-order="stroke fill markers" d=" M 349.00000000000006 88.00000000000006 C 349.00000000000006 90.76142374915402 346.761423749154 93.00000000000006 344.00000000000006 93.00000000000006 C 341.2385762508461 93.00000000000006 339.00000000000006 90.76142374915402 339.00000000000006 88.00000000000006 C 339.00000000000006 85.2385762508461 341.2385762508461 83.00000000000006 344.00000000000006 83.00000000000006 C 346.761423749154 83.00000000000006 349.00000000000006 85.2385762508461 349.00000000000006 88.00000000000006 Z" fill-opacity="1"/><path fill="none" stroke="rgb(0,0,0)" paint-order="fill stroke markers" d=" M 349.00000000000006 88.00000000000006 C 349.00000000000006 90.76142374915402 346.761423749154 93.00000000000006 344.00000000000006 93.00000000000006 C 341.2385762508461 93.00000000000006 339.00000000000006 90.76142374915402 339.00000000000006 88.00000000000006 C 339.00000000000006 85.2385762508461 341.2385762508461 83.00000000000006 344.00000000000006 83.00000000000006 C 346.761423749154 83.00000000000006 349.00000000000006 85.2385762508461 349.00000000000006 88.00000000000006 Z" stroke-opacity="1" stroke-linecap="round" stroke-linejoin="round" stroke-miterlimit="10"/><text fill="rgb(21,101,192)" stroke="none" font-family="geogebra-sans-serif, sans-serif" font-size="24px" font-style="normal" font-weight="normal" text-decoration="normal" x="315" y="78" text-anchor="start" dominant-baseline="alphabetic" fill-opacity="1">A</text><text fill="rgb(21,101,192)" stroke="none" font-family="geogebra-sans-serif, sans-serif" font-size="24px" font-style="normal" font-weight="normal" text-decoration="normal" x="315" y="78" text-anchor="start" dominant-baseline="alphabetic" fill-opacity="1">A</text><path fill="rgb(21,101,192)" stroke="none" paint-order="stroke fill markers" d=" M 753 88.00000000000006 C 753 90.76142374915402 750.761423749154 93.00000000000006 748 93.00000000000006 C 745.238576250846 93.00000000000006 743 90.76142374915402 743 88.00000000000006 C 743 85.2385762508461 745.238576250846 83.00000000000006 748 83.00000000000006 C 750.761423749154 83.00000000000006 753 85.2385762508461 753 88.00000000000006 Z" fill-opacity="1"/><path fill="none" stroke="rgb(0,0,0)" paint-order="fill stroke markers" d=" M 753 88.00000000000006 C 753 90.76142374915402 750.761423749154 93.00000000000006 748 93.00000000000006 C 745.238576250846 93.00000000000006 743 90.76142374915402 743 88.00000000000006 C 743 85.2385762508461 745.238576250846 83.00000000000006 748 83.00000000000006 C 750.761423749154 83.00000000000006 753 85.2385762508461 753 88.00000000000006 Z" stroke-opacity="1" stroke-linecap="round" stroke-linejoin="round" stroke-miterlimit="10"/><text fill="rgb(21,101,192)" stroke="none" font-family="geogebra-sans-serif, sans-serif" font-size="24px" font-style="normal" font-weight="normal" text-decoration="normal" x="760" y="84" text-anchor="start" dominant-baseline="alphabetic" fill-opacity="1">B</text><text fill="rgb(21,101,192)" stroke="none" font-family="geogebra-sans-serif, sans-serif" font-size="24px" font-style="normal" font-weight="normal" text-decoration="normal" x="760" y="84" text-anchor="start" dominant-baseline="alphabetic" fill-opacity="1">B</text><path fill="rgb(21,101,192)" stroke="none" paint-order="stroke fill markers" d=" M 188.0000000000001 497.9999999999999 C 188.0000000000001 500.76142374915383 185.7614237491541 502.9999999999999 183.0000000000001 502.9999999999999 C 180.23857625084614 502.9999999999999 178.0000000000001 500.76142374915383 178.0000000000001 497.9999999999999 C 178.0000000000001 495.23857625084594 180.23857625084614 492.9999999999999 183.0000000000001 492.9999999999999 C 185.7614237491541 492.9999999999999 188.0000000000001 495.23857625084594 188.0000000000001 497.9999999999999 Z" fill-opacity="1"/><path fill="none" stroke="rgb(0,0,0)" paint-order="fill stroke markers" d=" M 188.0000000000001 497.9999999999999 C 188.0000000000001 500.76142374915383 185.7614237491541 502.9999999999999 183.0000000000001 502.9999999999999 C 180.23857625084614 502.9999999999999 178.0000000000001 500.76142374915383 178.0000000000001 497.9999999999999 C 178.0000000000001 495.23857625084594 180.23857625084614 492.9999999999999 183.0000000000001 492.9999999999999 C 185.7614237491541 492.9999999999999 188.0000000000001 495.23857625084594 188.0000000000001 497.9999999999999 Z" stroke-opacity="1" stroke-linecap="round" stroke-linejoin="round" stroke-miterlimit="10"/><text fill="rgb(21,101,192)" stroke="none" font-family="geogebra-sans-serif, sans-serif" font-size="24px" font-style="normal" font-weight="normal" text-decoration="normal" x="174" y="526" text-anchor="start" dominant-baseline="alphabetic" fill-opacity="1">C</text><text fill="rgb(21,101,192)" stroke="none" font-family="geogebra-sans-serif, sans-serif" font-size="24px" font-style="normal" font-weight="normal" text-decoration="normal" x="174" y="526" text-anchor="start" dominant-baseline="alphabetic" fill-opacity="1">C</text><path fill="rgb(21,101,192)" stroke="none" paint-order="stroke fill markers" d=" M 592 497.9999999999999 C 592 500.76142374915383 589.761423749154 502.9999999999999 587 502.9999999999999 C 584.238576250846 502.9999999999999 582 500.76142374915383 582 497.9999999999999 C 582 495.23857625084594 584.238576250846 492.9999999999999 587 492.9999999999999 C 589.761423749154 492.9999999999999 592 495.23857625084594 592 497.9999999999999 Z" fill-opacity="1"/><path fill="none" stroke="rgb(0,0,0)" paint-order="fill stroke markers" d=" M 592 497.9999999999999 C 592 500.76142374915383 589.761423749154 502.9999999999999 587 502.9999999999999 C 584.238576250846 502.9999999999999 582 500.76142374915383 582 497.9999999999999 C 582 495.23857625084594 584.238576250846 492.9999999999999 587 492.9999999999999 C 589.761423749154 492.9999999999999 592 495.23857625084594 592 497.9999999999999 Z" stroke-opacity="1" stroke-linecap="round" stroke-linejoin="round" stroke-miterlimit="10"/><text fill="rgb(21,101,192)" stroke="none" font-family="geogebra-sans-serif, sans-serif" font-size="24px" font-style="normal" font-weight="normal" text-decoration="normal" x="571" y="527" text-anchor="start" dominant-baseline="alphabetic" fill-opacity="1">D</text><text fill="rgb(21,101,192)" stroke="none" font-family="geogebra-sans-serif, sans-serif" font-size="24px" font-style="normal" font-weight="normal" text-decoration="normal" x="571" y="527" text-anchor="start" dominant-baseline="alphabetic" fill-opacity="1">D</text><path fill="rgb(46,125,50)" stroke="none" paint-order="stroke fill markers" d=" M 463.8334013902497 309.97705236023364 C 463.8334013902497 312.7384761093876 461.59482513940367 314.97705236023364 458.8334013902497 314.97705236023364 C 456.07197764109577 314.97705236023364 453.8334013902497 312.7384761093876 453.8334013902497 309.97705236023364 C 453.8334013902497 307.2156286110797 456.07197764109577 304.97705236023364 458.8334013902497 304.97705236023364 C 461.59482513940367 304.97705236023364 463.8334013902497 307.2156286110797 463.8334013902497 309.97705236023364 Z" fill-opacity="1"/><path fill="none" stroke="rgb(0,0,0)" paint-order="fill stroke markers" d=" M 463.8334013902497 309.97705236023364 C 463.8334013902497 312.7384761093876 461.59482513940367 314.97705236023364 458.8334013902497 314.97705236023364 C 456.07197764109577 314.97705236023364 453.8334013902497 312.7384761093876 453.8334013902497 309.97705236023364 C 453.8334013902497 307.2156286110797 456.07197764109577 304.97705236023364 458.8334013902497 304.97705236023364 C 461.59482513940367 304.97705236023364 463.8334013902497 307.2156286110797 463.8334013902497 309.97705236023364 Z" stroke-opacity="1" stroke-linecap="round" stroke-linejoin="round" stroke-miterlimit="10"/><text fill="rgb(46,125,50)" stroke="none" font-family="geogebra-sans-serif, sans-serif" font-size="24px" font-style="normal" font-weight="normal" text-decoration="normal" x="455" y="295" text-anchor="start" dominant-baseline="alphabetic" fill-opacity="1">O</text><text fill="rgb(46,125,50)" stroke="none" font-family="geogebra-sans-serif, sans-serif" font-size="24px" font-style="normal" font-weight="normal" text-decoration="normal" x="455" y="295" text-anchor="start" dominant-baseline="alphabetic" fill-opacity="1">O</text><g transform="scale(27,27)"><g transform="translate(8.037037037037036,16.90370325925926)"><path fill="rgb(0,0,0)" stroke="none" paint-order="stroke fill markers" d=" M 0.294 -0.64 L 0.294 -0.079 Q 0.294 -0.049 0.306 -0.041 Q 0.323 -0.031 0.387 -0.031 L 0.419 -0.031 L 0.419 0 Q 0.384 -0.003 0.257 -0.003 Q 0.13 -0.003 0.095 0 L 0.095 -0.031 L 0.127 -0.031 Q 0.20400000000000001 -0.031 0.215 -0.049 L 0.216 -0.05 Q 0.22 -0.058 0.22 -0.079 L 0.22 -0.597 Q 0.168 -0.5710000000000001 0.089 -0.5710000000000001 L 0.089 -0.602 Q 0.209 -0.602 0.271 -0.666 Q 0.29 -0.666 0.293 -0.659 L 0.293 -0.659 L 0.293 -0.658 Q 0.294 -0.655 0.294 -0.64 Z"/></g></g><g transform="scale(27,27)"><g transform="translate(8.777777777777779,18.05185140740741)"><path fill="rgb(0,0,0)" stroke="none" paint-order="stroke fill markers" d=" M 0.294 -0.64 L 0.294 -0.079 Q 0.294 -0.049 0.306 -0.041 Q 0.323 -0.031 0.387 -0.031 L 0.419 -0.031 L 0.419 0 Q 0.384 -0.003 0.257 -0.003 Q 0.13 -0.003 0.095 0 L 0.095 -0.031 L 0.127 -0.031 Q 0.20400000000000001 -0.031 0.215 -0.049 L 0.216 -0.05 Q 0.22 -0.058 0.22 -0.079 L 0.22 -0.597 Q 0.168 -0.5710000000000001 0.089 -0.5710000000000001 L 0.089 -0.602 Q 0.209 -0.602 0.271 -0.666 Q 0.29 -0.666 0.293 -0.659 L 0.293 -0.659 L 0.293 -0.658 Q 0.294 -0.655 0.294 -0.64 Z"/></g></g><g transform="scale(27,27)"><g transform="translate(21.25925925925926,16.829629185185187)"><path fill="rgb(0,0,0)" stroke="none" paint-order="stroke fill markers" d=" M 0.449 -0.17400000000000002 L 0.449 -0.17400000000000002 L 0.421 0 L 0.05 0 Q 0.05 -0.025 0.056 -0.032 L 0.061 -0.037 L 0.253 -0.251 Q 0.358 -0.369 0.358 -0.47200000000000003 Q 0.358 -0.561 0.304 -0.607 L 0.303 -0.608 L 0.302 -0.608 Q 0.27 -0.635 0.224 -0.635 Q 0.152 -0.635 0.109 -0.5730000000000001 Q 0.097 -0.555 0.089 -0.533 Q 0.092 -0.534 0.10200000000000001 -0.534 Q 0.14200000000000002 -0.534 0.153 -0.498 L 0.153 -0.497 Q 0.155 -0.49 0.155 -0.482 Q 0.155 -0.442 0.117 -0.431 Q 0.109 -0.429 0.10300000000000001 -0.429 Q 0.066 -0.429 0.054 -0.46 Q 0.05 -0.47100000000000003 0.05 -0.485 Q 0.05 -0.562 0.109 -0.617 Q 0.162 -0.666 0.23700000000000002 -0.666 Q 0.34700000000000003 -0.666 0.40800000000000003 -0.592 Q 0.443 -0.549 0.448 -0.49 Q 0.449 -0.481 0.449 -0.47200000000000003 Q 0.449 -0.399 0.394 -0.333 Q 0.365 -0.299 0.304 -0.243 L 0.243 -0.189 L 0.233 -0.18 L 0.127 -0.077 L 0.307 -0.077 Q 0.395 -0.077 0.402 -0.085 Q 0.41200000000000003 -0.099 0.424 -0.17400000000000002 L 0.449 -0.17400000000000002 Z"/></g></g><g transform="scale(27,27)"><g transform="translate(19.703703703703702,17.75555511111111)"><path fill="rgb(0,0,0)" stroke="none" paint-order="stroke fill markers" d=" M 0.449 -0.17400000000000002 L 0.449 -0.17400000000000002 L 0.421 0 L 0.05 0 Q 0.05 -0.025 0.056 -0.032 L 0.061 -0.037 L 0.253 -0.251 Q 0.358 -0.369 0.358 -0.47200000000000003 Q 0.358 -0.561 0.304 -0.607 L 0.303 -0.608 L 0.302 -0.608 Q 0.27 -0.635 0.224 -0.635 Q 0.152 -0.635 0.109 -0.5730000000000001 Q 0.097 -0.555 0.089 -0.533 Q 0.092 -0.534 0.10200000000000001 -0.534 Q 0.14200000000000002 -0.534 0.153 -0.498 L 0.153 -0.497 Q 0.155 -0.49 0.155 -0.482 Q 0.155 -0.442 0.117 -0.431 Q 0.109 -0.429 0.10300000000000001 -0.429 Q 0.066 -0.429 0.054 -0.46 Q 0.05 -0.47100000000000003 0.05 -0.485 Q 0.05 -0.562 0.109 -0.617 Q 0.162 -0.666 0.23700000000000002 -0.666 Q 0.34700000000000003 -0.666 0.40800000000000003 -0.592 Q 0.443 -0.549 0.448 -0.49 Q 0.449 -0.481 0.449 -0.47200000000000003 Q 0.449 -0.399 0.394 -0.333 Q 0.365 -0.299 0.304 -0.243 L 0.243 -0.189 L 0.233 -0.18 L 0.127 -0.077 L 0.307 -0.077 Q 0.395 -0.077 0.402 -0.085 Q 0.41200000000000003 -0.099 0.424 -0.17400000000000002 L 0.449 -0.17400000000000002 Z"/></g></g></g></g></svg>