<svg version="1.1" xmlns="http://www.w3.org/2000/svg" xmlns:xlink="http://www.w3.org/1999/xlink" width="986" height="605"><defs><clipPath id="CTIeaztkfglT"><path fill="none" stroke="none" d=" M 0 0 L 986 0 L 986 605 L 0 605 L 0 0 Z"/></clipPath></defs><g transform="scale(1,1)" clip-path="url(#CTIeaztkfglT)"><g><rect fill="rgb(255,255,255)" stroke="none" x="0" y="0" width="986" height="605" fill-opacity="1"/><path fill="none" stroke="rgb(0,0,0)" paint-order="fill stroke markers" d=" M 482 610 L 482 -5" stroke-opacity="0.6980392156862745" stroke-linecap="round" stroke-linejoin="round" stroke-miterlimit="10" stroke-width="2.5"/><path fill="none" stroke="rgb(0,0,0)" paint-order="fill stroke markers" d=" M 206.00000000000006 312.5 L 757.9999999999999 312.5" stroke-opacity="0.6980392156862745" stroke-linecap="round" stroke-linejoin="round" stroke-miterlimit="10" stroke-width="2.5"/><path fill="none" stroke="rgb(0,0,0)" paint-order="fill stroke markers" d=" M 482 84.00000000000009 L 206.00000000000006 312.5" stroke-opacity="0.6980392156862745" stroke-linecap="round" stroke-linejoin="round" stroke-miterlimit="10" stroke-width="2.5"/><path fill="none" stroke="rgb(0,0,0)" paint-order="fill stroke markers" d=" M 347.8262629737309 202.87165680853272 L 340.1737370262691 193.6283431914674" stroke-opacity="0.6980392156862745" stroke-linecap="round" stroke-linejoin="round" stroke-miterlimit="10" stroke-width="2.5"/><path fill="none" stroke="rgb(0,0,0)" paint-order="fill stroke markers" d=" M 206.00000000000006 312.5 L 482 464.42213395121996" stroke-opacity="0.6980392156862745" stroke-linecap="round" stroke-linejoin="round" stroke-miterlimit="10" stroke-width="2.5"/><path fill="none" stroke="rgb(0,0,0)" paint-order="fill stroke markers" d=" M 344.7031677221767 381.99921312748796 L 338.9165714750671 392.51183905410295" stroke-opacity="0.6980392156862745" stroke-linecap="round" stroke-linejoin="round" stroke-miterlimit="10" stroke-width="2.5"/><path fill="none" stroke="rgb(0,0,0)" paint-order="fill stroke markers" d=" M 349.0834285249329 384.410294897117 L 343.2968322778233 394.922920823732" stroke-opacity="0.6980392156862745" stroke-linecap="round" stroke-linejoin="round" stroke-miterlimit="10" stroke-width="2.5"/><path fill="none" stroke="rgb(0,0,0)" paint-order="fill stroke markers" d=" M 482 464.42213395121996 L 757.9999999999999 312.5" stroke-opacity="0.6980392156862745" stroke-linecap="round" stroke-linejoin="round" stroke-miterlimit="10" stroke-width="2.5"/><path fill="none" stroke="rgb(0,0,0)" paint-order="fill stroke markers" d=" M 614.916571475067 384.410294897117 L 620.7031677221767 394.922920823732" stroke-opacity="0.6980392156862745" stroke-linecap="round" stroke-linejoin="round" stroke-miterlimit="10" stroke-width="2.5"/><path fill="none" stroke="rgb(0,0,0)" paint-order="fill stroke markers" d=" M 619.2968322778233 381.99921312748796 L 625.083428524933 392.51183905410295" stroke-opacity="0.6980392156862745" stroke-linecap="round" stroke-linejoin="round" stroke-miterlimit="10" stroke-width="2.5"/><path fill="none" stroke="rgb(0,0,0)" paint-order="fill stroke markers" d=" M 757.9999999999999 312.5 L 482 84.00000000000009" stroke-opacity="0.6980392156862745" stroke-linecap="round" stroke-linejoin="round" stroke-miterlimit="10" stroke-width="2.5"/><path fill="none" stroke="rgb(0,0,0)" paint-order="fill stroke markers" d=" M 616.1737370262691 202.87165680853272 L 623.8262629737309 193.6283431914674" stroke-opacity="0.6980392156862745" stroke-linecap="round" stroke-linejoin="round" stroke-miterlimit="10" stroke-width="2.5"/><path fill="rgb(21,101,192)" stroke="none" paint-order="stroke fill markers" d=" M 211.00000000000006 312.5 C 211.00000000000006 315.26142374915395 208.76142374915403 317.5 206.00000000000006 317.5 C 203.23857625084608 317.5 201.00000000000006 315.26142374915395 201.00000000000006 312.5 C 201.00000000000006 309.73857625084605 203.23857625084608 307.5 206.00000000000006 307.5 C 208.76142374915403 307.5 211.00000000000006 309.73857625084605 211.00000000000006 312.5 Z" fill-opacity="1"/><path fill="none" stroke="rgb(0,0,0)" paint-order="fill stroke markers" d=" M 211.00000000000006 312.5 C 211.00000000000006 315.26142374915395 208.76142374915403 317.5 206.00000000000006 317.5 C 203.23857625084608 317.5 201.00000000000006 315.26142374915395 201.00000000000006 312.5 C 201.00000000000006 309.73857625084605 203.23857625084608 307.5 206.00000000000006 307.5 C 208.76142374915403 307.5 211.00000000000006 309.73857625084605 211.00000000000006 312.5 Z" stroke-opacity="1" stroke-linecap="round" stroke-linejoin="round" stroke-miterlimit="10"/><text fill="rgb(21,101,192)" stroke="none" font-family="geogebra-sans-serif, sans-serif" font-size="24px" font-style="normal" font-weight="normal" text-decoration="normal" x="176" y="332" text-anchor="start" dominant-baseline="alphabetic" fill-opacity="1">A</text><text fill="rgb(21,101,192)" stroke="none" font-family="geogebra-sans-serif, sans-serif" font-size="24px" font-style="normal" font-weight="normal" text-decoration="normal" x="176" y="332" text-anchor="start" dominant-baseline="alphabetic" fill-opacity="1">A</text><path fill="rgb(21,101,192)" stroke="none" paint-order="stroke fill markers" d=" M 762.9999999999999 312.5 C 762.9999999999999 315.26142374915395 760.7614237491539 317.5 757.9999999999999 317.5 C 755.2385762508459 317.5 752.9999999999999 315.26142374915395 752.9999999999999 312.5 C 752.9999999999999 309.73857625084605 755.2385762508459 307.5 757.9999999999999 307.5 C 760.7614237491539 307.5 762.9999999999999 309.73857625084605 762.9999999999999 312.5 Z" fill-opacity="1"/><path fill="none" stroke="rgb(0,0,0)" paint-order="fill stroke markers" d=" M 762.9999999999999 312.5 C 762.9999999999999 315.26142374915395 760.7614237491539 317.5 757.9999999999999 317.5 C 755.2385762508459 317.5 752.9999999999999 315.26142374915395 752.9999999999999 312.5 C 752.9999999999999 309.73857625084605 755.2385762508459 307.5 757.9999999999999 307.5 C 760.7614237491539 307.5 762.9999999999999 309.73857625084605 762.9999999999999 312.5 Z" stroke-opacity="1" stroke-linecap="round" stroke-linejoin="round" stroke-miterlimit="10"/><text fill="rgb(21,101,192)" stroke="none" font-family="geogebra-sans-serif, sans-serif" font-size="24px" font-style="normal" font-weight="normal" text-decoration="normal" x="773" y="339" text-anchor="start" dominant-baseline="alphabetic" fill-opacity="1">B</text><text fill="rgb(21,101,192)" stroke="none" font-family="geogebra-sans-serif, sans-serif" font-size="24px" font-style="normal" font-weight="normal" text-decoration="normal" x="773" y="339" text-anchor="start" dominant-baseline="alphabetic" fill-opacity="1">B</text><path fill="rgb(46,125,50)" stroke="none" paint-order="stroke fill markers" d=" M 487 312.5 C 487 315.26142374915395 484.76142374915395 317.5 482 317.5 C 479.23857625084605 317.5 477 315.26142374915395 477 312.5 C 477 309.73857625084605 479.23857625084605 307.5 482 307.5 C 484.76142374915395 307.5 487 309.73857625084605 487 312.5 Z" fill-opacity="1"/><path fill="none" stroke="rgb(0,0,0)" paint-order="fill stroke markers" d=" M 487 312.5 C 487 315.26142374915395 484.76142374915395 317.5 482 317.5 C 479.23857625084605 317.5 477 315.26142374915395 477 312.5 C 477 309.73857625084605 479.23857625084605 307.5 482 307.5 C 484.76142374915395 307.5 487 309.73857625084605 487 312.5 Z" stroke-opacity="1" stroke-linecap="round" stroke-linejoin="round" stroke-miterlimit="10"/><text fill="rgb(46,125,50)" stroke="none" font-family="geogebra-sans-serif, sans-serif" font-size="24px" font-style="normal" font-weight="normal" text-decoration="normal" x="495" y="345" text-anchor="start" dominant-baseline="alphabetic" fill-opacity="1">O</text><text fill="rgb(46,125,50)" stroke="none" font-family="geogebra-sans-serif, sans-serif" font-size="24px" font-style="normal" font-weight="normal" text-decoration="normal" x="495" y="345" text-anchor="start" dominant-baseline="alphabetic" fill-opacity="1">O</text><path fill="rgb(21,101,192)" stroke="none" paint-order="stroke fill markers" d=" M 487 84.00000000000009 C 487 86.76142374915405 484.76142374915395 89.00000000000009 482 89.00000000000009 C 479.23857625084605 89.00000000000009 477 86.76142374915405 477 84.00000000000009 C 477 81.23857625084612 479.23857625084605 79.00000000000009 482 79.00000000000009 C 484.76142374915395 79.00000000000009 487 81.23857625084612 487 84.00000000000009 Z" fill-opacity="1"/><path fill="none" stroke="rgb(0,0,0)" paint-order="fill stroke markers" d=" M 487 84.00000000000009 C 487 86.76142374915405 484.76142374915395 89.00000000000009 482 89.00000000000009 C 479.23857625084605 89.00000000000009 477 86.76142374915405 477 84.00000000000009 C 477 81.23857625084612 479.23857625084605 79.00000000000009 482 79.00000000000009 C 484.76142374915395 79.00000000000009 487 81.23857625084612 487 84.00000000000009 Z" stroke-opacity="1" stroke-linecap="round" stroke-linejoin="round" stroke-miterlimit="10"/><text fill="rgb(21,101,192)" stroke="none" font-family="geogebra-sans-serif, sans-serif" font-size="24px" font-style="normal" font-weight="normal" text-decoration="normal" x="486" y="74" text-anchor="start" dominant-baseline="alphabetic" fill-opacity="1">C</text><text fill="rgb(21,101,192)" stroke="none" font-family="geogebra-sans-serif, sans-serif" font-size="24px" font-style="normal" font-weight="normal" text-decoration="normal" x="486" y="74" text-anchor="start" dominant-baseline="alphabetic" fill-opacity="1">C</text><path fill="rgb(21,101,192)" stroke="none" paint-order="stroke fill markers" d=" M 487 464.42213395121996 C 487 467.1835577003739 484.76142374915395 469.42213395121996 482 469.42213395121996 C 479.23857625084605 469.42213395121996 477 467.1835577003739 477 464.42213395121996 C 477 461.660710202066 479.23857625084605 459.42213395121996 482 459.42213395121996 C 484.76142374915395 459.42213395121996 487 461.660710202066 487 464.42213395121996 Z" fill-opacity="1"/><path fill="none" stroke="rgb(0,0,0)" paint-order="fill stroke markers" d=" M 487 464.42213395121996 C 487 467.1835577003739 484.76142374915395 469.42213395121996 482 469.42213395121996 C 479.23857625084605 469.42213395121996 477 467.1835577003739 477 464.42213395121996 C 477 461.660710202066 479.23857625084605 459.42213395121996 482 459.42213395121996 C 484.76142374915395 459.42213395121996 487 461.660710202066 487 464.42213395121996 Z" stroke-opacity="1" stroke-linecap="round" stroke-linejoin="round" stroke-miterlimit="10"/><text fill="rgb(21,101,192)" stroke="none" font-family="geogebra-sans-serif, sans-serif" font-size="24px" font-style="normal" font-weight="normal" text-decoration="normal" x="492" y="495" text-anchor="start" dominant-baseline="alphabetic" fill-opacity="1">D</text><text fill="rgb(21,101,192)" stroke="none" font-family="geogebra-sans-serif, sans-serif" font-size="24px" font-style="normal" font-weight="normal" text-decoration="normal" x="492" y="495" text-anchor="start" dominant-baseline="alphabetic" fill-opacity="1">D</text><g transform="scale(27,27)"><g transform="translate(13.74074074074074,12.768519074074074)"><path fill="rgb(0,0,0)" stroke="none" paint-order="stroke fill markers" d=" M 0.516 -0.683 L 0.372 -0.105 Q 0.366 -0.08 0.366 -0.057 Q 0.366 -0.011 0.396 -0.011 Q 0.434 -0.011 0.46 -0.091 Q 0.465 -0.108 0.47200000000000003 -0.135 Q 0.48 -0.152 0.486 -0.153 Q 0.498 -0.153 0.498 -0.14300000000000002 Q 0.498 -0.128 0.48 -0.073 Q 0.47400000000000003 -0.056 0.468 -0.044 Q 0.44 0.011 0.394 0.011 Q 0.338 0.011 0.313 -0.037 Q 0.306 -0.049 0.303 -0.064 Q 0.24 0.011 0.17300000000000001 0.011 Q 0.098 0.011 0.062 -0.057 Q 0.04 -0.097 0.04 -0.149 Q 0.04 -0.257 0.115 -0.34900000000000003 Q 0.185 -0.433 0.267 -0.441 Q 0.274 -0.442 0.281 -0.442 Q 0.342 -0.442 0.373 -0.378 L 0.433 -0.615 L 0.436 -0.635 Q 0.436 -0.646 0.422 -0.649 Q 0.41000000000000003 -0.652 0.386 -0.652 Q 0.364 -0.652 0.362 -0.664 Q 0.362 -0.681 0.376 -0.683 Q 0.47000000000000003 -0.6940000000000001 0.503 -0.6940000000000001 Q 0.516 -0.6940000000000001 0.516 -0.683 M 0.308 -0.11900000000000001 L 0.308 -0.11900000000000001 L 0.358 -0.315 Q 0.361 -0.33 0.361 -0.332 Q 0.361 -0.353 0.343 -0.383 Q 0.321 -0.42 0.28200000000000003 -0.42 Q 0.23 -0.42 0.183 -0.352 Q 0.17400000000000002 -0.339 0.166 -0.324 Q 0.137 -0.266 0.117 -0.159 Q 0.111 -0.125 0.111 -0.105 Q 0.111 -0.037 0.149 -0.017 Q 0.16 -0.011 0.17500000000000002 -0.011 Q 0.231 -0.011 0.28800000000000003 -0.082 Q 0.302 -0.098 0.307 -0.115 L 0.307 -0.116 Q 0.308 -0.11800000000000001 0.308 -0.11900000000000001 Z"/></g><g transform="translate(14.26122874074074,12.918519074074075) scale(0.7,0.7)"><path fill="rgb(0,0,0)" stroke="none" paint-order="stroke fill markers" d=" M 0.294 -0.64 L 0.294 -0.079 Q 0.294 -0.049 0.306 -0.041 Q 0.323 -0.031 0.387 -0.031 L 0.419 -0.031 L 0.419 0 Q 0.384 -0.003 0.257 -0.003 Q 0.13 -0.003 0.095 0 L 0.095 -0.031 L 0.127 -0.031 Q 0.20400000000000001 -0.031 0.215 -0.049 L 0.216 -0.05 Q 0.22 -0.058 0.22 -0.079 L 0.22 -0.597 Q 0.168 -0.5710000000000001 0.089 -0.5710000000000001 L 0.089 -0.602 Q 0.209 -0.602 0.271 -0.666 Q 0.29 -0.666 0.293 -0.659 L 0.293 -0.659 L 0.293 -0.658 Q 0.294 -0.655 0.294 -0.64 Z"/></g></g><g transform="scale(27,27)"><g transform="translate(18.14814814814815,8.472222777777777)"><path fill="rgb(0,0,0)" stroke="none" paint-order="stroke fill markers" d=" M 0.516 -0.683 L 0.372 -0.105 Q 0.366 -0.08 0.366 -0.057 Q 0.366 -0.011 0.396 -0.011 Q 0.434 -0.011 0.46 -0.091 Q 0.465 -0.108 0.47200000000000003 -0.135 Q 0.48 -0.152 0.486 -0.153 Q 0.498 -0.153 0.498 -0.14300000000000002 Q 0.498 -0.128 0.48 -0.073 Q 0.47400000000000003 -0.056 0.468 -0.044 Q 0.44 0.011 0.394 0.011 Q 0.338 0.011 0.313 -0.037 Q 0.306 -0.049 0.303 -0.064 Q 0.24 0.011 0.17300000000000001 0.011 Q 0.098 0.011 0.062 -0.057 Q 0.04 -0.097 0.04 -0.149 Q 0.04 -0.257 0.115 -0.34900000000000003 Q 0.185 -0.433 0.267 -0.441 Q 0.274 -0.442 0.281 -0.442 Q 0.342 -0.442 0.373 -0.378 L 0.433 -0.615 L 0.436 -0.635 Q 0.436 -0.646 0.422 -0.649 Q 0.41000000000000003 -0.652 0.386 -0.652 Q 0.364 -0.652 0.362 -0.664 Q 0.362 -0.681 0.376 -0.683 Q 0.47000000000000003 -0.6940000000000001 0.503 -0.6940000000000001 Q 0.516 -0.6940000000000001 0.516 -0.683 M 0.308 -0.11900000000000001 L 0.308 -0.11900000000000001 L 0.358 -0.315 Q 0.361 -0.33 0.361 -0.332 Q 0.361 -0.353 0.343 -0.383 Q 0.321 -0.42 0.28200000000000003 -0.42 Q 0.23 -0.42 0.183 -0.352 Q 0.17400000000000002 -0.339 0.166 -0.324 Q 0.137 -0.266 0.117 -0.159 Q 0.111 -0.125 0.111 -0.105 Q 0.111 -0.037 0.149 -0.017 Q 0.16 -0.011 0.17500000000000002 -0.011 Q 0.231 -0.011 0.28800000000000003 -0.082 Q 0.302 -0.098 0.307 -0.115 L 0.307 -0.116 Q 0.308 -0.11800000000000001 0.308 -0.11900000000000001 Z"/></g><g transform="translate(18.66863614814815,8.622222777777777) scale(0.7,0.7)"><path fill="rgb(0,0,0)" stroke="none" paint-order="stroke fill markers" d=" M 0.449 -0.17400000000000002 L 0.449 -0.17400000000000002 L 0.421 0 L 0.05 0 Q 0.05 -0.025 0.056 -0.032 L 0.061 -0.037 L 0.253 -0.251 Q 0.358 -0.369 0.358 -0.47200000000000003 Q 0.358 -0.561 0.304 -0.607 L 0.303 -0.608 L 0.302 -0.608 Q 0.27 -0.635 0.224 -0.635 Q 0.152 -0.635 0.109 -0.5730000000000001 Q 0.097 -0.555 0.089 -0.533 Q 0.092 -0.534 0.10200000000000001 -0.534 Q 0.14200000000000002 -0.534 0.153 -0.498 L 0.153 -0.497 Q 0.155 -0.49 0.155 -0.482 Q 0.155 -0.442 0.117 -0.431 Q 0.109 -0.429 0.10300000000000001 -0.429 Q 0.066 -0.429 0.054 -0.46 Q 0.05 -0.47100000000000003 0.05 -0.485 Q 0.05 -0.562 0.109 -0.617 Q 0.162 -0.666 0.23700000000000002 -0.666 Q 0.34700000000000003 -0.666 0.40800000000000003 -0.592 Q 0.443 -0.549 0.448 -0.49 Q 0.449 -0.481 0.449 -0.47200000000000003 Q 0.449 -0.399 0.394 -0.333 Q 0.365 -0.299 0.304 -0.243 L 0.243 -0.189 L 0.233 -0.18 L 0.127 -0.077 L 0.307 -0.077 Q 0.395 -0.077 0.402 -0.085 Q 0.41200000000000003 -0.099 0.424 -0.17400000000000002 L 0.449 -0.17400000000000002 Z"/></g></g></g></g></svg>