<svg version="1.1" xmlns="http://www.w3.org/2000/svg" xmlns:xlink="http://www.w3.org/1999/xlink" width="1310" height="605"><defs><clipPath id="QSJoxXfbVVat"><path fill="none" stroke="none" d=" M 0 0 L 1310 0 L 1310 605 L 0 605 L 0 0 Z"/></clipPath></defs><g transform="scale(1,1)" clip-path="url(#QSJoxXfbVVat)"><g><rect fill="rgb(255,255,255)" stroke="none" x="0" y="0" width="1310" height="605" fill-opacity="1"/><path fill="none" stroke="rgb(0,0,0)" paint-order="fill stroke markers" d=" M 1172 560.5 C 1172 776.9956219336709 996.4956219336709 952.4999999999998 780.0000000000001 952.4999999999998 C 563.5043780663292 952.4999999999998 388.0000000000003 776.9956219336709 388.0000000000003 560.5 C 388.0000000000003 344.0043780663291 563.5043780663292 168.50000000000017 780.0000000000001 168.50000000000017 C 996.4956219336709 168.50000000000017 1172 344.0043780663291 1172 560.5 Z" stroke-opacity="0.6980392156862745" stroke-linecap="round" stroke-linejoin="round" stroke-miterlimit="10" stroke-width="0.5"/><path fill="rgb(0,0,0)" stroke="none" paint-order="stroke fill markers" fill-rule="evenodd" d=" M 475.76660190070123 397.09396725983885 L 494.4547672287432 407.13152058082846 L 504.49232054973476 388.4433552527859 L 485.80415522169085 378.4058019317969 L 475.76660190070123 397.09396725983885" fill-opacity="0.09803921568627451"/><path fill="none" stroke="rgb(0,0,0)" paint-order="fill stroke markers" d=" M 475.76660190070123 397.09396725983885 L 494.4547672287432 407.13152058082846 L 504.49232054973476 388.4433552527859 L 485.80415522169085 378.4058019317969 L 475.76660190070123 397.09396725983885" stroke-opacity="0.6" stroke-linecap="round" stroke-linejoin="round" stroke-miterlimit="10" stroke-width="2.5"/><path fill="none" stroke="rgb(0,0,0)" paint-order="fill stroke markers" d=" M 388.00000000000034 560.5 L 780.0000000000001 560.5" stroke-opacity="0.6980392156862745" stroke-linecap="round" stroke-linejoin="round" stroke-miterlimit="10" stroke-width="2.5"/><path fill="none" stroke="rgb(0,0,0)" paint-order="fill stroke markers" d=" M 486.0000000000003 57.00000000000023 L 563.5332038014021 233.6879345196777" stroke-opacity="0.6980392156862745" stroke-linecap="round" stroke-linejoin="round" stroke-miterlimit="10" stroke-width="2.5"/><path fill="none" stroke="rgb(0,0,0)" paint-order="fill stroke markers" d=" M 878.0000000000001 57.00000000000023 L 780.0000000000001 560.5" stroke-opacity="0.6980392156862745" stroke-linecap="round" stroke-linejoin="round" stroke-miterlimit="10" stroke-width="2.5"/><path fill="none" stroke="rgb(0,0,0)" paint-order="fill stroke markers" d=" M 388.00000000000034 560.5 L 486.0000000000003 57.00000000000023" stroke-opacity="0.6980392156862745" stroke-linecap="round" stroke-linejoin="round" stroke-miterlimit="10" stroke-width="2.5"/><path fill="none" stroke="rgb(0,0,0)" paint-order="fill stroke markers" d=" M 486.0000000000003 57.00000000000023 L 878.0000000000001 57.00000000000023" stroke-opacity="0.6980392156862745" stroke-linecap="round" stroke-linejoin="round" stroke-miterlimit="10" stroke-width="2.5"/><path fill="none" stroke="rgb(0,0,0)" paint-order="fill stroke markers" d=" M 524.7666019007012 145.34396725983896 L 829.0000000000001 308.7500000000001" stroke-opacity="0.6980392156862745" stroke-linecap="round" stroke-linejoin="round" stroke-miterlimit="10" stroke-width="2.5"/><path fill="none" stroke="rgb(0,0,0)" paint-order="fill stroke markers" d=" M 524.7666019007012 145.34396725983896 L 475.76660190070123 397.09396725983885" stroke-opacity="0.6980392156862745" stroke-linecap="round" stroke-linejoin="round" stroke-miterlimit="10" stroke-width="2.5"/><path fill="none" stroke="rgb(0,0,0)" paint-order="fill stroke markers" d=" M 563.5332038014021 233.6879345196777 L 780.0000000000001 560.5" stroke-opacity="0.6980392156862745" stroke-linecap="round" stroke-linejoin="round" stroke-miterlimit="10" stroke-width="2.5"/><path fill="none" stroke="rgb(0,0,0)" paint-order="fill stroke markers" d=" M 475.76660190070123 397.09396725983885 L 780.0000000000001 560.5" stroke-opacity="0.6980392156862745" stroke-linecap="round" stroke-linejoin="round" stroke-miterlimit="10" stroke-width="2.5"/><path fill="none" stroke="rgb(0,0,0)" paint-order="fill stroke markers" d=" M 388.00000000000034 560.5 L 689.0487406151466 0" stroke-opacity="0.6980392156862745" stroke-linecap="round" stroke-linejoin="round" stroke-miterlimit="10" stroke-width="2.5"/><path fill="rgb(21,101,192)" stroke="none" paint-order="stroke fill markers" d=" M 393.00000000000034 560.5 C 393.00000000000034 563.261423749154 390.7614237491543 565.5 388.00000000000034 565.5 C 385.2385762508464 565.5 383.00000000000034 563.261423749154 383.00000000000034 560.5 C 383.00000000000034 557.738576250846 385.2385762508464 555.5 388.00000000000034 555.5 C 390.7614237491543 555.5 393.00000000000034 557.738576250846 393.00000000000034 560.5 Z" fill-opacity="1"/><path fill="none" stroke="rgb(0,0,0)" paint-order="fill stroke markers" d=" M 393.00000000000034 560.5 C 393.00000000000034 563.261423749154 390.7614237491543 565.5 388.00000000000034 565.5 C 385.2385762508464 565.5 383.00000000000034 563.261423749154 383.00000000000034 560.5 C 383.00000000000034 557.738576250846 385.2385762508464 555.5 388.00000000000034 555.5 C 390.7614237491543 555.5 393.00000000000034 557.738576250846 393.00000000000034 560.5 Z" stroke-opacity="1" stroke-linecap="round" stroke-linejoin="round" stroke-miterlimit="10"/><text fill="rgb(21,101,192)" stroke="none" font-family="geogebra-sans-serif, sans-serif" font-size="24px" font-style="normal" font-weight="normal" text-decoration="normal" x="340" y="568" text-anchor="start" dominant-baseline="alphabetic" fill-opacity="1">B</text><text fill="none" stroke="rgb(255,255,255)" font-family="geogebra-sans-serif, sans-serif" font-size="24px" font-style="normal" font-weight="normal" text-decoration="normal" x="340" y="568" text-anchor="start" dominant-baseline="alphabetic" stroke-opacity="1" stroke-linejoin="bevel" stroke-miterlimit="10" stroke-width="3">B</text><text fill="rgb(21,101,192)" stroke="none" font-family="geogebra-sans-serif, sans-serif" font-size="24px" font-style="normal" font-weight="normal" text-decoration="normal" x="340" y="568" text-anchor="start" dominant-baseline="alphabetic" fill-opacity="1">B</text><path fill="rgb(21,101,192)" stroke="none" paint-order="stroke fill markers" d=" M 785.0000000000001 560.5 C 785.0000000000001 563.261423749154 782.7614237491541 565.5 780.0000000000001 565.5 C 777.2385762508461 565.5 775.0000000000001 563.261423749154 775.0000000000001 560.5 C 775.0000000000001 557.738576250846 777.2385762508461 555.5 780.0000000000001 555.5 C 782.7614237491541 555.5 785.0000000000001 557.738576250846 785.0000000000001 560.5 Z" fill-opacity="1"/><path fill="none" stroke="rgb(0,0,0)" paint-order="fill stroke markers" d=" M 785.0000000000001 560.5 C 785.0000000000001 563.261423749154 782.7614237491541 565.5 780.0000000000001 565.5 C 777.2385762508461 565.5 775.0000000000001 563.261423749154 775.0000000000001 560.5 C 775.0000000000001 557.738576250846 777.2385762508461 555.5 780.0000000000001 555.5 C 782.7614237491541 555.5 785.0000000000001 557.738576250846 785.0000000000001 560.5 Z" stroke-opacity="1" stroke-linecap="round" stroke-linejoin="round" stroke-miterlimit="10"/><text fill="rgb(21,101,192)" stroke="none" font-family="geogebra-sans-serif, sans-serif" font-size="24px" font-style="normal" font-weight="normal" text-decoration="normal" x="808" y="567" text-anchor="start" dominant-baseline="alphabetic" fill-opacity="1">C</text><text fill="none" stroke="rgb(255,255,255)" font-family="geogebra-sans-serif, sans-serif" font-size="24px" font-style="normal" font-weight="normal" text-decoration="normal" x="808" y="567" text-anchor="start" dominant-baseline="alphabetic" stroke-opacity="1" stroke-linejoin="bevel" stroke-miterlimit="10" stroke-width="3">C</text><text fill="rgb(21,101,192)" stroke="none" font-family="geogebra-sans-serif, sans-serif" font-size="24px" font-style="normal" font-weight="normal" text-decoration="normal" x="808" y="567" text-anchor="start" dominant-baseline="alphabetic" fill-opacity="1">C</text><path fill="rgb(21,101,192)" stroke="none" paint-order="stroke fill markers" d=" M 491.0000000000003 57.00000000000023 C 491.0000000000003 59.76142374915419 488.76142374915423 62.00000000000023 486.0000000000003 62.00000000000023 C 483.23857625084634 62.00000000000023 481.0000000000003 59.76142374915419 481.0000000000003 57.00000000000023 C 481.0000000000003 54.23857625084626 483.23857625084634 52.00000000000023 486.0000000000003 52.00000000000023 C 488.76142374915423 52.00000000000023 491.0000000000003 54.23857625084626 491.0000000000003 57.00000000000023 Z" fill-opacity="1"/><path fill="none" stroke="rgb(0,0,0)" paint-order="fill stroke markers" d=" M 491.0000000000003 57.00000000000023 C 491.0000000000003 59.76142374915419 488.76142374915423 62.00000000000023 486.0000000000003 62.00000000000023 C 483.23857625084634 62.00000000000023 481.0000000000003 59.76142374915419 481.0000000000003 57.00000000000023 C 481.0000000000003 54.23857625084626 483.23857625084634 52.00000000000023 486.0000000000003 52.00000000000023 C 488.76142374915423 52.00000000000023 491.0000000000003 54.23857625084626 491.0000000000003 57.00000000000023 Z" stroke-opacity="1" stroke-linecap="round" stroke-linejoin="round" stroke-miterlimit="10"/><text fill="rgb(21,101,192)" stroke="none" font-family="geogebra-sans-serif, sans-serif" font-size="24px" font-style="normal" font-weight="normal" text-decoration="normal" x="442" y="43" text-anchor="start" dominant-baseline="alphabetic" fill-opacity="1">A</text><text fill="none" stroke="rgb(255,255,255)" font-family="geogebra-sans-serif, sans-serif" font-size="24px" font-style="normal" font-weight="normal" text-decoration="normal" x="442" y="43" text-anchor="start" dominant-baseline="alphabetic" stroke-opacity="1" stroke-linejoin="bevel" stroke-miterlimit="10" stroke-width="3">A</text><text fill="rgb(21,101,192)" stroke="none" font-family="geogebra-sans-serif, sans-serif" font-size="24px" font-style="normal" font-weight="normal" text-decoration="normal" x="442" y="43" text-anchor="start" dominant-baseline="alphabetic" fill-opacity="1">A</text><path fill="rgb(21,101,192)" stroke="none" paint-order="stroke fill markers" d=" M 883.0000000000001 57.00000000000023 C 883.0000000000001 59.76142374915419 880.7614237491541 62.00000000000023 878.0000000000001 62.00000000000023 C 875.2385762508461 62.00000000000023 873.0000000000001 59.76142374915419 873.0000000000001 57.00000000000023 C 873.0000000000001 54.23857625084626 875.2385762508461 52.00000000000023 878.0000000000001 52.00000000000023 C 880.7614237491541 52.00000000000023 883.0000000000001 54.23857625084626 883.0000000000001 57.00000000000023 Z" fill-opacity="1"/><path fill="none" stroke="rgb(0,0,0)" paint-order="fill stroke markers" d=" M 883.0000000000001 57.00000000000023 C 883.0000000000001 59.76142374915419 880.7614237491541 62.00000000000023 878.0000000000001 62.00000000000023 C 875.2385762508461 62.00000000000023 873.0000000000001 59.76142374915419 873.0000000000001 57.00000000000023 C 873.0000000000001 54.23857625084626 875.2385762508461 52.00000000000023 878.0000000000001 52.00000000000023 C 880.7614237491541 52.00000000000023 883.0000000000001 54.23857625084626 883.0000000000001 57.00000000000023 Z" stroke-opacity="1" stroke-linecap="round" stroke-linejoin="round" stroke-miterlimit="10"/><text fill="rgb(21,101,192)" stroke="none" font-family="geogebra-sans-serif, sans-serif" font-size="24px" font-style="normal" font-weight="normal" text-decoration="normal" x="897" y="39" text-anchor="start" dominant-baseline="alphabetic" fill-opacity="1">D</text><text fill="none" stroke="rgb(255,255,255)" font-family="geogebra-sans-serif, sans-serif" font-size="24px" font-style="normal" font-weight="normal" text-decoration="normal" x="897" y="39" text-anchor="start" dominant-baseline="alphabetic" stroke-opacity="1" stroke-linejoin="bevel" stroke-miterlimit="10" stroke-width="3">D</text><text fill="rgb(21,101,192)" stroke="none" font-family="geogebra-sans-serif, sans-serif" font-size="24px" font-style="normal" font-weight="normal" text-decoration="normal" x="897" y="39" text-anchor="start" dominant-baseline="alphabetic" fill-opacity="1">D</text><path fill="rgb(21,101,192)" stroke="none" paint-order="stroke fill markers" d=" M 568.5332038014021 233.6879345196777 C 568.5332038014021 236.44935826883167 566.2946275505561 238.6879345196777 563.5332038014021 238.6879345196777 C 560.7717800522481 238.6879345196777 558.5332038014021 236.44935826883167 558.5332038014021 233.6879345196777 C 558.5332038014021 230.92651077052372 560.7717800522481 228.6879345196777 563.5332038014021 228.6879345196777 C 566.2946275505561 228.6879345196777 568.5332038014021 230.92651077052372 568.5332038014021 233.6879345196777 Z" fill-opacity="1"/><path fill="none" stroke="rgb(0,0,0)" paint-order="fill stroke markers" d=" M 568.5332038014021 233.6879345196777 C 568.5332038014021 236.44935826883167 566.2946275505561 238.6879345196777 563.5332038014021 238.6879345196777 C 560.7717800522481 238.6879345196777 558.5332038014021 236.44935826883167 558.5332038014021 233.6879345196777 C 558.5332038014021 230.92651077052372 560.7717800522481 228.6879345196777 563.5332038014021 228.6879345196777 C 566.2946275505561 228.6879345196777 568.5332038014021 230.92651077052372 568.5332038014021 233.6879345196777 Z" stroke-opacity="1" stroke-linecap="round" stroke-linejoin="round" stroke-miterlimit="10"/><text fill="rgb(21,101,192)" stroke="none" font-family="geogebra-sans-serif, sans-serif" font-size="24px" font-style="normal" font-weight="normal" text-decoration="normal" x="591" y="249" text-anchor="start" dominant-baseline="alphabetic" fill-opacity="1">P</text><text fill="none" stroke="rgb(255,255,255)" font-family="geogebra-sans-serif, sans-serif" font-size="24px" font-style="normal" font-weight="normal" text-decoration="normal" x="591" y="249" text-anchor="start" dominant-baseline="alphabetic" stroke-opacity="1" stroke-linejoin="bevel" stroke-miterlimit="10" stroke-width="3">P</text><text fill="rgb(21,101,192)" stroke="none" font-family="geogebra-sans-serif, sans-serif" font-size="24px" font-style="normal" font-weight="normal" text-decoration="normal" x="591" y="249" text-anchor="start" dominant-baseline="alphabetic" fill-opacity="1">P</text><path fill="rgb(46,125,50)" stroke="none" paint-order="stroke fill markers" d=" M 834.0000000000001 308.7500000000001 C 834.0000000000001 311.51142374915406 831.7614237491541 313.7500000000001 829.0000000000001 313.7500000000001 C 826.2385762508461 313.7500000000001 824.0000000000001 311.51142374915406 824.0000000000001 308.7500000000001 C 824.0000000000001 305.98857625084617 826.2385762508461 303.7500000000001 829.0000000000001 303.7500000000001 C 831.7614237491541 303.7500000000001 834.0000000000001 305.98857625084617 834.0000000000001 308.7500000000001 Z" fill-opacity="1"/><path fill="none" stroke="rgb(0,0,0)" paint-order="fill stroke markers" d=" M 834.0000000000001 308.7500000000001 C 834.0000000000001 311.51142374915406 831.7614237491541 313.7500000000001 829.0000000000001 313.7500000000001 C 826.2385762508461 313.7500000000001 824.0000000000001 311.51142374915406 824.0000000000001 308.7500000000001 C 824.0000000000001 305.98857625084617 826.2385762508461 303.7500000000001 829.0000000000001 303.7500000000001 C 831.7614237491541 303.7500000000001 834.0000000000001 305.98857625084617 834.0000000000001 308.7500000000001 Z" stroke-opacity="1" stroke-linecap="round" stroke-linejoin="round" stroke-miterlimit="10"/><text fill="rgb(46,125,50)" stroke="none" font-family="geogebra-sans-serif, sans-serif" font-size="24px" font-style="normal" font-weight="normal" text-decoration="normal" x="852" y="326" text-anchor="start" dominant-baseline="alphabetic" fill-opacity="1">F</text><text fill="none" stroke="rgb(255,255,255)" font-family="geogebra-sans-serif, sans-serif" font-size="24px" font-style="normal" font-weight="normal" text-decoration="normal" x="852" y="326" text-anchor="start" dominant-baseline="alphabetic" stroke-opacity="1" stroke-linejoin="bevel" stroke-miterlimit="10" stroke-width="3">F</text><text fill="rgb(46,125,50)" stroke="none" font-family="geogebra-sans-serif, sans-serif" font-size="24px" font-style="normal" font-weight="normal" text-decoration="normal" x="852" y="326" text-anchor="start" dominant-baseline="alphabetic" fill-opacity="1">F</text><path fill="rgb(46,125,50)" stroke="none" paint-order="stroke fill markers" d=" M 529.7666019007012 145.34396725983896 C 529.7666019007012 148.10539100899294 527.5280256498552 150.34396725983896 524.7666019007012 150.34396725983896 C 522.0051781515472 150.34396725983896 519.7666019007012 148.10539100899294 519.7666019007012 145.34396725983896 C 519.7666019007012 142.58254351068499 522.0051781515472 140.34396725983896 524.7666019007012 140.34396725983896 C 527.5280256498552 140.34396725983896 529.7666019007012 142.58254351068499 529.7666019007012 145.34396725983896 Z" fill-opacity="1"/><path fill="none" stroke="rgb(0,0,0)" paint-order="fill stroke markers" d=" M 529.7666019007012 145.34396725983896 C 529.7666019007012 148.10539100899294 527.5280256498552 150.34396725983896 524.7666019007012 150.34396725983896 C 522.0051781515472 150.34396725983896 519.7666019007012 148.10539100899294 519.7666019007012 145.34396725983896 C 519.7666019007012 142.58254351068499 522.0051781515472 140.34396725983896 524.7666019007012 140.34396725983896 C 527.5280256498552 140.34396725983896 529.7666019007012 142.58254351068499 529.7666019007012 145.34396725983896 Z" stroke-opacity="1" stroke-linecap="round" stroke-linejoin="round" stroke-miterlimit="10"/><text fill="rgb(46,125,50)" stroke="none" font-family="geogebra-sans-serif, sans-serif" font-size="24px" font-style="normal" font-weight="normal" text-decoration="normal" x="539" y="132" text-anchor="start" dominant-baseline="alphabetic" fill-opacity="1">E</text><text fill="none" stroke="rgb(255,255,255)" font-family="geogebra-sans-serif, sans-serif" font-size="24px" font-style="normal" font-weight="normal" text-decoration="normal" x="539" y="132" text-anchor="start" dominant-baseline="alphabetic" stroke-opacity="1" stroke-linejoin="bevel" stroke-miterlimit="10" stroke-width="3">E</text><text fill="rgb(46,125,50)" stroke="none" font-family="geogebra-sans-serif, sans-serif" font-size="24px" font-style="normal" font-weight="normal" text-decoration="normal" x="539" y="132" text-anchor="start" dominant-baseline="alphabetic" fill-opacity="1">E</text><path fill="rgb(46,125,50)" stroke="none" paint-order="stroke fill markers" d=" M 480.76660190070123 397.09396725983885 C 480.76660190070123 399.8553910089928 478.5280256498552 402.09396725983885 475.76660190070123 402.09396725983885 C 473.0051781515473 402.09396725983885 470.76660190070123 399.8553910089928 470.76660190070123 397.09396725983885 C 470.76660190070123 394.3325435106849 473.0051781515473 392.09396725983885 475.76660190070123 392.09396725983885 C 478.5280256498552 392.09396725983885 480.76660190070123 394.3325435106849 480.76660190070123 397.09396725983885 Z" fill-opacity="1"/><path fill="none" stroke="rgb(0,0,0)" paint-order="fill stroke markers" d=" M 480.76660190070123 397.09396725983885 C 480.76660190070123 399.8553910089928 478.5280256498552 402.09396725983885 475.76660190070123 402.09396725983885 C 473.0051781515473 402.09396725983885 470.76660190070123 399.8553910089928 470.76660190070123 397.09396725983885 C 470.76660190070123 394.3325435106849 473.0051781515473 392.09396725983885 475.76660190070123 392.09396725983885 C 478.5280256498552 392.09396725983885 480.76660190070123 394.3325435106849 480.76660190070123 397.09396725983885 Z" stroke-opacity="1" stroke-linecap="round" stroke-linejoin="round" stroke-miterlimit="10"/></g></g></svg>