<svg version="1.1" xmlns="http://www.w3.org/2000/svg" xmlns:xlink="http://www.w3.org/1999/xlink" width="1310" height="605"><defs><clipPath id="GRLmdUdNRRIs"><path fill="none" stroke="none" d=" M 0 0 L 1310 0 L 1310 605 L 0 605 L 0 0 Z"/></clipPath></defs><g transform="scale(1,1)" clip-path="url(#GRLmdUdNRRIs)"><g><rect fill="rgb(255,255,255)" stroke="none" x="0" y="0" width="1310" height="605" fill-opacity="1"/><path fill="none" stroke="rgb(0,0,0)" paint-order="fill stroke markers" d=" M 1218 560.5000000000001 C 1218 781.9661846821482 1038.4661846821482 961.5 817.0000000000001 961.5 C 595.533815317852 961.5 416.0000000000003 781.9661846821482 416.0000000000003 560.5000000000001 C 416.0000000000003 339.0338153178521 595.533815317852 159.50000000000028 817.0000000000001 159.50000000000028 C 1038.4661846821482 159.50000000000028 1218 339.0338153178521 1218 560.5000000000001 Z" stroke-opacity="0.6980392156862745" stroke-linecap="round" stroke-linejoin="round" stroke-miterlimit="10" stroke-width="0.5"/><path fill="none" stroke="rgb(0,0,0)" paint-order="fill stroke markers" d=" M 416.00000000000034 560.5000000000001 L 817.0000000000001 560.5000000000001" stroke-opacity="0.6980392156862745" stroke-linecap="round" stroke-linejoin="round" stroke-miterlimit="10" stroke-width="2.5"/><path fill="none" stroke="rgb(0,0,0)" paint-order="fill stroke markers" d=" M 514.0000000000002 57.00000000000034 L 595.5633028682711 226.18459628160917" stroke-opacity="0.6980392156862745" stroke-linecap="round" stroke-linejoin="round" stroke-miterlimit="10" stroke-width="2.5"/><path fill="none" stroke="rgb(0,0,0)" paint-order="fill stroke markers" d=" M 915 57.00000000000034 L 817.0000000000001 560.5000000000001" stroke-opacity="0.6980392156862745" stroke-linecap="round" stroke-linejoin="round" stroke-miterlimit="10" stroke-width="2.5"/><path fill="none" stroke="rgb(0,0,0)" paint-order="fill stroke markers" d=" M 416.00000000000034 560.5000000000001 L 514.0000000000002 57.00000000000034" stroke-opacity="0.6980392156862745" stroke-linecap="round" stroke-linejoin="round" stroke-miterlimit="10" stroke-width="2.5"/><path fill="none" stroke="rgb(0,0,0)" paint-order="fill stroke markers" d=" M 514.0000000000002 57.00000000000034 L 915 57.00000000000034" stroke-opacity="0.6980392156862745" stroke-linecap="round" stroke-linejoin="round" stroke-miterlimit="10" stroke-width="2.5"/><path fill="none" stroke="rgb(0,0,0)" paint-order="fill stroke markers" d=" M 554.7816514341357 141.5922981408047 L 866 308.7500000000002" stroke-opacity="0.6980392156862745" stroke-linecap="round" stroke-linejoin="round" stroke-miterlimit="10" stroke-width="2.5"/><path fill="none" stroke="rgb(0,0,0)" paint-order="fill stroke markers" d=" M 416.00000000000034 560.5000000000001 L 717.0487406151466 0" stroke-opacity="0.6980392156862745" stroke-linecap="round" stroke-linejoin="round" stroke-miterlimit="10" stroke-width="2.5"/><path fill="rgb(21,101,192)" stroke="none" paint-order="stroke fill markers" d=" M 421.00000000000034 560.5000000000001 C 421.00000000000034 563.2614237491541 418.7614237491543 565.5000000000001 416.00000000000034 565.5000000000001 C 413.2385762508464 565.5000000000001 411.00000000000034 563.2614237491541 411.00000000000034 560.5000000000001 C 411.00000000000034 557.7385762508461 413.2385762508464 555.5000000000001 416.00000000000034 555.5000000000001 C 418.7614237491543 555.5000000000001 421.00000000000034 557.7385762508461 421.00000000000034 560.5000000000001 Z" fill-opacity="1"/><path fill="none" stroke="rgb(0,0,0)" paint-order="fill stroke markers" d=" M 421.00000000000034 560.5000000000001 C 421.00000000000034 563.2614237491541 418.7614237491543 565.5000000000001 416.00000000000034 565.5000000000001 C 413.2385762508464 565.5000000000001 411.00000000000034 563.2614237491541 411.00000000000034 560.5000000000001 C 411.00000000000034 557.7385762508461 413.2385762508464 555.5000000000001 416.00000000000034 555.5000000000001 C 418.7614237491543 555.5000000000001 421.00000000000034 557.7385762508461 421.00000000000034 560.5000000000001 Z" stroke-opacity="1" stroke-linecap="round" stroke-linejoin="round" stroke-miterlimit="10"/><text fill="rgb(21,101,192)" stroke="none" font-family="geogebra-sans-serif, sans-serif" font-size="24px" font-style="normal" font-weight="normal" text-decoration="normal" x="368" y="568" text-anchor="start" dominant-baseline="alphabetic" fill-opacity="1">B</text><text fill="none" stroke="rgb(255,255,255)" font-family="geogebra-sans-serif, sans-serif" font-size="24px" font-style="normal" font-weight="normal" text-decoration="normal" x="368" y="568" text-anchor="start" dominant-baseline="alphabetic" stroke-opacity="1" stroke-linejoin="bevel" stroke-miterlimit="10" stroke-width="3">B</text><text fill="rgb(21,101,192)" stroke="none" font-family="geogebra-sans-serif, sans-serif" font-size="24px" font-style="normal" font-weight="normal" text-decoration="normal" x="368" y="568" text-anchor="start" dominant-baseline="alphabetic" fill-opacity="1">B</text><path fill="rgb(21,101,192)" stroke="none" paint-order="stroke fill markers" d=" M 822.0000000000001 560.5000000000001 C 822.0000000000001 563.2614237491541 819.7614237491541 565.5000000000001 817.0000000000001 565.5000000000001 C 814.2385762508461 565.5000000000001 812.0000000000001 563.2614237491541 812.0000000000001 560.5000000000001 C 812.0000000000001 557.7385762508461 814.2385762508461 555.5000000000001 817.0000000000001 555.5000000000001 C 819.7614237491541 555.5000000000001 822.0000000000001 557.7385762508461 822.0000000000001 560.5000000000001 Z" fill-opacity="1"/><path fill="none" stroke="rgb(0,0,0)" paint-order="fill stroke markers" d=" M 822.0000000000001 560.5000000000001 C 822.0000000000001 563.2614237491541 819.7614237491541 565.5000000000001 817.0000000000001 565.5000000000001 C 814.2385762508461 565.5000000000001 812.0000000000001 563.2614237491541 812.0000000000001 560.5000000000001 C 812.0000000000001 557.7385762508461 814.2385762508461 555.5000000000001 817.0000000000001 555.5000000000001 C 819.7614237491541 555.5000000000001 822.0000000000001 557.7385762508461 822.0000000000001 560.5000000000001 Z" stroke-opacity="1" stroke-linecap="round" stroke-linejoin="round" stroke-miterlimit="10"/><text fill="rgb(21,101,192)" stroke="none" font-family="geogebra-sans-serif, sans-serif" font-size="24px" font-style="normal" font-weight="normal" text-decoration="normal" x="845" y="567" text-anchor="start" dominant-baseline="alphabetic" fill-opacity="1">C</text><text fill="none" stroke="rgb(255,255,255)" font-family="geogebra-sans-serif, sans-serif" font-size="24px" font-style="normal" font-weight="normal" text-decoration="normal" x="845" y="567" text-anchor="start" dominant-baseline="alphabetic" stroke-opacity="1" stroke-linejoin="bevel" stroke-miterlimit="10" stroke-width="3">C</text><text fill="rgb(21,101,192)" stroke="none" font-family="geogebra-sans-serif, sans-serif" font-size="24px" font-style="normal" font-weight="normal" text-decoration="normal" x="845" y="567" text-anchor="start" dominant-baseline="alphabetic" fill-opacity="1">C</text><path fill="rgb(21,101,192)" stroke="none" paint-order="stroke fill markers" d=" M 519.0000000000002 57.00000000000034 C 519.0000000000002 59.761423749154304 516.7614237491542 62.00000000000034 514.0000000000002 62.00000000000034 C 511.2385762508463 62.00000000000034 509.0000000000002 59.761423749154304 509.0000000000002 57.00000000000034 C 509.0000000000002 54.23857625084637 511.2385762508463 52.00000000000034 514.0000000000002 52.00000000000034 C 516.7614237491542 52.00000000000034 519.0000000000002 54.23857625084637 519.0000000000002 57.00000000000034 Z" fill-opacity="1"/><path fill="none" stroke="rgb(0,0,0)" paint-order="fill stroke markers" d=" M 519.0000000000002 57.00000000000034 C 519.0000000000002 59.761423749154304 516.7614237491542 62.00000000000034 514.0000000000002 62.00000000000034 C 511.2385762508463 62.00000000000034 509.0000000000002 59.761423749154304 509.0000000000002 57.00000000000034 C 509.0000000000002 54.23857625084637 511.2385762508463 52.00000000000034 514.0000000000002 52.00000000000034 C 516.7614237491542 52.00000000000034 519.0000000000002 54.23857625084637 519.0000000000002 57.00000000000034 Z" stroke-opacity="1" stroke-linecap="round" stroke-linejoin="round" stroke-miterlimit="10"/><text fill="rgb(21,101,192)" stroke="none" font-family="geogebra-sans-serif, sans-serif" font-size="24px" font-style="normal" font-weight="normal" text-decoration="normal" x="470" y="43" text-anchor="start" dominant-baseline="alphabetic" fill-opacity="1">A</text><text fill="none" stroke="rgb(255,255,255)" font-family="geogebra-sans-serif, sans-serif" font-size="24px" font-style="normal" font-weight="normal" text-decoration="normal" x="470" y="43" text-anchor="start" dominant-baseline="alphabetic" stroke-opacity="1" stroke-linejoin="bevel" stroke-miterlimit="10" stroke-width="3">A</text><text fill="rgb(21,101,192)" stroke="none" font-family="geogebra-sans-serif, sans-serif" font-size="24px" font-style="normal" font-weight="normal" text-decoration="normal" x="470" y="43" text-anchor="start" dominant-baseline="alphabetic" fill-opacity="1">A</text><path fill="rgb(21,101,192)" stroke="none" paint-order="stroke fill markers" d=" M 920 57.00000000000034 C 920 59.761423749154304 917.761423749154 62.00000000000034 915 62.00000000000034 C 912.238576250846 62.00000000000034 910 59.761423749154304 910 57.00000000000034 C 910 54.23857625084637 912.238576250846 52.00000000000034 915 52.00000000000034 C 917.761423749154 52.00000000000034 920 54.23857625084637 920 57.00000000000034 Z" fill-opacity="1"/><path fill="none" stroke="rgb(0,0,0)" paint-order="fill stroke markers" d=" M 920 57.00000000000034 C 920 59.761423749154304 917.761423749154 62.00000000000034 915 62.00000000000034 C 912.238576250846 62.00000000000034 910 59.761423749154304 910 57.00000000000034 C 910 54.23857625084637 912.238576250846 52.00000000000034 915 52.00000000000034 C 917.761423749154 52.00000000000034 920 54.23857625084637 920 57.00000000000034 Z" stroke-opacity="1" stroke-linecap="round" stroke-linejoin="round" stroke-miterlimit="10"/><text fill="rgb(21,101,192)" stroke="none" font-family="geogebra-sans-serif, sans-serif" font-size="24px" font-style="normal" font-weight="normal" text-decoration="normal" x="934" y="39" text-anchor="start" dominant-baseline="alphabetic" fill-opacity="1">D</text><text fill="none" stroke="rgb(255,255,255)" font-family="geogebra-sans-serif, sans-serif" font-size="24px" font-style="normal" font-weight="normal" text-decoration="normal" x="934" y="39" text-anchor="start" dominant-baseline="alphabetic" stroke-opacity="1" stroke-linejoin="bevel" stroke-miterlimit="10" stroke-width="3">D</text><text fill="rgb(21,101,192)" stroke="none" font-family="geogebra-sans-serif, sans-serif" font-size="24px" font-style="normal" font-weight="normal" text-decoration="normal" x="934" y="39" text-anchor="start" dominant-baseline="alphabetic" fill-opacity="1">D</text><path fill="rgb(21,101,192)" stroke="none" paint-order="stroke fill markers" d=" M 600.5633028682711 226.18459628160917 C 600.5633028682711 228.94602003076315 598.3247266174251 231.18459628160917 595.5633028682711 231.18459628160917 C 592.8018791191171 231.18459628160917 590.5633028682711 228.94602003076315 590.5633028682711 226.18459628160917 C 590.5633028682711 223.4231725324552 592.8018791191171 221.18459628160917 595.5633028682711 221.18459628160917 C 598.3247266174251 221.18459628160917 600.5633028682711 223.4231725324552 600.5633028682711 226.18459628160917 Z" fill-opacity="1"/><path fill="none" stroke="rgb(0,0,0)" paint-order="fill stroke markers" d=" M 600.5633028682711 226.18459628160917 C 600.5633028682711 228.94602003076315 598.3247266174251 231.18459628160917 595.5633028682711 231.18459628160917 C 592.8018791191171 231.18459628160917 590.5633028682711 228.94602003076315 590.5633028682711 226.18459628160917 C 590.5633028682711 223.4231725324552 592.8018791191171 221.18459628160917 595.5633028682711 221.18459628160917 C 598.3247266174251 221.18459628160917 600.5633028682711 223.4231725324552 600.5633028682711 226.18459628160917 Z" stroke-opacity="1" stroke-linecap="round" stroke-linejoin="round" stroke-miterlimit="10"/><text fill="rgb(21,101,192)" stroke="none" font-family="geogebra-sans-serif, sans-serif" font-size="24px" font-style="normal" font-weight="normal" text-decoration="normal" x="623" y="241" text-anchor="start" dominant-baseline="alphabetic" fill-opacity="1">P</text><text fill="none" stroke="rgb(255,255,255)" font-family="geogebra-sans-serif, sans-serif" font-size="24px" font-style="normal" font-weight="normal" text-decoration="normal" x="623" y="241" text-anchor="start" dominant-baseline="alphabetic" stroke-opacity="1" stroke-linejoin="bevel" stroke-miterlimit="10" stroke-width="3">P</text><text fill="rgb(21,101,192)" stroke="none" font-family="geogebra-sans-serif, sans-serif" font-size="24px" font-style="normal" font-weight="normal" text-decoration="normal" x="623" y="241" text-anchor="start" dominant-baseline="alphabetic" fill-opacity="1">P</text><path fill="rgb(46,125,50)" stroke="none" paint-order="stroke fill markers" d=" M 871 308.7500000000002 C 871 311.5114237491542 868.761423749154 313.7500000000002 866 313.7500000000002 C 863.238576250846 313.7500000000002 861 311.5114237491542 861 308.7500000000002 C 861 305.9885762508463 863.238576250846 303.7500000000002 866 303.7500000000002 C 868.761423749154 303.7500000000002 871 305.9885762508463 871 308.7500000000002 Z" fill-opacity="1"/><path fill="none" stroke="rgb(0,0,0)" paint-order="fill stroke markers" d=" M 871 308.7500000000002 C 871 311.5114237491542 868.761423749154 313.7500000000002 866 313.7500000000002 C 863.238576250846 313.7500000000002 861 311.5114237491542 861 308.7500000000002 C 861 305.9885762508463 863.238576250846 303.7500000000002 866 303.7500000000002 C 868.761423749154 303.7500000000002 871 305.9885762508463 871 308.7500000000002 Z" stroke-opacity="1" stroke-linecap="round" stroke-linejoin="round" stroke-miterlimit="10"/><text fill="rgb(46,125,50)" stroke="none" font-family="geogebra-sans-serif, sans-serif" font-size="24px" font-style="normal" font-weight="normal" text-decoration="normal" x="889" y="326" text-anchor="start" dominant-baseline="alphabetic" fill-opacity="1">F</text><text fill="none" stroke="rgb(255,255,255)" font-family="geogebra-sans-serif, sans-serif" font-size="24px" font-style="normal" font-weight="normal" text-decoration="normal" x="889" y="326" text-anchor="start" dominant-baseline="alphabetic" stroke-opacity="1" stroke-linejoin="bevel" stroke-miterlimit="10" stroke-width="3">F</text><text fill="rgb(46,125,50)" stroke="none" font-family="geogebra-sans-serif, sans-serif" font-size="24px" font-style="normal" font-weight="normal" text-decoration="normal" x="889" y="326" text-anchor="start" dominant-baseline="alphabetic" fill-opacity="1">F</text><path fill="rgb(46,125,50)" stroke="none" paint-order="stroke fill markers" d=" M 559.7816514341357 141.5922981408047 C 559.7816514341357 144.35372188995868 557.5430751832897 146.5922981408047 554.7816514341357 146.5922981408047 C 552.0202276849817 146.5922981408047 549.7816514341357 144.35372188995868 549.7816514341357 141.5922981408047 C 549.7816514341357 138.83087439165072 552.0202276849817 136.5922981408047 554.7816514341357 136.5922981408047 C 557.5430751832897 136.5922981408047 559.7816514341357 138.83087439165072 559.7816514341357 141.5922981408047 Z" fill-opacity="1"/><path fill="none" stroke="rgb(0,0,0)" paint-order="fill stroke markers" d=" M 559.7816514341357 141.5922981408047 C 559.7816514341357 144.35372188995868 557.5430751832897 146.5922981408047 554.7816514341357 146.5922981408047 C 552.0202276849817 146.5922981408047 549.7816514341357 144.35372188995868 549.7816514341357 141.5922981408047 C 549.7816514341357 138.83087439165072 552.0202276849817 136.5922981408047 554.7816514341357 136.5922981408047 C 557.5430751832897 136.5922981408047 559.7816514341357 138.83087439165072 559.7816514341357 141.5922981408047 Z" stroke-opacity="1" stroke-linecap="round" stroke-linejoin="round" stroke-miterlimit="10"/><text fill="rgb(46,125,50)" stroke="none" font-family="geogebra-sans-serif, sans-serif" font-size="24px" font-style="normal" font-weight="normal" text-decoration="normal" x="569" y="129" text-anchor="start" dominant-baseline="alphabetic" fill-opacity="1">E</text><text fill="none" stroke="rgb(255,255,255)" font-family="geogebra-sans-serif, sans-serif" font-size="24px" font-style="normal" font-weight="normal" text-decoration="normal" x="569" y="129" text-anchor="start" dominant-baseline="alphabetic" stroke-opacity="1" stroke-linejoin="bevel" stroke-miterlimit="10" stroke-width="3">E</text><text fill="rgb(46,125,50)" stroke="none" font-family="geogebra-sans-serif, sans-serif" font-size="24px" font-style="normal" font-weight="normal" text-decoration="normal" x="569" y="129" text-anchor="start" dominant-baseline="alphabetic" fill-opacity="1">E</text></g></g></svg>