<?xml version="1.0" encoding="UTF-8"?>
<svg xmlns="http://www.w3.org/2000/svg" xmlns:xlink="http://www.w3.org/1999/xlink" width="1366pt" height="565pt" viewBox="0 0 1366 565" version="1.1">
<g id="surface1">
<path style="fill:none;stroke-width:3;stroke-linecap:round;stroke-linejoin:round;stroke:rgb(0%,0%,100%);stroke-opacity:1;stroke-miterlimit:10;" d="M 632.5 498.5 L 339.5 497.5 " transform="matrix(1,0,0,-1,0,565)"/>
<path style="fill:none;stroke-width:3;stroke-linecap:round;stroke-linejoin:round;stroke:rgb(0%,0%,100%);stroke-opacity:1;stroke-miterlimit:10;" d="M 732.75 66.871094 L 632.5 498.5 " transform="matrix(1,0,0,-1,0,565)"/>
<path style="fill:none;stroke-width:3;stroke-linecap:round;stroke-linejoin:round;stroke:rgb(0%,0%,100%);stroke-opacity:1;stroke-miterlimit:10;" d="M 339.5 497.5 L 66.910156 64.601562 " transform="matrix(1,0,0,-1,0,565)"/>
<path style="fill:none;stroke-width:3;stroke-linecap:round;stroke-linejoin:round;stroke:rgb(0%,0%,100%);stroke-opacity:1;stroke-miterlimit:10;" d="M 732.75 66.871094 L 66.910156 64.601562 " transform="matrix(1,0,0,-1,0,565)"/>
<path style="fill:none;stroke-width:3;stroke-linecap:round;stroke-linejoin:round;stroke:rgb(0%,0%,100%);stroke-opacity:1;stroke-miterlimit:10;" d="M 732.75 66.871094 L 339.5 497.5 " transform="matrix(1,0,0,-1,0,565)"/>
<path style="fill:none;stroke-width:3;stroke-linecap:round;stroke-linejoin:round;stroke:rgb(0%,0%,100%);stroke-opacity:1;stroke-miterlimit:10;" d="M 66.910156 64.601562 L 632.5 498.5 " transform="matrix(1,0,0,-1,0,565)"/>
<path style="fill:none;stroke-width:3;stroke-linecap:round;stroke-linejoin:round;stroke:rgb(0%,0%,100%);stroke-opacity:1;stroke-dasharray:15.07,15.07;stroke-miterlimit:10;" d="M 663.128906 366.601562 L 256.199219 365.210938 " transform="matrix(1,0,0,-1,0,565)"/>
<path style="fill-rule:nonzero;fill:rgb(100%,0%,0%);fill-opacity:1;stroke-width:1;stroke-linecap:square;stroke-linejoin:miter;stroke:rgb(0%,0%,0%);stroke-opacity:1;stroke-miterlimit:10;" d="M 344.5 497.5 C 344.5 494.738281 342.261719 492.5 339.5 492.5 C 336.738281 492.5 334.5 494.738281 334.5 497.5 C 334.5 500.261719 336.738281 502.5 339.5 502.5 C 342.261719 502.5 344.5 500.261719 344.5 497.5 Z M 344.5 497.5 " transform="matrix(1,0,0,-1,0,565)"/>
<path style="fill-rule:nonzero;fill:rgb(100%,0%,0%);fill-opacity:1;stroke-width:1;stroke-linecap:square;stroke-linejoin:miter;stroke:rgb(0%,0%,0%);stroke-opacity:1;stroke-miterlimit:10;" d="M 637.5 498.5 C 637.5 495.738281 635.261719 493.5 632.5 493.5 C 629.738281 493.5 627.5 495.738281 627.5 498.5 C 627.5 501.261719 629.738281 503.5 632.5 503.5 C 635.261719 503.5 637.5 501.261719 637.5 498.5 Z M 637.5 498.5 " transform="matrix(1,0,0,-1,0,565)"/>
<path style="fill-rule:nonzero;fill:rgb(100%,0%,0%);fill-opacity:1;stroke-width:1;stroke-linecap:square;stroke-linejoin:miter;stroke:rgb(0%,0%,0%);stroke-opacity:1;stroke-miterlimit:10;" d="M 737.75 66.871094 C 737.75 64.109375 735.511719 61.871094 732.75 61.871094 C 729.988281 61.871094 727.75 64.109375 727.75 66.871094 C 727.75 69.628906 729.988281 71.871094 732.75 71.871094 C 735.511719 71.871094 737.75 69.628906 737.75 66.871094 Z M 737.75 66.871094 " transform="matrix(1,0,0,-1,0,565)"/>
<path style="fill-rule:nonzero;fill:rgb(100%,0%,0%);fill-opacity:1;stroke-width:1;stroke-linecap:square;stroke-linejoin:miter;stroke:rgb(0%,0%,0%);stroke-opacity:1;stroke-miterlimit:10;" d="M 71.910156 64.601562 C 71.910156 61.839844 69.671875 59.601562 66.910156 59.601562 C 64.148438 59.601562 61.910156 61.839844 61.910156 64.601562 C 61.910156 67.359375 64.148438 69.601562 66.910156 69.601562 C 69.671875 69.601562 71.910156 67.359375 71.910156 64.601562 Z M 71.910156 64.601562 " transform="matrix(1,0,0,-1,0,565)"/>
<path style="fill-rule:nonzero;fill:rgb(69.802856%,0%,0%);fill-opacity:1;stroke-width:1;stroke-linecap:square;stroke-linejoin:miter;stroke:rgb(0%,0%,0%);stroke-opacity:1;stroke-miterlimit:10;" d="M 464.671875 365.910156 C 464.671875 363.148438 462.429688 360.910156 459.671875 360.910156 C 456.910156 360.910156 454.671875 363.148438 454.671875 365.910156 C 454.671875 368.671875 456.910156 370.910156 459.671875 370.910156 C 462.429688 370.910156 464.671875 368.671875 464.671875 365.910156 Z M 464.671875 365.910156 " transform="matrix(1,0,0,-1,0,565)"/>
<path style="fill-rule:nonzero;fill:rgb(69.802856%,0%,0%);fill-opacity:1;stroke-width:1;stroke-linecap:square;stroke-linejoin:miter;stroke:rgb(0%,0%,0%);stroke-opacity:1;stroke-miterlimit:10;" d="M 261.199219 365.210938 C 261.199219 362.449219 258.960938 360.210938 256.199219 360.210938 C 253.441406 360.210938 251.199219 362.449219 251.199219 365.210938 C 251.199219 367.980469 253.441406 370.210938 256.199219 370.210938 C 258.960938 370.210938 261.199219 367.980469 261.199219 365.210938 Z M 261.199219 365.210938 " transform="matrix(1,0,0,-1,0,565)"/>
<path style="fill-rule:nonzero;fill:rgb(69.802856%,0%,0%);fill-opacity:1;stroke-width:1;stroke-linecap:square;stroke-linejoin:miter;stroke:rgb(0%,0%,0%);stroke-opacity:1;stroke-miterlimit:10;" d="M 668.128906 366.601562 C 668.128906 363.839844 665.898438 361.601562 663.128906 361.601562 C 660.371094 361.601562 658.128906 363.839844 658.128906 366.601562 C 658.128906 369.359375 660.371094 371.601562 663.128906 371.601562 C 665.898438 371.601562 668.128906 369.359375 668.128906 366.601562 Z M 668.128906 366.601562 " transform="matrix(1,0,0,-1,0,565)"/>
<path style=" stroke:none;fill-rule:nonzero;fill:rgb(0%,0%,0%);fill-opacity:1;" d="M 319.25 28.050781 L 315.230469 38.921875 L 323.28125 38.921875 Z M 317.578125 25.121094 L 320.941406 25.121094 L 329.28125 47 L 326.199219 47 L 324.199219 41.390625 L 314.339844 41.390625 L 312.359375 47 L 309.230469 47 Z M 317.578125 25.121094 "/>
<path style=" stroke:none;fill-rule:nonzero;fill:rgb(0%,0%,0%);fill-opacity:1;" d="M 650.910156 43.558594 L 650.910156 51.558594 L 655.660156 51.558594 C 655.660156 51.558594 658.03125 51.558594 659.191406 50.578125 C 659.191406 50.578125 660.339844 49.589844 660.339844 47.550781 C 660.339844 47.550781 660.339844 45.5 659.191406 44.53125 C 659.191406 44.53125 658.03125 43.558594 655.660156 43.558594 Z M 650.910156 34.558594 L 650.910156 41.160156 L 655.28125 41.160156 C 655.28125 41.160156 657.449219 41.160156 658.519531 40.339844 C 658.519531 40.339844 659.578125 39.53125 659.578125 37.859375 C 659.578125 37.859375 659.578125 36.199219 658.519531 35.390625 C 658.519531 35.390625 657.449219 34.558594 655.28125 34.558594 Z M 647.941406 32.121094 L 655.5 32.121094 C 655.5 32.121094 658.890625 32.121094 660.71875 33.53125 C 660.71875 33.53125 662.550781 34.941406 662.550781 37.53125 C 662.550781 37.53125 662.550781 39.550781 661.609375 40.730469 C 661.609375 40.730469 660.671875 41.921875 658.859375 42.199219 C 658.859375 42.199219 661.050781 42.671875 662.25 44.171875 C 662.25 44.171875 663.449219 45.660156 663.449219 47.871094 C 663.449219 47.871094 663.449219 50.808594 661.449219 52.410156 C 661.449219 52.410156 659.46875 54 655.800781 54 L 647.941406 54 Z M 647.941406 32.121094 "/>
<path style=" stroke:none;fill-rule:nonzero;fill:rgb(0%,0%,0%);fill-opacity:1;" d="M 770.328125 498.808594 L 770.328125 501.941406 C 770.328125 501.941406 768.828125 500.550781 767.128906 499.859375 C 767.128906 499.859375 765.441406 499.171875 763.550781 499.171875 C 763.550781 499.171875 759.800781 499.171875 757.800781 501.46875 C 757.800781 501.46875 755.808594 503.75 755.808594 508.089844 C 755.808594 508.089844 755.808594 512.410156 757.800781 514.699219 C 757.800781 514.699219 759.800781 517 763.550781 517 C 763.550781 517 765.441406 517 767.128906 516.308594 C 767.128906 516.308594 768.828125 515.609375 770.328125 514.21875 L 770.328125 517.308594 C 770.328125 517.308594 768.769531 518.371094 767.03125 518.910156 C 767.03125 518.910156 765.300781 519.421875 763.359375 519.421875 C 763.359375 519.421875 758.390625 519.421875 755.53125 516.390625 C 755.53125 516.390625 752.691406 513.339844 752.691406 508.089844 C 752.691406 508.089844 752.691406 502.808594 755.53125 499.78125 C 755.53125 499.78125 758.390625 496.730469 763.359375 496.730469 C 763.359375 496.730469 765.328125 496.730469 767.058594 497.269531 C 767.058594 497.269531 768.800781 497.78125 770.328125 498.808594 Z M 770.328125 498.808594 "/>
<path style=" stroke:none;fill-rule:nonzero;fill:rgb(0%,0%,0%);fill-opacity:1;" d="M 34.910156 508.558594 L 34.910156 525.558594 L 38.480469 525.558594 C 38.480469 525.558594 43 525.558594 45.089844 523.519531 C 45.089844 523.519531 47.199219 521.46875 47.199219 517.050781 C 47.199219 517.050781 47.199219 512.640625 45.089844 510.609375 C 45.089844 510.609375 43 508.558594 38.480469 508.558594 Z M 31.941406 506.121094 L 38.03125 506.121094 C 38.03125 506.121094 44.378906 506.121094 47.339844 508.78125 C 47.339844 508.78125 50.328125 511.421875 50.328125 517.050781 C 50.328125 517.050781 50.328125 522.699219 47.339844 525.359375 C 47.339844 525.359375 44.359375 528 38.03125 528 L 31.941406 528 Z M 31.941406 506.121094 "/>
<path style=" stroke:none;fill-rule:nonzero;fill:rgb(0%,0%,0%);fill-opacity:1;" d="M 455.828125 228.140625 C 455.828125 228.140625 452.589844 228.140625 450.699219 230.550781 C 450.699219 230.550781 448.808594 232.941406 448.808594 237.089844 C 448.808594 237.089844 448.808594 241.21875 450.699219 243.621094 C 450.699219 243.621094 452.589844 246.019531 455.828125 246.019531 C 455.828125 246.019531 459.050781 246.019531 460.921875 243.621094 C 460.921875 243.621094 462.808594 241.21875 462.808594 237.089844 C 462.808594 237.089844 462.808594 232.941406 460.921875 230.550781 C 460.921875 230.550781 459.050781 228.140625 455.828125 228.140625 Z M 455.828125 225.730469 C 455.828125 225.730469 460.421875 225.730469 463.171875 228.828125 C 463.171875 228.828125 465.921875 231.910156 465.921875 237.089844 C 465.921875 237.089844 465.921875 242.25 463.171875 245.339844 C 463.171875 245.339844 460.421875 248.421875 455.828125 248.421875 C 455.828125 248.421875 451.199219 248.421875 448.441406 245.339844 C 448.441406 245.339844 445.691406 242.269531 445.691406 237.089844 C 445.691406 237.089844 445.691406 231.910156 448.441406 228.828125 C 448.441406 228.828125 451.199219 225.730469 455.828125 225.730469 Z M 455.828125 225.730469 "/>
<path style=" stroke:none;fill-rule:nonzero;fill:rgb(0%,0%,0%);fill-opacity:1;" d="M 216.941406 186.121094 L 230.769531 186.121094 L 230.769531 188.621094 L 219.910156 188.621094 L 219.910156 195.089844 L 230.308594 195.089844 L 230.308594 197.578125 L 219.910156 197.578125 L 219.910156 205.519531 L 231.03125 205.519531 L 231.03125 208 L 216.941406 208 Z M 216.941406 186.121094 "/>
<path style=" stroke:none;fill-rule:nonzero;fill:rgb(0%,0%,0%);fill-opacity:1;" d="M 682.941406 188.121094 L 695.519531 188.121094 L 695.519531 190.621094 L 685.910156 190.621094 L 685.910156 197.058594 L 694.578125 197.058594 L 694.578125 199.558594 L 685.910156 199.558594 L 685.910156 210 L 682.941406 210 Z M 682.941406 188.121094 "/>
</g>
</svg>
