<?xml version="1.0" encoding="UTF-8"?>
<svg xmlns="http://www.w3.org/2000/svg" xmlns:xlink="http://www.w3.org/1999/xlink" width="1366pt" height="565pt" viewBox="0 0 1366 565" version="1.1">
<g id="surface1">
<path style="fill:none;stroke-width:1;stroke-linecap:square;stroke-linejoin:miter;stroke:rgb(89.411926%,89.411926%,89.411926%);stroke-opacity:1;stroke-miterlimit:10;" d="M 25 565 L 25 0 " transform="matrix(1,0,0,-1,0,565)"/>
<path style="fill:none;stroke-width:1;stroke-linecap:square;stroke-linejoin:miter;stroke:rgb(89.411926%,89.411926%,89.411926%);stroke-opacity:1;stroke-miterlimit:10;" d="M 65 565 L 65 0 " transform="matrix(1,0,0,-1,0,565)"/>
<path style="fill:none;stroke-width:1;stroke-linecap:square;stroke-linejoin:miter;stroke:rgb(89.411926%,89.411926%,89.411926%);stroke-opacity:1;stroke-miterlimit:10;" d="M 104 565 L 104 0 " transform="matrix(1,0,0,-1,0,565)"/>
<path style="fill:none;stroke-width:1;stroke-linecap:square;stroke-linejoin:miter;stroke:rgb(89.411926%,89.411926%,89.411926%);stroke-opacity:1;stroke-miterlimit:10;" d="M 144 565 L 144 0 " transform="matrix(1,0,0,-1,0,565)"/>
<path style="fill:none;stroke-width:1;stroke-linecap:square;stroke-linejoin:miter;stroke:rgb(89.411926%,89.411926%,89.411926%);stroke-opacity:1;stroke-miterlimit:10;" d="M 184 565 L 184 0 " transform="matrix(1,0,0,-1,0,565)"/>
<path style="fill:none;stroke-width:1;stroke-linecap:square;stroke-linejoin:miter;stroke:rgb(89.411926%,89.411926%,89.411926%);stroke-opacity:1;stroke-miterlimit:10;" d="M 224 565 L 224 0 " transform="matrix(1,0,0,-1,0,565)"/>
<path style="fill:none;stroke-width:1;stroke-linecap:square;stroke-linejoin:miter;stroke:rgb(89.411926%,89.411926%,89.411926%);stroke-opacity:1;stroke-miterlimit:10;" d="M 263 565 L 263 0 " transform="matrix(1,0,0,-1,0,565)"/>
<path style="fill:none;stroke-width:1;stroke-linecap:square;stroke-linejoin:miter;stroke:rgb(89.411926%,89.411926%,89.411926%);stroke-opacity:1;stroke-miterlimit:10;" d="M 303 565 L 303 0 " transform="matrix(1,0,0,-1,0,565)"/>
<path style="fill:none;stroke-width:1;stroke-linecap:square;stroke-linejoin:miter;stroke:rgb(89.411926%,89.411926%,89.411926%);stroke-opacity:1;stroke-miterlimit:10;" d="M 343 565 L 343 0 " transform="matrix(1,0,0,-1,0,565)"/>
<path style="fill:none;stroke-width:1;stroke-linecap:square;stroke-linejoin:miter;stroke:rgb(89.411926%,89.411926%,89.411926%);stroke-opacity:1;stroke-miterlimit:10;" d="M 383 565 L 383 0 " transform="matrix(1,0,0,-1,0,565)"/>
<path style="fill:none;stroke-width:1;stroke-linecap:square;stroke-linejoin:miter;stroke:rgb(89.411926%,89.411926%,89.411926%);stroke-opacity:1;stroke-miterlimit:10;" d="M 422 565 L 422 0 " transform="matrix(1,0,0,-1,0,565)"/>
<path style="fill:none;stroke-width:1;stroke-linecap:square;stroke-linejoin:miter;stroke:rgb(89.411926%,89.411926%,89.411926%);stroke-opacity:1;stroke-miterlimit:10;" d="M 462 565 L 462 0 " transform="matrix(1,0,0,-1,0,565)"/>
<path style="fill:none;stroke-width:1;stroke-linecap:square;stroke-linejoin:miter;stroke:rgb(89.411926%,89.411926%,89.411926%);stroke-opacity:1;stroke-miterlimit:10;" d="M 502 565 L 502 0 " transform="matrix(1,0,0,-1,0,565)"/>
<path style="fill:none;stroke-width:1;stroke-linecap:square;stroke-linejoin:miter;stroke:rgb(89.411926%,89.411926%,89.411926%);stroke-opacity:1;stroke-miterlimit:10;" d="M 541 565 L 541 0 " transform="matrix(1,0,0,-1,0,565)"/>
<path style="fill:none;stroke-width:1;stroke-linecap:square;stroke-linejoin:miter;stroke:rgb(89.411926%,89.411926%,89.411926%);stroke-opacity:1;stroke-miterlimit:10;" d="M 581 565 L 581 0 " transform="matrix(1,0,0,-1,0,565)"/>
<path style="fill:none;stroke-width:1;stroke-linecap:square;stroke-linejoin:miter;stroke:rgb(89.411926%,89.411926%,89.411926%);stroke-opacity:1;stroke-miterlimit:10;" d="M 621 565 L 621 0 " transform="matrix(1,0,0,-1,0,565)"/>
<path style="fill:none;stroke-width:1;stroke-linecap:square;stroke-linejoin:miter;stroke:rgb(89.411926%,89.411926%,89.411926%);stroke-opacity:1;stroke-miterlimit:10;" d="M 661 565 L 661 0 " transform="matrix(1,0,0,-1,0,565)"/>
<path style="fill:none;stroke-width:1;stroke-linecap:square;stroke-linejoin:miter;stroke:rgb(89.411926%,89.411926%,89.411926%);stroke-opacity:1;stroke-miterlimit:10;" d="M 700 565 L 700 0 " transform="matrix(1,0,0,-1,0,565)"/>
<path style="fill:none;stroke-width:1;stroke-linecap:square;stroke-linejoin:miter;stroke:rgb(89.411926%,89.411926%,89.411926%);stroke-opacity:1;stroke-miterlimit:10;" d="M 740 565 L 740 0 " transform="matrix(1,0,0,-1,0,565)"/>
<path style="fill:none;stroke-width:1;stroke-linecap:square;stroke-linejoin:miter;stroke:rgb(89.411926%,89.411926%,89.411926%);stroke-opacity:1;stroke-miterlimit:10;" d="M 780 565 L 780 0 " transform="matrix(1,0,0,-1,0,565)"/>
<path style="fill:none;stroke-width:1;stroke-linecap:square;stroke-linejoin:miter;stroke:rgb(89.411926%,89.411926%,89.411926%);stroke-opacity:1;stroke-miterlimit:10;" d="M 820 565 L 820 0 " transform="matrix(1,0,0,-1,0,565)"/>
<path style="fill:none;stroke-width:1;stroke-linecap:square;stroke-linejoin:miter;stroke:rgb(89.411926%,89.411926%,89.411926%);stroke-opacity:1;stroke-miterlimit:10;" d="M 859 565 L 859 0 " transform="matrix(1,0,0,-1,0,565)"/>
<path style="fill:none;stroke-width:1;stroke-linecap:square;stroke-linejoin:miter;stroke:rgb(89.411926%,89.411926%,89.411926%);stroke-opacity:1;stroke-miterlimit:10;" d="M 899 565 L 899 0 " transform="matrix(1,0,0,-1,0,565)"/>
<path style="fill:none;stroke-width:1;stroke-linecap:square;stroke-linejoin:miter;stroke:rgb(89.411926%,89.411926%,89.411926%);stroke-opacity:1;stroke-miterlimit:10;" d="M 939 565 L 939 0 " transform="matrix(1,0,0,-1,0,565)"/>
<path style="fill:none;stroke-width:1;stroke-linecap:square;stroke-linejoin:miter;stroke:rgb(89.411926%,89.411926%,89.411926%);stroke-opacity:1;stroke-miterlimit:10;" d="M 978 565 L 978 0 " transform="matrix(1,0,0,-1,0,565)"/>
<path style="fill:none;stroke-width:1;stroke-linecap:square;stroke-linejoin:miter;stroke:rgb(89.411926%,89.411926%,89.411926%);stroke-opacity:1;stroke-miterlimit:10;" d="M 1018 565 L 1018 0 " transform="matrix(1,0,0,-1,0,565)"/>
<path style="fill:none;stroke-width:1;stroke-linecap:square;stroke-linejoin:miter;stroke:rgb(89.411926%,89.411926%,89.411926%);stroke-opacity:1;stroke-miterlimit:10;" d="M 1058 565 L 1058 0 " transform="matrix(1,0,0,-1,0,565)"/>
<path style="fill:none;stroke-width:1;stroke-linecap:square;stroke-linejoin:miter;stroke:rgb(89.411926%,89.411926%,89.411926%);stroke-opacity:1;stroke-miterlimit:10;" d="M 1098 565 L 1098 0 " transform="matrix(1,0,0,-1,0,565)"/>
<path style="fill:none;stroke-width:1;stroke-linecap:square;stroke-linejoin:miter;stroke:rgb(89.411926%,89.411926%,89.411926%);stroke-opacity:1;stroke-miterlimit:10;" d="M 1137 565 L 1137 0 " transform="matrix(1,0,0,-1,0,565)"/>
<path style="fill:none;stroke-width:1;stroke-linecap:square;stroke-linejoin:miter;stroke:rgb(89.411926%,89.411926%,89.411926%);stroke-opacity:1;stroke-miterlimit:10;" d="M 1177 565 L 1177 0 " transform="matrix(1,0,0,-1,0,565)"/>
<path style="fill:none;stroke-width:1;stroke-linecap:square;stroke-linejoin:miter;stroke:rgb(89.411926%,89.411926%,89.411926%);stroke-opacity:1;stroke-miterlimit:10;" d="M 1217 565 L 1217 0 " transform="matrix(1,0,0,-1,0,565)"/>
<path style="fill:none;stroke-width:1;stroke-linecap:square;stroke-linejoin:miter;stroke:rgb(89.411926%,89.411926%,89.411926%);stroke-opacity:1;stroke-miterlimit:10;" d="M 1257 565 L 1257 0 " transform="matrix(1,0,0,-1,0,565)"/>
<path style="fill:none;stroke-width:1;stroke-linecap:square;stroke-linejoin:miter;stroke:rgb(89.411926%,89.411926%,89.411926%);stroke-opacity:1;stroke-miterlimit:10;" d="M 1296 565 L 1296 0 " transform="matrix(1,0,0,-1,0,565)"/>
<path style="fill:none;stroke-width:1;stroke-linecap:square;stroke-linejoin:miter;stroke:rgb(89.411926%,89.411926%,89.411926%);stroke-opacity:1;stroke-miterlimit:10;" d="M 1336 565 L 1336 0 " transform="matrix(1,0,0,-1,0,565)"/>
<path style="fill:none;stroke-width:1;stroke-linecap:square;stroke-linejoin:miter;stroke:rgb(89.411926%,89.411926%,89.411926%);stroke-opacity:1;stroke-miterlimit:10;" d="M 0 547 L 1366 547 " transform="matrix(1,0,0,-1,0,565)"/>
<path style="fill:none;stroke-width:1;stroke-linecap:square;stroke-linejoin:miter;stroke:rgb(89.411926%,89.411926%,89.411926%);stroke-opacity:1;stroke-miterlimit:10;" d="M 0 507 L 1366 507 " transform="matrix(1,0,0,-1,0,565)"/>
<path style="fill:none;stroke-width:1;stroke-linecap:square;stroke-linejoin:miter;stroke:rgb(89.411926%,89.411926%,89.411926%);stroke-opacity:1;stroke-miterlimit:10;" d="M 0 468 L 1366 468 " transform="matrix(1,0,0,-1,0,565)"/>
<path style="fill:none;stroke-width:1;stroke-linecap:square;stroke-linejoin:miter;stroke:rgb(89.411926%,89.411926%,89.411926%);stroke-opacity:1;stroke-miterlimit:10;" d="M 0 428 L 1366 428 " transform="matrix(1,0,0,-1,0,565)"/>
<path style="fill:none;stroke-width:1;stroke-linecap:square;stroke-linejoin:miter;stroke:rgb(89.411926%,89.411926%,89.411926%);stroke-opacity:1;stroke-miterlimit:10;" d="M 0 388 L 1366 388 " transform="matrix(1,0,0,-1,0,565)"/>
<path style="fill:none;stroke-width:1;stroke-linecap:square;stroke-linejoin:miter;stroke:rgb(89.411926%,89.411926%,89.411926%);stroke-opacity:1;stroke-miterlimit:10;" d="M 0 348 L 1366 348 " transform="matrix(1,0,0,-1,0,565)"/>
<path style="fill:none;stroke-width:1;stroke-linecap:square;stroke-linejoin:miter;stroke:rgb(89.411926%,89.411926%,89.411926%);stroke-opacity:1;stroke-miterlimit:10;" d="M 0 309 L 1366 309 " transform="matrix(1,0,0,-1,0,565)"/>
<path style="fill:none;stroke-width:1;stroke-linecap:square;stroke-linejoin:miter;stroke:rgb(89.411926%,89.411926%,89.411926%);stroke-opacity:1;stroke-miterlimit:10;" d="M 0 269 L 1366 269 " transform="matrix(1,0,0,-1,0,565)"/>
<path style="fill:none;stroke-width:1;stroke-linecap:square;stroke-linejoin:miter;stroke:rgb(89.411926%,89.411926%,89.411926%);stroke-opacity:1;stroke-miterlimit:10;" d="M 0 229 L 1366 229 " transform="matrix(1,0,0,-1,0,565)"/>
<path style="fill:none;stroke-width:1;stroke-linecap:square;stroke-linejoin:miter;stroke:rgb(89.411926%,89.411926%,89.411926%);stroke-opacity:1;stroke-miterlimit:10;" d="M 0 189 L 1366 189 " transform="matrix(1,0,0,-1,0,565)"/>
<path style="fill:none;stroke-width:1;stroke-linecap:square;stroke-linejoin:miter;stroke:rgb(89.411926%,89.411926%,89.411926%);stroke-opacity:1;stroke-miterlimit:10;" d="M 0 150 L 1366 150 " transform="matrix(1,0,0,-1,0,565)"/>
<path style="fill:none;stroke-width:1;stroke-linecap:square;stroke-linejoin:miter;stroke:rgb(89.411926%,89.411926%,89.411926%);stroke-opacity:1;stroke-miterlimit:10;" d="M 0 110 L 1366 110 " transform="matrix(1,0,0,-1,0,565)"/>
<path style="fill:none;stroke-width:1;stroke-linecap:square;stroke-linejoin:miter;stroke:rgb(89.411926%,89.411926%,89.411926%);stroke-opacity:1;stroke-miterlimit:10;" d="M 0 70 L 1366 70 " transform="matrix(1,0,0,-1,0,565)"/>
<path style="fill:none;stroke-width:1;stroke-linecap:square;stroke-linejoin:miter;stroke:rgb(89.411926%,89.411926%,89.411926%);stroke-opacity:1;stroke-miterlimit:10;" d="M 0 31 L 1366 31 " transform="matrix(1,0,0,-1,0,565)"/>
<path style="fill:none;stroke-width:1;stroke-linecap:square;stroke-linejoin:miter;stroke:rgb(79.606628%,79.606628%,79.606628%);stroke-opacity:1;stroke-miterlimit:10;" d="M 661 564 L 661 0 " transform="matrix(1,0,0,-1,0,565)"/>
<path style="fill:none;stroke-width:1;stroke-linecap:square;stroke-linejoin:miter;stroke:rgb(79.606628%,79.606628%,79.606628%);stroke-opacity:1;stroke-miterlimit:10;" d="M 660 564 L 660 0 " transform="matrix(1,0,0,-1,0,565)"/>
<path style="fill:none;stroke-width:1;stroke-linecap:square;stroke-linejoin:miter;stroke:rgb(79.606628%,79.606628%,79.606628%);stroke-opacity:1;stroke-miterlimit:10;" d="M 662 564 L 662 0 " transform="matrix(1,0,0,-1,0,565)"/>
<path style="fill:none;stroke-width:1;stroke-linecap:square;stroke-linejoin:miter;stroke:rgb(79.606628%,79.606628%,79.606628%);stroke-opacity:1;stroke-miterlimit:10;" d="M 656 560 L 661 565 " transform="matrix(1,0,0,-1,0,565)"/>
<path style="fill:none;stroke-width:1;stroke-linecap:square;stroke-linejoin:miter;stroke:rgb(79.606628%,79.606628%,79.606628%);stroke-opacity:1;stroke-miterlimit:10;" d="M 666 560 L 661 565 " transform="matrix(1,0,0,-1,0,565)"/>
<path style="fill:none;stroke-width:1;stroke-linecap:square;stroke-linejoin:miter;stroke:rgb(79.606628%,79.606628%,79.606628%);stroke-opacity:1;stroke-miterlimit:10;" d="M 656 559 L 661 564 " transform="matrix(1,0,0,-1,0,565)"/>
<path style="fill:none;stroke-width:1;stroke-linecap:square;stroke-linejoin:miter;stroke:rgb(79.606628%,79.606628%,79.606628%);stroke-opacity:1;stroke-miterlimit:10;" d="M 666 559 L 661 564 " transform="matrix(1,0,0,-1,0,565)"/>
<path style="fill:none;stroke-width:1;stroke-linecap:square;stroke-linejoin:miter;stroke:rgb(79.606628%,79.606628%,79.606628%);stroke-opacity:1;stroke-miterlimit:10;" d="M 0 110 L 1365 110 " transform="matrix(1,0,0,-1,0,565)"/>
<path style="fill:none;stroke-width:1;stroke-linecap:square;stroke-linejoin:miter;stroke:rgb(79.606628%,79.606628%,79.606628%);stroke-opacity:1;stroke-miterlimit:10;" d="M 0 111 L 1365 111 " transform="matrix(1,0,0,-1,0,565)"/>
<path style="fill:none;stroke-width:1;stroke-linecap:square;stroke-linejoin:miter;stroke:rgb(79.606628%,79.606628%,79.606628%);stroke-opacity:1;stroke-miterlimit:10;" d="M 0 109 L 1365 109 " transform="matrix(1,0,0,-1,0,565)"/>
<path style="fill:none;stroke-width:1;stroke-linecap:square;stroke-linejoin:miter;stroke:rgb(79.606628%,79.606628%,79.606628%);stroke-opacity:1;stroke-miterlimit:10;" d="M 1361 115 L 1366 110 " transform="matrix(1,0,0,-1,0,565)"/>
<path style="fill:none;stroke-width:1;stroke-linecap:square;stroke-linejoin:miter;stroke:rgb(79.606628%,79.606628%,79.606628%);stroke-opacity:1;stroke-miterlimit:10;" d="M 1361 105 L 1366 110 " transform="matrix(1,0,0,-1,0,565)"/>
<path style="fill:none;stroke-width:1;stroke-linecap:square;stroke-linejoin:miter;stroke:rgb(79.606628%,79.606628%,79.606628%);stroke-opacity:1;stroke-miterlimit:10;" d="M 1360 115 L 1365 110 " transform="matrix(1,0,0,-1,0,565)"/>
<path style="fill:none;stroke-width:1;stroke-linecap:square;stroke-linejoin:miter;stroke:rgb(79.606628%,79.606628%,79.606628%);stroke-opacity:1;stroke-miterlimit:10;" d="M 1360 105 L 1365 110 " transform="matrix(1,0,0,-1,0,565)"/>
<path style="fill:none;stroke-width:1;stroke-linecap:square;stroke-linejoin:miter;stroke:rgb(59.606934%,59.606934%,59.606934%);stroke-opacity:1;stroke-miterlimit:10;" d="M 1296 31 L 1335 31 " transform="matrix(1,0,0,-1,0,565)"/>
<path style="fill:none;stroke-width:1;stroke-linecap:square;stroke-linejoin:miter;stroke:rgb(59.606934%,59.606934%,59.606934%);stroke-opacity:1;stroke-miterlimit:10;" d="M 1296 30 L 1335 30 " transform="matrix(1,0,0,-1,0,565)"/>
<path style="fill:none;stroke-width:1;stroke-linecap:square;stroke-linejoin:miter;stroke:rgb(59.606934%,59.606934%,59.606934%);stroke-opacity:1;stroke-miterlimit:10;" d="M 1296 32 L 1335 32 " transform="matrix(1,0,0,-1,0,565)"/>
<path style="fill:none;stroke-width:1;stroke-linecap:square;stroke-linejoin:miter;stroke:rgb(59.606934%,59.606934%,59.606934%);stroke-opacity:1;stroke-miterlimit:10;" d="M 1296 34 L 1296 28 " transform="matrix(1,0,0,-1,0,565)"/>
<path style="fill:none;stroke-width:1;stroke-linecap:square;stroke-linejoin:miter;stroke:rgb(59.606934%,59.606934%,59.606934%);stroke-opacity:1;stroke-miterlimit:10;" d="M 1335 34 L 1335 28 " transform="matrix(1,0,0,-1,0,565)"/>
<path style=" stroke:none;fill-rule:nonzero;fill:rgb(59.606934%,59.606934%,59.606934%);fill-opacity:1;" d="M 1316.480469 530 L 1318.421875 530 L 1318.421875 523.328125 L 1316.308594 523.75 L 1316.308594 522.671875 L 1318.410156 522.25 L 1319.589844 522.25 L 1319.589844 530 L 1321.53125 530 L 1321.53125 531 L 1316.480469 531 Z M 1323.921875 529.519531 L 1325.148438 529.519531 L 1325.148438 531 L 1323.921875 531 Z M 1330.261719 523.03125 C 1330.261719 523.03125 1329.359375 523.03125 1328.890625 523.941406 C 1328.890625 523.941406 1328.429688 524.828125 1328.429688 526.640625 C 1328.429688 526.640625 1328.429688 528.441406 1328.890625 529.339844 C 1328.890625 529.339844 1329.359375 530.230469 1330.261719 530.230469 C 1330.261719 530.230469 1331.179688 530.230469 1331.640625 529.339844 C 1331.640625 529.339844 1332.109375 528.441406 1332.109375 526.640625 C 1332.109375 526.640625 1332.109375 524.828125 1331.640625 523.941406 C 1331.640625 523.941406 1331.179688 523.03125 1330.261719 523.03125 Z M 1330.261719 522.089844 C 1330.261719 522.089844 1331.730469 522.089844 1332.511719 523.269531 C 1332.511719 523.269531 1333.289062 524.421875 1333.289062 526.640625 C 1333.289062 526.640625 1333.289062 528.839844 1332.511719 530.019531 C 1332.511719 530.019531 1331.730469 531.171875 1330.261719 531.171875 C 1330.261719 531.171875 1328.789062 531.171875 1328.011719 530.019531 C 1328.011719 530.019531 1327.25 528.839844 1327.25 526.640625 C 1327.25 526.640625 1327.25 524.421875 1328.011719 523.269531 C 1328.011719 523.269531 1328.789062 522.089844 1330.261719 522.089844 Z M 1330.261719 522.089844 "/>
<path style="fill:none;stroke-width:3;stroke-linecap:round;stroke-linejoin:round;stroke:rgb(0%,0%,100%);stroke-opacity:1;stroke-miterlimit:10;" d="M 928.050781 565.5 L 398.949219 -1.5 " transform="matrix(1,0,0,-1,0,565)"/>
<path style="fill-rule:nonzero;fill:rgb(100%,0%,0%);fill-opacity:1;stroke-width:1;stroke-linecap:square;stroke-linejoin:miter;stroke:rgb(0%,0%,0%);stroke-opacity:1;stroke-miterlimit:10;" d="M 459.308594 57.820312 C 459.308594 55.058594 457.070312 52.820312 454.308594 52.820312 C 451.550781 52.820312 449.308594 55.058594 449.308594 57.820312 C 449.308594 60.578125 451.550781 62.820312 454.308594 62.820312 C 457.070312 62.820312 459.308594 60.578125 459.308594 57.820312 Z M 459.308594 57.820312 " transform="matrix(1,0,0,-1,0,565)"/>
<path style="fill-rule:nonzero;fill:rgb(100%,0%,0%);fill-opacity:1;stroke-width:1;stroke-linecap:square;stroke-linejoin:miter;stroke:rgb(0%,0%,0%);stroke-opacity:1;stroke-miterlimit:10;" d="M 877.691406 506.179688 C 877.691406 503.421875 875.449219 501.179688 872.691406 501.179688 C 869.929688 501.179688 867.691406 503.421875 867.691406 506.179688 C 867.691406 508.941406 869.929688 511.179688 872.691406 511.179688 C 875.449219 511.179688 877.691406 508.941406 877.691406 506.179688 Z M 877.691406 506.179688 " transform="matrix(1,0,0,-1,0,565)"/>
<path style=" stroke:none;fill-rule:nonzero;fill:rgb(0%,0%,0%);fill-opacity:1;" d="M 811.78125 267.691406 C 812.550781 267.691406 813.199219 267.078125 813.199219 266.390625 C 813.199219 266 812.941406 265.519531 812.671875 265.371094 C 812.671875 265.199219 813.878906 265.140625 814.160156 265.140625 C 815.359375 265.140625 816.03125 265.808594 816.339844 266.839844 C 816.46875 267.160156 816.480469 267.441406 816.480469 268.050781 L 816.480469 268.558594 L 816.300781 268.558594 C 814.558594 268.660156 813.269531 268.921875 812.128906 269.449219 C 811.519531 269.71875 811.050781 269.949219 810.628906 270.371094 C 810.128906 270.871094 809.671875 271.550781 809.671875 272.441406 C 809.671875 272.75 809.75 273.058594 809.859375 273.339844 C 810.308594 274.519531 811.921875 275.269531 813.558594 275.269531 C 814.589844 275.269531 815.628906 274.921875 816.390625 274.28125 C 816.578125 274.109375 816.828125 273.78125 816.75 273.839844 L 816.75 273.699219 C 816.96875 274.46875 817.769531 275.140625 818.589844 275.140625 C 819.691406 275.140625 820.609375 274.449219 820.878906 273.578125 C 820.921875 273.421875 820.921875 273.371094 820.949219 272.449219 L 820.949219 271.519531 L 819.730469 271.519531 L 819.730469 272.390625 C 819.730469 273.308594 819.730469 273.46875 819.609375 273.699219 L 819.578125 273.699219 C 819.480469 273.921875 819.46875 274.050781 819.269531 274.050781 C 819.078125 274.050781 819.019531 273.921875 818.910156 273.699219 L 818.890625 273.699219 C 818.75 273.421875 818.769531 273.480469 818.769531 270.339844 C 818.769531 267.21875 818.769531 267.269531 818.628906 266.839844 C 818.140625 265.300781 816.378906 264.25 814.230469 264.25 C 812.449219 264.25 810.96875 264.75 810.558594 265.609375 C 810.441406 265.871094 810.378906 266.140625 810.378906 266.390625 C 810.378906 267.078125 811.019531 267.691406 811.78125 267.691406 Z M 816.480469 270.800781 C 816.46875 272.140625 816.46875 272.21875 816.421875 272.390625 C 816.160156 273.441406 815.339844 274.371094 814.019531 274.371094 C 812.890625 274.371094 812.140625 273.53125 812.140625 272.449219 C 812.140625 272.078125 812.21875 271.691406 812.390625 271.371094 C 812.980469 270.25 814.328125 269.578125 816.578125 269.441406 C 816.628906 269.410156 816.699219 269.410156 816.699219 269.410156 L 816.609375 269.410156 C 816.628906 269.410156 816.480469 270.03125 816.480469 270.800781 Z M 816.480469 270.800781 "/>
<path style=" stroke:none;fill-rule:nonzero;fill:rgb(0%,0%,0%);fill-opacity:1;" d="M 822.980469 274.28125 C 823.640625 274.28125 824.199219 273.699219 824.199219 273.121094 C 824.199219 272.558594 823.691406 271.96875 823.050781 271.96875 C 823 271.96875 823.109375 272.050781 823.109375 272.03125 C 823.109375 272.019531 823.140625 271.921875 823.21875 271.78125 C 823.609375 271.199219 824 270.859375 824.808594 270.859375 C 826.359375 270.859375 827.019531 272.058594 827.019531 273.578125 C 827.019531 274.621094 826.671875 275.449219 825.859375 276.550781 C 825.46875 277.050781 825.378906 277.171875 823.339844 279.421875 C 822.53125 280.339844 821.839844 281.121094 821.828125 281.140625 C 821.800781 281.191406 821.730469 281.28125 821.730469 281.589844 L 821.730469 282 L 828.71875 282 L 828.71875 281.839844 C 828.71875 281.808594 829.128906 278.730469 829.21875 278.550781 L 829.21875 278.449219 L 828.199219 278.449219 L 828.199219 278.578125 C 828.058594 279.390625 828.03125 279.550781 827.949219 279.800781 C 827.890625 279.980469 827.980469 280.089844 827.730469 280.191406 C 827.71875 280.199219 826.730469 280.199219 824.921875 280.199219 L 823.769531 280.199219 L 824.699219 279.300781 C 825.941406 278.121094 825.878906 278.191406 826.519531 277.640625 C 827.699219 276.621094 828.160156 276.121094 828.550781 275.578125 C 828.96875 274.941406 829.21875 274.339844 829.21875 273.558594 C 829.21875 273.339844 829.199219 273.121094 829.191406 272.96875 C 828.890625 271.199219 827.339844 269.871094 825.230469 269.871094 C 823.390625 269.871094 821.730469 271.371094 821.730469 273.089844 C 821.730469 273.699219 822.300781 274.28125 822.980469 274.28125 Z M 822.980469 274.28125 "/>
<path style=" stroke:none;fill-rule:nonzero;fill:rgb(0%,0%,0%);fill-opacity:1;" d="M 834.828125 275 L 835.109375 275 L 835.109375 274.449219 C 835.109375 273.921875 834.980469 273.890625 834.941406 273.890625 C 834.609375 273.890625 834.46875 273.578125 834.46875 273.25 C 834.46875 273.121094 834.46875 273.019531 834.53125 272.890625 C 834.609375 272.769531 836.050781 270.828125 835.949219 270.871094 L 836.859375 272.121094 C 837.519531 273.019531 837.800781 273.46875 837.800781 273.480469 C 837.800781 273.691406 837.519531 273.890625 837.160156 273.890625 L 836.941406 273.890625 L 836.941406 275 L 837.300781 275 C 837.578125 274.949219 839.410156 274.921875 839.941406 274.921875 C 840.421875 274.921875 842 274.921875 842.230469 275 L 842.5 275 L 842.5 273.890625 L 841.96875 273.890625 C 841.109375 273.890625 840.660156 273.890625 840.300781 273.53125 C 840.21875 273.46875 839.5 272.480469 838.691406 271.371094 L 837.199219 269.339844 L 837.578125 268.828125 C 837.78125 268.558594 838.199219 268.019531 838.5 267.609375 C 839.230469 266.640625 839.359375 266.410156 839.859375 266.171875 L 839.949219 266.171875 C 840.421875 265.921875 841.160156 265.769531 841.808594 265.769531 L 842.089844 265.769531 L 842.089844 264.660156 L 841.828125 264.660156 C 841.609375 264.730469 840.21875 264.730469 839.800781 264.730469 C 839.339844 264.730469 837.628906 264.699219 837.421875 264.660156 L 837.109375 264.660156 L 837.109375 265.769531 L 837.25 265.769531 C 837.300781 265.78125 837.421875 265.808594 837.480469 265.859375 C 837.691406 265.96875 837.75 266.191406 837.75 266.410156 C 837.75 266.53125 837.75 266.671875 837.609375 266.949219 C 837.628906 266.859375 837.339844 267.269531 837.019531 267.699219 L 836.5 268.421875 C 836.359375 268.25 834.941406 266.230469 834.941406 266.140625 C 834.941406 265.910156 835.300781 265.808594 835.808594 265.769531 L 835.808594 264.660156 L 835.5 264.660156 C 835.359375 264.699219 834.699219 264.699219 834.078125 264.699219 L 833.03125 264.699219 C 832.050781 264.699219 830.980469 264.691406 830.550781 264.660156 L 830.230469 264.660156 L 830.230469 265.769531 L 831.058594 265.769531 C 831.421875 265.78125 831.800781 265.808594 831.921875 265.808594 C 832.191406 265.859375 832.328125 265.96875 832.449219 266.089844 C 832.5 266.140625 833.140625 267.03125 833.910156 268.089844 L 835.300781 269.949219 L 834.199219 271.410156 C 833.589844 272.191406 833.050781 272.910156 832.96875 272.980469 C 832.421875 273.53125 831.699219 273.828125 830.589844 273.890625 L 830.128906 273.890625 L 830.128906 275 L 830.410156 275 C 830.671875 274.921875 831.980469 274.921875 832.449219 274.921875 C 832.910156 274.921875 834.578125 274.949219 834.828125 275 Z M 834.828125 275 "/>
<path style=" stroke:none;fill-rule:nonzero;fill:rgb(0%,0%,0%);fill-opacity:1;" d="M 844.199219 269 C 844.199219 269.269531 844.378906 269.390625 844.558594 269.480469 L 851.71875 269.480469 L 851.71875 276.558594 C 851.828125 276.828125 852.078125 276.96875 852.339844 276.96875 C 852.589844 276.96875 852.808594 276.828125 852.941406 276.558594 L 852.941406 269.480469 L 860.058594 269.480469 C 860.25 269.390625 860.449219 269.269531 860.449219 269 C 860.449219 268.730469 860.25 268.609375 860.058594 268.519531 L 852.941406 268.519531 L 852.941406 261.46875 C 852.808594 261.171875 852.578125 261.019531 852.339844 261.019531 C 852.089844 261.019531 851.859375 261.199219 851.730469 261.390625 L 851.71875 264.921875 L 851.71875 268.519531 L 844.558594 268.519531 C 844.378906 268.609375 844.199219 268.730469 844.199219 269 Z M 844.199219 269 "/>
<path style=" stroke:none;fill-rule:nonzero;fill:rgb(0%,0%,0%);fill-opacity:1;" d="M 864.359375 258.480469 C 863.378906 258.53125 862.550781 258.609375 862.53125 258.609375 C 862.480469 258.609375 862.339844 258.660156 862.339844 259.160156 L 862.339844 259.71875 L 862.910156 259.71875 C 863.96875 259.769531 864.089844 259.910156 864.191406 260.53125 C 864.199219 260.621094 864.199219 263.910156 864.199219 267.839844 L 864.199219 275 L 864.828125 275 L 865.410156 274.96875 L 865.53125 274.769531 C 865.589844 274.640625 865.769531 274.328125 865.890625 274.109375 L 866.058594 273.828125 L 866.078125 273.839844 C 866.78125 274.589844 868.03125 275.269531 869.378906 275.269531 C 872.199219 275.269531 874.21875 273.109375 874.589844 270.660156 C 874.628906 270.46875 874.640625 270.160156 874.640625 269.808594 C 874.640625 266.941406 872.75 264.890625 870.550781 264.46875 C 870.300781 264.421875 870.050781 264.390625 869.75 264.390625 C 868.441406 264.390625 867.089844 264.871094 866.339844 265.5 C 866.269531 265.558594 866.421875 265.609375 866.421875 265.609375 L 866.308594 265.609375 C 866.300781 265.609375 866.421875 263.980469 866.421875 261.96875 L 866.421875 258.339844 L 866.21875 258.339844 C 866.171875 258.339844 865.339844 258.421875 864.359375 258.480469 Z M 869.941406 265.359375 C 870.859375 265.589844 871.441406 266.28125 871.75 267.25 C 871.941406 267.839844 872.03125 268.78125 872.03125 269.910156 C 872.03125 271.050781 871.949219 271.660156 871.75 272.28125 C 871.628906 272.621094 871.578125 272.808594 871.390625 273.078125 C 870.828125 273.890625 870.050781 274.371094 869.078125 274.371094 C 868.839844 274.371094 868.578125 274.359375 868.339844 274.28125 C 867.609375 274.089844 867.050781 273.558594 866.578125 272.808594 L 866.480469 272.71875 L 866.480469 266.808594 L 866.609375 266.671875 C 867.191406 265.871094 868.078125 265.28125 869.199219 265.28125 C 869.46875 265.28125 869.75 265.328125 869.941406 265.359375 Z M 869.941406 265.359375 "/>
<path style=" stroke:none;fill-rule:nonzero;fill:rgb(0%,0%,0%);fill-opacity:1;" d="M 876.980469 274.28125 C 877.640625 274.28125 878.199219 273.699219 878.199219 273.121094 C 878.199219 272.558594 877.691406 271.96875 877.050781 271.96875 C 877 271.96875 877.109375 272.050781 877.109375 272.03125 C 877.109375 272.019531 877.140625 271.921875 877.21875 271.78125 C 877.609375 271.199219 878 270.859375 878.808594 270.859375 C 880.359375 270.859375 881.019531 272.058594 881.019531 273.578125 C 881.019531 274.621094 880.671875 275.449219 879.859375 276.550781 C 879.46875 277.050781 879.378906 277.171875 877.339844 279.421875 C 876.53125 280.339844 875.839844 281.121094 875.828125 281.140625 C 875.800781 281.191406 875.730469 281.28125 875.730469 281.589844 L 875.730469 282 L 882.71875 282 L 882.71875 281.839844 C 882.71875 281.808594 883.128906 278.730469 883.21875 278.550781 L 883.21875 278.449219 L 882.199219 278.449219 L 882.199219 278.578125 C 882.058594 279.390625 882.03125 279.550781 881.949219 279.800781 C 881.890625 279.980469 881.980469 280.089844 881.730469 280.191406 C 881.71875 280.199219 880.730469 280.199219 878.921875 280.199219 L 877.769531 280.199219 L 878.699219 279.300781 C 879.941406 278.121094 879.878906 278.191406 880.519531 277.640625 C 881.699219 276.621094 882.160156 276.121094 882.550781 275.578125 C 882.96875 274.941406 883.21875 274.339844 883.21875 273.558594 C 883.21875 273.339844 883.199219 273.121094 883.191406 272.96875 C 882.890625 271.199219 881.339844 269.871094 879.230469 269.871094 C 877.390625 269.871094 875.730469 271.371094 875.730469 273.089844 C 875.730469 273.699219 876.300781 274.28125 876.980469 274.28125 Z M 876.980469 274.28125 "/>
<path style=" stroke:none;fill-rule:nonzero;fill:rgb(0%,0%,0%);fill-opacity:1;" d="M 885.660156 276.578125 C 885.019531 276.578125 884.308594 277.019531 884.308594 277.78125 C 884.308594 279.03125 885.421875 279.890625 886.71875 279.890625 C 886.910156 279.890625 887.089844 279.890625 887.21875 279.871094 C 888.078125 279.691406 888.921875 279.109375 889.550781 278.140625 C 890.359375 276.921875 894.058594 266.890625 894.21875 266.71875 C 894.53125 266.140625 895.050781 265.828125 895.921875 265.769531 L 896.308594 265.769531 L 896.308594 264.660156 L 896.078125 264.660156 C 895.769531 264.691406 894.941406 264.699219 894.128906 264.699219 C 893.628906 264.699219 892.300781 264.699219 892.089844 264.660156 L 891.800781 264.660156 L 891.800781 265.769531 L 892.019531 265.769531 C 892.550781 265.769531 892.878906 266.050781 892.878906 266.589844 L 892.878906 266.808594 L 891.828125 269.550781 C 891.21875 271.050781 890.71875 272.28125 890.71875 272.308594 L 890.949219 272.308594 C 890.949219 272.308594 888.558594 266.910156 888.558594 266.171875 C 888.558594 265.828125 889.140625 265.769531 889.558594 265.769531 L 889.910156 265.769531 L 889.910156 264.660156 L 889.589844 264.660156 C 889.328125 264.699219 887.449219 264.730469 886.921875 264.730469 C 886.421875 264.730469 884.890625 264.730469 884.628906 264.660156 L 884.308594 264.660156 L 884.308594 265.769531 L 885.03125 265.769531 C 885.609375 265.769531 885.980469 265.78125 886.160156 266.121094 C 886.199219 266.171875 886.96875 268.199219 887.941406 270.609375 L 889.660156 275 L 889.25 276.03125 C 888.75 277.371094 888.421875 278.480469 887.359375 278.890625 C 887.140625 278.980469 886.878906 279.03125 886.660156 279.03125 C 886.5 279.03125 886.410156 279.019531 886.28125 278.941406 C 886.191406 278.890625 886.191406 278.890625 886.46875 278.75 C 886.550781 278.71875 886.949219 278.230469 886.949219 277.78125 C 886.949219 277.109375 886.328125 276.578125 885.660156 276.578125 Z M 885.660156 276.578125 "/>
<path style=" stroke:none;fill-rule:nonzero;fill:rgb(0%,0%,0%);fill-opacity:1;" d="M 898.199219 266.671875 C 898.199219 266.949219 898.480469 267.078125 898.730469 267.160156 L 906.359375 267.160156 L 914.089844 267.121094 C 914.25 267.03125 914.449219 266.941406 914.449219 266.671875 C 914.449219 266.410156 914.25 266.28125 914.058594 266.191406 L 898.558594 266.191406 C 898.378906 266.28125 898.199219 266.410156 898.199219 266.671875 Z M 898.199219 271.328125 C 898.199219 271.589844 898.378906 271.71875 898.558594 271.808594 L 914.058594 271.808594 C 914.25 271.71875 914.449219 271.589844 914.449219 271.328125 C 914.449219 271.050781 914.230469 270.96875 914.089844 270.839844 L 898.730469 270.839844 C 898.480469 270.921875 898.199219 271.050781 898.199219 271.328125 Z M 898.199219 271.328125 "/>
<path style=" stroke:none;fill-rule:nonzero;fill:rgb(0%,0%,0%);fill-opacity:1;" d="M 924.410156 267.691406 C 925.128906 267.691406 925.808594 267.171875 925.808594 266.441406 C 925.808594 266.230469 925.800781 266.03125 925.75 265.871094 C 925.339844 264.621094 923.730469 264.25 922 264.25 C 920.691406 264.25 919.550781 264.699219 918.691406 265.410156 C 917.609375 266.308594 916.890625 267.578125 916.699219 269.078125 C 916.671875 269.230469 916.671875 269.550781 916.671875 269.859375 C 916.671875 270.171875 916.671875 270.480469 916.699219 270.621094 C 917.019531 272.480469 918.050781 273.921875 919.578125 274.71875 C 920.308594 275.089844 921.109375 275.269531 921.96875 275.269531 C 923.421875 275.269531 924.691406 274.640625 925.449219 273.53125 C 925.699219 273.160156 926.078125 272.339844 926.078125 272.121094 C 926.078125 272.050781 925.949219 271.949219 925.910156 271.910156 L 925.480469 271.910156 C 925.078125 271.910156 924.910156 271.921875 924.828125 272.191406 C 924.589844 273.03125 924.089844 273.75 923.46875 274.058594 C 923.160156 274.230469 922.910156 274.300781 922.53125 274.300781 C 921.328125 274.300781 920.519531 273.621094 919.980469 272.839844 C 919.480469 272.078125 919.269531 271.089844 919.269531 269.75 C 919.269531 267.921875 919.53125 266.808594 920.378906 265.96875 C 920.878906 265.421875 921.199219 265.199219 922.191406 265.199219 C 922.589844 265.199219 923.058594 265.25 923.378906 265.300781 C 923.660156 265.359375 923.519531 265.328125 923.378906 265.5 C 923.128906 265.730469 922.980469 266.078125 922.980469 266.410156 C 922.980469 267.078125 923.628906 267.691406 924.410156 267.691406 Z M 924.410156 267.691406 "/>
<path style=" stroke:none;fill-rule:nonzero;fill:rgb(0%,0%,0%);fill-opacity:1;" d="M 928.980469 274.28125 C 929.640625 274.28125 930.199219 273.699219 930.199219 273.121094 C 930.199219 272.558594 929.691406 271.96875 929.050781 271.96875 C 929 271.96875 929.109375 272.050781 929.109375 272.03125 C 929.109375 272.019531 929.140625 271.921875 929.21875 271.78125 C 929.609375 271.199219 930 270.859375 930.808594 270.859375 C 932.359375 270.859375 933.019531 272.058594 933.019531 273.578125 C 933.019531 274.621094 932.671875 275.449219 931.859375 276.550781 C 931.46875 277.050781 931.378906 277.171875 929.339844 279.421875 C 928.53125 280.339844 927.839844 281.121094 927.828125 281.140625 C 927.800781 281.191406 927.730469 281.28125 927.730469 281.589844 L 927.730469 282 L 934.71875 282 L 934.71875 281.839844 C 934.71875 281.808594 935.128906 278.730469 935.21875 278.550781 L 935.21875 278.449219 L 934.199219 278.449219 L 934.199219 278.578125 C 934.058594 279.390625 934.03125 279.550781 933.949219 279.800781 C 933.890625 279.980469 933.980469 280.089844 933.730469 280.191406 C 933.71875 280.199219 932.730469 280.199219 930.921875 280.199219 L 929.769531 280.199219 L 930.699219 279.300781 C 931.941406 278.121094 931.878906 278.191406 932.519531 277.640625 C 933.699219 276.621094 934.160156 276.121094 934.550781 275.578125 C 934.96875 274.941406 935.21875 274.339844 935.21875 273.558594 C 935.21875 273.339844 935.199219 273.121094 935.191406 272.96875 C 934.890625 271.199219 933.339844 269.871094 931.230469 269.871094 C 929.390625 269.871094 927.730469 271.371094 927.730469 273.089844 C 927.730469 273.699219 928.300781 274.28125 928.980469 274.28125 Z M 928.980469 274.28125 "/>
</g>
</svg>
