<?xml version="1.0" encoding="UTF-8"?>
<svg xmlns="http://www.w3.org/2000/svg" xmlns:xlink="http://www.w3.org/1999/xlink" width="1366pt" height="565pt" viewBox="0 0 1366 565" version="1.1">
<g id="surface1">
<path style="fill:none;stroke-width:1;stroke-linecap:square;stroke-linejoin:miter;stroke:rgb(89.411926%,89.411926%,89.411926%);stroke-opacity:1;stroke-miterlimit:10;" d="M 25 565 L 25 0 " transform="matrix(1,0,0,-1,0,565)"/>
<path style="fill:none;stroke-width:1;stroke-linecap:square;stroke-linejoin:miter;stroke:rgb(89.411926%,89.411926%,89.411926%);stroke-opacity:1;stroke-miterlimit:10;" d="M 65 565 L 65 0 " transform="matrix(1,0,0,-1,0,565)"/>
<path style="fill:none;stroke-width:1;stroke-linecap:square;stroke-linejoin:miter;stroke:rgb(89.411926%,89.411926%,89.411926%);stroke-opacity:1;stroke-miterlimit:10;" d="M 104 565 L 104 0 " transform="matrix(1,0,0,-1,0,565)"/>
<path style="fill:none;stroke-width:1;stroke-linecap:square;stroke-linejoin:miter;stroke:rgb(89.411926%,89.411926%,89.411926%);stroke-opacity:1;stroke-miterlimit:10;" d="M 144 565 L 144 0 " transform="matrix(1,0,0,-1,0,565)"/>
<path style="fill:none;stroke-width:1;stroke-linecap:square;stroke-linejoin:miter;stroke:rgb(89.411926%,89.411926%,89.411926%);stroke-opacity:1;stroke-miterlimit:10;" d="M 184 565 L 184 0 " transform="matrix(1,0,0,-1,0,565)"/>
<path style="fill:none;stroke-width:1;stroke-linecap:square;stroke-linejoin:miter;stroke:rgb(89.411926%,89.411926%,89.411926%);stroke-opacity:1;stroke-miterlimit:10;" d="M 224 565 L 224 0 " transform="matrix(1,0,0,-1,0,565)"/>
<path style="fill:none;stroke-width:1;stroke-linecap:square;stroke-linejoin:miter;stroke:rgb(89.411926%,89.411926%,89.411926%);stroke-opacity:1;stroke-miterlimit:10;" d="M 263 565 L 263 0 " transform="matrix(1,0,0,-1,0,565)"/>
<path style="fill:none;stroke-width:1;stroke-linecap:square;stroke-linejoin:miter;stroke:rgb(89.411926%,89.411926%,89.411926%);stroke-opacity:1;stroke-miterlimit:10;" d="M 303 565 L 303 0 " transform="matrix(1,0,0,-1,0,565)"/>
<path style="fill:none;stroke-width:1;stroke-linecap:square;stroke-linejoin:miter;stroke:rgb(89.411926%,89.411926%,89.411926%);stroke-opacity:1;stroke-miterlimit:10;" d="M 343 565 L 343 0 " transform="matrix(1,0,0,-1,0,565)"/>
<path style="fill:none;stroke-width:1;stroke-linecap:square;stroke-linejoin:miter;stroke:rgb(89.411926%,89.411926%,89.411926%);stroke-opacity:1;stroke-miterlimit:10;" d="M 383 565 L 383 0 " transform="matrix(1,0,0,-1,0,565)"/>
<path style="fill:none;stroke-width:1;stroke-linecap:square;stroke-linejoin:miter;stroke:rgb(89.411926%,89.411926%,89.411926%);stroke-opacity:1;stroke-miterlimit:10;" d="M 422 565 L 422 0 " transform="matrix(1,0,0,-1,0,565)"/>
<path style="fill:none;stroke-width:1;stroke-linecap:square;stroke-linejoin:miter;stroke:rgb(89.411926%,89.411926%,89.411926%);stroke-opacity:1;stroke-miterlimit:10;" d="M 462 565 L 462 0 " transform="matrix(1,0,0,-1,0,565)"/>
<path style="fill:none;stroke-width:1;stroke-linecap:square;stroke-linejoin:miter;stroke:rgb(89.411926%,89.411926%,89.411926%);stroke-opacity:1;stroke-miterlimit:10;" d="M 502 565 L 502 0 " transform="matrix(1,0,0,-1,0,565)"/>
<path style="fill:none;stroke-width:1;stroke-linecap:square;stroke-linejoin:miter;stroke:rgb(89.411926%,89.411926%,89.411926%);stroke-opacity:1;stroke-miterlimit:10;" d="M 541 565 L 541 0 " transform="matrix(1,0,0,-1,0,565)"/>
<path style="fill:none;stroke-width:1;stroke-linecap:square;stroke-linejoin:miter;stroke:rgb(89.411926%,89.411926%,89.411926%);stroke-opacity:1;stroke-miterlimit:10;" d="M 581 565 L 581 0 " transform="matrix(1,0,0,-1,0,565)"/>
<path style="fill:none;stroke-width:1;stroke-linecap:square;stroke-linejoin:miter;stroke:rgb(89.411926%,89.411926%,89.411926%);stroke-opacity:1;stroke-miterlimit:10;" d="M 621 565 L 621 0 " transform="matrix(1,0,0,-1,0,565)"/>
<path style="fill:none;stroke-width:1;stroke-linecap:square;stroke-linejoin:miter;stroke:rgb(89.411926%,89.411926%,89.411926%);stroke-opacity:1;stroke-miterlimit:10;" d="M 661 565 L 661 0 " transform="matrix(1,0,0,-1,0,565)"/>
<path style="fill:none;stroke-width:1;stroke-linecap:square;stroke-linejoin:miter;stroke:rgb(89.411926%,89.411926%,89.411926%);stroke-opacity:1;stroke-miterlimit:10;" d="M 700 565 L 700 0 " transform="matrix(1,0,0,-1,0,565)"/>
<path style="fill:none;stroke-width:1;stroke-linecap:square;stroke-linejoin:miter;stroke:rgb(89.411926%,89.411926%,89.411926%);stroke-opacity:1;stroke-miterlimit:10;" d="M 740 565 L 740 0 " transform="matrix(1,0,0,-1,0,565)"/>
<path style="fill:none;stroke-width:1;stroke-linecap:square;stroke-linejoin:miter;stroke:rgb(89.411926%,89.411926%,89.411926%);stroke-opacity:1;stroke-miterlimit:10;" d="M 780 565 L 780 0 " transform="matrix(1,0,0,-1,0,565)"/>
<path style="fill:none;stroke-width:1;stroke-linecap:square;stroke-linejoin:miter;stroke:rgb(89.411926%,89.411926%,89.411926%);stroke-opacity:1;stroke-miterlimit:10;" d="M 820 565 L 820 0 " transform="matrix(1,0,0,-1,0,565)"/>
<path style="fill:none;stroke-width:1;stroke-linecap:square;stroke-linejoin:miter;stroke:rgb(89.411926%,89.411926%,89.411926%);stroke-opacity:1;stroke-miterlimit:10;" d="M 859 565 L 859 0 " transform="matrix(1,0,0,-1,0,565)"/>
<path style="fill:none;stroke-width:1;stroke-linecap:square;stroke-linejoin:miter;stroke:rgb(89.411926%,89.411926%,89.411926%);stroke-opacity:1;stroke-miterlimit:10;" d="M 899 565 L 899 0 " transform="matrix(1,0,0,-1,0,565)"/>
<path style="fill:none;stroke-width:1;stroke-linecap:square;stroke-linejoin:miter;stroke:rgb(89.411926%,89.411926%,89.411926%);stroke-opacity:1;stroke-miterlimit:10;" d="M 939 565 L 939 0 " transform="matrix(1,0,0,-1,0,565)"/>
<path style="fill:none;stroke-width:1;stroke-linecap:square;stroke-linejoin:miter;stroke:rgb(89.411926%,89.411926%,89.411926%);stroke-opacity:1;stroke-miterlimit:10;" d="M 978 565 L 978 0 " transform="matrix(1,0,0,-1,0,565)"/>
<path style="fill:none;stroke-width:1;stroke-linecap:square;stroke-linejoin:miter;stroke:rgb(89.411926%,89.411926%,89.411926%);stroke-opacity:1;stroke-miterlimit:10;" d="M 1018 565 L 1018 0 " transform="matrix(1,0,0,-1,0,565)"/>
<path style="fill:none;stroke-width:1;stroke-linecap:square;stroke-linejoin:miter;stroke:rgb(89.411926%,89.411926%,89.411926%);stroke-opacity:1;stroke-miterlimit:10;" d="M 1058 565 L 1058 0 " transform="matrix(1,0,0,-1,0,565)"/>
<path style="fill:none;stroke-width:1;stroke-linecap:square;stroke-linejoin:miter;stroke:rgb(89.411926%,89.411926%,89.411926%);stroke-opacity:1;stroke-miterlimit:10;" d="M 1098 565 L 1098 0 " transform="matrix(1,0,0,-1,0,565)"/>
<path style="fill:none;stroke-width:1;stroke-linecap:square;stroke-linejoin:miter;stroke:rgb(89.411926%,89.411926%,89.411926%);stroke-opacity:1;stroke-miterlimit:10;" d="M 1137 565 L 1137 0 " transform="matrix(1,0,0,-1,0,565)"/>
<path style="fill:none;stroke-width:1;stroke-linecap:square;stroke-linejoin:miter;stroke:rgb(89.411926%,89.411926%,89.411926%);stroke-opacity:1;stroke-miterlimit:10;" d="M 1177 565 L 1177 0 " transform="matrix(1,0,0,-1,0,565)"/>
<path style="fill:none;stroke-width:1;stroke-linecap:square;stroke-linejoin:miter;stroke:rgb(89.411926%,89.411926%,89.411926%);stroke-opacity:1;stroke-miterlimit:10;" d="M 1217 565 L 1217 0 " transform="matrix(1,0,0,-1,0,565)"/>
<path style="fill:none;stroke-width:1;stroke-linecap:square;stroke-linejoin:miter;stroke:rgb(89.411926%,89.411926%,89.411926%);stroke-opacity:1;stroke-miterlimit:10;" d="M 1257 565 L 1257 0 " transform="matrix(1,0,0,-1,0,565)"/>
<path style="fill:none;stroke-width:1;stroke-linecap:square;stroke-linejoin:miter;stroke:rgb(89.411926%,89.411926%,89.411926%);stroke-opacity:1;stroke-miterlimit:10;" d="M 1296 565 L 1296 0 " transform="matrix(1,0,0,-1,0,565)"/>
<path style="fill:none;stroke-width:1;stroke-linecap:square;stroke-linejoin:miter;stroke:rgb(89.411926%,89.411926%,89.411926%);stroke-opacity:1;stroke-miterlimit:10;" d="M 1336 565 L 1336 0 " transform="matrix(1,0,0,-1,0,565)"/>
<path style="fill:none;stroke-width:1;stroke-linecap:square;stroke-linejoin:miter;stroke:rgb(89.411926%,89.411926%,89.411926%);stroke-opacity:1;stroke-miterlimit:10;" d="M 0 547 L 1366 547 " transform="matrix(1,0,0,-1,0,565)"/>
<path style="fill:none;stroke-width:1;stroke-linecap:square;stroke-linejoin:miter;stroke:rgb(89.411926%,89.411926%,89.411926%);stroke-opacity:1;stroke-miterlimit:10;" d="M 0 507 L 1366 507 " transform="matrix(1,0,0,-1,0,565)"/>
<path style="fill:none;stroke-width:1;stroke-linecap:square;stroke-linejoin:miter;stroke:rgb(89.411926%,89.411926%,89.411926%);stroke-opacity:1;stroke-miterlimit:10;" d="M 0 468 L 1366 468 " transform="matrix(1,0,0,-1,0,565)"/>
<path style="fill:none;stroke-width:1;stroke-linecap:square;stroke-linejoin:miter;stroke:rgb(89.411926%,89.411926%,89.411926%);stroke-opacity:1;stroke-miterlimit:10;" d="M 0 428 L 1366 428 " transform="matrix(1,0,0,-1,0,565)"/>
<path style="fill:none;stroke-width:1;stroke-linecap:square;stroke-linejoin:miter;stroke:rgb(89.411926%,89.411926%,89.411926%);stroke-opacity:1;stroke-miterlimit:10;" d="M 0 388 L 1366 388 " transform="matrix(1,0,0,-1,0,565)"/>
<path style="fill:none;stroke-width:1;stroke-linecap:square;stroke-linejoin:miter;stroke:rgb(89.411926%,89.411926%,89.411926%);stroke-opacity:1;stroke-miterlimit:10;" d="M 0 348 L 1366 348 " transform="matrix(1,0,0,-1,0,565)"/>
<path style="fill:none;stroke-width:1;stroke-linecap:square;stroke-linejoin:miter;stroke:rgb(89.411926%,89.411926%,89.411926%);stroke-opacity:1;stroke-miterlimit:10;" d="M 0 309 L 1366 309 " transform="matrix(1,0,0,-1,0,565)"/>
<path style="fill:none;stroke-width:1;stroke-linecap:square;stroke-linejoin:miter;stroke:rgb(89.411926%,89.411926%,89.411926%);stroke-opacity:1;stroke-miterlimit:10;" d="M 0 269 L 1366 269 " transform="matrix(1,0,0,-1,0,565)"/>
<path style="fill:none;stroke-width:1;stroke-linecap:square;stroke-linejoin:miter;stroke:rgb(89.411926%,89.411926%,89.411926%);stroke-opacity:1;stroke-miterlimit:10;" d="M 0 229 L 1366 229 " transform="matrix(1,0,0,-1,0,565)"/>
<path style="fill:none;stroke-width:1;stroke-linecap:square;stroke-linejoin:miter;stroke:rgb(89.411926%,89.411926%,89.411926%);stroke-opacity:1;stroke-miterlimit:10;" d="M 0 189 L 1366 189 " transform="matrix(1,0,0,-1,0,565)"/>
<path style="fill:none;stroke-width:1;stroke-linecap:square;stroke-linejoin:miter;stroke:rgb(89.411926%,89.411926%,89.411926%);stroke-opacity:1;stroke-miterlimit:10;" d="M 0 150 L 1366 150 " transform="matrix(1,0,0,-1,0,565)"/>
<path style="fill:none;stroke-width:1;stroke-linecap:square;stroke-linejoin:miter;stroke:rgb(89.411926%,89.411926%,89.411926%);stroke-opacity:1;stroke-miterlimit:10;" d="M 0 110 L 1366 110 " transform="matrix(1,0,0,-1,0,565)"/>
<path style="fill:none;stroke-width:1;stroke-linecap:square;stroke-linejoin:miter;stroke:rgb(89.411926%,89.411926%,89.411926%);stroke-opacity:1;stroke-miterlimit:10;" d="M 0 70 L 1366 70 " transform="matrix(1,0,0,-1,0,565)"/>
<path style="fill:none;stroke-width:1;stroke-linecap:square;stroke-linejoin:miter;stroke:rgb(89.411926%,89.411926%,89.411926%);stroke-opacity:1;stroke-miterlimit:10;" d="M 0 31 L 1366 31 " transform="matrix(1,0,0,-1,0,565)"/>
<path style="fill:none;stroke-width:1;stroke-linecap:square;stroke-linejoin:miter;stroke:rgb(79.606628%,79.606628%,79.606628%);stroke-opacity:1;stroke-miterlimit:10;" d="M 661 564 L 661 0 " transform="matrix(1,0,0,-1,0,565)"/>
<path style="fill:none;stroke-width:1;stroke-linecap:square;stroke-linejoin:miter;stroke:rgb(79.606628%,79.606628%,79.606628%);stroke-opacity:1;stroke-miterlimit:10;" d="M 660 564 L 660 0 " transform="matrix(1,0,0,-1,0,565)"/>
<path style="fill:none;stroke-width:1;stroke-linecap:square;stroke-linejoin:miter;stroke:rgb(79.606628%,79.606628%,79.606628%);stroke-opacity:1;stroke-miterlimit:10;" d="M 662 564 L 662 0 " transform="matrix(1,0,0,-1,0,565)"/>
<path style="fill:none;stroke-width:1;stroke-linecap:square;stroke-linejoin:miter;stroke:rgb(79.606628%,79.606628%,79.606628%);stroke-opacity:1;stroke-miterlimit:10;" d="M 656 560 L 661 565 " transform="matrix(1,0,0,-1,0,565)"/>
<path style="fill:none;stroke-width:1;stroke-linecap:square;stroke-linejoin:miter;stroke:rgb(79.606628%,79.606628%,79.606628%);stroke-opacity:1;stroke-miterlimit:10;" d="M 666 560 L 661 565 " transform="matrix(1,0,0,-1,0,565)"/>
<path style="fill:none;stroke-width:1;stroke-linecap:square;stroke-linejoin:miter;stroke:rgb(79.606628%,79.606628%,79.606628%);stroke-opacity:1;stroke-miterlimit:10;" d="M 656 559 L 661 564 " transform="matrix(1,0,0,-1,0,565)"/>
<path style="fill:none;stroke-width:1;stroke-linecap:square;stroke-linejoin:miter;stroke:rgb(79.606628%,79.606628%,79.606628%);stroke-opacity:1;stroke-miterlimit:10;" d="M 666 559 L 661 564 " transform="matrix(1,0,0,-1,0,565)"/>
<path style="fill:none;stroke-width:1;stroke-linecap:square;stroke-linejoin:miter;stroke:rgb(79.606628%,79.606628%,79.606628%);stroke-opacity:1;stroke-miterlimit:10;" d="M 0 110 L 1365 110 " transform="matrix(1,0,0,-1,0,565)"/>
<path style="fill:none;stroke-width:1;stroke-linecap:square;stroke-linejoin:miter;stroke:rgb(79.606628%,79.606628%,79.606628%);stroke-opacity:1;stroke-miterlimit:10;" d="M 0 111 L 1365 111 " transform="matrix(1,0,0,-1,0,565)"/>
<path style="fill:none;stroke-width:1;stroke-linecap:square;stroke-linejoin:miter;stroke:rgb(79.606628%,79.606628%,79.606628%);stroke-opacity:1;stroke-miterlimit:10;" d="M 0 109 L 1365 109 " transform="matrix(1,0,0,-1,0,565)"/>
<path style="fill:none;stroke-width:1;stroke-linecap:square;stroke-linejoin:miter;stroke:rgb(79.606628%,79.606628%,79.606628%);stroke-opacity:1;stroke-miterlimit:10;" d="M 1361 115 L 1366 110 " transform="matrix(1,0,0,-1,0,565)"/>
<path style="fill:none;stroke-width:1;stroke-linecap:square;stroke-linejoin:miter;stroke:rgb(79.606628%,79.606628%,79.606628%);stroke-opacity:1;stroke-miterlimit:10;" d="M 1361 105 L 1366 110 " transform="matrix(1,0,0,-1,0,565)"/>
<path style="fill:none;stroke-width:1;stroke-linecap:square;stroke-linejoin:miter;stroke:rgb(79.606628%,79.606628%,79.606628%);stroke-opacity:1;stroke-miterlimit:10;" d="M 1360 115 L 1365 110 " transform="matrix(1,0,0,-1,0,565)"/>
<path style="fill:none;stroke-width:1;stroke-linecap:square;stroke-linejoin:miter;stroke:rgb(79.606628%,79.606628%,79.606628%);stroke-opacity:1;stroke-miterlimit:10;" d="M 1360 105 L 1365 110 " transform="matrix(1,0,0,-1,0,565)"/>
<path style="fill:none;stroke-width:1;stroke-linecap:square;stroke-linejoin:miter;stroke:rgb(59.606934%,59.606934%,59.606934%);stroke-opacity:1;stroke-miterlimit:10;" d="M 1296 31 L 1335 31 " transform="matrix(1,0,0,-1,0,565)"/>
<path style="fill:none;stroke-width:1;stroke-linecap:square;stroke-linejoin:miter;stroke:rgb(59.606934%,59.606934%,59.606934%);stroke-opacity:1;stroke-miterlimit:10;" d="M 1296 30 L 1335 30 " transform="matrix(1,0,0,-1,0,565)"/>
<path style="fill:none;stroke-width:1;stroke-linecap:square;stroke-linejoin:miter;stroke:rgb(59.606934%,59.606934%,59.606934%);stroke-opacity:1;stroke-miterlimit:10;" d="M 1296 32 L 1335 32 " transform="matrix(1,0,0,-1,0,565)"/>
<path style="fill:none;stroke-width:1;stroke-linecap:square;stroke-linejoin:miter;stroke:rgb(59.606934%,59.606934%,59.606934%);stroke-opacity:1;stroke-miterlimit:10;" d="M 1296 34 L 1296 28 " transform="matrix(1,0,0,-1,0,565)"/>
<path style="fill:none;stroke-width:1;stroke-linecap:square;stroke-linejoin:miter;stroke:rgb(59.606934%,59.606934%,59.606934%);stroke-opacity:1;stroke-miterlimit:10;" d="M 1335 34 L 1335 28 " transform="matrix(1,0,0,-1,0,565)"/>
<path style=" stroke:none;fill-rule:nonzero;fill:rgb(59.606934%,59.606934%,59.606934%);fill-opacity:1;" d="M 1316.480469 530 L 1318.421875 530 L 1318.421875 523.328125 L 1316.308594 523.75 L 1316.308594 522.671875 L 1318.410156 522.25 L 1319.589844 522.25 L 1319.589844 530 L 1321.53125 530 L 1321.53125 531 L 1316.480469 531 Z M 1323.921875 529.519531 L 1325.148438 529.519531 L 1325.148438 531 L 1323.921875 531 Z M 1330.261719 523.03125 C 1330.261719 523.03125 1329.359375 523.03125 1328.890625 523.941406 C 1328.890625 523.941406 1328.429688 524.828125 1328.429688 526.640625 C 1328.429688 526.640625 1328.429688 528.441406 1328.890625 529.339844 C 1328.890625 529.339844 1329.359375 530.230469 1330.261719 530.230469 C 1330.261719 530.230469 1331.179688 530.230469 1331.640625 529.339844 C 1331.640625 529.339844 1332.109375 528.441406 1332.109375 526.640625 C 1332.109375 526.640625 1332.109375 524.828125 1331.640625 523.941406 C 1331.640625 523.941406 1331.179688 523.03125 1330.261719 523.03125 Z M 1330.261719 522.089844 C 1330.261719 522.089844 1331.730469 522.089844 1332.511719 523.269531 C 1332.511719 523.269531 1333.289062 524.421875 1333.289062 526.640625 C 1333.289062 526.640625 1333.289062 528.839844 1332.511719 530.019531 C 1332.511719 530.019531 1331.730469 531.171875 1330.261719 531.171875 C 1330.261719 531.171875 1328.789062 531.171875 1328.011719 530.019531 C 1328.011719 530.019531 1327.25 528.839844 1327.25 526.640625 C 1327.25 526.640625 1327.25 524.421875 1328.011719 523.269531 C 1328.011719 523.269531 1328.789062 522.089844 1330.261719 522.089844 Z M 1330.261719 522.089844 "/>
<path style="fill:none;stroke-width:3;stroke-linecap:round;stroke-linejoin:round;stroke:rgb(0%,0%,100%);stroke-opacity:1;stroke-miterlimit:10;" d="M 918.230469 565.5 L 395.179688 -1.5 " transform="matrix(1,0,0,-1,0,565)"/>
<path style="fill:none;stroke-width:3;stroke-linecap:round;stroke-linejoin:round;stroke:rgb(0%,0%,100%);stroke-opacity:1;stroke-miterlimit:10;" d="M 719.328125 565.5 L 196.28125 -1.5 " transform="matrix(1,0,0,-1,0,565)"/>
<path style="fill-rule:nonzero;fill:rgb(100%,0%,0%);fill-opacity:1;stroke-width:1;stroke-linecap:square;stroke-linejoin:miter;stroke:rgb(0%,0%,0%);stroke-opacity:1;stroke-miterlimit:10;" d="M 622.5 239.5 C 622.5 236.738281 620.261719 234.5 617.5 234.5 C 614.738281 234.5 612.5 236.738281 612.5 239.5 C 612.5 242.261719 614.738281 244.5 617.5 244.5 C 620.261719 244.5 622.5 242.261719 622.5 239.5 Z M 622.5 239.5 " transform="matrix(1,0,0,-1,0,565)"/>
<path style="fill-rule:nonzero;fill:rgb(100%,0%,0%);fill-opacity:1;stroke-width:1;stroke-linecap:square;stroke-linejoin:miter;stroke:rgb(0%,0%,0%);stroke-opacity:1;stroke-miterlimit:10;" d="M 579.5 408.5 C 579.5 405.738281 577.261719 403.5 574.5 403.5 C 571.738281 403.5 569.5 405.738281 569.5 408.5 C 569.5 411.261719 571.738281 413.5 574.5 413.5 C 577.261719 413.5 579.5 411.261719 579.5 408.5 Z M 579.5 408.5 " transform="matrix(1,0,0,-1,0,565)"/>
<path style=" stroke:none;fill-rule:nonzero;fill:rgb(0%,0%,0%);fill-opacity:1;" d="M 821.78125 153.691406 C 822.550781 153.691406 823.199219 153.078125 823.199219 152.390625 C 823.199219 152 822.941406 151.519531 822.671875 151.371094 C 822.671875 151.199219 823.878906 151.140625 824.160156 151.140625 C 825.359375 151.140625 826.03125 151.808594 826.339844 152.839844 C 826.46875 153.160156 826.480469 153.441406 826.480469 154.050781 L 826.480469 154.558594 L 826.300781 154.558594 C 824.558594 154.660156 823.269531 154.921875 822.128906 155.449219 C 821.519531 155.71875 821.050781 155.949219 820.628906 156.371094 C 820.128906 156.871094 819.671875 157.550781 819.671875 158.441406 C 819.671875 158.75 819.75 159.058594 819.859375 159.339844 C 820.308594 160.519531 821.921875 161.269531 823.558594 161.269531 C 824.589844 161.269531 825.628906 160.921875 826.390625 160.28125 C 826.578125 160.109375 826.828125 159.78125 826.75 159.839844 L 826.75 159.699219 C 826.96875 160.46875 827.769531 161.140625 828.589844 161.140625 C 829.691406 161.140625 830.609375 160.449219 830.878906 159.578125 C 830.921875 159.421875 830.921875 159.371094 830.949219 158.449219 L 830.949219 157.519531 L 829.730469 157.519531 L 829.730469 158.390625 C 829.730469 159.308594 829.730469 159.46875 829.609375 159.699219 L 829.578125 159.699219 C 829.480469 159.921875 829.46875 160.050781 829.269531 160.050781 C 829.078125 160.050781 829.019531 159.921875 828.910156 159.699219 L 828.890625 159.699219 C 828.75 159.421875 828.769531 159.480469 828.769531 156.339844 C 828.769531 153.21875 828.769531 153.269531 828.628906 152.839844 C 828.140625 151.300781 826.378906 150.25 824.230469 150.25 C 822.449219 150.25 820.96875 150.75 820.558594 151.609375 C 820.441406 151.871094 820.378906 152.140625 820.378906 152.390625 C 820.378906 153.078125 821.019531 153.691406 821.78125 153.691406 Z M 826.480469 156.800781 C 826.46875 158.140625 826.46875 158.21875 826.421875 158.390625 C 826.160156 159.441406 825.339844 160.371094 824.019531 160.371094 C 822.890625 160.371094 822.140625 159.53125 822.140625 158.449219 C 822.140625 158.078125 822.21875 157.691406 822.390625 157.371094 C 822.980469 156.25 824.328125 155.578125 826.578125 155.441406 C 826.628906 155.410156 826.699219 155.410156 826.699219 155.410156 L 826.609375 155.410156 C 826.628906 155.410156 826.480469 156.03125 826.480469 156.800781 Z M 826.480469 156.800781 "/>
<path style=" stroke:none;fill-rule:nonzero;fill:rgb(0%,0%,0%);fill-opacity:1;" d="M 832.980469 160.28125 C 833.640625 160.28125 834.199219 159.699219 834.199219 159.121094 C 834.199219 158.558594 833.691406 157.96875 833.050781 157.96875 C 833 157.96875 833.109375 158.050781 833.109375 158.03125 C 833.109375 158.019531 833.140625 157.921875 833.21875 157.78125 C 833.609375 157.199219 834 156.859375 834.808594 156.859375 C 836.359375 156.859375 837.019531 158.058594 837.019531 159.578125 C 837.019531 160.621094 836.671875 161.449219 835.859375 162.550781 C 835.46875 163.050781 835.378906 163.171875 833.339844 165.421875 C 832.53125 166.339844 831.839844 167.121094 831.828125 167.140625 C 831.800781 167.191406 831.730469 167.28125 831.730469 167.589844 L 831.730469 168 L 838.71875 168 L 838.71875 167.839844 C 838.71875 167.808594 839.128906 164.730469 839.21875 164.550781 L 839.21875 164.449219 L 838.199219 164.449219 L 838.199219 164.578125 C 838.058594 165.390625 838.03125 165.550781 837.949219 165.800781 C 837.890625 165.980469 837.980469 166.089844 837.730469 166.191406 C 837.71875 166.199219 836.730469 166.199219 834.921875 166.199219 L 833.769531 166.199219 L 834.699219 165.300781 C 835.941406 164.121094 835.878906 164.191406 836.519531 163.640625 C 837.699219 162.621094 838.160156 162.121094 838.550781 161.578125 C 838.96875 160.941406 839.21875 160.339844 839.21875 159.558594 C 839.21875 159.339844 839.199219 159.121094 839.191406 158.96875 C 838.890625 157.199219 837.339844 155.871094 835.230469 155.871094 C 833.390625 155.871094 831.730469 157.371094 831.730469 159.089844 C 831.730469 159.699219 832.300781 160.28125 832.980469 160.28125 Z M 832.980469 160.28125 "/>
<path style=" stroke:none;fill-rule:nonzero;fill:rgb(0%,0%,0%);fill-opacity:1;" d="M 844.828125 161 L 845.109375 161 L 845.109375 160.449219 C 845.109375 159.921875 844.980469 159.890625 844.941406 159.890625 C 844.609375 159.890625 844.46875 159.578125 844.46875 159.25 C 844.46875 159.121094 844.46875 159.019531 844.53125 158.890625 C 844.609375 158.769531 846.050781 156.828125 845.949219 156.871094 L 846.859375 158.121094 C 847.519531 159.019531 847.800781 159.46875 847.800781 159.480469 C 847.800781 159.691406 847.519531 159.890625 847.160156 159.890625 L 846.941406 159.890625 L 846.941406 161 L 847.300781 161 C 847.578125 160.949219 849.410156 160.921875 849.941406 160.921875 C 850.421875 160.921875 852 160.921875 852.230469 161 L 852.5 161 L 852.5 159.890625 L 851.96875 159.890625 C 851.109375 159.890625 850.660156 159.890625 850.300781 159.53125 C 850.21875 159.46875 849.5 158.480469 848.691406 157.371094 L 847.199219 155.339844 L 847.578125 154.828125 C 847.78125 154.558594 848.199219 154.019531 848.5 153.609375 C 849.230469 152.640625 849.359375 152.410156 849.859375 152.171875 L 849.949219 152.171875 C 850.421875 151.921875 851.160156 151.769531 851.808594 151.769531 L 852.089844 151.769531 L 852.089844 150.660156 L 851.828125 150.660156 C 851.609375 150.730469 850.21875 150.730469 849.800781 150.730469 C 849.339844 150.730469 847.628906 150.699219 847.421875 150.660156 L 847.109375 150.660156 L 847.109375 151.769531 L 847.25 151.769531 C 847.300781 151.78125 847.421875 151.808594 847.480469 151.859375 C 847.691406 151.96875 847.75 152.191406 847.75 152.410156 C 847.75 152.53125 847.75 152.671875 847.609375 152.949219 C 847.628906 152.859375 847.339844 153.269531 847.019531 153.699219 L 846.5 154.421875 C 846.359375 154.25 844.941406 152.230469 844.941406 152.140625 C 844.941406 151.910156 845.300781 151.808594 845.808594 151.769531 L 845.808594 150.660156 L 845.5 150.660156 C 845.359375 150.699219 844.699219 150.699219 844.078125 150.699219 L 843.03125 150.699219 C 842.050781 150.699219 840.980469 150.691406 840.550781 150.660156 L 840.230469 150.660156 L 840.230469 151.769531 L 841.058594 151.769531 C 841.421875 151.78125 841.800781 151.808594 841.921875 151.808594 C 842.191406 151.859375 842.328125 151.96875 842.449219 152.089844 C 842.5 152.140625 843.140625 153.03125 843.910156 154.089844 L 845.300781 155.949219 L 844.199219 157.410156 C 843.589844 158.191406 843.050781 158.910156 842.96875 158.980469 C 842.421875 159.53125 841.699219 159.828125 840.589844 159.890625 L 840.128906 159.890625 L 840.128906 161 L 840.410156 161 C 840.671875 160.921875 841.980469 160.921875 842.449219 160.921875 C 842.910156 160.921875 844.578125 160.949219 844.828125 161 Z M 844.828125 161 "/>
<path style=" stroke:none;fill-rule:nonzero;fill:rgb(0%,0%,0%);fill-opacity:1;" d="M 854.199219 155 C 854.199219 155.269531 854.378906 155.390625 854.558594 155.480469 L 861.71875 155.480469 L 861.71875 162.558594 C 861.828125 162.828125 862.078125 162.96875 862.339844 162.96875 C 862.589844 162.96875 862.808594 162.828125 862.941406 162.558594 L 862.941406 155.480469 L 870.058594 155.480469 C 870.25 155.390625 870.449219 155.269531 870.449219 155 C 870.449219 154.730469 870.25 154.609375 870.058594 154.519531 L 862.941406 154.519531 L 862.941406 147.46875 C 862.808594 147.171875 862.578125 147.019531 862.339844 147.019531 C 862.089844 147.019531 861.859375 147.199219 861.730469 147.390625 L 861.71875 150.921875 L 861.71875 154.519531 L 854.558594 154.519531 C 854.378906 154.609375 854.199219 154.730469 854.199219 155 Z M 854.199219 155 "/>
<path style=" stroke:none;fill-rule:nonzero;fill:rgb(0%,0%,0%);fill-opacity:1;" d="M 874.359375 144.480469 C 873.378906 144.53125 872.550781 144.609375 872.53125 144.609375 C 872.480469 144.609375 872.339844 144.660156 872.339844 145.160156 L 872.339844 145.71875 L 872.910156 145.71875 C 873.96875 145.769531 874.089844 145.910156 874.191406 146.53125 C 874.199219 146.621094 874.199219 149.910156 874.199219 153.839844 L 874.199219 161 L 874.828125 161 L 875.410156 160.96875 L 875.53125 160.769531 C 875.589844 160.640625 875.769531 160.328125 875.890625 160.109375 L 876.058594 159.828125 L 876.078125 159.839844 C 876.78125 160.589844 878.03125 161.269531 879.378906 161.269531 C 882.199219 161.269531 884.21875 159.109375 884.589844 156.660156 C 884.628906 156.46875 884.640625 156.160156 884.640625 155.808594 C 884.640625 152.941406 882.75 150.890625 880.550781 150.46875 C 880.300781 150.421875 880.050781 150.390625 879.75 150.390625 C 878.441406 150.390625 877.089844 150.871094 876.339844 151.5 C 876.269531 151.558594 876.421875 151.609375 876.421875 151.609375 L 876.308594 151.609375 C 876.300781 151.609375 876.421875 149.980469 876.421875 147.96875 L 876.421875 144.339844 L 876.21875 144.339844 C 876.171875 144.339844 875.339844 144.421875 874.359375 144.480469 Z M 879.941406 151.359375 C 880.859375 151.589844 881.441406 152.28125 881.75 153.25 C 881.941406 153.839844 882.03125 154.78125 882.03125 155.910156 C 882.03125 157.050781 881.949219 157.660156 881.75 158.28125 C 881.628906 158.621094 881.578125 158.808594 881.390625 159.078125 C 880.828125 159.890625 880.050781 160.371094 879.078125 160.371094 C 878.839844 160.371094 878.578125 160.359375 878.339844 160.28125 C 877.609375 160.089844 877.050781 159.558594 876.578125 158.808594 L 876.480469 158.71875 L 876.480469 152.808594 L 876.609375 152.671875 C 877.191406 151.871094 878.078125 151.28125 879.199219 151.28125 C 879.46875 151.28125 879.75 151.328125 879.941406 151.359375 Z M 879.941406 151.359375 "/>
<path style=" stroke:none;fill-rule:nonzero;fill:rgb(0%,0%,0%);fill-opacity:1;" d="M 886.980469 160.28125 C 887.640625 160.28125 888.199219 159.699219 888.199219 159.121094 C 888.199219 158.558594 887.691406 157.96875 887.050781 157.96875 C 887 157.96875 887.109375 158.050781 887.109375 158.03125 C 887.109375 158.019531 887.140625 157.921875 887.21875 157.78125 C 887.609375 157.199219 888 156.859375 888.808594 156.859375 C 890.359375 156.859375 891.019531 158.058594 891.019531 159.578125 C 891.019531 160.621094 890.671875 161.449219 889.859375 162.550781 C 889.46875 163.050781 889.378906 163.171875 887.339844 165.421875 C 886.53125 166.339844 885.839844 167.121094 885.828125 167.140625 C 885.800781 167.191406 885.730469 167.28125 885.730469 167.589844 L 885.730469 168 L 892.71875 168 L 892.71875 167.839844 C 892.71875 167.808594 893.128906 164.730469 893.21875 164.550781 L 893.21875 164.449219 L 892.199219 164.449219 L 892.199219 164.578125 C 892.058594 165.390625 892.03125 165.550781 891.949219 165.800781 C 891.890625 165.980469 891.980469 166.089844 891.730469 166.191406 C 891.71875 166.199219 890.730469 166.199219 888.921875 166.199219 L 887.769531 166.199219 L 888.699219 165.300781 C 889.941406 164.121094 889.878906 164.191406 890.519531 163.640625 C 891.699219 162.621094 892.160156 162.121094 892.550781 161.578125 C 892.96875 160.941406 893.21875 160.339844 893.21875 159.558594 C 893.21875 159.339844 893.199219 159.121094 893.191406 158.96875 C 892.890625 157.199219 891.339844 155.871094 889.230469 155.871094 C 887.390625 155.871094 885.730469 157.371094 885.730469 159.089844 C 885.730469 159.699219 886.300781 160.28125 886.980469 160.28125 Z M 886.980469 160.28125 "/>
<path style=" stroke:none;fill-rule:nonzero;fill:rgb(0%,0%,0%);fill-opacity:1;" d="M 895.660156 162.578125 C 895.019531 162.578125 894.308594 163.019531 894.308594 163.78125 C 894.308594 165.03125 895.421875 165.890625 896.71875 165.890625 C 896.910156 165.890625 897.089844 165.890625 897.21875 165.871094 C 898.078125 165.691406 898.921875 165.109375 899.550781 164.140625 C 900.359375 162.921875 904.058594 152.890625 904.21875 152.71875 C 904.53125 152.140625 905.050781 151.828125 905.921875 151.769531 L 906.308594 151.769531 L 906.308594 150.660156 L 906.078125 150.660156 C 905.769531 150.691406 904.941406 150.699219 904.128906 150.699219 C 903.628906 150.699219 902.300781 150.699219 902.089844 150.660156 L 901.800781 150.660156 L 901.800781 151.769531 L 902.019531 151.769531 C 902.550781 151.769531 902.878906 152.050781 902.878906 152.589844 L 902.878906 152.808594 L 901.828125 155.550781 C 901.21875 157.050781 900.71875 158.28125 900.71875 158.308594 L 900.949219 158.308594 C 900.949219 158.308594 898.558594 152.910156 898.558594 152.171875 C 898.558594 151.828125 899.140625 151.769531 899.558594 151.769531 L 899.910156 151.769531 L 899.910156 150.660156 L 899.589844 150.660156 C 899.328125 150.699219 897.449219 150.730469 896.921875 150.730469 C 896.421875 150.730469 894.890625 150.730469 894.628906 150.660156 L 894.308594 150.660156 L 894.308594 151.769531 L 895.03125 151.769531 C 895.609375 151.769531 895.980469 151.78125 896.160156 152.121094 C 896.199219 152.171875 896.96875 154.199219 897.941406 156.609375 L 899.660156 161 L 899.25 162.03125 C 898.75 163.371094 898.421875 164.480469 897.359375 164.890625 C 897.140625 164.980469 896.878906 165.03125 896.660156 165.03125 C 896.5 165.03125 896.410156 165.019531 896.28125 164.941406 C 896.191406 164.890625 896.191406 164.890625 896.46875 164.75 C 896.550781 164.71875 896.949219 164.230469 896.949219 163.78125 C 896.949219 163.109375 896.328125 162.578125 895.660156 162.578125 Z M 895.660156 162.578125 "/>
<path style=" stroke:none;fill-rule:nonzero;fill:rgb(0%,0%,0%);fill-opacity:1;" d="M 908.199219 155 C 908.199219 155.269531 908.378906 155.390625 908.558594 155.480469 L 915.71875 155.480469 L 915.71875 162.558594 C 915.828125 162.828125 916.078125 162.96875 916.339844 162.96875 C 916.589844 162.96875 916.808594 162.828125 916.941406 162.558594 L 916.941406 155.480469 L 924.058594 155.480469 C 924.25 155.390625 924.449219 155.269531 924.449219 155 C 924.449219 154.730469 924.25 154.609375 924.058594 154.519531 L 916.941406 154.519531 L 916.941406 147.46875 C 916.808594 147.171875 916.578125 147.019531 916.339844 147.019531 C 916.089844 147.019531 915.859375 147.199219 915.730469 147.390625 L 915.71875 150.921875 L 915.71875 154.519531 L 908.558594 154.519531 C 908.378906 154.609375 908.199219 154.730469 908.199219 155 Z M 908.199219 155 "/>
<path style=" stroke:none;fill-rule:nonzero;fill:rgb(0%,0%,0%);fill-opacity:1;" d="M 934.410156 153.691406 C 935.128906 153.691406 935.808594 153.171875 935.808594 152.441406 C 935.808594 152.230469 935.800781 152.03125 935.75 151.871094 C 935.339844 150.621094 933.730469 150.25 932 150.25 C 930.691406 150.25 929.550781 150.699219 928.691406 151.410156 C 927.609375 152.308594 926.890625 153.578125 926.699219 155.078125 C 926.671875 155.230469 926.671875 155.550781 926.671875 155.859375 C 926.671875 156.171875 926.671875 156.480469 926.699219 156.621094 C 927.019531 158.480469 928.050781 159.921875 929.578125 160.71875 C 930.308594 161.089844 931.109375 161.269531 931.96875 161.269531 C 933.421875 161.269531 934.691406 160.640625 935.449219 159.53125 C 935.699219 159.160156 936.078125 158.339844 936.078125 158.121094 C 936.078125 158.050781 935.949219 157.949219 935.910156 157.910156 L 935.480469 157.910156 C 935.078125 157.910156 934.910156 157.921875 934.828125 158.191406 C 934.589844 159.03125 934.089844 159.75 933.46875 160.058594 C 933.160156 160.230469 932.910156 160.300781 932.53125 160.300781 C 931.328125 160.300781 930.519531 159.621094 929.980469 158.839844 C 929.480469 158.078125 929.269531 157.089844 929.269531 155.75 C 929.269531 153.921875 929.53125 152.808594 930.378906 151.96875 C 930.878906 151.421875 931.199219 151.199219 932.191406 151.199219 C 932.589844 151.199219 933.058594 151.25 933.378906 151.300781 C 933.660156 151.359375 933.519531 151.328125 933.378906 151.5 C 933.128906 151.730469 932.980469 152.078125 932.980469 152.410156 C 932.980469 153.078125 933.628906 153.691406 934.410156 153.691406 Z M 934.410156 153.691406 "/>
<path style=" stroke:none;fill-rule:nonzero;fill:rgb(0%,0%,0%);fill-opacity:1;" d="M 938.980469 160.28125 C 939.640625 160.28125 940.199219 159.699219 940.199219 159.121094 C 940.199219 158.558594 939.691406 157.96875 939.050781 157.96875 C 939 157.96875 939.109375 158.050781 939.109375 158.03125 C 939.109375 158.019531 939.140625 157.921875 939.21875 157.78125 C 939.609375 157.199219 940 156.859375 940.808594 156.859375 C 942.359375 156.859375 943.019531 158.058594 943.019531 159.578125 C 943.019531 160.621094 942.671875 161.449219 941.859375 162.550781 C 941.46875 163.050781 941.378906 163.171875 939.339844 165.421875 C 938.53125 166.339844 937.839844 167.121094 937.828125 167.140625 C 937.800781 167.191406 937.730469 167.28125 937.730469 167.589844 L 937.730469 168 L 944.71875 168 L 944.71875 167.839844 C 944.71875 167.808594 945.128906 164.730469 945.21875 164.550781 L 945.21875 164.449219 L 944.199219 164.449219 L 944.199219 164.578125 C 944.058594 165.390625 944.03125 165.550781 943.949219 165.800781 C 943.890625 165.980469 943.980469 166.089844 943.730469 166.191406 C 943.71875 166.199219 942.730469 166.199219 940.921875 166.199219 L 939.769531 166.199219 L 940.699219 165.300781 C 941.941406 164.121094 941.878906 164.191406 942.519531 163.640625 C 943.699219 162.621094 944.160156 162.121094 944.550781 161.578125 C 944.96875 160.941406 945.21875 160.339844 945.21875 159.558594 C 945.21875 159.339844 945.199219 159.121094 945.191406 158.96875 C 944.890625 157.199219 943.339844 155.871094 941.230469 155.871094 C 939.390625 155.871094 937.730469 157.371094 937.730469 159.089844 C 937.730469 159.699219 938.300781 160.28125 938.980469 160.28125 Z M 938.980469 160.28125 "/>
<path style=" stroke:none;fill-rule:nonzero;fill:rgb(0%,0%,0%);fill-opacity:1;" d="M 947.199219 152.671875 C 947.199219 152.949219 947.480469 153.078125 947.730469 153.160156 L 955.359375 153.160156 L 963.089844 153.121094 C 963.25 153.03125 963.449219 152.941406 963.449219 152.671875 C 963.449219 152.410156 963.25 152.28125 963.058594 152.191406 L 947.558594 152.191406 C 947.378906 152.28125 947.199219 152.410156 947.199219 152.671875 Z M 947.199219 157.328125 C 947.199219 157.589844 947.378906 157.71875 947.558594 157.808594 L 963.058594 157.808594 C 963.25 157.71875 963.449219 157.589844 963.449219 157.328125 C 963.449219 157.050781 963.230469 156.96875 963.089844 156.839844 L 947.730469 156.839844 C 947.480469 156.921875 947.199219 157.050781 947.199219 157.328125 Z M 947.199219 157.328125 "/>
<path style=" stroke:none;fill-rule:nonzero;fill:rgb(0%,0%,0%);fill-opacity:1;" d="M 967.191406 146.949219 C 966.160156 148.609375 965.800781 150.390625 965.800781 153.308594 C 965.800781 155.949219 966.109375 157.589844 966.839844 159.019531 C 967.558594 160.421875 969.019531 161.53125 971 161.53125 C 971.699219 161.53125 972.46875 161.359375 973.140625 161.03125 L 973.050781 161.03125 C 973.921875 160.589844 974.640625 159.980469 975.128906 159.019531 L 975.109375 159.019531 C 975.839844 157.589844 976.160156 155.949219 976.160156 153.308594 C 976.160156 150.839844 975.890625 149.230469 975.269531 147.839844 C 974.949219 147.160156 974.589844 146.640625 974.140625 146.21875 C 973.300781 145.449219 972.109375 145.019531 970.96875 145.019531 C 969.378906 145.019531 967.96875 145.808594 967.191406 146.949219 Z M 972.578125 146.671875 C 973.28125 147.390625 973.449219 148.160156 973.519531 150.75 C 973.519531 151.191406 973.550781 152.078125 973.550781 153.019531 C 973.550781 154.328125 973.519531 155.769531 973.5 156.21875 C 973.378906 158.449219 973.199219 159.171875 972.519531 159.890625 C 972.109375 160.359375 971.769531 160.609375 971 160.609375 C 970.230469 160.609375 969.839844 160.359375 969.441406 159.890625 C 968.75 159.171875 968.578125 158.449219 968.449219 156.21875 C 968.441406 155.769531 968.410156 154.328125 968.410156 153.019531 C 968.410156 152.078125 968.441406 151.191406 968.441406 150.75 C 968.5 148.160156 968.671875 147.390625 969.378906 146.671875 C 969.839844 146.171875 970.378906 145.910156 971 145.910156 C 971.75 145.910156 972.160156 146.191406 972.578125 146.671875 Z M 972.578125 146.671875 "/>
<path style="fill:none;stroke-width:1;stroke-linecap:square;stroke-linejoin:miter;stroke:rgb(100%,100%,100%);stroke-opacity:1;stroke-miterlimit:10;" d="M 376 427 L 540 427 L 540 384 L 376 384 Z M 376 427 " transform="matrix(1,0,0,-1,0,565)"/>
<path style=" stroke:none;fill-rule:nonzero;fill:rgb(0%,0%,0%);fill-opacity:1;" d="M 381.78125 155.691406 C 382.550781 155.691406 383.199219 155.078125 383.199219 154.390625 C 383.199219 154 382.941406 153.519531 382.671875 153.371094 C 382.671875 153.199219 383.878906 153.140625 384.160156 153.140625 C 385.359375 153.140625 386.03125 153.808594 386.339844 154.839844 C 386.46875 155.160156 386.480469 155.441406 386.480469 156.050781 L 386.480469 156.558594 L 386.300781 156.558594 C 384.558594 156.660156 383.269531 156.921875 382.128906 157.449219 C 381.519531 157.71875 381.050781 157.949219 380.628906 158.371094 C 380.128906 158.871094 379.671875 159.550781 379.671875 160.441406 C 379.671875 160.75 379.75 161.058594 379.859375 161.339844 C 380.308594 162.519531 381.921875 163.269531 383.558594 163.269531 C 384.589844 163.269531 385.628906 162.921875 386.390625 162.28125 C 386.578125 162.109375 386.828125 161.78125 386.75 161.839844 L 386.75 161.699219 C 386.96875 162.46875 387.769531 163.140625 388.589844 163.140625 C 389.691406 163.140625 390.609375 162.449219 390.878906 161.578125 C 390.921875 161.421875 390.921875 161.371094 390.949219 160.449219 L 390.949219 159.519531 L 389.730469 159.519531 L 389.730469 160.390625 C 389.730469 161.308594 389.730469 161.46875 389.609375 161.699219 L 389.578125 161.699219 C 389.480469 161.921875 389.46875 162.050781 389.269531 162.050781 C 389.078125 162.050781 389.019531 161.921875 388.910156 161.699219 L 388.890625 161.699219 C 388.75 161.421875 388.769531 161.480469 388.769531 158.339844 C 388.769531 155.21875 388.769531 155.269531 388.628906 154.839844 C 388.140625 153.300781 386.378906 152.25 384.230469 152.25 C 382.449219 152.25 380.96875 152.75 380.558594 153.609375 C 380.441406 153.871094 380.378906 154.140625 380.378906 154.390625 C 380.378906 155.078125 381.019531 155.691406 381.78125 155.691406 Z M 386.480469 158.800781 C 386.46875 160.140625 386.46875 160.21875 386.421875 160.390625 C 386.160156 161.441406 385.339844 162.371094 384.019531 162.371094 C 382.890625 162.371094 382.140625 161.53125 382.140625 160.449219 C 382.140625 160.078125 382.21875 159.691406 382.390625 159.371094 C 382.980469 158.25 384.328125 157.578125 386.578125 157.441406 C 386.628906 157.410156 386.699219 157.410156 386.699219 157.410156 L 386.609375 157.410156 C 386.628906 157.410156 386.480469 158.03125 386.480469 158.800781 Z M 386.480469 158.800781 "/>
<path style=" stroke:none;fill-rule:nonzero;fill:rgb(0%,0%,0%);fill-opacity:1;" d="M 392.980469 162.28125 C 393.640625 162.28125 394.199219 161.699219 394.199219 161.121094 C 394.199219 160.558594 393.691406 159.96875 393.050781 159.96875 C 393 159.96875 393.109375 160.050781 393.109375 160.03125 C 393.109375 160.019531 393.140625 159.921875 393.21875 159.78125 C 393.609375 159.199219 394 158.859375 394.808594 158.859375 C 396.359375 158.859375 397.019531 160.058594 397.019531 161.578125 C 397.019531 162.621094 396.671875 163.449219 395.859375 164.550781 C 395.46875 165.050781 395.378906 165.171875 393.339844 167.421875 C 392.53125 168.339844 391.839844 169.121094 391.828125 169.140625 C 391.800781 169.191406 391.730469 169.28125 391.730469 169.589844 L 391.730469 170 L 398.71875 170 L 398.71875 169.839844 C 398.71875 169.808594 399.128906 166.730469 399.21875 166.550781 L 399.21875 166.449219 L 398.199219 166.449219 L 398.199219 166.578125 C 398.058594 167.390625 398.03125 167.550781 397.949219 167.800781 C 397.890625 167.980469 397.980469 168.089844 397.730469 168.191406 C 397.71875 168.199219 396.730469 168.199219 394.921875 168.199219 L 393.769531 168.199219 L 394.699219 167.300781 C 395.941406 166.121094 395.878906 166.191406 396.519531 165.640625 C 397.699219 164.621094 398.160156 164.121094 398.550781 163.578125 C 398.96875 162.941406 399.21875 162.339844 399.21875 161.558594 C 399.21875 161.339844 399.199219 161.121094 399.191406 160.96875 C 398.890625 159.199219 397.339844 157.871094 395.230469 157.871094 C 393.390625 157.871094 391.730469 159.371094 391.730469 161.089844 C 391.730469 161.699219 392.300781 162.28125 392.980469 162.28125 Z M 392.980469 162.28125 "/>
<path style=" stroke:none;fill-rule:nonzero;fill:rgb(0%,0%,0%);fill-opacity:1;" d="M 404.828125 163 L 405.109375 163 L 405.109375 162.449219 C 405.109375 161.921875 404.980469 161.890625 404.941406 161.890625 C 404.609375 161.890625 404.46875 161.578125 404.46875 161.25 C 404.46875 161.121094 404.46875 161.019531 404.53125 160.890625 C 404.609375 160.769531 406.050781 158.828125 405.949219 158.871094 L 406.859375 160.121094 C 407.519531 161.019531 407.800781 161.46875 407.800781 161.480469 C 407.800781 161.691406 407.519531 161.890625 407.160156 161.890625 L 406.941406 161.890625 L 406.941406 163 L 407.300781 163 C 407.578125 162.949219 409.410156 162.921875 409.941406 162.921875 C 410.421875 162.921875 412 162.921875 412.230469 163 L 412.5 163 L 412.5 161.890625 L 411.96875 161.890625 C 411.109375 161.890625 410.660156 161.890625 410.300781 161.53125 C 410.21875 161.46875 409.5 160.480469 408.691406 159.371094 L 407.199219 157.339844 L 407.578125 156.828125 C 407.78125 156.558594 408.199219 156.019531 408.5 155.609375 C 409.230469 154.640625 409.359375 154.410156 409.859375 154.171875 L 409.949219 154.171875 C 410.421875 153.921875 411.160156 153.769531 411.808594 153.769531 L 412.089844 153.769531 L 412.089844 152.660156 L 411.828125 152.660156 C 411.609375 152.730469 410.21875 152.730469 409.800781 152.730469 C 409.339844 152.730469 407.628906 152.699219 407.421875 152.660156 L 407.109375 152.660156 L 407.109375 153.769531 L 407.25 153.769531 C 407.300781 153.78125 407.421875 153.808594 407.480469 153.859375 C 407.691406 153.96875 407.75 154.191406 407.75 154.410156 C 407.75 154.53125 407.75 154.671875 407.609375 154.949219 C 407.628906 154.859375 407.339844 155.269531 407.019531 155.699219 L 406.5 156.421875 C 406.359375 156.25 404.941406 154.230469 404.941406 154.140625 C 404.941406 153.910156 405.300781 153.808594 405.808594 153.769531 L 405.808594 152.660156 L 405.5 152.660156 C 405.359375 152.699219 404.699219 152.699219 404.078125 152.699219 L 403.03125 152.699219 C 402.050781 152.699219 400.980469 152.691406 400.550781 152.660156 L 400.230469 152.660156 L 400.230469 153.769531 L 401.058594 153.769531 C 401.421875 153.78125 401.800781 153.808594 401.921875 153.808594 C 402.191406 153.859375 402.328125 153.96875 402.449219 154.089844 C 402.5 154.140625 403.140625 155.03125 403.910156 156.089844 L 405.300781 157.949219 L 404.199219 159.410156 C 403.589844 160.191406 403.050781 160.910156 402.96875 160.980469 C 402.421875 161.53125 401.699219 161.828125 400.589844 161.890625 L 400.128906 161.890625 L 400.128906 163 L 400.410156 163 C 400.671875 162.921875 401.980469 162.921875 402.449219 162.921875 C 402.910156 162.921875 404.578125 162.949219 404.828125 163 Z M 404.828125 163 "/>
<path style=" stroke:none;fill-rule:nonzero;fill:rgb(0%,0%,0%);fill-opacity:1;" d="M 414.199219 157 C 414.199219 157.269531 414.378906 157.390625 414.558594 157.480469 L 421.71875 157.480469 L 421.71875 164.558594 C 421.828125 164.828125 422.078125 164.96875 422.339844 164.96875 C 422.589844 164.96875 422.808594 164.828125 422.941406 164.558594 L 422.941406 157.480469 L 430.058594 157.480469 C 430.25 157.390625 430.449219 157.269531 430.449219 157 C 430.449219 156.730469 430.25 156.609375 430.058594 156.519531 L 422.941406 156.519531 L 422.941406 149.46875 C 422.808594 149.171875 422.578125 149.019531 422.339844 149.019531 C 422.089844 149.019531 421.859375 149.199219 421.730469 149.390625 L 421.71875 152.921875 L 421.71875 156.519531 L 414.558594 156.519531 C 414.378906 156.609375 414.199219 156.730469 414.199219 157 Z M 414.199219 157 "/>
<path style=" stroke:none;fill-rule:nonzero;fill:rgb(0%,0%,0%);fill-opacity:1;" d="M 434.359375 146.480469 C 433.378906 146.53125 432.550781 146.609375 432.53125 146.609375 C 432.480469 146.609375 432.339844 146.660156 432.339844 147.160156 L 432.339844 147.71875 L 432.910156 147.71875 C 433.96875 147.769531 434.089844 147.910156 434.191406 148.53125 C 434.199219 148.621094 434.199219 151.910156 434.199219 155.839844 L 434.199219 163 L 434.828125 163 L 435.410156 162.96875 L 435.53125 162.769531 C 435.589844 162.640625 435.769531 162.328125 435.890625 162.109375 L 436.058594 161.828125 L 436.078125 161.839844 C 436.78125 162.589844 438.03125 163.269531 439.378906 163.269531 C 442.199219 163.269531 444.21875 161.109375 444.589844 158.660156 C 444.628906 158.46875 444.640625 158.160156 444.640625 157.808594 C 444.640625 154.941406 442.75 152.890625 440.550781 152.46875 C 440.300781 152.421875 440.050781 152.390625 439.75 152.390625 C 438.441406 152.390625 437.089844 152.871094 436.339844 153.5 C 436.269531 153.558594 436.421875 153.609375 436.421875 153.609375 L 436.308594 153.609375 C 436.300781 153.609375 436.421875 151.980469 436.421875 149.96875 L 436.421875 146.339844 L 436.21875 146.339844 C 436.171875 146.339844 435.339844 146.421875 434.359375 146.480469 Z M 439.941406 153.359375 C 440.859375 153.589844 441.441406 154.28125 441.75 155.25 C 441.941406 155.839844 442.03125 156.78125 442.03125 157.910156 C 442.03125 159.050781 441.949219 159.660156 441.75 160.28125 C 441.628906 160.621094 441.578125 160.808594 441.390625 161.078125 C 440.828125 161.890625 440.050781 162.371094 439.078125 162.371094 C 438.839844 162.371094 438.578125 162.359375 438.339844 162.28125 C 437.609375 162.089844 437.050781 161.558594 436.578125 160.808594 L 436.480469 160.71875 L 436.480469 154.808594 L 436.609375 154.671875 C 437.191406 153.871094 438.078125 153.28125 439.199219 153.28125 C 439.46875 153.28125 439.75 153.328125 439.941406 153.359375 Z M 439.941406 153.359375 "/>
<path style=" stroke:none;fill-rule:nonzero;fill:rgb(0%,0%,0%);fill-opacity:1;" d="M 446.980469 162.28125 C 447.640625 162.28125 448.199219 161.699219 448.199219 161.121094 C 448.199219 160.558594 447.691406 159.96875 447.050781 159.96875 C 447 159.96875 447.109375 160.050781 447.109375 160.03125 C 447.109375 160.019531 447.140625 159.921875 447.21875 159.78125 C 447.609375 159.199219 448 158.859375 448.808594 158.859375 C 450.359375 158.859375 451.019531 160.058594 451.019531 161.578125 C 451.019531 162.621094 450.671875 163.449219 449.859375 164.550781 C 449.46875 165.050781 449.378906 165.171875 447.339844 167.421875 C 446.53125 168.339844 445.839844 169.121094 445.828125 169.140625 C 445.800781 169.191406 445.730469 169.28125 445.730469 169.589844 L 445.730469 170 L 452.71875 170 L 452.71875 169.839844 C 452.71875 169.808594 453.128906 166.730469 453.21875 166.550781 L 453.21875 166.449219 L 452.199219 166.449219 L 452.199219 166.578125 C 452.058594 167.390625 452.03125 167.550781 451.949219 167.800781 C 451.890625 167.980469 451.980469 168.089844 451.730469 168.191406 C 451.71875 168.199219 450.730469 168.199219 448.921875 168.199219 L 447.769531 168.199219 L 448.699219 167.300781 C 449.941406 166.121094 449.878906 166.191406 450.519531 165.640625 C 451.699219 164.621094 452.160156 164.121094 452.550781 163.578125 C 452.96875 162.941406 453.21875 162.339844 453.21875 161.558594 C 453.21875 161.339844 453.199219 161.121094 453.191406 160.96875 C 452.890625 159.199219 451.339844 157.871094 449.230469 157.871094 C 447.390625 157.871094 445.730469 159.371094 445.730469 161.089844 C 445.730469 161.699219 446.300781 162.28125 446.980469 162.28125 Z M 446.980469 162.28125 "/>
<path style=" stroke:none;fill-rule:nonzero;fill:rgb(0%,0%,0%);fill-opacity:1;" d="M 455.660156 164.578125 C 455.019531 164.578125 454.308594 165.019531 454.308594 165.78125 C 454.308594 167.03125 455.421875 167.890625 456.71875 167.890625 C 456.910156 167.890625 457.089844 167.890625 457.21875 167.871094 C 458.078125 167.691406 458.921875 167.109375 459.550781 166.140625 C 460.359375 164.921875 464.058594 154.890625 464.21875 154.71875 C 464.53125 154.140625 465.050781 153.828125 465.921875 153.769531 L 466.308594 153.769531 L 466.308594 152.660156 L 466.078125 152.660156 C 465.769531 152.691406 464.941406 152.699219 464.128906 152.699219 C 463.628906 152.699219 462.300781 152.699219 462.089844 152.660156 L 461.800781 152.660156 L 461.800781 153.769531 L 462.019531 153.769531 C 462.550781 153.769531 462.878906 154.050781 462.878906 154.589844 L 462.878906 154.808594 L 461.828125 157.550781 C 461.21875 159.050781 460.71875 160.28125 460.71875 160.308594 L 460.949219 160.308594 C 460.949219 160.308594 458.558594 154.910156 458.558594 154.171875 C 458.558594 153.828125 459.140625 153.769531 459.558594 153.769531 L 459.910156 153.769531 L 459.910156 152.660156 L 459.589844 152.660156 C 459.328125 152.699219 457.449219 152.730469 456.921875 152.730469 C 456.421875 152.730469 454.890625 152.730469 454.628906 152.660156 L 454.308594 152.660156 L 454.308594 153.769531 L 455.03125 153.769531 C 455.609375 153.769531 455.980469 153.78125 456.160156 154.121094 C 456.199219 154.171875 456.96875 156.199219 457.941406 158.609375 L 459.660156 163 L 459.25 164.03125 C 458.75 165.371094 458.421875 166.480469 457.359375 166.890625 C 457.140625 166.980469 456.878906 167.03125 456.660156 167.03125 C 456.5 167.03125 456.410156 167.019531 456.28125 166.941406 C 456.191406 166.890625 456.191406 166.890625 456.46875 166.75 C 456.550781 166.71875 456.949219 166.230469 456.949219 165.78125 C 456.949219 165.109375 456.328125 164.578125 455.660156 164.578125 Z M 455.660156 164.578125 "/>
<path style=" stroke:none;fill-rule:nonzero;fill:rgb(0%,0%,0%);fill-opacity:1;" d="M 468.199219 157 C 468.199219 157.269531 468.378906 157.390625 468.558594 157.480469 L 475.71875 157.480469 L 475.71875 164.558594 C 475.828125 164.828125 476.078125 164.96875 476.339844 164.96875 C 476.589844 164.96875 476.808594 164.828125 476.941406 164.558594 L 476.941406 157.480469 L 484.058594 157.480469 C 484.25 157.390625 484.449219 157.269531 484.449219 157 C 484.449219 156.730469 484.25 156.609375 484.058594 156.519531 L 476.941406 156.519531 L 476.941406 149.46875 C 476.808594 149.171875 476.578125 149.019531 476.339844 149.019531 C 476.089844 149.019531 475.859375 149.199219 475.730469 149.390625 L 475.71875 152.921875 L 475.71875 156.519531 L 468.558594 156.519531 C 468.378906 156.609375 468.199219 156.730469 468.199219 157 Z M 468.199219 157 "/>
<path style=" stroke:none;fill-rule:nonzero;fill:rgb(0%,0%,0%);fill-opacity:1;" d="M 494.410156 155.691406 C 495.128906 155.691406 495.808594 155.171875 495.808594 154.441406 C 495.808594 154.230469 495.800781 154.03125 495.75 153.871094 C 495.339844 152.621094 493.730469 152.25 492 152.25 C 490.691406 152.25 489.550781 152.699219 488.691406 153.410156 C 487.609375 154.308594 486.890625 155.578125 486.699219 157.078125 C 486.671875 157.230469 486.671875 157.550781 486.671875 157.859375 C 486.671875 158.171875 486.671875 158.480469 486.699219 158.621094 C 487.019531 160.480469 488.050781 161.921875 489.578125 162.71875 C 490.308594 163.089844 491.109375 163.269531 491.96875 163.269531 C 493.421875 163.269531 494.691406 162.640625 495.449219 161.53125 C 495.699219 161.160156 496.078125 160.339844 496.078125 160.121094 C 496.078125 160.050781 495.949219 159.949219 495.910156 159.910156 L 495.480469 159.910156 C 495.078125 159.910156 494.910156 159.921875 494.828125 160.191406 C 494.589844 161.03125 494.089844 161.75 493.46875 162.058594 C 493.160156 162.230469 492.910156 162.300781 492.53125 162.300781 C 491.328125 162.300781 490.519531 161.621094 489.980469 160.839844 C 489.480469 160.078125 489.269531 159.089844 489.269531 157.75 C 489.269531 155.921875 489.53125 154.808594 490.378906 153.96875 C 490.878906 153.421875 491.199219 153.199219 492.191406 153.199219 C 492.589844 153.199219 493.058594 153.25 493.378906 153.300781 C 493.660156 153.359375 493.519531 153.328125 493.378906 153.5 C 493.128906 153.730469 492.980469 154.078125 492.980469 154.410156 C 492.980469 155.078125 493.628906 155.691406 494.410156 155.691406 Z M 494.410156 155.691406 "/>
<path style=" stroke:none;fill-rule:nonzero;fill:rgb(0%,0%,0%);fill-opacity:1;" d="M 504.480469 170 L 504.828125 170 L 504.828125 169.03125 L 503.628906 169.03125 C 503.078125 169.03125 502.800781 169.050781 502.589844 168.828125 L 502.578125 163.441406 L 502.578125 158.050781 C 502.421875 157.921875 502.359375 157.871094 502.128906 157.871094 C 501.96875 157.871094 501.839844 157.910156 501.808594 157.949219 C 501.71875 158.050781 501.410156 158.28125 501.25 158.371094 C 500.578125 158.78125 499.839844 158.980469 498.839844 159.019531 L 498.328125 159.019531 L 498.328125 159.980469 L 498.839844 159.980469 C 499.519531 159.96875 500.171875 159.839844 500.941406 159.558594 C 500.859375 159.589844 500.808594 159.589844 500.671875 159.589844 L 500.671875 168.808594 C 500.589844 168.890625 500.628906 168.949219 500.410156 168.96875 C 500.199219 169.019531 499.578125 169.03125 499.050781 169.03125 L 498.421875 169.03125 L 498.421875 170 L 498.800781 170 C 499.109375 169.949219 501.050781 169.949219 501.628906 169.949219 C 502.199219 169.949219 504.191406 169.949219 504.480469 170 Z M 504.480469 170 "/>
<path style=" stroke:none;fill-rule:nonzero;fill:rgb(0%,0%,0%);fill-opacity:1;" d="M 507.199219 154.671875 C 507.199219 154.949219 507.480469 155.078125 507.730469 155.160156 L 515.359375 155.160156 L 523.089844 155.121094 C 523.25 155.03125 523.449219 154.941406 523.449219 154.671875 C 523.449219 154.410156 523.25 154.28125 523.058594 154.191406 L 507.558594 154.191406 C 507.378906 154.28125 507.199219 154.410156 507.199219 154.671875 Z M 507.199219 159.328125 C 507.199219 159.589844 507.378906 159.71875 507.558594 159.808594 L 523.058594 159.808594 C 523.25 159.71875 523.449219 159.589844 523.449219 159.328125 C 523.449219 159.050781 523.230469 158.96875 523.089844 158.839844 L 507.730469 158.839844 C 507.480469 158.921875 507.199219 159.050781 507.199219 159.328125 Z M 507.199219 159.328125 "/>
<path style=" stroke:none;fill-rule:nonzero;fill:rgb(0%,0%,0%);fill-opacity:1;" d="M 527.191406 148.949219 C 526.160156 150.609375 525.800781 152.390625 525.800781 155.308594 C 525.800781 157.949219 526.109375 159.589844 526.839844 161.019531 C 527.558594 162.421875 529.019531 163.53125 531 163.53125 C 531.699219 163.53125 532.46875 163.359375 533.140625 163.03125 L 533.050781 163.03125 C 533.921875 162.589844 534.640625 161.980469 535.128906 161.019531 L 535.109375 161.019531 C 535.839844 159.589844 536.160156 157.949219 536.160156 155.308594 C 536.160156 152.839844 535.890625 151.230469 535.269531 149.839844 C 534.949219 149.160156 534.589844 148.640625 534.140625 148.21875 C 533.300781 147.449219 532.109375 147.019531 530.96875 147.019531 C 529.378906 147.019531 527.96875 147.808594 527.191406 148.949219 Z M 532.578125 148.671875 C 533.28125 149.390625 533.449219 150.160156 533.519531 152.75 C 533.519531 153.191406 533.550781 154.078125 533.550781 155.019531 C 533.550781 156.328125 533.519531 157.769531 533.5 158.21875 C 533.378906 160.449219 533.199219 161.171875 532.519531 161.890625 C 532.109375 162.359375 531.769531 162.609375 531 162.609375 C 530.230469 162.609375 529.839844 162.359375 529.441406 161.890625 C 528.75 161.171875 528.578125 160.449219 528.449219 158.21875 C 528.441406 157.769531 528.410156 156.328125 528.410156 155.019531 C 528.410156 154.078125 528.441406 153.191406 528.441406 152.75 C 528.5 150.160156 528.671875 149.390625 529.378906 148.671875 C 529.839844 148.171875 530.378906 147.910156 531 147.910156 C 531.75 147.910156 532.160156 148.191406 532.578125 148.671875 Z M 532.578125 148.671875 "/>
</g>
</svg>
