<?xml version="1.0" encoding="UTF-8"?>
<svg xmlns="http://www.w3.org/2000/svg" xmlns:xlink="http://www.w3.org/1999/xlink" width="1366pt" height="565pt" viewBox="0 0 1366 565" version="1.1">
<g id="surface1">
<path style="fill:none;stroke-width:1;stroke-linecap:square;stroke-linejoin:miter;stroke:rgb(89.411926%,89.411926%,89.411926%);stroke-opacity:1;stroke-miterlimit:10;" d="M 25 565 L 25 0 " transform="matrix(1,0,0,-1,0,565)"/>
<path style="fill:none;stroke-width:1;stroke-linecap:square;stroke-linejoin:miter;stroke:rgb(89.411926%,89.411926%,89.411926%);stroke-opacity:1;stroke-miterlimit:10;" d="M 65 565 L 65 0 " transform="matrix(1,0,0,-1,0,565)"/>
<path style="fill:none;stroke-width:1;stroke-linecap:square;stroke-linejoin:miter;stroke:rgb(89.411926%,89.411926%,89.411926%);stroke-opacity:1;stroke-miterlimit:10;" d="M 104 565 L 104 0 " transform="matrix(1,0,0,-1,0,565)"/>
<path style="fill:none;stroke-width:1;stroke-linecap:square;stroke-linejoin:miter;stroke:rgb(89.411926%,89.411926%,89.411926%);stroke-opacity:1;stroke-miterlimit:10;" d="M 144 565 L 144 0 " transform="matrix(1,0,0,-1,0,565)"/>
<path style="fill:none;stroke-width:1;stroke-linecap:square;stroke-linejoin:miter;stroke:rgb(89.411926%,89.411926%,89.411926%);stroke-opacity:1;stroke-miterlimit:10;" d="M 184 565 L 184 0 " transform="matrix(1,0,0,-1,0,565)"/>
<path style="fill:none;stroke-width:1;stroke-linecap:square;stroke-linejoin:miter;stroke:rgb(89.411926%,89.411926%,89.411926%);stroke-opacity:1;stroke-miterlimit:10;" d="M 224 565 L 224 0 " transform="matrix(1,0,0,-1,0,565)"/>
<path style="fill:none;stroke-width:1;stroke-linecap:square;stroke-linejoin:miter;stroke:rgb(89.411926%,89.411926%,89.411926%);stroke-opacity:1;stroke-miterlimit:10;" d="M 263 565 L 263 0 " transform="matrix(1,0,0,-1,0,565)"/>
<path style="fill:none;stroke-width:1;stroke-linecap:square;stroke-linejoin:miter;stroke:rgb(89.411926%,89.411926%,89.411926%);stroke-opacity:1;stroke-miterlimit:10;" d="M 303 565 L 303 0 " transform="matrix(1,0,0,-1,0,565)"/>
<path style="fill:none;stroke-width:1;stroke-linecap:square;stroke-linejoin:miter;stroke:rgb(89.411926%,89.411926%,89.411926%);stroke-opacity:1;stroke-miterlimit:10;" d="M 343 565 L 343 0 " transform="matrix(1,0,0,-1,0,565)"/>
<path style="fill:none;stroke-width:1;stroke-linecap:square;stroke-linejoin:miter;stroke:rgb(89.411926%,89.411926%,89.411926%);stroke-opacity:1;stroke-miterlimit:10;" d="M 383 565 L 383 0 " transform="matrix(1,0,0,-1,0,565)"/>
<path style="fill:none;stroke-width:1;stroke-linecap:square;stroke-linejoin:miter;stroke:rgb(89.411926%,89.411926%,89.411926%);stroke-opacity:1;stroke-miterlimit:10;" d="M 422 565 L 422 0 " transform="matrix(1,0,0,-1,0,565)"/>
<path style="fill:none;stroke-width:1;stroke-linecap:square;stroke-linejoin:miter;stroke:rgb(89.411926%,89.411926%,89.411926%);stroke-opacity:1;stroke-miterlimit:10;" d="M 462 565 L 462 0 " transform="matrix(1,0,0,-1,0,565)"/>
<path style="fill:none;stroke-width:1;stroke-linecap:square;stroke-linejoin:miter;stroke:rgb(89.411926%,89.411926%,89.411926%);stroke-opacity:1;stroke-miterlimit:10;" d="M 502 565 L 502 0 " transform="matrix(1,0,0,-1,0,565)"/>
<path style="fill:none;stroke-width:1;stroke-linecap:square;stroke-linejoin:miter;stroke:rgb(89.411926%,89.411926%,89.411926%);stroke-opacity:1;stroke-miterlimit:10;" d="M 541 565 L 541 0 " transform="matrix(1,0,0,-1,0,565)"/>
<path style="fill:none;stroke-width:1;stroke-linecap:square;stroke-linejoin:miter;stroke:rgb(89.411926%,89.411926%,89.411926%);stroke-opacity:1;stroke-miterlimit:10;" d="M 581 565 L 581 0 " transform="matrix(1,0,0,-1,0,565)"/>
<path style="fill:none;stroke-width:1;stroke-linecap:square;stroke-linejoin:miter;stroke:rgb(89.411926%,89.411926%,89.411926%);stroke-opacity:1;stroke-miterlimit:10;" d="M 621 565 L 621 0 " transform="matrix(1,0,0,-1,0,565)"/>
<path style="fill:none;stroke-width:1;stroke-linecap:square;stroke-linejoin:miter;stroke:rgb(89.411926%,89.411926%,89.411926%);stroke-opacity:1;stroke-miterlimit:10;" d="M 661 565 L 661 0 " transform="matrix(1,0,0,-1,0,565)"/>
<path style="fill:none;stroke-width:1;stroke-linecap:square;stroke-linejoin:miter;stroke:rgb(89.411926%,89.411926%,89.411926%);stroke-opacity:1;stroke-miterlimit:10;" d="M 700 565 L 700 0 " transform="matrix(1,0,0,-1,0,565)"/>
<path style="fill:none;stroke-width:1;stroke-linecap:square;stroke-linejoin:miter;stroke:rgb(89.411926%,89.411926%,89.411926%);stroke-opacity:1;stroke-miterlimit:10;" d="M 740 565 L 740 0 " transform="matrix(1,0,0,-1,0,565)"/>
<path style="fill:none;stroke-width:1;stroke-linecap:square;stroke-linejoin:miter;stroke:rgb(89.411926%,89.411926%,89.411926%);stroke-opacity:1;stroke-miterlimit:10;" d="M 780 565 L 780 0 " transform="matrix(1,0,0,-1,0,565)"/>
<path style="fill:none;stroke-width:1;stroke-linecap:square;stroke-linejoin:miter;stroke:rgb(89.411926%,89.411926%,89.411926%);stroke-opacity:1;stroke-miterlimit:10;" d="M 820 565 L 820 0 " transform="matrix(1,0,0,-1,0,565)"/>
<path style="fill:none;stroke-width:1;stroke-linecap:square;stroke-linejoin:miter;stroke:rgb(89.411926%,89.411926%,89.411926%);stroke-opacity:1;stroke-miterlimit:10;" d="M 859 565 L 859 0 " transform="matrix(1,0,0,-1,0,565)"/>
<path style="fill:none;stroke-width:1;stroke-linecap:square;stroke-linejoin:miter;stroke:rgb(89.411926%,89.411926%,89.411926%);stroke-opacity:1;stroke-miterlimit:10;" d="M 899 565 L 899 0 " transform="matrix(1,0,0,-1,0,565)"/>
<path style="fill:none;stroke-width:1;stroke-linecap:square;stroke-linejoin:miter;stroke:rgb(89.411926%,89.411926%,89.411926%);stroke-opacity:1;stroke-miterlimit:10;" d="M 939 565 L 939 0 " transform="matrix(1,0,0,-1,0,565)"/>
<path style="fill:none;stroke-width:1;stroke-linecap:square;stroke-linejoin:miter;stroke:rgb(89.411926%,89.411926%,89.411926%);stroke-opacity:1;stroke-miterlimit:10;" d="M 978 565 L 978 0 " transform="matrix(1,0,0,-1,0,565)"/>
<path style="fill:none;stroke-width:1;stroke-linecap:square;stroke-linejoin:miter;stroke:rgb(89.411926%,89.411926%,89.411926%);stroke-opacity:1;stroke-miterlimit:10;" d="M 1018 565 L 1018 0 " transform="matrix(1,0,0,-1,0,565)"/>
<path style="fill:none;stroke-width:1;stroke-linecap:square;stroke-linejoin:miter;stroke:rgb(89.411926%,89.411926%,89.411926%);stroke-opacity:1;stroke-miterlimit:10;" d="M 1058 565 L 1058 0 " transform="matrix(1,0,0,-1,0,565)"/>
<path style="fill:none;stroke-width:1;stroke-linecap:square;stroke-linejoin:miter;stroke:rgb(89.411926%,89.411926%,89.411926%);stroke-opacity:1;stroke-miterlimit:10;" d="M 1098 565 L 1098 0 " transform="matrix(1,0,0,-1,0,565)"/>
<path style="fill:none;stroke-width:1;stroke-linecap:square;stroke-linejoin:miter;stroke:rgb(89.411926%,89.411926%,89.411926%);stroke-opacity:1;stroke-miterlimit:10;" d="M 1137 565 L 1137 0 " transform="matrix(1,0,0,-1,0,565)"/>
<path style="fill:none;stroke-width:1;stroke-linecap:square;stroke-linejoin:miter;stroke:rgb(89.411926%,89.411926%,89.411926%);stroke-opacity:1;stroke-miterlimit:10;" d="M 1177 565 L 1177 0 " transform="matrix(1,0,0,-1,0,565)"/>
<path style="fill:none;stroke-width:1;stroke-linecap:square;stroke-linejoin:miter;stroke:rgb(89.411926%,89.411926%,89.411926%);stroke-opacity:1;stroke-miterlimit:10;" d="M 1217 565 L 1217 0 " transform="matrix(1,0,0,-1,0,565)"/>
<path style="fill:none;stroke-width:1;stroke-linecap:square;stroke-linejoin:miter;stroke:rgb(89.411926%,89.411926%,89.411926%);stroke-opacity:1;stroke-miterlimit:10;" d="M 1257 565 L 1257 0 " transform="matrix(1,0,0,-1,0,565)"/>
<path style="fill:none;stroke-width:1;stroke-linecap:square;stroke-linejoin:miter;stroke:rgb(89.411926%,89.411926%,89.411926%);stroke-opacity:1;stroke-miterlimit:10;" d="M 1296 565 L 1296 0 " transform="matrix(1,0,0,-1,0,565)"/>
<path style="fill:none;stroke-width:1;stroke-linecap:square;stroke-linejoin:miter;stroke:rgb(89.411926%,89.411926%,89.411926%);stroke-opacity:1;stroke-miterlimit:10;" d="M 1336 565 L 1336 0 " transform="matrix(1,0,0,-1,0,565)"/>
<path style="fill:none;stroke-width:1;stroke-linecap:square;stroke-linejoin:miter;stroke:rgb(89.411926%,89.411926%,89.411926%);stroke-opacity:1;stroke-miterlimit:10;" d="M 0 547 L 1366 547 " transform="matrix(1,0,0,-1,0,565)"/>
<path style="fill:none;stroke-width:1;stroke-linecap:square;stroke-linejoin:miter;stroke:rgb(89.411926%,89.411926%,89.411926%);stroke-opacity:1;stroke-miterlimit:10;" d="M 0 507 L 1366 507 " transform="matrix(1,0,0,-1,0,565)"/>
<path style="fill:none;stroke-width:1;stroke-linecap:square;stroke-linejoin:miter;stroke:rgb(89.411926%,89.411926%,89.411926%);stroke-opacity:1;stroke-miterlimit:10;" d="M 0 468 L 1366 468 " transform="matrix(1,0,0,-1,0,565)"/>
<path style="fill:none;stroke-width:1;stroke-linecap:square;stroke-linejoin:miter;stroke:rgb(89.411926%,89.411926%,89.411926%);stroke-opacity:1;stroke-miterlimit:10;" d="M 0 428 L 1366 428 " transform="matrix(1,0,0,-1,0,565)"/>
<path style="fill:none;stroke-width:1;stroke-linecap:square;stroke-linejoin:miter;stroke:rgb(89.411926%,89.411926%,89.411926%);stroke-opacity:1;stroke-miterlimit:10;" d="M 0 388 L 1366 388 " transform="matrix(1,0,0,-1,0,565)"/>
<path style="fill:none;stroke-width:1;stroke-linecap:square;stroke-linejoin:miter;stroke:rgb(89.411926%,89.411926%,89.411926%);stroke-opacity:1;stroke-miterlimit:10;" d="M 0 348 L 1366 348 " transform="matrix(1,0,0,-1,0,565)"/>
<path style="fill:none;stroke-width:1;stroke-linecap:square;stroke-linejoin:miter;stroke:rgb(89.411926%,89.411926%,89.411926%);stroke-opacity:1;stroke-miterlimit:10;" d="M 0 309 L 1366 309 " transform="matrix(1,0,0,-1,0,565)"/>
<path style="fill:none;stroke-width:1;stroke-linecap:square;stroke-linejoin:miter;stroke:rgb(89.411926%,89.411926%,89.411926%);stroke-opacity:1;stroke-miterlimit:10;" d="M 0 269 L 1366 269 " transform="matrix(1,0,0,-1,0,565)"/>
<path style="fill:none;stroke-width:1;stroke-linecap:square;stroke-linejoin:miter;stroke:rgb(89.411926%,89.411926%,89.411926%);stroke-opacity:1;stroke-miterlimit:10;" d="M 0 229 L 1366 229 " transform="matrix(1,0,0,-1,0,565)"/>
<path style="fill:none;stroke-width:1;stroke-linecap:square;stroke-linejoin:miter;stroke:rgb(89.411926%,89.411926%,89.411926%);stroke-opacity:1;stroke-miterlimit:10;" d="M 0 189 L 1366 189 " transform="matrix(1,0,0,-1,0,565)"/>
<path style="fill:none;stroke-width:1;stroke-linecap:square;stroke-linejoin:miter;stroke:rgb(89.411926%,89.411926%,89.411926%);stroke-opacity:1;stroke-miterlimit:10;" d="M 0 150 L 1366 150 " transform="matrix(1,0,0,-1,0,565)"/>
<path style="fill:none;stroke-width:1;stroke-linecap:square;stroke-linejoin:miter;stroke:rgb(89.411926%,89.411926%,89.411926%);stroke-opacity:1;stroke-miterlimit:10;" d="M 0 110 L 1366 110 " transform="matrix(1,0,0,-1,0,565)"/>
<path style="fill:none;stroke-width:1;stroke-linecap:square;stroke-linejoin:miter;stroke:rgb(89.411926%,89.411926%,89.411926%);stroke-opacity:1;stroke-miterlimit:10;" d="M 0 70 L 1366 70 " transform="matrix(1,0,0,-1,0,565)"/>
<path style="fill:none;stroke-width:1;stroke-linecap:square;stroke-linejoin:miter;stroke:rgb(89.411926%,89.411926%,89.411926%);stroke-opacity:1;stroke-miterlimit:10;" d="M 0 31 L 1366 31 " transform="matrix(1,0,0,-1,0,565)"/>
<path style="fill:none;stroke-width:1;stroke-linecap:square;stroke-linejoin:miter;stroke:rgb(79.606628%,79.606628%,79.606628%);stroke-opacity:1;stroke-miterlimit:10;" d="M 661 564 L 661 0 " transform="matrix(1,0,0,-1,0,565)"/>
<path style="fill:none;stroke-width:1;stroke-linecap:square;stroke-linejoin:miter;stroke:rgb(79.606628%,79.606628%,79.606628%);stroke-opacity:1;stroke-miterlimit:10;" d="M 660 564 L 660 0 " transform="matrix(1,0,0,-1,0,565)"/>
<path style="fill:none;stroke-width:1;stroke-linecap:square;stroke-linejoin:miter;stroke:rgb(79.606628%,79.606628%,79.606628%);stroke-opacity:1;stroke-miterlimit:10;" d="M 662 564 L 662 0 " transform="matrix(1,0,0,-1,0,565)"/>
<path style="fill:none;stroke-width:1;stroke-linecap:square;stroke-linejoin:miter;stroke:rgb(79.606628%,79.606628%,79.606628%);stroke-opacity:1;stroke-miterlimit:10;" d="M 656 560 L 661 565 " transform="matrix(1,0,0,-1,0,565)"/>
<path style="fill:none;stroke-width:1;stroke-linecap:square;stroke-linejoin:miter;stroke:rgb(79.606628%,79.606628%,79.606628%);stroke-opacity:1;stroke-miterlimit:10;" d="M 666 560 L 661 565 " transform="matrix(1,0,0,-1,0,565)"/>
<path style="fill:none;stroke-width:1;stroke-linecap:square;stroke-linejoin:miter;stroke:rgb(79.606628%,79.606628%,79.606628%);stroke-opacity:1;stroke-miterlimit:10;" d="M 656 559 L 661 564 " transform="matrix(1,0,0,-1,0,565)"/>
<path style="fill:none;stroke-width:1;stroke-linecap:square;stroke-linejoin:miter;stroke:rgb(79.606628%,79.606628%,79.606628%);stroke-opacity:1;stroke-miterlimit:10;" d="M 666 559 L 661 564 " transform="matrix(1,0,0,-1,0,565)"/>
<path style="fill:none;stroke-width:1;stroke-linecap:square;stroke-linejoin:miter;stroke:rgb(79.606628%,79.606628%,79.606628%);stroke-opacity:1;stroke-miterlimit:10;" d="M 0 110 L 1365 110 " transform="matrix(1,0,0,-1,0,565)"/>
<path style="fill:none;stroke-width:1;stroke-linecap:square;stroke-linejoin:miter;stroke:rgb(79.606628%,79.606628%,79.606628%);stroke-opacity:1;stroke-miterlimit:10;" d="M 0 111 L 1365 111 " transform="matrix(1,0,0,-1,0,565)"/>
<path style="fill:none;stroke-width:1;stroke-linecap:square;stroke-linejoin:miter;stroke:rgb(79.606628%,79.606628%,79.606628%);stroke-opacity:1;stroke-miterlimit:10;" d="M 0 109 L 1365 109 " transform="matrix(1,0,0,-1,0,565)"/>
<path style="fill:none;stroke-width:1;stroke-linecap:square;stroke-linejoin:miter;stroke:rgb(79.606628%,79.606628%,79.606628%);stroke-opacity:1;stroke-miterlimit:10;" d="M 1361 115 L 1366 110 " transform="matrix(1,0,0,-1,0,565)"/>
<path style="fill:none;stroke-width:1;stroke-linecap:square;stroke-linejoin:miter;stroke:rgb(79.606628%,79.606628%,79.606628%);stroke-opacity:1;stroke-miterlimit:10;" d="M 1361 105 L 1366 110 " transform="matrix(1,0,0,-1,0,565)"/>
<path style="fill:none;stroke-width:1;stroke-linecap:square;stroke-linejoin:miter;stroke:rgb(79.606628%,79.606628%,79.606628%);stroke-opacity:1;stroke-miterlimit:10;" d="M 1360 115 L 1365 110 " transform="matrix(1,0,0,-1,0,565)"/>
<path style="fill:none;stroke-width:1;stroke-linecap:square;stroke-linejoin:miter;stroke:rgb(79.606628%,79.606628%,79.606628%);stroke-opacity:1;stroke-miterlimit:10;" d="M 1360 105 L 1365 110 " transform="matrix(1,0,0,-1,0,565)"/>
<path style="fill:none;stroke-width:1;stroke-linecap:square;stroke-linejoin:miter;stroke:rgb(59.606934%,59.606934%,59.606934%);stroke-opacity:1;stroke-miterlimit:10;" d="M 1296 31 L 1335 31 " transform="matrix(1,0,0,-1,0,565)"/>
<path style="fill:none;stroke-width:1;stroke-linecap:square;stroke-linejoin:miter;stroke:rgb(59.606934%,59.606934%,59.606934%);stroke-opacity:1;stroke-miterlimit:10;" d="M 1296 30 L 1335 30 " transform="matrix(1,0,0,-1,0,565)"/>
<path style="fill:none;stroke-width:1;stroke-linecap:square;stroke-linejoin:miter;stroke:rgb(59.606934%,59.606934%,59.606934%);stroke-opacity:1;stroke-miterlimit:10;" d="M 1296 32 L 1335 32 " transform="matrix(1,0,0,-1,0,565)"/>
<path style="fill:none;stroke-width:1;stroke-linecap:square;stroke-linejoin:miter;stroke:rgb(59.606934%,59.606934%,59.606934%);stroke-opacity:1;stroke-miterlimit:10;" d="M 1296 34 L 1296 28 " transform="matrix(1,0,0,-1,0,565)"/>
<path style="fill:none;stroke-width:1;stroke-linecap:square;stroke-linejoin:miter;stroke:rgb(59.606934%,59.606934%,59.606934%);stroke-opacity:1;stroke-miterlimit:10;" d="M 1335 34 L 1335 28 " transform="matrix(1,0,0,-1,0,565)"/>
<path style=" stroke:none;fill-rule:nonzero;fill:rgb(59.606934%,59.606934%,59.606934%);fill-opacity:1;" d="M 1316.480469 530 L 1318.421875 530 L 1318.421875 523.328125 L 1316.308594 523.75 L 1316.308594 522.671875 L 1318.410156 522.25 L 1319.589844 522.25 L 1319.589844 530 L 1321.53125 530 L 1321.53125 531 L 1316.480469 531 Z M 1323.921875 529.519531 L 1325.148438 529.519531 L 1325.148438 531 L 1323.921875 531 Z M 1330.261719 523.03125 C 1330.261719 523.03125 1329.359375 523.03125 1328.890625 523.941406 C 1328.890625 523.941406 1328.429688 524.828125 1328.429688 526.640625 C 1328.429688 526.640625 1328.429688 528.441406 1328.890625 529.339844 C 1328.890625 529.339844 1329.359375 530.230469 1330.261719 530.230469 C 1330.261719 530.230469 1331.179688 530.230469 1331.640625 529.339844 C 1331.640625 529.339844 1332.109375 528.441406 1332.109375 526.640625 C 1332.109375 526.640625 1332.109375 524.828125 1331.640625 523.941406 C 1331.640625 523.941406 1331.179688 523.03125 1330.261719 523.03125 Z M 1330.261719 522.089844 C 1330.261719 522.089844 1331.730469 522.089844 1332.511719 523.269531 C 1332.511719 523.269531 1333.289062 524.421875 1333.289062 526.640625 C 1333.289062 526.640625 1333.289062 528.839844 1332.511719 530.019531 C 1332.511719 530.019531 1331.730469 531.171875 1330.261719 531.171875 C 1330.261719 531.171875 1328.789062 531.171875 1328.011719 530.019531 C 1328.011719 530.019531 1327.25 528.839844 1327.25 526.640625 C 1327.25 526.640625 1327.25 524.421875 1328.011719 523.269531 C 1328.011719 523.269531 1328.789062 522.089844 1330.261719 522.089844 Z M 1330.261719 522.089844 "/>
<path style="fill:none;stroke-width:3;stroke-linecap:round;stroke-linejoin:round;stroke:rgb(0%,0%,100%);stroke-opacity:1;stroke-miterlimit:10;" d="M 950.710938 565.5 L 387.191406 -1.5 " transform="matrix(1,0,0,-1,0,565)"/>
<path style="fill:none;stroke-width:3;stroke-linecap:round;stroke-linejoin:round;stroke:rgb(0%,0%,100%);stroke-opacity:1;stroke-miterlimit:10;" d="M 718.710938 565.5 L 155.191406 -1.5 " transform="matrix(1,0,0,-1,0,565)"/>
<path style="fill-rule:nonzero;fill:rgb(100%,0%,0%);fill-opacity:1;stroke-width:1;stroke-linecap:square;stroke-linejoin:miter;stroke:rgb(0%,0%,0%);stroke-opacity:1;stroke-miterlimit:10;" d="M 503.5 110.5 C 503.5 107.738281 501.261719 105.5 498.5 105.5 C 495.738281 105.5 493.5 107.738281 493.5 110.5 C 493.5 113.261719 495.738281 115.5 498.5 115.5 C 501.261719 115.5 503.5 113.261719 503.5 110.5 Z M 503.5 110.5 " transform="matrix(1,0,0,-1,0,565)"/>
<path style="fill-rule:nonzero;fill:rgb(100%,0%,0%);fill-opacity:1;stroke-width:1;stroke-linecap:square;stroke-linejoin:miter;stroke:rgb(0%,0%,0%);stroke-opacity:1;stroke-miterlimit:10;" d="M 665.5 273.5 C 665.5 270.738281 663.261719 268.5 660.5 268.5 C 657.738281 268.5 655.5 270.738281 655.5 273.5 C 655.5 276.261719 657.738281 278.5 660.5 278.5 C 663.261719 278.5 665.5 276.261719 665.5 273.5 Z M 665.5 273.5 " transform="matrix(1,0,0,-1,0,565)"/>
<path style="fill-rule:nonzero;fill:rgb(100%,0%,0%);fill-opacity:1;stroke-width:1;stroke-linecap:square;stroke-linejoin:miter;stroke:rgb(0%,0%,0%);stroke-opacity:1;stroke-miterlimit:10;" d="M 272.5 111.5 C 272.5 108.738281 270.261719 106.5 267.5 106.5 C 264.738281 106.5 262.5 108.738281 262.5 111.5 C 262.5 114.261719 264.738281 116.5 267.5 116.5 C 270.261719 116.5 272.5 114.261719 272.5 111.5 Z M 272.5 111.5 " transform="matrix(1,0,0,-1,0,565)"/>
<path style="fill-rule:nonzero;fill:rgb(100%,0%,0%);fill-opacity:1;stroke-width:1;stroke-linecap:square;stroke-linejoin:miter;stroke:rgb(0%,0%,0%);stroke-opacity:1;stroke-miterlimit:10;" d="M 668.820312 510.269531 C 668.820312 507.5 666.578125 505.269531 663.820312 505.269531 C 661.058594 505.269531 658.820312 507.5 658.820312 510.269531 C 658.820312 513.03125 661.058594 515.269531 663.820312 515.269531 C 666.578125 515.269531 668.820312 513.03125 668.820312 510.269531 Z M 668.820312 510.269531 " transform="matrix(1,0,0,-1,0,565)"/>
<path style="fill:none;stroke-width:1;stroke-linecap:square;stroke-linejoin:miter;stroke:rgb(100%,100%,100%);stroke-opacity:1;stroke-miterlimit:10;" d="M 793 386 L 926 386 L 926 343 L 793 343 Z M 793 386 " transform="matrix(1,0,0,-1,0,565)"/>
<path style=" stroke:none;fill-rule:nonzero;fill:rgb(0%,0%,0%);fill-opacity:1;" d="M 798.78125 196.691406 C 799.550781 196.691406 800.199219 196.078125 800.199219 195.390625 C 800.199219 195 799.941406 194.519531 799.671875 194.371094 C 799.671875 194.199219 800.878906 194.140625 801.160156 194.140625 C 802.359375 194.140625 803.03125 194.808594 803.339844 195.839844 C 803.46875 196.160156 803.480469 196.441406 803.480469 197.050781 L 803.480469 197.558594 L 803.300781 197.558594 C 801.558594 197.660156 800.269531 197.921875 799.128906 198.449219 C 798.519531 198.71875 798.050781 198.949219 797.628906 199.371094 C 797.128906 199.871094 796.671875 200.550781 796.671875 201.441406 C 796.671875 201.75 796.75 202.058594 796.859375 202.339844 C 797.308594 203.519531 798.921875 204.269531 800.558594 204.269531 C 801.589844 204.269531 802.628906 203.921875 803.390625 203.28125 C 803.578125 203.109375 803.828125 202.78125 803.75 202.839844 L 803.75 202.699219 C 803.96875 203.46875 804.769531 204.140625 805.589844 204.140625 C 806.691406 204.140625 807.609375 203.449219 807.878906 202.578125 C 807.921875 202.421875 807.921875 202.371094 807.949219 201.449219 L 807.949219 200.519531 L 806.730469 200.519531 L 806.730469 201.390625 C 806.730469 202.308594 806.730469 202.46875 806.609375 202.699219 L 806.578125 202.699219 C 806.480469 202.921875 806.46875 203.050781 806.269531 203.050781 C 806.078125 203.050781 806.019531 202.921875 805.910156 202.699219 L 805.890625 202.699219 C 805.75 202.421875 805.769531 202.480469 805.769531 199.339844 C 805.769531 196.21875 805.769531 196.269531 805.628906 195.839844 C 805.140625 194.300781 803.378906 193.25 801.230469 193.25 C 799.449219 193.25 797.96875 193.75 797.558594 194.609375 C 797.441406 194.871094 797.378906 195.140625 797.378906 195.390625 C 797.378906 196.078125 798.019531 196.691406 798.78125 196.691406 Z M 803.480469 199.800781 C 803.46875 201.140625 803.46875 201.21875 803.421875 201.390625 C 803.160156 202.441406 802.339844 203.371094 801.019531 203.371094 C 799.890625 203.371094 799.140625 202.53125 799.140625 201.449219 C 799.140625 201.078125 799.21875 200.691406 799.390625 200.371094 C 799.980469 199.25 801.328125 198.578125 803.578125 198.441406 C 803.628906 198.410156 803.699219 198.410156 803.699219 198.410156 L 803.609375 198.410156 C 803.628906 198.410156 803.480469 199.03125 803.480469 199.800781 Z M 803.480469 199.800781 "/>
<path style=" stroke:none;fill-rule:nonzero;fill:rgb(0%,0%,0%);fill-opacity:1;" d="M 809.980469 203.28125 C 810.640625 203.28125 811.199219 202.699219 811.199219 202.121094 C 811.199219 201.558594 810.691406 200.96875 810.050781 200.96875 C 810 200.96875 810.109375 201.050781 810.109375 201.03125 C 810.109375 201.019531 810.140625 200.921875 810.21875 200.78125 C 810.609375 200.199219 811 199.859375 811.808594 199.859375 C 813.359375 199.859375 814.019531 201.058594 814.019531 202.578125 C 814.019531 203.621094 813.671875 204.449219 812.859375 205.550781 C 812.46875 206.050781 812.378906 206.171875 810.339844 208.421875 C 809.53125 209.339844 808.839844 210.121094 808.828125 210.140625 C 808.800781 210.191406 808.730469 210.28125 808.730469 210.589844 L 808.730469 211 L 815.71875 211 L 815.71875 210.839844 C 815.71875 210.808594 816.128906 207.730469 816.21875 207.550781 L 816.21875 207.449219 L 815.199219 207.449219 L 815.199219 207.578125 C 815.058594 208.390625 815.03125 208.550781 814.949219 208.800781 C 814.890625 208.980469 814.980469 209.089844 814.730469 209.191406 C 814.71875 209.199219 813.730469 209.199219 811.921875 209.199219 L 810.769531 209.199219 L 811.699219 208.300781 C 812.941406 207.121094 812.878906 207.191406 813.519531 206.640625 C 814.699219 205.621094 815.160156 205.121094 815.550781 204.578125 C 815.96875 203.941406 816.21875 203.339844 816.21875 202.558594 C 816.21875 202.339844 816.199219 202.121094 816.191406 201.96875 C 815.890625 200.199219 814.339844 198.871094 812.230469 198.871094 C 810.390625 198.871094 808.730469 200.371094 808.730469 202.089844 C 808.730469 202.699219 809.300781 203.28125 809.980469 203.28125 Z M 809.980469 203.28125 "/>
<path style=" stroke:none;fill-rule:nonzero;fill:rgb(0%,0%,0%);fill-opacity:1;" d="M 821.828125 204 L 822.109375 204 L 822.109375 203.449219 C 822.109375 202.921875 821.980469 202.890625 821.941406 202.890625 C 821.609375 202.890625 821.46875 202.578125 821.46875 202.25 C 821.46875 202.121094 821.46875 202.019531 821.53125 201.890625 C 821.609375 201.769531 823.050781 199.828125 822.949219 199.871094 L 823.859375 201.121094 C 824.519531 202.019531 824.800781 202.46875 824.800781 202.480469 C 824.800781 202.691406 824.519531 202.890625 824.160156 202.890625 L 823.941406 202.890625 L 823.941406 204 L 824.300781 204 C 824.578125 203.949219 826.410156 203.921875 826.941406 203.921875 C 827.421875 203.921875 829 203.921875 829.230469 204 L 829.5 204 L 829.5 202.890625 L 828.96875 202.890625 C 828.109375 202.890625 827.660156 202.890625 827.300781 202.53125 C 827.21875 202.46875 826.5 201.480469 825.691406 200.371094 L 824.199219 198.339844 L 824.578125 197.828125 C 824.78125 197.558594 825.199219 197.019531 825.5 196.609375 C 826.230469 195.640625 826.359375 195.410156 826.859375 195.171875 L 826.949219 195.171875 C 827.421875 194.921875 828.160156 194.769531 828.808594 194.769531 L 829.089844 194.769531 L 829.089844 193.660156 L 828.828125 193.660156 C 828.609375 193.730469 827.21875 193.730469 826.800781 193.730469 C 826.339844 193.730469 824.628906 193.699219 824.421875 193.660156 L 824.109375 193.660156 L 824.109375 194.769531 L 824.25 194.769531 C 824.300781 194.78125 824.421875 194.808594 824.480469 194.859375 C 824.691406 194.96875 824.75 195.191406 824.75 195.410156 C 824.75 195.53125 824.75 195.671875 824.609375 195.949219 C 824.628906 195.859375 824.339844 196.269531 824.019531 196.699219 L 823.5 197.421875 C 823.359375 197.25 821.941406 195.230469 821.941406 195.140625 C 821.941406 194.910156 822.300781 194.808594 822.808594 194.769531 L 822.808594 193.660156 L 822.5 193.660156 C 822.359375 193.699219 821.699219 193.699219 821.078125 193.699219 L 820.03125 193.699219 C 819.050781 193.699219 817.980469 193.691406 817.550781 193.660156 L 817.230469 193.660156 L 817.230469 194.769531 L 818.058594 194.769531 C 818.421875 194.78125 818.800781 194.808594 818.921875 194.808594 C 819.191406 194.859375 819.328125 194.96875 819.449219 195.089844 C 819.5 195.140625 820.140625 196.03125 820.910156 197.089844 L 822.300781 198.949219 L 821.199219 200.410156 C 820.589844 201.191406 820.050781 201.910156 819.96875 201.980469 C 819.421875 202.53125 818.699219 202.828125 817.589844 202.890625 L 817.128906 202.890625 L 817.128906 204 L 817.410156 204 C 817.671875 203.921875 818.980469 203.921875 819.449219 203.921875 C 819.910156 203.921875 821.578125 203.949219 821.828125 204 Z M 821.828125 204 "/>
<path style=" stroke:none;fill-rule:nonzero;fill:rgb(0%,0%,0%);fill-opacity:1;" d="M 831.199219 198 C 831.199219 198.269531 831.378906 198.390625 831.558594 198.480469 L 838.71875 198.480469 L 838.71875 205.558594 C 838.828125 205.828125 839.078125 205.96875 839.339844 205.96875 C 839.589844 205.96875 839.808594 205.828125 839.941406 205.558594 L 839.941406 198.480469 L 847.058594 198.480469 C 847.25 198.390625 847.449219 198.269531 847.449219 198 C 847.449219 197.730469 847.25 197.609375 847.058594 197.519531 L 839.941406 197.519531 L 839.941406 190.46875 C 839.808594 190.171875 839.578125 190.019531 839.339844 190.019531 C 839.089844 190.019531 838.859375 190.199219 838.730469 190.390625 L 838.71875 193.921875 L 838.71875 197.519531 L 831.558594 197.519531 C 831.378906 197.609375 831.199219 197.730469 831.199219 198 Z M 831.199219 198 "/>
<path style=" stroke:none;fill-rule:nonzero;fill:rgb(0%,0%,0%);fill-opacity:1;" d="M 851.359375 187.480469 C 850.378906 187.53125 849.550781 187.609375 849.53125 187.609375 C 849.480469 187.609375 849.339844 187.660156 849.339844 188.160156 L 849.339844 188.71875 L 849.910156 188.71875 C 850.96875 188.769531 851.089844 188.910156 851.191406 189.53125 C 851.199219 189.621094 851.199219 192.910156 851.199219 196.839844 L 851.199219 204 L 851.828125 204 L 852.410156 203.96875 L 852.53125 203.769531 C 852.589844 203.640625 852.769531 203.328125 852.890625 203.109375 L 853.058594 202.828125 L 853.078125 202.839844 C 853.78125 203.589844 855.03125 204.269531 856.378906 204.269531 C 859.199219 204.269531 861.21875 202.109375 861.589844 199.660156 C 861.628906 199.46875 861.640625 199.160156 861.640625 198.808594 C 861.640625 195.941406 859.75 193.890625 857.550781 193.46875 C 857.300781 193.421875 857.050781 193.390625 856.75 193.390625 C 855.441406 193.390625 854.089844 193.871094 853.339844 194.5 C 853.269531 194.558594 853.421875 194.609375 853.421875 194.609375 L 853.308594 194.609375 C 853.300781 194.609375 853.421875 192.980469 853.421875 190.96875 L 853.421875 187.339844 L 853.21875 187.339844 C 853.171875 187.339844 852.339844 187.421875 851.359375 187.480469 Z M 856.941406 194.359375 C 857.859375 194.589844 858.441406 195.28125 858.75 196.25 C 858.941406 196.839844 859.03125 197.78125 859.03125 198.910156 C 859.03125 200.050781 858.949219 200.660156 858.75 201.28125 C 858.628906 201.621094 858.578125 201.808594 858.390625 202.078125 C 857.828125 202.890625 857.050781 203.371094 856.078125 203.371094 C 855.839844 203.371094 855.578125 203.359375 855.339844 203.28125 C 854.609375 203.089844 854.050781 202.558594 853.578125 201.808594 L 853.480469 201.71875 L 853.480469 195.808594 L 853.609375 195.671875 C 854.191406 194.871094 855.078125 194.28125 856.199219 194.28125 C 856.46875 194.28125 856.75 194.328125 856.941406 194.359375 Z M 856.941406 194.359375 "/>
<path style=" stroke:none;fill-rule:nonzero;fill:rgb(0%,0%,0%);fill-opacity:1;" d="M 863.980469 203.28125 C 864.640625 203.28125 865.199219 202.699219 865.199219 202.121094 C 865.199219 201.558594 864.691406 200.96875 864.050781 200.96875 C 864 200.96875 864.109375 201.050781 864.109375 201.03125 C 864.109375 201.019531 864.140625 200.921875 864.21875 200.78125 C 864.609375 200.199219 865 199.859375 865.808594 199.859375 C 867.359375 199.859375 868.019531 201.058594 868.019531 202.578125 C 868.019531 203.621094 867.671875 204.449219 866.859375 205.550781 C 866.46875 206.050781 866.378906 206.171875 864.339844 208.421875 C 863.53125 209.339844 862.839844 210.121094 862.828125 210.140625 C 862.800781 210.191406 862.730469 210.28125 862.730469 210.589844 L 862.730469 211 L 869.71875 211 L 869.71875 210.839844 C 869.71875 210.808594 870.128906 207.730469 870.21875 207.550781 L 870.21875 207.449219 L 869.199219 207.449219 L 869.199219 207.578125 C 869.058594 208.390625 869.03125 208.550781 868.949219 208.800781 C 868.890625 208.980469 868.980469 209.089844 868.730469 209.191406 C 868.71875 209.199219 867.730469 209.199219 865.921875 209.199219 L 864.769531 209.199219 L 865.699219 208.300781 C 866.941406 207.121094 866.878906 207.191406 867.519531 206.640625 C 868.699219 205.621094 869.160156 205.121094 869.550781 204.578125 C 869.96875 203.941406 870.21875 203.339844 870.21875 202.558594 C 870.21875 202.339844 870.199219 202.121094 870.191406 201.96875 C 869.890625 200.199219 868.339844 198.871094 866.230469 198.871094 C 864.390625 198.871094 862.730469 200.371094 862.730469 202.089844 C 862.730469 202.699219 863.300781 203.28125 863.980469 203.28125 Z M 863.980469 203.28125 "/>
<path style=" stroke:none;fill-rule:nonzero;fill:rgb(0%,0%,0%);fill-opacity:1;" d="M 872.660156 205.578125 C 872.019531 205.578125 871.308594 206.019531 871.308594 206.78125 C 871.308594 208.03125 872.421875 208.890625 873.71875 208.890625 C 873.910156 208.890625 874.089844 208.890625 874.21875 208.871094 C 875.078125 208.691406 875.921875 208.109375 876.550781 207.140625 C 877.359375 205.921875 881.058594 195.890625 881.21875 195.71875 C 881.53125 195.140625 882.050781 194.828125 882.921875 194.769531 L 883.308594 194.769531 L 883.308594 193.660156 L 883.078125 193.660156 C 882.769531 193.691406 881.941406 193.699219 881.128906 193.699219 C 880.628906 193.699219 879.300781 193.699219 879.089844 193.660156 L 878.800781 193.660156 L 878.800781 194.769531 L 879.019531 194.769531 C 879.550781 194.769531 879.878906 195.050781 879.878906 195.589844 L 879.878906 195.808594 L 878.828125 198.550781 C 878.21875 200.050781 877.71875 201.28125 877.71875 201.308594 L 877.949219 201.308594 C 877.949219 201.308594 875.558594 195.910156 875.558594 195.171875 C 875.558594 194.828125 876.140625 194.769531 876.558594 194.769531 L 876.910156 194.769531 L 876.910156 193.660156 L 876.589844 193.660156 C 876.328125 193.699219 874.449219 193.730469 873.921875 193.730469 C 873.421875 193.730469 871.890625 193.730469 871.628906 193.660156 L 871.308594 193.660156 L 871.308594 194.769531 L 872.03125 194.769531 C 872.609375 194.769531 872.980469 194.78125 873.160156 195.121094 C 873.199219 195.171875 873.96875 197.199219 874.941406 199.609375 L 876.660156 204 L 876.25 205.03125 C 875.75 206.371094 875.421875 207.480469 874.359375 207.890625 C 874.140625 207.980469 873.878906 208.03125 873.660156 208.03125 C 873.5 208.03125 873.410156 208.019531 873.28125 207.941406 C 873.191406 207.890625 873.191406 207.890625 873.46875 207.75 C 873.550781 207.71875 873.949219 207.230469 873.949219 206.78125 C 873.949219 206.109375 873.328125 205.578125 872.660156 205.578125 Z M 872.660156 205.578125 "/>
<path style=" stroke:none;fill-rule:nonzero;fill:rgb(0%,0%,0%);fill-opacity:1;" d="M 885.199219 195.671875 C 885.199219 195.949219 885.480469 196.078125 885.730469 196.160156 L 893.359375 196.160156 L 901.089844 196.121094 C 901.25 196.03125 901.449219 195.941406 901.449219 195.671875 C 901.449219 195.410156 901.25 195.28125 901.058594 195.191406 L 885.558594 195.191406 C 885.378906 195.28125 885.199219 195.410156 885.199219 195.671875 Z M 885.199219 200.328125 C 885.199219 200.589844 885.378906 200.71875 885.558594 200.808594 L 901.058594 200.808594 C 901.25 200.71875 901.449219 200.589844 901.449219 200.328125 C 901.449219 200.050781 901.230469 199.96875 901.089844 199.839844 L 885.730469 199.839844 C 885.480469 199.921875 885.199219 200.050781 885.199219 200.328125 Z M 885.199219 200.328125 "/>
<path style=" stroke:none;fill-rule:nonzero;fill:rgb(0%,0%,0%);fill-opacity:1;" d="M 911.410156 196.691406 C 912.128906 196.691406 912.808594 196.171875 912.808594 195.441406 C 912.808594 195.230469 912.800781 195.03125 912.75 194.871094 C 912.339844 193.621094 910.730469 193.25 909 193.25 C 907.691406 193.25 906.550781 193.699219 905.691406 194.410156 C 904.609375 195.308594 903.890625 196.578125 903.699219 198.078125 C 903.671875 198.230469 903.671875 198.550781 903.671875 198.859375 C 903.671875 199.171875 903.671875 199.480469 903.699219 199.621094 C 904.019531 201.480469 905.050781 202.921875 906.578125 203.71875 C 907.308594 204.089844 908.109375 204.269531 908.96875 204.269531 C 910.421875 204.269531 911.691406 203.640625 912.449219 202.53125 C 912.699219 202.160156 913.078125 201.339844 913.078125 201.121094 C 913.078125 201.050781 912.949219 200.949219 912.910156 200.910156 L 912.480469 200.910156 C 912.078125 200.910156 911.910156 200.921875 911.828125 201.191406 C 911.589844 202.03125 911.089844 202.75 910.46875 203.058594 C 910.160156 203.230469 909.910156 203.300781 909.53125 203.300781 C 908.328125 203.300781 907.519531 202.621094 906.980469 201.839844 C 906.480469 201.078125 906.269531 200.089844 906.269531 198.75 C 906.269531 196.921875 906.53125 195.808594 907.378906 194.96875 C 907.878906 194.421875 908.199219 194.199219 909.191406 194.199219 C 909.589844 194.199219 910.058594 194.25 910.378906 194.300781 C 910.660156 194.359375 910.519531 194.328125 910.378906 194.5 C 910.128906 194.730469 909.980469 195.078125 909.980469 195.410156 C 909.980469 196.078125 910.628906 196.691406 911.410156 196.691406 Z M 911.410156 196.691406 "/>
<path style=" stroke:none;fill-rule:nonzero;fill:rgb(0%,0%,0%);fill-opacity:1;" d="M 915.980469 203.28125 C 916.640625 203.28125 917.199219 202.699219 917.199219 202.121094 C 917.199219 201.558594 916.691406 200.96875 916.050781 200.96875 C 916 200.96875 916.109375 201.050781 916.109375 201.03125 C 916.109375 201.019531 916.140625 200.921875 916.21875 200.78125 C 916.609375 200.199219 917 199.859375 917.808594 199.859375 C 919.359375 199.859375 920.019531 201.058594 920.019531 202.578125 C 920.019531 203.621094 919.671875 204.449219 918.859375 205.550781 C 918.46875 206.050781 918.378906 206.171875 916.339844 208.421875 C 915.53125 209.339844 914.839844 210.121094 914.828125 210.140625 C 914.800781 210.191406 914.730469 210.28125 914.730469 210.589844 L 914.730469 211 L 921.71875 211 L 921.71875 210.839844 C 921.71875 210.808594 922.128906 207.730469 922.21875 207.550781 L 922.21875 207.449219 L 921.199219 207.449219 L 921.199219 207.578125 C 921.058594 208.390625 921.03125 208.550781 920.949219 208.800781 C 920.890625 208.980469 920.980469 209.089844 920.730469 209.191406 C 920.71875 209.199219 919.730469 209.199219 917.921875 209.199219 L 916.769531 209.199219 L 917.699219 208.300781 C 918.941406 207.121094 918.878906 207.191406 919.519531 206.640625 C 920.699219 205.621094 921.160156 205.121094 921.550781 204.578125 C 921.96875 203.941406 922.21875 203.339844 922.21875 202.558594 C 922.21875 202.339844 922.199219 202.121094 922.191406 201.96875 C 921.890625 200.199219 920.339844 198.871094 918.230469 198.871094 C 916.390625 198.871094 914.730469 200.371094 914.730469 202.089844 C 914.730469 202.699219 915.300781 203.28125 915.980469 203.28125 Z M 915.980469 203.28125 "/>
<path style=" stroke:none;fill-rule:nonzero;fill:rgb(0%,0%,0%);fill-opacity:1;" d="M 334.78125 193.691406 C 335.550781 193.691406 336.199219 193.078125 336.199219 192.390625 C 336.199219 192 335.941406 191.519531 335.671875 191.371094 C 335.671875 191.199219 336.878906 191.140625 337.160156 191.140625 C 338.359375 191.140625 339.03125 191.808594 339.339844 192.839844 C 339.46875 193.160156 339.480469 193.441406 339.480469 194.050781 L 339.480469 194.558594 L 339.300781 194.558594 C 337.558594 194.660156 336.269531 194.921875 335.128906 195.449219 C 334.519531 195.71875 334.050781 195.949219 333.628906 196.371094 C 333.128906 196.871094 332.671875 197.550781 332.671875 198.441406 C 332.671875 198.75 332.75 199.058594 332.859375 199.339844 C 333.308594 200.519531 334.921875 201.269531 336.558594 201.269531 C 337.589844 201.269531 338.628906 200.921875 339.390625 200.28125 C 339.578125 200.109375 339.828125 199.78125 339.75 199.839844 L 339.75 199.699219 C 339.96875 200.46875 340.769531 201.140625 341.589844 201.140625 C 342.691406 201.140625 343.609375 200.449219 343.878906 199.578125 C 343.921875 199.421875 343.921875 199.371094 343.949219 198.449219 L 343.949219 197.519531 L 342.730469 197.519531 L 342.730469 198.390625 C 342.730469 199.308594 342.730469 199.46875 342.609375 199.699219 L 342.578125 199.699219 C 342.480469 199.921875 342.46875 200.050781 342.269531 200.050781 C 342.078125 200.050781 342.019531 199.921875 341.910156 199.699219 L 341.890625 199.699219 C 341.75 199.421875 341.769531 199.480469 341.769531 196.339844 C 341.769531 193.21875 341.769531 193.269531 341.628906 192.839844 C 341.140625 191.300781 339.378906 190.25 337.230469 190.25 C 335.449219 190.25 333.96875 190.75 333.558594 191.609375 C 333.441406 191.871094 333.378906 192.140625 333.378906 192.390625 C 333.378906 193.078125 334.019531 193.691406 334.78125 193.691406 Z M 339.480469 196.800781 C 339.46875 198.140625 339.46875 198.21875 339.421875 198.390625 C 339.160156 199.441406 338.339844 200.371094 337.019531 200.371094 C 335.890625 200.371094 335.140625 199.53125 335.140625 198.449219 C 335.140625 198.078125 335.21875 197.691406 335.390625 197.371094 C 335.980469 196.25 337.328125 195.578125 339.578125 195.441406 C 339.628906 195.410156 339.699219 195.410156 339.699219 195.410156 L 339.609375 195.410156 C 339.628906 195.410156 339.480469 196.03125 339.480469 196.800781 Z M 339.480469 196.800781 "/>
<path style=" stroke:none;fill-rule:nonzero;fill:rgb(0%,0%,0%);fill-opacity:1;" d="M 345.980469 200.28125 C 346.640625 200.28125 347.199219 199.699219 347.199219 199.121094 C 347.199219 198.558594 346.691406 197.96875 346.050781 197.96875 C 346 197.96875 346.109375 198.050781 346.109375 198.03125 C 346.109375 198.019531 346.140625 197.921875 346.21875 197.78125 C 346.609375 197.199219 347 196.859375 347.808594 196.859375 C 349.359375 196.859375 350.019531 198.058594 350.019531 199.578125 C 350.019531 200.621094 349.671875 201.449219 348.859375 202.550781 C 348.46875 203.050781 348.378906 203.171875 346.339844 205.421875 C 345.53125 206.339844 344.839844 207.121094 344.828125 207.140625 C 344.800781 207.191406 344.730469 207.28125 344.730469 207.589844 L 344.730469 208 L 351.71875 208 L 351.71875 207.839844 C 351.71875 207.808594 352.128906 204.730469 352.21875 204.550781 L 352.21875 204.449219 L 351.199219 204.449219 L 351.199219 204.578125 C 351.058594 205.390625 351.03125 205.550781 350.949219 205.800781 C 350.890625 205.980469 350.980469 206.089844 350.730469 206.191406 C 350.71875 206.199219 349.730469 206.199219 347.921875 206.199219 L 346.769531 206.199219 L 347.699219 205.300781 C 348.941406 204.121094 348.878906 204.191406 349.519531 203.640625 C 350.699219 202.621094 351.160156 202.121094 351.550781 201.578125 C 351.96875 200.941406 352.21875 200.339844 352.21875 199.558594 C 352.21875 199.339844 352.199219 199.121094 352.191406 198.96875 C 351.890625 197.199219 350.339844 195.871094 348.230469 195.871094 C 346.390625 195.871094 344.730469 197.371094 344.730469 199.089844 C 344.730469 199.699219 345.300781 200.28125 345.980469 200.28125 Z M 345.980469 200.28125 "/>
<path style=" stroke:none;fill-rule:nonzero;fill:rgb(0%,0%,0%);fill-opacity:1;" d="M 357.828125 201 L 358.109375 201 L 358.109375 200.449219 C 358.109375 199.921875 357.980469 199.890625 357.941406 199.890625 C 357.609375 199.890625 357.46875 199.578125 357.46875 199.25 C 357.46875 199.121094 357.46875 199.019531 357.53125 198.890625 C 357.609375 198.769531 359.050781 196.828125 358.949219 196.871094 L 359.859375 198.121094 C 360.519531 199.019531 360.800781 199.46875 360.800781 199.480469 C 360.800781 199.691406 360.519531 199.890625 360.160156 199.890625 L 359.941406 199.890625 L 359.941406 201 L 360.300781 201 C 360.578125 200.949219 362.410156 200.921875 362.941406 200.921875 C 363.421875 200.921875 365 200.921875 365.230469 201 L 365.5 201 L 365.5 199.890625 L 364.96875 199.890625 C 364.109375 199.890625 363.660156 199.890625 363.300781 199.53125 C 363.21875 199.46875 362.5 198.480469 361.691406 197.371094 L 360.199219 195.339844 L 360.578125 194.828125 C 360.78125 194.558594 361.199219 194.019531 361.5 193.609375 C 362.230469 192.640625 362.359375 192.410156 362.859375 192.171875 L 362.949219 192.171875 C 363.421875 191.921875 364.160156 191.769531 364.808594 191.769531 L 365.089844 191.769531 L 365.089844 190.660156 L 364.828125 190.660156 C 364.609375 190.730469 363.21875 190.730469 362.800781 190.730469 C 362.339844 190.730469 360.628906 190.699219 360.421875 190.660156 L 360.109375 190.660156 L 360.109375 191.769531 L 360.25 191.769531 C 360.300781 191.78125 360.421875 191.808594 360.480469 191.859375 C 360.691406 191.96875 360.75 192.191406 360.75 192.410156 C 360.75 192.53125 360.75 192.671875 360.609375 192.949219 C 360.628906 192.859375 360.339844 193.269531 360.019531 193.699219 L 359.5 194.421875 C 359.359375 194.25 357.941406 192.230469 357.941406 192.140625 C 357.941406 191.910156 358.300781 191.808594 358.808594 191.769531 L 358.808594 190.660156 L 358.5 190.660156 C 358.359375 190.699219 357.699219 190.699219 357.078125 190.699219 L 356.03125 190.699219 C 355.050781 190.699219 353.980469 190.691406 353.550781 190.660156 L 353.230469 190.660156 L 353.230469 191.769531 L 354.058594 191.769531 C 354.421875 191.78125 354.800781 191.808594 354.921875 191.808594 C 355.191406 191.859375 355.328125 191.96875 355.449219 192.089844 C 355.5 192.140625 356.140625 193.03125 356.910156 194.089844 L 358.300781 195.949219 L 357.199219 197.410156 C 356.589844 198.191406 356.050781 198.910156 355.96875 198.980469 C 355.421875 199.53125 354.699219 199.828125 353.589844 199.890625 L 353.128906 199.890625 L 353.128906 201 L 353.410156 201 C 353.671875 200.921875 354.980469 200.921875 355.449219 200.921875 C 355.910156 200.921875 357.578125 200.949219 357.828125 201 Z M 357.828125 201 "/>
<path style=" stroke:none;fill-rule:nonzero;fill:rgb(0%,0%,0%);fill-opacity:1;" d="M 367.199219 195 C 367.199219 195.269531 367.378906 195.390625 367.558594 195.480469 L 374.71875 195.480469 L 374.71875 202.558594 C 374.828125 202.828125 375.078125 202.96875 375.339844 202.96875 C 375.589844 202.96875 375.808594 202.828125 375.941406 202.558594 L 375.941406 195.480469 L 383.058594 195.480469 C 383.25 195.390625 383.449219 195.269531 383.449219 195 C 383.449219 194.730469 383.25 194.609375 383.058594 194.519531 L 375.941406 194.519531 L 375.941406 187.46875 C 375.808594 187.171875 375.578125 187.019531 375.339844 187.019531 C 375.089844 187.019531 374.859375 187.199219 374.730469 187.390625 L 374.71875 190.921875 L 374.71875 194.519531 L 367.558594 194.519531 C 367.378906 194.609375 367.199219 194.730469 367.199219 195 Z M 367.199219 195 "/>
<path style=" stroke:none;fill-rule:nonzero;fill:rgb(0%,0%,0%);fill-opacity:1;" d="M 387.359375 184.480469 C 386.378906 184.53125 385.550781 184.609375 385.53125 184.609375 C 385.480469 184.609375 385.339844 184.660156 385.339844 185.160156 L 385.339844 185.71875 L 385.910156 185.71875 C 386.96875 185.769531 387.089844 185.910156 387.191406 186.53125 C 387.199219 186.621094 387.199219 189.910156 387.199219 193.839844 L 387.199219 201 L 387.828125 201 L 388.410156 200.96875 L 388.53125 200.769531 C 388.589844 200.640625 388.769531 200.328125 388.890625 200.109375 L 389.058594 199.828125 L 389.078125 199.839844 C 389.78125 200.589844 391.03125 201.269531 392.378906 201.269531 C 395.199219 201.269531 397.21875 199.109375 397.589844 196.660156 C 397.628906 196.46875 397.640625 196.160156 397.640625 195.808594 C 397.640625 192.941406 395.75 190.890625 393.550781 190.46875 C 393.300781 190.421875 393.050781 190.390625 392.75 190.390625 C 391.441406 190.390625 390.089844 190.871094 389.339844 191.5 C 389.269531 191.558594 389.421875 191.609375 389.421875 191.609375 L 389.308594 191.609375 C 389.300781 191.609375 389.421875 189.980469 389.421875 187.96875 L 389.421875 184.339844 L 389.21875 184.339844 C 389.171875 184.339844 388.339844 184.421875 387.359375 184.480469 Z M 392.941406 191.359375 C 393.859375 191.589844 394.441406 192.28125 394.75 193.25 C 394.941406 193.839844 395.03125 194.78125 395.03125 195.910156 C 395.03125 197.050781 394.949219 197.660156 394.75 198.28125 C 394.628906 198.621094 394.578125 198.808594 394.390625 199.078125 C 393.828125 199.890625 393.050781 200.371094 392.078125 200.371094 C 391.839844 200.371094 391.578125 200.359375 391.339844 200.28125 C 390.609375 200.089844 390.050781 199.558594 389.578125 198.808594 L 389.480469 198.71875 L 389.480469 192.808594 L 389.609375 192.671875 C 390.191406 191.871094 391.078125 191.28125 392.199219 191.28125 C 392.46875 191.28125 392.75 191.328125 392.941406 191.359375 Z M 392.941406 191.359375 "/>
<path style=" stroke:none;fill-rule:nonzero;fill:rgb(0%,0%,0%);fill-opacity:1;" d="M 399.980469 200.28125 C 400.640625 200.28125 401.199219 199.699219 401.199219 199.121094 C 401.199219 198.558594 400.691406 197.96875 400.050781 197.96875 C 400 197.96875 400.109375 198.050781 400.109375 198.03125 C 400.109375 198.019531 400.140625 197.921875 400.21875 197.78125 C 400.609375 197.199219 401 196.859375 401.808594 196.859375 C 403.359375 196.859375 404.019531 198.058594 404.019531 199.578125 C 404.019531 200.621094 403.671875 201.449219 402.859375 202.550781 C 402.46875 203.050781 402.378906 203.171875 400.339844 205.421875 C 399.53125 206.339844 398.839844 207.121094 398.828125 207.140625 C 398.800781 207.191406 398.730469 207.28125 398.730469 207.589844 L 398.730469 208 L 405.71875 208 L 405.71875 207.839844 C 405.71875 207.808594 406.128906 204.730469 406.21875 204.550781 L 406.21875 204.449219 L 405.199219 204.449219 L 405.199219 204.578125 C 405.058594 205.390625 405.03125 205.550781 404.949219 205.800781 C 404.890625 205.980469 404.980469 206.089844 404.730469 206.191406 C 404.71875 206.199219 403.730469 206.199219 401.921875 206.199219 L 400.769531 206.199219 L 401.699219 205.300781 C 402.941406 204.121094 402.878906 204.191406 403.519531 203.640625 C 404.699219 202.621094 405.160156 202.121094 405.550781 201.578125 C 405.96875 200.941406 406.21875 200.339844 406.21875 199.558594 C 406.21875 199.339844 406.199219 199.121094 406.191406 198.96875 C 405.890625 197.199219 404.339844 195.871094 402.230469 195.871094 C 400.390625 195.871094 398.730469 197.371094 398.730469 199.089844 C 398.730469 199.699219 399.300781 200.28125 399.980469 200.28125 Z M 399.980469 200.28125 "/>
<path style=" stroke:none;fill-rule:nonzero;fill:rgb(0%,0%,0%);fill-opacity:1;" d="M 408.660156 202.578125 C 408.019531 202.578125 407.308594 203.019531 407.308594 203.78125 C 407.308594 205.03125 408.421875 205.890625 409.71875 205.890625 C 409.910156 205.890625 410.089844 205.890625 410.21875 205.871094 C 411.078125 205.691406 411.921875 205.109375 412.550781 204.140625 C 413.359375 202.921875 417.058594 192.890625 417.21875 192.71875 C 417.53125 192.140625 418.050781 191.828125 418.921875 191.769531 L 419.308594 191.769531 L 419.308594 190.660156 L 419.078125 190.660156 C 418.769531 190.691406 417.941406 190.699219 417.128906 190.699219 C 416.628906 190.699219 415.300781 190.699219 415.089844 190.660156 L 414.800781 190.660156 L 414.800781 191.769531 L 415.019531 191.769531 C 415.550781 191.769531 415.878906 192.050781 415.878906 192.589844 L 415.878906 192.808594 L 414.828125 195.550781 C 414.21875 197.050781 413.71875 198.28125 413.71875 198.308594 L 413.949219 198.308594 C 413.949219 198.308594 411.558594 192.910156 411.558594 192.171875 C 411.558594 191.828125 412.140625 191.769531 412.558594 191.769531 L 412.910156 191.769531 L 412.910156 190.660156 L 412.589844 190.660156 C 412.328125 190.699219 410.449219 190.730469 409.921875 190.730469 C 409.421875 190.730469 407.890625 190.730469 407.628906 190.660156 L 407.308594 190.660156 L 407.308594 191.769531 L 408.03125 191.769531 C 408.609375 191.769531 408.980469 191.78125 409.160156 192.121094 C 409.199219 192.171875 409.96875 194.199219 410.941406 196.609375 L 412.660156 201 L 412.25 202.03125 C 411.75 203.371094 411.421875 204.480469 410.359375 204.890625 C 410.140625 204.980469 409.878906 205.03125 409.660156 205.03125 C 409.5 205.03125 409.410156 205.019531 409.28125 204.941406 C 409.191406 204.890625 409.191406 204.890625 409.46875 204.75 C 409.550781 204.71875 409.949219 204.230469 409.949219 203.78125 C 409.949219 203.109375 409.328125 202.578125 408.660156 202.578125 Z M 408.660156 202.578125 "/>
<path style=" stroke:none;fill-rule:nonzero;fill:rgb(0%,0%,0%);fill-opacity:1;" d="M 421.199219 192.671875 C 421.199219 192.949219 421.480469 193.078125 421.730469 193.160156 L 429.359375 193.160156 L 437.089844 193.121094 C 437.25 193.03125 437.449219 192.941406 437.449219 192.671875 C 437.449219 192.410156 437.25 192.28125 437.058594 192.191406 L 421.558594 192.191406 C 421.378906 192.28125 421.199219 192.410156 421.199219 192.671875 Z M 421.199219 197.328125 C 421.199219 197.589844 421.378906 197.71875 421.558594 197.808594 L 437.058594 197.808594 C 437.25 197.71875 437.449219 197.589844 437.449219 197.328125 C 437.449219 197.050781 437.230469 196.96875 437.089844 196.839844 L 421.730469 196.839844 C 421.480469 196.921875 421.199219 197.050781 421.199219 197.328125 Z M 421.199219 197.328125 "/>
<path style=" stroke:none;fill-rule:nonzero;fill:rgb(0%,0%,0%);fill-opacity:1;" d="M 447.410156 193.691406 C 448.128906 193.691406 448.808594 193.171875 448.808594 192.441406 C 448.808594 192.230469 448.800781 192.03125 448.75 191.871094 C 448.339844 190.621094 446.730469 190.25 445 190.25 C 443.691406 190.25 442.550781 190.699219 441.691406 191.410156 C 440.609375 192.308594 439.890625 193.578125 439.699219 195.078125 C 439.671875 195.230469 439.671875 195.550781 439.671875 195.859375 C 439.671875 196.171875 439.671875 196.480469 439.699219 196.621094 C 440.019531 198.480469 441.050781 199.921875 442.578125 200.71875 C 443.308594 201.089844 444.109375 201.269531 444.96875 201.269531 C 446.421875 201.269531 447.691406 200.640625 448.449219 199.53125 C 448.699219 199.160156 449.078125 198.339844 449.078125 198.121094 C 449.078125 198.050781 448.949219 197.949219 448.910156 197.910156 L 448.480469 197.910156 C 448.078125 197.910156 447.910156 197.921875 447.828125 198.191406 C 447.589844 199.03125 447.089844 199.75 446.46875 200.058594 C 446.160156 200.230469 445.910156 200.300781 445.53125 200.300781 C 444.328125 200.300781 443.519531 199.621094 442.980469 198.839844 C 442.480469 198.078125 442.269531 197.089844 442.269531 195.75 C 442.269531 193.921875 442.53125 192.808594 443.378906 191.96875 C 443.878906 191.421875 444.199219 191.199219 445.191406 191.199219 C 445.589844 191.199219 446.058594 191.25 446.378906 191.300781 C 446.660156 191.359375 446.519531 191.328125 446.378906 191.5 C 446.128906 191.730469 445.980469 192.078125 445.980469 192.410156 C 445.980469 193.078125 446.628906 193.691406 447.410156 193.691406 Z M 447.410156 193.691406 "/>
<path style=" stroke:none;fill-rule:nonzero;fill:rgb(0%,0%,0%);fill-opacity:1;" d="M 457.480469 208 L 457.828125 208 L 457.828125 207.03125 L 456.628906 207.03125 C 456.078125 207.03125 455.800781 207.050781 455.589844 206.828125 L 455.578125 201.441406 L 455.578125 196.050781 C 455.421875 195.921875 455.359375 195.871094 455.128906 195.871094 C 454.96875 195.871094 454.839844 195.910156 454.808594 195.949219 C 454.71875 196.050781 454.410156 196.28125 454.25 196.371094 C 453.578125 196.78125 452.839844 196.980469 451.839844 197.019531 L 451.328125 197.019531 L 451.328125 197.980469 L 451.839844 197.980469 C 452.519531 197.96875 453.171875 197.839844 453.941406 197.558594 C 453.859375 197.589844 453.808594 197.589844 453.671875 197.589844 L 453.671875 206.808594 C 453.589844 206.890625 453.628906 206.949219 453.410156 206.96875 C 453.199219 207.019531 452.578125 207.03125 452.050781 207.03125 L 451.421875 207.03125 L 451.421875 208 L 451.800781 208 C 452.109375 207.949219 454.050781 207.949219 454.628906 207.949219 C 455.199219 207.949219 457.191406 207.949219 457.480469 208 Z M 457.480469 208 "/>
</g>
</svg>
