<?xml version="1.0" encoding="UTF-8"?>
<svg xmlns="http://www.w3.org/2000/svg" xmlns:xlink="http://www.w3.org/1999/xlink" width="1366pt" height="565pt" viewBox="0 0 1366 565" version="1.1">
<g id="surface1">
<path style="fill:none;stroke-width:1;stroke-linecap:square;stroke-linejoin:miter;stroke:rgb(89.411926%,89.411926%,89.411926%);stroke-opacity:1;stroke-miterlimit:10;" d="M 25 565 L 25 0 " transform="matrix(1,0,0,-1,0,565)"/>
<path style="fill:none;stroke-width:1;stroke-linecap:square;stroke-linejoin:miter;stroke:rgb(89.411926%,89.411926%,89.411926%);stroke-opacity:1;stroke-miterlimit:10;" d="M 65 565 L 65 0 " transform="matrix(1,0,0,-1,0,565)"/>
<path style="fill:none;stroke-width:1;stroke-linecap:square;stroke-linejoin:miter;stroke:rgb(89.411926%,89.411926%,89.411926%);stroke-opacity:1;stroke-miterlimit:10;" d="M 104 565 L 104 0 " transform="matrix(1,0,0,-1,0,565)"/>
<path style="fill:none;stroke-width:1;stroke-linecap:square;stroke-linejoin:miter;stroke:rgb(89.411926%,89.411926%,89.411926%);stroke-opacity:1;stroke-miterlimit:10;" d="M 144 565 L 144 0 " transform="matrix(1,0,0,-1,0,565)"/>
<path style="fill:none;stroke-width:1;stroke-linecap:square;stroke-linejoin:miter;stroke:rgb(89.411926%,89.411926%,89.411926%);stroke-opacity:1;stroke-miterlimit:10;" d="M 184 565 L 184 0 " transform="matrix(1,0,0,-1,0,565)"/>
<path style="fill:none;stroke-width:1;stroke-linecap:square;stroke-linejoin:miter;stroke:rgb(89.411926%,89.411926%,89.411926%);stroke-opacity:1;stroke-miterlimit:10;" d="M 224 565 L 224 0 " transform="matrix(1,0,0,-1,0,565)"/>
<path style="fill:none;stroke-width:1;stroke-linecap:square;stroke-linejoin:miter;stroke:rgb(89.411926%,89.411926%,89.411926%);stroke-opacity:1;stroke-miterlimit:10;" d="M 263 565 L 263 0 " transform="matrix(1,0,0,-1,0,565)"/>
<path style="fill:none;stroke-width:1;stroke-linecap:square;stroke-linejoin:miter;stroke:rgb(89.411926%,89.411926%,89.411926%);stroke-opacity:1;stroke-miterlimit:10;" d="M 303 565 L 303 0 " transform="matrix(1,0,0,-1,0,565)"/>
<path style="fill:none;stroke-width:1;stroke-linecap:square;stroke-linejoin:miter;stroke:rgb(89.411926%,89.411926%,89.411926%);stroke-opacity:1;stroke-miterlimit:10;" d="M 343 565 L 343 0 " transform="matrix(1,0,0,-1,0,565)"/>
<path style="fill:none;stroke-width:1;stroke-linecap:square;stroke-linejoin:miter;stroke:rgb(89.411926%,89.411926%,89.411926%);stroke-opacity:1;stroke-miterlimit:10;" d="M 383 565 L 383 0 " transform="matrix(1,0,0,-1,0,565)"/>
<path style="fill:none;stroke-width:1;stroke-linecap:square;stroke-linejoin:miter;stroke:rgb(89.411926%,89.411926%,89.411926%);stroke-opacity:1;stroke-miterlimit:10;" d="M 422 565 L 422 0 " transform="matrix(1,0,0,-1,0,565)"/>
<path style="fill:none;stroke-width:1;stroke-linecap:square;stroke-linejoin:miter;stroke:rgb(89.411926%,89.411926%,89.411926%);stroke-opacity:1;stroke-miterlimit:10;" d="M 462 565 L 462 0 " transform="matrix(1,0,0,-1,0,565)"/>
<path style="fill:none;stroke-width:1;stroke-linecap:square;stroke-linejoin:miter;stroke:rgb(89.411926%,89.411926%,89.411926%);stroke-opacity:1;stroke-miterlimit:10;" d="M 502 565 L 502 0 " transform="matrix(1,0,0,-1,0,565)"/>
<path style="fill:none;stroke-width:1;stroke-linecap:square;stroke-linejoin:miter;stroke:rgb(89.411926%,89.411926%,89.411926%);stroke-opacity:1;stroke-miterlimit:10;" d="M 541 565 L 541 0 " transform="matrix(1,0,0,-1,0,565)"/>
<path style="fill:none;stroke-width:1;stroke-linecap:square;stroke-linejoin:miter;stroke:rgb(89.411926%,89.411926%,89.411926%);stroke-opacity:1;stroke-miterlimit:10;" d="M 581 565 L 581 0 " transform="matrix(1,0,0,-1,0,565)"/>
<path style="fill:none;stroke-width:1;stroke-linecap:square;stroke-linejoin:miter;stroke:rgb(89.411926%,89.411926%,89.411926%);stroke-opacity:1;stroke-miterlimit:10;" d="M 621 565 L 621 0 " transform="matrix(1,0,0,-1,0,565)"/>
<path style="fill:none;stroke-width:1;stroke-linecap:square;stroke-linejoin:miter;stroke:rgb(89.411926%,89.411926%,89.411926%);stroke-opacity:1;stroke-miterlimit:10;" d="M 661 565 L 661 0 " transform="matrix(1,0,0,-1,0,565)"/>
<path style="fill:none;stroke-width:1;stroke-linecap:square;stroke-linejoin:miter;stroke:rgb(89.411926%,89.411926%,89.411926%);stroke-opacity:1;stroke-miterlimit:10;" d="M 700 565 L 700 0 " transform="matrix(1,0,0,-1,0,565)"/>
<path style="fill:none;stroke-width:1;stroke-linecap:square;stroke-linejoin:miter;stroke:rgb(89.411926%,89.411926%,89.411926%);stroke-opacity:1;stroke-miterlimit:10;" d="M 740 565 L 740 0 " transform="matrix(1,0,0,-1,0,565)"/>
<path style="fill:none;stroke-width:1;stroke-linecap:square;stroke-linejoin:miter;stroke:rgb(89.411926%,89.411926%,89.411926%);stroke-opacity:1;stroke-miterlimit:10;" d="M 780 565 L 780 0 " transform="matrix(1,0,0,-1,0,565)"/>
<path style="fill:none;stroke-width:1;stroke-linecap:square;stroke-linejoin:miter;stroke:rgb(89.411926%,89.411926%,89.411926%);stroke-opacity:1;stroke-miterlimit:10;" d="M 820 565 L 820 0 " transform="matrix(1,0,0,-1,0,565)"/>
<path style="fill:none;stroke-width:1;stroke-linecap:square;stroke-linejoin:miter;stroke:rgb(89.411926%,89.411926%,89.411926%);stroke-opacity:1;stroke-miterlimit:10;" d="M 859 565 L 859 0 " transform="matrix(1,0,0,-1,0,565)"/>
<path style="fill:none;stroke-width:1;stroke-linecap:square;stroke-linejoin:miter;stroke:rgb(89.411926%,89.411926%,89.411926%);stroke-opacity:1;stroke-miterlimit:10;" d="M 899 565 L 899 0 " transform="matrix(1,0,0,-1,0,565)"/>
<path style="fill:none;stroke-width:1;stroke-linecap:square;stroke-linejoin:miter;stroke:rgb(89.411926%,89.411926%,89.411926%);stroke-opacity:1;stroke-miterlimit:10;" d="M 939 565 L 939 0 " transform="matrix(1,0,0,-1,0,565)"/>
<path style="fill:none;stroke-width:1;stroke-linecap:square;stroke-linejoin:miter;stroke:rgb(89.411926%,89.411926%,89.411926%);stroke-opacity:1;stroke-miterlimit:10;" d="M 978 565 L 978 0 " transform="matrix(1,0,0,-1,0,565)"/>
<path style="fill:none;stroke-width:1;stroke-linecap:square;stroke-linejoin:miter;stroke:rgb(89.411926%,89.411926%,89.411926%);stroke-opacity:1;stroke-miterlimit:10;" d="M 1018 565 L 1018 0 " transform="matrix(1,0,0,-1,0,565)"/>
<path style="fill:none;stroke-width:1;stroke-linecap:square;stroke-linejoin:miter;stroke:rgb(89.411926%,89.411926%,89.411926%);stroke-opacity:1;stroke-miterlimit:10;" d="M 1058 565 L 1058 0 " transform="matrix(1,0,0,-1,0,565)"/>
<path style="fill:none;stroke-width:1;stroke-linecap:square;stroke-linejoin:miter;stroke:rgb(89.411926%,89.411926%,89.411926%);stroke-opacity:1;stroke-miterlimit:10;" d="M 1098 565 L 1098 0 " transform="matrix(1,0,0,-1,0,565)"/>
<path style="fill:none;stroke-width:1;stroke-linecap:square;stroke-linejoin:miter;stroke:rgb(89.411926%,89.411926%,89.411926%);stroke-opacity:1;stroke-miterlimit:10;" d="M 1137 565 L 1137 0 " transform="matrix(1,0,0,-1,0,565)"/>
<path style="fill:none;stroke-width:1;stroke-linecap:square;stroke-linejoin:miter;stroke:rgb(89.411926%,89.411926%,89.411926%);stroke-opacity:1;stroke-miterlimit:10;" d="M 1177 565 L 1177 0 " transform="matrix(1,0,0,-1,0,565)"/>
<path style="fill:none;stroke-width:1;stroke-linecap:square;stroke-linejoin:miter;stroke:rgb(89.411926%,89.411926%,89.411926%);stroke-opacity:1;stroke-miterlimit:10;" d="M 1217 565 L 1217 0 " transform="matrix(1,0,0,-1,0,565)"/>
<path style="fill:none;stroke-width:1;stroke-linecap:square;stroke-linejoin:miter;stroke:rgb(89.411926%,89.411926%,89.411926%);stroke-opacity:1;stroke-miterlimit:10;" d="M 1257 565 L 1257 0 " transform="matrix(1,0,0,-1,0,565)"/>
<path style="fill:none;stroke-width:1;stroke-linecap:square;stroke-linejoin:miter;stroke:rgb(89.411926%,89.411926%,89.411926%);stroke-opacity:1;stroke-miterlimit:10;" d="M 1296 565 L 1296 0 " transform="matrix(1,0,0,-1,0,565)"/>
<path style="fill:none;stroke-width:1;stroke-linecap:square;stroke-linejoin:miter;stroke:rgb(89.411926%,89.411926%,89.411926%);stroke-opacity:1;stroke-miterlimit:10;" d="M 1336 565 L 1336 0 " transform="matrix(1,0,0,-1,0,565)"/>
<path style="fill:none;stroke-width:1;stroke-linecap:square;stroke-linejoin:miter;stroke:rgb(89.411926%,89.411926%,89.411926%);stroke-opacity:1;stroke-miterlimit:10;" d="M 0 547 L 1366 547 " transform="matrix(1,0,0,-1,0,565)"/>
<path style="fill:none;stroke-width:1;stroke-linecap:square;stroke-linejoin:miter;stroke:rgb(89.411926%,89.411926%,89.411926%);stroke-opacity:1;stroke-miterlimit:10;" d="M 0 507 L 1366 507 " transform="matrix(1,0,0,-1,0,565)"/>
<path style="fill:none;stroke-width:1;stroke-linecap:square;stroke-linejoin:miter;stroke:rgb(89.411926%,89.411926%,89.411926%);stroke-opacity:1;stroke-miterlimit:10;" d="M 0 468 L 1366 468 " transform="matrix(1,0,0,-1,0,565)"/>
<path style="fill:none;stroke-width:1;stroke-linecap:square;stroke-linejoin:miter;stroke:rgb(89.411926%,89.411926%,89.411926%);stroke-opacity:1;stroke-miterlimit:10;" d="M 0 428 L 1366 428 " transform="matrix(1,0,0,-1,0,565)"/>
<path style="fill:none;stroke-width:1;stroke-linecap:square;stroke-linejoin:miter;stroke:rgb(89.411926%,89.411926%,89.411926%);stroke-opacity:1;stroke-miterlimit:10;" d="M 0 388 L 1366 388 " transform="matrix(1,0,0,-1,0,565)"/>
<path style="fill:none;stroke-width:1;stroke-linecap:square;stroke-linejoin:miter;stroke:rgb(89.411926%,89.411926%,89.411926%);stroke-opacity:1;stroke-miterlimit:10;" d="M 0 348 L 1366 348 " transform="matrix(1,0,0,-1,0,565)"/>
<path style="fill:none;stroke-width:1;stroke-linecap:square;stroke-linejoin:miter;stroke:rgb(89.411926%,89.411926%,89.411926%);stroke-opacity:1;stroke-miterlimit:10;" d="M 0 309 L 1366 309 " transform="matrix(1,0,0,-1,0,565)"/>
<path style="fill:none;stroke-width:1;stroke-linecap:square;stroke-linejoin:miter;stroke:rgb(89.411926%,89.411926%,89.411926%);stroke-opacity:1;stroke-miterlimit:10;" d="M 0 269 L 1366 269 " transform="matrix(1,0,0,-1,0,565)"/>
<path style="fill:none;stroke-width:1;stroke-linecap:square;stroke-linejoin:miter;stroke:rgb(89.411926%,89.411926%,89.411926%);stroke-opacity:1;stroke-miterlimit:10;" d="M 0 229 L 1366 229 " transform="matrix(1,0,0,-1,0,565)"/>
<path style="fill:none;stroke-width:1;stroke-linecap:square;stroke-linejoin:miter;stroke:rgb(89.411926%,89.411926%,89.411926%);stroke-opacity:1;stroke-miterlimit:10;" d="M 0 189 L 1366 189 " transform="matrix(1,0,0,-1,0,565)"/>
<path style="fill:none;stroke-width:1;stroke-linecap:square;stroke-linejoin:miter;stroke:rgb(89.411926%,89.411926%,89.411926%);stroke-opacity:1;stroke-miterlimit:10;" d="M 0 150 L 1366 150 " transform="matrix(1,0,0,-1,0,565)"/>
<path style="fill:none;stroke-width:1;stroke-linecap:square;stroke-linejoin:miter;stroke:rgb(89.411926%,89.411926%,89.411926%);stroke-opacity:1;stroke-miterlimit:10;" d="M 0 110 L 1366 110 " transform="matrix(1,0,0,-1,0,565)"/>
<path style="fill:none;stroke-width:1;stroke-linecap:square;stroke-linejoin:miter;stroke:rgb(89.411926%,89.411926%,89.411926%);stroke-opacity:1;stroke-miterlimit:10;" d="M 0 70 L 1366 70 " transform="matrix(1,0,0,-1,0,565)"/>
<path style="fill:none;stroke-width:1;stroke-linecap:square;stroke-linejoin:miter;stroke:rgb(89.411926%,89.411926%,89.411926%);stroke-opacity:1;stroke-miterlimit:10;" d="M 0 31 L 1366 31 " transform="matrix(1,0,0,-1,0,565)"/>
<path style="fill:none;stroke-width:1;stroke-linecap:square;stroke-linejoin:miter;stroke:rgb(79.606628%,79.606628%,79.606628%);stroke-opacity:1;stroke-miterlimit:10;" d="M 661 564 L 661 0 " transform="matrix(1,0,0,-1,0,565)"/>
<path style="fill:none;stroke-width:1;stroke-linecap:square;stroke-linejoin:miter;stroke:rgb(79.606628%,79.606628%,79.606628%);stroke-opacity:1;stroke-miterlimit:10;" d="M 660 564 L 660 0 " transform="matrix(1,0,0,-1,0,565)"/>
<path style="fill:none;stroke-width:1;stroke-linecap:square;stroke-linejoin:miter;stroke:rgb(79.606628%,79.606628%,79.606628%);stroke-opacity:1;stroke-miterlimit:10;" d="M 662 564 L 662 0 " transform="matrix(1,0,0,-1,0,565)"/>
<path style="fill:none;stroke-width:1;stroke-linecap:square;stroke-linejoin:miter;stroke:rgb(79.606628%,79.606628%,79.606628%);stroke-opacity:1;stroke-miterlimit:10;" d="M 656 560 L 661 565 " transform="matrix(1,0,0,-1,0,565)"/>
<path style="fill:none;stroke-width:1;stroke-linecap:square;stroke-linejoin:miter;stroke:rgb(79.606628%,79.606628%,79.606628%);stroke-opacity:1;stroke-miterlimit:10;" d="M 666 560 L 661 565 " transform="matrix(1,0,0,-1,0,565)"/>
<path style="fill:none;stroke-width:1;stroke-linecap:square;stroke-linejoin:miter;stroke:rgb(79.606628%,79.606628%,79.606628%);stroke-opacity:1;stroke-miterlimit:10;" d="M 656 559 L 661 564 " transform="matrix(1,0,0,-1,0,565)"/>
<path style="fill:none;stroke-width:1;stroke-linecap:square;stroke-linejoin:miter;stroke:rgb(79.606628%,79.606628%,79.606628%);stroke-opacity:1;stroke-miterlimit:10;" d="M 666 559 L 661 564 " transform="matrix(1,0,0,-1,0,565)"/>
<path style="fill:none;stroke-width:1;stroke-linecap:square;stroke-linejoin:miter;stroke:rgb(79.606628%,79.606628%,79.606628%);stroke-opacity:1;stroke-miterlimit:10;" d="M 0 110 L 1365 110 " transform="matrix(1,0,0,-1,0,565)"/>
<path style="fill:none;stroke-width:1;stroke-linecap:square;stroke-linejoin:miter;stroke:rgb(79.606628%,79.606628%,79.606628%);stroke-opacity:1;stroke-miterlimit:10;" d="M 0 111 L 1365 111 " transform="matrix(1,0,0,-1,0,565)"/>
<path style="fill:none;stroke-width:1;stroke-linecap:square;stroke-linejoin:miter;stroke:rgb(79.606628%,79.606628%,79.606628%);stroke-opacity:1;stroke-miterlimit:10;" d="M 0 109 L 1365 109 " transform="matrix(1,0,0,-1,0,565)"/>
<path style="fill:none;stroke-width:1;stroke-linecap:square;stroke-linejoin:miter;stroke:rgb(79.606628%,79.606628%,79.606628%);stroke-opacity:1;stroke-miterlimit:10;" d="M 1361 115 L 1366 110 " transform="matrix(1,0,0,-1,0,565)"/>
<path style="fill:none;stroke-width:1;stroke-linecap:square;stroke-linejoin:miter;stroke:rgb(79.606628%,79.606628%,79.606628%);stroke-opacity:1;stroke-miterlimit:10;" d="M 1361 105 L 1366 110 " transform="matrix(1,0,0,-1,0,565)"/>
<path style="fill:none;stroke-width:1;stroke-linecap:square;stroke-linejoin:miter;stroke:rgb(79.606628%,79.606628%,79.606628%);stroke-opacity:1;stroke-miterlimit:10;" d="M 1360 115 L 1365 110 " transform="matrix(1,0,0,-1,0,565)"/>
<path style="fill:none;stroke-width:1;stroke-linecap:square;stroke-linejoin:miter;stroke:rgb(79.606628%,79.606628%,79.606628%);stroke-opacity:1;stroke-miterlimit:10;" d="M 1360 105 L 1365 110 " transform="matrix(1,0,0,-1,0,565)"/>
<path style="fill:none;stroke-width:1;stroke-linecap:square;stroke-linejoin:miter;stroke:rgb(59.606934%,59.606934%,59.606934%);stroke-opacity:1;stroke-miterlimit:10;" d="M 1296 31 L 1335 31 " transform="matrix(1,0,0,-1,0,565)"/>
<path style="fill:none;stroke-width:1;stroke-linecap:square;stroke-linejoin:miter;stroke:rgb(59.606934%,59.606934%,59.606934%);stroke-opacity:1;stroke-miterlimit:10;" d="M 1296 30 L 1335 30 " transform="matrix(1,0,0,-1,0,565)"/>
<path style="fill:none;stroke-width:1;stroke-linecap:square;stroke-linejoin:miter;stroke:rgb(59.606934%,59.606934%,59.606934%);stroke-opacity:1;stroke-miterlimit:10;" d="M 1296 32 L 1335 32 " transform="matrix(1,0,0,-1,0,565)"/>
<path style="fill:none;stroke-width:1;stroke-linecap:square;stroke-linejoin:miter;stroke:rgb(59.606934%,59.606934%,59.606934%);stroke-opacity:1;stroke-miterlimit:10;" d="M 1296 34 L 1296 28 " transform="matrix(1,0,0,-1,0,565)"/>
<path style="fill:none;stroke-width:1;stroke-linecap:square;stroke-linejoin:miter;stroke:rgb(59.606934%,59.606934%,59.606934%);stroke-opacity:1;stroke-miterlimit:10;" d="M 1335 34 L 1335 28 " transform="matrix(1,0,0,-1,0,565)"/>
<path style=" stroke:none;fill-rule:nonzero;fill:rgb(59.606934%,59.606934%,59.606934%);fill-opacity:1;" d="M 1316.480469 530 L 1318.421875 530 L 1318.421875 523.328125 L 1316.308594 523.75 L 1316.308594 522.671875 L 1318.410156 522.25 L 1319.589844 522.25 L 1319.589844 530 L 1321.53125 530 L 1321.53125 531 L 1316.480469 531 Z M 1323.921875 529.519531 L 1325.148438 529.519531 L 1325.148438 531 L 1323.921875 531 Z M 1330.261719 523.03125 C 1330.261719 523.03125 1329.359375 523.03125 1328.890625 523.941406 C 1328.890625 523.941406 1328.429688 524.828125 1328.429688 526.640625 C 1328.429688 526.640625 1328.429688 528.441406 1328.890625 529.339844 C 1328.890625 529.339844 1329.359375 530.230469 1330.261719 530.230469 C 1330.261719 530.230469 1331.179688 530.230469 1331.640625 529.339844 C 1331.640625 529.339844 1332.109375 528.441406 1332.109375 526.640625 C 1332.109375 526.640625 1332.109375 524.828125 1331.640625 523.941406 C 1331.640625 523.941406 1331.179688 523.03125 1330.261719 523.03125 Z M 1330.261719 522.089844 C 1330.261719 522.089844 1331.730469 522.089844 1332.511719 523.269531 C 1332.511719 523.269531 1333.289062 524.421875 1333.289062 526.640625 C 1333.289062 526.640625 1333.289062 528.839844 1332.511719 530.019531 C 1332.511719 530.019531 1331.730469 531.171875 1330.261719 531.171875 C 1330.261719 531.171875 1328.789062 531.171875 1328.011719 530.019531 C 1328.011719 530.019531 1327.25 528.839844 1327.25 526.640625 C 1327.25 526.640625 1327.25 524.421875 1328.011719 523.269531 C 1328.011719 523.269531 1328.789062 522.089844 1330.261719 522.089844 Z M 1330.261719 522.089844 "/>
<path style="fill:none;stroke-width:3;stroke-linecap:round;stroke-linejoin:round;stroke:rgb(0%,0%,100%);stroke-opacity:1;stroke-miterlimit:10;" d="M 918.230469 565.5 L 395.179688 -1.5 " transform="matrix(1,0,0,-1,0,565)"/>
<path style="fill:none;stroke-width:3;stroke-linecap:round;stroke-linejoin:round;stroke:rgb(0%,0%,100%);stroke-opacity:1;stroke-miterlimit:10;" d="M 522.851562 565.5 L 687.46875 -1.5 " transform="matrix(1,0,0,-1,0,565)"/>
<path style="fill-rule:nonzero;fill:rgb(100%,0%,0%);fill-opacity:1;stroke-width:1;stroke-linecap:square;stroke-linejoin:miter;stroke:rgb(0%,0%,0%);stroke-opacity:1;stroke-miterlimit:10;" d="M 622.5 239.5 C 622.5 236.738281 620.261719 234.5 617.5 234.5 C 614.738281 234.5 612.5 236.738281 612.5 239.5 C 612.5 242.261719 614.738281 244.5 617.5 244.5 C 620.261719 244.5 622.5 242.261719 622.5 239.5 Z M 622.5 239.5 " transform="matrix(1,0,0,-1,0,565)"/>
<path style=" stroke:none;fill-rule:nonzero;fill:rgb(0%,0%,0%);fill-opacity:1;" d="M 821.78125 153.691406 C 822.550781 153.691406 823.199219 153.078125 823.199219 152.390625 C 823.199219 152 822.941406 151.519531 822.671875 151.371094 C 822.671875 151.199219 823.878906 151.140625 824.160156 151.140625 C 825.359375 151.140625 826.03125 151.808594 826.339844 152.839844 C 826.46875 153.160156 826.480469 153.441406 826.480469 154.050781 L 826.480469 154.558594 L 826.300781 154.558594 C 824.558594 154.660156 823.269531 154.921875 822.128906 155.449219 C 821.519531 155.71875 821.050781 155.949219 820.628906 156.371094 C 820.128906 156.871094 819.671875 157.550781 819.671875 158.441406 C 819.671875 158.75 819.75 159.058594 819.859375 159.339844 C 820.308594 160.519531 821.921875 161.269531 823.558594 161.269531 C 824.589844 161.269531 825.628906 160.921875 826.390625 160.28125 C 826.578125 160.109375 826.828125 159.78125 826.75 159.839844 L 826.75 159.699219 C 826.96875 160.46875 827.769531 161.140625 828.589844 161.140625 C 829.691406 161.140625 830.609375 160.449219 830.878906 159.578125 C 830.921875 159.421875 830.921875 159.371094 830.949219 158.449219 L 830.949219 157.519531 L 829.730469 157.519531 L 829.730469 158.390625 C 829.730469 159.308594 829.730469 159.46875 829.609375 159.699219 L 829.578125 159.699219 C 829.480469 159.921875 829.46875 160.050781 829.269531 160.050781 C 829.078125 160.050781 829.019531 159.921875 828.910156 159.699219 L 828.890625 159.699219 C 828.75 159.421875 828.769531 159.480469 828.769531 156.339844 C 828.769531 153.21875 828.769531 153.269531 828.628906 152.839844 C 828.140625 151.300781 826.378906 150.25 824.230469 150.25 C 822.449219 150.25 820.96875 150.75 820.558594 151.609375 C 820.441406 151.871094 820.378906 152.140625 820.378906 152.390625 C 820.378906 153.078125 821.019531 153.691406 821.78125 153.691406 Z M 826.480469 156.800781 C 826.46875 158.140625 826.46875 158.21875 826.421875 158.390625 C 826.160156 159.441406 825.339844 160.371094 824.019531 160.371094 C 822.890625 160.371094 822.140625 159.53125 822.140625 158.449219 C 822.140625 158.078125 822.21875 157.691406 822.390625 157.371094 C 822.980469 156.25 824.328125 155.578125 826.578125 155.441406 C 826.628906 155.410156 826.699219 155.410156 826.699219 155.410156 L 826.609375 155.410156 C 826.628906 155.410156 826.480469 156.03125 826.480469 156.800781 Z M 826.480469 156.800781 "/>
<path style=" stroke:none;fill-rule:nonzero;fill:rgb(0%,0%,0%);fill-opacity:1;" d="M 832.980469 160.28125 C 833.640625 160.28125 834.199219 159.699219 834.199219 159.121094 C 834.199219 158.558594 833.691406 157.96875 833.050781 157.96875 C 833 157.96875 833.109375 158.050781 833.109375 158.03125 C 833.109375 158.019531 833.140625 157.921875 833.21875 157.78125 C 833.609375 157.199219 834 156.859375 834.808594 156.859375 C 836.359375 156.859375 837.019531 158.058594 837.019531 159.578125 C 837.019531 160.621094 836.671875 161.449219 835.859375 162.550781 C 835.46875 163.050781 835.378906 163.171875 833.339844 165.421875 C 832.53125 166.339844 831.839844 167.121094 831.828125 167.140625 C 831.800781 167.191406 831.730469 167.28125 831.730469 167.589844 L 831.730469 168 L 838.71875 168 L 838.71875 167.839844 C 838.71875 167.808594 839.128906 164.730469 839.21875 164.550781 L 839.21875 164.449219 L 838.199219 164.449219 L 838.199219 164.578125 C 838.058594 165.390625 838.03125 165.550781 837.949219 165.800781 C 837.890625 165.980469 837.980469 166.089844 837.730469 166.191406 C 837.71875 166.199219 836.730469 166.199219 834.921875 166.199219 L 833.769531 166.199219 L 834.699219 165.300781 C 835.941406 164.121094 835.878906 164.191406 836.519531 163.640625 C 837.699219 162.621094 838.160156 162.121094 838.550781 161.578125 C 838.96875 160.941406 839.21875 160.339844 839.21875 159.558594 C 839.21875 159.339844 839.199219 159.121094 839.191406 158.96875 C 838.890625 157.199219 837.339844 155.871094 835.230469 155.871094 C 833.390625 155.871094 831.730469 157.371094 831.730469 159.089844 C 831.730469 159.699219 832.300781 160.28125 832.980469 160.28125 Z M 832.980469 160.28125 "/>
<path style=" stroke:none;fill-rule:nonzero;fill:rgb(0%,0%,0%);fill-opacity:1;" d="M 844.828125 161 L 845.109375 161 L 845.109375 160.449219 C 845.109375 159.921875 844.980469 159.890625 844.941406 159.890625 C 844.609375 159.890625 844.46875 159.578125 844.46875 159.25 C 844.46875 159.121094 844.46875 159.019531 844.53125 158.890625 C 844.609375 158.769531 846.050781 156.828125 845.949219 156.871094 L 846.859375 158.121094 C 847.519531 159.019531 847.800781 159.46875 847.800781 159.480469 C 847.800781 159.691406 847.519531 159.890625 847.160156 159.890625 L 846.941406 159.890625 L 846.941406 161 L 847.300781 161 C 847.578125 160.949219 849.410156 160.921875 849.941406 160.921875 C 850.421875 160.921875 852 160.921875 852.230469 161 L 852.5 161 L 852.5 159.890625 L 851.96875 159.890625 C 851.109375 159.890625 850.660156 159.890625 850.300781 159.53125 C 850.21875 159.46875 849.5 158.480469 848.691406 157.371094 L 847.199219 155.339844 L 847.578125 154.828125 C 847.78125 154.558594 848.199219 154.019531 848.5 153.609375 C 849.230469 152.640625 849.359375 152.410156 849.859375 152.171875 L 849.949219 152.171875 C 850.421875 151.921875 851.160156 151.769531 851.808594 151.769531 L 852.089844 151.769531 L 852.089844 150.660156 L 851.828125 150.660156 C 851.609375 150.730469 850.21875 150.730469 849.800781 150.730469 C 849.339844 150.730469 847.628906 150.699219 847.421875 150.660156 L 847.109375 150.660156 L 847.109375 151.769531 L 847.25 151.769531 C 847.300781 151.78125 847.421875 151.808594 847.480469 151.859375 C 847.691406 151.96875 847.75 152.191406 847.75 152.410156 C 847.75 152.53125 847.75 152.671875 847.609375 152.949219 C 847.628906 152.859375 847.339844 153.269531 847.019531 153.699219 L 846.5 154.421875 C 846.359375 154.25 844.941406 152.230469 844.941406 152.140625 C 844.941406 151.910156 845.300781 151.808594 845.808594 151.769531 L 845.808594 150.660156 L 845.5 150.660156 C 845.359375 150.699219 844.699219 150.699219 844.078125 150.699219 L 843.03125 150.699219 C 842.050781 150.699219 840.980469 150.691406 840.550781 150.660156 L 840.230469 150.660156 L 840.230469 151.769531 L 841.058594 151.769531 C 841.421875 151.78125 841.800781 151.808594 841.921875 151.808594 C 842.191406 151.859375 842.328125 151.96875 842.449219 152.089844 C 842.5 152.140625 843.140625 153.03125 843.910156 154.089844 L 845.300781 155.949219 L 844.199219 157.410156 C 843.589844 158.191406 843.050781 158.910156 842.96875 158.980469 C 842.421875 159.53125 841.699219 159.828125 840.589844 159.890625 L 840.128906 159.890625 L 840.128906 161 L 840.410156 161 C 840.671875 160.921875 841.980469 160.921875 842.449219 160.921875 C 842.910156 160.921875 844.578125 160.949219 844.828125 161 Z M 844.828125 161 "/>
<path style=" stroke:none;fill-rule:nonzero;fill:rgb(0%,0%,0%);fill-opacity:1;" d="M 854.199219 155 C 854.199219 155.269531 854.378906 155.390625 854.558594 155.480469 L 861.71875 155.480469 L 861.71875 162.558594 C 861.828125 162.828125 862.078125 162.96875 862.339844 162.96875 C 862.589844 162.96875 862.808594 162.828125 862.941406 162.558594 L 862.941406 155.480469 L 870.058594 155.480469 C 870.25 155.390625 870.449219 155.269531 870.449219 155 C 870.449219 154.730469 870.25 154.609375 870.058594 154.519531 L 862.941406 154.519531 L 862.941406 147.46875 C 862.808594 147.171875 862.578125 147.019531 862.339844 147.019531 C 862.089844 147.019531 861.859375 147.199219 861.730469 147.390625 L 861.71875 150.921875 L 861.71875 154.519531 L 854.558594 154.519531 C 854.378906 154.609375 854.199219 154.730469 854.199219 155 Z M 854.199219 155 "/>
<path style=" stroke:none;fill-rule:nonzero;fill:rgb(0%,0%,0%);fill-opacity:1;" d="M 874.359375 144.480469 C 873.378906 144.53125 872.550781 144.609375 872.53125 144.609375 C 872.480469 144.609375 872.339844 144.660156 872.339844 145.160156 L 872.339844 145.71875 L 872.910156 145.71875 C 873.96875 145.769531 874.089844 145.910156 874.191406 146.53125 C 874.199219 146.621094 874.199219 149.910156 874.199219 153.839844 L 874.199219 161 L 874.828125 161 L 875.410156 160.96875 L 875.53125 160.769531 C 875.589844 160.640625 875.769531 160.328125 875.890625 160.109375 L 876.058594 159.828125 L 876.078125 159.839844 C 876.78125 160.589844 878.03125 161.269531 879.378906 161.269531 C 882.199219 161.269531 884.21875 159.109375 884.589844 156.660156 C 884.628906 156.46875 884.640625 156.160156 884.640625 155.808594 C 884.640625 152.941406 882.75 150.890625 880.550781 150.46875 C 880.300781 150.421875 880.050781 150.390625 879.75 150.390625 C 878.441406 150.390625 877.089844 150.871094 876.339844 151.5 C 876.269531 151.558594 876.421875 151.609375 876.421875 151.609375 L 876.308594 151.609375 C 876.300781 151.609375 876.421875 149.980469 876.421875 147.96875 L 876.421875 144.339844 L 876.21875 144.339844 C 876.171875 144.339844 875.339844 144.421875 874.359375 144.480469 Z M 879.941406 151.359375 C 880.859375 151.589844 881.441406 152.28125 881.75 153.25 C 881.941406 153.839844 882.03125 154.78125 882.03125 155.910156 C 882.03125 157.050781 881.949219 157.660156 881.75 158.28125 C 881.628906 158.621094 881.578125 158.808594 881.390625 159.078125 C 880.828125 159.890625 880.050781 160.371094 879.078125 160.371094 C 878.839844 160.371094 878.578125 160.359375 878.339844 160.28125 C 877.609375 160.089844 877.050781 159.558594 876.578125 158.808594 L 876.480469 158.71875 L 876.480469 152.808594 L 876.609375 152.671875 C 877.191406 151.871094 878.078125 151.28125 879.199219 151.28125 C 879.46875 151.28125 879.75 151.328125 879.941406 151.359375 Z M 879.941406 151.359375 "/>
<path style=" stroke:none;fill-rule:nonzero;fill:rgb(0%,0%,0%);fill-opacity:1;" d="M 886.980469 160.28125 C 887.640625 160.28125 888.199219 159.699219 888.199219 159.121094 C 888.199219 158.558594 887.691406 157.96875 887.050781 157.96875 C 887 157.96875 887.109375 158.050781 887.109375 158.03125 C 887.109375 158.019531 887.140625 157.921875 887.21875 157.78125 C 887.609375 157.199219 888 156.859375 888.808594 156.859375 C 890.359375 156.859375 891.019531 158.058594 891.019531 159.578125 C 891.019531 160.621094 890.671875 161.449219 889.859375 162.550781 C 889.46875 163.050781 889.378906 163.171875 887.339844 165.421875 C 886.53125 166.339844 885.839844 167.121094 885.828125 167.140625 C 885.800781 167.191406 885.730469 167.28125 885.730469 167.589844 L 885.730469 168 L 892.71875 168 L 892.71875 167.839844 C 892.71875 167.808594 893.128906 164.730469 893.21875 164.550781 L 893.21875 164.449219 L 892.199219 164.449219 L 892.199219 164.578125 C 892.058594 165.390625 892.03125 165.550781 891.949219 165.800781 C 891.890625 165.980469 891.980469 166.089844 891.730469 166.191406 C 891.71875 166.199219 890.730469 166.199219 888.921875 166.199219 L 887.769531 166.199219 L 888.699219 165.300781 C 889.941406 164.121094 889.878906 164.191406 890.519531 163.640625 C 891.699219 162.621094 892.160156 162.121094 892.550781 161.578125 C 892.96875 160.941406 893.21875 160.339844 893.21875 159.558594 C 893.21875 159.339844 893.199219 159.121094 893.191406 158.96875 C 892.890625 157.199219 891.339844 155.871094 889.230469 155.871094 C 887.390625 155.871094 885.730469 157.371094 885.730469 159.089844 C 885.730469 159.699219 886.300781 160.28125 886.980469 160.28125 Z M 886.980469 160.28125 "/>
<path style=" stroke:none;fill-rule:nonzero;fill:rgb(0%,0%,0%);fill-opacity:1;" d="M 895.660156 162.578125 C 895.019531 162.578125 894.308594 163.019531 894.308594 163.78125 C 894.308594 165.03125 895.421875 165.890625 896.71875 165.890625 C 896.910156 165.890625 897.089844 165.890625 897.21875 165.871094 C 898.078125 165.691406 898.921875 165.109375 899.550781 164.140625 C 900.359375 162.921875 904.058594 152.890625 904.21875 152.71875 C 904.53125 152.140625 905.050781 151.828125 905.921875 151.769531 L 906.308594 151.769531 L 906.308594 150.660156 L 906.078125 150.660156 C 905.769531 150.691406 904.941406 150.699219 904.128906 150.699219 C 903.628906 150.699219 902.300781 150.699219 902.089844 150.660156 L 901.800781 150.660156 L 901.800781 151.769531 L 902.019531 151.769531 C 902.550781 151.769531 902.878906 152.050781 902.878906 152.589844 L 902.878906 152.808594 L 901.828125 155.550781 C 901.21875 157.050781 900.71875 158.28125 900.71875 158.308594 L 900.949219 158.308594 C 900.949219 158.308594 898.558594 152.910156 898.558594 152.171875 C 898.558594 151.828125 899.140625 151.769531 899.558594 151.769531 L 899.910156 151.769531 L 899.910156 150.660156 L 899.589844 150.660156 C 899.328125 150.699219 897.449219 150.730469 896.921875 150.730469 C 896.421875 150.730469 894.890625 150.730469 894.628906 150.660156 L 894.308594 150.660156 L 894.308594 151.769531 L 895.03125 151.769531 C 895.609375 151.769531 895.980469 151.78125 896.160156 152.121094 C 896.199219 152.171875 896.96875 154.199219 897.941406 156.609375 L 899.660156 161 L 899.25 162.03125 C 898.75 163.371094 898.421875 164.480469 897.359375 164.890625 C 897.140625 164.980469 896.878906 165.03125 896.660156 165.03125 C 896.5 165.03125 896.410156 165.019531 896.28125 164.941406 C 896.191406 164.890625 896.191406 164.890625 896.46875 164.75 C 896.550781 164.71875 896.949219 164.230469 896.949219 163.78125 C 896.949219 163.109375 896.328125 162.578125 895.660156 162.578125 Z M 895.660156 162.578125 "/>
<path style=" stroke:none;fill-rule:nonzero;fill:rgb(0%,0%,0%);fill-opacity:1;" d="M 908.199219 152.671875 C 908.199219 152.949219 908.480469 153.078125 908.730469 153.160156 L 916.359375 153.160156 L 924.089844 153.121094 C 924.25 153.03125 924.449219 152.941406 924.449219 152.671875 C 924.449219 152.410156 924.25 152.28125 924.058594 152.191406 L 908.558594 152.191406 C 908.378906 152.28125 908.199219 152.410156 908.199219 152.671875 Z M 908.199219 157.328125 C 908.199219 157.589844 908.378906 157.71875 908.558594 157.808594 L 924.058594 157.808594 C 924.25 157.71875 924.449219 157.589844 924.449219 157.328125 C 924.449219 157.050781 924.230469 156.96875 924.089844 156.839844 L 908.730469 156.839844 C 908.480469 156.921875 908.199219 157.050781 908.199219 157.328125 Z M 908.199219 157.328125 "/>
<path style=" stroke:none;fill-rule:nonzero;fill:rgb(0%,0%,0%);fill-opacity:1;" d="M 934.410156 153.691406 C 935.128906 153.691406 935.808594 153.171875 935.808594 152.441406 C 935.808594 152.230469 935.800781 152.03125 935.75 151.871094 C 935.339844 150.621094 933.730469 150.25 932 150.25 C 930.691406 150.25 929.550781 150.699219 928.691406 151.410156 C 927.609375 152.308594 926.890625 153.578125 926.699219 155.078125 C 926.671875 155.230469 926.671875 155.550781 926.671875 155.859375 C 926.671875 156.171875 926.671875 156.480469 926.699219 156.621094 C 927.019531 158.480469 928.050781 159.921875 929.578125 160.71875 C 930.308594 161.089844 931.109375 161.269531 931.96875 161.269531 C 933.421875 161.269531 934.691406 160.640625 935.449219 159.53125 C 935.699219 159.160156 936.078125 158.339844 936.078125 158.121094 C 936.078125 158.050781 935.949219 157.949219 935.910156 157.910156 L 935.480469 157.910156 C 935.078125 157.910156 934.910156 157.921875 934.828125 158.191406 C 934.589844 159.03125 934.089844 159.75 933.46875 160.058594 C 933.160156 160.230469 932.910156 160.300781 932.53125 160.300781 C 931.328125 160.300781 930.519531 159.621094 929.980469 158.839844 C 929.480469 158.078125 929.269531 157.089844 929.269531 155.75 C 929.269531 153.921875 929.53125 152.808594 930.378906 151.96875 C 930.878906 151.421875 931.199219 151.199219 932.191406 151.199219 C 932.589844 151.199219 933.058594 151.25 933.378906 151.300781 C 933.660156 151.359375 933.519531 151.328125 933.378906 151.5 C 933.128906 151.730469 932.980469 152.078125 932.980469 152.410156 C 932.980469 153.078125 933.628906 153.691406 934.410156 153.691406 Z M 934.410156 153.691406 "/>
<path style=" stroke:none;fill-rule:nonzero;fill:rgb(0%,0%,0%);fill-opacity:1;" d="M 938.980469 160.28125 C 939.640625 160.28125 940.199219 159.699219 940.199219 159.121094 C 940.199219 158.558594 939.691406 157.96875 939.050781 157.96875 C 939 157.96875 939.109375 158.050781 939.109375 158.03125 C 939.109375 158.019531 939.140625 157.921875 939.21875 157.78125 C 939.609375 157.199219 940 156.859375 940.808594 156.859375 C 942.359375 156.859375 943.019531 158.058594 943.019531 159.578125 C 943.019531 160.621094 942.671875 161.449219 941.859375 162.550781 C 941.46875 163.050781 941.378906 163.171875 939.339844 165.421875 C 938.53125 166.339844 937.839844 167.121094 937.828125 167.140625 C 937.800781 167.191406 937.730469 167.28125 937.730469 167.589844 L 937.730469 168 L 944.71875 168 L 944.71875 167.839844 C 944.71875 167.808594 945.128906 164.730469 945.21875 164.550781 L 945.21875 164.449219 L 944.199219 164.449219 L 944.199219 164.578125 C 944.058594 165.390625 944.03125 165.550781 943.949219 165.800781 C 943.890625 165.980469 943.980469 166.089844 943.730469 166.191406 C 943.71875 166.199219 942.730469 166.199219 940.921875 166.199219 L 939.769531 166.199219 L 940.699219 165.300781 C 941.941406 164.121094 941.878906 164.191406 942.519531 163.640625 C 943.699219 162.621094 944.160156 162.121094 944.550781 161.578125 C 944.96875 160.941406 945.21875 160.339844 945.21875 159.558594 C 945.21875 159.339844 945.199219 159.121094 945.191406 158.96875 C 944.890625 157.199219 943.339844 155.871094 941.230469 155.871094 C 939.390625 155.871094 937.730469 157.371094 937.730469 159.089844 C 937.730469 159.699219 938.300781 160.28125 938.980469 160.28125 Z M 938.980469 160.28125 "/>
<path style=" stroke:none;fill-rule:nonzero;fill:rgb(0%,0%,0%);fill-opacity:1;" d="M 423.78125 153.691406 C 424.550781 153.691406 425.199219 153.078125 425.199219 152.390625 C 425.199219 152 424.941406 151.519531 424.671875 151.371094 C 424.671875 151.199219 425.878906 151.140625 426.160156 151.140625 C 427.359375 151.140625 428.03125 151.808594 428.339844 152.839844 C 428.46875 153.160156 428.480469 153.441406 428.480469 154.050781 L 428.480469 154.558594 L 428.300781 154.558594 C 426.558594 154.660156 425.269531 154.921875 424.128906 155.449219 C 423.519531 155.71875 423.050781 155.949219 422.628906 156.371094 C 422.128906 156.871094 421.671875 157.550781 421.671875 158.441406 C 421.671875 158.75 421.75 159.058594 421.859375 159.339844 C 422.308594 160.519531 423.921875 161.269531 425.558594 161.269531 C 426.589844 161.269531 427.628906 160.921875 428.390625 160.28125 C 428.578125 160.109375 428.828125 159.78125 428.75 159.839844 L 428.75 159.699219 C 428.96875 160.46875 429.769531 161.140625 430.589844 161.140625 C 431.691406 161.140625 432.609375 160.449219 432.878906 159.578125 C 432.921875 159.421875 432.921875 159.371094 432.949219 158.449219 L 432.949219 157.519531 L 431.730469 157.519531 L 431.730469 158.390625 C 431.730469 159.308594 431.730469 159.46875 431.609375 159.699219 L 431.578125 159.699219 C 431.480469 159.921875 431.46875 160.050781 431.269531 160.050781 C 431.078125 160.050781 431.019531 159.921875 430.910156 159.699219 L 430.890625 159.699219 C 430.75 159.421875 430.769531 159.480469 430.769531 156.339844 C 430.769531 153.21875 430.769531 153.269531 430.628906 152.839844 C 430.140625 151.300781 428.378906 150.25 426.230469 150.25 C 424.449219 150.25 422.96875 150.75 422.558594 151.609375 C 422.441406 151.871094 422.378906 152.140625 422.378906 152.390625 C 422.378906 153.078125 423.019531 153.691406 423.78125 153.691406 Z M 428.480469 156.800781 C 428.46875 158.140625 428.46875 158.21875 428.421875 158.390625 C 428.160156 159.441406 427.339844 160.371094 426.019531 160.371094 C 424.890625 160.371094 424.140625 159.53125 424.140625 158.449219 C 424.140625 158.078125 424.21875 157.691406 424.390625 157.371094 C 424.980469 156.25 426.328125 155.578125 428.578125 155.441406 C 428.628906 155.410156 428.699219 155.410156 428.699219 155.410156 L 428.609375 155.410156 C 428.628906 155.410156 428.480469 156.03125 428.480469 156.800781 Z M 428.480469 156.800781 "/>
<path style=" stroke:none;fill-rule:nonzero;fill:rgb(0%,0%,0%);fill-opacity:1;" d="M 440.480469 168 L 440.828125 168 L 440.828125 167.03125 L 439.628906 167.03125 C 439.078125 167.03125 438.800781 167.050781 438.589844 166.828125 L 438.578125 161.441406 L 438.578125 156.050781 C 438.421875 155.921875 438.359375 155.871094 438.128906 155.871094 C 437.96875 155.871094 437.839844 155.910156 437.808594 155.949219 C 437.71875 156.050781 437.410156 156.28125 437.25 156.371094 C 436.578125 156.78125 435.839844 156.980469 434.839844 157.019531 L 434.328125 157.019531 L 434.328125 157.980469 L 434.839844 157.980469 C 435.519531 157.96875 436.171875 157.839844 436.941406 157.558594 C 436.859375 157.589844 436.808594 157.589844 436.671875 157.589844 L 436.671875 166.808594 C 436.589844 166.890625 436.628906 166.949219 436.410156 166.96875 C 436.199219 167.019531 435.578125 167.03125 435.050781 167.03125 L 434.421875 167.03125 L 434.421875 168 L 434.800781 168 C 435.109375 167.949219 437.050781 167.949219 437.628906 167.949219 C 438.199219 167.949219 440.191406 167.949219 440.480469 168 Z M 440.480469 168 "/>
<path style=" stroke:none;fill-rule:nonzero;fill:rgb(0%,0%,0%);fill-opacity:1;" d="M 446.828125 161 L 447.109375 161 L 447.109375 160.449219 C 447.109375 159.921875 446.980469 159.890625 446.941406 159.890625 C 446.609375 159.890625 446.46875 159.578125 446.46875 159.25 C 446.46875 159.121094 446.46875 159.019531 446.53125 158.890625 C 446.609375 158.769531 448.050781 156.828125 447.949219 156.871094 L 448.859375 158.121094 C 449.519531 159.019531 449.800781 159.46875 449.800781 159.480469 C 449.800781 159.691406 449.519531 159.890625 449.160156 159.890625 L 448.941406 159.890625 L 448.941406 161 L 449.300781 161 C 449.578125 160.949219 451.410156 160.921875 451.941406 160.921875 C 452.421875 160.921875 454 160.921875 454.230469 161 L 454.5 161 L 454.5 159.890625 L 453.96875 159.890625 C 453.109375 159.890625 452.660156 159.890625 452.300781 159.53125 C 452.21875 159.46875 451.5 158.480469 450.691406 157.371094 L 449.199219 155.339844 L 449.578125 154.828125 C 449.78125 154.558594 450.199219 154.019531 450.5 153.609375 C 451.230469 152.640625 451.359375 152.410156 451.859375 152.171875 L 451.949219 152.171875 C 452.421875 151.921875 453.160156 151.769531 453.808594 151.769531 L 454.089844 151.769531 L 454.089844 150.660156 L 453.828125 150.660156 C 453.609375 150.730469 452.21875 150.730469 451.800781 150.730469 C 451.339844 150.730469 449.628906 150.699219 449.421875 150.660156 L 449.109375 150.660156 L 449.109375 151.769531 L 449.25 151.769531 C 449.300781 151.78125 449.421875 151.808594 449.480469 151.859375 C 449.691406 151.96875 449.75 152.191406 449.75 152.410156 C 449.75 152.53125 449.75 152.671875 449.609375 152.949219 C 449.628906 152.859375 449.339844 153.269531 449.019531 153.699219 L 448.5 154.421875 C 448.359375 154.25 446.941406 152.230469 446.941406 152.140625 C 446.941406 151.910156 447.300781 151.808594 447.808594 151.769531 L 447.808594 150.660156 L 447.5 150.660156 C 447.359375 150.699219 446.699219 150.699219 446.078125 150.699219 L 445.03125 150.699219 C 444.050781 150.699219 442.980469 150.691406 442.550781 150.660156 L 442.230469 150.660156 L 442.230469 151.769531 L 443.058594 151.769531 C 443.421875 151.78125 443.800781 151.808594 443.921875 151.808594 C 444.191406 151.859375 444.328125 151.96875 444.449219 152.089844 C 444.5 152.140625 445.140625 153.03125 445.910156 154.089844 L 447.300781 155.949219 L 446.199219 157.410156 C 445.589844 158.191406 445.050781 158.910156 444.96875 158.980469 C 444.421875 159.53125 443.699219 159.828125 442.589844 159.890625 L 442.128906 159.890625 L 442.128906 161 L 442.410156 161 C 442.671875 160.921875 443.980469 160.921875 444.449219 160.921875 C 444.910156 160.921875 446.578125 160.949219 446.828125 161 Z M 446.828125 161 "/>
<path style=" stroke:none;fill-rule:nonzero;fill:rgb(0%,0%,0%);fill-opacity:1;" d="M 456.199219 155 C 456.199219 155.269531 456.378906 155.390625 456.558594 155.480469 L 463.71875 155.480469 L 463.71875 162.558594 C 463.828125 162.828125 464.078125 162.96875 464.339844 162.96875 C 464.589844 162.96875 464.808594 162.828125 464.941406 162.558594 L 464.941406 155.480469 L 472.058594 155.480469 C 472.25 155.390625 472.449219 155.269531 472.449219 155 C 472.449219 154.730469 472.25 154.609375 472.058594 154.519531 L 464.941406 154.519531 L 464.941406 147.46875 C 464.808594 147.171875 464.578125 147.019531 464.339844 147.019531 C 464.089844 147.019531 463.859375 147.199219 463.730469 147.390625 L 463.71875 150.921875 L 463.71875 154.519531 L 456.558594 154.519531 C 456.378906 154.609375 456.199219 154.730469 456.199219 155 Z M 456.199219 155 "/>
<path style=" stroke:none;fill-rule:nonzero;fill:rgb(0%,0%,0%);fill-opacity:1;" d="M 476.359375 144.480469 C 475.378906 144.53125 474.550781 144.609375 474.53125 144.609375 C 474.480469 144.609375 474.339844 144.660156 474.339844 145.160156 L 474.339844 145.71875 L 474.910156 145.71875 C 475.96875 145.769531 476.089844 145.910156 476.191406 146.53125 C 476.199219 146.621094 476.199219 149.910156 476.199219 153.839844 L 476.199219 161 L 476.828125 161 L 477.410156 160.96875 L 477.53125 160.769531 C 477.589844 160.640625 477.769531 160.328125 477.890625 160.109375 L 478.058594 159.828125 L 478.078125 159.839844 C 478.78125 160.589844 480.03125 161.269531 481.378906 161.269531 C 484.199219 161.269531 486.21875 159.109375 486.589844 156.660156 C 486.628906 156.46875 486.640625 156.160156 486.640625 155.808594 C 486.640625 152.941406 484.75 150.890625 482.550781 150.46875 C 482.300781 150.421875 482.050781 150.390625 481.75 150.390625 C 480.441406 150.390625 479.089844 150.871094 478.339844 151.5 C 478.269531 151.558594 478.421875 151.609375 478.421875 151.609375 L 478.308594 151.609375 C 478.300781 151.609375 478.421875 149.980469 478.421875 147.96875 L 478.421875 144.339844 L 478.21875 144.339844 C 478.171875 144.339844 477.339844 144.421875 476.359375 144.480469 Z M 481.941406 151.359375 C 482.859375 151.589844 483.441406 152.28125 483.75 153.25 C 483.941406 153.839844 484.03125 154.78125 484.03125 155.910156 C 484.03125 157.050781 483.949219 157.660156 483.75 158.28125 C 483.628906 158.621094 483.578125 158.808594 483.390625 159.078125 C 482.828125 159.890625 482.050781 160.371094 481.078125 160.371094 C 480.839844 160.371094 480.578125 160.359375 480.339844 160.28125 C 479.609375 160.089844 479.050781 159.558594 478.578125 158.808594 L 478.480469 158.71875 L 478.480469 152.808594 L 478.609375 152.671875 C 479.191406 151.871094 480.078125 151.28125 481.199219 151.28125 C 481.46875 151.28125 481.75 151.328125 481.941406 151.359375 Z M 481.941406 151.359375 "/>
<path style=" stroke:none;fill-rule:nonzero;fill:rgb(0%,0%,0%);fill-opacity:1;" d="M 494.480469 168 L 494.828125 168 L 494.828125 167.03125 L 493.628906 167.03125 C 493.078125 167.03125 492.800781 167.050781 492.589844 166.828125 L 492.578125 161.441406 L 492.578125 156.050781 C 492.421875 155.921875 492.359375 155.871094 492.128906 155.871094 C 491.96875 155.871094 491.839844 155.910156 491.808594 155.949219 C 491.71875 156.050781 491.410156 156.28125 491.25 156.371094 C 490.578125 156.78125 489.839844 156.980469 488.839844 157.019531 L 488.328125 157.019531 L 488.328125 157.980469 L 488.839844 157.980469 C 489.519531 157.96875 490.171875 157.839844 490.941406 157.558594 C 490.859375 157.589844 490.808594 157.589844 490.671875 157.589844 L 490.671875 166.808594 C 490.589844 166.890625 490.628906 166.949219 490.410156 166.96875 C 490.199219 167.019531 489.578125 167.03125 489.050781 167.03125 L 488.421875 167.03125 L 488.421875 168 L 488.800781 168 C 489.109375 167.949219 491.050781 167.949219 491.628906 167.949219 C 492.199219 167.949219 494.191406 167.949219 494.480469 168 Z M 494.480469 168 "/>
<path style=" stroke:none;fill-rule:nonzero;fill:rgb(0%,0%,0%);fill-opacity:1;" d="M 497.660156 162.578125 C 497.019531 162.578125 496.308594 163.019531 496.308594 163.78125 C 496.308594 165.03125 497.421875 165.890625 498.71875 165.890625 C 498.910156 165.890625 499.089844 165.890625 499.21875 165.871094 C 500.078125 165.691406 500.921875 165.109375 501.550781 164.140625 C 502.359375 162.921875 506.058594 152.890625 506.21875 152.71875 C 506.53125 152.140625 507.050781 151.828125 507.921875 151.769531 L 508.308594 151.769531 L 508.308594 150.660156 L 508.078125 150.660156 C 507.769531 150.691406 506.941406 150.699219 506.128906 150.699219 C 505.628906 150.699219 504.300781 150.699219 504.089844 150.660156 L 503.800781 150.660156 L 503.800781 151.769531 L 504.019531 151.769531 C 504.550781 151.769531 504.878906 152.050781 504.878906 152.589844 L 504.878906 152.808594 L 503.828125 155.550781 C 503.21875 157.050781 502.71875 158.28125 502.71875 158.308594 L 502.949219 158.308594 C 502.949219 158.308594 500.558594 152.910156 500.558594 152.171875 C 500.558594 151.828125 501.140625 151.769531 501.558594 151.769531 L 501.910156 151.769531 L 501.910156 150.660156 L 501.589844 150.660156 C 501.328125 150.699219 499.449219 150.730469 498.921875 150.730469 C 498.421875 150.730469 496.890625 150.730469 496.628906 150.660156 L 496.308594 150.660156 L 496.308594 151.769531 L 497.03125 151.769531 C 497.609375 151.769531 497.980469 151.78125 498.160156 152.121094 C 498.199219 152.171875 498.96875 154.199219 499.941406 156.609375 L 501.660156 161 L 501.25 162.03125 C 500.75 163.371094 500.421875 164.480469 499.359375 164.890625 C 499.140625 164.980469 498.878906 165.03125 498.660156 165.03125 C 498.5 165.03125 498.410156 165.019531 498.28125 164.941406 C 498.191406 164.890625 498.191406 164.890625 498.46875 164.75 C 498.550781 164.71875 498.949219 164.230469 498.949219 163.78125 C 498.949219 163.109375 498.328125 162.578125 497.660156 162.578125 Z M 497.660156 162.578125 "/>
<path style=" stroke:none;fill-rule:nonzero;fill:rgb(0%,0%,0%);fill-opacity:1;" d="M 510.199219 152.671875 C 510.199219 152.949219 510.480469 153.078125 510.730469 153.160156 L 518.359375 153.160156 L 526.089844 153.121094 C 526.25 153.03125 526.449219 152.941406 526.449219 152.671875 C 526.449219 152.410156 526.25 152.28125 526.058594 152.191406 L 510.558594 152.191406 C 510.378906 152.28125 510.199219 152.410156 510.199219 152.671875 Z M 510.199219 157.328125 C 510.199219 157.589844 510.378906 157.71875 510.558594 157.808594 L 526.058594 157.808594 C 526.25 157.71875 526.449219 157.589844 526.449219 157.328125 C 526.449219 157.050781 526.230469 156.96875 526.089844 156.839844 L 510.730469 156.839844 C 510.480469 156.921875 510.199219 157.050781 510.199219 157.328125 Z M 510.199219 157.328125 "/>
<path style=" stroke:none;fill-rule:nonzero;fill:rgb(0%,0%,0%);fill-opacity:1;" d="M 536.410156 153.691406 C 537.128906 153.691406 537.808594 153.171875 537.808594 152.441406 C 537.808594 152.230469 537.800781 152.03125 537.75 151.871094 C 537.339844 150.621094 535.730469 150.25 534 150.25 C 532.691406 150.25 531.550781 150.699219 530.691406 151.410156 C 529.609375 152.308594 528.890625 153.578125 528.699219 155.078125 C 528.671875 155.230469 528.671875 155.550781 528.671875 155.859375 C 528.671875 156.171875 528.671875 156.480469 528.699219 156.621094 C 529.019531 158.480469 530.050781 159.921875 531.578125 160.71875 C 532.308594 161.089844 533.109375 161.269531 533.96875 161.269531 C 535.421875 161.269531 536.691406 160.640625 537.449219 159.53125 C 537.699219 159.160156 538.078125 158.339844 538.078125 158.121094 C 538.078125 158.050781 537.949219 157.949219 537.910156 157.910156 L 537.480469 157.910156 C 537.078125 157.910156 536.910156 157.921875 536.828125 158.191406 C 536.589844 159.03125 536.089844 159.75 535.46875 160.058594 C 535.160156 160.230469 534.910156 160.300781 534.53125 160.300781 C 533.328125 160.300781 532.519531 159.621094 531.980469 158.839844 C 531.480469 158.078125 531.269531 157.089844 531.269531 155.75 C 531.269531 153.921875 531.53125 152.808594 532.378906 151.96875 C 532.878906 151.421875 533.199219 151.199219 534.191406 151.199219 C 534.589844 151.199219 535.058594 151.25 535.378906 151.300781 C 535.660156 151.359375 535.519531 151.328125 535.378906 151.5 C 535.128906 151.730469 534.980469 152.078125 534.980469 152.410156 C 534.980469 153.078125 535.628906 153.691406 536.410156 153.691406 Z M 536.410156 153.691406 "/>
<path style=" stroke:none;fill-rule:nonzero;fill:rgb(0%,0%,0%);fill-opacity:1;" d="M 546.480469 168 L 546.828125 168 L 546.828125 167.03125 L 545.628906 167.03125 C 545.078125 167.03125 544.800781 167.050781 544.589844 166.828125 L 544.578125 161.441406 L 544.578125 156.050781 C 544.421875 155.921875 544.359375 155.871094 544.128906 155.871094 C 543.96875 155.871094 543.839844 155.910156 543.808594 155.949219 C 543.71875 156.050781 543.410156 156.28125 543.25 156.371094 C 542.578125 156.78125 541.839844 156.980469 540.839844 157.019531 L 540.328125 157.019531 L 540.328125 157.980469 L 540.839844 157.980469 C 541.519531 157.96875 542.171875 157.839844 542.941406 157.558594 C 542.859375 157.589844 542.808594 157.589844 542.671875 157.589844 L 542.671875 166.808594 C 542.589844 166.890625 542.628906 166.949219 542.410156 166.96875 C 542.199219 167.019531 541.578125 167.03125 541.050781 167.03125 L 540.421875 167.03125 L 540.421875 168 L 540.800781 168 C 541.109375 167.949219 543.050781 167.949219 543.628906 167.949219 C 544.199219 167.949219 546.191406 167.949219 546.480469 168 Z M 546.480469 168 "/>
</g>
</svg>
