<?xml version="1.0" encoding="UTF-8"?>
<svg xmlns="http://www.w3.org/2000/svg" xmlns:xlink="http://www.w3.org/1999/xlink" width="1366pt" height="565pt" viewBox="0 0 1366 565" version="1.1">
<g id="surface1">
<path style="fill:none;stroke-width:1;stroke-linecap:square;stroke-linejoin:miter;stroke:rgb(89.411926%,89.411926%,89.411926%);stroke-opacity:1;stroke-miterlimit:10;" d="M 25 565 L 25 0 " transform="matrix(1,0,0,-1,0,565)"/>
<path style="fill:none;stroke-width:1;stroke-linecap:square;stroke-linejoin:miter;stroke:rgb(89.411926%,89.411926%,89.411926%);stroke-opacity:1;stroke-miterlimit:10;" d="M 65 565 L 65 0 " transform="matrix(1,0,0,-1,0,565)"/>
<path style="fill:none;stroke-width:1;stroke-linecap:square;stroke-linejoin:miter;stroke:rgb(89.411926%,89.411926%,89.411926%);stroke-opacity:1;stroke-miterlimit:10;" d="M 104 565 L 104 0 " transform="matrix(1,0,0,-1,0,565)"/>
<path style="fill:none;stroke-width:1;stroke-linecap:square;stroke-linejoin:miter;stroke:rgb(89.411926%,89.411926%,89.411926%);stroke-opacity:1;stroke-miterlimit:10;" d="M 144 565 L 144 0 " transform="matrix(1,0,0,-1,0,565)"/>
<path style="fill:none;stroke-width:1;stroke-linecap:square;stroke-linejoin:miter;stroke:rgb(89.411926%,89.411926%,89.411926%);stroke-opacity:1;stroke-miterlimit:10;" d="M 184 565 L 184 0 " transform="matrix(1,0,0,-1,0,565)"/>
<path style="fill:none;stroke-width:1;stroke-linecap:square;stroke-linejoin:miter;stroke:rgb(89.411926%,89.411926%,89.411926%);stroke-opacity:1;stroke-miterlimit:10;" d="M 224 565 L 224 0 " transform="matrix(1,0,0,-1,0,565)"/>
<path style="fill:none;stroke-width:1;stroke-linecap:square;stroke-linejoin:miter;stroke:rgb(89.411926%,89.411926%,89.411926%);stroke-opacity:1;stroke-miterlimit:10;" d="M 263 565 L 263 0 " transform="matrix(1,0,0,-1,0,565)"/>
<path style="fill:none;stroke-width:1;stroke-linecap:square;stroke-linejoin:miter;stroke:rgb(89.411926%,89.411926%,89.411926%);stroke-opacity:1;stroke-miterlimit:10;" d="M 303 565 L 303 0 " transform="matrix(1,0,0,-1,0,565)"/>
<path style="fill:none;stroke-width:1;stroke-linecap:square;stroke-linejoin:miter;stroke:rgb(89.411926%,89.411926%,89.411926%);stroke-opacity:1;stroke-miterlimit:10;" d="M 343 565 L 343 0 " transform="matrix(1,0,0,-1,0,565)"/>
<path style="fill:none;stroke-width:1;stroke-linecap:square;stroke-linejoin:miter;stroke:rgb(89.411926%,89.411926%,89.411926%);stroke-opacity:1;stroke-miterlimit:10;" d="M 383 565 L 383 0 " transform="matrix(1,0,0,-1,0,565)"/>
<path style="fill:none;stroke-width:1;stroke-linecap:square;stroke-linejoin:miter;stroke:rgb(89.411926%,89.411926%,89.411926%);stroke-opacity:1;stroke-miterlimit:10;" d="M 422 565 L 422 0 " transform="matrix(1,0,0,-1,0,565)"/>
<path style="fill:none;stroke-width:1;stroke-linecap:square;stroke-linejoin:miter;stroke:rgb(89.411926%,89.411926%,89.411926%);stroke-opacity:1;stroke-miterlimit:10;" d="M 462 565 L 462 0 " transform="matrix(1,0,0,-1,0,565)"/>
<path style="fill:none;stroke-width:1;stroke-linecap:square;stroke-linejoin:miter;stroke:rgb(89.411926%,89.411926%,89.411926%);stroke-opacity:1;stroke-miterlimit:10;" d="M 502 565 L 502 0 " transform="matrix(1,0,0,-1,0,565)"/>
<path style="fill:none;stroke-width:1;stroke-linecap:square;stroke-linejoin:miter;stroke:rgb(89.411926%,89.411926%,89.411926%);stroke-opacity:1;stroke-miterlimit:10;" d="M 541 565 L 541 0 " transform="matrix(1,0,0,-1,0,565)"/>
<path style="fill:none;stroke-width:1;stroke-linecap:square;stroke-linejoin:miter;stroke:rgb(89.411926%,89.411926%,89.411926%);stroke-opacity:1;stroke-miterlimit:10;" d="M 581 565 L 581 0 " transform="matrix(1,0,0,-1,0,565)"/>
<path style="fill:none;stroke-width:1;stroke-linecap:square;stroke-linejoin:miter;stroke:rgb(89.411926%,89.411926%,89.411926%);stroke-opacity:1;stroke-miterlimit:10;" d="M 621 565 L 621 0 " transform="matrix(1,0,0,-1,0,565)"/>
<path style="fill:none;stroke-width:1;stroke-linecap:square;stroke-linejoin:miter;stroke:rgb(89.411926%,89.411926%,89.411926%);stroke-opacity:1;stroke-miterlimit:10;" d="M 661 565 L 661 0 " transform="matrix(1,0,0,-1,0,565)"/>
<path style="fill:none;stroke-width:1;stroke-linecap:square;stroke-linejoin:miter;stroke:rgb(89.411926%,89.411926%,89.411926%);stroke-opacity:1;stroke-miterlimit:10;" d="M 700 565 L 700 0 " transform="matrix(1,0,0,-1,0,565)"/>
<path style="fill:none;stroke-width:1;stroke-linecap:square;stroke-linejoin:miter;stroke:rgb(89.411926%,89.411926%,89.411926%);stroke-opacity:1;stroke-miterlimit:10;" d="M 740 565 L 740 0 " transform="matrix(1,0,0,-1,0,565)"/>
<path style="fill:none;stroke-width:1;stroke-linecap:square;stroke-linejoin:miter;stroke:rgb(89.411926%,89.411926%,89.411926%);stroke-opacity:1;stroke-miterlimit:10;" d="M 780 565 L 780 0 " transform="matrix(1,0,0,-1,0,565)"/>
<path style="fill:none;stroke-width:1;stroke-linecap:square;stroke-linejoin:miter;stroke:rgb(89.411926%,89.411926%,89.411926%);stroke-opacity:1;stroke-miterlimit:10;" d="M 820 565 L 820 0 " transform="matrix(1,0,0,-1,0,565)"/>
<path style="fill:none;stroke-width:1;stroke-linecap:square;stroke-linejoin:miter;stroke:rgb(89.411926%,89.411926%,89.411926%);stroke-opacity:1;stroke-miterlimit:10;" d="M 859 565 L 859 0 " transform="matrix(1,0,0,-1,0,565)"/>
<path style="fill:none;stroke-width:1;stroke-linecap:square;stroke-linejoin:miter;stroke:rgb(89.411926%,89.411926%,89.411926%);stroke-opacity:1;stroke-miterlimit:10;" d="M 899 565 L 899 0 " transform="matrix(1,0,0,-1,0,565)"/>
<path style="fill:none;stroke-width:1;stroke-linecap:square;stroke-linejoin:miter;stroke:rgb(89.411926%,89.411926%,89.411926%);stroke-opacity:1;stroke-miterlimit:10;" d="M 939 565 L 939 0 " transform="matrix(1,0,0,-1,0,565)"/>
<path style="fill:none;stroke-width:1;stroke-linecap:square;stroke-linejoin:miter;stroke:rgb(89.411926%,89.411926%,89.411926%);stroke-opacity:1;stroke-miterlimit:10;" d="M 978 565 L 978 0 " transform="matrix(1,0,0,-1,0,565)"/>
<path style="fill:none;stroke-width:1;stroke-linecap:square;stroke-linejoin:miter;stroke:rgb(89.411926%,89.411926%,89.411926%);stroke-opacity:1;stroke-miterlimit:10;" d="M 1018 565 L 1018 0 " transform="matrix(1,0,0,-1,0,565)"/>
<path style="fill:none;stroke-width:1;stroke-linecap:square;stroke-linejoin:miter;stroke:rgb(89.411926%,89.411926%,89.411926%);stroke-opacity:1;stroke-miterlimit:10;" d="M 1058 565 L 1058 0 " transform="matrix(1,0,0,-1,0,565)"/>
<path style="fill:none;stroke-width:1;stroke-linecap:square;stroke-linejoin:miter;stroke:rgb(89.411926%,89.411926%,89.411926%);stroke-opacity:1;stroke-miterlimit:10;" d="M 1098 565 L 1098 0 " transform="matrix(1,0,0,-1,0,565)"/>
<path style="fill:none;stroke-width:1;stroke-linecap:square;stroke-linejoin:miter;stroke:rgb(89.411926%,89.411926%,89.411926%);stroke-opacity:1;stroke-miterlimit:10;" d="M 1137 565 L 1137 0 " transform="matrix(1,0,0,-1,0,565)"/>
<path style="fill:none;stroke-width:1;stroke-linecap:square;stroke-linejoin:miter;stroke:rgb(89.411926%,89.411926%,89.411926%);stroke-opacity:1;stroke-miterlimit:10;" d="M 1177 565 L 1177 0 " transform="matrix(1,0,0,-1,0,565)"/>
<path style="fill:none;stroke-width:1;stroke-linecap:square;stroke-linejoin:miter;stroke:rgb(89.411926%,89.411926%,89.411926%);stroke-opacity:1;stroke-miterlimit:10;" d="M 1217 565 L 1217 0 " transform="matrix(1,0,0,-1,0,565)"/>
<path style="fill:none;stroke-width:1;stroke-linecap:square;stroke-linejoin:miter;stroke:rgb(89.411926%,89.411926%,89.411926%);stroke-opacity:1;stroke-miterlimit:10;" d="M 1257 565 L 1257 0 " transform="matrix(1,0,0,-1,0,565)"/>
<path style="fill:none;stroke-width:1;stroke-linecap:square;stroke-linejoin:miter;stroke:rgb(89.411926%,89.411926%,89.411926%);stroke-opacity:1;stroke-miterlimit:10;" d="M 1296 565 L 1296 0 " transform="matrix(1,0,0,-1,0,565)"/>
<path style="fill:none;stroke-width:1;stroke-linecap:square;stroke-linejoin:miter;stroke:rgb(89.411926%,89.411926%,89.411926%);stroke-opacity:1;stroke-miterlimit:10;" d="M 1336 565 L 1336 0 " transform="matrix(1,0,0,-1,0,565)"/>
<path style="fill:none;stroke-width:1;stroke-linecap:square;stroke-linejoin:miter;stroke:rgb(89.411926%,89.411926%,89.411926%);stroke-opacity:1;stroke-miterlimit:10;" d="M 0 547 L 1366 547 " transform="matrix(1,0,0,-1,0,565)"/>
<path style="fill:none;stroke-width:1;stroke-linecap:square;stroke-linejoin:miter;stroke:rgb(89.411926%,89.411926%,89.411926%);stroke-opacity:1;stroke-miterlimit:10;" d="M 0 507 L 1366 507 " transform="matrix(1,0,0,-1,0,565)"/>
<path style="fill:none;stroke-width:1;stroke-linecap:square;stroke-linejoin:miter;stroke:rgb(89.411926%,89.411926%,89.411926%);stroke-opacity:1;stroke-miterlimit:10;" d="M 0 468 L 1366 468 " transform="matrix(1,0,0,-1,0,565)"/>
<path style="fill:none;stroke-width:1;stroke-linecap:square;stroke-linejoin:miter;stroke:rgb(89.411926%,89.411926%,89.411926%);stroke-opacity:1;stroke-miterlimit:10;" d="M 0 428 L 1366 428 " transform="matrix(1,0,0,-1,0,565)"/>
<path style="fill:none;stroke-width:1;stroke-linecap:square;stroke-linejoin:miter;stroke:rgb(89.411926%,89.411926%,89.411926%);stroke-opacity:1;stroke-miterlimit:10;" d="M 0 388 L 1366 388 " transform="matrix(1,0,0,-1,0,565)"/>
<path style="fill:none;stroke-width:1;stroke-linecap:square;stroke-linejoin:miter;stroke:rgb(89.411926%,89.411926%,89.411926%);stroke-opacity:1;stroke-miterlimit:10;" d="M 0 348 L 1366 348 " transform="matrix(1,0,0,-1,0,565)"/>
<path style="fill:none;stroke-width:1;stroke-linecap:square;stroke-linejoin:miter;stroke:rgb(89.411926%,89.411926%,89.411926%);stroke-opacity:1;stroke-miterlimit:10;" d="M 0 309 L 1366 309 " transform="matrix(1,0,0,-1,0,565)"/>
<path style="fill:none;stroke-width:1;stroke-linecap:square;stroke-linejoin:miter;stroke:rgb(89.411926%,89.411926%,89.411926%);stroke-opacity:1;stroke-miterlimit:10;" d="M 0 269 L 1366 269 " transform="matrix(1,0,0,-1,0,565)"/>
<path style="fill:none;stroke-width:1;stroke-linecap:square;stroke-linejoin:miter;stroke:rgb(89.411926%,89.411926%,89.411926%);stroke-opacity:1;stroke-miterlimit:10;" d="M 0 229 L 1366 229 " transform="matrix(1,0,0,-1,0,565)"/>
<path style="fill:none;stroke-width:1;stroke-linecap:square;stroke-linejoin:miter;stroke:rgb(89.411926%,89.411926%,89.411926%);stroke-opacity:1;stroke-miterlimit:10;" d="M 0 189 L 1366 189 " transform="matrix(1,0,0,-1,0,565)"/>
<path style="fill:none;stroke-width:1;stroke-linecap:square;stroke-linejoin:miter;stroke:rgb(89.411926%,89.411926%,89.411926%);stroke-opacity:1;stroke-miterlimit:10;" d="M 0 150 L 1366 150 " transform="matrix(1,0,0,-1,0,565)"/>
<path style="fill:none;stroke-width:1;stroke-linecap:square;stroke-linejoin:miter;stroke:rgb(89.411926%,89.411926%,89.411926%);stroke-opacity:1;stroke-miterlimit:10;" d="M 0 110 L 1366 110 " transform="matrix(1,0,0,-1,0,565)"/>
<path style="fill:none;stroke-width:1;stroke-linecap:square;stroke-linejoin:miter;stroke:rgb(89.411926%,89.411926%,89.411926%);stroke-opacity:1;stroke-miterlimit:10;" d="M 0 70 L 1366 70 " transform="matrix(1,0,0,-1,0,565)"/>
<path style="fill:none;stroke-width:1;stroke-linecap:square;stroke-linejoin:miter;stroke:rgb(89.411926%,89.411926%,89.411926%);stroke-opacity:1;stroke-miterlimit:10;" d="M 0 31 L 1366 31 " transform="matrix(1,0,0,-1,0,565)"/>
<path style="fill:none;stroke-width:1;stroke-linecap:square;stroke-linejoin:miter;stroke:rgb(79.606628%,79.606628%,79.606628%);stroke-opacity:1;stroke-miterlimit:10;" d="M 661 564 L 661 0 " transform="matrix(1,0,0,-1,0,565)"/>
<path style="fill:none;stroke-width:1;stroke-linecap:square;stroke-linejoin:miter;stroke:rgb(79.606628%,79.606628%,79.606628%);stroke-opacity:1;stroke-miterlimit:10;" d="M 660 564 L 660 0 " transform="matrix(1,0,0,-1,0,565)"/>
<path style="fill:none;stroke-width:1;stroke-linecap:square;stroke-linejoin:miter;stroke:rgb(79.606628%,79.606628%,79.606628%);stroke-opacity:1;stroke-miterlimit:10;" d="M 662 564 L 662 0 " transform="matrix(1,0,0,-1,0,565)"/>
<path style="fill:none;stroke-width:1;stroke-linecap:square;stroke-linejoin:miter;stroke:rgb(79.606628%,79.606628%,79.606628%);stroke-opacity:1;stroke-miterlimit:10;" d="M 656 560 L 661 565 " transform="matrix(1,0,0,-1,0,565)"/>
<path style="fill:none;stroke-width:1;stroke-linecap:square;stroke-linejoin:miter;stroke:rgb(79.606628%,79.606628%,79.606628%);stroke-opacity:1;stroke-miterlimit:10;" d="M 666 560 L 661 565 " transform="matrix(1,0,0,-1,0,565)"/>
<path style="fill:none;stroke-width:1;stroke-linecap:square;stroke-linejoin:miter;stroke:rgb(79.606628%,79.606628%,79.606628%);stroke-opacity:1;stroke-miterlimit:10;" d="M 656 559 L 661 564 " transform="matrix(1,0,0,-1,0,565)"/>
<path style="fill:none;stroke-width:1;stroke-linecap:square;stroke-linejoin:miter;stroke:rgb(79.606628%,79.606628%,79.606628%);stroke-opacity:1;stroke-miterlimit:10;" d="M 666 559 L 661 564 " transform="matrix(1,0,0,-1,0,565)"/>
<path style="fill:none;stroke-width:1;stroke-linecap:square;stroke-linejoin:miter;stroke:rgb(79.606628%,79.606628%,79.606628%);stroke-opacity:1;stroke-miterlimit:10;" d="M 0 110 L 1365 110 " transform="matrix(1,0,0,-1,0,565)"/>
<path style="fill:none;stroke-width:1;stroke-linecap:square;stroke-linejoin:miter;stroke:rgb(79.606628%,79.606628%,79.606628%);stroke-opacity:1;stroke-miterlimit:10;" d="M 0 111 L 1365 111 " transform="matrix(1,0,0,-1,0,565)"/>
<path style="fill:none;stroke-width:1;stroke-linecap:square;stroke-linejoin:miter;stroke:rgb(79.606628%,79.606628%,79.606628%);stroke-opacity:1;stroke-miterlimit:10;" d="M 0 109 L 1365 109 " transform="matrix(1,0,0,-1,0,565)"/>
<path style="fill:none;stroke-width:1;stroke-linecap:square;stroke-linejoin:miter;stroke:rgb(79.606628%,79.606628%,79.606628%);stroke-opacity:1;stroke-miterlimit:10;" d="M 1361 115 L 1366 110 " transform="matrix(1,0,0,-1,0,565)"/>
<path style="fill:none;stroke-width:1;stroke-linecap:square;stroke-linejoin:miter;stroke:rgb(79.606628%,79.606628%,79.606628%);stroke-opacity:1;stroke-miterlimit:10;" d="M 1361 105 L 1366 110 " transform="matrix(1,0,0,-1,0,565)"/>
<path style="fill:none;stroke-width:1;stroke-linecap:square;stroke-linejoin:miter;stroke:rgb(79.606628%,79.606628%,79.606628%);stroke-opacity:1;stroke-miterlimit:10;" d="M 1360 115 L 1365 110 " transform="matrix(1,0,0,-1,0,565)"/>
<path style="fill:none;stroke-width:1;stroke-linecap:square;stroke-linejoin:miter;stroke:rgb(79.606628%,79.606628%,79.606628%);stroke-opacity:1;stroke-miterlimit:10;" d="M 1360 105 L 1365 110 " transform="matrix(1,0,0,-1,0,565)"/>
<path style="fill:none;stroke-width:1;stroke-linecap:square;stroke-linejoin:miter;stroke:rgb(59.606934%,59.606934%,59.606934%);stroke-opacity:1;stroke-miterlimit:10;" d="M 1296 31 L 1335 31 " transform="matrix(1,0,0,-1,0,565)"/>
<path style="fill:none;stroke-width:1;stroke-linecap:square;stroke-linejoin:miter;stroke:rgb(59.606934%,59.606934%,59.606934%);stroke-opacity:1;stroke-miterlimit:10;" d="M 1296 30 L 1335 30 " transform="matrix(1,0,0,-1,0,565)"/>
<path style="fill:none;stroke-width:1;stroke-linecap:square;stroke-linejoin:miter;stroke:rgb(59.606934%,59.606934%,59.606934%);stroke-opacity:1;stroke-miterlimit:10;" d="M 1296 32 L 1335 32 " transform="matrix(1,0,0,-1,0,565)"/>
<path style="fill:none;stroke-width:1;stroke-linecap:square;stroke-linejoin:miter;stroke:rgb(59.606934%,59.606934%,59.606934%);stroke-opacity:1;stroke-miterlimit:10;" d="M 1296 34 L 1296 28 " transform="matrix(1,0,0,-1,0,565)"/>
<path style="fill:none;stroke-width:1;stroke-linecap:square;stroke-linejoin:miter;stroke:rgb(59.606934%,59.606934%,59.606934%);stroke-opacity:1;stroke-miterlimit:10;" d="M 1335 34 L 1335 28 " transform="matrix(1,0,0,-1,0,565)"/>
<path style=" stroke:none;fill-rule:nonzero;fill:rgb(59.606934%,59.606934%,59.606934%);fill-opacity:1;" d="M 1316.480469 530 L 1318.421875 530 L 1318.421875 523.328125 L 1316.308594 523.75 L 1316.308594 522.671875 L 1318.410156 522.25 L 1319.589844 522.25 L 1319.589844 530 L 1321.53125 530 L 1321.53125 531 L 1316.480469 531 Z M 1323.921875 529.519531 L 1325.148438 529.519531 L 1325.148438 531 L 1323.921875 531 Z M 1330.261719 523.03125 C 1330.261719 523.03125 1329.359375 523.03125 1328.890625 523.941406 C 1328.890625 523.941406 1328.429688 524.828125 1328.429688 526.640625 C 1328.429688 526.640625 1328.429688 528.441406 1328.890625 529.339844 C 1328.890625 529.339844 1329.359375 530.230469 1330.261719 530.230469 C 1330.261719 530.230469 1331.179688 530.230469 1331.640625 529.339844 C 1331.640625 529.339844 1332.109375 528.441406 1332.109375 526.640625 C 1332.109375 526.640625 1332.109375 524.828125 1331.640625 523.941406 C 1331.640625 523.941406 1331.179688 523.03125 1330.261719 523.03125 Z M 1330.261719 522.089844 C 1330.261719 522.089844 1331.730469 522.089844 1332.511719 523.269531 C 1332.511719 523.269531 1333.289062 524.421875 1333.289062 526.640625 C 1333.289062 526.640625 1333.289062 528.839844 1332.511719 530.019531 C 1332.511719 530.019531 1331.730469 531.171875 1330.261719 531.171875 C 1330.261719 531.171875 1328.789062 531.171875 1328.011719 530.019531 C 1328.011719 530.019531 1327.25 528.839844 1327.25 526.640625 C 1327.25 526.640625 1327.25 524.421875 1328.011719 523.269531 C 1328.011719 523.269531 1328.789062 522.089844 1330.261719 522.089844 Z M 1330.261719 522.089844 "/>
<path style="fill:none;stroke-width:3;stroke-linecap:round;stroke-linejoin:round;stroke:rgb(0%,0%,100%);stroke-opacity:1;stroke-miterlimit:10;" d="M 852.050781 565.5 L 614.390625 -1.5 " transform="matrix(1,0,0,-1,0,565)"/>
<path style="fill:none;stroke-width:3;stroke-linecap:round;stroke-linejoin:round;stroke:rgb(0%,0%,100%);stroke-opacity:1;stroke-miterlimit:10;" d="M -0.5 628.140625 L 1367.5 -224.171875 " transform="matrix(1,0,0,-1,0,565)"/>
<path style="fill-rule:nonzero;fill:rgb(100%,0%,0%);fill-opacity:1;stroke-width:1;stroke-linecap:square;stroke-linejoin:miter;stroke:rgb(0%,0%,0%);stroke-opacity:1;stroke-miterlimit:10;" d="M 665.5 108.5 C 665.5 105.738281 663.261719 103.5 660.5 103.5 C 657.738281 103.5 655.5 105.738281 655.5 108.5 C 655.5 111.261719 657.738281 113.5 660.5 113.5 C 663.261719 113.5 665.5 111.261719 665.5 108.5 Z M 665.5 108.5 " transform="matrix(1,0,0,-1,0,565)"/>
<path style="fill-rule:nonzero;fill:rgb(100%,0%,0%);fill-opacity:1;stroke-width:1;stroke-linecap:square;stroke-linejoin:miter;stroke:rgb(0%,0%,0%);stroke-opacity:1;stroke-miterlimit:10;" d="M 701.328125 193.988281 C 701.328125 191.230469 699.089844 188.988281 696.328125 188.988281 C 693.570312 188.988281 691.328125 191.230469 691.328125 193.988281 C 691.328125 196.75 693.570312 198.988281 696.328125 198.988281 C 699.089844 198.988281 701.328125 196.75 701.328125 193.988281 Z M 701.328125 193.988281 " transform="matrix(1,0,0,-1,0,565)"/>
<path style="fill:none;stroke-width:1;stroke-linecap:square;stroke-linejoin:miter;stroke:rgb(100%,100%,100%);stroke-opacity:1;stroke-miterlimit:10;" d="M 401 424 L 565 424 L 565 381 L 401 381 Z M 401 424 " transform="matrix(1,0,0,-1,0,565)"/>
<path style=" stroke:none;fill-rule:nonzero;fill:rgb(0%,0%,0%);fill-opacity:1;" d="M 406.78125 158.691406 C 407.550781 158.691406 408.199219 158.078125 408.199219 157.390625 C 408.199219 157 407.941406 156.519531 407.671875 156.371094 C 407.671875 156.199219 408.878906 156.140625 409.160156 156.140625 C 410.359375 156.140625 411.03125 156.808594 411.339844 157.839844 C 411.46875 158.160156 411.480469 158.441406 411.480469 159.050781 L 411.480469 159.558594 L 411.300781 159.558594 C 409.558594 159.660156 408.269531 159.921875 407.128906 160.449219 C 406.519531 160.71875 406.050781 160.949219 405.628906 161.371094 C 405.128906 161.871094 404.671875 162.550781 404.671875 163.441406 C 404.671875 163.75 404.75 164.058594 404.859375 164.339844 C 405.308594 165.519531 406.921875 166.269531 408.558594 166.269531 C 409.589844 166.269531 410.628906 165.921875 411.390625 165.28125 C 411.578125 165.109375 411.828125 164.78125 411.75 164.839844 L 411.75 164.699219 C 411.96875 165.46875 412.769531 166.140625 413.589844 166.140625 C 414.691406 166.140625 415.609375 165.449219 415.878906 164.578125 C 415.921875 164.421875 415.921875 164.371094 415.949219 163.449219 L 415.949219 162.519531 L 414.730469 162.519531 L 414.730469 163.390625 C 414.730469 164.308594 414.730469 164.46875 414.609375 164.699219 L 414.578125 164.699219 C 414.480469 164.921875 414.46875 165.050781 414.269531 165.050781 C 414.078125 165.050781 414.019531 164.921875 413.910156 164.699219 L 413.890625 164.699219 C 413.75 164.421875 413.769531 164.480469 413.769531 161.339844 C 413.769531 158.21875 413.769531 158.269531 413.628906 157.839844 C 413.140625 156.300781 411.378906 155.25 409.230469 155.25 C 407.449219 155.25 405.96875 155.75 405.558594 156.609375 C 405.441406 156.871094 405.378906 157.140625 405.378906 157.390625 C 405.378906 158.078125 406.019531 158.691406 406.78125 158.691406 Z M 411.480469 161.800781 C 411.46875 163.140625 411.46875 163.21875 411.421875 163.390625 C 411.160156 164.441406 410.339844 165.371094 409.019531 165.371094 C 407.890625 165.371094 407.140625 164.53125 407.140625 163.449219 C 407.140625 163.078125 407.21875 162.691406 407.390625 162.371094 C 407.980469 161.25 409.328125 160.578125 411.578125 160.441406 C 411.628906 160.410156 411.699219 160.410156 411.699219 160.410156 L 411.609375 160.410156 C 411.628906 160.410156 411.480469 161.03125 411.480469 161.800781 Z M 411.480469 161.800781 "/>
<path style=" stroke:none;fill-rule:nonzero;fill:rgb(0%,0%,0%);fill-opacity:1;" d="M 423.480469 173 L 423.828125 173 L 423.828125 172.03125 L 422.628906 172.03125 C 422.078125 172.03125 421.800781 172.050781 421.589844 171.828125 L 421.578125 166.441406 L 421.578125 161.050781 C 421.421875 160.921875 421.359375 160.871094 421.128906 160.871094 C 420.96875 160.871094 420.839844 160.910156 420.808594 160.949219 C 420.71875 161.050781 420.410156 161.28125 420.25 161.371094 C 419.578125 161.78125 418.839844 161.980469 417.839844 162.019531 L 417.328125 162.019531 L 417.328125 162.980469 L 417.839844 162.980469 C 418.519531 162.96875 419.171875 162.839844 419.941406 162.558594 C 419.859375 162.589844 419.808594 162.589844 419.671875 162.589844 L 419.671875 171.808594 C 419.589844 171.890625 419.628906 171.949219 419.410156 171.96875 C 419.199219 172.019531 418.578125 172.03125 418.050781 172.03125 L 417.421875 172.03125 L 417.421875 173 L 417.800781 173 C 418.109375 172.949219 420.050781 172.949219 420.628906 172.949219 C 421.199219 172.949219 423.191406 172.949219 423.480469 173 Z M 423.480469 173 "/>
<path style=" stroke:none;fill-rule:nonzero;fill:rgb(0%,0%,0%);fill-opacity:1;" d="M 429.828125 166 L 430.109375 166 L 430.109375 165.449219 C 430.109375 164.921875 429.980469 164.890625 429.941406 164.890625 C 429.609375 164.890625 429.46875 164.578125 429.46875 164.25 C 429.46875 164.121094 429.46875 164.019531 429.53125 163.890625 C 429.609375 163.769531 431.050781 161.828125 430.949219 161.871094 L 431.859375 163.121094 C 432.519531 164.019531 432.800781 164.46875 432.800781 164.480469 C 432.800781 164.691406 432.519531 164.890625 432.160156 164.890625 L 431.941406 164.890625 L 431.941406 166 L 432.300781 166 C 432.578125 165.949219 434.410156 165.921875 434.941406 165.921875 C 435.421875 165.921875 437 165.921875 437.230469 166 L 437.5 166 L 437.5 164.890625 L 436.96875 164.890625 C 436.109375 164.890625 435.660156 164.890625 435.300781 164.53125 C 435.21875 164.46875 434.5 163.480469 433.691406 162.371094 L 432.199219 160.339844 L 432.578125 159.828125 C 432.78125 159.558594 433.199219 159.019531 433.5 158.609375 C 434.230469 157.640625 434.359375 157.410156 434.859375 157.171875 L 434.949219 157.171875 C 435.421875 156.921875 436.160156 156.769531 436.808594 156.769531 L 437.089844 156.769531 L 437.089844 155.660156 L 436.828125 155.660156 C 436.609375 155.730469 435.21875 155.730469 434.800781 155.730469 C 434.339844 155.730469 432.628906 155.699219 432.421875 155.660156 L 432.109375 155.660156 L 432.109375 156.769531 L 432.25 156.769531 C 432.300781 156.78125 432.421875 156.808594 432.480469 156.859375 C 432.691406 156.96875 432.75 157.191406 432.75 157.410156 C 432.75 157.53125 432.75 157.671875 432.609375 157.949219 C 432.628906 157.859375 432.339844 158.269531 432.019531 158.699219 L 431.5 159.421875 C 431.359375 159.25 429.941406 157.230469 429.941406 157.140625 C 429.941406 156.910156 430.300781 156.808594 430.808594 156.769531 L 430.808594 155.660156 L 430.5 155.660156 C 430.359375 155.699219 429.699219 155.699219 429.078125 155.699219 L 428.03125 155.699219 C 427.050781 155.699219 425.980469 155.691406 425.550781 155.660156 L 425.230469 155.660156 L 425.230469 156.769531 L 426.058594 156.769531 C 426.421875 156.78125 426.800781 156.808594 426.921875 156.808594 C 427.191406 156.859375 427.328125 156.96875 427.449219 157.089844 C 427.5 157.140625 428.140625 158.03125 428.910156 159.089844 L 430.300781 160.949219 L 429.199219 162.410156 C 428.589844 163.191406 428.050781 163.910156 427.96875 163.980469 C 427.421875 164.53125 426.699219 164.828125 425.589844 164.890625 L 425.128906 164.890625 L 425.128906 166 L 425.410156 166 C 425.671875 165.921875 426.980469 165.921875 427.449219 165.921875 C 427.910156 165.921875 429.578125 165.949219 429.828125 166 Z M 429.828125 166 "/>
<path style=" stroke:none;fill-rule:nonzero;fill:rgb(0%,0%,0%);fill-opacity:1;" d="M 439.199219 160 C 439.199219 160.269531 439.378906 160.390625 439.558594 160.480469 L 446.71875 160.480469 L 446.71875 167.558594 C 446.828125 167.828125 447.078125 167.96875 447.339844 167.96875 C 447.589844 167.96875 447.808594 167.828125 447.941406 167.558594 L 447.941406 160.480469 L 455.058594 160.480469 C 455.25 160.390625 455.449219 160.269531 455.449219 160 C 455.449219 159.730469 455.25 159.609375 455.058594 159.519531 L 447.941406 159.519531 L 447.941406 152.46875 C 447.808594 152.171875 447.578125 152.019531 447.339844 152.019531 C 447.089844 152.019531 446.859375 152.199219 446.730469 152.390625 L 446.71875 155.921875 L 446.71875 159.519531 L 439.558594 159.519531 C 439.378906 159.609375 439.199219 159.730469 439.199219 160 Z M 439.199219 160 "/>
<path style=" stroke:none;fill-rule:nonzero;fill:rgb(0%,0%,0%);fill-opacity:1;" d="M 459.359375 149.480469 C 458.378906 149.53125 457.550781 149.609375 457.53125 149.609375 C 457.480469 149.609375 457.339844 149.660156 457.339844 150.160156 L 457.339844 150.71875 L 457.910156 150.71875 C 458.96875 150.769531 459.089844 150.910156 459.191406 151.53125 C 459.199219 151.621094 459.199219 154.910156 459.199219 158.839844 L 459.199219 166 L 459.828125 166 L 460.410156 165.96875 L 460.53125 165.769531 C 460.589844 165.640625 460.769531 165.328125 460.890625 165.109375 L 461.058594 164.828125 L 461.078125 164.839844 C 461.78125 165.589844 463.03125 166.269531 464.378906 166.269531 C 467.199219 166.269531 469.21875 164.109375 469.589844 161.660156 C 469.628906 161.46875 469.640625 161.160156 469.640625 160.808594 C 469.640625 157.941406 467.75 155.890625 465.550781 155.46875 C 465.300781 155.421875 465.050781 155.390625 464.75 155.390625 C 463.441406 155.390625 462.089844 155.871094 461.339844 156.5 C 461.269531 156.558594 461.421875 156.609375 461.421875 156.609375 L 461.308594 156.609375 C 461.300781 156.609375 461.421875 154.980469 461.421875 152.96875 L 461.421875 149.339844 L 461.21875 149.339844 C 461.171875 149.339844 460.339844 149.421875 459.359375 149.480469 Z M 464.941406 156.359375 C 465.859375 156.589844 466.441406 157.28125 466.75 158.25 C 466.941406 158.839844 467.03125 159.78125 467.03125 160.910156 C 467.03125 162.050781 466.949219 162.660156 466.75 163.28125 C 466.628906 163.621094 466.578125 163.808594 466.390625 164.078125 C 465.828125 164.890625 465.050781 165.371094 464.078125 165.371094 C 463.839844 165.371094 463.578125 165.359375 463.339844 165.28125 C 462.609375 165.089844 462.050781 164.558594 461.578125 163.808594 L 461.480469 163.71875 L 461.480469 157.808594 L 461.609375 157.671875 C 462.191406 156.871094 463.078125 156.28125 464.199219 156.28125 C 464.46875 156.28125 464.75 156.328125 464.941406 156.359375 Z M 464.941406 156.359375 "/>
<path style=" stroke:none;fill-rule:nonzero;fill:rgb(0%,0%,0%);fill-opacity:1;" d="M 477.480469 173 L 477.828125 173 L 477.828125 172.03125 L 476.628906 172.03125 C 476.078125 172.03125 475.800781 172.050781 475.589844 171.828125 L 475.578125 166.441406 L 475.578125 161.050781 C 475.421875 160.921875 475.359375 160.871094 475.128906 160.871094 C 474.96875 160.871094 474.839844 160.910156 474.808594 160.949219 C 474.71875 161.050781 474.410156 161.28125 474.25 161.371094 C 473.578125 161.78125 472.839844 161.980469 471.839844 162.019531 L 471.328125 162.019531 L 471.328125 162.980469 L 471.839844 162.980469 C 472.519531 162.96875 473.171875 162.839844 473.941406 162.558594 C 473.859375 162.589844 473.808594 162.589844 473.671875 162.589844 L 473.671875 171.808594 C 473.589844 171.890625 473.628906 171.949219 473.410156 171.96875 C 473.199219 172.019531 472.578125 172.03125 472.050781 172.03125 L 471.421875 172.03125 L 471.421875 173 L 471.800781 173 C 472.109375 172.949219 474.050781 172.949219 474.628906 172.949219 C 475.199219 172.949219 477.191406 172.949219 477.480469 173 Z M 477.480469 173 "/>
<path style=" stroke:none;fill-rule:nonzero;fill:rgb(0%,0%,0%);fill-opacity:1;" d="M 480.660156 167.578125 C 480.019531 167.578125 479.308594 168.019531 479.308594 168.78125 C 479.308594 170.03125 480.421875 170.890625 481.71875 170.890625 C 481.910156 170.890625 482.089844 170.890625 482.21875 170.871094 C 483.078125 170.691406 483.921875 170.109375 484.550781 169.140625 C 485.359375 167.921875 489.058594 157.890625 489.21875 157.71875 C 489.53125 157.140625 490.050781 156.828125 490.921875 156.769531 L 491.308594 156.769531 L 491.308594 155.660156 L 491.078125 155.660156 C 490.769531 155.691406 489.941406 155.699219 489.128906 155.699219 C 488.628906 155.699219 487.300781 155.699219 487.089844 155.660156 L 486.800781 155.660156 L 486.800781 156.769531 L 487.019531 156.769531 C 487.550781 156.769531 487.878906 157.050781 487.878906 157.589844 L 487.878906 157.808594 L 486.828125 160.550781 C 486.21875 162.050781 485.71875 163.28125 485.71875 163.308594 L 485.949219 163.308594 C 485.949219 163.308594 483.558594 157.910156 483.558594 157.171875 C 483.558594 156.828125 484.140625 156.769531 484.558594 156.769531 L 484.910156 156.769531 L 484.910156 155.660156 L 484.589844 155.660156 C 484.328125 155.699219 482.449219 155.730469 481.921875 155.730469 C 481.421875 155.730469 479.890625 155.730469 479.628906 155.660156 L 479.308594 155.660156 L 479.308594 156.769531 L 480.03125 156.769531 C 480.609375 156.769531 480.980469 156.78125 481.160156 157.121094 C 481.199219 157.171875 481.96875 159.199219 482.941406 161.609375 L 484.660156 166 L 484.25 167.03125 C 483.75 168.371094 483.421875 169.480469 482.359375 169.890625 C 482.140625 169.980469 481.878906 170.03125 481.660156 170.03125 C 481.5 170.03125 481.410156 170.019531 481.28125 169.941406 C 481.191406 169.890625 481.191406 169.890625 481.46875 169.75 C 481.550781 169.71875 481.949219 169.230469 481.949219 168.78125 C 481.949219 168.109375 481.328125 167.578125 480.660156 167.578125 Z M 480.660156 167.578125 "/>
<path style=" stroke:none;fill-rule:nonzero;fill:rgb(0%,0%,0%);fill-opacity:1;" d="M 493.199219 160 C 493.199219 160.269531 493.378906 160.390625 493.558594 160.480469 L 500.71875 160.480469 L 500.71875 167.558594 C 500.828125 167.828125 501.078125 167.96875 501.339844 167.96875 C 501.589844 167.96875 501.808594 167.828125 501.941406 167.558594 L 501.941406 160.480469 L 509.058594 160.480469 C 509.25 160.390625 509.449219 160.269531 509.449219 160 C 509.449219 159.730469 509.25 159.609375 509.058594 159.519531 L 501.941406 159.519531 L 501.941406 152.46875 C 501.808594 152.171875 501.578125 152.019531 501.339844 152.019531 C 501.089844 152.019531 500.859375 152.199219 500.730469 152.390625 L 500.71875 155.921875 L 500.71875 159.519531 L 493.558594 159.519531 C 493.378906 159.609375 493.199219 159.730469 493.199219 160 Z M 493.199219 160 "/>
<path style=" stroke:none;fill-rule:nonzero;fill:rgb(0%,0%,0%);fill-opacity:1;" d="M 519.410156 158.691406 C 520.128906 158.691406 520.808594 158.171875 520.808594 157.441406 C 520.808594 157.230469 520.800781 157.03125 520.75 156.871094 C 520.339844 155.621094 518.730469 155.25 517 155.25 C 515.691406 155.25 514.550781 155.699219 513.691406 156.410156 C 512.609375 157.308594 511.890625 158.578125 511.699219 160.078125 C 511.671875 160.230469 511.671875 160.550781 511.671875 160.859375 C 511.671875 161.171875 511.671875 161.480469 511.699219 161.621094 C 512.019531 163.480469 513.050781 164.921875 514.578125 165.71875 C 515.308594 166.089844 516.109375 166.269531 516.96875 166.269531 C 518.421875 166.269531 519.691406 165.640625 520.449219 164.53125 C 520.699219 164.160156 521.078125 163.339844 521.078125 163.121094 C 521.078125 163.050781 520.949219 162.949219 520.910156 162.910156 L 520.480469 162.910156 C 520.078125 162.910156 519.910156 162.921875 519.828125 163.191406 C 519.589844 164.03125 519.089844 164.75 518.46875 165.058594 C 518.160156 165.230469 517.910156 165.300781 517.53125 165.300781 C 516.328125 165.300781 515.519531 164.621094 514.980469 163.839844 C 514.480469 163.078125 514.269531 162.089844 514.269531 160.75 C 514.269531 158.921875 514.53125 157.808594 515.378906 156.96875 C 515.878906 156.421875 516.199219 156.199219 517.191406 156.199219 C 517.589844 156.199219 518.058594 156.25 518.378906 156.300781 C 518.660156 156.359375 518.519531 156.328125 518.378906 156.5 C 518.128906 156.730469 517.980469 157.078125 517.980469 157.410156 C 517.980469 158.078125 518.628906 158.691406 519.410156 158.691406 Z M 519.410156 158.691406 "/>
<path style=" stroke:none;fill-rule:nonzero;fill:rgb(0%,0%,0%);fill-opacity:1;" d="M 529.480469 173 L 529.828125 173 L 529.828125 172.03125 L 528.628906 172.03125 C 528.078125 172.03125 527.800781 172.050781 527.589844 171.828125 L 527.578125 166.441406 L 527.578125 161.050781 C 527.421875 160.921875 527.359375 160.871094 527.128906 160.871094 C 526.96875 160.871094 526.839844 160.910156 526.808594 160.949219 C 526.71875 161.050781 526.410156 161.28125 526.25 161.371094 C 525.578125 161.78125 524.839844 161.980469 523.839844 162.019531 L 523.328125 162.019531 L 523.328125 162.980469 L 523.839844 162.980469 C 524.519531 162.96875 525.171875 162.839844 525.941406 162.558594 C 525.859375 162.589844 525.808594 162.589844 525.671875 162.589844 L 525.671875 171.808594 C 525.589844 171.890625 525.628906 171.949219 525.410156 171.96875 C 525.199219 172.019531 524.578125 172.03125 524.050781 172.03125 L 523.421875 172.03125 L 523.421875 173 L 523.800781 173 C 524.109375 172.949219 526.050781 172.949219 526.628906 172.949219 C 527.199219 172.949219 529.191406 172.949219 529.480469 173 Z M 529.480469 173 "/>
<path style=" stroke:none;fill-rule:nonzero;fill:rgb(0%,0%,0%);fill-opacity:1;" d="M 532.199219 157.671875 C 532.199219 157.949219 532.480469 158.078125 532.730469 158.160156 L 540.359375 158.160156 L 548.089844 158.121094 C 548.25 158.03125 548.449219 157.941406 548.449219 157.671875 C 548.449219 157.410156 548.25 157.28125 548.058594 157.191406 L 532.558594 157.191406 C 532.378906 157.28125 532.199219 157.410156 532.199219 157.671875 Z M 532.199219 162.328125 C 532.199219 162.589844 532.378906 162.71875 532.558594 162.808594 L 548.058594 162.808594 C 548.25 162.71875 548.449219 162.589844 548.449219 162.328125 C 548.449219 162.050781 548.230469 161.96875 548.089844 161.839844 L 532.730469 161.839844 C 532.480469 161.921875 532.199219 162.050781 532.199219 162.328125 Z M 532.199219 162.328125 "/>
<path style=" stroke:none;fill-rule:nonzero;fill:rgb(0%,0%,0%);fill-opacity:1;" d="M 552.191406 151.949219 C 551.160156 153.609375 550.800781 155.390625 550.800781 158.308594 C 550.800781 160.949219 551.109375 162.589844 551.839844 164.019531 C 552.558594 165.421875 554.019531 166.53125 556 166.53125 C 556.699219 166.53125 557.46875 166.359375 558.140625 166.03125 L 558.050781 166.03125 C 558.921875 165.589844 559.640625 164.980469 560.128906 164.019531 L 560.109375 164.019531 C 560.839844 162.589844 561.160156 160.949219 561.160156 158.308594 C 561.160156 155.839844 560.890625 154.230469 560.269531 152.839844 C 559.949219 152.160156 559.589844 151.640625 559.140625 151.21875 C 558.300781 150.449219 557.109375 150.019531 555.96875 150.019531 C 554.378906 150.019531 552.96875 150.808594 552.191406 151.949219 Z M 557.578125 151.671875 C 558.28125 152.390625 558.449219 153.160156 558.519531 155.75 C 558.519531 156.191406 558.550781 157.078125 558.550781 158.019531 C 558.550781 159.328125 558.519531 160.769531 558.5 161.21875 C 558.378906 163.449219 558.199219 164.171875 557.519531 164.890625 C 557.109375 165.359375 556.769531 165.609375 556 165.609375 C 555.230469 165.609375 554.839844 165.359375 554.441406 164.890625 C 553.75 164.171875 553.578125 163.449219 553.449219 161.21875 C 553.441406 160.769531 553.410156 159.328125 553.410156 158.019531 C 553.410156 157.078125 553.441406 156.191406 553.441406 155.75 C 553.5 153.160156 553.671875 152.390625 554.378906 151.671875 C 554.839844 151.171875 555.378906 150.910156 556 150.910156 C 556.75 150.910156 557.160156 151.191406 557.578125 151.671875 Z M 557.578125 151.671875 "/>
<path style=" stroke:none;fill-rule:nonzero;fill:rgb(0%,0%,0%);fill-opacity:1;" d="M 821.78125 153.691406 C 822.550781 153.691406 823.199219 153.078125 823.199219 152.390625 C 823.199219 152 822.941406 151.519531 822.671875 151.371094 C 822.671875 151.199219 823.878906 151.140625 824.160156 151.140625 C 825.359375 151.140625 826.03125 151.808594 826.339844 152.839844 C 826.46875 153.160156 826.480469 153.441406 826.480469 154.050781 L 826.480469 154.558594 L 826.300781 154.558594 C 824.558594 154.660156 823.269531 154.921875 822.128906 155.449219 C 821.519531 155.71875 821.050781 155.949219 820.628906 156.371094 C 820.128906 156.871094 819.671875 157.550781 819.671875 158.441406 C 819.671875 158.75 819.75 159.058594 819.859375 159.339844 C 820.308594 160.519531 821.921875 161.269531 823.558594 161.269531 C 824.589844 161.269531 825.628906 160.921875 826.390625 160.28125 C 826.578125 160.109375 826.828125 159.78125 826.75 159.839844 L 826.75 159.699219 C 826.96875 160.46875 827.769531 161.140625 828.589844 161.140625 C 829.691406 161.140625 830.609375 160.449219 830.878906 159.578125 C 830.921875 159.421875 830.921875 159.371094 830.949219 158.449219 L 830.949219 157.519531 L 829.730469 157.519531 L 829.730469 158.390625 C 829.730469 159.308594 829.730469 159.46875 829.609375 159.699219 L 829.578125 159.699219 C 829.480469 159.921875 829.46875 160.050781 829.269531 160.050781 C 829.078125 160.050781 829.019531 159.921875 828.910156 159.699219 L 828.890625 159.699219 C 828.75 159.421875 828.769531 159.480469 828.769531 156.339844 C 828.769531 153.21875 828.769531 153.269531 828.628906 152.839844 C 828.140625 151.300781 826.378906 150.25 824.230469 150.25 C 822.449219 150.25 820.96875 150.75 820.558594 151.609375 C 820.441406 151.871094 820.378906 152.140625 820.378906 152.390625 C 820.378906 153.078125 821.019531 153.691406 821.78125 153.691406 Z M 826.480469 156.800781 C 826.46875 158.140625 826.46875 158.21875 826.421875 158.390625 C 826.160156 159.441406 825.339844 160.371094 824.019531 160.371094 C 822.890625 160.371094 822.140625 159.53125 822.140625 158.449219 C 822.140625 158.078125 822.21875 157.691406 822.390625 157.371094 C 822.980469 156.25 824.328125 155.578125 826.578125 155.441406 C 826.628906 155.410156 826.699219 155.410156 826.699219 155.410156 L 826.609375 155.410156 C 826.628906 155.410156 826.480469 156.03125 826.480469 156.800781 Z M 826.480469 156.800781 "/>
<path style=" stroke:none;fill-rule:nonzero;fill:rgb(0%,0%,0%);fill-opacity:1;" d="M 832.980469 160.28125 C 833.640625 160.28125 834.199219 159.699219 834.199219 159.121094 C 834.199219 158.558594 833.691406 157.96875 833.050781 157.96875 C 833 157.96875 833.109375 158.050781 833.109375 158.03125 C 833.109375 158.019531 833.140625 157.921875 833.21875 157.78125 C 833.609375 157.199219 834 156.859375 834.808594 156.859375 C 836.359375 156.859375 837.019531 158.058594 837.019531 159.578125 C 837.019531 160.621094 836.671875 161.449219 835.859375 162.550781 C 835.46875 163.050781 835.378906 163.171875 833.339844 165.421875 C 832.53125 166.339844 831.839844 167.121094 831.828125 167.140625 C 831.800781 167.191406 831.730469 167.28125 831.730469 167.589844 L 831.730469 168 L 838.71875 168 L 838.71875 167.839844 C 838.71875 167.808594 839.128906 164.730469 839.21875 164.550781 L 839.21875 164.449219 L 838.199219 164.449219 L 838.199219 164.578125 C 838.058594 165.390625 838.03125 165.550781 837.949219 165.800781 C 837.890625 165.980469 837.980469 166.089844 837.730469 166.191406 C 837.71875 166.199219 836.730469 166.199219 834.921875 166.199219 L 833.769531 166.199219 L 834.699219 165.300781 C 835.941406 164.121094 835.878906 164.191406 836.519531 163.640625 C 837.699219 162.621094 838.160156 162.121094 838.550781 161.578125 C 838.96875 160.941406 839.21875 160.339844 839.21875 159.558594 C 839.21875 159.339844 839.199219 159.121094 839.191406 158.96875 C 838.890625 157.199219 837.339844 155.871094 835.230469 155.871094 C 833.390625 155.871094 831.730469 157.371094 831.730469 159.089844 C 831.730469 159.699219 832.300781 160.28125 832.980469 160.28125 Z M 832.980469 160.28125 "/>
<path style=" stroke:none;fill-rule:nonzero;fill:rgb(0%,0%,0%);fill-opacity:1;" d="M 844.828125 161 L 845.109375 161 L 845.109375 160.449219 C 845.109375 159.921875 844.980469 159.890625 844.941406 159.890625 C 844.609375 159.890625 844.46875 159.578125 844.46875 159.25 C 844.46875 159.121094 844.46875 159.019531 844.53125 158.890625 C 844.609375 158.769531 846.050781 156.828125 845.949219 156.871094 L 846.859375 158.121094 C 847.519531 159.019531 847.800781 159.46875 847.800781 159.480469 C 847.800781 159.691406 847.519531 159.890625 847.160156 159.890625 L 846.941406 159.890625 L 846.941406 161 L 847.300781 161 C 847.578125 160.949219 849.410156 160.921875 849.941406 160.921875 C 850.421875 160.921875 852 160.921875 852.230469 161 L 852.5 161 L 852.5 159.890625 L 851.96875 159.890625 C 851.109375 159.890625 850.660156 159.890625 850.300781 159.53125 C 850.21875 159.46875 849.5 158.480469 848.691406 157.371094 L 847.199219 155.339844 L 847.578125 154.828125 C 847.78125 154.558594 848.199219 154.019531 848.5 153.609375 C 849.230469 152.640625 849.359375 152.410156 849.859375 152.171875 L 849.949219 152.171875 C 850.421875 151.921875 851.160156 151.769531 851.808594 151.769531 L 852.089844 151.769531 L 852.089844 150.660156 L 851.828125 150.660156 C 851.609375 150.730469 850.21875 150.730469 849.800781 150.730469 C 849.339844 150.730469 847.628906 150.699219 847.421875 150.660156 L 847.109375 150.660156 L 847.109375 151.769531 L 847.25 151.769531 C 847.300781 151.78125 847.421875 151.808594 847.480469 151.859375 C 847.691406 151.96875 847.75 152.191406 847.75 152.410156 C 847.75 152.53125 847.75 152.671875 847.609375 152.949219 C 847.628906 152.859375 847.339844 153.269531 847.019531 153.699219 L 846.5 154.421875 C 846.359375 154.25 844.941406 152.230469 844.941406 152.140625 C 844.941406 151.910156 845.300781 151.808594 845.808594 151.769531 L 845.808594 150.660156 L 845.5 150.660156 C 845.359375 150.699219 844.699219 150.699219 844.078125 150.699219 L 843.03125 150.699219 C 842.050781 150.699219 840.980469 150.691406 840.550781 150.660156 L 840.230469 150.660156 L 840.230469 151.769531 L 841.058594 151.769531 C 841.421875 151.78125 841.800781 151.808594 841.921875 151.808594 C 842.191406 151.859375 842.328125 151.96875 842.449219 152.089844 C 842.5 152.140625 843.140625 153.03125 843.910156 154.089844 L 845.300781 155.949219 L 844.199219 157.410156 C 843.589844 158.191406 843.050781 158.910156 842.96875 158.980469 C 842.421875 159.53125 841.699219 159.828125 840.589844 159.890625 L 840.128906 159.890625 L 840.128906 161 L 840.410156 161 C 840.671875 160.921875 841.980469 160.921875 842.449219 160.921875 C 842.910156 160.921875 844.578125 160.949219 844.828125 161 Z M 844.828125 161 "/>
<path style=" stroke:none;fill-rule:nonzero;fill:rgb(0%,0%,0%);fill-opacity:1;" d="M 854.199219 155 C 854.199219 155.269531 854.378906 155.390625 854.558594 155.480469 L 861.71875 155.480469 L 861.71875 162.558594 C 861.828125 162.828125 862.078125 162.96875 862.339844 162.96875 C 862.589844 162.96875 862.808594 162.828125 862.941406 162.558594 L 862.941406 155.480469 L 870.058594 155.480469 C 870.25 155.390625 870.449219 155.269531 870.449219 155 C 870.449219 154.730469 870.25 154.609375 870.058594 154.519531 L 862.941406 154.519531 L 862.941406 147.46875 C 862.808594 147.171875 862.578125 147.019531 862.339844 147.019531 C 862.089844 147.019531 861.859375 147.199219 861.730469 147.390625 L 861.71875 150.921875 L 861.71875 154.519531 L 854.558594 154.519531 C 854.378906 154.609375 854.199219 154.730469 854.199219 155 Z M 854.199219 155 "/>
<path style=" stroke:none;fill-rule:nonzero;fill:rgb(0%,0%,0%);fill-opacity:1;" d="M 874.359375 144.480469 C 873.378906 144.53125 872.550781 144.609375 872.53125 144.609375 C 872.480469 144.609375 872.339844 144.660156 872.339844 145.160156 L 872.339844 145.71875 L 872.910156 145.71875 C 873.96875 145.769531 874.089844 145.910156 874.191406 146.53125 C 874.199219 146.621094 874.199219 149.910156 874.199219 153.839844 L 874.199219 161 L 874.828125 161 L 875.410156 160.96875 L 875.53125 160.769531 C 875.589844 160.640625 875.769531 160.328125 875.890625 160.109375 L 876.058594 159.828125 L 876.078125 159.839844 C 876.78125 160.589844 878.03125 161.269531 879.378906 161.269531 C 882.199219 161.269531 884.21875 159.109375 884.589844 156.660156 C 884.628906 156.46875 884.640625 156.160156 884.640625 155.808594 C 884.640625 152.941406 882.75 150.890625 880.550781 150.46875 C 880.300781 150.421875 880.050781 150.390625 879.75 150.390625 C 878.441406 150.390625 877.089844 150.871094 876.339844 151.5 C 876.269531 151.558594 876.421875 151.609375 876.421875 151.609375 L 876.308594 151.609375 C 876.300781 151.609375 876.421875 149.980469 876.421875 147.96875 L 876.421875 144.339844 L 876.21875 144.339844 C 876.171875 144.339844 875.339844 144.421875 874.359375 144.480469 Z M 879.941406 151.359375 C 880.859375 151.589844 881.441406 152.28125 881.75 153.25 C 881.941406 153.839844 882.03125 154.78125 882.03125 155.910156 C 882.03125 157.050781 881.949219 157.660156 881.75 158.28125 C 881.628906 158.621094 881.578125 158.808594 881.390625 159.078125 C 880.828125 159.890625 880.050781 160.371094 879.078125 160.371094 C 878.839844 160.371094 878.578125 160.359375 878.339844 160.28125 C 877.609375 160.089844 877.050781 159.558594 876.578125 158.808594 L 876.480469 158.71875 L 876.480469 152.808594 L 876.609375 152.671875 C 877.191406 151.871094 878.078125 151.28125 879.199219 151.28125 C 879.46875 151.28125 879.75 151.328125 879.941406 151.359375 Z M 879.941406 151.359375 "/>
<path style=" stroke:none;fill-rule:nonzero;fill:rgb(0%,0%,0%);fill-opacity:1;" d="M 886.980469 160.28125 C 887.640625 160.28125 888.199219 159.699219 888.199219 159.121094 C 888.199219 158.558594 887.691406 157.96875 887.050781 157.96875 C 887 157.96875 887.109375 158.050781 887.109375 158.03125 C 887.109375 158.019531 887.140625 157.921875 887.21875 157.78125 C 887.609375 157.199219 888 156.859375 888.808594 156.859375 C 890.359375 156.859375 891.019531 158.058594 891.019531 159.578125 C 891.019531 160.621094 890.671875 161.449219 889.859375 162.550781 C 889.46875 163.050781 889.378906 163.171875 887.339844 165.421875 C 886.53125 166.339844 885.839844 167.121094 885.828125 167.140625 C 885.800781 167.191406 885.730469 167.28125 885.730469 167.589844 L 885.730469 168 L 892.71875 168 L 892.71875 167.839844 C 892.71875 167.808594 893.128906 164.730469 893.21875 164.550781 L 893.21875 164.449219 L 892.199219 164.449219 L 892.199219 164.578125 C 892.058594 165.390625 892.03125 165.550781 891.949219 165.800781 C 891.890625 165.980469 891.980469 166.089844 891.730469 166.191406 C 891.71875 166.199219 890.730469 166.199219 888.921875 166.199219 L 887.769531 166.199219 L 888.699219 165.300781 C 889.941406 164.121094 889.878906 164.191406 890.519531 163.640625 C 891.699219 162.621094 892.160156 162.121094 892.550781 161.578125 C 892.96875 160.941406 893.21875 160.339844 893.21875 159.558594 C 893.21875 159.339844 893.199219 159.121094 893.191406 158.96875 C 892.890625 157.199219 891.339844 155.871094 889.230469 155.871094 C 887.390625 155.871094 885.730469 157.371094 885.730469 159.089844 C 885.730469 159.699219 886.300781 160.28125 886.980469 160.28125 Z M 886.980469 160.28125 "/>
<path style=" stroke:none;fill-rule:nonzero;fill:rgb(0%,0%,0%);fill-opacity:1;" d="M 895.660156 162.578125 C 895.019531 162.578125 894.308594 163.019531 894.308594 163.78125 C 894.308594 165.03125 895.421875 165.890625 896.71875 165.890625 C 896.910156 165.890625 897.089844 165.890625 897.21875 165.871094 C 898.078125 165.691406 898.921875 165.109375 899.550781 164.140625 C 900.359375 162.921875 904.058594 152.890625 904.21875 152.71875 C 904.53125 152.140625 905.050781 151.828125 905.921875 151.769531 L 906.308594 151.769531 L 906.308594 150.660156 L 906.078125 150.660156 C 905.769531 150.691406 904.941406 150.699219 904.128906 150.699219 C 903.628906 150.699219 902.300781 150.699219 902.089844 150.660156 L 901.800781 150.660156 L 901.800781 151.769531 L 902.019531 151.769531 C 902.550781 151.769531 902.878906 152.050781 902.878906 152.589844 L 902.878906 152.808594 L 901.828125 155.550781 C 901.21875 157.050781 900.71875 158.28125 900.71875 158.308594 L 900.949219 158.308594 C 900.949219 158.308594 898.558594 152.910156 898.558594 152.171875 C 898.558594 151.828125 899.140625 151.769531 899.558594 151.769531 L 899.910156 151.769531 L 899.910156 150.660156 L 899.589844 150.660156 C 899.328125 150.699219 897.449219 150.730469 896.921875 150.730469 C 896.421875 150.730469 894.890625 150.730469 894.628906 150.660156 L 894.308594 150.660156 L 894.308594 151.769531 L 895.03125 151.769531 C 895.609375 151.769531 895.980469 151.78125 896.160156 152.121094 C 896.199219 152.171875 896.96875 154.199219 897.941406 156.609375 L 899.660156 161 L 899.25 162.03125 C 898.75 163.371094 898.421875 164.480469 897.359375 164.890625 C 897.140625 164.980469 896.878906 165.03125 896.660156 165.03125 C 896.5 165.03125 896.410156 165.019531 896.28125 164.941406 C 896.191406 164.890625 896.191406 164.890625 896.46875 164.75 C 896.550781 164.71875 896.949219 164.230469 896.949219 163.78125 C 896.949219 163.109375 896.328125 162.578125 895.660156 162.578125 Z M 895.660156 162.578125 "/>
<path style=" stroke:none;fill-rule:nonzero;fill:rgb(0%,0%,0%);fill-opacity:1;" d="M 908.199219 152.671875 C 908.199219 152.949219 908.480469 153.078125 908.730469 153.160156 L 916.359375 153.160156 L 924.089844 153.121094 C 924.25 153.03125 924.449219 152.941406 924.449219 152.671875 C 924.449219 152.410156 924.25 152.28125 924.058594 152.191406 L 908.558594 152.191406 C 908.378906 152.28125 908.199219 152.410156 908.199219 152.671875 Z M 908.199219 157.328125 C 908.199219 157.589844 908.378906 157.71875 908.558594 157.808594 L 924.058594 157.808594 C 924.25 157.71875 924.449219 157.589844 924.449219 157.328125 C 924.449219 157.050781 924.230469 156.96875 924.089844 156.839844 L 908.730469 156.839844 C 908.480469 156.921875 908.199219 157.050781 908.199219 157.328125 Z M 908.199219 157.328125 "/>
<path style=" stroke:none;fill-rule:nonzero;fill:rgb(0%,0%,0%);fill-opacity:1;" d="M 928.191406 146.949219 C 927.160156 148.609375 926.800781 150.390625 926.800781 153.308594 C 926.800781 155.949219 927.109375 157.589844 927.839844 159.019531 C 928.558594 160.421875 930.019531 161.53125 932 161.53125 C 932.699219 161.53125 933.46875 161.359375 934.140625 161.03125 L 934.050781 161.03125 C 934.921875 160.589844 935.640625 159.980469 936.128906 159.019531 L 936.109375 159.019531 C 936.839844 157.589844 937.160156 155.949219 937.160156 153.308594 C 937.160156 150.839844 936.890625 149.230469 936.269531 147.839844 C 935.949219 147.160156 935.589844 146.640625 935.140625 146.21875 C 934.300781 145.449219 933.109375 145.019531 931.96875 145.019531 C 930.378906 145.019531 928.96875 145.808594 928.191406 146.949219 Z M 933.578125 146.671875 C 934.28125 147.390625 934.449219 148.160156 934.519531 150.75 C 934.519531 151.191406 934.550781 152.078125 934.550781 153.019531 C 934.550781 154.328125 934.519531 155.769531 934.5 156.21875 C 934.378906 158.449219 934.199219 159.171875 933.519531 159.890625 C 933.109375 160.359375 932.769531 160.609375 932 160.609375 C 931.230469 160.609375 930.839844 160.359375 930.441406 159.890625 C 929.75 159.171875 929.578125 158.449219 929.449219 156.21875 C 929.441406 155.769531 929.410156 154.328125 929.410156 153.019531 C 929.410156 152.078125 929.441406 151.191406 929.441406 150.75 C 929.5 148.160156 929.671875 147.390625 930.378906 146.671875 C 930.839844 146.171875 931.378906 145.910156 932 145.910156 C 932.75 145.910156 933.160156 146.191406 933.578125 146.671875 Z M 933.578125 146.671875 "/>
</g>
</svg>
