<?xml version="1.0" encoding="UTF-8"?>
<svg xmlns="http://www.w3.org/2000/svg" xmlns:xlink="http://www.w3.org/1999/xlink" width="1366pt" height="565pt" viewBox="0 0 1366 565" version="1.1">
<g id="surface1">
<path style="fill:none;stroke-width:1;stroke-linecap:square;stroke-linejoin:miter;stroke:rgb(89.411926%,89.411926%,89.411926%);stroke-opacity:1;stroke-miterlimit:10;" d="M 25 565 L 25 0 " transform="matrix(1,0,0,-1,0,565)"/>
<path style="fill:none;stroke-width:1;stroke-linecap:square;stroke-linejoin:miter;stroke:rgb(89.411926%,89.411926%,89.411926%);stroke-opacity:1;stroke-miterlimit:10;" d="M 65 565 L 65 0 " transform="matrix(1,0,0,-1,0,565)"/>
<path style="fill:none;stroke-width:1;stroke-linecap:square;stroke-linejoin:miter;stroke:rgb(89.411926%,89.411926%,89.411926%);stroke-opacity:1;stroke-miterlimit:10;" d="M 104 565 L 104 0 " transform="matrix(1,0,0,-1,0,565)"/>
<path style="fill:none;stroke-width:1;stroke-linecap:square;stroke-linejoin:miter;stroke:rgb(89.411926%,89.411926%,89.411926%);stroke-opacity:1;stroke-miterlimit:10;" d="M 144 565 L 144 0 " transform="matrix(1,0,0,-1,0,565)"/>
<path style="fill:none;stroke-width:1;stroke-linecap:square;stroke-linejoin:miter;stroke:rgb(89.411926%,89.411926%,89.411926%);stroke-opacity:1;stroke-miterlimit:10;" d="M 184 565 L 184 0 " transform="matrix(1,0,0,-1,0,565)"/>
<path style="fill:none;stroke-width:1;stroke-linecap:square;stroke-linejoin:miter;stroke:rgb(89.411926%,89.411926%,89.411926%);stroke-opacity:1;stroke-miterlimit:10;" d="M 224 565 L 224 0 " transform="matrix(1,0,0,-1,0,565)"/>
<path style="fill:none;stroke-width:1;stroke-linecap:square;stroke-linejoin:miter;stroke:rgb(89.411926%,89.411926%,89.411926%);stroke-opacity:1;stroke-miterlimit:10;" d="M 263 565 L 263 0 " transform="matrix(1,0,0,-1,0,565)"/>
<path style="fill:none;stroke-width:1;stroke-linecap:square;stroke-linejoin:miter;stroke:rgb(89.411926%,89.411926%,89.411926%);stroke-opacity:1;stroke-miterlimit:10;" d="M 303 565 L 303 0 " transform="matrix(1,0,0,-1,0,565)"/>
<path style="fill:none;stroke-width:1;stroke-linecap:square;stroke-linejoin:miter;stroke:rgb(89.411926%,89.411926%,89.411926%);stroke-opacity:1;stroke-miterlimit:10;" d="M 343 565 L 343 0 " transform="matrix(1,0,0,-1,0,565)"/>
<path style="fill:none;stroke-width:1;stroke-linecap:square;stroke-linejoin:miter;stroke:rgb(89.411926%,89.411926%,89.411926%);stroke-opacity:1;stroke-miterlimit:10;" d="M 383 565 L 383 0 " transform="matrix(1,0,0,-1,0,565)"/>
<path style="fill:none;stroke-width:1;stroke-linecap:square;stroke-linejoin:miter;stroke:rgb(89.411926%,89.411926%,89.411926%);stroke-opacity:1;stroke-miterlimit:10;" d="M 422 565 L 422 0 " transform="matrix(1,0,0,-1,0,565)"/>
<path style="fill:none;stroke-width:1;stroke-linecap:square;stroke-linejoin:miter;stroke:rgb(89.411926%,89.411926%,89.411926%);stroke-opacity:1;stroke-miterlimit:10;" d="M 462 565 L 462 0 " transform="matrix(1,0,0,-1,0,565)"/>
<path style="fill:none;stroke-width:1;stroke-linecap:square;stroke-linejoin:miter;stroke:rgb(89.411926%,89.411926%,89.411926%);stroke-opacity:1;stroke-miterlimit:10;" d="M 502 565 L 502 0 " transform="matrix(1,0,0,-1,0,565)"/>
<path style="fill:none;stroke-width:1;stroke-linecap:square;stroke-linejoin:miter;stroke:rgb(89.411926%,89.411926%,89.411926%);stroke-opacity:1;stroke-miterlimit:10;" d="M 541 565 L 541 0 " transform="matrix(1,0,0,-1,0,565)"/>
<path style="fill:none;stroke-width:1;stroke-linecap:square;stroke-linejoin:miter;stroke:rgb(89.411926%,89.411926%,89.411926%);stroke-opacity:1;stroke-miterlimit:10;" d="M 581 565 L 581 0 " transform="matrix(1,0,0,-1,0,565)"/>
<path style="fill:none;stroke-width:1;stroke-linecap:square;stroke-linejoin:miter;stroke:rgb(89.411926%,89.411926%,89.411926%);stroke-opacity:1;stroke-miterlimit:10;" d="M 621 565 L 621 0 " transform="matrix(1,0,0,-1,0,565)"/>
<path style="fill:none;stroke-width:1;stroke-linecap:square;stroke-linejoin:miter;stroke:rgb(89.411926%,89.411926%,89.411926%);stroke-opacity:1;stroke-miterlimit:10;" d="M 661 565 L 661 0 " transform="matrix(1,0,0,-1,0,565)"/>
<path style="fill:none;stroke-width:1;stroke-linecap:square;stroke-linejoin:miter;stroke:rgb(89.411926%,89.411926%,89.411926%);stroke-opacity:1;stroke-miterlimit:10;" d="M 700 565 L 700 0 " transform="matrix(1,0,0,-1,0,565)"/>
<path style="fill:none;stroke-width:1;stroke-linecap:square;stroke-linejoin:miter;stroke:rgb(89.411926%,89.411926%,89.411926%);stroke-opacity:1;stroke-miterlimit:10;" d="M 740 565 L 740 0 " transform="matrix(1,0,0,-1,0,565)"/>
<path style="fill:none;stroke-width:1;stroke-linecap:square;stroke-linejoin:miter;stroke:rgb(89.411926%,89.411926%,89.411926%);stroke-opacity:1;stroke-miterlimit:10;" d="M 780 565 L 780 0 " transform="matrix(1,0,0,-1,0,565)"/>
<path style="fill:none;stroke-width:1;stroke-linecap:square;stroke-linejoin:miter;stroke:rgb(89.411926%,89.411926%,89.411926%);stroke-opacity:1;stroke-miterlimit:10;" d="M 820 565 L 820 0 " transform="matrix(1,0,0,-1,0,565)"/>
<path style="fill:none;stroke-width:1;stroke-linecap:square;stroke-linejoin:miter;stroke:rgb(89.411926%,89.411926%,89.411926%);stroke-opacity:1;stroke-miterlimit:10;" d="M 859 565 L 859 0 " transform="matrix(1,0,0,-1,0,565)"/>
<path style="fill:none;stroke-width:1;stroke-linecap:square;stroke-linejoin:miter;stroke:rgb(89.411926%,89.411926%,89.411926%);stroke-opacity:1;stroke-miterlimit:10;" d="M 899 565 L 899 0 " transform="matrix(1,0,0,-1,0,565)"/>
<path style="fill:none;stroke-width:1;stroke-linecap:square;stroke-linejoin:miter;stroke:rgb(89.411926%,89.411926%,89.411926%);stroke-opacity:1;stroke-miterlimit:10;" d="M 939 565 L 939 0 " transform="matrix(1,0,0,-1,0,565)"/>
<path style="fill:none;stroke-width:1;stroke-linecap:square;stroke-linejoin:miter;stroke:rgb(89.411926%,89.411926%,89.411926%);stroke-opacity:1;stroke-miterlimit:10;" d="M 978 565 L 978 0 " transform="matrix(1,0,0,-1,0,565)"/>
<path style="fill:none;stroke-width:1;stroke-linecap:square;stroke-linejoin:miter;stroke:rgb(89.411926%,89.411926%,89.411926%);stroke-opacity:1;stroke-miterlimit:10;" d="M 1018 565 L 1018 0 " transform="matrix(1,0,0,-1,0,565)"/>
<path style="fill:none;stroke-width:1;stroke-linecap:square;stroke-linejoin:miter;stroke:rgb(89.411926%,89.411926%,89.411926%);stroke-opacity:1;stroke-miterlimit:10;" d="M 1058 565 L 1058 0 " transform="matrix(1,0,0,-1,0,565)"/>
<path style="fill:none;stroke-width:1;stroke-linecap:square;stroke-linejoin:miter;stroke:rgb(89.411926%,89.411926%,89.411926%);stroke-opacity:1;stroke-miterlimit:10;" d="M 1098 565 L 1098 0 " transform="matrix(1,0,0,-1,0,565)"/>
<path style="fill:none;stroke-width:1;stroke-linecap:square;stroke-linejoin:miter;stroke:rgb(89.411926%,89.411926%,89.411926%);stroke-opacity:1;stroke-miterlimit:10;" d="M 1137 565 L 1137 0 " transform="matrix(1,0,0,-1,0,565)"/>
<path style="fill:none;stroke-width:1;stroke-linecap:square;stroke-linejoin:miter;stroke:rgb(89.411926%,89.411926%,89.411926%);stroke-opacity:1;stroke-miterlimit:10;" d="M 1177 565 L 1177 0 " transform="matrix(1,0,0,-1,0,565)"/>
<path style="fill:none;stroke-width:1;stroke-linecap:square;stroke-linejoin:miter;stroke:rgb(89.411926%,89.411926%,89.411926%);stroke-opacity:1;stroke-miterlimit:10;" d="M 1217 565 L 1217 0 " transform="matrix(1,0,0,-1,0,565)"/>
<path style="fill:none;stroke-width:1;stroke-linecap:square;stroke-linejoin:miter;stroke:rgb(89.411926%,89.411926%,89.411926%);stroke-opacity:1;stroke-miterlimit:10;" d="M 1257 565 L 1257 0 " transform="matrix(1,0,0,-1,0,565)"/>
<path style="fill:none;stroke-width:1;stroke-linecap:square;stroke-linejoin:miter;stroke:rgb(89.411926%,89.411926%,89.411926%);stroke-opacity:1;stroke-miterlimit:10;" d="M 1296 565 L 1296 0 " transform="matrix(1,0,0,-1,0,565)"/>
<path style="fill:none;stroke-width:1;stroke-linecap:square;stroke-linejoin:miter;stroke:rgb(89.411926%,89.411926%,89.411926%);stroke-opacity:1;stroke-miterlimit:10;" d="M 1336 565 L 1336 0 " transform="matrix(1,0,0,-1,0,565)"/>
<path style="fill:none;stroke-width:1;stroke-linecap:square;stroke-linejoin:miter;stroke:rgb(89.411926%,89.411926%,89.411926%);stroke-opacity:1;stroke-miterlimit:10;" d="M 0 547 L 1366 547 " transform="matrix(1,0,0,-1,0,565)"/>
<path style="fill:none;stroke-width:1;stroke-linecap:square;stroke-linejoin:miter;stroke:rgb(89.411926%,89.411926%,89.411926%);stroke-opacity:1;stroke-miterlimit:10;" d="M 0 507 L 1366 507 " transform="matrix(1,0,0,-1,0,565)"/>
<path style="fill:none;stroke-width:1;stroke-linecap:square;stroke-linejoin:miter;stroke:rgb(89.411926%,89.411926%,89.411926%);stroke-opacity:1;stroke-miterlimit:10;" d="M 0 468 L 1366 468 " transform="matrix(1,0,0,-1,0,565)"/>
<path style="fill:none;stroke-width:1;stroke-linecap:square;stroke-linejoin:miter;stroke:rgb(89.411926%,89.411926%,89.411926%);stroke-opacity:1;stroke-miterlimit:10;" d="M 0 428 L 1366 428 " transform="matrix(1,0,0,-1,0,565)"/>
<path style="fill:none;stroke-width:1;stroke-linecap:square;stroke-linejoin:miter;stroke:rgb(89.411926%,89.411926%,89.411926%);stroke-opacity:1;stroke-miterlimit:10;" d="M 0 388 L 1366 388 " transform="matrix(1,0,0,-1,0,565)"/>
<path style="fill:none;stroke-width:1;stroke-linecap:square;stroke-linejoin:miter;stroke:rgb(89.411926%,89.411926%,89.411926%);stroke-opacity:1;stroke-miterlimit:10;" d="M 0 348 L 1366 348 " transform="matrix(1,0,0,-1,0,565)"/>
<path style="fill:none;stroke-width:1;stroke-linecap:square;stroke-linejoin:miter;stroke:rgb(89.411926%,89.411926%,89.411926%);stroke-opacity:1;stroke-miterlimit:10;" d="M 0 309 L 1366 309 " transform="matrix(1,0,0,-1,0,565)"/>
<path style="fill:none;stroke-width:1;stroke-linecap:square;stroke-linejoin:miter;stroke:rgb(89.411926%,89.411926%,89.411926%);stroke-opacity:1;stroke-miterlimit:10;" d="M 0 269 L 1366 269 " transform="matrix(1,0,0,-1,0,565)"/>
<path style="fill:none;stroke-width:1;stroke-linecap:square;stroke-linejoin:miter;stroke:rgb(89.411926%,89.411926%,89.411926%);stroke-opacity:1;stroke-miterlimit:10;" d="M 0 229 L 1366 229 " transform="matrix(1,0,0,-1,0,565)"/>
<path style="fill:none;stroke-width:1;stroke-linecap:square;stroke-linejoin:miter;stroke:rgb(89.411926%,89.411926%,89.411926%);stroke-opacity:1;stroke-miterlimit:10;" d="M 0 189 L 1366 189 " transform="matrix(1,0,0,-1,0,565)"/>
<path style="fill:none;stroke-width:1;stroke-linecap:square;stroke-linejoin:miter;stroke:rgb(89.411926%,89.411926%,89.411926%);stroke-opacity:1;stroke-miterlimit:10;" d="M 0 150 L 1366 150 " transform="matrix(1,0,0,-1,0,565)"/>
<path style="fill:none;stroke-width:1;stroke-linecap:square;stroke-linejoin:miter;stroke:rgb(89.411926%,89.411926%,89.411926%);stroke-opacity:1;stroke-miterlimit:10;" d="M 0 110 L 1366 110 " transform="matrix(1,0,0,-1,0,565)"/>
<path style="fill:none;stroke-width:1;stroke-linecap:square;stroke-linejoin:miter;stroke:rgb(89.411926%,89.411926%,89.411926%);stroke-opacity:1;stroke-miterlimit:10;" d="M 0 70 L 1366 70 " transform="matrix(1,0,0,-1,0,565)"/>
<path style="fill:none;stroke-width:1;stroke-linecap:square;stroke-linejoin:miter;stroke:rgb(89.411926%,89.411926%,89.411926%);stroke-opacity:1;stroke-miterlimit:10;" d="M 0 31 L 1366 31 " transform="matrix(1,0,0,-1,0,565)"/>
<path style="fill:none;stroke-width:1;stroke-linecap:square;stroke-linejoin:miter;stroke:rgb(79.606628%,79.606628%,79.606628%);stroke-opacity:1;stroke-miterlimit:10;" d="M 661 564 L 661 0 " transform="matrix(1,0,0,-1,0,565)"/>
<path style="fill:none;stroke-width:1;stroke-linecap:square;stroke-linejoin:miter;stroke:rgb(79.606628%,79.606628%,79.606628%);stroke-opacity:1;stroke-miterlimit:10;" d="M 660 564 L 660 0 " transform="matrix(1,0,0,-1,0,565)"/>
<path style="fill:none;stroke-width:1;stroke-linecap:square;stroke-linejoin:miter;stroke:rgb(79.606628%,79.606628%,79.606628%);stroke-opacity:1;stroke-miterlimit:10;" d="M 662 564 L 662 0 " transform="matrix(1,0,0,-1,0,565)"/>
<path style="fill:none;stroke-width:1;stroke-linecap:square;stroke-linejoin:miter;stroke:rgb(79.606628%,79.606628%,79.606628%);stroke-opacity:1;stroke-miterlimit:10;" d="M 656 560 L 661 565 " transform="matrix(1,0,0,-1,0,565)"/>
<path style="fill:none;stroke-width:1;stroke-linecap:square;stroke-linejoin:miter;stroke:rgb(79.606628%,79.606628%,79.606628%);stroke-opacity:1;stroke-miterlimit:10;" d="M 666 560 L 661 565 " transform="matrix(1,0,0,-1,0,565)"/>
<path style="fill:none;stroke-width:1;stroke-linecap:square;stroke-linejoin:miter;stroke:rgb(79.606628%,79.606628%,79.606628%);stroke-opacity:1;stroke-miterlimit:10;" d="M 656 559 L 661 564 " transform="matrix(1,0,0,-1,0,565)"/>
<path style="fill:none;stroke-width:1;stroke-linecap:square;stroke-linejoin:miter;stroke:rgb(79.606628%,79.606628%,79.606628%);stroke-opacity:1;stroke-miterlimit:10;" d="M 666 559 L 661 564 " transform="matrix(1,0,0,-1,0,565)"/>
<path style="fill:none;stroke-width:1;stroke-linecap:square;stroke-linejoin:miter;stroke:rgb(79.606628%,79.606628%,79.606628%);stroke-opacity:1;stroke-miterlimit:10;" d="M 0 110 L 1365 110 " transform="matrix(1,0,0,-1,0,565)"/>
<path style="fill:none;stroke-width:1;stroke-linecap:square;stroke-linejoin:miter;stroke:rgb(79.606628%,79.606628%,79.606628%);stroke-opacity:1;stroke-miterlimit:10;" d="M 0 111 L 1365 111 " transform="matrix(1,0,0,-1,0,565)"/>
<path style="fill:none;stroke-width:1;stroke-linecap:square;stroke-linejoin:miter;stroke:rgb(79.606628%,79.606628%,79.606628%);stroke-opacity:1;stroke-miterlimit:10;" d="M 0 109 L 1365 109 " transform="matrix(1,0,0,-1,0,565)"/>
<path style="fill:none;stroke-width:1;stroke-linecap:square;stroke-linejoin:miter;stroke:rgb(79.606628%,79.606628%,79.606628%);stroke-opacity:1;stroke-miterlimit:10;" d="M 1361 115 L 1366 110 " transform="matrix(1,0,0,-1,0,565)"/>
<path style="fill:none;stroke-width:1;stroke-linecap:square;stroke-linejoin:miter;stroke:rgb(79.606628%,79.606628%,79.606628%);stroke-opacity:1;stroke-miterlimit:10;" d="M 1361 105 L 1366 110 " transform="matrix(1,0,0,-1,0,565)"/>
<path style="fill:none;stroke-width:1;stroke-linecap:square;stroke-linejoin:miter;stroke:rgb(79.606628%,79.606628%,79.606628%);stroke-opacity:1;stroke-miterlimit:10;" d="M 1360 115 L 1365 110 " transform="matrix(1,0,0,-1,0,565)"/>
<path style="fill:none;stroke-width:1;stroke-linecap:square;stroke-linejoin:miter;stroke:rgb(79.606628%,79.606628%,79.606628%);stroke-opacity:1;stroke-miterlimit:10;" d="M 1360 105 L 1365 110 " transform="matrix(1,0,0,-1,0,565)"/>
<path style="fill:none;stroke-width:1;stroke-linecap:square;stroke-linejoin:miter;stroke:rgb(59.606934%,59.606934%,59.606934%);stroke-opacity:1;stroke-miterlimit:10;" d="M 1296 31 L 1335 31 " transform="matrix(1,0,0,-1,0,565)"/>
<path style="fill:none;stroke-width:1;stroke-linecap:square;stroke-linejoin:miter;stroke:rgb(59.606934%,59.606934%,59.606934%);stroke-opacity:1;stroke-miterlimit:10;" d="M 1296 30 L 1335 30 " transform="matrix(1,0,0,-1,0,565)"/>
<path style="fill:none;stroke-width:1;stroke-linecap:square;stroke-linejoin:miter;stroke:rgb(59.606934%,59.606934%,59.606934%);stroke-opacity:1;stroke-miterlimit:10;" d="M 1296 32 L 1335 32 " transform="matrix(1,0,0,-1,0,565)"/>
<path style="fill:none;stroke-width:1;stroke-linecap:square;stroke-linejoin:miter;stroke:rgb(59.606934%,59.606934%,59.606934%);stroke-opacity:1;stroke-miterlimit:10;" d="M 1296 34 L 1296 28 " transform="matrix(1,0,0,-1,0,565)"/>
<path style="fill:none;stroke-width:1;stroke-linecap:square;stroke-linejoin:miter;stroke:rgb(59.606934%,59.606934%,59.606934%);stroke-opacity:1;stroke-miterlimit:10;" d="M 1335 34 L 1335 28 " transform="matrix(1,0,0,-1,0,565)"/>
<path style=" stroke:none;fill-rule:nonzero;fill:rgb(59.606934%,59.606934%,59.606934%);fill-opacity:1;" d="M 1316.480469 530 L 1318.421875 530 L 1318.421875 523.328125 L 1316.308594 523.75 L 1316.308594 522.671875 L 1318.410156 522.25 L 1319.589844 522.25 L 1319.589844 530 L 1321.53125 530 L 1321.53125 531 L 1316.480469 531 Z M 1323.921875 529.519531 L 1325.148438 529.519531 L 1325.148438 531 L 1323.921875 531 Z M 1330.261719 523.03125 C 1330.261719 523.03125 1329.359375 523.03125 1328.890625 523.941406 C 1328.890625 523.941406 1328.429688 524.828125 1328.429688 526.640625 C 1328.429688 526.640625 1328.429688 528.441406 1328.890625 529.339844 C 1328.890625 529.339844 1329.359375 530.230469 1330.261719 530.230469 C 1330.261719 530.230469 1331.179688 530.230469 1331.640625 529.339844 C 1331.640625 529.339844 1332.109375 528.441406 1332.109375 526.640625 C 1332.109375 526.640625 1332.109375 524.828125 1331.640625 523.941406 C 1331.640625 523.941406 1331.179688 523.03125 1330.261719 523.03125 Z M 1330.261719 522.089844 C 1330.261719 522.089844 1331.730469 522.089844 1332.511719 523.269531 C 1332.511719 523.269531 1333.289062 524.421875 1333.289062 526.640625 C 1333.289062 526.640625 1333.289062 528.839844 1332.511719 530.019531 C 1332.511719 530.019531 1331.730469 531.171875 1330.261719 531.171875 C 1330.261719 531.171875 1328.789062 531.171875 1328.011719 530.019531 C 1328.011719 530.019531 1327.25 528.839844 1327.25 526.640625 C 1327.25 526.640625 1327.25 524.421875 1328.011719 523.269531 C 1328.011719 523.269531 1328.789062 522.089844 1330.261719 522.089844 Z M 1330.261719 522.089844 "/>
<path style="fill:none;stroke-width:3;stroke-linecap:round;stroke-linejoin:round;stroke:rgb(0%,0%,100%);stroke-opacity:1;stroke-miterlimit:10;" d="M 929.050781 565.5 L 691.390625 -1.5 " transform="matrix(1,0,0,-1,0,565)"/>
<path style="fill:none;stroke-width:3;stroke-linecap:round;stroke-linejoin:round;stroke:rgb(0%,0%,100%);stroke-opacity:1;stroke-miterlimit:10;" d="M -0.5 274.199219 L 1367.5 271.328125 " transform="matrix(1,0,0,-1,0,565)"/>
<path style="fill-rule:nonzero;fill:rgb(100%,0%,0%);fill-opacity:1;stroke-width:1;stroke-linecap:square;stroke-linejoin:miter;stroke:rgb(0%,0%,0%);stroke-opacity:1;stroke-miterlimit:10;" d="M 742.5 108.5 C 742.5 105.738281 740.261719 103.5 737.5 103.5 C 734.738281 103.5 732.5 105.738281 732.5 108.5 C 732.5 111.261719 734.738281 113.5 737.5 113.5 C 740.261719 113.5 742.5 111.261719 742.5 108.5 Z M 742.5 108.5 " transform="matrix(1,0,0,-1,0,565)"/>
<path style="fill-rule:nonzero;fill:rgb(100%,0%,0%);fill-opacity:1;stroke-width:1;stroke-linecap:square;stroke-linejoin:miter;stroke:rgb(0%,0%,0%);stroke-opacity:1;stroke-miterlimit:10;" d="M 811.238281 272.511719 C 811.238281 269.75 809.011719 267.511719 806.238281 267.511719 C 803.480469 267.511719 801.238281 269.75 801.238281 272.511719 C 801.238281 275.269531 803.480469 277.511719 806.238281 277.511719 C 809.011719 277.511719 811.238281 275.269531 811.238281 272.511719 Z M 811.238281 272.511719 " transform="matrix(1,0,0,-1,0,565)"/>
<path style=" stroke:none;fill-rule:nonzero;fill:rgb(0%,0%,0%);fill-opacity:1;" d="M 281.660156 330.578125 C 281.019531 330.578125 280.308594 331.019531 280.308594 331.78125 C 280.308594 333.03125 281.421875 333.890625 282.71875 333.890625 C 282.910156 333.890625 283.089844 333.890625 283.21875 333.871094 C 284.078125 333.691406 284.921875 333.109375 285.550781 332.140625 C 286.359375 330.921875 290.058594 320.890625 290.21875 320.71875 C 290.53125 320.140625 291.050781 319.828125 291.921875 319.769531 L 292.308594 319.769531 L 292.308594 318.660156 L 292.078125 318.660156 C 291.769531 318.691406 290.941406 318.699219 290.128906 318.699219 C 289.628906 318.699219 288.300781 318.699219 288.089844 318.660156 L 287.800781 318.660156 L 287.800781 319.769531 L 288.019531 319.769531 C 288.550781 319.769531 288.878906 320.050781 288.878906 320.589844 L 288.878906 320.808594 L 287.828125 323.550781 C 287.21875 325.050781 286.71875 326.28125 286.71875 326.308594 L 286.949219 326.308594 C 286.949219 326.308594 284.558594 320.910156 284.558594 320.171875 C 284.558594 319.828125 285.140625 319.769531 285.558594 319.769531 L 285.910156 319.769531 L 285.910156 318.660156 L 285.589844 318.660156 C 285.328125 318.699219 283.449219 318.730469 282.921875 318.730469 C 282.421875 318.730469 280.890625 318.730469 280.628906 318.660156 L 280.308594 318.660156 L 280.308594 319.769531 L 281.03125 319.769531 C 281.609375 319.769531 281.980469 319.78125 282.160156 320.121094 C 282.199219 320.171875 282.96875 322.199219 283.941406 324.609375 L 285.660156 329 L 285.25 330.03125 C 284.75 331.371094 284.421875 332.480469 283.359375 332.890625 C 283.140625 332.980469 282.878906 333.03125 282.660156 333.03125 C 282.5 333.03125 282.410156 333.019531 282.28125 332.941406 C 282.191406 332.890625 282.191406 332.890625 282.46875 332.75 C 282.550781 332.71875 282.949219 332.230469 282.949219 331.78125 C 282.949219 331.109375 282.328125 330.578125 281.660156 330.578125 Z M 281.660156 330.578125 "/>
<path style=" stroke:none;fill-rule:nonzero;fill:rgb(0%,0%,0%);fill-opacity:1;" d="M 294.199219 323 C 294.199219 323.269531 294.378906 323.390625 294.558594 323.480469 L 301.71875 323.480469 L 301.71875 330.558594 C 301.828125 330.828125 302.078125 330.96875 302.339844 330.96875 C 302.589844 330.96875 302.808594 330.828125 302.941406 330.558594 L 302.941406 323.480469 L 310.058594 323.480469 C 310.25 323.390625 310.449219 323.269531 310.449219 323 C 310.449219 322.730469 310.25 322.609375 310.058594 322.519531 L 302.941406 322.519531 L 302.941406 315.46875 C 302.808594 315.171875 302.578125 315.019531 302.339844 315.019531 C 302.089844 315.019531 301.859375 315.199219 301.730469 315.390625 L 301.71875 318.921875 L 301.71875 322.519531 L 294.558594 322.519531 C 294.378906 322.609375 294.199219 322.730469 294.199219 323 Z M 294.199219 323 "/>
<path style=" stroke:none;fill-rule:nonzero;fill:rgb(0%,0%,0%);fill-opacity:1;" d="M 320.410156 321.691406 C 321.128906 321.691406 321.808594 321.171875 321.808594 320.441406 C 321.808594 320.230469 321.800781 320.03125 321.75 319.871094 C 321.339844 318.621094 319.730469 318.25 318 318.25 C 316.691406 318.25 315.550781 318.699219 314.691406 319.410156 C 313.609375 320.308594 312.890625 321.578125 312.699219 323.078125 C 312.671875 323.230469 312.671875 323.550781 312.671875 323.859375 C 312.671875 324.171875 312.671875 324.480469 312.699219 324.621094 C 313.019531 326.480469 314.050781 327.921875 315.578125 328.71875 C 316.308594 329.089844 317.109375 329.269531 317.96875 329.269531 C 319.421875 329.269531 320.691406 328.640625 321.449219 327.53125 C 321.699219 327.160156 322.078125 326.339844 322.078125 326.121094 C 322.078125 326.050781 321.949219 325.949219 321.910156 325.910156 L 321.480469 325.910156 C 321.078125 325.910156 320.910156 325.921875 320.828125 326.191406 C 320.589844 327.03125 320.089844 327.75 319.46875 328.058594 C 319.160156 328.230469 318.910156 328.300781 318.53125 328.300781 C 317.328125 328.300781 316.519531 327.621094 315.980469 326.839844 C 315.480469 326.078125 315.269531 325.089844 315.269531 323.75 C 315.269531 321.921875 315.53125 320.808594 316.378906 319.96875 C 316.878906 319.421875 317.199219 319.199219 318.191406 319.199219 C 318.589844 319.199219 319.058594 319.25 319.378906 319.300781 C 319.660156 319.359375 319.519531 319.328125 319.378906 319.5 C 319.128906 319.730469 318.980469 320.078125 318.980469 320.410156 C 318.980469 321.078125 319.628906 321.691406 320.410156 321.691406 Z M 320.410156 321.691406 "/>
<path style=" stroke:none;fill-rule:nonzero;fill:rgb(0%,0%,0%);fill-opacity:1;" d="M 330.480469 336 L 330.828125 336 L 330.828125 335.03125 L 329.628906 335.03125 C 329.078125 335.03125 328.800781 335.050781 328.589844 334.828125 L 328.578125 329.441406 L 328.578125 324.050781 C 328.421875 323.921875 328.359375 323.871094 328.128906 323.871094 C 327.96875 323.871094 327.839844 323.910156 327.808594 323.949219 C 327.71875 324.050781 327.410156 324.28125 327.25 324.371094 C 326.578125 324.78125 325.839844 324.980469 324.839844 325.019531 L 324.328125 325.019531 L 324.328125 325.980469 L 324.839844 325.980469 C 325.519531 325.96875 326.171875 325.839844 326.941406 325.558594 C 326.859375 325.589844 326.808594 325.589844 326.671875 325.589844 L 326.671875 334.808594 C 326.589844 334.890625 326.628906 334.949219 326.410156 334.96875 C 326.199219 335.019531 325.578125 335.03125 325.050781 335.03125 L 324.421875 335.03125 L 324.421875 336 L 324.800781 336 C 325.109375 335.949219 327.050781 335.949219 327.628906 335.949219 C 328.199219 335.949219 330.191406 335.949219 330.480469 336 Z M 330.480469 336 "/>
<path style=" stroke:none;fill-rule:nonzero;fill:rgb(0%,0%,0%);fill-opacity:1;" d="M 333.199219 320.671875 C 333.199219 320.949219 333.480469 321.078125 333.730469 321.160156 L 341.359375 321.160156 L 349.089844 321.121094 C 349.25 321.03125 349.449219 320.941406 349.449219 320.671875 C 349.449219 320.410156 349.25 320.28125 349.058594 320.191406 L 333.558594 320.191406 C 333.378906 320.28125 333.199219 320.410156 333.199219 320.671875 Z M 333.199219 325.328125 C 333.199219 325.589844 333.378906 325.71875 333.558594 325.808594 L 349.058594 325.808594 C 349.25 325.71875 349.449219 325.589844 349.449219 325.328125 C 349.449219 325.050781 349.230469 324.96875 349.089844 324.839844 L 333.730469 324.839844 C 333.480469 324.921875 333.199219 325.050781 333.199219 325.328125 Z M 333.199219 325.328125 "/>
<path style=" stroke:none;fill-rule:nonzero;fill:rgb(0%,0%,0%);fill-opacity:1;" d="M 353.191406 314.949219 C 352.160156 316.609375 351.800781 318.390625 351.800781 321.308594 C 351.800781 323.949219 352.109375 325.589844 352.839844 327.019531 C 353.558594 328.421875 355.019531 329.53125 357 329.53125 C 357.699219 329.53125 358.46875 329.359375 359.140625 329.03125 L 359.050781 329.03125 C 359.921875 328.589844 360.640625 327.980469 361.128906 327.019531 L 361.109375 327.019531 C 361.839844 325.589844 362.160156 323.949219 362.160156 321.308594 C 362.160156 318.839844 361.890625 317.230469 361.269531 315.839844 C 360.949219 315.160156 360.589844 314.640625 360.140625 314.21875 C 359.300781 313.449219 358.109375 313.019531 356.96875 313.019531 C 355.378906 313.019531 353.96875 313.808594 353.191406 314.949219 Z M 358.578125 314.671875 C 359.28125 315.390625 359.449219 316.160156 359.519531 318.75 C 359.519531 319.191406 359.550781 320.078125 359.550781 321.019531 C 359.550781 322.328125 359.519531 323.769531 359.5 324.21875 C 359.378906 326.449219 359.199219 327.171875 358.519531 327.890625 C 358.109375 328.359375 357.769531 328.609375 357 328.609375 C 356.230469 328.609375 355.839844 328.359375 355.441406 327.890625 C 354.75 327.171875 354.578125 326.449219 354.449219 324.21875 C 354.441406 323.769531 354.410156 322.328125 354.410156 321.019531 C 354.410156 320.078125 354.441406 319.191406 354.441406 318.75 C 354.5 316.160156 354.671875 315.390625 355.378906 314.671875 C 355.839844 314.171875 356.378906 313.910156 357 313.910156 C 357.75 313.910156 358.160156 314.191406 358.578125 314.671875 Z M 358.578125 314.671875 "/>
<path style=" stroke:none;fill-rule:nonzero;fill:rgb(0%,0%,0%);fill-opacity:1;" d="M 720.78125 75.691406 C 721.550781 75.691406 722.199219 75.078125 722.199219 74.390625 C 722.199219 74 721.941406 73.519531 721.671875 73.371094 C 721.671875 73.199219 722.878906 73.140625 723.160156 73.140625 C 724.359375 73.140625 725.03125 73.808594 725.339844 74.839844 C 725.46875 75.160156 725.480469 75.441406 725.480469 76.050781 L 725.480469 76.558594 L 725.300781 76.558594 C 723.558594 76.660156 722.269531 76.921875 721.128906 77.449219 C 720.519531 77.71875 720.050781 77.949219 719.628906 78.371094 C 719.128906 78.871094 718.671875 79.550781 718.671875 80.441406 C 718.671875 80.75 718.75 81.058594 718.859375 81.339844 C 719.308594 82.519531 720.921875 83.269531 722.558594 83.269531 C 723.589844 83.269531 724.628906 82.921875 725.390625 82.28125 C 725.578125 82.109375 725.828125 81.78125 725.75 81.839844 L 725.75 81.699219 C 725.96875 82.46875 726.769531 83.140625 727.589844 83.140625 C 728.691406 83.140625 729.609375 82.449219 729.878906 81.578125 C 729.921875 81.421875 729.921875 81.371094 729.949219 80.449219 L 729.949219 79.519531 L 728.730469 79.519531 L 728.730469 80.390625 C 728.730469 81.308594 728.730469 81.46875 728.609375 81.699219 L 728.578125 81.699219 C 728.480469 81.921875 728.46875 82.050781 728.269531 82.050781 C 728.078125 82.050781 728.019531 81.921875 727.910156 81.699219 L 727.890625 81.699219 C 727.75 81.421875 727.769531 81.480469 727.769531 78.339844 C 727.769531 75.21875 727.769531 75.269531 727.628906 74.839844 C 727.140625 73.300781 725.378906 72.25 723.230469 72.25 C 721.449219 72.25 719.96875 72.75 719.558594 73.609375 C 719.441406 73.871094 719.378906 74.140625 719.378906 74.390625 C 719.378906 75.078125 720.019531 75.691406 720.78125 75.691406 Z M 725.480469 78.800781 C 725.46875 80.140625 725.46875 80.21875 725.421875 80.390625 C 725.160156 81.441406 724.339844 82.371094 723.019531 82.371094 C 721.890625 82.371094 721.140625 81.53125 721.140625 80.449219 C 721.140625 80.078125 721.21875 79.691406 721.390625 79.371094 C 721.980469 78.25 723.328125 77.578125 725.578125 77.441406 C 725.628906 77.410156 725.699219 77.410156 725.699219 77.410156 L 725.609375 77.410156 C 725.628906 77.410156 725.480469 78.03125 725.480469 78.800781 Z M 725.480469 78.800781 "/>
<path style=" stroke:none;fill-rule:nonzero;fill:rgb(0%,0%,0%);fill-opacity:1;" d="M 731.980469 82.28125 C 732.640625 82.28125 733.199219 81.699219 733.199219 81.121094 C 733.199219 80.558594 732.691406 79.96875 732.050781 79.96875 C 732 79.96875 732.109375 80.050781 732.109375 80.03125 C 732.109375 80.019531 732.140625 79.921875 732.21875 79.78125 C 732.609375 79.199219 733 78.859375 733.808594 78.859375 C 735.359375 78.859375 736.019531 80.058594 736.019531 81.578125 C 736.019531 82.621094 735.671875 83.449219 734.859375 84.550781 C 734.46875 85.050781 734.378906 85.171875 732.339844 87.421875 C 731.53125 88.339844 730.839844 89.121094 730.828125 89.140625 C 730.800781 89.191406 730.730469 89.28125 730.730469 89.589844 L 730.730469 90 L 737.71875 90 L 737.71875 89.839844 C 737.71875 89.808594 738.128906 86.730469 738.21875 86.550781 L 738.21875 86.449219 L 737.199219 86.449219 L 737.199219 86.578125 C 737.058594 87.390625 737.03125 87.550781 736.949219 87.800781 C 736.890625 87.980469 736.980469 88.089844 736.730469 88.191406 C 736.71875 88.199219 735.730469 88.199219 733.921875 88.199219 L 732.769531 88.199219 L 733.699219 87.300781 C 734.941406 86.121094 734.878906 86.191406 735.519531 85.640625 C 736.699219 84.621094 737.160156 84.121094 737.550781 83.578125 C 737.96875 82.941406 738.21875 82.339844 738.21875 81.558594 C 738.21875 81.339844 738.199219 81.121094 738.191406 80.96875 C 737.890625 79.199219 736.339844 77.871094 734.230469 77.871094 C 732.390625 77.871094 730.730469 79.371094 730.730469 81.089844 C 730.730469 81.699219 731.300781 82.28125 731.980469 82.28125 Z M 731.980469 82.28125 "/>
<path style=" stroke:none;fill-rule:nonzero;fill:rgb(0%,0%,0%);fill-opacity:1;" d="M 743.828125 83 L 744.109375 83 L 744.109375 82.449219 C 744.109375 81.921875 743.980469 81.890625 743.941406 81.890625 C 743.609375 81.890625 743.46875 81.578125 743.46875 81.25 C 743.46875 81.121094 743.46875 81.019531 743.53125 80.890625 C 743.609375 80.769531 745.050781 78.828125 744.949219 78.871094 L 745.859375 80.121094 C 746.519531 81.019531 746.800781 81.46875 746.800781 81.480469 C 746.800781 81.691406 746.519531 81.890625 746.160156 81.890625 L 745.941406 81.890625 L 745.941406 83 L 746.300781 83 C 746.578125 82.949219 748.410156 82.921875 748.941406 82.921875 C 749.421875 82.921875 751 82.921875 751.230469 83 L 751.5 83 L 751.5 81.890625 L 750.96875 81.890625 C 750.109375 81.890625 749.660156 81.890625 749.300781 81.53125 C 749.21875 81.46875 748.5 80.480469 747.691406 79.371094 L 746.199219 77.339844 L 746.578125 76.828125 C 746.78125 76.558594 747.199219 76.019531 747.5 75.609375 C 748.230469 74.640625 748.359375 74.410156 748.859375 74.171875 L 748.949219 74.171875 C 749.421875 73.921875 750.160156 73.769531 750.808594 73.769531 L 751.089844 73.769531 L 751.089844 72.660156 L 750.828125 72.660156 C 750.609375 72.730469 749.21875 72.730469 748.800781 72.730469 C 748.339844 72.730469 746.628906 72.699219 746.421875 72.660156 L 746.109375 72.660156 L 746.109375 73.769531 L 746.25 73.769531 C 746.300781 73.78125 746.421875 73.808594 746.480469 73.859375 C 746.691406 73.96875 746.75 74.191406 746.75 74.410156 C 746.75 74.53125 746.75 74.671875 746.609375 74.949219 C 746.628906 74.859375 746.339844 75.269531 746.019531 75.699219 L 745.5 76.421875 C 745.359375 76.25 743.941406 74.230469 743.941406 74.140625 C 743.941406 73.910156 744.300781 73.808594 744.808594 73.769531 L 744.808594 72.660156 L 744.5 72.660156 C 744.359375 72.699219 743.699219 72.699219 743.078125 72.699219 L 742.03125 72.699219 C 741.050781 72.699219 739.980469 72.691406 739.550781 72.660156 L 739.230469 72.660156 L 739.230469 73.769531 L 740.058594 73.769531 C 740.421875 73.78125 740.800781 73.808594 740.921875 73.808594 C 741.191406 73.859375 741.328125 73.96875 741.449219 74.089844 C 741.5 74.140625 742.140625 75.03125 742.910156 76.089844 L 744.300781 77.949219 L 743.199219 79.410156 C 742.589844 80.191406 742.050781 80.910156 741.96875 80.980469 C 741.421875 81.53125 740.699219 81.828125 739.589844 81.890625 L 739.128906 81.890625 L 739.128906 83 L 739.410156 83 C 739.671875 82.921875 740.980469 82.921875 741.449219 82.921875 C 741.910156 82.921875 743.578125 82.949219 743.828125 83 Z M 743.828125 83 "/>
<path style=" stroke:none;fill-rule:nonzero;fill:rgb(0%,0%,0%);fill-opacity:1;" d="M 753.199219 77 C 753.199219 77.269531 753.378906 77.390625 753.558594 77.480469 L 760.71875 77.480469 L 760.71875 84.558594 C 760.828125 84.828125 761.078125 84.96875 761.339844 84.96875 C 761.589844 84.96875 761.808594 84.828125 761.941406 84.558594 L 761.941406 77.480469 L 769.058594 77.480469 C 769.25 77.390625 769.449219 77.269531 769.449219 77 C 769.449219 76.730469 769.25 76.609375 769.058594 76.519531 L 761.941406 76.519531 L 761.941406 69.46875 C 761.808594 69.171875 761.578125 69.019531 761.339844 69.019531 C 761.089844 69.019531 760.859375 69.199219 760.730469 69.390625 L 760.71875 72.921875 L 760.71875 76.519531 L 753.558594 76.519531 C 753.378906 76.609375 753.199219 76.730469 753.199219 77 Z M 753.199219 77 "/>
<path style=" stroke:none;fill-rule:nonzero;fill:rgb(0%,0%,0%);fill-opacity:1;" d="M 773.359375 66.480469 C 772.378906 66.53125 771.550781 66.609375 771.53125 66.609375 C 771.480469 66.609375 771.339844 66.660156 771.339844 67.160156 L 771.339844 67.71875 L 771.910156 67.71875 C 772.96875 67.769531 773.089844 67.910156 773.191406 68.53125 C 773.199219 68.621094 773.199219 71.910156 773.199219 75.839844 L 773.199219 83 L 773.828125 83 L 774.410156 82.96875 L 774.53125 82.769531 C 774.589844 82.640625 774.769531 82.328125 774.890625 82.109375 L 775.058594 81.828125 L 775.078125 81.839844 C 775.78125 82.589844 777.03125 83.269531 778.378906 83.269531 C 781.199219 83.269531 783.21875 81.109375 783.589844 78.660156 C 783.628906 78.46875 783.640625 78.160156 783.640625 77.808594 C 783.640625 74.941406 781.75 72.890625 779.550781 72.46875 C 779.300781 72.421875 779.050781 72.390625 778.75 72.390625 C 777.441406 72.390625 776.089844 72.871094 775.339844 73.5 C 775.269531 73.558594 775.421875 73.609375 775.421875 73.609375 L 775.308594 73.609375 C 775.300781 73.609375 775.421875 71.980469 775.421875 69.96875 L 775.421875 66.339844 L 775.21875 66.339844 C 775.171875 66.339844 774.339844 66.421875 773.359375 66.480469 Z M 778.941406 73.359375 C 779.859375 73.589844 780.441406 74.28125 780.75 75.25 C 780.941406 75.839844 781.03125 76.78125 781.03125 77.910156 C 781.03125 79.050781 780.949219 79.660156 780.75 80.28125 C 780.628906 80.621094 780.578125 80.808594 780.390625 81.078125 C 779.828125 81.890625 779.050781 82.371094 778.078125 82.371094 C 777.839844 82.371094 777.578125 82.359375 777.339844 82.28125 C 776.609375 82.089844 776.050781 81.558594 775.578125 80.808594 L 775.480469 80.71875 L 775.480469 74.808594 L 775.609375 74.671875 C 776.191406 73.871094 777.078125 73.28125 778.199219 73.28125 C 778.46875 73.28125 778.75 73.328125 778.941406 73.359375 Z M 778.941406 73.359375 "/>
<path style=" stroke:none;fill-rule:nonzero;fill:rgb(0%,0%,0%);fill-opacity:1;" d="M 785.980469 82.28125 C 786.640625 82.28125 787.199219 81.699219 787.199219 81.121094 C 787.199219 80.558594 786.691406 79.96875 786.050781 79.96875 C 786 79.96875 786.109375 80.050781 786.109375 80.03125 C 786.109375 80.019531 786.140625 79.921875 786.21875 79.78125 C 786.609375 79.199219 787 78.859375 787.808594 78.859375 C 789.359375 78.859375 790.019531 80.058594 790.019531 81.578125 C 790.019531 82.621094 789.671875 83.449219 788.859375 84.550781 C 788.46875 85.050781 788.378906 85.171875 786.339844 87.421875 C 785.53125 88.339844 784.839844 89.121094 784.828125 89.140625 C 784.800781 89.191406 784.730469 89.28125 784.730469 89.589844 L 784.730469 90 L 791.71875 90 L 791.71875 89.839844 C 791.71875 89.808594 792.128906 86.730469 792.21875 86.550781 L 792.21875 86.449219 L 791.199219 86.449219 L 791.199219 86.578125 C 791.058594 87.390625 791.03125 87.550781 790.949219 87.800781 C 790.890625 87.980469 790.980469 88.089844 790.730469 88.191406 C 790.71875 88.199219 789.730469 88.199219 787.921875 88.199219 L 786.769531 88.199219 L 787.699219 87.300781 C 788.941406 86.121094 788.878906 86.191406 789.519531 85.640625 C 790.699219 84.621094 791.160156 84.121094 791.550781 83.578125 C 791.96875 82.941406 792.21875 82.339844 792.21875 81.558594 C 792.21875 81.339844 792.199219 81.121094 792.191406 80.96875 C 791.890625 79.199219 790.339844 77.871094 788.230469 77.871094 C 786.390625 77.871094 784.730469 79.371094 784.730469 81.089844 C 784.730469 81.699219 785.300781 82.28125 785.980469 82.28125 Z M 785.980469 82.28125 "/>
<path style=" stroke:none;fill-rule:nonzero;fill:rgb(0%,0%,0%);fill-opacity:1;" d="M 794.660156 84.578125 C 794.019531 84.578125 793.308594 85.019531 793.308594 85.78125 C 793.308594 87.03125 794.421875 87.890625 795.71875 87.890625 C 795.910156 87.890625 796.089844 87.890625 796.21875 87.871094 C 797.078125 87.691406 797.921875 87.109375 798.550781 86.140625 C 799.359375 84.921875 803.058594 74.890625 803.21875 74.71875 C 803.53125 74.140625 804.050781 73.828125 804.921875 73.769531 L 805.308594 73.769531 L 805.308594 72.660156 L 805.078125 72.660156 C 804.769531 72.691406 803.941406 72.699219 803.128906 72.699219 C 802.628906 72.699219 801.300781 72.699219 801.089844 72.660156 L 800.800781 72.660156 L 800.800781 73.769531 L 801.019531 73.769531 C 801.550781 73.769531 801.878906 74.050781 801.878906 74.589844 L 801.878906 74.808594 L 800.828125 77.550781 C 800.21875 79.050781 799.71875 80.28125 799.71875 80.308594 L 799.949219 80.308594 C 799.949219 80.308594 797.558594 74.910156 797.558594 74.171875 C 797.558594 73.828125 798.140625 73.769531 798.558594 73.769531 L 798.910156 73.769531 L 798.910156 72.660156 L 798.589844 72.660156 C 798.328125 72.699219 796.449219 72.730469 795.921875 72.730469 C 795.421875 72.730469 793.890625 72.730469 793.628906 72.660156 L 793.308594 72.660156 L 793.308594 73.769531 L 794.03125 73.769531 C 794.609375 73.769531 794.980469 73.78125 795.160156 74.121094 C 795.199219 74.171875 795.96875 76.199219 796.941406 78.609375 L 798.660156 83 L 798.25 84.03125 C 797.75 85.371094 797.421875 86.480469 796.359375 86.890625 C 796.140625 86.980469 795.878906 87.03125 795.660156 87.03125 C 795.5 87.03125 795.410156 87.019531 795.28125 86.941406 C 795.191406 86.890625 795.191406 86.890625 795.46875 86.75 C 795.550781 86.71875 795.949219 86.230469 795.949219 85.78125 C 795.949219 85.109375 795.328125 84.578125 794.660156 84.578125 Z M 794.660156 84.578125 "/>
<path style=" stroke:none;fill-rule:nonzero;fill:rgb(0%,0%,0%);fill-opacity:1;" d="M 807.199219 77 C 807.199219 77.269531 807.378906 77.390625 807.558594 77.480469 L 814.71875 77.480469 L 814.71875 84.558594 C 814.828125 84.828125 815.078125 84.96875 815.339844 84.96875 C 815.589844 84.96875 815.808594 84.828125 815.941406 84.558594 L 815.941406 77.480469 L 823.058594 77.480469 C 823.25 77.390625 823.449219 77.269531 823.449219 77 C 823.449219 76.730469 823.25 76.609375 823.058594 76.519531 L 815.941406 76.519531 L 815.941406 69.46875 C 815.808594 69.171875 815.578125 69.019531 815.339844 69.019531 C 815.089844 69.019531 814.859375 69.199219 814.730469 69.390625 L 814.71875 72.921875 L 814.71875 76.519531 L 807.558594 76.519531 C 807.378906 76.609375 807.199219 76.730469 807.199219 77 Z M 807.199219 77 "/>
<path style=" stroke:none;fill-rule:nonzero;fill:rgb(0%,0%,0%);fill-opacity:1;" d="M 833.410156 75.691406 C 834.128906 75.691406 834.808594 75.171875 834.808594 74.441406 C 834.808594 74.230469 834.800781 74.03125 834.75 73.871094 C 834.339844 72.621094 832.730469 72.25 831 72.25 C 829.691406 72.25 828.550781 72.699219 827.691406 73.410156 C 826.609375 74.308594 825.890625 75.578125 825.699219 77.078125 C 825.671875 77.230469 825.671875 77.550781 825.671875 77.859375 C 825.671875 78.171875 825.671875 78.480469 825.699219 78.621094 C 826.019531 80.480469 827.050781 81.921875 828.578125 82.71875 C 829.308594 83.089844 830.109375 83.269531 830.96875 83.269531 C 832.421875 83.269531 833.691406 82.640625 834.449219 81.53125 C 834.699219 81.160156 835.078125 80.339844 835.078125 80.121094 C 835.078125 80.050781 834.949219 79.949219 834.910156 79.910156 L 834.480469 79.910156 C 834.078125 79.910156 833.910156 79.921875 833.828125 80.191406 C 833.589844 81.03125 833.089844 81.75 832.46875 82.058594 C 832.160156 82.230469 831.910156 82.300781 831.53125 82.300781 C 830.328125 82.300781 829.519531 81.621094 828.980469 80.839844 C 828.480469 80.078125 828.269531 79.089844 828.269531 77.75 C 828.269531 75.921875 828.53125 74.808594 829.378906 73.96875 C 829.878906 73.421875 830.199219 73.199219 831.191406 73.199219 C 831.589844 73.199219 832.058594 73.25 832.378906 73.300781 C 832.660156 73.359375 832.519531 73.328125 832.378906 73.5 C 832.128906 73.730469 831.980469 74.078125 831.980469 74.410156 C 831.980469 75.078125 832.628906 75.691406 833.410156 75.691406 Z M 833.410156 75.691406 "/>
<path style=" stroke:none;fill-rule:nonzero;fill:rgb(0%,0%,0%);fill-opacity:1;" d="M 837.980469 82.28125 C 838.640625 82.28125 839.199219 81.699219 839.199219 81.121094 C 839.199219 80.558594 838.691406 79.96875 838.050781 79.96875 C 838 79.96875 838.109375 80.050781 838.109375 80.03125 C 838.109375 80.019531 838.140625 79.921875 838.21875 79.78125 C 838.609375 79.199219 839 78.859375 839.808594 78.859375 C 841.359375 78.859375 842.019531 80.058594 842.019531 81.578125 C 842.019531 82.621094 841.671875 83.449219 840.859375 84.550781 C 840.46875 85.050781 840.378906 85.171875 838.339844 87.421875 C 837.53125 88.339844 836.839844 89.121094 836.828125 89.140625 C 836.800781 89.191406 836.730469 89.28125 836.730469 89.589844 L 836.730469 90 L 843.71875 90 L 843.71875 89.839844 C 843.71875 89.808594 844.128906 86.730469 844.21875 86.550781 L 844.21875 86.449219 L 843.199219 86.449219 L 843.199219 86.578125 C 843.058594 87.390625 843.03125 87.550781 842.949219 87.800781 C 842.890625 87.980469 842.980469 88.089844 842.730469 88.191406 C 842.71875 88.199219 841.730469 88.199219 839.921875 88.199219 L 838.769531 88.199219 L 839.699219 87.300781 C 840.941406 86.121094 840.878906 86.191406 841.519531 85.640625 C 842.699219 84.621094 843.160156 84.121094 843.550781 83.578125 C 843.96875 82.941406 844.21875 82.339844 844.21875 81.558594 C 844.21875 81.339844 844.199219 81.121094 844.191406 80.96875 C 843.890625 79.199219 842.339844 77.871094 840.230469 77.871094 C 838.390625 77.871094 836.730469 79.371094 836.730469 81.089844 C 836.730469 81.699219 837.300781 82.28125 837.980469 82.28125 Z M 837.980469 82.28125 "/>
<path style=" stroke:none;fill-rule:nonzero;fill:rgb(0%,0%,0%);fill-opacity:1;" d="M 846.199219 74.671875 C 846.199219 74.949219 846.480469 75.078125 846.730469 75.160156 L 854.359375 75.160156 L 862.089844 75.121094 C 862.25 75.03125 862.449219 74.941406 862.449219 74.671875 C 862.449219 74.410156 862.25 74.28125 862.058594 74.191406 L 846.558594 74.191406 C 846.378906 74.28125 846.199219 74.410156 846.199219 74.671875 Z M 846.199219 79.328125 C 846.199219 79.589844 846.378906 79.71875 846.558594 79.808594 L 862.058594 79.808594 C 862.25 79.71875 862.449219 79.589844 862.449219 79.328125 C 862.449219 79.050781 862.230469 78.96875 862.089844 78.839844 L 846.730469 78.839844 C 846.480469 78.921875 846.199219 79.050781 846.199219 79.328125 Z M 846.199219 79.328125 "/>
<path style=" stroke:none;fill-rule:nonzero;fill:rgb(0%,0%,0%);fill-opacity:1;" d="M 866.191406 68.949219 C 865.160156 70.609375 864.800781 72.390625 864.800781 75.308594 C 864.800781 77.949219 865.109375 79.589844 865.839844 81.019531 C 866.558594 82.421875 868.019531 83.53125 870 83.53125 C 870.699219 83.53125 871.46875 83.359375 872.140625 83.03125 L 872.050781 83.03125 C 872.921875 82.589844 873.640625 81.980469 874.128906 81.019531 L 874.109375 81.019531 C 874.839844 79.589844 875.160156 77.949219 875.160156 75.308594 C 875.160156 72.839844 874.890625 71.230469 874.269531 69.839844 C 873.949219 69.160156 873.589844 68.640625 873.140625 68.21875 C 872.300781 67.449219 871.109375 67.019531 869.96875 67.019531 C 868.378906 67.019531 866.96875 67.808594 866.191406 68.949219 Z M 871.578125 68.671875 C 872.28125 69.390625 872.449219 70.160156 872.519531 72.75 C 872.519531 73.191406 872.550781 74.078125 872.550781 75.019531 C 872.550781 76.328125 872.519531 77.769531 872.5 78.21875 C 872.378906 80.449219 872.199219 81.171875 871.519531 81.890625 C 871.109375 82.359375 870.769531 82.609375 870 82.609375 C 869.230469 82.609375 868.839844 82.359375 868.441406 81.890625 C 867.75 81.171875 867.578125 80.449219 867.449219 78.21875 C 867.441406 77.769531 867.410156 76.328125 867.410156 75.019531 C 867.410156 74.078125 867.441406 73.191406 867.441406 72.75 C 867.5 70.160156 867.671875 69.390625 868.378906 68.671875 C 868.839844 68.171875 869.378906 67.910156 870 67.910156 C 870.75 67.910156 871.160156 68.191406 871.578125 68.671875 Z M 871.578125 68.671875 "/>
</g>
</svg>
