<svg version="1.1" xmlns="http://www.w3.org/2000/svg" xmlns:xlink="http://www.w3.org/1999/xlink" width="1310" height="704"><defs><clipPath id="uesGHJCHRbVG"><path fill="none" stroke="none" d=" M 0 0 L 1310 0 L 1310 704 L 0 704 L 0 0 Z"/></clipPath></defs><g transform="scale(1,1)" clip-path="url(#uesGHJCHRbVG)"><g><rect fill="rgb(255,255,255)" stroke="none" x="0" y="0" width="1310" height="704" fill-opacity="1"/><path fill="none" stroke="rgb(0,0,0)" paint-order="fill stroke markers" d=" M 948.4278842655914 365.81354849076695 C 948.4278842655914 534.1782546568381 811.9413226433446 670.6648162790847 643.576616477273 670.6648162790847 C 475.21191031120134 670.6648162790847 338.72534868895457 534.1782546568381 338.72534868895457 365.81354849076695 C 338.72534868895457 197.4488423246957 475.21191031120134 60.96228070244922 643.576616477273 60.96228070244922 C 811.9413226433446 60.96228070244922 948.4278842655914 197.4488423246957 948.4278842655914 365.81354849076695 Z" stroke-opacity="0.6980392156862745" stroke-linecap="round" stroke-linejoin="round" stroke-miterlimit="10" stroke-width="2.5"/><path fill="none" stroke="rgb(0,0,0)" paint-order="fill stroke markers" d=" M 396.3856744748736 544.2258060968835 L 891.10275806166 543.7604639023326" stroke-opacity="0.6980392156862745" stroke-linecap="round" stroke-linejoin="round" stroke-miterlimit="10" stroke-width="2.5"/><path fill="none" stroke="rgb(0,0,0)" paint-order="fill stroke markers" d=" M 648.7442140563398 543.9884318874241 L 643.7498600028875 549.9931323452959" stroke-opacity="0.6980392156862745" stroke-linecap="round" stroke-linejoin="round" stroke-miterlimit="10" stroke-width="2.5"/><path fill="none" stroke="rgb(0,0,0)" paint-order="fill stroke markers" d=" M 648.7442140563398 543.9884318874241 L 643.738572533646 537.9931376539204" stroke-opacity="0.6980392156862745" stroke-linecap="round" stroke-linejoin="round" stroke-miterlimit="10" stroke-width="2.5"/><path fill="none" stroke="rgb(0,0,0)" paint-order="fill stroke markers" d=" M 493.16049579122614 100.65456578434373 L 793.4936422395757 100.37206556330551" stroke-opacity="0.6980392156862745" stroke-linecap="round" stroke-linejoin="round" stroke-miterlimit="10" stroke-width="2.5"/><path fill="none" stroke="rgb(0,0,0)" paint-order="fill stroke markers" d=" M 648.3270668034739 100.50861256164062 L 643.3327127500216 106.51331301951232" stroke-opacity="0.6980392156862745" stroke-linecap="round" stroke-linejoin="round" stroke-miterlimit="10" stroke-width="2.5"/><path fill="none" stroke="rgb(0,0,0)" paint-order="fill stroke markers" d=" M 648.3270668034739 100.50861256164062 L 643.3214252807801 94.51331832813692" stroke-opacity="0.6980392156862745" stroke-linecap="round" stroke-linejoin="round" stroke-miterlimit="10" stroke-width="2.5"/><path fill="none" stroke="rgb(0,0,0)" paint-order="fill stroke markers" d=" M 493.16049579122614 100.65456578434373 L 396.3856744748736 544.2258060968835" stroke-opacity="0.6980392156862745" stroke-linecap="round" stroke-linejoin="round" stroke-miterlimit="10" stroke-width="2.5"/><path fill="none" stroke="rgb(0,0,0)" paint-order="fill stroke markers" d=" M 793.4936422395757 100.37206556330551 L 891.10275806166 543.7604639023326" stroke-opacity="0.6980392156862745" stroke-linecap="round" stroke-linejoin="round" stroke-miterlimit="10" stroke-width="2.5"/><path fill="rgb(21,101,192)" stroke="none" paint-order="stroke fill markers" d=" M 648.576616477273 365.81354849076695 C 648.576616477273 368.5749722399209 646.338040226427 370.81354849076695 643.576616477273 370.81354849076695 C 640.815192728119 370.81354849076695 638.576616477273 368.5749722399209 638.576616477273 365.81354849076695 C 638.576616477273 363.052124741613 640.815192728119 360.81354849076695 643.576616477273 360.81354849076695 C 646.338040226427 360.81354849076695 648.576616477273 363.052124741613 648.576616477273 365.81354849076695 Z" fill-opacity="1"/><path fill="none" stroke="rgb(0,0,0)" paint-order="fill stroke markers" d=" M 648.576616477273 365.81354849076695 C 648.576616477273 368.5749722399209 646.338040226427 370.81354849076695 643.576616477273 370.81354849076695 C 640.815192728119 370.81354849076695 638.576616477273 368.5749722399209 638.576616477273 365.81354849076695 C 638.576616477273 363.052124741613 640.815192728119 360.81354849076695 643.576616477273 360.81354849076695 C 646.338040226427 360.81354849076695 648.576616477273 363.052124741613 648.576616477273 365.81354849076695 Z" stroke-opacity="1" stroke-linecap="round" stroke-linejoin="round" stroke-miterlimit="10"/><path fill="rgb(21,101,192)" stroke="none" paint-order="stroke fill markers" d=" M 401.3856744748736 544.2258060968835 C 401.3856744748736 546.9872298460375 399.14709822402756 549.2258060968835 396.3856744748736 549.2258060968835 C 393.62425072571966 549.2258060968835 391.3856744748736 546.9872298460375 391.3856744748736 544.2258060968835 C 391.3856744748736 541.4643823477295 393.62425072571966 539.2258060968835 396.3856744748736 539.2258060968835 C 399.14709822402756 539.2258060968835 401.3856744748736 541.4643823477295 401.3856744748736 544.2258060968835 Z" fill-opacity="1"/><path fill="none" stroke="rgb(0,0,0)" paint-order="fill stroke markers" d=" M 401.3856744748736 544.2258060968835 C 401.3856744748736 546.9872298460375 399.14709822402756 549.2258060968835 396.3856744748736 549.2258060968835 C 393.62425072571966 549.2258060968835 391.3856744748736 546.9872298460375 391.3856744748736 544.2258060968835 C 391.3856744748736 541.4643823477295 393.62425072571966 539.2258060968835 396.3856744748736 539.2258060968835 C 399.14709822402756 539.2258060968835 401.3856744748736 541.4643823477295 401.3856744748736 544.2258060968835 Z" stroke-opacity="1" stroke-linecap="round" stroke-linejoin="round" stroke-miterlimit="10"/><text fill="rgb(21,101,192)" stroke="none" font-family="geogebra-sans-serif, sans-serif" font-size="24px" font-style="normal" font-weight="normal" text-decoration="normal" x="358" y="573" text-anchor="start" dominant-baseline="alphabetic" fill-opacity="1">A</text><text fill="none" stroke="rgb(255,255,255)" font-family="geogebra-sans-serif, sans-serif" font-size="24px" font-style="normal" font-weight="normal" text-decoration="normal" x="358" y="573" text-anchor="start" dominant-baseline="alphabetic" stroke-opacity="1" stroke-linejoin="bevel" stroke-miterlimit="10" stroke-width="3">A</text><text fill="rgb(21,101,192)" stroke="none" font-family="geogebra-sans-serif, sans-serif" font-size="24px" font-style="normal" font-weight="normal" text-decoration="normal" x="358" y="573" text-anchor="start" dominant-baseline="alphabetic" fill-opacity="1">A</text><path fill="rgb(21,101,192)" stroke="none" paint-order="stroke fill markers" d=" M 896.10275806166 543.7604639023326 C 896.10275806166 546.5218876514866 893.864181810814 548.7604639023326 891.10275806166 548.7604639023326 C 888.341334312506 548.7604639023326 886.10275806166 546.5218876514866 886.10275806166 543.7604639023326 C 886.10275806166 540.9990401531786 888.341334312506 538.7604639023326 891.10275806166 538.7604639023326 C 893.864181810814 538.7604639023326 896.10275806166 540.9990401531786 896.10275806166 543.7604639023326 Z" fill-opacity="1"/><path fill="none" stroke="rgb(0,0,0)" paint-order="fill stroke markers" d=" M 896.10275806166 543.7604639023326 C 896.10275806166 546.5218876514866 893.864181810814 548.7604639023326 891.10275806166 548.7604639023326 C 888.341334312506 548.7604639023326 886.10275806166 546.5218876514866 886.10275806166 543.7604639023326 C 886.10275806166 540.9990401531786 888.341334312506 538.7604639023326 891.10275806166 538.7604639023326 C 893.864181810814 538.7604639023326 896.10275806166 540.9990401531786 896.10275806166 543.7604639023326 Z" stroke-opacity="1" stroke-linecap="round" stroke-linejoin="round" stroke-miterlimit="10"/><text fill="rgb(21,101,192)" stroke="none" font-family="geogebra-sans-serif, sans-serif" font-size="24px" font-style="normal" font-weight="normal" text-decoration="normal" x="915" y="576" text-anchor="start" dominant-baseline="alphabetic" fill-opacity="1">B</text><text fill="none" stroke="rgb(255,255,255)" font-family="geogebra-sans-serif, sans-serif" font-size="24px" font-style="normal" font-weight="normal" text-decoration="normal" x="915" y="576" text-anchor="start" dominant-baseline="alphabetic" stroke-opacity="1" stroke-linejoin="bevel" stroke-miterlimit="10" stroke-width="3">B</text><text fill="rgb(21,101,192)" stroke="none" font-family="geogebra-sans-serif, sans-serif" font-size="24px" font-style="normal" font-weight="normal" text-decoration="normal" x="915" y="576" text-anchor="start" dominant-baseline="alphabetic" fill-opacity="1">B</text><path fill="rgb(21,101,192)" stroke="none" paint-order="stroke fill markers" d=" M 498.16049579122614 100.65456578434373 C 498.16049579122614 103.4159895334977 495.9219195403801 105.65456578434373 493.16049579122614 105.65456578434373 C 490.3990720420722 105.65456578434373 488.16049579122614 103.4159895334977 488.16049579122614 100.65456578434373 C 488.16049579122614 97.89314203518977 490.3990720420722 95.65456578434373 493.16049579122614 95.65456578434373 C 495.9219195403801 95.65456578434373 498.16049579122614 97.89314203518977 498.16049579122614 100.65456578434373 Z" fill-opacity="1"/><path fill="none" stroke="rgb(0,0,0)" paint-order="fill stroke markers" d=" M 498.16049579122614 100.65456578434373 C 498.16049579122614 103.4159895334977 495.9219195403801 105.65456578434373 493.16049579122614 105.65456578434373 C 490.3990720420722 105.65456578434373 488.16049579122614 103.4159895334977 488.16049579122614 100.65456578434373 C 488.16049579122614 97.89314203518977 490.3990720420722 95.65456578434373 493.16049579122614 95.65456578434373 C 495.9219195403801 95.65456578434373 498.16049579122614 97.89314203518977 498.16049579122614 100.65456578434373 Z" stroke-opacity="1" stroke-linecap="round" stroke-linejoin="round" stroke-miterlimit="10"/><text fill="rgb(21,101,192)" stroke="none" font-family="geogebra-sans-serif, sans-serif" font-size="24px" font-style="normal" font-weight="normal" text-decoration="normal" x="460" y="82" text-anchor="start" dominant-baseline="alphabetic" fill-opacity="1">D</text><text fill="none" stroke="rgb(255,255,255)" font-family="geogebra-sans-serif, sans-serif" font-size="24px" font-style="normal" font-weight="normal" text-decoration="normal" x="460" y="82" text-anchor="start" dominant-baseline="alphabetic" stroke-opacity="1" stroke-linejoin="bevel" stroke-miterlimit="10" stroke-width="3">D</text><text fill="rgb(21,101,192)" stroke="none" font-family="geogebra-sans-serif, sans-serif" font-size="24px" font-style="normal" font-weight="normal" text-decoration="normal" x="460" y="82" text-anchor="start" dominant-baseline="alphabetic" fill-opacity="1">D</text><path fill="rgb(21,101,192)" stroke="none" paint-order="stroke fill markers" d=" M 798.4936422395757 100.37206556330551 C 798.4936422395757 103.13348931245947 796.2550659887297 105.37206556330551 793.4936422395757 105.37206556330551 C 790.7322184904217 105.37206556330551 788.4936422395757 103.13348931245947 788.4936422395757 100.37206556330551 C 788.4936422395757 97.61064181415155 790.7322184904217 95.37206556330551 793.4936422395757 95.37206556330551 C 796.2550659887297 95.37206556330551 798.4936422395757 97.61064181415155 798.4936422395757 100.37206556330551 Z" fill-opacity="1"/><path fill="none" stroke="rgb(0,0,0)" paint-order="fill stroke markers" d=" M 798.4936422395757 100.37206556330551 C 798.4936422395757 103.13348931245947 796.2550659887297 105.37206556330551 793.4936422395757 105.37206556330551 C 790.7322184904217 105.37206556330551 788.4936422395757 103.13348931245947 788.4936422395757 100.37206556330551 C 788.4936422395757 97.61064181415155 790.7322184904217 95.37206556330551 793.4936422395757 95.37206556330551 C 796.2550659887297 95.37206556330551 798.4936422395757 97.61064181415155 798.4936422395757 100.37206556330551 Z" stroke-opacity="1" stroke-linecap="round" stroke-linejoin="round" stroke-miterlimit="10"/><text fill="rgb(21,101,192)" stroke="none" font-family="geogebra-sans-serif, sans-serif" font-size="24px" font-style="normal" font-weight="normal" text-decoration="normal" x="807" y="79" text-anchor="start" dominant-baseline="alphabetic" fill-opacity="1">C</text><text fill="none" stroke="rgb(255,255,255)" font-family="geogebra-sans-serif, sans-serif" font-size="24px" font-style="normal" font-weight="normal" text-decoration="normal" x="807" y="79" text-anchor="start" dominant-baseline="alphabetic" stroke-opacity="1" stroke-linejoin="bevel" stroke-miterlimit="10" stroke-width="3">C</text><text fill="rgb(21,101,192)" stroke="none" font-family="geogebra-sans-serif, sans-serif" font-size="24px" font-style="normal" font-weight="normal" text-decoration="normal" x="807" y="79" text-anchor="start" dominant-baseline="alphabetic" fill-opacity="1">C</text></g></g></svg>