<svg version="1.1" xmlns="http://www.w3.org/2000/svg" xmlns:xlink="http://www.w3.org/1999/xlink" width="1310" height="704"><defs><clipPath id="RqzaXzHWAHKb"><path fill="none" stroke="none" d=" M 0 0 L 1310 0 L 1310 704 L 0 704 L 0 0 Z"/></clipPath></defs><g transform="scale(1,1)" clip-path="url(#RqzaXzHWAHKb)"><g><rect fill="rgb(255,255,255)" stroke="none" x="0" y="0" width="1310" height="704" fill-opacity="1"/><path fill="none" stroke="rgb(0,0,0)" paint-order="fill stroke markers" d=" M 968.4278842655914 375.8135484907671 C 968.4278842655914 544.1782546568384 831.9413226433446 680.664816279085 663.5766164772731 680.664816279085 C 495.21191031120156 680.664816279085 358.7253486889548 544.1782546568384 358.7253486889548 375.8135484907671 C 358.7253486889548 207.44884232469582 495.21191031120156 70.96228070244928 663.5766164772731 70.96228070244928 C 831.9413226433446 70.96228070244928 968.4278842655914 207.44884232469582 968.4278842655914 375.8135484907671 Z" stroke-opacity="0.6980392156862745" stroke-linecap="round" stroke-linejoin="round" stroke-miterlimit="10" stroke-width="2.5"/><path fill="rgb(0,0,0)" stroke="none" paint-order="stroke fill markers" fill-rule="evenodd" d=" M 663.7442162682669 553.9931349996083 L 684.9574103194508 553.9731813845003 L 684.9374567043443 532.759987333315 L 663.7242626531589 532.7799409484244 L 663.7442162682669 553.9931349996083" fill-opacity="0.09803921568627451"/><path fill="none" stroke="rgb(0,0,0)" paint-order="fill stroke markers" d=" M 663.7442162682669 553.9931349996083 L 684.9574103194508 553.9731813845003 L 684.9374567043443 532.759987333315 L 663.7242626531589 532.7799409484244 L 663.7442162682669 553.9931349996083" stroke-opacity="0.6" stroke-linecap="round" stroke-linejoin="round" stroke-miterlimit="10" stroke-width="2.5"/><path fill="rgb(0,0,0)" stroke="none" paint-order="stroke fill markers" fill-rule="evenodd" d=" M 663.3270690154009 110.51331567382465 L 663.3470226305088 131.7265097250085 L 684.5602166816941 131.706556109902 L 684.5402630665848 110.49336205871671 L 663.3270690154009 110.51331567382465" fill-opacity="0.09803921568627451"/><path fill="none" stroke="rgb(0,0,0)" paint-order="fill stroke markers" d=" M 663.3270690154009 110.51331567382465 L 663.3470226305088 131.7265097250085 L 684.5602166816941 131.706556109902 L 684.5402630665848 110.49336205871671 L 663.3270690154009 110.51331567382465" stroke-opacity="0.6" stroke-linecap="round" stroke-linejoin="round" stroke-miterlimit="10" stroke-width="2.5"/><path fill="none" stroke="rgb(0,0,0)" paint-order="fill stroke markers" d=" M 663.8900192678456 709 L 663.2184145508618 -5" stroke-opacity="0.6980392156862745" stroke-linecap="round" stroke-linejoin="round" stroke-miterlimit="10" stroke-width="2.5"/><path fill="none" stroke="rgb(0,0,0)" paint-order="fill stroke markers" d=" M 416.38567447487384 554.2258060968837 L 911.10275806166 553.7604639023327" stroke-opacity="0.6980392156862745" stroke-linecap="round" stroke-linejoin="round" stroke-miterlimit="10" stroke-width="2.5"/><path fill="none" stroke="rgb(0,0,0)" paint-order="fill stroke markers" d=" M 513.1604957912264 110.65456578434373 L 813.4936422395758 110.37206556330557" stroke-opacity="0.6980392156862745" stroke-linecap="round" stroke-linejoin="round" stroke-miterlimit="10" stroke-width="2.5"/><path fill="none" stroke="rgb(0,0,0)" paint-order="fill stroke markers" d=" M 513.1604957912264 110.65456578434373 L 416.38567447487384 554.2258060968837" stroke-opacity="0.6980392156862745" stroke-linecap="round" stroke-linejoin="round" stroke-miterlimit="10" stroke-width="2.5"/><path fill="none" stroke="rgb(0,0,0)" paint-order="fill stroke markers" d=" M 813.4936422395758 110.37206556330557 L 911.10275806166 553.7604639023327" stroke-opacity="0.6980392156862745" stroke-linecap="round" stroke-linejoin="round" stroke-miterlimit="10" stroke-width="2.5"/><path fill="rgb(21,101,192)" stroke="none" paint-order="stroke fill markers" d=" M 668.5766164772731 375.8135484907671 C 668.5766164772731 378.57497223992107 666.3380402264271 380.8135484907671 663.5766164772731 380.8135484907671 C 660.8151927281191 380.8135484907671 658.5766164772731 378.57497223992107 658.5766164772731 375.8135484907671 C 658.5766164772731 373.05212474161317 660.8151927281191 370.8135484907671 663.5766164772731 370.8135484907671 C 666.3380402264271 370.8135484907671 668.5766164772731 373.05212474161317 668.5766164772731 375.8135484907671 Z" fill-opacity="1"/><path fill="none" stroke="rgb(0,0,0)" paint-order="fill stroke markers" d=" M 668.5766164772731 375.8135484907671 C 668.5766164772731 378.57497223992107 666.3380402264271 380.8135484907671 663.5766164772731 380.8135484907671 C 660.8151927281191 380.8135484907671 658.5766164772731 378.57497223992107 658.5766164772731 375.8135484907671 C 658.5766164772731 373.05212474161317 660.8151927281191 370.8135484907671 663.5766164772731 370.8135484907671 C 666.3380402264271 370.8135484907671 668.5766164772731 373.05212474161317 668.5766164772731 375.8135484907671 Z" stroke-opacity="1" stroke-linecap="round" stroke-linejoin="round" stroke-miterlimit="10"/><path fill="rgb(21,101,192)" stroke="none" paint-order="stroke fill markers" d=" M 421.38567447487384 554.2258060968837 C 421.38567447487384 556.9872298460377 419.1470982240278 559.2258060968837 416.38567447487384 559.2258060968837 C 413.6242507257199 559.2258060968837 411.38567447487384 556.9872298460377 411.38567447487384 554.2258060968837 C 411.38567447487384 551.4643823477297 413.6242507257199 549.2258060968837 416.38567447487384 549.2258060968837 C 419.1470982240278 549.2258060968837 421.38567447487384 551.4643823477297 421.38567447487384 554.2258060968837 Z" fill-opacity="1"/><path fill="none" stroke="rgb(0,0,0)" paint-order="fill stroke markers" d=" M 421.38567447487384 554.2258060968837 C 421.38567447487384 556.9872298460377 419.1470982240278 559.2258060968837 416.38567447487384 559.2258060968837 C 413.6242507257199 559.2258060968837 411.38567447487384 556.9872298460377 411.38567447487384 554.2258060968837 C 411.38567447487384 551.4643823477297 413.6242507257199 549.2258060968837 416.38567447487384 549.2258060968837 C 419.1470982240278 549.2258060968837 421.38567447487384 551.4643823477297 421.38567447487384 554.2258060968837 Z" stroke-opacity="1" stroke-linecap="round" stroke-linejoin="round" stroke-miterlimit="10"/><text fill="rgb(21,101,192)" stroke="none" font-family="geogebra-sans-serif, sans-serif" font-size="24px" font-style="normal" font-weight="normal" text-decoration="normal" x="378" y="583" text-anchor="start" dominant-baseline="alphabetic" fill-opacity="1">A</text><text fill="none" stroke="rgb(255,255,255)" font-family="geogebra-sans-serif, sans-serif" font-size="24px" font-style="normal" font-weight="normal" text-decoration="normal" x="378" y="583" text-anchor="start" dominant-baseline="alphabetic" stroke-opacity="1" stroke-linejoin="bevel" stroke-miterlimit="10" stroke-width="3">A</text><text fill="rgb(21,101,192)" stroke="none" font-family="geogebra-sans-serif, sans-serif" font-size="24px" font-style="normal" font-weight="normal" text-decoration="normal" x="378" y="583" text-anchor="start" dominant-baseline="alphabetic" fill-opacity="1">A</text><path fill="rgb(21,101,192)" stroke="none" paint-order="stroke fill markers" d=" M 916.10275806166 553.7604639023327 C 916.10275806166 556.5218876514867 913.864181810814 558.7604639023327 911.10275806166 558.7604639023327 C 908.341334312506 558.7604639023327 906.10275806166 556.5218876514867 906.10275806166 553.7604639023327 C 906.10275806166 550.9990401531787 908.341334312506 548.7604639023327 911.10275806166 548.7604639023327 C 913.864181810814 548.7604639023327 916.10275806166 550.9990401531787 916.10275806166 553.7604639023327 Z" fill-opacity="1"/><path fill="none" stroke="rgb(0,0,0)" paint-order="fill stroke markers" d=" M 916.10275806166 553.7604639023327 C 916.10275806166 556.5218876514867 913.864181810814 558.7604639023327 911.10275806166 558.7604639023327 C 908.341334312506 558.7604639023327 906.10275806166 556.5218876514867 906.10275806166 553.7604639023327 C 906.10275806166 550.9990401531787 908.341334312506 548.7604639023327 911.10275806166 548.7604639023327 C 913.864181810814 548.7604639023327 916.10275806166 550.9990401531787 916.10275806166 553.7604639023327 Z" stroke-opacity="1" stroke-linecap="round" stroke-linejoin="round" stroke-miterlimit="10"/><text fill="rgb(21,101,192)" stroke="none" font-family="geogebra-sans-serif, sans-serif" font-size="24px" font-style="normal" font-weight="normal" text-decoration="normal" x="935" y="586" text-anchor="start" dominant-baseline="alphabetic" fill-opacity="1">B</text><text fill="none" stroke="rgb(255,255,255)" font-family="geogebra-sans-serif, sans-serif" font-size="24px" font-style="normal" font-weight="normal" text-decoration="normal" x="935" y="586" text-anchor="start" dominant-baseline="alphabetic" stroke-opacity="1" stroke-linejoin="bevel" stroke-miterlimit="10" stroke-width="3">B</text><text fill="rgb(21,101,192)" stroke="none" font-family="geogebra-sans-serif, sans-serif" font-size="24px" font-style="normal" font-weight="normal" text-decoration="normal" x="935" y="586" text-anchor="start" dominant-baseline="alphabetic" fill-opacity="1">B</text><path fill="rgb(21,101,192)" stroke="none" paint-order="stroke fill markers" d=" M 518.1604957912264 110.65456578434373 C 518.1604957912264 113.4159895334977 515.9219195403804 115.65456578434373 513.1604957912264 115.65456578434373 C 510.3990720420724 115.65456578434373 508.16049579122637 113.4159895334977 508.16049579122637 110.65456578434373 C 508.16049579122637 107.89314203518977 510.3990720420724 105.65456578434373 513.1604957912264 105.65456578434373 C 515.9219195403804 105.65456578434373 518.1604957912264 107.89314203518977 518.1604957912264 110.65456578434373 Z" fill-opacity="1"/><path fill="none" stroke="rgb(0,0,0)" paint-order="fill stroke markers" d=" M 518.1604957912264 110.65456578434373 C 518.1604957912264 113.4159895334977 515.9219195403804 115.65456578434373 513.1604957912264 115.65456578434373 C 510.3990720420724 115.65456578434373 508.16049579122637 113.4159895334977 508.16049579122637 110.65456578434373 C 508.16049579122637 107.89314203518977 510.3990720420724 105.65456578434373 513.1604957912264 105.65456578434373 C 515.9219195403804 105.65456578434373 518.1604957912264 107.89314203518977 518.1604957912264 110.65456578434373 Z" stroke-opacity="1" stroke-linecap="round" stroke-linejoin="round" stroke-miterlimit="10"/><text fill="rgb(21,101,192)" stroke="none" font-family="geogebra-sans-serif, sans-serif" font-size="24px" font-style="normal" font-weight="normal" text-decoration="normal" x="480" y="92" text-anchor="start" dominant-baseline="alphabetic" fill-opacity="1">D</text><text fill="none" stroke="rgb(255,255,255)" font-family="geogebra-sans-serif, sans-serif" font-size="24px" font-style="normal" font-weight="normal" text-decoration="normal" x="480" y="92" text-anchor="start" dominant-baseline="alphabetic" stroke-opacity="1" stroke-linejoin="bevel" stroke-miterlimit="10" stroke-width="3">D</text><text fill="rgb(21,101,192)" stroke="none" font-family="geogebra-sans-serif, sans-serif" font-size="24px" font-style="normal" font-weight="normal" text-decoration="normal" x="480" y="92" text-anchor="start" dominant-baseline="alphabetic" fill-opacity="1">D</text><path fill="rgb(21,101,192)" stroke="none" paint-order="stroke fill markers" d=" M 818.4936422395758 110.37206556330557 C 818.4936422395758 113.13348931245953 816.2550659887298 115.37206556330557 813.4936422395758 115.37206556330557 C 810.7322184904218 115.37206556330557 808.4936422395758 113.13348931245953 808.4936422395758 110.37206556330557 C 808.4936422395758 107.6106418141516 810.7322184904218 105.37206556330557 813.4936422395758 105.37206556330557 C 816.2550659887298 105.37206556330557 818.4936422395758 107.6106418141516 818.4936422395758 110.37206556330557 Z" fill-opacity="1"/><path fill="none" stroke="rgb(0,0,0)" paint-order="fill stroke markers" d=" M 818.4936422395758 110.37206556330557 C 818.4936422395758 113.13348931245953 816.2550659887298 115.37206556330557 813.4936422395758 115.37206556330557 C 810.7322184904218 115.37206556330557 808.4936422395758 113.13348931245953 808.4936422395758 110.37206556330557 C 808.4936422395758 107.6106418141516 810.7322184904218 105.37206556330557 813.4936422395758 105.37206556330557 C 816.2550659887298 105.37206556330557 818.4936422395758 107.6106418141516 818.4936422395758 110.37206556330557 Z" stroke-opacity="1" stroke-linecap="round" stroke-linejoin="round" stroke-miterlimit="10"/><text fill="rgb(21,101,192)" stroke="none" font-family="geogebra-sans-serif, sans-serif" font-size="24px" font-style="normal" font-weight="normal" text-decoration="normal" x="827" y="89" text-anchor="start" dominant-baseline="alphabetic" fill-opacity="1">C</text><text fill="none" stroke="rgb(255,255,255)" font-family="geogebra-sans-serif, sans-serif" font-size="24px" font-style="normal" font-weight="normal" text-decoration="normal" x="827" y="89" text-anchor="start" dominant-baseline="alphabetic" stroke-opacity="1" stroke-linejoin="bevel" stroke-miterlimit="10" stroke-width="3">C</text><text fill="rgb(21,101,192)" stroke="none" font-family="geogebra-sans-serif, sans-serif" font-size="24px" font-style="normal" font-weight="normal" text-decoration="normal" x="827" y="89" text-anchor="start" dominant-baseline="alphabetic" fill-opacity="1">C</text><path fill="rgb(46,125,50)" stroke="none" paint-order="stroke fill markers" d=" M 668.3270690154009 110.51331567382465 C 668.3270690154009 113.27473942297861 666.0884927645549 115.51331567382465 663.3270690154009 115.51331567382465 C 660.5656452662469 115.51331567382465 658.3270690154009 113.27473942297861 658.3270690154009 110.51331567382465 C 658.3270690154009 107.75189192467069 660.5656452662469 105.51331567382465 663.3270690154009 105.51331567382465 C 666.0884927645549 105.51331567382465 668.3270690154009 107.75189192467069 668.3270690154009 110.51331567382465 Z" fill-opacity="1"/><path fill="none" stroke="rgb(0,0,0)" paint-order="fill stroke markers" d=" M 668.3270690154009 110.51331567382465 C 668.3270690154009 113.27473942297861 666.0884927645549 115.51331567382465 663.3270690154009 115.51331567382465 C 660.5656452662469 115.51331567382465 658.3270690154009 113.27473942297861 658.3270690154009 110.51331567382465 C 658.3270690154009 107.75189192467069 660.5656452662469 105.51331567382465 663.3270690154009 105.51331567382465 C 666.0884927645549 105.51331567382465 668.3270690154009 107.75189192467069 668.3270690154009 110.51331567382465 Z" stroke-opacity="1" stroke-linecap="round" stroke-linejoin="round" stroke-miterlimit="10"/><path fill="rgb(46,125,50)" stroke="none" paint-order="stroke fill markers" d=" M 668.7442162682669 553.9931349996083 C 668.7442162682669 556.7545587487623 666.5056400174209 558.9931349996083 663.7442162682669 558.9931349996083 C 660.9827925191129 558.9931349996083 658.7442162682669 556.7545587487623 658.7442162682669 553.9931349996083 C 658.7442162682669 551.2317112504543 660.9827925191129 548.9931349996083 663.7442162682669 548.9931349996083 C 666.5056400174209 548.9931349996083 668.7442162682669 551.2317112504543 668.7442162682669 553.9931349996083 Z" fill-opacity="1"/><path fill="none" stroke="rgb(0,0,0)" paint-order="fill stroke markers" d=" M 668.7442162682669 553.9931349996083 C 668.7442162682669 556.7545587487623 666.5056400174209 558.9931349996083 663.7442162682669 558.9931349996083 C 660.9827925191129 558.9931349996083 658.7442162682669 556.7545587487623 658.7442162682669 553.9931349996083 C 658.7442162682669 551.2317112504543 660.9827925191129 548.9931349996083 663.7442162682669 548.9931349996083 C 666.5056400174209 548.9931349996083 668.7442162682669 551.2317112504543 668.7442162682669 553.9931349996083 Z" stroke-opacity="1" stroke-linecap="round" stroke-linejoin="round" stroke-miterlimit="10"/></g></g></svg>