<svg version="1.1" xmlns="http://www.w3.org/2000/svg" xmlns:xlink="http://www.w3.org/1999/xlink" width="1310" height="704"><defs><clipPath id="iKCUsLZbPANk"><path fill="none" stroke="none" d=" M 0 0 L 1310 0 L 1310 704 L 0 704 L 0 0 Z"/></clipPath></defs><g transform="scale(1,1)" clip-path="url(#iKCUsLZbPANk)"><g><rect fill="rgb(255,255,255)" stroke="none" x="0" y="0" width="1310" height="704" fill-opacity="1"/><path fill="none" stroke="rgb(0,0,0)" paint-order="fill stroke markers" d=" M 981.4278842655914 375.8135484907672 C 981.4278842655914 544.1782546568385 844.9413226433446 680.664816279085 676.5766164772731 680.664816279085 C 508.21191031120156 680.664816279085 371.7253486889548 544.1782546568385 371.7253486889548 375.8135484907672 C 371.7253486889548 207.44884232469587 508.21191031120156 70.96228070244933 676.5766164772731 70.96228070244933 C 844.9413226433446 70.96228070244933 981.4278842655914 207.44884232469587 981.4278842655914 375.8135484907672 Z" stroke-opacity="0.6980392156862745" stroke-linecap="round" stroke-linejoin="round" stroke-miterlimit="10" stroke-width="2.5"/><path fill="none" stroke="rgb(0,0,0)" paint-order="fill stroke markers" d=" M 429.38567447487384 554.2258060968837 L 924.10275806166 553.7604639023328" stroke-opacity="0.6980392156862745" stroke-linecap="round" stroke-linejoin="round" stroke-miterlimit="10" stroke-width="2.5"/><path fill="none" stroke="rgb(0,0,0)" paint-order="fill stroke markers" d=" M 526.1604957912264 110.65456578434379 L 826.4936422395758 110.37206556330563" stroke-opacity="0.6980392156862745" stroke-linecap="round" stroke-linejoin="round" stroke-miterlimit="10" stroke-width="2.5"/><path fill="none" stroke="rgb(0,0,0)" paint-order="fill stroke markers" d=" M 526.1604957912264 110.65456578434379 L 429.38567447487384 554.2258060968837" stroke-opacity="0.6980392156862745" stroke-linecap="round" stroke-linejoin="round" stroke-miterlimit="10" stroke-width="2.5"/><path fill="none" stroke="rgb(0,0,0)" paint-order="fill stroke markers" d=" M 826.4936422395758 110.37206556330563 L 924.10275806166 553.7604639023328" stroke-opacity="0.6980392156862745" stroke-linecap="round" stroke-linejoin="round" stroke-miterlimit="10" stroke-width="2.5"/><path fill="none" stroke="rgb(0,0,0)" paint-order="fill stroke markers" d=" M 526.1604957912264 110.65456578434379 L 924.10275806166 553.7604639023328" stroke-opacity="0.6980392156862745" stroke-linecap="round" stroke-linejoin="round" stroke-miterlimit="10" stroke-width="2.5"/><path fill="none" stroke="rgb(0,0,0)" paint-order="fill stroke markers" d=" M 429.38567447487384 554.2258060968837 L 826.4936422395758 110.37206556330563" stroke-opacity="0.6980392156862745" stroke-linecap="round" stroke-linejoin="round" stroke-miterlimit="10" stroke-width="2.5"/><path fill="rgb(21,101,192)" stroke="none" paint-order="stroke fill markers" d=" M 681.5766164772731 375.8135484907672 C 681.5766164772731 378.5749722399211 679.3380402264271 380.8135484907672 676.5766164772731 380.8135484907672 C 673.8151927281191 380.8135484907672 671.5766164772731 378.5749722399211 671.5766164772731 375.8135484907672 C 671.5766164772731 373.0521247416132 673.8151927281191 370.8135484907672 676.5766164772731 370.8135484907672 C 679.3380402264271 370.8135484907672 681.5766164772731 373.0521247416132 681.5766164772731 375.8135484907672 Z" fill-opacity="1"/><path fill="none" stroke="rgb(0,0,0)" paint-order="fill stroke markers" d=" M 681.5766164772731 375.8135484907672 C 681.5766164772731 378.5749722399211 679.3380402264271 380.8135484907672 676.5766164772731 380.8135484907672 C 673.8151927281191 380.8135484907672 671.5766164772731 378.5749722399211 671.5766164772731 375.8135484907672 C 671.5766164772731 373.0521247416132 673.8151927281191 370.8135484907672 676.5766164772731 370.8135484907672 C 679.3380402264271 370.8135484907672 681.5766164772731 373.0521247416132 681.5766164772731 375.8135484907672 Z" stroke-opacity="1" stroke-linecap="round" stroke-linejoin="round" stroke-miterlimit="10"/><path fill="rgb(21,101,192)" stroke="none" paint-order="stroke fill markers" d=" M 434.38567447487384 554.2258060968837 C 434.38567447487384 556.9872298460377 432.1470982240278 559.2258060968837 429.38567447487384 559.2258060968837 C 426.6242507257199 559.2258060968837 424.38567447487384 556.9872298460377 424.38567447487384 554.2258060968837 C 424.38567447487384 551.4643823477297 426.6242507257199 549.2258060968837 429.38567447487384 549.2258060968837 C 432.1470982240278 549.2258060968837 434.38567447487384 551.4643823477297 434.38567447487384 554.2258060968837 Z" fill-opacity="1"/><path fill="none" stroke="rgb(0,0,0)" paint-order="fill stroke markers" d=" M 434.38567447487384 554.2258060968837 C 434.38567447487384 556.9872298460377 432.1470982240278 559.2258060968837 429.38567447487384 559.2258060968837 C 426.6242507257199 559.2258060968837 424.38567447487384 556.9872298460377 424.38567447487384 554.2258060968837 C 424.38567447487384 551.4643823477297 426.6242507257199 549.2258060968837 429.38567447487384 549.2258060968837 C 432.1470982240278 549.2258060968837 434.38567447487384 551.4643823477297 434.38567447487384 554.2258060968837 Z" stroke-opacity="1" stroke-linecap="round" stroke-linejoin="round" stroke-miterlimit="10"/><text fill="rgb(21,101,192)" stroke="none" font-family="geogebra-sans-serif, sans-serif" font-size="24px" font-style="normal" font-weight="normal" text-decoration="normal" x="391" y="583" text-anchor="start" dominant-baseline="alphabetic" fill-opacity="1">A</text><text fill="none" stroke="rgb(255,255,255)" font-family="geogebra-sans-serif, sans-serif" font-size="24px" font-style="normal" font-weight="normal" text-decoration="normal" x="391" y="583" text-anchor="start" dominant-baseline="alphabetic" stroke-opacity="1" stroke-linejoin="bevel" stroke-miterlimit="10" stroke-width="3">A</text><text fill="rgb(21,101,192)" stroke="none" font-family="geogebra-sans-serif, sans-serif" font-size="24px" font-style="normal" font-weight="normal" text-decoration="normal" x="391" y="583" text-anchor="start" dominant-baseline="alphabetic" fill-opacity="1">A</text><path fill="rgb(21,101,192)" stroke="none" paint-order="stroke fill markers" d=" M 929.10275806166 553.7604639023328 C 929.10275806166 556.5218876514868 926.864181810814 558.7604639023328 924.10275806166 558.7604639023328 C 921.341334312506 558.7604639023328 919.10275806166 556.5218876514868 919.10275806166 553.7604639023328 C 919.10275806166 550.9990401531788 921.341334312506 548.7604639023328 924.10275806166 548.7604639023328 C 926.864181810814 548.7604639023328 929.10275806166 550.9990401531788 929.10275806166 553.7604639023328 Z" fill-opacity="1"/><path fill="none" stroke="rgb(0,0,0)" paint-order="fill stroke markers" d=" M 929.10275806166 553.7604639023328 C 929.10275806166 556.5218876514868 926.864181810814 558.7604639023328 924.10275806166 558.7604639023328 C 921.341334312506 558.7604639023328 919.10275806166 556.5218876514868 919.10275806166 553.7604639023328 C 919.10275806166 550.9990401531788 921.341334312506 548.7604639023328 924.10275806166 548.7604639023328 C 926.864181810814 548.7604639023328 929.10275806166 550.9990401531788 929.10275806166 553.7604639023328 Z" stroke-opacity="1" stroke-linecap="round" stroke-linejoin="round" stroke-miterlimit="10"/><text fill="rgb(21,101,192)" stroke="none" font-family="geogebra-sans-serif, sans-serif" font-size="24px" font-style="normal" font-weight="normal" text-decoration="normal" x="948" y="586" text-anchor="start" dominant-baseline="alphabetic" fill-opacity="1">B</text><text fill="none" stroke="rgb(255,255,255)" font-family="geogebra-sans-serif, sans-serif" font-size="24px" font-style="normal" font-weight="normal" text-decoration="normal" x="948" y="586" text-anchor="start" dominant-baseline="alphabetic" stroke-opacity="1" stroke-linejoin="bevel" stroke-miterlimit="10" stroke-width="3">B</text><text fill="rgb(21,101,192)" stroke="none" font-family="geogebra-sans-serif, sans-serif" font-size="24px" font-style="normal" font-weight="normal" text-decoration="normal" x="948" y="586" text-anchor="start" dominant-baseline="alphabetic" fill-opacity="1">B</text><path fill="rgb(21,101,192)" stroke="none" paint-order="stroke fill markers" d=" M 531.1604957912264 110.65456578434379 C 531.1604957912264 113.41598953349775 528.9219195403804 115.65456578434379 526.1604957912264 115.65456578434379 C 523.3990720420724 115.65456578434379 521.1604957912264 113.41598953349775 521.1604957912264 110.65456578434379 C 521.1604957912264 107.89314203518983 523.3990720420724 105.65456578434379 526.1604957912264 105.65456578434379 C 528.9219195403804 105.65456578434379 531.1604957912264 107.89314203518983 531.1604957912264 110.65456578434379 Z" fill-opacity="1"/><path fill="none" stroke="rgb(0,0,0)" paint-order="fill stroke markers" d=" M 531.1604957912264 110.65456578434379 C 531.1604957912264 113.41598953349775 528.9219195403804 115.65456578434379 526.1604957912264 115.65456578434379 C 523.3990720420724 115.65456578434379 521.1604957912264 113.41598953349775 521.1604957912264 110.65456578434379 C 521.1604957912264 107.89314203518983 523.3990720420724 105.65456578434379 526.1604957912264 105.65456578434379 C 528.9219195403804 105.65456578434379 531.1604957912264 107.89314203518983 531.1604957912264 110.65456578434379 Z" stroke-opacity="1" stroke-linecap="round" stroke-linejoin="round" stroke-miterlimit="10"/><text fill="rgb(21,101,192)" stroke="none" font-family="geogebra-sans-serif, sans-serif" font-size="24px" font-style="normal" font-weight="normal" text-decoration="normal" x="493" y="92" text-anchor="start" dominant-baseline="alphabetic" fill-opacity="1">D</text><text fill="none" stroke="rgb(255,255,255)" font-family="geogebra-sans-serif, sans-serif" font-size="24px" font-style="normal" font-weight="normal" text-decoration="normal" x="493" y="92" text-anchor="start" dominant-baseline="alphabetic" stroke-opacity="1" stroke-linejoin="bevel" stroke-miterlimit="10" stroke-width="3">D</text><text fill="rgb(21,101,192)" stroke="none" font-family="geogebra-sans-serif, sans-serif" font-size="24px" font-style="normal" font-weight="normal" text-decoration="normal" x="493" y="92" text-anchor="start" dominant-baseline="alphabetic" fill-opacity="1">D</text><path fill="rgb(21,101,192)" stroke="none" paint-order="stroke fill markers" d=" M 831.4936422395758 110.37206556330563 C 831.4936422395758 113.13348931245959 829.2550659887298 115.37206556330563 826.4936422395758 115.37206556330563 C 823.7322184904218 115.37206556330563 821.4936422395758 113.13348931245959 821.4936422395758 110.37206556330563 C 821.4936422395758 107.61064181415166 823.7322184904218 105.37206556330563 826.4936422395758 105.37206556330563 C 829.2550659887298 105.37206556330563 831.4936422395758 107.61064181415166 831.4936422395758 110.37206556330563 Z" fill-opacity="1"/><path fill="none" stroke="rgb(0,0,0)" paint-order="fill stroke markers" d=" M 831.4936422395758 110.37206556330563 C 831.4936422395758 113.13348931245959 829.2550659887298 115.37206556330563 826.4936422395758 115.37206556330563 C 823.7322184904218 115.37206556330563 821.4936422395758 113.13348931245959 821.4936422395758 110.37206556330563 C 821.4936422395758 107.61064181415166 823.7322184904218 105.37206556330563 826.4936422395758 105.37206556330563 C 829.2550659887298 105.37206556330563 831.4936422395758 107.61064181415166 831.4936422395758 110.37206556330563 Z" stroke-opacity="1" stroke-linecap="round" stroke-linejoin="round" stroke-miterlimit="10"/><text fill="rgb(21,101,192)" stroke="none" font-family="geogebra-sans-serif, sans-serif" font-size="24px" font-style="normal" font-weight="normal" text-decoration="normal" x="840" y="89" text-anchor="start" dominant-baseline="alphabetic" fill-opacity="1">C</text><text fill="none" stroke="rgb(255,255,255)" font-family="geogebra-sans-serif, sans-serif" font-size="24px" font-style="normal" font-weight="normal" text-decoration="normal" x="840" y="89" text-anchor="start" dominant-baseline="alphabetic" stroke-opacity="1" stroke-linejoin="bevel" stroke-miterlimit="10" stroke-width="3">C</text><text fill="rgb(21,101,192)" stroke="none" font-family="geogebra-sans-serif, sans-serif" font-size="24px" font-style="normal" font-weight="normal" text-decoration="normal" x="840" y="89" text-anchor="start" dominant-baseline="alphabetic" fill-opacity="1">C</text></g></g></svg>