<svg version="1.1" xmlns="http://www.w3.org/2000/svg" xmlns:xlink="http://www.w3.org/1999/xlink" width="1310" height="704"><defs><clipPath id="qZRBltyeHOOP"><path fill="none" stroke="none" d=" M 0 0 L 1310 0 L 1310 704 L 0 704 L 0 0 Z"/></clipPath></defs><g transform="scale(1,1)" clip-path="url(#qZRBltyeHOOP)"><g><rect fill="rgb(255,255,255)" stroke="none" x="0" y="0" width="1310" height="704" fill-opacity="1"/><path fill="none" stroke="rgb(0,0,0)" paint-order="fill stroke markers" d=" M 826.5772503417686 461.85202430866434 C 826.5772503417686 572.9636037372424 736.5035182754702 663.0373358035408 625.3919388468922 663.0373358035408 C 514.2803594183141 663.0373358035408 424.20662735201574 572.9636037372424 424.20662735201574 461.85202430866434 C 424.20662735201574 350.7404448800862 514.2803594183141 260.66671281378785 625.3919388468922 260.66671281378785 C 736.5035182754702 260.66671281378785 826.5772503417686 350.7404448800862 826.5772503417686 461.85202430866434 Z" stroke-opacity="0.6980392156862745" stroke-linecap="round" stroke-linejoin="round" stroke-miterlimit="10" stroke-width="2.5"/><path fill="none" stroke="rgb(0,0,0)" paint-order="fill stroke markers" d=" M 462.25931674476976 579.594443034358 L 788.7457745027727 579.2873424110225" stroke-opacity="0.6980392156862745" stroke-linecap="round" stroke-linejoin="round" stroke-miterlimit="10" stroke-width="2.5"/><path fill="none" stroke="rgb(0,0,0)" paint-order="fill stroke markers" d=" M 557.9742372384676 272.29891019252034 L 692.4529254904671 272.17241646512" stroke-opacity="0.6980392156862745" stroke-linecap="round" stroke-linejoin="round" stroke-miterlimit="10" stroke-width="2.5"/><path fill="none" stroke="rgb(0,0,0)" paint-order="fill stroke markers" d=" M 625.0111961451458 57.07480614407723 L 557.9742372384676 272.29891019252034" stroke-opacity="0.6980392156862745" stroke-linejoin="round" stroke-miterlimit="10" stroke-width="2.5" stroke-dasharray="10.5,8"/><path fill="none" stroke="rgb(0,0,0)" paint-order="fill stroke markers" d=" M 625.0111961451458 57.07480614407723 L 692.4529254904671 272.17241646512" stroke-opacity="0.6980392156862745" stroke-linejoin="round" stroke-miterlimit="10" stroke-width="2.5" stroke-dasharray="10.5,8"/><path fill="none" stroke="rgb(0,0,0)" paint-order="fill stroke markers" d=" M 557.9742372384676 272.29891019252034 L 462.25931674476976 579.594443034358" stroke-opacity="0.6980392156862745" stroke-linecap="round" stroke-linejoin="round" stroke-miterlimit="10" stroke-width="2.5"/><path fill="none" stroke="rgb(0,0,0)" paint-order="fill stroke markers" d=" M 692.4529254904671 272.17241646512 L 788.7457745027727 579.2873424110225" stroke-opacity="0.6980392156862745" stroke-linecap="round" stroke-linejoin="round" stroke-miterlimit="10" stroke-width="2.5"/><path fill="rgb(21,101,192)" stroke="none" paint-order="stroke fill markers" d=" M 630.3919388468922 461.8520243086643 C 630.3919388468922 464.61344805781823 628.1533625960462 466.8520243086643 625.3919388468922 466.8520243086643 C 622.6305150977382 466.8520243086643 620.3919388468922 464.61344805781823 620.3919388468922 461.8520243086643 C 620.3919388468922 459.09060055951034 622.6305150977382 456.8520243086643 625.3919388468922 456.8520243086643 C 628.1533625960462 456.8520243086643 630.3919388468922 459.09060055951034 630.3919388468922 461.8520243086643 Z" fill-opacity="1"/><path fill="none" stroke="rgb(0,0,0)" paint-order="fill stroke markers" d=" M 630.3919388468922 461.8520243086643 C 630.3919388468922 464.61344805781823 628.1533625960462 466.8520243086643 625.3919388468922 466.8520243086643 C 622.6305150977382 466.8520243086643 620.3919388468922 464.61344805781823 620.3919388468922 461.8520243086643 C 620.3919388468922 459.09060055951034 622.6305150977382 456.8520243086643 625.3919388468922 456.8520243086643 C 628.1533625960462 456.8520243086643 630.3919388468922 459.09060055951034 630.3919388468922 461.8520243086643 Z" stroke-opacity="1" stroke-linecap="round" stroke-linejoin="round" stroke-miterlimit="10"/><path fill="rgb(21,101,192)" stroke="none" paint-order="stroke fill markers" d=" M 467.25931674476976 579.594443034358 C 467.25931674476976 582.355866783512 465.0207404939237 584.594443034358 462.25931674476976 584.594443034358 C 459.4978929956158 584.594443034358 457.25931674476976 582.355866783512 457.25931674476976 579.594443034358 C 457.25931674476976 576.833019285204 459.4978929956158 574.594443034358 462.25931674476976 574.594443034358 C 465.0207404939237 574.594443034358 467.25931674476976 576.833019285204 467.25931674476976 579.594443034358 Z" fill-opacity="1"/><path fill="none" stroke="rgb(0,0,0)" paint-order="fill stroke markers" d=" M 467.25931674476976 579.594443034358 C 467.25931674476976 582.355866783512 465.0207404939237 584.594443034358 462.25931674476976 584.594443034358 C 459.4978929956158 584.594443034358 457.25931674476976 582.355866783512 457.25931674476976 579.594443034358 C 457.25931674476976 576.833019285204 459.4978929956158 574.594443034358 462.25931674476976 574.594443034358 C 465.0207404939237 574.594443034358 467.25931674476976 576.833019285204 467.25931674476976 579.594443034358 Z" stroke-opacity="1" stroke-linecap="round" stroke-linejoin="round" stroke-miterlimit="10"/><text fill="rgb(21,101,192)" stroke="none" font-family="geogebra-sans-serif, sans-serif" font-size="24px" font-style="normal" font-weight="normal" text-decoration="normal" x="424" y="609" text-anchor="start" dominant-baseline="alphabetic" fill-opacity="1">A</text><text fill="none" stroke="rgb(255,255,255)" font-family="geogebra-sans-serif, sans-serif" font-size="24px" font-style="normal" font-weight="normal" text-decoration="normal" x="424" y="609" text-anchor="start" dominant-baseline="alphabetic" stroke-opacity="1" stroke-linejoin="bevel" stroke-miterlimit="10" stroke-width="3">A</text><text fill="rgb(21,101,192)" stroke="none" font-family="geogebra-sans-serif, sans-serif" font-size="24px" font-style="normal" font-weight="normal" text-decoration="normal" x="424" y="609" text-anchor="start" dominant-baseline="alphabetic" fill-opacity="1">A</text><path fill="rgb(21,101,192)" stroke="none" paint-order="stroke fill markers" d=" M 793.7457745027727 579.2873424110225 C 793.7457745027727 582.0487661601765 791.5071982519268 584.2873424110225 788.7457745027727 584.2873424110225 C 785.9843507536187 584.2873424110225 783.7457745027727 582.0487661601765 783.7457745027727 579.2873424110225 C 783.7457745027727 576.5259186618684 785.9843507536187 574.2873424110225 788.7457745027727 574.2873424110225 C 791.5071982519268 574.2873424110225 793.7457745027727 576.5259186618684 793.7457745027727 579.2873424110225 Z" fill-opacity="1"/><path fill="none" stroke="rgb(0,0,0)" paint-order="fill stroke markers" d=" M 793.7457745027727 579.2873424110225 C 793.7457745027727 582.0487661601765 791.5071982519268 584.2873424110225 788.7457745027727 584.2873424110225 C 785.9843507536187 584.2873424110225 783.7457745027727 582.0487661601765 783.7457745027727 579.2873424110225 C 783.7457745027727 576.5259186618684 785.9843507536187 574.2873424110225 788.7457745027727 574.2873424110225 C 791.5071982519268 574.2873424110225 793.7457745027727 576.5259186618684 793.7457745027727 579.2873424110225 Z" stroke-opacity="1" stroke-linecap="round" stroke-linejoin="round" stroke-miterlimit="10"/><text fill="rgb(21,101,192)" stroke="none" font-family="geogebra-sans-serif, sans-serif" font-size="24px" font-style="normal" font-weight="normal" text-decoration="normal" x="813" y="611" text-anchor="start" dominant-baseline="alphabetic" fill-opacity="1">B</text><text fill="none" stroke="rgb(255,255,255)" font-family="geogebra-sans-serif, sans-serif" font-size="24px" font-style="normal" font-weight="normal" text-decoration="normal" x="813" y="611" text-anchor="start" dominant-baseline="alphabetic" stroke-opacity="1" stroke-linejoin="bevel" stroke-miterlimit="10" stroke-width="3">B</text><text fill="rgb(21,101,192)" stroke="none" font-family="geogebra-sans-serif, sans-serif" font-size="24px" font-style="normal" font-weight="normal" text-decoration="normal" x="813" y="611" text-anchor="start" dominant-baseline="alphabetic" fill-opacity="1">B</text><path fill="rgb(21,101,192)" stroke="none" paint-order="stroke fill markers" d=" M 562.9742372384676 272.29891019252034 C 562.9742372384676 275.0603339416743 560.7356609876216 277.29891019252034 557.9742372384676 277.29891019252034 C 555.2128134893136 277.29891019252034 552.9742372384676 275.0603339416743 552.9742372384676 272.29891019252034 C 552.9742372384676 269.5374864433664 555.2128134893136 267.29891019252034 557.9742372384676 267.29891019252034 C 560.7356609876216 267.29891019252034 562.9742372384676 269.5374864433664 562.9742372384676 272.29891019252034 Z" fill-opacity="1"/><path fill="none" stroke="rgb(0,0,0)" paint-order="fill stroke markers" d=" M 562.9742372384676 272.29891019252034 C 562.9742372384676 275.0603339416743 560.7356609876216 277.29891019252034 557.9742372384676 277.29891019252034 C 555.2128134893136 277.29891019252034 552.9742372384676 275.0603339416743 552.9742372384676 272.29891019252034 C 552.9742372384676 269.5374864433664 555.2128134893136 267.29891019252034 557.9742372384676 267.29891019252034 C 560.7356609876216 267.29891019252034 562.9742372384676 269.5374864433664 562.9742372384676 272.29891019252034 Z" stroke-opacity="1" stroke-linecap="round" stroke-linejoin="round" stroke-miterlimit="10"/><text fill="rgb(21,101,192)" stroke="none" font-family="geogebra-sans-serif, sans-serif" font-size="24px" font-style="normal" font-weight="normal" text-decoration="normal" x="525" y="253" text-anchor="start" dominant-baseline="alphabetic" fill-opacity="1">D</text><text fill="none" stroke="rgb(255,255,255)" font-family="geogebra-sans-serif, sans-serif" font-size="24px" font-style="normal" font-weight="normal" text-decoration="normal" x="525" y="253" text-anchor="start" dominant-baseline="alphabetic" stroke-opacity="1" stroke-linejoin="bevel" stroke-miterlimit="10" stroke-width="3">D</text><text fill="rgb(21,101,192)" stroke="none" font-family="geogebra-sans-serif, sans-serif" font-size="24px" font-style="normal" font-weight="normal" text-decoration="normal" x="525" y="253" text-anchor="start" dominant-baseline="alphabetic" fill-opacity="1">D</text><path fill="rgb(21,101,192)" stroke="none" paint-order="stroke fill markers" d=" M 697.4529254904671 272.17241646512 C 697.4529254904671 274.93384021427397 695.2143492396211 277.17241646512 692.4529254904671 277.17241646512 C 689.6915017413131 277.17241646512 687.4529254904671 274.93384021427397 687.4529254904671 272.17241646512 C 687.4529254904671 269.4109927159661 689.6915017413131 267.17241646512 692.4529254904671 267.17241646512 C 695.2143492396211 267.17241646512 697.4529254904671 269.4109927159661 697.4529254904671 272.17241646512 Z" fill-opacity="1"/><path fill="none" stroke="rgb(0,0,0)" paint-order="fill stroke markers" d=" M 697.4529254904671 272.17241646512 C 697.4529254904671 274.93384021427397 695.2143492396211 277.17241646512 692.4529254904671 277.17241646512 C 689.6915017413131 277.17241646512 687.4529254904671 274.93384021427397 687.4529254904671 272.17241646512 C 687.4529254904671 269.4109927159661 689.6915017413131 267.17241646512 692.4529254904671 267.17241646512 C 695.2143492396211 267.17241646512 697.4529254904671 269.4109927159661 697.4529254904671 272.17241646512 Z" stroke-opacity="1" stroke-linecap="round" stroke-linejoin="round" stroke-miterlimit="10"/><text fill="rgb(21,101,192)" stroke="none" font-family="geogebra-sans-serif, sans-serif" font-size="24px" font-style="normal" font-weight="normal" text-decoration="normal" x="706" y="251" text-anchor="start" dominant-baseline="alphabetic" fill-opacity="1">C</text><text fill="none" stroke="rgb(255,255,255)" font-family="geogebra-sans-serif, sans-serif" font-size="24px" font-style="normal" font-weight="normal" text-decoration="normal" x="706" y="251" text-anchor="start" dominant-baseline="alphabetic" stroke-opacity="1" stroke-linejoin="bevel" stroke-miterlimit="10" stroke-width="3">C</text><text fill="rgb(21,101,192)" stroke="none" font-family="geogebra-sans-serif, sans-serif" font-size="24px" font-style="normal" font-weight="normal" text-decoration="normal" x="706" y="251" text-anchor="start" dominant-baseline="alphabetic" fill-opacity="1">C</text><path fill="rgb(21,101,192)" stroke="none" paint-order="stroke fill markers" d=" M 630.0111961451458 57.07480614407723 C 630.0111961451458 59.83622989323119 627.7726198942999 62.07480614407723 625.0111961451458 62.07480614407723 C 622.2497723959918 62.07480614407723 620.0111961451458 59.83622989323119 620.0111961451458 57.07480614407723 C 620.0111961451458 54.31338239492326 622.2497723959918 52.07480614407723 625.0111961451458 52.07480614407723 C 627.7726198942999 52.07480614407723 630.0111961451458 54.31338239492326 630.0111961451458 57.07480614407723 Z" fill-opacity="1"/><path fill="none" stroke="rgb(0,0,0)" paint-order="fill stroke markers" d=" M 630.0111961451458 57.07480614407723 C 630.0111961451458 59.83622989323119 627.7726198942999 62.07480614407723 625.0111961451458 62.07480614407723 C 622.2497723959918 62.07480614407723 620.0111961451458 59.83622989323119 620.0111961451458 57.07480614407723 C 620.0111961451458 54.31338239492326 622.2497723959918 52.07480614407723 625.0111961451458 52.07480614407723 C 627.7726198942999 52.07480614407723 630.0111961451458 54.31338239492326 630.0111961451458 57.07480614407723 Z" stroke-opacity="1" stroke-linecap="round" stroke-linejoin="round" stroke-miterlimit="10"/><text fill="rgb(21,101,192)" stroke="none" font-family="geogebra-sans-serif, sans-serif" font-size="24px" font-style="normal" font-weight="normal" text-decoration="normal" x="620" y="38" text-anchor="start" dominant-baseline="alphabetic" fill-opacity="1">P</text><text fill="none" stroke="rgb(255,255,255)" font-family="geogebra-sans-serif, sans-serif" font-size="24px" font-style="normal" font-weight="normal" text-decoration="normal" x="620" y="38" text-anchor="start" dominant-baseline="alphabetic" stroke-opacity="1" stroke-linejoin="bevel" stroke-miterlimit="10" stroke-width="3">P</text><text fill="rgb(21,101,192)" stroke="none" font-family="geogebra-sans-serif, sans-serif" font-size="24px" font-style="normal" font-weight="normal" text-decoration="normal" x="620" y="38" text-anchor="start" dominant-baseline="alphabetic" fill-opacity="1">P</text></g></g></svg>