<?xml version="1.0" encoding="UTF-8"?>
<svg xmlns="http://www.w3.org/2000/svg" xmlns:xlink="http://www.w3.org/1999/xlink" width="1366pt" height="565pt" viewBox="0 0 1366 565" version="1.1">
<g id="surface1">
<path style="fill:none;stroke-width:3;stroke-linecap:round;stroke-linejoin:round;stroke:rgb(0%,0%,100%);stroke-opacity:1;stroke-miterlimit:10;" d="M 722.5 89.5 L 95.5 89.5 " transform="matrix(1,0,0,-1,0,565)"/>
<path style="fill:none;stroke-width:3;stroke-linecap:round;stroke-linejoin:round;stroke:rgb(0%,0%,100%);stroke-opacity:1;stroke-miterlimit:10;" d="M 95.5 89.5 L 202.5 478.5 " transform="matrix(1,0,0,-1,0,565)"/>
<path style="fill:none;stroke-width:3;stroke-linecap:round;stroke-linejoin:round;stroke:rgb(0%,0%,100%);stroke-opacity:1;stroke-miterlimit:10;" d="M 722.5 89.5 L 451.429688 478.5 " transform="matrix(1,0,0,-1,0,565)"/>
<path style="fill:none;stroke-width:3;stroke-linecap:round;stroke-linejoin:round;stroke:rgb(0%,0%,100%);stroke-opacity:1;stroke-miterlimit:10;" d="M 451.429688 478.5 L 202.5 478.5 " transform="matrix(1,0,0,-1,0,565)"/>
<path style="fill-rule:nonzero;fill:rgb(100%,0%,0%);fill-opacity:1;stroke-width:1;stroke-linecap:square;stroke-linejoin:miter;stroke:rgb(0%,0%,0%);stroke-opacity:1;stroke-miterlimit:10;" d="M 207.5 478.5 C 207.5 475.738281 205.261719 473.5 202.5 473.5 C 199.738281 473.5 197.5 475.738281 197.5 478.5 C 197.5 481.261719 199.738281 483.5 202.5 483.5 C 205.261719 483.5 207.5 481.261719 207.5 478.5 Z M 207.5 478.5 " transform="matrix(1,0,0,-1,0,565)"/>
<path style="fill-rule:nonzero;fill:rgb(100%,0%,0%);fill-opacity:1;stroke-width:1;stroke-linecap:square;stroke-linejoin:miter;stroke:rgb(0%,0%,0%);stroke-opacity:1;stroke-miterlimit:10;" d="M 100.5 89.5 C 100.5 86.738281 98.261719 84.5 95.5 84.5 C 92.738281 84.5 90.5 86.738281 90.5 89.5 C 90.5 92.261719 92.738281 94.5 95.5 94.5 C 98.261719 94.5 100.5 92.261719 100.5 89.5 Z M 100.5 89.5 " transform="matrix(1,0,0,-1,0,565)"/>
<path style="fill-rule:nonzero;fill:rgb(100%,0%,0%);fill-opacity:1;stroke-width:1;stroke-linecap:square;stroke-linejoin:miter;stroke:rgb(0%,0%,0%);stroke-opacity:1;stroke-miterlimit:10;" d="M 727.5 89.5 C 727.5 86.738281 725.261719 84.5 722.5 84.5 C 719.738281 84.5 717.5 86.738281 717.5 89.5 C 717.5 92.261719 719.738281 94.5 722.5 94.5 C 725.261719 94.5 727.5 92.261719 727.5 89.5 Z M 727.5 89.5 " transform="matrix(1,0,0,-1,0,565)"/>
<path style="fill-rule:nonzero;fill:rgb(100%,0%,0%);fill-opacity:1;stroke-width:1;stroke-linecap:square;stroke-linejoin:miter;stroke:rgb(0%,0%,0%);stroke-opacity:1;stroke-miterlimit:10;" d="M 456.429688 478.5 C 456.429688 475.738281 454.199219 473.5 451.429688 473.5 C 448.671875 473.5 446.429688 475.738281 446.429688 478.5 C 446.429688 481.261719 448.671875 483.5 451.429688 483.5 C 454.199219 483.5 456.429688 481.261719 456.429688 478.5 Z M 456.429688 478.5 " transform="matrix(1,0,0,-1,0,565)"/>
<path style=" stroke:none;fill-rule:nonzero;fill:rgb(0%,0%,0%);fill-opacity:1;" d="M 189.25 52.050781 L 185.230469 62.921875 L 193.28125 62.921875 Z M 187.578125 49.121094 L 190.941406 49.121094 L 199.28125 71 L 196.199219 71 L 194.199219 65.390625 L 184.339844 65.390625 L 182.359375 71 L 179.230469 71 Z M 187.578125 49.121094 "/>
<path style=" stroke:none;fill-rule:nonzero;fill:rgb(0%,0%,0%);fill-opacity:1;" d="M 70.910156 491.558594 L 70.910156 499.558594 L 75.660156 499.558594 C 75.660156 499.558594 78.03125 499.558594 79.191406 498.578125 C 79.191406 498.578125 80.339844 497.589844 80.339844 495.550781 C 80.339844 495.550781 80.339844 493.5 79.191406 492.53125 C 79.191406 492.53125 78.03125 491.558594 75.660156 491.558594 Z M 70.910156 482.558594 L 70.910156 489.160156 L 75.28125 489.160156 C 75.28125 489.160156 77.449219 489.160156 78.519531 488.339844 C 78.519531 488.339844 79.578125 487.53125 79.578125 485.859375 C 79.578125 485.859375 79.578125 484.199219 78.519531 483.390625 C 78.519531 483.390625 77.449219 482.558594 75.28125 482.558594 Z M 67.941406 480.121094 L 75.5 480.121094 C 75.5 480.121094 78.890625 480.121094 80.71875 481.53125 C 80.71875 481.53125 82.550781 482.941406 82.550781 485.53125 C 82.550781 485.53125 82.550781 487.550781 81.609375 488.730469 C 81.609375 488.730469 80.671875 489.921875 78.859375 490.199219 C 78.859375 490.199219 81.050781 490.671875 82.25 492.171875 C 82.25 492.171875 83.449219 493.660156 83.449219 495.871094 C 83.449219 495.871094 83.449219 498.808594 81.449219 500.410156 C 81.449219 500.410156 79.46875 502 75.800781 502 L 67.941406 502 Z M 67.941406 480.121094 "/>
<path style=" stroke:none;fill-rule:nonzero;fill:rgb(0%,0%,0%);fill-opacity:1;" d="M 753.328125 479.808594 L 753.328125 482.941406 C 753.328125 482.941406 751.828125 481.550781 750.128906 480.859375 C 750.128906 480.859375 748.441406 480.171875 746.550781 480.171875 C 746.550781 480.171875 742.800781 480.171875 740.800781 482.46875 C 740.800781 482.46875 738.808594 484.75 738.808594 489.089844 C 738.808594 489.089844 738.808594 493.410156 740.800781 495.699219 C 740.800781 495.699219 742.800781 498 746.550781 498 C 746.550781 498 748.441406 498 750.128906 497.308594 C 750.128906 497.308594 751.828125 496.609375 753.328125 495.21875 L 753.328125 498.308594 C 753.328125 498.308594 751.769531 499.371094 750.03125 499.910156 C 750.03125 499.910156 748.300781 500.421875 746.359375 500.421875 C 746.359375 500.421875 741.390625 500.421875 738.53125 497.390625 C 738.53125 497.390625 735.691406 494.339844 735.691406 489.089844 C 735.691406 489.089844 735.691406 483.808594 738.53125 480.78125 C 738.53125 480.78125 741.390625 477.730469 746.359375 477.730469 C 746.359375 477.730469 748.328125 477.730469 750.058594 478.269531 C 750.058594 478.269531 751.800781 478.78125 753.328125 479.808594 Z M 753.328125 479.808594 "/>
<path style=" stroke:none;fill-rule:nonzero;fill:rgb(0%,0%,0%);fill-opacity:1;" d="M 467.910156 57.558594 L 467.910156 74.558594 L 471.480469 74.558594 C 471.480469 74.558594 476 74.558594 478.089844 72.519531 C 478.089844 72.519531 480.199219 70.46875 480.199219 66.050781 C 480.199219 66.050781 480.199219 61.640625 478.089844 59.609375 C 478.089844 59.609375 476 57.558594 471.480469 57.558594 Z M 464.941406 55.121094 L 471.03125 55.121094 C 471.03125 55.121094 477.378906 55.121094 480.339844 57.78125 C 480.339844 57.78125 483.328125 60.421875 483.328125 66.050781 C 483.328125 66.050781 483.328125 71.699219 480.339844 74.359375 C 480.339844 74.359375 477.359375 77 471.03125 77 L 464.941406 77 Z M 464.941406 55.121094 "/>
</g>
</svg>
