<?xml version="1.0" encoding="UTF-8"?>
<svg xmlns="http://www.w3.org/2000/svg" xmlns:xlink="http://www.w3.org/1999/xlink" width="1366pt" height="565pt" viewBox="0 0 1366 565" version="1.1">
<g id="surface1">
<path style=" stroke:none;fill-rule:nonzero;fill:rgb(0%,100%,0%);fill-opacity:1;" d="M 356.660156 307.949219 C 350.75 312.058594 347.238281 318.800781 347.238281 326 L 369.238281 326 Z M 356.660156 307.949219 "/>
<path style=" stroke:none;fill-rule:nonzero;fill:rgb(100%,100%,100%);fill-opacity:0.29804;" d="M 357.800781 309.589844 C 352.429688 313.328125 349.238281 319.449219 349.238281 326 L 369.238281 326 Z M 357.800781 309.589844 "/>
<path style=" stroke:none;fill-rule:nonzero;fill:rgb(1.174927%,65.489197%,73.724365%);fill-opacity:1;" d="M 157.988281 326 C 157.988281 316.089844 151.371094 307.410156 141.820312 304.78125 L 135.988281 326 Z M 157.988281 326 "/>
<path style=" stroke:none;fill-rule:nonzero;fill:rgb(100%,100%,100%);fill-opacity:0.29804;" d="M 155.988281 326 C 155.988281 316.988281 149.96875 309.101562 141.289062 306.710938 L 135.988281 326 Z M 155.988281 326 "/>
<path style=" stroke:none;fill-rule:nonzero;fill:rgb(1.174927%,65.489197%,73.724365%);fill-opacity:1;" d="M 117 475 C 117 465.101562 110.378906 456.410156 100.828125 453.789062 L 95 475 Z M 117 475 "/>
<path style=" stroke:none;fill-rule:nonzero;fill:rgb(100%,100%,100%);fill-opacity:0.29804;" d="M 115 475 C 115 466 108.980469 458.101562 100.300781 455.71875 L 95 475 Z M 115 475 "/>
<path style=" stroke:none;fill-rule:nonzero;fill:rgb(0%,100%,0%);fill-opacity:1;" d="M 227.238281 456.949219 C 221.328125 461.058594 217.820312 467.800781 217.820312 475 L 239.820312 475 Z M 227.238281 456.949219 "/>
<path style=" stroke:none;fill-rule:nonzero;fill:rgb(100%,100%,100%);fill-opacity:0.29804;" d="M 228.378906 458.589844 C 223.011719 462.328125 219.820312 468.460938 219.820312 475 L 239.820312 475 Z M 228.378906 458.589844 "/>
<path style=" stroke:none;fill-rule:nonzero;fill:rgb(0%,100%,0%);fill-opacity:1;" d="M 460.488281 456.949219 C 454.589844 461.058594 451.070312 467.800781 451.070312 475 L 473.070312 475 Z M 460.488281 456.949219 "/>
<path style=" stroke:none;fill-rule:nonzero;fill:rgb(100%,100%,100%);fill-opacity:0.29804;" d="M 461.628906 458.589844 C 456.269531 462.328125 453.070312 468.460938 453.070312 475 L 473.070312 475 Z M 461.628906 458.589844 "/>
<path style="fill:none;stroke-width:3;stroke-linecap:round;stroke-linejoin:round;stroke:rgb(0%,0%,100%);stroke-opacity:1;stroke-miterlimit:10;" d="M 722.5 89.5 L 95.5 89.5 " transform="matrix(1,0,0,-1,0,565)"/>
<path style="fill:none;stroke-width:3;stroke-linecap:round;stroke-linejoin:round;stroke:rgb(0%,0%,100%);stroke-opacity:1;stroke-miterlimit:10;" d="M 95.5 89.5 L 202.5 478.5 " transform="matrix(1,0,0,-1,0,565)"/>
<path style="fill:none;stroke-width:3;stroke-linecap:round;stroke-linejoin:round;stroke:rgb(0%,0%,100%);stroke-opacity:1;stroke-miterlimit:10;" d="M 722.5 89.5 L 451.429688 478.5 " transform="matrix(1,0,0,-1,0,565)"/>
<path style="fill:none;stroke-width:3;stroke-linecap:round;stroke-linejoin:round;stroke:rgb(0%,0%,100%);stroke-opacity:1;stroke-miterlimit:10;" d="M 451.429688 478.5 L 202.5 478.5 " transform="matrix(1,0,0,-1,0,565)"/>
<path style="fill:none;stroke-width:3;stroke-linecap:round;stroke-linejoin:round;stroke:rgb(0%,0%,100%);stroke-opacity:1;stroke-miterlimit:10;" d="M 797.5 238.5 L 23.5 238.5 " transform="matrix(1,0,0,-1,0,565)"/>
<path style="fill:none;stroke-width:3;stroke-linecap:round;stroke-linejoin:round;stroke:rgb(0%,0%,100%);stroke-opacity:1;stroke-dasharray:15.37,15.37;stroke-miterlimit:10;" d="M 141.878906 565.5 L 536.980469 -1.5 " transform="matrix(1,0,0,-1,0,565)"/>
<path style="fill:none;stroke-width:3;stroke-linecap:round;stroke-linejoin:round;stroke:rgb(0%,0%,100%);stroke-opacity:1;stroke-dasharray:15.37,15.37;stroke-miterlimit:10;" d="M -91.371094 565.5 L 303.730469 -1.5 " transform="matrix(1,0,0,-1,0,565)"/>
<path style="fill-rule:nonzero;fill:rgb(100%,0%,0%);fill-opacity:1;stroke-width:1;stroke-linecap:square;stroke-linejoin:miter;stroke:rgb(0%,0%,0%);stroke-opacity:1;stroke-miterlimit:10;" d="M 207.5 478.5 C 207.5 475.738281 205.261719 473.5 202.5 473.5 C 199.738281 473.5 197.5 475.738281 197.5 478.5 C 197.5 481.261719 199.738281 483.5 202.5 483.5 C 205.261719 483.5 207.5 481.261719 207.5 478.5 Z M 207.5 478.5 " transform="matrix(1,0,0,-1,0,565)"/>
<path style="fill-rule:nonzero;fill:rgb(100%,0%,0%);fill-opacity:1;stroke-width:1;stroke-linecap:square;stroke-linejoin:miter;stroke:rgb(0%,0%,0%);stroke-opacity:1;stroke-miterlimit:10;" d="M 100.5 89.5 C 100.5 86.738281 98.261719 84.5 95.5 84.5 C 92.738281 84.5 90.5 86.738281 90.5 89.5 C 90.5 92.261719 92.738281 94.5 95.5 94.5 C 98.261719 94.5 100.5 92.261719 100.5 89.5 Z M 100.5 89.5 " transform="matrix(1,0,0,-1,0,565)"/>
<path style="fill-rule:nonzero;fill:rgb(100%,0%,0%);fill-opacity:1;stroke-width:1;stroke-linecap:square;stroke-linejoin:miter;stroke:rgb(0%,0%,0%);stroke-opacity:1;stroke-miterlimit:10;" d="M 727.5 89.5 C 727.5 86.738281 725.261719 84.5 722.5 84.5 C 719.738281 84.5 717.5 86.738281 717.5 89.5 C 717.5 92.261719 719.738281 94.5 722.5 94.5 C 725.261719 94.5 727.5 92.261719 727.5 89.5 Z M 727.5 89.5 " transform="matrix(1,0,0,-1,0,565)"/>
<path style="fill-rule:nonzero;fill:rgb(100%,0%,0%);fill-opacity:1;stroke-width:1;stroke-linecap:square;stroke-linejoin:miter;stroke:rgb(0%,0%,0%);stroke-opacity:1;stroke-miterlimit:10;" d="M 456.429688 478.5 C 456.429688 475.738281 454.199219 473.5 451.429688 473.5 C 448.671875 473.5 446.429688 475.738281 446.429688 478.5 C 446.429688 481.261719 448.671875 483.5 451.429688 483.5 C 454.199219 483.5 456.429688 481.261719 456.429688 478.5 Z M 456.429688 478.5 " transform="matrix(1,0,0,-1,0,565)"/>
<path style="fill-rule:nonzero;fill:rgb(100%,0%,0%);fill-opacity:1;stroke-width:1;stroke-linecap:square;stroke-linejoin:miter;stroke:rgb(0%,0%,0%);stroke-opacity:1;stroke-miterlimit:10;" d="M 141.488281 238.5 C 141.488281 235.738281 139.25 233.5 136.488281 233.5 C 133.71875 233.5 131.488281 235.738281 131.488281 238.5 C 131.488281 241.269531 133.71875 243.5 136.488281 243.5 C 139.25 243.5 141.488281 241.269531 141.488281 238.5 Z M 141.488281 238.5 " transform="matrix(1,0,0,-1,0,565)"/>
<path style="fill-rule:nonzero;fill:rgb(69.802856%,0%,0%);fill-opacity:1;stroke-width:1;stroke-linecap:square;stroke-linejoin:miter;stroke:rgb(0%,0%,0%);stroke-opacity:1;stroke-miterlimit:10;" d="M 623.671875 238.5 C 623.671875 235.738281 621.429688 233.5 618.671875 233.5 C 615.910156 233.5 613.671875 235.738281 613.671875 238.5 C 613.671875 241.269531 615.910156 243.5 618.671875 243.5 C 621.429688 243.5 623.671875 241.269531 623.671875 238.5 Z M 623.671875 238.5 " transform="matrix(1,0,0,-1,0,565)"/>
<path style="fill-rule:nonzero;fill:rgb(69.802856%,0%,0%);fill-opacity:1;stroke-width:1;stroke-linecap:square;stroke-linejoin:miter;stroke:rgb(0%,0%,0%);stroke-opacity:1;stroke-miterlimit:10;" d="M 245.320312 89.5 C 245.320312 86.738281 243.078125 84.5 240.320312 84.5 C 237.550781 84.5 235.320312 86.738281 235.320312 89.5 C 235.320312 92.261719 237.550781 94.5 240.320312 94.5 C 243.078125 94.5 245.320312 92.261719 245.320312 89.5 Z M 245.320312 89.5 " transform="matrix(1,0,0,-1,0,565)"/>
<path style="fill-rule:nonzero;fill:rgb(69.802856%,0%,0%);fill-opacity:1;stroke-width:1;stroke-linecap:square;stroke-linejoin:miter;stroke:rgb(0%,0%,0%);stroke-opacity:1;stroke-miterlimit:10;" d="M 374.738281 238.5 C 374.738281 235.738281 372.5 233.5 369.738281 233.5 C 366.96875 233.5 364.738281 235.738281 364.738281 238.5 C 364.738281 241.269531 366.96875 243.5 369.738281 243.5 C 372.5 243.5 374.738281 241.269531 374.738281 238.5 Z M 374.738281 238.5 " transform="matrix(1,0,0,-1,0,565)"/>
<path style="fill-rule:nonzero;fill:rgb(69.802856%,0%,0%);fill-opacity:1;stroke-width:1;stroke-linecap:square;stroke-linejoin:miter;stroke:rgb(0%,0%,0%);stroke-opacity:1;stroke-miterlimit:10;" d="M 478.570312 89.5 C 478.570312 86.738281 476.328125 84.5 473.570312 84.5 C 470.800781 84.5 468.570312 86.738281 468.570312 89.5 C 468.570312 92.261719 470.800781 94.5 473.570312 94.5 C 476.328125 94.5 478.570312 92.261719 478.570312 89.5 Z M 478.570312 89.5 " transform="matrix(1,0,0,-1,0,565)"/>
<path style=" stroke:none;fill-rule:nonzero;fill:rgb(0%,0%,0%);fill-opacity:1;" d="M 172.25 80.050781 L 168.230469 90.921875 L 176.28125 90.921875 Z M 170.578125 77.121094 L 173.941406 77.121094 L 182.28125 99 L 179.199219 99 L 177.199219 93.390625 L 167.339844 93.390625 L 165.359375 99 L 162.230469 99 Z M 170.578125 77.121094 "/>
<path style=" stroke:none;fill-rule:nonzero;fill:rgb(0%,0%,0%);fill-opacity:1;" d="M 70.910156 491.558594 L 70.910156 499.558594 L 75.660156 499.558594 C 75.660156 499.558594 78.03125 499.558594 79.191406 498.578125 C 79.191406 498.578125 80.339844 497.589844 80.339844 495.550781 C 80.339844 495.550781 80.339844 493.5 79.191406 492.53125 C 79.191406 492.53125 78.03125 491.558594 75.660156 491.558594 Z M 70.910156 482.558594 L 70.910156 489.160156 L 75.28125 489.160156 C 75.28125 489.160156 77.449219 489.160156 78.519531 488.339844 C 78.519531 488.339844 79.578125 487.53125 79.578125 485.859375 C 79.578125 485.859375 79.578125 484.199219 78.519531 483.390625 C 78.519531 483.390625 77.449219 482.558594 75.28125 482.558594 Z M 67.941406 480.121094 L 75.5 480.121094 C 75.5 480.121094 78.890625 480.121094 80.71875 481.53125 C 80.71875 481.53125 82.550781 482.941406 82.550781 485.53125 C 82.550781 485.53125 82.550781 487.550781 81.609375 488.730469 C 81.609375 488.730469 80.671875 489.921875 78.859375 490.199219 C 78.859375 490.199219 81.050781 490.671875 82.25 492.171875 C 82.25 492.171875 83.449219 493.660156 83.449219 495.871094 C 83.449219 495.871094 83.449219 498.808594 81.449219 500.410156 C 81.449219 500.410156 79.46875 502 75.800781 502 L 67.941406 502 Z M 67.941406 480.121094 "/>
<path style=" stroke:none;fill-rule:nonzero;fill:rgb(0%,0%,0%);fill-opacity:1;" d="M 753.328125 479.808594 L 753.328125 482.941406 C 753.328125 482.941406 751.828125 481.550781 750.128906 480.859375 C 750.128906 480.859375 748.441406 480.171875 746.550781 480.171875 C 746.550781 480.171875 742.800781 480.171875 740.800781 482.46875 C 740.800781 482.46875 738.808594 484.75 738.808594 489.089844 C 738.808594 489.089844 738.808594 493.410156 740.800781 495.699219 C 740.800781 495.699219 742.800781 498 746.550781 498 C 746.550781 498 748.441406 498 750.128906 497.308594 C 750.128906 497.308594 751.828125 496.609375 753.328125 495.21875 L 753.328125 498.308594 C 753.328125 498.308594 751.769531 499.371094 750.03125 499.910156 C 750.03125 499.910156 748.300781 500.421875 746.359375 500.421875 C 746.359375 500.421875 741.390625 500.421875 738.53125 497.390625 C 738.53125 497.390625 735.691406 494.339844 735.691406 489.089844 C 735.691406 489.089844 735.691406 483.808594 738.53125 480.78125 C 738.53125 480.78125 741.390625 477.730469 746.359375 477.730469 C 746.359375 477.730469 748.328125 477.730469 750.058594 478.269531 C 750.058594 478.269531 751.800781 478.78125 753.328125 479.808594 Z M 753.328125 479.808594 "/>
<path style=" stroke:none;fill-rule:nonzero;fill:rgb(0%,0%,0%);fill-opacity:1;" d="M 467.910156 57.558594 L 467.910156 74.558594 L 471.480469 74.558594 C 471.480469 74.558594 476 74.558594 478.089844 72.519531 C 478.089844 72.519531 480.199219 70.46875 480.199219 66.050781 C 480.199219 66.050781 480.199219 61.640625 478.089844 59.609375 C 478.089844 59.609375 476 57.558594 471.480469 57.558594 Z M 464.941406 55.121094 L 471.03125 55.121094 C 471.03125 55.121094 477.378906 55.121094 480.339844 57.78125 C 480.339844 57.78125 483.328125 60.421875 483.328125 66.050781 C 483.328125 66.050781 483.328125 71.699219 480.339844 74.359375 C 480.339844 74.359375 477.359375 77 471.03125 77 L 464.941406 77 Z M 464.941406 55.121094 "/>
<path style=" stroke:none;fill-rule:nonzero;fill:rgb(0%,0%,0%);fill-opacity:1;" d="M 97.941406 336.121094 L 111.769531 336.121094 L 111.769531 338.621094 L 100.910156 338.621094 L 100.910156 345.089844 L 111.308594 345.089844 L 111.308594 347.578125 L 100.910156 347.578125 L 100.910156 355.519531 L 112.03125 355.519531 L 112.03125 358 L 97.941406 358 Z M 97.941406 336.121094 "/>
<path style=" stroke:none;fill-rule:nonzero;fill:rgb(0%,0%,0%);fill-opacity:1;" d="M 625.941406 293.121094 L 638.519531 293.121094 L 638.519531 295.621094 L 628.910156 295.621094 L 628.910156 302.058594 L 637.578125 302.058594 L 637.578125 304.558594 L 628.910156 304.558594 L 628.910156 315 L 625.941406 315 Z M 625.941406 293.121094 "/>
<path style=" stroke:none;fill-rule:nonzero;fill:rgb(0%,0%,0%);fill-opacity:1;" d="M 213.941406 493.121094 L 216.910156 493.121094 L 216.910156 502.089844 L 227.660156 502.089844 L 227.660156 493.121094 L 230.609375 493.121094 L 230.609375 515 L 227.660156 515 L 227.660156 504.578125 L 216.910156 504.578125 L 216.910156 515 L 213.941406 515 Z M 213.941406 493.121094 "/>
<path style=" stroke:none;fill-rule:nonzero;fill:rgb(0%,0%,0%);fill-opacity:1;" d="M 361.859375 356.871094 L 361.859375 351 L 357.019531 351 L 357.019531 348.578125 L 364.78125 348.578125 L 364.78125 357.96875 C 364.78125 357.96875 363.078125 359.171875 361 359.800781 C 361 359.800781 358.941406 360.421875 356.589844 360.421875 C 356.589844 360.421875 351.46875 360.421875 348.578125 357.441406 C 348.578125 357.441406 345.691406 354.441406 345.691406 349.089844 C 345.691406 349.089844 345.691406 343.71875 348.578125 340.730469 C 348.578125 340.730469 351.46875 337.730469 356.589844 337.730469 C 356.589844 337.730469 358.730469 337.730469 360.660156 338.269531 C 360.660156 338.269531 362.589844 338.78125 364.21875 339.808594 L 364.21875 342.96875 C 364.21875 342.96875 362.578125 341.578125 360.730469 340.871094 C 360.730469 340.871094 358.890625 340.171875 356.839844 340.171875 C 356.839844 340.171875 352.828125 340.171875 350.808594 342.410156 C 350.808594 342.410156 348.808594 344.640625 348.808594 349.089844 C 348.808594 349.089844 348.808594 353.519531 350.808594 355.769531 C 350.808594 355.769531 352.828125 358 356.839844 358 C 356.839844 358 358.421875 358 359.640625 357.730469 C 359.640625 357.730469 360.878906 357.449219 361.859375 356.871094 Z M 361.859375 356.871094 "/>
<path style=" stroke:none;fill-rule:nonzero;fill:rgb(0%,0%,0%);fill-opacity:1;" d="M 461.941406 489.121094 L 464.910156 489.121094 L 464.910156 511 L 461.941406 511 Z M 461.941406 489.121094 "/>
</g>
</svg>
