<?xml version="1.0" encoding="UTF-8"?>
<svg xmlns="http://www.w3.org/2000/svg" xmlns:xlink="http://www.w3.org/1999/xlink" width="1366pt" height="565pt" viewBox="0 0 1366 565" version="1.1">
<g id="surface1">
<path style="fill:none;stroke-width:3;stroke-linecap:round;stroke-linejoin:round;stroke:rgb(0%,0%,100%);stroke-opacity:1;stroke-miterlimit:10;" d="M 694.519531 64.511719 L 72.769531 62.101562 " transform="matrix(1,0,0,-1,0,565)"/>
<path style="fill:none;stroke-width:3;stroke-linecap:round;stroke-linejoin:round;stroke:rgb(0%,0%,100%);stroke-opacity:1;stroke-miterlimit:10;" d="M 333.539062 477.398438 L 72.769531 62.101562 " transform="matrix(1,0,0,-1,0,565)"/>
<path style="fill:none;stroke-width:3;stroke-linecap:round;stroke-linejoin:round;stroke:rgb(0%,0%,100%);stroke-opacity:1;stroke-miterlimit:10;" d="M 333.539062 477.398438 L 573.359375 478.328125 " transform="matrix(1,0,0,-1,0,565)"/>
<path style="fill:none;stroke-width:3;stroke-linecap:round;stroke-linejoin:round;stroke:rgb(0%,0%,100%);stroke-opacity:1;stroke-miterlimit:10;" d="M 694.519531 64.511719 L 573.359375 478.328125 " transform="matrix(1,0,0,-1,0,565)"/>
<path style="fill-rule:nonzero;fill:rgb(100%,0%,0%);fill-opacity:1;stroke-width:1;stroke-linecap:square;stroke-linejoin:miter;stroke:rgb(0%,0%,0%);stroke-opacity:1;stroke-miterlimit:10;" d="M 338.539062 477.398438 C 338.539062 474.628906 336.308594 472.398438 333.539062 472.398438 C 330.78125 472.398438 328.539062 474.628906 328.539062 477.398438 C 328.539062 480.160156 330.78125 482.398438 333.539062 482.398438 C 336.308594 482.398438 338.539062 480.160156 338.539062 477.398438 Z M 338.539062 477.398438 " transform="matrix(1,0,0,-1,0,565)"/>
<path style="fill-rule:nonzero;fill:rgb(100%,0%,0%);fill-opacity:1;stroke-width:1;stroke-linecap:square;stroke-linejoin:miter;stroke:rgb(0%,0%,0%);stroke-opacity:1;stroke-miterlimit:10;" d="M 77.769531 62.101562 C 77.769531 59.328125 75.539062 57.101562 72.769531 57.101562 C 70.011719 57.101562 67.769531 59.328125 67.769531 62.101562 C 67.769531 64.859375 70.011719 67.101562 72.769531 67.101562 C 75.539062 67.101562 77.769531 64.859375 77.769531 62.101562 Z M 77.769531 62.101562 " transform="matrix(1,0,0,-1,0,565)"/>
<path style="fill-rule:nonzero;fill:rgb(100%,0%,0%);fill-opacity:1;stroke-width:1;stroke-linecap:square;stroke-linejoin:miter;stroke:rgb(0%,0%,0%);stroke-opacity:1;stroke-miterlimit:10;" d="M 699.519531 64.511719 C 699.519531 61.75 697.28125 59.511719 694.519531 59.511719 C 691.75 59.511719 689.519531 61.75 689.519531 64.511719 C 689.519531 67.269531 691.75 69.511719 694.519531 69.511719 C 697.28125 69.511719 699.519531 67.269531 699.519531 64.511719 Z M 699.519531 64.511719 " transform="matrix(1,0,0,-1,0,565)"/>
<path style="fill-rule:nonzero;fill:rgb(100%,0%,0%);fill-opacity:1;stroke-width:1;stroke-linecap:square;stroke-linejoin:miter;stroke:rgb(0%,0%,0%);stroke-opacity:1;stroke-miterlimit:10;" d="M 578.359375 478.328125 C 578.359375 475.570312 576.121094 473.328125 573.359375 473.328125 C 570.601562 473.328125 568.359375 475.570312 568.359375 478.328125 C 568.359375 481.089844 570.601562 483.328125 573.359375 483.328125 C 576.121094 483.328125 578.359375 481.089844 578.359375 478.328125 Z M 578.359375 478.328125 " transform="matrix(1,0,0,-1,0,565)"/>
<path style=" stroke:none;fill-rule:nonzero;fill:rgb(0%,0%,0%);fill-opacity:1;" d="M 319.25 55.050781 L 315.230469 65.921875 L 323.28125 65.921875 Z M 317.578125 52.121094 L 320.941406 52.121094 L 329.28125 74 L 326.199219 74 L 324.199219 68.390625 L 314.339844 68.390625 L 312.359375 74 L 309.230469 74 Z M 317.578125 52.121094 "/>
<path style=" stroke:none;fill-rule:nonzero;fill:rgb(0%,0%,0%);fill-opacity:1;" d="M 43.910156 518.558594 L 43.910156 526.558594 L 48.660156 526.558594 C 48.660156 526.558594 51.03125 526.558594 52.191406 525.578125 C 52.191406 525.578125 53.339844 524.589844 53.339844 522.550781 C 53.339844 522.550781 53.339844 520.5 52.191406 519.53125 C 52.191406 519.53125 51.03125 518.558594 48.660156 518.558594 Z M 43.910156 509.558594 L 43.910156 516.160156 L 48.28125 516.160156 C 48.28125 516.160156 50.449219 516.160156 51.519531 515.339844 C 51.519531 515.339844 52.578125 514.53125 52.578125 512.859375 C 52.578125 512.859375 52.578125 511.199219 51.519531 510.390625 C 51.519531 510.390625 50.449219 509.558594 48.28125 509.558594 Z M 40.941406 507.121094 L 48.5 507.121094 C 48.5 507.121094 51.890625 507.121094 53.71875 508.53125 C 53.71875 508.53125 55.550781 509.941406 55.550781 512.53125 C 55.550781 512.53125 55.550781 514.550781 54.609375 515.730469 C 54.609375 515.730469 53.671875 516.921875 51.859375 517.199219 C 51.859375 517.199219 54.050781 517.671875 55.25 519.171875 C 55.25 519.171875 56.449219 520.660156 56.449219 522.871094 C 56.449219 522.871094 56.449219 525.808594 54.449219 527.410156 C 54.449219 527.410156 52.46875 529 48.800781 529 L 40.941406 529 Z M 40.941406 507.121094 "/>
<path style=" stroke:none;fill-rule:nonzero;fill:rgb(0%,0%,0%);fill-opacity:1;" d="M 730.328125 500.808594 L 730.328125 503.941406 C 730.328125 503.941406 728.828125 502.550781 727.128906 501.859375 C 727.128906 501.859375 725.441406 501.171875 723.550781 501.171875 C 723.550781 501.171875 719.800781 501.171875 717.800781 503.46875 C 717.800781 503.46875 715.808594 505.75 715.808594 510.089844 C 715.808594 510.089844 715.808594 514.410156 717.800781 516.699219 C 717.800781 516.699219 719.800781 519 723.550781 519 C 723.550781 519 725.441406 519 727.128906 518.308594 C 727.128906 518.308594 728.828125 517.609375 730.328125 516.21875 L 730.328125 519.308594 C 730.328125 519.308594 728.769531 520.371094 727.03125 520.910156 C 727.03125 520.910156 725.300781 521.421875 723.359375 521.421875 C 723.359375 521.421875 718.390625 521.421875 715.53125 518.390625 C 715.53125 518.390625 712.691406 515.339844 712.691406 510.089844 C 712.691406 510.089844 712.691406 504.808594 715.53125 501.78125 C 715.53125 501.78125 718.390625 498.730469 723.359375 498.730469 C 723.359375 498.730469 725.328125 498.730469 727.058594 499.269531 C 727.058594 499.269531 728.800781 499.78125 730.328125 500.808594 Z M 730.328125 500.808594 "/>
<path style=" stroke:none;fill-rule:nonzero;fill:rgb(0%,0%,0%);fill-opacity:1;" d="M 586.910156 54.558594 L 586.910156 71.558594 L 590.480469 71.558594 C 590.480469 71.558594 595 71.558594 597.089844 69.519531 C 597.089844 69.519531 599.199219 67.46875 599.199219 63.050781 C 599.199219 63.050781 599.199219 58.640625 597.089844 56.609375 C 597.089844 56.609375 595 54.558594 590.480469 54.558594 Z M 583.941406 52.121094 L 590.03125 52.121094 C 590.03125 52.121094 596.378906 52.121094 599.339844 54.78125 C 599.339844 54.78125 602.328125 57.421875 602.328125 63.050781 C 602.328125 63.050781 602.328125 68.699219 599.339844 71.359375 C 599.339844 71.359375 596.359375 74 590.03125 74 L 583.941406 74 Z M 583.941406 52.121094 "/>
</g>
</svg>
