<?xml version="1.0" encoding="UTF-8"?>
<svg xmlns="http://www.w3.org/2000/svg" xmlns:xlink="http://www.w3.org/1999/xlink" width="1366pt" height="565pt" viewBox="0 0 1366 565" version="1.1">
<g id="surface1">
<path style="fill:none;stroke-width:3;stroke-linecap:round;stroke-linejoin:round;stroke:rgb(0%,0%,100%);stroke-opacity:1;stroke-miterlimit:10;" d="M 694.5 61.5 L 72.769531 62.101562 " transform="matrix(1,0,0,-1,0,565)"/>
<path style="fill:none;stroke-width:3;stroke-linecap:round;stroke-linejoin:round;stroke:rgb(0%,0%,100%);stroke-opacity:1;stroke-miterlimit:10;" d="M 333.539062 477.398438 L 72.769531 62.101562 " transform="matrix(1,0,0,-1,0,565)"/>
<path style="fill:none;stroke-width:3;stroke-linecap:round;stroke-linejoin:round;stroke:rgb(0%,0%,100%);stroke-opacity:1;stroke-miterlimit:10;" d="M 333.539062 477.398438 L 573.359375 477.171875 " transform="matrix(1,0,0,-1,0,565)"/>
<path style="fill:none;stroke-width:3;stroke-linecap:round;stroke-linejoin:round;stroke:rgb(0%,0%,100%);stroke-opacity:1;stroke-miterlimit:10;" d="M 694.5 61.5 L 573.359375 477.171875 " transform="matrix(1,0,0,-1,0,565)"/>
<path style="fill:none;stroke-width:3;stroke-linecap:round;stroke-linejoin:round;stroke:rgb(0%,0%,100%);stroke-opacity:1;stroke-miterlimit:10;" d="M 798.5 269.171875 L 60.5 269.878906 " transform="matrix(1,0,0,-1,0,565)"/>
<path style="fill-rule:nonzero;fill:rgb(100%,0%,0%);fill-opacity:1;stroke-width:1;stroke-linecap:square;stroke-linejoin:miter;stroke:rgb(0%,0%,0%);stroke-opacity:1;stroke-miterlimit:10;" d="M 338.539062 477.398438 C 338.539062 474.628906 336.308594 472.398438 333.539062 472.398438 C 330.78125 472.398438 328.539062 474.628906 328.539062 477.398438 C 328.539062 480.160156 330.78125 482.398438 333.539062 482.398438 C 336.308594 482.398438 338.539062 480.160156 338.539062 477.398438 Z M 338.539062 477.398438 " transform="matrix(1,0,0,-1,0,565)"/>
<path style="fill-rule:nonzero;fill:rgb(100%,0%,0%);fill-opacity:1;stroke-width:1;stroke-linecap:square;stroke-linejoin:miter;stroke:rgb(0%,0%,0%);stroke-opacity:1;stroke-miterlimit:10;" d="M 77.769531 62.101562 C 77.769531 59.328125 75.539062 57.101562 72.769531 57.101562 C 70.011719 57.101562 67.769531 59.328125 67.769531 62.101562 C 67.769531 64.859375 70.011719 67.101562 72.769531 67.101562 C 75.539062 67.101562 77.769531 64.859375 77.769531 62.101562 Z M 77.769531 62.101562 " transform="matrix(1,0,0,-1,0,565)"/>
<path style="fill-rule:nonzero;fill:rgb(100%,0%,0%);fill-opacity:1;stroke-width:1;stroke-linecap:square;stroke-linejoin:miter;stroke:rgb(0%,0%,0%);stroke-opacity:1;stroke-miterlimit:10;" d="M 699.5 61.5 C 699.5 58.738281 697.261719 56.5 694.5 56.5 C 691.738281 56.5 689.5 58.738281 689.5 61.5 C 689.5 64.261719 691.738281 66.5 694.5 66.5 C 697.261719 66.5 699.5 64.261719 699.5 61.5 Z M 699.5 61.5 " transform="matrix(1,0,0,-1,0,565)"/>
<path style="fill-rule:nonzero;fill:rgb(100%,0%,0%);fill-opacity:1;stroke-width:1;stroke-linecap:square;stroke-linejoin:miter;stroke:rgb(0%,0%,0%);stroke-opacity:1;stroke-miterlimit:10;" d="M 578.359375 477.171875 C 578.359375 474.398438 576.121094 472.171875 573.359375 472.171875 C 570.601562 472.171875 568.359375 474.398438 568.359375 477.171875 C 568.359375 479.929688 570.601562 482.171875 573.359375 482.171875 C 576.121094 482.171875 578.359375 479.929688 578.359375 477.171875 Z M 578.359375 477.171875 " transform="matrix(1,0,0,-1,0,565)"/>
<path style="fill-rule:nonzero;fill:rgb(69.802856%,0%,0%);fill-opacity:1;stroke-width:1;stroke-linecap:square;stroke-linejoin:miter;stroke:rgb(0%,0%,0%);stroke-opacity:1;stroke-miterlimit:10;" d="M 208.160156 269.75 C 208.160156 266.980469 205.921875 264.75 203.160156 264.75 C 200.398438 264.75 198.160156 266.980469 198.160156 269.75 C 198.160156 272.511719 200.398438 274.75 203.160156 274.75 C 205.921875 274.75 208.160156 272.511719 208.160156 269.75 Z M 208.160156 269.75 " transform="matrix(1,0,0,-1,0,565)"/>
<path style="fill-rule:nonzero;fill:rgb(69.802856%,0%,0%);fill-opacity:1;stroke-width:1;stroke-linecap:square;stroke-linejoin:miter;stroke:rgb(0%,0%,0%);stroke-opacity:1;stroke-miterlimit:10;" d="M 638.929688 269.328125 C 638.929688 266.570312 636.691406 264.328125 633.929688 264.328125 C 631.171875 264.328125 628.929688 266.570312 628.929688 269.328125 C 628.929688 272.089844 631.171875 274.328125 633.929688 274.328125 C 636.691406 274.328125 638.929688 272.089844 638.929688 269.328125 Z M 638.929688 269.328125 " transform="matrix(1,0,0,-1,0,565)"/>
<path style=" stroke:none;fill-rule:nonzero;fill:rgb(100%,100%,100%);fill-opacity:1;" d="M 68.5 295.121094 C 68.5 299.539062 64.921875 303.121094 60.5 303.121094 C 56.078125 303.121094 52.5 299.539062 52.5 295.121094 C 52.5 290.699219 56.078125 287.121094 60.5 287.121094 C 64.921875 287.121094 68.5 290.699219 68.5 295.121094 Z M 68.5 295.121094 "/>
<path style=" stroke:none;fill-rule:nonzero;fill:rgb(0%,0%,0%);fill-opacity:1;" d="M 319.25 55.050781 L 315.230469 65.921875 L 323.28125 65.921875 Z M 317.578125 52.121094 L 320.941406 52.121094 L 329.28125 74 L 326.199219 74 L 324.199219 68.390625 L 314.339844 68.390625 L 312.359375 74 L 309.230469 74 Z M 317.578125 52.121094 "/>
<path style=" stroke:none;fill-rule:nonzero;fill:rgb(0%,0%,0%);fill-opacity:1;" d="M 43.910156 518.558594 L 43.910156 526.558594 L 48.660156 526.558594 C 48.660156 526.558594 51.03125 526.558594 52.191406 525.578125 C 52.191406 525.578125 53.339844 524.589844 53.339844 522.550781 C 53.339844 522.550781 53.339844 520.5 52.191406 519.53125 C 52.191406 519.53125 51.03125 518.558594 48.660156 518.558594 Z M 43.910156 509.558594 L 43.910156 516.160156 L 48.28125 516.160156 C 48.28125 516.160156 50.449219 516.160156 51.519531 515.339844 C 51.519531 515.339844 52.578125 514.53125 52.578125 512.859375 C 52.578125 512.859375 52.578125 511.199219 51.519531 510.390625 C 51.519531 510.390625 50.449219 509.558594 48.28125 509.558594 Z M 40.941406 507.121094 L 48.5 507.121094 C 48.5 507.121094 51.890625 507.121094 53.71875 508.53125 C 53.71875 508.53125 55.550781 509.941406 55.550781 512.53125 C 55.550781 512.53125 55.550781 514.550781 54.609375 515.730469 C 54.609375 515.730469 53.671875 516.921875 51.859375 517.199219 C 51.859375 517.199219 54.050781 517.671875 55.25 519.171875 C 55.25 519.171875 56.449219 520.660156 56.449219 522.871094 C 56.449219 522.871094 56.449219 525.808594 54.449219 527.410156 C 54.449219 527.410156 52.46875 529 48.800781 529 L 40.941406 529 Z M 40.941406 507.121094 "/>
<path style=" stroke:none;fill-rule:nonzero;fill:rgb(0%,0%,0%);fill-opacity:1;" d="M 730.328125 503.808594 L 730.328125 506.941406 C 730.328125 506.941406 728.828125 505.550781 727.128906 504.859375 C 727.128906 504.859375 725.441406 504.171875 723.550781 504.171875 C 723.550781 504.171875 719.800781 504.171875 717.800781 506.46875 C 717.800781 506.46875 715.808594 508.75 715.808594 513.089844 C 715.808594 513.089844 715.808594 517.410156 717.800781 519.699219 C 717.800781 519.699219 719.800781 522 723.550781 522 C 723.550781 522 725.441406 522 727.128906 521.308594 C 727.128906 521.308594 728.828125 520.609375 730.328125 519.21875 L 730.328125 522.308594 C 730.328125 522.308594 728.769531 523.371094 727.03125 523.910156 C 727.03125 523.910156 725.300781 524.421875 723.359375 524.421875 C 723.359375 524.421875 718.390625 524.421875 715.53125 521.390625 C 715.53125 521.390625 712.691406 518.339844 712.691406 513.089844 C 712.691406 513.089844 712.691406 507.808594 715.53125 504.78125 C 715.53125 504.78125 718.390625 501.730469 723.359375 501.730469 C 723.359375 501.730469 725.328125 501.730469 727.058594 502.269531 C 727.058594 502.269531 728.800781 502.78125 730.328125 503.808594 Z M 730.328125 503.808594 "/>
<path style=" stroke:none;fill-rule:nonzero;fill:rgb(0%,0%,0%);fill-opacity:1;" d="M 586.910156 55.558594 L 586.910156 72.558594 L 590.480469 72.558594 C 590.480469 72.558594 595 72.558594 597.089844 70.519531 C 597.089844 70.519531 599.199219 68.46875 599.199219 64.050781 C 599.199219 64.050781 599.199219 59.640625 597.089844 57.609375 C 597.089844 57.609375 595 55.558594 590.480469 55.558594 Z M 583.941406 53.121094 L 590.03125 53.121094 C 590.03125 53.121094 596.378906 53.121094 599.339844 55.78125 C 599.339844 55.78125 602.328125 58.421875 602.328125 64.050781 C 602.328125 64.050781 602.328125 69.699219 599.339844 72.359375 C 599.339844 72.359375 596.359375 75 590.03125 75 L 583.941406 75 Z M 583.941406 53.121094 "/>
<path style=" stroke:none;fill-rule:nonzero;fill:rgb(0%,0%,0%);fill-opacity:1;" d="M 179.941406 258.121094 L 193.769531 258.121094 L 193.769531 260.621094 L 182.910156 260.621094 L 182.910156 267.089844 L 193.308594 267.089844 L 193.308594 269.578125 L 182.910156 269.578125 L 182.910156 277.519531 L 194.03125 277.519531 L 194.03125 280 L 179.941406 280 Z M 179.941406 258.121094 "/>
<path style=" stroke:none;fill-rule:nonzero;fill:rgb(0%,0%,0%);fill-opacity:1;" d="M 643.941406 257.121094 L 656.519531 257.121094 L 656.519531 259.621094 L 646.910156 259.621094 L 646.910156 266.058594 L 655.578125 266.058594 L 655.578125 268.558594 L 646.910156 268.558594 L 646.910156 279 L 643.941406 279 Z M 643.941406 257.121094 "/>
</g>
</svg>
