<?xml version="1.0" encoding="UTF-8"?>
<svg xmlns="http://www.w3.org/2000/svg" xmlns:xlink="http://www.w3.org/1999/xlink" width="1366pt" height="565pt" viewBox="0 0 1366 565" version="1.1">
<g id="surface1">
<path style="fill:none;stroke-width:3;stroke-linecap:round;stroke-linejoin:round;stroke:rgb(0%,0%,100%);stroke-opacity:1;stroke-miterlimit:10;" d="M 694.5 61.5 L 72.769531 62.101562 " transform="matrix(1,0,0,-1,0,565)"/>
<path style="fill:none;stroke-width:3;stroke-linecap:round;stroke-linejoin:round;stroke:rgb(0%,0%,100%);stroke-opacity:1;stroke-miterlimit:10;" d="M 333.539062 477.398438 L 72.769531 62.101562 " transform="matrix(1,0,0,-1,0,565)"/>
<path style="fill:none;stroke-width:3;stroke-linecap:round;stroke-linejoin:round;stroke:rgb(0%,0%,100%);stroke-opacity:1;stroke-miterlimit:10;" d="M 333.539062 477.398438 L 573.359375 477.171875 " transform="matrix(1,0,0,-1,0,565)"/>
<path style="fill:none;stroke-width:3;stroke-linecap:round;stroke-linejoin:round;stroke:rgb(0%,0%,100%);stroke-opacity:1;stroke-miterlimit:10;" d="M 694.5 61.5 L 573.359375 477.171875 " transform="matrix(1,0,0,-1,0,565)"/>
<path style="fill:none;stroke-width:3;stroke-linecap:round;stroke-linejoin:round;stroke:rgb(0%,0%,100%);stroke-opacity:1;stroke-miterlimit:10;" d="M 798.5 269.171875 L 60.5 269.878906 " transform="matrix(1,0,0,-1,0,565)"/>
<path style="fill:none;stroke-width:3;stroke-linecap:square;stroke-linejoin:miter;stroke:rgb(100%,100%,100%);stroke-opacity:1;stroke-miterlimit:10;" d="M 4.441406 706.851562 C 5.269531 706.851562 5.941406 706.179688 5.941406 705.351562 C 5.941406 704.519531 5.269531 703.851562 4.441406 703.851562 C 3.609375 703.851562 2.941406 704.519531 2.941406 705.351562 C 2.941406 706.179688 3.609375 706.851562 4.441406 706.851562 Z M 9.378906 703.429688 C 10.210938 703.429688 10.878906 702.761719 10.878906 701.929688 C 10.878906 701.101562 10.210938 700.429688 9.378906 700.429688 C 8.550781 700.429688 7.878906 701.101562 7.878906 701.929688 C 7.878906 702.761719 8.550781 703.429688 9.378906 703.429688 Z M 14.320312 700.011719 C 15.140625 700.011719 15.820312 699.339844 15.820312 698.511719 C 15.820312 697.679688 15.140625 697.011719 14.320312 697.011719 C 13.488281 697.011719 12.820312 697.679688 12.820312 698.511719 C 12.820312 699.339844 13.488281 700.011719 14.320312 700.011719 Z M 19.25 696.589844 C 20.078125 696.589844 20.75 695.921875 20.75 695.089844 C 20.75 694.261719 20.078125 693.589844 19.25 693.589844 C 18.429688 693.589844 17.75 694.261719 17.75 695.089844 C 17.75 695.921875 18.429688 696.589844 19.25 696.589844 Z M 24.191406 693.171875 C 25.019531 693.171875 25.691406 692.5 25.691406 691.671875 C 25.691406 690.839844 25.019531 690.171875 24.191406 690.171875 C 23.359375 690.171875 22.691406 690.839844 22.691406 691.671875 C 22.691406 692.5 23.359375 693.171875 24.191406 693.171875 Z M 29.128906 689.75 C 29.960938 689.75 30.628906 689.070312 30.628906 688.25 C 30.628906 687.421875 29.960938 686.75 29.128906 686.75 C 28.300781 686.75 27.628906 687.421875 27.628906 688.25 C 27.628906 689.070312 28.300781 689.75 29.128906 689.75 Z M 34.070312 686.328125 C 34.898438 686.328125 35.570312 685.648438 35.570312 684.828125 C 35.570312 684 34.898438 683.328125 34.070312 683.328125 C 33.238281 683.328125 32.570312 684 32.570312 684.828125 C 32.570312 685.648438 33.238281 686.328125 34.070312 686.328125 Z M 39.011719 682.898438 C 39.839844 682.898438 40.511719 682.230469 40.511719 681.398438 C 40.511719 680.578125 39.839844 679.898438 39.011719 679.898438 C 38.179688 679.898438 37.511719 680.578125 37.511719 681.398438 C 37.511719 682.230469 38.179688 682.898438 39.011719 682.898438 Z M 43.949219 679.480469 C 44.78125 679.480469 45.449219 678.808594 45.449219 677.980469 C 45.449219 677.160156 44.78125 676.480469 43.949219 676.480469 C 43.121094 676.480469 42.449219 677.160156 42.449219 677.980469 C 42.449219 678.808594 43.121094 679.480469 43.949219 679.480469 Z M 48.890625 676.058594 C 49.710938 676.058594 50.390625 675.390625 50.390625 674.558594 C 50.390625 673.730469 49.710938 673.058594 48.890625 673.058594 C 48.058594 673.058594 47.390625 673.730469 47.390625 674.558594 C 47.390625 675.390625 48.058594 676.058594 48.890625 676.058594 Z M 53.820312 672.640625 C 54.648438 672.640625 55.320312 671.96875 55.320312 671.140625 C 55.320312 670.308594 54.648438 669.640625 53.820312 669.640625 C 53 669.640625 52.320312 670.308594 52.320312 671.140625 C 52.320312 671.96875 53 672.640625 53.820312 672.640625 Z M 58.761719 669.21875 C 59.589844 669.21875 60.261719 668.550781 60.261719 667.71875 C 60.261719 666.890625 59.589844 666.21875 58.761719 666.21875 C 57.941406 666.21875 57.261719 666.890625 57.261719 667.71875 C 57.261719 668.550781 57.941406 669.21875 58.761719 669.21875 Z M 63.699219 665.800781 C 64.53125 665.800781 65.199219 665.128906 65.199219 664.300781 C 65.199219 663.46875 64.53125 662.800781 63.699219 662.800781 C 62.871094 662.800781 62.199219 663.46875 62.199219 664.300781 C 62.199219 665.128906 62.871094 665.800781 63.699219 665.800781 Z M 68.640625 662.378906 C 69.46875 662.378906 70.140625 661.710938 70.140625 660.878906 C 70.140625 660.050781 69.46875 659.378906 68.640625 659.378906 C 67.808594 659.378906 67.140625 660.050781 67.140625 660.878906 C 67.140625 661.710938 67.808594 662.378906 68.640625 662.378906 Z M 73.578125 658.960938 C 74.410156 658.960938 75.078125 658.289062 75.078125 657.460938 C 75.078125 656.628906 74.410156 655.960938 73.578125 655.960938 C 72.75 655.960938 72.078125 656.628906 72.078125 657.460938 C 72.078125 658.289062 72.75 658.960938 73.578125 658.960938 Z M 78.519531 655.539062 C 79.351562 655.539062 80.019531 654.871094 80.019531 654.039062 C 80.019531 653.210938 79.351562 652.539062 78.519531 652.539062 C 77.691406 652.539062 77.019531 653.210938 77.019531 654.039062 C 77.019531 654.871094 77.691406 655.539062 78.519531 655.539062 Z M 83.460938 652.121094 C 84.289062 652.121094 84.960938 651.449219 84.960938 650.621094 C 84.960938 649.789062 84.289062 649.121094 83.460938 649.121094 C 82.628906 649.121094 81.960938 649.789062 81.960938 650.621094 C 81.960938 651.449219 82.628906 652.121094 83.460938 652.121094 Z M 88.398438 648.699219 C 89.21875 648.699219 89.898438 648.03125 89.898438 647.199219 C 89.898438 646.371094 89.21875 645.699219 88.398438 645.699219 C 87.570312 645.699219 86.898438 646.371094 86.898438 647.199219 C 86.898438 648.03125 87.570312 648.699219 88.398438 648.699219 Z M 93.328125 645.28125 C 94.160156 645.28125 94.828125 644.601562 94.828125 643.78125 C 94.828125 642.949219 94.160156 642.28125 93.328125 642.28125 C 92.511719 642.28125 91.828125 642.949219 91.828125 643.78125 C 91.828125 644.601562 92.511719 645.28125 93.328125 645.28125 Z M 98.269531 641.859375 C 99.101562 641.859375 99.769531 641.179688 99.769531 640.359375 C 99.769531 639.53125 99.101562 638.859375 98.269531 638.859375 C 97.441406 638.859375 96.769531 639.53125 96.769531 640.359375 C 96.769531 641.179688 97.441406 641.859375 98.269531 641.859375 Z M 103.210938 638.429688 C 104.039062 638.429688 104.710938 637.761719 104.710938 636.929688 C 104.710938 636.109375 104.039062 635.429688 103.210938 635.429688 C 102.378906 635.429688 101.710938 636.109375 101.710938 636.929688 C 101.710938 637.761719 102.378906 638.429688 103.210938 638.429688 Z M 108.148438 635.011719 C 108.980469 635.011719 109.648438 634.339844 109.648438 633.511719 C 109.648438 632.691406 108.980469 632.011719 108.148438 632.011719 C 107.320312 632.011719 106.648438 632.691406 106.648438 633.511719 C 106.648438 634.339844 107.320312 635.011719 108.148438 635.011719 Z M 113.089844 631.589844 C 113.921875 631.589844 114.589844 630.921875 114.589844 630.089844 C 114.589844 629.269531 113.921875 628.589844 113.089844 628.589844 C 112.261719 628.589844 111.589844 629.269531 111.589844 630.089844 C 111.589844 630.921875 112.261719 631.589844 113.089844 631.589844 Z M 118.03125 628.171875 C 118.859375 628.171875 119.53125 627.5 119.53125 626.671875 C 119.53125 625.839844 118.859375 625.171875 118.03125 625.171875 C 117.199219 625.171875 116.53125 625.839844 116.53125 626.671875 C 116.53125 627.5 117.199219 628.171875 118.03125 628.171875 Z M 122.96875 624.75 C 123.789062 624.75 124.46875 624.078125 124.46875 623.25 C 124.46875 622.421875 123.789062 621.75 122.96875 621.75 C 122.140625 621.75 121.46875 622.421875 121.46875 623.25 C 121.46875 624.078125 122.140625 624.75 122.96875 624.75 Z M 127.898438 621.328125 C 128.730469 621.328125 129.398438 620.660156 129.398438 619.828125 C 129.398438 619 128.730469 618.328125 127.898438 618.328125 C 127.078125 618.328125 126.398438 619 126.398438 619.828125 C 126.398438 620.660156 127.078125 621.328125 127.898438 621.328125 Z M 132.839844 617.910156 C 133.671875 617.910156 134.339844 617.238281 134.339844 616.410156 C 134.339844 615.578125 133.671875 614.910156 132.839844 614.910156 C 132.011719 614.910156 131.339844 615.578125 131.339844 616.410156 C 131.339844 617.238281 132.011719 617.910156 132.839844 617.910156 Z M 137.78125 614.488281 C 138.609375 614.488281 139.28125 613.820312 139.28125 612.988281 C 139.28125 612.160156 138.609375 611.488281 137.78125 611.488281 C 136.949219 611.488281 136.28125 612.160156 136.28125 612.988281 C 136.28125 613.820312 136.949219 614.488281 137.78125 614.488281 Z M 142.71875 611.070312 C 143.550781 611.070312 144.21875 610.398438 144.21875 609.570312 C 144.21875 608.738281 143.550781 608.070312 142.71875 608.070312 C 141.890625 608.070312 141.21875 608.738281 141.21875 609.570312 C 141.21875 610.398438 141.890625 611.070312 142.71875 611.070312 Z M 147.660156 607.648438 C 148.488281 607.648438 149.160156 606.980469 149.160156 606.148438 C 149.160156 605.320312 148.488281 604.648438 147.660156 604.648438 C 146.828125 604.648438 146.160156 605.320312 146.160156 606.148438 C 146.160156 606.980469 146.828125 607.648438 147.660156 607.648438 Z M 152.601562 604.230469 C 153.429688 604.230469 154.101562 603.558594 154.101562 602.730469 C 154.101562 601.898438 153.429688 601.230469 152.601562 601.230469 C 151.769531 601.230469 151.101562 601.898438 151.101562 602.730469 C 151.101562 603.558594 151.769531 604.230469 152.601562 604.230469 Z M 157.539062 600.808594 C 158.359375 600.808594 159.039062 600.140625 159.039062 599.308594 C 159.039062 598.480469 158.359375 597.808594 157.539062 597.808594 C 156.710938 597.808594 156.039062 598.480469 156.039062 599.308594 C 156.039062 600.140625 156.710938 600.808594 157.539062 600.808594 Z M 162.46875 597.390625 C 163.300781 597.390625 163.96875 596.710938 163.96875 595.890625 C 163.96875 595.058594 163.300781 594.390625 162.46875 594.390625 C 161.648438 594.390625 160.96875 595.058594 160.96875 595.890625 C 160.96875 596.710938 161.648438 597.390625 162.46875 597.390625 Z M 167.410156 593.96875 C 168.238281 593.96875 168.910156 593.289062 168.910156 592.46875 C 168.910156 591.640625 168.238281 590.96875 167.410156 590.96875 C 166.578125 590.96875 165.910156 591.640625 165.910156 592.46875 C 165.910156 593.289062 166.578125 593.96875 167.410156 593.96875 Z M 172.351562 590.539062 C 173.179688 590.539062 173.851562 589.871094 173.851562 589.039062 C 173.851562 588.21875 173.179688 587.539062 172.351562 587.539062 C 171.519531 587.539062 170.851562 588.21875 170.851562 589.039062 C 170.851562 589.871094 171.519531 590.539062 172.351562 590.539062 Z M 177.289062 587.121094 C 178.121094 587.121094 178.789062 586.449219 178.789062 585.621094 C 178.789062 584.800781 178.121094 584.121094 177.289062 584.121094 C 176.460938 584.121094 175.789062 584.800781 175.789062 585.621094 C 175.789062 586.449219 176.460938 587.121094 177.289062 587.121094 Z M 182.230469 583.699219 C 183.058594 583.699219 183.730469 583.03125 183.730469 582.199219 C 183.730469 581.371094 183.058594 580.699219 182.230469 580.699219 C 181.398438 580.699219 180.730469 581.371094 180.730469 582.199219 C 180.730469 583.03125 181.398438 583.699219 182.230469 583.699219 Z M 187.171875 580.28125 C 188 580.28125 188.671875 579.609375 188.671875 578.78125 C 188.671875 577.949219 188 577.28125 187.171875 577.28125 C 186.339844 577.28125 185.671875 577.949219 185.671875 578.78125 C 185.671875 579.609375 186.339844 580.28125 187.171875 580.28125 Z M 192.109375 576.859375 C 192.929688 576.859375 193.609375 576.191406 193.609375 575.359375 C 193.609375 574.53125 192.929688 573.859375 192.109375 573.859375 C 191.28125 573.859375 190.609375 574.53125 190.609375 575.359375 C 190.609375 576.191406 191.28125 576.859375 192.109375 576.859375 Z M 197.050781 573.441406 C 197.871094 573.441406 198.550781 572.769531 198.550781 571.941406 C 198.550781 571.109375 197.871094 570.441406 197.050781 570.441406 C 196.21875 570.441406 195.550781 571.109375 195.550781 571.941406 C 195.550781 572.769531 196.21875 573.441406 197.050781 573.441406 Z M 201.980469 570.019531 C 202.808594 570.019531 203.480469 569.351562 203.480469 568.519531 C 203.480469 567.691406 202.808594 567.019531 201.980469 567.019531 C 201.160156 567.019531 200.480469 567.691406 200.480469 568.519531 C 200.480469 569.351562 201.160156 570.019531 201.980469 570.019531 Z M 206.921875 566.601562 C 207.75 566.601562 208.421875 565.929688 208.421875 565.101562 C 208.421875 564.269531 207.75 563.601562 206.921875 563.601562 C 206.089844 563.601562 205.421875 564.269531 205.421875 565.101562 C 205.421875 565.929688 206.089844 566.601562 206.921875 566.601562 Z M 211.859375 563.179688 C 212.691406 563.179688 213.359375 562.511719 213.359375 561.679688 C 213.359375 560.851562 212.691406 560.179688 211.859375 560.179688 C 211.03125 560.179688 210.359375 560.851562 210.359375 561.679688 C 210.359375 562.511719 211.03125 563.179688 211.859375 563.179688 Z M 216.800781 559.761719 C 217.628906 559.761719 218.300781 559.089844 218.300781 558.261719 C 218.300781 557.429688 217.628906 556.761719 216.800781 556.761719 C 215.96875 556.761719 215.300781 557.429688 215.300781 558.261719 C 215.300781 559.089844 215.96875 559.761719 216.800781 559.761719 Z M 221.738281 556.339844 C 222.570312 556.339844 223.238281 555.671875 223.238281 554.839844 C 223.238281 554.011719 222.570312 553.339844 221.738281 553.339844 C 220.910156 553.339844 220.238281 554.011719 220.238281 554.839844 C 220.238281 555.671875 220.910156 556.339844 221.738281 556.339844 Z M 226.679688 552.921875 C 227.511719 552.921875 228.179688 552.238281 228.179688 551.421875 C 228.179688 550.589844 227.511719 549.921875 226.679688 549.921875 C 225.851562 549.921875 225.179688 550.589844 225.179688 551.421875 C 225.179688 552.238281 225.851562 552.921875 226.679688 552.921875 Z M 231.621094 549.5 C 232.441406 549.5 233.121094 548.820312 233.121094 548 C 233.121094 547.171875 232.441406 546.5 231.621094 546.5 C 230.789062 546.5 230.121094 547.171875 230.121094 548 C 230.121094 548.820312 230.789062 549.5 231.621094 549.5 Z M 236.550781 546.078125 C 237.378906 546.078125 238.050781 545.398438 238.050781 544.578125 C 238.050781 543.75 237.378906 543.078125 236.550781 543.078125 C 235.730469 543.078125 235.050781 543.75 235.050781 544.578125 C 235.050781 545.398438 235.730469 546.078125 236.550781 546.078125 Z M 241.488281 542.648438 C 242.320312 542.648438 242.988281 541.980469 242.988281 541.148438 C 242.988281 540.328125 242.320312 539.648438 241.488281 539.648438 C 240.660156 539.648438 239.988281 540.328125 239.988281 541.148438 C 239.988281 541.980469 240.660156 542.648438 241.488281 542.648438 Z M 246.429688 539.230469 C 247.261719 539.230469 247.929688 538.558594 247.929688 537.730469 C 247.929688 536.910156 247.261719 536.230469 246.429688 536.230469 C 245.601562 536.230469 244.929688 536.910156 244.929688 537.730469 C 244.929688 538.558594 245.601562 539.230469 246.429688 539.230469 Z M 251.371094 535.808594 C 252.199219 535.808594 252.871094 535.140625 252.871094 534.308594 C 252.871094 533.480469 252.199219 532.808594 251.371094 532.808594 C 250.539062 532.808594 249.871094 533.480469 249.871094 534.308594 C 249.871094 535.140625 250.539062 535.808594 251.371094 535.808594 Z M 256.308594 532.390625 C 257.140625 532.390625 257.808594 531.71875 257.808594 530.890625 C 257.808594 530.058594 257.140625 529.390625 256.308594 529.390625 C 255.480469 529.390625 254.808594 530.058594 254.808594 530.890625 C 254.808594 531.71875 255.480469 532.390625 256.308594 532.390625 Z M 261.25 528.96875 C 262.078125 528.96875 262.75 528.300781 262.75 527.46875 C 262.75 526.640625 262.078125 525.96875 261.25 525.96875 C 260.421875 525.96875 259.75 526.640625 259.75 527.46875 C 259.75 528.300781 260.421875 528.96875 261.25 528.96875 Z M 266.191406 525.550781 C 267.011719 525.550781 267.691406 524.878906 267.691406 524.050781 C 267.691406 523.21875 267.011719 522.550781 266.191406 522.550781 C 265.359375 522.550781 264.691406 523.21875 264.691406 524.050781 C 264.691406 524.878906 265.359375 525.550781 266.191406 525.550781 Z M 271.121094 522.128906 C 271.949219 522.128906 272.621094 521.460938 272.621094 520.628906 C 272.621094 519.800781 271.949219 519.128906 271.121094 519.128906 C 270.300781 519.128906 269.621094 519.800781 269.621094 520.628906 C 269.621094 521.460938 270.300781 522.128906 271.121094 522.128906 Z M 276.058594 518.710938 C 276.890625 518.710938 277.558594 518.039062 277.558594 517.210938 C 277.558594 516.378906 276.890625 515.710938 276.058594 515.710938 C 275.230469 515.710938 274.558594 516.378906 274.558594 517.210938 C 274.558594 518.039062 275.230469 518.710938 276.058594 518.710938 Z M 281 515.289062 C 281.828125 515.289062 282.5 514.621094 282.5 513.789062 C 282.5 512.960938 281.828125 512.289062 281 512.289062 C 280.171875 512.289062 279.5 512.960938 279.5 513.789062 C 279.5 514.621094 280.171875 515.289062 281 515.289062 Z M 285.941406 511.871094 C 286.769531 511.871094 287.441406 511.199219 287.441406 510.371094 C 287.441406 509.539062 286.769531 508.871094 285.941406 508.871094 C 285.109375 508.871094 284.441406 509.539062 284.441406 510.371094 C 284.441406 511.199219 285.109375 511.871094 285.941406 511.871094 Z M 290.878906 508.449219 C 291.710938 508.449219 292.378906 507.78125 292.378906 506.949219 C 292.378906 506.121094 291.710938 505.449219 290.878906 505.449219 C 290.050781 505.449219 289.378906 506.121094 289.378906 506.949219 C 289.378906 507.78125 290.050781 508.449219 290.878906 508.449219 Z M 295.820312 505.03125 C 296.648438 505.03125 297.320312 504.351562 297.320312 503.53125 C 297.320312 502.699219 296.648438 502.03125 295.820312 502.03125 C 294.988281 502.03125 294.320312 502.699219 294.320312 503.53125 C 294.320312 504.351562 294.988281 505.03125 295.820312 505.03125 Z M 300.761719 501.609375 C 301.578125 501.609375 302.261719 500.929688 302.261719 500.109375 C 302.261719 499.28125 301.578125 498.609375 300.761719 498.609375 C 299.929688 498.609375 299.261719 499.28125 299.261719 500.109375 C 299.261719 500.929688 299.929688 501.609375 300.761719 501.609375 Z M 305.691406 498.179688 C 306.519531 498.179688 307.191406 497.511719 307.191406 496.679688 C 307.191406 495.859375 306.519531 495.179688 305.691406 495.179688 C 304.871094 495.179688 304.191406 495.859375 304.191406 496.679688 C 304.191406 497.511719 304.871094 498.179688 305.691406 498.179688 Z M 310.628906 494.761719 C 311.460938 494.761719 312.128906 494.089844 312.128906 493.261719 C 312.128906 492.441406 311.460938 491.761719 310.628906 491.761719 C 309.808594 491.761719 309.128906 492.441406 309.128906 493.261719 C 309.128906 494.089844 309.808594 494.761719 310.628906 494.761719 Z M 315.570312 491.339844 C 316.398438 491.339844 317.070312 490.671875 317.070312 489.839844 C 317.070312 489.011719 316.398438 488.339844 315.570312 488.339844 C 314.738281 488.339844 314.070312 489.011719 314.070312 489.839844 C 314.070312 490.671875 314.738281 491.339844 315.570312 491.339844 Z M 320.511719 487.921875 C 321.339844 487.921875 322.011719 487.25 322.011719 486.421875 C 322.011719 485.589844 321.339844 484.921875 320.511719 484.921875 C 319.679688 484.921875 319.011719 485.589844 319.011719 486.421875 C 319.011719 487.25 319.679688 487.921875 320.511719 487.921875 Z M 325.449219 484.5 C 326.28125 484.5 326.949219 483.828125 326.949219 483 C 326.949219 482.171875 326.28125 481.5 325.449219 481.5 C 324.621094 481.5 323.949219 482.171875 323.949219 483 C 323.949219 483.828125 324.621094 484.5 325.449219 484.5 Z M 330.390625 481.078125 C 331.21875 481.078125 331.890625 480.410156 331.890625 479.578125 C 331.890625 478.75 331.21875 478.078125 330.390625 478.078125 C 329.558594 478.078125 328.890625 478.75 328.890625 479.578125 C 328.890625 480.410156 329.558594 481.078125 330.390625 481.078125 Z M 335.328125 477.660156 C 336.160156 477.660156 336.828125 476.988281 336.828125 476.160156 C 336.828125 475.328125 336.160156 474.660156 335.328125 474.660156 C 334.5 474.660156 333.828125 475.328125 333.828125 476.160156 C 333.828125 476.988281 334.5 477.660156 335.328125 477.660156 Z M 340.269531 474.238281 C 341.089844 474.238281 341.769531 473.570312 341.769531 472.738281 C 341.769531 471.910156 341.089844 471.238281 340.269531 471.238281 C 339.441406 471.238281 338.769531 471.910156 338.769531 472.738281 C 338.769531 473.570312 339.441406 474.238281 340.269531 474.238281 Z M 345.199219 470.820312 C 346.03125 470.820312 346.699219 470.148438 346.699219 469.320312 C 346.699219 468.488281 346.03125 467.820312 345.199219 467.820312 C 344.378906 467.820312 343.699219 468.488281 343.699219 469.320312 C 343.699219 470.148438 344.378906 470.820312 345.199219 470.820312 Z M 350.140625 467.398438 C 350.96875 467.398438 351.640625 466.730469 351.640625 465.898438 C 351.640625 465.070312 350.96875 464.398438 350.140625 464.398438 C 349.308594 464.398438 348.640625 465.070312 348.640625 465.898438 C 348.640625 466.730469 349.308594 467.398438 350.140625 467.398438 Z M 355.078125 463.980469 C 355.910156 463.980469 356.578125 463.308594 356.578125 462.480469 C 356.578125 461.648438 355.910156 460.980469 355.078125 460.980469 C 354.25 460.980469 353.578125 461.648438 353.578125 462.480469 C 353.578125 463.308594 354.25 463.980469 355.078125 463.980469 Z M 360.019531 460.558594 C 360.851562 460.558594 361.519531 459.890625 361.519531 459.058594 C 361.519531 458.230469 360.851562 457.558594 360.019531 457.558594 C 359.191406 457.558594 358.519531 458.230469 358.519531 459.058594 C 358.519531 459.890625 359.191406 460.558594 360.019531 460.558594 Z M 364.960938 457.140625 C 365.789062 457.140625 366.460938 456.460938 366.460938 455.640625 C 366.460938 454.808594 365.789062 454.140625 364.960938 454.140625 C 364.128906 454.140625 363.460938 454.808594 363.460938 455.640625 C 363.460938 456.460938 364.128906 457.140625 364.960938 457.140625 Z M 369.898438 453.71875 C 370.730469 453.71875 371.398438 453.039062 371.398438 452.21875 C 371.398438 451.390625 370.730469 450.71875 369.898438 450.71875 C 369.070312 450.71875 368.398438 451.390625 368.398438 452.21875 C 368.398438 453.039062 369.070312 453.71875 369.898438 453.71875 Z M 374.839844 450.289062 C 375.660156 450.289062 376.339844 449.621094 376.339844 448.789062 C 376.339844 447.96875 375.660156 447.289062 374.839844 447.289062 C 374.011719 447.289062 373.339844 447.96875 373.339844 448.789062 C 373.339844 449.621094 374.011719 450.289062 374.839844 450.289062 Z M 379.769531 446.871094 C 380.601562 446.871094 381.269531 446.199219 381.269531 445.371094 C 381.269531 444.550781 380.601562 443.871094 379.769531 443.871094 C 378.949219 443.871094 378.269531 444.550781 378.269531 445.371094 C 378.269531 446.199219 378.949219 446.871094 379.769531 446.871094 Z M 384.710938 443.449219 C 385.539062 443.449219 386.210938 442.78125 386.210938 441.949219 C 386.210938 441.121094 385.539062 440.449219 384.710938 440.449219 C 383.878906 440.449219 383.210938 441.121094 383.210938 441.949219 C 383.210938 442.78125 383.878906 443.449219 384.710938 443.449219 Z M 389.648438 440.03125 C 390.480469 440.03125 391.148438 439.359375 391.148438 438.53125 C 391.148438 437.699219 390.480469 437.03125 389.648438 437.03125 C 388.820312 437.03125 388.148438 437.699219 388.148438 438.53125 C 388.148438 439.359375 388.820312 440.03125 389.648438 440.03125 Z M 394.589844 436.609375 C 395.421875 436.609375 396.089844 435.941406 396.089844 435.109375 C 396.089844 434.28125 395.421875 433.609375 394.589844 433.609375 C 393.761719 433.609375 393.089844 434.28125 393.089844 435.109375 C 393.089844 435.941406 393.761719 436.609375 394.589844 436.609375 Z M 399.53125 433.191406 C 400.359375 433.191406 401.03125 432.519531 401.03125 431.691406 C 401.03125 430.859375 400.359375 430.191406 399.53125 430.191406 C 398.699219 430.191406 398.03125 430.859375 398.03125 431.691406 C 398.03125 432.519531 398.699219 433.191406 399.53125 433.191406 Z M 404.46875 429.769531 C 405.300781 429.769531 405.96875 429.101562 405.96875 428.269531 C 405.96875 427.441406 405.300781 426.769531 404.46875 426.769531 C 403.640625 426.769531 402.96875 427.441406 402.96875 428.269531 C 402.96875 429.101562 403.640625 429.769531 404.46875 429.769531 Z M 409.410156 426.351562 C 410.230469 426.351562 410.910156 425.679688 410.910156 424.851562 C 410.910156 424.019531 410.230469 423.351562 409.410156 423.351562 C 408.578125 423.351562 407.910156 424.019531 407.910156 424.851562 C 407.910156 425.679688 408.578125 426.351562 409.410156 426.351562 Z M 414.339844 422.929688 C 415.171875 422.929688 415.839844 422.261719 415.839844 421.429688 C 415.839844 420.601562 415.171875 419.929688 414.339844 419.929688 C 413.519531 419.929688 412.839844 420.601562 412.839844 421.429688 C 412.839844 422.261719 413.519531 422.929688 414.339844 422.929688 Z M 419.28125 419.511719 C 420.109375 419.511719 420.78125 418.839844 420.78125 418.011719 C 420.78125 417.179688 420.109375 416.511719 419.28125 416.511719 C 418.460938 416.511719 417.78125 417.179688 417.78125 418.011719 C 417.78125 418.839844 418.460938 419.511719 419.28125 419.511719 Z M 424.21875 416.089844 C 425.050781 416.089844 425.71875 415.421875 425.71875 414.589844 C 425.71875 413.761719 425.050781 413.089844 424.21875 413.089844 C 423.390625 413.089844 422.71875 413.761719 422.71875 414.589844 C 422.71875 415.421875 423.390625 416.089844 424.21875 416.089844 Z M 429.160156 412.671875 C 429.988281 412.671875 430.660156 411.988281 430.660156 411.171875 C 430.660156 410.339844 429.988281 409.671875 429.160156 409.671875 C 428.328125 409.671875 427.660156 410.339844 427.660156 411.171875 C 427.660156 411.988281 428.328125 412.671875 429.160156 412.671875 Z M 434.101562 409.25 C 434.929688 409.25 435.601562 408.570312 435.601562 407.75 C 435.601562 406.921875 434.929688 406.25 434.101562 406.25 C 433.269531 406.25 432.601562 406.921875 432.601562 407.75 C 432.601562 408.570312 433.269531 409.25 434.101562 409.25 Z M 439.039062 405.828125 C 439.871094 405.828125 440.539062 405.148438 440.539062 404.328125 C 440.539062 403.5 439.871094 402.828125 439.039062 402.828125 C 438.210938 402.828125 437.539062 403.5 437.539062 404.328125 C 437.539062 405.148438 438.210938 405.828125 439.039062 405.828125 Z M 443.980469 402.398438 C 444.808594 402.398438 445.480469 401.730469 445.480469 400.898438 C 445.480469 400.078125 444.808594 399.398438 443.980469 399.398438 C 443.148438 399.398438 442.480469 400.078125 442.480469 400.898438 C 442.480469 401.730469 443.148438 402.398438 443.980469 402.398438 Z M 448.921875 398.980469 C 449.738281 398.980469 450.421875 398.308594 450.421875 397.480469 C 450.421875 396.660156 449.738281 395.980469 448.921875 395.980469 C 448.089844 395.980469 447.421875 396.660156 447.421875 397.480469 C 447.421875 398.308594 448.089844 398.980469 448.921875 398.980469 Z M 453.851562 395.558594 C 454.679688 395.558594 455.351562 394.890625 455.351562 394.058594 C 455.351562 393.230469 454.679688 392.558594 453.851562 392.558594 C 453.03125 392.558594 452.351562 393.230469 452.351562 394.058594 C 452.351562 394.890625 453.03125 395.558594 453.851562 395.558594 Z M 458.789062 392.140625 C 459.621094 392.140625 460.289062 391.46875 460.289062 390.640625 C 460.289062 389.808594 459.621094 389.140625 458.789062 389.140625 C 457.960938 389.140625 457.289062 389.808594 457.289062 390.640625 C 457.289062 391.46875 457.960938 392.140625 458.789062 392.140625 Z M 463.730469 388.71875 C 464.558594 388.71875 465.230469 388.050781 465.230469 387.21875 C 465.230469 386.390625 464.558594 385.71875 463.730469 385.71875 C 462.898438 385.71875 462.230469 386.390625 462.230469 387.21875 C 462.230469 388.050781 462.898438 388.71875 463.730469 388.71875 Z M 468.671875 385.300781 C 469.5 385.300781 470.171875 384.628906 470.171875 383.800781 C 470.171875 382.96875 469.5 382.300781 468.671875 382.300781 C 467.839844 382.300781 467.171875 382.96875 467.171875 383.800781 C 467.171875 384.628906 467.839844 385.300781 468.671875 385.300781 Z M 473.609375 381.878906 C 474.441406 381.878906 475.109375 381.210938 475.109375 380.378906 C 475.109375 379.550781 474.441406 378.878906 473.609375 378.878906 C 472.78125 378.878906 472.109375 379.550781 472.109375 380.378906 C 472.109375 381.210938 472.78125 381.878906 473.609375 381.878906 Z M 478.550781 378.460938 C 479.378906 378.460938 480.050781 377.789062 480.050781 376.960938 C 480.050781 376.128906 479.378906 375.460938 478.550781 375.460938 C 477.71875 375.460938 477.050781 376.128906 477.050781 376.960938 C 477.050781 377.789062 477.71875 378.460938 478.550781 378.460938 Z M 483.488281 375.039062 C 484.308594 375.039062 484.988281 374.371094 484.988281 373.539062 C 484.988281 372.710938 484.308594 372.039062 483.488281 372.039062 C 482.660156 372.039062 481.988281 372.710938 481.988281 373.539062 C 481.988281 374.371094 482.660156 375.039062 483.488281 375.039062 Z M 488.421875 371.621094 C 489.25 371.621094 489.921875 370.949219 489.921875 370.121094 C 489.921875 369.289062 489.25 368.621094 488.421875 368.621094 C 487.601562 368.621094 486.921875 369.289062 486.921875 370.121094 C 486.921875 370.949219 487.601562 371.621094 488.421875 371.621094 Z M 493.359375 368.199219 C 494.191406 368.199219 494.859375 367.53125 494.859375 366.699219 C 494.859375 365.871094 494.191406 365.199219 493.359375 365.199219 C 492.53125 365.199219 491.859375 365.871094 491.859375 366.699219 C 491.859375 367.53125 492.53125 368.199219 493.359375 368.199219 Z M 498.300781 364.78125 C 499.128906 364.78125 499.800781 364.101562 499.800781 363.28125 C 499.800781 362.449219 499.128906 361.78125 498.300781 361.78125 C 497.46875 361.78125 496.800781 362.449219 496.800781 363.28125 C 496.800781 364.101562 497.46875 364.78125 498.300781 364.78125 Z M 503.238281 361.359375 C 504.070312 361.359375 504.738281 360.679688 504.738281 359.859375 C 504.738281 359.03125 504.070312 358.359375 503.238281 358.359375 C 502.410156 358.359375 501.738281 359.03125 501.738281 359.859375 C 501.738281 360.679688 502.410156 361.359375 503.238281 361.359375 Z M 508.179688 357.929688 C 509.011719 357.929688 509.679688 357.261719 509.679688 356.429688 C 509.679688 355.609375 509.011719 354.929688 508.179688 354.929688 C 507.351562 354.929688 506.679688 355.609375 506.679688 356.429688 C 506.679688 357.261719 507.351562 357.929688 508.179688 357.929688 Z M 513.121094 354.511719 C 513.949219 354.511719 514.621094 353.839844 514.621094 353.011719 C 514.621094 352.191406 513.949219 351.511719 513.121094 351.511719 C 512.289062 351.511719 511.621094 352.191406 511.621094 353.011719 C 511.621094 353.839844 512.289062 354.511719 513.121094 354.511719 Z M 518.058594 351.089844 C 518.878906 351.089844 519.558594 350.421875 519.558594 349.589844 C 519.558594 348.769531 518.878906 348.089844 518.058594 348.089844 C 517.230469 348.089844 516.558594 348.769531 516.558594 349.589844 C 516.558594 350.421875 517.230469 351.089844 518.058594 351.089844 Z M 522.988281 347.671875 C 523.820312 347.671875 524.488281 347 524.488281 346.171875 C 524.488281 345.339844 523.820312 344.671875 522.988281 344.671875 C 522.171875 344.671875 521.488281 345.339844 521.488281 346.171875 C 521.488281 347 522.171875 347.671875 522.988281 347.671875 Z M 527.929688 344.25 C 528.761719 344.25 529.429688 343.578125 529.429688 342.75 C 529.429688 341.921875 528.761719 341.25 527.929688 341.25 C 527.101562 341.25 526.429688 341.921875 526.429688 342.75 C 526.429688 343.578125 527.101562 344.25 527.929688 344.25 Z M 532.871094 340.828125 C 533.699219 340.828125 534.371094 340.160156 534.371094 339.328125 C 534.371094 338.5 533.699219 337.828125 532.871094 337.828125 C 532.039062 337.828125 531.371094 338.5 531.371094 339.328125 C 531.371094 340.160156 532.039062 340.828125 532.871094 340.828125 Z M 537.808594 337.410156 C 538.640625 337.410156 539.308594 336.738281 539.308594 335.910156 C 539.308594 335.078125 538.640625 334.410156 537.808594 334.410156 C 536.980469 334.410156 536.308594 335.078125 536.308594 335.910156 C 536.308594 336.738281 536.980469 337.410156 537.808594 337.410156 Z M 542.75 333.988281 C 543.578125 333.988281 544.25 333.320312 544.25 332.488281 C 544.25 331.660156 543.578125 330.988281 542.75 330.988281 C 541.921875 330.988281 541.25 331.660156 541.25 332.488281 C 541.25 333.320312 541.921875 333.988281 542.75 333.988281 Z M 547.691406 330.570312 C 548.519531 330.570312 549.191406 329.898438 549.191406 329.070312 C 549.191406 328.238281 548.519531 327.570312 547.691406 327.570312 C 546.859375 327.570312 546.191406 328.238281 546.191406 329.070312 C 546.191406 329.898438 546.859375 330.570312 547.691406 330.570312 Z M 552.628906 327.148438 C 553.449219 327.148438 554.128906 326.480469 554.128906 325.648438 C 554.128906 324.820312 553.449219 324.148438 552.628906 324.148438 C 551.800781 324.148438 551.128906 324.820312 551.128906 325.648438 C 551.128906 326.480469 551.800781 327.148438 552.628906 327.148438 Z M 557.558594 323.730469 C 558.390625 323.730469 559.058594 323.058594 559.058594 322.230469 C 559.058594 321.398438 558.390625 320.730469 557.558594 320.730469 C 556.738281 320.730469 556.058594 321.398438 556.058594 322.230469 C 556.058594 323.058594 556.738281 323.730469 557.558594 323.730469 Z M 562.5 320.308594 C 563.328125 320.308594 564 319.640625 564 318.808594 C 564 317.980469 563.328125 317.308594 562.5 317.308594 C 561.671875 317.308594 561 317.980469 561 318.808594 C 561 319.640625 561.671875 320.308594 562.5 320.308594 Z M 567.441406 316.890625 C 568.269531 316.890625 568.941406 316.210938 568.941406 315.390625 C 568.941406 314.558594 568.269531 313.890625 567.441406 313.890625 C 566.609375 313.890625 565.941406 314.558594 565.941406 315.390625 C 565.941406 316.210938 566.609375 316.890625 567.441406 316.890625 Z M 572.378906 313.46875 C 573.210938 313.46875 573.878906 312.789062 573.878906 311.96875 C 573.878906 311.140625 573.210938 310.46875 572.378906 310.46875 C 571.550781 310.46875 570.878906 311.140625 570.878906 311.96875 C 570.878906 312.789062 571.550781 313.46875 572.378906 313.46875 Z M 577.320312 310.039062 C 578.148438 310.039062 578.820312 309.371094 578.820312 308.539062 C 578.820312 307.71875 578.148438 307.039062 577.320312 307.039062 C 576.488281 307.039062 575.820312 307.71875 575.820312 308.539062 C 575.820312 309.371094 576.488281 310.039062 577.320312 310.039062 Z M 582.261719 306.621094 C 583.089844 306.621094 583.761719 305.949219 583.761719 305.121094 C 583.761719 304.300781 583.089844 303.621094 582.261719 303.621094 C 581.429688 303.621094 580.761719 304.300781 580.761719 305.121094 C 580.761719 305.949219 581.429688 306.621094 582.261719 306.621094 Z M 587.199219 303.199219 C 588.019531 303.199219 588.699219 302.53125 588.699219 301.699219 C 588.699219 300.871094 588.019531 300.199219 587.199219 300.199219 C 586.371094 300.199219 585.699219 300.871094 585.699219 301.699219 C 585.699219 302.53125 586.371094 303.199219 587.199219 303.199219 Z M 592.128906 299.78125 C 592.960938 299.78125 593.628906 299.109375 593.628906 298.28125 C 593.628906 297.449219 592.960938 296.78125 592.128906 296.78125 C 591.308594 296.78125 590.628906 297.449219 590.628906 298.28125 C 590.628906 299.109375 591.308594 299.78125 592.128906 299.78125 Z M 597.070312 296.359375 C 597.898438 296.359375 598.570312 295.691406 598.570312 294.859375 C 598.570312 294.03125 597.898438 293.359375 597.070312 293.359375 C 596.25 293.359375 595.570312 294.03125 595.570312 294.859375 C 595.570312 295.691406 596.25 296.359375 597.070312 296.359375 Z M 602.011719 292.941406 C 602.839844 292.941406 603.511719 292.269531 603.511719 291.441406 C 603.511719 290.609375 602.839844 289.941406 602.011719 289.941406 C 601.179688 289.941406 600.511719 290.609375 600.511719 291.441406 C 600.511719 292.269531 601.179688 292.941406 602.011719 292.941406 Z M 606.949219 289.519531 C 607.78125 289.519531 608.449219 288.851562 608.449219 288.019531 C 608.449219 287.191406 607.78125 286.519531 606.949219 286.519531 C 606.121094 286.519531 605.449219 287.191406 605.449219 288.019531 C 605.449219 288.851562 606.121094 289.519531 606.949219 289.519531 Z M 611.890625 286.101562 C 612.71875 286.101562 613.390625 285.429688 613.390625 284.601562 C 613.390625 283.769531 612.71875 283.101562 611.890625 283.101562 C 611.058594 283.101562 610.390625 283.769531 610.390625 284.601562 C 610.390625 285.429688 611.058594 286.101562 611.890625 286.101562 Z M 616.828125 282.679688 C 617.660156 282.679688 618.328125 282.011719 618.328125 281.179688 C 618.328125 280.351562 617.660156 279.679688 616.828125 279.679688 C 616 279.679688 615.328125 280.351562 615.328125 281.179688 C 615.328125 282.011719 616 282.679688 616.828125 282.679688 Z M 621.769531 279.261719 C 622.589844 279.261719 623.269531 278.589844 623.269531 277.761719 C 623.269531 276.929688 622.589844 276.261719 621.769531 276.261719 C 620.941406 276.261719 620.269531 276.929688 620.269531 277.761719 C 620.269531 278.589844 620.941406 279.261719 621.769531 279.261719 Z M 626.710938 275.839844 C 627.53125 275.839844 628.210938 275.171875 628.210938 274.339844 C 628.210938 273.511719 627.53125 272.839844 626.710938 272.839844 C 625.878906 272.839844 625.210938 273.511719 625.210938 274.339844 C 625.210938 275.171875 625.878906 275.839844 626.710938 275.839844 Z M 631.640625 272.421875 C 632.46875 272.421875 633.140625 271.738281 633.140625 270.921875 C 633.140625 270.089844 632.46875 269.421875 631.640625 269.421875 C 630.820312 269.421875 630.140625 270.089844 630.140625 270.921875 C 630.140625 271.738281 630.820312 272.421875 631.640625 272.421875 Z M 636.578125 269 C 637.410156 269 638.078125 268.320312 638.078125 267.5 C 638.078125 266.671875 637.410156 266 636.578125 266 C 635.75 266 635.078125 266.671875 635.078125 267.5 C 635.078125 268.320312 635.75 269 636.578125 269 Z M 641.519531 265.570312 C 642.351562 265.570312 643.019531 264.898438 643.019531 264.070312 C 643.019531 263.25 642.351562 262.570312 641.519531 262.570312 C 640.691406 262.570312 640.019531 263.25 640.019531 264.070312 C 640.019531 264.898438 640.691406 265.570312 641.519531 265.570312 Z M 646.460938 262.148438 C 647.289062 262.148438 647.960938 261.480469 647.960938 260.648438 C 647.960938 259.828125 647.289062 259.148438 646.460938 259.148438 C 645.628906 259.148438 644.960938 259.828125 644.960938 260.648438 C 644.960938 261.480469 645.628906 262.148438 646.460938 262.148438 Z M 651.398438 258.730469 C 652.230469 258.730469 652.898438 258.058594 652.898438 257.230469 C 652.898438 256.410156 652.230469 255.730469 651.398438 255.730469 C 650.570312 255.730469 649.898438 256.410156 649.898438 257.230469 C 649.898438 258.058594 650.570312 258.730469 651.398438 258.730469 Z M 656.339844 255.308594 C 657.171875 255.308594 657.839844 254.640625 657.839844 253.808594 C 657.839844 252.980469 657.171875 252.308594 656.339844 252.308594 C 655.511719 252.308594 654.839844 252.980469 654.839844 253.808594 C 654.839844 254.640625 655.511719 255.308594 656.339844 255.308594 Z M 661.28125 251.890625 C 662.101562 251.890625 662.78125 251.21875 662.78125 250.390625 C 662.78125 249.558594 662.101562 248.890625 661.28125 248.890625 C 660.449219 248.890625 659.78125 249.558594 659.78125 250.390625 C 659.78125 251.21875 660.449219 251.890625 661.28125 251.890625 Z M 666.210938 248.46875 C 667.039062 248.46875 667.710938 247.800781 667.710938 246.96875 C 667.710938 246.140625 667.039062 245.46875 666.210938 245.46875 C 665.390625 245.46875 664.710938 246.140625 664.710938 246.96875 C 664.710938 247.800781 665.390625 248.46875 666.210938 248.46875 Z M 671.148438 245.050781 C 671.980469 245.050781 672.648438 244.378906 672.648438 243.550781 C 672.648438 242.71875 671.980469 242.050781 671.148438 242.050781 C 670.320312 242.050781 669.648438 242.71875 669.648438 243.550781 C 669.648438 244.378906 670.320312 245.050781 671.148438 245.050781 Z M 676.089844 241.628906 C 676.921875 241.628906 677.589844 240.960938 677.589844 240.128906 C 677.589844 239.300781 676.921875 238.628906 676.089844 238.628906 C 675.261719 238.628906 674.589844 239.300781 674.589844 240.128906 C 674.589844 240.960938 675.261719 241.628906 676.089844 241.628906 Z M 681.03125 238.210938 C 681.859375 238.210938 682.53125 237.539062 682.53125 236.710938 C 682.53125 235.878906 681.859375 235.210938 681.03125 235.210938 C 680.199219 235.210938 679.53125 235.878906 679.53125 236.710938 C 679.53125 237.539062 680.199219 238.210938 681.03125 238.210938 Z M 685.96875 234.789062 C 686.800781 234.789062 687.46875 234.121094 687.46875 233.289062 C 687.46875 232.460938 686.800781 231.789062 685.96875 231.789062 C 685.140625 231.789062 684.46875 232.460938 684.46875 233.289062 C 684.46875 234.121094 685.140625 234.789062 685.96875 234.789062 Z M 690.910156 231.371094 C 691.738281 231.371094 692.410156 230.699219 692.410156 229.871094 C 692.410156 229.039062 691.738281 228.371094 690.910156 228.371094 C 690.078125 228.371094 689.410156 229.039062 689.410156 229.871094 C 689.410156 230.699219 690.078125 231.371094 690.910156 231.371094 Z M 695.851562 227.949219 C 696.671875 227.949219 697.351562 227.28125 697.351562 226.449219 C 697.351562 225.621094 696.671875 224.949219 695.851562 224.949219 C 695.019531 224.949219 694.351562 225.621094 694.351562 226.449219 C 694.351562 227.28125 695.019531 227.949219 695.851562 227.949219 Z M 700.78125 224.53125 C 701.609375 224.53125 702.28125 223.851562 702.28125 223.03125 C 702.28125 222.199219 701.609375 221.53125 700.78125 221.53125 C 699.960938 221.53125 699.28125 222.199219 699.28125 223.03125 C 699.28125 223.851562 699.960938 224.53125 700.78125 224.53125 Z M 705.71875 221.109375 C 706.550781 221.109375 707.21875 220.429688 707.21875 219.609375 C 707.21875 218.78125 706.550781 218.109375 705.71875 218.109375 C 704.890625 218.109375 704.21875 218.78125 704.21875 219.609375 C 704.21875 220.429688 704.890625 221.109375 705.71875 221.109375 Z M 710.660156 217.679688 C 711.488281 217.679688 712.160156 217.011719 712.160156 216.179688 C 712.160156 215.359375 711.488281 214.679688 710.660156 214.679688 C 709.828125 214.679688 709.160156 215.359375 709.160156 216.179688 C 709.160156 217.011719 709.828125 217.679688 710.660156 217.679688 Z M 715.601562 214.261719 C 716.429688 214.261719 717.101562 213.589844 717.101562 212.761719 C 717.101562 211.941406 716.429688 211.261719 715.601562 211.261719 C 714.769531 211.261719 714.101562 211.941406 714.101562 212.761719 C 714.101562 213.589844 714.769531 214.261719 715.601562 214.261719 Z M 720.539062 210.839844 C 721.371094 210.839844 722.039062 210.171875 722.039062 209.339844 C 722.039062 208.511719 721.371094 207.839844 720.539062 207.839844 C 719.710938 207.839844 719.039062 208.511719 719.039062 209.339844 C 719.039062 210.171875 719.710938 210.839844 720.539062 210.839844 Z M 725.480469 207.421875 C 726.308594 207.421875 726.980469 206.75 726.980469 205.921875 C 726.980469 205.089844 726.308594 204.421875 725.480469 204.421875 C 724.648438 204.421875 723.980469 205.089844 723.980469 205.921875 C 723.980469 206.75 724.648438 207.421875 725.480469 207.421875 Z M 730.421875 204 C 731.238281 204 731.921875 203.328125 731.921875 202.5 C 731.921875 201.671875 731.238281 201 730.421875 201 C 729.589844 201 728.921875 201.671875 728.921875 202.5 C 728.921875 203.328125 729.589844 204 730.421875 204 Z M 735.351562 200.578125 C 736.179688 200.578125 736.851562 199.910156 736.851562 199.078125 C 736.851562 198.25 736.179688 197.578125 735.351562 197.578125 C 734.53125 197.578125 733.851562 198.25 733.851562 199.078125 C 733.851562 199.910156 734.53125 200.578125 735.351562 200.578125 Z M 740.289062 197.160156 C 741.121094 197.160156 741.789062 196.488281 741.789062 195.660156 C 741.789062 194.828125 741.121094 194.160156 740.289062 194.160156 C 739.460938 194.160156 738.789062 194.828125 738.789062 195.660156 C 738.789062 196.488281 739.460938 197.160156 740.289062 197.160156 Z M 745.230469 193.738281 C 746.058594 193.738281 746.730469 193.070312 746.730469 192.238281 C 746.730469 191.410156 746.058594 190.738281 745.230469 190.738281 C 744.398438 190.738281 743.730469 191.410156 743.730469 192.238281 C 743.730469 193.070312 744.398438 193.738281 745.230469 193.738281 Z M 750.171875 190.320312 C 751 190.320312 751.671875 189.648438 751.671875 188.820312 C 751.671875 187.988281 751 187.320312 750.171875 187.320312 C 749.339844 187.320312 748.671875 187.988281 748.671875 188.820312 C 748.671875 189.648438 749.339844 190.320312 750.171875 190.320312 Z M 755.109375 186.898438 C 755.941406 186.898438 756.609375 186.230469 756.609375 185.398438 C 756.609375 184.570312 755.941406 183.898438 755.109375 183.898438 C 754.28125 183.898438 753.609375 184.570312 753.609375 185.398438 C 753.609375 186.230469 754.28125 186.898438 755.109375 186.898438 Z M 760.050781 183.480469 C 760.878906 183.480469 761.550781 182.808594 761.550781 181.980469 C 761.550781 181.148438 760.878906 180.480469 760.050781 180.480469 C 759.21875 180.480469 758.550781 181.148438 758.550781 181.980469 C 758.550781 182.808594 759.21875 183.480469 760.050781 183.480469 Z M 764.988281 180.058594 C 765.808594 180.058594 766.488281 179.378906 766.488281 178.558594 C 766.488281 177.730469 765.808594 177.058594 764.988281 177.058594 C 764.160156 177.058594 763.488281 177.730469 763.488281 178.558594 C 763.488281 179.378906 764.160156 180.058594 764.988281 180.058594 Z M 769.921875 176.640625 C 770.75 176.640625 771.421875 175.960938 771.421875 175.140625 C 771.421875 174.308594 770.75 173.640625 769.921875 173.640625 C 769.101562 173.640625 768.421875 174.308594 768.421875 175.140625 C 768.421875 175.960938 769.101562 176.640625 769.921875 176.640625 Z M 774.859375 173.210938 C 775.691406 173.210938 776.359375 172.539062 776.359375 171.710938 C 776.359375 170.890625 775.691406 170.210938 774.859375 170.210938 C 774.03125 170.210938 773.359375 170.890625 773.359375 171.710938 C 773.359375 172.539062 774.03125 173.210938 774.859375 173.210938 Z M 779.800781 169.789062 C 780.628906 169.789062 781.300781 169.121094 781.300781 168.289062 C 781.300781 167.46875 780.628906 166.789062 779.800781 166.789062 C 778.96875 166.789062 778.300781 167.46875 778.300781 168.289062 C 778.300781 169.121094 778.96875 169.789062 779.800781 169.789062 Z M 784.738281 166.371094 C 785.570312 166.371094 786.238281 165.699219 786.238281 164.871094 C 786.238281 164.039062 785.570312 163.371094 784.738281 163.371094 C 783.910156 163.371094 783.238281 164.039062 783.238281 164.871094 C 783.238281 165.699219 783.910156 166.371094 784.738281 166.371094 Z M 789.679688 162.949219 C 790.511719 162.949219 791.179688 162.28125 791.179688 161.449219 C 791.179688 160.621094 790.511719 159.949219 789.679688 159.949219 C 788.851562 159.949219 788.179688 160.621094 788.179688 161.449219 C 788.179688 162.28125 788.851562 162.949219 789.679688 162.949219 Z M 794.621094 159.53125 C 795.449219 159.53125 796.121094 158.859375 796.121094 158.03125 C 796.121094 157.199219 795.449219 156.53125 794.621094 156.53125 C 793.789062 156.53125 793.121094 157.199219 793.121094 158.03125 C 793.121094 158.859375 793.789062 159.53125 794.621094 159.53125 Z M 799.558594 156.109375 C 800.378906 156.109375 801.058594 155.441406 801.058594 154.609375 C 801.058594 153.78125 800.378906 153.109375 799.558594 153.109375 C 798.730469 153.109375 798.058594 153.78125 798.058594 154.609375 C 798.058594 155.441406 798.730469 156.109375 799.558594 156.109375 Z M 804.488281 152.691406 C 805.320312 152.691406 805.988281 152.019531 805.988281 151.191406 C 805.988281 150.359375 805.320312 149.691406 804.488281 149.691406 C 803.671875 149.691406 802.988281 150.359375 802.988281 151.191406 C 802.988281 152.019531 803.671875 152.691406 804.488281 152.691406 Z M 809.429688 149.269531 C 810.261719 149.269531 810.929688 148.601562 810.929688 147.769531 C 810.929688 146.941406 810.261719 146.269531 809.429688 146.269531 C 808.601562 146.269531 807.929688 146.941406 807.929688 147.769531 C 807.929688 148.601562 808.601562 149.269531 809.429688 149.269531 Z M 814.371094 145.851562 C 815.199219 145.851562 815.871094 145.179688 815.871094 144.351562 C 815.871094 143.519531 815.199219 142.851562 814.371094 142.851562 C 813.539062 142.851562 812.871094 143.519531 812.871094 144.351562 C 812.871094 145.179688 813.539062 145.851562 814.371094 145.851562 Z M 819.308594 142.429688 C 820.140625 142.429688 820.808594 141.761719 820.808594 140.929688 C 820.808594 140.101562 820.140625 139.429688 819.308594 139.429688 C 818.480469 139.429688 817.808594 140.101562 817.808594 140.929688 C 817.808594 141.761719 818.480469 142.429688 819.308594 142.429688 Z M 824.25 139.011719 C 825.078125 139.011719 825.75 138.339844 825.75 137.511719 C 825.75 136.679688 825.078125 136.011719 824.25 136.011719 C 823.421875 136.011719 822.75 136.679688 822.75 137.511719 C 822.75 138.339844 823.421875 139.011719 824.25 139.011719 Z M 829.191406 135.589844 C 830.019531 135.589844 830.691406 134.921875 830.691406 134.089844 C 830.691406 133.261719 830.019531 132.589844 829.191406 132.589844 C 828.359375 132.589844 827.691406 133.261719 827.691406 134.089844 C 827.691406 134.921875 828.359375 135.589844 829.191406 135.589844 Z M 834.128906 132.171875 C 834.949219 132.171875 835.628906 131.488281 835.628906 130.671875 C 835.628906 129.839844 834.949219 129.171875 834.128906 129.171875 C 833.300781 129.171875 832.628906 129.839844 832.628906 130.671875 C 832.628906 131.488281 833.300781 132.171875 834.128906 132.171875 Z M 839.058594 128.75 C 839.890625 128.75 840.558594 128.070312 840.558594 127.25 C 840.558594 126.421875 839.890625 125.75 839.058594 125.75 C 838.238281 125.75 837.558594 126.421875 837.558594 127.25 C 837.558594 128.070312 838.238281 128.75 839.058594 128.75 Z M 844 125.320312 C 844.828125 125.320312 845.5 124.648438 845.5 123.820312 C 845.5 123 844.828125 122.320312 844 122.320312 C 843.179688 122.320312 842.5 123 842.5 123.820312 C 842.5 124.648438 843.179688 125.320312 844 125.320312 Z M 848.941406 121.898438 C 849.769531 121.898438 850.441406 121.230469 850.441406 120.398438 C 850.441406 119.578125 849.769531 118.898438 848.941406 118.898438 C 848.109375 118.898438 847.441406 119.578125 847.441406 120.398438 C 847.441406 121.230469 848.109375 121.898438 848.941406 121.898438 Z M 853.878906 118.480469 C 854.710938 118.480469 855.378906 117.808594 855.378906 116.980469 C 855.378906 116.148438 854.710938 115.480469 853.878906 115.480469 C 853.050781 115.480469 852.378906 116.148438 852.378906 116.980469 C 852.378906 117.808594 853.050781 118.480469 853.878906 118.480469 Z M 858.820312 115.058594 C 859.648438 115.058594 860.320312 114.390625 860.320312 113.558594 C 860.320312 112.730469 859.648438 112.058594 858.820312 112.058594 C 857.988281 112.058594 857.320312 112.730469 857.320312 113.558594 C 857.320312 114.390625 857.988281 115.058594 858.820312 115.058594 Z M 863.761719 111.640625 C 864.589844 111.640625 865.261719 110.96875 865.261719 110.140625 C 865.261719 109.308594 864.589844 108.640625 863.761719 108.640625 C 862.929688 108.640625 862.261719 109.308594 862.261719 110.140625 C 862.261719 110.96875 862.929688 111.640625 863.761719 111.640625 Z M 868.699219 108.21875 C 869.519531 108.21875 870.199219 107.550781 870.199219 106.71875 C 870.199219 105.890625 869.519531 105.21875 868.699219 105.21875 C 867.871094 105.21875 867.199219 105.890625 867.199219 106.71875 C 867.199219 107.550781 867.871094 108.21875 868.699219 108.21875 Z M 873.640625 104.800781 C 874.460938 104.800781 875.140625 104.128906 875.140625 103.300781 C 875.140625 102.46875 874.460938 101.800781 873.640625 101.800781 C 872.808594 101.800781 872.140625 102.46875 872.140625 103.300781 C 872.140625 104.128906 872.808594 104.800781 873.640625 104.800781 Z M 878.570312 101.378906 C 879.398438 101.378906 880.070312 100.710938 880.070312 99.878906 C 880.070312 99.050781 879.398438 98.378906 878.570312 98.378906 C 877.75 98.378906 877.070312 99.050781 877.070312 99.878906 C 877.070312 100.710938 877.75 101.378906 878.570312 101.378906 Z M 883.511719 97.960938 C 884.339844 97.960938 885.011719 97.289062 885.011719 96.460938 C 885.011719 95.628906 884.339844 94.960938 883.511719 94.960938 C 882.679688 94.960938 882.011719 95.628906 882.011719 96.460938 C 882.011719 97.289062 882.679688 97.960938 883.511719 97.960938 Z M 888.449219 94.539062 C 889.28125 94.539062 889.949219 93.871094 889.949219 93.039062 C 889.949219 92.210938 889.28125 91.539062 888.449219 91.539062 C 887.621094 91.539062 886.949219 92.210938 886.949219 93.039062 C 886.949219 93.871094 887.621094 94.539062 888.449219 94.539062 Z M 893.390625 91.121094 C 894.21875 91.121094 894.890625 90.449219 894.890625 89.621094 C 894.890625 88.789062 894.21875 88.121094 893.390625 88.121094 C 892.558594 88.121094 891.890625 88.789062 891.890625 89.621094 C 891.890625 90.449219 892.558594 91.121094 893.390625 91.121094 Z M 898.328125 87.699219 C 899.160156 87.699219 899.828125 87.019531 899.828125 86.199219 C 899.828125 85.371094 899.160156 84.699219 898.328125 84.699219 C 897.5 84.699219 896.828125 85.371094 896.828125 86.199219 C 896.828125 87.019531 897.5 87.699219 898.328125 87.699219 Z M 903.269531 84.28125 C 904.101562 84.28125 904.769531 83.601562 904.769531 82.78125 C 904.769531 81.949219 904.101562 81.28125 903.269531 81.28125 C 902.441406 81.28125 901.769531 81.949219 901.769531 82.78125 C 901.769531 83.601562 902.441406 84.28125 903.269531 84.28125 Z M 908.210938 80.851562 C 909.03125 80.851562 909.710938 80.179688 909.710938 79.351562 C 909.710938 78.53125 909.03125 77.851562 908.210938 77.851562 C 907.378906 77.851562 906.710938 78.53125 906.710938 79.351562 C 906.710938 80.179688 907.378906 80.851562 908.210938 80.851562 Z M 913.140625 77.429688 C 913.96875 77.429688 914.640625 76.761719 914.640625 75.929688 C 914.640625 75.109375 913.96875 74.429688 913.140625 74.429688 C 912.320312 74.429688 911.640625 75.109375 911.640625 75.929688 C 911.640625 76.761719 912.320312 77.429688 913.140625 77.429688 Z M 918.078125 74.011719 C 918.910156 74.011719 919.578125 73.339844 919.578125 72.511719 C 919.578125 71.679688 918.910156 71.011719 918.078125 71.011719 C 917.25 71.011719 916.578125 71.679688 916.578125 72.511719 C 916.578125 73.339844 917.25 74.011719 918.078125 74.011719 Z M 923.019531 70.589844 C 923.851562 70.589844 924.519531 69.921875 924.519531 69.089844 C 924.519531 68.261719 923.851562 67.589844 923.019531 67.589844 C 922.191406 67.589844 921.519531 68.261719 921.519531 69.089844 C 921.519531 69.921875 922.191406 70.589844 923.019531 70.589844 Z M 927.960938 67.171875 C 928.789062 67.171875 929.460938 66.5 929.460938 65.671875 C 929.460938 64.839844 928.789062 64.171875 927.960938 64.171875 C 927.128906 64.171875 926.460938 64.839844 926.460938 65.671875 C 926.460938 66.5 927.128906 67.171875 927.960938 67.171875 Z M 932.898438 63.75 C 933.730469 63.75 934.398438 63.078125 934.398438 62.25 C 934.398438 61.421875 933.730469 60.75 932.898438 60.75 C 932.070312 60.75 931.398438 61.421875 931.398438 62.25 C 931.398438 63.078125 932.070312 63.75 932.898438 63.75 Z M 937.839844 60.328125 C 938.671875 60.328125 939.339844 59.660156 939.339844 58.828125 C 939.339844 58 938.671875 57.328125 937.839844 57.328125 C 937.011719 57.328125 936.339844 58 936.339844 58.828125 C 936.339844 59.660156 937.011719 60.328125 937.839844 60.328125 Z M 942.78125 56.910156 C 943.601562 56.910156 944.28125 56.238281 944.28125 55.410156 C 944.28125 54.578125 943.601562 53.910156 942.78125 53.910156 C 941.949219 53.910156 941.28125 54.578125 941.28125 55.410156 C 941.28125 56.238281 941.949219 56.910156 942.78125 56.910156 Z M 947.710938 53.488281 C 948.539062 53.488281 949.210938 52.820312 949.210938 51.988281 C 949.210938 51.160156 948.539062 50.488281 947.710938 50.488281 C 946.890625 50.488281 946.210938 51.160156 946.210938 51.988281 C 946.210938 52.820312 946.890625 53.488281 947.710938 53.488281 Z M 952.648438 50.070312 C 953.480469 50.070312 954.148438 49.398438 954.148438 48.570312 C 954.148438 47.738281 953.480469 47.070312 952.648438 47.070312 C 951.820312 47.070312 951.148438 47.738281 951.148438 48.570312 C 951.148438 49.398438 951.820312 50.070312 952.648438 50.070312 Z M 957.589844 46.648438 C 958.421875 46.648438 959.089844 45.980469 959.089844 45.148438 C 959.089844 44.320312 958.421875 43.648438 957.589844 43.648438 C 956.761719 43.648438 956.089844 44.320312 956.089844 45.148438 C 956.089844 45.980469 956.761719 46.648438 957.589844 46.648438 Z M 962.53125 43.230469 C 963.359375 43.230469 964.03125 42.550781 964.03125 41.730469 C 964.03125 40.898438 963.359375 40.230469 962.53125 40.230469 C 961.699219 40.230469 961.03125 40.898438 961.03125 41.730469 C 961.03125 42.550781 961.699219 43.230469 962.53125 43.230469 Z M 967.46875 39.808594 C 968.300781 39.808594 968.96875 39.128906 968.96875 38.308594 C 968.96875 37.480469 968.300781 36.808594 967.46875 36.808594 C 966.640625 36.808594 965.96875 37.480469 965.96875 38.308594 C 965.96875 39.128906 966.640625 39.808594 967.46875 39.808594 Z M 972.410156 36.390625 C 973.238281 36.390625 973.910156 35.710938 973.910156 34.890625 C 973.910156 34.058594 973.238281 33.390625 972.410156 33.390625 C 971.578125 33.390625 970.910156 34.058594 970.910156 34.890625 C 970.910156 35.710938 971.578125 36.390625 972.410156 36.390625 Z M 977.351562 32.960938 C 978.171875 32.960938 978.851562 32.289062 978.851562 31.460938 C 978.851562 30.640625 978.171875 29.960938 977.351562 29.960938 C 976.519531 29.960938 975.851562 30.640625 975.851562 31.460938 C 975.851562 32.289062 976.519531 32.960938 977.351562 32.960938 Z M 982.28125 29.539062 C 983.109375 29.539062 983.78125 28.871094 983.78125 28.039062 C 983.78125 27.21875 983.109375 26.539062 982.28125 26.539062 C 981.460938 26.539062 980.78125 27.21875 980.78125 28.039062 C 980.78125 28.871094 981.460938 29.539062 982.28125 29.539062 Z M 987.21875 26.121094 C 988.050781 26.121094 988.71875 25.449219 988.71875 24.621094 C 988.71875 23.789062 988.050781 23.121094 987.21875 23.121094 C 986.390625 23.121094 985.71875 23.789062 985.71875 24.621094 C 985.71875 25.449219 986.390625 26.121094 987.21875 26.121094 Z M 992.160156 22.699219 C 992.988281 22.699219 993.660156 22.03125 993.660156 21.199219 C 993.660156 20.371094 992.988281 19.699219 992.160156 19.699219 C 991.328125 19.699219 990.660156 20.371094 990.660156 21.199219 C 990.660156 22.03125 991.328125 22.699219 992.160156 22.699219 Z M 997.101562 19.28125 C 997.929688 19.28125 998.601562 18.609375 998.601562 17.78125 C 998.601562 16.949219 997.929688 16.28125 997.101562 16.28125 C 996.269531 16.28125 995.601562 16.949219 995.601562 17.78125 C 995.601562 18.609375 996.269531 19.28125 997.101562 19.28125 Z M 1002.039062 15.859375 C 1002.871094 15.859375 1003.539062 15.191406 1003.539062 14.359375 C 1003.539062 13.53125 1002.871094 12.859375 1002.039062 12.859375 C 1001.210938 12.859375 1000.539062 13.53125 1000.539062 14.359375 C 1000.539062 15.191406 1001.210938 15.859375 1002.039062 15.859375 Z M 1006.980469 12.441406 C 1007.808594 12.441406 1008.480469 11.769531 1008.480469 10.941406 C 1008.480469 10.109375 1007.808594 9.441406 1006.980469 9.441406 C 1006.148438 9.441406 1005.480469 10.109375 1005.480469 10.941406 C 1005.480469 11.769531 1006.148438 12.441406 1006.980469 12.441406 Z M 1011.921875 9.019531 C 1012.738281 9.019531 1013.421875 8.351562 1013.421875 7.519531 C 1013.421875 6.691406 1012.738281 6.019531 1011.921875 6.019531 C 1011.089844 6.019531 1010.421875 6.691406 1010.421875 7.519531 C 1010.421875 8.351562 1011.089844 9.019531 1011.921875 9.019531 Z M 1016.851562 5.601562 C 1017.679688 5.601562 1018.351562 4.929688 1018.351562 4.101562 C 1018.351562 3.269531 1017.679688 2.601562 1016.851562 2.601562 C 1016.03125 2.601562 1015.351562 3.269531 1015.351562 4.101562 C 1015.351562 4.929688 1016.03125 5.601562 1016.851562 5.601562 Z M 1021.789062 2.179688 C 1022.621094 2.179688 1023.289062 1.511719 1023.289062 0.679688 C 1023.289062 -0.152344 1022.621094 -0.820312 1021.789062 -0.820312 C 1020.960938 -0.820312 1020.289062 -0.152344 1020.289062 0.679688 C 1020.289062 1.511719 1020.960938 2.179688 1021.789062 2.179688 Z M 1026.730469 -1.238281 C 1027.558594 -1.238281 1028.230469 -1.910156 1028.230469 -2.738281 C 1028.230469 -3.570312 1027.558594 -4.238281 1026.730469 -4.238281 C 1025.898438 -4.238281 1025.230469 -3.570312 1025.230469 -2.738281 C 1025.230469 -1.910156 1025.898438 -1.238281 1026.730469 -1.238281 Z M 1031.671875 -4.660156 C 1032.5 -4.660156 1033.171875 -5.339844 1033.171875 -6.160156 C 1033.171875 -6.988281 1032.5 -7.660156 1031.671875 -7.660156 C 1030.839844 -7.660156 1030.171875 -6.988281 1030.171875 -6.160156 C 1030.171875 -5.339844 1030.839844 -4.660156 1031.671875 -4.660156 Z M 1036.609375 -8.078125 C 1037.441406 -8.078125 1038.109375 -8.761719 1038.109375 -9.578125 C 1038.109375 -10.410156 1037.441406 -11.078125 1036.609375 -11.078125 C 1035.78125 -11.078125 1035.109375 -10.410156 1035.109375 -9.578125 C 1035.109375 -8.761719 1035.78125 -8.078125 1036.609375 -8.078125 Z M 1041.550781 -11.5 C 1042.378906 -11.5 1043.050781 -12.179688 1043.050781 -13 C 1043.050781 -13.828125 1042.378906 -14.5 1041.550781 -14.5 C 1040.71875 -14.5 1040.050781 -13.828125 1040.050781 -13 C 1040.050781 -12.179688 1040.71875 -11.5 1041.550781 -11.5 Z M 1046.488281 -14.929688 C 1047.308594 -14.929688 1047.988281 -15.601562 1047.988281 -16.429688 C 1047.988281 -17.25 1047.308594 -17.929688 1046.488281 -17.929688 C 1045.660156 -17.929688 1044.988281 -17.25 1044.988281 -16.429688 C 1044.988281 -15.601562 1045.660156 -14.929688 1046.488281 -14.929688 Z M 1051.421875 -18.351562 C 1052.25 -18.351562 1052.921875 -19.019531 1052.921875 -19.851562 C 1052.921875 -20.671875 1052.25 -21.351562 1051.421875 -21.351562 C 1050.601562 -21.351562 1049.921875 -20.671875 1049.921875 -19.851562 C 1049.921875 -19.019531 1050.601562 -18.351562 1051.421875 -18.351562 Z M 1056.359375 -21.769531 C 1057.191406 -21.769531 1057.859375 -22.441406 1057.859375 -23.269531 C 1057.859375 -24.101562 1057.191406 -24.769531 1056.359375 -24.769531 C 1055.53125 -24.769531 1054.859375 -24.101562 1054.859375 -23.269531 C 1054.859375 -22.441406 1055.53125 -21.769531 1056.359375 -21.769531 Z M 1061.300781 -25.191406 C 1062.128906 -25.191406 1062.800781 -25.859375 1062.800781 -26.691406 C 1062.800781 -27.519531 1062.128906 -28.191406 1061.300781 -28.191406 C 1060.46875 -28.191406 1059.800781 -27.519531 1059.800781 -26.691406 C 1059.800781 -25.859375 1060.46875 -25.191406 1061.300781 -25.191406 Z M 1066.238281 -28.609375 C 1067.070312 -28.609375 1067.738281 -29.28125 1067.738281 -30.109375 C 1067.738281 -30.941406 1067.070312 -31.609375 1066.238281 -31.609375 C 1065.410156 -31.609375 1064.738281 -30.941406 1064.738281 -30.109375 C 1064.738281 -29.28125 1065.410156 -28.609375 1066.238281 -28.609375 Z M 1071.179688 -32.03125 C 1072.011719 -32.03125 1072.679688 -32.699219 1072.679688 -33.53125 C 1072.679688 -34.359375 1072.011719 -35.03125 1071.179688 -35.03125 C 1070.351562 -35.03125 1069.679688 -34.359375 1069.679688 -33.53125 C 1069.679688 -32.699219 1070.351562 -32.03125 1071.179688 -32.03125 Z M 1076.121094 -35.449219 C 1076.949219 -35.449219 1077.621094 -36.121094 1077.621094 -36.949219 C 1077.621094 -37.78125 1076.949219 -38.449219 1076.121094 -38.449219 C 1075.289062 -38.449219 1074.621094 -37.78125 1074.621094 -36.949219 C 1074.621094 -36.121094 1075.289062 -35.449219 1076.121094 -35.449219 Z M 1081.058594 -38.871094 C 1081.878906 -38.871094 1082.558594 -39.539062 1082.558594 -40.371094 C 1082.558594 -41.199219 1081.878906 -41.871094 1081.058594 -41.871094 C 1080.230469 -41.871094 1079.558594 -41.199219 1079.558594 -40.371094 C 1079.558594 -39.539062 1080.230469 -38.871094 1081.058594 -38.871094 Z M 1085.988281 -42.289062 C 1086.820312 -42.289062 1087.488281 -42.960938 1087.488281 -43.789062 C 1087.488281 -44.621094 1086.820312 -45.289062 1085.988281 -45.289062 C 1085.171875 -45.289062 1084.488281 -44.621094 1084.488281 -43.789062 C 1084.488281 -42.960938 1085.171875 -42.289062 1085.988281 -42.289062 Z M 1090.929688 -45.710938 C 1091.761719 -45.710938 1092.429688 -46.378906 1092.429688 -47.210938 C 1092.429688 -48.039062 1091.761719 -48.710938 1090.929688 -48.710938 C 1090.109375 -48.710938 1089.429688 -48.039062 1089.429688 -47.210938 C 1089.429688 -46.378906 1090.109375 -45.710938 1090.929688 -45.710938 Z M 1095.871094 -49.128906 C 1096.699219 -49.128906 1097.371094 -49.800781 1097.371094 -50.628906 C 1097.371094 -51.460938 1096.699219 -52.128906 1095.871094 -52.128906 C 1095.039062 -52.128906 1094.371094 -51.460938 1094.371094 -50.628906 C 1094.371094 -49.800781 1095.039062 -49.128906 1095.871094 -49.128906 Z M 1100.808594 -52.550781 C 1101.640625 -52.550781 1102.308594 -53.230469 1102.308594 -54.050781 C 1102.308594 -54.878906 1101.640625 -55.550781 1100.808594 -55.550781 C 1099.980469 -55.550781 1099.308594 -54.878906 1099.308594 -54.050781 C 1099.308594 -53.230469 1099.980469 -52.550781 1100.808594 -52.550781 Z M 1105.75 -55.96875 C 1106.578125 -55.96875 1107.25 -56.648438 1107.25 -57.46875 C 1107.25 -58.300781 1106.578125 -58.96875 1105.75 -58.96875 C 1104.921875 -58.96875 1104.25 -58.300781 1104.25 -57.46875 C 1104.25 -56.648438 1104.921875 -55.96875 1105.75 -55.96875 Z M 1110.691406 -59.390625 C 1111.519531 -59.390625 1112.191406 -60.070312 1112.191406 -60.890625 C 1112.191406 -61.71875 1111.519531 -62.390625 1110.691406 -62.390625 C 1109.859375 -62.390625 1109.191406 -61.71875 1109.191406 -60.890625 C 1109.191406 -60.070312 1109.859375 -59.390625 1110.691406 -59.390625 Z M 1115.628906 -62.820312 C 1116.449219 -62.820312 1117.128906 -63.488281 1117.128906 -64.320312 C 1117.128906 -65.140625 1116.449219 -65.820312 1115.628906 -65.820312 C 1114.800781 -65.820312 1114.128906 -65.140625 1114.128906 -64.320312 C 1114.128906 -63.488281 1114.800781 -62.820312 1115.628906 -62.820312 Z M 1120.570312 -66.238281 C 1121.390625 -66.238281 1122.070312 -66.910156 1122.070312 -67.738281 C 1122.070312 -68.558594 1121.390625 -69.238281 1120.570312 -69.238281 C 1119.738281 -69.238281 1119.070312 -68.558594 1119.070312 -67.738281 C 1119.070312 -66.910156 1119.738281 -66.238281 1120.570312 -66.238281 Z M 1125.5 -69.660156 C 1126.328125 -69.660156 1127 -70.328125 1127 -71.160156 C 1127 -71.988281 1126.328125 -72.660156 1125.5 -72.660156 C 1124.679688 -72.660156 1124 -71.988281 1124 -71.160156 C 1124 -70.328125 1124.679688 -69.660156 1125.5 -69.660156 Z M 1130.441406 -73.078125 C 1131.269531 -73.078125 1131.941406 -73.75 1131.941406 -74.578125 C 1131.941406 -75.410156 1131.269531 -76.078125 1130.441406 -76.078125 C 1129.609375 -76.078125 1128.941406 -75.410156 1128.941406 -74.578125 C 1128.941406 -73.75 1129.609375 -73.078125 1130.441406 -73.078125 Z M 1135.378906 -76.5 C 1136.210938 -76.5 1136.878906 -77.171875 1136.878906 -78 C 1136.878906 -78.828125 1136.210938 -79.5 1135.378906 -79.5 C 1134.550781 -79.5 1133.878906 -78.828125 1133.878906 -78 C 1133.878906 -77.171875 1134.550781 -76.5 1135.378906 -76.5 Z M 1140.320312 -79.921875 C 1141.148438 -79.921875 1141.820312 -80.589844 1141.820312 -81.421875 C 1141.820312 -82.25 1141.148438 -82.921875 1140.320312 -82.921875 C 1139.488281 -82.921875 1138.820312 -82.25 1138.820312 -81.421875 C 1138.820312 -80.589844 1139.488281 -79.921875 1140.320312 -79.921875 Z M 1145.261719 -83.339844 C 1146.089844 -83.339844 1146.761719 -84.011719 1146.761719 -84.839844 C 1146.761719 -85.671875 1146.089844 -86.339844 1145.261719 -86.339844 C 1144.429688 -86.339844 1143.761719 -85.671875 1143.761719 -84.839844 C 1143.761719 -84.011719 1144.429688 -83.339844 1145.261719 -83.339844 Z M 1150.199219 -86.761719 C 1151.03125 -86.761719 1151.699219 -87.429688 1151.699219 -88.261719 C 1151.699219 -89.089844 1151.03125 -89.761719 1150.199219 -89.761719 C 1149.371094 -89.761719 1148.699219 -89.089844 1148.699219 -88.261719 C 1148.699219 -87.429688 1149.371094 -86.761719 1150.199219 -86.761719 Z M 1155.140625 -90.179688 C 1155.960938 -90.179688 1156.640625 -90.851562 1156.640625 -91.679688 C 1156.640625 -92.511719 1155.960938 -93.179688 1155.140625 -93.179688 C 1154.308594 -93.179688 1153.640625 -92.511719 1153.640625 -91.679688 C 1153.640625 -90.851562 1154.308594 -90.179688 1155.140625 -90.179688 Z M 1160.070312 -93.601562 C 1160.898438 -93.601562 1161.570312 -94.269531 1161.570312 -95.101562 C 1161.570312 -95.929688 1160.898438 -96.601562 1160.070312 -96.601562 C 1159.25 -96.601562 1158.570312 -95.929688 1158.570312 -95.101562 C 1158.570312 -94.269531 1159.25 -93.601562 1160.070312 -93.601562 Z M 1165.011719 -97.019531 C 1165.839844 -97.019531 1166.511719 -97.691406 1166.511719 -98.519531 C 1166.511719 -99.351562 1165.839844 -100.019531 1165.011719 -100.019531 C 1164.179688 -100.019531 1163.511719 -99.351562 1163.511719 -98.519531 C 1163.511719 -97.691406 1164.179688 -97.019531 1165.011719 -97.019531 Z M 1169.949219 -100.441406 C 1170.78125 -100.441406 1171.449219 -101.121094 1171.449219 -101.941406 C 1171.449219 -102.769531 1170.78125 -103.441406 1169.949219 -103.441406 C 1169.121094 -103.441406 1168.449219 -102.769531 1168.449219 -101.941406 C 1168.449219 -101.121094 1169.121094 -100.441406 1169.949219 -100.441406 Z M 1174.890625 -103.859375 C 1175.71875 -103.859375 1176.390625 -104.539062 1176.390625 -105.359375 C 1176.390625 -106.191406 1175.71875 -106.859375 1174.890625 -106.859375 C 1174.058594 -106.859375 1173.390625 -106.191406 1173.390625 -105.359375 C 1173.390625 -104.539062 1174.058594 -103.859375 1174.890625 -103.859375 Z M 1179.828125 -107.28125 C 1180.660156 -107.28125 1181.328125 -107.960938 1181.328125 -108.78125 C 1181.328125 -109.609375 1180.660156 -110.28125 1179.828125 -110.28125 C 1179 -110.28125 1178.328125 -109.609375 1178.328125 -108.78125 C 1178.328125 -107.960938 1179 -107.28125 1179.828125 -107.28125 Z M 1184.769531 -110.710938 C 1185.601562 -110.710938 1186.269531 -111.378906 1186.269531 -112.210938 C 1186.269531 -113.03125 1185.601562 -113.710938 1184.769531 -113.710938 C 1183.941406 -113.710938 1183.269531 -113.03125 1183.269531 -112.210938 C 1183.269531 -111.378906 1183.941406 -110.710938 1184.769531 -110.710938 Z M 1189.710938 -114.128906 C 1190.53125 -114.128906 1191.210938 -114.800781 1191.210938 -115.628906 C 1191.210938 -116.449219 1190.53125 -117.128906 1189.710938 -117.128906 C 1188.878906 -117.128906 1188.210938 -116.449219 1188.210938 -115.628906 C 1188.210938 -114.800781 1188.878906 -114.128906 1189.710938 -114.128906 Z M 1194.640625 -117.550781 C 1195.46875 -117.550781 1196.140625 -118.21875 1196.140625 -119.050781 C 1196.140625 -119.878906 1195.46875 -120.550781 1194.640625 -120.550781 C 1193.820312 -120.550781 1193.140625 -119.878906 1193.140625 -119.050781 C 1193.140625 -118.21875 1193.820312 -117.550781 1194.640625 -117.550781 Z M 1199.578125 -120.96875 C 1200.410156 -120.96875 1201.078125 -121.640625 1201.078125 -122.46875 C 1201.078125 -123.300781 1200.410156 -123.96875 1199.578125 -123.96875 C 1198.75 -123.96875 1198.078125 -123.300781 1198.078125 -122.46875 C 1198.078125 -121.640625 1198.75 -120.96875 1199.578125 -120.96875 Z M 1204.519531 -124.390625 C 1205.351562 -124.390625 1206.019531 -125.058594 1206.019531 -125.890625 C 1206.019531 -126.71875 1205.351562 -127.390625 1204.519531 -127.390625 C 1203.691406 -127.390625 1203.019531 -126.71875 1203.019531 -125.890625 C 1203.019531 -125.058594 1203.691406 -124.390625 1204.519531 -124.390625 Z M 1209.460938 -127.808594 C 1210.289062 -127.808594 1210.960938 -128.480469 1210.960938 -129.308594 C 1210.960938 -130.140625 1210.289062 -130.808594 1209.460938 -130.808594 C 1208.628906 -130.808594 1207.960938 -130.140625 1207.960938 -129.308594 C 1207.960938 -128.480469 1208.628906 -127.808594 1209.460938 -127.808594 Z M 1214.398438 -131.230469 C 1215.230469 -131.230469 1215.898438 -131.898438 1215.898438 -132.730469 C 1215.898438 -133.558594 1215.230469 -134.230469 1214.398438 -134.230469 C 1213.570312 -134.230469 1212.898438 -133.558594 1212.898438 -132.730469 C 1212.898438 -131.898438 1213.570312 -131.230469 1214.398438 -131.230469 Z M 1219.339844 -134.648438 C 1220.171875 -134.648438 1220.839844 -135.320312 1220.839844 -136.148438 C 1220.839844 -136.980469 1220.171875 -137.648438 1219.339844 -137.648438 C 1218.511719 -137.648438 1217.839844 -136.980469 1217.839844 -136.148438 C 1217.839844 -135.320312 1218.511719 -134.648438 1219.339844 -134.648438 Z M 1224.28125 -138.070312 C 1225.101562 -138.070312 1225.78125 -138.738281 1225.78125 -139.570312 C 1225.78125 -140.398438 1225.101562 -141.070312 1224.28125 -141.070312 C 1223.449219 -141.070312 1222.78125 -140.398438 1222.78125 -139.570312 C 1222.78125 -138.738281 1223.449219 -138.070312 1224.28125 -138.070312 Z M 1229.210938 -141.488281 C 1230.039062 -141.488281 1230.710938 -142.160156 1230.710938 -142.988281 C 1230.710938 -143.820312 1230.039062 -144.488281 1229.210938 -144.488281 C 1228.390625 -144.488281 1227.710938 -143.820312 1227.710938 -142.988281 C 1227.710938 -142.160156 1228.390625 -141.488281 1229.210938 -141.488281 Z M 1234.148438 -144.910156 C 1234.980469 -144.910156 1235.648438 -145.578125 1235.648438 -146.410156 C 1235.648438 -147.238281 1234.980469 -147.910156 1234.148438 -147.910156 C 1233.320312 -147.910156 1232.648438 -147.238281 1232.648438 -146.410156 C 1232.648438 -145.578125 1233.320312 -144.910156 1234.148438 -144.910156 Z M 1239.089844 -148.328125 C 1239.921875 -148.328125 1240.589844 -149.011719 1240.589844 -149.828125 C 1240.589844 -150.660156 1239.921875 -151.328125 1239.089844 -151.328125 C 1238.261719 -151.328125 1237.589844 -150.660156 1237.589844 -149.828125 C 1237.589844 -149.011719 1238.261719 -148.328125 1239.089844 -148.328125 Z M 1244.03125 -151.75 C 1244.859375 -151.75 1245.53125 -152.429688 1245.53125 -153.25 C 1245.53125 -154.078125 1244.859375 -154.75 1244.03125 -154.75 C 1243.199219 -154.75 1242.53125 -154.078125 1242.53125 -153.25 C 1242.53125 -152.429688 1243.199219 -151.75 1244.03125 -151.75 Z M 1248.96875 -155.171875 C 1249.800781 -155.171875 1250.46875 -155.851562 1250.46875 -156.671875 C 1250.46875 -157.5 1249.800781 -158.171875 1248.96875 -158.171875 C 1248.140625 -158.171875 1247.46875 -157.5 1247.46875 -156.671875 C 1247.46875 -155.851562 1248.140625 -155.171875 1248.96875 -155.171875 Z M 1253.910156 -158.601562 C 1254.738281 -158.601562 1255.410156 -159.269531 1255.410156 -160.101562 C 1255.410156 -160.921875 1254.738281 -161.601562 1253.910156 -161.601562 C 1253.078125 -161.601562 1252.410156 -160.921875 1252.410156 -160.101562 C 1252.410156 -159.269531 1253.078125 -158.601562 1253.910156 -158.601562 Z M 1258.851562 -162.019531 C 1259.671875 -162.019531 1260.351562 -162.691406 1260.351562 -163.519531 C 1260.351562 -164.339844 1259.671875 -165.019531 1258.851562 -165.019531 C 1258.019531 -165.019531 1257.351562 -164.339844 1257.351562 -163.519531 C 1257.351562 -162.691406 1258.019531 -162.019531 1258.851562 -162.019531 Z M 1263.78125 -165.441406 C 1264.609375 -165.441406 1265.28125 -166.109375 1265.28125 -166.941406 C 1265.28125 -167.769531 1264.609375 -168.441406 1263.78125 -168.441406 C 1262.960938 -168.441406 1262.28125 -167.769531 1262.28125 -166.941406 C 1262.28125 -166.109375 1262.960938 -165.441406 1263.78125 -165.441406 Z M 1268.71875 -168.859375 C 1269.550781 -168.859375 1270.21875 -169.53125 1270.21875 -170.359375 C 1270.21875 -171.191406 1269.550781 -171.859375 1268.71875 -171.859375 C 1267.890625 -171.859375 1267.21875 -171.191406 1267.21875 -170.359375 C 1267.21875 -169.53125 1267.890625 -168.859375 1268.71875 -168.859375 Z M 1273.660156 -172.28125 C 1274.488281 -172.28125 1275.160156 -172.949219 1275.160156 -173.78125 C 1275.160156 -174.609375 1274.488281 -175.28125 1273.660156 -175.28125 C 1272.828125 -175.28125 1272.160156 -174.609375 1272.160156 -173.78125 C 1272.160156 -172.949219 1272.828125 -172.28125 1273.660156 -172.28125 Z M 1278.601562 -175.699219 C 1279.429688 -175.699219 1280.101562 -176.371094 1280.101562 -177.199219 C 1280.101562 -178.03125 1279.429688 -178.699219 1278.601562 -178.699219 C 1277.769531 -178.699219 1277.101562 -178.03125 1277.101562 -177.199219 C 1277.101562 -176.371094 1277.769531 -175.699219 1278.601562 -175.699219 Z M 1283.539062 -179.121094 C 1284.371094 -179.121094 1285.039062 -179.789062 1285.039062 -180.621094 C 1285.039062 -181.449219 1284.371094 -182.121094 1283.539062 -182.121094 C 1282.710938 -182.121094 1282.039062 -181.449219 1282.039062 -180.621094 C 1282.039062 -179.789062 1282.710938 -179.121094 1283.539062 -179.121094 Z M 1288.480469 -182.539062 C 1289.308594 -182.539062 1289.980469 -183.210938 1289.980469 -184.039062 C 1289.980469 -184.871094 1289.308594 -185.539062 1288.480469 -185.539062 C 1287.648438 -185.539062 1286.980469 -184.871094 1286.980469 -184.039062 C 1286.980469 -183.210938 1287.648438 -182.539062 1288.480469 -182.539062 Z M 1293.421875 -185.960938 C 1294.238281 -185.960938 1294.921875 -186.628906 1294.921875 -187.460938 C 1294.921875 -188.289062 1294.238281 -188.960938 1293.421875 -188.960938 C 1292.589844 -188.960938 1291.921875 -188.289062 1291.921875 -187.460938 C 1291.921875 -186.628906 1292.589844 -185.960938 1293.421875 -185.960938 Z M 1298.351562 -189.378906 C 1299.179688 -189.378906 1299.851562 -190.050781 1299.851562 -190.878906 C 1299.851562 -191.710938 1299.179688 -192.378906 1298.351562 -192.378906 C 1297.53125 -192.378906 1296.851562 -191.710938 1296.851562 -190.878906 C 1296.851562 -190.050781 1297.53125 -189.378906 1298.351562 -189.378906 Z M 1303.289062 -192.800781 C 1304.121094 -192.800781 1304.789062 -193.46875 1304.789062 -194.300781 C 1304.789062 -195.128906 1304.121094 -195.800781 1303.289062 -195.800781 C 1302.460938 -195.800781 1301.789062 -195.128906 1301.789062 -194.300781 C 1301.789062 -193.46875 1302.460938 -192.800781 1303.289062 -192.800781 Z M 1308.230469 -196.21875 C 1309.058594 -196.21875 1309.730469 -196.898438 1309.730469 -197.71875 C 1309.730469 -198.550781 1309.058594 -199.21875 1308.230469 -199.21875 C 1307.398438 -199.21875 1306.730469 -198.550781 1306.730469 -197.71875 C 1306.730469 -196.898438 1307.398438 -196.21875 1308.230469 -196.21875 Z M 1313.171875 -199.640625 C 1314 -199.640625 1314.671875 -200.320312 1314.671875 -201.140625 C 1314.671875 -201.96875 1314 -202.640625 1313.171875 -202.640625 C 1312.339844 -202.640625 1311.671875 -201.96875 1311.671875 -201.140625 C 1311.671875 -200.320312 1312.339844 -199.640625 1313.171875 -199.640625 Z M 1318.109375 -203.058594 C 1318.941406 -203.058594 1319.609375 -203.738281 1319.609375 -204.558594 C 1319.609375 -205.390625 1318.941406 -206.058594 1318.109375 -206.058594 C 1317.28125 -206.058594 1316.609375 -205.390625 1316.609375 -204.558594 C 1316.609375 -203.738281 1317.28125 -203.058594 1318.109375 -203.058594 Z M 1323.050781 -206.488281 C 1323.878906 -206.488281 1324.550781 -207.160156 1324.550781 -207.988281 C 1324.550781 -208.808594 1323.878906 -209.488281 1323.050781 -209.488281 C 1322.21875 -209.488281 1321.550781 -208.808594 1321.550781 -207.988281 C 1321.550781 -207.160156 1322.21875 -206.488281 1323.050781 -206.488281 Z M 1327.988281 -209.910156 C 1328.808594 -209.910156 1329.488281 -210.578125 1329.488281 -211.410156 C 1329.488281 -212.230469 1328.808594 -212.910156 1327.988281 -212.910156 C 1327.160156 -212.910156 1326.488281 -212.230469 1326.488281 -211.410156 C 1326.488281 -210.578125 1327.160156 -209.910156 1327.988281 -209.910156 Z M 1332.921875 -213.328125 C 1333.75 -213.328125 1334.421875 -214 1334.421875 -214.828125 C 1334.421875 -215.660156 1333.75 -216.328125 1332.921875 -216.328125 C 1332.101562 -216.328125 1331.421875 -215.660156 1331.421875 -214.828125 C 1331.421875 -214 1332.101562 -213.328125 1332.921875 -213.328125 Z M 1337.859375 -216.75 C 1338.691406 -216.75 1339.359375 -217.421875 1339.359375 -218.25 C 1339.359375 -219.078125 1338.691406 -219.75 1337.859375 -219.75 C 1337.039062 -219.75 1336.359375 -219.078125 1336.359375 -218.25 C 1336.359375 -217.421875 1337.039062 -216.75 1337.859375 -216.75 Z M 1342.800781 -220.171875 C 1343.628906 -220.171875 1344.300781 -220.839844 1344.300781 -221.671875 C 1344.300781 -222.5 1343.628906 -223.171875 1342.800781 -223.171875 C 1341.96875 -223.171875 1341.300781 -222.5 1341.300781 -221.671875 C 1341.300781 -220.839844 1341.96875 -220.171875 1342.800781 -220.171875 Z M 1347.738281 -223.589844 C 1348.570312 -223.589844 1349.238281 -224.261719 1349.238281 -225.089844 C 1349.238281 -225.921875 1348.570312 -226.589844 1347.738281 -226.589844 C 1346.910156 -226.589844 1346.238281 -225.921875 1346.238281 -225.089844 C 1346.238281 -224.261719 1346.910156 -223.589844 1347.738281 -223.589844 Z M 1352.679688 -227.011719 C 1353.511719 -227.011719 1354.179688 -227.679688 1354.179688 -228.511719 C 1354.179688 -229.339844 1353.511719 -230.011719 1352.679688 -230.011719 C 1351.851562 -230.011719 1351.179688 -229.339844 1351.179688 -228.511719 C 1351.179688 -227.679688 1351.851562 -227.011719 1352.679688 -227.011719 Z M 1357.621094 -230.429688 C 1358.449219 -230.429688 1359.121094 -231.101562 1359.121094 -231.929688 C 1359.121094 -232.761719 1358.449219 -233.429688 1357.621094 -233.429688 C 1356.789062 -233.429688 1356.121094 -232.761719 1356.121094 -231.929688 C 1356.121094 -231.101562 1356.789062 -230.429688 1357.621094 -230.429688 Z M 1362.558594 -233.851562 C 1363.378906 -233.851562 1364.058594 -234.519531 1364.058594 -235.351562 C 1364.058594 -236.179688 1363.378906 -236.851562 1362.558594 -236.851562 C 1361.730469 -236.851562 1361.058594 -236.179688 1361.058594 -235.351562 C 1361.058594 -234.519531 1361.730469 -233.851562 1362.558594 -233.851562 Z M 1367.488281 -237.269531 C 1368.320312 -237.269531 1368.988281 -237.941406 1368.988281 -238.769531 C 1368.988281 -239.601562 1368.320312 -240.269531 1367.488281 -240.269531 C 1366.671875 -240.269531 1365.988281 -239.601562 1365.988281 -238.769531 C 1365.988281 -237.941406 1366.671875 -237.269531 1367.488281 -237.269531 Z M 1367.488281 -237.269531 " transform="matrix(1,0,0,-1,0,565)"/>
<path style="fill:none;stroke-width:3;stroke-linecap:round;stroke-linejoin:round;stroke:rgb(0%,0%,100%);stroke-opacity:1;stroke-dasharray:0,6.01;stroke-miterlimit:10;" d="M -0.5 708.769531 L 1367.5 -238.769531 " transform="matrix(1,0,0,-1,0,565)"/>
<path style="fill:none;stroke-width:3;stroke-linecap:round;stroke-linejoin:round;stroke:rgb(0%,0%,100%);stroke-opacity:1;stroke-miterlimit:10;" d="M 1031.5 61.179688 L 934.320312 61.269531 " transform="matrix(1,0,0,-1,0,565)"/>
<path style="fill:none;stroke-width:3;stroke-linecap:round;stroke-linejoin:round;stroke:rgb(0%,0%,100%);stroke-opacity:1;stroke-miterlimit:10;" d="M 934.320312 61.269531 L 694.5 61.5 " transform="matrix(1,0,0,-1,0,565)"/>
<path style="fill-rule:nonzero;fill:rgb(100%,0%,0%);fill-opacity:1;stroke-width:1;stroke-linecap:square;stroke-linejoin:miter;stroke:rgb(0%,0%,0%);stroke-opacity:1;stroke-miterlimit:10;" d="M 338.539062 477.398438 C 338.539062 474.628906 336.308594 472.398438 333.539062 472.398438 C 330.78125 472.398438 328.539062 474.628906 328.539062 477.398438 C 328.539062 480.160156 330.78125 482.398438 333.539062 482.398438 C 336.308594 482.398438 338.539062 480.160156 338.539062 477.398438 Z M 338.539062 477.398438 " transform="matrix(1,0,0,-1,0,565)"/>
<path style="fill-rule:nonzero;fill:rgb(100%,0%,0%);fill-opacity:1;stroke-width:1;stroke-linecap:square;stroke-linejoin:miter;stroke:rgb(0%,0%,0%);stroke-opacity:1;stroke-miterlimit:10;" d="M 77.769531 62.101562 C 77.769531 59.328125 75.539062 57.101562 72.769531 57.101562 C 70.011719 57.101562 67.769531 59.328125 67.769531 62.101562 C 67.769531 64.859375 70.011719 67.101562 72.769531 67.101562 C 75.539062 67.101562 77.769531 64.859375 77.769531 62.101562 Z M 77.769531 62.101562 " transform="matrix(1,0,0,-1,0,565)"/>
<path style="fill-rule:nonzero;fill:rgb(100%,0%,0%);fill-opacity:1;stroke-width:1;stroke-linecap:square;stroke-linejoin:miter;stroke:rgb(0%,0%,0%);stroke-opacity:1;stroke-miterlimit:10;" d="M 699.5 61.5 C 699.5 58.738281 697.261719 56.5 694.5 56.5 C 691.738281 56.5 689.5 58.738281 689.5 61.5 C 689.5 64.261719 691.738281 66.5 694.5 66.5 C 697.261719 66.5 699.5 64.261719 699.5 61.5 Z M 699.5 61.5 " transform="matrix(1,0,0,-1,0,565)"/>
<path style="fill-rule:nonzero;fill:rgb(100%,0%,0%);fill-opacity:1;stroke-width:1;stroke-linecap:square;stroke-linejoin:miter;stroke:rgb(0%,0%,0%);stroke-opacity:1;stroke-miterlimit:10;" d="M 578.359375 477.171875 C 578.359375 474.398438 576.121094 472.171875 573.359375 472.171875 C 570.601562 472.171875 568.359375 474.398438 568.359375 477.171875 C 568.359375 479.929688 570.601562 482.171875 573.359375 482.171875 C 576.121094 482.171875 578.359375 479.929688 578.359375 477.171875 Z M 578.359375 477.171875 " transform="matrix(1,0,0,-1,0,565)"/>
<path style="fill-rule:nonzero;fill:rgb(69.802856%,0%,0%);fill-opacity:1;stroke-width:1;stroke-linecap:square;stroke-linejoin:miter;stroke:rgb(0%,0%,0%);stroke-opacity:1;stroke-miterlimit:10;" d="M 208.160156 269.75 C 208.160156 266.980469 205.921875 264.75 203.160156 264.75 C 200.398438 264.75 198.160156 266.980469 198.160156 269.75 C 198.160156 272.511719 200.398438 274.75 203.160156 274.75 C 205.921875 274.75 208.160156 272.511719 208.160156 269.75 Z M 208.160156 269.75 " transform="matrix(1,0,0,-1,0,565)"/>
<path style="fill-rule:nonzero;fill:rgb(69.802856%,0%,0%);fill-opacity:1;stroke-width:1;stroke-linecap:square;stroke-linejoin:miter;stroke:rgb(0%,0%,0%);stroke-opacity:1;stroke-miterlimit:10;" d="M 638.929688 269.328125 C 638.929688 266.570312 636.691406 264.328125 633.929688 264.328125 C 631.171875 264.328125 628.929688 266.570312 628.929688 269.328125 C 628.929688 272.089844 631.171875 274.328125 633.929688 274.328125 C 636.691406 274.328125 638.929688 272.089844 638.929688 269.328125 Z M 638.929688 269.328125 " transform="matrix(1,0,0,-1,0,565)"/>
<path style="fill-rule:nonzero;fill:rgb(69.802856%,0%,0%);fill-opacity:1;stroke-width:1;stroke-linecap:square;stroke-linejoin:miter;stroke:rgb(0%,0%,0%);stroke-opacity:1;stroke-miterlimit:10;" d="M 939.320312 61.269531 C 939.320312 58.511719 937.078125 56.269531 934.320312 56.269531 C 931.558594 56.269531 929.320312 58.511719 929.320312 61.269531 C 929.320312 64.03125 931.558594 66.269531 934.320312 66.269531 C 937.078125 66.269531 939.320312 64.03125 939.320312 61.269531 Z M 939.320312 61.269531 " transform="matrix(1,0,0,-1,0,565)"/>
<path style=" stroke:none;fill-rule:nonzero;fill:rgb(0%,0%,0%);fill-opacity:1;" d="M 319.25 55.050781 L 315.230469 65.921875 L 323.28125 65.921875 Z M 317.578125 52.121094 L 320.941406 52.121094 L 329.28125 74 L 326.199219 74 L 324.199219 68.390625 L 314.339844 68.390625 L 312.359375 74 L 309.230469 74 Z M 317.578125 52.121094 "/>
<path style=" stroke:none;fill-rule:nonzero;fill:rgb(0%,0%,0%);fill-opacity:1;" d="M 43.910156 518.558594 L 43.910156 526.558594 L 48.660156 526.558594 C 48.660156 526.558594 51.03125 526.558594 52.191406 525.578125 C 52.191406 525.578125 53.339844 524.589844 53.339844 522.550781 C 53.339844 522.550781 53.339844 520.5 52.191406 519.53125 C 52.191406 519.53125 51.03125 518.558594 48.660156 518.558594 Z M 43.910156 509.558594 L 43.910156 516.160156 L 48.28125 516.160156 C 48.28125 516.160156 50.449219 516.160156 51.519531 515.339844 C 51.519531 515.339844 52.578125 514.53125 52.578125 512.859375 C 52.578125 512.859375 52.578125 511.199219 51.519531 510.390625 C 51.519531 510.390625 50.449219 509.558594 48.28125 509.558594 Z M 40.941406 507.121094 L 48.5 507.121094 C 48.5 507.121094 51.890625 507.121094 53.71875 508.53125 C 53.71875 508.53125 55.550781 509.941406 55.550781 512.53125 C 55.550781 512.53125 55.550781 514.550781 54.609375 515.730469 C 54.609375 515.730469 53.671875 516.921875 51.859375 517.199219 C 51.859375 517.199219 54.050781 517.671875 55.25 519.171875 C 55.25 519.171875 56.449219 520.660156 56.449219 522.871094 C 56.449219 522.871094 56.449219 525.808594 54.449219 527.410156 C 54.449219 527.410156 52.46875 529 48.800781 529 L 40.941406 529 Z M 40.941406 507.121094 "/>
<path style=" stroke:none;fill-rule:nonzero;fill:rgb(0%,0%,0%);fill-opacity:1;" d="M 717.328125 466.808594 L 717.328125 469.941406 C 717.328125 469.941406 715.828125 468.550781 714.128906 467.859375 C 714.128906 467.859375 712.441406 467.171875 710.550781 467.171875 C 710.550781 467.171875 706.800781 467.171875 704.800781 469.46875 C 704.800781 469.46875 702.808594 471.75 702.808594 476.089844 C 702.808594 476.089844 702.808594 480.410156 704.800781 482.699219 C 704.800781 482.699219 706.800781 485 710.550781 485 C 710.550781 485 712.441406 485 714.128906 484.308594 C 714.128906 484.308594 715.828125 483.609375 717.328125 482.21875 L 717.328125 485.308594 C 717.328125 485.308594 715.769531 486.371094 714.03125 486.910156 C 714.03125 486.910156 712.300781 487.421875 710.359375 487.421875 C 710.359375 487.421875 705.390625 487.421875 702.53125 484.390625 C 702.53125 484.390625 699.691406 481.339844 699.691406 476.089844 C 699.691406 476.089844 699.691406 470.808594 702.53125 467.78125 C 702.53125 467.78125 705.390625 464.730469 710.359375 464.730469 C 710.359375 464.730469 712.328125 464.730469 714.058594 465.269531 C 714.058594 465.269531 715.800781 465.78125 717.328125 466.808594 Z M 717.328125 466.808594 "/>
<path style=" stroke:none;fill-rule:nonzero;fill:rgb(0%,0%,0%);fill-opacity:1;" d="M 586.910156 55.558594 L 586.910156 72.558594 L 590.480469 72.558594 C 590.480469 72.558594 595 72.558594 597.089844 70.519531 C 597.089844 70.519531 599.199219 68.46875 599.199219 64.050781 C 599.199219 64.050781 599.199219 59.640625 597.089844 57.609375 C 597.089844 57.609375 595 55.558594 590.480469 55.558594 Z M 583.941406 53.121094 L 590.03125 53.121094 C 590.03125 53.121094 596.378906 53.121094 599.339844 55.78125 C 599.339844 55.78125 602.328125 58.421875 602.328125 64.050781 C 602.328125 64.050781 602.328125 69.699219 599.339844 72.359375 C 599.339844 72.359375 596.359375 75 590.03125 75 L 583.941406 75 Z M 583.941406 53.121094 "/>
<path style=" stroke:none;fill-rule:nonzero;fill:rgb(0%,0%,0%);fill-opacity:1;" d="M 179.941406 258.121094 L 193.769531 258.121094 L 193.769531 260.621094 L 182.910156 260.621094 L 182.910156 267.089844 L 193.308594 267.089844 L 193.308594 269.578125 L 182.910156 269.578125 L 182.910156 277.519531 L 194.03125 277.519531 L 194.03125 280 L 179.941406 280 Z M 179.941406 258.121094 "/>
<path style=" stroke:none;fill-rule:nonzero;fill:rgb(0%,0%,0%);fill-opacity:1;" d="M 643.941406 257.121094 L 656.519531 257.121094 L 656.519531 259.621094 L 646.910156 259.621094 L 646.910156 266.058594 L 655.578125 266.058594 L 655.578125 268.558594 L 646.910156 268.558594 L 646.910156 279 L 643.941406 279 Z M 643.941406 257.121094 "/>
<path style=" stroke:none;fill-rule:nonzero;fill:rgb(0%,0%,0%);fill-opacity:1;" d="M 958.859375 491.871094 L 958.859375 486 L 954.019531 486 L 954.019531 483.578125 L 961.78125 483.578125 L 961.78125 492.96875 C 961.78125 492.96875 960.078125 494.171875 958 494.800781 C 958 494.800781 955.941406 495.421875 953.589844 495.421875 C 953.589844 495.421875 948.46875 495.421875 945.578125 492.441406 C 945.578125 492.441406 942.691406 489.441406 942.691406 484.089844 C 942.691406 484.089844 942.691406 478.71875 945.578125 475.730469 C 945.578125 475.730469 948.46875 472.730469 953.589844 472.730469 C 953.589844 472.730469 955.730469 472.730469 957.660156 473.269531 C 957.660156 473.269531 959.589844 473.78125 961.21875 474.808594 L 961.21875 477.96875 C 961.21875 477.96875 959.578125 476.578125 957.730469 475.871094 C 957.730469 475.871094 955.890625 475.171875 953.839844 475.171875 C 953.839844 475.171875 949.828125 475.171875 947.808594 477.410156 C 947.808594 477.410156 945.808594 479.640625 945.808594 484.089844 C 945.808594 484.089844 945.808594 488.519531 947.808594 490.769531 C 947.808594 490.769531 949.828125 493 953.839844 493 C 953.839844 493 955.421875 493 956.640625 492.730469 C 956.640625 492.730469 957.878906 492.449219 958.859375 491.871094 Z M 958.859375 491.871094 "/>
</g>
</svg>
