<svg version="1.1" xmlns="http://www.w3.org/2000/svg" xmlns:xlink="http://www.w3.org/1999/xlink" width="1310" height="605"><defs><clipPath id="UCtcetcDJGza"><path fill="none" stroke="none" d=" M 0 0 L 1310 0 L 1310 605 L 0 605 L 0 0 Z"/></clipPath></defs><g transform="scale(1,1)" clip-path="url(#UCtcetcDJGza)"><g><rect fill="rgb(255,255,255)" stroke="none" x="0" y="0" width="1310" height="605" fill-opacity="1"/><path fill="rgb(0,0,0)" stroke="none" paint-order="stroke fill markers" fill-rule="evenodd" d=" M 614.1609521694218 66.50991219008284 L 601.2314003154669 83.32736410337313 L 618.0488522287574 96.25691595733002 L 630.978404082712 79.43946404403775 L 614.1609521694218 66.50991219008284" fill-opacity="0.09803921568627451"/><path fill="none" stroke="rgb(0,0,0)" paint-order="fill stroke markers" d=" M 614.1609521694218 66.50991219008284 L 601.2314003154669 83.32736410337313 L 618.0488522287574 96.25691595733002 L 630.978404082712 79.43946404403775 L 614.1609521694218 66.50991219008284" stroke-opacity="0.6" stroke-linecap="round" stroke-linejoin="round" stroke-miterlimit="10" stroke-width="2"/><path fill="rgb(0,0,0)" stroke="none" paint-order="stroke fill markers" fill-rule="evenodd" d=" M 616.4396324943203 530.2128713176437 L 637.6525798028545 530.108628882452 L 637.5483373676641 508.8956815739164 L 616.3353900591286 508.9999240091096 L 616.4396324943203 530.2128713176437" fill-opacity="0.09803921568627451"/><path fill="none" stroke="rgb(0,0,0)" paint-order="fill stroke markers" d=" M 616.4396324943203 530.2128713176437 L 637.6525798028545 530.108628882452 L 637.5483373676641 508.8956815739164 L 616.3353900591286 508.9999240091096 L 616.4396324943203 530.2128713176437" stroke-opacity="0.6" stroke-linecap="round" stroke-linejoin="round" stroke-miterlimit="10" stroke-width="2"/><path fill="none" stroke="rgb(97,97,97)" paint-order="fill stroke markers" d=" M 614.1609521694218 66.50991219008284 L 256.29735537190123 531.9826446280989" stroke-opacity="0.8" stroke-linecap="round" stroke-linejoin="round" stroke-miterlimit="10" stroke-width="2.5"/><path fill="none" stroke="rgb(97,97,97)" paint-order="fill stroke markers" d=" M 256.29735537190123 531.9826446280989 L 1213.4826567726584 527.2789452648519" stroke-opacity="0.8" stroke-linecap="round" stroke-linejoin="round" stroke-miterlimit="10" stroke-width="2.5"/><path fill="none" stroke="rgb(97,97,97)" paint-order="fill stroke markers" d=" M 614.1609521694218 66.50991219008284 L 1213.4826567726584 527.2789452648519" stroke-opacity="0.8" stroke-linecap="round" stroke-linejoin="round" stroke-miterlimit="10" stroke-width="2.5"/><path fill="none" stroke="rgb(97,97,97)" paint-order="fill stroke markers" d=" M 614.1609521694218 66.50991219008284 L 616.4396324943203 530.2128713176437" stroke-opacity="0.8" stroke-linecap="round" stroke-linejoin="round" stroke-miterlimit="10" stroke-width="2.5"/><path fill="rgb(21,101,192)" stroke="none" paint-order="stroke fill markers" d=" M 619.1609521694218 66.50991219008284 C 619.1609521694218 69.2713359392368 616.9223759185758 71.50991219008284 614.1609521694218 71.50991219008284 C 611.3995284202678 71.50991219008284 609.1609521694218 69.2713359392368 609.1609521694218 66.50991219008284 C 609.1609521694218 63.748488440928874 611.3995284202678 61.509912190082844 614.1609521694218 61.509912190082844 C 616.9223759185758 61.509912190082844 619.1609521694218 63.748488440928874 619.1609521694218 66.50991219008284 Z" fill-opacity="1"/><path fill="none" stroke="rgb(0,0,0)" paint-order="fill stroke markers" d=" M 619.1609521694218 66.50991219008284 C 619.1609521694218 69.2713359392368 616.9223759185758 71.50991219008284 614.1609521694218 71.50991219008284 C 611.3995284202678 71.50991219008284 609.1609521694218 69.2713359392368 609.1609521694218 66.50991219008284 C 609.1609521694218 63.748488440928874 611.3995284202678 61.509912190082844 614.1609521694218 61.509912190082844 C 616.9223759185758 61.509912190082844 619.1609521694218 63.748488440928874 619.1609521694218 66.50991219008284 Z" stroke-opacity="1" stroke-linecap="round" stroke-linejoin="round" stroke-miterlimit="10"/><path fill="rgb(21,101,192)" stroke="none" paint-order="stroke fill markers" d=" M 261.29735537190123 531.9826446280989 C 261.29735537190123 534.7440683772529 259.0587791210552 536.9826446280989 256.29735537190123 536.9826446280989 C 253.53593162274726 536.9826446280989 251.29735537190123 534.7440683772529 251.29735537190123 531.9826446280989 C 251.29735537190123 529.2212208789449 253.53593162274726 526.9826446280989 256.29735537190123 526.9826446280989 C 259.0587791210552 526.9826446280989 261.29735537190123 529.2212208789449 261.29735537190123 531.9826446280989 Z" fill-opacity="1"/><path fill="none" stroke="rgb(0,0,0)" paint-order="fill stroke markers" d=" M 261.29735537190123 531.9826446280989 C 261.29735537190123 534.7440683772529 259.0587791210552 536.9826446280989 256.29735537190123 536.9826446280989 C 253.53593162274726 536.9826446280989 251.29735537190123 534.7440683772529 251.29735537190123 531.9826446280989 C 251.29735537190123 529.2212208789449 253.53593162274726 526.9826446280989 256.29735537190123 526.9826446280989 C 259.0587791210552 526.9826446280989 261.29735537190123 529.2212208789449 261.29735537190123 531.9826446280989 Z" stroke-opacity="1" stroke-linecap="round" stroke-linejoin="round" stroke-miterlimit="10"/><path fill="rgb(21,101,192)" stroke="none" paint-order="stroke fill markers" d=" M 1218.4826567726584 527.2789452648519 C 1218.4826567726584 530.0403690140059 1216.2440805218123 532.2789452648519 1213.4826567726584 532.2789452648519 C 1210.7212330235045 532.2789452648519 1208.4826567726584 530.0403690140059 1208.4826567726584 527.2789452648519 C 1208.4826567726584 524.5175215156979 1210.7212330235045 522.2789452648519 1213.4826567726584 522.2789452648519 C 1216.2440805218123 522.2789452648519 1218.4826567726584 524.5175215156979 1218.4826567726584 527.2789452648519 Z" fill-opacity="1"/><path fill="none" stroke="rgb(0,0,0)" paint-order="fill stroke markers" d=" M 1218.4826567726584 527.2789452648519 C 1218.4826567726584 530.0403690140059 1216.2440805218123 532.2789452648519 1213.4826567726584 532.2789452648519 C 1210.7212330235045 532.2789452648519 1208.4826567726584 530.0403690140059 1208.4826567726584 527.2789452648519 C 1208.4826567726584 524.5175215156979 1210.7212330235045 522.2789452648519 1213.4826567726584 522.2789452648519 C 1216.2440805218123 522.2789452648519 1218.4826567726584 524.5175215156979 1218.4826567726584 527.2789452648519 Z" stroke-opacity="1" stroke-linecap="round" stroke-linejoin="round" stroke-miterlimit="10"/><path fill="rgb(97,97,97)" stroke="none" paint-order="stroke fill markers" d=" M 620.4396324943203 530.2128713176437 C 620.4396324943203 532.4220103169669 618.6487714936435 534.2128713176437 616.4396324943203 534.2128713176437 C 614.2304934949972 534.2128713176437 612.4396324943203 532.4220103169669 612.4396324943203 530.2128713176437 C 612.4396324943203 528.0037323183205 614.2304934949972 526.2128713176437 616.4396324943203 526.2128713176437 C 618.6487714936435 526.2128713176437 620.4396324943203 528.0037323183205 620.4396324943203 530.2128713176437 Z" fill-opacity="1"/><path fill="none" stroke="rgb(0,0,0)" paint-order="fill stroke markers" d=" M 620.4396324943203 530.2128713176437 C 620.4396324943203 532.4220103169669 618.6487714936435 534.2128713176437 616.4396324943203 534.2128713176437 C 614.2304934949972 534.2128713176437 612.4396324943203 532.4220103169669 612.4396324943203 530.2128713176437 C 612.4396324943203 528.0037323183205 614.2304934949972 526.2128713176437 616.4396324943203 526.2128713176437 C 618.6487714936435 526.2128713176437 620.4396324943203 528.0037323183205 620.4396324943203 530.2128713176437 Z" stroke-opacity="1" stroke-linecap="round" stroke-linejoin="round" stroke-miterlimit="10"/><g transform="scale(27,27)"><g transform="translate(14.37037037037037,10.912036481481481)"><path fill="rgb(0,0,0)" stroke="none" paint-order="stroke fill markers" d=" M 0.373 -0.378 Q 0.378 -0.41200000000000003 0.404 -0.42 Q 0.40900000000000003 -0.422 0.41500000000000004 -0.422 Q 0.441 -0.422 0.444 -0.395 Q 0.444 -0.389 0.437 -0.361 L 0.401 -0.221 Q 0.386 -0.158 0.379 -0.131 Q 0.366 -0.079 0.366 -0.057 Q 0.366 -0.011 0.396 -0.011 Q 0.434 -0.011 0.46 -0.091 Q 0.465 -0.108 0.47200000000000003 -0.135 Q 0.48 -0.152 0.486 -0.153 Q 0.498 -0.153 0.498 -0.14300000000000002 Q 0.498 -0.128 0.48 -0.073 Q 0.47400000000000003 -0.056 0.468 -0.044 Q 0.44 0.011 0.394 0.011 Q 0.338 0.011 0.313 -0.037 Q 0.306 -0.049 0.303 -0.064 Q 0.24 0.011 0.17300000000000001 0.011 Q 0.098 0.011 0.062 -0.057 Q 0.04 -0.097 0.04 -0.149 Q 0.04 -0.257 0.115 -0.34900000000000003 Q 0.185 -0.433 0.267 -0.441 Q 0.274 -0.442 0.281 -0.442 Q 0.342 -0.442 0.373 -0.378 M 0.308 -0.11900000000000001 L 0.308 -0.11900000000000001 L 0.358 -0.315 Q 0.361 -0.33 0.361 -0.332 Q 0.361 -0.353 0.343 -0.383 Q 0.321 -0.42 0.28200000000000003 -0.42 Q 0.23 -0.42 0.183 -0.352 Q 0.17400000000000002 -0.339 0.166 -0.324 Q 0.137 -0.266 0.117 -0.159 Q 0.111 -0.125 0.111 -0.105 Q 0.111 -0.037 0.149 -0.017 Q 0.16 -0.011 0.17500000000000002 -0.011 Q 0.231 -0.011 0.28800000000000003 -0.082 Q 0.302 -0.098 0.307 -0.115 L 0.307 -0.116 Q 0.308 -0.11800000000000001 0.308 -0.11900000000000001 Z"/></g></g><g transform="scale(27,27)"><g transform="translate(23.59259259259259,10.80092537037037)"><path fill="rgb(0,0,0)" stroke="none" paint-order="stroke fill markers" d=" M 0.045 0.122 L 0.045 0.122 L 0.157 -0.323 Q 0.164 -0.353 0.164 -0.374 Q 0.164 -0.42 0.133 -0.42 Q 0.092 -0.42 0.066 -0.325 Q 0.063 -0.314 0.06 -0.301 Q 0.049 -0.279 0.043000000000000003 -0.278 Q 0.031 -0.278 0.031 -0.28800000000000003 Q 0.031 -0.304 0.049 -0.355 Q 0.056 -0.373 0.062 -0.385 Q 0.08600000000000001 -0.434 0.122 -0.441 Q 0.129 -0.442 0.136 -0.442 Q 0.19 -0.442 0.215 -0.398 L 0.215 -0.397 Q 0.223 -0.384 0.226 -0.367 Q 0.289 -0.442 0.357 -0.442 Q 0.428 -0.442 0.466 -0.378 Q 0.488 -0.333 0.49 -0.28200000000000003 Q 0.49 -0.17400000000000002 0.41400000000000003 -0.082 Q 0.34500000000000003 0.002 0.263 0.01 Q 0.256 0.011 0.249 0.011 Q 0.186 0.011 0.157 -0.053 Q 0.12 0.079 0.109 0.14100000000000001 Q 0.108 0.146 0.108 0.147 Q 0.108 0.158 0.121 0.161 L 0.122 0.161 L 0.122 0.161 Q 0.134 0.163 0.158 0.163 Q 0.18 0.163 0.182 0.17400000000000002 Q 0.182 0.194 0.164 0.194 L 0.066 0.191 L 0.065 0.191 L -0.017 0.194 L -0.019 0.194 Q -0.032 0.194 -0.032 0.182 Q -0.026000000000000002 0.164 -0.009000000000000001 0.163 Q 0.028 0.163 0.036000000000000004 0.15 L 0.037 0.149 Q 0.039 0.145 0.041 0.138 Q 0.042 0.133 0.045 0.122 M 0.221 -0.312 L 0.221 -0.312 L 0.17200000000000001 -0.116 Q 0.169 -0.10400000000000001 0.169 -0.1 Q 0.169 -0.077 0.187 -0.048 Q 0.198 -0.029 0.215 -0.019 Q 0.23 -0.011 0.248 -0.011 Q 0.299 -0.011 0.34400000000000003 -0.075 Q 0.357 -0.093 0.367 -0.114 Q 0.394 -0.171 0.41200000000000003 -0.268 Q 0.418 -0.303 0.418 -0.326 Q 0.418 -0.405 0.37 -0.418 Q 0.362 -0.42 0.354 -0.42 Q 0.316 -0.42 0.273 -0.382 Q 0.23 -0.34600000000000003 0.221 -0.312 Z"/></g></g><g transform="scale(27,27)"><g transform="translate(34.81481481481482,10.620370925925926)"><path fill="rgb(0,0,0)" stroke="none" paint-order="stroke fill markers" d=" M 0.23900000000000002 -0.683 L 0.165 -0.382 Q 0.223 -0.442 0.28200000000000003 -0.442 Q 0.357 -0.442 0.394 -0.373 Q 0.41500000000000004 -0.333 0.41500000000000004 -0.28200000000000003 Q 0.41500000000000004 -0.176 0.341 -0.084 Q 0.272 0.001 0.189 0.01 Q 0.181 0.011 0.17400000000000002 0.011 Q 0.10200000000000001 0.011 0.067 -0.056 Q 0.047 -0.094 0.047 -0.146 Q 0.047 -0.18 0.063 -0.247 L 0.145 -0.5730000000000001 Q 0.159 -0.632 0.159 -0.635 Q 0.159 -0.646 0.145 -0.649 L 0.145 -0.649 Q 0.133 -0.652 0.109 -0.652 Q 0.08700000000000001 -0.652 0.085 -0.664 Q 0.085 -0.681 0.10400000000000001 -0.684 L 0.226 -0.6940000000000001 Q 0.23900000000000002 -0.6940000000000001 0.23900000000000002 -0.683 M 0.145 -0.305 L 0.123 -0.213 Q 0.107 -0.15 0.107 -0.112 Q 0.107 -0.026000000000000002 0.159 -0.013000000000000001 Q 0.166 -0.011 0.17400000000000002 -0.011 Q 0.227 -0.011 0.273 -0.081 Q 0.28300000000000003 -0.096 0.292 -0.114 Q 0.319 -0.171 0.337 -0.268 Q 0.343 -0.303 0.343 -0.326 Q 0.343 -0.406 0.294 -0.418 L 0.293 -0.419 Q 0.28700000000000003 -0.42 0.28 -0.42 Q 0.22 -0.42 0.16 -0.34 Q 0.152 -0.33 0.145 -0.305 Z"/></g></g></g></g></svg>