<svg version="1.1" xmlns="http://www.w3.org/2000/svg" xmlns:xlink="http://www.w3.org/1999/xlink" width="1310" height="605"><defs><clipPath id="RArxPXmgMFns"><path fill="none" stroke="none" d=" M 0 0 L 1310 0 L 1310 605 L 0 605 L 0 0 Z"/></clipPath></defs><g transform="scale(1,1)" clip-path="url(#RArxPXmgMFns)"><g><rect fill="rgb(255,255,255)" stroke="none" x="0" y="0" width="1310" height="605" fill-opacity="1"/><path fill="rgb(0,0,0)" stroke="none" paint-order="stroke fill markers" fill-rule="evenodd" d=" M 551.1609521694216 47.509912190083014 L 538.2314003154668 64.3273641033733 L 555.0488522287573 77.2569159573302 L 567.9784040827119 60.43946404403791 L 551.1609521694216 47.509912190083014" fill-opacity="0.09803921568627451"/><path fill="none" stroke="rgb(0,0,0)" paint-order="fill stroke markers" d=" M 551.1609521694216 47.509912190083014 L 538.2314003154668 64.3273641033733 L 555.0488522287573 77.2569159573302 L 567.9784040827119 60.43946404403791 L 551.1609521694216 47.509912190083014" stroke-opacity="0.6" stroke-linecap="round" stroke-linejoin="round" stroke-miterlimit="10" stroke-width="2"/><path fill="rgb(0,0,0)" stroke="none" paint-order="stroke fill markers" fill-rule="evenodd" d=" M 553.4396324943202 511.2128713176436 L 574.6525798028543 511.10862888245185 L 574.548337367664 489.8956815739163 L 553.3353900591285 489.99992400910946 L 553.4396324943202 511.2128713176436" fill-opacity="0.09803921568627451"/><path fill="none" stroke="rgb(0,0,0)" paint-order="fill stroke markers" d=" M 553.4396324943202 511.2128713176436 L 574.6525798028543 511.10862888245185 L 574.548337367664 489.8956815739163 L 553.3353900591285 489.99992400910946 L 553.4396324943202 511.2128713176436" stroke-opacity="0.6" stroke-linecap="round" stroke-linejoin="round" stroke-miterlimit="10" stroke-width="2"/><path fill="none" stroke="rgb(97,97,97)" paint-order="fill stroke markers" d=" M 551.1609521694216 47.509912190083014 L 193.2973553719014 512.9826446280988" stroke-opacity="0.8" stroke-linecap="round" stroke-linejoin="round" stroke-miterlimit="10" stroke-width="2.5"/><path fill="none" stroke="rgb(97,97,97)" paint-order="fill stroke markers" d=" M 193.2973553719014 512.9826446280988 L 1150.482656772658 508.2789452648518" stroke-opacity="0.8" stroke-linecap="round" stroke-linejoin="round" stroke-miterlimit="10" stroke-width="2.5"/><path fill="none" stroke="rgb(97,97,97)" paint-order="fill stroke markers" d=" M 551.1609521694216 47.509912190083014 L 1150.482656772658 508.2789452648518" stroke-opacity="0.8" stroke-linecap="round" stroke-linejoin="round" stroke-miterlimit="10" stroke-width="2.5"/><path fill="none" stroke="rgb(97,97,97)" paint-order="fill stroke markers" d=" M 551.1609521694216 47.509912190083014 L 553.4396324943202 511.2128713176436" stroke-opacity="0.8" stroke-linecap="round" stroke-linejoin="round" stroke-miterlimit="10" stroke-width="2.5"/><path fill="rgb(21,101,192)" stroke="none" paint-order="stroke fill markers" d=" M 556.1609521694216 47.509912190083014 C 556.1609521694216 50.27133593923698 553.9223759185757 52.509912190083014 551.1609521694216 52.509912190083014 C 548.3995284202676 52.509912190083014 546.1609521694216 50.27133593923698 546.1609521694216 47.509912190083014 C 546.1609521694216 44.748488440929044 548.3995284202676 42.509912190083014 551.1609521694216 42.509912190083014 C 553.9223759185757 42.509912190083014 556.1609521694216 44.748488440929044 556.1609521694216 47.509912190083014 Z" fill-opacity="1"/><path fill="none" stroke="rgb(0,0,0)" paint-order="fill stroke markers" d=" M 556.1609521694216 47.509912190083014 C 556.1609521694216 50.27133593923698 553.9223759185757 52.509912190083014 551.1609521694216 52.509912190083014 C 548.3995284202676 52.509912190083014 546.1609521694216 50.27133593923698 546.1609521694216 47.509912190083014 C 546.1609521694216 44.748488440929044 548.3995284202676 42.509912190083014 551.1609521694216 42.509912190083014 C 553.9223759185757 42.509912190083014 556.1609521694216 44.748488440929044 556.1609521694216 47.509912190083014 Z" stroke-opacity="1" stroke-linecap="round" stroke-linejoin="round" stroke-miterlimit="10"/><path fill="rgb(21,101,192)" stroke="none" paint-order="stroke fill markers" d=" M 198.2973553719014 512.9826446280988 C 198.2973553719014 515.7440683772528 196.05877912105538 517.9826446280988 193.2973553719014 517.9826446280988 C 190.53593162274743 517.9826446280988 188.2973553719014 515.7440683772528 188.2973553719014 512.9826446280988 C 188.2973553719014 510.22122087894485 190.53593162274743 507.9826446280988 193.2973553719014 507.9826446280988 C 196.05877912105538 507.9826446280988 198.2973553719014 510.22122087894485 198.2973553719014 512.9826446280988 Z" fill-opacity="1"/><path fill="none" stroke="rgb(0,0,0)" paint-order="fill stroke markers" d=" M 198.2973553719014 512.9826446280988 C 198.2973553719014 515.7440683772528 196.05877912105538 517.9826446280988 193.2973553719014 517.9826446280988 C 190.53593162274743 517.9826446280988 188.2973553719014 515.7440683772528 188.2973553719014 512.9826446280988 C 188.2973553719014 510.22122087894485 190.53593162274743 507.9826446280988 193.2973553719014 507.9826446280988 C 196.05877912105538 507.9826446280988 198.2973553719014 510.22122087894485 198.2973553719014 512.9826446280988 Z" stroke-opacity="1" stroke-linecap="round" stroke-linejoin="round" stroke-miterlimit="10"/><path fill="rgb(21,101,192)" stroke="none" paint-order="stroke fill markers" d=" M 1155.482656772658 508.2789452648518 C 1155.482656772658 511.04036901400576 1153.2440805218118 513.2789452648518 1150.482656772658 513.2789452648518 C 1147.721233023504 513.2789452648518 1145.482656772658 511.04036901400576 1145.482656772658 508.2789452648518 C 1145.482656772658 505.51752151569787 1147.721233023504 503.2789452648518 1150.482656772658 503.2789452648518 C 1153.2440805218118 503.2789452648518 1155.482656772658 505.51752151569787 1155.482656772658 508.2789452648518 Z" fill-opacity="1"/><path fill="none" stroke="rgb(0,0,0)" paint-order="fill stroke markers" d=" M 1155.482656772658 508.2789452648518 C 1155.482656772658 511.04036901400576 1153.2440805218118 513.2789452648518 1150.482656772658 513.2789452648518 C 1147.721233023504 513.2789452648518 1145.482656772658 511.04036901400576 1145.482656772658 508.2789452648518 C 1145.482656772658 505.51752151569787 1147.721233023504 503.2789452648518 1150.482656772658 503.2789452648518 C 1153.2440805218118 503.2789452648518 1155.482656772658 505.51752151569787 1155.482656772658 508.2789452648518 Z" stroke-opacity="1" stroke-linecap="round" stroke-linejoin="round" stroke-miterlimit="10"/><path fill="rgb(97,97,97)" stroke="none" paint-order="stroke fill markers" d=" M 557.4396324943202 511.2128713176436 C 557.4396324943202 513.4220103169667 555.6487714936434 515.2128713176436 553.4396324943202 515.2128713176436 C 551.2304934949971 515.2128713176436 549.4396324943202 513.4220103169667 549.4396324943202 511.2128713176436 C 549.4396324943202 509.00373231832043 551.2304934949971 507.2128713176436 553.4396324943202 507.2128713176436 C 555.6487714936434 507.2128713176436 557.4396324943202 509.00373231832043 557.4396324943202 511.2128713176436 Z" fill-opacity="1"/><path fill="none" stroke="rgb(0,0,0)" paint-order="fill stroke markers" d=" M 557.4396324943202 511.2128713176436 C 557.4396324943202 513.4220103169667 555.6487714936434 515.2128713176436 553.4396324943202 515.2128713176436 C 551.2304934949971 515.2128713176436 549.4396324943202 513.4220103169667 549.4396324943202 511.2128713176436 C 549.4396324943202 509.00373231832043 551.2304934949971 507.2128713176436 553.4396324943202 507.2128713176436 C 555.6487714936434 507.2128713176436 557.4396324943202 509.00373231832043 557.4396324943202 511.2128713176436 Z" stroke-opacity="1" stroke-linecap="round" stroke-linejoin="round" stroke-miterlimit="10"/><g transform="scale(27,27)"><g transform="translate(12.037037037037036,10.208332777777779)"><path fill="rgb(0,0,0)" stroke="none" paint-order="stroke fill markers" d=" M 0.373 -0.378 Q 0.378 -0.41200000000000003 0.404 -0.42 Q 0.40900000000000003 -0.422 0.41500000000000004 -0.422 Q 0.441 -0.422 0.444 -0.395 Q 0.444 -0.389 0.437 -0.361 L 0.401 -0.221 Q 0.386 -0.158 0.379 -0.131 Q 0.366 -0.079 0.366 -0.057 Q 0.366 -0.011 0.396 -0.011 Q 0.434 -0.011 0.46 -0.091 Q 0.465 -0.108 0.47200000000000003 -0.135 Q 0.48 -0.152 0.486 -0.153 Q 0.498 -0.153 0.498 -0.14300000000000002 Q 0.498 -0.128 0.48 -0.073 Q 0.47400000000000003 -0.056 0.468 -0.044 Q 0.44 0.011 0.394 0.011 Q 0.338 0.011 0.313 -0.037 Q 0.306 -0.049 0.303 -0.064 Q 0.24 0.011 0.17300000000000001 0.011 Q 0.098 0.011 0.062 -0.057 Q 0.04 -0.097 0.04 -0.149 Q 0.04 -0.257 0.115 -0.34900000000000003 Q 0.185 -0.433 0.267 -0.441 Q 0.274 -0.442 0.281 -0.442 Q 0.342 -0.442 0.373 -0.378 M 0.308 -0.11900000000000001 L 0.308 -0.11900000000000001 L 0.358 -0.315 Q 0.361 -0.33 0.361 -0.332 Q 0.361 -0.353 0.343 -0.383 Q 0.321 -0.42 0.28200000000000003 -0.42 Q 0.23 -0.42 0.183 -0.352 Q 0.17400000000000002 -0.339 0.166 -0.324 Q 0.137 -0.266 0.117 -0.159 Q 0.111 -0.125 0.111 -0.105 Q 0.111 -0.037 0.149 -0.017 Q 0.16 -0.011 0.17500000000000002 -0.011 Q 0.231 -0.011 0.28800000000000003 -0.082 Q 0.302 -0.098 0.307 -0.115 L 0.307 -0.116 Q 0.308 -0.11800000000000001 0.308 -0.11900000000000001 Z"/></g></g><g transform="scale(27,27)"><g transform="translate(21.25925925925926,10.097221666666666)"><path fill="rgb(0,0,0)" stroke="none" paint-order="stroke fill markers" d=" M 0.045 0.122 L 0.045 0.122 L 0.157 -0.323 Q 0.164 -0.353 0.164 -0.374 Q 0.164 -0.42 0.133 -0.42 Q 0.092 -0.42 0.066 -0.325 Q 0.063 -0.314 0.06 -0.301 Q 0.049 -0.279 0.043000000000000003 -0.278 Q 0.031 -0.278 0.031 -0.28800000000000003 Q 0.031 -0.304 0.049 -0.355 Q 0.056 -0.373 0.062 -0.385 Q 0.08600000000000001 -0.434 0.122 -0.441 Q 0.129 -0.442 0.136 -0.442 Q 0.19 -0.442 0.215 -0.398 L 0.215 -0.397 Q 0.223 -0.384 0.226 -0.367 Q 0.289 -0.442 0.357 -0.442 Q 0.428 -0.442 0.466 -0.378 Q 0.488 -0.333 0.49 -0.28200000000000003 Q 0.49 -0.17400000000000002 0.41400000000000003 -0.082 Q 0.34500000000000003 0.002 0.263 0.01 Q 0.256 0.011 0.249 0.011 Q 0.186 0.011 0.157 -0.053 Q 0.12 0.079 0.109 0.14100000000000001 Q 0.108 0.146 0.108 0.147 Q 0.108 0.158 0.121 0.161 L 0.122 0.161 L 0.122 0.161 Q 0.134 0.163 0.158 0.163 Q 0.18 0.163 0.182 0.17400000000000002 Q 0.182 0.194 0.164 0.194 L 0.066 0.191 L 0.065 0.191 L -0.017 0.194 L -0.019 0.194 Q -0.032 0.194 -0.032 0.182 Q -0.026000000000000002 0.164 -0.009000000000000001 0.163 Q 0.028 0.163 0.036000000000000004 0.15 L 0.037 0.149 Q 0.039 0.145 0.041 0.138 Q 0.042 0.133 0.045 0.122 M 0.221 -0.312 L 0.221 -0.312 L 0.17200000000000001 -0.116 Q 0.169 -0.10400000000000001 0.169 -0.1 Q 0.169 -0.077 0.187 -0.048 Q 0.198 -0.029 0.215 -0.019 Q 0.23 -0.011 0.248 -0.011 Q 0.299 -0.011 0.34400000000000003 -0.075 Q 0.357 -0.093 0.367 -0.114 Q 0.394 -0.171 0.41200000000000003 -0.268 Q 0.418 -0.303 0.418 -0.326 Q 0.418 -0.405 0.37 -0.418 Q 0.362 -0.42 0.354 -0.42 Q 0.316 -0.42 0.273 -0.382 Q 0.23 -0.34600000000000003 0.221 -0.312 Z"/></g></g><g transform="scale(27,27)"><g transform="translate(32.48148148148148,9.916667222222221)"><path fill="rgb(0,0,0)" stroke="none" paint-order="stroke fill markers" d=" M 0.23900000000000002 -0.683 L 0.165 -0.382 Q 0.223 -0.442 0.28200000000000003 -0.442 Q 0.357 -0.442 0.394 -0.373 Q 0.41500000000000004 -0.333 0.41500000000000004 -0.28200000000000003 Q 0.41500000000000004 -0.176 0.341 -0.084 Q 0.272 0.001 0.189 0.01 Q 0.181 0.011 0.17400000000000002 0.011 Q 0.10200000000000001 0.011 0.067 -0.056 Q 0.047 -0.094 0.047 -0.146 Q 0.047 -0.18 0.063 -0.247 L 0.145 -0.5730000000000001 Q 0.159 -0.632 0.159 -0.635 Q 0.159 -0.646 0.145 -0.649 L 0.145 -0.649 Q 0.133 -0.652 0.109 -0.652 Q 0.08700000000000001 -0.652 0.085 -0.664 Q 0.085 -0.681 0.10400000000000001 -0.684 L 0.226 -0.6940000000000001 Q 0.23900000000000002 -0.6940000000000001 0.23900000000000002 -0.683 M 0.145 -0.305 L 0.123 -0.213 Q 0.107 -0.15 0.107 -0.112 Q 0.107 -0.026000000000000002 0.159 -0.013000000000000001 Q 0.166 -0.011 0.17400000000000002 -0.011 Q 0.227 -0.011 0.273 -0.081 Q 0.28300000000000003 -0.096 0.292 -0.114 Q 0.319 -0.171 0.337 -0.268 Q 0.343 -0.303 0.343 -0.326 Q 0.343 -0.406 0.294 -0.418 L 0.293 -0.419 Q 0.28700000000000003 -0.42 0.28 -0.42 Q 0.22 -0.42 0.16 -0.34 Q 0.152 -0.33 0.145 -0.305 Z"/></g></g><g transform="scale(27,27)"><g transform="translate(13.74074074074074,20.504629074074074)"><path fill="rgb(0,0,0)" stroke="none" paint-order="stroke fill markers" d=" M 0.396 -0.38 L 0.396 -0.38 Q 0.368 -0.41600000000000004 0.31 -0.42 Q 0.245 -0.42 0.192 -0.354 Q 0.179 -0.338 0.169 -0.32 Q 0.129 -0.247 0.117 -0.148 Q 0.115 -0.132 0.115 -0.12 Q 0.115 -0.038 0.171 -0.017 Q 0.185 -0.011 0.20500000000000002 -0.011 Q 0.295 -0.011 0.367 -0.07100000000000001 Q 0.388 -0.088 0.405 -0.11 Q 0.41200000000000003 -0.12 0.418 -0.12 Q 0.427 -0.12 0.43 -0.107 Q 0.43 -0.096 0.396 -0.064 Q 0.313 0.011 0.203 0.011 Q 0.108 0.011 0.065 -0.065 Q 0.041 -0.106 0.041 -0.158 Q 0.041 -0.26 0.11900000000000001 -0.34700000000000003 Q 0.196 -0.433 0.291 -0.441 Q 0.3 -0.442 0.309 -0.442 Q 0.386 -0.442 0.41600000000000004 -0.395 Q 0.427 -0.377 0.427 -0.356 Q 0.427 -0.312 0.392 -0.296 Q 0.382 -0.292 0.371 -0.292 Q 0.341 -0.292 0.335 -0.318 Q 0.334 -0.322 0.334 -0.327 Q 0.334 -0.34900000000000003 0.352 -0.366 Q 0.366 -0.38 0.396 -0.38 Z"/></g><g transform="translate(14.17349674074074,20.654629074074073) scale(0.7,0.7)"><path fill="rgb(0,0,0)" stroke="none" paint-order="stroke fill markers" d=" M 0.294 -0.64 L 0.294 -0.079 Q 0.294 -0.049 0.306 -0.041 Q 0.323 -0.031 0.387 -0.031 L 0.419 -0.031 L 0.419 0 Q 0.384 -0.003 0.257 -0.003 Q 0.13 -0.003 0.095 0 L 0.095 -0.031 L 0.127 -0.031 Q 0.20400000000000001 -0.031 0.215 -0.049 L 0.216 -0.05 Q 0.22 -0.058 0.22 -0.079 L 0.22 -0.597 Q 0.168 -0.5710000000000001 0.089 -0.5710000000000001 L 0.089 -0.602 Q 0.209 -0.602 0.271 -0.666 Q 0.29 -0.666 0.293 -0.659 L 0.293 -0.659 L 0.293 -0.658 Q 0.294 -0.655 0.294 -0.64 Z"/></g></g><g transform="scale(27,27)"><g transform="translate(30.925925925925927,20.208332777777777)"><path fill="rgb(0,0,0)" stroke="none" paint-order="stroke fill markers" d=" M 0.396 -0.38 L 0.396 -0.38 Q 0.368 -0.41600000000000004 0.31 -0.42 Q 0.245 -0.42 0.192 -0.354 Q 0.179 -0.338 0.169 -0.32 Q 0.129 -0.247 0.117 -0.148 Q 0.115 -0.132 0.115 -0.12 Q 0.115 -0.038 0.171 -0.017 Q 0.185 -0.011 0.20500000000000002 -0.011 Q 0.295 -0.011 0.367 -0.07100000000000001 Q 0.388 -0.088 0.405 -0.11 Q 0.41200000000000003 -0.12 0.418 -0.12 Q 0.427 -0.12 0.43 -0.107 Q 0.43 -0.096 0.396 -0.064 Q 0.313 0.011 0.203 0.011 Q 0.108 0.011 0.065 -0.065 Q 0.041 -0.106 0.041 -0.158 Q 0.041 -0.26 0.11900000000000001 -0.34700000000000003 Q 0.196 -0.433 0.291 -0.441 Q 0.3 -0.442 0.309 -0.442 Q 0.386 -0.442 0.41600000000000004 -0.395 Q 0.427 -0.377 0.427 -0.356 Q 0.427 -0.312 0.392 -0.296 Q 0.382 -0.292 0.371 -0.292 Q 0.341 -0.292 0.335 -0.318 Q 0.334 -0.322 0.334 -0.327 Q 0.334 -0.34900000000000003 0.352 -0.366 Q 0.366 -0.38 0.396 -0.38 Z"/></g><g transform="translate(31.35868192592593,20.358332777777775) scale(0.7,0.7)"><path fill="rgb(0,0,0)" stroke="none" paint-order="stroke fill markers" d=" M 0.449 -0.17400000000000002 L 0.449 -0.17400000000000002 L 0.421 0 L 0.05 0 Q 0.05 -0.025 0.056 -0.032 L 0.061 -0.037 L 0.253 -0.251 Q 0.358 -0.369 0.358 -0.47200000000000003 Q 0.358 -0.561 0.304 -0.607 L 0.303 -0.608 L 0.302 -0.608 Q 0.27 -0.635 0.224 -0.635 Q 0.152 -0.635 0.109 -0.5730000000000001 Q 0.097 -0.555 0.089 -0.533 Q 0.092 -0.534 0.10200000000000001 -0.534 Q 0.14200000000000002 -0.534 0.153 -0.498 L 0.153 -0.497 Q 0.155 -0.49 0.155 -0.482 Q 0.155 -0.442 0.117 -0.431 Q 0.109 -0.429 0.10300000000000001 -0.429 Q 0.066 -0.429 0.054 -0.46 Q 0.05 -0.47100000000000003 0.05 -0.485 Q 0.05 -0.562 0.109 -0.617 Q 0.162 -0.666 0.23700000000000002 -0.666 Q 0.34700000000000003 -0.666 0.40800000000000003 -0.592 Q 0.443 -0.549 0.448 -0.49 Q 0.449 -0.481 0.449 -0.47200000000000003 Q 0.449 -0.399 0.394 -0.333 Q 0.365 -0.299 0.304 -0.243 L 0.243 -0.189 L 0.233 -0.18 L 0.127 -0.077 L 0.307 -0.077 Q 0.395 -0.077 0.402 -0.085 Q 0.41200000000000003 -0.099 0.424 -0.17400000000000002 L 0.449 -0.17400000000000002 Z"/></g></g></g></g></svg>