<svg version="1.1" xmlns="http://www.w3.org/2000/svg" xmlns:xlink="http://www.w3.org/1999/xlink" width="1310" height="605"><defs><clipPath id="AAJESblAubTm"><path fill="none" stroke="none" d=" M 0 0 L 1310 0 L 1310 605 L 0 605 L 0 0 Z"/></clipPath></defs><g transform="scale(1,1)" clip-path="url(#AAJESblAubTm)"><g><rect fill="rgb(255,255,255)" stroke="none" x="0" y="0" width="1310" height="605" fill-opacity="1"/><path fill="none" stroke="rgb(0,0,0)" paint-order="fill stroke markers" d=" M 222.25465838509322 -5 L 1215.4223602484467 610" stroke-opacity="0.6980392156862745" stroke-linecap="round" stroke-linejoin="round" stroke-miterlimit="10" stroke-width="2.5"/><path fill="none" stroke="rgb(0,0,0)" paint-order="fill stroke markers" d=" M -5 367.00000000000006 L 1315 367.00000000000006" stroke-opacity="0.6980392156862745" stroke-linecap="round" stroke-linejoin="round" stroke-miterlimit="10" stroke-width="2.5"/><path fill="none" stroke="rgb(0,0,0)" paint-order="fill stroke markers" d=" M 470.15527950310553 610 L 611.4906832298135 -5" stroke-opacity="0.6980392156862745" stroke-linecap="round" stroke-linejoin="round" stroke-miterlimit="10" stroke-width="2.5"/><path fill="none" stroke="rgb(0,0,0)" paint-order="fill stroke markers" d=" M 303.0000000000001 45 L 489 528.0000000000001" stroke-opacity="0.6980392156862745" stroke-linecap="round" stroke-linejoin="round" stroke-miterlimit="10" stroke-width="2.5"/><path fill="none" stroke="rgb(0,0,0)" paint-order="fill stroke markers" d=" M 303.0000000000001 45 L 1119.9999999999995 367.00000000000006" stroke-opacity="0.6980392156862745" stroke-linecap="round" stroke-linejoin="round" stroke-miterlimit="10" stroke-width="2.5"/><path fill="none" stroke="rgb(0,0,0)" paint-order="fill stroke markers" d=" M 1119.9999999999995 367.00000000000006 L 489 528.0000000000001" stroke-opacity="0.6980392156862745" stroke-linecap="round" stroke-linejoin="round" stroke-miterlimit="10" stroke-width="2.5"/><path fill="none" stroke="rgb(0,0,0)" paint-order="fill stroke markers" d=" M 303.0000000000001 45 L 526 367.00000000000006" stroke-opacity="0.6980392156862745" stroke-linejoin="round" stroke-miterlimit="10" stroke-width="2.5" stroke-dasharray="10.5,8"/><path fill="none" stroke="rgb(0,0,0)" paint-order="fill stroke markers" d=" M 489 528.0000000000001 L 822.9999999999997 367.00000000000006" stroke-opacity="0.6980392156862745" stroke-linejoin="round" stroke-miterlimit="10" stroke-width="2.5" stroke-dasharray="10.5,8"/><path fill="none" stroke="rgb(0,0,0)" paint-order="fill stroke markers" d=" M 562.9999999999999 206.00000000000006 L 1119.9999999999995 367.00000000000006" stroke-opacity="0.6980392156862745" stroke-linejoin="round" stroke-miterlimit="10" stroke-width="2.5" stroke-dasharray="10.5,8"/><path fill="rgb(21,101,192)" stroke="none" paint-order="stroke fill markers" d=" M 567.9999999999999 206.00000000000006 C 567.9999999999999 208.76142374915403 565.7614237491539 211.00000000000006 562.9999999999999 211.00000000000006 C 560.2385762508459 211.00000000000006 557.9999999999999 208.76142374915403 557.9999999999999 206.00000000000006 C 557.9999999999999 203.23857625084608 560.2385762508459 201.00000000000006 562.9999999999999 201.00000000000006 C 565.7614237491539 201.00000000000006 567.9999999999999 203.23857625084608 567.9999999999999 206.00000000000006 Z" fill-opacity="1"/><path fill="none" stroke="rgb(0,0,0)" paint-order="fill stroke markers" d=" M 567.9999999999999 206.00000000000006 C 567.9999999999999 208.76142374915403 565.7614237491539 211.00000000000006 562.9999999999999 211.00000000000006 C 560.2385762508459 211.00000000000006 557.9999999999999 208.76142374915403 557.9999999999999 206.00000000000006 C 557.9999999999999 203.23857625084608 560.2385762508459 201.00000000000006 562.9999999999999 201.00000000000006 C 565.7614237491539 201.00000000000006 567.9999999999999 203.23857625084608 567.9999999999999 206.00000000000006 Z" stroke-opacity="1" stroke-linecap="round" stroke-linejoin="round" stroke-miterlimit="10"/><text fill="rgb(21,101,192)" stroke="none" font-family="geogebra-sans-serif, sans-serif" font-size="24px" font-style="normal" font-weight="normal" text-decoration="normal" x="580" y="198" text-anchor="start" dominant-baseline="alphabetic" fill-opacity="1">P</text><text fill="none" stroke="rgb(255,255,255)" font-family="geogebra-sans-serif, sans-serif" font-size="24px" font-style="normal" font-weight="normal" text-decoration="normal" x="580" y="198" text-anchor="start" dominant-baseline="alphabetic" stroke-opacity="1" stroke-linejoin="bevel" stroke-miterlimit="10" stroke-width="3">P</text><text fill="rgb(21,101,192)" stroke="none" font-family="geogebra-sans-serif, sans-serif" font-size="24px" font-style="normal" font-weight="normal" text-decoration="normal" x="580" y="198" text-anchor="start" dominant-baseline="alphabetic" fill-opacity="1">P</text><path fill="rgb(21,101,192)" stroke="none" paint-order="stroke fill markers" d=" M 531 367.00000000000006 C 531 369.761423749154 528.761423749154 372.00000000000006 526 372.00000000000006 C 523.238576250846 372.00000000000006 521 369.761423749154 521 367.00000000000006 C 521 364.2385762508461 523.238576250846 362.00000000000006 526 362.00000000000006 C 528.761423749154 362.00000000000006 531 364.2385762508461 531 367.00000000000006 Z" fill-opacity="1"/><path fill="none" stroke="rgb(0,0,0)" paint-order="fill stroke markers" d=" M 531 367.00000000000006 C 531 369.761423749154 528.761423749154 372.00000000000006 526 372.00000000000006 C 523.238576250846 372.00000000000006 521 369.761423749154 521 367.00000000000006 C 521 364.2385762508461 523.238576250846 362.00000000000006 526 362.00000000000006 C 528.761423749154 362.00000000000006 531 364.2385762508461 531 367.00000000000006 Z" stroke-opacity="1" stroke-linecap="round" stroke-linejoin="round" stroke-miterlimit="10"/><text fill="rgb(21,101,192)" stroke="none" font-family="geogebra-sans-serif, sans-serif" font-size="24px" font-style="normal" font-weight="normal" text-decoration="normal" x="489" y="394" text-anchor="start" dominant-baseline="alphabetic" fill-opacity="1">Q</text><text fill="none" stroke="rgb(255,255,255)" font-family="geogebra-sans-serif, sans-serif" font-size="24px" font-style="normal" font-weight="normal" text-decoration="normal" x="489" y="394" text-anchor="start" dominant-baseline="alphabetic" stroke-opacity="1" stroke-linejoin="bevel" stroke-miterlimit="10" stroke-width="3">Q</text><text fill="rgb(21,101,192)" stroke="none" font-family="geogebra-sans-serif, sans-serif" font-size="24px" font-style="normal" font-weight="normal" text-decoration="normal" x="489" y="394" text-anchor="start" dominant-baseline="alphabetic" fill-opacity="1">Q</text><path fill="rgb(21,101,192)" stroke="none" paint-order="stroke fill markers" d=" M 827.9999999999997 367.00000000000006 C 827.9999999999997 369.761423749154 825.7614237491537 372.00000000000006 822.9999999999997 372.00000000000006 C 820.2385762508457 372.00000000000006 817.9999999999997 369.761423749154 817.9999999999997 367.00000000000006 C 817.9999999999997 364.2385762508461 820.2385762508457 362.00000000000006 822.9999999999997 362.00000000000006 C 825.7614237491537 362.00000000000006 827.9999999999997 364.2385762508461 827.9999999999997 367.00000000000006 Z" fill-opacity="1"/><path fill="none" stroke="rgb(0,0,0)" paint-order="fill stroke markers" d=" M 827.9999999999997 367.00000000000006 C 827.9999999999997 369.761423749154 825.7614237491537 372.00000000000006 822.9999999999997 372.00000000000006 C 820.2385762508457 372.00000000000006 817.9999999999997 369.761423749154 817.9999999999997 367.00000000000006 C 817.9999999999997 364.2385762508461 820.2385762508457 362.00000000000006 822.9999999999997 362.00000000000006 C 825.7614237491537 362.00000000000006 827.9999999999997 364.2385762508461 827.9999999999997 367.00000000000006 Z" stroke-opacity="1" stroke-linecap="round" stroke-linejoin="round" stroke-miterlimit="10"/><text fill="rgb(21,101,192)" stroke="none" font-family="geogebra-sans-serif, sans-serif" font-size="24px" font-style="normal" font-weight="normal" text-decoration="normal" x="813" y="394" text-anchor="start" dominant-baseline="alphabetic" fill-opacity="1">R</text><text fill="none" stroke="rgb(255,255,255)" font-family="geogebra-sans-serif, sans-serif" font-size="24px" font-style="normal" font-weight="normal" text-decoration="normal" x="813" y="394" text-anchor="start" dominant-baseline="alphabetic" stroke-opacity="1" stroke-linejoin="bevel" stroke-miterlimit="10" stroke-width="3">R</text><text fill="rgb(21,101,192)" stroke="none" font-family="geogebra-sans-serif, sans-serif" font-size="24px" font-style="normal" font-weight="normal" text-decoration="normal" x="813" y="394" text-anchor="start" dominant-baseline="alphabetic" fill-opacity="1">R</text><path fill="rgb(46,125,50)" stroke="none" paint-order="stroke fill markers" d=" M 1124.9999999999995 367.00000000000006 C 1124.9999999999995 369.761423749154 1122.7614237491534 372.00000000000006 1119.9999999999995 372.00000000000006 C 1117.2385762508457 372.00000000000006 1114.9999999999995 369.761423749154 1114.9999999999995 367.00000000000006 C 1114.9999999999995 364.2385762508461 1117.2385762508457 362.00000000000006 1119.9999999999995 362.00000000000006 C 1122.7614237491534 362.00000000000006 1124.9999999999995 364.2385762508461 1124.9999999999995 367.00000000000006 Z" fill-opacity="1"/><path fill="none" stroke="rgb(0,0,0)" paint-order="fill stroke markers" d=" M 1124.9999999999995 367.00000000000006 C 1124.9999999999995 369.761423749154 1122.7614237491534 372.00000000000006 1119.9999999999995 372.00000000000006 C 1117.2385762508457 372.00000000000006 1114.9999999999995 369.761423749154 1114.9999999999995 367.00000000000006 C 1114.9999999999995 364.2385762508461 1117.2385762508457 362.00000000000006 1119.9999999999995 362.00000000000006 C 1122.7614237491534 362.00000000000006 1124.9999999999995 364.2385762508461 1124.9999999999995 367.00000000000006 Z" stroke-opacity="1" stroke-linecap="round" stroke-linejoin="round" stroke-miterlimit="10"/><text fill="rgb(46,125,50)" stroke="none" font-family="geogebra-sans-serif, sans-serif" font-size="24px" font-style="normal" font-weight="normal" text-decoration="normal" x="1129" y="395" text-anchor="start" dominant-baseline="alphabetic" fill-opacity="1">X</text><text fill="none" stroke="rgb(255,255,255)" font-family="geogebra-sans-serif, sans-serif" font-size="24px" font-style="normal" font-weight="normal" text-decoration="normal" x="1129" y="395" text-anchor="start" dominant-baseline="alphabetic" stroke-opacity="1" stroke-linejoin="bevel" stroke-miterlimit="10" stroke-width="3">X</text><text fill="rgb(46,125,50)" stroke="none" font-family="geogebra-sans-serif, sans-serif" font-size="24px" font-style="normal" font-weight="normal" text-decoration="normal" x="1129" y="395" text-anchor="start" dominant-baseline="alphabetic" fill-opacity="1">X</text><path fill="rgb(46,125,50)" stroke="none" paint-order="stroke fill markers" d=" M 308.0000000000001 45 C 308.0000000000001 47.76142374915396 305.76142374915406 50 303.0000000000001 50 C 300.23857625084617 50 298.0000000000001 47.76142374915396 298.0000000000001 45 C 298.0000000000001 42.23857625084603 300.23857625084617 40 303.0000000000001 40 C 305.76142374915406 40 308.0000000000001 42.23857625084603 308.0000000000001 45 Z" fill-opacity="1"/><path fill="none" stroke="rgb(0,0,0)" paint-order="fill stroke markers" d=" M 308.0000000000001 45 C 308.0000000000001 47.76142374915396 305.76142374915406 50 303.0000000000001 50 C 300.23857625084617 50 298.0000000000001 47.76142374915396 298.0000000000001 45 C 298.0000000000001 42.23857625084603 300.23857625084617 40 303.0000000000001 40 C 305.76142374915406 40 308.0000000000001 42.23857625084603 308.0000000000001 45 Z" stroke-opacity="1" stroke-linecap="round" stroke-linejoin="round" stroke-miterlimit="10"/><text fill="rgb(46,125,50)" stroke="none" font-family="geogebra-sans-serif, sans-serif" font-size="24px" font-style="normal" font-weight="normal" text-decoration="normal" x="272" y="65" text-anchor="start" dominant-baseline="alphabetic" fill-opacity="1">Y</text><text fill="none" stroke="rgb(255,255,255)" font-family="geogebra-sans-serif, sans-serif" font-size="24px" font-style="normal" font-weight="normal" text-decoration="normal" x="272" y="65" text-anchor="start" dominant-baseline="alphabetic" stroke-opacity="1" stroke-linejoin="bevel" stroke-miterlimit="10" stroke-width="3">Y</text><text fill="rgb(46,125,50)" stroke="none" font-family="geogebra-sans-serif, sans-serif" font-size="24px" font-style="normal" font-weight="normal" text-decoration="normal" x="272" y="65" text-anchor="start" dominant-baseline="alphabetic" fill-opacity="1">Y</text><path fill="rgb(46,125,50)" stroke="none" paint-order="stroke fill markers" d=" M 494 528.0000000000001 C 494 530.7614237491541 491.76142374915395 533.0000000000001 489 533.0000000000001 C 486.23857625084605 533.0000000000001 484 530.7614237491541 484 528.0000000000001 C 484 525.2385762508461 486.23857625084605 523.0000000000001 489 523.0000000000001 C 491.76142374915395 523.0000000000001 494 525.2385762508461 494 528.0000000000001 Z" fill-opacity="1"/><path fill="none" stroke="rgb(0,0,0)" paint-order="fill stroke markers" d=" M 494 528.0000000000001 C 494 530.7614237491541 491.76142374915395 533.0000000000001 489 533.0000000000001 C 486.23857625084605 533.0000000000001 484 530.7614237491541 484 528.0000000000001 C 484 525.2385762508461 486.23857625084605 523.0000000000001 489 523.0000000000001 C 491.76142374915395 523.0000000000001 494 525.2385762508461 494 528.0000000000001 Z" stroke-opacity="1" stroke-linecap="round" stroke-linejoin="round" stroke-miterlimit="10"/><text fill="rgb(46,125,50)" stroke="none" font-family="geogebra-sans-serif, sans-serif" font-size="24px" font-style="normal" font-weight="normal" text-decoration="normal" x="450" y="548" text-anchor="start" dominant-baseline="alphabetic" fill-opacity="1">Z</text><text fill="none" stroke="rgb(255,255,255)" font-family="geogebra-sans-serif, sans-serif" font-size="24px" font-style="normal" font-weight="normal" text-decoration="normal" x="450" y="548" text-anchor="start" dominant-baseline="alphabetic" stroke-opacity="1" stroke-linejoin="bevel" stroke-miterlimit="10" stroke-width="3">Z</text><text fill="rgb(46,125,50)" stroke="none" font-family="geogebra-sans-serif, sans-serif" font-size="24px" font-style="normal" font-weight="normal" text-decoration="normal" x="450" y="548" text-anchor="start" dominant-baseline="alphabetic" fill-opacity="1">Z</text></g></g></svg>