<svg version="1.1" xmlns="http://www.w3.org/2000/svg" xmlns:xlink="http://www.w3.org/1999/xlink" width="1310" height="704"><defs><clipPath id="XqmyWUvwNOyr"><path fill="none" stroke="none" d=" M 0 0 L 1310 0 L 1310 704 L 0 704 L 0 0 Z"/></clipPath></defs><g transform="scale(1,1)" clip-path="url(#XqmyWUvwNOyr)"><g><rect fill="rgb(255,255,255)" stroke="none" x="0" y="0" width="1310" height="704" fill-opacity="1"/><path fill="none" stroke="rgb(0,0,0)" paint-order="fill stroke markers" d=" M 1138.396467550492 575.8579235971458 C 1138.396467550492 308.1758412710007 921.3972647095994 91.17663843010763 653.715182383455 91.17663843010763 C 386.0331000573108 91.17663843010763 169.03389721641827 308.17584127100065 169.0338972164182 575.8579235971457" stroke-opacity="0.6980392156862745" stroke-linecap="round" stroke-linejoin="round" stroke-miterlimit="10" stroke-width="2.5"/><path fill="none" stroke="rgb(0,0,0)" paint-order="fill stroke markers" d=" M 653.715182383455 575.8579235971458 C 653.715182383455 442.0168824340733 545.2155809630088 333.51728101362676 411.37453979993666 333.51728101362676 C 277.5334986368645 333.51728101362676 169.03389721641827 442.01688243407324 169.03389721641824 575.8579235971458" stroke-opacity="0.6980392156862745" stroke-linecap="round" stroke-linejoin="round" stroke-miterlimit="10" stroke-width="2.5"/><path fill="none" stroke="rgb(0,0,0)" paint-order="fill stroke markers" d=" M 1138.396467550492 575.8579235971458 C 1138.396467550492 442.0168824340733 1029.8968661300455 333.51728101362676 896.0558249669734 333.51728101362676 C 762.2147838039014 333.51728101362676 653.715182383455 442.01688243407324 653.715182383455 575.8579235971458" stroke-opacity="0.6980392156862745" stroke-linecap="round" stroke-linejoin="round" stroke-miterlimit="10" stroke-width="2.5"/><path fill="none" stroke="rgb(0,0,0)" paint-order="fill stroke markers" d=" M 814.0629976765435 252.73251604129484 C 814.0629976765435 341.9598768166765 741.7299300629127 414.29294443030756 652.5025692875313 414.29294443030756 C 563.2752085121499 414.29294443030756 490.942140898519 341.9598768166765 490.942140898519 252.73251604129484 C 490.942140898519 163.50515526591317 563.2752085121499 91.17208765228213 652.5025692875313 91.17208765228213 C 741.7299300629127 91.17208765228213 814.0629976765435 163.50515526591317 814.0629976765435 252.73251604129484 Z" stroke-opacity="0.6980392156862745" stroke-linecap="round" stroke-linejoin="round" stroke-miterlimit="10" stroke-width="2.5"/><path fill="none" stroke="rgb(0,0,0)" paint-order="fill stroke markers" d=" M 653.715182383455 709 L 653.715182383455 -5" stroke-opacity="0.6980392156862745" stroke-linejoin="round" stroke-miterlimit="10" stroke-width="2.5" stroke-dasharray="10.5,8"/><path fill="none" stroke="rgb(0,0,0)" paint-order="fill stroke markers" d=" M 169.0338972164182 575.8579235971458 L 653.715182383455 575.8579235971458" stroke-opacity="0.6980392156862745" stroke-linecap="round" stroke-linejoin="round" stroke-miterlimit="10" stroke-width="2.5"/><path fill="none" stroke="rgb(0,0,0)" paint-order="fill stroke markers" d=" M 653.715182383455 575.8579235971458 L 1138.396467550492 575.8579235971458" stroke-opacity="0.6980392156862745" stroke-linecap="round" stroke-linejoin="round" stroke-miterlimit="10" stroke-width="2.5"/><path fill="none" stroke="rgb(0,0,0)" paint-order="fill stroke markers" d=" M 652.5025692875313 252.73251604129484 L 411.37453979993666 575.8579235971458" stroke-opacity="0.6980392156862745" stroke-linejoin="round" stroke-miterlimit="10" stroke-width="2.5" stroke-dasharray="10.5,8"/><path fill="none" stroke="rgb(0,0,0)" paint-order="fill stroke markers" d=" M 652.5025692875313 252.73251604129484 L 896.0558249669734 575.8579235971458" stroke-opacity="0.6980392156862745" stroke-linejoin="round" stroke-miterlimit="10" stroke-width="2.5" stroke-dasharray="10.5,8"/><path fill="rgb(21,101,192)" stroke="none" paint-order="stroke fill markers" d=" M 174.0338972164182 575.8579235971458 C 174.0338972164182 578.6193473462998 171.7953209655722 580.8579235971458 169.0338972164182 580.8579235971458 C 166.27247346726423 580.8579235971458 164.0338972164182 578.6193473462998 164.0338972164182 575.8579235971458 C 164.0338972164182 573.0964998479918 166.27247346726423 570.8579235971458 169.0338972164182 570.8579235971458 C 171.7953209655722 570.8579235971458 174.0338972164182 573.0964998479918 174.0338972164182 575.8579235971458 Z" fill-opacity="1"/><path fill="none" stroke="rgb(0,0,0)" paint-order="fill stroke markers" d=" M 174.0338972164182 575.8579235971458 C 174.0338972164182 578.6193473462998 171.7953209655722 580.8579235971458 169.0338972164182 580.8579235971458 C 166.27247346726423 580.8579235971458 164.0338972164182 578.6193473462998 164.0338972164182 575.8579235971458 C 164.0338972164182 573.0964998479918 166.27247346726423 570.8579235971458 169.0338972164182 570.8579235971458 C 171.7953209655722 570.8579235971458 174.0338972164182 573.0964998479918 174.0338972164182 575.8579235971458 Z" stroke-opacity="1" stroke-linecap="round" stroke-linejoin="round" stroke-miterlimit="10"/><path fill="rgb(21,101,192)" stroke="none" paint-order="stroke fill markers" d=" M 1143.396467550492 575.8579235971458 C 1143.396467550492 578.6193473462998 1141.1578912996458 580.8579235971458 1138.396467550492 580.8579235971458 C 1135.635043801338 580.8579235971458 1133.396467550492 578.6193473462998 1133.396467550492 575.8579235971458 C 1133.396467550492 573.0964998479918 1135.635043801338 570.8579235971458 1138.396467550492 570.8579235971458 C 1141.1578912996458 570.8579235971458 1143.396467550492 573.0964998479918 1143.396467550492 575.8579235971458 Z" fill-opacity="1"/><path fill="none" stroke="rgb(0,0,0)" paint-order="fill stroke markers" d=" M 1143.396467550492 575.8579235971458 C 1143.396467550492 578.6193473462998 1141.1578912996458 580.8579235971458 1138.396467550492 580.8579235971458 C 1135.635043801338 580.8579235971458 1133.396467550492 578.6193473462998 1133.396467550492 575.8579235971458 C 1133.396467550492 573.0964998479918 1135.635043801338 570.8579235971458 1138.396467550492 570.8579235971458 C 1141.1578912996458 570.8579235971458 1143.396467550492 573.0964998479918 1143.396467550492 575.8579235971458 Z" stroke-opacity="1" stroke-linecap="round" stroke-linejoin="round" stroke-miterlimit="10"/><path fill="rgb(211,47,47)" stroke="none" paint-order="stroke fill markers" d=" M 658.715182383455 575.8579235971458 C 658.715182383455 578.6193473462998 656.476606132609 580.8579235971458 653.715182383455 580.8579235971458 C 650.953758634301 580.8579235971458 648.715182383455 578.6193473462998 648.715182383455 575.8579235971458 C 648.715182383455 573.0964998479918 650.953758634301 570.8579235971458 653.715182383455 570.8579235971458 C 656.476606132609 570.8579235971458 658.715182383455 573.0964998479918 658.715182383455 575.8579235971458 Z" fill-opacity="1"/><path fill="none" stroke="rgb(0,0,0)" paint-order="fill stroke markers" d=" M 658.715182383455 575.8579235971458 C 658.715182383455 578.6193473462998 656.476606132609 580.8579235971458 653.715182383455 580.8579235971458 C 650.953758634301 580.8579235971458 648.715182383455 578.6193473462998 648.715182383455 575.8579235971458 C 648.715182383455 573.0964998479918 650.953758634301 570.8579235971458 653.715182383455 570.8579235971458 C 656.476606132609 570.8579235971458 658.715182383455 573.0964998479918 658.715182383455 575.8579235971458 Z" stroke-opacity="1" stroke-linecap="round" stroke-linejoin="round" stroke-miterlimit="10"/><g transform="scale(27,27)"><g transform="translate(24.444444444444443,22.27592459259259)"><path fill="rgb(211,47,47)" stroke="none" paint-order="stroke fill markers" d=" M 0.74 -0.436 L 0.74 -0.436 Q 0.74 -0.281 0.63 -0.149 Q 0.531 -0.029 0.398 0.009000000000000001 Q 0.35100000000000003 0.022 0.305 0.022 Q 0.18 0.022 0.108 -0.066 Q 0.049 -0.138 0.049 -0.245 Q 0.049 -0.395 0.156 -0.529 Q 0.255 -0.65 0.388 -0.6900000000000001 Q 0.437 -0.705 0.485 -0.705 Q 0.612 -0.705 0.684 -0.613 Q 0.74 -0.541 0.74 -0.436 M 0.311 -0.004 L 0.311 -0.004 Q 0.405 -0.004 0.492 -0.088 Q 0.51 -0.105 0.525 -0.124 Q 0.623 -0.246 0.646 -0.41500000000000004 Q 0.651 -0.448 0.651 -0.47500000000000003 Q 0.651 -0.612 0.559 -0.661 Q 0.558 -0.661 0.557 -0.662 Q 0.521 -0.68 0.47900000000000004 -0.68 Q 0.385 -0.68 0.297 -0.599 Q 0.261 -0.5670000000000001 0.233 -0.524 Q 0.157 -0.40900000000000003 0.14400000000000002 -0.249 Q 0.14200000000000002 -0.231 0.14200000000000002 -0.217 Q 0.14200000000000002 -0.089 0.219 -0.033 Q 0.259 -0.004 0.311 -0.004 Z"/></g></g><path fill="rgb(46,125,50)" stroke="none" paint-order="stroke fill markers" d=" M 658.715182383455 91.17663843010763 C 658.715182383455 93.93806217926159 656.476606132609 96.17663843010763 653.715182383455 96.17663843010763 C 650.953758634301 96.17663843010763 648.715182383455 93.93806217926159 648.715182383455 91.17663843010763 C 648.715182383455 88.41521468095367 650.953758634301 86.17663843010763 653.715182383455 86.17663843010763 C 656.476606132609 86.17663843010763 658.715182383455 88.41521468095367 658.715182383455 91.17663843010763 Z" fill-opacity="1"/><path fill="none" stroke="rgb(0,0,0)" paint-order="fill stroke markers" d=" M 658.715182383455 91.17663843010763 C 658.715182383455 93.93806217926159 656.476606132609 96.17663843010763 653.715182383455 96.17663843010763 C 650.953758634301 96.17663843010763 648.715182383455 93.93806217926159 648.715182383455 91.17663843010763 C 648.715182383455 88.41521468095367 650.953758634301 86.17663843010763 653.715182383455 86.17663843010763 C 656.476606132609 86.17663843010763 658.715182383455 88.41521468095367 658.715182383455 91.17663843010763 Z" stroke-opacity="1" stroke-linecap="round" stroke-linejoin="round" stroke-miterlimit="10"/><g transform="scale(27,27)"><g transform="translate(24.555555555555557,2.6092579259259256)"><path fill="rgb(46,125,50)" stroke="none" paint-order="stroke fill markers" d=" M 0.303 -0.316 L 0.303 -0.316 L 0.241 -0.066 L 0.23800000000000002 -0.049 Q 0.23800000000000002 -0.032 0.28400000000000003 -0.031 L 0.28400000000000003 -0.031 L 0.28400000000000003 -0.031 L 0.303 -0.031 Q 0.329 -0.031 0.331 -0.02 Q 0.331 0 0.311 0 L 0.247 -0.002 L 0.246 -0.002 L 0.184 -0.003 L 0.182 -0.003 L 0.056 0 L 0.055 0 Q 0.04 0 0.04 -0.012 Q 0.04 -0.029 0.056 -0.031 L 0.068 -0.031 Q 0.133 -0.031 0.146 -0.045 Q 0.152 -0.052000000000000005 0.158 -0.073 Q 0.158 -0.074 0.159 -0.078 L 0.293 -0.615 Q 0.297 -0.631 0.297 -0.634 Q 0.297 -0.646 0.281 -0.649 L 0.28 -0.649 L 0.28 -0.649 Q 0.278 -0.65 0.275 -0.65 Q 0.251 -0.652 0.232 -0.652 Q 0.20600000000000002 -0.652 0.20400000000000001 -0.66 Q 0.203 -0.662 0.203 -0.664 Q 0.203 -0.681 0.22 -0.683 L 0.22 -0.683 L 0.233 -0.683 L 0.557 -0.683 Q 0.678 -0.683 0.73 -0.609 Q 0.754 -0.5740000000000001 0.754 -0.532 Q 0.754 -0.451 0.671 -0.385 Q 0.583 -0.316 0.47300000000000003 -0.316 L 0.303 -0.316 M 0.375 -0.614 L 0.307 -0.342 L 0.448 -0.342 Q 0.543 -0.342 0.602 -0.395 Q 0.643 -0.433 0.658 -0.522 L 0.658 -0.523 Q 0.661 -0.542 0.661 -0.556 Q 0.661 -0.652 0.525 -0.652 L 0.429 -0.652 Q 0.393 -0.652 0.385 -0.642 L 0.385 -0.642 L 0.385 -0.641 L 0.384 -0.641 L 0.384 -0.64 Q 0.38 -0.634 0.375 -0.614 Z"/></g></g><path fill="rgb(211,47,47)" stroke="none" paint-order="stroke fill markers" d=" M 657.5025692875313 252.73251604129484 C 657.5025692875313 255.49393979044882 655.2639930366853 257.73251604129484 652.5025692875313 257.73251604129484 C 649.7411455383773 257.73251604129484 647.5025692875313 255.49393979044882 647.5025692875313 252.73251604129484 C 647.5025692875313 249.97109229214087 649.7411455383773 247.73251604129484 652.5025692875313 247.73251604129484 C 655.2639930366853 247.73251604129484 657.5025692875313 249.97109229214087 657.5025692875313 252.73251604129484 Z" fill-opacity="1"/><path fill="none" stroke="rgb(0,0,0)" paint-order="fill stroke markers" d=" M 657.5025692875313 252.73251604129484 C 657.5025692875313 255.49393979044882 655.2639930366853 257.73251604129484 652.5025692875313 257.73251604129484 C 649.7411455383773 257.73251604129484 647.5025692875313 255.49393979044882 647.5025692875313 252.73251604129484 C 647.5025692875313 249.97109229214087 649.7411455383773 247.73251604129484 652.5025692875313 247.73251604129484 C 655.2639930366853 247.73251604129484 657.5025692875313 249.97109229214087 657.5025692875313 252.73251604129484 Z" stroke-opacity="1" stroke-linecap="round" stroke-linejoin="round" stroke-miterlimit="10"/><g transform="scale(27,27)"><g transform="translate(24.51851851851852,8.609257925925926)"><path fill="rgb(211,47,47)" stroke="none" paint-order="stroke fill markers" d=" M 0.74 -0.436 L 0.74 -0.436 Q 0.74 -0.281 0.63 -0.149 Q 0.531 -0.029 0.398 0.009000000000000001 Q 0.35100000000000003 0.022 0.305 0.022 Q 0.18 0.022 0.108 -0.066 Q 0.049 -0.138 0.049 -0.245 Q 0.049 -0.395 0.156 -0.529 Q 0.255 -0.65 0.388 -0.6900000000000001 Q 0.437 -0.705 0.485 -0.705 Q 0.612 -0.705 0.684 -0.613 Q 0.74 -0.541 0.74 -0.436 M 0.311 -0.004 L 0.311 -0.004 Q 0.405 -0.004 0.492 -0.088 Q 0.51 -0.105 0.525 -0.124 Q 0.623 -0.246 0.646 -0.41500000000000004 Q 0.651 -0.448 0.651 -0.47500000000000003 Q 0.651 -0.612 0.559 -0.661 Q 0.558 -0.661 0.557 -0.662 Q 0.521 -0.68 0.47900000000000004 -0.68 Q 0.385 -0.68 0.297 -0.599 Q 0.261 -0.5670000000000001 0.233 -0.524 Q 0.157 -0.40900000000000003 0.14400000000000002 -0.249 Q 0.14200000000000002 -0.231 0.14200000000000002 -0.217 Q 0.14200000000000002 -0.089 0.219 -0.033 Q 0.259 -0.004 0.311 -0.004 Z"/></g><g transform="translate(25.281294518518518,8.759257925925926) scale(0.7,0.7)"><path fill="rgb(211,47,47)" stroke="none" paint-order="stroke fill markers" d=" M 0.20600000000000002 -0.4 L 0.132 -0.105 Q 0.126 -0.08 0.126 -0.057 Q 0.126 -0.011 0.157 -0.011 Q 0.223 -0.011 0.273 -0.108 L 0.28700000000000003 -0.139 Q 0.293 -0.152 0.302 -0.153 Q 0.314 -0.153 0.314 -0.14300000000000002 Q 0.314 -0.13 0.28800000000000003 -0.08600000000000001 Q 0.23 0.011 0.155 0.011 Q 0.097 0.011 0.073 -0.037 Q 0.063 -0.057 0.063 -0.081 Q 0.063 -0.1 0.124 -0.34 L 0.139 -0.4 L 0.051000000000000004 -0.4 Q 0.026000000000000002 -0.4 0.024 -0.40800000000000003 L 0.023 -0.40800000000000003 L 0.023 -0.41200000000000003 Q 0.023 -0.429 0.039 -0.431 L 0.053 -0.431 L 0.147 -0.431 L 0.186 -0.59 Q 0.195 -0.625 0.226 -0.626 Q 0.252 -0.626 0.255 -0.599 Q 0.255 -0.593 0.214 -0.431 L 0.302 -0.431 Q 0.328 -0.431 0.33 -0.42 Q 0.33 -0.402 0.314 -0.4 L 0.313 -0.4 L 0.3 -0.4 L 0.20600000000000002 -0.4 Z"/></g></g><path fill="rgb(211,47,47)" stroke="none" paint-order="stroke fill markers" d=" M 416.37453979993666 575.8579235971458 C 416.37453979993666 578.6193473462998 414.1359635490906 580.8579235971458 411.37453979993666 580.8579235971458 C 408.6131160507827 580.8579235971458 406.37453979993666 578.6193473462998 406.37453979993666 575.8579235971458 C 406.37453979993666 573.0964998479918 408.6131160507827 570.8579235971458 411.37453979993666 570.8579235971458 C 414.1359635490906 570.8579235971458 416.37453979993666 573.0964998479918 416.37453979993666 575.8579235971458 Z" fill-opacity="1"/><path fill="none" stroke="rgb(0,0,0)" paint-order="fill stroke markers" d=" M 416.37453979993666 575.8579235971458 C 416.37453979993666 578.6193473462998 414.1359635490906 580.8579235971458 411.37453979993666 580.8579235971458 C 408.6131160507827 580.8579235971458 406.37453979993666 578.6193473462998 406.37453979993666 575.8579235971458 C 406.37453979993666 573.0964998479918 408.6131160507827 570.8579235971458 411.37453979993666 570.8579235971458 C 414.1359635490906 570.8579235971458 416.37453979993666 573.0964998479918 416.37453979993666 575.8579235971458 Z" stroke-opacity="1" stroke-linecap="round" stroke-linejoin="round" stroke-miterlimit="10"/><g transform="scale(27,27)"><g transform="translate(14.88888888888889,22.53518385185185)"><path fill="rgb(211,47,47)" stroke="none" paint-order="stroke fill markers" d=" M 0.74 -0.436 L 0.74 -0.436 Q 0.74 -0.281 0.63 -0.149 Q 0.531 -0.029 0.398 0.009000000000000001 Q 0.35100000000000003 0.022 0.305 0.022 Q 0.18 0.022 0.108 -0.066 Q 0.049 -0.138 0.049 -0.245 Q 0.049 -0.395 0.156 -0.529 Q 0.255 -0.65 0.388 -0.6900000000000001 Q 0.437 -0.705 0.485 -0.705 Q 0.612 -0.705 0.684 -0.613 Q 0.74 -0.541 0.74 -0.436 M 0.311 -0.004 L 0.311 -0.004 Q 0.405 -0.004 0.492 -0.088 Q 0.51 -0.105 0.525 -0.124 Q 0.623 -0.246 0.646 -0.41500000000000004 Q 0.651 -0.448 0.651 -0.47500000000000003 Q 0.651 -0.612 0.559 -0.661 Q 0.558 -0.661 0.557 -0.662 Q 0.521 -0.68 0.47900000000000004 -0.68 Q 0.385 -0.68 0.297 -0.599 Q 0.261 -0.5670000000000001 0.233 -0.524 Q 0.157 -0.40900000000000003 0.14400000000000002 -0.249 Q 0.14200000000000002 -0.231 0.14200000000000002 -0.217 Q 0.14200000000000002 -0.089 0.219 -0.033 Q 0.259 -0.004 0.311 -0.004 Z"/></g><g transform="translate(15.65166488888889,22.68518385185185) scale(0.7,0.7)"><path fill="rgb(211,47,47)" stroke="none" paint-order="stroke fill markers" d=" M 0.258 -0.683 L 0.114 -0.105 Q 0.108 -0.082 0.108 -0.057 Q 0.108 -0.011 0.138 -0.011 Q 0.177 -0.011 0.203 -0.097 Q 0.20800000000000002 -0.112 0.214 -0.135 Q 0.222 -0.152 0.228 -0.153 Q 0.24 -0.153 0.24 -0.14300000000000002 Q 0.24 -0.128 0.222 -0.074 Q 0.216 -0.057 0.21 -0.045 Q 0.184 0.011 0.135 0.011 Q 0.083 0.011 0.057 -0.031 Q 0.044 -0.053 0.044 -0.081 Q 0.044 -0.097 0.049 -0.115 L 0.17500000000000002 -0.615 L 0.178 -0.635 Q 0.178 -0.646 0.164 -0.649 Q 0.152 -0.652 0.129 -0.652 Q 0.106 -0.652 0.10400000000000001 -0.663 Q 0.10400000000000001 -0.681 0.123 -0.684 L 0.245 -0.6940000000000001 Q 0.258 -0.6940000000000001 0.258 -0.683 Z"/></g></g><path fill="rgb(211,47,47)" stroke="none" paint-order="stroke fill markers" d=" M 901.0558249669734 575.8579235971458 C 901.0558249669734 578.6193473462998 898.8172487161274 580.8579235971458 896.0558249669734 580.8579235971458 C 893.2944012178194 580.8579235971458 891.0558249669734 578.6193473462998 891.0558249669734 575.8579235971458 C 891.0558249669734 573.0964998479918 893.2944012178194 570.8579235971458 896.0558249669734 570.8579235971458 C 898.8172487161274 570.8579235971458 901.0558249669734 573.0964998479918 901.0558249669734 575.8579235971458 Z" fill-opacity="1"/><path fill="none" stroke="rgb(0,0,0)" paint-order="fill stroke markers" d=" M 901.0558249669734 575.8579235971458 C 901.0558249669734 578.6193473462998 898.8172487161274 580.8579235971458 896.0558249669734 580.8579235971458 C 893.2944012178194 580.8579235971458 891.0558249669734 578.6193473462998 891.0558249669734 575.8579235971458 C 891.0558249669734 573.0964998479918 893.2944012178194 570.8579235971458 896.0558249669734 570.8579235971458 C 898.8172487161274 570.8579235971458 901.0558249669734 573.0964998479918 901.0558249669734 575.8579235971458 Z" stroke-opacity="1" stroke-linecap="round" stroke-linejoin="round" stroke-miterlimit="10"/><g transform="scale(27,27)"><g transform="translate(32.925925925925924,22.498146814814813)"><path fill="rgb(211,47,47)" stroke="none" paint-order="stroke fill markers" d=" M 0.74 -0.436 L 0.74 -0.436 Q 0.74 -0.281 0.63 -0.149 Q 0.531 -0.029 0.398 0.009000000000000001 Q 0.35100000000000003 0.022 0.305 0.022 Q 0.18 0.022 0.108 -0.066 Q 0.049 -0.138 0.049 -0.245 Q 0.049 -0.395 0.156 -0.529 Q 0.255 -0.65 0.388 -0.6900000000000001 Q 0.437 -0.705 0.485 -0.705 Q 0.612 -0.705 0.684 -0.613 Q 0.74 -0.541 0.74 -0.436 M 0.311 -0.004 L 0.311 -0.004 Q 0.405 -0.004 0.492 -0.088 Q 0.51 -0.105 0.525 -0.124 Q 0.623 -0.246 0.646 -0.41500000000000004 Q 0.651 -0.448 0.651 -0.47500000000000003 Q 0.651 -0.612 0.559 -0.661 Q 0.558 -0.661 0.557 -0.662 Q 0.521 -0.68 0.47900000000000004 -0.68 Q 0.385 -0.68 0.297 -0.599 Q 0.261 -0.5670000000000001 0.233 -0.524 Q 0.157 -0.40900000000000003 0.14400000000000002 -0.249 Q 0.14200000000000002 -0.231 0.14200000000000002 -0.217 Q 0.14200000000000002 -0.089 0.219 -0.033 Q 0.259 -0.004 0.311 -0.004 Z"/></g><g transform="translate(33.688701925925926,22.64814681481481) scale(0.7,0.7)"><path fill="rgb(211,47,47)" stroke="none" paint-order="stroke fill markers" d=" M 0.088 -0.059000000000000004 L 0.088 -0.059000000000000004 L 0.146 -0.29 Q 0.162 -0.354 0.162 -0.374 Q 0.162 -0.42 0.131 -0.42 Q 0.09 -0.42 0.064 -0.325 Q 0.061 -0.314 0.058 -0.301 Q 0.047 -0.279 0.041 -0.278 Q 0.029 -0.278 0.029 -0.28800000000000003 Q 0.029 -0.304 0.047 -0.355 Q 0.054 -0.373 0.06 -0.385 Q 0.084 -0.434 0.12 -0.441 Q 0.127 -0.442 0.134 -0.442 Q 0.19 -0.442 0.215 -0.394 Q 0.221 -0.383 0.224 -0.37 Q 0.225 -0.368 0.225 -0.365 Q 0.28300000000000003 -0.437 0.353 -0.442 Q 0.40900000000000003 -0.442 0.429 -0.403 Q 0.436 -0.391 0.436 -0.377 Q 0.436 -0.338 0.403 -0.323 Q 0.392 -0.318 0.381 -0.318 Q 0.35000000000000003 -0.318 0.34400000000000003 -0.34500000000000003 Q 0.343 -0.34900000000000003 0.343 -0.353 Q 0.343 -0.386 0.377 -0.402 L 0.378 -0.403 Q 0.386 -0.406 0.395 -0.40800000000000003 L 0.375 -0.417 Q 0.362 -0.419 0.353 -0.42 Q 0.311 -0.42 0.273 -0.387 Q 0.242 -0.359 0.22 -0.313 Q 0.218 -0.308 0.217 -0.305 L 0.185 -0.17500000000000002 L 0.145 -0.017 Q 0.136 0.009000000000000001 0.108 0.011 Q 0.083 0.006 0.079 -0.016 Q 0.079 -0.014 0.088 -0.059000000000000004 Z"/></g></g></g></g></svg>