<svg version="1.1" xmlns="http://www.w3.org/2000/svg" xmlns:xlink="http://www.w3.org/1999/xlink" width="1310" height="605"><defs><clipPath id="zOoegMHKcTLu"><path fill="none" stroke="none" d=" M 0 0 L 1310 0 L 1310 605 L 0 605 L 0 0 Z"/></clipPath></defs><g transform="scale(1,1)" clip-path="url(#zOoegMHKcTLu)"><g><rect fill="rgb(255,255,255)" stroke="none" x="0" y="0" width="1310" height="605" fill-opacity="1"/><path fill="none" stroke="rgb(0,0,0)" paint-order="fill stroke markers" d=" M 886.9999999999999 309.50000000000006 C 886.9999999999999 447.57118745769833 775.0711874576982 559.5000000000001 637 559.5000000000001 C 498.9288125423017 559.5000000000001 387.0000000000001 447.57118745769833 387.0000000000001 309.50000000000006 C 387.0000000000001 171.4288125423017 498.9288125423017 59.50000000000003 637 59.50000000000003 C 775.0711874576982 59.50000000000003 886.9999999999999 171.4288125423017 886.9999999999999 309.50000000000006 Z" stroke-opacity="0.6980392156862745" stroke-linecap="round" stroke-linejoin="round" stroke-miterlimit="10" stroke-width="2.5"/><path fill="none" stroke="rgb(0,0,0)" paint-order="fill stroke markers" d=" M 412.20716353681473 418.89918041208364 L 787 509.50000000000006" stroke-opacity="0.6980392156862745" stroke-linecap="round" stroke-linejoin="round" stroke-miterlimit="10" stroke-width="2.5"/><path fill="rgb(211,47,47)" stroke="none" paint-order="stroke fill markers" d=" M 642 309.50000000000006 C 642 312.261423749154 639.761423749154 314.50000000000006 637 314.50000000000006 C 634.238576250846 314.50000000000006 632 312.261423749154 632 309.50000000000006 C 632 306.7385762508461 634.238576250846 304.50000000000006 637 304.50000000000006 C 639.761423749154 304.50000000000006 642 306.7385762508461 642 309.50000000000006 Z" fill-opacity="1"/><path fill="none" stroke="rgb(0,0,0)" paint-order="fill stroke markers" d=" M 642 309.50000000000006 C 642 312.261423749154 639.761423749154 314.50000000000006 637 314.50000000000006 C 634.238576250846 314.50000000000006 632 312.261423749154 632 309.50000000000006 C 632 306.7385762508461 634.238576250846 304.50000000000006 637 304.50000000000006 C 639.761423749154 304.50000000000006 642 306.7385762508461 642 309.50000000000006 Z" stroke-opacity="1" stroke-linecap="round" stroke-linejoin="round" stroke-miterlimit="10"/><text fill="rgb(211,47,47)" stroke="none" font-family="geogebra-sans-serif, sans-serif" font-size="24px" font-style="normal" font-weight="normal" text-decoration="normal" x="641" y="300" text-anchor="start" dominant-baseline="alphabetic" fill-opacity="1">O</text><text fill="none" stroke="rgb(255,255,255)" font-family="geogebra-sans-serif, sans-serif" font-size="24px" font-style="normal" font-weight="normal" text-decoration="normal" x="641" y="300" text-anchor="start" dominant-baseline="alphabetic" stroke-opacity="1" stroke-linejoin="bevel" stroke-miterlimit="10" stroke-width="3">O</text><text fill="rgb(211,47,47)" stroke="none" font-family="geogebra-sans-serif, sans-serif" font-size="24px" font-style="normal" font-weight="normal" text-decoration="normal" x="641" y="300" text-anchor="start" dominant-baseline="alphabetic" fill-opacity="1">O</text><path fill="rgb(21,101,192)" stroke="none" paint-order="stroke fill markers" d=" M 417.20716353681473 418.89918041208364 C 417.20716353681473 421.6606041612376 414.9685872859687 423.89918041208364 412.20716353681473 423.89918041208364 C 409.4457397876608 423.89918041208364 407.20716353681473 421.6606041612376 407.20716353681473 418.89918041208364 C 407.20716353681473 416.1377566629297 409.4457397876608 413.89918041208364 412.20716353681473 413.89918041208364 C 414.9685872859687 413.89918041208364 417.20716353681473 416.1377566629297 417.20716353681473 418.89918041208364 Z" fill-opacity="1"/><path fill="none" stroke="rgb(0,0,0)" paint-order="fill stroke markers" d=" M 417.20716353681473 418.89918041208364 C 417.20716353681473 421.6606041612376 414.9685872859687 423.89918041208364 412.20716353681473 423.89918041208364 C 409.4457397876608 423.89918041208364 407.20716353681473 421.6606041612376 407.20716353681473 418.89918041208364 C 407.20716353681473 416.1377566629297 409.4457397876608 413.89918041208364 412.20716353681473 413.89918041208364 C 414.9685872859687 413.89918041208364 417.20716353681473 416.1377566629297 417.20716353681473 418.89918041208364 Z" stroke-opacity="1" stroke-linecap="round" stroke-linejoin="round" stroke-miterlimit="10"/><text fill="rgb(21,101,192)" stroke="none" font-family="geogebra-sans-serif, sans-serif" font-size="24px" font-style="normal" font-weight="normal" text-decoration="normal" x="386" y="424" text-anchor="start" dominant-baseline="alphabetic" fill-opacity="1">A</text><text fill="none" stroke="rgb(255,255,255)" font-family="geogebra-sans-serif, sans-serif" font-size="24px" font-style="normal" font-weight="normal" text-decoration="normal" x="386" y="424" text-anchor="start" dominant-baseline="alphabetic" stroke-opacity="1" stroke-linejoin="bevel" stroke-miterlimit="10" stroke-width="3">A</text><text fill="rgb(21,101,192)" stroke="none" font-family="geogebra-sans-serif, sans-serif" font-size="24px" font-style="normal" font-weight="normal" text-decoration="normal" x="386" y="424" text-anchor="start" dominant-baseline="alphabetic" fill-opacity="1">A</text><path fill="rgb(21,101,192)" stroke="none" paint-order="stroke fill markers" d=" M 792 509.50000000000006 C 792 512.261423749154 789.761423749154 514.5 787 514.5 C 784.238576250846 514.5 782 512.261423749154 782 509.50000000000006 C 782 506.7385762508461 784.238576250846 504.50000000000006 787 504.50000000000006 C 789.761423749154 504.50000000000006 792 506.7385762508461 792 509.50000000000006 Z" fill-opacity="1"/><path fill="none" stroke="rgb(0,0,0)" paint-order="fill stroke markers" d=" M 792 509.50000000000006 C 792 512.261423749154 789.761423749154 514.5 787 514.5 C 784.238576250846 514.5 782 512.261423749154 782 509.50000000000006 C 782 506.7385762508461 784.238576250846 504.50000000000006 787 504.50000000000006 C 789.761423749154 504.50000000000006 792 506.7385762508461 792 509.50000000000006 Z" stroke-opacity="1" stroke-linecap="round" stroke-linejoin="round" stroke-miterlimit="10"/><text fill="rgb(21,101,192)" stroke="none" font-family="geogebra-sans-serif, sans-serif" font-size="24px" font-style="normal" font-weight="normal" text-decoration="normal" x="797" y="532" text-anchor="start" dominant-baseline="alphabetic" fill-opacity="1">B</text><text fill="none" stroke="rgb(255,255,255)" font-family="geogebra-sans-serif, sans-serif" font-size="24px" font-style="normal" font-weight="normal" text-decoration="normal" x="797" y="532" text-anchor="start" dominant-baseline="alphabetic" stroke-opacity="1" stroke-linejoin="bevel" stroke-miterlimit="10" stroke-width="3">B</text><text fill="rgb(21,101,192)" stroke="none" font-family="geogebra-sans-serif, sans-serif" font-size="24px" font-style="normal" font-weight="normal" text-decoration="normal" x="797" y="532" text-anchor="start" dominant-baseline="alphabetic" fill-opacity="1">B</text></g></g></svg>