<svg version="1.1" xmlns="http://www.w3.org/2000/svg" xmlns:xlink="http://www.w3.org/1999/xlink" width="1310" height="605"><defs><clipPath id="sbDPlWEINsqG"><path fill="none" stroke="none" d=" M 0 0 L 1310 0 L 1310 605 L 0 605 L 0 0 Z"/></clipPath></defs><g transform="scale(1,1)" clip-path="url(#sbDPlWEINsqG)"><g><rect fill="rgb(255,255,255)" stroke="none" x="0" y="0" width="1310" height="605" fill-opacity="1"/><path fill="none" stroke="rgb(0,0,0)" paint-order="fill stroke markers" d=" M 900 295.5000000000001 C 900 433.5711874576985 788.0711874576984 545.5000000000002 650.0000000000001 545.5000000000002 C 511.92881254230184 545.5000000000002 400.0000000000002 433.5711874576985 400.0000000000002 295.5000000000001 C 400.0000000000002 157.42881254230173 511.92881254230184 45.5 650.0000000000001 45.5 C 788.0711874576984 45.5 900 157.42881254230173 900 295.5000000000001 Z" stroke-opacity="0.6980392156862745" stroke-linecap="round" stroke-linejoin="round" stroke-miterlimit="10" stroke-width="2.5"/><path fill="rgb(0,0,0)" stroke="none" paint-order="stroke fill markers" fill-rule="evenodd" d=" M 612.6035817684075 450.19959020604193 L 633.222881988996 455.1840117786195 L 638.2073035615753 434.56471155802984 L 617.588003340985 429.58028998545336 L 612.6035817684075 450.19959020604193" fill-opacity="0.09803921568627451"/><path fill="none" stroke="rgb(0,0,0)" paint-order="fill stroke markers" d=" M 612.6035817684075 450.19959020604193 L 633.222881988996 455.1840117786195 L 638.2073035615753 434.56471155802984 L 617.588003340985 429.58028998545336 L 612.6035817684075 450.19959020604193" stroke-opacity="0.6" stroke-linecap="round" stroke-linejoin="round" stroke-miterlimit="10" stroke-width="2.5"/><path fill="none" stroke="rgb(0,0,0)" paint-order="fill stroke markers" d=" M 573.9741131946674 610 L 722.6415865977822 -5" stroke-opacity="0.6980392156862745" stroke-linecap="round" stroke-linejoin="round" stroke-miterlimit="10" stroke-width="2.5"/><path fill="none" stroke="rgb(0,0,0)" paint-order="fill stroke markers" d=" M 425.20716353681485 404.8991804120837 L 800.0000000000001 495.50000000000017" stroke-opacity="0.6980392156862745" stroke-linecap="round" stroke-linejoin="round" stroke-miterlimit="10" stroke-width="2.5"/><path fill="none" stroke="rgb(0,0,0)" paint-order="fill stroke markers" d=" M 650.0000000000001 295.5000000000001 L 612.6035817684075 450.19959020604193" stroke-opacity="0.6980392156862745" stroke-linecap="round" stroke-linejoin="round" stroke-miterlimit="10" stroke-width="2.5"/><path fill="none" stroke="rgb(0,0,0)" paint-order="fill stroke markers" d=" M 650.0000000000001 295.5000000000001 L 425.20716353681485 404.8991804120837" stroke-opacity="0.6980392156862745" stroke-linecap="round" stroke-linejoin="round" stroke-miterlimit="10" stroke-width="2.5"/><path fill="none" stroke="rgb(0,0,0)" paint-order="fill stroke markers" d=" M 650.0000000000001 295.5000000000001 L 800.0000000000001 495.50000000000017" stroke-opacity="0.6980392156862745" stroke-linecap="round" stroke-linejoin="round" stroke-miterlimit="10" stroke-width="2.5"/><path fill="rgb(211,47,47)" stroke="none" paint-order="stroke fill markers" d=" M 655.0000000000001 295.5000000000001 C 655.0000000000001 298.26142374915406 652.7614237491541 300.5000000000001 650.0000000000001 300.5000000000001 C 647.2385762508461 300.5000000000001 645.0000000000001 298.26142374915406 645.0000000000001 295.5000000000001 C 645.0000000000001 292.73857625084617 647.2385762508461 290.5000000000001 650.0000000000001 290.5000000000001 C 652.7614237491541 290.5000000000001 655.0000000000001 292.73857625084617 655.0000000000001 295.5000000000001 Z" fill-opacity="1"/><path fill="none" stroke="rgb(0,0,0)" paint-order="fill stroke markers" d=" M 655.0000000000001 295.5000000000001 C 655.0000000000001 298.26142374915406 652.7614237491541 300.5000000000001 650.0000000000001 300.5000000000001 C 647.2385762508461 300.5000000000001 645.0000000000001 298.26142374915406 645.0000000000001 295.5000000000001 C 645.0000000000001 292.73857625084617 647.2385762508461 290.5000000000001 650.0000000000001 290.5000000000001 C 652.7614237491541 290.5000000000001 655.0000000000001 292.73857625084617 655.0000000000001 295.5000000000001 Z" stroke-opacity="1" stroke-linecap="round" stroke-linejoin="round" stroke-miterlimit="10"/><text fill="rgb(211,47,47)" stroke="none" font-family="geogebra-sans-serif, sans-serif" font-size="24px" font-style="normal" font-weight="normal" text-decoration="normal" x="621" y="280" text-anchor="start" dominant-baseline="alphabetic" fill-opacity="1">O</text><text fill="none" stroke="rgb(255,255,255)" font-family="geogebra-sans-serif, sans-serif" font-size="24px" font-style="normal" font-weight="normal" text-decoration="normal" x="621" y="280" text-anchor="start" dominant-baseline="alphabetic" stroke-opacity="1" stroke-linejoin="bevel" stroke-miterlimit="10" stroke-width="3">O</text><text fill="rgb(211,47,47)" stroke="none" font-family="geogebra-sans-serif, sans-serif" font-size="24px" font-style="normal" font-weight="normal" text-decoration="normal" x="621" y="280" text-anchor="start" dominant-baseline="alphabetic" fill-opacity="1">O</text><path fill="rgb(21,101,192)" stroke="none" paint-order="stroke fill markers" d=" M 430.20716353681485 404.8991804120837 C 430.20716353681485 407.66060416123764 427.9685872859688 409.8991804120837 425.20716353681485 409.8991804120837 C 422.4457397876609 409.8991804120837 420.20716353681485 407.66060416123764 420.20716353681485 404.8991804120837 C 420.20716353681485 402.13775666292975 422.4457397876609 399.8991804120837 425.20716353681485 399.8991804120837 C 427.9685872859688 399.8991804120837 430.20716353681485 402.13775666292975 430.20716353681485 404.8991804120837 Z" fill-opacity="1"/><path fill="none" stroke="rgb(0,0,0)" paint-order="fill stroke markers" d=" M 430.20716353681485 404.8991804120837 C 430.20716353681485 407.66060416123764 427.9685872859688 409.8991804120837 425.20716353681485 409.8991804120837 C 422.4457397876609 409.8991804120837 420.20716353681485 407.66060416123764 420.20716353681485 404.8991804120837 C 420.20716353681485 402.13775666292975 422.4457397876609 399.8991804120837 425.20716353681485 399.8991804120837 C 427.9685872859688 399.8991804120837 430.20716353681485 402.13775666292975 430.20716353681485 404.8991804120837 Z" stroke-opacity="1" stroke-linecap="round" stroke-linejoin="round" stroke-miterlimit="10"/><text fill="rgb(21,101,192)" stroke="none" font-family="geogebra-sans-serif, sans-serif" font-size="24px" font-style="normal" font-weight="normal" text-decoration="normal" x="399" y="410" text-anchor="start" dominant-baseline="alphabetic" fill-opacity="1">A</text><text fill="none" stroke="rgb(255,255,255)" font-family="geogebra-sans-serif, sans-serif" font-size="24px" font-style="normal" font-weight="normal" text-decoration="normal" x="399" y="410" text-anchor="start" dominant-baseline="alphabetic" stroke-opacity="1" stroke-linejoin="bevel" stroke-miterlimit="10" stroke-width="3">A</text><text fill="rgb(21,101,192)" stroke="none" font-family="geogebra-sans-serif, sans-serif" font-size="24px" font-style="normal" font-weight="normal" text-decoration="normal" x="399" y="410" text-anchor="start" dominant-baseline="alphabetic" fill-opacity="1">A</text><path fill="rgb(21,101,192)" stroke="none" paint-order="stroke fill markers" d=" M 805.0000000000001 495.50000000000017 C 805.0000000000001 498.2614237491541 802.7614237491541 500.50000000000017 800.0000000000001 500.50000000000017 C 797.2385762508461 500.50000000000017 795.0000000000001 498.2614237491541 795.0000000000001 495.50000000000017 C 795.0000000000001 492.7385762508462 797.2385762508461 490.50000000000017 800.0000000000001 490.50000000000017 C 802.7614237491541 490.50000000000017 805.0000000000001 492.7385762508462 805.0000000000001 495.50000000000017 Z" fill-opacity="1"/><path fill="none" stroke="rgb(0,0,0)" paint-order="fill stroke markers" d=" M 805.0000000000001 495.50000000000017 C 805.0000000000001 498.2614237491541 802.7614237491541 500.50000000000017 800.0000000000001 500.50000000000017 C 797.2385762508461 500.50000000000017 795.0000000000001 498.2614237491541 795.0000000000001 495.50000000000017 C 795.0000000000001 492.7385762508462 797.2385762508461 490.50000000000017 800.0000000000001 490.50000000000017 C 802.7614237491541 490.50000000000017 805.0000000000001 492.7385762508462 805.0000000000001 495.50000000000017 Z" stroke-opacity="1" stroke-linecap="round" stroke-linejoin="round" stroke-miterlimit="10"/><text fill="rgb(21,101,192)" stroke="none" font-family="geogebra-sans-serif, sans-serif" font-size="24px" font-style="normal" font-weight="normal" text-decoration="normal" x="810" y="518" text-anchor="start" dominant-baseline="alphabetic" fill-opacity="1">B</text><text fill="none" stroke="rgb(255,255,255)" font-family="geogebra-sans-serif, sans-serif" font-size="24px" font-style="normal" font-weight="normal" text-decoration="normal" x="810" y="518" text-anchor="start" dominant-baseline="alphabetic" stroke-opacity="1" stroke-linejoin="bevel" stroke-miterlimit="10" stroke-width="3">B</text><text fill="rgb(21,101,192)" stroke="none" font-family="geogebra-sans-serif, sans-serif" font-size="24px" font-style="normal" font-weight="normal" text-decoration="normal" x="810" y="518" text-anchor="start" dominant-baseline="alphabetic" fill-opacity="1">B</text><path fill="rgb(46,125,50)" stroke="none" paint-order="stroke fill markers" d=" M 617.6035817684075 450.19959020604193 C 617.6035817684075 452.9610139551959 615.3650055175615 455.19959020604193 612.6035817684075 455.19959020604193 C 609.8421580192535 455.19959020604193 607.6035817684075 452.9610139551959 607.6035817684075 450.19959020604193 C 607.6035817684075 447.438166456888 609.8421580192535 445.19959020604193 612.6035817684075 445.19959020604193 C 615.3650055175615 445.19959020604193 617.6035817684075 447.438166456888 617.6035817684075 450.19959020604193 Z" fill-opacity="1"/><path fill="none" stroke="rgb(0,0,0)" paint-order="fill stroke markers" d=" M 617.6035817684075 450.19959020604193 C 617.6035817684075 452.9610139551959 615.3650055175615 455.19959020604193 612.6035817684075 455.19959020604193 C 609.8421580192535 455.19959020604193 607.6035817684075 452.9610139551959 607.6035817684075 450.19959020604193 C 607.6035817684075 447.438166456888 609.8421580192535 445.19959020604193 612.6035817684075 445.19959020604193 C 615.3650055175615 445.19959020604193 617.6035817684075 447.438166456888 617.6035817684075 450.19959020604193 Z" stroke-opacity="1" stroke-linecap="round" stroke-linejoin="round" stroke-miterlimit="10"/><text fill="rgb(46,125,50)" stroke="none" font-family="geogebra-sans-serif, sans-serif" font-size="24px" font-style="normal" font-weight="normal" text-decoration="normal" x="584" y="470" text-anchor="start" dominant-baseline="alphabetic" fill-opacity="1">C</text><text fill="none" stroke="rgb(255,255,255)" font-family="geogebra-sans-serif, sans-serif" font-size="24px" font-style="normal" font-weight="normal" text-decoration="normal" x="584" y="470" text-anchor="start" dominant-baseline="alphabetic" stroke-opacity="1" stroke-linejoin="bevel" stroke-miterlimit="10" stroke-width="3">C</text><text fill="rgb(46,125,50)" stroke="none" font-family="geogebra-sans-serif, sans-serif" font-size="24px" font-style="normal" font-weight="normal" text-decoration="normal" x="584" y="470" text-anchor="start" dominant-baseline="alphabetic" fill-opacity="1">C</text><path fill="rgb(21,101,192)" stroke="none" paint-order="stroke fill markers" d=" M 713.741971571039 52.49921651165971 C 713.741971571039 55.26064026081367 711.503395320193 57.49921651165971 708.741971571039 57.49921651165971 C 705.980547821885 57.49921651165971 703.741971571039 55.26064026081367 703.741971571039 52.49921651165971 C 703.741971571039 49.73779276250574 705.980547821885 47.49921651165971 708.741971571039 47.49921651165971 C 711.503395320193 47.49921651165971 713.741971571039 49.73779276250574 713.741971571039 52.49921651165971 Z" fill-opacity="1"/><path fill="none" stroke="rgb(0,0,0)" paint-order="fill stroke markers" d=" M 713.741971571039 52.49921651165971 C 713.741971571039 55.26064026081367 711.503395320193 57.49921651165971 708.741971571039 57.49921651165971 C 705.980547821885 57.49921651165971 703.741971571039 55.26064026081367 703.741971571039 52.49921651165971 C 703.741971571039 49.73779276250574 705.980547821885 47.49921651165971 708.741971571039 47.49921651165971 C 711.503395320193 47.49921651165971 713.741971571039 49.73779276250574 713.741971571039 52.49921651165971 Z" stroke-opacity="1" stroke-linecap="round" stroke-linejoin="round" stroke-miterlimit="10"/><text fill="rgb(21,101,192)" stroke="none" font-family="geogebra-sans-serif, sans-serif" font-size="24px" font-style="normal" font-weight="normal" text-decoration="normal" x="725" y="51" text-anchor="start" dominant-baseline="alphabetic" fill-opacity="1">E</text><text fill="none" stroke="rgb(255,255,255)" font-family="geogebra-sans-serif, sans-serif" font-size="24px" font-style="normal" font-weight="normal" text-decoration="normal" x="725" y="51" text-anchor="start" dominant-baseline="alphabetic" stroke-opacity="1" stroke-linejoin="bevel" stroke-miterlimit="10" stroke-width="3">E</text><text fill="rgb(21,101,192)" stroke="none" font-family="geogebra-sans-serif, sans-serif" font-size="24px" font-style="normal" font-weight="normal" text-decoration="normal" x="725" y="51" text-anchor="start" dominant-baseline="alphabetic" fill-opacity="1">E</text><path fill="rgb(21,101,192)" stroke="none" paint-order="stroke fill markers" d=" M 596.2580284289612 538.5007834883405 C 596.2580284289612 541.2622072374945 594.0194521781152 543.5007834883405 591.2580284289612 543.5007834883405 C 588.4966046798072 543.5007834883405 586.2580284289612 541.2622072374945 586.2580284289612 538.5007834883405 C 586.2580284289612 535.7393597391865 588.4966046798072 533.5007834883405 591.2580284289612 533.5007834883405 C 594.0194521781152 533.5007834883405 596.2580284289612 535.7393597391865 596.2580284289612 538.5007834883405 Z" fill-opacity="1"/><path fill="none" stroke="rgb(0,0,0)" paint-order="fill stroke markers" d=" M 596.2580284289612 538.5007834883405 C 596.2580284289612 541.2622072374945 594.0194521781152 543.5007834883405 591.2580284289612 543.5007834883405 C 588.4966046798072 543.5007834883405 586.2580284289612 541.2622072374945 586.2580284289612 538.5007834883405 C 586.2580284289612 535.7393597391865 588.4966046798072 533.5007834883405 591.2580284289612 533.5007834883405 C 594.0194521781152 533.5007834883405 596.2580284289612 535.7393597391865 596.2580284289612 538.5007834883405 Z" stroke-opacity="1" stroke-linecap="round" stroke-linejoin="round" stroke-miterlimit="10"/><text fill="rgb(21,101,192)" stroke="none" font-family="geogebra-sans-serif, sans-serif" font-size="24px" font-style="normal" font-weight="normal" text-decoration="normal" x="594" y="573" text-anchor="start" dominant-baseline="alphabetic" fill-opacity="1">D</text><text fill="none" stroke="rgb(255,255,255)" font-family="geogebra-sans-serif, sans-serif" font-size="24px" font-style="normal" font-weight="normal" text-decoration="normal" x="594" y="573" text-anchor="start" dominant-baseline="alphabetic" stroke-opacity="1" stroke-linejoin="bevel" stroke-miterlimit="10" stroke-width="3">D</text><text fill="rgb(21,101,192)" stroke="none" font-family="geogebra-sans-serif, sans-serif" font-size="24px" font-style="normal" font-weight="normal" text-decoration="normal" x="594" y="573" text-anchor="start" dominant-baseline="alphabetic" fill-opacity="1">D</text></g></g></svg>