<?xml version="1.0" encoding="UTF-8"?>
<svg xmlns="http://www.w3.org/2000/svg" xmlns:xlink="http://www.w3.org/1999/xlink" width="1366pt" height="565pt" viewBox="0 0 1366 565" version="1.1">
<g id="surface1">
<path style=" stroke:none;fill-rule:evenodd;fill:rgb(0%,0%,100%);fill-opacity:0.85098;" d="M 420 442 L 439 442 L 440 423 L 421 423 Z M 420 442 "/>
<path style=" stroke:none;fill-rule:evenodd;fill:rgb(100%,100%,100%);fill-opacity:0.29804;" d="M 420 442 L 437 442 L 438 425 L 421 425 Z M 420 442 "/>
<path style="fill:none;stroke-width:3;stroke-linecap:round;stroke-linejoin:round;stroke:rgb(0%,0%,100%);stroke-opacity:1;stroke-miterlimit:10;" d="M 71.679688 123.25 L 422.320312 444.589844 " transform="matrix(1,0,0,-1,0,565)"/>
<path style="fill:none;stroke-width:3;stroke-linecap:round;stroke-linejoin:round;stroke:rgb(0%,0%,100%);stroke-opacity:1;stroke-miterlimit:10;" d="M 1101.5 120.5 L 71.679688 123.25 " transform="matrix(1,0,0,-1,0,565)"/>
<path style="fill:none;stroke-width:3;stroke-linecap:round;stroke-linejoin:round;stroke:rgb(0%,0%,100%);stroke-opacity:1;stroke-miterlimit:10;" d="M 1101.5 120.5 L 422.320312 444.589844 " transform="matrix(1,0,0,-1,0,565)"/>
<path style="fill:none;stroke-width:3;stroke-linecap:round;stroke-linejoin:round;stroke:rgb(0%,0%,100%);stroke-opacity:1;stroke-dasharray:0,6.08;stroke-miterlimit:10;" d="M 421.460938 122.308594 L 422.320312 444.589844 " transform="matrix(1,0,0,-1,0,565)"/>
<path style="fill-rule:nonzero;fill:rgb(100%,0%,0%);fill-opacity:1;stroke-width:1;stroke-linecap:square;stroke-linejoin:miter;stroke:rgb(0%,0%,0%);stroke-opacity:1;stroke-miterlimit:10;" d="M 427.320312 444.589844 C 427.320312 441.828125 425.078125 439.589844 422.320312 439.589844 C 419.558594 439.589844 417.320312 441.828125 417.320312 444.589844 C 417.320312 447.359375 419.558594 449.589844 422.320312 449.589844 C 425.078125 449.589844 427.320312 447.359375 427.320312 444.589844 Z M 427.320312 444.589844 " transform="matrix(1,0,0,-1,0,565)"/>
<path style="fill-rule:nonzero;fill:rgb(100%,0%,0%);fill-opacity:1;stroke-width:1;stroke-linecap:square;stroke-linejoin:miter;stroke:rgb(0%,0%,0%);stroke-opacity:1;stroke-miterlimit:10;" d="M 76.679688 123.25 C 76.679688 120.480469 74.441406 118.25 71.679688 118.25 C 68.921875 118.25 66.679688 120.480469 66.679688 123.25 C 66.679688 126.011719 68.921875 128.25 71.679688 128.25 C 74.441406 128.25 76.679688 126.011719 76.679688 123.25 Z M 76.679688 123.25 " transform="matrix(1,0,0,-1,0,565)"/>
<path style="fill-rule:nonzero;fill:rgb(100%,0%,0%);fill-opacity:1;stroke-width:1;stroke-linecap:square;stroke-linejoin:miter;stroke:rgb(0%,0%,0%);stroke-opacity:1;stroke-miterlimit:10;" d="M 1106.5 120.5 C 1106.5 117.738281 1104.261719 115.5 1101.5 115.5 C 1098.738281 115.5 1096.5 117.738281 1096.5 120.5 C 1096.5 123.261719 1098.738281 125.5 1101.5 125.5 C 1104.261719 125.5 1106.5 123.261719 1106.5 120.5 Z M 1106.5 120.5 " transform="matrix(1,0,0,-1,0,565)"/>
<path style="fill-rule:nonzero;fill:rgb(69.802856%,0%,0%);fill-opacity:1;stroke-width:1;stroke-linecap:square;stroke-linejoin:miter;stroke:rgb(0%,0%,0%);stroke-opacity:1;stroke-miterlimit:10;" d="M 426.460938 122.308594 C 426.460938 119.550781 424.21875 117.308594 421.460938 117.308594 C 418.699219 117.308594 416.460938 119.550781 416.460938 122.308594 C 416.460938 125.070312 418.699219 127.308594 421.460938 127.308594 C 424.21875 127.308594 426.460938 125.070312 426.460938 122.308594 Z M 426.460938 122.308594 " transform="matrix(1,0,0,-1,0,565)"/>
<path style=" stroke:none;fill-rule:nonzero;fill:rgb(0%,0%,0%);fill-opacity:1;" d="M 400.25 86.050781 L 396.230469 96.921875 L 404.28125 96.921875 Z M 398.578125 83.121094 L 401.941406 83.121094 L 410.28125 105 L 407.199219 105 L 405.199219 99.390625 L 395.339844 99.390625 L 393.359375 105 L 390.230469 105 Z M 398.578125 83.121094 "/>
<path style=" stroke:none;fill-rule:nonzero;fill:rgb(0%,0%,0%);fill-opacity:1;" d="M 38.910156 460.558594 L 38.910156 468.558594 L 43.660156 468.558594 C 43.660156 468.558594 46.03125 468.558594 47.191406 467.578125 C 47.191406 467.578125 48.339844 466.589844 48.339844 464.550781 C 48.339844 464.550781 48.339844 462.5 47.191406 461.53125 C 47.191406 461.53125 46.03125 460.558594 43.660156 460.558594 Z M 38.910156 451.558594 L 38.910156 458.160156 L 43.28125 458.160156 C 43.28125 458.160156 45.449219 458.160156 46.519531 457.339844 C 46.519531 457.339844 47.578125 456.53125 47.578125 454.859375 C 47.578125 454.859375 47.578125 453.199219 46.519531 452.390625 C 46.519531 452.390625 45.449219 451.558594 43.28125 451.558594 Z M 35.941406 449.121094 L 43.5 449.121094 C 43.5 449.121094 46.890625 449.121094 48.71875 450.53125 C 48.71875 450.53125 50.550781 451.941406 50.550781 454.53125 C 50.550781 454.53125 50.550781 456.550781 49.609375 457.730469 C 49.609375 457.730469 48.671875 458.921875 46.859375 459.199219 C 46.859375 459.199219 49.050781 459.671875 50.25 461.171875 C 50.25 461.171875 51.449219 462.660156 51.449219 464.871094 C 51.449219 464.871094 51.449219 467.808594 49.449219 469.410156 C 49.449219 469.410156 47.46875 471 43.800781 471 L 35.941406 471 Z M 35.941406 449.121094 "/>
<path style=" stroke:none;fill-rule:nonzero;fill:rgb(0%,0%,0%);fill-opacity:1;" d="M 1141.328125 448.808594 L 1141.328125 451.941406 C 1141.328125 451.941406 1139.828125 450.550781 1138.128906 449.859375 C 1138.128906 449.859375 1136.441406 449.171875 1134.550781 449.171875 C 1134.550781 449.171875 1130.800781 449.171875 1128.800781 451.46875 C 1128.800781 451.46875 1126.808594 453.75 1126.808594 458.089844 C 1126.808594 458.089844 1126.808594 462.410156 1128.800781 464.699219 C 1128.800781 464.699219 1130.800781 467 1134.550781 467 C 1134.550781 467 1136.441406 467 1138.128906 466.308594 C 1138.128906 466.308594 1139.828125 465.609375 1141.328125 464.21875 L 1141.328125 467.308594 C 1141.328125 467.308594 1139.769531 468.371094 1138.03125 468.910156 C 1138.03125 468.910156 1136.300781 469.421875 1134.359375 469.421875 C 1134.359375 469.421875 1129.390625 469.421875 1126.53125 466.390625 C 1126.53125 466.390625 1123.691406 463.339844 1123.691406 458.089844 C 1123.691406 458.089844 1123.691406 452.808594 1126.53125 449.78125 C 1126.53125 449.78125 1129.390625 446.730469 1134.359375 446.730469 C 1134.359375 446.730469 1136.328125 446.730469 1138.058594 447.269531 C 1138.058594 447.269531 1139.800781 447.78125 1141.328125 448.808594 Z M 1141.328125 448.808594 "/>
<path style=" stroke:none;fill-rule:nonzero;fill:rgb(0%,0%,0%);fill-opacity:1;" d="M 411.941406 463.121094 L 425.769531 463.121094 L 425.769531 465.621094 L 414.910156 465.621094 L 414.910156 472.089844 L 425.308594 472.089844 L 425.308594 474.578125 L 414.910156 474.578125 L 414.910156 482.519531 L 426.03125 482.519531 L 426.03125 485 L 411.941406 485 Z M 411.941406 463.121094 "/>
</g>
</svg>
