<?xml version="1.0" encoding="UTF-8"?>
<svg xmlns="http://www.w3.org/2000/svg" xmlns:xlink="http://www.w3.org/1999/xlink" width="1366pt" height="565pt" viewBox="0 0 1366 565" version="1.1">
<g id="surface1">
<path style=" stroke:none;fill-rule:evenodd;fill:rgb(0%,0%,100%);fill-opacity:0.85098;" d="M 516 477 L 535 477 L 535 458 L 516 458 Z M 516 477 "/>
<path style=" stroke:none;fill-rule:evenodd;fill:rgb(100%,100%,100%);fill-opacity:0.29804;" d="M 516 477 L 533 477 L 533 460 L 516 460 Z M 516 477 "/>
<path style=" stroke:none;fill-rule:nonzero;fill:rgb(0%,0%,100%);fill-opacity:0.8;" d="M 397.019531 477.621094 C 397 468.300781 391.121094 460.011719 382.339844 456.921875 L 375.019531 477.671875 Z M 397.019531 477.621094 "/>
<path style=" stroke:none;fill-rule:nonzero;fill:rgb(100%,100%,100%);fill-opacity:0.29804;" d="M 395.019531 477.621094 C 395 469.148438 389.648438 461.621094 381.671875 458.800781 L 375.019531 477.671875 Z M 395.019531 477.621094 "/>
<path style="fill:none;stroke-width:3;stroke-linecap:round;stroke-linejoin:round;stroke:rgb(0%,0%,100%);stroke-opacity:1;stroke-miterlimit:10;" d="M 80.738281 86.160156 L 515.890625 484.949219 " transform="matrix(1,0,0,-1,0,565)"/>
<path style="fill:none;stroke-width:3;stroke-linecap:round;stroke-linejoin:round;stroke:rgb(0%,0%,100%);stroke-opacity:1;stroke-miterlimit:10;" d="M 666.5 87.5 L 80.738281 86.160156 " transform="matrix(1,0,0,-1,0,565)"/>
<path style="fill:none;stroke-width:3;stroke-linecap:round;stroke-linejoin:round;stroke:rgb(0%,0%,100%);stroke-opacity:1;stroke-miterlimit:10;" d="M 666.5 87.5 L 515.890625 484.949219 " transform="matrix(1,0,0,-1,0,565)"/>
<path style="fill:none;stroke-width:3;stroke-linecap:round;stroke-linejoin:round;stroke:rgb(0%,0%,100%);stroke-opacity:1;stroke-dasharray:0,6.03;stroke-miterlimit:10;" d="M 516.800781 87.160156 L 515.890625 484.949219 " transform="matrix(1,0,0,-1,0,565)"/>
<path style="fill:none;stroke-width:3;stroke-linecap:round;stroke-linejoin:round;stroke:rgb(0%,0%,100%);stroke-opacity:1;stroke-miterlimit:10;" d="M 375.519531 86.828125 L 515.890625 484.949219 " transform="matrix(1,0,0,-1,0,565)"/>
<path style="fill-rule:nonzero;fill:rgb(100%,0%,0%);fill-opacity:1;stroke-width:1;stroke-linecap:square;stroke-linejoin:miter;stroke:rgb(0%,0%,0%);stroke-opacity:1;stroke-miterlimit:10;" d="M 520.890625 484.949219 C 520.890625 482.191406 518.648438 479.949219 515.890625 479.949219 C 513.128906 479.949219 510.890625 482.191406 510.890625 484.949219 C 510.890625 487.710938 513.128906 489.949219 515.890625 489.949219 C 518.648438 489.949219 520.890625 487.710938 520.890625 484.949219 Z M 520.890625 484.949219 " transform="matrix(1,0,0,-1,0,565)"/>
<path style="fill-rule:nonzero;fill:rgb(100%,0%,0%);fill-opacity:1;stroke-width:1;stroke-linecap:square;stroke-linejoin:miter;stroke:rgb(0%,0%,0%);stroke-opacity:1;stroke-miterlimit:10;" d="M 85.738281 86.160156 C 85.738281 83.398438 83.5 81.160156 80.738281 81.160156 C 77.980469 81.160156 75.738281 83.398438 75.738281 86.160156 C 75.738281 88.921875 77.980469 91.160156 80.738281 91.160156 C 83.5 91.160156 85.738281 88.921875 85.738281 86.160156 Z M 85.738281 86.160156 " transform="matrix(1,0,0,-1,0,565)"/>
<path style="fill-rule:nonzero;fill:rgb(100%,0%,0%);fill-opacity:1;stroke-width:1;stroke-linecap:square;stroke-linejoin:miter;stroke:rgb(0%,0%,0%);stroke-opacity:1;stroke-miterlimit:10;" d="M 671.5 87.5 C 671.5 84.738281 669.261719 82.5 666.5 82.5 C 663.738281 82.5 661.5 84.738281 661.5 87.5 C 661.5 90.261719 663.738281 92.5 666.5 92.5 C 669.261719 92.5 671.5 90.261719 671.5 87.5 Z M 671.5 87.5 " transform="matrix(1,0,0,-1,0,565)"/>
<path style="fill-rule:nonzero;fill:rgb(69.802856%,0%,0%);fill-opacity:1;stroke-width:1;stroke-linecap:square;stroke-linejoin:miter;stroke:rgb(0%,0%,0%);stroke-opacity:1;stroke-miterlimit:10;" d="M 521.800781 87.160156 C 521.800781 84.398438 519.558594 82.160156 516.800781 82.160156 C 514.039062 82.160156 511.800781 84.398438 511.800781 87.160156 C 511.800781 89.921875 514.039062 92.160156 516.800781 92.160156 C 519.558594 92.160156 521.800781 89.921875 521.800781 87.160156 Z M 521.800781 87.160156 " transform="matrix(1,0,0,-1,0,565)"/>
<path style="fill-rule:nonzero;fill:rgb(100%,0%,0%);fill-opacity:1;stroke-width:1;stroke-linecap:square;stroke-linejoin:miter;stroke:rgb(0%,0%,0%);stroke-opacity:1;stroke-miterlimit:10;" d="M 380.519531 86.828125 C 380.519531 84.070312 378.28125 81.828125 375.519531 81.828125 C 372.761719 81.828125 370.519531 84.070312 370.519531 86.828125 C 370.519531 89.601562 372.761719 91.828125 375.519531 91.828125 C 378.28125 91.828125 380.519531 89.601562 380.519531 86.828125 Z M 380.519531 86.828125 " transform="matrix(1,0,0,-1,0,565)"/>
<path style=" stroke:none;fill-rule:nonzero;fill:rgb(0%,0%,0%);fill-opacity:1;" d="M 493.25 46.050781 L 489.230469 56.921875 L 497.28125 56.921875 Z M 491.578125 43.121094 L 494.941406 43.121094 L 503.28125 65 L 500.199219 65 L 498.199219 59.390625 L 488.339844 59.390625 L 486.359375 65 L 483.230469 65 Z M 491.578125 43.121094 "/>
<path style=" stroke:none;fill-rule:nonzero;fill:rgb(0%,0%,0%);fill-opacity:1;" d="M 47.910156 497.558594 L 47.910156 505.558594 L 52.660156 505.558594 C 52.660156 505.558594 55.03125 505.558594 56.191406 504.578125 C 56.191406 504.578125 57.339844 503.589844 57.339844 501.550781 C 57.339844 501.550781 57.339844 499.5 56.191406 498.53125 C 56.191406 498.53125 55.03125 497.558594 52.660156 497.558594 Z M 47.910156 488.558594 L 47.910156 495.160156 L 52.28125 495.160156 C 52.28125 495.160156 54.449219 495.160156 55.519531 494.339844 C 55.519531 494.339844 56.578125 493.53125 56.578125 491.859375 C 56.578125 491.859375 56.578125 490.199219 55.519531 489.390625 C 55.519531 489.390625 54.449219 488.558594 52.28125 488.558594 Z M 44.941406 486.121094 L 52.5 486.121094 C 52.5 486.121094 55.890625 486.121094 57.71875 487.53125 C 57.71875 487.53125 59.550781 488.941406 59.550781 491.53125 C 59.550781 491.53125 59.550781 493.550781 58.609375 494.730469 C 58.609375 494.730469 57.671875 495.921875 55.859375 496.199219 C 55.859375 496.199219 58.050781 496.671875 59.25 498.171875 C 59.25 498.171875 60.449219 499.660156 60.449219 501.871094 C 60.449219 501.871094 60.449219 504.808594 58.449219 506.410156 C 58.449219 506.410156 56.46875 508 52.800781 508 L 44.941406 508 Z M 44.941406 486.121094 "/>
<path style=" stroke:none;fill-rule:nonzero;fill:rgb(0%,0%,0%);fill-opacity:1;" d="M 706.328125 481.808594 L 706.328125 484.941406 C 706.328125 484.941406 704.828125 483.550781 703.128906 482.859375 C 703.128906 482.859375 701.441406 482.171875 699.550781 482.171875 C 699.550781 482.171875 695.800781 482.171875 693.800781 484.46875 C 693.800781 484.46875 691.808594 486.75 691.808594 491.089844 C 691.808594 491.089844 691.808594 495.410156 693.800781 497.699219 C 693.800781 497.699219 695.800781 500 699.550781 500 C 699.550781 500 701.441406 500 703.128906 499.308594 C 703.128906 499.308594 704.828125 498.609375 706.328125 497.21875 L 706.328125 500.308594 C 706.328125 500.308594 704.769531 501.371094 703.03125 501.910156 C 703.03125 501.910156 701.300781 502.421875 699.359375 502.421875 C 699.359375 502.421875 694.390625 502.421875 691.53125 499.390625 C 691.53125 499.390625 688.691406 496.339844 688.691406 491.089844 C 688.691406 491.089844 688.691406 485.808594 691.53125 482.78125 C 691.53125 482.78125 694.390625 479.730469 699.359375 479.730469 C 699.359375 479.730469 701.328125 479.730469 703.058594 480.269531 C 703.058594 480.269531 704.800781 480.78125 706.328125 481.808594 Z M 706.328125 481.808594 "/>
<path style=" stroke:none;fill-rule:nonzero;fill:rgb(0%,0%,0%);fill-opacity:1;" d="M 507.941406 498.121094 L 521.769531 498.121094 L 521.769531 500.621094 L 510.910156 500.621094 L 510.910156 507.089844 L 521.308594 507.089844 L 521.308594 509.578125 L 510.910156 509.578125 L 510.910156 517.519531 L 522.03125 517.519531 L 522.03125 520 L 507.941406 520 Z M 507.941406 498.121094 "/>
<path style=" stroke:none;fill-rule:nonzero;fill:rgb(0%,0%,0%);fill-opacity:1;" d="M 367.910156 499.558594 L 367.910156 516.558594 L 371.480469 516.558594 C 371.480469 516.558594 376 516.558594 378.089844 514.519531 C 378.089844 514.519531 380.199219 512.46875 380.199219 508.050781 C 380.199219 508.050781 380.199219 503.640625 378.089844 501.609375 C 378.089844 501.609375 376 499.558594 371.480469 499.558594 Z M 364.941406 497.121094 L 371.03125 497.121094 C 371.03125 497.121094 377.378906 497.121094 380.339844 499.78125 C 380.339844 499.78125 383.328125 502.421875 383.328125 508.050781 C 383.328125 508.050781 383.328125 513.699219 380.339844 516.359375 C 380.339844 516.359375 377.359375 519 371.03125 519 L 364.941406 519 Z M 390.480469 497.121094 L 390.480469 505.269531 L 387.988281 505.269531 L 387.988281 497.121094 Z M 390.480469 497.121094 "/>
<path style=" stroke:none;fill-rule:nonzero;fill:rgb(0%,0%,0%);fill-opacity:1;" d="M 415.699219 452.25 C 415.699219 452.25 415.628906 448.480469 414.828125 446.578125 C 414.828125 446.578125 413.941406 444.449219 412.199219 444.449219 C 412.199219 444.449219 410.480469 444.449219 409.589844 446.578125 C 409.589844 446.578125 408.808594 448.480469 408.730469 452.25 Z M 415.699219 453.5 L 408.730469 453.5 C 408.730469 453.5 408.808594 457.230469 409.609375 459.160156 C 409.609375 459.160156 410.5 461.28125 412.199219 461.28125 C 412.199219 461.28125 413.941406 461.28125 414.828125 459.160156 C 414.828125 459.160156 415.628906 457.230469 415.699219 453.5 Z M 412.199219 443.5 C 412.199219 443.5 414.941406 443.5 416.578125 446.058594 C 416.578125 446.058594 418.230469 448.621094 418.230469 452.871094 C 418.230469 452.871094 418.230469 457.121094 416.578125 459.699219 C 416.578125 459.699219 414.921875 462.269531 412.199219 462.269531 C 412.199219 462.269531 409.5 462.269531 407.839844 459.699219 C 407.839844 459.699219 406.199219 457.121094 406.199219 452.871094 C 406.199219 452.871094 406.199219 448.621094 407.839844 446.058594 C 407.839844 446.058594 409.480469 443.5 412.199219 443.5 Z M 412.199219 443.5 "/>
</g>
</svg>
