<?xml version="1.0" encoding="UTF-8"?>
<svg xmlns="http://www.w3.org/2000/svg" xmlns:xlink="http://www.w3.org/1999/xlink" width="1366pt" height="565pt" viewBox="0 0 1366 565" version="1.1">
<g id="surface1">
<path style=" stroke:none;fill-rule:nonzero;fill:rgb(0%,0%,100%);fill-opacity:0.93725;" d="M 414.328125 492.820312 C 414.378906 484.429688 409.648438 476.738281 402.140625 473 C 394.628906 469.25 385.648438 470.109375 378.980469 475.199219 L 392.328125 492.691406 Z M 414.328125 492.820312 "/>
<path style=" stroke:none;fill-rule:nonzero;fill:rgb(100%,100%,100%);fill-opacity:0.29804;" d="M 412.328125 492.800781 C 412.371094 485.179688 408.078125 478.191406 401.25 474.789062 C 394.429688 471.378906 386.261719 472.160156 380.199219 476.789062 L 392.328125 492.691406 Z M 412.328125 492.800781 "/>
<path style="fill:none;stroke-width:3;stroke-linecap:round;stroke-linejoin:round;stroke:rgb(0%,0%,100%);stroke-opacity:1;stroke-miterlimit:10;" d="M 746.71875 69.738281 L 95.351562 461.589844 " transform="matrix(1,0,0,-1,0,565)"/>
<path style="fill:none;stroke-width:3;stroke-linecap:round;stroke-linejoin:round;stroke:rgb(0%,0%,100%);stroke-opacity:1;stroke-miterlimit:10;" d="M 220.5 72.820312 L 95.351562 461.589844 " transform="matrix(1,0,0,-1,0,565)"/>
<path style="fill:none;stroke-width:3;stroke-linecap:round;stroke-linejoin:round;stroke:rgb(0%,0%,100%);stroke-opacity:1;stroke-miterlimit:10;" d="M 746.71875 69.738281 L 220.5 72.820312 " transform="matrix(1,0,0,-1,0,565)"/>
<path style="fill:none;stroke-width:3;stroke-linecap:round;stroke-linejoin:round;stroke:rgb(0%,0%,100%);stroke-opacity:1;stroke-miterlimit:10;" d="M 392.828125 71.808594 L 95.351562 461.589844 " transform="matrix(1,0,0,-1,0,565)"/>
<path style="fill-rule:nonzero;fill:rgb(100%,0%,0%);fill-opacity:1;stroke-width:1;stroke-linecap:square;stroke-linejoin:miter;stroke:rgb(0%,0%,0%);stroke-opacity:1;stroke-miterlimit:10;" d="M 100.351562 461.589844 C 100.351562 458.828125 98.109375 456.589844 95.351562 456.589844 C 92.589844 456.589844 90.351562 458.828125 90.351562 461.589844 C 90.351562 464.351562 92.589844 466.589844 95.351562 466.589844 C 98.109375 466.589844 100.351562 464.351562 100.351562 461.589844 Z M 100.351562 461.589844 " transform="matrix(1,0,0,-1,0,565)"/>
<path style="fill-rule:nonzero;fill:rgb(100%,0%,0%);fill-opacity:1;stroke-width:1;stroke-linecap:square;stroke-linejoin:miter;stroke:rgb(0%,0%,0%);stroke-opacity:1;stroke-miterlimit:10;" d="M 751.71875 69.738281 C 751.71875 66.980469 749.488281 64.738281 746.71875 64.738281 C 743.960938 64.738281 741.71875 66.980469 741.71875 69.738281 C 741.71875 72.5 743.960938 74.738281 746.71875 74.738281 C 749.488281 74.738281 751.71875 72.5 751.71875 69.738281 Z M 751.71875 69.738281 " transform="matrix(1,0,0,-1,0,565)"/>
<path style="fill-rule:nonzero;fill:rgb(100%,0%,0%);fill-opacity:1;stroke-width:1;stroke-linecap:square;stroke-linejoin:miter;stroke:rgb(0%,0%,0%);stroke-opacity:1;stroke-miterlimit:10;" d="M 225.5 72.820312 C 225.5 70.058594 223.261719 67.820312 220.5 67.820312 C 217.738281 67.820312 215.5 70.058594 215.5 72.820312 C 215.5 75.578125 217.738281 77.820312 220.5 77.820312 C 223.261719 77.820312 225.5 75.578125 225.5 72.820312 Z M 225.5 72.820312 " transform="matrix(1,0,0,-1,0,565)"/>
<path style="fill-rule:nonzero;fill:rgb(100%,0%,0%);fill-opacity:1;stroke-width:1;stroke-linecap:square;stroke-linejoin:miter;stroke:rgb(0%,0%,0%);stroke-opacity:1;stroke-miterlimit:10;" d="M 397.828125 71.808594 C 397.828125 69.050781 395.589844 66.808594 392.828125 66.808594 C 390.070312 66.808594 387.828125 69.050781 387.828125 71.808594 C 387.828125 74.570312 390.070312 76.808594 392.828125 76.808594 C 395.589844 76.808594 397.828125 74.570312 397.828125 71.808594 Z M 397.828125 71.808594 " transform="matrix(1,0,0,-1,0,565)"/>
<path style=" stroke:none;fill-rule:nonzero;fill:rgb(0%,0%,0%);fill-opacity:1;" d="M 73.25 69.050781 L 69.230469 79.921875 L 77.28125 79.921875 Z M 71.578125 66.121094 L 74.941406 66.121094 L 83.28125 88 L 80.199219 88 L 78.199219 82.390625 L 68.339844 82.390625 L 66.359375 88 L 63.230469 88 Z M 71.578125 66.121094 "/>
<path style=" stroke:none;fill-rule:nonzero;fill:rgb(0%,0%,0%);fill-opacity:1;" d="M 786.328125 499.808594 L 786.328125 502.941406 C 786.328125 502.941406 784.828125 501.550781 783.128906 500.859375 C 783.128906 500.859375 781.441406 500.171875 779.550781 500.171875 C 779.550781 500.171875 775.800781 500.171875 773.800781 502.46875 C 773.800781 502.46875 771.808594 504.75 771.808594 509.089844 C 771.808594 509.089844 771.808594 513.410156 773.800781 515.699219 C 773.800781 515.699219 775.800781 518 779.550781 518 C 779.550781 518 781.441406 518 783.128906 517.308594 C 783.128906 517.308594 784.828125 516.609375 786.328125 515.21875 L 786.328125 518.308594 C 786.328125 518.308594 784.769531 519.371094 783.03125 519.910156 C 783.03125 519.910156 781.300781 520.421875 779.359375 520.421875 C 779.359375 520.421875 774.390625 520.421875 771.53125 517.390625 C 771.53125 517.390625 768.691406 514.339844 768.691406 509.089844 C 768.691406 509.089844 768.691406 503.808594 771.53125 500.78125 C 771.53125 500.78125 774.390625 497.730469 779.359375 497.730469 C 779.359375 497.730469 781.328125 497.730469 783.058594 498.269531 C 783.058594 498.269531 784.800781 498.78125 786.328125 499.808594 Z M 786.328125 499.808594 "/>
<path style=" stroke:none;fill-rule:nonzero;fill:rgb(0%,0%,0%);fill-opacity:1;" d="M 187.910156 510.558594 L 187.910156 518.558594 L 192.660156 518.558594 C 192.660156 518.558594 195.03125 518.558594 196.191406 517.578125 C 196.191406 517.578125 197.339844 516.589844 197.339844 514.550781 C 197.339844 514.550781 197.339844 512.5 196.191406 511.53125 C 196.191406 511.53125 195.03125 510.558594 192.660156 510.558594 Z M 187.910156 501.558594 L 187.910156 508.160156 L 192.28125 508.160156 C 192.28125 508.160156 194.449219 508.160156 195.519531 507.339844 C 195.519531 507.339844 196.578125 506.53125 196.578125 504.859375 C 196.578125 504.859375 196.578125 503.199219 195.519531 502.390625 C 195.519531 502.390625 194.449219 501.558594 192.28125 501.558594 Z M 184.941406 499.121094 L 192.5 499.121094 C 192.5 499.121094 195.890625 499.121094 197.71875 500.53125 C 197.71875 500.53125 199.550781 501.941406 199.550781 504.53125 C 199.550781 504.53125 199.550781 506.550781 198.609375 507.730469 C 198.609375 507.730469 197.671875 508.921875 195.859375 509.199219 C 195.859375 509.199219 198.050781 509.671875 199.25 511.171875 C 199.25 511.171875 200.449219 512.660156 200.449219 514.871094 C 200.449219 514.871094 200.449219 517.808594 198.449219 519.410156 C 198.449219 519.410156 196.46875 521 192.800781 521 L 184.941406 521 Z M 184.941406 499.121094 "/>
<path style=" stroke:none;fill-rule:nonzero;fill:rgb(0%,0%,0%);fill-opacity:1;" d="M 384.910156 512.558594 L 384.910156 529.558594 L 388.480469 529.558594 C 388.480469 529.558594 393 529.558594 395.089844 527.519531 C 395.089844 527.519531 397.199219 525.46875 397.199219 521.050781 C 397.199219 521.050781 397.199219 516.640625 395.089844 514.609375 C 395.089844 514.609375 393 512.558594 388.480469 512.558594 Z M 381.941406 510.121094 L 388.03125 510.121094 C 388.03125 510.121094 394.378906 510.121094 397.339844 512.78125 C 397.339844 512.78125 400.328125 515.421875 400.328125 521.050781 C 400.328125 521.050781 400.328125 526.699219 397.339844 529.359375 C 397.339844 529.359375 394.359375 532 388.03125 532 L 381.941406 532 Z M 407.480469 510.121094 L 407.480469 518.269531 L 404.988281 518.269531 L 404.988281 510.121094 Z M 407.480469 510.121094 "/>
<path style=" stroke:none;fill-rule:nonzero;fill:rgb(0%,0%,0%);fill-opacity:1;" d="M 424.699219 450.25 C 424.699219 450.25 424.628906 446.480469 423.828125 444.578125 C 423.828125 444.578125 422.941406 442.449219 421.199219 442.449219 C 421.199219 442.449219 419.480469 442.449219 418.589844 444.578125 C 418.589844 444.578125 417.808594 446.480469 417.730469 450.25 Z M 424.699219 451.5 L 417.730469 451.5 C 417.730469 451.5 417.808594 455.230469 418.609375 457.160156 C 418.609375 457.160156 419.5 459.28125 421.199219 459.28125 C 421.199219 459.28125 422.941406 459.28125 423.828125 457.160156 C 423.828125 457.160156 424.628906 455.230469 424.699219 451.5 Z M 421.199219 441.5 C 421.199219 441.5 423.941406 441.5 425.578125 444.058594 C 425.578125 444.058594 427.230469 446.621094 427.230469 450.871094 C 427.230469 450.871094 427.230469 455.121094 425.578125 457.699219 C 425.578125 457.699219 423.921875 460.269531 421.199219 460.269531 C 421.199219 460.269531 418.5 460.269531 416.839844 457.699219 C 416.839844 457.699219 415.199219 455.121094 415.199219 450.871094 C 415.199219 450.871094 415.199219 446.621094 416.839844 444.058594 C 416.839844 444.058594 418.480469 441.5 421.199219 441.5 Z M 421.199219 441.5 "/>
</g>
</svg>
