<?xml version="1.0" encoding="UTF-8"?>
<svg xmlns="http://www.w3.org/2000/svg" xmlns:xlink="http://www.w3.org/1999/xlink" width="1366pt" height="565pt" viewBox="0 0 1366 565" version="1.1">
<g id="surface1">
<path style=" stroke:none;fill-rule:nonzero;fill:rgb(0%,0%,100%);fill-opacity:0.8;" d="M 340.308594 481.898438 C 340.289062 475.601562 337.558594 469.609375 332.828125 465.460938 L 318.308594 481.988281 Z M 340.308594 481.898438 "/>
<path style=" stroke:none;fill-rule:nonzero;fill:rgb(100%,100%,100%);fill-opacity:0.29804;" d="M 338.308594 481.910156 C 338.289062 476.179688 335.808594 470.738281 331.511719 466.960938 L 318.308594 481.988281 Z M 338.308594 481.910156 "/>
<path style="fill:none;stroke-width:3;stroke-linecap:round;stroke-linejoin:round;stroke:rgb(0%,0%,100%);stroke-opacity:1;stroke-miterlimit:10;" d="M 75.5 81.5 L 679.5 493.5 " transform="matrix(1,0,0,-1,0,565)"/>
<path style="fill:none;stroke-width:3;stroke-linecap:round;stroke-linejoin:round;stroke:rgb(0%,0%,100%);stroke-opacity:1;stroke-miterlimit:10;" d="M 557.5 83.5 L 75.5 81.5 " transform="matrix(1,0,0,-1,0,565)"/>
<path style="fill:none;stroke-width:3;stroke-linecap:round;stroke-linejoin:round;stroke:rgb(0%,0%,100%);stroke-opacity:1;stroke-miterlimit:10;" d="M 557.5 83.5 L 679.5 493.5 " transform="matrix(1,0,0,-1,0,565)"/>
<path style="fill:none;stroke-width:3;stroke-linecap:round;stroke-linejoin:round;stroke:rgb(0%,0%,100%);stroke-opacity:1;stroke-miterlimit:10;" d="M 318.808594 82.511719 L 679.5 493.5 " transform="matrix(1,0,0,-1,0,565)"/>
<path style="fill-rule:nonzero;fill:rgb(100%,0%,0%);fill-opacity:1;stroke-width:1;stroke-linecap:square;stroke-linejoin:miter;stroke:rgb(0%,0%,0%);stroke-opacity:1;stroke-miterlimit:10;" d="M 684.5 493.5 C 684.5 490.738281 682.261719 488.5 679.5 488.5 C 676.738281 488.5 674.5 490.738281 674.5 493.5 C 674.5 496.261719 676.738281 498.5 679.5 498.5 C 682.261719 498.5 684.5 496.261719 684.5 493.5 Z M 684.5 493.5 " transform="matrix(1,0,0,-1,0,565)"/>
<path style="fill-rule:nonzero;fill:rgb(100%,0%,0%);fill-opacity:1;stroke-width:1;stroke-linecap:square;stroke-linejoin:miter;stroke:rgb(0%,0%,0%);stroke-opacity:1;stroke-miterlimit:10;" d="M 80.5 81.5 C 80.5 78.738281 78.261719 76.5 75.5 76.5 C 72.738281 76.5 70.5 78.738281 70.5 81.5 C 70.5 84.261719 72.738281 86.5 75.5 86.5 C 78.261719 86.5 80.5 84.261719 80.5 81.5 Z M 80.5 81.5 " transform="matrix(1,0,0,-1,0,565)"/>
<path style="fill-rule:nonzero;fill:rgb(100%,0%,0%);fill-opacity:1;stroke-width:1;stroke-linecap:square;stroke-linejoin:miter;stroke:rgb(0%,0%,0%);stroke-opacity:1;stroke-miterlimit:10;" d="M 562.5 83.5 C 562.5 80.738281 560.261719 78.5 557.5 78.5 C 554.738281 78.5 552.5 80.738281 552.5 83.5 C 552.5 86.261719 554.738281 88.5 557.5 88.5 C 560.261719 88.5 562.5 86.261719 562.5 83.5 Z M 562.5 83.5 " transform="matrix(1,0,0,-1,0,565)"/>
<path style="fill-rule:nonzero;fill:rgb(100%,0%,0%);fill-opacity:1;stroke-width:1;stroke-linecap:square;stroke-linejoin:miter;stroke:rgb(0%,0%,0%);stroke-opacity:1;stroke-miterlimit:10;" d="M 323.808594 82.511719 C 323.808594 79.75 321.578125 77.511719 318.808594 77.511719 C 316.050781 77.511719 313.808594 79.75 313.808594 82.511719 C 313.808594 85.269531 316.050781 87.511719 318.808594 87.511719 C 321.578125 87.511719 323.808594 85.269531 323.808594 82.511719 Z M 323.808594 82.511719 " transform="matrix(1,0,0,-1,0,565)"/>
<path style=" stroke:none;fill-rule:nonzero;fill:rgb(0%,0%,0%);fill-opacity:1;" d="M 707.25 41.050781 L 703.230469 51.921875 L 711.28125 51.921875 Z M 705.578125 38.121094 L 708.941406 38.121094 L 717.28125 60 L 714.199219 60 L 712.199219 54.390625 L 702.339844 54.390625 L 700.359375 60 L 697.230469 60 Z M 705.578125 38.121094 "/>
<path style=" stroke:none;fill-rule:nonzero;fill:rgb(0%,0%,0%);fill-opacity:1;" d="M 42.910156 502.558594 L 42.910156 510.558594 L 47.660156 510.558594 C 47.660156 510.558594 50.03125 510.558594 51.191406 509.578125 C 51.191406 509.578125 52.339844 508.589844 52.339844 506.550781 C 52.339844 506.550781 52.339844 504.5 51.191406 503.53125 C 51.191406 503.53125 50.03125 502.558594 47.660156 502.558594 Z M 42.910156 493.558594 L 42.910156 500.160156 L 47.28125 500.160156 C 47.28125 500.160156 49.449219 500.160156 50.519531 499.339844 C 50.519531 499.339844 51.578125 498.53125 51.578125 496.859375 C 51.578125 496.859375 51.578125 495.199219 50.519531 494.390625 C 50.519531 494.390625 49.449219 493.558594 47.28125 493.558594 Z M 39.941406 491.121094 L 47.5 491.121094 C 47.5 491.121094 50.890625 491.121094 52.71875 492.53125 C 52.71875 492.53125 54.550781 493.941406 54.550781 496.53125 C 54.550781 496.53125 54.550781 498.550781 53.609375 499.730469 C 53.609375 499.730469 52.671875 500.921875 50.859375 501.199219 C 50.859375 501.199219 53.050781 501.671875 54.25 503.171875 C 54.25 503.171875 55.449219 504.660156 55.449219 506.871094 C 55.449219 506.871094 55.449219 509.808594 53.449219 511.410156 C 53.449219 511.410156 51.46875 513 47.800781 513 L 39.941406 513 Z M 39.941406 491.121094 "/>
<path style=" stroke:none;fill-rule:nonzero;fill:rgb(0%,0%,0%);fill-opacity:1;" d="M 597.328125 485.808594 L 597.328125 488.941406 C 597.328125 488.941406 595.828125 487.550781 594.128906 486.859375 C 594.128906 486.859375 592.441406 486.171875 590.550781 486.171875 C 590.550781 486.171875 586.800781 486.171875 584.800781 488.46875 C 584.800781 488.46875 582.808594 490.75 582.808594 495.089844 C 582.808594 495.089844 582.808594 499.410156 584.800781 501.699219 C 584.800781 501.699219 586.800781 504 590.550781 504 C 590.550781 504 592.441406 504 594.128906 503.308594 C 594.128906 503.308594 595.828125 502.609375 597.328125 501.21875 L 597.328125 504.308594 C 597.328125 504.308594 595.769531 505.371094 594.03125 505.910156 C 594.03125 505.910156 592.300781 506.421875 590.359375 506.421875 C 590.359375 506.421875 585.390625 506.421875 582.53125 503.390625 C 582.53125 503.390625 579.691406 500.339844 579.691406 495.089844 C 579.691406 495.089844 579.691406 489.808594 582.53125 486.78125 C 582.53125 486.78125 585.390625 483.730469 590.359375 483.730469 C 590.359375 483.730469 592.328125 483.730469 594.058594 484.269531 C 594.058594 484.269531 595.800781 484.78125 597.328125 485.808594 Z M 597.328125 485.808594 "/>
<path style=" stroke:none;fill-rule:nonzero;fill:rgb(0%,0%,0%);fill-opacity:1;" d="M 310.910156 503.558594 L 310.910156 520.558594 L 314.480469 520.558594 C 314.480469 520.558594 319 520.558594 321.089844 518.519531 C 321.089844 518.519531 323.199219 516.46875 323.199219 512.050781 C 323.199219 512.050781 323.199219 507.640625 321.089844 505.609375 C 321.089844 505.609375 319 503.558594 314.480469 503.558594 Z M 307.941406 501.121094 L 314.03125 501.121094 C 314.03125 501.121094 320.378906 501.121094 323.339844 503.78125 C 323.339844 503.78125 326.328125 506.421875 326.328125 512.050781 C 326.328125 512.050781 326.328125 517.699219 323.339844 520.359375 C 323.339844 520.359375 320.359375 523 314.03125 523 L 307.941406 523 Z M 333.480469 501.121094 L 333.480469 509.269531 L 330.988281 509.269531 L 330.988281 501.121094 Z M 333.480469 501.121094 "/>
<path style=" stroke:none;fill-rule:nonzero;fill:rgb(0%,0%,0%);fill-opacity:1;" d="M 363.699219 460.25 C 363.699219 460.25 363.628906 456.480469 362.828125 454.578125 C 362.828125 454.578125 361.941406 452.449219 360.199219 452.449219 C 360.199219 452.449219 358.480469 452.449219 357.589844 454.578125 C 357.589844 454.578125 356.808594 456.480469 356.730469 460.25 Z M 363.699219 461.5 L 356.730469 461.5 C 356.730469 461.5 356.808594 465.230469 357.609375 467.160156 C 357.609375 467.160156 358.5 469.28125 360.199219 469.28125 C 360.199219 469.28125 361.941406 469.28125 362.828125 467.160156 C 362.828125 467.160156 363.628906 465.230469 363.699219 461.5 Z M 360.199219 451.5 C 360.199219 451.5 362.941406 451.5 364.578125 454.058594 C 364.578125 454.058594 366.230469 456.621094 366.230469 460.871094 C 366.230469 460.871094 366.230469 465.121094 364.578125 467.699219 C 364.578125 467.699219 362.921875 470.269531 360.199219 470.269531 C 360.199219 470.269531 357.5 470.269531 355.839844 467.699219 C 355.839844 467.699219 354.199219 465.121094 354.199219 460.871094 C 354.199219 460.871094 354.199219 456.621094 355.839844 454.058594 C 355.839844 454.058594 357.480469 451.5 360.199219 451.5 Z M 360.199219 451.5 "/>
</g>
</svg>
