<svg version="1.1" xmlns="http://www.w3.org/2000/svg" xmlns:xlink="http://www.w3.org/1999/xlink" width="1310" height="605"><defs><clipPath id="SntxBAraouGN"><path fill="none" stroke="none" d=" M 0 0 L 1310 0 L 1310 605 L 0 605 L 0 0 Z"/></clipPath></defs><g transform="scale(1,1)" clip-path="url(#SntxBAraouGN)"><g><rect fill="rgb(255,255,255)" stroke="none" x="0" y="0" width="1310" height="605" fill-opacity="1"/><path fill="none" stroke="rgb(0,0,0)" paint-order="fill stroke markers" d=" M 886.7199999999996 302.7250000000001 C 886.7199999999996 436.37790945905203 778.3729094590517 544.7250000000001 644.7199999999998 544.7250000000001 C 511.06709054094796 544.7250000000001 402.72 436.37790945905203 402.72 302.7250000000001 C 402.72 169.07209054094804 511.06709054094796 60.724999999999994 644.7199999999998 60.724999999999994 C 778.3729094590517 60.724999999999994 886.7199999999996 169.07209054094804 886.7199999999996 302.7250000000001 Z" stroke-opacity="0.6980392156862745" stroke-linecap="round" stroke-linejoin="round" stroke-miterlimit="10" stroke-width="2.5"/><g transform="scale(27,27)"><g transform="translate(17.962962962962962,3.5925925925925926)"><path fill="rgb(0,0,0)" stroke="none" paint-order="stroke fill markers" d=" M 0.677 -0.162 L 0.677 -0.162 L 0.644 0 L 0.485 0 Q 0.463 0 0.46 -0.007 Q 0.459 -0.011 0.459 -0.021 Q 0.459 -0.09 0.506 -0.222 Q 0.555 -0.36 0.561 -0.425 Q 0.562 -0.44 0.562 -0.455 Q 0.562 -0.587 0.47000000000000003 -0.649 Q 0.42 -0.683 0.36 -0.683 Q 0.275 -0.683 0.216 -0.62 L 0.216 -0.619 Q 0.159 -0.557 0.159 -0.455 Q 0.159 -0.378 0.20800000000000002 -0.243 Q 0.262 -0.093 0.262 -0.021 Q 0.262 -0.004 0.255 -0.001 L 0.255 -0.001 L 0.254 -0.001 Q 0.25 0 0.23700000000000002 0 L 0.077 0 L 0.044 -0.162 L 0.069 -0.162 Q 0.079 -0.11 0.08700000000000001 -0.088 Q 0.092 -0.073 0.105 -0.069 Q 0.11800000000000001 -0.065 0.153 -0.065 L 0.233 -0.065 Q 0.22 -0.12 0.159 -0.212 L 0.153 -0.222 Q 0.15 -0.226 0.14400000000000002 -0.23500000000000001 Q 0.07200000000000001 -0.343 0.06 -0.41200000000000003 Q 0.056 -0.433 0.056 -0.454 Q 0.056 -0.558 0.145 -0.631 Q 0.233 -0.705 0.361 -0.705 Q 0.496 -0.705 0.586 -0.623 Q 0.665 -0.552 0.665 -0.454 Q 0.665 -0.373 0.595 -0.262 L 0.595 -0.262 L 0.594 -0.261 L 0.593 -0.26 L 0.577 -0.23500000000000001 Q 0.509 -0.135 0.493 -0.083 Q 0.49 -0.074 0.488 -0.065 L 0.5680000000000001 -0.065 Q 0.623 -0.065 0.631 -0.08 L 0.634 -0.089 Q 0.642 -0.111 0.652 -0.162 L 0.677 -0.162 Z"/></g></g><path fill="none" stroke="rgb(0,0,0)" paint-order="fill stroke markers" d=" M 840.1197349919696 302.7250000000001 C 840.1197349919696 410.6412937570435 752.6362937570432 498.12473499197006 644.7199999999998 498.12473499197006 C 536.8037062429565 498.12473499197006 449.3202650080301 410.6412937570435 449.3202650080301 302.7250000000001 C 449.3202650080301 194.80870624295665 536.8037062429565 107.32526500803013 644.7199999999998 107.32526500803013 C 752.6362937570432 107.32526500803013 840.1197349919696 194.80870624295665 840.1197349919696 302.7250000000001 Z" stroke-opacity="0.6980392156862745" stroke-linecap="round" stroke-linejoin="round" stroke-miterlimit="10" stroke-width="2.5"/><g transform="scale(27,27)"><g transform="translate(20.25925925925926,5.8379624074074075)"><path fill="rgb(0,0,0)" stroke="none" paint-order="stroke fill markers" d=" M 0.264 -0.082 Q 0.201 0.011 0.11900000000000001 0.011 Q 0.032 0.011 0.016 -0.089 Q 0.013000000000000001 -0.109 0.013000000000000001 -0.131 Q 0.013000000000000001 -0.22 0.051000000000000004 -0.311 Q 0.082 -0.382 0.112 -0.419 Q 0.122 -0.431 0.127 -0.431 Q 0.139 -0.431 0.139 -0.419 Q 0.139 -0.41400000000000003 0.129 -0.4 Q 0.045 -0.28 0.045 -0.17500000000000002 Q 0.045 -0.08 0.109 -0.064 Q 0.12 -0.061 0.133 -0.061 Q 0.201 -0.061 0.257 -0.138 Q 0.264 -0.145 0.266 -0.165 Q 0.276 -0.23800000000000002 0.28700000000000003 -0.266 Q 0.3 -0.291 0.315 -0.291 Q 0.334 -0.291 0.336 -0.268 Q 0.336 -0.24 0.308 -0.168 Q 0.306 -0.161 0.303 -0.155 Q 0.297 -0.14400000000000002 0.297 -0.139 Q 0.297 -0.111 0.317 -0.084 Q 0.335 -0.061 0.372 -0.061 Q 0.449 -0.061 0.511 -0.14400000000000002 Q 0.562 -0.214 0.562 -0.28 Q 0.562 -0.331 0.527 -0.367 Q 0.512 -0.38 0.512 -0.394 Q 0.512 -0.419 0.539 -0.435 Q 0.55 -0.442 0.562 -0.442 Q 0.599 -0.442 0.604 -0.388 Q 0.605 -0.377 0.605 -0.371 Q 0.605 -0.307 0.5750000000000001 -0.213 Q 0.55 -0.136 0.511 -0.082 Q 0.443 0.011 0.358 0.011 Q 0.277 0.011 0.264 -0.082 Z"/></g></g><path fill="rgb(0,0,0)" stroke="none" paint-order="stroke fill markers" fill-rule="evenodd" d=" M 644.7199999999998 498.12473499197006 L 665.9332034355948 498.12473499197006 L 665.9332034355962 476.9115315563736 L 644.7199999999998 476.91153155637505 L 644.7199999999998 498.12473499197006" fill-opacity="0.09803921568627451"/><path fill="none" stroke="rgb(0,0,0)" paint-order="fill stroke markers" d=" M 644.7199999999998 498.12473499197006 L 665.9332034355948 498.12473499197006 L 665.9332034355962 476.9115315563736 L 644.7199999999998 476.91153155637505 L 644.7199999999998 498.12473499197006" stroke-opacity="0.6" stroke-linecap="round" stroke-linejoin="round" stroke-miterlimit="10" stroke-width="2.5"/><path fill="none" stroke="rgb(0,0,0)" paint-order="fill stroke markers" d=" M 644.7199999999998 302.7250000000001 L 501.95115338048015 498.12473499196994" stroke-opacity="0.6980392156862745" stroke-linecap="round" stroke-linejoin="round" stroke-miterlimit="10" stroke-width="2.5"/><path fill="none" stroke="rgb(0,0,0)" paint-order="fill stroke markers" d=" M 644.7199999999998 302.7250000000001 L 787.4888466195194 498.12473499197" stroke-opacity="0.6980392156862745" stroke-linecap="round" stroke-linejoin="round" stroke-miterlimit="10" stroke-width="2.5"/><path fill="none" stroke="rgb(0,0,0)" paint-order="fill stroke markers" d=" M 501.95115338048015 498.12473499196994 L 787.4888466195194 498.12473499197" stroke-opacity="0.6980392156862745" stroke-linecap="round" stroke-linejoin="round" stroke-miterlimit="10" stroke-width="2.5"/><path fill="none" stroke="rgb(0,0,0)" paint-order="fill stroke markers" d=" M 501.95115338048015 498.12473499196994 L 415.1737458798134 226.09264900258705" stroke-opacity="0.6980392156862745" stroke-linecap="round" stroke-linejoin="round" stroke-miterlimit="10" stroke-width="2.5"/><path fill="none" stroke="rgb(0,0,0)" paint-order="fill stroke markers" d=" M 787.4888466195194 498.12473499197 L 874.2662541201862 226.09264900258714" stroke-opacity="0.6980392156862745" stroke-linecap="round" stroke-linejoin="round" stroke-miterlimit="10" stroke-width="2.5"/><path fill="none" stroke="rgb(0,0,0)" paint-order="fill stroke markers" d=" M 644.7199999999998 302.7250000000001 L 644.7199999999998 498.12473499197006" stroke-opacity="0.6980392156862745" stroke-linejoin="round" stroke-miterlimit="10" stroke-width="2.5" stroke-dasharray="10.5,8"/><path fill="rgb(211,47,47)" stroke="none" paint-order="stroke fill markers" d=" M 649.7199999999998 302.7250000000001 C 649.7199999999998 305.486423749154 647.4814237491538 307.7250000000001 644.7199999999998 307.7250000000001 C 641.9585762508458 307.7250000000001 639.7199999999998 305.486423749154 639.7199999999998 302.7250000000001 C 639.7199999999998 299.96357625084613 641.9585762508458 297.7250000000001 644.7199999999998 297.7250000000001 C 647.4814237491538 297.7250000000001 649.7199999999998 299.96357625084613 649.7199999999998 302.7250000000001 Z" fill-opacity="1"/><path fill="none" stroke="rgb(0,0,0)" paint-order="fill stroke markers" d=" M 649.7199999999998 302.7250000000001 C 649.7199999999998 305.486423749154 647.4814237491538 307.7250000000001 644.7199999999998 307.7250000000001 C 641.9585762508458 307.7250000000001 639.7199999999998 305.486423749154 639.7199999999998 302.7250000000001 C 639.7199999999998 299.96357625084613 641.9585762508458 297.7250000000001 644.7199999999998 297.7250000000001 C 647.4814237491538 297.7250000000001 649.7199999999998 299.96357625084613 649.7199999999998 302.7250000000001 Z" stroke-opacity="1" stroke-linecap="round" stroke-linejoin="round" stroke-miterlimit="10"/><path fill="rgb(21,101,192)" stroke="none" paint-order="stroke fill markers" d=" M 506.95115338048015 498.12473499196994 C 506.95115338048015 500.8861587411239 504.7125771296341 503.12473499196994 501.95115338048015 503.12473499196994 C 499.1897296313262 503.12473499196994 496.95115338048015 500.8861587411239 496.95115338048015 498.12473499196994 C 496.95115338048015 495.363311242816 499.1897296313262 493.12473499196994 501.95115338048015 493.12473499196994 C 504.7125771296341 493.12473499196994 506.95115338048015 495.363311242816 506.95115338048015 498.12473499196994 Z" fill-opacity="1"/><path fill="none" stroke="rgb(0,0,0)" paint-order="fill stroke markers" d=" M 506.95115338048015 498.12473499196994 C 506.95115338048015 500.8861587411239 504.7125771296341 503.12473499196994 501.95115338048015 503.12473499196994 C 499.1897296313262 503.12473499196994 496.95115338048015 500.8861587411239 496.95115338048015 498.12473499196994 C 496.95115338048015 495.363311242816 499.1897296313262 493.12473499196994 501.95115338048015 493.12473499196994 C 504.7125771296341 493.12473499196994 506.95115338048015 495.363311242816 506.95115338048015 498.12473499196994 Z" stroke-opacity="1" stroke-linecap="round" stroke-linejoin="round" stroke-miterlimit="10"/><path fill="rgb(97,97,97)" stroke="none" paint-order="stroke fill markers" d=" M 649.7199999999998 302.7250000000001 C 649.7199999999998 305.486423749154 647.4814237491538 307.7250000000001 644.7199999999998 307.7250000000001 C 641.9585762508458 307.7250000000001 639.7199999999998 305.486423749154 639.7199999999998 302.7250000000001 C 639.7199999999998 299.96357625084613 641.9585762508458 297.7250000000001 644.7199999999998 297.7250000000001 C 647.4814237491538 297.7250000000001 649.7199999999998 299.96357625084613 649.7199999999998 302.7250000000001 Z" fill-opacity="1"/><path fill="none" stroke="rgb(0,0,0)" paint-order="fill stroke markers" d=" M 649.7199999999998 302.7250000000001 C 649.7199999999998 305.486423749154 647.4814237491538 307.7250000000001 644.7199999999998 307.7250000000001 C 641.9585762508458 307.7250000000001 639.7199999999998 305.486423749154 639.7199999999998 302.7250000000001 C 639.7199999999998 299.96357625084613 641.9585762508458 297.7250000000001 644.7199999999998 297.7250000000001 C 647.4814237491538 297.7250000000001 649.7199999999998 299.96357625084613 649.7199999999998 302.7250000000001 Z" stroke-opacity="1" stroke-linecap="round" stroke-linejoin="round" stroke-miterlimit="10"/><path fill="rgb(21,101,192)" stroke="none" paint-order="stroke fill markers" d=" M 792.4888466195194 498.12473499197 C 792.4888466195194 500.88615874112395 790.2502703686735 503.12473499197 787.4888466195194 503.12473499197 C 784.7274228703654 503.12473499197 782.4888466195194 500.88615874112395 782.4888466195194 498.12473499197 C 782.4888466195194 495.36331124281605 784.7274228703654 493.12473499197 787.4888466195194 493.12473499197 C 790.2502703686735 493.12473499197 792.4888466195194 495.36331124281605 792.4888466195194 498.12473499197 Z" fill-opacity="1"/><path fill="none" stroke="rgb(0,0,0)" paint-order="fill stroke markers" d=" M 792.4888466195194 498.12473499197 C 792.4888466195194 500.88615874112395 790.2502703686735 503.12473499197 787.4888466195194 503.12473499197 C 784.7274228703654 503.12473499197 782.4888466195194 500.88615874112395 782.4888466195194 498.12473499197 C 782.4888466195194 495.36331124281605 784.7274228703654 493.12473499197 787.4888466195194 493.12473499197 C 790.2502703686735 493.12473499197 792.4888466195194 495.36331124281605 792.4888466195194 498.12473499197 Z" stroke-opacity="1" stroke-linecap="round" stroke-linejoin="round" stroke-miterlimit="10"/><path fill="rgb(46,125,50)" stroke="none" paint-order="stroke fill markers" d=" M 649.7199999999998 498.12473499197006 C 649.7199999999998 500.886158741124 647.4814237491538 503.12473499197006 644.7199999999998 503.12473499197006 C 641.9585762508458 503.12473499197006 639.7199999999998 500.886158741124 639.7199999999998 498.12473499197006 C 639.7199999999998 495.3633112428161 641.9585762508458 493.12473499197006 644.7199999999998 493.12473499197006 C 647.4814237491538 493.12473499197006 649.7199999999998 495.3633112428161 649.7199999999998 498.12473499197006 Z" fill-opacity="1"/><path fill="none" stroke="rgb(0,0,0)" paint-order="fill stroke markers" d=" M 649.7199999999998 498.12473499197006 C 649.7199999999998 500.886158741124 647.4814237491538 503.12473499197006 644.7199999999998 503.12473499197006 C 641.9585762508458 503.12473499197006 639.7199999999998 500.886158741124 639.7199999999998 498.12473499197006 C 639.7199999999998 495.3633112428161 641.9585762508458 493.12473499197006 644.7199999999998 493.12473499197006 C 647.4814237491538 493.12473499197006 649.7199999999998 495.3633112428161 649.7199999999998 498.12473499197006 Z" stroke-opacity="1" stroke-linecap="round" stroke-linejoin="round" stroke-miterlimit="10"/><path fill="rgb(21,101,192)" stroke="none" paint-order="stroke fill markers" d=" M 420.1737458798134 226.09264900258705 C 420.1737458798134 228.85407275174103 417.93516962896734 231.09264900258705 415.1737458798134 231.09264900258705 C 412.41232213065945 231.09264900258705 410.1737458798134 228.85407275174103 410.1737458798134 226.09264900258705 C 410.1737458798134 223.33122525343308 412.41232213065945 221.09264900258705 415.1737458798134 221.09264900258705 C 417.93516962896734 221.09264900258705 420.1737458798134 223.33122525343308 420.1737458798134 226.09264900258705 Z" fill-opacity="1"/><path fill="none" stroke="rgb(0,0,0)" paint-order="fill stroke markers" d=" M 420.1737458798134 226.09264900258705 C 420.1737458798134 228.85407275174103 417.93516962896734 231.09264900258705 415.1737458798134 231.09264900258705 C 412.41232213065945 231.09264900258705 410.1737458798134 228.85407275174103 410.1737458798134 226.09264900258705 C 410.1737458798134 223.33122525343308 412.41232213065945 221.09264900258705 415.1737458798134 221.09264900258705 C 417.93516962896734 221.09264900258705 420.1737458798134 223.33122525343308 420.1737458798134 226.09264900258705 Z" stroke-opacity="1" stroke-linecap="round" stroke-linejoin="round" stroke-miterlimit="10"/><path fill="rgb(21,101,192)" stroke="none" paint-order="stroke fill markers" d=" M 879.2662541201862 226.09264900258714 C 879.2662541201862 228.8540727517411 877.0276778693402 231.09264900258714 874.2662541201862 231.09264900258714 C 871.5048303710322 231.09264900258714 869.2662541201862 228.8540727517411 869.2662541201862 226.09264900258714 C 869.2662541201862 223.33122525343316 871.5048303710322 221.09264900258714 874.2662541201862 221.09264900258714 C 877.0276778693402 221.09264900258714 879.2662541201862 223.33122525343316 879.2662541201862 226.09264900258714 Z" fill-opacity="1"/><path fill="none" stroke="rgb(0,0,0)" paint-order="fill stroke markers" d=" M 879.2662541201862 226.09264900258714 C 879.2662541201862 228.8540727517411 877.0276778693402 231.09264900258714 874.2662541201862 231.09264900258714 C 871.5048303710322 231.09264900258714 869.2662541201862 228.8540727517411 869.2662541201862 226.09264900258714 C 869.2662541201862 223.33122525343316 871.5048303710322 221.09264900258714 874.2662541201862 221.09264900258714 C 877.0276778693402 221.09264900258714 879.2662541201862 223.33122525343316 879.2662541201862 226.09264900258714 Z" stroke-opacity="1" stroke-linecap="round" stroke-linejoin="round" stroke-miterlimit="10"/></g></g></svg>