<svg version="1.1" xmlns="http://www.w3.org/2000/svg" xmlns:xlink="http://www.w3.org/1999/xlink" width="1310" height="704"><defs><clipPath id="AhBcHgzsQqaQ"><path fill="none" stroke="none" d=" M 0 0 L 1310 0 L 1310 704 L 0 704 L 0 0 Z"/></clipPath></defs><g transform="scale(1,1)" clip-path="url(#AhBcHgzsQqaQ)"><g><rect fill="rgb(255,255,255)" stroke="none" x="0" y="0" width="1310" height="704" fill-opacity="1"/><path fill="none" stroke="rgb(0,0,0)" paint-order="fill stroke markers" d=" M 988.6503062879922 622.6493762091438 C 988.6503062879922 436.8889975781743 838.0617658371257 286.30045712730794 652.3013872061559 286.30045712730794 C 466.5410085751863 286.30045712730794 315.9524681243198 436.8889975781743 315.95246812431975 622.6493762091438" stroke-opacity="0.6980392156862745" stroke-linecap="round" stroke-linejoin="round" stroke-miterlimit="10" stroke-width="2.5"/><path fill="none" stroke="rgb(0,0,0)" paint-order="fill stroke markers" d=" M -5 622.6493762091438 L 1315 622.6493762091438" stroke-opacity="0.6980392156862745" stroke-linecap="round" stroke-linejoin="round" stroke-miterlimit="10" stroke-width="2.5"/><path fill="none" stroke="rgb(0,0,0)" paint-order="fill stroke markers" d=" M 315.95246812431975 622.6493762091438 L 988.6503062879922 622.6493762091438" stroke-opacity="0.6980392156862745" stroke-linecap="round" stroke-linejoin="round" stroke-miterlimit="10" stroke-width="2.5"/><path fill="rgb(21,101,192)" stroke="none" paint-order="stroke fill markers" d=" M 320.95246812431975 622.6493762091438 C 320.95246812431975 625.4107999582978 318.7138918734737 627.6493762091438 315.95246812431975 627.6493762091438 C 313.1910443751658 627.6493762091438 310.95246812431975 625.4107999582978 310.95246812431975 622.6493762091438 C 310.95246812431975 619.8879524599898 313.1910443751658 617.6493762091438 315.95246812431975 617.6493762091438 C 318.7138918734737 617.6493762091438 320.95246812431975 619.8879524599898 320.95246812431975 622.6493762091438 Z" fill-opacity="1"/><path fill="none" stroke="rgb(0,0,0)" paint-order="fill stroke markers" d=" M 320.95246812431975 622.6493762091438 C 320.95246812431975 625.4107999582978 318.7138918734737 627.6493762091438 315.95246812431975 627.6493762091438 C 313.1910443751658 627.6493762091438 310.95246812431975 625.4107999582978 310.95246812431975 622.6493762091438 C 310.95246812431975 619.8879524599898 313.1910443751658 617.6493762091438 315.95246812431975 617.6493762091438 C 318.7138918734737 617.6493762091438 320.95246812431975 619.8879524599898 320.95246812431975 622.6493762091438 Z" stroke-opacity="1" stroke-linecap="round" stroke-linejoin="round" stroke-miterlimit="10"/><text fill="rgb(21,101,192)" stroke="none" font-family="geogebra-sans-serif, sans-serif" font-size="24px" font-style="normal" font-weight="normal" text-decoration="normal" x="284" y="662" text-anchor="start" dominant-baseline="alphabetic" fill-opacity="1">A</text><text fill="none" stroke="rgb(255,255,255)" font-family="geogebra-sans-serif, sans-serif" font-size="24px" font-style="normal" font-weight="normal" text-decoration="normal" x="284" y="662" text-anchor="start" dominant-baseline="alphabetic" stroke-opacity="1" stroke-linejoin="bevel" stroke-miterlimit="10" stroke-width="3">A</text><text fill="rgb(21,101,192)" stroke="none" font-family="geogebra-sans-serif, sans-serif" font-size="24px" font-style="normal" font-weight="normal" text-decoration="normal" x="284" y="662" text-anchor="start" dominant-baseline="alphabetic" fill-opacity="1">A</text><path fill="rgb(21,101,192)" stroke="none" paint-order="stroke fill markers" d=" M 993.6503062879922 622.6493762091438 C 993.6503062879922 625.4107999582978 991.4117300371462 627.6493762091438 988.6503062879922 627.6493762091438 C 985.8888825388382 627.6493762091438 983.6503062879922 625.4107999582978 983.6503062879922 622.6493762091438 C 983.6503062879922 619.8879524599898 985.8888825388382 617.6493762091438 988.6503062879922 617.6493762091438 C 991.4117300371462 617.6493762091438 993.6503062879922 619.8879524599898 993.6503062879922 622.6493762091438 Z" fill-opacity="1"/><path fill="none" stroke="rgb(0,0,0)" paint-order="fill stroke markers" d=" M 993.6503062879922 622.6493762091438 C 993.6503062879922 625.4107999582978 991.4117300371462 627.6493762091438 988.6503062879922 627.6493762091438 C 985.8888825388382 627.6493762091438 983.6503062879922 625.4107999582978 983.6503062879922 622.6493762091438 C 983.6503062879922 619.8879524599898 985.8888825388382 617.6493762091438 988.6503062879922 617.6493762091438 C 991.4117300371462 617.6493762091438 993.6503062879922 619.8879524599898 993.6503062879922 622.6493762091438 Z" stroke-opacity="1" stroke-linecap="round" stroke-linejoin="round" stroke-miterlimit="10"/><text fill="rgb(21,101,192)" stroke="none" font-family="geogebra-sans-serif, sans-serif" font-size="24px" font-style="normal" font-weight="normal" text-decoration="normal" x="1003" y="662" text-anchor="start" dominant-baseline="alphabetic" fill-opacity="1">B</text><text fill="none" stroke="rgb(255,255,255)" font-family="geogebra-sans-serif, sans-serif" font-size="24px" font-style="normal" font-weight="normal" text-decoration="normal" x="1003" y="662" text-anchor="start" dominant-baseline="alphabetic" stroke-opacity="1" stroke-linejoin="bevel" stroke-miterlimit="10" stroke-width="3">B</text><text fill="rgb(21,101,192)" stroke="none" font-family="geogebra-sans-serif, sans-serif" font-size="24px" font-style="normal" font-weight="normal" text-decoration="normal" x="1003" y="662" text-anchor="start" dominant-baseline="alphabetic" fill-opacity="1">B</text><path fill="rgb(211,47,47)" stroke="none" paint-order="stroke fill markers" d=" M 657.3013872061559 622.6493762091438 C 657.3013872061559 625.4107999582978 655.0628109553099 627.6493762091438 652.3013872061559 627.6493762091438 C 649.5399634570019 627.6493762091438 647.3013872061559 625.4107999582978 647.3013872061559 622.6493762091438 C 647.3013872061559 619.8879524599898 649.5399634570019 617.6493762091438 652.3013872061559 617.6493762091438 C 655.0628109553099 617.6493762091438 657.3013872061559 619.8879524599898 657.3013872061559 622.6493762091438 Z" fill-opacity="1"/><path fill="none" stroke="rgb(0,0,0)" paint-order="fill stroke markers" d=" M 657.3013872061559 622.6493762091438 C 657.3013872061559 625.4107999582978 655.0628109553099 627.6493762091438 652.3013872061559 627.6493762091438 C 649.5399634570019 627.6493762091438 647.3013872061559 625.4107999582978 647.3013872061559 622.6493762091438 C 647.3013872061559 619.8879524599898 649.5399634570019 617.6493762091438 652.3013872061559 617.6493762091438 C 655.0628109553099 617.6493762091438 657.3013872061559 619.8879524599898 657.3013872061559 622.6493762091438 Z" stroke-opacity="1" stroke-linecap="round" stroke-linejoin="round" stroke-miterlimit="10"/></g></g></svg>