<svg version="1.1" xmlns="http://www.w3.org/2000/svg" xmlns:xlink="http://www.w3.org/1999/xlink" width="1310" height="704"><defs><clipPath id="GWHbrrGUAncJ"><path fill="none" stroke="none" d=" M 0 0 L 1310 0 L 1310 704 L 0 704 L 0 0 Z"/></clipPath></defs><g transform="scale(1,1)" clip-path="url(#GWHbrrGUAncJ)"><g><rect fill="rgb(255,255,255)" stroke="none" x="0" y="0" width="1310" height="704" fill-opacity="1"/><path fill="none" stroke="rgb(0,0,0)" paint-order="fill stroke markers" d=" M 1072.0294605735949 609.8002736968078 C 1072.0294605735949 408.18249583495094 908.5859581382359 244.73899339959212 706.9681802763787 244.73899339959212 C 505.3504024145215 244.73899339959212 341.90689997916246 408.1824958349509 341.9068999791624 609.8002736968078" stroke-opacity="0.6980392156862745" stroke-linecap="round" stroke-linejoin="round" stroke-miterlimit="10" stroke-width="1.5"/><path fill="none" stroke="rgb(0,0,0)" paint-order="fill stroke markers" d=" M 641.4383990573658 279.22172428843504 C 641.4383990573658 362.2097120347121 574.1633426553069 429.4847684367709 491.1753549090297 429.4847684367709 C 408.1873671627525 429.4847684367709 340.91231076069363 362.2097120347121 340.91231076069363 279.22172428843504 C 340.91231076069363 196.23373654215794 408.1873671627525 128.95868014009923 491.1753549090297 128.95868014009923 C 574.1633426553069 128.95868014009923 641.4383990573658 196.23373654215794 641.4383990573658 279.22172428843504 Z" stroke-opacity="0.6980392156862745" stroke-linecap="round" stroke-linejoin="round" stroke-miterlimit="10" stroke-width="1.5"/><path fill="none" stroke="rgb(0,0,0)" paint-order="fill stroke markers" d=" M 796.460166953563 444.51099899262147 C 796.460166953563 553.525601753134 708.0863703532168 641.8993983534799 599.0717675927042 641.8993983534799 C 490.0571648321916 641.8993983534799 401.6833682318454 553.525601753134 401.6833682318454 444.51099899262147 C 401.6833682318454 335.496396232109 490.0571648321916 247.12259963176297 599.0717675927042 247.12259963176297 C 708.0863703532168 247.12259963176297 796.460166953563 335.496396232109 796.460166953563 444.51099899262147 Z" stroke-opacity="0.6980392156862745" stroke-linecap="round" stroke-linejoin="round" stroke-miterlimit="10" stroke-width="2.5"/><path fill="rgb(0,0,0)" stroke="none" paint-order="stroke fill markers" d=" M 482.28110915448156 157.60989987779453 C 493.89264352785403 161.21448778887327 506.531613323226 157.45440108253422 514.284551160122 148.0888931192718 L 491.1753549090297 128.95868014009926 Z" fill-opacity="0.09803921568627451"/><path fill="none" stroke="rgb(0,0,0)" paint-order="fill stroke markers" d=" M 482.28110915448156 157.60989987779453 C 493.89264352785403 161.21448778887327 506.531613323226 157.45440108253422 514.284551160122 148.0888931192718 L 491.1753549090297 128.95868014009926 Z" stroke-opacity="0.6" stroke-linecap="round" stroke-linejoin="round" stroke-miterlimit="10" stroke-width="2.5"/><g transform="scale(27,27)"><g transform="translate(18.333333333333332,6.768519074074074)"><path fill="rgb(0,0,0)" stroke="none" paint-order="stroke fill markers" d=" M 0.455 -0.5 L 0.455 -0.5 Q 0.455 -0.34700000000000003 0.377 -0.19 Q 0.307 -0.05 0.222 -0.005 Q 0.191 0.011 0.162 0.011 Q 0.08 0.011 0.052000000000000005 -0.101 Q 0.042 -0.14300000000000002 0.042 -0.194 Q 0.042 -0.35100000000000003 0.122 -0.509 Q 0.192 -0.646 0.277 -0.6900000000000001 Q 0.307 -0.705 0.335 -0.705 Q 0.422 -0.705 0.447 -0.578 Q 0.455 -0.54 0.455 -0.5 M 0.148 -0.363 L 0.148 -0.363 L 0.357 -0.363 Q 0.389 -0.495 0.389 -0.562 Q 0.389 -0.675 0.342 -0.682 Q 0.338 -0.683 0.334 -0.683 Q 0.28300000000000003 -0.683 0.225 -0.578 Q 0.187 -0.511 0.149 -0.368 Q 0.149 -0.365 0.148 -0.363 M 0.34800000000000003 -0.331 L 0.14 -0.331 Q 0.108 -0.21 0.108 -0.133 Q 0.108 -0.013000000000000001 0.162 -0.011 Q 0.218 -0.011 0.278 -0.128 Q 0.317 -0.202 0.34800000000000003 -0.331 Z"/></g></g><path fill="none" stroke="rgb(0,0,0)" paint-order="fill stroke markers" d=" M -5 609.8002736968078 L 1315 609.8002736968078" stroke-opacity="0.6980392156862745" stroke-linecap="round" stroke-linejoin="round" stroke-miterlimit="10" stroke-width="2.5"/><path fill="none" stroke="rgb(0,0,0)" paint-order="fill stroke markers" d=" M 311.11216409698693 709 L 532.7603705917437 -5" stroke-opacity="0.6980392156862745" stroke-linecap="round" stroke-linejoin="round" stroke-miterlimit="10" stroke-width="2.5"/><path fill="none" stroke="rgb(0,0,0)" paint-order="fill stroke markers" d=" M 329.35397674323616 -5 L 1191.8622060684268 709" stroke-opacity="0.6980392156862745" stroke-linecap="round" stroke-linejoin="round" stroke-miterlimit="10" stroke-width="2.5"/><path fill="none" stroke="rgb(0,0,0)" paint-order="fill stroke markers" d=" M 341.9068999791624 609.8002736968078 L 1072.0294605735949 609.8002736968078" stroke-opacity="0.6980392156862745" stroke-linecap="round" stroke-linejoin="round" stroke-miterlimit="10" stroke-width="2.5"/><path fill="none" stroke="rgb(0,0,0)" paint-order="fill stroke markers" d=" M 406.0827321805859 403.06932415988786 L 638.7950537488384 251.1609518263494" stroke-opacity="0.6980392156862745" stroke-linecap="round" stroke-linejoin="round" stroke-miterlimit="10" stroke-width="2.5"/><path fill="none" stroke="rgb(0,0,0)" paint-order="fill stroke markers" d=" M 638.7950537488384 251.1609518263494 L 706.9681802763787 609.8002736968078" stroke-opacity="0.6980392156862745" stroke-linejoin="round" stroke-miterlimit="10" stroke-width="1.5" stroke-dasharray="9.5,8"/><path fill="none" stroke="rgb(0,0,0)" paint-order="fill stroke markers" d=" M 406.0827321805859 403.06932415988786 L 706.9681802763787 609.8002736968078" stroke-opacity="0.6980392156862745" stroke-linejoin="round" stroke-miterlimit="10" stroke-width="1.5" stroke-dasharray="5.5,4"/><path fill="none" stroke="rgb(0,0,0)" paint-order="fill stroke markers" d=" M 491.1753549090297 279.22172428843504 L 406.0827321805859 403.06932415988786" stroke-opacity="0.6980392156862745" stroke-linejoin="round" stroke-miterlimit="10" stroke-width="1.5" stroke-dasharray="5.5,4"/><path fill="none" stroke="rgb(0,0,0)" paint-order="fill stroke markers" d=" M 491.1753549090297 279.22172428843504 L 638.7950537488384 251.1609518263494" stroke-opacity="0.6980392156862745" stroke-linejoin="round" stroke-miterlimit="10" stroke-width="1.5" stroke-dasharray="5.5,4"/><path fill="none" stroke="rgb(0,0,0)" paint-order="fill stroke markers" d=" M 706.9681802763787 609.8002736968078 L 491.1753549090297 279.22172428843504" stroke-opacity="0.6980392156862745" stroke-linecap="round" stroke-linejoin="round" stroke-miterlimit="10" stroke-width="2.5"/><path fill="rgb(21,101,192)" stroke="none" paint-order="stroke fill markers" d=" M 346.9068999791624 609.8002736968078 C 346.9068999791624 612.5616974459618 344.66832372831635 614.8002736968078 341.9068999791624 614.8002736968078 C 339.14547623000846 614.8002736968078 336.9068999791624 612.5616974459618 336.9068999791624 609.8002736968078 C 336.9068999791624 607.0388499476538 339.14547623000846 604.8002736968078 341.9068999791624 604.8002736968078 C 344.66832372831635 604.8002736968078 346.9068999791624 607.0388499476538 346.9068999791624 609.8002736968078 Z" fill-opacity="1"/><path fill="none" stroke="rgb(0,0,0)" paint-order="fill stroke markers" d=" M 346.9068999791624 609.8002736968078 C 346.9068999791624 612.5616974459618 344.66832372831635 614.8002736968078 341.9068999791624 614.8002736968078 C 339.14547623000846 614.8002736968078 336.9068999791624 612.5616974459618 336.9068999791624 609.8002736968078 C 336.9068999791624 607.0388499476538 339.14547623000846 604.8002736968078 341.9068999791624 604.8002736968078 C 344.66832372831635 604.8002736968078 346.9068999791624 607.0388499476538 346.9068999791624 609.8002736968078 Z" stroke-opacity="1" stroke-linecap="round" stroke-linejoin="round" stroke-miterlimit="10"/><text fill="rgb(21,101,192)" stroke="none" font-family="geogebra-sans-serif, sans-serif" font-size="24px" font-style="normal" font-weight="normal" text-decoration="normal" x="298" y="644" text-anchor="start" dominant-baseline="alphabetic" fill-opacity="1">A</text><text fill="none" stroke="rgb(255,255,255)" font-family="geogebra-sans-serif, sans-serif" font-size="24px" font-style="normal" font-weight="normal" text-decoration="normal" x="298" y="644" text-anchor="start" dominant-baseline="alphabetic" stroke-opacity="1" stroke-linejoin="bevel" stroke-miterlimit="10" stroke-width="3">A</text><text fill="rgb(21,101,192)" stroke="none" font-family="geogebra-sans-serif, sans-serif" font-size="24px" font-style="normal" font-weight="normal" text-decoration="normal" x="298" y="644" text-anchor="start" dominant-baseline="alphabetic" fill-opacity="1">A</text><path fill="rgb(21,101,192)" stroke="none" paint-order="stroke fill markers" d=" M 1077.0294605735949 609.8002736968078 C 1077.0294605735949 612.5616974459618 1074.7908843227488 614.8002736968078 1072.0294605735949 614.8002736968078 C 1069.268036824441 614.8002736968078 1067.0294605735949 612.5616974459618 1067.0294605735949 609.8002736968078 C 1067.0294605735949 607.0388499476538 1069.268036824441 604.8002736968078 1072.0294605735949 604.8002736968078 C 1074.7908843227488 604.8002736968078 1077.0294605735949 607.0388499476538 1077.0294605735949 609.8002736968078 Z" fill-opacity="1"/><path fill="none" stroke="rgb(0,0,0)" paint-order="fill stroke markers" d=" M 1077.0294605735949 609.8002736968078 C 1077.0294605735949 612.5616974459618 1074.7908843227488 614.8002736968078 1072.0294605735949 614.8002736968078 C 1069.268036824441 614.8002736968078 1067.0294605735949 612.5616974459618 1067.0294605735949 609.8002736968078 C 1067.0294605735949 607.0388499476538 1069.268036824441 604.8002736968078 1072.0294605735949 604.8002736968078 C 1074.7908843227488 604.8002736968078 1077.0294605735949 607.0388499476538 1077.0294605735949 609.8002736968078 Z" stroke-opacity="1" stroke-linecap="round" stroke-linejoin="round" stroke-miterlimit="10"/><text fill="rgb(21,101,192)" stroke="none" font-family="geogebra-sans-serif, sans-serif" font-size="24px" font-style="normal" font-weight="normal" text-decoration="normal" x="1067" y="649" text-anchor="start" dominant-baseline="alphabetic" fill-opacity="1">B</text><text fill="none" stroke="rgb(255,255,255)" font-family="geogebra-sans-serif, sans-serif" font-size="24px" font-style="normal" font-weight="normal" text-decoration="normal" x="1067" y="649" text-anchor="start" dominant-baseline="alphabetic" stroke-opacity="1" stroke-linejoin="bevel" stroke-miterlimit="10" stroke-width="3">B</text><text fill="rgb(21,101,192)" stroke="none" font-family="geogebra-sans-serif, sans-serif" font-size="24px" font-style="normal" font-weight="normal" text-decoration="normal" x="1067" y="649" text-anchor="start" dominant-baseline="alphabetic" fill-opacity="1">B</text><path fill="rgb(211,47,47)" stroke="none" paint-order="stroke fill markers" d=" M 711.9681802763787 609.8002736968078 C 711.9681802763787 612.5616974459618 709.7296040255327 614.8002736968078 706.9681802763787 614.8002736968078 C 704.2067565272247 614.8002736968078 701.9681802763787 612.5616974459618 701.9681802763787 609.8002736968078 C 701.9681802763787 607.0388499476538 704.2067565272247 604.8002736968078 706.9681802763787 604.8002736968078 C 709.7296040255327 604.8002736968078 711.9681802763787 607.0388499476538 711.9681802763787 609.8002736968078 Z" fill-opacity="1"/><path fill="none" stroke="rgb(0,0,0)" paint-order="fill stroke markers" d=" M 711.9681802763787 609.8002736968078 C 711.9681802763787 612.5616974459618 709.7296040255327 614.8002736968078 706.9681802763787 614.8002736968078 C 704.2067565272247 614.8002736968078 701.9681802763787 612.5616974459618 701.9681802763787 609.8002736968078 C 701.9681802763787 607.0388499476538 704.2067565272247 604.8002736968078 706.9681802763787 604.8002736968078 C 709.7296040255327 604.8002736968078 711.9681802763787 607.0388499476538 711.9681802763787 609.8002736968078 Z" stroke-opacity="1" stroke-linecap="round" stroke-linejoin="round" stroke-miterlimit="10"/><g transform="scale(27,27)"><g transform="translate(25.85185185185185,24.09073940740741)"><path fill="rgb(211,47,47)" stroke="none" paint-order="stroke fill markers" d=" M 0.74 -0.436 L 0.74 -0.436 Q 0.74 -0.281 0.63 -0.149 Q 0.531 -0.029 0.398 0.009000000000000001 Q 0.35100000000000003 0.022 0.305 0.022 Q 0.18 0.022 0.108 -0.066 Q 0.049 -0.138 0.049 -0.245 Q 0.049 -0.395 0.156 -0.529 Q 0.255 -0.65 0.388 -0.6900000000000001 Q 0.437 -0.705 0.485 -0.705 Q 0.612 -0.705 0.684 -0.613 Q 0.74 -0.541 0.74 -0.436 M 0.311 -0.004 L 0.311 -0.004 Q 0.405 -0.004 0.492 -0.088 Q 0.51 -0.105 0.525 -0.124 Q 0.623 -0.246 0.646 -0.41500000000000004 Q 0.651 -0.448 0.651 -0.47500000000000003 Q 0.651 -0.612 0.559 -0.661 Q 0.558 -0.661 0.557 -0.662 Q 0.521 -0.68 0.47900000000000004 -0.68 Q 0.385 -0.68 0.297 -0.599 Q 0.261 -0.5670000000000001 0.233 -0.524 Q 0.157 -0.40900000000000003 0.14400000000000002 -0.249 Q 0.14200000000000002 -0.231 0.14200000000000002 -0.217 Q 0.14200000000000002 -0.089 0.219 -0.033 Q 0.259 -0.004 0.311 -0.004 Z"/></g></g><path fill="rgb(21,101,192)" stroke="none" paint-order="stroke fill markers" d=" M 411.0827321805859 403.06932415988786 C 411.0827321805859 405.8307479090418 408.8441559297398 408.06932415988786 406.0827321805859 408.06932415988786 C 403.32130843143193 408.06932415988786 401.0827321805859 405.8307479090418 401.0827321805859 403.06932415988786 C 401.0827321805859 400.3079004107339 403.32130843143193 398.06932415988786 406.0827321805859 398.06932415988786 C 408.8441559297398 398.06932415988786 411.0827321805859 400.3079004107339 411.0827321805859 403.06932415988786 Z" fill-opacity="1"/><path fill="none" stroke="rgb(0,0,0)" paint-order="fill stroke markers" d=" M 411.0827321805859 403.06932415988786 C 411.0827321805859 405.8307479090418 408.8441559297398 408.06932415988786 406.0827321805859 408.06932415988786 C 403.32130843143193 408.06932415988786 401.0827321805859 405.8307479090418 401.0827321805859 403.06932415988786 C 401.0827321805859 400.3079004107339 403.32130843143193 398.06932415988786 406.0827321805859 398.06932415988786 C 408.8441559297398 398.06932415988786 411.0827321805859 400.3079004107339 411.0827321805859 403.06932415988786 Z" stroke-opacity="1" stroke-linecap="round" stroke-linejoin="round" stroke-miterlimit="10"/><text fill="rgb(21,101,192)" stroke="none" font-family="geogebra-sans-serif, sans-serif" font-size="24px" font-style="normal" font-weight="normal" text-decoration="normal" x="352" y="400" text-anchor="start" dominant-baseline="alphabetic" fill-opacity="1">C</text><text fill="none" stroke="rgb(255,255,255)" font-family="geogebra-sans-serif, sans-serif" font-size="24px" font-style="normal" font-weight="normal" text-decoration="normal" x="352" y="400" text-anchor="start" dominant-baseline="alphabetic" stroke-opacity="1" stroke-linejoin="bevel" stroke-miterlimit="10" stroke-width="3">C</text><text fill="rgb(21,101,192)" stroke="none" font-family="geogebra-sans-serif, sans-serif" font-size="24px" font-style="normal" font-weight="normal" text-decoration="normal" x="352" y="400" text-anchor="start" dominant-baseline="alphabetic" fill-opacity="1">C</text><path fill="rgb(21,101,192)" stroke="none" paint-order="stroke fill markers" d=" M 643.7950537488384 251.1609518263494 C 643.7950537488384 253.92237557550337 641.5564774979924 256.1609518263494 638.7950537488384 256.1609518263494 C 636.0336299996844 256.1609518263494 633.7950537488384 253.92237557550337 633.7950537488384 251.1609518263494 C 633.7950537488384 248.3995280771954 636.0336299996844 246.1609518263494 638.7950537488384 246.1609518263494 C 641.5564774979924 246.1609518263494 643.7950537488384 248.3995280771954 643.7950537488384 251.1609518263494 Z" fill-opacity="1"/><path fill="none" stroke="rgb(0,0,0)" paint-order="fill stroke markers" d=" M 643.7950537488384 251.1609518263494 C 643.7950537488384 253.92237557550337 641.5564774979924 256.1609518263494 638.7950537488384 256.1609518263494 C 636.0336299996844 256.1609518263494 633.7950537488384 253.92237557550337 633.7950537488384 251.1609518263494 C 633.7950537488384 248.3995280771954 636.0336299996844 246.1609518263494 638.7950537488384 246.1609518263494 C 641.5564774979924 246.1609518263494 643.7950537488384 248.3995280771954 643.7950537488384 251.1609518263494 Z" stroke-opacity="1" stroke-linecap="round" stroke-linejoin="round" stroke-miterlimit="10"/><text fill="rgb(21,101,192)" stroke="none" font-family="geogebra-sans-serif, sans-serif" font-size="24px" font-style="normal" font-weight="normal" text-decoration="normal" x="667" y="229" text-anchor="start" dominant-baseline="alphabetic" fill-opacity="1">D</text><text fill="none" stroke="rgb(255,255,255)" font-family="geogebra-sans-serif, sans-serif" font-size="24px" font-style="normal" font-weight="normal" text-decoration="normal" x="667" y="229" text-anchor="start" dominant-baseline="alphabetic" stroke-opacity="1" stroke-linejoin="bevel" stroke-miterlimit="10" stroke-width="3">D</text><text fill="rgb(21,101,192)" stroke="none" font-family="geogebra-sans-serif, sans-serif" font-size="24px" font-style="normal" font-weight="normal" text-decoration="normal" x="667" y="229" text-anchor="start" dominant-baseline="alphabetic" fill-opacity="1">D</text><path fill="rgb(46,125,50)" stroke="none" paint-order="stroke fill markers" d=" M 496.1753549090297 128.95868014009926 C 496.1753549090297 131.72010388925324 493.93677865818364 133.95868014009926 491.1753549090297 133.95868014009926 C 488.41393115987574 133.95868014009926 486.1753549090297 131.72010388925324 486.1753549090297 128.95868014009926 C 486.1753549090297 126.1972563909453 488.41393115987574 123.95868014009926 491.1753549090297 123.95868014009926 C 493.93677865818364 123.95868014009926 496.1753549090297 126.1972563909453 496.1753549090297 128.95868014009926 Z" fill-opacity="1"/><path fill="none" stroke="rgb(0,0,0)" paint-order="fill stroke markers" d=" M 496.1753549090297 128.95868014009926 C 496.1753549090297 131.72010388925324 493.93677865818364 133.95868014009926 491.1753549090297 133.95868014009926 C 488.41393115987574 133.95868014009926 486.1753549090297 131.72010388925324 486.1753549090297 128.95868014009926 C 486.1753549090297 126.1972563909453 488.41393115987574 123.95868014009926 491.1753549090297 123.95868014009926 C 493.93677865818364 123.95868014009926 496.1753549090297 126.1972563909453 496.1753549090297 128.95868014009926 Z" stroke-opacity="1" stroke-linecap="round" stroke-linejoin="round" stroke-miterlimit="10"/><text fill="rgb(46,125,50)" stroke="none" font-family="geogebra-sans-serif, sans-serif" font-size="24px" font-style="normal" font-weight="normal" text-decoration="normal" x="468" y="101" text-anchor="start" dominant-baseline="alphabetic" fill-opacity="1">P</text><text fill="none" stroke="rgb(255,255,255)" font-family="geogebra-sans-serif, sans-serif" font-size="24px" font-style="normal" font-weight="normal" text-decoration="normal" x="468" y="101" text-anchor="start" dominant-baseline="alphabetic" stroke-opacity="1" stroke-linejoin="bevel" stroke-miterlimit="10" stroke-width="3">P</text><text fill="rgb(46,125,50)" stroke="none" font-family="geogebra-sans-serif, sans-serif" font-size="24px" font-style="normal" font-weight="normal" text-decoration="normal" x="468" y="101" text-anchor="start" dominant-baseline="alphabetic" fill-opacity="1">P</text><path fill="rgb(211,47,47)" stroke="none" paint-order="stroke fill markers" d=" M 496.1753549090297 279.22172428843504 C 496.1753549090297 281.983148037589 493.93677865818364 284.22172428843504 491.1753549090297 284.22172428843504 C 488.41393115987574 284.22172428843504 486.1753549090297 281.983148037589 486.1753549090297 279.22172428843504 C 486.1753549090297 276.4603005392811 488.41393115987574 274.22172428843504 491.1753549090297 274.22172428843504 C 493.93677865818364 274.22172428843504 496.1753549090297 276.4603005392811 496.1753549090297 279.22172428843504 Z" fill-opacity="1"/><path fill="none" stroke="rgb(0,0,0)" paint-order="fill stroke markers" d=" M 496.1753549090297 279.22172428843504 C 496.1753549090297 281.983148037589 493.93677865818364 284.22172428843504 491.1753549090297 284.22172428843504 C 488.41393115987574 284.22172428843504 486.1753549090297 281.983148037589 486.1753549090297 279.22172428843504 C 486.1753549090297 276.4603005392811 488.41393115987574 274.22172428843504 491.1753549090297 274.22172428843504 C 493.93677865818364 274.22172428843504 496.1753549090297 276.4603005392811 496.1753549090297 279.22172428843504 Z" stroke-opacity="1" stroke-linecap="round" stroke-linejoin="round" stroke-miterlimit="10"/><g transform="scale(27,27)"><g transform="translate(17.814814814814813,9.68543564074074)"><path fill="rgb(211,47,47)" stroke="none" paint-order="stroke fill markers" d=" M 0.74 -0.436 L 0.74 -0.436 Q 0.74 -0.281 0.63 -0.149 Q 0.531 -0.029 0.398 0.009000000000000001 Q 0.35100000000000003 0.022 0.305 0.022 Q 0.18 0.022 0.108 -0.066 Q 0.049 -0.138 0.049 -0.245 Q 0.049 -0.395 0.156 -0.529 Q 0.255 -0.65 0.388 -0.6900000000000001 Q 0.437 -0.705 0.485 -0.705 Q 0.612 -0.705 0.684 -0.613 Q 0.74 -0.541 0.74 -0.436 M 0.311 -0.004 L 0.311 -0.004 Q 0.405 -0.004 0.492 -0.088 Q 0.51 -0.105 0.525 -0.124 Q 0.623 -0.246 0.646 -0.41500000000000004 Q 0.651 -0.448 0.651 -0.47500000000000003 Q 0.651 -0.612 0.559 -0.661 Q 0.558 -0.661 0.557 -0.662 Q 0.521 -0.68 0.47900000000000004 -0.68 Q 0.385 -0.68 0.297 -0.599 Q 0.261 -0.5670000000000001 0.233 -0.524 Q 0.157 -0.40900000000000003 0.14400000000000002 -0.249 Q 0.14200000000000002 -0.231 0.14200000000000002 -0.217 Q 0.14200000000000002 -0.089 0.219 -0.033 Q 0.259 -0.004 0.311 -0.004 Z"/></g><g transform="translate(18.605369814814814,9.01851924074074) scale(0.5,0.5)"><path fill="rgb(211,47,47)" stroke="none" paint-order="stroke fill markers" d=" M 0.255 -0.47900000000000004 L 0.076 -0.059000000000000004 Q 0.07 -0.045 0.063 -0.045 Q 0.045 -0.045 0.033 -0.056 Q 0.029 -0.059000000000000004 0.029 -0.063 Q 0.029 -0.065 0.032 -0.077 L 0.153 -0.513 Q 0.166 -0.554 0.197 -0.558 Q 0.202 -0.559 0.20600000000000002 -0.559 Q 0.24 -0.559 0.256 -0.53 Q 0.262 -0.519 0.262 -0.507 Q 0.262 -0.494 0.255 -0.47900000000000004 Z"/></g></g></g></g></svg>