<svg version="1.1" xmlns="http://www.w3.org/2000/svg" xmlns:xlink="http://www.w3.org/1999/xlink" width="1310" height="704"><defs><clipPath id="rrawmDocvAFf"><path fill="none" stroke="none" d=" M 0 0 L 1310 0 L 1310 704 L 0 704 L 0 0 Z"/></clipPath></defs><g transform="scale(1,1)" clip-path="url(#rrawmDocvAFf)"><g><rect fill="rgb(255,255,255)" stroke="none" x="0" y="0" width="1310" height="704" fill-opacity="1"/><path fill="none" stroke="rgb(0,0,0)" paint-order="fill stroke markers" d=" M 1134.0294605735949 609.8002736968078 C 1134.0294605735949 408.18249583495094 970.5859581382358 244.73899339959212 768.9681802763786 244.73899339959212 C 567.3504024145213 244.73899339959212 403.90689997916235 408.1824958349509 403.9068999791623 609.8002736968078" stroke-opacity="0.6980392156862745" stroke-linecap="round" stroke-linejoin="round" stroke-miterlimit="10" stroke-width="1.5"/><path fill="none" stroke="rgb(0,0,0)" paint-order="fill stroke markers" d=" M 703.4383990573656 279.22172428843504 C 703.4383990573656 362.2097120347121 636.1633426553068 429.4847684367709 553.1753549090296 429.4847684367709 C 470.18736716275237 429.4847684367709 402.9123107606935 362.2097120347121 402.9123107606935 279.22172428843504 C 402.9123107606935 196.23373654215794 470.18736716275237 128.95868014009923 553.1753549090296 128.95868014009923 C 636.1633426553068 128.95868014009923 703.4383990573656 196.23373654215794 703.4383990573656 279.22172428843504 Z" stroke-opacity="0.6980392156862745" stroke-linecap="round" stroke-linejoin="round" stroke-miterlimit="10" stroke-width="1.5"/><path fill="none" stroke="rgb(0,0,0)" paint-order="fill stroke markers" d=" M 858.4601669535629 444.51099899262147 C 858.4601669535629 553.525601753134 770.0863703532167 641.8993983534799 661.0717675927041 641.8993983534799 C 552.0571648321915 641.8993983534799 463.6833682318453 553.525601753134 463.6833682318453 444.51099899262147 C 463.6833682318453 335.496396232109 552.0571648321915 247.12259963176297 661.0717675927041 247.12259963176297 C 770.0863703532167 247.12259963176297 858.4601669535629 335.496396232109 858.4601669535629 444.51099899262147 Z" stroke-opacity="0.6980392156862745" stroke-linecap="round" stroke-linejoin="round" stroke-miterlimit="10" stroke-width="2.5"/><path fill="rgb(0,0,0)" stroke="none" paint-order="stroke fill markers" d=" M 544.2811091544814 157.60989987779453 C 555.8926435278539 161.21448778887327 568.5316133232259 157.45440108253422 576.2845511601219 148.0888931192718 L 553.1753549090296 128.95868014009926 Z" fill-opacity="0.09803921568627451"/><path fill="none" stroke="rgb(0,0,0)" paint-order="fill stroke markers" d=" M 544.2811091544814 157.60989987779453 C 555.8926435278539 161.21448778887327 568.5316133232259 157.45440108253422 576.2845511601219 148.0888931192718 L 553.1753549090296 128.95868014009926 Z" stroke-opacity="0.6" stroke-linecap="round" stroke-linejoin="round" stroke-miterlimit="10" stroke-width="2.5"/><g transform="scale(27,27)"><g transform="translate(20.62962962962963,6.768519074074074)"><path fill="rgb(0,0,0)" stroke="none" paint-order="stroke fill markers" d=" M 0.455 -0.5 L 0.455 -0.5 Q 0.455 -0.34700000000000003 0.377 -0.19 Q 0.307 -0.05 0.222 -0.005 Q 0.191 0.011 0.162 0.011 Q 0.08 0.011 0.052000000000000005 -0.101 Q 0.042 -0.14300000000000002 0.042 -0.194 Q 0.042 -0.35100000000000003 0.122 -0.509 Q 0.192 -0.646 0.277 -0.6900000000000001 Q 0.307 -0.705 0.335 -0.705 Q 0.422 -0.705 0.447 -0.578 Q 0.455 -0.54 0.455 -0.5 M 0.148 -0.363 L 0.148 -0.363 L 0.357 -0.363 Q 0.389 -0.495 0.389 -0.562 Q 0.389 -0.675 0.342 -0.682 Q 0.338 -0.683 0.334 -0.683 Q 0.28300000000000003 -0.683 0.225 -0.578 Q 0.187 -0.511 0.149 -0.368 Q 0.149 -0.365 0.148 -0.363 M 0.34800000000000003 -0.331 L 0.14 -0.331 Q 0.108 -0.21 0.108 -0.133 Q 0.108 -0.013000000000000001 0.162 -0.011 Q 0.218 -0.011 0.278 -0.128 Q 0.317 -0.202 0.34800000000000003 -0.331 Z"/></g></g><path fill="rgb(0,0,0)" stroke="none" paint-order="stroke fill markers" fill-rule="evenodd" d=" M 584.4388929647121 327.11513799311865 L 596.0344505539164 344.8786692916917 L 613.7979818524915 333.2831117024878 L 602.2024242632851 315.51958040391435 L 584.4388929647121 327.11513799311865" fill-opacity="0.09803921568627451"/><path fill="none" stroke="rgb(0,0,0)" paint-order="fill stroke markers" d=" M 584.4388929647121 327.11513799311865 L 596.0344505539164 344.8786692916917 L 613.7979818524915 333.2831117024878 L 602.2024242632851 315.51958040391435 L 584.4388929647121 327.11513799311865" stroke-opacity="0.6" stroke-linecap="round" stroke-linejoin="round" stroke-miterlimit="10" stroke-width="2.5"/><path fill="none" stroke="rgb(0,0,0)" paint-order="fill stroke markers" d=" M -5 609.8002736968078 L 1315 609.8002736968078" stroke-opacity="0.6980392156862745" stroke-linecap="round" stroke-linejoin="round" stroke-miterlimit="10" stroke-width="2.5"/><path fill="none" stroke="rgb(0,0,0)" paint-order="fill stroke markers" d=" M 373.1121640969868 709 L 594.7603705917436 -5" stroke-opacity="0.6980392156862745" stroke-linecap="round" stroke-linejoin="round" stroke-miterlimit="10" stroke-width="2.5"/><path fill="none" stroke="rgb(0,0,0)" paint-order="fill stroke markers" d=" M 391.35397674323605 -5 L 1253.8622060684268 709" stroke-opacity="0.6980392156862745" stroke-linecap="round" stroke-linejoin="round" stroke-miterlimit="10" stroke-width="2.5"/><path fill="none" stroke="rgb(0,0,0)" paint-order="fill stroke markers" d=" M 403.9068999791623 609.8002736968078 L 1134.0294605735949 609.8002736968078" stroke-opacity="0.6980392156862745" stroke-linecap="round" stroke-linejoin="round" stroke-miterlimit="10" stroke-width="2.5"/><path fill="none" stroke="rgb(0,0,0)" paint-order="fill stroke markers" d=" M 468.08273218058577 403.06932415988786 L 700.7950537488383 251.1609518263494" stroke-opacity="0.6980392156862745" stroke-linecap="round" stroke-linejoin="round" stroke-miterlimit="10" stroke-width="2.5"/><path fill="none" stroke="rgb(0,0,0)" paint-order="fill stroke markers" d=" M 700.7950537488383 251.1609518263494 L 768.9681802763786 609.8002736968078" stroke-opacity="0.6980392156862745" stroke-linejoin="round" stroke-miterlimit="10" stroke-width="1.5" stroke-dasharray="9.5,8"/><path fill="none" stroke="rgb(0,0,0)" paint-order="fill stroke markers" d=" M 468.08273218058577 403.06932415988786 L 768.9681802763786 609.8002736968078" stroke-opacity="0.6980392156862745" stroke-linejoin="round" stroke-miterlimit="10" stroke-width="1.5" stroke-dasharray="5.5,4"/><path fill="none" stroke="rgb(0,0,0)" paint-order="fill stroke markers" d=" M 553.1753549090296 279.22172428843504 L 468.08273218058577 403.06932415988786" stroke-opacity="0.6980392156862745" stroke-linejoin="round" stroke-miterlimit="10" stroke-width="1.5" stroke-dasharray="5.5,4"/><path fill="none" stroke="rgb(0,0,0)" paint-order="fill stroke markers" d=" M 553.1753549090296 279.22172428843504 L 700.7950537488383 251.1609518263494" stroke-opacity="0.6980392156862745" stroke-linejoin="round" stroke-miterlimit="10" stroke-width="1.5" stroke-dasharray="5.5,4"/><path fill="none" stroke="rgb(0,0,0)" paint-order="fill stroke markers" d=" M 768.9681802763786 609.8002736968078 L 553.1753549090296 279.22172428843504" stroke-opacity="0.6980392156862745" stroke-linecap="round" stroke-linejoin="round" stroke-miterlimit="10" stroke-width="2.5"/><path fill="rgb(21,101,192)" stroke="none" paint-order="stroke fill markers" d=" M 408.9068999791623 609.8002736968078 C 408.9068999791623 612.5616974459618 406.66832372831624 614.8002736968078 403.9068999791623 614.8002736968078 C 401.14547623000834 614.8002736968078 398.9068999791623 612.5616974459618 398.9068999791623 609.8002736968078 C 398.9068999791623 607.0388499476538 401.14547623000834 604.8002736968078 403.9068999791623 604.8002736968078 C 406.66832372831624 604.8002736968078 408.9068999791623 607.0388499476538 408.9068999791623 609.8002736968078 Z" fill-opacity="1"/><path fill="none" stroke="rgb(0,0,0)" paint-order="fill stroke markers" d=" M 408.9068999791623 609.8002736968078 C 408.9068999791623 612.5616974459618 406.66832372831624 614.8002736968078 403.9068999791623 614.8002736968078 C 401.14547623000834 614.8002736968078 398.9068999791623 612.5616974459618 398.9068999791623 609.8002736968078 C 398.9068999791623 607.0388499476538 401.14547623000834 604.8002736968078 403.9068999791623 604.8002736968078 C 406.66832372831624 604.8002736968078 408.9068999791623 607.0388499476538 408.9068999791623 609.8002736968078 Z" stroke-opacity="1" stroke-linecap="round" stroke-linejoin="round" stroke-miterlimit="10"/><text fill="rgb(21,101,192)" stroke="none" font-family="geogebra-sans-serif, sans-serif" font-size="24px" font-style="normal" font-weight="normal" text-decoration="normal" x="360" y="644" text-anchor="start" dominant-baseline="alphabetic" fill-opacity="1">A</text><text fill="none" stroke="rgb(255,255,255)" font-family="geogebra-sans-serif, sans-serif" font-size="24px" font-style="normal" font-weight="normal" text-decoration="normal" x="360" y="644" text-anchor="start" dominant-baseline="alphabetic" stroke-opacity="1" stroke-linejoin="bevel" stroke-miterlimit="10" stroke-width="3">A</text><text fill="rgb(21,101,192)" stroke="none" font-family="geogebra-sans-serif, sans-serif" font-size="24px" font-style="normal" font-weight="normal" text-decoration="normal" x="360" y="644" text-anchor="start" dominant-baseline="alphabetic" fill-opacity="1">A</text><path fill="rgb(21,101,192)" stroke="none" paint-order="stroke fill markers" d=" M 1139.0294605735949 609.8002736968078 C 1139.0294605735949 612.5616974459618 1136.7908843227488 614.8002736968078 1134.0294605735949 614.8002736968078 C 1131.268036824441 614.8002736968078 1129.0294605735949 612.5616974459618 1129.0294605735949 609.8002736968078 C 1129.0294605735949 607.0388499476538 1131.268036824441 604.8002736968078 1134.0294605735949 604.8002736968078 C 1136.7908843227488 604.8002736968078 1139.0294605735949 607.0388499476538 1139.0294605735949 609.8002736968078 Z" fill-opacity="1"/><path fill="none" stroke="rgb(0,0,0)" paint-order="fill stroke markers" d=" M 1139.0294605735949 609.8002736968078 C 1139.0294605735949 612.5616974459618 1136.7908843227488 614.8002736968078 1134.0294605735949 614.8002736968078 C 1131.268036824441 614.8002736968078 1129.0294605735949 612.5616974459618 1129.0294605735949 609.8002736968078 C 1129.0294605735949 607.0388499476538 1131.268036824441 604.8002736968078 1134.0294605735949 604.8002736968078 C 1136.7908843227488 604.8002736968078 1139.0294605735949 607.0388499476538 1139.0294605735949 609.8002736968078 Z" stroke-opacity="1" stroke-linecap="round" stroke-linejoin="round" stroke-miterlimit="10"/><text fill="rgb(21,101,192)" stroke="none" font-family="geogebra-sans-serif, sans-serif" font-size="24px" font-style="normal" font-weight="normal" text-decoration="normal" x="1129" y="649" text-anchor="start" dominant-baseline="alphabetic" fill-opacity="1">B</text><text fill="none" stroke="rgb(255,255,255)" font-family="geogebra-sans-serif, sans-serif" font-size="24px" font-style="normal" font-weight="normal" text-decoration="normal" x="1129" y="649" text-anchor="start" dominant-baseline="alphabetic" stroke-opacity="1" stroke-linejoin="bevel" stroke-miterlimit="10" stroke-width="3">B</text><text fill="rgb(21,101,192)" stroke="none" font-family="geogebra-sans-serif, sans-serif" font-size="24px" font-style="normal" font-weight="normal" text-decoration="normal" x="1129" y="649" text-anchor="start" dominant-baseline="alphabetic" fill-opacity="1">B</text><path fill="rgb(211,47,47)" stroke="none" paint-order="stroke fill markers" d=" M 773.9681802763786 609.8002736968078 C 773.9681802763786 612.5616974459618 771.7296040255326 614.8002736968078 768.9681802763786 614.8002736968078 C 766.2067565272246 614.8002736968078 763.9681802763786 612.5616974459618 763.9681802763786 609.8002736968078 C 763.9681802763786 607.0388499476538 766.2067565272246 604.8002736968078 768.9681802763786 604.8002736968078 C 771.7296040255326 604.8002736968078 773.9681802763786 607.0388499476538 773.9681802763786 609.8002736968078 Z" fill-opacity="1"/><path fill="none" stroke="rgb(0,0,0)" paint-order="fill stroke markers" d=" M 773.9681802763786 609.8002736968078 C 773.9681802763786 612.5616974459618 771.7296040255326 614.8002736968078 768.9681802763786 614.8002736968078 C 766.2067565272246 614.8002736968078 763.9681802763786 612.5616974459618 763.9681802763786 609.8002736968078 C 763.9681802763786 607.0388499476538 766.2067565272246 604.8002736968078 768.9681802763786 604.8002736968078 C 771.7296040255326 604.8002736968078 773.9681802763786 607.0388499476538 773.9681802763786 609.8002736968078 Z" stroke-opacity="1" stroke-linecap="round" stroke-linejoin="round" stroke-miterlimit="10"/><g transform="scale(27,27)"><g transform="translate(28.14814814814815,24.09073940740741)"><path fill="rgb(211,47,47)" stroke="none" paint-order="stroke fill markers" d=" M 0.74 -0.436 L 0.74 -0.436 Q 0.74 -0.281 0.63 -0.149 Q 0.531 -0.029 0.398 0.009000000000000001 Q 0.35100000000000003 0.022 0.305 0.022 Q 0.18 0.022 0.108 -0.066 Q 0.049 -0.138 0.049 -0.245 Q 0.049 -0.395 0.156 -0.529 Q 0.255 -0.65 0.388 -0.6900000000000001 Q 0.437 -0.705 0.485 -0.705 Q 0.612 -0.705 0.684 -0.613 Q 0.74 -0.541 0.74 -0.436 M 0.311 -0.004 L 0.311 -0.004 Q 0.405 -0.004 0.492 -0.088 Q 0.51 -0.105 0.525 -0.124 Q 0.623 -0.246 0.646 -0.41500000000000004 Q 0.651 -0.448 0.651 -0.47500000000000003 Q 0.651 -0.612 0.559 -0.661 Q 0.558 -0.661 0.557 -0.662 Q 0.521 -0.68 0.47900000000000004 -0.68 Q 0.385 -0.68 0.297 -0.599 Q 0.261 -0.5670000000000001 0.233 -0.524 Q 0.157 -0.40900000000000003 0.14400000000000002 -0.249 Q 0.14200000000000002 -0.231 0.14200000000000002 -0.217 Q 0.14200000000000002 -0.089 0.219 -0.033 Q 0.259 -0.004 0.311 -0.004 Z"/></g></g><path fill="rgb(21,101,192)" stroke="none" paint-order="stroke fill markers" d=" M 473.08273218058577 403.06932415988786 C 473.08273218058577 405.8307479090418 470.8441559297397 408.06932415988786 468.08273218058577 408.06932415988786 C 465.3213084314318 408.06932415988786 463.08273218058577 405.8307479090418 463.08273218058577 403.06932415988786 C 463.08273218058577 400.3079004107339 465.3213084314318 398.06932415988786 468.08273218058577 398.06932415988786 C 470.8441559297397 398.06932415988786 473.08273218058577 400.3079004107339 473.08273218058577 403.06932415988786 Z" fill-opacity="1"/><path fill="none" stroke="rgb(0,0,0)" paint-order="fill stroke markers" d=" M 473.08273218058577 403.06932415988786 C 473.08273218058577 405.8307479090418 470.8441559297397 408.06932415988786 468.08273218058577 408.06932415988786 C 465.3213084314318 408.06932415988786 463.08273218058577 405.8307479090418 463.08273218058577 403.06932415988786 C 463.08273218058577 400.3079004107339 465.3213084314318 398.06932415988786 468.08273218058577 398.06932415988786 C 470.8441559297397 398.06932415988786 473.08273218058577 400.3079004107339 473.08273218058577 403.06932415988786 Z" stroke-opacity="1" stroke-linecap="round" stroke-linejoin="round" stroke-miterlimit="10"/><text fill="rgb(21,101,192)" stroke="none" font-family="geogebra-sans-serif, sans-serif" font-size="24px" font-style="normal" font-weight="normal" text-decoration="normal" x="414" y="400" text-anchor="start" dominant-baseline="alphabetic" fill-opacity="1">C</text><text fill="none" stroke="rgb(255,255,255)" font-family="geogebra-sans-serif, sans-serif" font-size="24px" font-style="normal" font-weight="normal" text-decoration="normal" x="414" y="400" text-anchor="start" dominant-baseline="alphabetic" stroke-opacity="1" stroke-linejoin="bevel" stroke-miterlimit="10" stroke-width="3">C</text><text fill="rgb(21,101,192)" stroke="none" font-family="geogebra-sans-serif, sans-serif" font-size="24px" font-style="normal" font-weight="normal" text-decoration="normal" x="414" y="400" text-anchor="start" dominant-baseline="alphabetic" fill-opacity="1">C</text><path fill="rgb(21,101,192)" stroke="none" paint-order="stroke fill markers" d=" M 705.7950537488383 251.1609518263494 C 705.7950537488383 253.92237557550337 703.5564774979923 256.1609518263494 700.7950537488383 256.1609518263494 C 698.0336299996843 256.1609518263494 695.7950537488383 253.92237557550337 695.7950537488383 251.1609518263494 C 695.7950537488383 248.3995280771954 698.0336299996843 246.1609518263494 700.7950537488383 246.1609518263494 C 703.5564774979923 246.1609518263494 705.7950537488383 248.3995280771954 705.7950537488383 251.1609518263494 Z" fill-opacity="1"/><path fill="none" stroke="rgb(0,0,0)" paint-order="fill stroke markers" d=" M 705.7950537488383 251.1609518263494 C 705.7950537488383 253.92237557550337 703.5564774979923 256.1609518263494 700.7950537488383 256.1609518263494 C 698.0336299996843 256.1609518263494 695.7950537488383 253.92237557550337 695.7950537488383 251.1609518263494 C 695.7950537488383 248.3995280771954 698.0336299996843 246.1609518263494 700.7950537488383 246.1609518263494 C 703.5564774979923 246.1609518263494 705.7950537488383 248.3995280771954 705.7950537488383 251.1609518263494 Z" stroke-opacity="1" stroke-linecap="round" stroke-linejoin="round" stroke-miterlimit="10"/><text fill="rgb(21,101,192)" stroke="none" font-family="geogebra-sans-serif, sans-serif" font-size="24px" font-style="normal" font-weight="normal" text-decoration="normal" x="729" y="229" text-anchor="start" dominant-baseline="alphabetic" fill-opacity="1">D</text><text fill="none" stroke="rgb(255,255,255)" font-family="geogebra-sans-serif, sans-serif" font-size="24px" font-style="normal" font-weight="normal" text-decoration="normal" x="729" y="229" text-anchor="start" dominant-baseline="alphabetic" stroke-opacity="1" stroke-linejoin="bevel" stroke-miterlimit="10" stroke-width="3">D</text><text fill="rgb(21,101,192)" stroke="none" font-family="geogebra-sans-serif, sans-serif" font-size="24px" font-style="normal" font-weight="normal" text-decoration="normal" x="729" y="229" text-anchor="start" dominant-baseline="alphabetic" fill-opacity="1">D</text><path fill="rgb(46,125,50)" stroke="none" paint-order="stroke fill markers" d=" M 558.1753549090296 128.95868014009926 C 558.1753549090296 131.72010388925324 555.9367786581836 133.95868014009926 553.1753549090296 133.95868014009926 C 550.4139311598756 133.95868014009926 548.1753549090296 131.72010388925324 548.1753549090296 128.95868014009926 C 548.1753549090296 126.1972563909453 550.4139311598756 123.95868014009926 553.1753549090296 123.95868014009926 C 555.9367786581836 123.95868014009926 558.1753549090296 126.1972563909453 558.1753549090296 128.95868014009926 Z" fill-opacity="1"/><path fill="none" stroke="rgb(0,0,0)" paint-order="fill stroke markers" d=" M 558.1753549090296 128.95868014009926 C 558.1753549090296 131.72010388925324 555.9367786581836 133.95868014009926 553.1753549090296 133.95868014009926 C 550.4139311598756 133.95868014009926 548.1753549090296 131.72010388925324 548.1753549090296 128.95868014009926 C 548.1753549090296 126.1972563909453 550.4139311598756 123.95868014009926 553.1753549090296 123.95868014009926 C 555.9367786581836 123.95868014009926 558.1753549090296 126.1972563909453 558.1753549090296 128.95868014009926 Z" stroke-opacity="1" stroke-linecap="round" stroke-linejoin="round" stroke-miterlimit="10"/><text fill="rgb(46,125,50)" stroke="none" font-family="geogebra-sans-serif, sans-serif" font-size="24px" font-style="normal" font-weight="normal" text-decoration="normal" x="530" y="101" text-anchor="start" dominant-baseline="alphabetic" fill-opacity="1">P</text><text fill="none" stroke="rgb(255,255,255)" font-family="geogebra-sans-serif, sans-serif" font-size="24px" font-style="normal" font-weight="normal" text-decoration="normal" x="530" y="101" text-anchor="start" dominant-baseline="alphabetic" stroke-opacity="1" stroke-linejoin="bevel" stroke-miterlimit="10" stroke-width="3">P</text><text fill="rgb(46,125,50)" stroke="none" font-family="geogebra-sans-serif, sans-serif" font-size="24px" font-style="normal" font-weight="normal" text-decoration="normal" x="530" y="101" text-anchor="start" dominant-baseline="alphabetic" fill-opacity="1">P</text><path fill="rgb(211,47,47)" stroke="none" paint-order="stroke fill markers" d=" M 558.1753549090296 279.22172428843504 C 558.1753549090296 281.983148037589 555.9367786581836 284.22172428843504 553.1753549090296 284.22172428843504 C 550.4139311598756 284.22172428843504 548.1753549090296 281.983148037589 548.1753549090296 279.22172428843504 C 548.1753549090296 276.4603005392811 550.4139311598756 274.22172428843504 553.1753549090296 274.22172428843504 C 555.9367786581836 274.22172428843504 558.1753549090296 276.4603005392811 558.1753549090296 279.22172428843504 Z" fill-opacity="1"/><path fill="none" stroke="rgb(0,0,0)" paint-order="fill stroke markers" d=" M 558.1753549090296 279.22172428843504 C 558.1753549090296 281.983148037589 555.9367786581836 284.22172428843504 553.1753549090296 284.22172428843504 C 550.4139311598756 284.22172428843504 548.1753549090296 281.983148037589 548.1753549090296 279.22172428843504 C 548.1753549090296 276.4603005392811 550.4139311598756 274.22172428843504 553.1753549090296 274.22172428843504 C 555.9367786581836 274.22172428843504 558.1753549090296 276.4603005392811 558.1753549090296 279.22172428843504 Z" stroke-opacity="1" stroke-linecap="round" stroke-linejoin="round" stroke-miterlimit="10"/><g transform="scale(27,27)"><g transform="translate(20.11111111111111,9.68543564074074)"><path fill="rgb(211,47,47)" stroke="none" paint-order="stroke fill markers" d=" M 0.74 -0.436 L 0.74 -0.436 Q 0.74 -0.281 0.63 -0.149 Q 0.531 -0.029 0.398 0.009000000000000001 Q 0.35100000000000003 0.022 0.305 0.022 Q 0.18 0.022 0.108 -0.066 Q 0.049 -0.138 0.049 -0.245 Q 0.049 -0.395 0.156 -0.529 Q 0.255 -0.65 0.388 -0.6900000000000001 Q 0.437 -0.705 0.485 -0.705 Q 0.612 -0.705 0.684 -0.613 Q 0.74 -0.541 0.74 -0.436 M 0.311 -0.004 L 0.311 -0.004 Q 0.405 -0.004 0.492 -0.088 Q 0.51 -0.105 0.525 -0.124 Q 0.623 -0.246 0.646 -0.41500000000000004 Q 0.651 -0.448 0.651 -0.47500000000000003 Q 0.651 -0.612 0.559 -0.661 Q 0.558 -0.661 0.557 -0.662 Q 0.521 -0.68 0.47900000000000004 -0.68 Q 0.385 -0.68 0.297 -0.599 Q 0.261 -0.5670000000000001 0.233 -0.524 Q 0.157 -0.40900000000000003 0.14400000000000002 -0.249 Q 0.14200000000000002 -0.231 0.14200000000000002 -0.217 Q 0.14200000000000002 -0.089 0.219 -0.033 Q 0.259 -0.004 0.311 -0.004 Z"/></g><g transform="translate(20.901666111111112,9.01851924074074) scale(0.5,0.5)"><path fill="rgb(211,47,47)" stroke="none" paint-order="stroke fill markers" d=" M 0.255 -0.47900000000000004 L 0.076 -0.059000000000000004 Q 0.07 -0.045 0.063 -0.045 Q 0.045 -0.045 0.033 -0.056 Q 0.029 -0.059000000000000004 0.029 -0.063 Q 0.029 -0.065 0.032 -0.077 L 0.153 -0.513 Q 0.166 -0.554 0.197 -0.558 Q 0.202 -0.559 0.20600000000000002 -0.559 Q 0.24 -0.559 0.256 -0.53 Q 0.262 -0.519 0.262 -0.507 Q 0.262 -0.494 0.255 -0.47900000000000004 Z"/></g></g><path fill="rgb(21,101,192)" stroke="none" paint-order="stroke fill markers" d=" M 589.4388929647121 327.11513799311865 C 589.4388929647121 329.8765617422726 587.2003167138661 332.11513799311865 584.4388929647121 332.11513799311865 C 581.6774692155581 332.11513799311865 579.4388929647121 329.8765617422726 579.4388929647121 327.11513799311865 C 579.4388929647121 324.3537142439647 581.6774692155581 322.11513799311865 584.4388929647121 322.11513799311865 C 587.2003167138661 322.11513799311865 589.4388929647121 324.3537142439647 589.4388929647121 327.11513799311865 Z" fill-opacity="1"/><path fill="none" stroke="rgb(0,0,0)" paint-order="fill stroke markers" d=" M 589.4388929647121 327.11513799311865 C 589.4388929647121 329.8765617422726 587.2003167138661 332.11513799311865 584.4388929647121 332.11513799311865 C 581.6774692155581 332.11513799311865 579.4388929647121 329.8765617422726 579.4388929647121 327.11513799311865 C 579.4388929647121 324.3537142439647 581.6774692155581 322.11513799311865 584.4388929647121 322.11513799311865 C 587.2003167138661 322.11513799311865 589.4388929647121 324.3537142439647 589.4388929647121 327.11513799311865 Z" stroke-opacity="1" stroke-linecap="round" stroke-linejoin="round" stroke-miterlimit="10"/><text fill="rgb(21,101,192)" stroke="none" font-family="geogebra-sans-serif, sans-serif" font-size="24px" font-style="normal" font-weight="normal" text-decoration="normal" x="565" y="365" text-anchor="start" dominant-baseline="alphabetic" fill-opacity="1">E</text><text fill="none" stroke="rgb(255,255,255)" font-family="geogebra-sans-serif, sans-serif" font-size="24px" font-style="normal" font-weight="normal" text-decoration="normal" x="565" y="365" text-anchor="start" dominant-baseline="alphabetic" stroke-opacity="1" stroke-linejoin="bevel" stroke-miterlimit="10" stroke-width="3">E</text><text fill="rgb(21,101,192)" stroke="none" font-family="geogebra-sans-serif, sans-serif" font-size="24px" font-style="normal" font-weight="normal" text-decoration="normal" x="565" y="365" text-anchor="start" dominant-baseline="alphabetic" fill-opacity="1">E</text></g></g></svg>