<svg version="1.1" xmlns="http://www.w3.org/2000/svg" xmlns:xlink="http://www.w3.org/1999/xlink" width="1310" height="704"><defs><clipPath id="OPzSNezQiWqm"><path fill="none" stroke="none" d=" M 0 0 L 1310 0 L 1310 704 L 0 704 L 0 0 Z"/></clipPath></defs><g transform="scale(1,1)" clip-path="url(#OPzSNezQiWqm)"><g><rect fill="rgb(255,255,255)" stroke="none" x="0" y="0" width="1310" height="704" fill-opacity="1"/><path fill="none" stroke="rgb(0,0,0)" paint-order="fill stroke markers" d=" M 1060.0294605735942 607.8002736968074 C 1060.0294605735942 406.1824958349505 896.5859581382354 242.73899339959166 694.9681802763782 242.73899339959166 C 493.3504024145212 242.73899339959166 329.9068999791623 406.18249583495043 329.90689997916223 607.8002736968074" stroke-opacity="0.6980392156862745" stroke-linecap="round" stroke-linejoin="round" stroke-miterlimit="10" stroke-width="1.5"/><path fill="none" stroke="rgb(0,0,0)" paint-order="fill stroke markers" d=" M 629.4383990573654 277.2217242884346 C 629.4383990573654 360.20971203471163 562.1633426553065 427.4847684367704 479.17535490902935 427.4847684367704 C 396.1873671627522 427.4847684367704 328.9123107606934 360.20971203471163 328.9123107606934 277.2217242884346 C 328.9123107606934 194.2337365421575 396.1873671627522 126.95868014009878 479.17535490902935 126.95868014009878 C 562.1633426553065 126.95868014009878 629.4383990573654 194.2337365421575 629.4383990573654 277.2217242884346 Z" stroke-opacity="0.6980392156862745" stroke-linecap="round" stroke-linejoin="round" stroke-miterlimit="10" stroke-width="1.5"/><path fill="none" stroke="rgb(0,0,0)" paint-order="fill stroke markers" d=" M 784.4601669535623 442.510998992621 C 784.4601669535623 551.5256017531335 696.0863703532162 639.8993983534795 587.0717675927037 639.8993983534795 C 478.0571648321912 639.8993983534795 389.68336823184507 551.5256017531335 389.68336823184507 442.510998992621 C 389.68336823184507 333.49639623210857 478.0571648321912 245.1225996317625 587.0717675927037 245.1225996317625 C 696.0863703532162 245.1225996317625 784.4601669535623 333.49639623210857 784.4601669535623 442.510998992621 Z" stroke-opacity="0.6980392156862745" stroke-linecap="round" stroke-linejoin="round" stroke-miterlimit="10" stroke-width="2.5"/><path fill="rgb(0,0,0)" stroke="none" paint-order="stroke fill markers" d=" M 470.2811091544813 155.60989987779413 C 481.8926435278537 159.21448778887287 494.53161332322577 155.45440108253376 502.2845511601216 146.08889311927135 L 479.1753549090294 126.9586801400988 Z" fill-opacity="0.09803921568627451"/><path fill="none" stroke="rgb(0,0,0)" paint-order="fill stroke markers" d=" M 470.2811091544813 155.60989987779413 C 481.8926435278537 159.21448778887287 494.53161332322577 155.45440108253376 502.2845511601216 146.08889311927135 L 479.1753549090294 126.9586801400988 Z" stroke-opacity="0.6" stroke-linecap="round" stroke-linejoin="round" stroke-miterlimit="10" stroke-width="2.5"/><g transform="scale(27,27)"><g transform="translate(17.88888888888889,6.694445)"><path fill="rgb(0,0,0)" stroke="none" paint-order="stroke fill markers" d=" M 0.455 -0.5 L 0.455 -0.5 Q 0.455 -0.34700000000000003 0.377 -0.19 Q 0.307 -0.05 0.222 -0.005 Q 0.191 0.011 0.162 0.011 Q 0.08 0.011 0.052000000000000005 -0.101 Q 0.042 -0.14300000000000002 0.042 -0.194 Q 0.042 -0.35100000000000003 0.122 -0.509 Q 0.192 -0.646 0.277 -0.6900000000000001 Q 0.307 -0.705 0.335 -0.705 Q 0.422 -0.705 0.447 -0.578 Q 0.455 -0.54 0.455 -0.5 M 0.148 -0.363 L 0.148 -0.363 L 0.357 -0.363 Q 0.389 -0.495 0.389 -0.562 Q 0.389 -0.675 0.342 -0.682 Q 0.338 -0.683 0.334 -0.683 Q 0.28300000000000003 -0.683 0.225 -0.578 Q 0.187 -0.511 0.149 -0.368 Q 0.149 -0.365 0.148 -0.363 M 0.34800000000000003 -0.331 L 0.14 -0.331 Q 0.108 -0.21 0.108 -0.133 Q 0.108 -0.013000000000000001 0.162 -0.011 Q 0.218 -0.011 0.278 -0.128 Q 0.317 -0.202 0.34800000000000003 -0.331 Z"/></g></g><path fill="rgb(0,0,0)" stroke="none" paint-order="stroke fill markers" fill-rule="evenodd" d=" M 510.43889296471184 325.1151379931182 L 522.0344505539161 342.87866929169127 L 539.7979818524913 331.28311170248736 L 528.2024242632849 313.5195804039139 L 510.43889296471184 325.1151379931182" fill-opacity="0.09803921568627451"/><path fill="none" stroke="rgb(0,0,0)" paint-order="fill stroke markers" d=" M 510.43889296471184 325.1151379931182 L 522.0344505539161 342.87866929169127 L 539.7979818524913 331.28311170248736 L 528.2024242632849 313.5195804039139 L 510.43889296471184 325.1151379931182" stroke-opacity="0.6" stroke-linecap="round" stroke-linejoin="round" stroke-miterlimit="10" stroke-width="2.5"/><path fill="rgb(0,0,0)" stroke="none" paint-order="stroke fill markers" fill-rule="evenodd" d=" M 626.7950537488381 249.16095182634893 L 605.9550213886604 253.1223974244465 L 609.9164669867569 273.96242978462584 L 630.7564993469357 270.0009841865266 L 626.7950537488381 249.16095182634893" fill-opacity="0.09803921568627451"/><path fill="none" stroke="rgb(0,0,0)" paint-order="fill stroke markers" d=" M 626.7950537488381 249.16095182634893 L 605.9550213886604 253.1223974244465 L 609.9164669867569 273.96242978462584 L 630.7564993469357 270.0009841865266 L 626.7950537488381 249.16095182634893" stroke-opacity="0.6" stroke-linecap="round" stroke-linejoin="round" stroke-miterlimit="10" stroke-width="2.5"/><path fill="rgb(0,0,0)" stroke="none" paint-order="stroke fill markers" fill-rule="evenodd" d=" M 394.08273218058565 401.0693241598874 L 411.56676723374073 413.08217220937104 L 423.57961528322636 395.59813715621556 L 406.0955802300693 383.5852891067323 L 394.08273218058565 401.0693241598874" fill-opacity="0.09803921568627451"/><path fill="none" stroke="rgb(0,0,0)" paint-order="fill stroke markers" d=" M 394.08273218058565 401.0693241598874 L 411.56676723374073 413.08217220937104 L 423.57961528322636 395.59813715621556 L 406.0955802300693 383.5852891067323 L 394.08273218058565 401.0693241598874" stroke-opacity="0.6" stroke-linecap="round" stroke-linejoin="round" stroke-miterlimit="10" stroke-width="2.5"/><path fill="none" stroke="rgb(0,0,0)" paint-order="fill stroke markers" d=" M -5 607.8002736968074 L 1315 607.8002736968074" stroke-opacity="0.6980392156862745" stroke-linecap="round" stroke-linejoin="round" stroke-miterlimit="10" stroke-width="2.5"/><path fill="none" stroke="rgb(0,0,0)" paint-order="fill stroke markers" d=" M 298.49130077347195 709 L 520.1395072682285 -5" stroke-opacity="0.6980392156862745" stroke-linecap="round" stroke-linejoin="round" stroke-miterlimit="10" stroke-width="2.5"/><path fill="none" stroke="rgb(0,0,0)" paint-order="fill stroke markers" d=" M 319.76996618112213 -5 L 1182.278195506312 709" stroke-opacity="0.6980392156862745" stroke-linecap="round" stroke-linejoin="round" stroke-miterlimit="10" stroke-width="2.5"/><path fill="none" stroke="rgb(0,0,0)" paint-order="fill stroke markers" d=" M 329.90689997916223 607.8002736968074 L 1060.0294605735942 607.8002736968074" stroke-opacity="0.6980392156862745" stroke-linecap="round" stroke-linejoin="round" stroke-miterlimit="10" stroke-width="2.5"/><path fill="none" stroke="rgb(0,0,0)" paint-order="fill stroke markers" d=" M 394.08273218058565 401.0693241598874 L 626.7950537488381 249.16095182634893" stroke-opacity="0.6980392156862745" stroke-linecap="round" stroke-linejoin="round" stroke-miterlimit="10" stroke-width="2.5"/><path fill="none" stroke="rgb(0,0,0)" paint-order="fill stroke markers" d=" M 626.7950537488381 249.16095182634893 L 694.9681802763782 607.8002736968074" stroke-opacity="0.6980392156862745" stroke-linejoin="round" stroke-miterlimit="10" stroke-width="1.5" stroke-dasharray="9.5,8"/><path fill="none" stroke="rgb(0,0,0)" paint-order="fill stroke markers" d=" M 394.08273218058565 401.0693241598874 L 694.9681802763782 607.8002736968074" stroke-opacity="0.6980392156862745" stroke-linejoin="round" stroke-miterlimit="10" stroke-width="1.5" stroke-dasharray="5.5,4"/><path fill="none" stroke="rgb(0,0,0)" paint-order="fill stroke markers" d=" M 479.17535490902935 277.2217242884346 L 394.08273218058565 401.0693241598874" stroke-opacity="0.6980392156862745" stroke-linejoin="round" stroke-miterlimit="10" stroke-width="1.5" stroke-dasharray="5.5,4"/><path fill="none" stroke="rgb(0,0,0)" paint-order="fill stroke markers" d=" M 479.17535490902935 277.2217242884346 L 626.7950537488381 249.16095182634893" stroke-opacity="0.6980392156862745" stroke-linejoin="round" stroke-miterlimit="10" stroke-width="1.5" stroke-dasharray="5.5,4"/><path fill="none" stroke="rgb(0,0,0)" paint-order="fill stroke markers" d=" M 694.9681802763782 607.8002736968074 L 479.17535490902935 277.2217242884346" stroke-opacity="0.6980392156862745" stroke-linecap="round" stroke-linejoin="round" stroke-miterlimit="10" stroke-width="2.5"/><path fill="rgb(21,101,192)" stroke="none" paint-order="stroke fill markers" d=" M 334.90689997916223 607.8002736968074 C 334.90689997916223 610.5616974459614 332.6683237283162 612.8002736968074 329.90689997916223 612.8002736968074 C 327.1454762300083 612.8002736968074 324.90689997916223 610.5616974459614 324.90689997916223 607.8002736968074 C 324.90689997916223 605.0388499476534 327.1454762300083 602.8002736968074 329.90689997916223 602.8002736968074 C 332.6683237283162 602.8002736968074 334.90689997916223 605.0388499476534 334.90689997916223 607.8002736968074 Z" fill-opacity="1"/><path fill="none" stroke="rgb(0,0,0)" paint-order="fill stroke markers" d=" M 334.90689997916223 607.8002736968074 C 334.90689997916223 610.5616974459614 332.6683237283162 612.8002736968074 329.90689997916223 612.8002736968074 C 327.1454762300083 612.8002736968074 324.90689997916223 610.5616974459614 324.90689997916223 607.8002736968074 C 324.90689997916223 605.0388499476534 327.1454762300083 602.8002736968074 329.90689997916223 602.8002736968074 C 332.6683237283162 602.8002736968074 334.90689997916223 605.0388499476534 334.90689997916223 607.8002736968074 Z" stroke-opacity="1" stroke-linecap="round" stroke-linejoin="round" stroke-miterlimit="10"/><text fill="rgb(21,101,192)" stroke="none" font-family="geogebra-sans-serif, sans-serif" font-size="24px" font-style="normal" font-weight="normal" text-decoration="normal" x="286" y="642" text-anchor="start" dominant-baseline="alphabetic" fill-opacity="1">A</text><text fill="none" stroke="rgb(255,255,255)" font-family="geogebra-sans-serif, sans-serif" font-size="24px" font-style="normal" font-weight="normal" text-decoration="normal" x="286" y="642" text-anchor="start" dominant-baseline="alphabetic" stroke-opacity="1" stroke-linejoin="bevel" stroke-miterlimit="10" stroke-width="3">A</text><text fill="rgb(21,101,192)" stroke="none" font-family="geogebra-sans-serif, sans-serif" font-size="24px" font-style="normal" font-weight="normal" text-decoration="normal" x="286" y="642" text-anchor="start" dominant-baseline="alphabetic" fill-opacity="1">A</text><path fill="rgb(21,101,192)" stroke="none" paint-order="stroke fill markers" d=" M 1065.0294605735942 607.8002736968074 C 1065.0294605735942 610.5616974459614 1062.790884322748 612.8002736968074 1060.0294605735942 612.8002736968074 C 1057.2680368244403 612.8002736968074 1055.0294605735942 610.5616974459614 1055.0294605735942 607.8002736968074 C 1055.0294605735942 605.0388499476534 1057.2680368244403 602.8002736968074 1060.0294605735942 602.8002736968074 C 1062.790884322748 602.8002736968074 1065.0294605735942 605.0388499476534 1065.0294605735942 607.8002736968074 Z" fill-opacity="1"/><path fill="none" stroke="rgb(0,0,0)" paint-order="fill stroke markers" d=" M 1065.0294605735942 607.8002736968074 C 1065.0294605735942 610.5616974459614 1062.790884322748 612.8002736968074 1060.0294605735942 612.8002736968074 C 1057.2680368244403 612.8002736968074 1055.0294605735942 610.5616974459614 1055.0294605735942 607.8002736968074 C 1055.0294605735942 605.0388499476534 1057.2680368244403 602.8002736968074 1060.0294605735942 602.8002736968074 C 1062.790884322748 602.8002736968074 1065.0294605735942 605.0388499476534 1065.0294605735942 607.8002736968074 Z" stroke-opacity="1" stroke-linecap="round" stroke-linejoin="round" stroke-miterlimit="10"/><text fill="rgb(21,101,192)" stroke="none" font-family="geogebra-sans-serif, sans-serif" font-size="24px" font-style="normal" font-weight="normal" text-decoration="normal" x="1055" y="647" text-anchor="start" dominant-baseline="alphabetic" fill-opacity="1">B</text><text fill="none" stroke="rgb(255,255,255)" font-family="geogebra-sans-serif, sans-serif" font-size="24px" font-style="normal" font-weight="normal" text-decoration="normal" x="1055" y="647" text-anchor="start" dominant-baseline="alphabetic" stroke-opacity="1" stroke-linejoin="bevel" stroke-miterlimit="10" stroke-width="3">B</text><text fill="rgb(21,101,192)" stroke="none" font-family="geogebra-sans-serif, sans-serif" font-size="24px" font-style="normal" font-weight="normal" text-decoration="normal" x="1055" y="647" text-anchor="start" dominant-baseline="alphabetic" fill-opacity="1">B</text><path fill="rgb(211,47,47)" stroke="none" paint-order="stroke fill markers" d=" M 699.9681802763782 607.8002736968074 C 699.9681802763782 610.5616974459614 697.7296040255322 612.8002736968074 694.9681802763782 612.8002736968074 C 692.2067565272242 612.8002736968074 689.9681802763782 610.5616974459614 689.9681802763782 607.8002736968074 C 689.9681802763782 605.0388499476534 692.2067565272242 602.8002736968074 694.9681802763782 602.8002736968074 C 697.7296040255322 602.8002736968074 699.9681802763782 605.0388499476534 699.9681802763782 607.8002736968074 Z" fill-opacity="1"/><path fill="none" stroke="rgb(0,0,0)" paint-order="fill stroke markers" d=" M 699.9681802763782 607.8002736968074 C 699.9681802763782 610.5616974459614 697.7296040255322 612.8002736968074 694.9681802763782 612.8002736968074 C 692.2067565272242 612.8002736968074 689.9681802763782 610.5616974459614 689.9681802763782 607.8002736968074 C 689.9681802763782 605.0388499476534 692.2067565272242 602.8002736968074 694.9681802763782 602.8002736968074 C 697.7296040255322 602.8002736968074 699.9681802763782 605.0388499476534 699.9681802763782 607.8002736968074 Z" stroke-opacity="1" stroke-linecap="round" stroke-linejoin="round" stroke-miterlimit="10"/><g transform="scale(27,27)"><g transform="translate(25.40740740740741,24.016665333333332)"><path fill="rgb(211,47,47)" stroke="none" paint-order="stroke fill markers" d=" M 0.74 -0.436 L 0.74 -0.436 Q 0.74 -0.281 0.63 -0.149 Q 0.531 -0.029 0.398 0.009000000000000001 Q 0.35100000000000003 0.022 0.305 0.022 Q 0.18 0.022 0.108 -0.066 Q 0.049 -0.138 0.049 -0.245 Q 0.049 -0.395 0.156 -0.529 Q 0.255 -0.65 0.388 -0.6900000000000001 Q 0.437 -0.705 0.485 -0.705 Q 0.612 -0.705 0.684 -0.613 Q 0.74 -0.541 0.74 -0.436 M 0.311 -0.004 L 0.311 -0.004 Q 0.405 -0.004 0.492 -0.088 Q 0.51 -0.105 0.525 -0.124 Q 0.623 -0.246 0.646 -0.41500000000000004 Q 0.651 -0.448 0.651 -0.47500000000000003 Q 0.651 -0.612 0.559 -0.661 Q 0.558 -0.661 0.557 -0.662 Q 0.521 -0.68 0.47900000000000004 -0.68 Q 0.385 -0.68 0.297 -0.599 Q 0.261 -0.5670000000000001 0.233 -0.524 Q 0.157 -0.40900000000000003 0.14400000000000002 -0.249 Q 0.14200000000000002 -0.231 0.14200000000000002 -0.217 Q 0.14200000000000002 -0.089 0.219 -0.033 Q 0.259 -0.004 0.311 -0.004 Z"/></g></g><path fill="rgb(21,101,192)" stroke="none" paint-order="stroke fill markers" d=" M 399.08273218058565 401.0693241598874 C 399.08273218058565 403.83074790904135 396.8441559297396 406.0693241598874 394.08273218058565 406.0693241598874 C 391.3213084314317 406.0693241598874 389.08273218058565 403.83074790904135 389.08273218058565 401.0693241598874 C 389.08273218058565 398.30790041073345 391.3213084314317 396.0693241598874 394.08273218058565 396.0693241598874 C 396.8441559297396 396.0693241598874 399.08273218058565 398.30790041073345 399.08273218058565 401.0693241598874 Z" fill-opacity="1"/><path fill="none" stroke="rgb(0,0,0)" paint-order="fill stroke markers" d=" M 399.08273218058565 401.0693241598874 C 399.08273218058565 403.83074790904135 396.8441559297396 406.0693241598874 394.08273218058565 406.0693241598874 C 391.3213084314317 406.0693241598874 389.08273218058565 403.83074790904135 389.08273218058565 401.0693241598874 C 389.08273218058565 398.30790041073345 391.3213084314317 396.0693241598874 394.08273218058565 396.0693241598874 C 396.8441559297396 396.0693241598874 399.08273218058565 398.30790041073345 399.08273218058565 401.0693241598874 Z" stroke-opacity="1" stroke-linecap="round" stroke-linejoin="round" stroke-miterlimit="10"/><text fill="rgb(21,101,192)" stroke="none" font-family="geogebra-sans-serif, sans-serif" font-size="24px" font-style="normal" font-weight="normal" text-decoration="normal" x="340" y="398" text-anchor="start" dominant-baseline="alphabetic" fill-opacity="1">C</text><text fill="none" stroke="rgb(255,255,255)" font-family="geogebra-sans-serif, sans-serif" font-size="24px" font-style="normal" font-weight="normal" text-decoration="normal" x="340" y="398" text-anchor="start" dominant-baseline="alphabetic" stroke-opacity="1" stroke-linejoin="bevel" stroke-miterlimit="10" stroke-width="3">C</text><text fill="rgb(21,101,192)" stroke="none" font-family="geogebra-sans-serif, sans-serif" font-size="24px" font-style="normal" font-weight="normal" text-decoration="normal" x="340" y="398" text-anchor="start" dominant-baseline="alphabetic" fill-opacity="1">C</text><path fill="rgb(21,101,192)" stroke="none" paint-order="stroke fill markers" d=" M 631.7950537488381 249.16095182634893 C 631.7950537488381 251.9223755755029 629.5564774979921 254.16095182634893 626.7950537488381 254.16095182634893 C 624.0336299996841 254.16095182634893 621.7950537488381 251.9223755755029 621.7950537488381 249.16095182634893 C 621.7950537488381 246.39952807719496 624.0336299996841 244.16095182634893 626.7950537488381 244.16095182634893 C 629.5564774979921 244.16095182634893 631.7950537488381 246.39952807719496 631.7950537488381 249.16095182634893 Z" fill-opacity="1"/><path fill="none" stroke="rgb(0,0,0)" paint-order="fill stroke markers" d=" M 631.7950537488381 249.16095182634893 C 631.7950537488381 251.9223755755029 629.5564774979921 254.16095182634893 626.7950537488381 254.16095182634893 C 624.0336299996841 254.16095182634893 621.7950537488381 251.9223755755029 621.7950537488381 249.16095182634893 C 621.7950537488381 246.39952807719496 624.0336299996841 244.16095182634893 626.7950537488381 244.16095182634893 C 629.5564774979921 244.16095182634893 631.7950537488381 246.39952807719496 631.7950537488381 249.16095182634893 Z" stroke-opacity="1" stroke-linecap="round" stroke-linejoin="round" stroke-miterlimit="10"/><text fill="rgb(21,101,192)" stroke="none" font-family="geogebra-sans-serif, sans-serif" font-size="24px" font-style="normal" font-weight="normal" text-decoration="normal" x="655" y="227" text-anchor="start" dominant-baseline="alphabetic" fill-opacity="1">D</text><text fill="none" stroke="rgb(255,255,255)" font-family="geogebra-sans-serif, sans-serif" font-size="24px" font-style="normal" font-weight="normal" text-decoration="normal" x="655" y="227" text-anchor="start" dominant-baseline="alphabetic" stroke-opacity="1" stroke-linejoin="bevel" stroke-miterlimit="10" stroke-width="3">D</text><text fill="rgb(21,101,192)" stroke="none" font-family="geogebra-sans-serif, sans-serif" font-size="24px" font-style="normal" font-weight="normal" text-decoration="normal" x="655" y="227" text-anchor="start" dominant-baseline="alphabetic" fill-opacity="1">D</text><path fill="rgb(46,125,50)" stroke="none" paint-order="stroke fill markers" d=" M 484.1753549090294 126.9586801400988 C 484.1753549090294 129.72010388925278 481.93677865818336 131.9586801400988 479.1753549090294 131.9586801400988 C 476.41393115987546 131.9586801400988 474.1753549090294 129.72010388925278 474.1753549090294 126.9586801400988 C 474.1753549090294 124.19725639094484 476.41393115987546 121.9586801400988 479.1753549090294 121.9586801400988 C 481.93677865818336 121.9586801400988 484.1753549090294 124.19725639094484 484.1753549090294 126.9586801400988 Z" fill-opacity="1"/><path fill="none" stroke="rgb(0,0,0)" paint-order="fill stroke markers" d=" M 484.1753549090294 126.9586801400988 C 484.1753549090294 129.72010388925278 481.93677865818336 131.9586801400988 479.1753549090294 131.9586801400988 C 476.41393115987546 131.9586801400988 474.1753549090294 129.72010388925278 474.1753549090294 126.9586801400988 C 474.1753549090294 124.19725639094484 476.41393115987546 121.9586801400988 479.1753549090294 121.9586801400988 C 481.93677865818336 121.9586801400988 484.1753549090294 124.19725639094484 484.1753549090294 126.9586801400988 Z" stroke-opacity="1" stroke-linecap="round" stroke-linejoin="round" stroke-miterlimit="10"/><text fill="rgb(46,125,50)" stroke="none" font-family="geogebra-sans-serif, sans-serif" font-size="24px" font-style="normal" font-weight="normal" text-decoration="normal" x="456" y="99" text-anchor="start" dominant-baseline="alphabetic" fill-opacity="1">P</text><text fill="none" stroke="rgb(255,255,255)" font-family="geogebra-sans-serif, sans-serif" font-size="24px" font-style="normal" font-weight="normal" text-decoration="normal" x="456" y="99" text-anchor="start" dominant-baseline="alphabetic" stroke-opacity="1" stroke-linejoin="bevel" stroke-miterlimit="10" stroke-width="3">P</text><text fill="rgb(46,125,50)" stroke="none" font-family="geogebra-sans-serif, sans-serif" font-size="24px" font-style="normal" font-weight="normal" text-decoration="normal" x="456" y="99" text-anchor="start" dominant-baseline="alphabetic" fill-opacity="1">P</text><path fill="rgb(211,47,47)" stroke="none" paint-order="stroke fill markers" d=" M 484.17535490902935 277.2217242884346 C 484.17535490902935 279.98314803758853 481.9367786581833 282.2217242884346 479.17535490902935 282.2217242884346 C 476.4139311598754 282.2217242884346 474.17535490902935 279.98314803758853 474.17535490902935 277.2217242884346 C 474.17535490902935 274.46030053928064 476.4139311598754 272.2217242884346 479.17535490902935 272.2217242884346 C 481.9367786581833 272.2217242884346 484.17535490902935 274.46030053928064 484.17535490902935 277.2217242884346 Z" fill-opacity="1"/><path fill="none" stroke="rgb(0,0,0)" paint-order="fill stroke markers" d=" M 484.17535490902935 277.2217242884346 C 484.17535490902935 279.98314803758853 481.9367786581833 282.2217242884346 479.17535490902935 282.2217242884346 C 476.4139311598754 282.2217242884346 474.17535490902935 279.98314803758853 474.17535490902935 277.2217242884346 C 474.17535490902935 274.46030053928064 476.4139311598754 272.2217242884346 479.17535490902935 272.2217242884346 C 481.9367786581833 272.2217242884346 484.17535490902935 274.46030053928064 484.17535490902935 277.2217242884346 Z" stroke-opacity="1" stroke-linecap="round" stroke-linejoin="round" stroke-miterlimit="10"/><g transform="scale(27,27)"><g transform="translate(17.37037037037037,9.611361566666666)"><path fill="rgb(211,47,47)" stroke="none" paint-order="stroke fill markers" d=" M 0.74 -0.436 L 0.74 -0.436 Q 0.74 -0.281 0.63 -0.149 Q 0.531 -0.029 0.398 0.009000000000000001 Q 0.35100000000000003 0.022 0.305 0.022 Q 0.18 0.022 0.108 -0.066 Q 0.049 -0.138 0.049 -0.245 Q 0.049 -0.395 0.156 -0.529 Q 0.255 -0.65 0.388 -0.6900000000000001 Q 0.437 -0.705 0.485 -0.705 Q 0.612 -0.705 0.684 -0.613 Q 0.74 -0.541 0.74 -0.436 M 0.311 -0.004 L 0.311 -0.004 Q 0.405 -0.004 0.492 -0.088 Q 0.51 -0.105 0.525 -0.124 Q 0.623 -0.246 0.646 -0.41500000000000004 Q 0.651 -0.448 0.651 -0.47500000000000003 Q 0.651 -0.612 0.559 -0.661 Q 0.558 -0.661 0.557 -0.662 Q 0.521 -0.68 0.47900000000000004 -0.68 Q 0.385 -0.68 0.297 -0.599 Q 0.261 -0.5670000000000001 0.233 -0.524 Q 0.157 -0.40900000000000003 0.14400000000000002 -0.249 Q 0.14200000000000002 -0.231 0.14200000000000002 -0.217 Q 0.14200000000000002 -0.089 0.219 -0.033 Q 0.259 -0.004 0.311 -0.004 Z"/></g><g transform="translate(18.16092537037037,8.944445166666666) scale(0.5,0.5)"><path fill="rgb(211,47,47)" stroke="none" paint-order="stroke fill markers" d=" M 0.255 -0.47900000000000004 L 0.076 -0.059000000000000004 Q 0.07 -0.045 0.063 -0.045 Q 0.045 -0.045 0.033 -0.056 Q 0.029 -0.059000000000000004 0.029 -0.063 Q 0.029 -0.065 0.032 -0.077 L 0.153 -0.513 Q 0.166 -0.554 0.197 -0.558 Q 0.202 -0.559 0.20600000000000002 -0.559 Q 0.24 -0.559 0.256 -0.53 Q 0.262 -0.519 0.262 -0.507 Q 0.262 -0.494 0.255 -0.47900000000000004 Z"/></g></g><path fill="rgb(21,101,192)" stroke="none" paint-order="stroke fill markers" d=" M 515.4388929647118 325.1151379931182 C 515.4388929647118 327.87656174227214 513.2003167138658 330.1151379931182 510.43889296471184 330.1151379931182 C 507.6774692155579 330.1151379931182 505.43889296471184 327.87656174227214 505.43889296471184 325.1151379931182 C 505.43889296471184 322.35371424396425 507.6774692155579 320.1151379931182 510.43889296471184 320.1151379931182 C 513.2003167138658 320.1151379931182 515.4388929647118 322.35371424396425 515.4388929647118 325.1151379931182 Z" fill-opacity="1"/><path fill="none" stroke="rgb(0,0,0)" paint-order="fill stroke markers" d=" M 515.4388929647118 325.1151379931182 C 515.4388929647118 327.87656174227214 513.2003167138658 330.1151379931182 510.43889296471184 330.1151379931182 C 507.6774692155579 330.1151379931182 505.43889296471184 327.87656174227214 505.43889296471184 325.1151379931182 C 505.43889296471184 322.35371424396425 507.6774692155579 320.1151379931182 510.43889296471184 320.1151379931182 C 513.2003167138658 320.1151379931182 515.4388929647118 322.35371424396425 515.4388929647118 325.1151379931182 Z" stroke-opacity="1" stroke-linecap="round" stroke-linejoin="round" stroke-miterlimit="10"/><text fill="rgb(21,101,192)" stroke="none" font-family="geogebra-sans-serif, sans-serif" font-size="24px" font-style="normal" font-weight="normal" text-decoration="normal" x="491" y="363" text-anchor="start" dominant-baseline="alphabetic" fill-opacity="1">E</text><text fill="none" stroke="rgb(255,255,255)" font-family="geogebra-sans-serif, sans-serif" font-size="24px" font-style="normal" font-weight="normal" text-decoration="normal" x="491" y="363" text-anchor="start" dominant-baseline="alphabetic" stroke-opacity="1" stroke-linejoin="bevel" stroke-miterlimit="10" stroke-width="3">E</text><text fill="rgb(21,101,192)" stroke="none" font-family="geogebra-sans-serif, sans-serif" font-size="24px" font-style="normal" font-weight="normal" text-decoration="normal" x="491" y="363" text-anchor="start" dominant-baseline="alphabetic" fill-opacity="1">E</text></g></g></svg>