<svg version="1.1" xmlns="http://www.w3.org/2000/svg" xmlns:xlink="http://www.w3.org/1999/xlink" width="1310" height="704"><defs><clipPath id="AyTtTiTMopJy"><path fill="none" stroke="none" d=" M 0 0 L 1310 0 L 1310 704 L 0 704 L 0 0 Z"/></clipPath></defs><g transform="scale(1,1)" clip-path="url(#AyTtTiTMopJy)"><g><rect fill="rgb(255,255,255)" stroke="none" x="0" y="0" width="1310" height="704" fill-opacity="1"/><path fill="none" stroke="rgb(0,0,0)" paint-order="fill stroke markers" d=" M 1042.0294605735942 632.8002736968074 C 1042.0294605735942 431.1824958349505 878.5859581382354 267.73899339959166 676.9681802763782 267.73899339959166 C 475.3504024145212 267.73899339959166 311.9068999791623 431.18249583495043 311.90689997916223 632.8002736968074" stroke-opacity="0.6980392156862745" stroke-linecap="round" stroke-linejoin="round" stroke-miterlimit="10" stroke-width="1.5"/><path fill="none" stroke="rgb(0,0,0)" paint-order="fill stroke markers" d=" M 1071.7449789980933 482.53722954847717 C 1071.7449789980933 700.5664350695008 894.9973857974021 877.314028270192 676.9681802763782 877.314028270192 C 458.93897475535437 877.314028270192 282.19138155466317 700.5664350695008 282.19138155466317 482.53722954847717 C 282.19138155466317 264.5080240274535 458.93897475535437 87.76043082676239 676.9681802763782 87.76043082676239 C 894.9973857974021 87.76043082676239 1071.7449789980933 264.5080240274535 1071.7449789980933 482.53722954847717 Z" stroke-opacity="0.6980392156862745" stroke-linecap="round" stroke-linejoin="round" stroke-miterlimit="10" stroke-width="2.5"/><path fill="rgb(0,0,0)" stroke="none" paint-order="stroke fill markers" d=" M 312.2068438542334 361.4674240717637 C 324.3649935438141 361.4808642524739 335.32905765446895 354.1548074887729 339.9692165469784 342.91693803033144 L 312.24000722080166 331.4674424019173 Z" fill-opacity="0.09803921568627451"/><path fill="none" stroke="rgb(0,0,0)" paint-order="fill stroke markers" d=" M 312.2068438542334 361.4674240717637 C 324.3649935438141 361.4808642524739 335.32905765446895 354.1548074887729 339.9692165469784 342.91693803033144 L 312.24000722080166 331.4674424019173 Z" stroke-opacity="0.6" stroke-linecap="round" stroke-linejoin="round" stroke-miterlimit="10" stroke-width="2.5"/><g transform="scale(27,27)"><g transform="translate(11.88888888888889,14.212963518518519)"><path fill="rgb(0,0,0)" stroke="none" paint-order="stroke fill markers" d=" M 0.455 -0.5 L 0.455 -0.5 Q 0.455 -0.34700000000000003 0.377 -0.19 Q 0.307 -0.05 0.222 -0.005 Q 0.191 0.011 0.162 0.011 Q 0.08 0.011 0.052000000000000005 -0.101 Q 0.042 -0.14300000000000002 0.042 -0.194 Q 0.042 -0.35100000000000003 0.122 -0.509 Q 0.192 -0.646 0.277 -0.6900000000000001 Q 0.307 -0.705 0.335 -0.705 Q 0.422 -0.705 0.447 -0.578 Q 0.455 -0.54 0.455 -0.5 M 0.148 -0.363 L 0.148 -0.363 L 0.357 -0.363 Q 0.389 -0.495 0.389 -0.562 Q 0.389 -0.675 0.342 -0.682 Q 0.338 -0.683 0.334 -0.683 Q 0.28300000000000003 -0.683 0.225 -0.578 Q 0.187 -0.511 0.149 -0.368 Q 0.149 -0.365 0.148 -0.363 M 0.34800000000000003 -0.331 L 0.14 -0.331 Q 0.108 -0.21 0.108 -0.133 Q 0.108 -0.013000000000000001 0.162 -0.011 Q 0.218 -0.011 0.278 -0.128 Q 0.317 -0.202 0.34800000000000003 -0.331 Z"/></g></g><path fill="none" stroke="rgb(0,0,0)" paint-order="fill stroke markers" d=" M -5 632.8002736968074 L 1315 632.8002736968074" stroke-opacity="0.6980392156862745" stroke-linecap="round" stroke-linejoin="round" stroke-miterlimit="10" stroke-width="2.5"/><path fill="none" stroke="rgb(0,0,0)" paint-order="fill stroke markers" d=" M 311.822665279168 709 L 312.61195388575135 -5" stroke-opacity="0.6980392156862745" stroke-linecap="round" stroke-linejoin="round" stroke-miterlimit="10" stroke-width="2.5"/><path fill="none" stroke="rgb(0,0,0)" paint-order="fill stroke markers" d=" M -5 200.4778410358322 L 1226.5754204860027 709" stroke-opacity="0.6980392156862745" stroke-linecap="round" stroke-linejoin="round" stroke-miterlimit="10" stroke-width="2.5"/><path fill="none" stroke="rgb(0,0,0)" paint-order="fill stroke markers" d=" M 311.90689997916223 632.8002736968074 L 1042.0294605735942 632.8002736968074" stroke-opacity="0.6980392156862745" stroke-linecap="round" stroke-linejoin="round" stroke-miterlimit="10" stroke-width="2.5"/><path fill="none" stroke="rgb(0,0,0)" paint-order="fill stroke markers" d=" M 311.9077921961369 631.9931634527416 L 418.2540779688045 375.2410540221301" stroke-opacity="0.6980392156862745" stroke-linecap="round" stroke-linejoin="round" stroke-miterlimit="10" stroke-width="2.5"/><path fill="rgb(21,101,192)" stroke="none" paint-order="stroke fill markers" d=" M 316.90689997916223 632.8002736968074 C 316.90689997916223 635.5616974459614 314.6683237283162 637.8002736968074 311.90689997916223 637.8002736968074 C 309.1454762300083 637.8002736968074 306.90689997916223 635.5616974459614 306.90689997916223 632.8002736968074 C 306.90689997916223 630.0388499476534 309.1454762300083 627.8002736968074 311.90689997916223 627.8002736968074 C 314.6683237283162 627.8002736968074 316.90689997916223 630.0388499476534 316.90689997916223 632.8002736968074 Z" fill-opacity="1"/><path fill="none" stroke="rgb(0,0,0)" paint-order="fill stroke markers" d=" M 316.90689997916223 632.8002736968074 C 316.90689997916223 635.5616974459614 314.6683237283162 637.8002736968074 311.90689997916223 637.8002736968074 C 309.1454762300083 637.8002736968074 306.90689997916223 635.5616974459614 306.90689997916223 632.8002736968074 C 306.90689997916223 630.0388499476534 309.1454762300083 627.8002736968074 311.90689997916223 627.8002736968074 C 314.6683237283162 627.8002736968074 316.90689997916223 630.0388499476534 316.90689997916223 632.8002736968074 Z" stroke-opacity="1" stroke-linecap="round" stroke-linejoin="round" stroke-miterlimit="10"/><text fill="rgb(21,101,192)" stroke="none" font-family="geogebra-sans-serif, sans-serif" font-size="24px" font-style="normal" font-weight="normal" text-decoration="normal" x="268" y="667" text-anchor="start" dominant-baseline="alphabetic" fill-opacity="1">A</text><text fill="none" stroke="rgb(255,255,255)" font-family="geogebra-sans-serif, sans-serif" font-size="24px" font-style="normal" font-weight="normal" text-decoration="normal" x="268" y="667" text-anchor="start" dominant-baseline="alphabetic" stroke-opacity="1" stroke-linejoin="bevel" stroke-miterlimit="10" stroke-width="3">A</text><text fill="rgb(21,101,192)" stroke="none" font-family="geogebra-sans-serif, sans-serif" font-size="24px" font-style="normal" font-weight="normal" text-decoration="normal" x="268" y="667" text-anchor="start" dominant-baseline="alphabetic" fill-opacity="1">A</text><path fill="rgb(21,101,192)" stroke="none" paint-order="stroke fill markers" d=" M 1047.0294605735942 632.8002736968074 C 1047.0294605735942 635.5616974459614 1044.790884322748 637.8002736968074 1042.0294605735942 637.8002736968074 C 1039.2680368244403 637.8002736968074 1037.0294605735942 635.5616974459614 1037.0294605735942 632.8002736968074 C 1037.0294605735942 630.0388499476534 1039.2680368244403 627.8002736968074 1042.0294605735942 627.8002736968074 C 1044.790884322748 627.8002736968074 1047.0294605735942 630.0388499476534 1047.0294605735942 632.8002736968074 Z" fill-opacity="1"/><path fill="none" stroke="rgb(0,0,0)" paint-order="fill stroke markers" d=" M 1047.0294605735942 632.8002736968074 C 1047.0294605735942 635.5616974459614 1044.790884322748 637.8002736968074 1042.0294605735942 637.8002736968074 C 1039.2680368244403 637.8002736968074 1037.0294605735942 635.5616974459614 1037.0294605735942 632.8002736968074 C 1037.0294605735942 630.0388499476534 1039.2680368244403 627.8002736968074 1042.0294605735942 627.8002736968074 C 1044.790884322748 627.8002736968074 1047.0294605735942 630.0388499476534 1047.0294605735942 632.8002736968074 Z" stroke-opacity="1" stroke-linecap="round" stroke-linejoin="round" stroke-miterlimit="10"/><text fill="rgb(21,101,192)" stroke="none" font-family="geogebra-sans-serif, sans-serif" font-size="24px" font-style="normal" font-weight="normal" text-decoration="normal" x="1037" y="672" text-anchor="start" dominant-baseline="alphabetic" fill-opacity="1">B</text><text fill="none" stroke="rgb(255,255,255)" font-family="geogebra-sans-serif, sans-serif" font-size="24px" font-style="normal" font-weight="normal" text-decoration="normal" x="1037" y="672" text-anchor="start" dominant-baseline="alphabetic" stroke-opacity="1" stroke-linejoin="bevel" stroke-miterlimit="10" stroke-width="3">B</text><text fill="rgb(21,101,192)" stroke="none" font-family="geogebra-sans-serif, sans-serif" font-size="24px" font-style="normal" font-weight="normal" text-decoration="normal" x="1037" y="672" text-anchor="start" dominant-baseline="alphabetic" fill-opacity="1">B</text><path fill="rgb(211,47,47)" stroke="none" paint-order="stroke fill markers" d=" M 681.9681802763782 632.8002736968074 C 681.9681802763782 635.5616974459614 679.7296040255322 637.8002736968074 676.9681802763782 637.8002736968074 C 674.2067565272242 637.8002736968074 671.9681802763782 635.5616974459614 671.9681802763782 632.8002736968074 C 671.9681802763782 630.0388499476534 674.2067565272242 627.8002736968074 676.9681802763782 627.8002736968074 C 679.7296040255322 627.8002736968074 681.9681802763782 630.0388499476534 681.9681802763782 632.8002736968074 Z" fill-opacity="1"/><path fill="none" stroke="rgb(0,0,0)" paint-order="fill stroke markers" d=" M 681.9681802763782 632.8002736968074 C 681.9681802763782 635.5616974459614 679.7296040255322 637.8002736968074 676.9681802763782 637.8002736968074 C 674.2067565272242 637.8002736968074 671.9681802763782 635.5616974459614 671.9681802763782 632.8002736968074 C 671.9681802763782 630.0388499476534 674.2067565272242 627.8002736968074 676.9681802763782 627.8002736968074 C 679.7296040255322 627.8002736968074 681.9681802763782 630.0388499476534 681.9681802763782 632.8002736968074 Z" stroke-opacity="1" stroke-linecap="round" stroke-linejoin="round" stroke-miterlimit="10"/><g transform="scale(27,27)"><g transform="translate(24.74074074074074,24.94259125925926)"><path fill="rgb(211,47,47)" stroke="none" paint-order="stroke fill markers" d=" M 0.74 -0.436 L 0.74 -0.436 Q 0.74 -0.281 0.63 -0.149 Q 0.531 -0.029 0.398 0.009000000000000001 Q 0.35100000000000003 0.022 0.305 0.022 Q 0.18 0.022 0.108 -0.066 Q 0.049 -0.138 0.049 -0.245 Q 0.049 -0.395 0.156 -0.529 Q 0.255 -0.65 0.388 -0.6900000000000001 Q 0.437 -0.705 0.485 -0.705 Q 0.612 -0.705 0.684 -0.613 Q 0.74 -0.541 0.74 -0.436 M 0.311 -0.004 L 0.311 -0.004 Q 0.405 -0.004 0.492 -0.088 Q 0.51 -0.105 0.525 -0.124 Q 0.623 -0.246 0.646 -0.41500000000000004 Q 0.651 -0.448 0.651 -0.47500000000000003 Q 0.651 -0.612 0.559 -0.661 Q 0.558 -0.661 0.557 -0.662 Q 0.521 -0.68 0.47900000000000004 -0.68 Q 0.385 -0.68 0.297 -0.599 Q 0.261 -0.5670000000000001 0.233 -0.524 Q 0.157 -0.40900000000000003 0.14400000000000002 -0.249 Q 0.14200000000000002 -0.231 0.14200000000000002 -0.217 Q 0.14200000000000002 -0.089 0.219 -0.033 Q 0.259 -0.004 0.311 -0.004 Z"/></g></g><path fill="rgb(21,101,192)" stroke="none" paint-order="stroke fill markers" d=" M 316.9077921961369 631.9931634527416 C 316.9077921961369 634.7545872018956 314.66921594529083 636.9931634527416 311.9077921961369 636.9931634527416 C 309.14636844698293 636.9931634527416 306.9077921961369 634.7545872018956 306.9077921961369 631.9931634527416 C 306.9077921961369 629.2317397035876 309.14636844698293 626.9931634527416 311.9077921961369 626.9931634527416 C 314.66921594529083 626.9931634527416 316.9077921961369 629.2317397035876 316.9077921961369 631.9931634527416 Z" fill-opacity="1"/><path fill="none" stroke="rgb(0,0,0)" paint-order="fill stroke markers" d=" M 316.9077921961369 631.9931634527416 C 316.9077921961369 634.7545872018956 314.66921594529083 636.9931634527416 311.9077921961369 636.9931634527416 C 309.14636844698293 636.9931634527416 306.9077921961369 634.7545872018956 306.9077921961369 631.9931634527416 C 306.9077921961369 629.2317397035876 309.14636844698293 626.9931634527416 311.9077921961369 626.9931634527416 C 314.66921594529083 626.9931634527416 316.9077921961369 629.2317397035876 316.9077921961369 631.9931634527416 Z" stroke-opacity="1" stroke-linecap="round" stroke-linejoin="round" stroke-miterlimit="10"/><text fill="rgb(21,101,192)" stroke="none" font-family="geogebra-sans-serif, sans-serif" font-size="24px" font-style="normal" font-weight="normal" text-decoration="normal" x="266" y="622" text-anchor="start" dominant-baseline="alphabetic" fill-opacity="1">C</text><text fill="none" stroke="rgb(255,255,255)" font-family="geogebra-sans-serif, sans-serif" font-size="24px" font-style="normal" font-weight="normal" text-decoration="normal" x="266" y="622" text-anchor="start" dominant-baseline="alphabetic" stroke-opacity="1" stroke-linejoin="bevel" stroke-miterlimit="10" stroke-width="3">C</text><text fill="rgb(21,101,192)" stroke="none" font-family="geogebra-sans-serif, sans-serif" font-size="24px" font-style="normal" font-weight="normal" text-decoration="normal" x="266" y="622" text-anchor="start" dominant-baseline="alphabetic" fill-opacity="1">C</text><path fill="rgb(21,101,192)" stroke="none" paint-order="stroke fill markers" d=" M 423.2540779688045 375.2410540221301 C 423.2540779688045 378.002477771284 421.01550171795844 380.2410540221301 418.2540779688045 380.2410540221301 C 415.49265421965055 380.2410540221301 413.2540779688045 378.002477771284 413.2540779688045 375.2410540221301 C 413.2540779688045 372.4796302729761 415.49265421965055 370.2410540221301 418.2540779688045 370.2410540221301 C 421.01550171795844 370.2410540221301 423.2540779688045 372.4796302729761 423.2540779688045 375.2410540221301 Z" fill-opacity="1"/><path fill="none" stroke="rgb(0,0,0)" paint-order="fill stroke markers" d=" M 423.2540779688045 375.2410540221301 C 423.2540779688045 378.002477771284 421.01550171795844 380.2410540221301 418.2540779688045 380.2410540221301 C 415.49265421965055 380.2410540221301 413.2540779688045 378.002477771284 413.2540779688045 375.2410540221301 C 413.2540779688045 372.4796302729761 415.49265421965055 370.2410540221301 418.2540779688045 370.2410540221301 C 421.01550171795844 370.2410540221301 423.2540779688045 372.4796302729761 423.2540779688045 375.2410540221301 Z" stroke-opacity="1" stroke-linecap="round" stroke-linejoin="round" stroke-miterlimit="10"/><text fill="rgb(21,101,192)" stroke="none" font-family="geogebra-sans-serif, sans-serif" font-size="24px" font-style="normal" font-weight="normal" text-decoration="normal" x="410" y="352" text-anchor="start" dominant-baseline="alphabetic" fill-opacity="1">D</text><text fill="none" stroke="rgb(255,255,255)" font-family="geogebra-sans-serif, sans-serif" font-size="24px" font-style="normal" font-weight="normal" text-decoration="normal" x="410" y="352" text-anchor="start" dominant-baseline="alphabetic" stroke-opacity="1" stroke-linejoin="bevel" stroke-miterlimit="10" stroke-width="3">D</text><text fill="rgb(21,101,192)" stroke="none" font-family="geogebra-sans-serif, sans-serif" font-size="24px" font-style="normal" font-weight="normal" text-decoration="normal" x="410" y="352" text-anchor="start" dominant-baseline="alphabetic" fill-opacity="1">D</text><path fill="rgb(46,125,50)" stroke="none" paint-order="stroke fill markers" d=" M 317.24000722080166 331.4674424019173 C 317.24000722080166 334.22886615107126 315.0014309699556 336.4674424019173 312.24000722080166 336.4674424019173 C 309.4785834716477 336.4674424019173 307.24000722080166 334.22886615107126 307.24000722080166 331.4674424019173 C 307.24000722080166 328.70601865276336 309.4785834716477 326.4674424019173 312.24000722080166 326.4674424019173 C 315.0014309699556 326.4674424019173 317.24000722080166 328.70601865276336 317.24000722080166 331.4674424019173 Z" fill-opacity="1"/><path fill="none" stroke="rgb(0,0,0)" paint-order="fill stroke markers" d=" M 317.24000722080166 331.4674424019173 C 317.24000722080166 334.22886615107126 315.0014309699556 336.4674424019173 312.24000722080166 336.4674424019173 C 309.4785834716477 336.4674424019173 307.24000722080166 334.22886615107126 307.24000722080166 331.4674424019173 C 307.24000722080166 328.70601865276336 309.4785834716477 326.4674424019173 312.24000722080166 326.4674424019173 C 315.0014309699556 326.4674424019173 317.24000722080166 328.70601865276336 317.24000722080166 331.4674424019173 Z" stroke-opacity="1" stroke-linecap="round" stroke-linejoin="round" stroke-miterlimit="10"/><text fill="rgb(46,125,50)" stroke="none" font-family="geogebra-sans-serif, sans-serif" font-size="24px" font-style="normal" font-weight="normal" text-decoration="normal" x="289" y="303" text-anchor="start" dominant-baseline="alphabetic" fill-opacity="1">P</text><text fill="none" stroke="rgb(255,255,255)" font-family="geogebra-sans-serif, sans-serif" font-size="24px" font-style="normal" font-weight="normal" text-decoration="normal" x="289" y="303" text-anchor="start" dominant-baseline="alphabetic" stroke-opacity="1" stroke-linejoin="bevel" stroke-miterlimit="10" stroke-width="3">P</text><text fill="rgb(46,125,50)" stroke="none" font-family="geogebra-sans-serif, sans-serif" font-size="24px" font-style="normal" font-weight="normal" text-decoration="normal" x="289" y="303" text-anchor="start" dominant-baseline="alphabetic" fill-opacity="1">P</text></g></g></svg>