<svg version="1.1" xmlns="http://www.w3.org/2000/svg" xmlns:xlink="http://www.w3.org/1999/xlink" width="1310" height="704"><defs><clipPath id="SUJwttDKUWTM"><path fill="none" stroke="none" d=" M 0 0 L 1310 0 L 1310 704 L 0 704 L 0 0 Z"/></clipPath></defs><g transform="scale(1,1)" clip-path="url(#SUJwttDKUWTM)"><g><rect fill="rgb(255,255,255)" stroke="none" x="0" y="0" width="1310" height="704" fill-opacity="1"/><path fill="none" stroke="rgb(0,0,0)" paint-order="fill stroke markers" d=" M 1024.0294605735942 595.8002736968073 C 1024.0294605735942 394.1824958349504 860.5859581382354 230.73899339959155 658.9681802763782 230.73899339959155 C 457.3504024145212 230.73899339959155 293.9068999791623 394.1824958349503 293.90689997916223 595.8002736968073" stroke-opacity="0.6980392156862745" stroke-linecap="round" stroke-linejoin="round" stroke-miterlimit="10" stroke-width="1.5"/><path fill="none" stroke="rgb(0,0,0)" paint-order="fill stroke markers" d=" M 1053.7449789980933 445.53722954847706 C 1053.7449789980933 663.5664350695008 876.9973857974021 840.3140282701918 658.9681802763782 840.3140282701918 C 440.93897475535437 840.3140282701918 264.19138155466317 663.5664350695008 264.19138155466317 445.53722954847706 C 264.19138155466317 227.50802402745336 440.93897475535437 50.760430826762274 658.9681802763782 50.760430826762274 C 876.9973857974021 50.760430826762274 1053.7449789980933 227.50802402745336 1053.7449789980933 445.53722954847706 Z" stroke-opacity="0.6980392156862745" stroke-linecap="round" stroke-linejoin="round" stroke-miterlimit="10" stroke-width="2.5"/><path fill="rgb(0,0,0)" stroke="none" paint-order="stroke fill markers" d=" M 294.2068438542334 324.46742407176356 C 306.3649935438141 324.4808642524738 317.32905765446895 317.1548074887728 321.9692165469784 305.9169380303313 L 294.24000722080166 294.4674424019172 Z" fill-opacity="0.09803921568627451"/><path fill="none" stroke="rgb(0,0,0)" paint-order="fill stroke markers" d=" M 294.2068438542334 324.46742407176356 C 306.3649935438141 324.4808642524738 317.32905765446895 317.1548074887728 321.9692165469784 305.9169380303313 L 294.24000722080166 294.4674424019172 Z" stroke-opacity="0.6" stroke-linecap="round" stroke-linejoin="round" stroke-miterlimit="10" stroke-width="2.5"/><g transform="scale(27,27)"><g transform="translate(11.222222222222221,12.842593148148149)"><path fill="rgb(0,0,0)" stroke="none" paint-order="stroke fill markers" d=" M 0.455 -0.5 L 0.455 -0.5 Q 0.455 -0.34700000000000003 0.377 -0.19 Q 0.307 -0.05 0.222 -0.005 Q 0.191 0.011 0.162 0.011 Q 0.08 0.011 0.052000000000000005 -0.101 Q 0.042 -0.14300000000000002 0.042 -0.194 Q 0.042 -0.35100000000000003 0.122 -0.509 Q 0.192 -0.646 0.277 -0.6900000000000001 Q 0.307 -0.705 0.335 -0.705 Q 0.422 -0.705 0.447 -0.578 Q 0.455 -0.54 0.455 -0.5 M 0.148 -0.363 L 0.148 -0.363 L 0.357 -0.363 Q 0.389 -0.495 0.389 -0.562 Q 0.389 -0.675 0.342 -0.682 Q 0.338 -0.683 0.334 -0.683 Q 0.28300000000000003 -0.683 0.225 -0.578 Q 0.187 -0.511 0.149 -0.368 Q 0.149 -0.365 0.148 -0.363 M 0.34800000000000003 -0.331 L 0.14 -0.331 Q 0.108 -0.21 0.108 -0.133 Q 0.108 -0.013000000000000001 0.162 -0.011 Q 0.218 -0.011 0.278 -0.128 Q 0.317 -0.202 0.34800000000000003 -0.331 Z"/></g></g><path fill="none" stroke="rgb(0,0,0)" paint-order="fill stroke markers" d=" M -5 595.8002736968073 L 1315 595.8002736968073" stroke-opacity="0.6980392156862745" stroke-linecap="round" stroke-linejoin="round" stroke-miterlimit="10" stroke-width="2.5"/><path fill="none" stroke="rgb(0,0,0)" paint-order="fill stroke markers" d=" M 293.78176376874285 709 L 294.5710523753262 -5" stroke-opacity="0.6980392156862745" stroke-linecap="round" stroke-linejoin="round" stroke-miterlimit="10" stroke-width="2.5"/><path fill="none" stroke="rgb(0,0,0)" paint-order="fill stroke markers" d=" M -5 170.91010925838472 L 1298.1846730125837 709" stroke-opacity="0.6980392156862745" stroke-linecap="round" stroke-linejoin="round" stroke-miterlimit="10" stroke-width="2.5"/><path fill="none" stroke="rgb(0,0,0)" paint-order="fill stroke markers" d=" M 293.90689997916223 595.8002736968073 L 1024.0294605735942 595.8002736968073" stroke-opacity="0.6980392156862745" stroke-linecap="round" stroke-linejoin="round" stroke-miterlimit="10" stroke-width="2.5"/><path fill="none" stroke="rgb(0,0,0)" paint-order="fill stroke markers" d=" M 293.9077921961369 594.9931634527414 L 400.2540779688045 338.24105402212996" stroke-opacity="0.6980392156862745" stroke-linecap="round" stroke-linejoin="round" stroke-miterlimit="10" stroke-width="2.5"/><path fill="none" stroke="rgb(0,0,0)" paint-order="fill stroke markers" d=" M 267.3054711297191 396.0494222332908 L 1024.0294605735942 595.8002736968073" stroke-opacity="0.6980392156862745" stroke-linecap="round" stroke-linejoin="round" stroke-miterlimit="10" stroke-width="2.5"/><path fill="none" stroke="rgb(0,0,0)" paint-order="fill stroke markers" d=" M 293.9077921961369 594.9931634527414 L 267.3054711297191 396.0494222332908" stroke-opacity="0.6980392156862745" stroke-linecap="round" stroke-linejoin="round" stroke-miterlimit="10" stroke-width="2.5"/><path fill="rgb(21,101,192)" stroke="none" paint-order="stroke fill markers" d=" M 298.90689997916223 595.8002736968073 C 298.90689997916223 598.5616974459613 296.6683237283162 600.8002736968073 293.90689997916223 600.8002736968073 C 291.1454762300083 600.8002736968073 288.90689997916223 598.5616974459613 288.90689997916223 595.8002736968073 C 288.90689997916223 593.0388499476533 291.1454762300083 590.8002736968073 293.90689997916223 590.8002736968073 C 296.6683237283162 590.8002736968073 298.90689997916223 593.0388499476533 298.90689997916223 595.8002736968073 Z" fill-opacity="1"/><path fill="none" stroke="rgb(0,0,0)" paint-order="fill stroke markers" d=" M 298.90689997916223 595.8002736968073 C 298.90689997916223 598.5616974459613 296.6683237283162 600.8002736968073 293.90689997916223 600.8002736968073 C 291.1454762300083 600.8002736968073 288.90689997916223 598.5616974459613 288.90689997916223 595.8002736968073 C 288.90689997916223 593.0388499476533 291.1454762300083 590.8002736968073 293.90689997916223 590.8002736968073 C 296.6683237283162 590.8002736968073 298.90689997916223 593.0388499476533 298.90689997916223 595.8002736968073 Z" stroke-opacity="1" stroke-linecap="round" stroke-linejoin="round" stroke-miterlimit="10"/><text fill="rgb(21,101,192)" stroke="none" font-family="geogebra-sans-serif, sans-serif" font-size="24px" font-style="normal" font-weight="normal" text-decoration="normal" x="250" y="629" text-anchor="start" dominant-baseline="alphabetic" fill-opacity="1">A</text><text fill="none" stroke="rgb(255,255,255)" font-family="geogebra-sans-serif, sans-serif" font-size="24px" font-style="normal" font-weight="normal" text-decoration="normal" x="250" y="629" text-anchor="start" dominant-baseline="alphabetic" stroke-opacity="1" stroke-linejoin="bevel" stroke-miterlimit="10" stroke-width="3">A</text><text fill="rgb(21,101,192)" stroke="none" font-family="geogebra-sans-serif, sans-serif" font-size="24px" font-style="normal" font-weight="normal" text-decoration="normal" x="250" y="629" text-anchor="start" dominant-baseline="alphabetic" fill-opacity="1">A</text><path fill="rgb(21,101,192)" stroke="none" paint-order="stroke fill markers" d=" M 1029.0294605735942 595.8002736968073 C 1029.0294605735942 598.5616974459613 1026.790884322748 600.8002736968073 1024.0294605735942 600.8002736968073 C 1021.2680368244402 600.8002736968073 1019.0294605735942 598.5616974459613 1019.0294605735942 595.8002736968073 C 1019.0294605735942 593.0388499476533 1021.2680368244402 590.8002736968073 1024.0294605735942 590.8002736968073 C 1026.790884322748 590.8002736968073 1029.0294605735942 593.0388499476533 1029.0294605735942 595.8002736968073 Z" fill-opacity="1"/><path fill="none" stroke="rgb(0,0,0)" paint-order="fill stroke markers" d=" M 1029.0294605735942 595.8002736968073 C 1029.0294605735942 598.5616974459613 1026.790884322748 600.8002736968073 1024.0294605735942 600.8002736968073 C 1021.2680368244402 600.8002736968073 1019.0294605735942 598.5616974459613 1019.0294605735942 595.8002736968073 C 1019.0294605735942 593.0388499476533 1021.2680368244402 590.8002736968073 1024.0294605735942 590.8002736968073 C 1026.790884322748 590.8002736968073 1029.0294605735942 593.0388499476533 1029.0294605735942 595.8002736968073 Z" stroke-opacity="1" stroke-linecap="round" stroke-linejoin="round" stroke-miterlimit="10"/><text fill="rgb(21,101,192)" stroke="none" font-family="geogebra-sans-serif, sans-serif" font-size="24px" font-style="normal" font-weight="normal" text-decoration="normal" x="1019" y="635" text-anchor="start" dominant-baseline="alphabetic" fill-opacity="1">B</text><text fill="none" stroke="rgb(255,255,255)" font-family="geogebra-sans-serif, sans-serif" font-size="24px" font-style="normal" font-weight="normal" text-decoration="normal" x="1019" y="635" text-anchor="start" dominant-baseline="alphabetic" stroke-opacity="1" stroke-linejoin="bevel" stroke-miterlimit="10" stroke-width="3">B</text><text fill="rgb(21,101,192)" stroke="none" font-family="geogebra-sans-serif, sans-serif" font-size="24px" font-style="normal" font-weight="normal" text-decoration="normal" x="1019" y="635" text-anchor="start" dominant-baseline="alphabetic" fill-opacity="1">B</text><path fill="rgb(211,47,47)" stroke="none" paint-order="stroke fill markers" d=" M 663.9681802763782 595.8002736968073 C 663.9681802763782 598.5616974459613 661.7296040255322 600.8002736968073 658.9681802763782 600.8002736968073 C 656.2067565272242 600.8002736968073 653.9681802763782 598.5616974459613 653.9681802763782 595.8002736968073 C 653.9681802763782 593.0388499476533 656.2067565272242 590.8002736968073 658.9681802763782 590.8002736968073 C 661.7296040255322 590.8002736968073 663.9681802763782 593.0388499476533 663.9681802763782 595.8002736968073 Z" fill-opacity="1"/><path fill="none" stroke="rgb(0,0,0)" paint-order="fill stroke markers" d=" M 663.9681802763782 595.8002736968073 C 663.9681802763782 598.5616974459613 661.7296040255322 600.8002736968073 658.9681802763782 600.8002736968073 C 656.2067565272242 600.8002736968073 653.9681802763782 598.5616974459613 653.9681802763782 595.8002736968073 C 653.9681802763782 593.0388499476533 656.2067565272242 590.8002736968073 658.9681802763782 590.8002736968073 C 661.7296040255322 590.8002736968073 663.9681802763782 593.0388499476533 663.9681802763782 595.8002736968073 Z" stroke-opacity="1" stroke-linecap="round" stroke-linejoin="round" stroke-miterlimit="10"/><g transform="scale(27,27)"><g transform="translate(24.074074074074073,23.57222088888889)"><path fill="rgb(211,47,47)" stroke="none" paint-order="stroke fill markers" d=" M 0.74 -0.436 L 0.74 -0.436 Q 0.74 -0.281 0.63 -0.149 Q 0.531 -0.029 0.398 0.009000000000000001 Q 0.35100000000000003 0.022 0.305 0.022 Q 0.18 0.022 0.108 -0.066 Q 0.049 -0.138 0.049 -0.245 Q 0.049 -0.395 0.156 -0.529 Q 0.255 -0.65 0.388 -0.6900000000000001 Q 0.437 -0.705 0.485 -0.705 Q 0.612 -0.705 0.684 -0.613 Q 0.74 -0.541 0.74 -0.436 M 0.311 -0.004 L 0.311 -0.004 Q 0.405 -0.004 0.492 -0.088 Q 0.51 -0.105 0.525 -0.124 Q 0.623 -0.246 0.646 -0.41500000000000004 Q 0.651 -0.448 0.651 -0.47500000000000003 Q 0.651 -0.612 0.559 -0.661 Q 0.558 -0.661 0.557 -0.662 Q 0.521 -0.68 0.47900000000000004 -0.68 Q 0.385 -0.68 0.297 -0.599 Q 0.261 -0.5670000000000001 0.233 -0.524 Q 0.157 -0.40900000000000003 0.14400000000000002 -0.249 Q 0.14200000000000002 -0.231 0.14200000000000002 -0.217 Q 0.14200000000000002 -0.089 0.219 -0.033 Q 0.259 -0.004 0.311 -0.004 Z"/></g></g><path fill="rgb(21,101,192)" stroke="none" paint-order="stroke fill markers" d=" M 298.9077921961369 594.9931634527414 C 298.9077921961369 597.7545872018954 296.66921594529083 599.9931634527414 293.9077921961369 599.9931634527414 C 291.14636844698293 599.9931634527414 288.9077921961369 597.7545872018954 288.9077921961369 594.9931634527414 C 288.9077921961369 592.2317397035874 291.14636844698293 589.9931634527414 293.9077921961369 589.9931634527414 C 296.66921594529083 589.9931634527414 298.9077921961369 592.2317397035874 298.9077921961369 594.9931634527414 Z" fill-opacity="1"/><path fill="none" stroke="rgb(0,0,0)" paint-order="fill stroke markers" d=" M 298.9077921961369 594.9931634527414 C 298.9077921961369 597.7545872018954 296.66921594529083 599.9931634527414 293.9077921961369 599.9931634527414 C 291.14636844698293 599.9931634527414 288.9077921961369 597.7545872018954 288.9077921961369 594.9931634527414 C 288.9077921961369 592.2317397035874 291.14636844698293 589.9931634527414 293.9077921961369 589.9931634527414 C 296.66921594529083 589.9931634527414 298.9077921961369 592.2317397035874 298.9077921961369 594.9931634527414 Z" stroke-opacity="1" stroke-linecap="round" stroke-linejoin="round" stroke-miterlimit="10"/><text fill="rgb(21,101,192)" stroke="none" font-family="geogebra-sans-serif, sans-serif" font-size="24px" font-style="normal" font-weight="normal" text-decoration="normal" x="248" y="585" text-anchor="start" dominant-baseline="alphabetic" fill-opacity="1">C</text><text fill="none" stroke="rgb(255,255,255)" font-family="geogebra-sans-serif, sans-serif" font-size="24px" font-style="normal" font-weight="normal" text-decoration="normal" x="248" y="585" text-anchor="start" dominant-baseline="alphabetic" stroke-opacity="1" stroke-linejoin="bevel" stroke-miterlimit="10" stroke-width="3">C</text><text fill="rgb(21,101,192)" stroke="none" font-family="geogebra-sans-serif, sans-serif" font-size="24px" font-style="normal" font-weight="normal" text-decoration="normal" x="248" y="585" text-anchor="start" dominant-baseline="alphabetic" fill-opacity="1">C</text><path fill="rgb(21,101,192)" stroke="none" paint-order="stroke fill markers" d=" M 405.2540779688045 338.24105402212996 C 405.2540779688045 341.0024777712839 403.01550171795844 343.24105402212996 400.2540779688045 343.24105402212996 C 397.49265421965055 343.24105402212996 395.2540779688045 341.0024777712839 395.2540779688045 338.24105402212996 C 395.2540779688045 335.479630272976 397.49265421965055 333.24105402212996 400.2540779688045 333.24105402212996 C 403.01550171795844 333.24105402212996 405.2540779688045 335.479630272976 405.2540779688045 338.24105402212996 Z" fill-opacity="1"/><path fill="none" stroke="rgb(0,0,0)" paint-order="fill stroke markers" d=" M 405.2540779688045 338.24105402212996 C 405.2540779688045 341.0024777712839 403.01550171795844 343.24105402212996 400.2540779688045 343.24105402212996 C 397.49265421965055 343.24105402212996 395.2540779688045 341.0024777712839 395.2540779688045 338.24105402212996 C 395.2540779688045 335.479630272976 397.49265421965055 333.24105402212996 400.2540779688045 333.24105402212996 C 403.01550171795844 333.24105402212996 405.2540779688045 335.479630272976 405.2540779688045 338.24105402212996 Z" stroke-opacity="1" stroke-linecap="round" stroke-linejoin="round" stroke-miterlimit="10"/><text fill="rgb(21,101,192)" stroke="none" font-family="geogebra-sans-serif, sans-serif" font-size="24px" font-style="normal" font-weight="normal" text-decoration="normal" x="392" y="315" text-anchor="start" dominant-baseline="alphabetic" fill-opacity="1">D</text><text fill="none" stroke="rgb(255,255,255)" font-family="geogebra-sans-serif, sans-serif" font-size="24px" font-style="normal" font-weight="normal" text-decoration="normal" x="392" y="315" text-anchor="start" dominant-baseline="alphabetic" stroke-opacity="1" stroke-linejoin="bevel" stroke-miterlimit="10" stroke-width="3">D</text><text fill="rgb(21,101,192)" stroke="none" font-family="geogebra-sans-serif, sans-serif" font-size="24px" font-style="normal" font-weight="normal" text-decoration="normal" x="392" y="315" text-anchor="start" dominant-baseline="alphabetic" fill-opacity="1">D</text><path fill="rgb(46,125,50)" stroke="none" paint-order="stroke fill markers" d=" M 299.24000722080166 294.4674424019172 C 299.24000722080166 297.22886615107114 297.0014309699556 299.4674424019172 294.24000722080166 299.4674424019172 C 291.4785834716477 299.4674424019172 289.24000722080166 297.22886615107114 289.24000722080166 294.4674424019172 C 289.24000722080166 291.70601865276325 291.4785834716477 289.4674424019172 294.24000722080166 289.4674424019172 C 297.0014309699556 289.4674424019172 299.24000722080166 291.70601865276325 299.24000722080166 294.4674424019172 Z" fill-opacity="1"/><path fill="none" stroke="rgb(0,0,0)" paint-order="fill stroke markers" d=" M 299.24000722080166 294.4674424019172 C 299.24000722080166 297.22886615107114 297.0014309699556 299.4674424019172 294.24000722080166 299.4674424019172 C 291.4785834716477 299.4674424019172 289.24000722080166 297.22886615107114 289.24000722080166 294.4674424019172 C 289.24000722080166 291.70601865276325 291.4785834716477 289.4674424019172 294.24000722080166 289.4674424019172 C 297.0014309699556 289.4674424019172 299.24000722080166 291.70601865276325 299.24000722080166 294.4674424019172 Z" stroke-opacity="1" stroke-linecap="round" stroke-linejoin="round" stroke-miterlimit="10"/><text fill="rgb(46,125,50)" stroke="none" font-family="geogebra-sans-serif, sans-serif" font-size="24px" font-style="normal" font-weight="normal" text-decoration="normal" x="271" y="266" text-anchor="start" dominant-baseline="alphabetic" fill-opacity="1">P</text><text fill="none" stroke="rgb(255,255,255)" font-family="geogebra-sans-serif, sans-serif" font-size="24px" font-style="normal" font-weight="normal" text-decoration="normal" x="271" y="266" text-anchor="start" dominant-baseline="alphabetic" stroke-opacity="1" stroke-linejoin="bevel" stroke-miterlimit="10" stroke-width="3">P</text><text fill="rgb(46,125,50)" stroke="none" font-family="geogebra-sans-serif, sans-serif" font-size="24px" font-style="normal" font-weight="normal" text-decoration="normal" x="271" y="266" text-anchor="start" dominant-baseline="alphabetic" fill-opacity="1">P</text><path fill="rgb(21,101,192)" stroke="none" paint-order="stroke fill markers" d=" M 272.3054711297191 396.0494222332908 C 272.3054711297191 398.81084598244473 270.06689487887303 401.0494222332908 267.3054711297191 401.0494222332908 C 264.54404738056513 401.0494222332908 262.3054711297191 398.81084598244473 262.3054711297191 396.0494222332908 C 262.3054711297191 393.28799848413684 264.54404738056513 391.0494222332908 267.3054711297191 391.0494222332908 C 270.06689487887303 391.0494222332908 272.3054711297191 393.28799848413684 272.3054711297191 396.0494222332908 Z" fill-opacity="1"/><path fill="none" stroke="rgb(0,0,0)" paint-order="fill stroke markers" d=" M 272.3054711297191 396.0494222332908 C 272.3054711297191 398.81084598244473 270.06689487887303 401.0494222332908 267.3054711297191 401.0494222332908 C 264.54404738056513 401.0494222332908 262.3054711297191 398.81084598244473 262.3054711297191 396.0494222332908 C 262.3054711297191 393.28799848413684 264.54404738056513 391.0494222332908 267.3054711297191 391.0494222332908 C 270.06689487887303 391.0494222332908 272.3054711297191 393.28799848413684 272.3054711297191 396.0494222332908 Z" stroke-opacity="1" stroke-linecap="round" stroke-linejoin="round" stroke-miterlimit="10"/><g transform="scale(27,27)"><g transform="translate(8.666666666666666,14.389139344444445)"><path fill="rgb(21,101,192)" stroke="none" paint-order="stroke fill markers" d=" M 0.303 -0.316 L 0.303 -0.316 L 0.241 -0.066 L 0.23800000000000002 -0.049 Q 0.23800000000000002 -0.032 0.28400000000000003 -0.031 L 0.28400000000000003 -0.031 L 0.28400000000000003 -0.031 L 0.303 -0.031 Q 0.329 -0.031 0.331 -0.02 Q 0.331 0 0.311 0 L 0.247 -0.002 L 0.246 -0.002 L 0.184 -0.003 L 0.182 -0.003 L 0.056 0 L 0.055 0 Q 0.04 0 0.04 -0.012 Q 0.04 -0.029 0.056 -0.031 L 0.068 -0.031 Q 0.133 -0.031 0.146 -0.045 Q 0.152 -0.052000000000000005 0.158 -0.073 Q 0.158 -0.074 0.159 -0.078 L 0.293 -0.615 Q 0.297 -0.631 0.297 -0.634 Q 0.297 -0.646 0.281 -0.649 L 0.28 -0.649 L 0.28 -0.649 Q 0.278 -0.65 0.275 -0.65 Q 0.251 -0.652 0.232 -0.652 Q 0.20600000000000002 -0.652 0.20400000000000001 -0.66 Q 0.203 -0.662 0.203 -0.664 Q 0.203 -0.681 0.22 -0.683 L 0.22 -0.683 L 0.233 -0.683 L 0.557 -0.683 Q 0.678 -0.683 0.73 -0.609 Q 0.754 -0.5740000000000001 0.754 -0.532 Q 0.754 -0.451 0.671 -0.385 Q 0.583 -0.316 0.47300000000000003 -0.316 L 0.303 -0.316 M 0.375 -0.614 L 0.307 -0.342 L 0.448 -0.342 Q 0.543 -0.342 0.602 -0.395 Q 0.643 -0.433 0.658 -0.522 L 0.658 -0.523 Q 0.661 -0.542 0.661 -0.556 Q 0.661 -0.652 0.525 -0.652 L 0.429 -0.652 Q 0.393 -0.652 0.385 -0.642 L 0.385 -0.642 L 0.385 -0.641 L 0.384 -0.641 L 0.384 -0.64 Q 0.38 -0.634 0.375 -0.614 Z"/></g><g transform="translate(9.447570666666666,13.722222944444445) scale(0.5,0.5)"><path fill="rgb(21,101,192)" stroke="none" paint-order="stroke fill markers" d=" M 0.255 -0.47900000000000004 L 0.076 -0.059000000000000004 Q 0.07 -0.045 0.063 -0.045 Q 0.045 -0.045 0.033 -0.056 Q 0.029 -0.059000000000000004 0.029 -0.063 Q 0.029 -0.065 0.032 -0.077 L 0.153 -0.513 Q 0.166 -0.554 0.197 -0.558 Q 0.202 -0.559 0.20600000000000002 -0.559 Q 0.24 -0.559 0.256 -0.53 Q 0.262 -0.519 0.262 -0.507 Q 0.262 -0.494 0.255 -0.47900000000000004 Z"/></g></g></g></g></svg>