<svg version="1.1" xmlns="http://www.w3.org/2000/svg" xmlns:xlink="http://www.w3.org/1999/xlink" width="1310" height="605"><defs><clipPath id="xWAtydNNemhe"><path fill="none" stroke="none" d=" M 0 0 L 1310 0 L 1310 605 L 0 605 L 0 0 Z"/></clipPath></defs><g transform="scale(1,1)" clip-path="url(#xWAtydNNemhe)"><g><rect fill="rgb(255,255,255)" stroke="none" x="0" y="0" width="1310" height="605" fill-opacity="1"/><path fill="none" stroke="rgb(0,0,0)" paint-order="fill stroke markers" d=" M 1012.6503062879917 518.6493762091437 C 1012.6503062879917 332.8889975781743 862.0617658371252 182.30045712730805 676.3013872061556 182.30045712730805 C 490.54100857518597 182.30045712730805 339.95246812431947 332.8889975781743 339.9524681243194 518.6493762091437" stroke-opacity="0.6980392156862745" stroke-linecap="round" stroke-linejoin="round" stroke-miterlimit="10" stroke-width="2.5"/><path fill="none" stroke="rgb(0,0,0)" paint-order="fill stroke markers" d=" M -5 518.6493762091437 L 1315 518.6493762091437" stroke-opacity="0.6980392156862745" stroke-linecap="round" stroke-linejoin="round" stroke-miterlimit="10" stroke-width="2.5"/><path fill="none" stroke="rgb(0,0,0)" paint-order="fill stroke markers" d=" M 339.9524681243194 518.6493762091437 L 1012.6503062879917 518.6493762091437" stroke-opacity="0.6980392156862745" stroke-linecap="round" stroke-linejoin="round" stroke-miterlimit="10" stroke-width="2.5"/><path fill="none" stroke="rgb(0,0,0)" paint-order="fill stroke markers" d=" M 401.0354542107742 325.3639357339188 L 616.8593608784215 187.59463621351665" stroke-opacity="0.6980392156862745" stroke-linecap="round" stroke-linejoin="round" stroke-miterlimit="10" stroke-width="2.5"/><path fill="rgb(21,101,192)" stroke="none" paint-order="stroke fill markers" d=" M 344.9524681243194 518.6493762091437 C 344.9524681243194 521.4107999582977 342.71389187347336 523.6493762091437 339.9524681243194 523.6493762091437 C 337.19104437516546 523.6493762091437 334.9524681243194 521.4107999582977 334.9524681243194 518.6493762091437 C 334.9524681243194 515.8879524599897 337.19104437516546 513.6493762091437 339.9524681243194 513.6493762091437 C 342.71389187347336 513.6493762091437 344.9524681243194 515.8879524599897 344.9524681243194 518.6493762091437 Z" fill-opacity="1"/><path fill="none" stroke="rgb(0,0,0)" paint-order="fill stroke markers" d=" M 344.9524681243194 518.6493762091437 C 344.9524681243194 521.4107999582977 342.71389187347336 523.6493762091437 339.9524681243194 523.6493762091437 C 337.19104437516546 523.6493762091437 334.9524681243194 521.4107999582977 334.9524681243194 518.6493762091437 C 334.9524681243194 515.8879524599897 337.19104437516546 513.6493762091437 339.9524681243194 513.6493762091437 C 342.71389187347336 513.6493762091437 344.9524681243194 515.8879524599897 344.9524681243194 518.6493762091437 Z" stroke-opacity="1" stroke-linecap="round" stroke-linejoin="round" stroke-miterlimit="10"/><text fill="rgb(21,101,192)" stroke="none" font-family="geogebra-sans-serif, sans-serif" font-size="24px" font-style="normal" font-weight="normal" text-decoration="normal" x="308" y="558" text-anchor="start" dominant-baseline="alphabetic" fill-opacity="1">A</text><text fill="none" stroke="rgb(255,255,255)" font-family="geogebra-sans-serif, sans-serif" font-size="24px" font-style="normal" font-weight="normal" text-decoration="normal" x="308" y="558" text-anchor="start" dominant-baseline="alphabetic" stroke-opacity="1" stroke-linejoin="bevel" stroke-miterlimit="10" stroke-width="3">A</text><text fill="rgb(21,101,192)" stroke="none" font-family="geogebra-sans-serif, sans-serif" font-size="24px" font-style="normal" font-weight="normal" text-decoration="normal" x="308" y="558" text-anchor="start" dominant-baseline="alphabetic" fill-opacity="1">A</text><path fill="rgb(21,101,192)" stroke="none" paint-order="stroke fill markers" d=" M 1017.6503062879917 518.6493762091437 C 1017.6503062879917 521.4107999582977 1015.4117300371457 523.6493762091437 1012.6503062879917 523.6493762091437 C 1009.8888825388377 523.6493762091437 1007.6503062879917 521.4107999582977 1007.6503062879917 518.6493762091437 C 1007.6503062879917 515.8879524599897 1009.8888825388377 513.6493762091437 1012.6503062879917 513.6493762091437 C 1015.4117300371457 513.6493762091437 1017.6503062879917 515.8879524599897 1017.6503062879917 518.6493762091437 Z" fill-opacity="1"/><path fill="none" stroke="rgb(0,0,0)" paint-order="fill stroke markers" d=" M 1017.6503062879917 518.6493762091437 C 1017.6503062879917 521.4107999582977 1015.4117300371457 523.6493762091437 1012.6503062879917 523.6493762091437 C 1009.8888825388377 523.6493762091437 1007.6503062879917 521.4107999582977 1007.6503062879917 518.6493762091437 C 1007.6503062879917 515.8879524599897 1009.8888825388377 513.6493762091437 1012.6503062879917 513.6493762091437 C 1015.4117300371457 513.6493762091437 1017.6503062879917 515.8879524599897 1017.6503062879917 518.6493762091437 Z" stroke-opacity="1" stroke-linecap="round" stroke-linejoin="round" stroke-miterlimit="10"/><text fill="rgb(21,101,192)" stroke="none" font-family="geogebra-sans-serif, sans-serif" font-size="24px" font-style="normal" font-weight="normal" text-decoration="normal" x="1027" y="558" text-anchor="start" dominant-baseline="alphabetic" fill-opacity="1">B</text><text fill="none" stroke="rgb(255,255,255)" font-family="geogebra-sans-serif, sans-serif" font-size="24px" font-style="normal" font-weight="normal" text-decoration="normal" x="1027" y="558" text-anchor="start" dominant-baseline="alphabetic" stroke-opacity="1" stroke-linejoin="bevel" stroke-miterlimit="10" stroke-width="3">B</text><text fill="rgb(21,101,192)" stroke="none" font-family="geogebra-sans-serif, sans-serif" font-size="24px" font-style="normal" font-weight="normal" text-decoration="normal" x="1027" y="558" text-anchor="start" dominant-baseline="alphabetic" fill-opacity="1">B</text><path fill="rgb(211,47,47)" stroke="none" paint-order="stroke fill markers" d=" M 681.3013872061556 518.6493762091437 C 681.3013872061556 521.4107999582977 679.0628109553096 523.6493762091437 676.3013872061556 523.6493762091437 C 673.5399634570016 523.6493762091437 671.3013872061556 521.4107999582977 671.3013872061556 518.6493762091437 C 671.3013872061556 515.8879524599897 673.5399634570016 513.6493762091437 676.3013872061556 513.6493762091437 C 679.0628109553096 513.6493762091437 681.3013872061556 515.8879524599897 681.3013872061556 518.6493762091437 Z" fill-opacity="1"/><path fill="none" stroke="rgb(0,0,0)" paint-order="fill stroke markers" d=" M 681.3013872061556 518.6493762091437 C 681.3013872061556 521.4107999582977 679.0628109553096 523.6493762091437 676.3013872061556 523.6493762091437 C 673.5399634570016 523.6493762091437 671.3013872061556 521.4107999582977 671.3013872061556 518.6493762091437 C 671.3013872061556 515.8879524599897 673.5399634570016 513.6493762091437 676.3013872061556 513.6493762091437 C 679.0628109553096 513.6493762091437 681.3013872061556 515.8879524599897 681.3013872061556 518.6493762091437 Z" stroke-opacity="1" stroke-linecap="round" stroke-linejoin="round" stroke-miterlimit="10"/><path fill="rgb(21,101,192)" stroke="none" paint-order="stroke fill markers" d=" M 406.0354542107742 325.3639357339188 C 406.0354542107742 328.12535948307277 403.79687795992817 330.3639357339188 401.0354542107742 330.3639357339188 C 398.27403046162027 330.3639357339188 396.0354542107742 328.12535948307277 396.0354542107742 325.3639357339188 C 396.0354542107742 322.6025119847649 398.27403046162027 320.3639357339188 401.0354542107742 320.3639357339188 C 403.79687795992817 320.3639357339188 406.0354542107742 322.6025119847649 406.0354542107742 325.3639357339188 Z" fill-opacity="1"/><path fill="none" stroke="rgb(0,0,0)" paint-order="fill stroke markers" d=" M 406.0354542107742 325.3639357339188 C 406.0354542107742 328.12535948307277 403.79687795992817 330.3639357339188 401.0354542107742 330.3639357339188 C 398.27403046162027 330.3639357339188 396.0354542107742 328.12535948307277 396.0354542107742 325.3639357339188 C 396.0354542107742 322.6025119847649 398.27403046162027 320.3639357339188 401.0354542107742 320.3639357339188 C 403.79687795992817 320.3639357339188 406.0354542107742 322.6025119847649 406.0354542107742 325.3639357339188 Z" stroke-opacity="1" stroke-linecap="round" stroke-linejoin="round" stroke-miterlimit="10"/><text fill="rgb(21,101,192)" stroke="none" font-family="geogebra-sans-serif, sans-serif" font-size="24px" font-style="normal" font-weight="normal" text-decoration="normal" x="347" y="322" text-anchor="start" dominant-baseline="alphabetic" fill-opacity="1">C</text><text fill="none" stroke="rgb(255,255,255)" font-family="geogebra-sans-serif, sans-serif" font-size="24px" font-style="normal" font-weight="normal" text-decoration="normal" x="347" y="322" text-anchor="start" dominant-baseline="alphabetic" stroke-opacity="1" stroke-linejoin="bevel" stroke-miterlimit="10" stroke-width="3">C</text><text fill="rgb(21,101,192)" stroke="none" font-family="geogebra-sans-serif, sans-serif" font-size="24px" font-style="normal" font-weight="normal" text-decoration="normal" x="347" y="322" text-anchor="start" dominant-baseline="alphabetic" fill-opacity="1">C</text><path fill="rgb(21,101,192)" stroke="none" paint-order="stroke fill markers" d=" M 621.8593608784215 187.59463621351665 C 621.8593608784215 190.35605996267063 619.6207846275755 192.59463621351665 616.8593608784215 192.59463621351665 C 614.0979371292675 192.59463621351665 611.8593608784215 190.35605996267063 611.8593608784215 187.59463621351665 C 611.8593608784215 184.83321246436267 614.0979371292675 182.59463621351665 616.8593608784215 182.59463621351665 C 619.6207846275755 182.59463621351665 621.8593608784215 184.83321246436267 621.8593608784215 187.59463621351665 Z" fill-opacity="1"/><path fill="none" stroke="rgb(0,0,0)" paint-order="fill stroke markers" d=" M 621.8593608784215 187.59463621351665 C 621.8593608784215 190.35605996267063 619.6207846275755 192.59463621351665 616.8593608784215 192.59463621351665 C 614.0979371292675 192.59463621351665 611.8593608784215 190.35605996267063 611.8593608784215 187.59463621351665 C 611.8593608784215 184.83321246436267 614.0979371292675 182.59463621351665 616.8593608784215 182.59463621351665 C 619.6207846275755 182.59463621351665 621.8593608784215 184.83321246436267 621.8593608784215 187.59463621351665 Z" stroke-opacity="1" stroke-linecap="round" stroke-linejoin="round" stroke-miterlimit="10"/><text fill="rgb(21,101,192)" stroke="none" font-family="geogebra-sans-serif, sans-serif" font-size="24px" font-style="normal" font-weight="normal" text-decoration="normal" x="645" y="166" text-anchor="start" dominant-baseline="alphabetic" fill-opacity="1">D</text><text fill="none" stroke="rgb(255,255,255)" font-family="geogebra-sans-serif, sans-serif" font-size="24px" font-style="normal" font-weight="normal" text-decoration="normal" x="645" y="166" text-anchor="start" dominant-baseline="alphabetic" stroke-opacity="1" stroke-linejoin="bevel" stroke-miterlimit="10" stroke-width="3">D</text><text fill="rgb(21,101,192)" stroke="none" font-family="geogebra-sans-serif, sans-serif" font-size="24px" font-style="normal" font-weight="normal" text-decoration="normal" x="645" y="166" text-anchor="start" dominant-baseline="alphabetic" fill-opacity="1">D</text></g></g></svg>