<svg version="1.1" xmlns="http://www.w3.org/2000/svg" xmlns:xlink="http://www.w3.org/1999/xlink" width="1310" height="704"><defs><clipPath id="oMMdHJQcbiBu"><path fill="none" stroke="none" d=" M 0 0 L 1310 0 L 1310 704 L 0 704 L 0 0 Z"/></clipPath></defs><g transform="scale(1,1)" clip-path="url(#oMMdHJQcbiBu)"><g><rect fill="rgb(255,255,255)" stroke="none" x="0" y="0" width="1310" height="704" fill-opacity="1"/><path fill="none" stroke="rgb(0,0,0)" paint-order="fill stroke markers" d=" M 990.6503062879917 615.6493762091437 C 990.6503062879917 429.8889975781744 840.0617658371252 279.3004571273081 654.3013872061555 279.3004571273081 C 468.54100857518586 279.3004571273081 317.95246812431935 429.8889975781743 317.9524681243193 615.6493762091437" stroke-opacity="0.6980392156862745" stroke-linecap="round" stroke-linejoin="round" stroke-miterlimit="10" stroke-width="2.5"/><path fill="none" stroke="rgb(0,0,0)" paint-order="fill stroke markers" d=" M -5 615.6493762091437 L 1315 615.6493762091437" stroke-opacity="0.6980392156862745" stroke-linecap="round" stroke-linejoin="round" stroke-miterlimit="10" stroke-width="2.5"/><path fill="none" stroke="rgb(0,0,0)" paint-order="fill stroke markers" d=" M 288.4513590901411 709 L 514.0930419737468 -5" stroke-opacity="0.6980392156862745" stroke-linecap="round" stroke-linejoin="round" stroke-miterlimit="10" stroke-width="2.5"/><path fill="none" stroke="rgb(0,0,0)" paint-order="fill stroke markers" d=" M 248.63584855534629 -5 L 1102.2552077772261 709" stroke-opacity="0.6980392156862745" stroke-linecap="round" stroke-linejoin="round" stroke-miterlimit="10" stroke-width="2.5"/><path fill="none" stroke="rgb(0,0,0)" paint-order="fill stroke markers" d=" M 317.9524681243193 615.6493762091437 L 990.6503062879917 615.6493762091437" stroke-opacity="0.6980392156862745" stroke-linecap="round" stroke-linejoin="round" stroke-miterlimit="10" stroke-width="2.5"/><path fill="none" stroke="rgb(0,0,0)" paint-order="fill stroke markers" d=" M 379.0354542107741 422.3639357339189 L 594.8593608784214 284.59463621351676" stroke-opacity="0.6980392156862745" stroke-linecap="round" stroke-linejoin="round" stroke-miterlimit="10" stroke-width="2.5"/><path fill="rgb(21,101,192)" stroke="none" paint-order="stroke fill markers" d=" M 322.9524681243193 615.6493762091437 C 322.9524681243193 618.4107999582977 320.71389187347324 620.6493762091437 317.9524681243193 620.6493762091437 C 315.19104437516535 620.6493762091437 312.9524681243193 618.4107999582977 312.9524681243193 615.6493762091437 C 312.9524681243193 612.8879524599897 315.19104437516535 610.6493762091437 317.9524681243193 610.6493762091437 C 320.71389187347324 610.6493762091437 322.9524681243193 612.8879524599897 322.9524681243193 615.6493762091437 Z" fill-opacity="1"/><path fill="none" stroke="rgb(0,0,0)" paint-order="fill stroke markers" d=" M 322.9524681243193 615.6493762091437 C 322.9524681243193 618.4107999582977 320.71389187347324 620.6493762091437 317.9524681243193 620.6493762091437 C 315.19104437516535 620.6493762091437 312.9524681243193 618.4107999582977 312.9524681243193 615.6493762091437 C 312.9524681243193 612.8879524599897 315.19104437516535 610.6493762091437 317.9524681243193 610.6493762091437 C 320.71389187347324 610.6493762091437 322.9524681243193 612.8879524599897 322.9524681243193 615.6493762091437 Z" stroke-opacity="1" stroke-linecap="round" stroke-linejoin="round" stroke-miterlimit="10"/><text fill="rgb(21,101,192)" stroke="none" font-family="geogebra-sans-serif, sans-serif" font-size="24px" font-style="normal" font-weight="normal" text-decoration="normal" x="286" y="655" text-anchor="start" dominant-baseline="alphabetic" fill-opacity="1">A</text><text fill="none" stroke="rgb(255,255,255)" font-family="geogebra-sans-serif, sans-serif" font-size="24px" font-style="normal" font-weight="normal" text-decoration="normal" x="286" y="655" text-anchor="start" dominant-baseline="alphabetic" stroke-opacity="1" stroke-linejoin="bevel" stroke-miterlimit="10" stroke-width="3">A</text><text fill="rgb(21,101,192)" stroke="none" font-family="geogebra-sans-serif, sans-serif" font-size="24px" font-style="normal" font-weight="normal" text-decoration="normal" x="286" y="655" text-anchor="start" dominant-baseline="alphabetic" fill-opacity="1">A</text><path fill="rgb(21,101,192)" stroke="none" paint-order="stroke fill markers" d=" M 995.6503062879917 615.6493762091437 C 995.6503062879917 618.4107999582977 993.4117300371457 620.6493762091437 990.6503062879917 620.6493762091437 C 987.8888825388377 620.6493762091437 985.6503062879917 618.4107999582977 985.6503062879917 615.6493762091437 C 985.6503062879917 612.8879524599897 987.8888825388377 610.6493762091437 990.6503062879917 610.6493762091437 C 993.4117300371457 610.6493762091437 995.6503062879917 612.8879524599897 995.6503062879917 615.6493762091437 Z" fill-opacity="1"/><path fill="none" stroke="rgb(0,0,0)" paint-order="fill stroke markers" d=" M 995.6503062879917 615.6493762091437 C 995.6503062879917 618.4107999582977 993.4117300371457 620.6493762091437 990.6503062879917 620.6493762091437 C 987.8888825388377 620.6493762091437 985.6503062879917 618.4107999582977 985.6503062879917 615.6493762091437 C 985.6503062879917 612.8879524599897 987.8888825388377 610.6493762091437 990.6503062879917 610.6493762091437 C 993.4117300371457 610.6493762091437 995.6503062879917 612.8879524599897 995.6503062879917 615.6493762091437 Z" stroke-opacity="1" stroke-linecap="round" stroke-linejoin="round" stroke-miterlimit="10"/><text fill="rgb(21,101,192)" stroke="none" font-family="geogebra-sans-serif, sans-serif" font-size="24px" font-style="normal" font-weight="normal" text-decoration="normal" x="1005" y="655" text-anchor="start" dominant-baseline="alphabetic" fill-opacity="1">B</text><text fill="none" stroke="rgb(255,255,255)" font-family="geogebra-sans-serif, sans-serif" font-size="24px" font-style="normal" font-weight="normal" text-decoration="normal" x="1005" y="655" text-anchor="start" dominant-baseline="alphabetic" stroke-opacity="1" stroke-linejoin="bevel" stroke-miterlimit="10" stroke-width="3">B</text><text fill="rgb(21,101,192)" stroke="none" font-family="geogebra-sans-serif, sans-serif" font-size="24px" font-style="normal" font-weight="normal" text-decoration="normal" x="1005" y="655" text-anchor="start" dominant-baseline="alphabetic" fill-opacity="1">B</text><path fill="rgb(211,47,47)" stroke="none" paint-order="stroke fill markers" d=" M 659.3013872061555 615.6493762091437 C 659.3013872061555 618.4107999582977 657.0628109553095 620.6493762091437 654.3013872061555 620.6493762091437 C 651.5399634570015 620.6493762091437 649.3013872061555 618.4107999582977 649.3013872061555 615.6493762091437 C 649.3013872061555 612.8879524599897 651.5399634570015 610.6493762091437 654.3013872061555 610.6493762091437 C 657.0628109553095 610.6493762091437 659.3013872061555 612.8879524599897 659.3013872061555 615.6493762091437 Z" fill-opacity="1"/><path fill="none" stroke="rgb(0,0,0)" paint-order="fill stroke markers" d=" M 659.3013872061555 615.6493762091437 C 659.3013872061555 618.4107999582977 657.0628109553095 620.6493762091437 654.3013872061555 620.6493762091437 C 651.5399634570015 620.6493762091437 649.3013872061555 618.4107999582977 649.3013872061555 615.6493762091437 C 649.3013872061555 612.8879524599897 651.5399634570015 610.6493762091437 654.3013872061555 610.6493762091437 C 657.0628109553095 610.6493762091437 659.3013872061555 612.8879524599897 659.3013872061555 615.6493762091437 Z" stroke-opacity="1" stroke-linecap="round" stroke-linejoin="round" stroke-miterlimit="10"/><path fill="rgb(21,101,192)" stroke="none" paint-order="stroke fill markers" d=" M 384.0354542107741 422.3639357339189 C 384.0354542107741 425.1253594830728 381.79687795992805 427.3639357339189 379.0354542107741 427.3639357339189 C 376.27403046162016 427.3639357339189 374.0354542107741 425.1253594830728 374.0354542107741 422.3639357339189 C 374.0354542107741 419.60251198476493 376.27403046162016 417.3639357339189 379.0354542107741 417.3639357339189 C 381.79687795992805 417.3639357339189 384.0354542107741 419.60251198476493 384.0354542107741 422.3639357339189 Z" fill-opacity="1"/><path fill="none" stroke="rgb(0,0,0)" paint-order="fill stroke markers" d=" M 384.0354542107741 422.3639357339189 C 384.0354542107741 425.1253594830728 381.79687795992805 427.3639357339189 379.0354542107741 427.3639357339189 C 376.27403046162016 427.3639357339189 374.0354542107741 425.1253594830728 374.0354542107741 422.3639357339189 C 374.0354542107741 419.60251198476493 376.27403046162016 417.3639357339189 379.0354542107741 417.3639357339189 C 381.79687795992805 417.3639357339189 384.0354542107741 419.60251198476493 384.0354542107741 422.3639357339189 Z" stroke-opacity="1" stroke-linecap="round" stroke-linejoin="round" stroke-miterlimit="10"/><text fill="rgb(21,101,192)" stroke="none" font-family="geogebra-sans-serif, sans-serif" font-size="24px" font-style="normal" font-weight="normal" text-decoration="normal" x="325" y="419" text-anchor="start" dominant-baseline="alphabetic" fill-opacity="1">C</text><text fill="none" stroke="rgb(255,255,255)" font-family="geogebra-sans-serif, sans-serif" font-size="24px" font-style="normal" font-weight="normal" text-decoration="normal" x="325" y="419" text-anchor="start" dominant-baseline="alphabetic" stroke-opacity="1" stroke-linejoin="bevel" stroke-miterlimit="10" stroke-width="3">C</text><text fill="rgb(21,101,192)" stroke="none" font-family="geogebra-sans-serif, sans-serif" font-size="24px" font-style="normal" font-weight="normal" text-decoration="normal" x="325" y="419" text-anchor="start" dominant-baseline="alphabetic" fill-opacity="1">C</text><path fill="rgb(21,101,192)" stroke="none" paint-order="stroke fill markers" d=" M 599.8593608784214 284.59463621351676 C 599.8593608784214 287.3560599626707 597.6207846275754 289.59463621351676 594.8593608784214 289.59463621351676 C 592.0979371292674 289.59463621351676 589.8593608784214 287.3560599626707 589.8593608784214 284.59463621351676 C 589.8593608784214 281.8332124643628 592.0979371292674 279.59463621351676 594.8593608784214 279.59463621351676 C 597.6207846275754 279.59463621351676 599.8593608784214 281.8332124643628 599.8593608784214 284.59463621351676 Z" fill-opacity="1"/><path fill="none" stroke="rgb(0,0,0)" paint-order="fill stroke markers" d=" M 599.8593608784214 284.59463621351676 C 599.8593608784214 287.3560599626707 597.6207846275754 289.59463621351676 594.8593608784214 289.59463621351676 C 592.0979371292674 289.59463621351676 589.8593608784214 287.3560599626707 589.8593608784214 284.59463621351676 C 589.8593608784214 281.8332124643628 592.0979371292674 279.59463621351676 594.8593608784214 279.59463621351676 C 597.6207846275754 279.59463621351676 599.8593608784214 281.8332124643628 599.8593608784214 284.59463621351676 Z" stroke-opacity="1" stroke-linecap="round" stroke-linejoin="round" stroke-miterlimit="10"/><text fill="rgb(21,101,192)" stroke="none" font-family="geogebra-sans-serif, sans-serif" font-size="24px" font-style="normal" font-weight="normal" text-decoration="normal" x="623" y="263" text-anchor="start" dominant-baseline="alphabetic" fill-opacity="1">D</text><text fill="none" stroke="rgb(255,255,255)" font-family="geogebra-sans-serif, sans-serif" font-size="24px" font-style="normal" font-weight="normal" text-decoration="normal" x="623" y="263" text-anchor="start" dominant-baseline="alphabetic" stroke-opacity="1" stroke-linejoin="bevel" stroke-miterlimit="10" stroke-width="3">D</text><text fill="rgb(21,101,192)" stroke="none" font-family="geogebra-sans-serif, sans-serif" font-size="24px" font-style="normal" font-weight="normal" text-decoration="normal" x="623" y="263" text-anchor="start" dominant-baseline="alphabetic" fill-opacity="1">D</text><path fill="rgb(46,125,50)" stroke="none" paint-order="stroke fill markers" d=" M 463.59376467227605 170.6168607096011 C 463.59376467227605 173.37828445875508 461.35518842143 175.6168607096011 458.59376467227605 175.6168607096011 C 455.8323409231221 175.6168607096011 453.59376467227605 173.37828445875508 453.59376467227605 170.6168607096011 C 453.59376467227605 167.85543696044712 455.8323409231221 165.6168607096011 458.59376467227605 165.6168607096011 C 461.35518842143 165.6168607096011 463.59376467227605 167.85543696044712 463.59376467227605 170.6168607096011 Z" fill-opacity="1"/><path fill="none" stroke="rgb(0,0,0)" paint-order="fill stroke markers" d=" M 463.59376467227605 170.6168607096011 C 463.59376467227605 173.37828445875508 461.35518842143 175.6168607096011 458.59376467227605 175.6168607096011 C 455.8323409231221 175.6168607096011 453.59376467227605 173.37828445875508 453.59376467227605 170.6168607096011 C 453.59376467227605 167.85543696044712 455.8323409231221 165.6168607096011 458.59376467227605 165.6168607096011 C 461.35518842143 165.6168607096011 463.59376467227605 167.85543696044712 463.59376467227605 170.6168607096011 Z" stroke-opacity="1" stroke-linecap="round" stroke-linejoin="round" stroke-miterlimit="10"/><text fill="rgb(46,125,50)" stroke="none" font-family="geogebra-sans-serif, sans-serif" font-size="24px" font-style="normal" font-weight="normal" text-decoration="normal" x="436" y="143" text-anchor="start" dominant-baseline="alphabetic" fill-opacity="1">P</text><text fill="none" stroke="rgb(255,255,255)" font-family="geogebra-sans-serif, sans-serif" font-size="24px" font-style="normal" font-weight="normal" text-decoration="normal" x="436" y="143" text-anchor="start" dominant-baseline="alphabetic" stroke-opacity="1" stroke-linejoin="bevel" stroke-miterlimit="10" stroke-width="3">P</text><text fill="rgb(46,125,50)" stroke="none" font-family="geogebra-sans-serif, sans-serif" font-size="24px" font-style="normal" font-weight="normal" text-decoration="normal" x="436" y="143" text-anchor="start" dominant-baseline="alphabetic" fill-opacity="1">P</text></g></g></svg>