<svg version="1.1" xmlns="http://www.w3.org/2000/svg" xmlns:xlink="http://www.w3.org/1999/xlink" width="1310" height="704"><defs><clipPath id="xqtTrOQVvfyH"><path fill="none" stroke="none" d=" M 0 0 L 1310 0 L 1310 704 L 0 704 L 0 0 Z"/></clipPath></defs><g transform="scale(1,1)" clip-path="url(#xqtTrOQVvfyH)"><g><rect fill="rgb(255,255,255)" stroke="none" x="0" y="0" width="1310" height="704" fill-opacity="1"/><path fill="none" stroke="rgb(0,0,0)" paint-order="fill stroke markers" d=" M 1002.6503062879913 615.6493762091437 C 1002.6503062879913 429.8889975781744 852.0617658371248 279.3004571273081 666.3013872061551 279.3004571273081 C 480.5410085751855 279.3004571273081 329.952468124319 429.8889975781743 329.95246812431895 615.6493762091437" stroke-opacity="0.6980392156862745" stroke-linecap="round" stroke-linejoin="round" stroke-miterlimit="10" stroke-width="2.5"/><path fill="rgb(0,0,0)" stroke="none" paint-order="stroke fill markers" d=" M 461.553703514492 199.22240727427152 C 473.14672783407354 202.88609007144373 485.80468513518997 199.19042687106582 493.6052242440127 189.86452883793078 L 470.5937646722757 170.6168607096011 Z" fill-opacity="0.09803921568627451"/><path fill="none" stroke="rgb(0,0,0)" paint-order="fill stroke markers" d=" M 461.553703514492 199.22240727427152 C 473.14672783407354 202.88609007144373 485.80468513518997 199.19042687106582 493.6052242440127 189.86452883793078 L 470.5937646722757 170.6168607096011 Z" stroke-opacity="0.6" stroke-linecap="round" stroke-linejoin="round" stroke-miterlimit="10" stroke-width="2.5"/><g transform="scale(27,27)"><g transform="translate(17.555555555555557,8.32407462962963)"><path fill="rgb(0,0,0)" stroke="none" paint-order="stroke fill markers" d=" M 0.455 -0.5 L 0.455 -0.5 Q 0.455 -0.34700000000000003 0.377 -0.19 Q 0.307 -0.05 0.222 -0.005 Q 0.191 0.011 0.162 0.011 Q 0.08 0.011 0.052000000000000005 -0.101 Q 0.042 -0.14300000000000002 0.042 -0.194 Q 0.042 -0.35100000000000003 0.122 -0.509 Q 0.192 -0.646 0.277 -0.6900000000000001 Q 0.307 -0.705 0.335 -0.705 Q 0.422 -0.705 0.447 -0.578 Q 0.455 -0.54 0.455 -0.5 M 0.148 -0.363 L 0.148 -0.363 L 0.357 -0.363 Q 0.389 -0.495 0.389 -0.562 Q 0.389 -0.675 0.342 -0.682 Q 0.338 -0.683 0.334 -0.683 Q 0.28300000000000003 -0.683 0.225 -0.578 Q 0.187 -0.511 0.149 -0.368 Q 0.149 -0.365 0.148 -0.363 M 0.34800000000000003 -0.331 L 0.14 -0.331 Q 0.108 -0.21 0.108 -0.133 Q 0.108 -0.013000000000000001 0.162 -0.011 Q 0.218 -0.011 0.278 -0.128 Q 0.317 -0.202 0.34800000000000003 -0.331 Z"/></g></g><path fill="none" stroke="rgb(0,0,0)" paint-order="fill stroke markers" d=" M -5 615.6493762091437 L 1315 615.6493762091437" stroke-opacity="0.6980392156862745" stroke-linecap="round" stroke-linejoin="round" stroke-miterlimit="10" stroke-width="2.5"/><path fill="none" stroke="rgb(0,0,0)" paint-order="fill stroke markers" d=" M 300.4513590901409 709 L 526.0930419737466 -5" stroke-opacity="0.6980392156862745" stroke-linecap="round" stroke-linejoin="round" stroke-miterlimit="10" stroke-width="2.5"/><path fill="none" stroke="rgb(0,0,0)" paint-order="fill stroke markers" d=" M 260.63584855534606 -5 L 1114.255207777226 709" stroke-opacity="0.6980392156862745" stroke-linecap="round" stroke-linejoin="round" stroke-miterlimit="10" stroke-width="2.5"/><path fill="none" stroke="rgb(0,0,0)" paint-order="fill stroke markers" d=" M 329.95246812431895 615.6493762091437 L 1002.6503062879913 615.6493762091437" stroke-opacity="0.6980392156862745" stroke-linecap="round" stroke-linejoin="round" stroke-miterlimit="10" stroke-width="2.5"/><path fill="none" stroke="rgb(0,0,0)" paint-order="fill stroke markers" d=" M 391.03545421077376 422.3639357339189 L 606.8593608784211 284.59463621351676" stroke-opacity="0.6980392156862745" stroke-linecap="round" stroke-linejoin="round" stroke-miterlimit="10" stroke-width="2.5"/><path fill="rgb(21,101,192)" stroke="none" paint-order="stroke fill markers" d=" M 334.95246812431895 615.6493762091437 C 334.95246812431895 618.4107999582977 332.7138918734729 620.6493762091437 329.95246812431895 620.6493762091437 C 327.191044375165 620.6493762091437 324.95246812431895 618.4107999582977 324.95246812431895 615.6493762091437 C 324.95246812431895 612.8879524599897 327.191044375165 610.6493762091437 329.95246812431895 610.6493762091437 C 332.7138918734729 610.6493762091437 334.95246812431895 612.8879524599897 334.95246812431895 615.6493762091437 Z" fill-opacity="1"/><path fill="none" stroke="rgb(0,0,0)" paint-order="fill stroke markers" d=" M 334.95246812431895 615.6493762091437 C 334.95246812431895 618.4107999582977 332.7138918734729 620.6493762091437 329.95246812431895 620.6493762091437 C 327.191044375165 620.6493762091437 324.95246812431895 618.4107999582977 324.95246812431895 615.6493762091437 C 324.95246812431895 612.8879524599897 327.191044375165 610.6493762091437 329.95246812431895 610.6493762091437 C 332.7138918734729 610.6493762091437 334.95246812431895 612.8879524599897 334.95246812431895 615.6493762091437 Z" stroke-opacity="1" stroke-linecap="round" stroke-linejoin="round" stroke-miterlimit="10"/><text fill="rgb(21,101,192)" stroke="none" font-family="geogebra-sans-serif, sans-serif" font-size="24px" font-style="normal" font-weight="normal" text-decoration="normal" x="298" y="655" text-anchor="start" dominant-baseline="alphabetic" fill-opacity="1">A</text><text fill="none" stroke="rgb(255,255,255)" font-family="geogebra-sans-serif, sans-serif" font-size="24px" font-style="normal" font-weight="normal" text-decoration="normal" x="298" y="655" text-anchor="start" dominant-baseline="alphabetic" stroke-opacity="1" stroke-linejoin="bevel" stroke-miterlimit="10" stroke-width="3">A</text><text fill="rgb(21,101,192)" stroke="none" font-family="geogebra-sans-serif, sans-serif" font-size="24px" font-style="normal" font-weight="normal" text-decoration="normal" x="298" y="655" text-anchor="start" dominant-baseline="alphabetic" fill-opacity="1">A</text><path fill="rgb(21,101,192)" stroke="none" paint-order="stroke fill markers" d=" M 1007.6503062879913 615.6493762091437 C 1007.6503062879913 618.4107999582977 1005.4117300371453 620.6493762091437 1002.6503062879913 620.6493762091437 C 999.8888825388373 620.6493762091437 997.6503062879913 618.4107999582977 997.6503062879913 615.6493762091437 C 997.6503062879913 612.8879524599897 999.8888825388373 610.6493762091437 1002.6503062879913 610.6493762091437 C 1005.4117300371453 610.6493762091437 1007.6503062879913 612.8879524599897 1007.6503062879913 615.6493762091437 Z" fill-opacity="1"/><path fill="none" stroke="rgb(0,0,0)" paint-order="fill stroke markers" d=" M 1007.6503062879913 615.6493762091437 C 1007.6503062879913 618.4107999582977 1005.4117300371453 620.6493762091437 1002.6503062879913 620.6493762091437 C 999.8888825388373 620.6493762091437 997.6503062879913 618.4107999582977 997.6503062879913 615.6493762091437 C 997.6503062879913 612.8879524599897 999.8888825388373 610.6493762091437 1002.6503062879913 610.6493762091437 C 1005.4117300371453 610.6493762091437 1007.6503062879913 612.8879524599897 1007.6503062879913 615.6493762091437 Z" stroke-opacity="1" stroke-linecap="round" stroke-linejoin="round" stroke-miterlimit="10"/><text fill="rgb(21,101,192)" stroke="none" font-family="geogebra-sans-serif, sans-serif" font-size="24px" font-style="normal" font-weight="normal" text-decoration="normal" x="1017" y="655" text-anchor="start" dominant-baseline="alphabetic" fill-opacity="1">B</text><text fill="none" stroke="rgb(255,255,255)" font-family="geogebra-sans-serif, sans-serif" font-size="24px" font-style="normal" font-weight="normal" text-decoration="normal" x="1017" y="655" text-anchor="start" dominant-baseline="alphabetic" stroke-opacity="1" stroke-linejoin="bevel" stroke-miterlimit="10" stroke-width="3">B</text><text fill="rgb(21,101,192)" stroke="none" font-family="geogebra-sans-serif, sans-serif" font-size="24px" font-style="normal" font-weight="normal" text-decoration="normal" x="1017" y="655" text-anchor="start" dominant-baseline="alphabetic" fill-opacity="1">B</text><path fill="rgb(211,47,47)" stroke="none" paint-order="stroke fill markers" d=" M 671.3013872061551 615.6493762091437 C 671.3013872061551 618.4107999582977 669.0628109553091 620.6493762091437 666.3013872061551 620.6493762091437 C 663.5399634570011 620.6493762091437 661.3013872061551 618.4107999582977 661.3013872061551 615.6493762091437 C 661.3013872061551 612.8879524599897 663.5399634570011 610.6493762091437 666.3013872061551 610.6493762091437 C 669.0628109553091 610.6493762091437 671.3013872061551 612.8879524599897 671.3013872061551 615.6493762091437 Z" fill-opacity="1"/><path fill="none" stroke="rgb(0,0,0)" paint-order="fill stroke markers" d=" M 671.3013872061551 615.6493762091437 C 671.3013872061551 618.4107999582977 669.0628109553091 620.6493762091437 666.3013872061551 620.6493762091437 C 663.5399634570011 620.6493762091437 661.3013872061551 618.4107999582977 661.3013872061551 615.6493762091437 C 661.3013872061551 612.8879524599897 663.5399634570011 610.6493762091437 666.3013872061551 610.6493762091437 C 669.0628109553091 610.6493762091437 671.3013872061551 612.8879524599897 671.3013872061551 615.6493762091437 Z" stroke-opacity="1" stroke-linecap="round" stroke-linejoin="round" stroke-miterlimit="10"/><path fill="rgb(21,101,192)" stroke="none" paint-order="stroke fill markers" d=" M 396.03545421077376 422.3639357339189 C 396.03545421077376 425.1253594830728 393.7968779599277 427.3639357339189 391.03545421077376 427.3639357339189 C 388.2740304616198 427.3639357339189 386.03545421077376 425.1253594830728 386.03545421077376 422.3639357339189 C 386.03545421077376 419.60251198476493 388.2740304616198 417.3639357339189 391.03545421077376 417.3639357339189 C 393.7968779599277 417.3639357339189 396.03545421077376 419.60251198476493 396.03545421077376 422.3639357339189 Z" fill-opacity="1"/><path fill="none" stroke="rgb(0,0,0)" paint-order="fill stroke markers" d=" M 396.03545421077376 422.3639357339189 C 396.03545421077376 425.1253594830728 393.7968779599277 427.3639357339189 391.03545421077376 427.3639357339189 C 388.2740304616198 427.3639357339189 386.03545421077376 425.1253594830728 386.03545421077376 422.3639357339189 C 386.03545421077376 419.60251198476493 388.2740304616198 417.3639357339189 391.03545421077376 417.3639357339189 C 393.7968779599277 417.3639357339189 396.03545421077376 419.60251198476493 396.03545421077376 422.3639357339189 Z" stroke-opacity="1" stroke-linecap="round" stroke-linejoin="round" stroke-miterlimit="10"/><text fill="rgb(21,101,192)" stroke="none" font-family="geogebra-sans-serif, sans-serif" font-size="24px" font-style="normal" font-weight="normal" text-decoration="normal" x="337" y="419" text-anchor="start" dominant-baseline="alphabetic" fill-opacity="1">C</text><text fill="none" stroke="rgb(255,255,255)" font-family="geogebra-sans-serif, sans-serif" font-size="24px" font-style="normal" font-weight="normal" text-decoration="normal" x="337" y="419" text-anchor="start" dominant-baseline="alphabetic" stroke-opacity="1" stroke-linejoin="bevel" stroke-miterlimit="10" stroke-width="3">C</text><text fill="rgb(21,101,192)" stroke="none" font-family="geogebra-sans-serif, sans-serif" font-size="24px" font-style="normal" font-weight="normal" text-decoration="normal" x="337" y="419" text-anchor="start" dominant-baseline="alphabetic" fill-opacity="1">C</text><path fill="rgb(21,101,192)" stroke="none" paint-order="stroke fill markers" d=" M 611.8593608784211 284.59463621351676 C 611.8593608784211 287.3560599626707 609.6207846275751 289.59463621351676 606.8593608784211 289.59463621351676 C 604.097937129267 289.59463621351676 601.8593608784211 287.3560599626707 601.8593608784211 284.59463621351676 C 601.8593608784211 281.8332124643628 604.097937129267 279.59463621351676 606.8593608784211 279.59463621351676 C 609.6207846275751 279.59463621351676 611.8593608784211 281.8332124643628 611.8593608784211 284.59463621351676 Z" fill-opacity="1"/><path fill="none" stroke="rgb(0,0,0)" paint-order="fill stroke markers" d=" M 611.8593608784211 284.59463621351676 C 611.8593608784211 287.3560599626707 609.6207846275751 289.59463621351676 606.8593608784211 289.59463621351676 C 604.097937129267 289.59463621351676 601.8593608784211 287.3560599626707 601.8593608784211 284.59463621351676 C 601.8593608784211 281.8332124643628 604.097937129267 279.59463621351676 606.8593608784211 279.59463621351676 C 609.6207846275751 279.59463621351676 611.8593608784211 281.8332124643628 611.8593608784211 284.59463621351676 Z" stroke-opacity="1" stroke-linecap="round" stroke-linejoin="round" stroke-miterlimit="10"/><text fill="rgb(21,101,192)" stroke="none" font-family="geogebra-sans-serif, sans-serif" font-size="24px" font-style="normal" font-weight="normal" text-decoration="normal" x="635" y="263" text-anchor="start" dominant-baseline="alphabetic" fill-opacity="1">D</text><text fill="none" stroke="rgb(255,255,255)" font-family="geogebra-sans-serif, sans-serif" font-size="24px" font-style="normal" font-weight="normal" text-decoration="normal" x="635" y="263" text-anchor="start" dominant-baseline="alphabetic" stroke-opacity="1" stroke-linejoin="bevel" stroke-miterlimit="10" stroke-width="3">D</text><text fill="rgb(21,101,192)" stroke="none" font-family="geogebra-sans-serif, sans-serif" font-size="24px" font-style="normal" font-weight="normal" text-decoration="normal" x="635" y="263" text-anchor="start" dominant-baseline="alphabetic" fill-opacity="1">D</text><path fill="rgb(46,125,50)" stroke="none" paint-order="stroke fill markers" d=" M 475.5937646722757 170.6168607096011 C 475.5937646722757 173.37828445875508 473.35518842142966 175.6168607096011 470.5937646722757 175.6168607096011 C 467.83234092312176 175.6168607096011 465.5937646722757 173.37828445875508 465.5937646722757 170.6168607096011 C 465.5937646722757 167.85543696044712 467.83234092312176 165.6168607096011 470.5937646722757 165.6168607096011 C 473.35518842142966 165.6168607096011 475.5937646722757 167.85543696044712 475.5937646722757 170.6168607096011 Z" fill-opacity="1"/><path fill="none" stroke="rgb(0,0,0)" paint-order="fill stroke markers" d=" M 475.5937646722757 170.6168607096011 C 475.5937646722757 173.37828445875508 473.35518842142966 175.6168607096011 470.5937646722757 175.6168607096011 C 467.83234092312176 175.6168607096011 465.5937646722757 173.37828445875508 465.5937646722757 170.6168607096011 C 465.5937646722757 167.85543696044712 467.83234092312176 165.6168607096011 470.5937646722757 165.6168607096011 C 473.35518842142966 165.6168607096011 475.5937646722757 167.85543696044712 475.5937646722757 170.6168607096011 Z" stroke-opacity="1" stroke-linecap="round" stroke-linejoin="round" stroke-miterlimit="10"/><text fill="rgb(46,125,50)" stroke="none" font-family="geogebra-sans-serif, sans-serif" font-size="24px" font-style="normal" font-weight="normal" text-decoration="normal" x="448" y="143" text-anchor="start" dominant-baseline="alphabetic" fill-opacity="1">P</text><text fill="none" stroke="rgb(255,255,255)" font-family="geogebra-sans-serif, sans-serif" font-size="24px" font-style="normal" font-weight="normal" text-decoration="normal" x="448" y="143" text-anchor="start" dominant-baseline="alphabetic" stroke-opacity="1" stroke-linejoin="bevel" stroke-miterlimit="10" stroke-width="3">P</text><text fill="rgb(46,125,50)" stroke="none" font-family="geogebra-sans-serif, sans-serif" font-size="24px" font-style="normal" font-weight="normal" text-decoration="normal" x="448" y="143" text-anchor="start" dominant-baseline="alphabetic" fill-opacity="1">P</text></g></g></svg>