<svg version="1.1" xmlns="http://www.w3.org/2000/svg" xmlns:xlink="http://www.w3.org/1999/xlink" width="1310" height="704"><defs><clipPath id="wHMPXVyBQCvi"><path fill="none" stroke="none" d=" M 0 0 L 1310 0 L 1310 704 L 0 704 L 0 0 Z"/></clipPath></defs><g transform="scale(1,1)" clip-path="url(#wHMPXVyBQCvi)"><g><rect fill="rgb(255,255,255)" stroke="none" x="0" y="0" width="1310" height="704" fill-opacity="1"/><path fill="none" stroke="rgb(0,0,0)" paint-order="fill stroke markers" d=" M 1033.6503062879906 613.6493762091438 C 1033.6503062879906 427.8889975781745 883.0617658371241 277.3004571273082 697.3013872061545 277.3004571273082 C 511.54100857518483 277.3004571273082 360.95246812431833 427.88899757817444 360.9524681243183 613.6493762091438" stroke-opacity="0.6980392156862745" stroke-linecap="round" stroke-linejoin="round" stroke-miterlimit="10" stroke-width="2.5"/><path fill="rgb(0,0,0)" stroke="none" paint-order="stroke fill markers" d=" M 488.38506845140233 200.1227871035494 C 500.0040493740545 203.70329919426348 512.6351982115634 199.91702284774448 520.3687068199226 190.535464921838 L 497.2199076195811 171.45319316027195 Z" fill-opacity="0.09803921568627451"/><path fill="none" stroke="rgb(0,0,0)" paint-order="fill stroke markers" d=" M 488.38506845140233 200.1227871035494 C 500.0040493740545 203.70329919426348 512.6351982115634 199.91702284774448 520.3687068199226 190.535464921838 L 497.2199076195811 171.45319316027195 Z" stroke-opacity="0.6" stroke-linecap="round" stroke-linejoin="round" stroke-miterlimit="10" stroke-width="2.5"/><g transform="scale(27,27)"><g transform="translate(18.555555555555557,8.361111666666666)"><path fill="rgb(0,0,0)" stroke="none" paint-order="stroke fill markers" d=" M 0.455 -0.5 L 0.455 -0.5 Q 0.455 -0.34700000000000003 0.377 -0.19 Q 0.307 -0.05 0.222 -0.005 Q 0.191 0.011 0.162 0.011 Q 0.08 0.011 0.052000000000000005 -0.101 Q 0.042 -0.14300000000000002 0.042 -0.194 Q 0.042 -0.35100000000000003 0.122 -0.509 Q 0.192 -0.646 0.277 -0.6900000000000001 Q 0.307 -0.705 0.335 -0.705 Q 0.422 -0.705 0.447 -0.578 Q 0.455 -0.54 0.455 -0.5 M 0.148 -0.363 L 0.148 -0.363 L 0.357 -0.363 Q 0.389 -0.495 0.389 -0.562 Q 0.389 -0.675 0.342 -0.682 Q 0.338 -0.683 0.334 -0.683 Q 0.28300000000000003 -0.683 0.225 -0.578 Q 0.187 -0.511 0.149 -0.368 Q 0.149 -0.365 0.148 -0.363 M 0.34800000000000003 -0.331 L 0.14 -0.331 Q 0.108 -0.21 0.108 -0.133 Q 0.108 -0.013000000000000001 0.162 -0.011 Q 0.218 -0.011 0.278 -0.128 Q 0.317 -0.202 0.34800000000000003 -0.331 Z"/></g></g><path fill="rgb(0,0,0)" stroke="none" paint-order="stroke fill markers" fill-rule="evenodd" d=" M 419.2935956677913 424.32884586052717 L 413.04642098128 444.60131015168207 L 433.31888527243586 450.84848483819513 L 439.56605995894625 430.57602054703847 L 419.2935956677913 424.32884586052717" fill-opacity="0.09803921568627451"/><path fill="none" stroke="rgb(0,0,0)" paint-order="fill stroke markers" d=" M 419.2935956677913 424.32884586052717 L 413.04642098128 444.60131015168207 L 433.31888527243586 450.84848483819513 L 439.56605995894625 430.57602054703847 L 419.2935956677913 424.32884586052717" stroke-opacity="0.6" stroke-linecap="round" stroke-linejoin="round" stroke-miterlimit="10" stroke-width="2.5"/><path fill="none" stroke="rgb(0,0,0)" paint-order="fill stroke markers" d=" M -5 613.6493762091438 L 1315 613.6493762091438" stroke-opacity="0.6980392156862745" stroke-linecap="round" stroke-linejoin="round" stroke-miterlimit="10" stroke-width="2.5"/><path fill="none" stroke="rgb(0,0,0)" paint-order="fill stroke markers" d=" M 331.5691630295748 709 L 551.5958288609814 -5" stroke-opacity="0.6980392156862745" stroke-linecap="round" stroke-linejoin="round" stroke-miterlimit="10" stroke-width="2.5"/><path fill="none" stroke="rgb(0,0,0)" paint-order="fill stroke markers" d=" M 283.1636575166326 -5 L 1149.3206243372024 709" stroke-opacity="0.6980392156862745" stroke-linecap="round" stroke-linejoin="round" stroke-miterlimit="10" stroke-width="2.5"/><path fill="none" stroke="rgb(0,0,0)" paint-order="fill stroke markers" d=" M 360.9524681243183 613.6493762091438 L 1033.6503062879906 613.6493762091438" stroke-opacity="0.6980392156862745" stroke-linecap="round" stroke-linejoin="round" stroke-miterlimit="10" stroke-width="2.5"/><path fill="none" stroke="rgb(0,0,0)" paint-order="fill stroke markers" d=" M 419.2935956677913 424.32884586052717 L 633.1208527932458 283.4805491373067" stroke-opacity="0.6980392156862745" stroke-linecap="round" stroke-linejoin="round" stroke-miterlimit="10" stroke-width="2.5"/><path fill="none" stroke="rgb(0,0,0)" paint-order="fill stroke markers" d=" M 419.2935956677913 424.32884586052717 L 1033.6503062879906 613.6493762091438" stroke-opacity="0.6980392156862745" stroke-linejoin="round" stroke-miterlimit="10" stroke-width="2.5" stroke-dasharray="10.5,8"/><path fill="rgb(21,101,192)" stroke="none" paint-order="stroke fill markers" d=" M 365.9524681243183 613.6493762091438 C 365.9524681243183 616.4107999582978 363.7138918734722 618.6493762091438 360.9524681243183 618.6493762091438 C 358.1910443751643 618.6493762091438 355.9524681243183 616.4107999582978 355.9524681243183 613.6493762091438 C 355.9524681243183 610.8879524599898 358.1910443751643 608.6493762091438 360.9524681243183 608.6493762091438 C 363.7138918734722 608.6493762091438 365.9524681243183 610.8879524599898 365.9524681243183 613.6493762091438 Z" fill-opacity="1"/><path fill="none" stroke="rgb(0,0,0)" paint-order="fill stroke markers" d=" M 365.9524681243183 613.6493762091438 C 365.9524681243183 616.4107999582978 363.7138918734722 618.6493762091438 360.9524681243183 618.6493762091438 C 358.1910443751643 618.6493762091438 355.9524681243183 616.4107999582978 355.9524681243183 613.6493762091438 C 355.9524681243183 610.8879524599898 358.1910443751643 608.6493762091438 360.9524681243183 608.6493762091438 C 363.7138918734722 608.6493762091438 365.9524681243183 610.8879524599898 365.9524681243183 613.6493762091438 Z" stroke-opacity="1" stroke-linecap="round" stroke-linejoin="round" stroke-miterlimit="10"/><text fill="rgb(21,101,192)" stroke="none" font-family="geogebra-sans-serif, sans-serif" font-size="24px" font-style="normal" font-weight="normal" text-decoration="normal" x="317" y="648" text-anchor="start" dominant-baseline="alphabetic" fill-opacity="1">A</text><text fill="none" stroke="rgb(255,255,255)" font-family="geogebra-sans-serif, sans-serif" font-size="24px" font-style="normal" font-weight="normal" text-decoration="normal" x="317" y="648" text-anchor="start" dominant-baseline="alphabetic" stroke-opacity="1" stroke-linejoin="bevel" stroke-miterlimit="10" stroke-width="3">A</text><text fill="rgb(21,101,192)" stroke="none" font-family="geogebra-sans-serif, sans-serif" font-size="24px" font-style="normal" font-weight="normal" text-decoration="normal" x="317" y="648" text-anchor="start" dominant-baseline="alphabetic" fill-opacity="1">A</text><path fill="rgb(21,101,192)" stroke="none" paint-order="stroke fill markers" d=" M 1038.6503062879906 613.6493762091438 C 1038.6503062879906 616.4107999582978 1036.4117300371445 618.6493762091438 1033.6503062879906 618.6493762091438 C 1030.8888825388367 618.6493762091438 1028.6503062879906 616.4107999582978 1028.6503062879906 613.6493762091438 C 1028.6503062879906 610.8879524599898 1030.8888825388367 608.6493762091438 1033.6503062879906 608.6493762091438 C 1036.4117300371445 608.6493762091438 1038.6503062879906 610.8879524599898 1038.6503062879906 613.6493762091438 Z" fill-opacity="1"/><path fill="none" stroke="rgb(0,0,0)" paint-order="fill stroke markers" d=" M 1038.6503062879906 613.6493762091438 C 1038.6503062879906 616.4107999582978 1036.4117300371445 618.6493762091438 1033.6503062879906 618.6493762091438 C 1030.8888825388367 618.6493762091438 1028.6503062879906 616.4107999582978 1028.6503062879906 613.6493762091438 C 1028.6503062879906 610.8879524599898 1030.8888825388367 608.6493762091438 1033.6503062879906 608.6493762091438 C 1036.4117300371445 608.6493762091438 1038.6503062879906 610.8879524599898 1038.6503062879906 613.6493762091438 Z" stroke-opacity="1" stroke-linecap="round" stroke-linejoin="round" stroke-miterlimit="10"/><text fill="rgb(21,101,192)" stroke="none" font-family="geogebra-sans-serif, sans-serif" font-size="24px" font-style="normal" font-weight="normal" text-decoration="normal" x="1029" y="653" text-anchor="start" dominant-baseline="alphabetic" fill-opacity="1">B</text><text fill="none" stroke="rgb(255,255,255)" font-family="geogebra-sans-serif, sans-serif" font-size="24px" font-style="normal" font-weight="normal" text-decoration="normal" x="1029" y="653" text-anchor="start" dominant-baseline="alphabetic" stroke-opacity="1" stroke-linejoin="bevel" stroke-miterlimit="10" stroke-width="3">B</text><text fill="rgb(21,101,192)" stroke="none" font-family="geogebra-sans-serif, sans-serif" font-size="24px" font-style="normal" font-weight="normal" text-decoration="normal" x="1029" y="653" text-anchor="start" dominant-baseline="alphabetic" fill-opacity="1">B</text><path fill="rgb(211,47,47)" stroke="none" paint-order="stroke fill markers" d=" M 702.3013872061545 613.6493762091438 C 702.3013872061545 616.4107999582978 700.0628109553085 618.6493762091438 697.3013872061545 618.6493762091438 C 694.5399634570005 618.6493762091438 692.3013872061545 616.4107999582978 692.3013872061545 613.6493762091438 C 692.3013872061545 610.8879524599898 694.5399634570005 608.6493762091438 697.3013872061545 608.6493762091438 C 700.0628109553085 608.6493762091438 702.3013872061545 610.8879524599898 702.3013872061545 613.6493762091438 Z" fill-opacity="1"/><path fill="none" stroke="rgb(0,0,0)" paint-order="fill stroke markers" d=" M 702.3013872061545 613.6493762091438 C 702.3013872061545 616.4107999582978 700.0628109553085 618.6493762091438 697.3013872061545 618.6493762091438 C 694.5399634570005 618.6493762091438 692.3013872061545 616.4107999582978 692.3013872061545 613.6493762091438 C 692.3013872061545 610.8879524599898 694.5399634570005 608.6493762091438 697.3013872061545 608.6493762091438 C 700.0628109553085 608.6493762091438 702.3013872061545 610.8879524599898 702.3013872061545 613.6493762091438 Z" stroke-opacity="1" stroke-linecap="round" stroke-linejoin="round" stroke-miterlimit="10"/><text fill="rgb(211,47,47)" stroke="none" font-family="geogebra-sans-serif, sans-serif" font-size="24px" font-style="normal" font-weight="normal" text-decoration="normal" x="692" y="665" text-anchor="start" dominant-baseline="alphabetic" fill-opacity="1">O</text><text fill="none" stroke="rgb(255,255,255)" font-family="geogebra-sans-serif, sans-serif" font-size="24px" font-style="normal" font-weight="normal" text-decoration="normal" x="692" y="665" text-anchor="start" dominant-baseline="alphabetic" stroke-opacity="1" stroke-linejoin="bevel" stroke-miterlimit="10" stroke-width="3">O</text><text fill="rgb(211,47,47)" stroke="none" font-family="geogebra-sans-serif, sans-serif" font-size="24px" font-style="normal" font-weight="normal" text-decoration="normal" x="692" y="665" text-anchor="start" dominant-baseline="alphabetic" fill-opacity="1">O</text><path fill="rgb(21,101,192)" stroke="none" paint-order="stroke fill markers" d=" M 424.2935956677913 424.32884586052717 C 424.2935956677913 427.0902696096811 422.05501941694524 429.32884586052717 419.2935956677913 429.32884586052717 C 416.53217191863735 429.32884586052717 414.2935956677913 427.0902696096811 414.2935956677913 424.32884586052717 C 414.2935956677913 421.5674221113732 416.53217191863735 419.32884586052717 419.2935956677913 419.32884586052717 C 422.05501941694524 419.32884586052717 424.2935956677913 421.5674221113732 424.2935956677913 424.32884586052717 Z" fill-opacity="1"/><path fill="none" stroke="rgb(0,0,0)" paint-order="fill stroke markers" d=" M 424.2935956677913 424.32884586052717 C 424.2935956677913 427.0902696096811 422.05501941694524 429.32884586052717 419.2935956677913 429.32884586052717 C 416.53217191863735 429.32884586052717 414.2935956677913 427.0902696096811 414.2935956677913 424.32884586052717 C 414.2935956677913 421.5674221113732 416.53217191863735 419.32884586052717 419.2935956677913 419.32884586052717 C 422.05501941694524 419.32884586052717 424.2935956677913 421.5674221113732 424.2935956677913 424.32884586052717 Z" stroke-opacity="1" stroke-linecap="round" stroke-linejoin="round" stroke-miterlimit="10"/><text fill="rgb(21,101,192)" stroke="none" font-family="geogebra-sans-serif, sans-serif" font-size="24px" font-style="normal" font-weight="normal" text-decoration="normal" x="365" y="421" text-anchor="start" dominant-baseline="alphabetic" fill-opacity="1">C</text><text fill="none" stroke="rgb(255,255,255)" font-family="geogebra-sans-serif, sans-serif" font-size="24px" font-style="normal" font-weight="normal" text-decoration="normal" x="365" y="421" text-anchor="start" dominant-baseline="alphabetic" stroke-opacity="1" stroke-linejoin="bevel" stroke-miterlimit="10" stroke-width="3">C</text><text fill="rgb(21,101,192)" stroke="none" font-family="geogebra-sans-serif, sans-serif" font-size="24px" font-style="normal" font-weight="normal" text-decoration="normal" x="365" y="421" text-anchor="start" dominant-baseline="alphabetic" fill-opacity="1">C</text><path fill="rgb(21,101,192)" stroke="none" paint-order="stroke fill markers" d=" M 638.1208527932458 283.4805491373067 C 638.1208527932458 286.24197288646064 635.8822765423998 288.4805491373067 633.1208527932458 288.4805491373067 C 630.3594290440918 288.4805491373067 628.1208527932458 286.24197288646064 628.1208527932458 283.4805491373067 C 628.1208527932458 280.71912538815275 630.3594290440918 278.4805491373067 633.1208527932458 278.4805491373067 C 635.8822765423998 278.4805491373067 638.1208527932458 280.71912538815275 638.1208527932458 283.4805491373067 Z" fill-opacity="1"/><path fill="none" stroke="rgb(0,0,0)" paint-order="fill stroke markers" d=" M 638.1208527932458 283.4805491373067 C 638.1208527932458 286.24197288646064 635.8822765423998 288.4805491373067 633.1208527932458 288.4805491373067 C 630.3594290440918 288.4805491373067 628.1208527932458 286.24197288646064 628.1208527932458 283.4805491373067 C 628.1208527932458 280.71912538815275 630.3594290440918 278.4805491373067 633.1208527932458 278.4805491373067 C 635.8822765423998 278.4805491373067 638.1208527932458 280.71912538815275 638.1208527932458 283.4805491373067 Z" stroke-opacity="1" stroke-linecap="round" stroke-linejoin="round" stroke-miterlimit="10"/><text fill="rgb(21,101,192)" stroke="none" font-family="geogebra-sans-serif, sans-serif" font-size="24px" font-style="normal" font-weight="normal" text-decoration="normal" x="661" y="261" text-anchor="start" dominant-baseline="alphabetic" fill-opacity="1">D</text><text fill="none" stroke="rgb(255,255,255)" font-family="geogebra-sans-serif, sans-serif" font-size="24px" font-style="normal" font-weight="normal" text-decoration="normal" x="661" y="261" text-anchor="start" dominant-baseline="alphabetic" stroke-opacity="1" stroke-linejoin="bevel" stroke-miterlimit="10" stroke-width="3">D</text><text fill="rgb(21,101,192)" stroke="none" font-family="geogebra-sans-serif, sans-serif" font-size="24px" font-style="normal" font-weight="normal" text-decoration="normal" x="661" y="261" text-anchor="start" dominant-baseline="alphabetic" fill-opacity="1">D</text><path fill="rgb(46,125,50)" stroke="none" paint-order="stroke fill markers" d=" M 502.2199076195811 171.45319316027195 C 502.2199076195811 174.21461690942593 499.981331368735 176.45319316027195 497.2199076195811 176.45319316027195 C 494.45848387042713 176.45319316027195 492.2199076195811 174.21461690942593 492.2199076195811 171.45319316027195 C 492.2199076195811 168.69176941111797 494.45848387042713 166.45319316027195 497.2199076195811 166.45319316027195 C 499.981331368735 166.45319316027195 502.2199076195811 168.69176941111797 502.2199076195811 171.45319316027195 Z" fill-opacity="1"/><path fill="none" stroke="rgb(0,0,0)" paint-order="fill stroke markers" d=" M 502.2199076195811 171.45319316027195 C 502.2199076195811 174.21461690942593 499.981331368735 176.45319316027195 497.2199076195811 176.45319316027195 C 494.45848387042713 176.45319316027195 492.2199076195811 174.21461690942593 492.2199076195811 171.45319316027195 C 492.2199076195811 168.69176941111797 494.45848387042713 166.45319316027195 497.2199076195811 166.45319316027195 C 499.981331368735 166.45319316027195 502.2199076195811 168.69176941111797 502.2199076195811 171.45319316027195 Z" stroke-opacity="1" stroke-linecap="round" stroke-linejoin="round" stroke-miterlimit="10"/><text fill="rgb(46,125,50)" stroke="none" font-family="geogebra-sans-serif, sans-serif" font-size="24px" font-style="normal" font-weight="normal" text-decoration="normal" x="474" y="143" text-anchor="start" dominant-baseline="alphabetic" fill-opacity="1">P</text><text fill="none" stroke="rgb(255,255,255)" font-family="geogebra-sans-serif, sans-serif" font-size="24px" font-style="normal" font-weight="normal" text-decoration="normal" x="474" y="143" text-anchor="start" dominant-baseline="alphabetic" stroke-opacity="1" stroke-linejoin="bevel" stroke-miterlimit="10" stroke-width="3">P</text><text fill="rgb(46,125,50)" stroke="none" font-family="geogebra-sans-serif, sans-serif" font-size="24px" font-style="normal" font-weight="normal" text-decoration="normal" x="474" y="143" text-anchor="start" dominant-baseline="alphabetic" fill-opacity="1">P</text></g></g></svg>