<svg version="1.1" xmlns="http://www.w3.org/2000/svg" xmlns:xlink="http://www.w3.org/1999/xlink" width="1310" height="704"><defs><clipPath id="hmInJFUptXsQ"><path fill="none" stroke="none" d=" M 0 0 L 1310 0 L 1310 704 L 0 704 L 0 0 Z"/></clipPath></defs><g transform="scale(1,1)" clip-path="url(#hmInJFUptXsQ)"><g><rect fill="rgb(255,255,255)" stroke="none" x="0" y="0" width="1310" height="704" fill-opacity="1"/><path fill="none" stroke="rgb(0,0,0)" paint-order="fill stroke markers" d=" M 986.6503062879904 587.6493762091438 C 986.6503062879904 401.8889975781745 836.0617658371239 251.30045712730822 650.3013872061542 251.30045712730822 C 464.5410085751846 251.30045712730822 313.9524681243181 401.88899757817444 313.95246812431805 587.6493762091438" stroke-opacity="0.6980392156862745" stroke-linecap="round" stroke-linejoin="round" stroke-miterlimit="10" stroke-width="2.5"/><path fill="rgb(0,0,0)" stroke="none" paint-order="stroke fill markers" d=" M 441.3850684514021 174.1227871035494 C 453.00404937405426 177.70329919426348 465.6351982115632 173.91702284774448 473.36870681992247 164.535464921838 L 450.21990761958085 145.45319316027195 Z" fill-opacity="0.09803921568627451"/><path fill="none" stroke="rgb(0,0,0)" paint-order="fill stroke markers" d=" M 441.3850684514021 174.1227871035494 C 453.00404937405426 177.70329919426348 465.6351982115632 173.91702284774448 473.36870681992247 164.535464921838 L 450.21990761958085 145.45319316027195 Z" stroke-opacity="0.6" stroke-linecap="round" stroke-linejoin="round" stroke-miterlimit="10" stroke-width="2.5"/><g transform="scale(27,27)"><g transform="translate(16.814814814814813,7.398148703703703)"><path fill="rgb(0,0,0)" stroke="none" paint-order="stroke fill markers" d=" M 0.455 -0.5 L 0.455 -0.5 Q 0.455 -0.34700000000000003 0.377 -0.19 Q 0.307 -0.05 0.222 -0.005 Q 0.191 0.011 0.162 0.011 Q 0.08 0.011 0.052000000000000005 -0.101 Q 0.042 -0.14300000000000002 0.042 -0.194 Q 0.042 -0.35100000000000003 0.122 -0.509 Q 0.192 -0.646 0.277 -0.6900000000000001 Q 0.307 -0.705 0.335 -0.705 Q 0.422 -0.705 0.447 -0.578 Q 0.455 -0.54 0.455 -0.5 M 0.148 -0.363 L 0.148 -0.363 L 0.357 -0.363 Q 0.389 -0.495 0.389 -0.562 Q 0.389 -0.675 0.342 -0.682 Q 0.338 -0.683 0.334 -0.683 Q 0.28300000000000003 -0.683 0.225 -0.578 Q 0.187 -0.511 0.149 -0.368 Q 0.149 -0.365 0.148 -0.363 M 0.34800000000000003 -0.331 L 0.14 -0.331 Q 0.108 -0.21 0.108 -0.133 Q 0.108 -0.013000000000000001 0.162 -0.011 Q 0.218 -0.011 0.278 -0.128 Q 0.317 -0.202 0.34800000000000003 -0.331 Z"/></g></g><path fill="rgb(0,0,0)" stroke="none" paint-order="stroke fill markers" fill-rule="evenodd" d=" M 372.29359566779107 398.32884586052717 L 366.04642098127977 418.60131015168207 L 386.31888527243564 424.84848483819513 L 392.566059958946 404.57602054703847 L 372.29359566779107 398.32884586052717" fill-opacity="0.09803921568627451"/><path fill="none" stroke="rgb(0,0,0)" paint-order="fill stroke markers" d=" M 372.29359566779107 398.32884586052717 L 366.04642098127977 418.60131015168207 L 386.31888527243564 424.84848483819513 L 392.566059958946 404.57602054703847 L 372.29359566779107 398.32884586052717" stroke-opacity="0.6" stroke-linecap="round" stroke-linejoin="round" stroke-miterlimit="10" stroke-width="2.5"/><path fill="rgb(0,0,0)" stroke="none" paint-order="stroke fill markers" d=" M 955.785240687535 562.2063471937224 C 952.463057551293 566.2365041524195 949.9623078352438 570.8782750099464 948.4241810302871 575.8695906515721 L 986.6503062879904 587.6493762091438 Z" fill-opacity="0.09803921568627451"/><path fill="none" stroke="rgb(0,0,0)" paint-order="fill stroke markers" d=" M 955.785240687535 562.2063471937224 C 952.463057551293 566.2365041524195 949.9623078352438 570.8782750099464 948.4241810302871 575.8695906515721 L 986.6503062879904 587.6493762091438 Z" stroke-opacity="0.6" stroke-linecap="round" stroke-linejoin="round" stroke-miterlimit="10" stroke-width="2.5"/><g transform="scale(27,27)"><g transform="translate(33,20.24252271851852)"><path fill="rgb(0,0,0)" stroke="none" paint-order="stroke fill markers" d=" M 0.367 -0.318 Q 0.327 -0.218 0.242 -0.218 Q 0.149 -0.218 0.09 -0.294 L 0.09 -0.295 Q 0.042 -0.357 0.042 -0.441 Q 0.042 -0.525 0.091 -0.586 L 0.106 -0.603 Q 0.166 -0.666 0.253 -0.666 Q 0.353 -0.666 0.40800000000000003 -0.5690000000000001 Q 0.457 -0.482 0.457 -0.329 Q 0.457 -0.158 0.365 -0.055 Q 0.296 0.022 0.20600000000000002 0.022 Q 0.108 0.022 0.077 -0.039 Q 0.067 -0.06 0.067 -0.08600000000000001 Q 0.067 -0.126 0.10400000000000001 -0.133 Q 0.109 -0.134 0.113 -0.134 Q 0.145 -0.134 0.156 -0.106 Q 0.159 -0.098 0.159 -0.088 Q 0.159 -0.048 0.11900000000000001 -0.043000000000000003 Q 0.113 -0.042 0.107 -0.042 Q 0.136 -0.006 0.20500000000000002 -0.006 Q 0.276 -0.006 0.321 -0.077 Q 0.367 -0.15 0.367 -0.28600000000000003 L 0.367 -0.318 M 0.243 -0.241 Q 0.321 -0.241 0.352 -0.333 Q 0.365 -0.374 0.365 -0.421 Q 0.365 -0.519 0.34900000000000003 -0.562 Q 0.323 -0.632 0.266 -0.64 Q 0.259 -0.641 0.253 -0.641 Q 0.187 -0.641 0.153 -0.578 Q 0.132 -0.541 0.132 -0.452 L 0.132 -0.44 Q 0.132 -0.341 0.15 -0.304 Q 0.181 -0.241 0.243 -0.241 Z"/></g><g transform="translate(33.500002,20.24252271851852)"><path fill="rgb(0,0,0)" stroke="none" paint-order="stroke fill markers" d=" M 0.46 -0.32 Q 0.46 -0.17400000000000002 0.423 -0.094 Q 0.364 0.018000000000000002 0.249 0.022 Q 0.158 0.022 0.10300000000000001 -0.05 Q 0.092 -0.063 0.084 -0.079 Q 0.039 -0.162 0.039 -0.32 Q 0.039 -0.467 0.076 -0.547 Q 0.126 -0.659 0.23800000000000002 -0.666 L 0.25 -0.666 Q 0.339 -0.666 0.395 -0.595 L 0.395 -0.594 Q 0.40900000000000003 -0.5760000000000001 0.42 -0.554 Q 0.46 -0.46900000000000003 0.46 -0.32 M 0.249 0 L 0.249 0 Q 0.312 0 0.34600000000000003 -0.061 Q 0.36 -0.088 0.366 -0.125 Q 0.377 -0.189 0.377 -0.332 Q 0.377 -0.47100000000000003 0.367 -0.527 Q 0.34900000000000003 -0.622 0.275 -0.641 Q 0.262 -0.644 0.249 -0.644 Q 0.179 -0.644 0.147 -0.5740000000000001 Q 0.136 -0.55 0.13 -0.516 Q 0.122 -0.462 0.122 -0.332 Q 0.122 -0.181 0.133 -0.121 Q 0.151 -0.025 0.221 -0.004 Q 0.23500000000000001 0 0.249 0 Z"/></g><g transform="translate(34.000004000000004,19.82963071851852) scale(0.7,0.7)"><path fill="rgb(0,0,0)" stroke="none" paint-order="stroke fill markers" d=" M 0.443 -0.25 L 0.443 -0.25 Q 0.443 -0.161 0.376 -0.10300000000000001 Q 0.321 -0.056 0.249 -0.056 Q 0.161 -0.056 0.10300000000000001 -0.124 Q 0.056 -0.179 0.056 -0.25 Q 0.056 -0.339 0.123 -0.397 Q 0.178 -0.444 0.25 -0.444 Q 0.338 -0.444 0.396 -0.376 Q 0.443 -0.321 0.443 -0.25 M 0.25 -0.096 L 0.25 -0.096 Q 0.325 -0.096 0.371 -0.156 Q 0.403 -0.198 0.403 -0.25 Q 0.403 -0.326 0.343 -0.372 Q 0.302 -0.404 0.25 -0.404 Q 0.17300000000000001 -0.404 0.126 -0.342 Q 0.096 -0.301 0.096 -0.25 Q 0.096 -0.17500000000000002 0.155 -0.129 Q 0.197 -0.096 0.25 -0.096 Z"/></g><g transform="translate(34.59067762240556,20.24252271851852)"><path fill="rgb(0,0,0)" stroke="none" paint-order="stroke fill markers" d=" M 0.661 -0.23 L 0.116 -0.23 Q 0.084 -0.23 0.083 -0.25 Q 0.083 -0.27 0.116 -0.27 L 0.661 -0.27 Q 0.6930000000000001 -0.27 0.6940000000000001 -0.25 Q 0.6940000000000001 -0.23 0.661 -0.23 Z"/></g><g transform="translate(35.59068151129444,20.24252271851852)"><path fill="rgb(0,0,0)" stroke="none" paint-order="stroke fill markers" d=" M 0.455 -0.5 L 0.455 -0.5 Q 0.455 -0.34700000000000003 0.377 -0.19 Q 0.307 -0.05 0.222 -0.005 Q 0.191 0.011 0.162 0.011 Q 0.08 0.011 0.052000000000000005 -0.101 Q 0.042 -0.14300000000000002 0.042 -0.194 Q 0.042 -0.35100000000000003 0.122 -0.509 Q 0.192 -0.646 0.277 -0.6900000000000001 Q 0.307 -0.705 0.335 -0.705 Q 0.422 -0.705 0.447 -0.578 Q 0.455 -0.54 0.455 -0.5 M 0.148 -0.363 L 0.148 -0.363 L 0.357 -0.363 Q 0.389 -0.495 0.389 -0.562 Q 0.389 -0.675 0.342 -0.682 Q 0.338 -0.683 0.334 -0.683 Q 0.28300000000000003 -0.683 0.225 -0.578 Q 0.187 -0.511 0.149 -0.368 Q 0.149 -0.365 0.148 -0.363 M 0.34800000000000003 -0.331 L 0.14 -0.331 Q 0.108 -0.21 0.108 -0.133 Q 0.108 -0.013000000000000001 0.162 -0.011 Q 0.218 -0.011 0.278 -0.128 Q 0.317 -0.202 0.34800000000000003 -0.331 Z"/></g></g><path fill="none" stroke="rgb(0,0,0)" paint-order="fill stroke markers" d=" M -5 587.6493762091438 L 1315 587.6493762091438" stroke-opacity="0.6980392156862745" stroke-linecap="round" stroke-linejoin="round" stroke-miterlimit="10" stroke-width="2.5"/><path fill="none" stroke="rgb(0,0,0)" paint-order="fill stroke markers" d=" M 276.5569875231087 709 L 496.5836533545154 -5" stroke-opacity="0.6980392156862745" stroke-linecap="round" stroke-linejoin="round" stroke-miterlimit="10" stroke-width="2.5"/><path fill="none" stroke="rgb(0,0,0)" paint-order="fill stroke markers" d=" M 267.7043874008547 -5 L 1133.8613542214246 709" stroke-opacity="0.6980392156862745" stroke-linecap="round" stroke-linejoin="round" stroke-miterlimit="10" stroke-width="2.5"/><path fill="none" stroke="rgb(0,0,0)" paint-order="fill stroke markers" d=" M 313.95246812431805 587.6493762091438 L 986.6503062879904 587.6493762091438" stroke-opacity="0.6980392156862745" stroke-linecap="round" stroke-linejoin="round" stroke-miterlimit="10" stroke-width="2.5"/><path fill="none" stroke="rgb(0,0,0)" paint-order="fill stroke markers" d=" M 372.29359566779107 398.32884586052717 L 586.1208527932456 257.4805491373067" stroke-opacity="0.6980392156862745" stroke-linecap="round" stroke-linejoin="round" stroke-miterlimit="10" stroke-width="2.5"/><path fill="none" stroke="rgb(0,0,0)" paint-order="fill stroke markers" d=" M 372.29359566779107 398.32884586052717 L 986.6503062879904 587.6493762091438" stroke-opacity="0.6980392156862745" stroke-linejoin="round" stroke-miterlimit="10" stroke-width="2.5" stroke-dasharray="10.5,8"/><path fill="rgb(21,101,192)" stroke="none" paint-order="stroke fill markers" d=" M 318.95246812431805 587.6493762091438 C 318.95246812431805 590.4107999582978 316.713891873472 592.6493762091438 313.95246812431805 592.6493762091438 C 311.1910443751641 592.6493762091438 308.95246812431805 590.4107999582978 308.95246812431805 587.6493762091438 C 308.95246812431805 584.8879524599898 311.1910443751641 582.6493762091438 313.95246812431805 582.6493762091438 C 316.713891873472 582.6493762091438 318.95246812431805 584.8879524599898 318.95246812431805 587.6493762091438 Z" fill-opacity="1"/><path fill="none" stroke="rgb(0,0,0)" paint-order="fill stroke markers" d=" M 318.95246812431805 587.6493762091438 C 318.95246812431805 590.4107999582978 316.713891873472 592.6493762091438 313.95246812431805 592.6493762091438 C 311.1910443751641 592.6493762091438 308.95246812431805 590.4107999582978 308.95246812431805 587.6493762091438 C 308.95246812431805 584.8879524599898 311.1910443751641 582.6493762091438 313.95246812431805 582.6493762091438 C 316.713891873472 582.6493762091438 318.95246812431805 584.8879524599898 318.95246812431805 587.6493762091438 Z" stroke-opacity="1" stroke-linecap="round" stroke-linejoin="round" stroke-miterlimit="10"/><text fill="rgb(21,101,192)" stroke="none" font-family="geogebra-sans-serif, sans-serif" font-size="24px" font-style="normal" font-weight="normal" text-decoration="normal" x="270" y="622" text-anchor="start" dominant-baseline="alphabetic" fill-opacity="1">A</text><text fill="none" stroke="rgb(255,255,255)" font-family="geogebra-sans-serif, sans-serif" font-size="24px" font-style="normal" font-weight="normal" text-decoration="normal" x="270" y="622" text-anchor="start" dominant-baseline="alphabetic" stroke-opacity="1" stroke-linejoin="bevel" stroke-miterlimit="10" stroke-width="3">A</text><text fill="rgb(21,101,192)" stroke="none" font-family="geogebra-sans-serif, sans-serif" font-size="24px" font-style="normal" font-weight="normal" text-decoration="normal" x="270" y="622" text-anchor="start" dominant-baseline="alphabetic" fill-opacity="1">A</text><path fill="rgb(21,101,192)" stroke="none" paint-order="stroke fill markers" d=" M 991.6503062879904 587.6493762091438 C 991.6503062879904 590.4107999582978 989.4117300371444 592.6493762091438 986.6503062879904 592.6493762091438 C 983.8888825388364 592.6493762091438 981.6503062879904 590.4107999582978 981.6503062879904 587.6493762091438 C 981.6503062879904 584.8879524599898 983.8888825388364 582.6493762091438 986.6503062879904 582.6493762091438 C 989.4117300371444 582.6493762091438 991.6503062879904 584.8879524599898 991.6503062879904 587.6493762091438 Z" fill-opacity="1"/><path fill="none" stroke="rgb(0,0,0)" paint-order="fill stroke markers" d=" M 991.6503062879904 587.6493762091438 C 991.6503062879904 590.4107999582978 989.4117300371444 592.6493762091438 986.6503062879904 592.6493762091438 C 983.8888825388364 592.6493762091438 981.6503062879904 590.4107999582978 981.6503062879904 587.6493762091438 C 981.6503062879904 584.8879524599898 983.8888825388364 582.6493762091438 986.6503062879904 582.6493762091438 C 989.4117300371444 582.6493762091438 991.6503062879904 584.8879524599898 991.6503062879904 587.6493762091438 Z" stroke-opacity="1" stroke-linecap="round" stroke-linejoin="round" stroke-miterlimit="10"/><text fill="rgb(21,101,192)" stroke="none" font-family="geogebra-sans-serif, sans-serif" font-size="24px" font-style="normal" font-weight="normal" text-decoration="normal" x="982" y="627" text-anchor="start" dominant-baseline="alphabetic" fill-opacity="1">B</text><text fill="none" stroke="rgb(255,255,255)" font-family="geogebra-sans-serif, sans-serif" font-size="24px" font-style="normal" font-weight="normal" text-decoration="normal" x="982" y="627" text-anchor="start" dominant-baseline="alphabetic" stroke-opacity="1" stroke-linejoin="bevel" stroke-miterlimit="10" stroke-width="3">B</text><text fill="rgb(21,101,192)" stroke="none" font-family="geogebra-sans-serif, sans-serif" font-size="24px" font-style="normal" font-weight="normal" text-decoration="normal" x="982" y="627" text-anchor="start" dominant-baseline="alphabetic" fill-opacity="1">B</text><path fill="rgb(211,47,47)" stroke="none" paint-order="stroke fill markers" d=" M 655.3013872061542 587.6493762091438 C 655.3013872061542 590.4107999582978 653.0628109553082 592.6493762091438 650.3013872061542 592.6493762091438 C 647.5399634570002 592.6493762091438 645.3013872061542 590.4107999582978 645.3013872061542 587.6493762091438 C 645.3013872061542 584.8879524599898 647.5399634570002 582.6493762091438 650.3013872061542 582.6493762091438 C 653.0628109553082 582.6493762091438 655.3013872061542 584.8879524599898 655.3013872061542 587.6493762091438 Z" fill-opacity="1"/><path fill="none" stroke="rgb(0,0,0)" paint-order="fill stroke markers" d=" M 655.3013872061542 587.6493762091438 C 655.3013872061542 590.4107999582978 653.0628109553082 592.6493762091438 650.3013872061542 592.6493762091438 C 647.5399634570002 592.6493762091438 645.3013872061542 590.4107999582978 645.3013872061542 587.6493762091438 C 645.3013872061542 584.8879524599898 647.5399634570002 582.6493762091438 650.3013872061542 582.6493762091438 C 653.0628109553082 582.6493762091438 655.3013872061542 584.8879524599898 655.3013872061542 587.6493762091438 Z" stroke-opacity="1" stroke-linecap="round" stroke-linejoin="round" stroke-miterlimit="10"/><text fill="rgb(211,47,47)" stroke="none" font-family="geogebra-sans-serif, sans-serif" font-size="24px" font-style="normal" font-weight="normal" text-decoration="normal" x="645" y="639" text-anchor="start" dominant-baseline="alphabetic" fill-opacity="1">O</text><text fill="none" stroke="rgb(255,255,255)" font-family="geogebra-sans-serif, sans-serif" font-size="24px" font-style="normal" font-weight="normal" text-decoration="normal" x="645" y="639" text-anchor="start" dominant-baseline="alphabetic" stroke-opacity="1" stroke-linejoin="bevel" stroke-miterlimit="10" stroke-width="3">O</text><text fill="rgb(211,47,47)" stroke="none" font-family="geogebra-sans-serif, sans-serif" font-size="24px" font-style="normal" font-weight="normal" text-decoration="normal" x="645" y="639" text-anchor="start" dominant-baseline="alphabetic" fill-opacity="1">O</text><path fill="rgb(21,101,192)" stroke="none" paint-order="stroke fill markers" d=" M 377.29359566779107 398.32884586052717 C 377.29359566779107 401.0902696096811 375.055019416945 403.32884586052717 372.29359566779107 403.32884586052717 C 369.5321719186371 403.32884586052717 367.29359566779107 401.0902696096811 367.29359566779107 398.32884586052717 C 367.29359566779107 395.5674221113732 369.5321719186371 393.32884586052717 372.29359566779107 393.32884586052717 C 375.055019416945 393.32884586052717 377.29359566779107 395.5674221113732 377.29359566779107 398.32884586052717 Z" fill-opacity="1"/><path fill="none" stroke="rgb(0,0,0)" paint-order="fill stroke markers" d=" M 377.29359566779107 398.32884586052717 C 377.29359566779107 401.0902696096811 375.055019416945 403.32884586052717 372.29359566779107 403.32884586052717 C 369.5321719186371 403.32884586052717 367.29359566779107 401.0902696096811 367.29359566779107 398.32884586052717 C 367.29359566779107 395.5674221113732 369.5321719186371 393.32884586052717 372.29359566779107 393.32884586052717 C 375.055019416945 393.32884586052717 377.29359566779107 395.5674221113732 377.29359566779107 398.32884586052717 Z" stroke-opacity="1" stroke-linecap="round" stroke-linejoin="round" stroke-miterlimit="10"/><text fill="rgb(21,101,192)" stroke="none" font-family="geogebra-sans-serif, sans-serif" font-size="24px" font-style="normal" font-weight="normal" text-decoration="normal" x="318" y="395" text-anchor="start" dominant-baseline="alphabetic" fill-opacity="1">C</text><text fill="none" stroke="rgb(255,255,255)" font-family="geogebra-sans-serif, sans-serif" font-size="24px" font-style="normal" font-weight="normal" text-decoration="normal" x="318" y="395" text-anchor="start" dominant-baseline="alphabetic" stroke-opacity="1" stroke-linejoin="bevel" stroke-miterlimit="10" stroke-width="3">C</text><text fill="rgb(21,101,192)" stroke="none" font-family="geogebra-sans-serif, sans-serif" font-size="24px" font-style="normal" font-weight="normal" text-decoration="normal" x="318" y="395" text-anchor="start" dominant-baseline="alphabetic" fill-opacity="1">C</text><path fill="rgb(21,101,192)" stroke="none" paint-order="stroke fill markers" d=" M 591.1208527932456 257.4805491373067 C 591.1208527932456 260.24197288646064 588.8822765423996 262.4805491373067 586.1208527932456 262.4805491373067 C 583.3594290440916 262.4805491373067 581.1208527932456 260.24197288646064 581.1208527932456 257.4805491373067 C 581.1208527932456 254.71912538815272 583.3594290440916 252.4805491373067 586.1208527932456 252.4805491373067 C 588.8822765423996 252.4805491373067 591.1208527932456 254.71912538815272 591.1208527932456 257.4805491373067 Z" fill-opacity="1"/><path fill="none" stroke="rgb(0,0,0)" paint-order="fill stroke markers" d=" M 591.1208527932456 257.4805491373067 C 591.1208527932456 260.24197288646064 588.8822765423996 262.4805491373067 586.1208527932456 262.4805491373067 C 583.3594290440916 262.4805491373067 581.1208527932456 260.24197288646064 581.1208527932456 257.4805491373067 C 581.1208527932456 254.71912538815272 583.3594290440916 252.4805491373067 586.1208527932456 252.4805491373067 C 588.8822765423996 252.4805491373067 591.1208527932456 254.71912538815272 591.1208527932456 257.4805491373067 Z" stroke-opacity="1" stroke-linecap="round" stroke-linejoin="round" stroke-miterlimit="10"/><text fill="rgb(21,101,192)" stroke="none" font-family="geogebra-sans-serif, sans-serif" font-size="24px" font-style="normal" font-weight="normal" text-decoration="normal" x="614" y="235" text-anchor="start" dominant-baseline="alphabetic" fill-opacity="1">D</text><text fill="none" stroke="rgb(255,255,255)" font-family="geogebra-sans-serif, sans-serif" font-size="24px" font-style="normal" font-weight="normal" text-decoration="normal" x="614" y="235" text-anchor="start" dominant-baseline="alphabetic" stroke-opacity="1" stroke-linejoin="bevel" stroke-miterlimit="10" stroke-width="3">D</text><text fill="rgb(21,101,192)" stroke="none" font-family="geogebra-sans-serif, sans-serif" font-size="24px" font-style="normal" font-weight="normal" text-decoration="normal" x="614" y="235" text-anchor="start" dominant-baseline="alphabetic" fill-opacity="1">D</text><path fill="rgb(46,125,50)" stroke="none" paint-order="stroke fill markers" d=" M 455.21990761958085 145.45319316027195 C 455.21990761958085 148.21461690942593 452.9813313687348 150.45319316027195 450.21990761958085 150.45319316027195 C 447.4584838704269 150.45319316027195 445.21990761958085 148.21461690942593 445.21990761958085 145.45319316027195 C 445.21990761958085 142.69176941111797 447.4584838704269 140.45319316027195 450.21990761958085 140.45319316027195 C 452.9813313687348 140.45319316027195 455.21990761958085 142.69176941111797 455.21990761958085 145.45319316027195 Z" fill-opacity="1"/><path fill="none" stroke="rgb(0,0,0)" paint-order="fill stroke markers" d=" M 455.21990761958085 145.45319316027195 C 455.21990761958085 148.21461690942593 452.9813313687348 150.45319316027195 450.21990761958085 150.45319316027195 C 447.4584838704269 150.45319316027195 445.21990761958085 148.21461690942593 445.21990761958085 145.45319316027195 C 445.21990761958085 142.69176941111797 447.4584838704269 140.45319316027195 450.21990761958085 140.45319316027195 C 452.9813313687348 140.45319316027195 455.21990761958085 142.69176941111797 455.21990761958085 145.45319316027195 Z" stroke-opacity="1" stroke-linecap="round" stroke-linejoin="round" stroke-miterlimit="10"/><text fill="rgb(46,125,50)" stroke="none" font-family="geogebra-sans-serif, sans-serif" font-size="24px" font-style="normal" font-weight="normal" text-decoration="normal" x="427" y="117" text-anchor="start" dominant-baseline="alphabetic" fill-opacity="1">P</text><text fill="none" stroke="rgb(255,255,255)" font-family="geogebra-sans-serif, sans-serif" font-size="24px" font-style="normal" font-weight="normal" text-decoration="normal" x="427" y="117" text-anchor="start" dominant-baseline="alphabetic" stroke-opacity="1" stroke-linejoin="bevel" stroke-miterlimit="10" stroke-width="3">P</text><text fill="rgb(46,125,50)" stroke="none" font-family="geogebra-sans-serif, sans-serif" font-size="24px" font-style="normal" font-weight="normal" text-decoration="normal" x="427" y="117" text-anchor="start" dominant-baseline="alphabetic" fill-opacity="1">P</text></g></g></svg>