<svg version="1.1" xmlns="http://www.w3.org/2000/svg" xmlns:xlink="http://www.w3.org/1999/xlink" width="1310" height="704"><defs><clipPath id="wnfdPWEBRFQF"><path fill="none" stroke="none" d=" M 0 0 L 1310 0 L 1310 704 L 0 704 L 0 0 Z"/></clipPath></defs><g transform="scale(1,1)" clip-path="url(#wnfdPWEBRFQF)"><g><rect fill="rgb(255,255,255)" stroke="none" x="0" y="0" width="1310" height="704" fill-opacity="1"/><path fill="none" stroke="rgb(0,0,0)" paint-order="fill stroke markers" d=" M 935.6784000000016 338.49485000000004 C 935.6784000000016 500.2148704454529 804.5784204454544 631.31485 642.8584000000013 631.31485 C 481.13837955454824 631.31485 350.03840000000105 500.2148704454529 350.03840000000105 338.49485000000004 C 350.03840000000105 176.77482955454715 481.13837955454824 45.67485000000005 642.8584000000013 45.67485000000005 C 804.5784204454544 45.67485000000005 935.6784000000016 176.77482955454715 935.6784000000016 338.49485000000004 Z" stroke-opacity="0.6980392156862745" stroke-linecap="round" stroke-linejoin="round" stroke-miterlimit="10" stroke-width="2.5"/><path fill="none" stroke="rgb(0,0,0)" paint-order="fill stroke markers" d=" M 643.2520833433459 709 L 642.4934166766395 -5" stroke-opacity="0.6980392156862745" stroke-linejoin="round" stroke-miterlimit="10" stroke-dasharray="1,3"/><path fill="rgb(211,47,47)" stroke="none" paint-order="stroke fill markers" d=" M 647.8584000000013 338.49485000000004 C 647.8584000000013 341.256273749154 645.6198237491553 343.49485000000004 642.8584000000013 343.49485000000004 C 640.0969762508473 343.49485000000004 637.8584000000013 341.256273749154 637.8584000000013 338.49485000000004 C 637.8584000000013 335.7334262508461 640.0969762508473 333.49485000000004 642.8584000000013 333.49485000000004 C 645.6198237491553 333.49485000000004 647.8584000000013 335.7334262508461 647.8584000000013 338.49485000000004 Z" fill-opacity="1"/><path fill="none" stroke="rgb(0,0,0)" paint-order="fill stroke markers" d=" M 647.8584000000013 338.49485000000004 C 647.8584000000013 341.256273749154 645.6198237491553 343.49485000000004 642.8584000000013 343.49485000000004 C 640.0969762508473 343.49485000000004 637.8584000000013 341.256273749154 637.8584000000013 338.49485000000004 C 637.8584000000013 335.7334262508461 640.0969762508473 333.49485000000004 642.8584000000013 333.49485000000004 C 645.6198237491553 333.49485000000004 647.8584000000013 335.7334262508461 647.8584000000013 338.49485000000004 Z" stroke-opacity="1" stroke-linecap="round" stroke-linejoin="round" stroke-miterlimit="10"/></g></g></svg>