<svg version="1.1" xmlns="http://www.w3.org/2000/svg" xmlns:xlink="http://www.w3.org/1999/xlink" width="1310" height="704"><defs><clipPath id="FHJatrGbLqfT"><path fill="none" stroke="none" d=" M 0 0 L 1310 0 L 1310 704 L 0 704 L 0 0 Z"/></clipPath></defs><g transform="scale(1,1)" clip-path="url(#FHJatrGbLqfT)"><g><rect fill="rgb(255,255,255)" stroke="none" x="0" y="0" width="1310" height="704" fill-opacity="1"/><path fill="none" stroke="rgb(0,0,0)" paint-order="fill stroke markers" d=" M 935.6784000000013 338.49485000000004 C 935.6784000000013 500.2148704454529 804.5784204454541 631.31485 642.8584000000011 631.31485 C 481.1383795545481 631.31485 350.03840000000093 500.2148704454529 350.03840000000093 338.49485000000004 C 350.03840000000093 176.77482955454715 481.1383795545481 45.67485000000005 642.8584000000011 45.67485000000005 C 804.5784204454541 45.67485000000005 935.6784000000013 176.77482955454715 935.6784000000013 338.49485000000004 Z" stroke-opacity="0.6980392156862745" stroke-linecap="round" stroke-linejoin="round" stroke-miterlimit="10" stroke-width="2.5"/><path fill="none" stroke="rgb(0,0,0)" paint-order="fill stroke markers" d=" M -5 543.4688305390458 L 1315 542.06625350816" stroke-opacity="0.6980392156862745" stroke-linecap="round" stroke-linejoin="round" stroke-miterlimit="10" stroke-width="2.5"/><path fill="none" stroke="rgb(0,0,0)" paint-order="fill stroke markers" d=" M -5 134.89764417475183 L 1315 133.495067143866" stroke-opacity="0.6980392156862745" stroke-linecap="round" stroke-linejoin="round" stroke-miterlimit="10" stroke-width="2.5"/><path fill="none" stroke="rgb(219,97,20)" paint-order="fill stroke markers" d=" M 432.85347477966263 134.4323993061007 L 433.0705398987851 338.7177618438914" stroke-opacity="0.6980392156862745" stroke-linecap="round" stroke-linejoin="round" stroke-miterlimit="10" stroke-width="5"/><path fill="none" stroke="rgb(219,97,20)" paint-order="fill stroke markers" d=" M 433.0705398987851 338.7177618438914 L 433.2876050179076 543.0031243816821" stroke-opacity="0.6980392156862745" stroke-linecap="round" stroke-linejoin="round" stroke-miterlimit="10" stroke-width="5"/><path fill="none" stroke="rgb(0,0,0)" paint-order="fill stroke markers" d=" M 433.2876050179076 543.0031243816821 L 918.1963974082344 438.1569771257232" stroke-opacity="0.6980392156862745" stroke-linecap="round" stroke-linejoin="round" stroke-miterlimit="10" stroke-width="2.5"/><path fill="none" stroke="rgb(0,0,0)" paint-order="fill stroke markers" d=" M 432.85347477966263 134.4323993061007 L 918.1963974082344 438.1569771257232" stroke-opacity="0.6980392156862745" stroke-linecap="round" stroke-linejoin="round" stroke-miterlimit="10" stroke-width="2.5"/><path fill="rgb(211,47,47)" stroke="none" paint-order="stroke fill markers" d=" M 647.8584000000011 338.49485000000004 C 647.8584000000011 341.256273749154 645.6198237491551 343.49485000000004 642.8584000000011 343.49485000000004 C 640.0969762508471 343.49485000000004 637.8584000000011 341.256273749154 637.8584000000011 338.49485000000004 C 637.8584000000011 335.7334262508461 640.0969762508471 333.49485000000004 642.8584000000011 333.49485000000004 C 645.6198237491551 333.49485000000004 647.8584000000011 335.7334262508461 647.8584000000011 338.49485000000004 Z" fill-opacity="1"/><path fill="none" stroke="rgb(0,0,0)" paint-order="fill stroke markers" d=" M 647.8584000000011 338.49485000000004 C 647.8584000000011 341.256273749154 645.6198237491551 343.49485000000004 642.8584000000011 343.49485000000004 C 640.0969762508471 343.49485000000004 637.8584000000011 341.256273749154 637.8584000000011 338.49485000000004 C 637.8584000000011 335.7334262508461 640.0969762508471 333.49485000000004 642.8584000000011 333.49485000000004 C 645.6198237491551 333.49485000000004 647.8584000000011 335.7334262508461 647.8584000000011 338.49485000000004 Z" stroke-opacity="1" stroke-linecap="round" stroke-linejoin="round" stroke-miterlimit="10"/><path fill="rgb(21,101,192)" stroke="none" paint-order="stroke fill markers" d=" M 437.85347477966263 134.4323993061007 C 437.85347477966263 137.19382305525468 435.6148985288166 139.4323993061007 432.85347477966263 139.4323993061007 C 430.0920510305087 139.4323993061007 427.85347477966263 137.19382305525468 427.85347477966263 134.4323993061007 C 427.85347477966263 131.67097555694673 430.0920510305087 129.4323993061007 432.85347477966263 129.4323993061007 C 435.6148985288166 129.4323993061007 437.85347477966263 131.67097555694673 437.85347477966263 134.4323993061007 Z" fill-opacity="1"/><path fill="none" stroke="rgb(0,0,0)" paint-order="fill stroke markers" d=" M 437.85347477966263 134.4323993061007 C 437.85347477966263 137.19382305525468 435.6148985288166 139.4323993061007 432.85347477966263 139.4323993061007 C 430.0920510305087 139.4323993061007 427.85347477966263 137.19382305525468 427.85347477966263 134.4323993061007 C 427.85347477966263 131.67097555694673 430.0920510305087 129.4323993061007 432.85347477966263 129.4323993061007 C 435.6148985288166 129.4323993061007 437.85347477966263 131.67097555694673 437.85347477966263 134.4323993061007 Z" stroke-opacity="1" stroke-linecap="round" stroke-linejoin="round" stroke-miterlimit="10"/><text fill="rgb(21,101,192)" stroke="none" font-family="geogebra-sans-serif, sans-serif" font-size="24px" font-style="normal" font-weight="normal" text-decoration="normal" x="406" y="119" text-anchor="start" dominant-baseline="alphabetic" fill-opacity="1">C</text><text fill="none" stroke="rgb(255,255,255)" font-family="geogebra-sans-serif, sans-serif" font-size="24px" font-style="normal" font-weight="normal" text-decoration="normal" x="406" y="119" text-anchor="start" dominant-baseline="alphabetic" stroke-opacity="1" stroke-linejoin="bevel" stroke-miterlimit="10" stroke-width="3">C</text><text fill="rgb(21,101,192)" stroke="none" font-family="geogebra-sans-serif, sans-serif" font-size="24px" font-style="normal" font-weight="normal" text-decoration="normal" x="406" y="119" text-anchor="start" dominant-baseline="alphabetic" fill-opacity="1">C</text><path fill="rgb(21,101,192)" stroke="none" paint-order="stroke fill markers" d=" M 438.2876050179076 543.0031243816821 C 438.2876050179076 545.7645481308361 436.04902876706154 548.0031243816821 433.2876050179076 548.0031243816821 C 430.52618126875365 548.0031243816821 428.2876050179076 545.7645481308361 428.2876050179076 543.0031243816821 C 428.2876050179076 540.2417006325281 430.52618126875365 538.0031243816821 433.2876050179076 538.0031243816821 C 436.04902876706154 538.0031243816821 438.2876050179076 540.2417006325281 438.2876050179076 543.0031243816821 Z" fill-opacity="1"/><path fill="none" stroke="rgb(0,0,0)" paint-order="fill stroke markers" d=" M 438.2876050179076 543.0031243816821 C 438.2876050179076 545.7645481308361 436.04902876706154 548.0031243816821 433.2876050179076 548.0031243816821 C 430.52618126875365 548.0031243816821 428.2876050179076 545.7645481308361 428.2876050179076 543.0031243816821 C 428.2876050179076 540.2417006325281 430.52618126875365 538.0031243816821 433.2876050179076 538.0031243816821 C 436.04902876706154 538.0031243816821 438.2876050179076 540.2417006325281 438.2876050179076 543.0031243816821 Z" stroke-opacity="1" stroke-linecap="round" stroke-linejoin="round" stroke-miterlimit="10"/><text fill="rgb(21,101,192)" stroke="none" font-family="geogebra-sans-serif, sans-serif" font-size="24px" font-style="normal" font-weight="normal" text-decoration="normal" x="420" y="574" text-anchor="start" dominant-baseline="alphabetic" fill-opacity="1">B</text><text fill="none" stroke="rgb(255,255,255)" font-family="geogebra-sans-serif, sans-serif" font-size="24px" font-style="normal" font-weight="normal" text-decoration="normal" x="420" y="574" text-anchor="start" dominant-baseline="alphabetic" stroke-opacity="1" stroke-linejoin="bevel" stroke-miterlimit="10" stroke-width="3">B</text><text fill="rgb(21,101,192)" stroke="none" font-family="geogebra-sans-serif, sans-serif" font-size="24px" font-style="normal" font-weight="normal" text-decoration="normal" x="420" y="574" text-anchor="start" dominant-baseline="alphabetic" fill-opacity="1">B</text><path fill="rgb(46,125,50)" stroke="none" paint-order="stroke fill markers" d=" M 438.0705398987851 338.7177618438914 C 438.0705398987851 341.4791855930454 435.83196364793906 343.7177618438914 433.0705398987851 343.7177618438914 C 430.30911614963117 343.7177618438914 428.0705398987851 341.4791855930454 428.0705398987851 338.7177618438914 C 428.0705398987851 335.9563380947375 430.30911614963117 333.7177618438914 433.0705398987851 333.7177618438914 C 435.83196364793906 333.7177618438914 438.0705398987851 335.9563380947375 438.0705398987851 338.7177618438914 Z" fill-opacity="1"/><path fill="none" stroke="rgb(0,0,0)" paint-order="fill stroke markers" d=" M 438.0705398987851 338.7177618438914 C 438.0705398987851 341.4791855930454 435.83196364793906 343.7177618438914 433.0705398987851 343.7177618438914 C 430.30911614963117 343.7177618438914 428.0705398987851 341.4791855930454 428.0705398987851 338.7177618438914 C 428.0705398987851 335.9563380947375 430.30911614963117 333.7177618438914 433.0705398987851 333.7177618438914 C 435.83196364793906 333.7177618438914 438.0705398987851 335.9563380947375 438.0705398987851 338.7177618438914 Z" stroke-opacity="1" stroke-linecap="round" stroke-linejoin="round" stroke-miterlimit="10"/><text fill="rgb(46,125,50)" stroke="none" font-family="geogebra-sans-serif, sans-serif" font-size="24px" font-style="normal" font-weight="normal" text-decoration="normal" x="402" y="350" text-anchor="start" dominant-baseline="alphabetic" fill-opacity="1">D</text><text fill="none" stroke="rgb(255,255,255)" font-family="geogebra-sans-serif, sans-serif" font-size="24px" font-style="normal" font-weight="normal" text-decoration="normal" x="402" y="350" text-anchor="start" dominant-baseline="alphabetic" stroke-opacity="1" stroke-linejoin="bevel" stroke-miterlimit="10" stroke-width="3">D</text><text fill="rgb(46,125,50)" stroke="none" font-family="geogebra-sans-serif, sans-serif" font-size="24px" font-style="normal" font-weight="normal" text-decoration="normal" x="402" y="350" text-anchor="start" dominant-baseline="alphabetic" fill-opacity="1">D</text><path fill="rgb(21,101,192)" stroke="none" paint-order="stroke fill markers" d=" M 923.1963974082344 438.1569771257232 C 923.1963974082344 440.91840087487714 920.9578211573884 443.1569771257232 918.1963974082344 443.1569771257232 C 915.4349736590804 443.1569771257232 913.1963974082344 440.91840087487714 913.1963974082344 438.1569771257232 C 913.1963974082344 435.39555337656924 915.4349736590804 433.1569771257232 918.1963974082344 433.1569771257232 C 920.9578211573884 433.1569771257232 923.1963974082344 435.39555337656924 923.1963974082344 438.1569771257232 Z" fill-opacity="1"/><path fill="none" stroke="rgb(0,0,0)" paint-order="fill stroke markers" d=" M 923.1963974082344 438.1569771257232 C 923.1963974082344 440.91840087487714 920.9578211573884 443.1569771257232 918.1963974082344 443.1569771257232 C 915.4349736590804 443.1569771257232 913.1963974082344 440.91840087487714 913.1963974082344 438.1569771257232 C 913.1963974082344 435.39555337656924 915.4349736590804 433.1569771257232 918.1963974082344 433.1569771257232 C 920.9578211573884 433.1569771257232 923.1963974082344 435.39555337656924 923.1963974082344 438.1569771257232 Z" stroke-opacity="1" stroke-linecap="round" stroke-linejoin="round" stroke-miterlimit="10"/><text fill="rgb(21,101,192)" stroke="none" font-family="geogebra-sans-serif, sans-serif" font-size="24px" font-style="normal" font-weight="normal" text-decoration="normal" x="933" y="437" text-anchor="start" dominant-baseline="alphabetic" fill-opacity="1">A</text><text fill="none" stroke="rgb(255,255,255)" font-family="geogebra-sans-serif, sans-serif" font-size="24px" font-style="normal" font-weight="normal" text-decoration="normal" x="933" y="437" text-anchor="start" dominant-baseline="alphabetic" stroke-opacity="1" stroke-linejoin="bevel" stroke-miterlimit="10" stroke-width="3">A</text><text fill="rgb(21,101,192)" stroke="none" font-family="geogebra-sans-serif, sans-serif" font-size="24px" font-style="normal" font-weight="normal" text-decoration="normal" x="933" y="437" text-anchor="start" dominant-baseline="alphabetic" fill-opacity="1">A</text></g></g></svg>