<svg version="1.1" xmlns="http://www.w3.org/2000/svg" xmlns:xlink="http://www.w3.org/1999/xlink" width="1310" height="704"><defs><clipPath id="rfKqJTSxqOap"><path fill="none" stroke="none" d=" M 0 0 L 1310 0 L 1310 704 L 0 704 L 0 0 Z"/></clipPath></defs><g transform="scale(1,1)" clip-path="url(#rfKqJTSxqOap)"><g><rect fill="rgb(255,255,255)" stroke="none" x="0" y="0" width="1310" height="704" fill-opacity="1"/><path fill="none" stroke="rgb(0,0,0)" paint-order="fill stroke markers" d=" M 935.6784000000013 338.49485000000004 C 935.6784000000013 500.2148704454529 804.5784204454541 631.31485 642.8584000000011 631.31485 C 481.1383795545481 631.31485 350.03840000000093 500.2148704454529 350.03840000000093 338.49485000000004 C 350.03840000000093 176.77482955454715 481.1383795545481 45.67485000000005 642.8584000000011 45.67485000000005 C 804.5784204454541 45.67485000000005 935.6784000000013 176.77482955454715 935.6784000000013 338.49485000000004 Z" stroke-opacity="0.6980392156862745" stroke-linecap="round" stroke-linejoin="round" stroke-miterlimit="10" stroke-width="2.5"/><path fill="rgb(0,0,0)" stroke="none" paint-order="stroke fill markers" fill-rule="evenodd" d=" M 433.2876050179076 543.0031243816821 L 454.50079647833843 542.9805841278229 L 454.4782562244806 521.7673926673907 L 433.26506476404836 521.7899329212513 L 433.2876050179076 543.0031243816821" fill-opacity="0.09803921568627451"/><path fill="none" stroke="rgb(0,0,0)" paint-order="fill stroke markers" d=" M 433.2876050179076 543.0031243816821 L 454.50079647833843 542.9805841278229 L 454.4782562244806 521.7673926673907 L 433.26506476404836 521.7899329212513 L 433.2876050179076 543.0031243816821" stroke-opacity="0.6" stroke-linecap="round" stroke-linejoin="round" stroke-miterlimit="10" stroke-width="2.5"/><path fill="rgb(0,0,0)" stroke="none" paint-order="stroke fill markers" fill-rule="evenodd" d=" M 766.7096863370818 318.3348622610617 L 748.1289605604551 308.09979364313153 L 737.893891942523 326.6805194197588 L 756.4746177191518 336.9155880376884 L 766.7096863370818 318.3348622610617" fill-opacity="0.09803921568627451"/><path fill="none" stroke="rgb(0,0,0)" paint-order="fill stroke markers" d=" M 766.7096863370818 318.3348622610617 L 748.1289605604551 308.09979364313153 L 737.893891942523 326.6805194197588 L 756.4746177191518 336.9155880376884 L 766.7096863370818 318.3348622610617" stroke-opacity="0.6" stroke-linecap="round" stroke-linejoin="round" stroke-miterlimit="10" stroke-width="2.5"/><path fill="rgb(0,0,0)" stroke="none" paint-order="stroke fill markers" fill-rule="evenodd" d=" M 927.5662988411173 406.94165224434806 L 908.9855730644905 396.7065836264179 L 898.7505044465585 415.2873094030452 L 917.3312302231872 425.52237802097477 L 927.5662988411173 406.94165224434806" fill-opacity="0.09803921568627451"/><path fill="none" stroke="rgb(0,0,0)" paint-order="fill stroke markers" d=" M 927.5662988411173 406.94165224434806 L 908.9855730644905 396.7065836264179 L 898.7505044465585 415.2873094030452 L 917.3312302231872 425.52237802097477 L 927.5662988411173 406.94165224434806" stroke-opacity="0.6" stroke-linecap="round" stroke-linejoin="round" stroke-miterlimit="10" stroke-width="2.5"/><path fill="none" stroke="rgb(0,0,0)" paint-order="fill stroke markers" d=" M -5 543.4688305390458 L 1315 542.06625350816" stroke-opacity="0.6980392156862745" stroke-linecap="round" stroke-linejoin="round" stroke-miterlimit="10" stroke-width="2.5"/><path fill="none" stroke="rgb(0,0,0)" paint-order="fill stroke markers" d=" M -5 134.89764417475183 L 1315 133.495067143866" stroke-opacity="0.6980392156862745" stroke-linejoin="round" stroke-miterlimit="10" stroke-dasharray="1,3"/><path fill="none" stroke="rgb(0,0,0)" paint-order="fill stroke markers" d=" M 551.5144060525527 709 L 944.8165343469641 -5" stroke-opacity="0.6980392156862745" stroke-linecap="round" stroke-linejoin="round" stroke-miterlimit="10" stroke-width="2.5"/><path fill="none" stroke="rgb(219,97,20)" paint-order="fill stroke markers" d=" M 432.85347477966263 134.4323993061007 L 433.0705398987851 338.7177618438914" stroke-opacity="0.6980392156862745" stroke-linecap="round" stroke-linejoin="round" stroke-miterlimit="10" stroke-width="5"/><path fill="none" stroke="rgb(219,97,20)" paint-order="fill stroke markers" d=" M 433.0705398987851 338.7177618438914 L 433.2876050179076 543.0031243816821" stroke-opacity="0.6980392156862745" stroke-linecap="round" stroke-linejoin="round" stroke-miterlimit="10" stroke-width="5"/><path fill="none" stroke="rgb(0,0,0)" paint-order="fill stroke markers" d=" M 432.85347477966263 134.4323993061007 L 927.5662988411173 406.94165224434806" stroke-opacity="0.6980392156862745" stroke-linecap="round" stroke-linejoin="round" stroke-miterlimit="10" stroke-width="2.5"/><path fill="none" stroke="rgb(101,87,210)" paint-order="fill stroke markers" d=" M 433.2876050179076 543.0031243816821 L 680.4269519295124 474.97238831301513" stroke-opacity="0.6980392156862745" stroke-linecap="round" stroke-linejoin="round" stroke-miterlimit="10" stroke-width="4.5"/><path fill="none" stroke="rgb(101,87,210)" paint-order="fill stroke markers" d=" M 680.4269519295124 474.97238831301513 L 927.5662988411173 406.94165224434806" stroke-opacity="0.6980392156862745" stroke-linecap="round" stroke-linejoin="round" stroke-miterlimit="10" stroke-width="4.5"/><path fill="none" stroke="rgb(0,0,0)" paint-order="fill stroke markers" d=" M 433.0705398987851 338.7177618438914 L 643.0754651191236 542.7802125377908" stroke-opacity="0.6980392156862745" stroke-linecap="round" stroke-linejoin="round" stroke-miterlimit="10" stroke-width="2.5"/><path fill="none" stroke="rgb(0,0,0)" paint-order="fill stroke markers" d=" M 432.85347477966263 134.4323993061007 L 852.8633252203396 542.5573006938994" stroke-opacity="0.6980392156862745" stroke-linejoin="round" stroke-miterlimit="10" stroke-width="2.5" stroke-dasharray="10.5,8"/><path fill="none" stroke="rgb(0,0,0)" paint-order="fill stroke markers" d=" M 927.5662988411173 406.94165224434806 L 852.8633252203396 542.5573006938994" stroke-opacity="0.6980392156862745" stroke-linejoin="round" stroke-miterlimit="10" stroke-width="2.5" stroke-dasharray="10.5,8"/><path fill="rgb(211,47,47)" stroke="none" paint-order="stroke fill markers" d=" M 647.8584000000011 338.49485000000004 C 647.8584000000011 341.256273749154 645.6198237491551 343.49485000000004 642.8584000000011 343.49485000000004 C 640.0969762508471 343.49485000000004 637.8584000000011 341.256273749154 637.8584000000011 338.49485000000004 C 637.8584000000011 335.7334262508461 640.0969762508471 333.49485000000004 642.8584000000011 333.49485000000004 C 645.6198237491551 333.49485000000004 647.8584000000011 335.7334262508461 647.8584000000011 338.49485000000004 Z" fill-opacity="1"/><path fill="none" stroke="rgb(0,0,0)" paint-order="fill stroke markers" d=" M 647.8584000000011 338.49485000000004 C 647.8584000000011 341.256273749154 645.6198237491551 343.49485000000004 642.8584000000011 343.49485000000004 C 640.0969762508471 343.49485000000004 637.8584000000011 341.256273749154 637.8584000000011 338.49485000000004 C 637.8584000000011 335.7334262508461 640.0969762508471 333.49485000000004 642.8584000000011 333.49485000000004 C 645.6198237491551 333.49485000000004 647.8584000000011 335.7334262508461 647.8584000000011 338.49485000000004 Z" stroke-opacity="1" stroke-linecap="round" stroke-linejoin="round" stroke-miterlimit="10"/><path fill="rgb(21,101,192)" stroke="none" paint-order="stroke fill markers" d=" M 437.85347477966263 134.4323993061007 C 437.85347477966263 137.19382305525468 435.6148985288166 139.4323993061007 432.85347477966263 139.4323993061007 C 430.0920510305087 139.4323993061007 427.85347477966263 137.19382305525468 427.85347477966263 134.4323993061007 C 427.85347477966263 131.67097555694673 430.0920510305087 129.4323993061007 432.85347477966263 129.4323993061007 C 435.6148985288166 129.4323993061007 437.85347477966263 131.67097555694673 437.85347477966263 134.4323993061007 Z" fill-opacity="1"/><path fill="none" stroke="rgb(0,0,0)" paint-order="fill stroke markers" d=" M 437.85347477966263 134.4323993061007 C 437.85347477966263 137.19382305525468 435.6148985288166 139.4323993061007 432.85347477966263 139.4323993061007 C 430.0920510305087 139.4323993061007 427.85347477966263 137.19382305525468 427.85347477966263 134.4323993061007 C 427.85347477966263 131.67097555694673 430.0920510305087 129.4323993061007 432.85347477966263 129.4323993061007 C 435.6148985288166 129.4323993061007 437.85347477966263 131.67097555694673 437.85347477966263 134.4323993061007 Z" stroke-opacity="1" stroke-linecap="round" stroke-linejoin="round" stroke-miterlimit="10"/><text fill="rgb(21,101,192)" stroke="none" font-family="geogebra-sans-serif, sans-serif" font-size="24px" font-style="normal" font-weight="normal" text-decoration="normal" x="406" y="119" text-anchor="start" dominant-baseline="alphabetic" fill-opacity="1">C</text><text fill="none" stroke="rgb(255,255,255)" font-family="geogebra-sans-serif, sans-serif" font-size="24px" font-style="normal" font-weight="normal" text-decoration="normal" x="406" y="119" text-anchor="start" dominant-baseline="alphabetic" stroke-opacity="1" stroke-linejoin="bevel" stroke-miterlimit="10" stroke-width="3">C</text><text fill="rgb(21,101,192)" stroke="none" font-family="geogebra-sans-serif, sans-serif" font-size="24px" font-style="normal" font-weight="normal" text-decoration="normal" x="406" y="119" text-anchor="start" dominant-baseline="alphabetic" fill-opacity="1">C</text><path fill="rgb(21,101,192)" stroke="none" paint-order="stroke fill markers" d=" M 438.2876050179076 543.0031243816821 C 438.2876050179076 545.7645481308361 436.04902876706154 548.0031243816821 433.2876050179076 548.0031243816821 C 430.52618126875365 548.0031243816821 428.2876050179076 545.7645481308361 428.2876050179076 543.0031243816821 C 428.2876050179076 540.2417006325281 430.52618126875365 538.0031243816821 433.2876050179076 538.0031243816821 C 436.04902876706154 538.0031243816821 438.2876050179076 540.2417006325281 438.2876050179076 543.0031243816821 Z" fill-opacity="1"/><path fill="none" stroke="rgb(0,0,0)" paint-order="fill stroke markers" d=" M 438.2876050179076 543.0031243816821 C 438.2876050179076 545.7645481308361 436.04902876706154 548.0031243816821 433.2876050179076 548.0031243816821 C 430.52618126875365 548.0031243816821 428.2876050179076 545.7645481308361 428.2876050179076 543.0031243816821 C 428.2876050179076 540.2417006325281 430.52618126875365 538.0031243816821 433.2876050179076 538.0031243816821 C 436.04902876706154 538.0031243816821 438.2876050179076 540.2417006325281 438.2876050179076 543.0031243816821 Z" stroke-opacity="1" stroke-linecap="round" stroke-linejoin="round" stroke-miterlimit="10"/><text fill="rgb(21,101,192)" stroke="none" font-family="geogebra-sans-serif, sans-serif" font-size="24px" font-style="normal" font-weight="normal" text-decoration="normal" x="420" y="574" text-anchor="start" dominant-baseline="alphabetic" fill-opacity="1">B</text><text fill="none" stroke="rgb(255,255,255)" font-family="geogebra-sans-serif, sans-serif" font-size="24px" font-style="normal" font-weight="normal" text-decoration="normal" x="420" y="574" text-anchor="start" dominant-baseline="alphabetic" stroke-opacity="1" stroke-linejoin="bevel" stroke-miterlimit="10" stroke-width="3">B</text><text fill="rgb(21,101,192)" stroke="none" font-family="geogebra-sans-serif, sans-serif" font-size="24px" font-style="normal" font-weight="normal" text-decoration="normal" x="420" y="574" text-anchor="start" dominant-baseline="alphabetic" fill-opacity="1">B</text><path fill="rgb(46,125,50)" stroke="none" paint-order="stroke fill markers" d=" M 438.0705398987851 338.7177618438914 C 438.0705398987851 341.4791855930454 435.83196364793906 343.7177618438914 433.0705398987851 343.7177618438914 C 430.30911614963117 343.7177618438914 428.0705398987851 341.4791855930454 428.0705398987851 338.7177618438914 C 428.0705398987851 335.9563380947375 430.30911614963117 333.7177618438914 433.0705398987851 333.7177618438914 C 435.83196364793906 333.7177618438914 438.0705398987851 335.9563380947375 438.0705398987851 338.7177618438914 Z" fill-opacity="1"/><path fill="none" stroke="rgb(0,0,0)" paint-order="fill stroke markers" d=" M 438.0705398987851 338.7177618438914 C 438.0705398987851 341.4791855930454 435.83196364793906 343.7177618438914 433.0705398987851 343.7177618438914 C 430.30911614963117 343.7177618438914 428.0705398987851 341.4791855930454 428.0705398987851 338.7177618438914 C 428.0705398987851 335.9563380947375 430.30911614963117 333.7177618438914 433.0705398987851 333.7177618438914 C 435.83196364793906 333.7177618438914 438.0705398987851 335.9563380947375 438.0705398987851 338.7177618438914 Z" stroke-opacity="1" stroke-linecap="round" stroke-linejoin="round" stroke-miterlimit="10"/><text fill="rgb(46,125,50)" stroke="none" font-family="geogebra-sans-serif, sans-serif" font-size="24px" font-style="normal" font-weight="normal" text-decoration="normal" x="402" y="350" text-anchor="start" dominant-baseline="alphabetic" fill-opacity="1">D</text><text fill="none" stroke="rgb(255,255,255)" font-family="geogebra-sans-serif, sans-serif" font-size="24px" font-style="normal" font-weight="normal" text-decoration="normal" x="402" y="350" text-anchor="start" dominant-baseline="alphabetic" stroke-opacity="1" stroke-linejoin="bevel" stroke-miterlimit="10" stroke-width="3">D</text><text fill="rgb(46,125,50)" stroke="none" font-family="geogebra-sans-serif, sans-serif" font-size="24px" font-style="normal" font-weight="normal" text-decoration="normal" x="402" y="350" text-anchor="start" dominant-baseline="alphabetic" fill-opacity="1">D</text><path fill="rgb(21,101,192)" stroke="none" paint-order="stroke fill markers" d=" M 932.5662988411173 406.94165224434806 C 932.5662988411173 409.703075993502 930.3277225902713 411.94165224434806 927.5662988411173 411.94165224434806 C 924.8048750919633 411.94165224434806 922.5662988411173 409.703075993502 922.5662988411173 406.94165224434806 C 922.5662988411173 404.1802284951941 924.8048750919633 401.94165224434806 927.5662988411173 401.94165224434806 C 930.3277225902713 401.94165224434806 932.5662988411173 404.1802284951941 932.5662988411173 406.94165224434806 Z" fill-opacity="1"/><path fill="none" stroke="rgb(0,0,0)" paint-order="fill stroke markers" d=" M 932.5662988411173 406.94165224434806 C 932.5662988411173 409.703075993502 930.3277225902713 411.94165224434806 927.5662988411173 411.94165224434806 C 924.8048750919633 411.94165224434806 922.5662988411173 409.703075993502 922.5662988411173 406.94165224434806 C 922.5662988411173 404.1802284951941 924.8048750919633 401.94165224434806 927.5662988411173 401.94165224434806 C 930.3277225902713 401.94165224434806 932.5662988411173 404.1802284951941 932.5662988411173 406.94165224434806 Z" stroke-opacity="1" stroke-linecap="round" stroke-linejoin="round" stroke-miterlimit="10"/><text fill="rgb(21,101,192)" stroke="none" font-family="geogebra-sans-serif, sans-serif" font-size="24px" font-style="normal" font-weight="normal" text-decoration="normal" x="943" y="406" text-anchor="start" dominant-baseline="alphabetic" fill-opacity="1">A</text><text fill="none" stroke="rgb(255,255,255)" font-family="geogebra-sans-serif, sans-serif" font-size="24px" font-style="normal" font-weight="normal" text-decoration="normal" x="943" y="406" text-anchor="start" dominant-baseline="alphabetic" stroke-opacity="1" stroke-linejoin="bevel" stroke-miterlimit="10" stroke-width="3">A</text><text fill="rgb(21,101,192)" stroke="none" font-family="geogebra-sans-serif, sans-serif" font-size="24px" font-style="normal" font-weight="normal" text-decoration="normal" x="943" y="406" text-anchor="start" dominant-baseline="alphabetic" fill-opacity="1">A</text><path fill="rgb(46,125,50)" stroke="none" paint-order="stroke fill markers" d=" M 685.4269519295124 474.97238831301513 C 685.4269519295124 477.7338120621691 683.1883756786664 479.97238831301513 680.4269519295124 479.97238831301513 C 677.6655281803584 479.97238831301513 675.4269519295124 477.7338120621691 675.4269519295124 474.97238831301513 C 675.4269519295124 472.2109645638612 677.6655281803584 469.97238831301513 680.4269519295124 469.97238831301513 C 683.1883756786664 469.97238831301513 685.4269519295124 472.2109645638612 685.4269519295124 474.97238831301513 Z" fill-opacity="1"/><path fill="none" stroke="rgb(0,0,0)" paint-order="fill stroke markers" d=" M 685.4269519295124 474.97238831301513 C 685.4269519295124 477.7338120621691 683.1883756786664 479.97238831301513 680.4269519295124 479.97238831301513 C 677.6655281803584 479.97238831301513 675.4269519295124 477.7338120621691 675.4269519295124 474.97238831301513 C 675.4269519295124 472.2109645638612 677.6655281803584 469.97238831301513 680.4269519295124 469.97238831301513 C 683.1883756786664 469.97238831301513 685.4269519295124 472.2109645638612 685.4269519295124 474.97238831301513 Z" stroke-opacity="1" stroke-linecap="round" stroke-linejoin="round" stroke-miterlimit="10"/><text fill="rgb(46,125,50)" stroke="none" font-family="geogebra-sans-serif, sans-serif" font-size="24px" font-style="normal" font-weight="normal" text-decoration="normal" x="685" y="500" text-anchor="start" dominant-baseline="alphabetic" fill-opacity="1">F</text><text fill="none" stroke="rgb(255,255,255)" font-family="geogebra-sans-serif, sans-serif" font-size="24px" font-style="normal" font-weight="normal" text-decoration="normal" x="685" y="500" text-anchor="start" dominant-baseline="alphabetic" stroke-opacity="1" stroke-linejoin="bevel" stroke-miterlimit="10" stroke-width="3">F</text><text fill="rgb(46,125,50)" stroke="none" font-family="geogebra-sans-serif, sans-serif" font-size="24px" font-style="normal" font-weight="normal" text-decoration="normal" x="685" y="500" text-anchor="start" dominant-baseline="alphabetic" fill-opacity="1">F</text><path fill="rgb(46,125,50)" stroke="none" paint-order="stroke fill markers" d=" M 857.8633252203396 542.5573006938994 C 857.8633252203396 545.3187244430534 855.6247489694936 547.5573006938994 852.8633252203396 547.5573006938994 C 850.1019014711856 547.5573006938994 847.8633252203396 545.3187244430534 847.8633252203396 542.5573006938994 C 847.8633252203396 539.7958769447454 850.1019014711856 537.5573006938994 852.8633252203396 537.5573006938994 C 855.6247489694936 537.5573006938994 857.8633252203396 539.7958769447454 857.8633252203396 542.5573006938994 Z" fill-opacity="1"/><path fill="none" stroke="rgb(0,0,0)" paint-order="fill stroke markers" d=" M 857.8633252203396 542.5573006938994 C 857.8633252203396 545.3187244430534 855.6247489694936 547.5573006938994 852.8633252203396 547.5573006938994 C 850.1019014711856 547.5573006938994 847.8633252203396 545.3187244430534 847.8633252203396 542.5573006938994 C 847.8633252203396 539.7958769447454 850.1019014711856 537.5573006938994 852.8633252203396 537.5573006938994 C 855.6247489694936 537.5573006938994 857.8633252203396 539.7958769447454 857.8633252203396 542.5573006938994 Z" stroke-opacity="1" stroke-linecap="round" stroke-linejoin="round" stroke-miterlimit="10"/><text fill="rgb(46,125,50)" stroke="none" font-family="geogebra-sans-serif, sans-serif" font-size="24px" font-style="normal" font-weight="normal" text-decoration="normal" x="854" y="573" text-anchor="start" dominant-baseline="alphabetic" fill-opacity="1">G</text><text fill="none" stroke="rgb(255,255,255)" font-family="geogebra-sans-serif, sans-serif" font-size="24px" font-style="normal" font-weight="normal" text-decoration="normal" x="854" y="573" text-anchor="start" dominant-baseline="alphabetic" stroke-opacity="1" stroke-linejoin="bevel" stroke-miterlimit="10" stroke-width="3">G</text><text fill="rgb(46,125,50)" stroke="none" font-family="geogebra-sans-serif, sans-serif" font-size="24px" font-style="normal" font-weight="normal" text-decoration="normal" x="854" y="573" text-anchor="start" dominant-baseline="alphabetic" fill-opacity="1">G</text><path fill="rgb(46,125,50)" stroke="none" paint-order="stroke fill markers" d=" M 648.0754651191236 542.7802125377908 C 648.0754651191236 545.5416362869448 645.8368888682776 547.7802125377908 643.0754651191236 547.7802125377908 C 640.3140413699696 547.7802125377908 638.0754651191236 545.5416362869448 638.0754651191236 542.7802125377908 C 638.0754651191236 540.0187887886368 640.3140413699696 537.7802125377908 643.0754651191236 537.7802125377908 C 645.8368888682776 537.7802125377908 648.0754651191236 540.0187887886368 648.0754651191236 542.7802125377908 Z" fill-opacity="1"/><path fill="none" stroke="rgb(0,0,0)" paint-order="fill stroke markers" d=" M 648.0754651191236 542.7802125377908 C 648.0754651191236 545.5416362869448 645.8368888682776 547.7802125377908 643.0754651191236 547.7802125377908 C 640.3140413699696 547.7802125377908 638.0754651191236 545.5416362869448 638.0754651191236 542.7802125377908 C 638.0754651191236 540.0187887886368 640.3140413699696 537.7802125377908 643.0754651191236 537.7802125377908 C 645.8368888682776 537.7802125377908 648.0754651191236 540.0187887886368 648.0754651191236 542.7802125377908 Z" stroke-opacity="1" stroke-linecap="round" stroke-linejoin="round" stroke-miterlimit="10"/><text fill="rgb(46,125,50)" stroke="none" font-family="geogebra-sans-serif, sans-serif" font-size="24px" font-style="normal" font-weight="normal" text-decoration="normal" x="642" y="577" text-anchor="start" dominant-baseline="alphabetic" fill-opacity="1">N</text><text fill="none" stroke="rgb(255,255,255)" font-family="geogebra-sans-serif, sans-serif" font-size="24px" font-style="normal" font-weight="normal" text-decoration="normal" x="642" y="577" text-anchor="start" dominant-baseline="alphabetic" stroke-opacity="1" stroke-linejoin="bevel" stroke-miterlimit="10" stroke-width="3">N</text><text fill="rgb(46,125,50)" stroke="none" font-family="geogebra-sans-serif, sans-serif" font-size="24px" font-style="normal" font-weight="normal" text-decoration="normal" x="642" y="577" text-anchor="start" dominant-baseline="alphabetic" fill-opacity="1">N</text><path fill="rgb(46,125,50)" stroke="none" paint-order="stroke fill markers" d=" M 771.7096863370818 318.3348622610617 C 771.7096863370818 321.09628601021564 769.4711100862359 323.3348622610617 766.7096863370818 323.3348622610617 C 763.9482625879278 323.3348622610617 761.7096863370818 321.09628601021564 761.7096863370818 318.3348622610617 C 761.7096863370818 315.57343851190774 763.9482625879278 313.3348622610617 766.7096863370818 313.3348622610617 C 769.4711100862359 313.3348622610617 771.7096863370818 315.57343851190774 771.7096863370818 318.3348622610617 Z" fill-opacity="1"/><path fill="none" stroke="rgb(0,0,0)" paint-order="fill stroke markers" d=" M 771.7096863370818 318.3348622610617 C 771.7096863370818 321.09628601021564 769.4711100862359 323.3348622610617 766.7096863370818 323.3348622610617 C 763.9482625879278 323.3348622610617 761.7096863370818 321.09628601021564 761.7096863370818 318.3348622610617 C 761.7096863370818 315.57343851190774 763.9482625879278 313.3348622610617 766.7096863370818 313.3348622610617 C 769.4711100862359 313.3348622610617 771.7096863370818 315.57343851190774 771.7096863370818 318.3348622610617 Z" stroke-opacity="1" stroke-linecap="round" stroke-linejoin="round" stroke-miterlimit="10"/><text fill="rgb(46,125,50)" stroke="none" font-family="geogebra-sans-serif, sans-serif" font-size="24px" font-style="normal" font-weight="normal" text-decoration="normal" x="783" y="319" text-anchor="start" dominant-baseline="alphabetic" fill-opacity="1">H</text><text fill="none" stroke="rgb(255,255,255)" font-family="geogebra-sans-serif, sans-serif" font-size="24px" font-style="normal" font-weight="normal" text-decoration="normal" x="783" y="319" text-anchor="start" dominant-baseline="alphabetic" stroke-opacity="1" stroke-linejoin="bevel" stroke-miterlimit="10" stroke-width="3">H</text><text fill="rgb(46,125,50)" stroke="none" font-family="geogebra-sans-serif, sans-serif" font-size="24px" font-style="normal" font-weight="normal" text-decoration="normal" x="783" y="319" text-anchor="start" dominant-baseline="alphabetic" fill-opacity="1">H</text></g></g></svg>