<svg version="1.1" xmlns="http://www.w3.org/2000/svg" xmlns:xlink="http://www.w3.org/1999/xlink" width="1310" height="704"><defs><clipPath id="enCSBMQqvpun"><path fill="none" stroke="none" d=" M 0 0 L 1310 0 L 1310 704 L 0 704 L 0 0 Z"/></clipPath></defs><g transform="scale(1,1)" clip-path="url(#enCSBMQqvpun)"><g><rect fill="rgb(255,255,255)" stroke="none" x="0" y="0" width="1310" height="704" fill-opacity="1"/><path fill="none" stroke="rgb(97,97,97)" paint-order="fill stroke markers" d=" M 942.2093216245055 359.3008950408392 C 942.2093216245055 518.4670446477867 813.1796634426046 647.4967028296876 654.0135138356571 647.4967028296876 C 494.8473642287096 647.4967028296876 365.8177060468088 518.4670446477867 365.8177060468088 359.3008950408392 C 365.8177060468088 200.13474543389165 494.8473642287096 71.10508725199082 654.0135138356571 71.10508725199082 C 813.1796634426046 71.10508725199082 942.2093216245055 200.13474543389165 942.2093216245055 359.3008950408392 Z" stroke-opacity="0.8" stroke-linecap="round" stroke-linejoin="round" stroke-miterlimit="10" stroke-width="2.5"/><path fill="rgb(0,0,0)" stroke="none" paint-order="stroke fill markers" d=" M 624.551640589261 353.6442153775311 C 623.0898952851621 361.25747216971246 624.632049572308 369.1410137423226 628.8548347150179 375.64228007714223 L 654.0135138356571 359.3008950408392 Z" fill-opacity="0.09803921568627451"/><path fill="none" stroke="rgb(0,0,0)" paint-order="fill stroke markers" d=" M 624.551640589261 353.6442153775311 C 623.0898952851621 361.25747216971246 624.632049572308 369.1410137423226 628.8548347150179 375.64228007714223 L 654.0135138356571 359.3008950408392 Z" stroke-opacity="0.6" stroke-linecap="round" stroke-linejoin="round" stroke-miterlimit="10" stroke-width="2"/><g transform="scale(27,27)"><g transform="translate(22.11111111111111,13.95370425925926)"><path fill="rgb(0,0,0)" stroke="none" paint-order="stroke fill markers" d=" M 0.455 -0.5 L 0.455 -0.5 Q 0.455 -0.34700000000000003 0.377 -0.19 Q 0.307 -0.05 0.222 -0.005 Q 0.191 0.011 0.162 0.011 Q 0.08 0.011 0.052000000000000005 -0.101 Q 0.042 -0.14300000000000002 0.042 -0.194 Q 0.042 -0.35100000000000003 0.122 -0.509 Q 0.192 -0.646 0.277 -0.6900000000000001 Q 0.307 -0.705 0.335 -0.705 Q 0.422 -0.705 0.447 -0.578 Q 0.455 -0.54 0.455 -0.5 M 0.148 -0.363 L 0.148 -0.363 L 0.357 -0.363 Q 0.389 -0.495 0.389 -0.562 Q 0.389 -0.675 0.342 -0.682 Q 0.338 -0.683 0.334 -0.683 Q 0.28300000000000003 -0.683 0.225 -0.578 Q 0.187 -0.511 0.149 -0.368 Q 0.149 -0.365 0.148 -0.363 M 0.34800000000000003 -0.331 L 0.14 -0.331 Q 0.108 -0.21 0.108 -0.133 Q 0.108 -0.013000000000000001 0.162 -0.011 Q 0.218 -0.011 0.278 -0.128 Q 0.317 -0.202 0.34800000000000003 -0.331 Z"/></g></g><path fill="none" stroke="rgb(97,97,97)" paint-order="fill stroke markers" d=" M 370.98723519506336 304.95984954184524 L 937.039792476251 413.64194053983306" stroke-opacity="0.8" stroke-linecap="round" stroke-linejoin="round" stroke-miterlimit="10" stroke-width="2.5"/><path fill="none" stroke="rgb(97,97,97)" paint-order="fill stroke markers" d=" M 412.3259854332217 516.2848504050379 L 895.7010422380927 202.31693967664037" stroke-opacity="0.8" stroke-linecap="round" stroke-linejoin="round" stroke-miterlimit="10" stroke-width="2.5"/><path fill="rgb(211,47,47)" stroke="none" paint-order="stroke fill markers" d=" M 659.0135138356571 359.3008950408392 C 659.0135138356571 362.0623187899931 656.7749375848111 364.3008950408392 654.0135138356571 364.3008950408392 C 651.2520900865031 364.3008950408392 649.0135138356571 362.0623187899931 649.0135138356571 359.3008950408392 C 649.0135138356571 356.53947129168523 651.2520900865031 354.3008950408392 654.0135138356571 354.3008950408392 C 656.7749375848111 354.3008950408392 659.0135138356571 356.53947129168523 659.0135138356571 359.3008950408392 Z" fill-opacity="1"/><path fill="none" stroke="rgb(0,0,0)" paint-order="fill stroke markers" d=" M 659.0135138356571 359.3008950408392 C 659.0135138356571 362.0623187899931 656.7749375848111 364.3008950408392 654.0135138356571 364.3008950408392 C 651.2520900865031 364.3008950408392 649.0135138356571 362.0623187899931 649.0135138356571 359.3008950408392 C 649.0135138356571 356.53947129168523 651.2520900865031 354.3008950408392 654.0135138356571 354.3008950408392 C 656.7749375848111 354.3008950408392 659.0135138356571 356.53947129168523 659.0135138356571 359.3008950408392 Z" stroke-opacity="1" stroke-linecap="round" stroke-linejoin="round" stroke-miterlimit="10"/><text fill="rgb(211,47,47)" stroke="none" font-family="geogebra-sans-serif, sans-serif" font-size="24px" font-style="normal" font-weight="normal" text-decoration="normal" x="645" y="395" text-anchor="start" dominant-baseline="alphabetic" fill-opacity="1">O</text><text fill="none" stroke="rgb(255,255,255)" font-family="geogebra-sans-serif, sans-serif" font-size="24px" font-style="normal" font-weight="normal" text-decoration="normal" x="645" y="395" text-anchor="start" dominant-baseline="alphabetic" stroke-opacity="1" stroke-linejoin="bevel" stroke-miterlimit="10" stroke-width="3">O</text><text fill="rgb(211,47,47)" stroke="none" font-family="geogebra-sans-serif, sans-serif" font-size="24px" font-style="normal" font-weight="normal" text-decoration="normal" x="645" y="395" text-anchor="start" dominant-baseline="alphabetic" fill-opacity="1">O</text><path fill="rgb(21,101,192)" stroke="none" paint-order="stroke fill markers" d=" M 942.039792476251 413.64194053983306 C 942.039792476251 416.403364288987 939.801216225405 418.64194053983306 937.039792476251 418.64194053983306 C 934.278368727097 418.64194053983306 932.039792476251 416.403364288987 932.039792476251 413.64194053983306 C 932.039792476251 410.8805167906791 934.278368727097 408.64194053983306 937.039792476251 408.64194053983306 C 939.801216225405 408.64194053983306 942.039792476251 410.8805167906791 942.039792476251 413.64194053983306 Z" fill-opacity="1"/><path fill="none" stroke="rgb(0,0,0)" paint-order="fill stroke markers" d=" M 942.039792476251 413.64194053983306 C 942.039792476251 416.403364288987 939.801216225405 418.64194053983306 937.039792476251 418.64194053983306 C 934.278368727097 418.64194053983306 932.039792476251 416.403364288987 932.039792476251 413.64194053983306 C 932.039792476251 410.8805167906791 934.278368727097 408.64194053983306 937.039792476251 408.64194053983306 C 939.801216225405 408.64194053983306 942.039792476251 410.8805167906791 942.039792476251 413.64194053983306 Z" stroke-opacity="1" stroke-linecap="round" stroke-linejoin="round" stroke-miterlimit="10"/><text fill="rgb(21,101,192)" stroke="none" font-family="geogebra-sans-serif, sans-serif" font-size="24px" font-style="normal" font-weight="normal" text-decoration="normal" x="946" y="445" text-anchor="start" dominant-baseline="alphabetic" fill-opacity="1">B</text><text fill="none" stroke="rgb(255,255,255)" font-family="geogebra-sans-serif, sans-serif" font-size="24px" font-style="normal" font-weight="normal" text-decoration="normal" x="946" y="445" text-anchor="start" dominant-baseline="alphabetic" stroke-opacity="1" stroke-linejoin="bevel" stroke-miterlimit="10" stroke-width="3">B</text><text fill="rgb(21,101,192)" stroke="none" font-family="geogebra-sans-serif, sans-serif" font-size="24px" font-style="normal" font-weight="normal" text-decoration="normal" x="946" y="445" text-anchor="start" dominant-baseline="alphabetic" fill-opacity="1">B</text><path fill="rgb(21,101,192)" stroke="none" paint-order="stroke fill markers" d=" M 417.3259854332217 516.2848504050379 C 417.3259854332217 519.0462741541919 415.08740918237567 521.2848504050379 412.3259854332217 521.2848504050379 C 409.56456168406777 521.2848504050379 407.3259854332217 519.0462741541919 407.3259854332217 516.2848504050379 C 407.3259854332217 513.5234266558839 409.56456168406777 511.2848504050379 412.3259854332217 511.2848504050379 C 415.08740918237567 511.2848504050379 417.3259854332217 513.5234266558839 417.3259854332217 516.2848504050379 Z" fill-opacity="1"/><path fill="none" stroke="rgb(0,0,0)" paint-order="fill stroke markers" d=" M 417.3259854332217 516.2848504050379 C 417.3259854332217 519.0462741541919 415.08740918237567 521.2848504050379 412.3259854332217 521.2848504050379 C 409.56456168406777 521.2848504050379 407.3259854332217 519.0462741541919 407.3259854332217 516.2848504050379 C 407.3259854332217 513.5234266558839 409.56456168406777 511.2848504050379 412.3259854332217 511.2848504050379 C 415.08740918237567 511.2848504050379 417.3259854332217 513.5234266558839 417.3259854332217 516.2848504050379 Z" stroke-opacity="1" stroke-linecap="round" stroke-linejoin="round" stroke-miterlimit="10"/><text fill="rgb(21,101,192)" stroke="none" font-family="geogebra-sans-serif, sans-serif" font-size="24px" font-style="normal" font-weight="normal" text-decoration="normal" x="361" y="524" text-anchor="start" dominant-baseline="alphabetic" fill-opacity="1">C</text><text fill="none" stroke="rgb(255,255,255)" font-family="geogebra-sans-serif, sans-serif" font-size="24px" font-style="normal" font-weight="normal" text-decoration="normal" x="361" y="524" text-anchor="start" dominant-baseline="alphabetic" stroke-opacity="1" stroke-linejoin="bevel" stroke-miterlimit="10" stroke-width="3">C</text><text fill="rgb(21,101,192)" stroke="none" font-family="geogebra-sans-serif, sans-serif" font-size="24px" font-style="normal" font-weight="normal" text-decoration="normal" x="361" y="524" text-anchor="start" dominant-baseline="alphabetic" fill-opacity="1">C</text><path fill="rgb(21,101,192)" stroke="none" paint-order="stroke fill markers" d=" M 375.98723519506336 304.95984954184524 C 375.98723519506336 307.7212732909992 373.7486589442173 309.95984954184524 370.98723519506336 309.95984954184524 C 368.2258114459094 309.95984954184524 365.98723519506336 307.7212732909992 365.98723519506336 304.95984954184524 C 365.98723519506336 302.1984257926913 368.2258114459094 299.95984954184524 370.98723519506336 299.95984954184524 C 373.7486589442173 299.95984954184524 375.98723519506336 302.1984257926913 375.98723519506336 304.95984954184524 Z" fill-opacity="1"/><path fill="none" stroke="rgb(0,0,0)" paint-order="fill stroke markers" d=" M 375.98723519506336 304.95984954184524 C 375.98723519506336 307.7212732909992 373.7486589442173 309.95984954184524 370.98723519506336 309.95984954184524 C 368.2258114459094 309.95984954184524 365.98723519506336 307.7212732909992 365.98723519506336 304.95984954184524 C 365.98723519506336 302.1984257926913 368.2258114459094 299.95984954184524 370.98723519506336 299.95984954184524 C 373.7486589442173 299.95984954184524 375.98723519506336 302.1984257926913 375.98723519506336 304.95984954184524 Z" stroke-opacity="1" stroke-linecap="round" stroke-linejoin="round" stroke-miterlimit="10"/><text fill="rgb(21,101,192)" stroke="none" font-family="geogebra-sans-serif, sans-serif" font-size="24px" font-style="normal" font-weight="normal" text-decoration="normal" x="331" y="281" text-anchor="start" dominant-baseline="alphabetic" fill-opacity="1">A</text><text fill="none" stroke="rgb(255,255,255)" font-family="geogebra-sans-serif, sans-serif" font-size="24px" font-style="normal" font-weight="normal" text-decoration="normal" x="331" y="281" text-anchor="start" dominant-baseline="alphabetic" stroke-opacity="1" stroke-linejoin="bevel" stroke-miterlimit="10" stroke-width="3">A</text><text fill="rgb(21,101,192)" stroke="none" font-family="geogebra-sans-serif, sans-serif" font-size="24px" font-style="normal" font-weight="normal" text-decoration="normal" x="331" y="281" text-anchor="start" dominant-baseline="alphabetic" fill-opacity="1">A</text><path fill="rgb(21,101,192)" stroke="none" paint-order="stroke fill markers" d=" M 900.7010422380927 202.31693967664037 C 900.7010422380927 205.07836342579435 898.4624659872467 207.31693967664037 895.7010422380927 207.31693967664037 C 892.9396184889387 207.31693967664037 890.7010422380927 205.07836342579435 890.7010422380927 202.31693967664037 C 890.7010422380927 199.5555159274864 892.9396184889387 197.31693967664037 895.7010422380927 197.31693967664037 C 898.4624659872467 197.31693967664037 900.7010422380927 199.5555159274864 900.7010422380927 202.31693967664037 Z" fill-opacity="1"/><path fill="none" stroke="rgb(0,0,0)" paint-order="fill stroke markers" d=" M 900.7010422380927 202.31693967664037 C 900.7010422380927 205.07836342579435 898.4624659872467 207.31693967664037 895.7010422380927 207.31693967664037 C 892.9396184889387 207.31693967664037 890.7010422380927 205.07836342579435 890.7010422380927 202.31693967664037 C 890.7010422380927 199.5555159274864 892.9396184889387 197.31693967664037 895.7010422380927 197.31693967664037 C 898.4624659872467 197.31693967664037 900.7010422380927 199.5555159274864 900.7010422380927 202.31693967664037 Z" stroke-opacity="1" stroke-linecap="round" stroke-linejoin="round" stroke-miterlimit="10"/><text fill="rgb(21,101,192)" stroke="none" font-family="geogebra-sans-serif, sans-serif" font-size="24px" font-style="normal" font-weight="normal" text-decoration="normal" x="900" y="179" text-anchor="start" dominant-baseline="alphabetic" fill-opacity="1">D</text><text fill="none" stroke="rgb(255,255,255)" font-family="geogebra-sans-serif, sans-serif" font-size="24px" font-style="normal" font-weight="normal" text-decoration="normal" x="900" y="179" text-anchor="start" dominant-baseline="alphabetic" stroke-opacity="1" stroke-linejoin="bevel" stroke-miterlimit="10" stroke-width="3">D</text><text fill="rgb(21,101,192)" stroke="none" font-family="geogebra-sans-serif, sans-serif" font-size="24px" font-style="normal" font-weight="normal" text-decoration="normal" x="900" y="179" text-anchor="start" dominant-baseline="alphabetic" fill-opacity="1">D</text></g></g></svg>