<svg version="1.1" xmlns="http://www.w3.org/2000/svg" xmlns:xlink="http://www.w3.org/1999/xlink" width="1310" height="704"><defs><clipPath id="nTusNEblwTdx"><path fill="none" stroke="none" d=" M 0 0 L 1310 0 L 1310 704 L 0 704 L 0 0 Z"/></clipPath></defs><g transform="scale(1,1)" clip-path="url(#nTusNEblwTdx)"><g><rect fill="rgb(255,255,255)" stroke="none" x="0" y="0" width="1310" height="704" fill-opacity="1"/><path fill="none" stroke="rgb(97,97,97)" paint-order="fill stroke markers" d=" M 942.2093216245048 370.30089504083935 C 942.2093216245048 529.4670446477868 813.179663442604 658.4967028296876 654.0135138356566 658.4967028296876 C 494.84736422870907 658.4967028296876 365.81770604680827 529.4670446477868 365.81770604680827 370.30089504083935 C 365.81770604680827 211.13474543389185 494.84736422870907 82.10508725199105 654.0135138356566 82.10508725199105 C 813.179663442604 82.10508725199105 942.2093216245048 211.13474543389185 942.2093216245048 370.30089504083935 Z" stroke-opacity="0.8" stroke-linecap="round" stroke-linejoin="round" stroke-miterlimit="10" stroke-width="2.5"/><path fill="rgb(0,0,0)" stroke="none" paint-order="stroke fill markers" fill-rule="evenodd" d=" M 503.8052987320082 341.4609177409389 L 524.6379890909922 345.46079428986377 L 528.6378656399187 324.62810393087875 L 507.8051752809331 320.628227381955 L 503.8052987320082 341.4609177409389" fill-opacity="0.09803921568627451"/><path fill="none" stroke="rgb(0,0,0)" paint-order="fill stroke markers" d=" M 503.8052987320082 341.4609177409389 L 524.6379890909922 345.46079428986377 L 528.6378656399187 324.62810393087875 L 507.8051752809331 320.628227381955 L 503.8052987320082 341.4609177409389" stroke-opacity="0.6" stroke-linecap="round" stroke-linejoin="round" stroke-miterlimit="10" stroke-width="2"/><path fill="rgb(0,0,0)" stroke="none" paint-order="stroke fill markers" fill-rule="evenodd" d=" M 703.517474242366 338.14645346825694 L 692.3475402083214 320.94957661008766 L 675.1506633501504 332.11951064413176 L 686.3205973841967 349.31638750230144 L 703.517474242366 338.14645346825694" fill-opacity="0.09803921568627451"/><path fill="none" stroke="rgb(0,0,0)" paint-order="fill stroke markers" d=" M 703.517474242366 338.14645346825694 L 692.3475402083214 320.94957661008766 L 675.1506633501504 332.11951064413176 L 686.3205973841967 349.31638750230144 L 703.517474242366 338.14645346825694" stroke-opacity="0.6" stroke-linecap="round" stroke-linejoin="round" stroke-miterlimit="10" stroke-width="2"/><path fill="rgb(0,0,0)" stroke="none" paint-order="stroke fill markers" d=" M 624.5516405892603 364.6442153775313 C 623.0898952851614 372.2574721697126 624.6320495723073 380.1410137423228 628.8548347150172 386.6422800771424 L 654.0135138356566 370.30089504083935 Z" fill-opacity="0.09803921568627451"/><path fill="none" stroke="rgb(0,0,0)" paint-order="fill stroke markers" d=" M 624.5516405892603 364.6442153775313 C 623.0898952851614 372.2574721697126 624.6320495723073 380.1410137423228 628.8548347150172 386.6422800771424 L 654.0135138356566 370.30089504083935 Z" stroke-opacity="0.6" stroke-linecap="round" stroke-linejoin="round" stroke-miterlimit="10" stroke-width="2"/><g transform="scale(27,27)"><g transform="translate(22.11111111111111,14.361111666666666)"><path fill="rgb(0,0,0)" stroke="none" paint-order="stroke fill markers" d=" M 0.455 -0.5 L 0.455 -0.5 Q 0.455 -0.34700000000000003 0.377 -0.19 Q 0.307 -0.05 0.222 -0.005 Q 0.191 0.011 0.162 0.011 Q 0.08 0.011 0.052000000000000005 -0.101 Q 0.042 -0.14300000000000002 0.042 -0.194 Q 0.042 -0.35100000000000003 0.122 -0.509 Q 0.192 -0.646 0.277 -0.6900000000000001 Q 0.307 -0.705 0.335 -0.705 Q 0.422 -0.705 0.447 -0.578 Q 0.455 -0.54 0.455 -0.5 M 0.148 -0.363 L 0.148 -0.363 L 0.357 -0.363 Q 0.389 -0.495 0.389 -0.562 Q 0.389 -0.675 0.342 -0.682 Q 0.338 -0.683 0.334 -0.683 Q 0.28300000000000003 -0.683 0.225 -0.578 Q 0.187 -0.511 0.149 -0.368 Q 0.149 -0.365 0.148 -0.363 M 0.34800000000000003 -0.331 L 0.14 -0.331 Q 0.108 -0.21 0.108 -0.133 Q 0.108 -0.013000000000000001 0.162 -0.011 Q 0.218 -0.011 0.278 -0.128 Q 0.317 -0.202 0.34800000000000003 -0.331 Z"/></g></g><path fill="none" stroke="rgb(97,97,97)" paint-order="fill stroke markers" d=" M 370.98723519506274 315.9598495418454 L 937.0397924762503 424.64194053983323" stroke-opacity="0.8" stroke-linecap="round" stroke-linejoin="round" stroke-miterlimit="10" stroke-width="2.5"/><path fill="none" stroke="rgb(97,97,97)" paint-order="fill stroke markers" d=" M 412.3259854332211 527.284850405038 L 895.701042238092 213.31693967664057" stroke-opacity="0.8" stroke-linecap="round" stroke-linejoin="round" stroke-miterlimit="10" stroke-width="2.5"/><path fill="none" stroke="rgb(97,97,97)" paint-order="fill stroke markers" d=" M 549.861839367025 101.58310193355919 L 503.8052987320082 341.4609177409389" stroke-opacity="0.8" stroke-linecap="round" stroke-linejoin="round" stroke-miterlimit="10" stroke-width="2.5"/><path fill="none" stroke="rgb(97,97,97)" paint-order="fill stroke markers" d=" M 549.861839367025 101.58310193355919 L 703.517474242366 338.14645346825694" stroke-opacity="0.8" stroke-linecap="round" stroke-linejoin="round" stroke-miterlimit="10" stroke-width="2.5"/><path fill="rgb(211,47,47)" stroke="none" paint-order="stroke fill markers" d=" M 659.0135138356566 370.30089504083935 C 659.0135138356566 373.0623187899933 656.7749375848106 375.30089504083935 654.0135138356566 375.30089504083935 C 651.2520900865026 375.30089504083935 649.0135138356566 373.0623187899933 649.0135138356566 370.30089504083935 C 649.0135138356566 367.5394712916854 651.2520900865026 365.30089504083935 654.0135138356566 365.30089504083935 C 656.7749375848106 365.30089504083935 659.0135138356566 367.5394712916854 659.0135138356566 370.30089504083935 Z" fill-opacity="1"/><path fill="none" stroke="rgb(0,0,0)" paint-order="fill stroke markers" d=" M 659.0135138356566 370.30089504083935 C 659.0135138356566 373.0623187899933 656.7749375848106 375.30089504083935 654.0135138356566 375.30089504083935 C 651.2520900865026 375.30089504083935 649.0135138356566 373.0623187899933 649.0135138356566 370.30089504083935 C 649.0135138356566 367.5394712916854 651.2520900865026 365.30089504083935 654.0135138356566 365.30089504083935 C 656.7749375848106 365.30089504083935 659.0135138356566 367.5394712916854 659.0135138356566 370.30089504083935 Z" stroke-opacity="1" stroke-linecap="round" stroke-linejoin="round" stroke-miterlimit="10"/><text fill="rgb(211,47,47)" stroke="none" font-family="geogebra-sans-serif, sans-serif" font-size="24px" font-style="normal" font-weight="normal" text-decoration="normal" x="645" y="406" text-anchor="start" dominant-baseline="alphabetic" fill-opacity="1">O</text><text fill="none" stroke="rgb(255,255,255)" font-family="geogebra-sans-serif, sans-serif" font-size="24px" font-style="normal" font-weight="normal" text-decoration="normal" x="645" y="406" text-anchor="start" dominant-baseline="alphabetic" stroke-opacity="1" stroke-linejoin="bevel" stroke-miterlimit="10" stroke-width="3">O</text><text fill="rgb(211,47,47)" stroke="none" font-family="geogebra-sans-serif, sans-serif" font-size="24px" font-style="normal" font-weight="normal" text-decoration="normal" x="645" y="406" text-anchor="start" dominant-baseline="alphabetic" fill-opacity="1">O</text><path fill="rgb(21,101,192)" stroke="none" paint-order="stroke fill markers" d=" M 942.0397924762503 424.64194053983323 C 942.0397924762503 427.4033642889872 939.8012162254043 429.64194053983323 937.0397924762503 429.64194053983323 C 934.2783687270963 429.64194053983323 932.0397924762503 427.4033642889872 932.0397924762503 424.64194053983323 C 932.0397924762503 421.8805167906793 934.2783687270963 419.64194053983323 937.0397924762503 419.64194053983323 C 939.8012162254043 419.64194053983323 942.0397924762503 421.8805167906793 942.0397924762503 424.64194053983323 Z" fill-opacity="1"/><path fill="none" stroke="rgb(0,0,0)" paint-order="fill stroke markers" d=" M 942.0397924762503 424.64194053983323 C 942.0397924762503 427.4033642889872 939.8012162254043 429.64194053983323 937.0397924762503 429.64194053983323 C 934.2783687270963 429.64194053983323 932.0397924762503 427.4033642889872 932.0397924762503 424.64194053983323 C 932.0397924762503 421.8805167906793 934.2783687270963 419.64194053983323 937.0397924762503 419.64194053983323 C 939.8012162254043 419.64194053983323 942.0397924762503 421.8805167906793 942.0397924762503 424.64194053983323 Z" stroke-opacity="1" stroke-linecap="round" stroke-linejoin="round" stroke-miterlimit="10"/><text fill="rgb(21,101,192)" stroke="none" font-family="geogebra-sans-serif, sans-serif" font-size="24px" font-style="normal" font-weight="normal" text-decoration="normal" x="946" y="456" text-anchor="start" dominant-baseline="alphabetic" fill-opacity="1">B</text><text fill="none" stroke="rgb(255,255,255)" font-family="geogebra-sans-serif, sans-serif" font-size="24px" font-style="normal" font-weight="normal" text-decoration="normal" x="946" y="456" text-anchor="start" dominant-baseline="alphabetic" stroke-opacity="1" stroke-linejoin="bevel" stroke-miterlimit="10" stroke-width="3">B</text><text fill="rgb(21,101,192)" stroke="none" font-family="geogebra-sans-serif, sans-serif" font-size="24px" font-style="normal" font-weight="normal" text-decoration="normal" x="946" y="456" text-anchor="start" dominant-baseline="alphabetic" fill-opacity="1">B</text><path fill="rgb(21,101,192)" stroke="none" paint-order="stroke fill markers" d=" M 417.3259854332211 527.284850405038 C 417.3259854332211 530.046274154192 415.08740918237504 532.284850405038 412.3259854332211 532.284850405038 C 409.56456168406714 532.284850405038 407.3259854332211 530.046274154192 407.3259854332211 527.284850405038 C 407.3259854332211 524.523426655884 409.56456168406714 522.284850405038 412.3259854332211 522.284850405038 C 415.08740918237504 522.284850405038 417.3259854332211 524.523426655884 417.3259854332211 527.284850405038 Z" fill-opacity="1"/><path fill="none" stroke="rgb(0,0,0)" paint-order="fill stroke markers" d=" M 417.3259854332211 527.284850405038 C 417.3259854332211 530.046274154192 415.08740918237504 532.284850405038 412.3259854332211 532.284850405038 C 409.56456168406714 532.284850405038 407.3259854332211 530.046274154192 407.3259854332211 527.284850405038 C 407.3259854332211 524.523426655884 409.56456168406714 522.284850405038 412.3259854332211 522.284850405038 C 415.08740918237504 522.284850405038 417.3259854332211 524.523426655884 417.3259854332211 527.284850405038 Z" stroke-opacity="1" stroke-linecap="round" stroke-linejoin="round" stroke-miterlimit="10"/><text fill="rgb(21,101,192)" stroke="none" font-family="geogebra-sans-serif, sans-serif" font-size="24px" font-style="normal" font-weight="normal" text-decoration="normal" x="361" y="535" text-anchor="start" dominant-baseline="alphabetic" fill-opacity="1">C</text><text fill="none" stroke="rgb(255,255,255)" font-family="geogebra-sans-serif, sans-serif" font-size="24px" font-style="normal" font-weight="normal" text-decoration="normal" x="361" y="535" text-anchor="start" dominant-baseline="alphabetic" stroke-opacity="1" stroke-linejoin="bevel" stroke-miterlimit="10" stroke-width="3">C</text><text fill="rgb(21,101,192)" stroke="none" font-family="geogebra-sans-serif, sans-serif" font-size="24px" font-style="normal" font-weight="normal" text-decoration="normal" x="361" y="535" text-anchor="start" dominant-baseline="alphabetic" fill-opacity="1">C</text><path fill="rgb(21,101,192)" stroke="none" paint-order="stroke fill markers" d=" M 554.861839367025 101.58310193355919 C 554.861839367025 104.34452568271315 552.623263116179 106.58310193355919 549.861839367025 106.58310193355919 C 547.100415617871 106.58310193355919 544.861839367025 104.34452568271315 544.861839367025 101.58310193355919 C 544.861839367025 98.82167818440523 547.100415617871 96.58310193355919 549.861839367025 96.58310193355919 C 552.623263116179 96.58310193355919 554.861839367025 98.82167818440523 554.861839367025 101.58310193355919 Z" fill-opacity="1"/><path fill="none" stroke="rgb(0,0,0)" paint-order="fill stroke markers" d=" M 554.861839367025 101.58310193355919 C 554.861839367025 104.34452568271315 552.623263116179 106.58310193355919 549.861839367025 106.58310193355919 C 547.100415617871 106.58310193355919 544.861839367025 104.34452568271315 544.861839367025 101.58310193355919 C 544.861839367025 98.82167818440523 547.100415617871 96.58310193355919 549.861839367025 96.58310193355919 C 552.623263116179 96.58310193355919 554.861839367025 98.82167818440523 554.861839367025 101.58310193355919 Z" stroke-opacity="1" stroke-linecap="round" stroke-linejoin="round" stroke-miterlimit="10"/><text fill="rgb(21,101,192)" stroke="none" font-family="geogebra-sans-serif, sans-serif" font-size="24px" font-style="normal" font-weight="normal" text-decoration="normal" x="533" y="84" text-anchor="start" dominant-baseline="alphabetic" fill-opacity="1">M</text><text fill="none" stroke="rgb(255,255,255)" font-family="geogebra-sans-serif, sans-serif" font-size="24px" font-style="normal" font-weight="normal" text-decoration="normal" x="533" y="84" text-anchor="start" dominant-baseline="alphabetic" stroke-opacity="1" stroke-linejoin="bevel" stroke-miterlimit="10" stroke-width="3">M</text><text fill="rgb(21,101,192)" stroke="none" font-family="geogebra-sans-serif, sans-serif" font-size="24px" font-style="normal" font-weight="normal" text-decoration="normal" x="533" y="84" text-anchor="start" dominant-baseline="alphabetic" fill-opacity="1">M</text><path fill="rgb(21,101,192)" stroke="none" paint-order="stroke fill markers" d=" M 375.98723519506274 315.9598495418454 C 375.98723519506274 318.72127329099936 373.7486589442167 320.9598495418454 370.98723519506274 320.9598495418454 C 368.2258114459088 320.9598495418454 365.98723519506274 318.72127329099936 365.98723519506274 315.9598495418454 C 365.98723519506274 313.19842579269147 368.2258114459088 310.9598495418454 370.98723519506274 310.9598495418454 C 373.7486589442167 310.9598495418454 375.98723519506274 313.19842579269147 375.98723519506274 315.9598495418454 Z" fill-opacity="1"/><path fill="none" stroke="rgb(0,0,0)" paint-order="fill stroke markers" d=" M 375.98723519506274 315.9598495418454 C 375.98723519506274 318.72127329099936 373.7486589442167 320.9598495418454 370.98723519506274 320.9598495418454 C 368.2258114459088 320.9598495418454 365.98723519506274 318.72127329099936 365.98723519506274 315.9598495418454 C 365.98723519506274 313.19842579269147 368.2258114459088 310.9598495418454 370.98723519506274 310.9598495418454 C 373.7486589442167 310.9598495418454 375.98723519506274 313.19842579269147 375.98723519506274 315.9598495418454 Z" stroke-opacity="1" stroke-linecap="round" stroke-linejoin="round" stroke-miterlimit="10"/><text fill="rgb(21,101,192)" stroke="none" font-family="geogebra-sans-serif, sans-serif" font-size="24px" font-style="normal" font-weight="normal" text-decoration="normal" x="331" y="292" text-anchor="start" dominant-baseline="alphabetic" fill-opacity="1">A</text><text fill="none" stroke="rgb(255,255,255)" font-family="geogebra-sans-serif, sans-serif" font-size="24px" font-style="normal" font-weight="normal" text-decoration="normal" x="331" y="292" text-anchor="start" dominant-baseline="alphabetic" stroke-opacity="1" stroke-linejoin="bevel" stroke-miterlimit="10" stroke-width="3">A</text><text fill="rgb(21,101,192)" stroke="none" font-family="geogebra-sans-serif, sans-serif" font-size="24px" font-style="normal" font-weight="normal" text-decoration="normal" x="331" y="292" text-anchor="start" dominant-baseline="alphabetic" fill-opacity="1">A</text><path fill="rgb(21,101,192)" stroke="none" paint-order="stroke fill markers" d=" M 900.701042238092 213.31693967664057 C 900.701042238092 216.07836342579455 898.462465987246 218.31693967664057 895.701042238092 218.31693967664057 C 892.939618488938 218.31693967664057 890.701042238092 216.07836342579455 890.701042238092 213.31693967664057 C 890.701042238092 210.5555159274866 892.939618488938 208.31693967664057 895.701042238092 208.31693967664057 C 898.462465987246 208.31693967664057 900.701042238092 210.5555159274866 900.701042238092 213.31693967664057 Z" fill-opacity="1"/><path fill="none" stroke="rgb(0,0,0)" paint-order="fill stroke markers" d=" M 900.701042238092 213.31693967664057 C 900.701042238092 216.07836342579455 898.462465987246 218.31693967664057 895.701042238092 218.31693967664057 C 892.939618488938 218.31693967664057 890.701042238092 216.07836342579455 890.701042238092 213.31693967664057 C 890.701042238092 210.5555159274866 892.939618488938 208.31693967664057 895.701042238092 208.31693967664057 C 898.462465987246 208.31693967664057 900.701042238092 210.5555159274866 900.701042238092 213.31693967664057 Z" stroke-opacity="1" stroke-linecap="round" stroke-linejoin="round" stroke-miterlimit="10"/><text fill="rgb(21,101,192)" stroke="none" font-family="geogebra-sans-serif, sans-serif" font-size="24px" font-style="normal" font-weight="normal" text-decoration="normal" x="900" y="190" text-anchor="start" dominant-baseline="alphabetic" fill-opacity="1">D</text><text fill="none" stroke="rgb(255,255,255)" font-family="geogebra-sans-serif, sans-serif" font-size="24px" font-style="normal" font-weight="normal" text-decoration="normal" x="900" y="190" text-anchor="start" dominant-baseline="alphabetic" stroke-opacity="1" stroke-linejoin="bevel" stroke-miterlimit="10" stroke-width="3">D</text><text fill="rgb(21,101,192)" stroke="none" font-family="geogebra-sans-serif, sans-serif" font-size="24px" font-style="normal" font-weight="normal" text-decoration="normal" x="900" y="190" text-anchor="start" dominant-baseline="alphabetic" fill-opacity="1">D</text><path fill="rgb(46,125,50)" stroke="none" paint-order="stroke fill markers" d=" M 707.517474242366 338.14645346825694 C 707.517474242366 340.3555924675801 705.7266132416892 342.14645346825694 703.517474242366 342.14645346825694 C 701.3083352430428 342.14645346825694 699.517474242366 340.3555924675801 699.517474242366 338.14645346825694 C 699.517474242366 335.9373144689338 701.3083352430428 334.14645346825694 703.517474242366 334.14645346825694 C 705.7266132416892 334.14645346825694 707.517474242366 335.9373144689338 707.517474242366 338.14645346825694 Z" fill-opacity="1"/><path fill="none" stroke="rgb(0,0,0)" paint-order="fill stroke markers" d=" M 707.517474242366 338.14645346825694 C 707.517474242366 340.3555924675801 705.7266132416892 342.14645346825694 703.517474242366 342.14645346825694 C 701.3083352430428 342.14645346825694 699.517474242366 340.3555924675801 699.517474242366 338.14645346825694 C 699.517474242366 335.9373144689338 701.3083352430428 334.14645346825694 703.517474242366 334.14645346825694 C 705.7266132416892 334.14645346825694 707.517474242366 335.9373144689338 707.517474242366 338.14645346825694 Z" stroke-opacity="1" stroke-linecap="round" stroke-linejoin="round" stroke-miterlimit="10"/><text fill="rgb(46,125,50)" stroke="none" font-family="geogebra-sans-serif, sans-serif" font-size="24px" font-style="normal" font-weight="normal" text-decoration="normal" x="723" y="348" text-anchor="start" dominant-baseline="alphabetic" fill-opacity="1">Q</text><text fill="none" stroke="rgb(255,255,255)" font-family="geogebra-sans-serif, sans-serif" font-size="24px" font-style="normal" font-weight="normal" text-decoration="normal" x="723" y="348" text-anchor="start" dominant-baseline="alphabetic" stroke-opacity="1" stroke-linejoin="bevel" stroke-miterlimit="10" stroke-width="3">Q</text><text fill="rgb(46,125,50)" stroke="none" font-family="geogebra-sans-serif, sans-serif" font-size="24px" font-style="normal" font-weight="normal" text-decoration="normal" x="723" y="348" text-anchor="start" dominant-baseline="alphabetic" fill-opacity="1">Q</text><path fill="rgb(46,125,50)" stroke="none" paint-order="stroke fill markers" d=" M 507.8052987320082 341.4609177409389 C 507.8052987320082 343.67005674026205 506.0144377313314 345.4609177409389 503.8052987320082 345.4609177409389 C 501.59615973268507 345.4609177409389 499.8052987320082 343.67005674026205 499.8052987320082 341.4609177409389 C 499.8052987320082 339.25177874161574 501.59615973268507 337.4609177409389 503.8052987320082 337.4609177409389 C 506.0144377313314 337.4609177409389 507.8052987320082 339.25177874161574 507.8052987320082 341.4609177409389 Z" fill-opacity="1"/><path fill="none" stroke="rgb(0,0,0)" paint-order="fill stroke markers" d=" M 507.8052987320082 341.4609177409389 C 507.8052987320082 343.67005674026205 506.0144377313314 345.4609177409389 503.8052987320082 345.4609177409389 C 501.59615973268507 345.4609177409389 499.8052987320082 343.67005674026205 499.8052987320082 341.4609177409389 C 499.8052987320082 339.25177874161574 501.59615973268507 337.4609177409389 503.8052987320082 337.4609177409389 C 506.0144377313314 337.4609177409389 507.8052987320082 339.25177874161574 507.8052987320082 341.4609177409389 Z" stroke-opacity="1" stroke-linecap="round" stroke-linejoin="round" stroke-miterlimit="10"/><text fill="rgb(46,125,50)" stroke="none" font-family="geogebra-sans-serif, sans-serif" font-size="24px" font-style="normal" font-weight="normal" text-decoration="normal" x="474" y="363" text-anchor="start" dominant-baseline="alphabetic" fill-opacity="1">P</text><text fill="none" stroke="rgb(255,255,255)" font-family="geogebra-sans-serif, sans-serif" font-size="24px" font-style="normal" font-weight="normal" text-decoration="normal" x="474" y="363" text-anchor="start" dominant-baseline="alphabetic" stroke-opacity="1" stroke-linejoin="bevel" stroke-miterlimit="10" stroke-width="3">P</text><text fill="rgb(46,125,50)" stroke="none" font-family="geogebra-sans-serif, sans-serif" font-size="24px" font-style="normal" font-weight="normal" text-decoration="normal" x="474" y="363" text-anchor="start" dominant-baseline="alphabetic" fill-opacity="1">P</text></g></g></svg>