<svg version="1.1" xmlns="http://www.w3.org/2000/svg" xmlns:xlink="http://www.w3.org/1999/xlink" width="1310" height="704"><defs><clipPath id="gybfLATAWFpS"><path fill="none" stroke="none" d=" M 0 0 L 1310 0 L 1310 704 L 0 704 L 0 0 Z"/></clipPath></defs><g transform="scale(1,1)" clip-path="url(#gybfLATAWFpS)"><g><rect fill="rgb(255,255,255)" stroke="none" x="0" y="0" width="1310" height="704" fill-opacity="1"/><path fill="none" stroke="rgb(97,97,97)" paint-order="fill stroke markers" d=" M 942.2093216245047 370.3008950408394 C 942.2093216245047 529.4670446477869 813.1796634426039 658.4967028296878 654.0135138356563 658.4967028296878 C 494.8473642287088 658.4967028296878 365.817706046808 529.4670446477869 365.817706046808 370.3008950408394 C 365.817706046808 211.13474543389188 494.8473642287088 82.10508725199105 654.0135138356563 82.10508725199105 C 813.1796634426039 82.10508725199105 942.2093216245047 211.13474543389188 942.2093216245047 370.3008950408394 Z" stroke-opacity="0.8" stroke-linecap="round" stroke-linejoin="round" stroke-miterlimit="10" stroke-width="2.5"/><path fill="none" stroke="rgb(97,97,97)" paint-order="fill stroke markers" d=" M 746.0355804957649 235.94199848719933 C 746.0355804957649 315.52507329067305 681.5207514048144 380.0399023816235 601.9376766013406 380.0399023816235 C 522.354601797867 380.0399023816235 457.8397727069165 315.52507329067305 457.8397727069165 235.94199848719933 C 457.8397727069165 156.35892368372558 522.354601797867 91.84409459277518 601.9376766013406 91.84409459277518 C 681.5207514048144 91.84409459277518 746.0355804957649 156.35892368372558 746.0355804957649 235.94199848719933 Z" stroke-opacity="0.8" stroke-linejoin="round" stroke-miterlimit="10" stroke-width="1.5" stroke-dasharray="9.5,8"/><path fill="rgb(0,0,0)" stroke="none" paint-order="stroke fill markers" fill-rule="evenodd" d=" M 503.80529873200805 341.46091774093895 L 524.6379890909919 345.4607942898638 L 528.6378656399185 324.6281039308788 L 507.80517528093293 320.62822738195507 L 503.80529873200805 341.46091774093895" fill-opacity="0.09803921568627451"/><path fill="none" stroke="rgb(0,0,0)" paint-order="fill stroke markers" d=" M 503.80529873200805 341.46091774093895 L 524.6379890909919 345.4607942898638 L 528.6378656399185 324.6281039308788 L 507.80517528093293 320.62822738195507 L 503.80529873200805 341.46091774093895" stroke-opacity="0.6" stroke-linecap="round" stroke-linejoin="round" stroke-miterlimit="10" stroke-width="2"/><path fill="rgb(0,0,0)" stroke="none" paint-order="stroke fill markers" fill-rule="evenodd" d=" M 703.5174742423659 338.146453468257 L 692.3475402083213 320.9495766100877 L 675.1506633501502 332.1195106441318 L 686.3205973841966 349.3163875023015 L 703.5174742423659 338.146453468257" fill-opacity="0.09803921568627451"/><path fill="none" stroke="rgb(0,0,0)" paint-order="fill stroke markers" d=" M 703.5174742423659 338.146453468257 L 692.3475402083213 320.9495766100877 L 675.1506633501502 332.1195106441318 L 686.3205973841966 349.3163875023015 L 703.5174742423659 338.146453468257" stroke-opacity="0.6" stroke-linecap="round" stroke-linejoin="round" stroke-miterlimit="10" stroke-width="2"/><path fill="rgb(0,0,0)" stroke="none" paint-order="stroke fill markers" d=" M 624.5516405892602 364.64421537753134 C 623.0898952851613 372.2574721697127 624.6320495723072 380.14101374232285 628.8548347150171 386.64228007714246 L 654.0135138356563 370.3008950408394 Z" fill-opacity="0.09803921568627451"/><path fill="none" stroke="rgb(0,0,0)" paint-order="fill stroke markers" d=" M 624.5516405892602 364.64421537753134 C 623.0898952851613 372.2574721697127 624.6320495723072 380.14101374232285 628.8548347150171 386.64228007714246 L 654.0135138356563 370.3008950408394 Z" stroke-opacity="0.6" stroke-linecap="round" stroke-linejoin="round" stroke-miterlimit="10" stroke-width="2"/><g transform="scale(27,27)"><g transform="translate(22.11111111111111,14.361111666666666)"><path fill="rgb(0,0,0)" stroke="none" paint-order="stroke fill markers" d=" M 0.455 -0.5 L 0.455 -0.5 Q 0.455 -0.34700000000000003 0.377 -0.19 Q 0.307 -0.05 0.222 -0.005 Q 0.191 0.011 0.162 0.011 Q 0.08 0.011 0.052000000000000005 -0.101 Q 0.042 -0.14300000000000002 0.042 -0.194 Q 0.042 -0.35100000000000003 0.122 -0.509 Q 0.192 -0.646 0.277 -0.6900000000000001 Q 0.307 -0.705 0.335 -0.705 Q 0.422 -0.705 0.447 -0.578 Q 0.455 -0.54 0.455 -0.5 M 0.148 -0.363 L 0.148 -0.363 L 0.357 -0.363 Q 0.389 -0.495 0.389 -0.562 Q 0.389 -0.675 0.342 -0.682 Q 0.338 -0.683 0.334 -0.683 Q 0.28300000000000003 -0.683 0.225 -0.578 Q 0.187 -0.511 0.149 -0.368 Q 0.149 -0.365 0.148 -0.363 M 0.34800000000000003 -0.331 L 0.14 -0.331 Q 0.108 -0.21 0.108 -0.133 Q 0.108 -0.013000000000000001 0.162 -0.011 Q 0.218 -0.011 0.278 -0.128 Q 0.317 -0.202 0.34800000000000003 -0.331 Z"/></g></g><path fill="rgb(0,0,0)" stroke="none" paint-order="stroke fill markers" d=" M 544.2051597037168 131.04497517995543 C 551.8184164958981 132.50672048405426 559.7019580685082 130.9645661969084 566.2032244033279 126.74178105419847 L 549.8618393670248 101.58310193355922 Z" fill-opacity="0.09803921568627451"/><path fill="none" stroke="rgb(0,0,0)" paint-order="fill stroke markers" d=" M 544.2051597037168 131.04497517995543 C 551.8184164958981 132.50672048405426 559.7019580685082 130.9645661969084 566.2032244033279 126.74178105419847 L 549.8618393670248 101.58310193355922 Z" stroke-opacity="0.6" stroke-linecap="round" stroke-linejoin="round" stroke-miterlimit="10" stroke-width="2"/><g transform="scale(27,27)"><g transform="translate(20.333333333333332,6.06481537037037)"><path fill="rgb(0,0,0)" stroke="none" paint-order="stroke fill markers" d=" M 0.455 -0.5 L 0.455 -0.5 Q 0.455 -0.34700000000000003 0.377 -0.19 Q 0.307 -0.05 0.222 -0.005 Q 0.191 0.011 0.162 0.011 Q 0.08 0.011 0.052000000000000005 -0.101 Q 0.042 -0.14300000000000002 0.042 -0.194 Q 0.042 -0.35100000000000003 0.122 -0.509 Q 0.192 -0.646 0.277 -0.6900000000000001 Q 0.307 -0.705 0.335 -0.705 Q 0.422 -0.705 0.447 -0.578 Q 0.455 -0.54 0.455 -0.5 M 0.148 -0.363 L 0.148 -0.363 L 0.357 -0.363 Q 0.389 -0.495 0.389 -0.562 Q 0.389 -0.675 0.342 -0.682 Q 0.338 -0.683 0.334 -0.683 Q 0.28300000000000003 -0.683 0.225 -0.578 Q 0.187 -0.511 0.149 -0.368 Q 0.149 -0.365 0.148 -0.363 M 0.34800000000000003 -0.331 L 0.14 -0.331 Q 0.108 -0.21 0.108 -0.133 Q 0.108 -0.013000000000000001 0.162 -0.011 Q 0.218 -0.011 0.278 -0.128 Q 0.317 -0.202 0.34800000000000003 -0.331 Z"/></g></g><path fill="none" stroke="rgb(97,97,97)" paint-order="fill stroke markers" d=" M 654.0135138356563 370.3008950408394 L 549.8618393670248 101.58310193355922" stroke-opacity="0.8" stroke-linejoin="round" stroke-miterlimit="10" stroke-width="2.5" stroke-dasharray="10.5,8"/><path fill="none" stroke="rgb(97,97,97)" paint-order="fill stroke markers" d=" M 370.9872351950625 315.9598495418455 L 937.0397924762503 424.6419405398333" stroke-opacity="0.8" stroke-linecap="round" stroke-linejoin="round" stroke-miterlimit="10" stroke-width="2.5"/><path fill="none" stroke="rgb(97,97,97)" paint-order="fill stroke markers" d=" M 412.32598543322086 527.2848504050381 L 895.7010422380919 213.3169396766406" stroke-opacity="0.8" stroke-linecap="round" stroke-linejoin="round" stroke-miterlimit="10" stroke-width="2.5"/><path fill="none" stroke="rgb(97,97,97)" paint-order="fill stroke markers" d=" M 549.8618393670248 101.58310193355922 L 503.80529873200805 341.46091774093895" stroke-opacity="0.8" stroke-linecap="round" stroke-linejoin="round" stroke-miterlimit="10" stroke-width="2.5"/><path fill="none" stroke="rgb(97,97,97)" paint-order="fill stroke markers" d=" M 549.8618393670248 101.58310193355922 L 703.5174742423659 338.146453468257" stroke-opacity="0.8" stroke-linecap="round" stroke-linejoin="round" stroke-miterlimit="10" stroke-width="2.5"/><path fill="rgb(211,47,47)" stroke="none" paint-order="stroke fill markers" d=" M 659.0135138356563 370.3008950408394 C 659.0135138356563 373.06231878999336 656.7749375848103 375.3008950408394 654.0135138356563 375.3008950408394 C 651.2520900865023 375.3008950408394 649.0135138356563 373.06231878999336 649.0135138356563 370.3008950408394 C 649.0135138356563 367.53947129168546 651.2520900865023 365.3008950408394 654.0135138356563 365.3008950408394 C 656.7749375848103 365.3008950408394 659.0135138356563 367.53947129168546 659.0135138356563 370.3008950408394 Z" fill-opacity="1"/><path fill="none" stroke="rgb(0,0,0)" paint-order="fill stroke markers" d=" M 659.0135138356563 370.3008950408394 C 659.0135138356563 373.06231878999336 656.7749375848103 375.3008950408394 654.0135138356563 375.3008950408394 C 651.2520900865023 375.3008950408394 649.0135138356563 373.06231878999336 649.0135138356563 370.3008950408394 C 649.0135138356563 367.53947129168546 651.2520900865023 365.3008950408394 654.0135138356563 365.3008950408394 C 656.7749375848103 365.3008950408394 659.0135138356563 367.53947129168546 659.0135138356563 370.3008950408394 Z" stroke-opacity="1" stroke-linecap="round" stroke-linejoin="round" stroke-miterlimit="10"/><text fill="rgb(211,47,47)" stroke="none" font-family="geogebra-sans-serif, sans-serif" font-size="24px" font-style="normal" font-weight="normal" text-decoration="normal" x="645" y="406" text-anchor="start" dominant-baseline="alphabetic" fill-opacity="1">O</text><text fill="none" stroke="rgb(255,255,255)" font-family="geogebra-sans-serif, sans-serif" font-size="24px" font-style="normal" font-weight="normal" text-decoration="normal" x="645" y="406" text-anchor="start" dominant-baseline="alphabetic" stroke-opacity="1" stroke-linejoin="bevel" stroke-miterlimit="10" stroke-width="3">O</text><text fill="rgb(211,47,47)" stroke="none" font-family="geogebra-sans-serif, sans-serif" font-size="24px" font-style="normal" font-weight="normal" text-decoration="normal" x="645" y="406" text-anchor="start" dominant-baseline="alphabetic" fill-opacity="1">O</text><path fill="rgb(21,101,192)" stroke="none" paint-order="stroke fill markers" d=" M 942.0397924762503 424.6419405398333 C 942.0397924762503 427.40336428898723 939.8012162254043 429.6419405398333 937.0397924762503 429.6419405398333 C 934.2783687270963 429.6419405398333 932.0397924762503 427.40336428898723 932.0397924762503 424.6419405398333 C 932.0397924762503 421.88051679067934 934.2783687270963 419.6419405398333 937.0397924762503 419.6419405398333 C 939.8012162254043 419.6419405398333 942.0397924762503 421.88051679067934 942.0397924762503 424.6419405398333 Z" fill-opacity="1"/><path fill="none" stroke="rgb(0,0,0)" paint-order="fill stroke markers" d=" M 942.0397924762503 424.6419405398333 C 942.0397924762503 427.40336428898723 939.8012162254043 429.6419405398333 937.0397924762503 429.6419405398333 C 934.2783687270963 429.6419405398333 932.0397924762503 427.40336428898723 932.0397924762503 424.6419405398333 C 932.0397924762503 421.88051679067934 934.2783687270963 419.6419405398333 937.0397924762503 419.6419405398333 C 939.8012162254043 419.6419405398333 942.0397924762503 421.88051679067934 942.0397924762503 424.6419405398333 Z" stroke-opacity="1" stroke-linecap="round" stroke-linejoin="round" stroke-miterlimit="10"/><text fill="rgb(21,101,192)" stroke="none" font-family="geogebra-sans-serif, sans-serif" font-size="24px" font-style="normal" font-weight="normal" text-decoration="normal" x="946" y="456" text-anchor="start" dominant-baseline="alphabetic" fill-opacity="1">B</text><text fill="none" stroke="rgb(255,255,255)" font-family="geogebra-sans-serif, sans-serif" font-size="24px" font-style="normal" font-weight="normal" text-decoration="normal" x="946" y="456" text-anchor="start" dominant-baseline="alphabetic" stroke-opacity="1" stroke-linejoin="bevel" stroke-miterlimit="10" stroke-width="3">B</text><text fill="rgb(21,101,192)" stroke="none" font-family="geogebra-sans-serif, sans-serif" font-size="24px" font-style="normal" font-weight="normal" text-decoration="normal" x="946" y="456" text-anchor="start" dominant-baseline="alphabetic" fill-opacity="1">B</text><path fill="rgb(21,101,192)" stroke="none" paint-order="stroke fill markers" d=" M 417.32598543322086 527.2848504050381 C 417.32598543322086 530.0462741541921 415.0874091823748 532.2848504050381 412.32598543322086 532.2848504050381 C 409.5645616840669 532.2848504050381 407.32598543322086 530.0462741541921 407.32598543322086 527.2848504050381 C 407.32598543322086 524.5234266558841 409.5645616840669 522.2848504050381 412.32598543322086 522.2848504050381 C 415.0874091823748 522.2848504050381 417.32598543322086 524.5234266558841 417.32598543322086 527.2848504050381 Z" fill-opacity="1"/><path fill="none" stroke="rgb(0,0,0)" paint-order="fill stroke markers" d=" M 417.32598543322086 527.2848504050381 C 417.32598543322086 530.0462741541921 415.0874091823748 532.2848504050381 412.32598543322086 532.2848504050381 C 409.5645616840669 532.2848504050381 407.32598543322086 530.0462741541921 407.32598543322086 527.2848504050381 C 407.32598543322086 524.5234266558841 409.5645616840669 522.2848504050381 412.32598543322086 522.2848504050381 C 415.0874091823748 522.2848504050381 417.32598543322086 524.5234266558841 417.32598543322086 527.2848504050381 Z" stroke-opacity="1" stroke-linecap="round" stroke-linejoin="round" stroke-miterlimit="10"/><text fill="rgb(21,101,192)" stroke="none" font-family="geogebra-sans-serif, sans-serif" font-size="24px" font-style="normal" font-weight="normal" text-decoration="normal" x="361" y="535" text-anchor="start" dominant-baseline="alphabetic" fill-opacity="1">C</text><text fill="none" stroke="rgb(255,255,255)" font-family="geogebra-sans-serif, sans-serif" font-size="24px" font-style="normal" font-weight="normal" text-decoration="normal" x="361" y="535" text-anchor="start" dominant-baseline="alphabetic" stroke-opacity="1" stroke-linejoin="bevel" stroke-miterlimit="10" stroke-width="3">C</text><text fill="rgb(21,101,192)" stroke="none" font-family="geogebra-sans-serif, sans-serif" font-size="24px" font-style="normal" font-weight="normal" text-decoration="normal" x="361" y="535" text-anchor="start" dominant-baseline="alphabetic" fill-opacity="1">C</text><path fill="rgb(21,101,192)" stroke="none" paint-order="stroke fill markers" d=" M 554.8618393670248 101.58310193355922 C 554.8618393670248 104.34452568271318 552.6232631161788 106.58310193355922 549.8618393670248 106.58310193355922 C 547.1004156178708 106.58310193355922 544.8618393670248 104.34452568271318 544.8618393670248 101.58310193355922 C 544.8618393670248 98.82167818440526 547.1004156178708 96.58310193355922 549.8618393670248 96.58310193355922 C 552.6232631161788 96.58310193355922 554.8618393670248 98.82167818440526 554.8618393670248 101.58310193355922 Z" fill-opacity="1"/><path fill="none" stroke="rgb(0,0,0)" paint-order="fill stroke markers" d=" M 554.8618393670248 101.58310193355922 C 554.8618393670248 104.34452568271318 552.6232631161788 106.58310193355922 549.8618393670248 106.58310193355922 C 547.1004156178708 106.58310193355922 544.8618393670248 104.34452568271318 544.8618393670248 101.58310193355922 C 544.8618393670248 98.82167818440526 547.1004156178708 96.58310193355922 549.8618393670248 96.58310193355922 C 552.6232631161788 96.58310193355922 554.8618393670248 98.82167818440526 554.8618393670248 101.58310193355922 Z" stroke-opacity="1" stroke-linecap="round" stroke-linejoin="round" stroke-miterlimit="10"/><text fill="rgb(21,101,192)" stroke="none" font-family="geogebra-sans-serif, sans-serif" font-size="24px" font-style="normal" font-weight="normal" text-decoration="normal" x="533" y="84" text-anchor="start" dominant-baseline="alphabetic" fill-opacity="1">M</text><text fill="none" stroke="rgb(255,255,255)" font-family="geogebra-sans-serif, sans-serif" font-size="24px" font-style="normal" font-weight="normal" text-decoration="normal" x="533" y="84" text-anchor="start" dominant-baseline="alphabetic" stroke-opacity="1" stroke-linejoin="bevel" stroke-miterlimit="10" stroke-width="3">M</text><text fill="rgb(21,101,192)" stroke="none" font-family="geogebra-sans-serif, sans-serif" font-size="24px" font-style="normal" font-weight="normal" text-decoration="normal" x="533" y="84" text-anchor="start" dominant-baseline="alphabetic" fill-opacity="1">M</text><path fill="rgb(21,101,192)" stroke="none" paint-order="stroke fill markers" d=" M 375.9872351950625 315.9598495418455 C 375.9872351950625 318.7212732909994 373.74865894421646 320.9598495418455 370.9872351950625 320.9598495418455 C 368.22581144590856 320.9598495418455 365.9872351950625 318.7212732909994 365.9872351950625 315.9598495418455 C 365.9872351950625 313.1984257926915 368.22581144590856 310.9598495418455 370.9872351950625 310.9598495418455 C 373.74865894421646 310.9598495418455 375.9872351950625 313.1984257926915 375.9872351950625 315.9598495418455 Z" fill-opacity="1"/><path fill="none" stroke="rgb(0,0,0)" paint-order="fill stroke markers" d=" M 375.9872351950625 315.9598495418455 C 375.9872351950625 318.7212732909994 373.74865894421646 320.9598495418455 370.9872351950625 320.9598495418455 C 368.22581144590856 320.9598495418455 365.9872351950625 318.7212732909994 365.9872351950625 315.9598495418455 C 365.9872351950625 313.1984257926915 368.22581144590856 310.9598495418455 370.9872351950625 310.9598495418455 C 373.74865894421646 310.9598495418455 375.9872351950625 313.1984257926915 375.9872351950625 315.9598495418455 Z" stroke-opacity="1" stroke-linecap="round" stroke-linejoin="round" stroke-miterlimit="10"/><text fill="rgb(21,101,192)" stroke="none" font-family="geogebra-sans-serif, sans-serif" font-size="24px" font-style="normal" font-weight="normal" text-decoration="normal" x="331" y="292" text-anchor="start" dominant-baseline="alphabetic" fill-opacity="1">A</text><text fill="none" stroke="rgb(255,255,255)" font-family="geogebra-sans-serif, sans-serif" font-size="24px" font-style="normal" font-weight="normal" text-decoration="normal" x="331" y="292" text-anchor="start" dominant-baseline="alphabetic" stroke-opacity="1" stroke-linejoin="bevel" stroke-miterlimit="10" stroke-width="3">A</text><text fill="rgb(21,101,192)" stroke="none" font-family="geogebra-sans-serif, sans-serif" font-size="24px" font-style="normal" font-weight="normal" text-decoration="normal" x="331" y="292" text-anchor="start" dominant-baseline="alphabetic" fill-opacity="1">A</text><path fill="rgb(21,101,192)" stroke="none" paint-order="stroke fill markers" d=" M 900.7010422380919 213.3169396766406 C 900.7010422380919 216.07836342579458 898.4624659872459 218.3169396766406 895.7010422380919 218.3169396766406 C 892.9396184889379 218.3169396766406 890.7010422380919 216.07836342579458 890.7010422380919 213.3169396766406 C 890.7010422380919 210.55551592748662 892.9396184889379 208.3169396766406 895.7010422380919 208.3169396766406 C 898.4624659872459 208.3169396766406 900.7010422380919 210.55551592748662 900.7010422380919 213.3169396766406 Z" fill-opacity="1"/><path fill="none" stroke="rgb(0,0,0)" paint-order="fill stroke markers" d=" M 900.7010422380919 213.3169396766406 C 900.7010422380919 216.07836342579458 898.4624659872459 218.3169396766406 895.7010422380919 218.3169396766406 C 892.9396184889379 218.3169396766406 890.7010422380919 216.07836342579458 890.7010422380919 213.3169396766406 C 890.7010422380919 210.55551592748662 892.9396184889379 208.3169396766406 895.7010422380919 208.3169396766406 C 898.4624659872459 208.3169396766406 900.7010422380919 210.55551592748662 900.7010422380919 213.3169396766406 Z" stroke-opacity="1" stroke-linecap="round" stroke-linejoin="round" stroke-miterlimit="10"/><text fill="rgb(21,101,192)" stroke="none" font-family="geogebra-sans-serif, sans-serif" font-size="24px" font-style="normal" font-weight="normal" text-decoration="normal" x="900" y="190" text-anchor="start" dominant-baseline="alphabetic" fill-opacity="1">D</text><text fill="none" stroke="rgb(255,255,255)" font-family="geogebra-sans-serif, sans-serif" font-size="24px" font-style="normal" font-weight="normal" text-decoration="normal" x="900" y="190" text-anchor="start" dominant-baseline="alphabetic" stroke-opacity="1" stroke-linejoin="bevel" stroke-miterlimit="10" stroke-width="3">D</text><text fill="rgb(21,101,192)" stroke="none" font-family="geogebra-sans-serif, sans-serif" font-size="24px" font-style="normal" font-weight="normal" text-decoration="normal" x="900" y="190" text-anchor="start" dominant-baseline="alphabetic" fill-opacity="1">D</text><path fill="rgb(46,125,50)" stroke="none" paint-order="stroke fill markers" d=" M 707.5174742423659 338.146453468257 C 707.5174742423659 340.35559246758015 705.726613241689 342.146453468257 703.5174742423659 342.146453468257 C 701.3083352430427 342.146453468257 699.5174742423659 340.35559246758015 699.5174742423659 338.146453468257 C 699.5174742423659 335.93731446893383 701.3083352430427 334.146453468257 703.5174742423659 334.146453468257 C 705.726613241689 334.146453468257 707.5174742423659 335.93731446893383 707.5174742423659 338.146453468257 Z" fill-opacity="1"/><path fill="none" stroke="rgb(0,0,0)" paint-order="fill stroke markers" d=" M 707.5174742423659 338.146453468257 C 707.5174742423659 340.35559246758015 705.726613241689 342.146453468257 703.5174742423659 342.146453468257 C 701.3083352430427 342.146453468257 699.5174742423659 340.35559246758015 699.5174742423659 338.146453468257 C 699.5174742423659 335.93731446893383 701.3083352430427 334.146453468257 703.5174742423659 334.146453468257 C 705.726613241689 334.146453468257 707.5174742423659 335.93731446893383 707.5174742423659 338.146453468257 Z" stroke-opacity="1" stroke-linecap="round" stroke-linejoin="round" stroke-miterlimit="10"/><text fill="rgb(46,125,50)" stroke="none" font-family="geogebra-sans-serif, sans-serif" font-size="24px" font-style="normal" font-weight="normal" text-decoration="normal" x="723" y="348" text-anchor="start" dominant-baseline="alphabetic" fill-opacity="1">Q</text><text fill="none" stroke="rgb(255,255,255)" font-family="geogebra-sans-serif, sans-serif" font-size="24px" font-style="normal" font-weight="normal" text-decoration="normal" x="723" y="348" text-anchor="start" dominant-baseline="alphabetic" stroke-opacity="1" stroke-linejoin="bevel" stroke-miterlimit="10" stroke-width="3">Q</text><text fill="rgb(46,125,50)" stroke="none" font-family="geogebra-sans-serif, sans-serif" font-size="24px" font-style="normal" font-weight="normal" text-decoration="normal" x="723" y="348" text-anchor="start" dominant-baseline="alphabetic" fill-opacity="1">Q</text><path fill="rgb(46,125,50)" stroke="none" paint-order="stroke fill markers" d=" M 507.80529873200805 341.46091774093895 C 507.80529873200805 343.6700567402621 506.0144377313312 345.46091774093895 503.80529873200805 345.46091774093895 C 501.5961597326849 345.46091774093895 499.80529873200805 343.6700567402621 499.80529873200805 341.46091774093895 C 499.80529873200805 339.2517787416158 501.5961597326849 337.46091774093895 503.80529873200805 337.46091774093895 C 506.0144377313312 337.46091774093895 507.80529873200805 339.2517787416158 507.80529873200805 341.46091774093895 Z" fill-opacity="1"/><path fill="none" stroke="rgb(0,0,0)" paint-order="fill stroke markers" d=" M 507.80529873200805 341.46091774093895 C 507.80529873200805 343.6700567402621 506.0144377313312 345.46091774093895 503.80529873200805 345.46091774093895 C 501.5961597326849 345.46091774093895 499.80529873200805 343.6700567402621 499.80529873200805 341.46091774093895 C 499.80529873200805 339.2517787416158 501.5961597326849 337.46091774093895 503.80529873200805 337.46091774093895 C 506.0144377313312 337.46091774093895 507.80529873200805 339.2517787416158 507.80529873200805 341.46091774093895 Z" stroke-opacity="1" stroke-linecap="round" stroke-linejoin="round" stroke-miterlimit="10"/><text fill="rgb(46,125,50)" stroke="none" font-family="geogebra-sans-serif, sans-serif" font-size="24px" font-style="normal" font-weight="normal" text-decoration="normal" x="474" y="363" text-anchor="start" dominant-baseline="alphabetic" fill-opacity="1">P</text><text fill="none" stroke="rgb(255,255,255)" font-family="geogebra-sans-serif, sans-serif" font-size="24px" font-style="normal" font-weight="normal" text-decoration="normal" x="474" y="363" text-anchor="start" dominant-baseline="alphabetic" stroke-opacity="1" stroke-linejoin="bevel" stroke-miterlimit="10" stroke-width="3">P</text><text fill="rgb(46,125,50)" stroke="none" font-family="geogebra-sans-serif, sans-serif" font-size="24px" font-style="normal" font-weight="normal" text-decoration="normal" x="474" y="363" text-anchor="start" dominant-baseline="alphabetic" fill-opacity="1">P</text><path fill="rgb(211,47,47)" stroke="none" paint-order="stroke fill markers" d=" M 605.9376766013406 235.94199848719933 C 605.9376766013406 238.1511374865225 604.1468156006638 239.94199848719933 601.9376766013406 239.94199848719933 C 599.7285376020175 239.94199848719933 597.9376766013406 238.1511374865225 597.9376766013406 235.94199848719933 C 597.9376766013406 233.73285948787614 599.7285376020175 231.94199848719933 601.9376766013406 231.94199848719933 C 604.1468156006638 231.94199848719933 605.9376766013406 233.73285948787614 605.9376766013406 235.94199848719933 Z" fill-opacity="1"/><path fill="none" stroke="rgb(0,0,0)" paint-order="fill stroke markers" d=" M 605.9376766013406 235.94199848719933 C 605.9376766013406 238.1511374865225 604.1468156006638 239.94199848719933 601.9376766013406 239.94199848719933 C 599.7285376020175 239.94199848719933 597.9376766013406 238.1511374865225 597.9376766013406 235.94199848719933 C 597.9376766013406 233.73285948787614 599.7285376020175 231.94199848719933 601.9376766013406 231.94199848719933 C 604.1468156006638 231.94199848719933 605.9376766013406 233.73285948787614 605.9376766013406 235.94199848719933 Z" stroke-opacity="1" stroke-linecap="round" stroke-linejoin="round" stroke-miterlimit="10"/></g></g></svg>