<svg version="1.1" xmlns="http://www.w3.org/2000/svg" xmlns:xlink="http://www.w3.org/1999/xlink" width="1310" height="704"><defs><clipPath id="kbnTBRrrofKt"><path fill="none" stroke="none" d=" M 0 0 L 1310 0 L 1310 704 L 0 704 L 0 0 Z"/></clipPath></defs><g transform="scale(1,1)" clip-path="url(#kbnTBRrrofKt)"><g><rect fill="rgb(255,255,255)" stroke="none" x="0" y="0" width="1310" height="704" fill-opacity="1"/><path fill="none" stroke="rgb(97,97,97)" paint-order="fill stroke markers" d=" M 942.2093216245046 370.30089504083935 C 942.2093216245046 529.4670446477868 813.1796634426038 658.4967028296876 654.0135138356563 658.4967028296876 C 494.84736422870884 658.4967028296876 365.81770604680804 529.4670446477868 365.81770604680804 370.30089504083935 C 365.81770604680804 211.13474543389185 494.84736422870884 82.10508725199105 654.0135138356563 82.10508725199105 C 813.1796634426038 82.10508725199105 942.2093216245046 211.13474543389185 942.2093216245046 370.30089504083935 Z" stroke-opacity="0.8" stroke-linecap="round" stroke-linejoin="round" stroke-miterlimit="10" stroke-width="2.5"/><path fill="none" stroke="rgb(97,97,97)" paint-order="fill stroke markers" d=" M 746.0355804957646 235.94199848719927 C 746.0355804957646 315.525073290673 681.5207514048143 380.0399023816234 601.9376766013405 380.0399023816234 C 522.3546017978667 380.0399023816234 457.8397727069164 315.525073290673 457.8397727069164 235.94199848719927 C 457.8397727069164 156.35892368372555 522.3546017978667 91.84409459277515 601.9376766013405 91.84409459277515 C 681.5207514048143 91.84409459277515 746.0355804957646 156.35892368372555 746.0355804957646 235.94199848719927 Z" stroke-opacity="0.8" stroke-linejoin="round" stroke-miterlimit="10" stroke-width="1.5" stroke-dasharray="9.5,8"/><path fill="rgb(0,0,0)" stroke="none" paint-order="stroke fill markers" fill-rule="evenodd" d=" M 503.805298732008 341.4609177409389 L 524.6379890909919 345.46079428986377 L 528.6378656399185 324.62810393087875 L 507.8051752809329 320.628227381955 L 503.805298732008 341.4609177409389" fill-opacity="0.09803921568627451"/><path fill="none" stroke="rgb(0,0,0)" paint-order="fill stroke markers" d=" M 503.805298732008 341.4609177409389 L 524.6379890909919 345.46079428986377 L 528.6378656399185 324.62810393087875 L 507.8051752809329 320.628227381955 L 503.805298732008 341.4609177409389" stroke-opacity="0.6" stroke-linecap="round" stroke-linejoin="round" stroke-miterlimit="10" stroke-width="2"/><path fill="rgb(0,0,0)" stroke="none" paint-order="stroke fill markers" fill-rule="evenodd" d=" M 703.5174742423658 338.14645346825694 L 692.3475402083212 320.94957661008766 L 675.1506633501501 332.11951064413176 L 686.3205973841965 349.31638750230144 L 703.5174742423658 338.14645346825694" fill-opacity="0.09803921568627451"/><path fill="none" stroke="rgb(0,0,0)" paint-order="fill stroke markers" d=" M 703.5174742423658 338.14645346825694 L 692.3475402083212 320.94957661008766 L 675.1506633501501 332.11951064413176 L 686.3205973841965 349.31638750230144 L 703.5174742423658 338.14645346825694" stroke-opacity="0.6" stroke-linecap="round" stroke-linejoin="round" stroke-miterlimit="10" stroke-width="2"/><path fill="rgb(0,0,0)" stroke="none" paint-order="stroke fill markers" d=" M 624.55164058926 364.6442153775313 C 623.0898952851612 372.2574721697126 624.6320495723071 380.1410137423228 628.854834715017 386.6422800771424 L 654.0135138356563 370.30089504083935 Z" fill-opacity="0.09803921568627451"/><path fill="none" stroke="rgb(0,0,0)" paint-order="fill stroke markers" d=" M 624.55164058926 364.6442153775313 C 623.0898952851612 372.2574721697126 624.6320495723071 380.1410137423228 628.854834715017 386.6422800771424 L 654.0135138356563 370.30089504083935 Z" stroke-opacity="0.6" stroke-linecap="round" stroke-linejoin="round" stroke-miterlimit="10" stroke-width="2"/><g transform="scale(27,27)"><g transform="translate(22.11111111111111,14.361111666666666)"><path fill="rgb(0,0,0)" stroke="none" paint-order="stroke fill markers" d=" M 0.455 -0.5 L 0.455 -0.5 Q 0.455 -0.34700000000000003 0.377 -0.19 Q 0.307 -0.05 0.222 -0.005 Q 0.191 0.011 0.162 0.011 Q 0.08 0.011 0.052000000000000005 -0.101 Q 0.042 -0.14300000000000002 0.042 -0.194 Q 0.042 -0.35100000000000003 0.122 -0.509 Q 0.192 -0.646 0.277 -0.6900000000000001 Q 0.307 -0.705 0.335 -0.705 Q 0.422 -0.705 0.447 -0.578 Q 0.455 -0.54 0.455 -0.5 M 0.148 -0.363 L 0.148 -0.363 L 0.357 -0.363 Q 0.389 -0.495 0.389 -0.562 Q 0.389 -0.675 0.342 -0.682 Q 0.338 -0.683 0.334 -0.683 Q 0.28300000000000003 -0.683 0.225 -0.578 Q 0.187 -0.511 0.149 -0.368 Q 0.149 -0.365 0.148 -0.363 M 0.34800000000000003 -0.331 L 0.14 -0.331 Q 0.108 -0.21 0.108 -0.133 Q 0.108 -0.013000000000000001 0.162 -0.011 Q 0.218 -0.011 0.278 -0.128 Q 0.317 -0.202 0.34800000000000003 -0.331 Z"/></g></g><path fill="rgb(0,0,0)" stroke="none" paint-order="stroke fill markers" d=" M 544.2051597037167 131.0449751799554 C 551.8184164958981 132.50672048405423 559.7019580685082 130.96456619690838 566.2032244033278 126.74178105419847 L 549.8618393670248 101.58310193355919 Z" fill-opacity="0.09803921568627451"/><path fill="none" stroke="rgb(0,0,0)" paint-order="fill stroke markers" d=" M 544.2051597037167 131.0449751799554 C 551.8184164958981 132.50672048405423 559.7019580685082 130.96456619690838 566.2032244033278 126.74178105419847 L 549.8618393670248 101.58310193355919 Z" stroke-opacity="0.6" stroke-linecap="round" stroke-linejoin="round" stroke-miterlimit="10" stroke-width="2"/><g transform="scale(27,27)"><g transform="translate(20.333333333333332,6.06481537037037)"><path fill="rgb(0,0,0)" stroke="none" paint-order="stroke fill markers" d=" M 0.455 -0.5 L 0.455 -0.5 Q 0.455 -0.34700000000000003 0.377 -0.19 Q 0.307 -0.05 0.222 -0.005 Q 0.191 0.011 0.162 0.011 Q 0.08 0.011 0.052000000000000005 -0.101 Q 0.042 -0.14300000000000002 0.042 -0.194 Q 0.042 -0.35100000000000003 0.122 -0.509 Q 0.192 -0.646 0.277 -0.6900000000000001 Q 0.307 -0.705 0.335 -0.705 Q 0.422 -0.705 0.447 -0.578 Q 0.455 -0.54 0.455 -0.5 M 0.148 -0.363 L 0.148 -0.363 L 0.357 -0.363 Q 0.389 -0.495 0.389 -0.562 Q 0.389 -0.675 0.342 -0.682 Q 0.338 -0.683 0.334 -0.683 Q 0.28300000000000003 -0.683 0.225 -0.578 Q 0.187 -0.511 0.149 -0.368 Q 0.149 -0.365 0.148 -0.363 M 0.34800000000000003 -0.331 L 0.14 -0.331 Q 0.108 -0.21 0.108 -0.133 Q 0.108 -0.013000000000000001 0.162 -0.011 Q 0.218 -0.011 0.278 -0.128 Q 0.317 -0.202 0.34800000000000003 -0.331 Z"/></g></g><path fill="none" stroke="rgb(97,97,97)" paint-order="fill stroke markers" d=" M 503.805298732008 341.4609177409389 L 703.5174742423658 338.14645346825694" stroke-opacity="0.8" stroke-linecap="round" stroke-linejoin="round" stroke-miterlimit="10" stroke-width="2.5"/><path fill="none" stroke="rgb(97,97,97)" paint-order="fill stroke markers" d=" M 654.0135138356563 370.30089504083935 L 549.8618393670248 101.58310193355919" stroke-opacity="0.8" stroke-linejoin="round" stroke-miterlimit="10" stroke-width="2.5" stroke-dasharray="10.5,8"/><path fill="none" stroke="rgb(97,97,97)" paint-order="fill stroke markers" d=" M 370.9872351950625 315.9598495418454 L 937.0397924762501 424.64194053983323" stroke-opacity="0.8" stroke-linecap="round" stroke-linejoin="round" stroke-miterlimit="10" stroke-width="2.5"/><path fill="none" stroke="rgb(97,97,97)" paint-order="fill stroke markers" d=" M 412.32598543322086 527.284850405038 L 895.7010422380918 213.31693967664057" stroke-opacity="0.8" stroke-linecap="round" stroke-linejoin="round" stroke-miterlimit="10" stroke-width="2.5"/><path fill="none" stroke="rgb(97,97,97)" paint-order="fill stroke markers" d=" M 549.8618393670248 101.58310193355919 L 503.805298732008 341.4609177409389" stroke-opacity="0.8" stroke-linecap="round" stroke-linejoin="round" stroke-miterlimit="10" stroke-width="2.5"/><path fill="none" stroke="rgb(97,97,97)" paint-order="fill stroke markers" d=" M 549.8618393670248 101.58310193355919 L 703.5174742423658 338.14645346825694" stroke-opacity="0.8" stroke-linecap="round" stroke-linejoin="round" stroke-miterlimit="10" stroke-width="2.5"/><path fill="rgb(211,47,47)" stroke="none" paint-order="stroke fill markers" d=" M 659.0135138356563 370.30089504083935 C 659.0135138356563 373.0623187899933 656.7749375848103 375.30089504083935 654.0135138356563 375.30089504083935 C 651.2520900865023 375.30089504083935 649.0135138356563 373.0623187899933 649.0135138356563 370.30089504083935 C 649.0135138356563 367.5394712916854 651.2520900865023 365.30089504083935 654.0135138356563 365.30089504083935 C 656.7749375848103 365.30089504083935 659.0135138356563 367.5394712916854 659.0135138356563 370.30089504083935 Z" fill-opacity="1"/><path fill="none" stroke="rgb(0,0,0)" paint-order="fill stroke markers" d=" M 659.0135138356563 370.30089504083935 C 659.0135138356563 373.0623187899933 656.7749375848103 375.30089504083935 654.0135138356563 375.30089504083935 C 651.2520900865023 375.30089504083935 649.0135138356563 373.0623187899933 649.0135138356563 370.30089504083935 C 649.0135138356563 367.5394712916854 651.2520900865023 365.30089504083935 654.0135138356563 365.30089504083935 C 656.7749375848103 365.30089504083935 659.0135138356563 367.5394712916854 659.0135138356563 370.30089504083935 Z" stroke-opacity="1" stroke-linecap="round" stroke-linejoin="round" stroke-miterlimit="10"/><text fill="rgb(211,47,47)" stroke="none" font-family="geogebra-sans-serif, sans-serif" font-size="24px" font-style="normal" font-weight="normal" text-decoration="normal" x="645" y="406" text-anchor="start" dominant-baseline="alphabetic" fill-opacity="1">O</text><text fill="none" stroke="rgb(255,255,255)" font-family="geogebra-sans-serif, sans-serif" font-size="24px" font-style="normal" font-weight="normal" text-decoration="normal" x="645" y="406" text-anchor="start" dominant-baseline="alphabetic" stroke-opacity="1" stroke-linejoin="bevel" stroke-miterlimit="10" stroke-width="3">O</text><text fill="rgb(211,47,47)" stroke="none" font-family="geogebra-sans-serif, sans-serif" font-size="24px" font-style="normal" font-weight="normal" text-decoration="normal" x="645" y="406" text-anchor="start" dominant-baseline="alphabetic" fill-opacity="1">O</text><path fill="rgb(21,101,192)" stroke="none" paint-order="stroke fill markers" d=" M 942.0397924762501 424.64194053983323 C 942.0397924762501 427.4033642889872 939.8012162254041 429.64194053983323 937.0397924762501 429.64194053983323 C 934.2783687270961 429.64194053983323 932.0397924762501 427.4033642889872 932.0397924762501 424.64194053983323 C 932.0397924762501 421.8805167906793 934.2783687270961 419.64194053983323 937.0397924762501 419.64194053983323 C 939.8012162254041 419.64194053983323 942.0397924762501 421.8805167906793 942.0397924762501 424.64194053983323 Z" fill-opacity="1"/><path fill="none" stroke="rgb(0,0,0)" paint-order="fill stroke markers" d=" M 942.0397924762501 424.64194053983323 C 942.0397924762501 427.4033642889872 939.8012162254041 429.64194053983323 937.0397924762501 429.64194053983323 C 934.2783687270961 429.64194053983323 932.0397924762501 427.4033642889872 932.0397924762501 424.64194053983323 C 932.0397924762501 421.8805167906793 934.2783687270961 419.64194053983323 937.0397924762501 419.64194053983323 C 939.8012162254041 419.64194053983323 942.0397924762501 421.8805167906793 942.0397924762501 424.64194053983323 Z" stroke-opacity="1" stroke-linecap="round" stroke-linejoin="round" stroke-miterlimit="10"/><text fill="rgb(21,101,192)" stroke="none" font-family="geogebra-sans-serif, sans-serif" font-size="24px" font-style="normal" font-weight="normal" text-decoration="normal" x="946" y="456" text-anchor="start" dominant-baseline="alphabetic" fill-opacity="1">B</text><text fill="none" stroke="rgb(255,255,255)" font-family="geogebra-sans-serif, sans-serif" font-size="24px" font-style="normal" font-weight="normal" text-decoration="normal" x="946" y="456" text-anchor="start" dominant-baseline="alphabetic" stroke-opacity="1" stroke-linejoin="bevel" stroke-miterlimit="10" stroke-width="3">B</text><text fill="rgb(21,101,192)" stroke="none" font-family="geogebra-sans-serif, sans-serif" font-size="24px" font-style="normal" font-weight="normal" text-decoration="normal" x="946" y="456" text-anchor="start" dominant-baseline="alphabetic" fill-opacity="1">B</text><path fill="rgb(21,101,192)" stroke="none" paint-order="stroke fill markers" d=" M 417.32598543322086 527.284850405038 C 417.32598543322086 530.046274154192 415.0874091823748 532.284850405038 412.32598543322086 532.284850405038 C 409.5645616840669 532.284850405038 407.32598543322086 530.046274154192 407.32598543322086 527.284850405038 C 407.32598543322086 524.523426655884 409.5645616840669 522.284850405038 412.32598543322086 522.284850405038 C 415.0874091823748 522.284850405038 417.32598543322086 524.523426655884 417.32598543322086 527.284850405038 Z" fill-opacity="1"/><path fill="none" stroke="rgb(0,0,0)" paint-order="fill stroke markers" d=" M 417.32598543322086 527.284850405038 C 417.32598543322086 530.046274154192 415.0874091823748 532.284850405038 412.32598543322086 532.284850405038 C 409.5645616840669 532.284850405038 407.32598543322086 530.046274154192 407.32598543322086 527.284850405038 C 407.32598543322086 524.523426655884 409.5645616840669 522.284850405038 412.32598543322086 522.284850405038 C 415.0874091823748 522.284850405038 417.32598543322086 524.523426655884 417.32598543322086 527.284850405038 Z" stroke-opacity="1" stroke-linecap="round" stroke-linejoin="round" stroke-miterlimit="10"/><text fill="rgb(21,101,192)" stroke="none" font-family="geogebra-sans-serif, sans-serif" font-size="24px" font-style="normal" font-weight="normal" text-decoration="normal" x="361" y="535" text-anchor="start" dominant-baseline="alphabetic" fill-opacity="1">C</text><text fill="none" stroke="rgb(255,255,255)" font-family="geogebra-sans-serif, sans-serif" font-size="24px" font-style="normal" font-weight="normal" text-decoration="normal" x="361" y="535" text-anchor="start" dominant-baseline="alphabetic" stroke-opacity="1" stroke-linejoin="bevel" stroke-miterlimit="10" stroke-width="3">C</text><text fill="rgb(21,101,192)" stroke="none" font-family="geogebra-sans-serif, sans-serif" font-size="24px" font-style="normal" font-weight="normal" text-decoration="normal" x="361" y="535" text-anchor="start" dominant-baseline="alphabetic" fill-opacity="1">C</text><path fill="rgb(21,101,192)" stroke="none" paint-order="stroke fill markers" d=" M 554.8618393670248 101.58310193355919 C 554.8618393670248 104.34452568271315 552.6232631161788 106.58310193355919 549.8618393670248 106.58310193355919 C 547.1004156178708 106.58310193355919 544.8618393670248 104.34452568271315 544.8618393670248 101.58310193355919 C 544.8618393670248 98.82167818440523 547.1004156178708 96.58310193355919 549.8618393670248 96.58310193355919 C 552.6232631161788 96.58310193355919 554.8618393670248 98.82167818440523 554.8618393670248 101.58310193355919 Z" fill-opacity="1"/><path fill="none" stroke="rgb(0,0,0)" paint-order="fill stroke markers" d=" M 554.8618393670248 101.58310193355919 C 554.8618393670248 104.34452568271315 552.6232631161788 106.58310193355919 549.8618393670248 106.58310193355919 C 547.1004156178708 106.58310193355919 544.8618393670248 104.34452568271315 544.8618393670248 101.58310193355919 C 544.8618393670248 98.82167818440523 547.1004156178708 96.58310193355919 549.8618393670248 96.58310193355919 C 552.6232631161788 96.58310193355919 554.8618393670248 98.82167818440523 554.8618393670248 101.58310193355919 Z" stroke-opacity="1" stroke-linecap="round" stroke-linejoin="round" stroke-miterlimit="10"/><text fill="rgb(21,101,192)" stroke="none" font-family="geogebra-sans-serif, sans-serif" font-size="24px" font-style="normal" font-weight="normal" text-decoration="normal" x="533" y="84" text-anchor="start" dominant-baseline="alphabetic" fill-opacity="1">M</text><text fill="none" stroke="rgb(255,255,255)" font-family="geogebra-sans-serif, sans-serif" font-size="24px" font-style="normal" font-weight="normal" text-decoration="normal" x="533" y="84" text-anchor="start" dominant-baseline="alphabetic" stroke-opacity="1" stroke-linejoin="bevel" stroke-miterlimit="10" stroke-width="3">M</text><text fill="rgb(21,101,192)" stroke="none" font-family="geogebra-sans-serif, sans-serif" font-size="24px" font-style="normal" font-weight="normal" text-decoration="normal" x="533" y="84" text-anchor="start" dominant-baseline="alphabetic" fill-opacity="1">M</text><path fill="rgb(21,101,192)" stroke="none" paint-order="stroke fill markers" d=" M 375.9872351950625 315.9598495418454 C 375.9872351950625 318.72127329099936 373.74865894421646 320.9598495418454 370.9872351950625 320.9598495418454 C 368.22581144590856 320.9598495418454 365.9872351950625 318.72127329099936 365.9872351950625 315.9598495418454 C 365.9872351950625 313.19842579269147 368.22581144590856 310.9598495418454 370.9872351950625 310.9598495418454 C 373.74865894421646 310.9598495418454 375.9872351950625 313.19842579269147 375.9872351950625 315.9598495418454 Z" fill-opacity="1"/><path fill="none" stroke="rgb(0,0,0)" paint-order="fill stroke markers" d=" M 375.9872351950625 315.9598495418454 C 375.9872351950625 318.72127329099936 373.74865894421646 320.9598495418454 370.9872351950625 320.9598495418454 C 368.22581144590856 320.9598495418454 365.9872351950625 318.72127329099936 365.9872351950625 315.9598495418454 C 365.9872351950625 313.19842579269147 368.22581144590856 310.9598495418454 370.9872351950625 310.9598495418454 C 373.74865894421646 310.9598495418454 375.9872351950625 313.19842579269147 375.9872351950625 315.9598495418454 Z" stroke-opacity="1" stroke-linecap="round" stroke-linejoin="round" stroke-miterlimit="10"/><text fill="rgb(21,101,192)" stroke="none" font-family="geogebra-sans-serif, sans-serif" font-size="24px" font-style="normal" font-weight="normal" text-decoration="normal" x="331" y="292" text-anchor="start" dominant-baseline="alphabetic" fill-opacity="1">A</text><text fill="none" stroke="rgb(255,255,255)" font-family="geogebra-sans-serif, sans-serif" font-size="24px" font-style="normal" font-weight="normal" text-decoration="normal" x="331" y="292" text-anchor="start" dominant-baseline="alphabetic" stroke-opacity="1" stroke-linejoin="bevel" stroke-miterlimit="10" stroke-width="3">A</text><text fill="rgb(21,101,192)" stroke="none" font-family="geogebra-sans-serif, sans-serif" font-size="24px" font-style="normal" font-weight="normal" text-decoration="normal" x="331" y="292" text-anchor="start" dominant-baseline="alphabetic" fill-opacity="1">A</text><path fill="rgb(21,101,192)" stroke="none" paint-order="stroke fill markers" d=" M 900.7010422380918 213.31693967664057 C 900.7010422380918 216.07836342579455 898.4624659872458 218.31693967664057 895.7010422380918 218.31693967664057 C 892.9396184889378 218.31693967664057 890.7010422380918 216.07836342579455 890.7010422380918 213.31693967664057 C 890.7010422380918 210.5555159274866 892.9396184889378 208.31693967664057 895.7010422380918 208.31693967664057 C 898.4624659872458 208.31693967664057 900.7010422380918 210.5555159274866 900.7010422380918 213.31693967664057 Z" fill-opacity="1"/><path fill="none" stroke="rgb(0,0,0)" paint-order="fill stroke markers" d=" M 900.7010422380918 213.31693967664057 C 900.7010422380918 216.07836342579455 898.4624659872458 218.31693967664057 895.7010422380918 218.31693967664057 C 892.9396184889378 218.31693967664057 890.7010422380918 216.07836342579455 890.7010422380918 213.31693967664057 C 890.7010422380918 210.5555159274866 892.9396184889378 208.31693967664057 895.7010422380918 208.31693967664057 C 898.4624659872458 208.31693967664057 900.7010422380918 210.5555159274866 900.7010422380918 213.31693967664057 Z" stroke-opacity="1" stroke-linecap="round" stroke-linejoin="round" stroke-miterlimit="10"/><text fill="rgb(21,101,192)" stroke="none" font-family="geogebra-sans-serif, sans-serif" font-size="24px" font-style="normal" font-weight="normal" text-decoration="normal" x="900" y="190" text-anchor="start" dominant-baseline="alphabetic" fill-opacity="1">D</text><text fill="none" stroke="rgb(255,255,255)" font-family="geogebra-sans-serif, sans-serif" font-size="24px" font-style="normal" font-weight="normal" text-decoration="normal" x="900" y="190" text-anchor="start" dominant-baseline="alphabetic" stroke-opacity="1" stroke-linejoin="bevel" stroke-miterlimit="10" stroke-width="3">D</text><text fill="rgb(21,101,192)" stroke="none" font-family="geogebra-sans-serif, sans-serif" font-size="24px" font-style="normal" font-weight="normal" text-decoration="normal" x="900" y="190" text-anchor="start" dominant-baseline="alphabetic" fill-opacity="1">D</text><path fill="rgb(46,125,50)" stroke="none" paint-order="stroke fill markers" d=" M 707.5174742423658 338.14645346825694 C 707.5174742423658 340.3555924675801 705.7266132416889 342.14645346825694 703.5174742423658 342.14645346825694 C 701.3083352430426 342.14645346825694 699.5174742423658 340.3555924675801 699.5174742423658 338.14645346825694 C 699.5174742423658 335.9373144689338 701.3083352430426 334.14645346825694 703.5174742423658 334.14645346825694 C 705.7266132416889 334.14645346825694 707.5174742423658 335.9373144689338 707.5174742423658 338.14645346825694 Z" fill-opacity="1"/><path fill="none" stroke="rgb(0,0,0)" paint-order="fill stroke markers" d=" M 707.5174742423658 338.14645346825694 C 707.5174742423658 340.3555924675801 705.7266132416889 342.14645346825694 703.5174742423658 342.14645346825694 C 701.3083352430426 342.14645346825694 699.5174742423658 340.3555924675801 699.5174742423658 338.14645346825694 C 699.5174742423658 335.9373144689338 701.3083352430426 334.14645346825694 703.5174742423658 334.14645346825694 C 705.7266132416889 334.14645346825694 707.5174742423658 335.9373144689338 707.5174742423658 338.14645346825694 Z" stroke-opacity="1" stroke-linecap="round" stroke-linejoin="round" stroke-miterlimit="10"/><text fill="rgb(46,125,50)" stroke="none" font-family="geogebra-sans-serif, sans-serif" font-size="24px" font-style="normal" font-weight="normal" text-decoration="normal" x="723" y="348" text-anchor="start" dominant-baseline="alphabetic" fill-opacity="1">Q</text><text fill="none" stroke="rgb(255,255,255)" font-family="geogebra-sans-serif, sans-serif" font-size="24px" font-style="normal" font-weight="normal" text-decoration="normal" x="723" y="348" text-anchor="start" dominant-baseline="alphabetic" stroke-opacity="1" stroke-linejoin="bevel" stroke-miterlimit="10" stroke-width="3">Q</text><text fill="rgb(46,125,50)" stroke="none" font-family="geogebra-sans-serif, sans-serif" font-size="24px" font-style="normal" font-weight="normal" text-decoration="normal" x="723" y="348" text-anchor="start" dominant-baseline="alphabetic" fill-opacity="1">Q</text><path fill="rgb(46,125,50)" stroke="none" paint-order="stroke fill markers" d=" M 507.805298732008 341.4609177409389 C 507.805298732008 343.67005674026205 506.01443773133116 345.4609177409389 503.805298732008 345.4609177409389 C 501.59615973268484 345.4609177409389 499.805298732008 343.67005674026205 499.805298732008 341.4609177409389 C 499.805298732008 339.25177874161574 501.59615973268484 337.4609177409389 503.805298732008 337.4609177409389 C 506.01443773133116 337.4609177409389 507.805298732008 339.25177874161574 507.805298732008 341.4609177409389 Z" fill-opacity="1"/><path fill="none" stroke="rgb(0,0,0)" paint-order="fill stroke markers" d=" M 507.805298732008 341.4609177409389 C 507.805298732008 343.67005674026205 506.01443773133116 345.4609177409389 503.805298732008 345.4609177409389 C 501.59615973268484 345.4609177409389 499.805298732008 343.67005674026205 499.805298732008 341.4609177409389 C 499.805298732008 339.25177874161574 501.59615973268484 337.4609177409389 503.805298732008 337.4609177409389 C 506.01443773133116 337.4609177409389 507.805298732008 339.25177874161574 507.805298732008 341.4609177409389 Z" stroke-opacity="1" stroke-linecap="round" stroke-linejoin="round" stroke-miterlimit="10"/><text fill="rgb(46,125,50)" stroke="none" font-family="geogebra-sans-serif, sans-serif" font-size="24px" font-style="normal" font-weight="normal" text-decoration="normal" x="474" y="363" text-anchor="start" dominant-baseline="alphabetic" fill-opacity="1">P</text><text fill="none" stroke="rgb(255,255,255)" font-family="geogebra-sans-serif, sans-serif" font-size="24px" font-style="normal" font-weight="normal" text-decoration="normal" x="474" y="363" text-anchor="start" dominant-baseline="alphabetic" stroke-opacity="1" stroke-linejoin="bevel" stroke-miterlimit="10" stroke-width="3">P</text><text fill="rgb(46,125,50)" stroke="none" font-family="geogebra-sans-serif, sans-serif" font-size="24px" font-style="normal" font-weight="normal" text-decoration="normal" x="474" y="363" text-anchor="start" dominant-baseline="alphabetic" fill-opacity="1">P</text><path fill="rgb(211,47,47)" stroke="none" paint-order="stroke fill markers" d=" M 605.9376766013405 235.94199848719927 C 605.9376766013405 238.15113748652243 604.1468156006637 239.94199848719927 601.9376766013405 239.94199848719927 C 599.7285376020174 239.94199848719927 597.9376766013405 238.15113748652243 597.9376766013405 235.94199848719927 C 597.9376766013405 233.73285948787608 599.7285376020174 231.94199848719927 601.9376766013405 231.94199848719927 C 604.1468156006637 231.94199848719927 605.9376766013405 233.73285948787608 605.9376766013405 235.94199848719927 Z" fill-opacity="1"/><path fill="none" stroke="rgb(0,0,0)" paint-order="fill stroke markers" d=" M 605.9376766013405 235.94199848719927 C 605.9376766013405 238.15113748652243 604.1468156006637 239.94199848719927 601.9376766013405 239.94199848719927 C 599.7285376020174 239.94199848719927 597.9376766013405 238.15113748652243 597.9376766013405 235.94199848719927 C 597.9376766013405 233.73285948787608 599.7285376020174 231.94199848719927 601.9376766013405 231.94199848719927 C 604.1468156006637 231.94199848719927 605.9376766013405 233.73285948787608 605.9376766013405 235.94199848719927 Z" stroke-opacity="1" stroke-linecap="round" stroke-linejoin="round" stroke-miterlimit="10"/></g></g></svg>