<svg version="1.1" xmlns="http://www.w3.org/2000/svg" xmlns:xlink="http://www.w3.org/1999/xlink" width="1310" height="704"><defs><clipPath id="rPMmgkWiyOvW"><path fill="none" stroke="none" d=" M 0 0 L 1310 0 L 1310 704 L 0 704 L 0 0 Z"/></clipPath></defs><g transform="scale(1,1)" clip-path="url(#rPMmgkWiyOvW)"><g><rect fill="rgb(255,255,255)" stroke="none" x="0" y="0" width="1310" height="704" fill-opacity="1"/><path fill="none" stroke="rgb(97,97,97)" paint-order="fill stroke markers" d=" M 942.2093216245047 370.30089504083935 C 942.2093216245047 529.4670446477869 813.1796634426039 658.4967028296877 654.0135138356563 658.4967028296877 C 494.8473642287088 658.4967028296877 365.817706046808 529.4670446477869 365.817706046808 370.30089504083935 C 365.817706046808 211.13474543389182 494.8473642287088 82.105087251991 654.0135138356563 82.105087251991 C 813.1796634426039 82.105087251991 942.2093216245047 211.13474543389182 942.2093216245047 370.30089504083935 Z" stroke-opacity="0.8" stroke-linecap="round" stroke-linejoin="round" stroke-miterlimit="10" stroke-width="2.5"/><path fill="none" stroke="rgb(97,97,97)" paint-order="fill stroke markers" d=" M 939.6374232585788 343.19746968694415 C 939.6374232585788 422.7805444904179 875.1225941676284 487.2953735813684 795.5395193641547 487.2953735813684 C 715.9564445606809 487.2953735813684 651.4416154697304 422.7805444904179 651.4416154697304 343.19746968694415 C 651.4416154697304 263.61439488347037 715.9564445606809 199.09956579251994 795.5395193641547 199.09956579251994 C 875.1225941676284 199.09956579251994 939.6374232585788 263.61439488347037 939.6374232585788 343.19746968694415 Z" stroke-opacity="0.8" stroke-linejoin="round" stroke-miterlimit="10" stroke-width="1.5" stroke-dasharray="9.5,8"/><path fill="rgb(0,0,0)" stroke="none" paint-order="stroke fill markers" fill-rule="evenodd" d=" M 916.9643885126641 420.7874629788247 L 920.964265061589 399.9547726198408 L 900.1315747026039 395.95489607091423 L 896.1316981536802 416.7875864298998 L 916.9643885126641 420.7874629788247" fill-opacity="0.09803921568627451"/><path fill="none" stroke="rgb(0,0,0)" paint-order="fill stroke markers" d=" M 916.9643885126641 420.7874629788247 L 920.964265061589 399.9547726198408 L 900.1315747026039 395.95489607091423 L 896.1316981536802 416.7875864298998 L 916.9643885126641 420.7874629788247" stroke-opacity="0.6" stroke-linecap="round" stroke-linejoin="round" stroke-miterlimit="10" stroke-width="2"/><path fill="rgb(0,0,0)" stroke="none" paint-order="stroke fill markers" fill-rule="evenodd" d=" M 877.842727090569 224.91649951545207 L 860.0528544786698 236.47160368860156 L 871.6079586518189 254.26147630050278 L 889.3978312637186 242.70637212735133 L 877.842727090569 224.91649951545207" fill-opacity="0.09803921568627451"/><path fill="none" stroke="rgb(0,0,0)" paint-order="fill stroke markers" d=" M 877.842727090569 224.91649951545207 L 860.0528544786698 236.47160368860156 L 871.6079586518189 254.26147630050278 L 889.3978312637186 242.70637212735133 L 877.842727090569 224.91649951545207" stroke-opacity="0.6" stroke-linecap="round" stroke-linejoin="round" stroke-miterlimit="10" stroke-width="2"/><path fill="rgb(0,0,0)" stroke="none" paint-order="stroke fill markers" d=" M 624.5516405892602 364.6442153775313 C 623.0898952851613 372.2574721697126 624.6320495723072 380.1410137423228 628.8548347150171 386.6422800771424 L 654.0135138356563 370.30089504083935 Z" fill-opacity="0.09803921568627451"/><path fill="none" stroke="rgb(0,0,0)" paint-order="fill stroke markers" d=" M 624.5516405892602 364.6442153775313 C 623.0898952851613 372.2574721697126 624.6320495723072 380.1410137423228 628.8548347150171 386.6422800771424 L 654.0135138356563 370.30089504083935 Z" stroke-opacity="0.6" stroke-linecap="round" stroke-linejoin="round" stroke-miterlimit="10" stroke-width="2"/><g transform="scale(27,27)"><g transform="translate(22.11111111111111,14.361111666666666)"><path fill="rgb(0,0,0)" stroke="none" paint-order="stroke fill markers" d=" M 0.455 -0.5 L 0.455 -0.5 Q 0.455 -0.34700000000000003 0.377 -0.19 Q 0.307 -0.05 0.222 -0.005 Q 0.191 0.011 0.162 0.011 Q 0.08 0.011 0.052000000000000005 -0.101 Q 0.042 -0.14300000000000002 0.042 -0.194 Q 0.042 -0.35100000000000003 0.122 -0.509 Q 0.192 -0.646 0.277 -0.6900000000000001 Q 0.307 -0.705 0.335 -0.705 Q 0.422 -0.705 0.447 -0.578 Q 0.455 -0.54 0.455 -0.5 M 0.148 -0.363 L 0.148 -0.363 L 0.357 -0.363 Q 0.389 -0.495 0.389 -0.562 Q 0.389 -0.675 0.342 -0.682 Q 0.338 -0.683 0.334 -0.683 Q 0.28300000000000003 -0.683 0.225 -0.578 Q 0.187 -0.511 0.149 -0.368 Q 0.149 -0.365 0.148 -0.363 M 0.34800000000000003 -0.331 L 0.14 -0.331 Q 0.108 -0.21 0.108 -0.133 Q 0.108 -0.013000000000000001 0.162 -0.011 Q 0.218 -0.011 0.278 -0.128 Q 0.317 -0.202 0.34800000000000003 -0.331 Z"/></g></g><path fill="rgb(0,0,0)" stroke="none" paint-order="stroke fill markers" d=" M 920.72413985635 290.9353652124097 C 910.4583145093611 297.60335457330433 905.2734871443486 309.8397987364751 907.623549791582 321.8533934410571 C 909.9736124388155 333.8669881456391 919.3871312239182 343.2477484904032 931.4088452293449 345.5559175794451 L 937.065524892653 316.09404433304894 Z" fill-opacity="0.09803921568627451"/><path fill="none" stroke="rgb(0,0,0)" paint-order="fill stroke markers" d=" M 920.72413985635 290.9353652124097 C 910.4583145093611 297.60335457330433 905.2734871443486 309.8397987364751 907.623549791582 321.8533934410571 C 909.9736124388155 333.8669881456391 919.3871312239182 343.2477484904032 931.4088452293449 345.5559175794451 L 937.065524892653 316.09404433304894 Z" stroke-opacity="0.6" stroke-linecap="round" stroke-linejoin="round" stroke-miterlimit="10" stroke-width="2"/><g transform="scale(27,27)"><g transform="translate(35.333333333333336,13.20548568148148)"><path fill="rgb(0,0,0)" stroke="none" paint-order="stroke fill markers" d=" M 0.294 -0.64 L 0.294 -0.079 Q 0.294 -0.049 0.306 -0.041 Q 0.323 -0.031 0.387 -0.031 L 0.419 -0.031 L 0.419 0 Q 0.384 -0.003 0.257 -0.003 Q 0.13 -0.003 0.095 0 L 0.095 -0.031 L 0.127 -0.031 Q 0.20400000000000001 -0.031 0.215 -0.049 L 0.216 -0.05 Q 0.22 -0.058 0.22 -0.079 L 0.22 -0.597 Q 0.168 -0.5710000000000001 0.089 -0.5710000000000001 L 0.089 -0.602 Q 0.209 -0.602 0.271 -0.666 Q 0.29 -0.666 0.293 -0.659 L 0.293 -0.659 L 0.293 -0.658 Q 0.294 -0.655 0.294 -0.64 Z"/></g><g transform="translate(35.83333533333334,13.20548568148148)"><path fill="rgb(0,0,0)" stroke="none" paint-order="stroke fill markers" d=" M 0.163 -0.457 L 0.28700000000000003 -0.377 Q 0.386 -0.435 0.386 -0.517 Q 0.386 -0.583 0.326 -0.62 Q 0.291 -0.641 0.249 -0.641 Q 0.177 -0.641 0.136 -0.596 L 0.136 -0.596 L 0.135 -0.595 Q 0.113 -0.5690000000000001 0.113 -0.538 Q 0.113 -0.49 0.163 -0.457 M 0.309 -0.362 L 0.309 -0.362 Q 0.386 -0.314 0.403 -0.296 Q 0.406 -0.294 0.40800000000000003 -0.291 Q 0.457 -0.23700000000000002 0.457 -0.168 Q 0.457 -0.079 0.383 -0.023 Q 0.325 0.022 0.249 0.022 Q 0.154 0.022 0.092 -0.037 Q 0.042 -0.085 0.042 -0.151 Q 0.042 -0.263 0.186 -0.335 Q 0.124 -0.377 0.113 -0.389 Q 0.069 -0.438 0.069 -0.499 Q 0.069 -0.579 0.136 -0.629 Q 0.186 -0.666 0.25 -0.666 Q 0.337 -0.666 0.391 -0.611 Q 0.43 -0.5710000000000001 0.43 -0.517 Q 0.43 -0.424 0.309 -0.362 M 0.209 -0.32 L 0.209 -0.32 Q 0.097 -0.25 0.092 -0.151 Q 0.092 -0.078 0.155 -0.035 Q 0.197 -0.006 0.25 -0.006 Q 0.328 -0.006 0.375 -0.055 Q 0.40700000000000003 -0.089 0.40700000000000003 -0.132 Q 0.40700000000000003 -0.19 0.343 -0.23500000000000001 Q 0.341 -0.23600000000000002 0.332 -0.242 L 0.209 -0.32 Z"/></g><g transform="translate(36.33333733333334,13.20548568148148)"><path fill="rgb(0,0,0)" stroke="none" paint-order="stroke fill markers" d=" M 0.46 -0.32 Q 0.46 -0.17400000000000002 0.423 -0.094 Q 0.364 0.018000000000000002 0.249 0.022 Q 0.158 0.022 0.10300000000000001 -0.05 Q 0.092 -0.063 0.084 -0.079 Q 0.039 -0.162 0.039 -0.32 Q 0.039 -0.467 0.076 -0.547 Q 0.126 -0.659 0.23800000000000002 -0.666 L 0.25 -0.666 Q 0.339 -0.666 0.395 -0.595 L 0.395 -0.594 Q 0.40900000000000003 -0.5760000000000001 0.42 -0.554 Q 0.46 -0.46900000000000003 0.46 -0.32 M 0.249 0 L 0.249 0 Q 0.312 0 0.34600000000000003 -0.061 Q 0.36 -0.088 0.366 -0.125 Q 0.377 -0.189 0.377 -0.332 Q 0.377 -0.47100000000000003 0.367 -0.527 Q 0.34900000000000003 -0.622 0.275 -0.641 Q 0.262 -0.644 0.249 -0.644 Q 0.179 -0.644 0.147 -0.5740000000000001 Q 0.136 -0.55 0.13 -0.516 Q 0.122 -0.462 0.122 -0.332 Q 0.122 -0.181 0.133 -0.121 Q 0.151 -0.025 0.221 -0.004 Q 0.23500000000000001 0 0.249 0 Z"/></g><g transform="translate(36.83333933333334,12.792593681481481) scale(0.7,0.7)"><path fill="rgb(0,0,0)" stroke="none" paint-order="stroke fill markers" d=" M 0.443 -0.25 L 0.443 -0.25 Q 0.443 -0.161 0.376 -0.10300000000000001 Q 0.321 -0.056 0.249 -0.056 Q 0.161 -0.056 0.10300000000000001 -0.124 Q 0.056 -0.179 0.056 -0.25 Q 0.056 -0.339 0.123 -0.397 Q 0.178 -0.444 0.25 -0.444 Q 0.338 -0.444 0.396 -0.376 Q 0.443 -0.321 0.443 -0.25 M 0.25 -0.096 L 0.25 -0.096 Q 0.325 -0.096 0.371 -0.156 Q 0.403 -0.198 0.403 -0.25 Q 0.403 -0.326 0.343 -0.372 Q 0.302 -0.404 0.25 -0.404 Q 0.17300000000000001 -0.404 0.126 -0.342 Q 0.096 -0.301 0.096 -0.25 Q 0.096 -0.17500000000000002 0.155 -0.129 Q 0.197 -0.096 0.25 -0.096 Z"/></g><g transform="translate(37.424012955738895,13.20548568148148)"><path fill="rgb(0,0,0)" stroke="none" paint-order="stroke fill markers" d=" M 0.661 -0.23 L 0.116 -0.23 Q 0.084 -0.23 0.083 -0.25 Q 0.083 -0.27 0.116 -0.27 L 0.661 -0.27 Q 0.6930000000000001 -0.27 0.6940000000000001 -0.25 Q 0.6940000000000001 -0.23 0.661 -0.23 Z"/></g><g transform="translate(38.42401684462778,13.20548568148148)"><path fill="rgb(0,0,0)" stroke="none" paint-order="stroke fill markers" d=" M 0.455 -0.5 L 0.455 -0.5 Q 0.455 -0.34700000000000003 0.377 -0.19 Q 0.307 -0.05 0.222 -0.005 Q 0.191 0.011 0.162 0.011 Q 0.08 0.011 0.052000000000000005 -0.101 Q 0.042 -0.14300000000000002 0.042 -0.194 Q 0.042 -0.35100000000000003 0.122 -0.509 Q 0.192 -0.646 0.277 -0.6900000000000001 Q 0.307 -0.705 0.335 -0.705 Q 0.422 -0.705 0.447 -0.578 Q 0.455 -0.54 0.455 -0.5 M 0.148 -0.363 L 0.148 -0.363 L 0.357 -0.363 Q 0.389 -0.495 0.389 -0.562 Q 0.389 -0.675 0.342 -0.682 Q 0.338 -0.683 0.334 -0.683 Q 0.28300000000000003 -0.683 0.225 -0.578 Q 0.187 -0.511 0.149 -0.368 Q 0.149 -0.365 0.148 -0.363 M 0.34800000000000003 -0.331 L 0.14 -0.331 Q 0.108 -0.21 0.108 -0.133 Q 0.108 -0.013000000000000001 0.162 -0.011 Q 0.218 -0.011 0.278 -0.128 Q 0.317 -0.202 0.34800000000000003 -0.331 Z"/></g></g><path fill="none" stroke="rgb(97,97,97)" paint-order="fill stroke markers" d=" M 916.9643885126641 420.7874629788247 L 877.842727090569 224.91649951545207" stroke-opacity="0.8" stroke-linecap="round" stroke-linejoin="round" stroke-miterlimit="10" stroke-width="2.5"/><path fill="none" stroke="rgb(97,97,97)" paint-order="fill stroke markers" d=" M 654.0135138356563 370.30089504083935 L 937.065524892653 316.09404433304894" stroke-opacity="0.8" stroke-linejoin="round" stroke-miterlimit="10" stroke-width="2.5" stroke-dasharray="10.5,8"/><path fill="none" stroke="rgb(97,97,97)" paint-order="fill stroke markers" d=" M 370.98723519506257 315.9598495418454 L 937.0397924762502 424.6419405398333" stroke-opacity="0.8" stroke-linecap="round" stroke-linejoin="round" stroke-miterlimit="10" stroke-width="2.5"/><path fill="none" stroke="rgb(97,97,97)" paint-order="fill stroke markers" d=" M 412.3259854332209 527.2848504050381 L 895.7010422380919 213.31693967664054" stroke-opacity="0.8" stroke-linecap="round" stroke-linejoin="round" stroke-miterlimit="10" stroke-width="2.5"/><path fill="none" stroke="rgb(97,97,97)" paint-order="fill stroke markers" d=" M 937.065524892653 316.09404433304894 L 916.9643885126641 420.7874629788247" stroke-opacity="0.8" stroke-linecap="round" stroke-linejoin="round" stroke-miterlimit="10" stroke-width="2.5"/><path fill="none" stroke="rgb(97,97,97)" paint-order="fill stroke markers" d=" M 937.065524892653 316.09404433304894 L 877.842727090569 224.91649951545207" stroke-opacity="0.8" stroke-linecap="round" stroke-linejoin="round" stroke-miterlimit="10" stroke-width="2.5"/><path fill="rgb(211,47,47)" stroke="none" paint-order="stroke fill markers" d=" M 659.0135138356563 370.30089504083935 C 659.0135138356563 373.0623187899933 656.7749375848103 375.30089504083935 654.0135138356563 375.30089504083935 C 651.2520900865023 375.30089504083935 649.0135138356563 373.0623187899933 649.0135138356563 370.30089504083935 C 649.0135138356563 367.5394712916854 651.2520900865023 365.30089504083935 654.0135138356563 365.30089504083935 C 656.7749375848103 365.30089504083935 659.0135138356563 367.5394712916854 659.0135138356563 370.30089504083935 Z" fill-opacity="1"/><path fill="none" stroke="rgb(0,0,0)" paint-order="fill stroke markers" d=" M 659.0135138356563 370.30089504083935 C 659.0135138356563 373.0623187899933 656.7749375848103 375.30089504083935 654.0135138356563 375.30089504083935 C 651.2520900865023 375.30089504083935 649.0135138356563 373.0623187899933 649.0135138356563 370.30089504083935 C 649.0135138356563 367.5394712916854 651.2520900865023 365.30089504083935 654.0135138356563 365.30089504083935 C 656.7749375848103 365.30089504083935 659.0135138356563 367.5394712916854 659.0135138356563 370.30089504083935 Z" stroke-opacity="1" stroke-linecap="round" stroke-linejoin="round" stroke-miterlimit="10"/><text fill="rgb(211,47,47)" stroke="none" font-family="geogebra-sans-serif, sans-serif" font-size="24px" font-style="normal" font-weight="normal" text-decoration="normal" x="645" y="406" text-anchor="start" dominant-baseline="alphabetic" fill-opacity="1">O</text><text fill="none" stroke="rgb(255,255,255)" font-family="geogebra-sans-serif, sans-serif" font-size="24px" font-style="normal" font-weight="normal" text-decoration="normal" x="645" y="406" text-anchor="start" dominant-baseline="alphabetic" stroke-opacity="1" stroke-linejoin="bevel" stroke-miterlimit="10" stroke-width="3">O</text><text fill="rgb(211,47,47)" stroke="none" font-family="geogebra-sans-serif, sans-serif" font-size="24px" font-style="normal" font-weight="normal" text-decoration="normal" x="645" y="406" text-anchor="start" dominant-baseline="alphabetic" fill-opacity="1">O</text><path fill="rgb(21,101,192)" stroke="none" paint-order="stroke fill markers" d=" M 942.0397924762502 424.6419405398333 C 942.0397924762502 427.40336428898723 939.8012162254042 429.6419405398333 937.0397924762502 429.6419405398333 C 934.2783687270962 429.6419405398333 932.0397924762502 427.40336428898723 932.0397924762502 424.6419405398333 C 932.0397924762502 421.88051679067934 934.2783687270962 419.6419405398333 937.0397924762502 419.6419405398333 C 939.8012162254042 419.6419405398333 942.0397924762502 421.88051679067934 942.0397924762502 424.6419405398333 Z" fill-opacity="1"/><path fill="none" stroke="rgb(0,0,0)" paint-order="fill stroke markers" d=" M 942.0397924762502 424.6419405398333 C 942.0397924762502 427.40336428898723 939.8012162254042 429.6419405398333 937.0397924762502 429.6419405398333 C 934.2783687270962 429.6419405398333 932.0397924762502 427.40336428898723 932.0397924762502 424.6419405398333 C 932.0397924762502 421.88051679067934 934.2783687270962 419.6419405398333 937.0397924762502 419.6419405398333 C 939.8012162254042 419.6419405398333 942.0397924762502 421.88051679067934 942.0397924762502 424.6419405398333 Z" stroke-opacity="1" stroke-linecap="round" stroke-linejoin="round" stroke-miterlimit="10"/><text fill="rgb(21,101,192)" stroke="none" font-family="geogebra-sans-serif, sans-serif" font-size="24px" font-style="normal" font-weight="normal" text-decoration="normal" x="958" y="442" text-anchor="start" dominant-baseline="alphabetic" fill-opacity="1">B</text><text fill="none" stroke="rgb(255,255,255)" font-family="geogebra-sans-serif, sans-serif" font-size="24px" font-style="normal" font-weight="normal" text-decoration="normal" x="958" y="442" text-anchor="start" dominant-baseline="alphabetic" stroke-opacity="1" stroke-linejoin="bevel" stroke-miterlimit="10" stroke-width="3">B</text><text fill="rgb(21,101,192)" stroke="none" font-family="geogebra-sans-serif, sans-serif" font-size="24px" font-style="normal" font-weight="normal" text-decoration="normal" x="958" y="442" text-anchor="start" dominant-baseline="alphabetic" fill-opacity="1">B</text><path fill="rgb(21,101,192)" stroke="none" paint-order="stroke fill markers" d=" M 417.3259854332209 527.2848504050381 C 417.3259854332209 530.0462741541921 415.08740918237487 532.2848504050381 412.3259854332209 532.2848504050381 C 409.564561684067 532.2848504050381 407.3259854332209 530.0462741541921 407.3259854332209 527.2848504050381 C 407.3259854332209 524.5234266558841 409.564561684067 522.2848504050381 412.3259854332209 522.2848504050381 C 415.08740918237487 522.2848504050381 417.3259854332209 524.5234266558841 417.3259854332209 527.2848504050381 Z" fill-opacity="1"/><path fill="none" stroke="rgb(0,0,0)" paint-order="fill stroke markers" d=" M 417.3259854332209 527.2848504050381 C 417.3259854332209 530.0462741541921 415.08740918237487 532.2848504050381 412.3259854332209 532.2848504050381 C 409.564561684067 532.2848504050381 407.3259854332209 530.0462741541921 407.3259854332209 527.2848504050381 C 407.3259854332209 524.5234266558841 409.564561684067 522.2848504050381 412.3259854332209 522.2848504050381 C 415.08740918237487 522.2848504050381 417.3259854332209 524.5234266558841 417.3259854332209 527.2848504050381 Z" stroke-opacity="1" stroke-linecap="round" stroke-linejoin="round" stroke-miterlimit="10"/><text fill="rgb(21,101,192)" stroke="none" font-family="geogebra-sans-serif, sans-serif" font-size="24px" font-style="normal" font-weight="normal" text-decoration="normal" x="361" y="535" text-anchor="start" dominant-baseline="alphabetic" fill-opacity="1">C</text><text fill="none" stroke="rgb(255,255,255)" font-family="geogebra-sans-serif, sans-serif" font-size="24px" font-style="normal" font-weight="normal" text-decoration="normal" x="361" y="535" text-anchor="start" dominant-baseline="alphabetic" stroke-opacity="1" stroke-linejoin="bevel" stroke-miterlimit="10" stroke-width="3">C</text><text fill="rgb(21,101,192)" stroke="none" font-family="geogebra-sans-serif, sans-serif" font-size="24px" font-style="normal" font-weight="normal" text-decoration="normal" x="361" y="535" text-anchor="start" dominant-baseline="alphabetic" fill-opacity="1">C</text><path fill="rgb(21,101,192)" stroke="none" paint-order="stroke fill markers" d=" M 942.065524892653 316.09404433304894 C 942.065524892653 318.8554680822029 939.826948641807 321.09404433304894 937.065524892653 321.09404433304894 C 934.304101143499 321.09404433304894 932.065524892653 318.8554680822029 932.065524892653 316.09404433304894 C 932.065524892653 313.332620583895 934.304101143499 311.09404433304894 937.065524892653 311.09404433304894 C 939.826948641807 311.09404433304894 942.065524892653 313.332620583895 942.065524892653 316.09404433304894 Z" fill-opacity="1"/><path fill="none" stroke="rgb(0,0,0)" paint-order="fill stroke markers" d=" M 942.065524892653 316.09404433304894 C 942.065524892653 318.8554680822029 939.826948641807 321.09404433304894 937.065524892653 321.09404433304894 C 934.304101143499 321.09404433304894 932.065524892653 318.8554680822029 932.065524892653 316.09404433304894 C 932.065524892653 313.332620583895 934.304101143499 311.09404433304894 937.065524892653 311.09404433304894 C 939.826948641807 311.09404433304894 942.065524892653 313.332620583895 942.065524892653 316.09404433304894 Z" stroke-opacity="1" stroke-linecap="round" stroke-linejoin="round" stroke-miterlimit="10"/><text fill="rgb(21,101,192)" stroke="none" font-family="geogebra-sans-serif, sans-serif" font-size="24px" font-style="normal" font-weight="normal" text-decoration="normal" x="957" y="316" text-anchor="start" dominant-baseline="alphabetic" fill-opacity="1">M</text><text fill="none" stroke="rgb(255,255,255)" font-family="geogebra-sans-serif, sans-serif" font-size="24px" font-style="normal" font-weight="normal" text-decoration="normal" x="957" y="316" text-anchor="start" dominant-baseline="alphabetic" stroke-opacity="1" stroke-linejoin="bevel" stroke-miterlimit="10" stroke-width="3">M</text><text fill="rgb(21,101,192)" stroke="none" font-family="geogebra-sans-serif, sans-serif" font-size="24px" font-style="normal" font-weight="normal" text-decoration="normal" x="957" y="316" text-anchor="start" dominant-baseline="alphabetic" fill-opacity="1">M</text><path fill="rgb(21,101,192)" stroke="none" paint-order="stroke fill markers" d=" M 375.98723519506257 315.9598495418454 C 375.98723519506257 318.72127329099936 373.7486589442165 320.9598495418454 370.98723519506257 320.9598495418454 C 368.2258114459086 320.9598495418454 365.98723519506257 318.72127329099936 365.98723519506257 315.9598495418454 C 365.98723519506257 313.19842579269147 368.2258114459086 310.9598495418454 370.98723519506257 310.9598495418454 C 373.7486589442165 310.9598495418454 375.98723519506257 313.19842579269147 375.98723519506257 315.9598495418454 Z" fill-opacity="1"/><path fill="none" stroke="rgb(0,0,0)" paint-order="fill stroke markers" d=" M 375.98723519506257 315.9598495418454 C 375.98723519506257 318.72127329099936 373.7486589442165 320.9598495418454 370.98723519506257 320.9598495418454 C 368.2258114459086 320.9598495418454 365.98723519506257 318.72127329099936 365.98723519506257 315.9598495418454 C 365.98723519506257 313.19842579269147 368.2258114459086 310.9598495418454 370.98723519506257 310.9598495418454 C 373.7486589442165 310.9598495418454 375.98723519506257 313.19842579269147 375.98723519506257 315.9598495418454 Z" stroke-opacity="1" stroke-linecap="round" stroke-linejoin="round" stroke-miterlimit="10"/><text fill="rgb(21,101,192)" stroke="none" font-family="geogebra-sans-serif, sans-serif" font-size="24px" font-style="normal" font-weight="normal" text-decoration="normal" x="331" y="292" text-anchor="start" dominant-baseline="alphabetic" fill-opacity="1">A</text><text fill="none" stroke="rgb(255,255,255)" font-family="geogebra-sans-serif, sans-serif" font-size="24px" font-style="normal" font-weight="normal" text-decoration="normal" x="331" y="292" text-anchor="start" dominant-baseline="alphabetic" stroke-opacity="1" stroke-linejoin="bevel" stroke-miterlimit="10" stroke-width="3">A</text><text fill="rgb(21,101,192)" stroke="none" font-family="geogebra-sans-serif, sans-serif" font-size="24px" font-style="normal" font-weight="normal" text-decoration="normal" x="331" y="292" text-anchor="start" dominant-baseline="alphabetic" fill-opacity="1">A</text><path fill="rgb(21,101,192)" stroke="none" paint-order="stroke fill markers" d=" M 900.7010422380919 213.31693967664054 C 900.7010422380919 216.07836342579452 898.4624659872459 218.31693967664054 895.7010422380919 218.31693967664054 C 892.9396184889379 218.31693967664054 890.7010422380919 216.07836342579452 890.7010422380919 213.31693967664054 C 890.7010422380919 210.55551592748657 892.9396184889379 208.31693967664054 895.7010422380919 208.31693967664054 C 898.4624659872459 208.31693967664054 900.7010422380919 210.55551592748657 900.7010422380919 213.31693967664054 Z" fill-opacity="1"/><path fill="none" stroke="rgb(0,0,0)" paint-order="fill stroke markers" d=" M 900.7010422380919 213.31693967664054 C 900.7010422380919 216.07836342579452 898.4624659872459 218.31693967664054 895.7010422380919 218.31693967664054 C 892.9396184889379 218.31693967664054 890.7010422380919 216.07836342579452 890.7010422380919 213.31693967664054 C 890.7010422380919 210.55551592748657 892.9396184889379 208.31693967664054 895.7010422380919 208.31693967664054 C 898.4624659872459 208.31693967664054 900.7010422380919 210.55551592748657 900.7010422380919 213.31693967664054 Z" stroke-opacity="1" stroke-linecap="round" stroke-linejoin="round" stroke-miterlimit="10"/><text fill="rgb(21,101,192)" stroke="none" font-family="geogebra-sans-serif, sans-serif" font-size="24px" font-style="normal" font-weight="normal" text-decoration="normal" x="907" y="195" text-anchor="start" dominant-baseline="alphabetic" fill-opacity="1">D</text><text fill="none" stroke="rgb(255,255,255)" font-family="geogebra-sans-serif, sans-serif" font-size="24px" font-style="normal" font-weight="normal" text-decoration="normal" x="907" y="195" text-anchor="start" dominant-baseline="alphabetic" stroke-opacity="1" stroke-linejoin="bevel" stroke-miterlimit="10" stroke-width="3">D</text><text fill="rgb(21,101,192)" stroke="none" font-family="geogebra-sans-serif, sans-serif" font-size="24px" font-style="normal" font-weight="normal" text-decoration="normal" x="907" y="195" text-anchor="start" dominant-baseline="alphabetic" fill-opacity="1">D</text><path fill="rgb(46,125,50)" stroke="none" paint-order="stroke fill markers" d=" M 881.842727090569 224.91649951545207 C 881.842727090569 227.12563851477523 880.0518660898922 228.91649951545207 877.842727090569 228.91649951545207 C 875.6335880912459 228.91649951545207 873.842727090569 227.12563851477523 873.842727090569 224.91649951545207 C 873.842727090569 222.7073605161289 875.6335880912459 220.91649951545207 877.842727090569 220.91649951545207 C 880.0518660898922 220.91649951545207 881.842727090569 222.7073605161289 881.842727090569 224.91649951545207 Z" fill-opacity="1"/><path fill="none" stroke="rgb(0,0,0)" paint-order="fill stroke markers" d=" M 881.842727090569 224.91649951545207 C 881.842727090569 227.12563851477523 880.0518660898922 228.91649951545207 877.842727090569 228.91649951545207 C 875.6335880912459 228.91649951545207 873.842727090569 227.12563851477523 873.842727090569 224.91649951545207 C 873.842727090569 222.7073605161289 875.6335880912459 220.91649951545207 877.842727090569 220.91649951545207 C 880.0518660898922 220.91649951545207 881.842727090569 222.7073605161289 881.842727090569 224.91649951545207 Z" stroke-opacity="1" stroke-linecap="round" stroke-linejoin="round" stroke-miterlimit="10"/><text fill="rgb(46,125,50)" stroke="none" font-family="geogebra-sans-serif, sans-serif" font-size="24px" font-style="normal" font-weight="normal" text-decoration="normal" x="835" y="216" text-anchor="start" dominant-baseline="alphabetic" fill-opacity="1">Q</text><text fill="none" stroke="rgb(255,255,255)" font-family="geogebra-sans-serif, sans-serif" font-size="24px" font-style="normal" font-weight="normal" text-decoration="normal" x="835" y="216" text-anchor="start" dominant-baseline="alphabetic" stroke-opacity="1" stroke-linejoin="bevel" stroke-miterlimit="10" stroke-width="3">Q</text><text fill="rgb(46,125,50)" stroke="none" font-family="geogebra-sans-serif, sans-serif" font-size="24px" font-style="normal" font-weight="normal" text-decoration="normal" x="835" y="216" text-anchor="start" dominant-baseline="alphabetic" fill-opacity="1">Q</text><path fill="rgb(46,125,50)" stroke="none" paint-order="stroke fill markers" d=" M 920.9643885126641 420.7874629788247 C 920.9643885126641 422.99660197814785 919.1735275119872 424.7874629788247 916.9643885126641 424.7874629788247 C 914.7552495133409 424.7874629788247 912.9643885126641 422.99660197814785 912.9643885126641 420.7874629788247 C 912.9643885126641 418.57832397950153 914.7552495133409 416.7874629788247 916.9643885126641 416.7874629788247 C 919.1735275119872 416.7874629788247 920.9643885126641 418.57832397950153 920.9643885126641 420.7874629788247 Z" fill-opacity="1"/><path fill="none" stroke="rgb(0,0,0)" paint-order="fill stroke markers" d=" M 920.9643885126641 420.7874629788247 C 920.9643885126641 422.99660197814785 919.1735275119872 424.7874629788247 916.9643885126641 424.7874629788247 C 914.7552495133409 424.7874629788247 912.9643885126641 422.99660197814785 912.9643885126641 420.7874629788247 C 912.9643885126641 418.57832397950153 914.7552495133409 416.7874629788247 916.9643885126641 416.7874629788247 C 919.1735275119872 416.7874629788247 920.9643885126641 418.57832397950153 920.9643885126641 420.7874629788247 Z" stroke-opacity="1" stroke-linecap="round" stroke-linejoin="round" stroke-miterlimit="10"/><text fill="rgb(46,125,50)" stroke="none" font-family="geogebra-sans-serif, sans-serif" font-size="24px" font-style="normal" font-weight="normal" text-decoration="normal" x="887" y="456" text-anchor="start" dominant-baseline="alphabetic" fill-opacity="1">P</text><text fill="none" stroke="rgb(255,255,255)" font-family="geogebra-sans-serif, sans-serif" font-size="24px" font-style="normal" font-weight="normal" text-decoration="normal" x="887" y="456" text-anchor="start" dominant-baseline="alphabetic" stroke-opacity="1" stroke-linejoin="bevel" stroke-miterlimit="10" stroke-width="3">P</text><text fill="rgb(46,125,50)" stroke="none" font-family="geogebra-sans-serif, sans-serif" font-size="24px" font-style="normal" font-weight="normal" text-decoration="normal" x="887" y="456" text-anchor="start" dominant-baseline="alphabetic" fill-opacity="1">P</text><path fill="rgb(211,47,47)" stroke="none" paint-order="stroke fill markers" d=" M 799.5395193641547 343.19746968694415 C 799.5395193641547 345.4066086862673 797.7486583634778 347.19746968694415 795.5395193641547 347.19746968694415 C 793.3303803648315 347.19746968694415 791.5395193641547 345.4066086862673 791.5395193641547 343.19746968694415 C 791.5395193641547 340.988330687621 793.3303803648315 339.19746968694415 795.5395193641547 339.19746968694415 C 797.7486583634778 339.19746968694415 799.5395193641547 340.988330687621 799.5395193641547 343.19746968694415 Z" fill-opacity="1"/><path fill="none" stroke="rgb(0,0,0)" paint-order="fill stroke markers" d=" M 799.5395193641547 343.19746968694415 C 799.5395193641547 345.4066086862673 797.7486583634778 347.19746968694415 795.5395193641547 347.19746968694415 C 793.3303803648315 347.19746968694415 791.5395193641547 345.4066086862673 791.5395193641547 343.19746968694415 C 791.5395193641547 340.988330687621 793.3303803648315 339.19746968694415 795.5395193641547 339.19746968694415 C 797.7486583634778 339.19746968694415 799.5395193641547 340.988330687621 799.5395193641547 343.19746968694415 Z" stroke-opacity="1" stroke-linecap="round" stroke-linejoin="round" stroke-miterlimit="10"/></g></g></svg>