<svg version="1.1" xmlns="http://www.w3.org/2000/svg" xmlns:xlink="http://www.w3.org/1999/xlink" width="1310" height="605"><defs><clipPath id="likRNzZESODX"><path fill="none" stroke="none" d=" M 0 0 L 1310 0 L 1310 605 L 0 605 L 0 0 Z"/></clipPath></defs><g transform="scale(1,1)" clip-path="url(#likRNzZESODX)"><g><rect fill="rgb(255,255,255)" stroke="none" x="0" y="0" width="1310" height="605" fill-opacity="1"/><path fill="none" stroke="rgb(0,0,0)" paint-order="fill stroke markers" d=" M 811.4999999999999 315.99999999999994 C 811.4999999999999 466.49759432889107 689.4975943288911 588.4999999999999 539 588.4999999999999 C 388.5024056711089 588.4999999999999 266.5000000000001 466.49759432889107 266.5000000000001 315.99999999999994 C 266.5000000000001 165.5024056711088 388.5024056711089 43.5 539 43.5 C 689.4975943288911 43.5 811.4999999999999 165.5024056711088 811.4999999999999 315.99999999999994 Z" stroke-opacity="0.6980392156862745" stroke-linecap="round" stroke-linejoin="round" stroke-miterlimit="10"/><path fill="none" stroke="rgb(0,0,0)" paint-order="fill stroke markers" d=" M -5 243.49999999999997 L 1315 243.49999999999997" stroke-opacity="0.6980392156862745" stroke-linejoin="round" stroke-miterlimit="10" stroke-width="0.5" stroke-dasharray="8.5,8"/><path fill="none" stroke="rgb(0,0,0)" paint-order="fill stroke markers" d=" M 738.9999999999999 610 L 738.9999999999999 -5" stroke-opacity="0.6980392156862745" stroke-linejoin="round" stroke-miterlimit="10" stroke-width="0.5" stroke-dasharray="8.5,8"/><path fill="none" stroke="rgb(0,0,0)" paint-order="fill stroke markers" d=" M -5 315.99999999999994 L 1315 315.99999999999994" stroke-opacity="0.6980392156862745" stroke-linejoin="round" stroke-miterlimit="10" stroke-width="0.5" stroke-dasharray="8.5,8"/><path fill="none" stroke="rgb(0,0,0)" paint-order="fill stroke markers" d=" M 811.4999999999999 610 L 811.4999999999999 -5" stroke-opacity="0.6980392156862745" stroke-linejoin="round" stroke-miterlimit="10" stroke-dasharray="9,8"/><path fill="none" stroke="rgb(0,0,0)" paint-order="fill stroke markers" d=" M 539 43.5 L 938.9999999999998 43.5" stroke-opacity="0.6980392156862745" stroke-linecap="round" stroke-linejoin="round" stroke-miterlimit="10" stroke-width="2.5"/><path fill="none" stroke="rgb(0,0,0)" paint-order="fill stroke markers" d=" M 938.9999999999998 43.5 L 938.9999999999998 443.49999999999994" stroke-opacity="0.6980392156862745" stroke-linecap="round" stroke-linejoin="round" stroke-miterlimit="10" stroke-width="2.5"/><path fill="none" stroke="rgb(0,0,0)" paint-order="fill stroke markers" d=" M 938.9999999999998 443.49999999999994 L 539 443.49999999999994" stroke-opacity="0.6980392156862745" stroke-linecap="round" stroke-linejoin="round" stroke-miterlimit="10" stroke-width="2.5"/><path fill="none" stroke="rgb(0,0,0)" paint-order="fill stroke markers" d=" M 539 443.49999999999994 L 539 43.5" stroke-opacity="0.6980392156862745" stroke-linecap="round" stroke-linejoin="round" stroke-miterlimit="10" stroke-width="2.5"/><path fill="none" stroke="rgb(0,0,0)" paint-order="fill stroke markers" d=" M 539 315.99999999999994 L 811.4999999999999 315.99999999999994" stroke-opacity="0.6980392156862745" stroke-linecap="round" stroke-linejoin="round" stroke-miterlimit="10" stroke-width="2.5"/><path fill="none" stroke="rgb(0,0,0)" paint-order="fill stroke markers" d=" M 811.4999999999999 315.99999999999994 L 811.4999999999999 443.49999999999994" stroke-opacity="0.6980392156862745" stroke-linecap="round" stroke-linejoin="round" stroke-miterlimit="10" stroke-width="2.5"/><path fill="rgb(211,47,47)" stroke="none" paint-order="stroke fill markers" d=" M 743.9999999999999 43.5 C 743.9999999999999 46.26142374915396 741.7614237491539 48.5 738.9999999999999 48.5 C 736.2385762508459 48.5 733.9999999999999 46.26142374915396 733.9999999999999 43.5 C 733.9999999999999 40.73857625084603 736.2385762508459 38.5 738.9999999999999 38.5 C 741.7614237491539 38.5 743.9999999999999 40.73857625084603 743.9999999999999 43.5 Z" fill-opacity="1"/><path fill="none" stroke="rgb(0,0,0)" paint-order="fill stroke markers" d=" M 743.9999999999999 43.5 C 743.9999999999999 46.26142374915396 741.7614237491539 48.5 738.9999999999999 48.5 C 736.2385762508459 48.5 733.9999999999999 46.26142374915396 733.9999999999999 43.5 C 733.9999999999999 40.73857625084603 736.2385762508459 38.5 738.9999999999999 38.5 C 741.7614237491539 38.5 743.9999999999999 40.73857625084603 743.9999999999999 43.5 Z" stroke-opacity="1" stroke-linecap="round" stroke-linejoin="round" stroke-miterlimit="10"/><path fill="rgb(211,47,47)" stroke="none" paint-order="stroke fill markers" d=" M 743.9999999999999 443.49999999999994 C 743.9999999999999 446.2614237491539 741.7614237491539 448.49999999999994 738.9999999999999 448.49999999999994 C 736.2385762508459 448.49999999999994 733.9999999999999 446.2614237491539 733.9999999999999 443.49999999999994 C 733.9999999999999 440.738576250846 736.2385762508459 438.49999999999994 738.9999999999999 438.49999999999994 C 741.7614237491539 438.49999999999994 743.9999999999999 440.738576250846 743.9999999999999 443.49999999999994 Z" fill-opacity="1"/><path fill="none" stroke="rgb(0,0,0)" paint-order="fill stroke markers" d=" M 743.9999999999999 443.49999999999994 C 743.9999999999999 446.2614237491539 741.7614237491539 448.49999999999994 738.9999999999999 448.49999999999994 C 736.2385762508459 448.49999999999994 733.9999999999999 446.2614237491539 733.9999999999999 443.49999999999994 C 733.9999999999999 440.738576250846 736.2385762508459 438.49999999999994 738.9999999999999 438.49999999999994 C 741.7614237491539 438.49999999999994 743.9999999999999 440.738576250846 743.9999999999999 443.49999999999994 Z" stroke-opacity="1" stroke-linecap="round" stroke-linejoin="round" stroke-miterlimit="10"/><path fill="rgb(211,47,47)" stroke="none" paint-order="stroke fill markers" d=" M 943.9999999999998 243.49999999999997 C 943.9999999999998 246.26142374915395 941.7614237491538 248.49999999999997 938.9999999999998 248.49999999999997 C 936.2385762508458 248.49999999999997 933.9999999999998 246.26142374915395 933.9999999999998 243.49999999999997 C 933.9999999999998 240.738576250846 936.2385762508458 238.49999999999997 938.9999999999998 238.49999999999997 C 941.7614237491538 238.49999999999997 943.9999999999998 240.738576250846 943.9999999999998 243.49999999999997 Z" fill-opacity="1"/><path fill="none" stroke="rgb(0,0,0)" paint-order="fill stroke markers" d=" M 943.9999999999998 243.49999999999997 C 943.9999999999998 246.26142374915395 941.7614237491538 248.49999999999997 938.9999999999998 248.49999999999997 C 936.2385762508458 248.49999999999997 933.9999999999998 246.26142374915395 933.9999999999998 243.49999999999997 C 933.9999999999998 240.738576250846 936.2385762508458 238.49999999999997 938.9999999999998 238.49999999999997 C 941.7614237491538 238.49999999999997 943.9999999999998 240.738576250846 943.9999999999998 243.49999999999997 Z" stroke-opacity="1" stroke-linecap="round" stroke-linejoin="round" stroke-miterlimit="10"/><path fill="rgb(211,47,47)" stroke="none" paint-order="stroke fill markers" d=" M 544 243.49999999999997 C 544 246.26142374915395 541.761423749154 248.49999999999997 539 248.49999999999997 C 536.238576250846 248.49999999999997 534 246.26142374915395 534 243.49999999999997 C 534 240.738576250846 536.238576250846 238.49999999999997 539 238.49999999999997 C 541.761423749154 238.49999999999997 544 240.738576250846 544 243.49999999999997 Z" fill-opacity="1"/><path fill="none" stroke="rgb(0,0,0)" paint-order="fill stroke markers" d=" M 544 243.49999999999997 C 544 246.26142374915395 541.761423749154 248.49999999999997 539 248.49999999999997 C 536.238576250846 248.49999999999997 534 246.26142374915395 534 243.49999999999997 C 534 240.738576250846 536.238576250846 238.49999999999997 539 238.49999999999997 C 541.761423749154 238.49999999999997 544 240.738576250846 544 243.49999999999997 Z" stroke-opacity="1" stroke-linecap="round" stroke-linejoin="round" stroke-miterlimit="10"/><path fill="rgb(21,101,192)" stroke="none" paint-order="stroke fill markers" d=" M 544 43.5 C 544 46.26142374915396 541.761423749154 48.5 539 48.5 C 536.238576250846 48.5 534 46.26142374915396 534 43.5 C 534 40.73857625084603 536.238576250846 38.5 539 38.5 C 541.761423749154 38.5 544 40.73857625084603 544 43.5 Z" fill-opacity="1"/><path fill="none" stroke="rgb(0,0,0)" paint-order="fill stroke markers" d=" M 544 43.5 C 544 46.26142374915396 541.761423749154 48.5 539 48.5 C 536.238576250846 48.5 534 46.26142374915396 534 43.5 C 534 40.73857625084603 536.238576250846 38.5 539 38.5 C 541.761423749154 38.5 544 40.73857625084603 544 43.5 Z" stroke-opacity="1" stroke-linecap="round" stroke-linejoin="round" stroke-miterlimit="10"/><path fill="rgb(21,101,192)" stroke="none" paint-order="stroke fill markers" d=" M 943.9999999999998 43.5 C 943.9999999999998 46.26142374915396 941.7614237491538 48.5 938.9999999999998 48.5 C 936.2385762508458 48.5 933.9999999999998 46.26142374915396 933.9999999999998 43.5 C 933.9999999999998 40.73857625084603 936.2385762508458 38.5 938.9999999999998 38.5 C 941.7614237491538 38.5 943.9999999999998 40.73857625084603 943.9999999999998 43.5 Z" fill-opacity="1"/><path fill="none" stroke="rgb(0,0,0)" paint-order="fill stroke markers" d=" M 943.9999999999998 43.5 C 943.9999999999998 46.26142374915396 941.7614237491538 48.5 938.9999999999998 48.5 C 936.2385762508458 48.5 933.9999999999998 46.26142374915396 933.9999999999998 43.5 C 933.9999999999998 40.73857625084603 936.2385762508458 38.5 938.9999999999998 38.5 C 941.7614237491538 38.5 943.9999999999998 40.73857625084603 943.9999999999998 43.5 Z" stroke-opacity="1" stroke-linecap="round" stroke-linejoin="round" stroke-miterlimit="10"/><path fill="rgb(21,101,192)" stroke="none" paint-order="stroke fill markers" d=" M 943.9999999999998 443.49999999999994 C 943.9999999999998 446.2614237491539 941.7614237491538 448.49999999999994 938.9999999999998 448.49999999999994 C 936.2385762508458 448.49999999999994 933.9999999999998 446.2614237491539 933.9999999999998 443.49999999999994 C 933.9999999999998 440.738576250846 936.2385762508458 438.49999999999994 938.9999999999998 438.49999999999994 C 941.7614237491538 438.49999999999994 943.9999999999998 440.738576250846 943.9999999999998 443.49999999999994 Z" fill-opacity="1"/><path fill="none" stroke="rgb(0,0,0)" paint-order="fill stroke markers" d=" M 943.9999999999998 443.49999999999994 C 943.9999999999998 446.2614237491539 941.7614237491538 448.49999999999994 938.9999999999998 448.49999999999994 C 936.2385762508458 448.49999999999994 933.9999999999998 446.2614237491539 933.9999999999998 443.49999999999994 C 933.9999999999998 440.738576250846 936.2385762508458 438.49999999999994 938.9999999999998 438.49999999999994 C 941.7614237491538 438.49999999999994 943.9999999999998 440.738576250846 943.9999999999998 443.49999999999994 Z" stroke-opacity="1" stroke-linecap="round" stroke-linejoin="round" stroke-miterlimit="10"/><path fill="rgb(21,101,192)" stroke="none" paint-order="stroke fill markers" d=" M 544 443.49999999999994 C 544 446.2614237491539 541.761423749154 448.49999999999994 539 448.49999999999994 C 536.238576250846 448.49999999999994 534 446.2614237491539 534 443.49999999999994 C 534 440.738576250846 536.238576250846 438.49999999999994 539 438.49999999999994 C 541.761423749154 438.49999999999994 544 440.738576250846 544 443.49999999999994 Z" fill-opacity="1"/><path fill="none" stroke="rgb(0,0,0)" paint-order="fill stroke markers" d=" M 544 443.49999999999994 C 544 446.2614237491539 541.761423749154 448.49999999999994 539 448.49999999999994 C 536.238576250846 448.49999999999994 534 446.2614237491539 534 443.49999999999994 C 534 440.738576250846 536.238576250846 438.49999999999994 539 438.49999999999994 C 541.761423749154 438.49999999999994 544 440.738576250846 544 443.49999999999994 Z" stroke-opacity="1" stroke-linecap="round" stroke-linejoin="round" stroke-miterlimit="10"/><path fill="rgb(46,125,50)" stroke="none" paint-order="stroke fill markers" d=" M 544 315.99999999999994 C 544 318.7614237491539 541.761423749154 320.99999999999994 539 320.99999999999994 C 536.238576250846 320.99999999999994 534 318.7614237491539 534 315.99999999999994 C 534 313.238576250846 536.238576250846 310.99999999999994 539 310.99999999999994 C 541.761423749154 310.99999999999994 544 313.238576250846 544 315.99999999999994 Z" fill-opacity="1"/><path fill="none" stroke="rgb(0,0,0)" paint-order="fill stroke markers" d=" M 544 315.99999999999994 C 544 318.7614237491539 541.761423749154 320.99999999999994 539 320.99999999999994 C 536.238576250846 320.99999999999994 534 318.7614237491539 534 315.99999999999994 C 534 313.238576250846 536.238576250846 310.99999999999994 539 310.99999999999994 C 541.761423749154 310.99999999999994 544 313.238576250846 544 315.99999999999994 Z" stroke-opacity="1" stroke-linecap="round" stroke-linejoin="round" stroke-miterlimit="10"/><path fill="rgb(46,125,50)" stroke="none" paint-order="stroke fill markers" d=" M 816.4999999999999 315.99999999999994 C 816.4999999999999 318.7614237491539 814.2614237491539 320.99999999999994 811.4999999999999 320.99999999999994 C 808.7385762508459 320.99999999999994 806.4999999999999 318.7614237491539 806.4999999999999 315.99999999999994 C 806.4999999999999 313.238576250846 808.7385762508459 310.99999999999994 811.4999999999999 310.99999999999994 C 814.2614237491539 310.99999999999994 816.4999999999999 313.238576250846 816.4999999999999 315.99999999999994 Z" fill-opacity="1"/><path fill="none" stroke="rgb(0,0,0)" paint-order="fill stroke markers" d=" M 816.4999999999999 315.99999999999994 C 816.4999999999999 318.7614237491539 814.2614237491539 320.99999999999994 811.4999999999999 320.99999999999994 C 808.7385762508459 320.99999999999994 806.4999999999999 318.7614237491539 806.4999999999999 315.99999999999994 C 806.4999999999999 313.238576250846 808.7385762508459 310.99999999999994 811.4999999999999 310.99999999999994 C 814.2614237491539 310.99999999999994 816.4999999999999 313.238576250846 816.4999999999999 315.99999999999994 Z" stroke-opacity="1" stroke-linecap="round" stroke-linejoin="round" stroke-miterlimit="10"/><path fill="rgb(46,125,50)" stroke="none" paint-order="stroke fill markers" d=" M 816.4999999999999 443.49999999999994 C 816.4999999999999 446.2614237491539 814.2614237491539 448.49999999999994 811.4999999999999 448.49999999999994 C 808.7385762508459 448.49999999999994 806.4999999999999 446.2614237491539 806.4999999999999 443.49999999999994 C 806.4999999999999 440.738576250846 808.7385762508459 438.49999999999994 811.4999999999999 438.49999999999994 C 814.2614237491539 438.49999999999994 816.4999999999999 440.738576250846 816.4999999999999 443.49999999999994 Z" fill-opacity="1"/><path fill="none" stroke="rgb(0,0,0)" paint-order="fill stroke markers" d=" M 816.4999999999999 443.49999999999994 C 816.4999999999999 446.2614237491539 814.2614237491539 448.49999999999994 811.4999999999999 448.49999999999994 C 808.7385762508459 448.49999999999994 806.4999999999999 446.2614237491539 806.4999999999999 443.49999999999994 C 806.4999999999999 440.738576250846 808.7385762508459 438.49999999999994 811.4999999999999 438.49999999999994 C 814.2614237491539 438.49999999999994 816.4999999999999 440.738576250846 816.4999999999999 443.49999999999994 Z" stroke-opacity="1" stroke-linecap="round" stroke-linejoin="round" stroke-miterlimit="10"/></g></g></svg>