<svg version="1.1" xmlns="http://www.w3.org/2000/svg" xmlns:xlink="http://www.w3.org/1999/xlink" width="1310" height="605"><defs><clipPath id="LDOJuBngDqhc"><path fill="none" stroke="none" d=" M 0 0 L 1310 0 L 1310 605 L 0 605 L 0 0 Z"/></clipPath></defs><g transform="scale(1,1)" clip-path="url(#LDOJuBngDqhc)"><g><rect fill="rgb(255,255,255)" stroke="none" x="0" y="0" width="1310" height="605" fill-opacity="1"/><path fill="none" stroke="rgb(0,0,0)" paint-order="fill stroke markers" d=" M 406.5 2.5 L 406.5 605.5" stroke-opacity="1" stroke-miterlimit="10"/><path fill="none" stroke="rgb(0,0,0)" paint-order="fill stroke markers" d=" M 406.5 1.5 L 400.5 7.5" stroke-opacity="1" stroke-miterlimit="10"/><path fill="none" stroke="rgb(0,0,0)" paint-order="fill stroke markers" d=" M 406.5 1.5 L 412.5 7.5" stroke-opacity="1" stroke-miterlimit="10"/><path fill="none" stroke="rgb(0,0,0)" paint-order="fill stroke markers" d=" M 0.5 363.5 L 1308.5 363.5" stroke-opacity="1" stroke-miterlimit="10"/><path fill="none" stroke="rgb(0,0,0)" paint-order="fill stroke markers" d=" M 1309.5 363.5 L 1303.5 357.5" stroke-opacity="1" stroke-miterlimit="10"/><path fill="none" stroke="rgb(0,0,0)" paint-order="fill stroke markers" d=" M 1309.5 363.5 L 1303.5 369.5" stroke-opacity="1" stroke-miterlimit="10"/><path fill="none" stroke="rgb(0,0,0)" paint-order="fill stroke markers" d=" M 0.5 363.5 L 0.5 366.5" stroke-opacity="1" stroke-miterlimit="10"/><path fill="none" stroke="rgb(0,0,0)" paint-order="fill stroke markers" d=" M 82.5 363.5 L 82.5 366.5" stroke-opacity="1" stroke-miterlimit="10"/><path fill="none" stroke="rgb(0,0,0)" paint-order="fill stroke markers" d=" M 163.5 363.5 L 163.5 366.5" stroke-opacity="1" stroke-miterlimit="10"/><path fill="none" stroke="rgb(0,0,0)" paint-order="fill stroke markers" d=" M 244.5 363.5 L 244.5 366.5" stroke-opacity="1" stroke-miterlimit="10"/><path fill="none" stroke="rgb(0,0,0)" paint-order="fill stroke markers" d=" M 325.5 363.5 L 325.5 366.5" stroke-opacity="1" stroke-miterlimit="10"/><path fill="none" stroke="rgb(0,0,0)" paint-order="fill stroke markers" d=" M 406.5 363.5 L 406.5 366.5" stroke-opacity="1" stroke-miterlimit="10"/><path fill="none" stroke="rgb(0,0,0)" paint-order="fill stroke markers" d=" M 488.5 363.5 L 488.5 366.5" stroke-opacity="1" stroke-miterlimit="10"/><path fill="none" stroke="rgb(0,0,0)" paint-order="fill stroke markers" d=" M 569.5 363.5 L 569.5 366.5" stroke-opacity="1" stroke-miterlimit="10"/><path fill="none" stroke="rgb(0,0,0)" paint-order="fill stroke markers" d=" M 650.5 363.5 L 650.5 366.5" stroke-opacity="1" stroke-miterlimit="10"/><path fill="none" stroke="rgb(0,0,0)" paint-order="fill stroke markers" d=" M 731.5 363.5 L 731.5 366.5" stroke-opacity="1" stroke-miterlimit="10"/><path fill="none" stroke="rgb(0,0,0)" paint-order="fill stroke markers" d=" M 813.5 363.5 L 813.5 366.5" stroke-opacity="1" stroke-miterlimit="10"/><path fill="none" stroke="rgb(0,0,0)" paint-order="fill stroke markers" d=" M 894.5 363.5 L 894.5 366.5" stroke-opacity="1" stroke-miterlimit="10"/><path fill="none" stroke="rgb(0,0,0)" paint-order="fill stroke markers" d=" M 975.5 363.5 L 975.5 366.5" stroke-opacity="1" stroke-miterlimit="10"/><path fill="none" stroke="rgb(0,0,0)" paint-order="fill stroke markers" d=" M 1056.5 363.5 L 1056.5 366.5" stroke-opacity="1" stroke-miterlimit="10"/><path fill="none" stroke="rgb(0,0,0)" paint-order="fill stroke markers" d=" M 1137.5 363.5 L 1137.5 366.5" stroke-opacity="1" stroke-miterlimit="10"/><path fill="none" stroke="rgb(0,0,0)" paint-order="fill stroke markers" d=" M 1219.5 363.5 L 1219.5 366.5" stroke-opacity="1" stroke-miterlimit="10"/><path fill="none" stroke="rgb(0,0,0)" paint-order="fill stroke markers" d=" M 403.5 525.5 L 406.5 525.5" stroke-opacity="1" stroke-miterlimit="10"/><path fill="none" stroke="rgb(0,0,0)" paint-order="fill stroke markers" d=" M 403.5 444.5 L 406.5 444.5" stroke-opacity="1" stroke-miterlimit="10"/><path fill="none" stroke="rgb(0,0,0)" paint-order="fill stroke markers" d=" M 403.5 282.5 L 406.5 282.5" stroke-opacity="1" stroke-miterlimit="10"/><path fill="none" stroke="rgb(0,0,0)" paint-order="fill stroke markers" d=" M 403.5 200.5 L 406.5 200.5" stroke-opacity="1" stroke-miterlimit="10"/><path fill="none" stroke="rgb(0,0,0)" paint-order="fill stroke markers" d=" M 403.5 119.5 L 406.5 119.5" stroke-opacity="1" stroke-miterlimit="10"/><path fill="none" stroke="rgb(0,0,0)" paint-order="fill stroke markers" d=" M 403.5 38.5 L 406.5 38.5" stroke-opacity="1" stroke-miterlimit="10"/><path fill="none" stroke="rgb(0,0,255)" paint-order="fill stroke markers" d=" M 407 -10 L 407 615" stroke-opacity="1" stroke-linejoin="round" stroke-miterlimit="10" stroke-width="2.5" stroke-dasharray="6.5,4"/><path fill="none" stroke="rgb(0,0,255)" paint-order="fill stroke markers" d=" M 1320 -10 L 1320 615" stroke-opacity="1" stroke-linejoin="round" stroke-miterlimit="10" stroke-width="2.5" stroke-dasharray="6.5,4"/><path fill="none" stroke="rgb(0,0,255)" paint-order="fill stroke markers" d=" M -10 -10 L -10 615" stroke-opacity="1" stroke-linejoin="round" stroke-miterlimit="10" stroke-width="2.5" stroke-dasharray="6.5,4"/><path fill="none" stroke="rgb(0,0,255)" paint-order="fill stroke markers" d=" M 829 -10 L 829 615" stroke-opacity="1" stroke-linejoin="round" stroke-miterlimit="10" stroke-width="2.5" stroke-dasharray="6.5,4"/><path fill="rgb(0,0,255)" stroke="none" paint-order="stroke fill markers" d=" M 407 -10 L 407 615 L 829 615 L 829 -10 Z" fill-opacity="0.24705882352941178"/><path fill="none" stroke="rgb(46,125,50)" paint-order="fill stroke markers" d=" M 324.94140625 618.0916444649363 L 327.5 608.89480912216 L 330.05859375 599.778588123807 L 332.6171875 590.7429814698775 L 335.17578125000006 581.7879891603712 L 337.73437500000006 572.9136111952885 L 340.29296875000006 564.119847574629 L 342.8515625 555.4066982983933 L 345.41015625 546.7741633665805 L 347.96875 538.2222427791913 L 350.52734375 529.7509365362255 L 353.0859375 521.3602446376829 L 355.64453125 513.0501670835638 L 358.203125 504.820703873868 L 360.76171875 496.6718550085957 L 363.32031250000006 488.60362048774664 L 365.87890625000006 480.61600031132105 L 368.43750000000006 472.70899447931885 L 370.99609375000006 464.88260299174 L 373.5546875 457.13682584858475 L 376.11328125 449.4716630498527 L 378.671875 441.887114595544 L 381.23046875 434.3831804856587 L 383.7890625 426.9598607201968 L 386.34765625 419.61715529915824 L 388.90625 412.3550642225431 L 391.46484375000006 405.1735874903513 L 394.02343750000006 398.0727251025829 L 396.58203125000006 391.0524770592379 L 399.14062500000006 384.1128433603163 L 401.69921875000006 377.253824005818 L 404.2578125 370.4754189957433 L 406.81640625 363.77762833009183 L 409.375 357.16045200886373 L 411.93359375 350.623890032059 L 414.4921875 344.16794239967766 L 417.05078125 337.79260911171974 L 419.609375 331.49789016818517 L 422.16796875000006 325.283785569074 L 424.72656250000006 319.15029531438614 L 427.28515625000006 313.0974194041217 L 429.84375000000006 307.1251578382807 L 432.40234375 301.23351061686316 L 434.9609375 295.4224777398689 L 437.51953125 289.69205920729803 L 440.078125 284.0422550191505 L 442.63671875 278.47306517542637 L 445.1953125 272.9844896761256 L 447.75390625 267.57652852124824 L 450.3125 262.24918171079423 L 452.87109375000006 257.0024492447636 L 455.42968750000006 251.8363311231564 L 457.98828125000006 246.75082734597257 L 460.54687500000006 241.74593791321212 L 465.6640625 231.9780020809615 L 470.78125 222.53252362640424 L 475.8984375 213.40950254954052 L 481.015625 204.60893885037035 L 486.13281250000006 196.13083252889368 L 491.25000000000006 187.97518358511059 L 496.3671875 180.1419920190211 L 501.484375 172.63125783062506 L 506.6015625 165.44298101992248 L 511.71875 158.5771615869135 L 516.8359375 152.03379953159802 L 521.953125 145.81289485397616 L 527.0703125 139.9144475540477 L 532.1875 134.33845763181284 L 537.3046875 129.0849250872715 L 542.421875 124.15384992042362 L 547.5390625 119.54523213126933 L 552.65625 115.25907171980862 L 557.7734375 111.2953686860414 L 562.890625 107.65412302996768 L 568.0078125 104.33533475158748 L 573.125 101.33900385090084 L 578.2421875 98.66513032790772 L 583.359375 96.31371418260812 L 588.4765625 94.28475541500205 L 593.59375 92.5782540250895 L 598.7109375 91.19421001287049 L 603.828125 90.13262337834504 L 608.9453125 89.39349412151307 L 614.0625 88.97682224237468 L 619.1796875 88.88260774092976 L 624.296875 89.11085061717836 L 629.4140625 89.66155087112054 L 634.53125 90.53470850275625 L 639.6484375 91.73032351208542 L 644.765625 93.24839589910817 L 649.8828125 95.08892566382445 L 655 97.25191280623426 L 660.1171875 99.73735732633759 L 665.234375 102.5452592241345 L 670.3515625 105.67561849962487 L 675.46875 109.12843515280878 L 680.5859375 112.90370918368626 L 685.703125 117.00144059225713 L 690.8203125 121.42162937852163 L 695.9375 126.16427554247963 L 701.0546875 131.2293790841312 L 706.171875 136.61694000347634 L 711.2890625 142.32695830051495 L 716.40625 148.3594339752471 L 721.5234375 154.7143670276728 L 726.640625 161.39175745779198 L 731.7578125 168.39160526560474 L 736.875 175.71391045111105 L 741.9921875000001 183.35867301431082 L 747.109375 191.32589295520393 L 752.2265625 199.61557027379078 L 757.34375 208.2277049700712 L 762.4609375 217.1622970440451 L 767.578125 226.41934649571255 L 772.6953125 235.99885332507353 L 777.8125 245.90081753212803 L 780.37109375 250.97272115229035 L 782.9296875 256.12523911687606 L 785.48828125 261.35837142588514 L 788.046875 266.6721180793176 L 790.60546875 272.0664790771735 L 793.1640625 277.5414544194527 L 795.72265625 283.09704410615535 L 798.28125 288.73324813728135 L 800.8398437500001 294.45006651283074 L 803.3984375000001 300.2474992328035 L 805.95703125 306.1255462971993 L 808.515625 312.08420770601884 L 811.07421875 318.12348345926176 L 813.6328125 324.243373556928 L 816.19140625 330.44387799901773 L 818.75 336.7249967855308 L 821.30859375 343.0867299164672 L 823.8671875 349.52907739182706 L 826.42578125 356.05203921161024 L 828.984375 362.6556153758168 L 831.54296875 369.3398058844468 L 834.1015625 376.10461073750014 L 836.66015625 382.9500299349769 L 839.21875 389.876063476877 L 841.77734375 396.8827113632005 L 844.3359375 403.9699735939474 L 846.89453125 411.13785016911766 L 849.453125 418.38634108871133 L 852.01171875 425.71544635272835 L 854.5703125 433.12516596116876 L 857.12890625 440.61549991403257 L 859.6875000000001 448.1864482113197 L 862.2460937500001 455.8380108530303 L 864.8046875 463.5701878391638 L 867.36328125 471.3829791697211 L 869.921875 479.2763848447018 L 872.48046875 487.2504048641059 L 875.0390625 495.3050392279334 L 877.59765625 503.4402879361842 L 880.15625 511.6561509888585 L 882.71484375 519.9526283859561 L 885.2734375 528.329720127477 L 887.83203125 536.7874262134214 L 890.390625 545.3257466437892 L 892.94921875 553.9446814185803 L 895.5078125 562.6442305377949 L 898.06640625 571.4243940014328 L 900.625 580.285171809494 L 903.18359375 589.2265639619787 L 905.7421875 598.2485704588868 L 908.30078125 607.3511913002183 L 910.859375 616.5344264859731" stroke-opacity="0.8" stroke-linecap="round" stroke-linejoin="round" stroke-miterlimit="10" stroke-width="2.5"/><path fill="none" stroke="rgb(0,0,0)" paint-order="fill stroke markers" d=" M 618.1162162141254 610 L 618.1162162141254 -5" stroke-opacity="0.6980392156862745" stroke-linejoin="round" stroke-miterlimit="10" stroke-width="2.5" stroke-dasharray="10.5,8"/><path fill="none" stroke="rgb(0,0,0)" paint-order="fill stroke markers" d=" M -5 88.87564418291589 L 1315 88.87564418291589" stroke-opacity="0.6980392156862745" stroke-linejoin="round" stroke-miterlimit="10" stroke-width="2.5" stroke-dasharray="10.5,8"/><path fill="rgb(211,47,47)" stroke="none" paint-order="stroke fill markers" d=" M 411.97953497771783 363.35332979024616 C 411.97953497771783 366.1147535394001 409.7409587268718 368.35332979024616 406.97953497771783 368.35332979024616 C 404.2181112285639 368.35332979024616 401.97953497771783 366.1147535394001 401.97953497771783 363.35332979024616 C 401.97953497771783 360.5919060410922 404.2181112285639 358.35332979024616 406.97953497771783 358.35332979024616 C 409.7409587268718 358.35332979024616 411.97953497771783 360.5919060410922 411.97953497771783 363.35332979024616 Z" fill-opacity="1"/><path fill="none" stroke="rgb(0,0,0)" paint-order="fill stroke markers" d=" M 411.97953497771783 363.35332979024616 C 411.97953497771783 366.1147535394001 409.7409587268718 368.35332979024616 406.97953497771783 368.35332979024616 C 404.2181112285639 368.35332979024616 401.97953497771783 366.1147535394001 401.97953497771783 363.35332979024616 C 401.97953497771783 360.5919060410922 404.2181112285639 358.35332979024616 406.97953497771783 358.35332979024616 C 409.7409587268718 358.35332979024616 411.97953497771783 360.5919060410922 411.97953497771783 363.35332979024616 Z" stroke-opacity="1" stroke-linecap="round" stroke-linejoin="round" stroke-miterlimit="10"/><g transform="scale(27,27)"><g transform="translate(13.74074074074074,14.681481037037036)"><path fill="rgb(211,47,47)" stroke="none" paint-order="stroke fill markers" d=" M 0.46 -0.32 Q 0.46 -0.17400000000000002 0.423 -0.094 Q 0.364 0.018000000000000002 0.249 0.022 Q 0.158 0.022 0.10300000000000001 -0.05 Q 0.092 -0.063 0.084 -0.079 Q 0.039 -0.162 0.039 -0.32 Q 0.039 -0.467 0.076 -0.547 Q 0.126 -0.659 0.23800000000000002 -0.666 L 0.25 -0.666 Q 0.339 -0.666 0.395 -0.595 L 0.395 -0.594 Q 0.40900000000000003 -0.5760000000000001 0.42 -0.554 Q 0.46 -0.46900000000000003 0.46 -0.32 M 0.249 0 L 0.249 0 Q 0.312 0 0.34600000000000003 -0.061 Q 0.36 -0.088 0.366 -0.125 Q 0.377 -0.189 0.377 -0.332 Q 0.377 -0.47100000000000003 0.367 -0.527 Q 0.34900000000000003 -0.622 0.275 -0.641 Q 0.262 -0.644 0.249 -0.644 Q 0.179 -0.644 0.147 -0.5740000000000001 Q 0.136 -0.55 0.13 -0.516 Q 0.122 -0.462 0.122 -0.332 Q 0.122 -0.181 0.133 -0.121 Q 0.151 -0.025 0.221 -0.004 Q 0.23500000000000001 0 0.249 0 Z"/></g></g><path fill="rgb(211,47,47)" stroke="none" paint-order="stroke fill markers" d=" M 834.2528974505329 363.35332979024616 C 834.2528974505329 366.1147535394001 832.014321199687 368.35332979024616 829.2528974505329 368.35332979024616 C 826.4914737013789 368.35332979024616 824.2528974505329 366.1147535394001 824.2528974505329 363.35332979024616 C 824.2528974505329 360.5919060410922 826.4914737013789 358.35332979024616 829.2528974505329 358.35332979024616 C 832.014321199687 358.35332979024616 834.2528974505329 360.5919060410922 834.2528974505329 363.35332979024616 Z" fill-opacity="1"/><path fill="none" stroke="rgb(0,0,0)" paint-order="fill stroke markers" d=" M 834.2528974505329 363.35332979024616 C 834.2528974505329 366.1147535394001 832.014321199687 368.35332979024616 829.2528974505329 368.35332979024616 C 826.4914737013789 368.35332979024616 824.2528974505329 366.1147535394001 824.2528974505329 363.35332979024616 C 824.2528974505329 360.5919060410922 826.4914737013789 358.35332979024616 829.2528974505329 358.35332979024616 C 832.014321199687 358.35332979024616 834.2528974505329 360.5919060410922 834.2528974505329 363.35332979024616 Z" stroke-opacity="1" stroke-linecap="round" stroke-linejoin="round" stroke-miterlimit="10"/><g transform="scale(27,27)"><g transform="translate(31.25925925925926,14.646294962962964)"><path fill="rgb(211,47,47)" stroke="none" paint-order="stroke fill markers" d=" M 0.374 -0.605 L 0.23900000000000002 -0.065 Q 0.234 -0.047 0.234 -0.042 Q 0.234 -0.034 0.243 -0.032 L 0.243 -0.032 L 0.243 -0.032 L 0.247 -0.032 Q 0.253 -0.031 0.269 -0.031 L 0.363 -0.031 Q 0.509 -0.031 0.5750000000000001 -0.147 Q 0.592 -0.177 0.614 -0.23700000000000002 Q 0.622 -0.256 0.627 -0.257 L 0.628 -0.258 L 0.631 -0.258 Q 0.642 -0.258 0.643 -0.247 Q 0.643 -0.244 0.639 -0.233 L 0.56 -0.017 Q 0.555 -0.002 0.547 -0.001 L 0.547 -0.001 L 0.546 -0.001 Q 0.542 0 0.529 0 L 0.066 0 Q 0.041 0 0.039 -0.011 Q 0.039 -0.029 0.054 -0.031 L 0.066 -0.031 Q 0.131 -0.031 0.14400000000000002 -0.045 Q 0.15 -0.052000000000000005 0.156 -0.073 Q 0.156 -0.074 0.157 -0.078 L 0.291 -0.615 Q 0.295 -0.631 0.295 -0.634 Q 0.295 -0.646 0.279 -0.649 L 0.278 -0.649 L 0.277 -0.649 Q 0.274 -0.649 0.268 -0.65 Q 0.251 -0.652 0.23 -0.652 Q 0.20400000000000001 -0.652 0.202 -0.663 Q 0.202 -0.683 0.221 -0.683 L 0.353 -0.68 L 0.354 -0.68 L 0.501 -0.683 L 0.502 -0.683 Q 0.518 -0.683 0.518 -0.671 Q 0.518 -0.655 0.505 -0.653 Q 0.499 -0.652 0.48 -0.652 Q 0.401 -0.652 0.386 -0.635 Q 0.38 -0.628 0.374 -0.605 Z"/></g></g><path fill="rgb(211,47,47)" stroke="none" paint-order="stroke fill markers" d=" M 623.1162162141254 363.35332979024616 C 623.1162162141254 366.1147535394001 620.8776399632794 368.35332979024616 618.1162162141254 368.35332979024616 C 615.3547924649714 368.35332979024616 613.1162162141254 366.1147535394001 613.1162162141254 363.35332979024616 C 613.1162162141254 360.5919060410922 615.3547924649714 358.35332979024616 618.1162162141254 358.35332979024616 C 620.8776399632794 358.35332979024616 623.1162162141254 360.5919060410922 623.1162162141254 363.35332979024616 Z" fill-opacity="1"/><path fill="none" stroke="rgb(0,0,0)" paint-order="fill stroke markers" d=" M 623.1162162141254 363.35332979024616 C 623.1162162141254 366.1147535394001 620.8776399632794 368.35332979024616 618.1162162141254 368.35332979024616 C 615.3547924649714 368.35332979024616 613.1162162141254 366.1147535394001 613.1162162141254 363.35332979024616 C 613.1162162141254 360.5919060410922 615.3547924649714 358.35332979024616 618.1162162141254 358.35332979024616 C 620.8776399632794 358.35332979024616 623.1162162141254 360.5919060410922 623.1162162141254 363.35332979024616 Z" stroke-opacity="1" stroke-linecap="round" stroke-linejoin="round" stroke-miterlimit="10"/><g transform="scale(27,27)"><g transform="translate(23.19242654858815,14.683332)"><path fill="rgb(211,47,47)" stroke="none" paint-order="stroke fill markers" d=" M 0.374 -0.605 L 0.23900000000000002 -0.065 Q 0.234 -0.047 0.234 -0.042 Q 0.234 -0.034 0.243 -0.032 L 0.243 -0.032 L 0.243 -0.032 L 0.247 -0.032 Q 0.253 -0.031 0.269 -0.031 L 0.363 -0.031 Q 0.509 -0.031 0.5750000000000001 -0.147 Q 0.592 -0.177 0.614 -0.23700000000000002 Q 0.622 -0.256 0.627 -0.257 L 0.628 -0.258 L 0.631 -0.258 Q 0.642 -0.258 0.643 -0.247 Q 0.643 -0.244 0.639 -0.233 L 0.56 -0.017 Q 0.555 -0.002 0.547 -0.001 L 0.547 -0.001 L 0.546 -0.001 Q 0.542 0 0.529 0 L 0.066 0 Q 0.041 0 0.039 -0.011 Q 0.039 -0.029 0.054 -0.031 L 0.066 -0.031 Q 0.131 -0.031 0.14400000000000002 -0.045 Q 0.15 -0.052000000000000005 0.156 -0.073 Q 0.156 -0.074 0.157 -0.078 L 0.291 -0.615 Q 0.295 -0.631 0.295 -0.634 Q 0.295 -0.646 0.279 -0.649 L 0.278 -0.649 L 0.277 -0.649 Q 0.274 -0.649 0.268 -0.65 Q 0.251 -0.652 0.23 -0.652 Q 0.20400000000000001 -0.652 0.202 -0.663 Q 0.202 -0.683 0.221 -0.683 L 0.353 -0.68 L 0.354 -0.68 L 0.501 -0.683 L 0.502 -0.683 Q 0.518 -0.683 0.518 -0.671 Q 0.518 -0.655 0.505 -0.653 Q 0.499 -0.652 0.48 -0.652 Q 0.401 -0.652 0.386 -0.635 Q 0.38 -0.628 0.374 -0.605 Z"/></g><rect fill="rgb(211,47,47)" stroke="none" x="23.19242654858815" y="15.0898405" width="0.680557" height="0.039999"/><g transform="translate(23.282704048588148,16.045791)"><path fill="rgb(211,47,47)" stroke="none" paint-order="stroke fill markers" d=" M 0.449 -0.17400000000000002 L 0.449 -0.17400000000000002 L 0.421 0 L 0.05 0 Q 0.05 -0.025 0.056 -0.032 L 0.061 -0.037 L 0.253 -0.251 Q 0.358 -0.369 0.358 -0.47200000000000003 Q 0.358 -0.561 0.304 -0.607 L 0.303 -0.608 L 0.302 -0.608 Q 0.27 -0.635 0.224 -0.635 Q 0.152 -0.635 0.109 -0.5730000000000001 Q 0.097 -0.555 0.089 -0.533 Q 0.092 -0.534 0.10200000000000001 -0.534 Q 0.14200000000000002 -0.534 0.153 -0.498 L 0.153 -0.497 Q 0.155 -0.49 0.155 -0.482 Q 0.155 -0.442 0.117 -0.431 Q 0.109 -0.429 0.10300000000000001 -0.429 Q 0.066 -0.429 0.054 -0.46 Q 0.05 -0.47100000000000003 0.05 -0.485 Q 0.05 -0.562 0.109 -0.617 Q 0.162 -0.666 0.23700000000000002 -0.666 Q 0.34700000000000003 -0.666 0.40800000000000003 -0.592 Q 0.443 -0.549 0.448 -0.49 Q 0.449 -0.481 0.449 -0.47200000000000003 Q 0.449 -0.399 0.394 -0.333 Q 0.365 -0.299 0.304 -0.243 L 0.243 -0.189 L 0.233 -0.18 L 0.127 -0.077 L 0.307 -0.077 Q 0.395 -0.077 0.402 -0.085 Q 0.41200000000000003 -0.099 0.424 -0.17400000000000002 L 0.449 -0.17400000000000002 Z"/></g></g><path fill="rgb(211,47,47)" stroke="none" paint-order="stroke fill markers" d=" M 623.1162162141254 88.87564418291589 C 623.1162162141254 91.63706793206985 620.8776399632794 93.87564418291589 618.1162162141254 93.87564418291589 C 615.3547924649714 93.87564418291589 613.1162162141254 91.63706793206985 613.1162162141254 88.87564418291589 C 613.1162162141254 86.11422043376193 615.3547924649714 83.87564418291589 618.1162162141254 83.87564418291589 C 620.8776399632794 83.87564418291589 623.1162162141254 86.11422043376193 623.1162162141254 88.87564418291589 Z" fill-opacity="1"/><path fill="none" stroke="rgb(0,0,0)" paint-order="fill stroke markers" d=" M 623.1162162141254 88.87564418291589 C 623.1162162141254 91.63706793206985 620.8776399632794 93.87564418291589 618.1162162141254 93.87564418291589 C 615.3547924649714 93.87564418291589 613.1162162141254 91.63706793206985 613.1162162141254 88.87564418291589 C 613.1162162141254 86.11422043376193 615.3547924649714 83.87564418291589 618.1162162141254 83.87564418291589 C 620.8776399632794 83.87564418291589 623.1162162141254 86.11422043376193 623.1162162141254 88.87564418291589 Z" stroke-opacity="1" stroke-linecap="round" stroke-linejoin="round" stroke-miterlimit="10"/><path fill="rgb(211,47,47)" stroke="none" paint-order="stroke fill markers" d=" M 411.97953497771783 88.87564418291589 C 411.97953497771783 91.63706793206985 409.7409587268718 93.87564418291589 406.97953497771783 93.87564418291589 C 404.2181112285639 93.87564418291589 401.97953497771783 91.63706793206985 401.97953497771783 88.87564418291589 C 401.97953497771783 86.11422043376193 404.2181112285639 83.87564418291589 406.97953497771783 83.87564418291589 C 409.7409587268718 83.87564418291589 411.97953497771783 86.11422043376193 411.97953497771783 88.87564418291589 Z" fill-opacity="1"/><path fill="none" stroke="rgb(0,0,0)" paint-order="fill stroke markers" d=" M 411.97953497771783 88.87564418291589 C 411.97953497771783 91.63706793206985 409.7409587268718 93.87564418291589 406.97953497771783 93.87564418291589 C 404.2181112285639 93.87564418291589 401.97953497771783 91.63706793206985 401.97953497771783 88.87564418291589 C 401.97953497771783 86.11422043376193 404.2181112285639 83.87564418291589 406.97953497771783 83.87564418291589 C 409.7409587268718 83.87564418291589 411.97953497771783 86.11422043376193 411.97953497771783 88.87564418291589 Z" stroke-opacity="1" stroke-linecap="round" stroke-linejoin="round" stroke-miterlimit="10"/><g transform="scale(27,27)"><g transform="translate(12.970204326365925,4.295484281481482)"><path fill="rgb(211,47,47)" stroke="none" paint-order="stroke fill markers" d=" M 0.374 -0.605 L 0.23900000000000002 -0.065 Q 0.234 -0.047 0.234 -0.042 Q 0.234 -0.034 0.243 -0.032 L 0.243 -0.032 L 0.243 -0.032 L 0.247 -0.032 Q 0.253 -0.031 0.269 -0.031 L 0.363 -0.031 Q 0.509 -0.031 0.5750000000000001 -0.147 Q 0.592 -0.177 0.614 -0.23700000000000002 Q 0.622 -0.256 0.627 -0.257 L 0.628 -0.258 L 0.631 -0.258 Q 0.642 -0.258 0.643 -0.247 Q 0.643 -0.244 0.639 -0.233 L 0.56 -0.017 Q 0.555 -0.002 0.547 -0.001 L 0.547 -0.001 L 0.546 -0.001 Q 0.542 0 0.529 0 L 0.066 0 Q 0.041 0 0.039 -0.011 Q 0.039 -0.029 0.054 -0.031 L 0.066 -0.031 Q 0.131 -0.031 0.14400000000000002 -0.045 Q 0.15 -0.052000000000000005 0.156 -0.073 Q 0.156 -0.074 0.157 -0.078 L 0.291 -0.615 Q 0.295 -0.631 0.295 -0.634 Q 0.295 -0.646 0.279 -0.649 L 0.278 -0.649 L 0.277 -0.649 Q 0.274 -0.649 0.268 -0.65 Q 0.251 -0.652 0.23 -0.652 Q 0.20400000000000001 -0.652 0.202 -0.663 Q 0.202 -0.683 0.221 -0.683 L 0.353 -0.68 L 0.354 -0.68 L 0.501 -0.683 L 0.502 -0.683 Q 0.518 -0.683 0.518 -0.671 Q 0.518 -0.655 0.505 -0.653 Q 0.499 -0.652 0.48 -0.652 Q 0.401 -0.652 0.386 -0.635 Q 0.38 -0.628 0.374 -0.605 Z"/></g><g transform="translate(13.650761326365926,3.9325922814814818) scale(0.7,0.7)"><path fill="rgb(211,47,47)" stroke="none" paint-order="stroke fill markers" d=" M 0.449 -0.17400000000000002 L 0.449 -0.17400000000000002 L 0.421 0 L 0.05 0 Q 0.05 -0.025 0.056 -0.032 L 0.061 -0.037 L 0.253 -0.251 Q 0.358 -0.369 0.358 -0.47200000000000003 Q 0.358 -0.561 0.304 -0.607 L 0.303 -0.608 L 0.302 -0.608 Q 0.27 -0.635 0.224 -0.635 Q 0.152 -0.635 0.109 -0.5730000000000001 Q 0.097 -0.555 0.089 -0.533 Q 0.092 -0.534 0.10200000000000001 -0.534 Q 0.14200000000000002 -0.534 0.153 -0.498 L 0.153 -0.497 Q 0.155 -0.49 0.155 -0.482 Q 0.155 -0.442 0.117 -0.431 Q 0.109 -0.429 0.10300000000000001 -0.429 Q 0.066 -0.429 0.054 -0.46 Q 0.05 -0.47100000000000003 0.05 -0.485 Q 0.05 -0.562 0.109 -0.617 Q 0.162 -0.666 0.23700000000000002 -0.666 Q 0.34700000000000003 -0.666 0.40800000000000003 -0.592 Q 0.443 -0.549 0.448 -0.49 Q 0.449 -0.481 0.449 -0.47200000000000003 Q 0.449 -0.399 0.394 -0.333 Q 0.365 -0.299 0.304 -0.243 L 0.243 -0.189 L 0.233 -0.18 L 0.127 -0.077 L 0.307 -0.077 Q 0.395 -0.077 0.402 -0.085 Q 0.41200000000000003 -0.099 0.424 -0.17400000000000002 L 0.449 -0.17400000000000002 Z"/></g><rect fill="rgb(211,47,47)" stroke="none" x="12.970204326365925" y="4.701992781481482" width="1.0490077335166665" height="0.039999"/><g transform="translate(13.244707193124258,5.657943281481482)"><path fill="rgb(211,47,47)" stroke="none" paint-order="stroke fill markers" d=" M 0.028 -0.165 L 0.028 -0.196 L 0.335 -0.665 Q 0.343 -0.677 0.355 -0.677 Q 0.369 -0.677 0.371 -0.666 L 0.371 -0.651 L 0.371 -0.196 L 0.47100000000000003 -0.196 L 0.47100000000000003 -0.165 L 0.371 -0.165 L 0.371 -0.078 Q 0.371 -0.047 0.383 -0.04 Q 0.397 -0.031 0.447 -0.031 L 0.468 -0.031 L 0.468 0 Q 0.427 -0.003 0.332 -0.003 Q 0.23800000000000002 -0.003 0.197 0 L 0.197 -0.031 L 0.218 -0.031 Q 0.28 -0.031 0.29 -0.048 Q 0.294 -0.055 0.294 -0.078 L 0.294 -0.165 L 0.028 -0.165 M 0.3 -0.196 L 0.3 -0.5690000000000001 L 0.056 -0.196 L 0.3 -0.196 Z"/></g></g></g></g></svg>