<?xml version="1.0" encoding="UTF-8"?>
<svg xmlns="http://www.w3.org/2000/svg" xmlns:xlink="http://www.w3.org/1999/xlink" width="1366pt" height="565pt" viewBox="0 0 1366 565" version="1.1">
<g id="surface1">
<path style="fill:none;stroke-width:3;stroke-linecap:round;stroke-linejoin:round;stroke:rgb(0%,0%,100%);stroke-opacity:1;stroke-miterlimit:10;" d="M 163.5 489.5 L 73.5 91.5 " transform="matrix(1,0,0,-1,0,565)"/>
<path style="fill:none;stroke-width:3;stroke-linecap:round;stroke-linejoin:round;stroke:rgb(0%,0%,100%);stroke-opacity:1;stroke-miterlimit:10;" d="M 614.5 92.5 L 73.5 91.5 " transform="matrix(1,0,0,-1,0,565)"/>
<path style="fill:none;stroke-width:3;stroke-linecap:round;stroke-linejoin:round;stroke:rgb(0%,0%,100%);stroke-opacity:1;stroke-miterlimit:10;" d="M 356.480469 489.859375 L 163.5 489.5 " transform="matrix(1,0,0,-1,0,565)"/>
<path style="fill:none;stroke-width:3;stroke-linecap:round;stroke-linejoin:round;stroke:rgb(0%,0%,100%);stroke-opacity:1;stroke-miterlimit:10;" d="M 614.5 92.5 L 356.480469 489.859375 " transform="matrix(1,0,0,-1,0,565)"/>
<path style="fill-rule:nonzero;fill:rgb(100%,0%,0%);fill-opacity:1;stroke-width:1;stroke-linecap:square;stroke-linejoin:miter;stroke:rgb(0%,0%,0%);stroke-opacity:1;stroke-miterlimit:10;" d="M 168.5 489.5 C 168.5 486.738281 166.261719 484.5 163.5 484.5 C 160.738281 484.5 158.5 486.738281 158.5 489.5 C 158.5 492.261719 160.738281 494.5 163.5 494.5 C 166.261719 494.5 168.5 492.261719 168.5 489.5 Z M 168.5 489.5 " transform="matrix(1,0,0,-1,0,565)"/>
<path style="fill-rule:nonzero;fill:rgb(100%,0%,0%);fill-opacity:1;stroke-width:1;stroke-linecap:square;stroke-linejoin:miter;stroke:rgb(0%,0%,0%);stroke-opacity:1;stroke-miterlimit:10;" d="M 78.5 91.5 C 78.5 88.738281 76.261719 86.5 73.5 86.5 C 70.738281 86.5 68.5 88.738281 68.5 91.5 C 68.5 94.261719 70.738281 96.5 73.5 96.5 C 76.261719 96.5 78.5 94.261719 78.5 91.5 Z M 78.5 91.5 " transform="matrix(1,0,0,-1,0,565)"/>
<path style="fill-rule:nonzero;fill:rgb(100%,0%,0%);fill-opacity:1;stroke-width:1;stroke-linecap:square;stroke-linejoin:miter;stroke:rgb(0%,0%,0%);stroke-opacity:1;stroke-miterlimit:10;" d="M 619.5 92.5 C 619.5 89.738281 617.261719 87.5 614.5 87.5 C 611.738281 87.5 609.5 89.738281 609.5 92.5 C 609.5 95.261719 611.738281 97.5 614.5 97.5 C 617.261719 97.5 619.5 95.261719 619.5 92.5 Z M 619.5 92.5 " transform="matrix(1,0,0,-1,0,565)"/>
<path style="fill-rule:nonzero;fill:rgb(100%,0%,0%);fill-opacity:1;stroke-width:1;stroke-linecap:square;stroke-linejoin:miter;stroke:rgb(0%,0%,0%);stroke-opacity:1;stroke-miterlimit:10;" d="M 361.480469 489.859375 C 361.480469 487.101562 359.238281 484.859375 356.480469 484.859375 C 353.710938 484.859375 351.480469 487.101562 351.480469 489.859375 C 351.480469 492.621094 353.710938 494.859375 356.480469 494.859375 C 359.238281 494.859375 361.480469 492.621094 361.480469 489.859375 Z M 361.480469 489.859375 " transform="matrix(1,0,0,-1,0,565)"/>
<path style=" stroke:none;fill-rule:nonzero;fill:rgb(0%,0%,0%);fill-opacity:1;" d="M 145.25 42.050781 L 141.230469 52.921875 L 149.28125 52.921875 Z M 143.578125 39.121094 L 146.941406 39.121094 L 155.28125 61 L 152.199219 61 L 150.199219 55.390625 L 140.339844 55.390625 L 138.359375 61 L 135.230469 61 Z M 143.578125 39.121094 "/>
<path style=" stroke:none;fill-rule:nonzero;fill:rgb(0%,0%,0%);fill-opacity:1;" d="M 45.910156 491.558594 L 45.910156 499.558594 L 50.660156 499.558594 C 50.660156 499.558594 53.03125 499.558594 54.191406 498.578125 C 54.191406 498.578125 55.339844 497.589844 55.339844 495.550781 C 55.339844 495.550781 55.339844 493.5 54.191406 492.53125 C 54.191406 492.53125 53.03125 491.558594 50.660156 491.558594 Z M 45.910156 482.558594 L 45.910156 489.160156 L 50.28125 489.160156 C 50.28125 489.160156 52.449219 489.160156 53.519531 488.339844 C 53.519531 488.339844 54.578125 487.53125 54.578125 485.859375 C 54.578125 485.859375 54.578125 484.199219 53.519531 483.390625 C 53.519531 483.390625 52.449219 482.558594 50.28125 482.558594 Z M 42.941406 480.121094 L 50.5 480.121094 C 50.5 480.121094 53.890625 480.121094 55.71875 481.53125 C 55.71875 481.53125 57.550781 482.941406 57.550781 485.53125 C 57.550781 485.53125 57.550781 487.550781 56.609375 488.730469 C 56.609375 488.730469 55.671875 489.921875 53.859375 490.199219 C 53.859375 490.199219 56.050781 490.671875 57.25 492.171875 C 57.25 492.171875 58.449219 493.660156 58.449219 495.871094 C 58.449219 495.871094 58.449219 498.808594 56.449219 500.410156 C 56.449219 500.410156 54.46875 502 50.800781 502 L 42.941406 502 Z M 42.941406 480.121094 "/>
<path style=" stroke:none;fill-rule:nonzero;fill:rgb(0%,0%,0%);fill-opacity:1;" d="M 645.328125 471.808594 L 645.328125 474.941406 C 645.328125 474.941406 643.828125 473.550781 642.128906 472.859375 C 642.128906 472.859375 640.441406 472.171875 638.550781 472.171875 C 638.550781 472.171875 634.800781 472.171875 632.800781 474.46875 C 632.800781 474.46875 630.808594 476.75 630.808594 481.089844 C 630.808594 481.089844 630.808594 485.410156 632.800781 487.699219 C 632.800781 487.699219 634.800781 490 638.550781 490 C 638.550781 490 640.441406 490 642.128906 489.308594 C 642.128906 489.308594 643.828125 488.609375 645.328125 487.21875 L 645.328125 490.308594 C 645.328125 490.308594 643.769531 491.371094 642.03125 491.910156 C 642.03125 491.910156 640.300781 492.421875 638.359375 492.421875 C 638.359375 492.421875 633.390625 492.421875 630.53125 489.390625 C 630.53125 489.390625 627.691406 486.339844 627.691406 481.089844 C 627.691406 481.089844 627.691406 475.808594 630.53125 472.78125 C 630.53125 472.78125 633.390625 469.730469 638.359375 469.730469 C 638.359375 469.730469 640.328125 469.730469 642.058594 470.269531 C 642.058594 470.269531 643.800781 470.78125 645.328125 471.808594 Z M 645.328125 471.808594 "/>
<path style=" stroke:none;fill-rule:nonzero;fill:rgb(0%,0%,0%);fill-opacity:1;" d="M 373.910156 42.558594 L 373.910156 59.558594 L 377.480469 59.558594 C 377.480469 59.558594 382 59.558594 384.089844 57.519531 C 384.089844 57.519531 386.199219 55.46875 386.199219 51.050781 C 386.199219 51.050781 386.199219 46.640625 384.089844 44.609375 C 384.089844 44.609375 382 42.558594 377.480469 42.558594 Z M 370.941406 40.121094 L 377.03125 40.121094 C 377.03125 40.121094 383.378906 40.121094 386.339844 42.78125 C 386.339844 42.78125 389.328125 45.421875 389.328125 51.050781 C 389.328125 51.050781 389.328125 56.699219 386.339844 59.359375 C 386.339844 59.359375 383.359375 62 377.03125 62 L 370.941406 62 Z M 370.941406 40.121094 "/>
<path style=" stroke:none;fill-rule:nonzero;fill:rgb(0%,0%,0%);fill-opacity:1;" d="M 252.480469 50.839844 C 253.441406 50.839844 254.21875 50.089844 254.21875 49.230469 C 254.21875 48.75 253.890625 48.160156 253.558594 47.941406 C 253.558594 47.769531 255.089844 47.671875 255.449219 47.671875 C 256.949219 47.671875 257.808594 48.519531 258.199219 49.800781 C 258.359375 50.191406 258.390625 50.550781 258.390625 51.300781 L 258.390625 51.949219 L 258.128906 51.949219 C 255.949219 52.078125 254.339844 52.410156 252.910156 53.058594 C 252.160156 53.410156 251.578125 53.699219 251.058594 54.199219 C 250.441406 54.839844 249.878906 55.691406 249.878906 56.800781 C 249.878906 57.191406 249.949219 57.558594 250.109375 57.941406 C 250.691406 59.410156 252.660156 60.328125 254.699219 60.328125 C 255.980469 60.328125 257.25 59.910156 258.199219 59.089844 C 258.449219 58.890625 258.75 58.46875 258.71875 58.5 L 258.71875 58.371094 C 258.980469 59.339844 259.949219 60.191406 261 60.191406 C 262.339844 60.191406 263.480469 59.308594 263.808594 58.230469 C 263.878906 58.019531 263.878906 57.949219 263.910156 56.808594 L 263.910156 55.660156 L 262.441406 55.660156 L 262.441406 56.730469 C 262.441406 57.910156 262.441406 58.078125 262.300781 58.371094 L 262.269531 58.371094 C 262.140625 58.660156 262.078125 58.800781 261.839844 58.800781 C 261.589844 58.800781 261.480469 58.660156 261.359375 58.371094 L 261.328125 58.371094 C 261.160156 58.019531 261.191406 58.109375 261.191406 54.191406 C 261.191406 50.28125 261.191406 50.339844 261 49.800781 C 260.410156 47.871094 258.199219 46.558594 255.550781 46.558594 C 253.308594 46.558594 251.480469 47.191406 250.980469 48.269531 C 250.828125 48.589844 250.730469 48.941406 250.730469 49.230469 C 250.730469 50.089844 251.519531 50.839844 252.480469 50.839844 Z M 258.390625 54.75 C 258.359375 56.441406 258.359375 56.519531 258.300781 56.730469 C 257.96875 58.050781 256.921875 59.21875 255.269531 59.21875 C 253.859375 59.21875 252.910156 58.171875 252.910156 56.808594 C 252.910156 56.339844 252.980469 55.859375 253.199219 55.46875 C 253.949219 54.058594 255.660156 53.21875 258.449219 53.050781 C 258.519531 53.019531 258.589844 53.019531 258.589844 53.019531 L 258.519531 53.019531 C 258.550781 53.019531 258.390625 53.800781 258.390625 54.75 Z M 258.390625 54.75 "/>
<path style=" stroke:none;fill-rule:nonzero;fill:rgb(0%,0%,0%);fill-opacity:1;" d="M 322.941406 495.359375 C 321.699219 495.421875 320.691406 495.519531 320.660156 495.519531 C 320.589844 495.519531 320.449219 495.558594 320.449219 496.199219 L 320.449219 496.890625 L 321.140625 496.890625 C 322.449219 496.949219 322.640625 497.121094 322.769531 497.910156 C 322.800781 498.03125 322.800781 502.140625 322.800781 507.058594 L 322.800781 516 L 323.550781 516 L 324.230469 515.96875 L 324.378906 515.699219 C 324.46875 515.550781 324.691406 515.160156 324.828125 514.890625 L 325.050781 514.5 L 325.128906 514.558594 C 326 515.480469 327.53125 516.328125 329.199219 516.328125 C 332.75 516.328125 335.230469 513.621094 335.71875 510.558594 C 335.75 510.328125 335.78125 509.941406 335.78125 509.519531 C 335.78125 505.921875 333.441406 503.371094 330.691406 502.828125 C 330.378906 502.769531 330.050781 502.730469 329.691406 502.730469 C 328.050781 502.730469 326.390625 503.339844 325.449219 504.121094 C 325.378906 504.199219 325.480469 504.269531 325.480469 504.269531 L 325.410156 504.269531 C 325.378906 504.269531 325.480469 502.230469 325.480469 499.699219 L 325.480469 495.191406 L 325.28125 495.191406 C 325.21875 495.191406 324.171875 495.269531 322.941406 495.359375 Z M 329.941406 503.941406 C 331.058594 504.230469 331.808594 505.109375 332.199219 506.308594 C 332.449219 507.058594 332.558594 508.230469 332.558594 509.640625 C 332.558594 511.050781 332.480469 511.828125 332.199219 512.609375 C 332.058594 513.03125 332 513.269531 331.769531 513.589844 C 331.058594 514.621094 330.050781 515.21875 328.839844 515.21875 C 328.550781 515.21875 328.21875 515.191406 327.921875 515.089844 C 327.019531 514.859375 326.269531 514.199219 325.699219 513.269531 L 325.578125 513.121094 L 325.578125 505.800781 L 325.730469 505.589844 C 326.449219 504.589844 327.589844 503.839844 329 503.839844 C 329.328125 503.839844 329.691406 503.910156 329.941406 503.941406 Z M 329.941406 503.941406 "/>
</g>
</svg>
