<?xml version="1.0" encoding="UTF-8"?>
<svg xmlns="http://www.w3.org/2000/svg" xmlns:xlink="http://www.w3.org/1999/xlink" width="1366pt" height="565pt" viewBox="0 0 1366 565" version="1.1">
<g id="surface1">
<path style=" stroke:none;fill-rule:evenodd;fill:rgb(0%,0%,100%);fill-opacity:0.69804;" d="M 356 472 L 356 450 L 334 450 L 334 472 Z M 356 472 "/>
<path style=" stroke:none;fill-rule:evenodd;fill:rgb(100%,100%,100%);fill-opacity:0.29804;" d="M 356 472 L 356 452 L 336 452 L 336 472 Z M 356 472 "/>
<path style="fill:none;stroke-width:3;stroke-linecap:round;stroke-linejoin:round;stroke:rgb(0%,0%,100%);stroke-opacity:1;stroke-miterlimit:10;" d="M 163.5 489.5 L 73.5 91.5 " transform="matrix(1,0,0,-1,0,565)"/>
<path style="fill:none;stroke-width:3;stroke-linecap:round;stroke-linejoin:round;stroke:rgb(0%,0%,100%);stroke-opacity:1;stroke-miterlimit:10;" d="M 614.5 92.5 L 73.5 91.5 " transform="matrix(1,0,0,-1,0,565)"/>
<path style="fill:none;stroke-width:3;stroke-linecap:round;stroke-linejoin:round;stroke:rgb(0%,0%,100%);stroke-opacity:1;stroke-miterlimit:10;" d="M 356.480469 489.859375 L 163.5 489.5 " transform="matrix(1,0,0,-1,0,565)"/>
<path style="fill:none;stroke-width:3;stroke-linecap:round;stroke-linejoin:round;stroke:rgb(0%,0%,100%);stroke-opacity:1;stroke-miterlimit:10;" d="M 614.5 92.5 L 356.480469 489.859375 " transform="matrix(1,0,0,-1,0,565)"/>
<path style="fill:none;stroke-width:3;stroke-linecap:round;stroke-linejoin:round;stroke:rgb(0%,0%,100%);stroke-opacity:1;stroke-miterlimit:10;" d="M 591.5 347.851562 L 29.5 346.808594 " transform="matrix(1,0,0,-1,0,565)"/>
<path style="fill:none;stroke-width:3;stroke-linecap:round;stroke-linejoin:round;stroke:rgb(0%,0%,100%);stroke-opacity:1;stroke-dasharray:15.33,15.33;stroke-miterlimit:10;" d="M 356.339844 565.5 L 357.378906 -1.5 " transform="matrix(1,0,0,-1,0,565)"/>
<path style="fill-rule:nonzero;fill:rgb(100%,0%,0%);fill-opacity:1;stroke-width:1;stroke-linecap:square;stroke-linejoin:miter;stroke:rgb(0%,0%,0%);stroke-opacity:1;stroke-miterlimit:10;" d="M 168.5 489.5 C 168.5 486.738281 166.261719 484.5 163.5 484.5 C 160.738281 484.5 158.5 486.738281 158.5 489.5 C 158.5 492.261719 160.738281 494.5 163.5 494.5 C 166.261719 494.5 168.5 492.261719 168.5 489.5 Z M 168.5 489.5 " transform="matrix(1,0,0,-1,0,565)"/>
<path style="fill-rule:nonzero;fill:rgb(100%,0%,0%);fill-opacity:1;stroke-width:1;stroke-linecap:square;stroke-linejoin:miter;stroke:rgb(0%,0%,0%);stroke-opacity:1;stroke-miterlimit:10;" d="M 78.5 91.5 C 78.5 88.738281 76.261719 86.5 73.5 86.5 C 70.738281 86.5 68.5 88.738281 68.5 91.5 C 68.5 94.261719 70.738281 96.5 73.5 96.5 C 76.261719 96.5 78.5 94.261719 78.5 91.5 Z M 78.5 91.5 " transform="matrix(1,0,0,-1,0,565)"/>
<path style="fill-rule:nonzero;fill:rgb(100%,0%,0%);fill-opacity:1;stroke-width:1;stroke-linecap:square;stroke-linejoin:miter;stroke:rgb(0%,0%,0%);stroke-opacity:1;stroke-miterlimit:10;" d="M 619.5 92.5 C 619.5 89.738281 617.261719 87.5 614.5 87.5 C 611.738281 87.5 609.5 89.738281 609.5 92.5 C 609.5 95.261719 611.738281 97.5 614.5 97.5 C 617.261719 97.5 619.5 95.261719 619.5 92.5 Z M 619.5 92.5 " transform="matrix(1,0,0,-1,0,565)"/>
<path style="fill-rule:nonzero;fill:rgb(100%,0%,0%);fill-opacity:1;stroke-width:1;stroke-linecap:square;stroke-linejoin:miter;stroke:rgb(0%,0%,0%);stroke-opacity:1;stroke-miterlimit:10;" d="M 361.480469 489.859375 C 361.480469 487.101562 359.238281 484.859375 356.480469 484.859375 C 353.710938 484.859375 351.480469 487.101562 351.480469 489.859375 C 351.480469 492.621094 353.710938 494.859375 356.480469 494.859375 C 359.238281 494.859375 361.480469 492.621094 361.480469 489.859375 Z M 361.480469 489.859375 " transform="matrix(1,0,0,-1,0,565)"/>
<path style="fill-rule:nonzero;fill:rgb(100%,0%,0%);fill-opacity:1;stroke-width:1;stroke-linecap:square;stroke-linejoin:miter;stroke:rgb(0%,0%,0%);stroke-opacity:1;stroke-miterlimit:10;" d="M 136.28125 347 C 136.28125 344.238281 134.039062 342 131.28125 342 C 128.519531 342 126.28125 344.238281 126.28125 347 C 126.28125 349.761719 128.519531 352 131.28125 352 C 134.039062 352 136.28125 349.761719 136.28125 347 Z M 136.28125 347 " transform="matrix(1,0,0,-1,0,565)"/>
<path style="fill-rule:nonzero;fill:rgb(69.802856%,0%,0%);fill-opacity:1;stroke-width:1;stroke-linecap:square;stroke-linejoin:miter;stroke:rgb(0%,0%,0%);stroke-opacity:1;stroke-miterlimit:10;" d="M 453.859375 347.589844 C 453.859375 344.828125 451.621094 342.589844 448.859375 342.589844 C 446.101562 342.589844 443.859375 344.828125 443.859375 347.589844 C 443.859375 350.351562 446.101562 352.589844 448.859375 352.589844 C 451.621094 352.589844 453.859375 350.351562 453.859375 347.589844 Z M 453.859375 347.589844 " transform="matrix(1,0,0,-1,0,565)"/>
<path style="fill-rule:nonzero;fill:rgb(69.802856%,0%,0%);fill-opacity:1;stroke-width:1;stroke-linecap:square;stroke-linejoin:miter;stroke:rgb(0%,0%,0%);stroke-opacity:1;stroke-miterlimit:10;" d="M 362.210938 92.019531 C 362.210938 89.261719 359.96875 87.019531 357.210938 87.019531 C 354.449219 87.019531 352.210938 89.261719 352.210938 92.019531 C 352.210938 94.789062 354.449219 97.019531 357.210938 97.019531 C 359.96875 97.019531 362.210938 94.789062 362.210938 92.019531 Z M 362.210938 92.019531 " transform="matrix(1,0,0,-1,0,565)"/>
<path style="fill-rule:nonzero;fill:rgb(69.802856%,0%,0%);fill-opacity:1;stroke-width:1;stroke-linecap:square;stroke-linejoin:miter;stroke:rgb(0%,0%,0%);stroke-opacity:1;stroke-miterlimit:10;" d="M 361.738281 347.421875 C 361.738281 344.660156 359.5 342.421875 356.738281 342.421875 C 353.980469 342.421875 351.738281 344.660156 351.738281 347.421875 C 351.738281 350.179688 353.980469 352.421875 356.738281 352.421875 C 359.5 352.421875 361.738281 350.179688 361.738281 347.421875 Z M 361.738281 347.421875 " transform="matrix(1,0,0,-1,0,565)"/>
<path style=" stroke:none;fill-rule:nonzero;fill:rgb(0%,0%,0%);fill-opacity:1;" d="M 145.25 42.050781 L 141.230469 52.921875 L 149.28125 52.921875 Z M 143.578125 39.121094 L 146.941406 39.121094 L 155.28125 61 L 152.199219 61 L 150.199219 55.390625 L 140.339844 55.390625 L 138.359375 61 L 135.230469 61 Z M 143.578125 39.121094 "/>
<path style=" stroke:none;fill-rule:nonzero;fill:rgb(0%,0%,0%);fill-opacity:1;" d="M 45.910156 491.558594 L 45.910156 499.558594 L 50.660156 499.558594 C 50.660156 499.558594 53.03125 499.558594 54.191406 498.578125 C 54.191406 498.578125 55.339844 497.589844 55.339844 495.550781 C 55.339844 495.550781 55.339844 493.5 54.191406 492.53125 C 54.191406 492.53125 53.03125 491.558594 50.660156 491.558594 Z M 45.910156 482.558594 L 45.910156 489.160156 L 50.28125 489.160156 C 50.28125 489.160156 52.449219 489.160156 53.519531 488.339844 C 53.519531 488.339844 54.578125 487.53125 54.578125 485.859375 C 54.578125 485.859375 54.578125 484.199219 53.519531 483.390625 C 53.519531 483.390625 52.449219 482.558594 50.28125 482.558594 Z M 42.941406 480.121094 L 50.5 480.121094 C 50.5 480.121094 53.890625 480.121094 55.71875 481.53125 C 55.71875 481.53125 57.550781 482.941406 57.550781 485.53125 C 57.550781 485.53125 57.550781 487.550781 56.609375 488.730469 C 56.609375 488.730469 55.671875 489.921875 53.859375 490.199219 C 53.859375 490.199219 56.050781 490.671875 57.25 492.171875 C 57.25 492.171875 58.449219 493.660156 58.449219 495.871094 C 58.449219 495.871094 58.449219 498.808594 56.449219 500.410156 C 56.449219 500.410156 54.46875 502 50.800781 502 L 42.941406 502 Z M 42.941406 480.121094 "/>
<path style=" stroke:none;fill-rule:nonzero;fill:rgb(0%,0%,0%);fill-opacity:1;" d="M 645.328125 471.808594 L 645.328125 474.941406 C 645.328125 474.941406 643.828125 473.550781 642.128906 472.859375 C 642.128906 472.859375 640.441406 472.171875 638.550781 472.171875 C 638.550781 472.171875 634.800781 472.171875 632.800781 474.46875 C 632.800781 474.46875 630.808594 476.75 630.808594 481.089844 C 630.808594 481.089844 630.808594 485.410156 632.800781 487.699219 C 632.800781 487.699219 634.800781 490 638.550781 490 C 638.550781 490 640.441406 490 642.128906 489.308594 C 642.128906 489.308594 643.828125 488.609375 645.328125 487.21875 L 645.328125 490.308594 C 645.328125 490.308594 643.769531 491.371094 642.03125 491.910156 C 642.03125 491.910156 640.300781 492.421875 638.359375 492.421875 C 638.359375 492.421875 633.390625 492.421875 630.53125 489.390625 C 630.53125 489.390625 627.691406 486.339844 627.691406 481.089844 C 627.691406 481.089844 627.691406 475.808594 630.53125 472.78125 C 630.53125 472.78125 633.390625 469.730469 638.359375 469.730469 C 638.359375 469.730469 640.328125 469.730469 642.058594 470.269531 C 642.058594 470.269531 643.800781 470.78125 645.328125 471.808594 Z M 645.328125 471.808594 "/>
<path style=" stroke:none;fill-rule:nonzero;fill:rgb(0%,0%,0%);fill-opacity:1;" d="M 373.910156 42.558594 L 373.910156 59.558594 L 377.480469 59.558594 C 377.480469 59.558594 382 59.558594 384.089844 57.519531 C 384.089844 57.519531 386.199219 55.46875 386.199219 51.050781 C 386.199219 51.050781 386.199219 46.640625 384.089844 44.609375 C 384.089844 44.609375 382 42.558594 377.480469 42.558594 Z M 370.941406 40.121094 L 377.03125 40.121094 C 377.03125 40.121094 383.378906 40.121094 386.339844 42.78125 C 386.339844 42.78125 389.328125 45.421875 389.328125 51.050781 C 389.328125 51.050781 389.328125 56.699219 386.339844 59.359375 C 386.339844 59.359375 383.359375 62 377.03125 62 L 370.941406 62 Z M 370.941406 40.121094 "/>
<path style=" stroke:none;fill-rule:nonzero;fill:rgb(0%,0%,0%);fill-opacity:1;" d="M 108.910156 186.558594 L 108.910156 194.78125 L 112.628906 194.78125 C 112.628906 194.78125 114.691406 194.78125 115.808594 193.71875 C 115.808594 193.71875 116.949219 192.640625 116.949219 190.660156 C 116.949219 190.660156 116.949219 188.699219 115.808594 187.640625 C 115.808594 187.640625 114.691406 186.558594 112.628906 186.558594 Z M 105.941406 184.121094 L 112.628906 184.121094 C 112.628906 184.121094 116.300781 184.121094 118.171875 185.800781 C 118.171875 185.800781 120.058594 187.449219 120.058594 190.660156 C 120.058594 190.660156 120.058594 193.910156 118.171875 195.558594 C 118.171875 195.558594 116.300781 197.199219 112.628906 197.199219 L 108.910156 197.199219 L 108.910156 206 L 105.941406 206 Z M 105.941406 184.121094 "/>
<path style=" stroke:none;fill-rule:nonzero;fill:rgb(0%,0%,0%);fill-opacity:1;" d="M 462.828125 179.140625 C 462.828125 179.140625 459.589844 179.140625 457.699219 181.550781 C 457.699219 181.550781 455.808594 183.941406 455.808594 188.089844 C 455.808594 188.089844 455.808594 192.21875 457.699219 194.621094 C 457.699219 194.621094 459.589844 197.019531 462.828125 197.019531 C 462.828125 197.019531 466.050781 197.019531 467.921875 194.621094 C 467.921875 194.621094 469.808594 192.21875 469.808594 188.089844 C 469.808594 188.089844 469.808594 183.941406 467.921875 181.550781 C 467.921875 181.550781 466.050781 179.140625 462.828125 179.140625 Z M 466.96875 198.609375 L 470.859375 202.871094 L 467.300781 202.871094 L 464.050781 199.359375 C 464.050781 199.359375 463.558594 199.390625 463.308594 199.410156 C 463.308594 199.410156 463.058594 199.421875 462.828125 199.421875 C 462.828125 199.421875 458.199219 199.421875 455.441406 196.339844 C 455.441406 196.339844 452.691406 193.25 452.691406 188.089844 C 452.691406 188.089844 452.691406 182.910156 455.441406 179.828125 C 455.441406 179.828125 458.199219 176.730469 462.828125 176.730469 C 462.828125 176.730469 467.421875 176.730469 470.171875 179.828125 C 470.171875 179.828125 472.921875 182.910156 472.921875 188.089844 C 472.921875 188.089844 472.921875 191.890625 471.390625 194.609375 C 471.390625 194.609375 469.878906 197.308594 466.96875 198.609375 Z M 466.96875 198.609375 "/>
<path style=" stroke:none;fill-rule:nonzero;fill:rgb(0%,0%,0%);fill-opacity:1;" d="M 379.058594 443.839844 L 379.058594 446.730469 C 379.058594 446.730469 377.378906 445.921875 375.878906 445.53125 C 375.878906 445.53125 374.378906 445.140625 372.980469 445.140625 C 372.980469 445.140625 370.578125 445.140625 369.269531 446.078125 C 369.269531 446.078125 367.949219 447.019531 367.949219 448.730469 C 367.949219 448.730469 367.949219 450.191406 368.808594 450.941406 C 368.808594 450.941406 369.691406 451.671875 372.128906 452.121094 L 373.910156 452.480469 C 373.910156 452.480469 377.21875 453.121094 378.800781 454.71875 C 378.800781 454.71875 380.378906 456.300781 380.378906 458.96875 C 380.378906 458.96875 380.378906 462.140625 378.230469 463.78125 C 378.230469 463.78125 376.109375 465.421875 372 465.421875 C 372 465.421875 370.441406 465.421875 368.691406 465.058594 C 368.691406 465.058594 366.941406 464.71875 365.058594 464.03125 L 365.058594 460.980469 C 365.058594 460.980469 366.878906 462 368.589844 462.519531 C 368.589844 462.519531 370.328125 463.019531 372 463.019531 C 372 463.019531 374.53125 463.019531 375.910156 462.03125 C 375.910156 462.03125 377.28125 461.03125 377.28125 459.191406 C 377.28125 459.191406 377.28125 457.578125 376.300781 456.671875 C 376.300781 456.671875 375.308594 455.75 373.050781 455.300781 L 371.25 454.949219 C 371.25 454.949219 367.941406 454.300781 366.449219 452.890625 C 366.449219 452.890625 364.980469 451.480469 364.980469 448.96875 C 364.980469 448.96875 364.980469 446.078125 367.019531 444.410156 C 367.019531 444.410156 369.058594 442.730469 372.660156 442.730469 C 372.660156 442.730469 374.191406 442.730469 375.78125 443.019531 C 375.78125 443.019531 377.390625 443.300781 379.058594 443.839844 Z M 379.058594 443.839844 "/>
<path style=" stroke:none;fill-rule:nonzero;fill:rgb(0%,0%,0%);fill-opacity:1;" d="M 375.308594 199.75 C 375.308594 199.75 376.269531 200.058594 377.160156 201.121094 C 377.160156 201.121094 378.058594 202.171875 378.980469 204.019531 L 381.980469 210 L 378.800781 210 L 376 204.390625 C 376 204.390625 374.921875 202.191406 373.910156 201.46875 C 373.910156 201.46875 372.890625 200.75 371.128906 200.75 L 367.910156 200.75 L 367.910156 210 L 364.941406 210 L 364.941406 188.121094 L 371.628906 188.121094 C 371.628906 188.121094 375.378906 188.121094 377.21875 189.699219 C 377.21875 189.699219 379.058594 191.269531 379.058594 194.421875 C 379.058594 194.421875 379.058594 196.5 378.089844 197.859375 C 378.089844 197.859375 377.140625 199.21875 375.308594 199.75 Z M 367.910156 190.558594 L 367.910156 198.328125 L 371.628906 198.328125 C 371.628906 198.328125 373.769531 198.328125 374.859375 197.339844 C 374.859375 197.339844 375.949219 196.339844 375.949219 194.421875 C 375.949219 194.421875 375.949219 192.519531 374.859375 191.550781 C 374.859375 191.550781 373.769531 190.558594 371.628906 190.558594 Z M 367.910156 190.558594 "/>
<path style=" stroke:none;fill-rule:nonzero;fill:rgb(0%,0%,0%);fill-opacity:1;" d="M 252.480469 50.839844 C 253.441406 50.839844 254.21875 50.089844 254.21875 49.230469 C 254.21875 48.75 253.890625 48.160156 253.558594 47.941406 C 253.558594 47.769531 255.089844 47.671875 255.449219 47.671875 C 256.949219 47.671875 257.808594 48.519531 258.199219 49.800781 C 258.359375 50.191406 258.390625 50.550781 258.390625 51.300781 L 258.390625 51.949219 L 258.128906 51.949219 C 255.949219 52.078125 254.339844 52.410156 252.910156 53.058594 C 252.160156 53.410156 251.578125 53.699219 251.058594 54.199219 C 250.441406 54.839844 249.878906 55.691406 249.878906 56.800781 C 249.878906 57.191406 249.949219 57.558594 250.109375 57.941406 C 250.691406 59.410156 252.660156 60.328125 254.699219 60.328125 C 255.980469 60.328125 257.25 59.910156 258.199219 59.089844 C 258.449219 58.890625 258.75 58.46875 258.71875 58.5 L 258.71875 58.371094 C 258.980469 59.339844 259.949219 60.191406 261 60.191406 C 262.339844 60.191406 263.480469 59.308594 263.808594 58.230469 C 263.878906 58.019531 263.878906 57.949219 263.910156 56.808594 L 263.910156 55.660156 L 262.441406 55.660156 L 262.441406 56.730469 C 262.441406 57.910156 262.441406 58.078125 262.300781 58.371094 L 262.269531 58.371094 C 262.140625 58.660156 262.078125 58.800781 261.839844 58.800781 C 261.589844 58.800781 261.480469 58.660156 261.359375 58.371094 L 261.328125 58.371094 C 261.160156 58.019531 261.191406 58.109375 261.191406 54.191406 C 261.191406 50.28125 261.191406 50.339844 261 49.800781 C 260.410156 47.871094 258.199219 46.558594 255.550781 46.558594 C 253.308594 46.558594 251.480469 47.191406 250.980469 48.269531 C 250.828125 48.589844 250.730469 48.941406 250.730469 49.230469 C 250.730469 50.089844 251.519531 50.839844 252.480469 50.839844 Z M 258.390625 54.75 C 258.359375 56.441406 258.359375 56.519531 258.300781 56.730469 C 257.96875 58.050781 256.921875 59.21875 255.269531 59.21875 C 253.859375 59.21875 252.910156 58.171875 252.910156 56.808594 C 252.910156 56.339844 252.980469 55.859375 253.199219 55.46875 C 253.949219 54.058594 255.660156 53.21875 258.449219 53.050781 C 258.519531 53.019531 258.589844 53.019531 258.589844 53.019531 L 258.519531 53.019531 C 258.550781 53.019531 258.390625 53.800781 258.390625 54.75 Z M 258.390625 54.75 "/>
<path style=" stroke:none;fill-rule:nonzero;fill:rgb(0%,0%,0%);fill-opacity:1;" d="M 322.941406 495.359375 C 321.699219 495.421875 320.691406 495.519531 320.660156 495.519531 C 320.589844 495.519531 320.449219 495.558594 320.449219 496.199219 L 320.449219 496.890625 L 321.140625 496.890625 C 322.449219 496.949219 322.640625 497.121094 322.769531 497.910156 C 322.800781 498.03125 322.800781 502.140625 322.800781 507.058594 L 322.800781 516 L 323.550781 516 L 324.230469 515.96875 L 324.378906 515.699219 C 324.46875 515.550781 324.691406 515.160156 324.828125 514.890625 L 325.050781 514.5 L 325.128906 514.558594 C 326 515.480469 327.53125 516.328125 329.199219 516.328125 C 332.75 516.328125 335.230469 513.621094 335.71875 510.558594 C 335.75 510.328125 335.78125 509.941406 335.78125 509.519531 C 335.78125 505.921875 333.441406 503.371094 330.691406 502.828125 C 330.378906 502.769531 330.050781 502.730469 329.691406 502.730469 C 328.050781 502.730469 326.390625 503.339844 325.449219 504.121094 C 325.378906 504.199219 325.480469 504.269531 325.480469 504.269531 L 325.410156 504.269531 C 325.378906 504.269531 325.480469 502.230469 325.480469 499.699219 L 325.480469 495.191406 L 325.28125 495.191406 C 325.21875 495.191406 324.171875 495.269531 322.941406 495.359375 Z M 329.941406 503.941406 C 331.058594 504.230469 331.808594 505.109375 332.199219 506.308594 C 332.449219 507.058594 332.558594 508.230469 332.558594 509.640625 C 332.558594 511.050781 332.480469 511.828125 332.199219 512.609375 C 332.058594 513.03125 332 513.269531 331.769531 513.589844 C 331.058594 514.621094 330.050781 515.21875 328.839844 515.21875 C 328.550781 515.21875 328.21875 515.191406 327.921875 515.089844 C 327.019531 514.859375 326.269531 514.199219 325.699219 513.269531 L 325.578125 513.121094 L 325.578125 505.800781 L 325.730469 505.589844 C 326.449219 504.589844 327.589844 503.839844 329 503.839844 C 329.328125 503.839844 329.691406 503.910156 329.941406 503.941406 Z M 329.941406 503.941406 "/>
</g>
</svg>
