<?xml version="1.0" encoding="UTF-8"?>
<svg xmlns="http://www.w3.org/2000/svg" xmlns:xlink="http://www.w3.org/1999/xlink" width="1366pt" height="565pt" viewBox="0 0 1366 565" version="1.1">
<g id="surface1">
<path style=" stroke:none;fill-rule:evenodd;fill:rgb(0%,0%,100%);fill-opacity:0.69804;" d="M 356 472 L 356 450 L 334 450 L 334 472 Z M 356 472 "/>
<path style=" stroke:none;fill-rule:evenodd;fill:rgb(100%,100%,100%);fill-opacity:0.29804;" d="M 356 472 L 356 452 L 336 452 L 336 472 Z M 356 472 "/>
<path style="fill:none;stroke-width:3;stroke-linecap:round;stroke-linejoin:round;stroke:rgb(0%,0%,100%);stroke-opacity:1;stroke-miterlimit:10;" d="M 163.5 489.5 L 73.5 91.5 " transform="matrix(1,0,0,-1,0,565)"/>
<path style="fill:none;stroke-width:3;stroke-linecap:round;stroke-linejoin:round;stroke:rgb(0%,0%,100%);stroke-opacity:1;stroke-miterlimit:10;" d="M 614.5 92.5 L 73.5 91.5 " transform="matrix(1,0,0,-1,0,565)"/>
<path style="fill:none;stroke-width:3;stroke-linecap:round;stroke-linejoin:round;stroke:rgb(0%,0%,100%);stroke-opacity:1;stroke-miterlimit:10;" d="M 356.480469 489.859375 L 163.5 489.5 " transform="matrix(1,0,0,-1,0,565)"/>
<path style="fill:none;stroke-width:3;stroke-linecap:round;stroke-linejoin:round;stroke:rgb(0%,0%,100%);stroke-opacity:1;stroke-miterlimit:10;" d="M 614.5 92.5 L 356.480469 489.859375 " transform="matrix(1,0,0,-1,0,565)"/>
<path style="fill:none;stroke-width:3;stroke-linecap:round;stroke-linejoin:round;stroke:rgb(0%,0%,100%);stroke-opacity:1;stroke-miterlimit:10;" d="M 591.5 347.851562 L 29.5 346.808594 " transform="matrix(1,0,0,-1,0,565)"/>
<path style="fill:none;stroke-width:3;stroke-linecap:round;stroke-linejoin:round;stroke:rgb(0%,0%,100%);stroke-opacity:1;stroke-dasharray:15.33,15.33;stroke-miterlimit:10;" d="M 356.339844 565.5 L 357.378906 -1.5 " transform="matrix(1,0,0,-1,0,565)"/>
<path style="fill:none;stroke-width:3;stroke-linecap:round;stroke-linejoin:round;stroke:rgb(0%,0%,100%);stroke-opacity:1;stroke-dasharray:15.73,15.73;stroke-miterlimit:10;" d="M 373.578125 565.5 L 245.359375 -1.5 " transform="matrix(1,0,0,-1,0,565)"/>
<path style="fill-rule:nonzero;fill:rgb(100%,0%,0%);fill-opacity:1;stroke-width:1;stroke-linecap:square;stroke-linejoin:miter;stroke:rgb(0%,0%,0%);stroke-opacity:1;stroke-miterlimit:10;" d="M 168.5 489.5 C 168.5 486.738281 166.261719 484.5 163.5 484.5 C 160.738281 484.5 158.5 486.738281 158.5 489.5 C 158.5 492.261719 160.738281 494.5 163.5 494.5 C 166.261719 494.5 168.5 492.261719 168.5 489.5 Z M 168.5 489.5 " transform="matrix(1,0,0,-1,0,565)"/>
<path style="fill-rule:nonzero;fill:rgb(100%,0%,0%);fill-opacity:1;stroke-width:1;stroke-linecap:square;stroke-linejoin:miter;stroke:rgb(0%,0%,0%);stroke-opacity:1;stroke-miterlimit:10;" d="M 78.5 91.5 C 78.5 88.738281 76.261719 86.5 73.5 86.5 C 70.738281 86.5 68.5 88.738281 68.5 91.5 C 68.5 94.261719 70.738281 96.5 73.5 96.5 C 76.261719 96.5 78.5 94.261719 78.5 91.5 Z M 78.5 91.5 " transform="matrix(1,0,0,-1,0,565)"/>
<path style="fill-rule:nonzero;fill:rgb(100%,0%,0%);fill-opacity:1;stroke-width:1;stroke-linecap:square;stroke-linejoin:miter;stroke:rgb(0%,0%,0%);stroke-opacity:1;stroke-miterlimit:10;" d="M 619.5 92.5 C 619.5 89.738281 617.261719 87.5 614.5 87.5 C 611.738281 87.5 609.5 89.738281 609.5 92.5 C 609.5 95.261719 611.738281 97.5 614.5 97.5 C 617.261719 97.5 619.5 95.261719 619.5 92.5 Z M 619.5 92.5 " transform="matrix(1,0,0,-1,0,565)"/>
<path style="fill-rule:nonzero;fill:rgb(100%,0%,0%);fill-opacity:1;stroke-width:1;stroke-linecap:square;stroke-linejoin:miter;stroke:rgb(0%,0%,0%);stroke-opacity:1;stroke-miterlimit:10;" d="M 361.480469 489.859375 C 361.480469 487.101562 359.238281 484.859375 356.480469 484.859375 C 353.710938 484.859375 351.480469 487.101562 351.480469 489.859375 C 351.480469 492.621094 353.710938 494.859375 356.480469 494.859375 C 359.238281 494.859375 361.480469 492.621094 361.480469 489.859375 Z M 361.480469 489.859375 " transform="matrix(1,0,0,-1,0,565)"/>
<path style="fill-rule:nonzero;fill:rgb(100%,0%,0%);fill-opacity:1;stroke-width:1;stroke-linecap:square;stroke-linejoin:miter;stroke:rgb(0%,0%,0%);stroke-opacity:1;stroke-miterlimit:10;" d="M 136.28125 347 C 136.28125 344.238281 134.039062 342 131.28125 342 C 128.519531 342 126.28125 344.238281 126.28125 347 C 126.28125 349.761719 128.519531 352 131.28125 352 C 134.039062 352 136.28125 349.761719 136.28125 347 Z M 136.28125 347 " transform="matrix(1,0,0,-1,0,565)"/>
<path style="fill-rule:nonzero;fill:rgb(69.802856%,0%,0%);fill-opacity:1;stroke-width:1;stroke-linecap:square;stroke-linejoin:miter;stroke:rgb(0%,0%,0%);stroke-opacity:1;stroke-miterlimit:10;" d="M 453.859375 347.589844 C 453.859375 344.828125 451.621094 342.589844 448.859375 342.589844 C 446.101562 342.589844 443.859375 344.828125 443.859375 347.589844 C 443.859375 350.351562 446.101562 352.589844 448.859375 352.589844 C 451.621094 352.589844 453.859375 350.351562 453.859375 347.589844 Z M 453.859375 347.589844 " transform="matrix(1,0,0,-1,0,565)"/>
<path style="fill-rule:nonzero;fill:rgb(69.802856%,0%,0%);fill-opacity:1;stroke-width:1;stroke-linecap:square;stroke-linejoin:miter;stroke:rgb(0%,0%,0%);stroke-opacity:1;stroke-miterlimit:10;" d="M 362.210938 92.019531 C 362.210938 89.261719 359.96875 87.019531 357.210938 87.019531 C 354.449219 87.019531 352.210938 89.261719 352.210938 92.019531 C 352.210938 94.789062 354.449219 97.019531 357.210938 97.019531 C 359.96875 97.019531 362.210938 94.789062 362.210938 92.019531 Z M 362.210938 92.019531 " transform="matrix(1,0,0,-1,0,565)"/>
<path style="fill-rule:nonzero;fill:rgb(69.802856%,0%,0%);fill-opacity:1;stroke-width:1;stroke-linecap:square;stroke-linejoin:miter;stroke:rgb(0%,0%,0%);stroke-opacity:1;stroke-miterlimit:10;" d="M 361.738281 347.421875 C 361.738281 344.660156 359.5 342.421875 356.738281 342.421875 C 353.980469 342.421875 351.738281 344.660156 351.738281 347.421875 C 351.738281 350.179688 353.980469 352.421875 356.738281 352.421875 C 359.5 352.421875 361.738281 350.179688 361.738281 347.421875 Z M 361.738281 347.421875 " transform="matrix(1,0,0,-1,0,565)"/>
<path style="fill-rule:nonzero;fill:rgb(69.802856%,0%,0%);fill-opacity:1;stroke-width:1;stroke-linecap:square;stroke-linejoin:miter;stroke:rgb(0%,0%,0%);stroke-opacity:1;stroke-miterlimit:10;" d="M 271.480469 91.859375 C 271.480469 89.101562 269.238281 86.859375 266.480469 86.859375 C 263.710938 86.859375 261.480469 89.101562 261.480469 91.859375 C 261.480469 94.621094 263.710938 96.859375 266.480469 96.859375 C 269.238281 96.859375 271.480469 94.621094 271.480469 91.859375 Z M 271.480469 91.859375 " transform="matrix(1,0,0,-1,0,565)"/>
<path style="fill-rule:nonzero;fill:rgb(69.802856%,0%,0%);fill-opacity:1;stroke-width:1;stroke-linecap:square;stroke-linejoin:miter;stroke:rgb(0%,0%,0%);stroke-opacity:1;stroke-miterlimit:10;" d="M 329.25 347.359375 C 329.25 344.601562 327.011719 342.359375 324.25 342.359375 C 321.488281 342.359375 319.25 344.601562 319.25 347.359375 C 319.25 350.121094 321.488281 352.359375 324.25 352.359375 C 327.011719 352.359375 329.25 350.121094 329.25 347.359375 Z M 329.25 347.359375 " transform="matrix(1,0,0,-1,0,565)"/>
<path style=" stroke:none;fill-rule:nonzero;fill:rgb(0%,0%,0%);fill-opacity:1;" d="M 145.25 42.050781 L 141.230469 52.921875 L 149.28125 52.921875 Z M 143.578125 39.121094 L 146.941406 39.121094 L 155.28125 61 L 152.199219 61 L 150.199219 55.390625 L 140.339844 55.390625 L 138.359375 61 L 135.230469 61 Z M 143.578125 39.121094 "/>
<path style=" stroke:none;fill-rule:nonzero;fill:rgb(0%,0%,0%);fill-opacity:1;" d="M 45.910156 491.558594 L 45.910156 499.558594 L 50.660156 499.558594 C 50.660156 499.558594 53.03125 499.558594 54.191406 498.578125 C 54.191406 498.578125 55.339844 497.589844 55.339844 495.550781 C 55.339844 495.550781 55.339844 493.5 54.191406 492.53125 C 54.191406 492.53125 53.03125 491.558594 50.660156 491.558594 Z M 45.910156 482.558594 L 45.910156 489.160156 L 50.28125 489.160156 C 50.28125 489.160156 52.449219 489.160156 53.519531 488.339844 C 53.519531 488.339844 54.578125 487.53125 54.578125 485.859375 C 54.578125 485.859375 54.578125 484.199219 53.519531 483.390625 C 53.519531 483.390625 52.449219 482.558594 50.28125 482.558594 Z M 42.941406 480.121094 L 50.5 480.121094 C 50.5 480.121094 53.890625 480.121094 55.71875 481.53125 C 55.71875 481.53125 57.550781 482.941406 57.550781 485.53125 C 57.550781 485.53125 57.550781 487.550781 56.609375 488.730469 C 56.609375 488.730469 55.671875 489.921875 53.859375 490.199219 C 53.859375 490.199219 56.050781 490.671875 57.25 492.171875 C 57.25 492.171875 58.449219 493.660156 58.449219 495.871094 C 58.449219 495.871094 58.449219 498.808594 56.449219 500.410156 C 56.449219 500.410156 54.46875 502 50.800781 502 L 42.941406 502 Z M 42.941406 480.121094 "/>
<path style=" stroke:none;fill-rule:nonzero;fill:rgb(0%,0%,0%);fill-opacity:1;" d="M 645.328125 471.808594 L 645.328125 474.941406 C 645.328125 474.941406 643.828125 473.550781 642.128906 472.859375 C 642.128906 472.859375 640.441406 472.171875 638.550781 472.171875 C 638.550781 472.171875 634.800781 472.171875 632.800781 474.46875 C 632.800781 474.46875 630.808594 476.75 630.808594 481.089844 C 630.808594 481.089844 630.808594 485.410156 632.800781 487.699219 C 632.800781 487.699219 634.800781 490 638.550781 490 C 638.550781 490 640.441406 490 642.128906 489.308594 C 642.128906 489.308594 643.828125 488.609375 645.328125 487.21875 L 645.328125 490.308594 C 645.328125 490.308594 643.769531 491.371094 642.03125 491.910156 C 642.03125 491.910156 640.300781 492.421875 638.359375 492.421875 C 638.359375 492.421875 633.390625 492.421875 630.53125 489.390625 C 630.53125 489.390625 627.691406 486.339844 627.691406 481.089844 C 627.691406 481.089844 627.691406 475.808594 630.53125 472.78125 C 630.53125 472.78125 633.390625 469.730469 638.359375 469.730469 C 638.359375 469.730469 640.328125 469.730469 642.058594 470.269531 C 642.058594 470.269531 643.800781 470.78125 645.328125 471.808594 Z M 645.328125 471.808594 "/>
<path style=" stroke:none;fill-rule:nonzero;fill:rgb(0%,0%,0%);fill-opacity:1;" d="M 373.910156 42.558594 L 373.910156 59.558594 L 377.480469 59.558594 C 377.480469 59.558594 382 59.558594 384.089844 57.519531 C 384.089844 57.519531 386.199219 55.46875 386.199219 51.050781 C 386.199219 51.050781 386.199219 46.640625 384.089844 44.609375 C 384.089844 44.609375 382 42.558594 377.480469 42.558594 Z M 370.941406 40.121094 L 377.03125 40.121094 C 377.03125 40.121094 383.378906 40.121094 386.339844 42.78125 C 386.339844 42.78125 389.328125 45.421875 389.328125 51.050781 C 389.328125 51.050781 389.328125 56.699219 386.339844 59.359375 C 386.339844 59.359375 383.359375 62 377.03125 62 L 370.941406 62 Z M 370.941406 40.121094 "/>
<path style=" stroke:none;fill-rule:nonzero;fill:rgb(0%,0%,0%);fill-opacity:1;" d="M 108.910156 186.558594 L 108.910156 194.78125 L 112.628906 194.78125 C 112.628906 194.78125 114.691406 194.78125 115.808594 193.71875 C 115.808594 193.71875 116.949219 192.640625 116.949219 190.660156 C 116.949219 190.660156 116.949219 188.699219 115.808594 187.640625 C 115.808594 187.640625 114.691406 186.558594 112.628906 186.558594 Z M 105.941406 184.121094 L 112.628906 184.121094 C 112.628906 184.121094 116.300781 184.121094 118.171875 185.800781 C 118.171875 185.800781 120.058594 187.449219 120.058594 190.660156 C 120.058594 190.660156 120.058594 193.910156 118.171875 195.558594 C 118.171875 195.558594 116.300781 197.199219 112.628906 197.199219 L 108.910156 197.199219 L 108.910156 206 L 105.941406 206 Z M 105.941406 184.121094 "/>
<path style=" stroke:none;fill-rule:nonzero;fill:rgb(0%,0%,0%);fill-opacity:1;" d="M 462.828125 179.140625 C 462.828125 179.140625 459.589844 179.140625 457.699219 181.550781 C 457.699219 181.550781 455.808594 183.941406 455.808594 188.089844 C 455.808594 188.089844 455.808594 192.21875 457.699219 194.621094 C 457.699219 194.621094 459.589844 197.019531 462.828125 197.019531 C 462.828125 197.019531 466.050781 197.019531 467.921875 194.621094 C 467.921875 194.621094 469.808594 192.21875 469.808594 188.089844 C 469.808594 188.089844 469.808594 183.941406 467.921875 181.550781 C 467.921875 181.550781 466.050781 179.140625 462.828125 179.140625 Z M 466.96875 198.609375 L 470.859375 202.871094 L 467.300781 202.871094 L 464.050781 199.359375 C 464.050781 199.359375 463.558594 199.390625 463.308594 199.410156 C 463.308594 199.410156 463.058594 199.421875 462.828125 199.421875 C 462.828125 199.421875 458.199219 199.421875 455.441406 196.339844 C 455.441406 196.339844 452.691406 193.25 452.691406 188.089844 C 452.691406 188.089844 452.691406 182.910156 455.441406 179.828125 C 455.441406 179.828125 458.199219 176.730469 462.828125 176.730469 C 462.828125 176.730469 467.421875 176.730469 470.171875 179.828125 C 470.171875 179.828125 472.921875 182.910156 472.921875 188.089844 C 472.921875 188.089844 472.921875 191.890625 471.390625 194.609375 C 471.390625 194.609375 469.878906 197.308594 466.96875 198.609375 Z M 466.96875 198.609375 "/>
<path style=" stroke:none;fill-rule:nonzero;fill:rgb(0%,0%,0%);fill-opacity:1;" d="M 385.058594 479.839844 L 385.058594 482.730469 C 385.058594 482.730469 383.378906 481.921875 381.878906 481.53125 C 381.878906 481.53125 380.378906 481.140625 378.980469 481.140625 C 378.980469 481.140625 376.578125 481.140625 375.269531 482.078125 C 375.269531 482.078125 373.949219 483.019531 373.949219 484.730469 C 373.949219 484.730469 373.949219 486.191406 374.808594 486.941406 C 374.808594 486.941406 375.691406 487.671875 378.128906 488.121094 L 379.910156 488.480469 C 379.910156 488.480469 383.21875 489.121094 384.800781 490.71875 C 384.800781 490.71875 386.378906 492.300781 386.378906 494.96875 C 386.378906 494.96875 386.378906 498.140625 384.230469 499.78125 C 384.230469 499.78125 382.109375 501.421875 378 501.421875 C 378 501.421875 376.441406 501.421875 374.691406 501.058594 C 374.691406 501.058594 372.941406 500.71875 371.058594 500.03125 L 371.058594 496.980469 C 371.058594 496.980469 372.878906 498 374.589844 498.519531 C 374.589844 498.519531 376.328125 499.019531 378 499.019531 C 378 499.019531 380.53125 499.019531 381.910156 498.03125 C 381.910156 498.03125 383.28125 497.03125 383.28125 495.191406 C 383.28125 495.191406 383.28125 493.578125 382.300781 492.671875 C 382.300781 492.671875 381.308594 491.75 379.050781 491.300781 L 377.25 490.949219 C 377.25 490.949219 373.941406 490.300781 372.449219 488.890625 C 372.449219 488.890625 370.980469 487.480469 370.980469 484.96875 C 370.980469 484.96875 370.980469 482.078125 373.019531 480.410156 C 373.019531 480.410156 375.058594 478.730469 378.660156 478.730469 C 378.660156 478.730469 380.191406 478.730469 381.78125 479.019531 C 381.78125 479.019531 383.390625 479.300781 385.058594 479.839844 Z M 385.058594 479.839844 "/>
<path style=" stroke:none;fill-rule:nonzero;fill:rgb(0%,0%,0%);fill-opacity:1;" d="M 376.308594 240.75 C 376.308594 240.75 377.269531 241.058594 378.160156 242.121094 C 378.160156 242.121094 379.058594 243.171875 379.980469 245.019531 L 382.980469 251 L 379.800781 251 L 377 245.390625 C 377 245.390625 375.921875 243.191406 374.910156 242.46875 C 374.910156 242.46875 373.890625 241.75 372.128906 241.75 L 368.910156 241.75 L 368.910156 251 L 365.941406 251 L 365.941406 229.121094 L 372.628906 229.121094 C 372.628906 229.121094 376.378906 229.121094 378.21875 230.699219 C 378.21875 230.699219 380.058594 232.269531 380.058594 235.421875 C 380.058594 235.421875 380.058594 237.5 379.089844 238.859375 C 379.089844 238.859375 378.140625 240.21875 376.308594 240.75 Z M 368.910156 231.558594 L 368.910156 239.328125 L 372.628906 239.328125 C 372.628906 239.328125 374.769531 239.328125 375.859375 238.339844 C 375.859375 238.339844 376.949219 237.339844 376.949219 235.421875 C 376.949219 235.421875 376.949219 233.519531 375.859375 232.550781 C 375.859375 232.550781 374.769531 231.558594 372.628906 231.558594 Z M 368.910156 231.558594 "/>
<path style=" stroke:none;fill-rule:nonzero;fill:rgb(0%,0%,0%);fill-opacity:1;" d="M 231.941406 480.121094 L 245.769531 480.121094 L 245.769531 482.621094 L 234.910156 482.621094 L 234.910156 489.089844 L 245.308594 489.089844 L 245.308594 491.578125 L 234.910156 491.578125 L 234.910156 499.519531 L 246.03125 499.519531 L 246.03125 502 L 231.941406 502 Z M 231.941406 480.121094 "/>
<path style=" stroke:none;fill-rule:nonzero;fill:rgb(0%,0%,0%);fill-opacity:1;" d="M 298.941406 187.121094 L 311.519531 187.121094 L 311.519531 189.621094 L 301.910156 189.621094 L 301.910156 196.058594 L 310.578125 196.058594 L 310.578125 198.558594 L 301.910156 198.558594 L 301.910156 209 L 298.941406 209 Z M 298.941406 187.121094 "/>
</g>
</svg>
